<?xml version="1.0" encoding="utf-8"?>
<!-- Generator: Adobe Illustrator 24.1.2, SVG Export Plug-In . SVG Version: 6.00 Build 0)  -->
<svg version="1.1" id="Layer_1" xmlns="http://www.w3.org/2000/svg" xmlns:xlink="http://www.w3.org/1999/xlink" x="0px" y="0px"
	 viewBox="0 0 252.8 134.4" style="enable-background:new 0 0 252.8 134.4;" xml:space="preserve">
<style type="text/css">
	.st0{opacity:0.25;fill:#FFFFFF;enable-background:new    ;}
	.st1{fill:#FFFFFF;}
</style>
<rect class="st0" width="252.8" height="42.1"/>
<desc>Created with Sketch.</desc>
<desc>Created with Sketch.</desc>
<desc>Created with Sketch.</desc>
<g id="Page-1">
	
		<g id="angle-right" transform="translate(161.000000, 104.000000) rotate(90.000000) translate(-161.000000, -104.000000) translate(57.000000, -57.000000)">
		<path id="Path" d="M25.4,93.1L19.5,99c-0.4,0.4-1.1,0.4-1.5,0l-1-1c-0.4-0.4-0.4-1.1,0-1.5l4.1-4.1L17,88.2
			c-0.4-0.4-0.4-1.1,0-1.5l1-1c0.4-0.4,1.1-0.4,1.5,0l5.9,5.9C25.9,92,25.9,92.7,25.4,93.1L25.4,93.1z"/>
	</g>
</g>
<rect x="19.1" y="16.7" class="st1" width="93.8" height="8.6"/>
<rect x="19.1" y="62.8" class="st1" width="93.8" height="8.6"/>
<rect y="46.1" class="st0" width="252.8" height="42.1"/>
<rect x="19.1" y="109" class="st1" width="93.8" height="8.6"/>
<rect y="92.3" class="st0" width="252.8" height="42.1"/>
<g id="Page-1_1_">
	
		<g id="angle-right_1_" transform="translate(161.000000, 104.000000) rotate(90.000000) translate(-161.000000, -104.000000) translate(57.000000, -57.000000)">
		<path id="Path_1_" d="M71.3,93.1L65.4,99c-0.4,0.4-1.1,0.4-1.5,0l-1-1c-0.4-0.4-0.4-1.1,0-1.5l4.1-4.1l-4.1-4.1
			c-0.4-0.4-0.4-1.1,0-1.5l1-1c0.4-0.4,1.1-0.4,1.5,0l5.9,5.9C71.8,92,71.8,92.7,71.3,93.1L71.3,93.1z"/>
	</g>
</g>
<g id="Page-1_2_">
	
		<g id="angle-right_2_" transform="translate(161.000000, 104.000000) rotate(90.000000) translate(-161.000000, -104.000000) translate(57.000000, -57.000000)">
		<path id="Path_2_" d="M117.5,93.1l-5.9,5.9c-0.4,0.4-1.1,0.4-1.5,0l-1-1c-0.4-0.4-0.4-1.1,0-1.5l4.1-4.1l-4.1-4.1
			c-0.4-0.4-0.4-1.1,0-1.5l1-1c0.4-0.4,1.1-0.4,1.5,0l5.9,5.9C118,92,118,92.7,117.5,93.1L117.5,93.1z"/>
	</g>
</g>
</svg>
