<svg id="Layer_1" data-name="Layer 1" xmlns="http://www.w3.org/2000/svg" xmlns:xlink="http://www.w3.org/1999/xlink" height="170px" viewBox="0 0 540 329"><defs><style>.cls-1{fill:#fff;}.cls-2{clip-path:url(#clip-path);}.cls-3{clip-path:url(#clip-path-2);}</style><clipPath id="clip-path"><path class="cls-1" d="M1176.38,107.07l2.09,38.38a3.39,3.39,0,0,0,3.38,3.21h13.71a3.4,3.4,0,0,0,3.38-3.21l2.09-38.38a3.38,3.38,0,0,0-3.38-3.57h-17.89A3.38,3.38,0,0,0,1176.38,107.07Zm12.32,46.67a13,13,0,1,0,13,13A13,13,0,0,0,1188.7,153.74Zm70-14.12a70,70,0,1,1-70-70A70,70,0,0,1,1258.7,139.62Z"/></clipPath><clipPath id="clip-path-2"><path class="cls-1" d="M1359.23,176.8l51.65-52.18a4.56,4.56,0,0,0,0-6.42l-6.35-6.41a4.46,4.46,0,0,0-6.35,0l-42.13,42.55-19.67-19.87a4.46,4.46,0,0,0-6.35,0l-6.35,6.42a4.57,4.57,0,0,0,0,6.41l29.2,29.5A4.46,4.46,0,0,0,1359.23,176.8Zm77.47-37.18a70,70,0,1,1-70-70A70,70,0,0,1,1436.7,139.62Z"/></clipPath></defs><path class="cls-1" d="M529.57,10V88H10V10H529.57m4-10H6A6,6,0,0,0,0,6V92a6,6,0,0,0,6,6H533.57a6,6,0,0,0,6-6V6a6,6,0,0,0-6-6Z"/><rect class="cls-1" x="37.15" y="43" width="200" height="12" rx="3"/><path class="cls-1" d="M485.76,59.62,471.28,45.14a2.55,2.55,0,0,1,0-3.61l2.41-2.4a2.53,2.53,0,0,1,3.61,0l10.26,10.26,10.27-10.26a2.53,2.53,0,0,1,3.61,0l2.4,2.4a2.55,2.55,0,0,1,0,3.61L489.36,59.62a2.52,2.52,0,0,1-3.6,0Z"/><path class="cls-1" d="M485.76,174.75l-14.48-14.48a2.55,2.55,0,0,1,0-3.61l2.41-2.41a2.55,2.55,0,0,1,3.61,0l10.26,10.27,10.27-10.27a2.55,2.55,0,0,1,3.61,0l2.4,2.41a2.55,2.55,0,0,1,0,3.61l-14.48,14.48a2.53,2.53,0,0,1-3.6,0Z"/><path class="cls-1" d="M485.76,290.25l-14.48-14.48a2.55,2.55,0,0,1,0-3.61l2.41-2.41a2.55,2.55,0,0,1,3.61,0L487.56,280l10.27-10.27a2.55,2.55,0,0,1,3.61,0l2.4,2.41a2.55,2.55,0,0,1,0,3.61l-14.48,14.48a2.53,2.53,0,0,1-3.6,0Z"/><path class="cls-1" d="M529.57,125v78H10V125H529.57m4-10H6a6,6,0,0,0-6,6v86a6,6,0,0,0,6,6H533.57a6,6,0,0,0,6-6V121a6,6,0,0,0-6-6Z"/><rect class="cls-1" x="37.15" y="158" width="200" height="12" rx="3"/><path class="cls-1" d="M529.57,241v78H10V241H529.57m4-10H6a6,6,0,0,0-6,6v86a6,6,0,0,0,6,6H533.57a6,6,0,0,0,6-6V237a6,6,0,0,0-6-6Z"/><rect class="cls-1" x="37.15" y="274" width="200" height="12" rx="3"/><path class="cls-1" d="M1176.38,107.07l2.09,38.38a3.39,3.39,0,0,0,3.38,3.21h13.71a3.4,3.4,0,0,0,3.38-3.21l2.09-38.38a3.38,3.38,0,0,0-3.38-3.57h-17.89A3.38,3.38,0,0,0,1176.38,107.07Zm12.32,46.67a13,13,0,1,0,13,13A13,13,0,0,0,1188.7,153.74Zm70-14.12a70,70,0,1,1-70-70A70,70,0,0,1,1258.7,139.62Z"/><g class="cls-2"><rect class="cls-1" x="-2801.3" y="-1170.38" width="9600" height="3205"/></g><path class="cls-1" d="M1359.23,176.8l51.65-52.18a4.56,4.56,0,0,0,0-6.42l-6.35-6.41a4.46,4.46,0,0,0-6.35,0l-42.13,42.55-19.67-19.87a4.46,4.46,0,0,0-6.35,0l-6.35,6.42a4.57,4.57,0,0,0,0,6.41l29.2,29.5A4.46,4.46,0,0,0,1359.23,176.8Zm77.47-37.18a70,70,0,1,1-70-70A70,70,0,0,1,1436.7,139.62Z"/><g class="cls-3"><rect class="cls-1" x="-2623.3" y="-1030.38" width="9600" height="3205"/></g></svg>