<svg id="Layer_1" data-name="Layer 1" xmlns="http://www.w3.org/2000/svg" viewBox="0 0 976 299.69"><defs><style>.cls-1{fill:#f5f5f5;}.cls-2{fill:#4b4b4b;}.cls-3{fill:#ee020a;}.cls-4,.cls-5{fill:#5151d3;}.cls-4{opacity:0.3;}.cls-6{fill:#fff;}.cls-7{fill:#e3e4e5;}</style></defs><rect class="cls-1" width="976" height="299.69"/><rect class="cls-2" x="78.28" y="92.82" width="814.39" height="1"/><g id="angle-down-red"><g id="angle-right"><path id="Path" class="cls-3" d="M860.83,119.27l6.3,6.4a1.21,1.21,0,0,1,0,1.6l-1.1,1.1a1.21,1.21,0,0,1-1.6,0l-4.5-4.5-4.4,4.4a1.21,1.21,0,0,1-1.6,0l-1.1-1.1a1.21,1.21,0,0,1,0-1.6l6.3-6.4a1.5,1.5,0,0,1,1.7.1Z"/></g></g><rect class="cls-4" x="78.78" y="93.07" width="813.39" height="60"/><rect class="cls-2" x="78.28" y="206.23" width="814.39" height="1"/><path d="M106.58,129.67V117.9h2.08v4.73h4.77V117.9h2.09v11.77h-2.09v-5.22h-4.77v5.22Z"/><path d="M122.11,129.89a4.6,4.6,0,0,1-1.71-.32,4,4,0,0,1-2.31-2.36,5.65,5.65,0,0,1,0-3.89,4.45,4.45,0,0,1,.9-1.46,4.1,4.1,0,0,1,1.31-.92,3.79,3.79,0,0,1,1.51-.32,3.87,3.87,0,0,1,1.58.3,3.22,3.22,0,0,1,1.15.87,3.73,3.73,0,0,1,.69,1.33,5.71,5.71,0,0,1,.23,1.69,5.34,5.34,0,0,1,0,.58,3,3,0,0,1-.07.43h-5.61a2.86,2.86,0,0,0,.84,1.83,2.53,2.53,0,0,0,1.77.64,3.38,3.38,0,0,0,1.07-.17,5.22,5.22,0,0,0,1-.48l.7,1.29a6.29,6.29,0,0,1-1.4.69A4.92,4.92,0,0,1,122.11,129.89Zm-2.36-5.47h3.93a2.62,2.62,0,0,0-.45-1.62,1.6,1.6,0,0,0-1.36-.58,2,2,0,0,0-1.38.56A2.65,2.65,0,0,0,119.75,124.42Z"/><path d="M129.38,129.89a2.59,2.59,0,0,1-1.89-.71,2.53,2.53,0,0,1-.72-1.88,2.43,2.43,0,0,1,1.23-2.2,6.48,6.48,0,0,1,1.62-.67A15.52,15.52,0,0,1,132,124a2.84,2.84,0,0,0-.1-.66,1.46,1.46,0,0,0-.27-.56,1.23,1.23,0,0,0-.49-.37,1.91,1.91,0,0,0-.76-.14,3.54,3.54,0,0,0-1.27.25,9.23,9.23,0,0,0-1.21.62l-.76-1.39a9.48,9.48,0,0,1,1.66-.81,5.57,5.57,0,0,1,2-.34,3,3,0,0,1,2.47,1,4.28,4.28,0,0,1,.82,2.83v5.24h-1.71l-.14-1h-.07a6.55,6.55,0,0,1-1.27.85A3.31,3.31,0,0,1,129.38,129.89Zm.67-1.62a2,2,0,0,0,1-.25,5.37,5.37,0,0,0,.94-.72v-2a9.33,9.33,0,0,0-1.51.28,4.28,4.28,0,0,0-1,.41,1.48,1.48,0,0,0-.54.51,1.21,1.21,0,0,0-.16.61,1,1,0,0,0,.36.87A1.5,1.5,0,0,0,130.05,128.27Z"/><path d="M139.62,129.89a3.23,3.23,0,0,1-2.65-1.22,5.25,5.25,0,0,1-1-3.41,5.6,5.6,0,0,1,.31-1.94,4.51,4.51,0,0,1,.84-1.46,3.78,3.78,0,0,1,1.2-.92,3.25,3.25,0,0,1,1.39-.32,2.89,2.89,0,0,1,1.28.26,4.93,4.93,0,0,1,1,.71l-.07-1.42V117h2.07v12.71h-1.71l-.14-.95h-.08a4.78,4.78,0,0,1-1.13.83A3,3,0,0,1,139.62,129.89Zm.51-1.71a2.45,2.45,0,0,0,1.85-1v-4.12a2.83,2.83,0,0,0-.91-.58,2.5,2.5,0,0,0-.89-.16,1.82,1.82,0,0,0-1.46.75,3.49,3.49,0,0,0-.59,2.16,3.9,3.9,0,0,0,.51,2.19A1.69,1.69,0,0,0,140.13,128.18Z"/><path d="M150.46,129.89a4.6,4.6,0,0,1-1.71-.32,4,4,0,0,1-2.31-2.36,5.65,5.65,0,0,1,0-3.89,4.45,4.45,0,0,1,.9-1.46,4.1,4.1,0,0,1,1.31-.92,3.79,3.79,0,0,1,1.51-.32,3.87,3.87,0,0,1,1.58.3,3.22,3.22,0,0,1,1.15.87,3.73,3.73,0,0,1,.69,1.33,5.71,5.71,0,0,1,.23,1.69,5.34,5.34,0,0,1,0,.58,3,3,0,0,1-.07.43h-5.61a2.85,2.85,0,0,0,.83,1.83,2.57,2.57,0,0,0,1.78.64,3.38,3.38,0,0,0,1.07-.17,5.22,5.22,0,0,0,1-.48l.7,1.29a6.29,6.29,0,0,1-1.4.69A4.92,4.92,0,0,1,150.46,129.89Zm-2.36-5.47H152a2.62,2.62,0,0,0-.45-1.62,1.6,1.6,0,0,0-1.36-.58,2,2,0,0,0-1.38.56A2.65,2.65,0,0,0,148.1,124.42Z"/><path d="M155.8,129.67v-8.84h1.72l.14,1.57h.07a3.55,3.55,0,0,1,1.14-1.32,2.34,2.34,0,0,1,1.36-.46,2.37,2.37,0,0,1,1,.18l-.36,1.8a3,3,0,0,0-.43-.11,3.23,3.23,0,0,0-.49,0,1.93,1.93,0,0,0-1.09.41,3.12,3.12,0,0,0-1,1.41v5.4Z"/><path d="M168.26,129.89a2.59,2.59,0,0,1-1.89-.71,2.53,2.53,0,0,1-.72-1.88A2.61,2.61,0,0,1,166,126a2.53,2.53,0,0,1,.93-.94,6.48,6.48,0,0,1,1.62-.67,15.52,15.52,0,0,1,2.35-.41,2.84,2.84,0,0,0-.1-.66,1.46,1.46,0,0,0-.27-.56,1.23,1.23,0,0,0-.49-.37,1.91,1.91,0,0,0-.76-.14,3.54,3.54,0,0,0-1.27.25,8.64,8.64,0,0,0-1.21.62l-.76-1.39a9.15,9.15,0,0,1,1.66-.81,5.57,5.57,0,0,1,2-.34,3,3,0,0,1,2.47,1,4.28,4.28,0,0,1,.82,2.83v5.24h-1.71l-.14-1H171a6.55,6.55,0,0,1-1.27.85A3.31,3.31,0,0,1,168.26,129.89Zm.67-1.62a2,2,0,0,0,1-.25,5.37,5.37,0,0,0,.94-.72v-2a9.33,9.33,0,0,0-1.51.28,4.28,4.28,0,0,0-1,.41,1.48,1.48,0,0,0-.54.51,1.21,1.21,0,0,0-.16.61,1,1,0,0,0,.36.87A1.48,1.48,0,0,0,168.93,128.27Z"/><path d="M175.41,129.67v-8.84h1.71l.14,1.57h.07a3.55,3.55,0,0,1,1.14-1.32,2.34,2.34,0,0,1,1.36-.46,2.37,2.37,0,0,1,1,.18l-.36,1.8a2.72,2.72,0,0,0-.43-.11,3.11,3.11,0,0,0-.49,0,1.93,1.93,0,0,0-1.09.41,3,3,0,0,0-1,1.41v5.4Z"/><path d="M185.72,129.89a4.6,4.6,0,0,1-1.71-.32,4,4,0,0,1-2.31-2.36,5.81,5.81,0,0,1,0-3.89,4.31,4.31,0,0,1,.91-1.46,4,4,0,0,1,1.3-.92,3.83,3.83,0,0,1,1.51-.32,4,4,0,0,1,1.59.3,3.27,3.27,0,0,1,1.14.87,3.73,3.73,0,0,1,.69,1.33,5.7,5.7,0,0,1,.24,1.69,5.22,5.22,0,0,1,0,.58c0,.18,0,.32-.06.43h-5.62a2.91,2.91,0,0,0,.84,1.83,2.53,2.53,0,0,0,1.77.64,3.38,3.38,0,0,0,1.07-.17,5.22,5.22,0,0,0,1-.48l.7,1.29a6.09,6.09,0,0,1-1.4.69A4.92,4.92,0,0,1,185.72,129.89Zm-2.36-5.47h3.93a2.69,2.69,0,0,0-.44-1.62,1.63,1.63,0,0,0-1.36-.58,2,2,0,0,0-1.39.56A2.65,2.65,0,0,0,183.36,124.42Z"/><path d="M193,129.89a2.59,2.59,0,0,1-1.89-.71,2.53,2.53,0,0,1-.72-1.88,2.61,2.61,0,0,1,.3-1.26,2.56,2.56,0,0,1,.94-.94,6.17,6.17,0,0,1,1.62-.67,15.15,15.15,0,0,1,2.34-.41,3.5,3.5,0,0,0-.09-.66,1.64,1.64,0,0,0-.28-.56,1.23,1.23,0,0,0-.49-.37,1.88,1.88,0,0,0-.76-.14,3.45,3.45,0,0,0-1.26.25,8.75,8.75,0,0,0-1.22.62l-.76-1.39a9.48,9.48,0,0,1,1.66-.81,5.57,5.57,0,0,1,2-.34,3.07,3.07,0,0,1,2.48,1,4.34,4.34,0,0,1,.81,2.83v5.24H196l-.15-1h-.07a6.55,6.55,0,0,1-1.27.85A3.31,3.31,0,0,1,193,129.89Zm.67-1.62a2,2,0,0,0,1-.25,5.37,5.37,0,0,0,.94-.72v-2a9.33,9.33,0,0,0-1.51.28,4.28,4.28,0,0,0-1,.41,1.48,1.48,0,0,0-.54.51,1.32,1.32,0,0,0-.16.61,1,1,0,0,0,.36.87A1.5,1.5,0,0,0,193.66,128.27Z"/><path class="cls-2" d="M110.49,184.53a4.52,4.52,0,0,1-1.82-.37,4.12,4.12,0,0,1-1.45-1.07,4.89,4.89,0,0,1-1-1.71,7.06,7.06,0,0,1-.35-2.29,6.78,6.78,0,0,1,.36-2.28,5.09,5.09,0,0,1,1-1.71,4.31,4.31,0,0,1,1.47-1.08,4.58,4.58,0,0,1,1.86-.37,3.54,3.54,0,0,1,1.69.39,4.48,4.48,0,0,1,1.19.9l-.72.87a3.42,3.42,0,0,0-.94-.72,2.53,2.53,0,0,0-1.2-.28,3,3,0,0,0-1.36.3,2.85,2.85,0,0,0-1,.85,4.06,4.06,0,0,0-.67,1.33,6.41,6.41,0,0,0-.23,1.76,6.53,6.53,0,0,0,.23,1.79,4.24,4.24,0,0,0,.65,1.35,2.9,2.9,0,0,0,1,.86,3.07,3.07,0,0,0,2.69,0,4,4,0,0,0,1.09-.88l.74.84a4.81,4.81,0,0,1-1.41,1.12A4,4,0,0,1,110.49,184.53Z"/><path class="cls-2" d="M118.55,184.53a3.31,3.31,0,0,1-1.36-.28,3.24,3.24,0,0,1-1.15-.79,3.8,3.8,0,0,1-.79-1.28,5.11,5.11,0,0,1,0-3.45,4,4,0,0,1,.79-1.29,3.27,3.27,0,0,1,1.15-.8,3.47,3.47,0,0,1,1.36-.27,3.52,3.52,0,0,1,1.37.27,3.36,3.36,0,0,1,1.15.8,4,4,0,0,1,.79,1.29,5.28,5.28,0,0,1,0,3.45,3.8,3.8,0,0,1-.79,1.28,3.51,3.51,0,0,1-2.52,1.07Zm0-1.09a1.92,1.92,0,0,0,.92-.22,2.05,2.05,0,0,0,.71-.61,2.88,2.88,0,0,0,.45-.93,4.19,4.19,0,0,0,.16-1.22,4.24,4.24,0,0,0-.16-1.22,2.89,2.89,0,0,0-.45-1,2.08,2.08,0,0,0-.71-.62,2,2,0,0,0-.92-.22,2,2,0,0,0-1.62.84,2.9,2.9,0,0,0-.46,1,4.62,4.62,0,0,0-.16,1.22,4.56,4.56,0,0,0,.16,1.22,2.89,2.89,0,0,0,.46.93,2,2,0,0,0,.71.61A1.88,1.88,0,0,0,118.55,183.44Z"/><path class="cls-2" d="M124.2,184.33v-7.77h1.09l.11,1.12h0a5.73,5.73,0,0,1,1.18-.94,2.67,2.67,0,0,1,1.43-.37,2.09,2.09,0,0,1,1.8.76,3.81,3.81,0,0,1,.57,2.28v4.92h-1.32v-4.75a2.75,2.75,0,0,0-.35-1.59,1.3,1.3,0,0,0-1.12-.49,1.87,1.87,0,0,0-1.07.31,7.22,7.22,0,0,0-1.06.89v5.63Z"/><path class="cls-2" d="M135.4,184.53a2.55,2.55,0,0,1-1.05-.2,1.7,1.7,0,0,1-.68-.52,2,2,0,0,1-.38-.82,4.37,4.37,0,0,1-.11-1.06v-4.3H132v-1l1.21-.08.16-2.18h1.11v2.18h2.09v1.07h-2.09V182a1.94,1.94,0,0,0,.26,1.11,1.06,1.06,0,0,0,.94.39,1.85,1.85,0,0,0,.44-.06,3.81,3.81,0,0,0,.44-.14l.25,1c-.21.07-.44.14-.69.2A3.27,3.27,0,0,1,135.4,184.53Z"/><path class="cls-2" d="M141.29,184.53a3.91,3.91,0,0,1-1.46-.28,3.62,3.62,0,0,1-1.19-.8,3.75,3.75,0,0,1-.79-1.28,4.79,4.79,0,0,1-.29-1.71,4.67,4.67,0,0,1,.3-1.72,4.35,4.35,0,0,1,.78-1.29,3.41,3.41,0,0,1,1.11-.8,3.11,3.11,0,0,1,1.3-.28,3.27,3.27,0,0,1,1.32.25,2.65,2.65,0,0,1,1,.74,3.4,3.4,0,0,1,.6,1.15,5.39,5.39,0,0,1,.2,1.5v.41a2.84,2.84,0,0,1,0,.35h-5.25a3,3,0,0,0,.77,2,2.4,2.4,0,0,0,1.82.73,3.09,3.09,0,0,0,1-.17,4.49,4.49,0,0,0,.91-.44l.46.87a6.72,6.72,0,0,1-1.14.56A3.91,3.91,0,0,1,141.29,184.53Zm-2.45-4.71H143a2.82,2.82,0,0,0-.5-1.8,1.74,1.74,0,0,0-1.42-.61,2,2,0,0,0-1.47.63,2.57,2.57,0,0,0-.5.76A3.19,3.19,0,0,0,138.84,179.82Z"/><path class="cls-2" d="M146.07,184.33v-7.77h1.09l.11,1.12h0a6.32,6.32,0,0,1,1.18-.94,2.7,2.7,0,0,1,1.43-.37,2.09,2.09,0,0,1,1.8.76,3.81,3.81,0,0,1,.57,2.28v4.92H151v-4.75a2.75,2.75,0,0,0-.36-1.59,1.29,1.29,0,0,0-1.12-.49,1.87,1.87,0,0,0-1.07.31,6.73,6.73,0,0,0-1.05.89v5.63Z"/><path class="cls-2" d="M157.27,184.53a2.47,2.47,0,0,1-1-.2,1.66,1.66,0,0,1-.69-.52,2.14,2.14,0,0,1-.38-.82,4.93,4.93,0,0,1-.11-1.06v-4.3H153.9v-1l1.21-.08.16-2.18h1.11v2.18h2.09v1.07h-2.09V182a2,2,0,0,0,.26,1.11,1.06,1.06,0,0,0,.94.39,1.86,1.86,0,0,0,.45-.06,3.62,3.62,0,0,0,.43-.14l.25,1c-.21.07-.44.14-.69.2A3.2,3.2,0,0,1,157.27,184.53Z"/><path class="cls-2" d="M163.66,184.33v-6.7H162.6v-1l1.06-.08v-1.23a2.93,2.93,0,0,1,.55-1.89,2.07,2.07,0,0,1,1.72-.69,3,3,0,0,1,.69.07,3.25,3.25,0,0,1,.6.19l-.28,1a2.28,2.28,0,0,0-.88-.19c-.73,0-1.09.5-1.09,1.51v1.23h1.65v1.07H165v6.7Z"/><path class="cls-2" d="M171,184.53a3.36,3.36,0,0,1-1.37-.28,3.3,3.3,0,0,1-1.14-.79,3.65,3.65,0,0,1-.79-1.28,5.11,5.11,0,0,1,0-3.45,3.79,3.79,0,0,1,.79-1.29,3.33,3.33,0,0,1,1.14-.8,3.61,3.61,0,0,1,2.74,0,3.33,3.33,0,0,1,1.14.8,3.79,3.79,0,0,1,.79,1.29,5.11,5.11,0,0,1,0,3.45,3.65,3.65,0,0,1-.79,1.28,3.3,3.3,0,0,1-1.14.79A3.36,3.36,0,0,1,171,184.53Zm0-1.09a2,2,0,0,0,1.62-.83,2.89,2.89,0,0,0,.46-.93,4.19,4.19,0,0,0,.16-1.22,4.24,4.24,0,0,0-.16-1.22,2.9,2.9,0,0,0-.46-1,1.91,1.91,0,0,0-.71-.62,2,2,0,0,0-.91-.22,2,2,0,0,0-.91.22,1.91,1.91,0,0,0-.71.62,2.9,2.9,0,0,0-.46,1,4.24,4.24,0,0,0-.16,1.22,4.19,4.19,0,0,0,.16,1.22,2.89,2.89,0,0,0,.46.93,1.89,1.89,0,0,0,.71.61A1.86,1.86,0,0,0,171,183.44Z"/><path class="cls-2" d="M176.62,184.33v-7.77h1.09l.11,1.41h.05a3.51,3.51,0,0,1,1-1.17,2,2,0,0,1,1.24-.43,2.06,2.06,0,0,1,.84.16l-.26,1.15-.35-.1a2.25,2.25,0,0,0-.4,0,1.7,1.7,0,0,0-1,.4,3.21,3.21,0,0,0-.94,1.39v5Z"/><path class="cls-2" d="M187.82,184.53a2.49,2.49,0,0,1-1-.2,1.8,1.8,0,0,1-.69-.52,2.14,2.14,0,0,1-.38-.82,4.93,4.93,0,0,1-.11-1.06v-4.3h-1.15v-1l1.22-.08.16-2.18h1.1v2.18H189v1.07h-2.1V182a2,2,0,0,0,.26,1.11,1.06,1.06,0,0,0,.94.39,1.86,1.86,0,0,0,.45-.06,3.62,3.62,0,0,0,.43-.14l.26,1c-.22.07-.45.14-.7.2A3.18,3.18,0,0,1,187.82,184.53Z"/><path class="cls-2" d="M190.78,184.33V172.94h1.31v3.11l-.05,1.6a6.59,6.59,0,0,1,1.17-.91,2.64,2.64,0,0,1,1.42-.37,2.09,2.09,0,0,1,1.8.76,3.81,3.81,0,0,1,.57,2.28v4.92h-1.31v-4.75a2.84,2.84,0,0,0-.35-1.59,1.31,1.31,0,0,0-1.12-.49,1.88,1.88,0,0,0-1.08.31,6.73,6.73,0,0,0-1,.89v5.63Z"/><path class="cls-2" d="M202.63,184.53a3.91,3.91,0,0,1-1.46-.28,3.57,3.57,0,0,1-1.18-.8,3.62,3.62,0,0,1-.8-1.28,4.79,4.79,0,0,1-.28-1.71,4.67,4.67,0,0,1,.29-1.72,4.18,4.18,0,0,1,.79-1.29,3.21,3.21,0,0,1,1.11-.8,3.06,3.06,0,0,1,1.29-.28,3.27,3.27,0,0,1,1.32.25,2.58,2.58,0,0,1,1,.74,3.4,3.4,0,0,1,.6,1.15,5,5,0,0,1,.21,1.5c0,.14,0,.28,0,.41a2.84,2.84,0,0,1,0,.35H200.2a3,3,0,0,0,.78,2,2.37,2.37,0,0,0,1.81.73,3.15,3.15,0,0,0,1-.17,4.68,4.68,0,0,0,.9-.44l.46.87a7,7,0,0,1-1.13.56A4,4,0,0,1,202.63,184.53Zm-2.45-4.71h4.16a2.76,2.76,0,0,0-.5-1.8,1.74,1.74,0,0,0-1.42-.61,2,2,0,0,0-.79.16,2,2,0,0,0-.68.47,2.57,2.57,0,0,0-.5.76A3.81,3.81,0,0,0,200.18,179.82Z"/><path class="cls-2" d="M213.77,184.53a4,4,0,0,1-1.47-.28,3.68,3.68,0,0,1-1.18-.8,3.6,3.6,0,0,1-.79-1.28,4.79,4.79,0,0,1-.29-1.71,4.67,4.67,0,0,1,.3-1.72,4,4,0,0,1,.78-1.29,3.41,3.41,0,0,1,1.11-.8,3.11,3.11,0,0,1,1.3-.28,3.27,3.27,0,0,1,1.32.25,2.54,2.54,0,0,1,1,.74,3.08,3.08,0,0,1,.6,1.15,5,5,0,0,1,.21,1.5c0,.14,0,.28,0,.41a1.2,1.2,0,0,1,0,.35h-5.24a3,3,0,0,0,.77,2,2.4,2.4,0,0,0,1.82.73,3.09,3.09,0,0,0,1-.17,4.17,4.17,0,0,0,.9-.44l.47.87a6.72,6.72,0,0,1-1.14.56A3.91,3.91,0,0,1,213.77,184.53Zm-2.45-4.71h4.16a2.82,2.82,0,0,0-.5-1.8,1.74,1.74,0,0,0-1.42-.61,2,2,0,0,0-1.47.63,2.81,2.81,0,0,0-.51.76A3.47,3.47,0,0,0,211.32,179.82Z"/><path class="cls-2" d="M217.35,184.33l2.55-4.06-2.36-3.71H219l1,1.71.37.65c.12.22.26.43.4.65h.06c.12-.22.24-.43.35-.65l.35-.65,1-1.71h1.38l-2.36,3.85,2.53,3.92h-1.42l-1.14-1.8-.42-.71c-.13-.23-.28-.46-.43-.69h-.06l-.4.68q-.19.34-.39.72l-1.05,1.8Z"/><path class="cls-2" d="M225.58,187.61V176.56h1.08l.12.89h0a6.44,6.44,0,0,1,1.16-.76,2.85,2.85,0,0,1,1.32-.32,2.93,2.93,0,0,1,1.33.28,2.4,2.4,0,0,1,1,.8,3.76,3.76,0,0,1,.59,1.24,6.41,6.41,0,0,1,.2,1.64,5.1,5.1,0,0,1-.28,1.77,4,4,0,0,1-.73,1.32,3.13,3.13,0,0,1-1.07.83,3.17,3.17,0,0,1-1.28.28,2.57,2.57,0,0,1-1.08-.24,5.23,5.23,0,0,1-1.08-.66l0,1.36v2.62Zm3.21-4.19a1.91,1.91,0,0,0,.89-.21,2.15,2.15,0,0,0,.7-.61,2.92,2.92,0,0,0,.47-1,4.71,4.71,0,0,0,.17-1.3,5.23,5.23,0,0,0-.12-1.16,2.41,2.41,0,0,0-.36-.91,1.63,1.63,0,0,0-.64-.58,1.94,1.94,0,0,0-.93-.21,2.09,2.09,0,0,0-1,.27,5.25,5.25,0,0,0-1.08.79v4.08a3.58,3.58,0,0,0,1,.63A2.65,2.65,0,0,0,228.79,183.42Z"/><path class="cls-2" d="M236,184.53a2.36,2.36,0,0,1-1.62-.58,2.07,2.07,0,0,1-.65-1.63,2.15,2.15,0,0,1,1.14-2,9.27,9.27,0,0,1,3.63-1,3.38,3.38,0,0,0-.07-.72,1.77,1.77,0,0,0-.25-.63,1.31,1.31,0,0,0-.49-.44,1.68,1.68,0,0,0-.79-.17,3.12,3.12,0,0,0-1.26.26,5.6,5.6,0,0,0-1.06.58l-.51-.92a8.59,8.59,0,0,1,1.33-.68,4.58,4.58,0,0,1,1.72-.32,2.41,2.41,0,0,1,2.07.87,3.83,3.83,0,0,1,.64,2.33v4.76h-1.09l-.11-.92h-.05a6.38,6.38,0,0,1-1.2.79A3,3,0,0,1,236,184.53Zm.39-1.06a2.27,2.27,0,0,0,1.05-.26,5.48,5.48,0,0,0,1.06-.78v-2.16a16,16,0,0,0-1.64.3,4.41,4.41,0,0,0-1.07.42,1.58,1.58,0,0,0-.59.55,1.27,1.27,0,0,0-.19.68,1.11,1.11,0,0,0,.4,1A1.65,1.65,0,0,0,236.41,183.47Z"/><path class="cls-2" d="M242.3,184.33v-7.77h1.08l.12,1.12h0a6.32,6.32,0,0,1,1.18-.94,2.7,2.7,0,0,1,1.43-.37,2.09,2.09,0,0,1,1.8.76,3.81,3.81,0,0,1,.57,2.28v4.92h-1.31v-4.75a2.84,2.84,0,0,0-.35-1.59,1.31,1.31,0,0,0-1.12-.49,1.88,1.88,0,0,0-1.08.31,6.73,6.73,0,0,0-1,.89v5.63Z"/><path class="cls-2" d="M253.7,184.53a2.89,2.89,0,0,1-2.34-1.06,4.61,4.61,0,0,1-.87-3,4.77,4.77,0,0,1,.28-1.7,3.86,3.86,0,0,1,.74-1.29,3.52,3.52,0,0,1,1.07-.82,3,3,0,0,1,1.28-.28,2.66,2.66,0,0,1,1.17.24,5,5,0,0,1,1,.65l-.06-1.33v-3h1.32v11.39h-1.08l-.12-.91h0a5,5,0,0,1-1.07.78A2.63,2.63,0,0,1,253.7,184.53Zm.29-1.11a2.19,2.19,0,0,0,1-.26,3.83,3.83,0,0,0,1-.81v-4.06a3.41,3.41,0,0,0-1-.64,2.48,2.48,0,0,0-.93-.18,1.76,1.76,0,0,0-.87.22,2.16,2.16,0,0,0-.72.6,3.33,3.33,0,0,0-.48.94,4.18,4.18,0,0,0-.17,1.22,3.68,3.68,0,0,0,.56,2.19A1.83,1.83,0,0,0,254,183.42Z"/><path class="cls-2" d="M263.08,184.53a3.91,3.91,0,0,1-1.46-.28,3.62,3.62,0,0,1-1.19-.8,3.75,3.75,0,0,1-.79-1.28,4.79,4.79,0,0,1-.29-1.71,4.67,4.67,0,0,1,.3-1.72,4.35,4.35,0,0,1,.78-1.29,3.41,3.41,0,0,1,1.11-.8,3.11,3.11,0,0,1,1.3-.28,3.27,3.27,0,0,1,1.32.25,2.65,2.65,0,0,1,1,.74,3.4,3.4,0,0,1,.6,1.15,5.39,5.39,0,0,1,.2,1.5v.41a2.84,2.84,0,0,1,0,.35h-5.25a3,3,0,0,0,.77,2,2.4,2.4,0,0,0,1.82.73,3.09,3.09,0,0,0,1-.17,4.49,4.49,0,0,0,.91-.44l.46.87a6.72,6.72,0,0,1-1.14.56A3.91,3.91,0,0,1,263.08,184.53Zm-2.45-4.71h4.16a2.82,2.82,0,0,0-.5-1.8,1.74,1.74,0,0,0-1.42-.61,2,2,0,0,0-1.47.63,2.57,2.57,0,0,0-.5.76A3.19,3.19,0,0,0,260.63,179.82Z"/><path class="cls-2" d="M270.52,184.53a2.89,2.89,0,0,1-2.34-1.06,4.62,4.62,0,0,1-.88-3,5,5,0,0,1,.28-1.7,4.06,4.06,0,0,1,.75-1.29,3.4,3.4,0,0,1,1.07-.82,3,3,0,0,1,1.28-.28,2.66,2.66,0,0,1,1.17.24,5,5,0,0,1,1,.65l-.07-1.33v-3h1.33v11.39H273l-.11-.91h-.05a4.92,4.92,0,0,1-1.06.78A2.63,2.63,0,0,1,270.52,184.53Zm.29-1.11a2.15,2.15,0,0,0,1-.26,3.83,3.83,0,0,0,1-.81v-4.06a3.52,3.52,0,0,0-1-.64,2.53,2.53,0,0,0-.94-.18,1.79,1.79,0,0,0-.87.22,2.13,2.13,0,0,0-.71.6,3.33,3.33,0,0,0-.48.94,3.86,3.86,0,0,0-.18,1.22,3.75,3.75,0,0,0,.56,2.19A1.86,1.86,0,0,0,270.81,183.42Z"/><path class="cls-2" d="M280.62,175a.92.92,0,0,1-.65-.24.84.84,0,0,1,0-1.23,1,1,0,0,1,1.29,0,.84.84,0,0,1,0,1.23A.91.91,0,0,1,280.62,175Zm-.68,9.37v-7.77h1.32v7.77Z"/><path class="cls-2" d="M286.33,184.53a2.49,2.49,0,0,1-1.05-.2,1.8,1.8,0,0,1-.69-.52,2.13,2.13,0,0,1-.37-.82,4.35,4.35,0,0,1-.12-1.06v-4.3H283v-1l1.22-.08.16-2.18h1.1v2.18h2.1v1.07h-2.1V182a1.94,1.94,0,0,0,.27,1.11,1,1,0,0,0,.93.39,1.86,1.86,0,0,0,.45-.06,3.62,3.62,0,0,0,.43-.14l.26,1c-.22.07-.45.14-.7.2A3.18,3.18,0,0,1,286.33,184.53Z"/><path class="cls-2" d="M292.22,184.53a3.93,3.93,0,0,1-1.47-.28,3.5,3.5,0,0,1-2-2.08,4.58,4.58,0,0,1-.29-1.71,4.88,4.88,0,0,1,.29-1.72,4.18,4.18,0,0,1,.79-1.29,3.21,3.21,0,0,1,1.11-.8,3.11,3.11,0,0,1,1.3-.28,3.27,3.27,0,0,1,1.32.25,2.54,2.54,0,0,1,1,.74,3.4,3.4,0,0,1,.6,1.15,5,5,0,0,1,.21,1.5c0,.14,0,.28,0,.41a1.69,1.69,0,0,1,0,.35h-5.25a3.07,3.07,0,0,0,.78,2,2.38,2.38,0,0,0,1.82.73,3.13,3.13,0,0,0,1-.17,4.68,4.68,0,0,0,.9-.44l.47.87a7.11,7.11,0,0,1-1.14.56A4,4,0,0,1,292.22,184.53Zm-2.45-4.71h4.16a2.76,2.76,0,0,0-.51-1.8,1.7,1.7,0,0,0-1.41-.61,1.92,1.92,0,0,0-.79.16,1.85,1.85,0,0,0-.68.47,2.42,2.42,0,0,0-.51.76A3.47,3.47,0,0,0,289.77,179.82Z"/><path class="cls-2" d="M297,184.33v-7.77h1.09l.11,1.12h.05a5.13,5.13,0,0,1,1.11-.94,2.39,2.39,0,0,1,1.3-.37,2,2,0,0,1,2.15,1.48,7,7,0,0,1,1.22-1.08,2.39,2.39,0,0,1,1.34-.4,2.09,2.09,0,0,1,1.78.76,3.74,3.74,0,0,1,.59,2.28v4.92h-1.32v-4.75a2.75,2.75,0,0,0-.35-1.59,1.26,1.26,0,0,0-1.09-.49,2.91,2.91,0,0,0-2,1.2v5.63h-1.31v-4.75a2.84,2.84,0,0,0-.35-1.59,1.3,1.3,0,0,0-1.11-.49,2.91,2.91,0,0,0-1.95,1.2v5.63Z"/><circle class="cls-5" cx="860.03" cy="178.61" r="13.49"/><path class="cls-5" d="M860,184a1,1,0,0,1-1-1v-47.6a1,1,0,1,1,2,0V183A1,1,0,0,1,860,184Z"/><path class="cls-6" d="M859.77,184a4.56,4.56,0,0,1-2.08-.41,4.45,4.45,0,0,1-1.38-1l.88-1.18a4.65,4.65,0,0,0,1.06.79,2.71,2.71,0,0,0,1.36.33,2.15,2.15,0,0,0,1.35-.41,1.37,1.37,0,0,0,.52-1.13,1.72,1.72,0,0,0-.15-.72,1.23,1.23,0,0,0-.48-.54,2.73,2.73,0,0,0-.92-.34,7.31,7.31,0,0,0-1.44-.12V177.9a5.45,5.45,0,0,0,1.25-.12,2.5,2.5,0,0,0,.82-.33,1.38,1.38,0,0,0,.45-.52,1.65,1.65,0,0,0,.13-.66,1.26,1.26,0,0,0-.4-1,1.58,1.58,0,0,0-1.1-.36,2.35,2.35,0,0,0-1.1.26,4.92,4.92,0,0,0-.95.7l-.94-1.14a5.74,5.74,0,0,1,1.4-.92,3.7,3.7,0,0,1,1.65-.36,4.79,4.79,0,0,1,1.35.18,3.08,3.08,0,0,1,1,.52,2.44,2.44,0,0,1,.67.85,2.61,2.61,0,0,1,.24,1.14,2.21,2.21,0,0,1-.47,1.44,3,3,0,0,1-1.31.9v.06a3.14,3.14,0,0,1,1.51.88,2.33,2.33,0,0,1,.6,1.65,2.65,2.65,0,0,1-.28,1.25,2.7,2.7,0,0,1-.76.92,3.59,3.59,0,0,1-1.14.57A4.43,4.43,0,0,1,859.77,184Z"/><circle class="cls-5" cx="484" cy="62.49" r="13.49"/><path class="cls-5" d="M484,123.9a1,1,0,0,1-1-1V75.31a1,1,0,0,1,2,0V122.9A1,1,0,0,1,484,123.9Z"/><path class="cls-6" d="M481.08,67.7V66.19h2.27V59.51h-1.87V58.35A8.38,8.38,0,0,0,482.8,58a5.74,5.74,0,0,0,1-.49h1.38v8.67h2V67.7Z"/><circle class="cls-5" cx="151.99" cy="51.84" r="13.49"/><path class="cls-5" d="M151.94,113.26a1,1,0,0,1-1-1V64.66a1,1,0,0,1,2,0v47.6A1,1,0,0,1,151.94,113.26Z"/><path class="cls-6" d="M148.49,57.05V56c.71-.68,1.34-1.31,1.91-1.89s1.06-1.11,1.46-1.6a7.63,7.63,0,0,0,.92-1.37,2.81,2.81,0,0,0,.32-1.22,1.85,1.85,0,0,0-.43-1.29,1.64,1.64,0,0,0-1.25-.47,1.82,1.82,0,0,0-1.08.34,4.53,4.53,0,0,0-.9.8l-1-1a5.82,5.82,0,0,1,1.45-1.16,4.07,4.07,0,0,1,3.13-.18,3,3,0,0,1,1,.63,2.87,2.87,0,0,1,.64,1,3.32,3.32,0,0,1,.24,1.28,3.43,3.43,0,0,1-.3,1.37,7.21,7.21,0,0,1-.8,1.41A17.6,17.6,0,0,1,152.6,54c-.44.51-.92,1-1.42,1.56l.86-.08c.31,0,.59,0,.84,0h2.49v1.57Z"/><circle class="cls-5" cx="191.24" cy="246.56" r="13.49"/><path class="cls-5" d="M191.18,241.63a1,1,0,0,1-1-1V193a1,1,0,0,1,2,0v47.59A1,1,0,0,1,191.18,241.63Z"/><path class="cls-6" d="M191.92,251.77v-2.63h-4.5V247.9l4-6.31h2.19v6.13h1.28v1.42h-1.28v2.63Zm-2.68-4.05h2.68v-2.3c0-.3,0-.65,0-1.06s0-.76.06-1.06h-.07c-.13.27-.26.53-.4.79s-.28.52-.43.8Z"/><rect class="cls-7" x="692" y="37.52" width="91.77" height="40" rx="4"/><path d="M714.72,63.68a4.52,4.52,0,0,1-1.87-.37,4.12,4.12,0,0,1-1.46-1.09,4.92,4.92,0,0,1-.94-1.72,7.07,7.07,0,0,1-.34-2.29,6.88,6.88,0,0,1,.34-2.26,4.69,4.69,0,0,1,.94-1.69,4.16,4.16,0,0,1,1.46-1.06,4.69,4.69,0,0,1,1.87-.36,4.76,4.76,0,0,1,1.87.36,4.16,4.16,0,0,1,1.46,1.06A4.88,4.88,0,0,1,719,56a7.16,7.16,0,0,1,.33,2.26A7.36,7.36,0,0,1,719,60.5a5.12,5.12,0,0,1-1,1.72,4.12,4.12,0,0,1-1.46,1.09A4.59,4.59,0,0,1,714.72,63.68Zm0-1.61a2.22,2.22,0,0,0,1.12-.28,2.48,2.48,0,0,0,.85-.77,4,4,0,0,0,.54-1.22,6,6,0,0,0,.19-1.59,4.59,4.59,0,0,0-.73-2.76,2.32,2.32,0,0,0-2-1,2.35,2.35,0,0,0-2,1,4.66,4.66,0,0,0-.73,2.76,6,6,0,0,0,.2,1.59,3.79,3.79,0,0,0,.54,1.22,2.39,2.39,0,0,0,.85.77A2.19,2.19,0,0,0,714.72,62.07Z"/><path d="M721.28,66.59v-11h1.52l.13.84H723a5.49,5.49,0,0,1,1.1-.72,2.74,2.74,0,0,1,1.27-.31,3,3,0,0,1,1.3.28,2.79,2.79,0,0,1,1,.81,3.7,3.7,0,0,1,.61,1.26,6.11,6.11,0,0,1,.21,1.65,5.53,5.53,0,0,1-.28,1.8,4.16,4.16,0,0,1-.75,1.33,3.29,3.29,0,0,1-1.07.83,2.93,2.93,0,0,1-1.26.28,2.51,2.51,0,0,1-1-.22,3.88,3.88,0,0,1-1-.64l0,1.31v2.46Zm3.42-4.43a1.58,1.58,0,0,0,1.31-.68,3.19,3.19,0,0,0,.53-2,3.51,3.51,0,0,0-.4-1.84,1.39,1.39,0,0,0-1.29-.66,2.58,2.58,0,0,0-1.73.88v3.67A2.91,2.91,0,0,0,724,62,2.14,2.14,0,0,0,724.7,62.16Z"/><path d="M733.66,63.68a4,4,0,0,1-1.52-.28,3.38,3.38,0,0,1-1.23-.81,3.61,3.61,0,0,1-.82-1.28,5.17,5.17,0,0,1,0-3.47,4.17,4.17,0,0,1,.81-1.29,3.61,3.61,0,0,1,1.16-.82,3.51,3.51,0,0,1,2.75,0,2.81,2.81,0,0,1,1,.77,3.45,3.45,0,0,1,.62,1.19,5.5,5.5,0,0,1,.2,1.5,4.18,4.18,0,0,1,0,.51q0,.24-.06.39h-5a2.52,2.52,0,0,0,.75,1.62,2.21,2.21,0,0,0,1.57.57,2.91,2.91,0,0,0,1-.15,4.21,4.21,0,0,0,.88-.43l.62,1.16a5.79,5.79,0,0,1-1.25.6A4.35,4.35,0,0,1,733.66,63.68Zm-2.09-4.86h3.48a2.32,2.32,0,0,0-.39-1.43,1.4,1.4,0,0,0-1.21-.52,1.73,1.73,0,0,0-1.23.49A2.34,2.34,0,0,0,731.57,58.82Z"/><path d="M738.41,63.49V55.63h1.52l.13,1.06h.07a6.43,6.43,0,0,1,1.14-.88,2.79,2.79,0,0,1,1.43-.37,2.1,2.1,0,0,1,1.84.81,3.9,3.9,0,0,1,.58,2.31v4.93h-1.84V58.8a2.42,2.42,0,0,0-.29-1.37,1.07,1.07,0,0,0-.94-.4,1.61,1.61,0,0,0-.91.25,5.39,5.39,0,0,0-.89.72v5.49Z"/><path d="M752.48,63.68a2.27,2.27,0,0,1-1.68-.63,2.23,2.23,0,0,1-.64-1.67,2.33,2.33,0,0,1,.26-1.11,2.3,2.3,0,0,1,.83-.84,5.39,5.39,0,0,1,1.44-.59,11.79,11.79,0,0,1,2.09-.37,2.8,2.8,0,0,0-.09-.59,1.13,1.13,0,0,0-.24-.49,1,1,0,0,0-.44-.34,1.64,1.64,0,0,0-.67-.12,3,3,0,0,0-1.13.23,7.77,7.77,0,0,0-1.08.54l-.67-1.23a7.73,7.73,0,0,1,1.47-.72,4.86,4.86,0,0,1,1.76-.31,2.66,2.66,0,0,1,2.2.88,3.81,3.81,0,0,1,.73,2.52v4.65H755.1l-.13-.86h-.06a5.55,5.55,0,0,1-1.13.75A2.86,2.86,0,0,1,752.48,63.68Zm.59-1.44a1.71,1.71,0,0,0,.87-.22,4.68,4.68,0,0,0,.84-.64V59.62a7.58,7.58,0,0,0-1.34.26,3.34,3.34,0,0,0-.88.36,1.17,1.17,0,0,0-.48.45,1.06,1.06,0,0,0-.15.55.89.89,0,0,0,.32.76A1.35,1.35,0,0,0,753.07,62.24Z"/><path d="M760.62,63.68a1.54,1.54,0,0,1-1.39-.59,2.8,2.8,0,0,1-.4-1.61V52.2h1.84v9.37a.66.66,0,0,0,.13.47.36.36,0,0,0,.27.14h.12l.17,0,.24,1.37A2.44,2.44,0,0,1,760.62,63.68Z"/><path d="M765,63.68a1.53,1.53,0,0,1-1.39-.59,2.8,2.8,0,0,1-.4-1.61V52.2H765v9.37a.72.72,0,0,0,.12.47.4.4,0,0,0,.28.14h.12l.16,0,.24,1.37A2.39,2.39,0,0,1,765,63.68Z"/><rect class="cls-7" x="798.84" y="37.52" width="93.11" height="40" rx="4"/><path d="M822,63.68a4.81,4.81,0,0,1-1.86-.35,4.06,4.06,0,0,1-1.49-1,4.91,4.91,0,0,1-1-1.7,6.53,6.53,0,0,1-.37-2.3,6.32,6.32,0,0,1,.38-2.29,5.13,5.13,0,0,1,1-1.72,4.4,4.4,0,0,1,1.52-1.08,4.82,4.82,0,0,1,1.86-.36,3.69,3.69,0,0,1,1.76.4,4.47,4.47,0,0,1,1.27.92l-1,1.2a3.71,3.71,0,0,0-.9-.66,2.28,2.28,0,0,0-1.09-.25,2.68,2.68,0,0,0-1.17.26,2.71,2.71,0,0,0-.93.76,3.43,3.43,0,0,0-.61,1.19,5.53,5.53,0,0,0-.22,1.58,4.51,4.51,0,0,0,.78,2.81,2.51,2.51,0,0,0,2.1,1,2.54,2.54,0,0,0,1.25-.3,4,4,0,0,0,1-.77l1,1.16a4.53,4.53,0,0,1-1.47,1.13A4.23,4.23,0,0,1,822,63.68Z"/><path d="M828.68,63.68a1.54,1.54,0,0,1-1.39-.59,2.8,2.8,0,0,1-.4-1.61V52.2h1.84v9.37a.66.66,0,0,0,.13.47.36.36,0,0,0,.27.14h.12l.17,0,.24,1.37A2.44,2.44,0,0,1,828.68,63.68Z"/><path d="M834.44,63.68a3.76,3.76,0,0,1-1.41-.27,3.62,3.62,0,0,1-1.19-.8,3.7,3.7,0,0,1-.82-1.29,4.62,4.62,0,0,1-.31-1.75,4.54,4.54,0,0,1,.31-1.74,3.75,3.75,0,0,1,.82-1.3,3.81,3.81,0,0,1,1.19-.81,3.77,3.77,0,0,1,1.41-.28,3.86,3.86,0,0,1,1.42.28,3.59,3.59,0,0,1,1.19.81,3.9,3.9,0,0,1,.82,1.3,4.54,4.54,0,0,1,.32,1.74,4.62,4.62,0,0,1-.32,1.75,3.85,3.85,0,0,1-.82,1.29,3.42,3.42,0,0,1-1.19.8A3.85,3.85,0,0,1,834.44,63.68Zm0-1.5a1.57,1.57,0,0,0,1.36-.71,3.88,3.88,0,0,0,0-3.81,1.55,1.55,0,0,0-1.36-.71,1.53,1.53,0,0,0-1.35.71,3.95,3.95,0,0,0,0,3.81A1.56,1.56,0,0,0,834.44,62.18Z"/><path d="M842.14,63.68a4.31,4.31,0,0,1-1.61-.31,5.16,5.16,0,0,1-1.37-.78l.87-1.18a5.21,5.21,0,0,0,1,.65,2.85,2.85,0,0,0,1.13.23,1.48,1.48,0,0,0,.95-.26.87.87,0,0,0,.3-.68.74.74,0,0,0-.14-.43,1.62,1.62,0,0,0-.39-.33,4.54,4.54,0,0,0-.54-.26l-.61-.25a6.5,6.5,0,0,1-.78-.33,3.31,3.31,0,0,1-.72-.47,2.39,2.39,0,0,1-.51-.63,1.76,1.76,0,0,1-.2-.86,2.13,2.13,0,0,1,.77-1.69,3.11,3.11,0,0,1,2.1-.66,3.67,3.67,0,0,1,1.47.29,5.33,5.33,0,0,1,1.13.66l-.84,1.12a4.06,4.06,0,0,0-.84-.49,2.28,2.28,0,0,0-.89-.18,1.34,1.34,0,0,0-.88.24.81.81,0,0,0-.27.62.63.63,0,0,0,.13.41,1.18,1.18,0,0,0,.36.29,2.8,2.8,0,0,0,.52.24l.62.23a7.53,7.53,0,0,1,.8.33,3.42,3.42,0,0,1,.73.45,2,2,0,0,1,.52.67,1.93,1.93,0,0,1,.2.93,2.23,2.23,0,0,1-.78,1.72,2.94,2.94,0,0,1-1,.52A4.06,4.06,0,0,1,842.14,63.68Z"/><path d="M850.2,63.68a4,4,0,0,1-1.52-.28,3.38,3.38,0,0,1-1.23-.81,3.61,3.61,0,0,1-.82-1.28,5.17,5.17,0,0,1,0-3.47,4.17,4.17,0,0,1,.81-1.29,3.61,3.61,0,0,1,1.16-.82,3.51,3.51,0,0,1,2.75,0,2.81,2.81,0,0,1,1,.77,3.45,3.45,0,0,1,.62,1.19,5.5,5.5,0,0,1,.2,1.5,4.18,4.18,0,0,1,0,.51q0,.24-.06.39h-5a2.52,2.52,0,0,0,.75,1.62,2.21,2.21,0,0,0,1.57.57,2.91,2.91,0,0,0,.95-.15,4.21,4.21,0,0,0,.88-.43l.62,1.16a5.79,5.79,0,0,1-1.25.6A4.35,4.35,0,0,1,850.2,63.68Zm-2.09-4.86h3.48a2.32,2.32,0,0,0-.39-1.43,1.4,1.4,0,0,0-1.21-.52,1.73,1.73,0,0,0-1.23.49A2.34,2.34,0,0,0,848.11,58.82Z"/><path d="M860.06,63.68a2.27,2.27,0,0,1-1.68-.63,2.23,2.23,0,0,1-.64-1.67,2.33,2.33,0,0,1,.26-1.11,2.22,2.22,0,0,1,.83-.84,5.39,5.39,0,0,1,1.44-.59,11.63,11.63,0,0,1,2.09-.37,2.8,2.8,0,0,0-.09-.59,1.13,1.13,0,0,0-.24-.49,1.07,1.07,0,0,0-.44-.34,1.64,1.64,0,0,0-.67-.12,3,3,0,0,0-1.13.23,7.77,7.77,0,0,0-1.08.54L858,56.47a7.73,7.73,0,0,1,1.47-.72,4.86,4.86,0,0,1,1.76-.31,2.68,2.68,0,0,1,2.2.88,3.81,3.81,0,0,1,.73,2.52v4.65h-1.52l-.13-.86h-.06a5.55,5.55,0,0,1-1.13.75A2.86,2.86,0,0,1,860.06,63.68Zm.59-1.44a1.71,1.71,0,0,0,.87-.22,4.68,4.68,0,0,0,.84-.64V59.62a7.58,7.58,0,0,0-1.34.26,3.2,3.2,0,0,0-.88.36,1.17,1.17,0,0,0-.48.45,1.06,1.06,0,0,0-.15.55.89.89,0,0,0,.32.76A1.35,1.35,0,0,0,860.65,62.24Z"/><path d="M868.2,63.68a1.54,1.54,0,0,1-1.39-.59,2.8,2.8,0,0,1-.4-1.61V52.2h1.84v9.37a.66.66,0,0,0,.13.47.36.36,0,0,0,.27.14h.12l.17,0,.24,1.37A2.44,2.44,0,0,1,868.2,63.68Z"/><path d="M872.54,63.68a1.53,1.53,0,0,1-1.39-.59,2.8,2.8,0,0,1-.41-1.61V52.2h1.84v9.37a.71.71,0,0,0,.13.47.4.4,0,0,0,.28.14h.12l.16,0,.24,1.37A2.39,2.39,0,0,1,872.54,63.68Z"/><circle class="cls-5" cx="624.36" cy="56.87" r="13.49"/><path class="cls-6" d="M625,62.56a4.6,4.6,0,0,1-2.07-.43,5.35,5.35,0,0,1-1.4-1l.85-1.19a5,5,0,0,0,1,.76,2.64,2.64,0,0,0,1.34.33,2,2,0,0,0,1.42-.51,1.85,1.85,0,0,0,.55-1.44,1.73,1.73,0,0,0-1.87-1.9,2.23,2.23,0,0,0-.83.13,4.77,4.77,0,0,0-.8.44l-.88-.56.3-5h5.44v1.55h-3.84L624,56.2a3.83,3.83,0,0,1,.63-.24,2.63,2.63,0,0,1,.72-.09,3.92,3.92,0,0,1,1.24.19,2.69,2.69,0,0,1,1.7,1.58,3.58,3.58,0,0,1,.26,1.41,3.54,3.54,0,0,1-.3,1.49,3.2,3.2,0,0,1-.79,1.1,3.25,3.25,0,0,1-1.15.68A3.84,3.84,0,0,1,625,62.56Z"/><path class="cls-5" d="M683.5,57.37a1,1,0,0,1-1,1H634.91a1,1,0,0,1,0-2H682.5A1,1,0,0,1,683.5,57.37Z"/></svg>