<?xml version="1.0" encoding="utf-8"?>
<!-- Generator: Adobe Illustrator 24.1.0, SVG Export Plug-In . SVG Version: 6.00 Build 0)  -->
<svg version="1.1" id="Layer_1" xmlns="http://www.w3.org/2000/svg" xmlns:xlink="http://www.w3.org/1999/xlink" x="0px" y="0px"
	 viewBox="0 0 228 150.6" style="enable-background:new 0 0 228 150.6;" xml:space="preserve">
<style type="text/css">
	.st0{opacity:0.25;fill:#FFFFFF;}
	.st1{fill:#FFFFFF;}
</style>
<rect y="2" class="st0" width="228" height="45.8"/>
<desc>Created with Sketch.</desc>
<desc>Created with Sketch.</desc>
<desc>Created with Sketch.</desc>
<g id="Page-1">
	
		<g id="angle-right" transform="translate(161.000000, 104.000000) rotate(90.000000) translate(-161.000000, -104.000000) translate(57.000000, -57.000000)">
		<path id="Path" d="M29.6,119.4l-6.4,6.4c-0.4,0.4-1.2,0.4-1.6,0l-1.1-1.1c-0.4-0.4-0.4-1.2,0-1.6l4.5-4.5l-4.5-4.5
			c-0.4-0.4-0.4-1.2,0-1.6l1.1-1.1c0.4-0.4,1.2-0.4,1.6,0l6.4,6.4C30.1,118.2,30.1,118.9,29.6,119.4L29.6,119.4z"/>
	</g>
</g>
<rect x="21.5" y="20.2" class="st1" width="101.9" height="9.4"/>
<rect x="21.5" y="70.3" class="st1" width="101.9" height="9.4"/>
<rect y="52.1" class="st0" width="228" height="45.8"/>
<rect x="21.5" y="120.5" class="st1" width="101.9" height="9.4"/>
<rect y="102.3" class="st0" width="228" height="45.8"/>
<g id="Page-1_1_">
	
		<g id="angle-right_1_" transform="translate(161.000000, 104.000000) rotate(90.000000) translate(-161.000000, -104.000000) translate(57.000000, -57.000000)">
		<path id="Path_1_" d="M79.5,119.4l-6.4,6.4c-0.4,0.4-1.2,0.4-1.6,0l-1.1-1.1c-0.4-0.4-0.4-1.2,0-1.6l4.5-4.5l-4.5-4.5
			c-0.4-0.4-0.4-1.2,0-1.6l1.1-1.1c0.4-0.4,1.2-0.4,1.6,0l6.4,6.4C80,118.2,80,118.9,79.5,119.4L79.5,119.4z"/>
	</g>
</g>
<g id="Page-1_2_">
	
		<g id="angle-right_2_" transform="translate(161.000000, 104.000000) rotate(90.000000) translate(-161.000000, -104.000000) translate(57.000000, -57.000000)">
		<path id="Path_2_" d="M129.7,119.4l-6.4,6.4c-0.4,0.4-1.2,0.4-1.6,0l-1.1-1.1c-0.4-0.4-0.4-1.2,0-1.6l4.5-4.5l-4.5-4.5
			c-0.4-0.4-0.4-1.2,0-1.6l1.1-1.1c0.4-0.4,1.2-0.4,1.6,0l6.4,6.4C130.2,118.2,130.2,118.9,129.7,119.4L129.7,119.4z"/>
	</g>
</g>
</svg>
