<?xml version="1.0" encoding="utf-8"?>
<!-- Generator: Adobe Illustrator 24.1.0, SVG Export Plug-In . SVG Version: 6.00 Build 0)  -->
<svg version="1.1" id="Layer_1" xmlns="http://www.w3.org/2000/svg" xmlns:xlink="http://www.w3.org/1999/xlink" x="0px" y="0px"
	 viewBox="0 0 18.5 18.3" style="enable-background:new 0 0 18.5 18.3;" xml:space="preserve">
<style type="text/css">
	.st0{fill:#EC1C24;}
	.st1{fill:#FFFFFF;}
</style>
<circle class="st0" cx="9.3" cy="9.1" r="8.8"/>
<path class="st0" d="M10.5,3L10.5,3C3.3,5.2,3,14.8,6.6,17.3c0.6,0.2,1.2,0.3,1.9,0.4C4.3,15.6,4.1,6.1,10.5,3z"/>
<path class="st0" d="M10.4,2.7C3,3.1,0.9,9.6,2.3,14c0.5,0.8,1.2,1.5,2,2C1.7,12.6,2.4,4.3,10.4,2.7z"/>
<path class="st0" d="M10.3,2.4c-4.4-1-7.7,1.1-9.2,4.1C0.8,7.3,0.7,8.2,0.7,9.1c0,0.4,0,0.8,0.1,1.2C1.3,6.4,4.1,2.2,10.3,2.4z"/>
<path class="st0" d="M17.9,9.1c0-4.7-3.9-8.6-8.6-8.6l0,0c-0.6,0-1.2,0.1-1.8,0.2C8.7,0.8,9.9,1.3,11,2.1c0.1,0,0.3-0.1,0.5,0
	c0.3,0,0.5,0.1,0.7,0.3c0.4-0.1,0.8-0.3,1.3-0.3c0,0.1-0.9,0.4-1.2,0.5l0,0c0.6,0,2-0.1,1.9,0c-0.6,0.1-1.2,0.1-1.9,0.1l0,0
	c1,0.2,2.4,0.5,2.4,0.7S13.2,3.1,12.3,3l0,0l0,0c0.9,0.5,2.4,1.4,2.4,1.5c0,0-1.6-0.8-2.5-1.2l0,0c0.7,0.7,2.1,2.2,2.1,2.2
	s-1.4-1.3-2.3-2c-0.4,0.3-0.9,0.2-1.3-0.1c-5.8,3.6-4,12.9,0.1,14.3C14.9,16.9,17.9,13.3,17.9,9.1z"/>
<path class="st0" d="M10.4,2.1C8.9,1.2,7.3,1,5.6,1.3C4.8,1.7,4.1,2.2,3.4,2.8C5.2,1.7,7.6,1.2,10.4,2.1z"/>
<path class="st1" d="M10.7,3.3c0.4,0.3,0.9,0.3,1.3,0.1c0.9,0.8,2.2,2.1,2.3,2c0.1-0.1-1.4-1.6-2-2.2l0,0c0.8,0.4,2.4,1.3,2.5,1.2
	s-1.5-1-2.4-1.5l0,0l0,0c0.9,0.1,2.4,0.5,2.4,0.4c0,0-1.4-0.4-2.4-0.7l0,0c0.6,0,1.2-0.1,1.9-0.2c0-0.1-1.4,0-1.9,0l0,0
	c0.2-0.1,1.2-0.4,1.2-0.5c-0.4,0.1-0.9,0.2-1.3,0.3C11.9,2.1,11.7,2,11.5,2c-0.1,0-0.3,0-0.5,0c-1-0.8-2.2-1.2-3.5-1.4
	C6.9,0.8,6.2,1,5.6,1.3c1.6-0.3,3.3,0,4.7,0.8C7.5,1.3,5.1,1.7,3.4,2.8C2.3,3.8,1.5,5.1,1,6.5c1.5-3.1,4.9-5.1,9.2-4.1
	c-6.2-0.2-8.9,4-9.6,7.9c0.2,1.3,0.7,2.6,1.5,3.7C0.8,9.6,2.9,3.1,10.3,2.7C2.4,4.3,1.7,12.6,4.1,16c0.7,0.5,1.5,0.9,2.4,1.2
	C3,14.7,3.3,5.1,10.4,2.9l0,0c-6.3,3.2-6.1,12.7-2,14.7c0.3,0,0.6,0,0.9,0c0.5,0,1,0,1.5-0.1C6.7,16.1,4.8,6.9,10.7,3.3z"/>
<path class="st0" d="M9.3,17.9c-4.9,0-8.8-3.9-8.8-8.8s3.9-8.8,8.8-8.8s8.8,3.9,8.8,8.8S14.1,17.9,9.3,17.9z M9.3,0.6
	c-4.7,0-8.5,3.8-8.5,8.5s3.8,8.5,8.5,8.5s8.5-3.8,8.5-8.5S13.9,0.6,9.3,0.6z"/>
</svg>
