<?xml version="1.0" encoding="utf-8"?>
<!-- Generator: Adobe Illustrator 24.1.2, SVG Export Plug-In . SVG Version: 6.00 Build 0)  -->
<svg version="1.1" id="Layer_1" xmlns="http://www.w3.org/2000/svg" xmlns:xlink="http://www.w3.org/1999/xlink" x="0px" y="0px"
	 viewBox="0 0 252.8 134.4" style="enable-background:new 0 0 252.8 134.4;" xml:space="preserve">
<style type="text/css">
	.st0{fill-rule:evenodd;clip-rule:evenodd;fill:#EE020A;}
	.st1{fill:none;stroke:#FFFFFF;}
	.st2{fill:#FFFFFF;}
</style>
<desc>Created with Sketch.</desc>
<desc>Created with Sketch.</desc>
<desc>Created with Sketch.</desc>
<path id="Rectangle" class="st0" d="M15.8,43.1h100c1.7,0,3,1.3,3,3v42c0,1.7-1.3,3-3,3h-100c-1.7,0-3-1.3-3-3v-42
	C12.8,44.4,14.1,43.1,15.8,43.1z"/>
<path id="Rectangle_1_" class="st1" d="M138.1,43.5h99c1.7,0,3,1.3,3,3v41c0,1.7-1.3,3-3,3h-99c-1.7,0-3-1.3-3-3v-41
	C135.1,44.8,136.4,43.5,138.1,43.5z"/>
<rect x="39.1" y="62.4" class="st2" width="53.4" height="9.4"/>
<rect x="162.1" y="62.4" class="st2" width="53.4" height="9.4"/>
</svg>
