<?xml version="1.0" encoding="utf-8"?>
<!-- Generator: Adobe Illustrator 25.1.0, SVG Export Plug-In . SVG Version: 6.00 Build 0)  -->
<svg version="1.1" id="Layer_1" xmlns="http://www.w3.org/2000/svg" xmlns:xlink="http://www.w3.org/1999/xlink" x="0px" y="0px"
	 viewBox="0 0 524.3 104.3" style="enable-background:new 0 0 524.3 104.3;" xml:space="preserve">
<style type="text/css">
	.st0{fill-rule:evenodd;clip-rule:evenodd;fill:#EE020A;}
	.st1{fill:#FFFFFF;}
</style>
<path id="Rectangle" class="st0" d="M7.1,0h235.8c4,0,7.1,2.8,7.1,6.5v91.3c0,3.7-3.1,6.5-7.1,6.5H7.1c-4,0-7.1-2.8-7.1-6.5V6.5
	C0,2.8,3.1,0,7.1,0z"/>
<g id="Rectangle-2">
	<path class="st1" d="M514.3,10v84.3h-230V10H514.3 M517.2,0H281.5c-4,0-7.1,2.9-7.1,6.7v91c0,3.8,3.1,6.7,7.1,6.7h235.7
		c4,0,7.1-2.9,7.1-6.7v-91C524.3,2.9,521.2,0,517.2,0z"/>
</g>
<path class="st1" d="M342.3,46.2h114c1.7,0,3,1.3,3,3v6c0,1.7-1.3,3-3,3h-114c-1.7,0-3-1.3-3-3v-6C339.3,47.5,340.7,46.2,342.3,46.2
	z"/>
<path class="st1" d="M68,46.2h114c1.7,0,3,1.3,3,3v6c0,1.7-1.3,3-3,3H68c-1.7,0-3-1.3-3-3v-6C65,47.5,66.3,46.2,68,46.2z"/>
</svg>
