<svg id="Layer_1" data-name="Layer 1" xmlns="http://www.w3.org/2000/svg" xmlns:xlink="http://www.w3.org/1999/xlink" height="160px" viewBox="0 0 403.18 244.77"><defs><style>.cls-1{fill:#fff;}.cls-2{clip-path:url(#clip-path);}.cls-3{clip-path:url(#clip-path-2);}</style><clipPath id="clip-path"><path class="cls-1" d="M-673.65,76.49l2.09,38.38a3.38,3.38,0,0,0,3.38,3.2h13.71a3.39,3.39,0,0,0,3.38-3.2L-649,76.49a3.39,3.39,0,0,0-3.38-3.58h-17.89A3.39,3.39,0,0,0-673.65,76.49Zm12.32,46.67a13,13,0,0,0-13,13,13,13,0,0,0,13,13,13,13,0,0,0,13-13A13,13,0,0,0-661.33,123.16Zm70-14.12a70,70,0,0,1-70,70,70,70,0,0,1-70-70,70,70,0,0,1,70-70A70,70,0,0,1-591.33,109Z"/></clipPath><clipPath id="clip-path-2"><path class="cls-1" d="M-490.8,146.21-439.15,94a4.56,4.56,0,0,0,0-6.42l-6.35-6.42a4.46,4.46,0,0,0-6.35,0L-494,123.76l-19.67-19.87a4.46,4.46,0,0,0-6.35,0l-6.35,6.42a4.57,4.57,0,0,0,0,6.41l29.2,29.49A4.44,4.44,0,0,0-490.8,146.21ZM-413.33,109a70,70,0,0,1-70,70,70,70,0,0,1-70-70,70,70,0,0,1,70-70A70,70,0,0,1-413.33,109Z"/></clipPath></defs><path class="cls-1" d="M-673.65,76.49l2.09,38.38a3.38,3.38,0,0,0,3.38,3.2h13.71a3.39,3.39,0,0,0,3.38-3.2L-649,76.49a3.39,3.39,0,0,0-3.38-3.58h-17.89A3.39,3.39,0,0,0-673.65,76.49Zm12.32,46.67a13,13,0,0,0-13,13,13,13,0,0,0,13,13,13,13,0,0,0,13-13A13,13,0,0,0-661.33,123.16Zm70-14.12a70,70,0,0,1-70,70,70,70,0,0,1-70-70,70,70,0,0,1,70-70A70,70,0,0,1-591.33,109Z"/><g class="cls-2"><rect class="cls-1" x="-4651.33" y="-1200.96" width="9600" height="3205"/></g><path class="cls-1" d="M-490.8,146.21-439.15,94a4.56,4.56,0,0,0,0-6.42l-6.35-6.42a4.46,4.46,0,0,0-6.35,0L-494,123.76l-19.67-19.87a4.46,4.46,0,0,0-6.35,0l-6.35,6.42a4.57,4.57,0,0,0,0,6.41l29.2,29.49A4.44,4.44,0,0,0-490.8,146.21ZM-413.33,109a70,70,0,0,1-70,70,70,70,0,0,1-70-70,70,70,0,0,1,70-70A70,70,0,0,1-413.33,109Z"/><g class="cls-3"><rect class="cls-1" x="-4473.33" y="-1060.96" width="9600" height="3205"/></g><path class="cls-1" d="M49.78,56h-44a6,6,0,0,1-6-6V6a6,6,0,0,1,6-6h44a6,6,0,0,1,6,6V50A6,6,0,0,1,49.78,56ZM24.2,43.74l23-23a2,2,0,0,0,0-2.83l-2.83-2.82a2,2,0,0,0-2.83,0L22.78,33.84,14,25.09a2,2,0,0,0-2.83,0L8.37,27.91a2,2,0,0,0,0,2.83l13,13a2,2,0,0,0,2.83,0Z"/><path class="cls-1" d="M46,104.39v36H10v-36H46m2-10H8a8,8,0,0,0-8,8v40a8,8,0,0,0,8,8H48a8,8,0,0,0,8-8v-40a8,8,0,0,0-8-8Z"/><path class="cls-1" d="M46,198.77v36H10v-36H46m2-10H8a8,8,0,0,0-8,8v40a8,8,0,0,0,8,8H48a8,8,0,0,0,8-8v-40a8,8,0,0,0-8-8Z"/><rect class="cls-1" x="80.28" y="22" width="322" height="12" rx="3"/><rect class="cls-1" x="80.28" y="116.39" width="322" height="12" rx="3"/><rect class="cls-1" x="80.28" y="210.77" width="322" height="12" rx="3"/></svg>