<?xml version="1.0" encoding="utf-8"?>
<!-- Generator: Adobe Illustrator 24.1.0, SVG Export Plug-In . SVG Version: 6.00 Build 0)  -->
<svg version="1.1" id="Layer_1" xmlns="http://www.w3.org/2000/svg" xmlns:xlink="http://www.w3.org/1999/xlink" x="0px" y="0px"
	 viewBox="0 0 31.5 14.5" style="enable-background:new 0 0 31.5 14.5;" xml:space="preserve">
<style type="text/css">
	.st0{fill:#EE020A;}
	.st1{fill:#FFFFFF;}
</style>
<circle class="st0" cx="7.2" cy="7.2" r="7"/>
<circle class="st1" cx="24.2" cy="7.2" r="7"/>
<path class="st1" d="M19.9,41.2l2.5-7.9h2.1l2.5,7.8h-1.9l-0.5-1.8h-2.4l-0.5,1.9H19.9z M22.8,37.2L22.6,38h1.6L24,37.2
	c-0.1-0.4-0.2-0.8-0.3-1.2s-0.2-0.9-0.3-1.3l0,0L23.1,36C23,36.5,22.9,36.9,22.8,37.2L22.8,37.2z"/>
<path class="st1" d="M29.3,41.4c-0.3,0-0.5,0-0.7-0.1c-0.2-0.1-0.4-0.2-0.6-0.4c-0.3-0.4-0.5-0.8-0.5-1.3c0-0.6,0.3-1.2,0.8-1.5
	c0.8-0.4,1.7-0.7,2.6-0.7c0-0.2-0.1-0.5-0.2-0.6c-0.2-0.2-0.4-0.3-0.7-0.2c-0.3,0-0.5,0.1-0.8,0.2c-0.3,0.1-0.6,0.2-0.8,0.4
	l-0.6-1.2c0.4-0.2,0.8-0.4,1.2-0.6c0.4-0.1,0.9-0.2,1.3-0.2c0.7,0,1.3,0.2,1.8,0.6c0.4,0.6,0.6,1.3,0.6,2v3.4h-1.5l-0.1-0.6l0,0
	c-0.2,0.2-0.5,0.4-0.8,0.5C30,41.3,29.7,41.4,29.3,41.4z M29.9,40c0.2,0,0.4,0,0.5-0.1c0.2-0.1,0.3-0.2,0.5-0.4v-1
	c-0.5,0-0.9,0.2-1.3,0.4c-0.2,0.1-0.4,0.4-0.4,0.6c0,0.2,0.1,0.3,0.2,0.4C29.6,40,29.8,40,29.9,40L29.9,40z"/>
<path class="st1" d="M33.3,41.2l2.6-7.9h1.6l2.6,7.8h-1.5L38,39.1h-2.7l-0.6,2.1L33.3,41.2z M36,37.1l-0.3,1h2l-0.3-1
	c-0.1-0.4-0.2-0.9-0.4-1.3s-0.2-0.9-0.3-1.3h0l-0.3,1.3C36.2,36.2,36.1,36.7,36,37.1z"/>
<path class="st1" d="M42.6,41.4c-0.5,0-0.9-0.2-1.3-0.5c-0.3-0.3-0.5-0.8-0.5-1.2c0-0.3,0.1-0.6,0.2-0.8c0.1-0.3,0.4-0.5,0.6-0.6
	c0.3-0.2,0.7-0.4,1.1-0.5c0.5-0.1,1-0.2,1.6-0.3c0-0.1,0-0.3-0.1-0.4c0-0.1-0.1-0.3-0.2-0.4c-0.1-0.1-0.2-0.2-0.3-0.3
	c-0.2-0.1-0.3-0.1-0.5-0.1c-0.3,0-0.6,0.1-0.8,0.2c-0.3,0.1-0.6,0.2-0.8,0.4L41.1,36c0.4-0.2,0.7-0.4,1.1-0.5
	c0.4-0.2,0.9-0.2,1.3-0.2c0.6,0,1.2,0.2,1.7,0.7c0.4,0.5,0.6,1.2,0.5,1.9v3.5h-1.2l-0.1-0.6l0,0c-0.3,0.2-0.5,0.4-0.8,0.6
	C43.3,41.3,42.9,41.4,42.6,41.4z M43,40.3c0.2,0,0.5-0.1,0.7-0.2c0.2-0.1,0.4-0.3,0.6-0.5v-1.3c-0.3,0-0.7,0.1-1,0.2
	c-0.2,0.1-0.5,0.2-0.7,0.3c-0.1,0.1-0.3,0.2-0.4,0.3c-0.1,0.1-0.1,0.3-0.1,0.4c0,0.2,0.1,0.4,0.2,0.6C42.6,40.3,42.8,40.3,43,40.3
	L43,40.3z"/>
<path class="st1" d="M49.2,33.4h1.1l2.7,7.9h-1.1l-1.4-4.4c-0.3-0.9-0.5-1.8-0.8-2.6l0,0c-0.2,0.9-0.5,1.8-0.8,2.6l-1.4,4.4h-1
	L49.2,33.4z M47.9,38.1h3.6v0.8h-3.7L47.9,38.1z"/>
<path class="st1" d="M53.9,39.7c0-1.3,1.1-1.9,3.6-2.2c0-0.8-0.2-1.5-1.2-1.5c-0.6,0-1.2,0.3-1.7,0.6L54.2,36
	c0.7-0.5,1.5-0.7,2.3-0.8c1.4,0,2,1,2,2.4v3.6h-0.8l-0.1-0.7l0,0c-0.5,0.5-1.2,0.8-1.9,0.8c-0.9,0.1-1.7-0.5-1.8-1.4
	C53.9,39.9,53.9,39.8,53.9,39.7z M57.5,39.8v-1.6c-2,0.2-2.6,0.7-2.6,1.5c0,0.7,0.5,0.9,1,0.9C56.5,40.6,57.1,40.3,57.5,39.8z"/>
</svg>
