<?xml version="1.0" encoding="utf-8"?>
<!-- Generator: Adobe Illustrator 24.1.3, SVG Export Plug-In . SVG Version: 6.00 Build 0)  -->
<svg version="1.1" id="Layer_1" xmlns="http://www.w3.org/2000/svg" xmlns:xlink="http://www.w3.org/1999/xlink" x="0px" y="0px"
	 viewBox="0 0 228 96.9" style="enable-background:new 0 0 228 96.9;" xml:space="preserve">
<style type="text/css">
	.st0{opacity:0.25;fill:#FFFFFF;enable-background:new    ;}
	.st1{fill:#FFFFFF;}
	.st2{fill-rule:evenodd;clip-rule:evenodd;fill:#EE020A;}
	.st3{fill:none;stroke:#FFFFFF;}
</style>
<rect x="23.6" y="4.5" class="st0" width="180.8" height="36.3"/>
<desc>Created with Sketch.</desc>
<desc>Created with Sketch.</desc>
<desc>Created with Sketch.</desc>
<g id="Page-1">
	
		<g id="angle-right" transform="translate(161.000000, 104.000000) rotate(90.000000) translate(-161.000000, -104.000000) translate(57.000000, -57.000000)">
		<path id="Path" d="M26.4,137.7l-5.1,5.1c-0.3,0.3-1,0.3-1.3,0l-0.9-0.9c-0.3-0.3-0.3-1,0-1.3l3.6-3.6l-3.6-3.6
			c-0.3-0.3-0.3-1,0-1.3l0.9-0.9c0.3-0.3,1-0.3,1.3,0l5.1,5.1C26.8,136.8,26.8,137.3,26.4,137.7L26.4,137.7z"/>
	</g>
</g>
<rect x="40.6" y="18.9" class="st1" width="80.8" height="7.5"/>
<path id="Rectangle" class="st2" d="M25.9,54.2h79.6c1.4,0,2.4,1,2.4,2.4V90c0,1.4-1,2.4-2.4,2.4H25.9c-1.4,0-2.4-1-2.4-2.4V56.6
	C23.5,55.2,24.5,54.2,25.9,54.2z"/>
<path id="Rectangle_1_" class="st3" d="M123.3,54.5h78.8c1.4,0,2.4,1,2.4,2.4v32.6c0,1.4-1,2.4-2.4,2.4h-78.8c-1.4,0-2.4-1-2.4-2.4
	V56.9C120.9,55.5,121.9,54.5,123.3,54.5z"/>
<rect x="44.4" y="69.6" class="st1" width="42.5" height="7.5"/>
<rect x="142.4" y="69.6" class="st1" width="42.5" height="7.5"/>
</svg>
