<?xml version="1.0" encoding="utf-8"?>
<!-- Generator: Adobe Illustrator 25.0.1, SVG Export Plug-In . SVG Version: 6.00 Build 0)  -->
<svg version="1.1" id="Layer_1" xmlns="http://www.w3.org/2000/svg" xmlns:xlink="http://www.w3.org/1999/xlink" x="0px" y="0px"
	 viewBox="0 0 591.1 263.6" style="enable-background:new 0 0 591.1 263.6;" xml:space="preserve">
<style type="text/css">
	.st0{fill:#FFFFFF;}
	.st1{clip-path:url(#SVGID_2_);}
	.st2{clip-path:url(#SVGID_4_);}
	.st3{fill-rule:evenodd;clip-rule:evenodd;fill:#EE020A;}
</style>
<path class="st0" d="M1176.4,107.1l2.1,38.4c0.1,1.8,1.6,3.2,3.4,3.2h13.7c1.8,0,3.3-1.4,3.4-3.2l2.1-38.4c0.1-1.9-1.3-3.5-3.2-3.6
	c-0.1,0-0.1,0-0.2,0h-17.9c-1.9,0-3.4,1.5-3.4,3.4C1176.4,106.9,1176.4,107,1176.4,107.1z M1188.7,153.7c-7.2,0-13,5.8-13,13
	s5.8,13,13,13s13-5.8,13-13S1195.9,153.7,1188.7,153.7L1188.7,153.7z M1258.7,139.6c0,38.7-31.3,70-70,70s-70-31.3-70-70
	s31.3-70,70-70S1258.7,101,1258.7,139.6z"/>
<g>
	<g>
		<g>
			<defs>
				<path id="SVGID_1_" d="M1176.4,107.1l2.1,38.4c0.1,1.8,1.6,3.2,3.4,3.2h13.7c1.8,0,3.3-1.4,3.4-3.2l2.1-38.4
					c0.1-1.9-1.3-3.5-3.2-3.6c-0.1,0-0.1,0-0.2,0h-17.9c-1.9,0-3.4,1.5-3.4,3.4C1176.4,106.9,1176.4,107,1176.4,107.1z
					 M1188.7,153.7c-7.2,0-13,5.8-13,13s5.8,13,13,13s13-5.8,13-13S1195.9,153.7,1188.7,153.7L1188.7,153.7z M1258.7,139.6
					c0,38.7-31.3,70-70,70s-70-31.3-70-70s31.3-70,70-70S1258.7,101,1258.7,139.6z"/>
			</defs>
			<clipPath id="SVGID_2_">
				<use xlink:href="#SVGID_1_"  style="overflow:visible;"/>
			</clipPath>
			<g class="st1">
				<rect x="-2801.3" y="-1170.4" class="st0" width="9600" height="3205"/>
			</g>
		</g>
	</g>
</g>
<path class="st0" d="M1359.2,176.8l51.7-52.2c1.8-1.8,1.8-4.6,0-6.4l-6.3-6.4c-1.7-1.8-4.6-1.8-6.3,0l0,0l-42.1,42.6l-19.7-19.9
	c-1.7-1.8-4.6-1.8-6.3,0l0,0l-6.3,6.4c-1.7,1.8-1.7,4.6,0,6.4l29.2,29.5C1354.6,178.6,1357.4,178.6,1359.2,176.8L1359.2,176.8z
	 M1436.7,139.6c0,38.7-31.3,70-70,70s-70-31.3-70-70s31.3-70,70-70S1436.7,101,1436.7,139.6z"/>
<g>
	<g>
		<g>
			<defs>
				<path id="SVGID_3_" d="M1359.2,176.8l51.7-52.2c1.8-1.8,1.8-4.6,0-6.4l-6.3-6.4c-1.7-1.8-4.6-1.8-6.3,0l0,0l-42.1,42.6
					l-19.7-19.9c-1.7-1.8-4.6-1.8-6.3,0l0,0l-6.3,6.4c-1.7,1.8-1.7,4.6,0,6.4l29.2,29.5C1354.6,178.6,1357.4,178.6,1359.2,176.8
					L1359.2,176.8z M1436.7,139.6c0,38.7-31.3,70-70,70s-70-31.3-70-70s31.3-70,70-70S1436.7,101,1436.7,139.6z"/>
			</defs>
			<clipPath id="SVGID_4_">
				<use xlink:href="#SVGID_3_"  style="overflow:visible;"/>
			</clipPath>
			<g class="st2">
				<rect x="-2623.3" y="-1030.4" class="st0" width="9600" height="3205"/>
			</g>
		</g>
	</g>
</g>
<path class="st0" d="M579.9,10.9v85.4H11.2V10.9H579.9 M584.3,0H6.8C3.2,0,0.2,2.9,0.2,6.6v94.1c0,3.6,2.9,6.6,6.6,6.6h577.5
	c3.6,0,6.6-2.9,6.6-6.6V6.6C590.8,2.9,587.9,0,584.3,0z"/>
<path class="st0" d="M44.2,47.1h212.3c1.8,0,3.3,1.5,3.3,3.3V57c0,1.8-1.5,3.3-3.3,3.3H44.2c-1.8,0-3.3-1.5-3.3-3.3v-6.6
	C40.9,48.5,42.4,47.1,44.2,47.1z"/>
<path class="st0" d="M531.9,65.3l-15.8-15.8c-1.1-1.1-1.1-2.9,0-3.9l0,0l2.6-2.6c1.1-1.1,2.8-1.1,3.9,0l0,0l11.2,11.2L545,43
	c1.1-1.1,2.8-1.1,3.9,0l0,0l2.6,2.6c1.1,1.1,1.1,2.9,0,3.9l0,0l-15.8,15.8C534.8,66.3,533.1,66.4,531.9,65.3
	C532,65.3,531.9,65.3,531.9,65.3L531.9,65.3z"/>
<path id="Rectangle" class="st3" d="M8,145.9h265.9c4.5,0,8,3.2,8,7.4v102.9c0,4.2-3.5,7.4-8,7.4H8c-4.5,0-8-3.2-8-7.4V153.3
	C0,149.1,3.5,145.9,8,145.9z"/>
<g id="Rectangle-2">
	<path class="st0" d="M579.8,157.2v95H320.5v-95H579.8 M583,145.9H317.3c-4.5,0-8.1,3.2-8.1,7.5V256c0,4.3,3.5,7.5,8.1,7.5H583
		c4.6,0,8-3.2,8-7.5V153.5C591.1,149.2,587.6,145.9,583,145.9z"/>
</g>
<path class="st0" d="M385.9,198h128.5c1.9,0,3.4,1.5,3.4,3.4v6.8c0,1.9-1.5,3.4-3.4,3.4H385.9c-1.9,0-3.4-1.5-3.4-3.4v-6.8
	C382.5,199.5,384,198,385.9,198z"/>
<path class="st0" d="M76.7,198h128.5c1.9,0,3.4,1.5,3.4,3.4v6.8c0,1.9-1.5,3.4-3.4,3.4H76.7c-1.9,0-3.4-1.5-3.4-3.4v-6.8
	C73.3,199.5,74.8,198,76.7,198z"/>
</svg>
