<svg id="Layer_1" data-name="Layer 1" xmlns="http://www.w3.org/2000/svg" viewBox="0 0 480 190"><defs><style>.cls-1{fill:#db0022;}.cls-2{fill:#f5f5f5;}.cls-3{fill:#ee020a;opacity:0.14;isolation:isolate;}.cls-4,.cls-5{fill:none;}.cls-4{stroke:#ee020a;}.cls-5{stroke:#6e7272;}</style></defs><rect class="cls-1" width="6" height="190"/><rect class="cls-2" x="6" width="475.25" height="190"/><path class="cls-1" d="M33,10.15a15.65,15.65,0,1,0,15.7,15.6A15.73,15.73,0,0,0,33,10.15Z"/><rect class="cls-2" x="23" y="24.16" width="20" height="3.3" transform="translate(-8.58 30.9) rotate(-45)"/><rect class="cls-2" x="31.29" y="15.73" width="3.3" height="20" transform="translate(-8.55 30.83) rotate(-45)"/><rect id="Rectangle" class="cls-3" x="133.46" y="68.57" width="48" height="48"/><rect id="Rectangle-2" data-name="Rectangle" class="cls-4" x="133.79" y="68.9" width="47.34" height="47.34"/><path d="M189.91,99V85.92H194a8.34,8.34,0,0,1,1.85.19,4.12,4.12,0,0,1,1.46.63,3,3,0,0,1,1,1.14,4,4,0,0,1,.34,1.72,3.62,3.62,0,0,1-.8,2.46,4.18,4.18,0,0,1-2.16,1.26L199,99h-1.88L194,93.5h-2.38V99Zm1.66-6.9h2.2a3.83,3.83,0,0,0,2.36-.63A2.28,2.28,0,0,0,197,89.6a2,2,0,0,0-.82-1.82,4.42,4.42,0,0,0-2.36-.52h-2.2Z"/><path d="M203.29,99.28a2.93,2.93,0,0,1-2-.72,2.59,2.59,0,0,1-.81-2,2.69,2.69,0,0,1,1.42-2.45,11.69,11.69,0,0,1,4.54-1.19,4.43,4.43,0,0,0-.09-.9,2.45,2.45,0,0,0-.31-.78,1.63,1.63,0,0,0-.61-.55,2.07,2.07,0,0,0-1-.21,4,4,0,0,0-1.58.32,6.85,6.85,0,0,0-1.32.72l-.64-1.14a10.18,10.18,0,0,1,1.66-.85,5.58,5.58,0,0,1,2.16-.41,3,3,0,0,1,2.58,1.09,4.85,4.85,0,0,1,.8,2.91v6h-1.36l-.14-1.16h-.06a8.11,8.11,0,0,1-1.5,1A3.79,3.79,0,0,1,203.29,99.28Zm.48-1.32a2.81,2.81,0,0,0,1.32-.33,6.67,6.67,0,0,0,1.32-1V94a16.24,16.24,0,0,0-2,.38,5.43,5.43,0,0,0-1.34.52,2,2,0,0,0-.74.69,1.57,1.57,0,0,0-.23.85,1.36,1.36,0,0,0,.5,1.2A2,2,0,0,0,203.77,98Z"/><path d="M214.45,99.28A3.59,3.59,0,0,1,211.52,98a5.73,5.73,0,0,1-1.09-3.76,6,6,0,0,1,.35-2.13,5,5,0,0,1,.93-1.61,4,4,0,0,1,1.34-1,3.67,3.67,0,0,1,1.6-.36,3.34,3.34,0,0,1,1.46.3,6.57,6.57,0,0,1,1.26.82l-.08-1.66V84.8H219V99h-1.36l-.14-1.14h-.06a6.23,6.23,0,0,1-1.33,1A3.35,3.35,0,0,1,214.45,99.28Zm.36-1.38a2.62,2.62,0,0,0,1.28-.33,4.67,4.67,0,0,0,1.2-1V91.48a4.22,4.22,0,0,0-1.19-.79,3.17,3.17,0,0,0-1.17-.23,2.29,2.29,0,0,0-1.09.27,2.68,2.68,0,0,0-.89.76,3.59,3.59,0,0,0-.6,1.17,4.81,4.81,0,0,0-.22,1.52,4.63,4.63,0,0,0,.7,2.74A2.28,2.28,0,0,0,214.81,97.9Z"/><path d="M223.07,87.32a1.16,1.16,0,0,1-.81-.3,1.05,1.05,0,0,1,0-1.53,1.28,1.28,0,0,1,1.62,0,1.05,1.05,0,0,1,0,1.53A1.16,1.16,0,0,1,223.07,87.32ZM222.23,99V89.32h1.64V99Z"/><path d="M230.93,99.28A4.28,4.28,0,0,1,227.79,98a4.61,4.61,0,0,1-1-1.6,5.81,5.81,0,0,1-.37-2.15A5.88,5.88,0,0,1,226.8,92a4.75,4.75,0,0,1,1-1.61,4.16,4.16,0,0,1,1.43-1,4.47,4.47,0,0,1,3.42,0,4.26,4.26,0,0,1,1.43,1,5.09,5.09,0,0,1,1,1.61,6.09,6.09,0,0,1,.37,2.17,6,6,0,0,1-.37,2.15,4.93,4.93,0,0,1-1,1.6,4.38,4.38,0,0,1-1.43,1A4.31,4.31,0,0,1,230.93,99.28Zm0-1.36a2.46,2.46,0,0,0,1.14-.27,2.68,2.68,0,0,0,.89-.76,4,4,0,0,0,.57-1.17,5.49,5.49,0,0,0,.2-1.52,5.61,5.61,0,0,0-.2-1.53,4,4,0,0,0-.57-1.19,2.71,2.71,0,0,0-.89-.77,2.46,2.46,0,0,0-1.14-.27,2.4,2.4,0,0,0-1.14.27,2.52,2.52,0,0,0-.89.77,3.56,3.56,0,0,0-.57,1.19,5.25,5.25,0,0,0-.2,1.53,5.13,5.13,0,0,0,.2,1.52,3.55,3.55,0,0,0,.57,1.17,2.5,2.5,0,0,0,.89.76A2.4,2.4,0,0,0,230.93,97.92Z"/><path d="M246.29,99.28a3.37,3.37,0,0,1-1.41-.33,5,5,0,0,1-1.37-.91h-.06l-.14,1H242V84.8h1.64v3.88l0,1.76a6.62,6.62,0,0,1,1.44-1,3.53,3.53,0,0,1,1.6-.39,3.82,3.82,0,0,1,1.66.35,3.34,3.34,0,0,1,1.21,1,4.7,4.7,0,0,1,.74,1.56,7.94,7.94,0,0,1,.25,2,6.9,6.9,0,0,1-.34,2.22,5.3,5.3,0,0,1-.92,1.66,4,4,0,0,1-1.34,1A3.84,3.84,0,0,1,246.29,99.28ZM246,97.9a2.34,2.34,0,0,0,1.11-.27,2.65,2.65,0,0,0,.88-.76,3.89,3.89,0,0,0,.58-1.21,5.78,5.78,0,0,0,.21-1.62,7.31,7.31,0,0,0-.14-1.46,3.51,3.51,0,0,0-.45-1.13,2.23,2.23,0,0,0-.8-.73,2.52,2.52,0,0,0-1.17-.26,4,4,0,0,0-2.6,1.32v5.1a4,4,0,0,0,1.27.79A3.38,3.38,0,0,0,246,97.9Z"/><path d="M255.89,99.28a2.63,2.63,0,0,1-2.27-1,4.7,4.7,0,0,1-.71-2.84V89.32h1.66v5.94a3.52,3.52,0,0,0,.43,2,1.57,1.57,0,0,0,1.39.61,2.37,2.37,0,0,0,1.34-.39A6.65,6.65,0,0,0,259,96.22v-6.9h1.64V99h-1.36l-.14-1.52h-.06a6.73,6.73,0,0,1-1.43,1.28A3.21,3.21,0,0,1,255.89,99.28Z"/><path d="M267,99.28a3.16,3.16,0,0,1-1.31-.24,2.2,2.2,0,0,1-.86-.66,2.53,2.53,0,0,1-.47-1,5.46,5.46,0,0,1-.14-1.32V90.66h-1.44V89.42l1.52-.1.2-2.72h1.38v2.72h2.62v1.34h-2.62v5.4a2.48,2.48,0,0,0,.33,1.39,1.3,1.3,0,0,0,1.17.49,2.36,2.36,0,0,0,.56-.08,3.42,3.42,0,0,0,.54-.18l.32,1.24a9,9,0,0,1-.87.25A4.36,4.36,0,0,1,267,99.28Z"/><path d="M273.35,99.28A3.16,3.16,0,0,1,272,99a2.2,2.2,0,0,1-.86-.66,2.53,2.53,0,0,1-.47-1,5.46,5.46,0,0,1-.14-1.32V90.66h-1.44V89.42l1.52-.1.2-2.72h1.38v2.72h2.62v1.34h-2.62v5.4a2.48,2.48,0,0,0,.33,1.39,1.3,1.3,0,0,0,1.17.49,2.36,2.36,0,0,0,.56-.08,3.42,3.42,0,0,0,.54-.18l.32,1.24a9,9,0,0,1-.87.25A4.36,4.36,0,0,1,273.35,99.28Z"/><path d="M280.55,99.28A4.28,4.28,0,0,1,277.41,98a4.61,4.61,0,0,1-1-1.6,5.81,5.81,0,0,1-.37-2.15,5.88,5.88,0,0,1,.37-2.17,4.75,4.75,0,0,1,1-1.61,4.16,4.16,0,0,1,1.43-1,4.47,4.47,0,0,1,3.42,0,4.26,4.26,0,0,1,1.43,1,5.09,5.09,0,0,1,1,1.61,6.09,6.09,0,0,1,.37,2.17,6,6,0,0,1-.37,2.15,4.93,4.93,0,0,1-1,1.6,4.38,4.38,0,0,1-1.43,1A4.31,4.31,0,0,1,280.55,99.28Zm0-1.36a2.46,2.46,0,0,0,1.14-.27,2.68,2.68,0,0,0,.89-.76,4,4,0,0,0,.57-1.17,5.49,5.49,0,0,0,.2-1.52,5.61,5.61,0,0,0-.2-1.53,4,4,0,0,0-.57-1.19,2.71,2.71,0,0,0-.89-.77,2.46,2.46,0,0,0-1.14-.27,2.4,2.4,0,0,0-1.14.27,2.52,2.52,0,0,0-.89.77,3.56,3.56,0,0,0-.57,1.19,5.25,5.25,0,0,0-.2,1.53,5.13,5.13,0,0,0,.2,1.52,3.55,3.55,0,0,0,.57,1.17,2.5,2.5,0,0,0,.89.76A2.4,2.4,0,0,0,280.55,97.92Z"/><path d="M287.6,99V89.32H289l.13,1.4h.07a7.27,7.27,0,0,1,1.47-1.17,3.39,3.39,0,0,1,1.79-.47,2.63,2.63,0,0,1,2.25,1,4.78,4.78,0,0,1,.71,2.84V99h-1.64V93.1a3.51,3.51,0,0,0-.44-2,1.61,1.61,0,0,0-1.4-.61,2.45,2.45,0,0,0-1.35.38A8.85,8.85,0,0,0,289.25,92v7Z"/><path d="M304.29,99.28a1.53,1.53,0,0,1-1.34-.56,2.78,2.78,0,0,1-.4-1.64V84.8h1.64V97.2a.82.82,0,0,0,.14.56.4.4,0,0,0,.32.16h.15a.8.8,0,0,0,.21,0l.22,1.24a1.89,1.89,0,0,1-.38.12A3,3,0,0,1,304.29,99.28Z"/><path d="M309.89,99.28a3,3,0,0,1-2-.72,2.58,2.58,0,0,1-.8-2,2.69,2.69,0,0,1,1.42-2.45A11.69,11.69,0,0,1,313,92.88a4.43,4.43,0,0,0-.09-.9,2.46,2.46,0,0,0-.32-.78,1.52,1.52,0,0,0-.6-.55,2.07,2.07,0,0,0-1-.21,4,4,0,0,0-1.58.32,7.26,7.26,0,0,0-1.33.72l-.63-1.14a10.18,10.18,0,0,1,1.66-.85,5.58,5.58,0,0,1,2.16-.41,3,3,0,0,1,2.58,1.09,4.85,4.85,0,0,1,.8,2.91v6h-1.36l-.14-1.16h-.07a7.49,7.49,0,0,1-1.5,1A3.72,3.72,0,0,1,309.89,99.28Zm.48-1.32a2.81,2.81,0,0,0,1.32-.33,6.67,6.67,0,0,0,1.32-1V94a16.24,16.24,0,0,0-2.05.38,5.43,5.43,0,0,0-1.34.52,1.92,1.92,0,0,0-.74.69,1.57,1.57,0,0,0-.23.85,1.36,1.36,0,0,0,.5,1.2A2,2,0,0,0,310.37,98Z"/><path d="M322,99.28a3.37,3.37,0,0,1-1.41-.33,5,5,0,0,1-1.37-.91h-.06l-.14,1h-1.32V84.8h1.64v3.88l0,1.76a6.62,6.62,0,0,1,1.44-1,3.53,3.53,0,0,1,1.6-.39,3.82,3.82,0,0,1,1.66.35,3.34,3.34,0,0,1,1.21,1A4.7,4.7,0,0,1,326,92a7.94,7.94,0,0,1,.25,2,6.9,6.9,0,0,1-.34,2.22A5.3,5.3,0,0,1,325,97.9a4,4,0,0,1-1.34,1A3.84,3.84,0,0,1,322,99.28Zm-.28-1.38a2.27,2.27,0,0,0,1.1-.27,2.58,2.58,0,0,0,.89-.76,3.89,3.89,0,0,0,.58-1.21,5.78,5.78,0,0,0,.21-1.62,7.31,7.31,0,0,0-.14-1.46,3.51,3.51,0,0,0-.45-1.13,2.23,2.23,0,0,0-.8-.73,2.52,2.52,0,0,0-1.17-.26,4,4,0,0,0-2.6,1.32v5.1a4,4,0,0,0,1.27.79A3.38,3.38,0,0,0,321.75,97.9Z"/><path d="M332.73,99.28a4.77,4.77,0,0,1-1.83-.35,4.32,4.32,0,0,1-2.47-2.59,6,6,0,0,1-.37-2.14,5.8,5.8,0,0,1,.38-2.15,5,5,0,0,1,1-1.61,4.17,4.17,0,0,1,1.4-1,3.9,3.9,0,0,1,1.62-.35,4.07,4.07,0,0,1,1.64.32,3.22,3.22,0,0,1,1.23.92,4.47,4.47,0,0,1,.75,1.44,6.47,6.47,0,0,1,.26,1.88c0,.17,0,.34,0,.51a2.34,2.34,0,0,1-.06.43h-6.55a3.76,3.76,0,0,0,1,2.47,3,3,0,0,0,2.28.91,3.88,3.88,0,0,0,1.29-.21,5.89,5.89,0,0,0,1.13-.55l.58,1.08a8.53,8.53,0,0,1-1.42.7A5,5,0,0,1,332.73,99.28Zm-3.07-5.88h5.2a3.47,3.47,0,0,0-.63-2.25,2.15,2.15,0,0,0-1.76-.77,2.54,2.54,0,0,0-1,.2,2.46,2.46,0,0,0-.85.59,3.24,3.24,0,0,0-.64,1A4.7,4.7,0,0,0,329.66,93.4Z"/><path d="M340.44,99.28a1.55,1.55,0,0,1-1.34-.56,2.85,2.85,0,0,1-.4-1.64V84.8h1.65V97.2a.89.89,0,0,0,.13.56.44.44,0,0,0,.33.16H341a.68.68,0,0,0,.21,0l.23,1.24a1.89,1.89,0,0,1-.38.12A3,3,0,0,1,340.44,99.28Z"/><path id="Rectangle-3" data-name="Rectangle" class="cls-5" d="M158,76.21h0a16,16,0,0,1,16,16h0a16,16,0,0,1-16,16h0a16,16,0,0,1-16-16h0A16,16,0,0,1,158,76.21Z"/></svg>