<?xml version="1.0" encoding="utf-8"?>
<!-- Generator: Adobe Illustrator 24.1.2, SVG Export Plug-In . SVG Version: 6.00 Build 0)  -->
<svg version="1.1" id="Layer_1" xmlns="http://www.w3.org/2000/svg" xmlns:xlink="http://www.w3.org/1999/xlink" x="0px" y="0px"
	 viewBox="0 0 500 270" style="enable-background:new 0 0 500 270;" xml:space="preserve">
<style type="text/css">
	.st0{fill:#F5F5F5;}
	.st1{fill:#00916A;}
	.st2{fill-rule:evenodd;clip-rule:evenodd;fill:#FFFFFF;stroke:#6E7272;}
	.st3{fill:#005FC6;}
	.st4{fill:#FFFFFF;}
</style>
<rect id="Rectangle" x="5" class="st0" width="495" height="270"/>
<rect id="Rectangle_1_" class="st1" width="6" height="270"/>
<path id="Shape" class="st1" d="M33.5,12C25,12,18,18.9,18,27.5S24.9,43,33.5,43S49,36.1,49,27.5S42,12,33.5,12z M30.4,35.2
	l-7.7-7.7l2.2-2.2l5.5,5.5L42,19.1l2.2,2.2L30.4,35.2z"/>
<path id="Rectangle_2_" class="st2" d="M138.2,190.6h25.7c2,0,3.7,1.7,3.7,3.7V220c0,2-1.7,3.7-3.7,3.7h-25.7c-2,0-3.7-1.7-3.7-3.7
	v-25.7C134.5,192.3,136.2,190.6,138.2,190.6z"/>
<g id="Group" transform="translate(132.000000, 130.000000)">
	<g id="checked">
		<path id="Shape_1_" class="st3" d="M32.2,5H5.8C3.7,5,2,6.7,2,8.8v26.5c0,2,1.7,3.7,3.8,3.7h26.5c2.1,0,3.8-1.7,3.8-3.8V8.8
			C36,6.7,34.3,5,32.2,5z"/>
	</g>
	<g id="check-icon" transform="translate(5.000000, 8.000000)">
		<path id="Path" class="st4" d="M12.3,23.3l15-14.9c0.6-0.6,0.6-1.3,0-1.8l-1.8-1.8c-0.6-0.6-1.4-0.6-1.8,0l-12.3,12l-5.7-5.7
			c-0.6-0.6-1.3-0.6-1.8,0L2.1,13c-0.6,0.6-0.6,1.3,0,1.8l8.5,8.5C11.1,23.7,11.9,23.7,12.3,23.3L12.3,23.3z"/>
	</g>
</g>
<g id="Group_1_" transform="translate(132.000000, 73.000000)">
	<g id="checked_1_">
		<path id="Shape_2_" class="st3" d="M32.2,5H5.8C3.7,5,2,6.7,2,8.8v26.5c0,2,1.7,3.7,3.8,3.7h26.5c2.1,0,3.8-1.7,3.8-3.8V8.8
			C36,6.7,34.3,5,32.2,5z"/>
	</g>
	<g id="check-icon_1_" transform="translate(5.000000, 8.000000)">
		<path id="Path_1_" class="st4" d="M12.3,23.3l15-14.9c0.6-0.6,0.6-1.3,0-1.8l-1.8-1.8c-0.6-0.6-1.4-0.6-1.8,0l-12.3,12l-5.7-5.7
			c-0.6-0.6-1.3-0.6-1.8,0L2.1,13c-0.6,0.6-0.6,1.3,0,1.8l8.5,8.5C11.1,23.7,11.9,23.7,12.3,23.3L12.3,23.3z"/>
	</g>
</g>
<g>
	<path d="M139.8,54.9c-0.9,0-1.8-0.2-2.5-0.5c-0.8-0.3-1.5-0.8-2-1.4l1-1.1c0.5,0.5,1,0.9,1.6,1.2c0.6,0.3,1.3,0.4,1.9,0.4
		c0.9,0,1.5-0.2,2-0.6c0.5-0.4,0.7-0.9,0.7-1.5c0-0.3-0.1-0.6-0.2-0.8c-0.1-0.2-0.3-0.4-0.5-0.6c-0.2-0.2-0.4-0.3-0.7-0.4
		s-0.5-0.3-0.9-0.4l-1.9-0.8c-0.3-0.1-0.6-0.3-0.9-0.5c-0.3-0.2-0.6-0.4-0.9-0.7c-0.3-0.3-0.5-0.6-0.6-0.9c-0.2-0.4-0.2-0.8-0.2-1.3
		c0-0.5,0.1-0.9,0.3-1.4c0.2-0.4,0.5-0.8,0.9-1.1c0.4-0.3,0.8-0.6,1.3-0.7c0.5-0.2,1-0.3,1.6-0.3c0.8,0,1.5,0.1,2.2,0.4
		c0.7,0.3,1.2,0.7,1.7,1.2l-0.9,1.1c-0.4-0.4-0.8-0.7-1.3-0.9c-0.5-0.2-1-0.3-1.6-0.3c-0.7,0-1.3,0.2-1.8,0.5
		c-0.4,0.3-0.7,0.8-0.7,1.4c0,0.3,0.1,0.6,0.2,0.8s0.3,0.4,0.5,0.6c0.2,0.2,0.4,0.3,0.7,0.4c0.3,0.1,0.5,0.2,0.8,0.3l1.8,0.8
		c0.4,0.2,0.7,0.3,1,0.5c0.3,0.2,0.6,0.4,0.9,0.7c0.2,0.3,0.4,0.6,0.6,1s0.2,0.8,0.2,1.3c0,0.5-0.1,1-0.3,1.4
		c-0.2,0.4-0.5,0.8-0.9,1.2c-0.4,0.3-0.8,0.6-1.4,0.8C141.1,54.8,140.5,54.9,139.8,54.9z"/>
	<path d="M150.5,54.9c-0.6,0-1.3-0.1-1.8-0.3c-0.6-0.2-1-0.6-1.5-1s-0.7-1-1-1.6c-0.2-0.6-0.4-1.3-0.4-2.1s0.1-1.5,0.4-2.1
		c0.2-0.6,0.6-1.2,1-1.6c0.4-0.4,0.9-0.8,1.4-1c0.5-0.2,1-0.3,1.6-0.3c0.6,0,1.2,0.1,1.6,0.3c0.5,0.2,0.9,0.5,1.2,0.9
		c0.3,0.4,0.6,0.9,0.7,1.4c0.2,0.6,0.3,1.2,0.3,1.9c0,0.2,0,0.3,0,0.5c0,0.2,0,0.3,0,0.4h-6.5c0.1,1,0.4,1.8,1,2.4
		c0.6,0.6,1.3,0.9,2.2,0.9c0.5,0,0.9-0.1,1.3-0.2c0.4-0.1,0.8-0.3,1.1-0.5l0.6,1.1c-0.4,0.3-0.9,0.5-1.4,0.7S151.2,54.9,150.5,54.9z
		 M147.5,49.1h5.1c0-1-0.2-1.7-0.6-2.2s-1-0.8-1.8-0.8c-0.3,0-0.7,0.1-1,0.2c-0.3,0.1-0.6,0.3-0.8,0.6c-0.3,0.3-0.5,0.6-0.6,0.9
		C147.6,48.2,147.5,48.6,147.5,49.1z"/>
	<path d="M158.1,54.9c-0.6,0-1.1-0.2-1.3-0.6c-0.3-0.4-0.4-0.9-0.4-1.6V40.6h1.6v12.3c0,0.3,0,0.4,0.1,0.6s0.2,0.2,0.3,0.2
		c0.1,0,0.1,0,0.1,0c0,0,0.1,0,0.2,0l0.2,1.2c-0.1,0.1-0.2,0.1-0.4,0.1C158.6,54.9,158.4,54.9,158.1,54.9z"/>
	<path d="M165.4,54.9c-0.6,0-1.3-0.1-1.8-0.3c-0.6-0.2-1-0.6-1.5-1s-0.7-1-1-1.6c-0.2-0.6-0.4-1.3-0.4-2.1s0.1-1.5,0.4-2.1
		c0.2-0.6,0.6-1.2,1-1.6c0.4-0.4,0.9-0.8,1.4-1c0.5-0.2,1-0.3,1.6-0.3c0.6,0,1.2,0.1,1.6,0.3c0.5,0.2,0.9,0.5,1.2,0.9
		c0.3,0.4,0.6,0.9,0.7,1.4c0.2,0.6,0.3,1.2,0.3,1.9c0,0.2,0,0.3,0,0.5c0,0.2,0,0.3,0,0.4h-6.5c0.1,1,0.4,1.8,1,2.4
		c0.6,0.6,1.3,0.9,2.2,0.9c0.5,0,0.9-0.1,1.3-0.2c0.4-0.1,0.8-0.3,1.1-0.5l0.6,1.1c-0.4,0.3-0.9,0.5-1.4,0.7S166,54.9,165.4,54.9z
		 M162.3,49.1h5.1c0-1-0.2-1.7-0.6-2.2s-1-0.8-1.8-0.8c-0.3,0-0.7,0.1-1,0.2c-0.3,0.1-0.6,0.3-0.8,0.6c-0.3,0.3-0.5,0.6-0.6,0.9
		C162.5,48.2,162.4,48.6,162.3,49.1z"/>
	<path d="M175.1,54.9c-0.6,0-1.2-0.1-1.8-0.3c-0.6-0.2-1-0.6-1.4-1c-0.4-0.4-0.7-1-1-1.6s-0.3-1.3-0.3-2.1c0-0.8,0.1-1.5,0.4-2.1
		c0.3-0.6,0.6-1.2,1-1.6c0.4-0.4,0.9-0.8,1.5-1c0.6-0.2,1.2-0.3,1.8-0.3c0.6,0,1.2,0.1,1.6,0.3c0.4,0.2,0.8,0.5,1.2,0.8l-0.8,1.1
		c-0.3-0.3-0.6-0.5-0.9-0.6c-0.3-0.2-0.7-0.2-1-0.2c-0.4,0-0.8,0.1-1.2,0.3c-0.4,0.2-0.7,0.4-1,0.8c-0.3,0.3-0.5,0.7-0.6,1.2
		c-0.2,0.5-0.2,1-0.2,1.5c0,0.6,0.1,1.1,0.2,1.5c0.1,0.4,0.3,0.8,0.6,1.2s0.6,0.6,0.9,0.8c0.4,0.2,0.8,0.3,1.2,0.3
		c0.4,0,0.9-0.1,1.2-0.3s0.7-0.4,1-0.7l0.7,1.1c-0.4,0.4-0.9,0.7-1.4,0.9S175.7,54.9,175.1,54.9z"/>
	<path d="M183.1,54.9c-0.5,0-0.9-0.1-1.3-0.2s-0.6-0.4-0.9-0.7s-0.4-0.6-0.5-1c-0.1-0.4-0.1-0.8-0.1-1.3v-5.3H179v-1.2l1.5-0.1
		l0.2-2.7h1.4v2.7h2.6v1.3H182v5.3c0,0.6,0.1,1.1,0.3,1.4s0.6,0.5,1.2,0.5c0.2,0,0.4,0,0.6-0.1s0.4-0.1,0.5-0.2l0.3,1.2
		c-0.3,0.1-0.6,0.2-0.9,0.2C183.8,54.9,183.4,54.9,183.1,54.9z"/>
	<path d="M190.8,54.7v-9.6h1.3l0.1,1.4h0.1c0.4-0.5,0.9-0.8,1.4-1.2c0.5-0.3,1-0.5,1.6-0.5c0.7,0,1.3,0.2,1.7,0.5
		c0.4,0.3,0.7,0.8,0.9,1.4c0.5-0.6,1-1,1.5-1.3c0.5-0.3,1.1-0.5,1.7-0.5c1,0,1.7,0.3,2.2,1c0.5,0.6,0.7,1.6,0.7,2.8v6.1h-1.6v-5.9
		c0-0.9-0.1-1.6-0.4-2c-0.3-0.4-0.7-0.6-1.3-0.6c-0.7,0-1.5,0.5-2.4,1.5v7h-1.6v-5.9c0-0.9-0.1-1.6-0.4-2c-0.3-0.4-0.7-0.6-1.4-0.6
		c-0.7,0-1.5,0.5-2.4,1.5v7H190.8z"/>
	<path d="M209.4,54.9c-0.8,0-1.5-0.2-2-0.7c-0.5-0.5-0.8-1.1-0.8-2c0-1.1,0.5-1.9,1.4-2.4c0.9-0.6,2.4-1,4.5-1.2
		c0-0.3,0-0.6-0.1-0.9s-0.2-0.5-0.3-0.8c-0.1-0.2-0.3-0.4-0.6-0.5c-0.3-0.1-0.6-0.2-1-0.2c-0.6,0-1.1,0.1-1.6,0.3
		c-0.5,0.2-0.9,0.4-1.3,0.7l-0.6-1.1c0.4-0.3,1-0.6,1.6-0.8c0.6-0.3,1.4-0.4,2.1-0.4c1.2,0,2,0.4,2.6,1.1c0.5,0.7,0.8,1.7,0.8,2.9
		v5.9h-1.3l-0.1-1.1h-0.1c-0.5,0.4-1,0.7-1.5,1C210.6,54.8,210,54.9,209.4,54.9z M209.9,53.6c0.5,0,0.9-0.1,1.3-0.3
		c0.4-0.2,0.8-0.5,1.3-1v-2.7c-0.8,0.1-1.5,0.2-2,0.4c-0.5,0.1-1,0.3-1.3,0.5c-0.3,0.2-0.6,0.4-0.7,0.7c-0.2,0.3-0.2,0.5-0.2,0.8
		c0,0.6,0.2,1,0.5,1.2C209,53.5,209.4,53.6,209.9,53.6z"/>
	<path d="M217.1,54.7v-9.6h1.3l0.1,1.7h0.1c0.3-0.6,0.7-1.1,1.2-1.4c0.5-0.4,1-0.5,1.5-0.5c0.4,0,0.7,0.1,1,0.2l-0.3,1.4
		c-0.2-0.1-0.3-0.1-0.4-0.1c-0.1,0-0.3,0-0.5,0c-0.4,0-0.8,0.2-1.3,0.5c-0.4,0.3-0.8,0.9-1.2,1.7v6.2H217.1z"/>
	<path d="M224,54.7V40.6h1.6v9.5h0.1l4.1-5.1h1.8l-3.2,3.9l3.7,5.8h-1.8l-2.8-4.6l-1.8,2.1v2.5H224z"/>
	<path d="M237.4,54.9c-0.6,0-1.2-0.1-1.8-0.3c-0.6-0.2-1-0.6-1.5-1c-0.4-0.4-0.7-1-1-1.6s-0.4-1.3-0.4-2.1s0.1-1.5,0.4-2.1
		s0.6-1.2,1-1.6c0.4-0.4,0.9-0.8,1.4-1c0.5-0.2,1-0.3,1.6-0.3c0.6,0,1.2,0.1,1.6,0.3s0.9,0.5,1.2,0.9c0.3,0.4,0.6,0.9,0.7,1.4
		c0.2,0.6,0.3,1.2,0.3,1.9c0,0.2,0,0.3,0,0.5s0,0.3,0,0.4h-6.5c0.1,1,0.4,1.8,1,2.4s1.3,0.9,2.2,0.9c0.5,0,0.9-0.1,1.3-0.2
		c0.4-0.1,0.8-0.3,1.1-0.5l0.6,1.1c-0.4,0.3-0.9,0.5-1.4,0.7S238,54.9,237.4,54.9z M234.3,49.1h5.1c0-1-0.2-1.7-0.6-2.2
		c-0.4-0.5-1-0.8-1.8-0.8c-0.3,0-0.7,0.1-1,0.2c-0.3,0.1-0.6,0.3-0.8,0.6c-0.3,0.3-0.5,0.6-0.6,0.9S234.4,48.6,234.3,49.1z"/>
	<path d="M246.1,54.9c-0.5,0-0.9-0.1-1.3-0.2c-0.4-0.2-0.6-0.4-0.9-0.7s-0.4-0.6-0.5-1c-0.1-0.4-0.1-0.8-0.1-1.3v-5.3h-1.4v-1.2
		l1.5-0.1l0.2-2.7h1.4v2.7h2.6v1.3H245v5.3c0,0.6,0.1,1.1,0.3,1.4s0.6,0.5,1.2,0.5c0.2,0,0.4,0,0.6-0.1s0.4-0.1,0.5-0.2l0.3,1.2
		c-0.3,0.1-0.6,0.2-0.9,0.2C246.7,54.9,246.4,54.9,246.1,54.9z"/>
	<path d="M250.6,43.1c-0.3,0-0.6-0.1-0.8-0.3c-0.2-0.2-0.3-0.4-0.3-0.8c0-0.3,0.1-0.6,0.3-0.8c0.2-0.2,0.5-0.3,0.8-0.3
		c0.3,0,0.6,0.1,0.8,0.3c0.2,0.2,0.3,0.4,0.3,0.8c0,0.3-0.1,0.6-0.3,0.8S250.9,43.1,250.6,43.1z M249.8,54.7v-9.6h1.6v9.6H249.8z"/>
	<path d="M254.6,54.7v-9.6h1.3l0.1,1.4h0.1c0.5-0.5,0.9-0.8,1.5-1.2c0.5-0.3,1.1-0.5,1.8-0.5c1,0,1.8,0.3,2.2,1
		c0.5,0.6,0.7,1.6,0.7,2.8v6.1h-1.6v-5.9c0-0.9-0.1-1.6-0.4-2c-0.3-0.4-0.8-0.6-1.4-0.6c-0.5,0-0.9,0.1-1.3,0.4
		c-0.4,0.3-0.8,0.6-1.3,1.1v7H254.6z"/>
	<path d="M268.7,59.1c-0.6,0-1.1-0.1-1.6-0.2s-0.9-0.3-1.3-0.5s-0.6-0.5-0.8-0.8s-0.3-0.7-0.3-1.1c0-0.4,0.1-0.8,0.4-1.2
		s0.6-0.7,1-1v-0.1c-0.2-0.1-0.4-0.3-0.6-0.6c-0.2-0.3-0.2-0.6-0.2-1c0-0.4,0.1-0.8,0.3-1.1c0.2-0.3,0.5-0.5,0.7-0.7v-0.1
		c-0.3-0.3-0.6-0.6-0.9-1.1c-0.3-0.4-0.4-1-0.4-1.5c0-0.5,0.1-1,0.3-1.4c0.2-0.4,0.5-0.8,0.8-1.1c0.3-0.3,0.7-0.5,1.2-0.7
		s0.9-0.2,1.4-0.2c0.3,0,0.5,0,0.7,0.1c0.2,0,0.4,0.1,0.6,0.2h3.3v1.2h-2c0.2,0.2,0.4,0.5,0.6,0.9c0.2,0.3,0.2,0.7,0.2,1.1
		c0,0.5-0.1,1-0.3,1.4c-0.2,0.4-0.4,0.8-0.8,1c-0.3,0.3-0.7,0.5-1.1,0.7s-0.9,0.2-1.4,0.2c-0.2,0-0.5,0-0.7-0.1s-0.5-0.1-0.7-0.2
		c-0.2,0.1-0.3,0.3-0.4,0.5c-0.1,0.2-0.2,0.4-0.2,0.7c0,0.3,0.1,0.6,0.4,0.8c0.2,0.2,0.7,0.3,1.3,0.3h1.9c1.1,0,2,0.2,2.5,0.5
		c0.6,0.4,0.8,0.9,0.8,1.8c0,0.4-0.1,0.9-0.3,1.3c-0.2,0.4-0.5,0.8-1,1.1c-0.4,0.3-0.9,0.5-1.5,0.7C270.1,59,269.5,59.1,268.7,59.1z
		 M269,58c0.5,0,0.9-0.1,1.3-0.2c0.4-0.1,0.7-0.3,1-0.4c0.3-0.2,0.5-0.4,0.6-0.6c0.1-0.2,0.2-0.5,0.2-0.7c0-0.4-0.2-0.8-0.5-0.9
		c-0.3-0.2-0.8-0.3-1.4-0.3h-1.7c-0.2,0-0.4,0-0.6,0c-0.2,0-0.4-0.1-0.6-0.1c-0.3,0.3-0.6,0.5-0.8,0.8s-0.2,0.6-0.2,0.8
		c0,0.5,0.2,0.9,0.7,1.2C267.4,57.8,268.1,58,269,58z M268.7,50.6c0.3,0,0.5-0.1,0.8-0.2s0.5-0.3,0.7-0.5c0.2-0.2,0.3-0.4,0.4-0.7
		c0.1-0.3,0.2-0.6,0.2-1c0-0.7-0.2-1.3-0.6-1.7s-0.9-0.6-1.4-0.6s-1,0.2-1.4,0.6c-0.4,0.4-0.6,0.9-0.6,1.7c0,0.4,0.1,0.7,0.2,1
		c0.1,0.3,0.3,0.5,0.4,0.7c0.2,0.2,0.4,0.4,0.7,0.5C268.2,50.5,268.4,50.6,268.7,50.6z"/>
	<path d="M279.4,58.8V45.1h1.3l0.1,1.1h0.1c0.4-0.4,0.9-0.7,1.4-1c0.5-0.3,1.1-0.4,1.6-0.4c0.6,0,1.2,0.1,1.6,0.3
		c0.5,0.2,0.9,0.6,1.2,1c0.3,0.4,0.6,0.9,0.7,1.5s0.2,1.3,0.2,2c0,0.8-0.1,1.5-0.3,2.2c-0.2,0.6-0.5,1.2-0.9,1.6
		c-0.4,0.4-0.8,0.8-1.3,1c-0.5,0.2-1,0.3-1.6,0.3c-0.4,0-0.9-0.1-1.3-0.3c-0.4-0.2-0.9-0.5-1.3-0.8l0,1.7v3.2H279.4z M283.4,53.6
		c0.4,0,0.8-0.1,1.1-0.3c0.3-0.2,0.6-0.4,0.9-0.8s0.4-0.7,0.6-1.2c0.1-0.5,0.2-1,0.2-1.6c0-0.5,0-1-0.1-1.4
		c-0.1-0.4-0.2-0.8-0.4-1.1c-0.2-0.3-0.5-0.6-0.8-0.7s-0.7-0.3-1.2-0.3c-0.4,0-0.8,0.1-1.2,0.3c-0.4,0.2-0.9,0.5-1.3,1v5
		c0.4,0.4,0.9,0.6,1.3,0.8C282.7,53.5,283.1,53.6,283.4,53.6z"/>
	<path d="M290.4,54.7v-9.6h1.3l0.1,1.7h0.1c0.3-0.6,0.7-1.1,1.2-1.4c0.5-0.4,1-0.5,1.5-0.5c0.4,0,0.7,0.1,1,0.2l-0.3,1.4
		c-0.2-0.1-0.3-0.1-0.4-0.1c-0.1,0-0.3,0-0.5,0c-0.4,0-0.8,0.2-1.3,0.5c-0.4,0.3-0.8,0.9-1.2,1.7v6.2H290.4z"/>
	<path d="M301,54.9c-0.6,0-1.2-0.1-1.8-0.3c-0.6-0.2-1-0.6-1.5-1c-0.4-0.4-0.7-1-1-1.6s-0.4-1.3-0.4-2.1s0.1-1.5,0.4-2.1
		s0.6-1.2,1-1.6c0.4-0.4,0.9-0.8,1.4-1c0.5-0.2,1-0.3,1.6-0.3c0.6,0,1.2,0.1,1.6,0.3s0.9,0.5,1.2,0.9c0.3,0.4,0.6,0.9,0.7,1.4
		c0.2,0.6,0.3,1.2,0.3,1.9c0,0.2,0,0.3,0,0.5s0,0.3,0,0.4H298c0.1,1,0.4,1.8,1,2.4s1.3,0.9,2.2,0.9c0.5,0,0.9-0.1,1.3-0.2
		c0.4-0.1,0.8-0.3,1.1-0.5l0.6,1.1c-0.4,0.3-0.9,0.5-1.4,0.7S301.6,54.9,301,54.9z M297.9,49.1h5.1c0-1-0.2-1.7-0.6-2.2
		c-0.4-0.5-1-0.8-1.8-0.8c-0.3,0-0.7,0.1-1,0.2c-0.3,0.1-0.6,0.3-0.8,0.6c-0.3,0.3-0.5,0.6-0.6,0.9S298,48.6,297.9,49.1z"/>
	<path d="M307.2,54.7v-8.3h-1.3v-1.2l1.3-0.1v-1.5c0-1,0.2-1.8,0.7-2.3c0.5-0.6,1.2-0.9,2.1-0.9c0.3,0,0.6,0,0.9,0.1
		s0.5,0.1,0.7,0.2l-0.4,1.2c-0.4-0.2-0.7-0.2-1.1-0.2c-0.9,0-1.3,0.6-1.3,1.9v1.5h2v1.3h-2v8.3H307.2z"/>
	<path d="M316.4,54.9c-0.6,0-1.2-0.1-1.8-0.3c-0.6-0.2-1-0.6-1.5-1c-0.4-0.4-0.7-1-1-1.6s-0.4-1.3-0.4-2.1s0.1-1.5,0.4-2.1
		s0.6-1.2,1-1.6c0.4-0.4,0.9-0.8,1.4-1c0.5-0.2,1-0.3,1.6-0.3c0.6,0,1.2,0.1,1.6,0.3s0.9,0.5,1.2,0.9c0.3,0.4,0.6,0.9,0.7,1.4
		c0.2,0.6,0.3,1.2,0.3,1.9c0,0.2,0,0.3,0,0.5s0,0.3,0,0.4h-6.5c0.1,1,0.4,1.8,1,2.4s1.3,0.9,2.2,0.9c0.5,0,0.9-0.1,1.3-0.2
		c0.4-0.1,0.8-0.3,1.1-0.5l0.6,1.1c-0.4,0.3-0.9,0.5-1.4,0.7S317,54.9,316.4,54.9z M313.3,49.1h5.1c0-1-0.2-1.7-0.6-2.2
		c-0.4-0.5-1-0.8-1.8-0.8c-0.3,0-0.7,0.1-1,0.2c-0.3,0.1-0.6,0.3-0.8,0.6c-0.3,0.3-0.5,0.6-0.6,0.9S313.4,48.6,313.3,49.1z"/>
	<path d="M322.3,54.7v-9.6h1.3l0.1,1.7h0.1c0.3-0.6,0.7-1.1,1.2-1.4c0.5-0.4,1-0.5,1.5-0.5c0.4,0,0.7,0.1,1,0.2l-0.3,1.4
		c-0.2-0.1-0.3-0.1-0.4-0.1c-0.1,0-0.3,0-0.5,0c-0.4,0-0.8,0.2-1.3,0.5c-0.4,0.3-0.8,0.9-1.2,1.7v6.2H322.3z"/>
	<path d="M332.8,54.9c-0.6,0-1.2-0.1-1.8-0.3c-0.6-0.2-1-0.6-1.5-1c-0.4-0.4-0.7-1-1-1.6s-0.4-1.3-0.4-2.1s0.1-1.5,0.4-2.1
		s0.6-1.2,1-1.6c0.4-0.4,0.9-0.8,1.4-1c0.5-0.2,1-0.3,1.6-0.3c0.6,0,1.2,0.1,1.6,0.3s0.9,0.5,1.2,0.9c0.3,0.4,0.6,0.9,0.7,1.4
		c0.2,0.6,0.3,1.2,0.3,1.9c0,0.2,0,0.3,0,0.5s0,0.3,0,0.4h-6.5c0.1,1,0.4,1.8,1,2.4s1.3,0.9,2.2,0.9c0.5,0,0.9-0.1,1.3-0.2
		c0.4-0.1,0.8-0.3,1.1-0.5l0.6,1.1c-0.4,0.3-0.9,0.5-1.4,0.7S333.5,54.9,332.8,54.9z M329.8,49.1h5.1c0-1-0.2-1.7-0.6-2.2
		c-0.4-0.5-1-0.8-1.8-0.8c-0.3,0-0.7,0.1-1,0.2c-0.3,0.1-0.6,0.3-0.8,0.6c-0.3,0.3-0.5,0.6-0.6,0.9S329.9,48.6,329.8,49.1z"/>
	<path d="M338.8,54.7v-9.6h1.3l0.1,1.4h0.1c0.5-0.5,0.9-0.8,1.5-1.2c0.5-0.3,1.1-0.5,1.8-0.5c1,0,1.8,0.3,2.2,1
		c0.5,0.6,0.7,1.6,0.7,2.8v6.1h-1.6v-5.9c0-0.9-0.1-1.6-0.4-2c-0.3-0.4-0.8-0.6-1.4-0.6c-0.5,0-0.9,0.1-1.3,0.4
		c-0.4,0.3-0.8,0.6-1.3,1.1v7H338.8z"/>
	<path d="M353.4,54.9c-0.6,0-1.2-0.1-1.8-0.3c-0.6-0.2-1-0.6-1.4-1c-0.4-0.4-0.7-1-1-1.6s-0.3-1.3-0.3-2.1c0-0.8,0.1-1.5,0.4-2.1
		c0.2-0.6,0.6-1.2,1-1.6c0.4-0.4,0.9-0.8,1.5-1c0.6-0.2,1.2-0.3,1.8-0.3c0.6,0,1.2,0.1,1.6,0.3c0.4,0.2,0.8,0.5,1.2,0.8l-0.8,1.1
		c-0.3-0.3-0.6-0.5-0.9-0.6c-0.3-0.2-0.7-0.2-1-0.2c-0.4,0-0.8,0.1-1.2,0.3c-0.4,0.2-0.7,0.4-1,0.8c-0.3,0.3-0.5,0.7-0.6,1.2
		c-0.2,0.5-0.2,1-0.2,1.5c0,0.6,0.1,1.1,0.2,1.5c0.1,0.4,0.3,0.8,0.6,1.2c0.3,0.3,0.6,0.6,0.9,0.8c0.4,0.2,0.8,0.3,1.2,0.3
		c0.4,0,0.9-0.1,1.2-0.3c0.4-0.2,0.7-0.4,1-0.7l0.7,1.1c-0.4,0.4-0.9,0.7-1.4,0.9C354.5,54.8,354,54.9,353.4,54.9z"/>
	<path d="M362.1,54.9c-0.6,0-1.2-0.1-1.8-0.3c-0.6-0.2-1-0.6-1.5-1c-0.4-0.4-0.7-1-1-1.6s-0.4-1.3-0.4-2.1s0.1-1.5,0.4-2.1
		s0.6-1.2,1-1.6c0.4-0.4,0.9-0.8,1.4-1c0.5-0.2,1-0.3,1.6-0.3c0.6,0,1.2,0.1,1.6,0.3s0.9,0.5,1.2,0.9c0.3,0.4,0.6,0.9,0.7,1.4
		c0.2,0.6,0.3,1.2,0.3,1.9c0,0.2,0,0.3,0,0.5s0,0.3,0,0.4h-6.5c0.1,1,0.4,1.8,1,2.4s1.3,0.9,2.2,0.9c0.5,0,0.9-0.1,1.3-0.2
		c0.4-0.1,0.8-0.3,1.1-0.5l0.6,1.1c-0.4,0.3-0.9,0.5-1.4,0.7S362.8,54.9,362.1,54.9z M359.1,49.1h5.1c0-1-0.2-1.7-0.6-2.2
		c-0.4-0.5-1-0.8-1.8-0.8c-0.3,0-0.7,0.1-1,0.2c-0.3,0.1-0.6,0.3-0.8,0.6c-0.3,0.3-0.5,0.6-0.6,0.9S359.1,48.6,359.1,49.1z"/>
	<path d="M370.5,54.9c-0.7,0-1.3-0.1-2-0.4c-0.6-0.2-1.2-0.6-1.6-1l0.8-1.1c0.4,0.3,0.9,0.6,1.3,0.8s1,0.3,1.5,0.3
		c0.6,0,1.1-0.1,1.4-0.4c0.3-0.3,0.5-0.6,0.5-1.1c0-0.3-0.1-0.5-0.2-0.7s-0.3-0.3-0.5-0.5c-0.2-0.1-0.4-0.3-0.7-0.4
		c-0.3-0.1-0.5-0.2-0.8-0.3c-0.3-0.1-0.7-0.3-1-0.4c-0.3-0.2-0.7-0.3-0.9-0.6c-0.3-0.2-0.5-0.5-0.7-0.8c-0.2-0.3-0.3-0.6-0.3-1
		c0-0.4,0.1-0.7,0.2-1.1c0.2-0.3,0.4-0.6,0.7-0.9c0.3-0.2,0.6-0.4,1-0.6s0.9-0.2,1.4-0.2c0.6,0,1.2,0.1,1.7,0.3
		c0.5,0.2,0.9,0.5,1.3,0.8l-0.8,1c-0.3-0.3-0.7-0.5-1-0.6s-0.7-0.2-1.2-0.2c-0.6,0-1.1,0.1-1.3,0.4c-0.3,0.3-0.4,0.6-0.4,1
		c0,0.2,0.1,0.4,0.2,0.6c0.1,0.2,0.3,0.3,0.5,0.4c0.2,0.1,0.4,0.2,0.7,0.3c0.3,0.1,0.5,0.2,0.8,0.3c0.3,0.1,0.7,0.3,1,0.4
		c0.3,0.1,0.7,0.3,0.9,0.5c0.3,0.2,0.5,0.5,0.7,0.8c0.2,0.3,0.3,0.7,0.3,1.1c0,0.4-0.1,0.8-0.2,1.1c-0.2,0.3-0.4,0.6-0.7,0.9
		c-0.3,0.3-0.7,0.5-1.1,0.6S371.1,54.9,370.5,54.9z"/>
</g>
<g>
	<path d="M185.8,102.2v-13h7.5v1.4h-5.8v4.1h4.9v1.4h-4.9v4.7h6v1.4H185.8z"/>
	<path d="M196,102.2v-9.6h1.3l0.1,1.4h0.1c0.4-0.5,0.9-0.8,1.4-1.2c0.5-0.3,1-0.5,1.6-0.5c0.7,0,1.3,0.2,1.7,0.5
		c0.4,0.3,0.7,0.8,0.9,1.4c0.5-0.6,1-1,1.5-1.3c0.5-0.3,1.1-0.5,1.7-0.5c1,0,1.7,0.3,2.2,1c0.5,0.6,0.7,1.6,0.7,2.8v6.1h-1.6v-5.9
		c0-0.9-0.1-1.6-0.4-2c-0.3-0.4-0.7-0.6-1.3-0.6c-0.7,0-1.5,0.5-2.4,1.5v7h-1.6v-5.9c0-0.9-0.1-1.6-0.4-2c-0.3-0.4-0.7-0.6-1.4-0.6
		c-0.7,0-1.5,0.5-2.4,1.5v7H196z"/>
	<path d="M214.7,102.4c-0.8,0-1.5-0.2-2-0.7c-0.5-0.5-0.8-1.1-0.8-2c0-1.1,0.5-1.9,1.4-2.4c0.9-0.6,2.4-1,4.5-1.2
		c0-0.3,0-0.6-0.1-0.9c-0.1-0.3-0.2-0.5-0.3-0.8c-0.1-0.2-0.3-0.4-0.6-0.5s-0.6-0.2-1-0.2c-0.6,0-1.1,0.1-1.6,0.3
		c-0.5,0.2-0.9,0.4-1.3,0.7l-0.6-1.1c0.4-0.3,1-0.6,1.6-0.8c0.6-0.3,1.4-0.4,2.1-0.4c1.2,0,2,0.4,2.6,1.1c0.5,0.7,0.8,1.7,0.8,2.9
		v5.9h-1.3l-0.1-1.1h-0.1c-0.5,0.4-1,0.7-1.5,1S215.3,102.4,214.7,102.4z M215.1,101.1c0.5,0,0.9-0.1,1.3-0.3c0.4-0.2,0.8-0.5,1.3-1
		v-2.7c-0.8,0.1-1.5,0.2-2,0.4c-0.5,0.1-1,0.3-1.3,0.5c-0.3,0.2-0.6,0.4-0.7,0.7c-0.2,0.3-0.2,0.5-0.2,0.8c0,0.6,0.2,1,0.5,1.2
		C214.3,101,214.7,101.1,215.1,101.1z"/>
	<path d="M223.3,90.6c-0.3,0-0.6-0.1-0.8-0.3s-0.3-0.4-0.3-0.8c0-0.3,0.1-0.6,0.3-0.8c0.2-0.2,0.5-0.3,0.8-0.3
		c0.3,0,0.6,0.1,0.8,0.3c0.2,0.2,0.3,0.4,0.3,0.8c0,0.3-0.1,0.6-0.3,0.8S223.6,90.6,223.3,90.6z M222.4,102.2v-9.6h1.6v9.6H222.4z"
		/>
	<path d="M229,102.4c-0.6,0-1.1-0.2-1.3-0.6c-0.3-0.4-0.4-0.9-0.4-1.6V88.1h1.6v12.3c0,0.3,0,0.4,0.1,0.6s0.2,0.2,0.3,0.2
		c0.1,0,0.1,0,0.1,0c0,0,0.1,0,0.2,0l0.2,1.2c-0.1,0.1-0.2,0.1-0.4,0.1C229.4,102.4,229.2,102.4,229,102.4z"/>
</g>
<g>
	<path d="M185.5,158v-13h3.7c0.7,0,1.4,0.1,2,0.2s1.1,0.3,1.5,0.6s0.8,0.7,1,1.2c0.2,0.5,0.4,1.1,0.4,1.8c0,0.7-0.1,1.3-0.3,1.8
		c-0.2,0.5-0.6,0.9-1,1.2c-0.4,0.3-0.9,0.6-1.5,0.7c-0.6,0.2-1.2,0.2-2,0.2h-2.1v5.1H185.5z M187.1,151.5h1.9c1.1,0,2-0.2,2.5-0.6
		c0.5-0.4,0.8-1.1,0.8-2c0-0.9-0.3-1.6-0.9-1.9c-0.6-0.4-1.4-0.5-2.6-0.5h-1.9V151.5z"/>
	<path d="M199.8,158.2c-0.6,0-1.2-0.1-1.7-0.3c-0.5-0.2-1-0.6-1.4-1c-0.4-0.4-0.7-1-1-1.6c-0.2-0.6-0.4-1.3-0.4-2.1
		c0-0.8,0.1-1.5,0.4-2.1c0.2-0.6,0.6-1.2,1-1.6s0.9-0.8,1.4-1c0.5-0.2,1.1-0.3,1.7-0.3s1.2,0.1,1.7,0.3c0.5,0.2,1,0.6,1.4,1
		c0.4,0.4,0.7,1,1,1.6s0.4,1.3,0.4,2.1c0,0.8-0.1,1.5-0.4,2.1s-0.6,1.2-1,1.6c-0.4,0.4-0.9,0.8-1.4,1
		C201,158.1,200.4,158.2,199.8,158.2z M199.8,156.9c0.4,0,0.8-0.1,1.1-0.3c0.3-0.2,0.6-0.4,0.9-0.8c0.2-0.3,0.4-0.7,0.6-1.2
		c0.1-0.4,0.2-1,0.2-1.5c0-0.6-0.1-1.1-0.2-1.5s-0.3-0.8-0.6-1.2c-0.2-0.3-0.5-0.6-0.9-0.8c-0.3-0.2-0.7-0.3-1.1-0.3
		c-0.4,0-0.8,0.1-1.1,0.3c-0.3,0.2-0.6,0.4-0.9,0.8c-0.2,0.3-0.4,0.7-0.6,1.2s-0.2,1-0.2,1.5c0,0.6,0.1,1.1,0.2,1.5
		c0.1,0.4,0.3,0.8,0.6,1.2s0.5,0.6,0.9,0.8C199,156.8,199.4,156.9,199.8,156.9z"/>
	<path d="M209.3,158.2c-0.7,0-1.3-0.1-2-0.4c-0.6-0.2-1.2-0.6-1.6-1l0.8-1.1c0.4,0.3,0.9,0.6,1.3,0.8c0.4,0.2,1,0.3,1.5,0.3
		c0.6,0,1.1-0.1,1.4-0.4s0.5-0.6,0.5-1.1c0-0.3-0.1-0.5-0.2-0.7c-0.1-0.2-0.3-0.3-0.5-0.5s-0.4-0.3-0.7-0.4
		c-0.3-0.1-0.5-0.2-0.8-0.3c-0.3-0.1-0.7-0.3-1-0.4c-0.3-0.2-0.6-0.3-0.9-0.6s-0.5-0.5-0.7-0.8c-0.2-0.3-0.3-0.6-0.3-1
		c0-0.4,0.1-0.7,0.2-1.1c0.2-0.3,0.4-0.6,0.7-0.9c0.3-0.2,0.6-0.4,1-0.6s0.9-0.2,1.4-0.2c0.6,0,1.2,0.1,1.7,0.3
		c0.5,0.2,0.9,0.5,1.3,0.8l-0.8,1c-0.3-0.3-0.7-0.5-1-0.6c-0.4-0.2-0.7-0.2-1.2-0.2c-0.6,0-1.1,0.1-1.3,0.4c-0.3,0.3-0.4,0.6-0.4,1
		c0,0.2,0.1,0.4,0.2,0.6c0.1,0.2,0.3,0.3,0.5,0.4c0.2,0.1,0.4,0.2,0.7,0.3c0.3,0.1,0.5,0.2,0.8,0.3c0.3,0.1,0.7,0.3,1,0.4
		c0.3,0.1,0.7,0.3,0.9,0.5c0.3,0.2,0.5,0.5,0.7,0.8c0.2,0.3,0.3,0.7,0.3,1.1c0,0.4-0.1,0.8-0.2,1.1c-0.2,0.3-0.4,0.6-0.7,0.9
		c-0.3,0.3-0.7,0.5-1.1,0.6C210.4,158.2,209.9,158.2,209.3,158.2z"/>
	<path d="M217.7,158.2c-0.5,0-0.9-0.1-1.3-0.2s-0.6-0.4-0.9-0.7s-0.4-0.6-0.5-1c-0.1-0.4-0.1-0.8-0.1-1.3v-5.3h-1.4v-1.2l1.5-0.1
		l0.2-2.7h1.4v2.7h2.6v1.3h-2.6v5.3c0,0.6,0.1,1.1,0.3,1.4s0.6,0.5,1.2,0.5c0.2,0,0.4,0,0.6-0.1s0.4-0.1,0.5-0.2l0.3,1.2
		c-0.3,0.1-0.6,0.2-0.9,0.2C218.3,158.2,218,158.2,217.7,158.2z"/>
</g>
<g>
	<path d="M188.5,214v-11.6h-3.9V201h9.5v1.4h-3.9V214H188.5z"/>
	<path d="M198.8,214.2c-0.6,0-1.3-0.1-1.8-0.3c-0.6-0.2-1-0.6-1.5-1s-0.7-1-1-1.6c-0.2-0.6-0.4-1.3-0.4-2.1s0.1-1.5,0.4-2.1
		c0.2-0.6,0.6-1.2,1-1.6c0.4-0.4,0.9-0.8,1.4-1c0.5-0.2,1-0.3,1.6-0.3c0.6,0,1.2,0.1,1.6,0.3c0.5,0.2,0.9,0.5,1.2,0.9
		c0.3,0.4,0.6,0.9,0.7,1.4c0.2,0.6,0.3,1.2,0.3,1.9c0,0.2,0,0.3,0,0.5c0,0.2,0,0.3,0,0.4h-6.5c0.1,1,0.4,1.8,1,2.4
		c0.6,0.6,1.3,0.9,2.2,0.9c0.5,0,0.9-0.1,1.3-0.2c0.4-0.1,0.8-0.3,1.1-0.5l0.6,1.1c-0.4,0.3-0.9,0.5-1.4,0.7
		S199.5,214.2,198.8,214.2z M195.8,208.4h5.1c0-1-0.2-1.7-0.6-2.2s-1-0.8-1.8-0.8c-0.3,0-0.7,0.1-1,0.2c-0.3,0.1-0.6,0.3-0.8,0.6
		c-0.3,0.3-0.5,0.6-0.6,0.9C196,207.5,195.8,207.9,195.8,208.4z"/>
	<path d="M206.5,214.2c-0.6,0-1.1-0.2-1.3-0.6c-0.3-0.4-0.4-0.9-0.4-1.6v-12.2h1.6v12.3c0,0.3,0,0.4,0.1,0.6s0.2,0.2,0.3,0.2
		c0.1,0,0.1,0,0.1,0c0,0,0.1,0,0.2,0l0.2,1.2c-0.1,0.1-0.2,0.1-0.4,0.1C206.9,214.2,206.7,214.2,206.5,214.2z"/>
	<path d="M213.7,214.2c-0.6,0-1.3-0.1-1.8-0.3c-0.6-0.2-1-0.6-1.5-1s-0.7-1-1-1.6c-0.2-0.6-0.4-1.3-0.4-2.1s0.1-1.5,0.4-2.1
		c0.2-0.6,0.6-1.2,1-1.6c0.4-0.4,0.9-0.8,1.4-1c0.5-0.2,1-0.3,1.6-0.3c0.6,0,1.2,0.1,1.6,0.3c0.5,0.2,0.9,0.5,1.2,0.9
		c0.3,0.4,0.6,0.9,0.7,1.4c0.2,0.6,0.3,1.2,0.3,1.9c0,0.2,0,0.3,0,0.5c0,0.2,0,0.3,0,0.4h-6.5c0.1,1,0.4,1.8,1,2.4
		c0.6,0.6,1.3,0.9,2.2,0.9c0.5,0,0.9-0.1,1.3-0.2c0.4-0.1,0.8-0.3,1.1-0.5l0.6,1.1c-0.4,0.3-0.9,0.5-1.4,0.7
		S214.3,214.2,213.7,214.2z M210.7,208.4h5.1c0-1-0.2-1.7-0.6-2.2s-1-0.8-1.8-0.8c-0.3,0-0.7,0.1-1,0.2c-0.3,0.1-0.6,0.3-0.8,0.6
		c-0.3,0.3-0.5,0.6-0.6,0.9C210.8,207.5,210.7,207.9,210.7,208.4z"/>
	<path d="M219.6,218.1v-13.7h1.3l0.1,1.1h0.1c0.4-0.4,0.9-0.7,1.4-1c0.5-0.3,1.1-0.4,1.6-0.4c0.6,0,1.2,0.1,1.6,0.3
		c0.5,0.2,0.9,0.6,1.2,1c0.3,0.4,0.6,0.9,0.7,1.5c0.2,0.6,0.2,1.3,0.2,2c0,0.8-0.1,1.5-0.3,2.2c-0.2,0.6-0.5,1.2-0.9,1.6
		c-0.4,0.4-0.8,0.8-1.3,1c-0.5,0.2-1,0.3-1.6,0.3c-0.4,0-0.9-0.1-1.3-0.3c-0.4-0.2-0.9-0.5-1.3-0.8l0,1.7v3.2H219.6z M223.6,212.9
		c0.4,0,0.8-0.1,1.1-0.3c0.3-0.2,0.6-0.4,0.9-0.8s0.4-0.7,0.6-1.2c0.1-0.5,0.2-1,0.2-1.6c0-0.5,0-1-0.1-1.4
		c-0.1-0.4-0.2-0.8-0.4-1.1c-0.2-0.3-0.5-0.6-0.8-0.7c-0.3-0.2-0.7-0.3-1.2-0.3c-0.4,0-0.8,0.1-1.2,0.3c-0.4,0.2-0.9,0.5-1.3,1v5
		c0.4,0.4,0.9,0.6,1.3,0.8C222.9,212.8,223.3,212.9,223.6,212.9z"/>
	<path d="M230.6,214v-14.1h1.6v3.8l-0.1,2c0.5-0.4,0.9-0.8,1.4-1.1c0.5-0.3,1.1-0.5,1.8-0.5c1,0,1.8,0.3,2.2,1
		c0.5,0.6,0.7,1.6,0.7,2.8v6.1h-1.6v-5.9c0-0.9-0.1-1.6-0.4-2c-0.3-0.4-0.8-0.6-1.4-0.6c-0.5,0-0.9,0.1-1.3,0.4
		c-0.4,0.3-0.8,0.6-1.3,1.1v7H230.6z"/>
	<path d="M245.1,214.2c-0.6,0-1.2-0.1-1.7-0.3c-0.5-0.2-1-0.6-1.4-1c-0.4-0.4-0.7-1-1-1.6c-0.2-0.6-0.4-1.3-0.4-2.1
		c0-0.8,0.1-1.5,0.4-2.1c0.2-0.6,0.6-1.2,1-1.6s0.9-0.8,1.4-1c0.5-0.2,1.1-0.3,1.7-0.3s1.2,0.1,1.7,0.3c0.5,0.2,1,0.6,1.4,1
		c0.4,0.4,0.7,1,1,1.6s0.4,1.3,0.4,2.1c0,0.8-0.1,1.5-0.4,2.1s-0.6,1.2-1,1.6c-0.4,0.4-0.9,0.8-1.4,1
		C246.3,214.1,245.7,214.2,245.1,214.2z M245.1,212.9c0.4,0,0.8-0.1,1.1-0.3c0.3-0.2,0.6-0.4,0.9-0.8c0.2-0.3,0.4-0.7,0.6-1.2
		c0.1-0.4,0.2-1,0.2-1.5c0-0.6-0.1-1.1-0.2-1.5s-0.3-0.8-0.6-1.2c-0.2-0.3-0.5-0.6-0.9-0.8c-0.3-0.2-0.7-0.3-1.1-0.3
		c-0.4,0-0.8,0.1-1.1,0.3c-0.3,0.2-0.6,0.4-0.9,0.8c-0.2,0.3-0.4,0.7-0.6,1.2s-0.2,1-0.2,1.5c0,0.6,0.1,1.1,0.2,1.5
		c0.1,0.4,0.3,0.8,0.6,1.2s0.5,0.6,0.9,0.8C244.3,212.8,244.7,212.9,245.1,212.9z"/>
	<path d="M252.1,214v-9.6h1.3l0.1,1.4h0.1c0.5-0.5,0.9-0.8,1.5-1.2c0.5-0.3,1.1-0.5,1.8-0.5c1,0,1.8,0.3,2.2,1
		c0.5,0.6,0.7,1.6,0.7,2.8v6.1h-1.6v-5.9c0-0.9-0.1-1.6-0.4-2c-0.3-0.4-0.8-0.6-1.4-0.6c-0.5,0-0.9,0.1-1.3,0.4
		c-0.4,0.3-0.8,0.6-1.3,1.1v7H252.1z"/>
	<path d="M266.8,214.2c-0.6,0-1.2-0.1-1.8-0.3c-0.6-0.2-1-0.6-1.5-1c-0.4-0.4-0.7-1-1-1.6s-0.4-1.3-0.4-2.1s0.1-1.5,0.4-2.1
		s0.6-1.2,1-1.6c0.4-0.4,0.9-0.8,1.4-1c0.5-0.2,1-0.3,1.6-0.3c0.6,0,1.2,0.1,1.6,0.3s0.9,0.5,1.2,0.9c0.3,0.4,0.6,0.9,0.7,1.4
		c0.2,0.6,0.3,1.2,0.3,1.9c0,0.2,0,0.3,0,0.5s0,0.3,0,0.4h-6.5c0.1,1,0.4,1.8,1,2.4s1.3,0.9,2.2,0.9c0.5,0,0.9-0.1,1.3-0.2
		c0.4-0.1,0.8-0.3,1.1-0.5l0.6,1.1c-0.4,0.3-0.9,0.5-1.4,0.7S267.5,214.2,266.8,214.2z M263.8,208.4h5.1c0-1-0.2-1.7-0.6-2.2
		c-0.4-0.5-1-0.8-1.8-0.8c-0.3,0-0.7,0.1-1,0.2c-0.3,0.1-0.6,0.3-0.8,0.6c-0.3,0.3-0.5,0.6-0.6,0.9S263.8,207.9,263.8,208.4z"/>
</g>
</svg>
