<svg id="Layer_1" data-name="Layer 1" xmlns="http://www.w3.org/2000/svg" viewBox="0 0 480 190"><defs><style>.cls-1{fill:#00916a;}.cls-2{fill:#f5f5f5;}.cls-3{fill:#005fc6;}.cls-4{fill:#fff;}</style></defs><rect class="cls-1" width="6" height="190"/><rect class="cls-2" x="6" width="475.25" height="190"/><path class="cls-1" d="M32.4,10.2A15.7,15.7,0,1,0,48.1,25.9,15.73,15.73,0,0,0,32.4,10.2ZM29.3,33.7l-7.8-7.8,2.2-2.2,5.6,5.6L41.1,17.4l2.2,2.2Z"/><g id="Group"><g id="checked"><path id="Shape" class="cls-3" d="M172,77.58H148.8a3.34,3.34,0,0,0-3.34,3.35v23.38a3.33,3.33,0,0,0,3.34,3.27h23.32a3.35,3.35,0,0,0,3.34-3.36V80.93A3.48,3.48,0,0,0,172,77.58Z"/></g><g id="check-icon"><path id="Path" class="cls-4" d="M158.92,100.78l13.2-13.14a1,1,0,0,0,0-1.59l-1.59-1.59a1,1,0,0,0-1.58,0L158.13,95.05l-5-5a1,1,0,0,0-1.58,0L150,91.7a1,1,0,0,0,0,1.58l7.47,7.5a1.18,1.18,0,0,0,1.5,0Z"/></g></g><path d="M191.51,99.07V86h1.66v6.58h.06L198.69,86h1.88l-4.1,5,4.74,8.12h-1.86l-3.92-6.82-2.26,2.66v4.16Z"/><path d="M206.73,99.31A4.85,4.85,0,0,1,204.9,99a4.5,4.5,0,0,1-1.48-1,4.41,4.41,0,0,1-1-1.59,5.75,5.75,0,0,1-.37-2.14,6,6,0,0,1,.37-2.15,5.26,5.26,0,0,1,1-1.61,4.24,4.24,0,0,1,1.39-1,4,4,0,0,1,1.63-.35,4.07,4.07,0,0,1,1.64.32,3.11,3.11,0,0,1,1.22.92,4.11,4.11,0,0,1,.75,1.44,6.15,6.15,0,0,1,.26,1.88c0,.17,0,.34,0,.51a1.75,1.75,0,0,1-.05.43h-6.56a3.82,3.82,0,0,0,1,2.47,3,3,0,0,0,2.28.91,3.78,3.78,0,0,0,1.28-.21,5.37,5.37,0,0,0,1.13-.55l.59,1.08a8.53,8.53,0,0,1-1.42.7A5,5,0,0,1,206.73,99.31Zm-3.06-5.88h5.2a3.47,3.47,0,0,0-.63-2.25,2.17,2.17,0,0,0-1.77-.77,2.61,2.61,0,0,0-1,.2,2.66,2.66,0,0,0-.85.59,3.42,3.42,0,0,0-.63,1A4.7,4.7,0,0,0,203.67,93.43Z"/><path d="M216.65,99.31a4.85,4.85,0,0,1-1.83-.35,4.5,4.5,0,0,1-1.48-1,4.57,4.57,0,0,1-1-1.59,6.49,6.49,0,0,1,0-4.29,5.26,5.26,0,0,1,1-1.61,4.24,4.24,0,0,1,1.39-1,4,4,0,0,1,1.62-.35,4.08,4.08,0,0,1,1.65.32,3.11,3.11,0,0,1,1.22.92,4.11,4.11,0,0,1,.75,1.44,6.15,6.15,0,0,1,.26,1.88c0,.17,0,.34,0,.51a1.75,1.75,0,0,1-.05.43h-6.56a3.82,3.82,0,0,0,1,2.47,3,3,0,0,0,2.27.91,3.79,3.79,0,0,0,1.29-.21,5.37,5.37,0,0,0,1.13-.55l.58,1.08a8.06,8.06,0,0,1-1.41.7A5,5,0,0,1,216.65,99.31Zm-3.06-5.88h5.2a3.47,3.47,0,0,0-.63-2.25,2.17,2.17,0,0,0-1.77-.77,2.61,2.61,0,0,0-1,.2,2.66,2.66,0,0,0-.85.59,3.42,3.42,0,0,0-.63,1A4.7,4.7,0,0,0,213.59,93.43Z"/><path d="M222.63,103.17V89.35H224l.14,1.12h.06a7.93,7.93,0,0,1,1.45-1,3.59,3.59,0,0,1,1.65-.4,3.79,3.79,0,0,1,1.66.35,3.22,3.22,0,0,1,1.2,1,4.5,4.5,0,0,1,.73,1.56,7.62,7.62,0,0,1,.25,2,6.58,6.58,0,0,1-.34,2.21,4.88,4.88,0,0,1-.92,1.65,3.81,3.81,0,0,1-2.94,1.38,3.3,3.3,0,0,1-1.35-.3,7.07,7.07,0,0,1-1.35-.82l0,1.7v3.28Zm4-5.24a2.34,2.34,0,0,0,1.11-.27,2.55,2.55,0,0,0,.88-.76,3.68,3.68,0,0,0,.58-1.21,5.78,5.78,0,0,0,.21-1.62,6.64,6.64,0,0,0-.14-1.46,3.11,3.11,0,0,0-.45-1.13,2.08,2.08,0,0,0-.8-.73,2.47,2.47,0,0,0-1.17-.26,2.59,2.59,0,0,0-1.25.34,7.31,7.31,0,0,0-1.35,1v5.1a4.41,4.41,0,0,0,1.28.79A3.33,3.33,0,0,0,226.65,97.93Z"/><path d="M237.73,99.07V89.35h1.36l.14,1.4h.06a6.6,6.6,0,0,1,1.39-1.17,3.06,3.06,0,0,1,1.63-.47,2.76,2.76,0,0,1,1.75.49A2.84,2.84,0,0,1,245,91a8.42,8.42,0,0,1,1.53-1.35,3,3,0,0,1,1.67-.51,2.61,2.61,0,0,1,2.23,1,4.63,4.63,0,0,1,.73,2.84v6.16h-1.64V93.13a3.43,3.43,0,0,0-.44-2,1.54,1.54,0,0,0-1.36-.61,3.63,3.63,0,0,0-2.44,1.5v7h-1.64V93.13a3.43,3.43,0,0,0-.44-2,1.57,1.57,0,0,0-1.38-.61,3.63,3.63,0,0,0-2.44,1.5v7Z"/><path d="M258.25,99.31a4.85,4.85,0,0,1-1.83-.35,4.4,4.4,0,0,1-1.48-1,4.57,4.57,0,0,1-1-1.59,6.49,6.49,0,0,1,0-4.29,5.26,5.26,0,0,1,1-1.61,4.24,4.24,0,0,1,1.39-1,4,4,0,0,1,1.62-.35,4.08,4.08,0,0,1,1.65.32,3.11,3.11,0,0,1,1.22.92,4.11,4.11,0,0,1,.75,1.44,6.15,6.15,0,0,1,.26,1.88c0,.17,0,.34,0,.51a1.75,1.75,0,0,1-.05.43h-6.56a3.82,3.82,0,0,0,1,2.47,3,3,0,0,0,2.27.91,3.79,3.79,0,0,0,1.29-.21,5.37,5.37,0,0,0,1.13-.55l.58,1.08A7.82,7.82,0,0,1,260,99,4.92,4.92,0,0,1,258.25,99.31Zm-3.06-5.88h5.2a3.47,3.47,0,0,0-.63-2.25,2.17,2.17,0,0,0-1.77-.77,2.61,2.61,0,0,0-1,.2,2.66,2.66,0,0,0-.85.59,3.42,3.42,0,0,0-.63,1A4.7,4.7,0,0,0,255.19,93.43Z"/><path d="M270.77,99.31a5.32,5.32,0,0,1-2-.38,6.16,6.16,0,0,1-1.64-1l.82-1.1a6.57,6.57,0,0,0,1.31.84,3.64,3.64,0,0,0,1.55.32,2.08,2.08,0,0,0,1.44-.44,1.4,1.4,0,0,0,.48-1.08,1.08,1.08,0,0,0-.2-.66,1.84,1.84,0,0,0-.51-.49,3.63,3.63,0,0,0-.71-.37l-.8-.32c-.34-.12-.69-.26-1-.41a4.34,4.34,0,0,1-.93-.56,3.07,3.07,0,0,1-.67-.77,2.08,2.08,0,0,1-.26-1.06,2.66,2.66,0,0,1,.23-1.09,2.72,2.72,0,0,1,.66-.88,3.13,3.13,0,0,1,1.05-.58,4.69,4.69,0,0,1,3.09.11,4.91,4.91,0,0,1,1.33.78l-.78,1a5.29,5.29,0,0,0-1-.62,2.86,2.86,0,0,0-1.18-.24,1.88,1.88,0,0,0-1.35.42,1.32,1.32,0,0,0-.43,1,1,1,0,0,0,.18.59,1.71,1.71,0,0,0,.48.44,3.7,3.7,0,0,0,.69.34l.81.31q.53.19,1.05.42a4,4,0,0,1,.95.55,2.7,2.7,0,0,1,.69.81,2.34,2.34,0,0,1,.27,1.16,2.66,2.66,0,0,1-.91,2,3.12,3.12,0,0,1-1.12.63A4.78,4.78,0,0,1,270.77,99.31Z"/><path d="M277.45,87.35a1.16,1.16,0,0,1-.81-.3,1.05,1.05,0,0,1,0-1.53,1.28,1.28,0,0,1,1.62,0,1.05,1.05,0,0,1,0,1.53A1.16,1.16,0,0,1,277.45,87.35Zm-.84,11.72V89.35h1.64v9.72Z"/><path d="M284.81,103.55a7.58,7.58,0,0,1-1.64-.17,3.93,3.93,0,0,1-1.27-.51,2.57,2.57,0,0,1-.82-.82,2.15,2.15,0,0,1-.29-1.12,2.09,2.09,0,0,1,.38-1.18,4.21,4.21,0,0,1,1-1v-.08a2,2,0,0,1-.61-.61,1.94,1.94,0,0,1,.09-2.05,3.06,3.06,0,0,1,.72-.72v-.08a4,4,0,0,1-.87-1.07,3,3,0,0,1-.39-1.55,3.53,3.53,0,0,1,.29-1.44,3.36,3.36,0,0,1,.79-1.09,3.62,3.62,0,0,1,1.17-.69,4.18,4.18,0,0,1,1.41-.24,3.54,3.54,0,0,1,.75.07,4.05,4.05,0,0,1,.63.17h3.38v1.26h-2a2.86,2.86,0,0,1,.8,2,3.38,3.38,0,0,1-.28,1.41,3,3,0,0,1-.76,1.06,3.36,3.36,0,0,1-1.13.67,3.94,3.94,0,0,1-1.39.24,3.25,3.25,0,0,1-.74-.09,3.61,3.61,0,0,1-.72-.25,2.54,2.54,0,0,0-.44.49,1.17,1.17,0,0,0-.18.67.94.94,0,0,0,.36.76,2.23,2.23,0,0,0,1.36.3h1.88a4.69,4.69,0,0,1,2.55.55,2,2,0,0,1,.85,1.77,2.59,2.59,0,0,1-.34,1.29,3.19,3.19,0,0,1-1,1.07,5,5,0,0,1-1.55.73A7.17,7.17,0,0,1,284.81,103.55Zm.24-1.14a4.54,4.54,0,0,0,1.27-.17,3.48,3.48,0,0,0,1-.44,2,2,0,0,0,.62-.63,1.38,1.38,0,0,0,.22-.74,1,1,0,0,0-.5-.94,3.29,3.29,0,0,0-1.46-.26h-1.68l-.61,0a2.88,2.88,0,0,1-.65-.13,2.7,2.7,0,0,0-.76.8,1.68,1.68,0,0,0-.24.84A1.4,1.4,0,0,0,283,102,3.92,3.92,0,0,0,285.05,102.41Zm-.24-7.52a1.92,1.92,0,0,0,.79-.16,2,2,0,0,0,1.11-1.19,2.7,2.7,0,0,0,.16-1,2.23,2.23,0,0,0-.6-1.67,2.1,2.1,0,0,0-2.92,0,2.23,2.23,0,0,0-.6,1.67,2.94,2.94,0,0,0,.16,1A2,2,0,0,0,284,94.73,1.92,1.92,0,0,0,284.81,94.89Z"/><path d="M291.61,99.07V89.35H293l.14,1.4h.06a7.86,7.86,0,0,1,1.47-1.17,3.41,3.41,0,0,1,1.79-.47,2.6,2.6,0,0,1,2.25,1,4.7,4.7,0,0,1,.71,2.84v6.16h-1.64V93.13a3.51,3.51,0,0,0-.44-2,1.6,1.6,0,0,0-1.4-.61,2.44,2.44,0,0,0-1.34.38A9.39,9.39,0,0,0,293.25,92v7Z"/><path d="M306.49,99.31a4.85,4.85,0,0,1-1.83-.35,4.4,4.4,0,0,1-1.48-1,4.57,4.57,0,0,1-1-1.59,6,6,0,0,1-.36-2.14,5.81,5.81,0,0,1,.37-2.15,5.07,5.07,0,0,1,1-1.61,4.24,4.24,0,0,1,1.39-1,4,4,0,0,1,1.62-.35,4.12,4.12,0,0,1,1.65.32,3.11,3.11,0,0,1,1.22.92,4.11,4.11,0,0,1,.75,1.44,6.15,6.15,0,0,1,.26,1.88c0,.17,0,.34,0,.51a1.75,1.75,0,0,1-.05.43h-6.56a3.82,3.82,0,0,0,1,2.47,3,3,0,0,0,2.27.91,3.79,3.79,0,0,0,1.29-.21,5.61,5.61,0,0,0,1.13-.55l.58,1.08a7.82,7.82,0,0,1-1.42.7A4.92,4.92,0,0,1,306.49,99.31Zm-3.06-5.88h5.2a3.47,3.47,0,0,0-.63-2.25,2.17,2.17,0,0,0-1.77-.77,2.57,2.57,0,0,0-1,.2,2.66,2.66,0,0,0-.85.59,3.42,3.42,0,0,0-.63,1A4.7,4.7,0,0,0,303.43,93.43Z"/><path d="M315.79,99.31A3.62,3.62,0,0,1,312.86,98a5.73,5.73,0,0,1-1.09-3.76,6.18,6.18,0,0,1,.35-2.13,5.16,5.16,0,0,1,.93-1.61,4.12,4.12,0,0,1,1.34-1,3.7,3.7,0,0,1,1.6-.36,3.31,3.31,0,0,1,1.46.3,6.57,6.57,0,0,1,1.26.82l-.08-1.66V84.83h1.66V99.07h-1.36l-.14-1.14h-.06a6,6,0,0,1-1.33,1A3.35,3.35,0,0,1,315.79,99.31Zm.36-1.38a2.62,2.62,0,0,0,1.28-.33,4.67,4.67,0,0,0,1.2-1V91.51a4.09,4.09,0,0,0-1.19-.79,3.17,3.17,0,0,0-1.17-.23,2.29,2.29,0,0,0-1.09.27,2.68,2.68,0,0,0-.89.76,4,4,0,0,0-.6,1.17,4.81,4.81,0,0,0-.22,1.52,4.63,4.63,0,0,0,.7,2.74A2.31,2.31,0,0,0,316.15,97.93Z"/><path d="M328.41,87.35a1.16,1.16,0,0,1-.81-.3,1.05,1.05,0,0,1,0-1.53,1.28,1.28,0,0,1,1.62,0,1.05,1.05,0,0,1,0,1.53A1.16,1.16,0,0,1,328.41,87.35Zm-.84,11.72V89.35h1.64v9.72Z"/><path d="M332.49,99.07V89.35h1.36l.14,1.4h.06a7.86,7.86,0,0,1,1.47-1.17,3.39,3.39,0,0,1,1.79-.47,2.6,2.6,0,0,1,2.25,1,4.78,4.78,0,0,1,.71,2.84v6.16h-1.64V93.13a3.51,3.51,0,0,0-.44-2,1.6,1.6,0,0,0-1.4-.61,2.42,2.42,0,0,0-1.34.38A8.38,8.38,0,0,0,334.13,92v7Z"/></svg>