<svg id="Layer_1" data-name="Layer 1" xmlns="http://www.w3.org/2000/svg" viewBox="0 0 480 240"><defs><style>.cls-1{fill:#00916a;}.cls-2{fill:#f5f5f5;}.cls-3{fill:#005fc6;}.cls-4{fill:#fff;}.cls-5{fill:#6e7272;}</style></defs><rect class="cls-1" width="6" height="240"/><rect class="cls-2" x="6" width="474" height="240"/><path class="cls-1" d="M32.4,10.2A15.7,15.7,0,1,0,48.1,25.9,15.73,15.73,0,0,0,32.4,10.2ZM29.3,33.7l-7.8-7.8,2.2-2.2,5.6,5.6L41.1,17.4l2.2,2.2Z"/><g id="Group"><g id="checked"><path id="Shape" class="cls-3" d="M152.72,77.58H129.49a3.34,3.34,0,0,0-3.34,3.35v23.38a3.33,3.33,0,0,0,3.34,3.27H152.8a3.35,3.35,0,0,0,3.35-3.36V80.93A3.49,3.49,0,0,0,152.72,77.58Z"/></g><g id="check-icon"><path id="Path" class="cls-4" d="M139.61,100.78,152.8,87.64a1,1,0,0,0,0-1.59l-1.58-1.59a1,1,0,0,0-1.58,0L138.81,95.05l-5-5a1,1,0,0,0-1.58,0l-1.59,1.68a1,1,0,0,0,0,1.58l7.48,7.5a1.18,1.18,0,0,0,1.5,0Z"/></g></g><path d="M130.75,55.16a6.25,6.25,0,0,1-4.6-1.95l1-1.15a5.54,5.54,0,0,0,1.65,1.19,4.68,4.68,0,0,0,2,.44,3.08,3.08,0,0,0,2-.59,1.9,1.9,0,0,0,.72-1.54,2,2,0,0,0-.17-.85,2,2,0,0,0-.46-.61,3.89,3.89,0,0,0-.69-.44l-.86-.43-1.88-.81c-.31-.14-.62-.3-.94-.48a3.84,3.84,0,0,1-.86-.69,3.08,3.08,0,0,1-.62-.94,3.16,3.16,0,0,1-.24-1.27,3,3,0,0,1,.31-1.38,3.33,3.33,0,0,1,.86-1.12,4.1,4.1,0,0,1,1.3-.73,5.1,5.1,0,0,1,1.65-.25,5.44,5.44,0,0,1,2.18.44,5.77,5.77,0,0,1,1.7,1.17l-.9,1.08a4.66,4.66,0,0,0-1.33-.9,3.83,3.83,0,0,0-1.65-.33,2.88,2.88,0,0,0-1.77.5,1.68,1.68,0,0,0-.67,1.42,1.62,1.62,0,0,0,.19.81,2,2,0,0,0,.51.58,4.39,4.39,0,0,0,.7.44c.25.12.51.24.78.35l1.86.8a9.59,9.59,0,0,1,1.06.54,3.82,3.82,0,0,1,.86.73,3.06,3.06,0,0,1,.57,1,3.52,3.52,0,0,1,.21,1.27,3.61,3.61,0,0,1-.31,1.46,3.54,3.54,0,0,1-.89,1.18,4.29,4.29,0,0,1-1.4.81A5.67,5.67,0,0,1,130.75,55.16Z"/><path d="M141.57,55.16a4.77,4.77,0,0,1-1.83-.35,4.45,4.45,0,0,1-1.48-1,4.71,4.71,0,0,1-1-1.6,6.49,6.49,0,0,1,0-4.29,4.89,4.89,0,0,1,1-1.61,4.25,4.25,0,0,1,1.39-1,3.81,3.81,0,0,1,1.62-.35,4.15,4.15,0,0,1,1.65.31,3.37,3.37,0,0,1,1.22.92,4.63,4.63,0,0,1,.75,1.45,6.37,6.37,0,0,1,.26,1.88c0,.17,0,.34,0,.5s0,.31,0,.44h-6.56a3.72,3.72,0,0,0,1,2.46,3,3,0,0,0,2.27.91,3.64,3.64,0,0,0,1.29-.21,6.16,6.16,0,0,0,1.13-.54l.58,1.08a8.14,8.14,0,0,1-1.42.69A4.75,4.75,0,0,1,141.57,55.16Zm-3.06-5.89h5.2a3.51,3.51,0,0,0-.63-2.25,2.17,2.17,0,0,0-1.77-.77,2.38,2.38,0,0,0-1,.21,2.57,2.57,0,0,0-.85.58,3.08,3.08,0,0,0-.63,1A4,4,0,0,0,138.51,49.27Z"/><path d="M149.29,55.16A1.53,1.53,0,0,1,148,54.6a2.82,2.82,0,0,1-.4-1.64V40.67h1.64V53.08a.84.84,0,0,0,.14.56.42.42,0,0,0,.32.15h.15a.8.8,0,0,0,.21,0l.22,1.25a1.89,1.89,0,0,1-.38.12A4.18,4.18,0,0,1,149.29,55.16Z"/><path d="M156.59,55.16a4.77,4.77,0,0,1-1.83-.35,4.6,4.6,0,0,1-1.49-1,4.54,4.54,0,0,1-1-1.6,6.49,6.49,0,0,1,0-4.29,5,5,0,0,1,1-1.61,4.39,4.39,0,0,1,1.4-1,3.81,3.81,0,0,1,1.62-.35,4.15,4.15,0,0,1,1.65.31,3.37,3.37,0,0,1,1.22.92,4.63,4.63,0,0,1,.75,1.45,6.37,6.37,0,0,1,.26,1.88c0,.17,0,.34,0,.5a2.6,2.6,0,0,1-.06.44h-6.55a3.72,3.72,0,0,0,1,2.46,3,3,0,0,0,2.27.91,3.64,3.64,0,0,0,1.29-.21,6.16,6.16,0,0,0,1.13-.54l.58,1.08a8.14,8.14,0,0,1-1.42.69A4.75,4.75,0,0,1,156.59,55.16Zm-3.07-5.89h5.21A3.51,3.51,0,0,0,158.1,47a2.17,2.17,0,0,0-1.77-.77,2.38,2.38,0,0,0-1,.21,2.57,2.57,0,0,0-.85.58,3.29,3.29,0,0,0-.64,1A4.63,4.63,0,0,0,153.52,49.27Z"/><path d="M166.41,55.16a4.78,4.78,0,0,1-1.81-.35,4,4,0,0,1-1.44-1,4.83,4.83,0,0,1-1-1.6,6.3,6.3,0,0,1-.34-2.15,5.64,5.64,0,0,1,.38-2.17,4.76,4.76,0,0,1,1-1.62,4.26,4.26,0,0,1,1.48-1,4.94,4.94,0,0,1,1.79-.33,3.76,3.76,0,0,1,1.65.33,5.74,5.74,0,0,1,1.2.81l-.85,1.07a3.66,3.66,0,0,0-.88-.61,2.32,2.32,0,0,0-1-.25,2.91,2.91,0,0,0-1.22.27,2.77,2.77,0,0,0-1,.77,4,4,0,0,0-.64,1.19,5,5,0,0,0-.22,1.54,4.85,4.85,0,0,0,.22,1.52,3.61,3.61,0,0,0,.61,1.17,2.75,2.75,0,0,0,2.17,1,2.64,2.64,0,0,0,1.25-.29,4.88,4.88,0,0,0,1-.69l.72,1.11a5.85,5.85,0,0,1-1.46.91A4.61,4.61,0,0,1,166.41,55.16Z"/><path d="M174.55,55.16a3.21,3.21,0,0,1-1.32-.24,2.27,2.27,0,0,1-.85-.67,2.42,2.42,0,0,1-.48-1,5.94,5.94,0,0,1-.13-1.31V46.54h-1.44V45.29l1.52-.1.2-2.71h1.38v2.71h2.62v1.35h-2.62v5.4a2.48,2.48,0,0,0,.33,1.39,1.31,1.31,0,0,0,1.17.48,1.83,1.83,0,0,0,.55-.08,4.34,4.34,0,0,0,.54-.17l.33,1.23a6.85,6.85,0,0,1-.87.25A3.83,3.83,0,0,1,174.55,55.16Z"/><path d="M182.24,54.92V45.19h1.36l.14,1.41h.07a6.65,6.65,0,0,1,1.38-1.18,3,3,0,0,1,1.63-.46,2.82,2.82,0,0,1,1.75.48,2.91,2.91,0,0,1,.94,1.37A8.43,8.43,0,0,1,191,45.46a3,3,0,0,1,1.67-.5,2.62,2.62,0,0,1,2.24,1,4.67,4.67,0,0,1,.72,2.83v6.17H194V49a3.56,3.56,0,0,0-.43-2,1.59,1.59,0,0,0-1.36-.6,3.62,3.62,0,0,0-2.45,1.5v7h-1.63V49a3.46,3.46,0,0,0-.45-2,1.59,1.59,0,0,0-1.38-.6,3.59,3.59,0,0,0-2.43,1.5v7Z"/><path d="M201.06,55.16a3,3,0,0,1-2-.72,2.59,2.59,0,0,1-.8-2,2.71,2.71,0,0,1,1.42-2.46,11.82,11.82,0,0,1,4.54-1.19,5.49,5.49,0,0,0-.09-.9,2.32,2.32,0,0,0-.32-.77,1.62,1.62,0,0,0-.6-.56,2.2,2.2,0,0,0-1-.21,3.9,3.9,0,0,0-1.59.33,8.2,8.2,0,0,0-1.32.71l-.63-1.14a10.21,10.21,0,0,1,1.66-.84,5.4,5.4,0,0,1,2.16-.41A3,3,0,0,1,205.05,46a4.86,4.86,0,0,1,.8,2.92v6h-1.37l-.13-1.17h-.07a8,8,0,0,1-1.5,1A3.73,3.73,0,0,1,201.06,55.16Zm.49-1.33a2.63,2.63,0,0,0,1.31-.33,6.35,6.35,0,0,0,1.33-1V49.83a18.26,18.26,0,0,0-2.05.38,5.86,5.86,0,0,0-1.34.52,2.08,2.08,0,0,0-.74.69,1.63,1.63,0,0,0-.24.85,1.42,1.42,0,0,0,.5,1.21A2.12,2.12,0,0,0,201.55,53.83Z"/><path d="M208.9,54.92V45.19h1.37L210.4,47h.07a4.21,4.21,0,0,1,1.21-1.46,2.6,2.6,0,0,1,2.59-.34l-.33,1.44a2.18,2.18,0,0,0-.43-.12,2.41,2.41,0,0,0-.5,0,2.11,2.11,0,0,0-1.29.5,3.9,3.9,0,0,0-1.17,1.73v6.25Z"/><path d="M215.84,54.92V40.67h1.62v9.64h.06l4.14-5.12h1.82l-3.26,3.91,3.7,5.82h-1.8l-2.84-4.69-1.82,2.12v2.57Z"/><path d="M229.32,55.16a4.85,4.85,0,0,1-1.83-.35,4.37,4.37,0,0,1-2.47-2.6,5.87,5.87,0,0,1-.36-2.13,6.07,6.07,0,0,1,.37-2.16,5.26,5.26,0,0,1,1-1.61,4.36,4.36,0,0,1,1.39-1A3.81,3.81,0,0,1,229,45a4.08,4.08,0,0,1,1.65.31,3.32,3.32,0,0,1,1.23.92,4.63,4.63,0,0,1,.75,1.45,6.39,6.39,0,0,1,.25,1.88V50a2.6,2.6,0,0,1-.06.44h-6.56a3.77,3.77,0,0,0,1,2.46,3,3,0,0,0,2.27.91,3.57,3.57,0,0,0,1.29-.21,5.86,5.86,0,0,0,1.13-.54l.58,1.08a7.8,7.8,0,0,1-1.42.69A4.71,4.71,0,0,1,229.32,55.16Zm-3.06-5.89h5.2a3.51,3.51,0,0,0-.63-2.25,2.17,2.17,0,0,0-1.77-.77,2.45,2.45,0,0,0-1,.21,2.64,2.64,0,0,0-.84.58,3.29,3.29,0,0,0-.64,1A4.63,4.63,0,0,0,226.26,49.27Z"/><path d="M238.16,55.16a3.19,3.19,0,0,1-1.31-.24,2.3,2.3,0,0,1-.86-.67,2.53,2.53,0,0,1-.47-1,5.91,5.91,0,0,1-.14-1.31V46.54h-1.44V45.29l1.52-.1.2-2.71H237v2.71h2.62v1.35H237v5.4a2.48,2.48,0,0,0,.33,1.39,1.32,1.32,0,0,0,1.17.48,1.89,1.89,0,0,0,.56-.08,5,5,0,0,0,.54-.17l.32,1.23a6,6,0,0,1-.87.25A3.71,3.71,0,0,1,238.16,55.16Z"/><path d="M242.71,43.19a1.14,1.14,0,0,1-.81-.29,1,1,0,0,1-.34-.76,1,1,0,0,1,.34-.77,1.14,1.14,0,0,1,.81-.29,1.17,1.17,0,0,1,.81.29,1,1,0,0,1,.33.77,1,1,0,0,1-.33.76A1.17,1.17,0,0,1,242.71,43.19Zm-.85,11.73V45.19h1.65v9.73Z"/><path d="M246.78,54.92V45.19h1.36l.14,1.41h.06a8.36,8.36,0,0,1,1.47-1.18A3.41,3.41,0,0,1,251.6,45a2.58,2.58,0,0,1,2.25,1,4.67,4.67,0,0,1,.71,2.83v6.17h-1.64V49a3.46,3.46,0,0,0-.44-2,1.62,1.62,0,0,0-1.4-.6,2.43,2.43,0,0,0-1.34.37,9.56,9.56,0,0,0-1.32,1.13v7Z"/><path d="M261,59.4a7.58,7.58,0,0,1-1.64-.17,4.18,4.18,0,0,1-1.27-.52,2.64,2.64,0,0,1-.82-.81,2.18,2.18,0,0,1-.29-1.13,2.06,2.06,0,0,1,.38-1.17,3.89,3.89,0,0,1,1-1V54.5a2,2,0,0,1-.61-.61,1.86,1.86,0,0,1-.25-1,1.83,1.83,0,0,1,.34-1.09,3.21,3.21,0,0,1,.72-.71V51a4,4,0,0,1-.87-1.08,3,3,0,0,1-.39-1.54,3.46,3.46,0,0,1,.29-1.44,3.36,3.36,0,0,1,.79-1.09,3.47,3.47,0,0,1,1.17-.7A4.43,4.43,0,0,1,261,45a4.38,4.38,0,0,1,.75.06,5.6,5.6,0,0,1,.63.17h3.38v1.27h-2a2.64,2.64,0,0,1,.57.85,2.72,2.72,0,0,1,.23,1.15,3.41,3.41,0,0,1-.28,1.41,2.9,2.9,0,0,1-.76,1.05,3.38,3.38,0,0,1-1.13.68,4.18,4.18,0,0,1-1.39.23,3.22,3.22,0,0,1-.74-.08,4.37,4.37,0,0,1-.72-.25,2.48,2.48,0,0,0-.44.48,1.23,1.23,0,0,0-.18.68,1,1,0,0,0,.36.76,2.24,2.24,0,0,0,1.36.29h1.88a4.68,4.68,0,0,1,2.55.56,1.93,1.93,0,0,1,.85,1.77,2.59,2.59,0,0,1-.34,1.29,3.29,3.29,0,0,1-1,1.07,5.18,5.18,0,0,1-1.55.72A6.82,6.82,0,0,1,261,59.4Zm.24-1.15a4.2,4.2,0,0,0,1.27-.17,3.34,3.34,0,0,0,1-.43,2.17,2.17,0,0,0,.62-.63,1.41,1.41,0,0,0,.22-.75,1,1,0,0,0-.5-.94,3.3,3.3,0,0,0-1.46-.25h-1.68c-.18,0-.39,0-.61,0a3.71,3.71,0,0,1-.65-.12,2.8,2.8,0,0,0-.76.79,1.72,1.72,0,0,0-.24.85,1.38,1.38,0,0,0,.75,1.23A3.92,3.92,0,0,0,261.24,58.25ZM261,50.73a2.06,2.06,0,0,0,.79-.15,2.18,2.18,0,0,0,.66-.46,2,2,0,0,0,.45-.73,2.74,2.74,0,0,0,.16-1,2.22,2.22,0,0,0-.6-1.67,2.1,2.1,0,0,0-2.92,0,2.22,2.22,0,0,0-.6,1.67,3,3,0,0,0,.16,1,2.25,2.25,0,0,0,.45.73,2.45,2.45,0,0,0,.66.46A2.09,2.09,0,0,0,261,50.73Z"/><path d="M271.8,59V45.19h1.36l.14,1.12h.06a7.93,7.93,0,0,1,1.45-1,3.7,3.7,0,0,1,1.65-.39,3.62,3.62,0,0,1,1.66.35,3.13,3.13,0,0,1,1.2,1,4.33,4.33,0,0,1,.73,1.56,7.57,7.57,0,0,1,.25,2.05,6.52,6.52,0,0,1-.34,2.2,4.88,4.88,0,0,1-.92,1.65,3.78,3.78,0,0,1-2.94,1.39,3.16,3.16,0,0,1-1.35-.31A7,7,0,0,1,273.4,54l0,1.69V59Zm4-5.25a2.23,2.23,0,0,0,1.11-.27,2.52,2.52,0,0,0,.88-.75,3.9,3.9,0,0,0,.59-1.21,6.19,6.19,0,0,0,.2-1.62,6.58,6.58,0,0,0-.14-1.46,3.11,3.11,0,0,0-.45-1.13,2,2,0,0,0-.8-.73,2.35,2.35,0,0,0-1.17-.27,2.7,2.7,0,0,0-1.25.34,7.41,7.41,0,0,0-1.35,1v5.09a4.2,4.2,0,0,0,1.28.79A3.09,3.09,0,0,0,275.82,53.77Z"/><path d="M282.9,54.92V45.19h1.36L284.4,47h.06a4.44,4.44,0,0,1,1.21-1.46,2.52,2.52,0,0,1,1.55-.54,2.44,2.44,0,0,1,1,.2l-.32,1.44a2.08,2.08,0,0,0-.44-.12,2.35,2.35,0,0,0-.5,0,2.15,2.15,0,0,0-1.29.5,4.07,4.07,0,0,0-1.17,1.73v6.25Z"/><path d="M293.58,55.16a4.85,4.85,0,0,1-1.83-.35,4.55,4.55,0,0,1-1.48-1,4.71,4.71,0,0,1-1-1.6,5.87,5.87,0,0,1-.36-2.13,6.07,6.07,0,0,1,.37-2.16,5.26,5.26,0,0,1,1-1.61,4.36,4.36,0,0,1,1.39-1,3.81,3.81,0,0,1,1.62-.35,4.08,4.08,0,0,1,1.65.31,3.21,3.21,0,0,1,1.22.92,4.25,4.25,0,0,1,.75,1.45,6.06,6.06,0,0,1,.26,1.88c0,.17,0,.34,0,.5a1.9,1.9,0,0,1,0,.44h-6.56a3.77,3.77,0,0,0,1,2.46,3,3,0,0,0,2.27.91,3.57,3.57,0,0,0,1.29-.21,5.86,5.86,0,0,0,1.13-.54l.58,1.08a7.8,7.8,0,0,1-1.42.69A4.71,4.71,0,0,1,293.58,55.16Zm-3.06-5.89h5.2a3.51,3.51,0,0,0-.63-2.25,2.17,2.17,0,0,0-1.77-.77,2.45,2.45,0,0,0-1,.21,2.8,2.8,0,0,0-.85.58,3.47,3.47,0,0,0-.63,1A4.63,4.63,0,0,0,290.52,49.27Z"/><path d="M299.84,54.92V46.54h-1.32V45.29l1.32-.1V43.66a3.71,3.71,0,0,1,.69-2.37,2.6,2.6,0,0,1,2.15-.85,4,4,0,0,1,.87.08,4.43,4.43,0,0,1,.75.23L303.94,42a2.52,2.52,0,0,0-1.1-.25c-.9,0-1.36.63-1.36,1.89v1.53h2.06v1.35h-2.06v8.38Z"/><path d="M309.14,55.16a4.85,4.85,0,0,1-1.83-.35,4.55,4.55,0,0,1-1.48-1,4.71,4.71,0,0,1-1-1.6,5.87,5.87,0,0,1-.36-2.13,6.07,6.07,0,0,1,.37-2.16,5.26,5.26,0,0,1,1-1.61,4.36,4.36,0,0,1,1.39-1,3.81,3.81,0,0,1,1.62-.35,4.08,4.08,0,0,1,1.65.31,3.21,3.21,0,0,1,1.22.92,4.25,4.25,0,0,1,.75,1.45,6.06,6.06,0,0,1,.26,1.88c0,.17,0,.34,0,.5a1.9,1.9,0,0,1,0,.44H306.1a3.77,3.77,0,0,0,1,2.46,3,3,0,0,0,2.27.91,3.57,3.57,0,0,0,1.29-.21,5.86,5.86,0,0,0,1.13-.54l.58,1.08a7.8,7.8,0,0,1-1.42.69A4.71,4.71,0,0,1,309.14,55.16Zm-3.06-5.89h5.2a3.51,3.51,0,0,0-.63-2.25,2.17,2.17,0,0,0-1.77-.77,2.45,2.45,0,0,0-1,.21A2.8,2.8,0,0,0,307,47a3.47,3.47,0,0,0-.63,1A4.63,4.63,0,0,0,306.08,49.27Z"/><path d="M315.12,54.92V45.19h1.36l.14,1.77h.06a4.44,4.44,0,0,1,1.21-1.46,2.52,2.52,0,0,1,1.55-.54,2.44,2.44,0,0,1,1,.2l-.32,1.44a2.08,2.08,0,0,0-.44-.12,2.35,2.35,0,0,0-.5,0,2.15,2.15,0,0,0-1.29.5,4.07,4.07,0,0,0-1.17,1.73v6.25Z"/><path d="M325.8,55.16a4.85,4.85,0,0,1-1.83-.35,4.55,4.55,0,0,1-1.48-1,4.71,4.71,0,0,1-1-1.6,5.87,5.87,0,0,1-.36-2.13,6.07,6.07,0,0,1,.37-2.16,5.26,5.26,0,0,1,1-1.61,4.36,4.36,0,0,1,1.39-1A3.81,3.81,0,0,1,325.5,45a4.08,4.08,0,0,1,1.65.31,3.21,3.21,0,0,1,1.22.92,4.25,4.25,0,0,1,.75,1.45,6.06,6.06,0,0,1,.26,1.88c0,.17,0,.34,0,.5a1.9,1.9,0,0,1-.05.44h-6.56a3.77,3.77,0,0,0,1,2.46,3,3,0,0,0,2.27.91,3.57,3.57,0,0,0,1.29-.21,5.86,5.86,0,0,0,1.13-.54l.58,1.08a7.8,7.8,0,0,1-1.42.69A4.71,4.71,0,0,1,325.8,55.16Zm-3.06-5.89h5.2a3.51,3.51,0,0,0-.63-2.25,2.17,2.17,0,0,0-1.77-.77,2.45,2.45,0,0,0-1,.21,2.8,2.8,0,0,0-.85.58,3.47,3.47,0,0,0-.63,1A4.63,4.63,0,0,0,322.74,49.27Z"/><path d="M331.78,54.92V45.19h1.36l.14,1.41h.06a8.36,8.36,0,0,1,1.47-1.18A3.41,3.41,0,0,1,336.6,45a2.58,2.58,0,0,1,2.25,1,4.67,4.67,0,0,1,.71,2.83v6.17h-1.64V49a3.46,3.46,0,0,0-.44-2,1.62,1.62,0,0,0-1.4-.6,2.43,2.43,0,0,0-1.34.37,9.56,9.56,0,0,0-1.32,1.13v7Z"/><path d="M346.56,55.16a4.69,4.69,0,0,1-1.8-.35,4,4,0,0,1-1.45-1,5,5,0,0,1-1-1.6,6.3,6.3,0,0,1-.35-2.15,5.84,5.84,0,0,1,.38-2.17,5.09,5.09,0,0,1,1-1.62,4.4,4.4,0,0,1,1.49-1,4.94,4.94,0,0,1,1.79-.33,3.72,3.72,0,0,1,1.64.33,5.26,5.26,0,0,1,1.2.81l-.84,1.07a3.71,3.71,0,0,0-.89-.61,2.26,2.26,0,0,0-1.05-.25,2.94,2.94,0,0,0-1.22.27,3,3,0,0,0-1,.77,4.2,4.2,0,0,0-.63,1.19,5,5,0,0,0-.23,1.54,5.16,5.16,0,0,0,.22,1.52,3.82,3.82,0,0,0,.61,1.17,2.75,2.75,0,0,0,2.17,1A2.62,2.62,0,0,0,348,53.5a4.64,4.64,0,0,0,1-.69l.72,1.11a5.51,5.51,0,0,1-1.46.91A4.53,4.53,0,0,1,346.56,55.16Z"/><path d="M355.36,55.16a4.85,4.85,0,0,1-1.83-.35,4.55,4.55,0,0,1-1.48-1,4.71,4.71,0,0,1-1-1.6,5.87,5.87,0,0,1-.36-2.13,6.07,6.07,0,0,1,.37-2.16,5.26,5.26,0,0,1,1-1.61,4.36,4.36,0,0,1,1.39-1,3.81,3.81,0,0,1,1.62-.35,4.08,4.08,0,0,1,1.65.31,3.21,3.21,0,0,1,1.22.92,4.25,4.25,0,0,1,.75,1.45,6.06,6.06,0,0,1,.26,1.88c0,.17,0,.34,0,.5a1.9,1.9,0,0,1-.05.44h-6.56a3.77,3.77,0,0,0,1,2.46,3,3,0,0,0,2.27.91,3.57,3.57,0,0,0,1.29-.21,5.86,5.86,0,0,0,1.13-.54l.58,1.08a7.8,7.8,0,0,1-1.42.69A4.71,4.71,0,0,1,355.36,55.16Zm-3.06-5.89h5.2a3.51,3.51,0,0,0-.63-2.25,2.17,2.17,0,0,0-1.77-.77,2.45,2.45,0,0,0-1,.21,2.8,2.8,0,0,0-.85.58,3.47,3.47,0,0,0-.63,1A4.63,4.63,0,0,0,352.3,49.27Z"/><path d="M363.88,55.16a5.14,5.14,0,0,1-2-.39,6.16,6.16,0,0,1-1.64-1l.82-1.1a7.11,7.11,0,0,0,1.31.85,3.64,3.64,0,0,0,1.55.32,2.08,2.08,0,0,0,1.44-.44,1.43,1.43,0,0,0,.48-1.09,1.08,1.08,0,0,0-.2-.66,2,2,0,0,0-.51-.48,3.17,3.17,0,0,0-.71-.38l-.8-.31c-.34-.12-.69-.26-1-.42a4,4,0,0,1-.93-.56,2.76,2.76,0,0,1-.67-.77,2.06,2.06,0,0,1-.26-1.06,2.52,2.52,0,0,1,.89-2,3.13,3.13,0,0,1,1.05-.58,4.12,4.12,0,0,1,1.4-.21,4.39,4.39,0,0,1,1.69.31,5.2,5.2,0,0,1,1.33.79l-.78,1a4.84,4.84,0,0,0-1-.62,2.71,2.71,0,0,0-1.18-.25,1.88,1.88,0,0,0-1.35.43,1.34,1.34,0,0,0-.43,1,1,1,0,0,0,.18.59,1.87,1.87,0,0,0,.48.44,3.69,3.69,0,0,0,.69.33l.81.31,1,.42a3.72,3.72,0,0,1,1,.56,2.48,2.48,0,0,1,.69.81,2.3,2.3,0,0,1,.27,1.15,2.66,2.66,0,0,1-.23,1.13,2.59,2.59,0,0,1-.68.91,3.12,3.12,0,0,1-1.12.63A4.47,4.47,0,0,1,363.88,55.16Z"/><path d="M173.2,99.07V86h7.56v1.4h-5.9v4.12h5v1.42h-5v4.76H181v1.42Z"/><path d="M183.58,99.07V89.35h1.36l.14,1.4h.06a6.6,6.6,0,0,1,1.39-1.17,3,3,0,0,1,1.63-.47,2.76,2.76,0,0,1,1.75.49,2.84,2.84,0,0,1,.93,1.37,8.42,8.42,0,0,1,1.53-1.35,3,3,0,0,1,1.67-.51,2.63,2.63,0,0,1,2.23,1,4.63,4.63,0,0,1,.73,2.84v6.16h-1.64V93.13a3.51,3.51,0,0,0-.44-2,1.56,1.56,0,0,0-1.36-.61,3.61,3.61,0,0,0-2.44,1.5v7h-1.64V93.13a3.51,3.51,0,0,0-.44-2,1.57,1.57,0,0,0-1.38-.61,3.61,3.61,0,0,0-2.44,1.5v7Z"/><path d="M202.4,99.31a3,3,0,0,1-2-.72,2.59,2.59,0,0,1-.81-2A2.69,2.69,0,0,1,201,94.1a11.74,11.74,0,0,1,4.54-1.19,4.43,4.43,0,0,0-.09-.9,2.24,2.24,0,0,0-.31-.78,1.63,1.63,0,0,0-.61-.55,2.07,2.07,0,0,0-1-.21,4,4,0,0,0-1.58.32,7.51,7.51,0,0,0-1.32.72L200,90.37a10.61,10.61,0,0,1,1.66-.85,5.58,5.58,0,0,1,2.16-.41,3,3,0,0,1,2.58,1.09,4.85,4.85,0,0,1,.8,2.91v6h-1.36l-.14-1.16h-.06a8.11,8.11,0,0,1-1.5,1A3.76,3.76,0,0,1,202.4,99.31Zm.48-1.32a2.75,2.75,0,0,0,1.32-.33,6.67,6.67,0,0,0,1.32-1V94a16.59,16.59,0,0,0-2.05.38,5.59,5.59,0,0,0-1.34.52,2,2,0,0,0-.74.69,1.67,1.67,0,0,0-.23.85,1.39,1.39,0,0,0,.5,1.2A2,2,0,0,0,202.88,98Z"/><path d="M211.08,87.35a1.16,1.16,0,0,1-.81-.3,1.05,1.05,0,0,1,0-1.53,1.28,1.28,0,0,1,1.62,0,1.05,1.05,0,0,1,0,1.53A1.16,1.16,0,0,1,211.08,87.35Zm-.84,11.72V89.35h1.64v9.72Z"/><path d="M216.9,99.31a1.54,1.54,0,0,1-1.34-.56,2.78,2.78,0,0,1-.4-1.64V84.83h1.64v12.4a.88.88,0,0,0,.14.56.4.4,0,0,0,.32.16h.15a.68.68,0,0,0,.21,0l.22,1.24a1.7,1.7,0,0,1-.38.12A2.92,2.92,0,0,1,216.9,99.31Z"/><g id="Group-2" data-name="Group"><g id="checked-2" data-name="checked"><path id="Shape-2" data-name="Shape" class="cls-3" d="M152.72,122.42H129.49a3.34,3.34,0,0,0-3.34,3.35v23.38a3.33,3.33,0,0,0,3.34,3.27H152.8a3.35,3.35,0,0,0,3.35-3.35v-23.3A3.49,3.49,0,0,0,152.72,122.42Z"/></g><g id="check-icon-2" data-name="check-icon"><path id="Path-2" data-name="Path" class="cls-4" d="M139.61,145.62l13.19-13.14a1,1,0,0,0,0-1.59l-1.58-1.59a1,1,0,0,0-1.58,0l-10.83,10.59-5-5a1,1,0,0,0-1.58,0l-1.59,1.68a1,1,0,0,0,0,1.58l7.48,7.5a1.18,1.18,0,0,0,1.5,0Z"/></g></g><path d="M173.2,144.11V131h3.74a9.64,9.64,0,0,1,2,.2,4.37,4.37,0,0,1,1.55.65,3.06,3.06,0,0,1,1,1.19,4.16,4.16,0,0,1,.36,1.82,4.28,4.28,0,0,1-.35,1.8,3.24,3.24,0,0,1-1,1.26,4.21,4.21,0,0,1-1.53.75,7.13,7.13,0,0,1-2,.25h-2.16v5.2Zm1.66-6.56h2a4.06,4.06,0,0,0,2.55-.65,2.44,2.44,0,0,0,.83-2.05,2.16,2.16,0,0,0-.87-2,5,5,0,0,0-2.59-.55h-1.88Z"/><path d="M187.66,144.35A4.31,4.31,0,0,1,186,144a4,4,0,0,1-1.43-1,4.83,4.83,0,0,1-1-1.6,5.81,5.81,0,0,1-.37-2.15,5.91,5.91,0,0,1,.37-2.17,5.09,5.09,0,0,1,1-1.61,4.16,4.16,0,0,1,1.43-1,4.47,4.47,0,0,1,3.42,0,4.16,4.16,0,0,1,1.43,1,5.09,5.09,0,0,1,1,1.61,5.91,5.91,0,0,1,.37,2.17,5.81,5.81,0,0,1-.37,2.15,4.83,4.83,0,0,1-1,1.6,4,4,0,0,1-1.43,1A4.31,4.31,0,0,1,187.66,144.35Zm0-1.36a2.46,2.46,0,0,0,1.14-.27,2.58,2.58,0,0,0,.89-.76,3.36,3.36,0,0,0,.57-1.17,5.49,5.49,0,0,0,.2-1.52,5.61,5.61,0,0,0-.2-1.53,3.65,3.65,0,0,0-.57-1.19,2.61,2.61,0,0,0-.89-.77,2.54,2.54,0,0,0-2.28,0,2.61,2.61,0,0,0-.89.77,3.65,3.65,0,0,0-.57,1.19,5.61,5.61,0,0,0-.2,1.53,5.49,5.49,0,0,0,.2,1.52,3.36,3.36,0,0,0,.57,1.17,2.58,2.58,0,0,0,.89.76A2.46,2.46,0,0,0,187.66,143Z"/><path d="M197.26,144.35a5.13,5.13,0,0,1-2-.38,6,6,0,0,1-1.64-1l.82-1.1a6.29,6.29,0,0,0,1.31.84,3.46,3.46,0,0,0,1.55.32,2,2,0,0,0,1.44-.44,1.4,1.4,0,0,0,.48-1.08,1.14,1.14,0,0,0-.2-.66,2,2,0,0,0-.51-.49,3.94,3.94,0,0,0-.71-.37l-.8-.32c-.35-.12-.69-.25-1-.41a3.9,3.9,0,0,1-.93-.56,2.74,2.74,0,0,1-.67-.77,2.06,2.06,0,0,1-.26-1.06,2.7,2.7,0,0,1,.23-1.09,2.46,2.46,0,0,1,.66-.88,3.32,3.32,0,0,1,1.05-.58,4.34,4.34,0,0,1,1.4-.21,4.42,4.42,0,0,1,1.69.32,5.68,5.68,0,0,1,1.33.78l-.78,1a5.29,5.29,0,0,0-1-.62,2.86,2.86,0,0,0-1.18-.24,1.88,1.88,0,0,0-1.35.42,1.32,1.32,0,0,0-.43,1,1,1,0,0,0,.18.59,1.57,1.57,0,0,0,.48.44,3.7,3.7,0,0,0,.69.34l.81.31,1,.42a4.22,4.22,0,0,1,1,.55,2.7,2.7,0,0,1,.69.81,2.34,2.34,0,0,1,.27,1.16,2.77,2.77,0,0,1-.23,1.12,2.54,2.54,0,0,1-.68.92,3.12,3.12,0,0,1-1.12.63A4.56,4.56,0,0,1,197.26,144.35Z"/><path d="M205.76,144.35a3.16,3.16,0,0,1-1.31-.24,2.28,2.28,0,0,1-.86-.66,2.53,2.53,0,0,1-.47-1,6,6,0,0,1-.14-1.32v-5.38h-1.44v-1.24l1.52-.1.2-2.72h1.38v2.72h2.62v1.34h-2.62v5.4a2.46,2.46,0,0,0,.33,1.39,1.3,1.3,0,0,0,1.17.49,1.94,1.94,0,0,0,.56-.08,3.42,3.42,0,0,0,.54-.18l.32,1.24a6.85,6.85,0,0,1-.87.25A3.69,3.69,0,0,1,205.76,144.35Z"/><path d="M175.92,187.75V176h-4v-1.4h9.6V176h-4v11.72Z"/><path d="M186.38,188a4.66,4.66,0,0,1-1.83-.35,4.17,4.17,0,0,1-1.48-1,4.57,4.57,0,0,1-1-1.59,5.93,5.93,0,0,1-.36-2.14,5.84,5.84,0,0,1,.37-2.15,5.07,5.07,0,0,1,1-1.61,4.39,4.39,0,0,1,1.39-1,4,4,0,0,1,1.62-.35,4.15,4.15,0,0,1,1.65.32A3.29,3.29,0,0,1,189,179a4.11,4.11,0,0,1,.75,1.44,6.47,6.47,0,0,1,.26,1.88c0,.18,0,.35,0,.51a2.42,2.42,0,0,1,0,.43h-6.56a3.8,3.8,0,0,0,1,2.47,3,3,0,0,0,2.27.91,3.79,3.79,0,0,0,1.29-.21,5.61,5.61,0,0,0,1.13-.55l.58,1.08a8.16,8.16,0,0,1-1.42.7A4.92,4.92,0,0,1,186.38,188Zm-3.06-5.88h5.2a3.51,3.51,0,0,0-.63-2.25,2.17,2.17,0,0,0-1.77-.77,2.54,2.54,0,0,0-1,.2,2.71,2.71,0,0,0-.85.59,3.42,3.42,0,0,0-.63,1A4.15,4.15,0,0,0,183.32,182.11Z"/><path d="M194.1,188a1.52,1.52,0,0,1-1.34-.56,2.78,2.78,0,0,1-.4-1.64V173.51H194v12.4a.86.86,0,0,0,.14.56.4.4,0,0,0,.32.16h.15a.68.68,0,0,0,.21,0l.22,1.24a1.06,1.06,0,0,1-.38.12A2.92,2.92,0,0,1,194.1,188Z"/><path d="M201.4,188a4.66,4.66,0,0,1-1.83-.35,4.17,4.17,0,0,1-1.48-1,4.57,4.57,0,0,1-1-1.59,5.93,5.93,0,0,1-.36-2.14,5.84,5.84,0,0,1,.37-2.15,5.07,5.07,0,0,1,1-1.61,4.39,4.39,0,0,1,1.39-1,4,4,0,0,1,1.62-.35,4.15,4.15,0,0,1,1.65.32A3.29,3.29,0,0,1,204,179a4.11,4.11,0,0,1,.75,1.44,6.47,6.47,0,0,1,.26,1.88c0,.18,0,.35,0,.51a2.42,2.42,0,0,1-.05.43h-6.56a3.8,3.8,0,0,0,1,2.47,3,3,0,0,0,2.27.91,3.79,3.79,0,0,0,1.29-.21,5.61,5.61,0,0,0,1.13-.55l.58,1.08a8.16,8.16,0,0,1-1.42.7A4.92,4.92,0,0,1,201.4,188Zm-3.06-5.88h5.2a3.51,3.51,0,0,0-.63-2.25,2.17,2.17,0,0,0-1.77-.77,2.54,2.54,0,0,0-1,.2,2.71,2.71,0,0,0-.85.59,3.42,3.42,0,0,0-.63,1A4.15,4.15,0,0,0,198.34,182.11Z"/><path d="M207.38,191.85V178h1.36l.14,1.12h.06a7.6,7.6,0,0,1,1.45-1,3.71,3.71,0,0,1,1.65-.4,3.79,3.79,0,0,1,1.66.35,3.32,3.32,0,0,1,1.2,1,4.89,4.89,0,0,1,.73,1.56,7.62,7.62,0,0,1,.25,2.05,6.54,6.54,0,0,1-.34,2.21,5.05,5.05,0,0,1-.92,1.65,3.77,3.77,0,0,1-1.34,1,3.69,3.69,0,0,1-1.6.35,3.3,3.3,0,0,1-1.35-.3,6.5,6.5,0,0,1-1.35-.82l0,1.7v3.28Zm4-5.24a2.34,2.34,0,0,0,1.11-.27,2.65,2.65,0,0,0,.88-.76,3.59,3.59,0,0,0,.58-1.21,5.78,5.78,0,0,0,.21-1.62,7.31,7.31,0,0,0-.14-1.46,3.19,3.19,0,0,0-.45-1.13,2.24,2.24,0,0,0-.8-.73,2.52,2.52,0,0,0-1.17-.26,2.7,2.7,0,0,0-1.25.34,7.81,7.81,0,0,0-1.35,1v5.1a4.2,4.2,0,0,0,1.28.79A3.05,3.05,0,0,0,211.4,186.61Z"/><path d="M218.48,187.75V173.51h1.64v3.88l-.06,2a9.54,9.54,0,0,1,1.46-1.13,3.35,3.35,0,0,1,1.78-.47,2.6,2.6,0,0,1,2.25,1,4.78,4.78,0,0,1,.71,2.84v6.16h-1.64v-5.94a3.51,3.51,0,0,0-.44-2,1.62,1.62,0,0,0-1.4-.61,2.42,2.42,0,0,0-1.34.38,9,9,0,0,0-1.32,1.12v7Z"/><path d="M233.14,188a4.31,4.31,0,0,1-1.71-.34,4,4,0,0,1-1.43-1,4.83,4.83,0,0,1-1-1.6,5.81,5.81,0,0,1-.37-2.15,5.91,5.91,0,0,1,.37-2.17,5.09,5.09,0,0,1,1-1.61,4.16,4.16,0,0,1,1.43-1,4.47,4.47,0,0,1,3.42,0,4.16,4.16,0,0,1,1.43,1,5.09,5.09,0,0,1,1,1.61,5.91,5.91,0,0,1,.37,2.17,5.81,5.81,0,0,1-.37,2.15,4.83,4.83,0,0,1-1,1.6,4,4,0,0,1-1.43,1A4.31,4.31,0,0,1,233.14,188Zm0-1.36a2.46,2.46,0,0,0,1.14-.27,2.58,2.58,0,0,0,.89-.76,3.36,3.36,0,0,0,.57-1.17,5.49,5.49,0,0,0,.2-1.52,5.61,5.61,0,0,0-.2-1.53,3.65,3.65,0,0,0-.57-1.19,2.61,2.61,0,0,0-.89-.77,2.54,2.54,0,0,0-2.28,0,2.61,2.61,0,0,0-.89.77,3.65,3.65,0,0,0-.57,1.19,5.61,5.61,0,0,0-.2,1.53,5.49,5.49,0,0,0,.2,1.52,3.36,3.36,0,0,0,.57,1.17,2.58,2.58,0,0,0,.89.76A2.46,2.46,0,0,0,233.14,186.63Z"/><path d="M240.2,187.75V178h1.36l.14,1.4h.06a8.77,8.77,0,0,1,1.47-1.17,3.39,3.39,0,0,1,1.79-.47,2.6,2.6,0,0,1,2.25,1,4.78,4.78,0,0,1,.71,2.84v6.16h-1.64v-5.94a3.51,3.51,0,0,0-.44-2,1.62,1.62,0,0,0-1.4-.61,2.42,2.42,0,0,0-1.34.38,9,9,0,0,0-1.32,1.12v7Z"/><path d="M255.08,188a4.66,4.66,0,0,1-1.83-.35,4.17,4.17,0,0,1-1.48-1,4.57,4.57,0,0,1-1-1.59,5.93,5.93,0,0,1-.36-2.14,5.84,5.84,0,0,1,.37-2.15,5.07,5.07,0,0,1,1-1.61,4.39,4.39,0,0,1,1.39-1,4,4,0,0,1,1.62-.35,4.15,4.15,0,0,1,1.65.32,3.29,3.29,0,0,1,1.22.92,4.11,4.11,0,0,1,.75,1.44,6.47,6.47,0,0,1,.26,1.88c0,.18,0,.35,0,.51a2.42,2.42,0,0,1,0,.43H252a3.8,3.8,0,0,0,1,2.47,3,3,0,0,0,2.27.91,3.79,3.79,0,0,0,1.29-.21,5.61,5.61,0,0,0,1.13-.55l.58,1.08a8.16,8.16,0,0,1-1.42.7A4.92,4.92,0,0,1,255.08,188ZM252,182.11h5.2a3.51,3.51,0,0,0-.63-2.25,2.17,2.17,0,0,0-1.77-.77,2.54,2.54,0,0,0-1,.2,2.71,2.71,0,0,0-.85.59,3.42,3.42,0,0,0-.63,1A4.15,4.15,0,0,0,252,182.11Z"/><g id="Rectangle"><rect class="cls-4" x="126.66" y="167.76" width="29" height="29" rx="2.85"/><path class="cls-5" d="M152.8,168.26a2.42,2.42,0,0,1,2.36,2.35v23.3a2.42,2.42,0,0,1-2.36,2.35H129.51a2.41,2.41,0,0,1-2.35-2.35v-23.3a2.41,2.41,0,0,1,2.35-2.35H152.8m0-1H129.51a3.4,3.4,0,0,0-3.35,3.35v23.3a3.4,3.4,0,0,0,3.35,3.35H152.8a3.4,3.4,0,0,0,3.36-3.35v-23.3a3.4,3.4,0,0,0-3.36-3.35Z"/></g></svg>