<svg id="Layer_1" data-name="Layer 1" xmlns="http://www.w3.org/2000/svg" viewBox="0 0 480 190"><defs><style>.cls-1{fill:#00916a;}.cls-2{fill:#f5f5f5;}.cls-3{fill:#005fc6;}.cls-4{fill:#fff;}</style></defs><rect class="cls-1" width="6" height="190"/><rect class="cls-2" x="6" width="475.25" height="190"/><path class="cls-1" d="M32.4,10.2A15.7,15.7,0,1,0,48.1,25.9,15.73,15.73,0,0,0,32.4,10.2ZM29.3,33.7l-7.8-7.8,2.2-2.2,5.6,5.6L41.1,17.4l2.2,2.2Z"/><g id="Group"><g id="checked"><path id="Shape" class="cls-3" d="M123.26,77.58H100a3.35,3.35,0,0,0-3.34,3.35v23.38a3.33,3.33,0,0,0,3.34,3.27h23.32a3.35,3.35,0,0,0,3.34-3.36V80.93A3.48,3.48,0,0,0,123.26,77.58Z"/></g><g id="check-icon"><path id="Path" class="cls-4" d="M110.15,100.78l13.2-13.14a1,1,0,0,0,0-1.59l-1.59-1.59a1,1,0,0,0-1.58,0L109.36,95.05l-5-5a1,1,0,0,0-1.58,0l-1.58,1.68a1,1,0,0,0,0,1.58l7.47,7.5a1.18,1.18,0,0,0,1.5,0Z"/></g></g><path d="M141,99.07,145.44,86h1.88l4.44,13.12H150l-1.24-4H144l-1.26,4Zm4-7.34-.62,2h3.94l-.62-2c-.24-.73-.46-1.46-.68-2.19l-.64-2.23h-.08c-.2.76-.4,1.5-.62,2.23S145.24,91,145,91.73Z"/><path d="M156.74,103.55a7.58,7.58,0,0,1-1.64-.17,3.93,3.93,0,0,1-1.27-.51,2.67,2.67,0,0,1-.82-.82,2.15,2.15,0,0,1-.29-1.12,2.09,2.09,0,0,1,.38-1.18,4.21,4.21,0,0,1,1-1v-.08a2,2,0,0,1-.61-.61,1.94,1.94,0,0,1,.09-2.05,3.06,3.06,0,0,1,.72-.72v-.08a4,4,0,0,1-.87-1.07,3,3,0,0,1-.39-1.55,3.53,3.53,0,0,1,.29-1.44,3.36,3.36,0,0,1,.79-1.09,3.62,3.62,0,0,1,1.17-.69,4.18,4.18,0,0,1,1.41-.24,3.54,3.54,0,0,1,.75.07,4.05,4.05,0,0,1,.63.17h3.38v1.26h-2a2.86,2.86,0,0,1,.8,2A3.38,3.38,0,0,1,160,94a3,3,0,0,1-.76,1.06,3.36,3.36,0,0,1-1.13.67,3.94,3.94,0,0,1-1.39.24,3.25,3.25,0,0,1-.74-.09,3.61,3.61,0,0,1-.72-.25,2.54,2.54,0,0,0-.44.49,1.17,1.17,0,0,0-.18.67.94.94,0,0,0,.36.76,2.23,2.23,0,0,0,1.36.3h1.88a4.69,4.69,0,0,1,2.55.55,2,2,0,0,1,.85,1.77,2.59,2.59,0,0,1-.34,1.29,3.19,3.19,0,0,1-1,1.07,5,5,0,0,1-1.55.73A7.17,7.17,0,0,1,156.74,103.55Zm.24-1.14a4.54,4.54,0,0,0,1.27-.17,3.35,3.35,0,0,0,1-.44,2,2,0,0,0,.62-.63,1.38,1.38,0,0,0,.22-.74,1,1,0,0,0-.5-.94,3.29,3.29,0,0,0-1.46-.26h-1.68l-.61,0a3,3,0,0,1-.65-.13,2.7,2.7,0,0,0-.76.8,1.68,1.68,0,0,0-.24.84,1.4,1.4,0,0,0,.75,1.24A3.92,3.92,0,0,0,157,102.41Zm-.24-7.52a1.89,1.89,0,0,0,.79-.16,2,2,0,0,0,.66-.46,1.88,1.88,0,0,0,.45-.73,2.7,2.7,0,0,0,.16-1,2.23,2.23,0,0,0-.6-1.67,2.1,2.1,0,0,0-2.92,0,2.23,2.23,0,0,0-.6,1.67,2.94,2.94,0,0,0,.16,1,2.15,2.15,0,0,0,.45.73,2.25,2.25,0,0,0,.66.46A1.92,1.92,0,0,0,156.74,94.89Z"/><path d="M163.54,99.07V89.35h1.36l.14,1.76h.06a4.66,4.66,0,0,1,1.21-1.46,2.52,2.52,0,0,1,1.55-.54,2.61,2.61,0,0,1,1,.2l-.32,1.44-.44-.12a2.35,2.35,0,0,0-.5,0,2.22,2.22,0,0,0-1.29.5,4.05,4.05,0,0,0-1.17,1.74v6.24Z"/><path d="M174.22,99.31a4.85,4.85,0,0,1-1.83-.35,4.4,4.4,0,0,1-1.48-1,4.57,4.57,0,0,1-1-1.59,6.49,6.49,0,0,1,0-4.29,5.26,5.26,0,0,1,1-1.61,4.24,4.24,0,0,1,1.39-1,4,4,0,0,1,1.62-.35,4.08,4.08,0,0,1,1.65.32,3.11,3.11,0,0,1,1.22.92,4.11,4.11,0,0,1,.75,1.44,6.15,6.15,0,0,1,.26,1.88c0,.17,0,.34,0,.51a1.75,1.75,0,0,1,0,.43h-6.56a3.82,3.82,0,0,0,1,2.47,3,3,0,0,0,2.27.91,3.79,3.79,0,0,0,1.29-.21,5.37,5.37,0,0,0,1.13-.55l.58,1.08A7.82,7.82,0,0,1,176,99,4.92,4.92,0,0,1,174.22,99.31Zm-3.06-5.88h5.2a3.47,3.47,0,0,0-.63-2.25,2.17,2.17,0,0,0-1.77-.77,2.61,2.61,0,0,0-1,.2,2.66,2.66,0,0,0-.85.59,3.42,3.42,0,0,0-.63,1A4.7,4.7,0,0,0,171.16,93.43Z"/><path d="M184.14,99.31a4.85,4.85,0,0,1-1.83-.35,4.4,4.4,0,0,1-1.48-1,4.57,4.57,0,0,1-1-1.59,6.49,6.49,0,0,1,0-4.29,5.26,5.26,0,0,1,1-1.61,4.24,4.24,0,0,1,1.39-1,4,4,0,0,1,1.62-.35,4.08,4.08,0,0,1,1.65.32,3.11,3.11,0,0,1,1.22.92,4.11,4.11,0,0,1,.75,1.44,6.15,6.15,0,0,1,.26,1.88c0,.17,0,.34,0,.51a1.75,1.75,0,0,1-.05.43H181.1a3.82,3.82,0,0,0,1,2.47,3,3,0,0,0,2.27.91,3.79,3.79,0,0,0,1.29-.21,5.37,5.37,0,0,0,1.13-.55l.58,1.08a7.82,7.82,0,0,1-1.42.7A4.92,4.92,0,0,1,184.14,99.31Zm-3.06-5.88h5.2a3.47,3.47,0,0,0-.63-2.25,2.17,2.17,0,0,0-1.77-.77,2.61,2.61,0,0,0-1,.2,2.66,2.66,0,0,0-.85.59,3.42,3.42,0,0,0-.63,1A4.7,4.7,0,0,0,181.08,93.43Z"/><path d="M197.18,99.31a3.19,3.19,0,0,1-1.31-.24,2.28,2.28,0,0,1-.86-.66,2.67,2.67,0,0,1-.47-1,6,6,0,0,1-.14-1.32V90.69H193V89.45l1.52-.1.2-2.72h1.38v2.72h2.62v1.34h-2.62v5.4a2.48,2.48,0,0,0,.33,1.39,1.3,1.3,0,0,0,1.17.49,2.29,2.29,0,0,0,.56-.08,3.42,3.42,0,0,0,.54-.18L199,99a7.62,7.62,0,0,1-.87.25A4.22,4.22,0,0,1,197.18,99.31Z"/><path d="M204.38,99.31a4.31,4.31,0,0,1-1.71-.34,4.38,4.38,0,0,1-1.43-1,4.93,4.93,0,0,1-1-1.6,6,6,0,0,1-.37-2.15,6.09,6.09,0,0,1,.37-2.17,5.09,5.09,0,0,1,1-1.61,4.26,4.26,0,0,1,1.43-1,4.47,4.47,0,0,1,3.42,0,4.16,4.16,0,0,1,1.43,1,4.75,4.75,0,0,1,1,1.61,5.88,5.88,0,0,1,.37,2.17,5.81,5.81,0,0,1-.37,2.15,4.61,4.61,0,0,1-1,1.6,4.28,4.28,0,0,1-3.14,1.33Zm0-1.36a2.4,2.4,0,0,0,1.14-.27,2.5,2.5,0,0,0,.89-.76,3.55,3.55,0,0,0,.57-1.17,5.13,5.13,0,0,0,.2-1.52,5.25,5.25,0,0,0-.2-1.53,3.56,3.56,0,0,0-.57-1.19,2.52,2.52,0,0,0-.89-.77,2.4,2.4,0,0,0-1.14-.27,2.46,2.46,0,0,0-1.14.27,2.71,2.71,0,0,0-.89.77,4,4,0,0,0-.57,1.19,5.61,5.61,0,0,0-.2,1.53,5.49,5.49,0,0,0,.2,1.52,4,4,0,0,0,.57,1.17,2.68,2.68,0,0,0,.89.76A2.46,2.46,0,0,0,204.38,98Z"/><path d="M218.5,99.31a3.19,3.19,0,0,1-1.31-.24,2.28,2.28,0,0,1-.86-.66,2.67,2.67,0,0,1-.47-1,6,6,0,0,1-.14-1.32V90.69h-1.44V89.45l1.52-.1.2-2.72h1.38v2.72H220v1.34h-2.62v5.4a2.48,2.48,0,0,0,.33,1.39,1.3,1.3,0,0,0,1.17.49,2.29,2.29,0,0,0,.56-.08,3.42,3.42,0,0,0,.54-.18L220.3,99a7.62,7.62,0,0,1-.87.25A4.22,4.22,0,0,1,218.5,99.31Z"/><path d="M225.86,99.31A4.85,4.85,0,0,1,224,99a4.4,4.4,0,0,1-1.48-1,4.57,4.57,0,0,1-1-1.59,6.49,6.49,0,0,1,0-4.29,5.26,5.26,0,0,1,1-1.61,4.24,4.24,0,0,1,1.39-1,4,4,0,0,1,1.62-.35,4.08,4.08,0,0,1,1.65.32,3.11,3.11,0,0,1,1.22.92,4.11,4.11,0,0,1,.75,1.44,6.15,6.15,0,0,1,.26,1.88c0,.17,0,.34,0,.51a1.75,1.75,0,0,1-.05.43h-6.56a3.82,3.82,0,0,0,1,2.47,3,3,0,0,0,2.27.91,3.79,3.79,0,0,0,1.29-.21,5.37,5.37,0,0,0,1.13-.55l.58,1.08a7.82,7.82,0,0,1-1.42.7A4.92,4.92,0,0,1,225.86,99.31Zm-3.06-5.88H228a3.47,3.47,0,0,0-.63-2.25,2.17,2.17,0,0,0-1.77-.77,2.61,2.61,0,0,0-1,.2,2.66,2.66,0,0,0-.85.59,3.42,3.42,0,0,0-.63,1A4.7,4.7,0,0,0,222.8,93.43Z"/><path d="M231.84,99.07V89.35h1.36l.14,1.76h.06a4.66,4.66,0,0,1,1.21-1.46,2.52,2.52,0,0,1,1.55-.54,2.61,2.61,0,0,1,1,.2l-.32,1.44-.44-.12a2.35,2.35,0,0,0-.5,0,2.22,2.22,0,0,0-1.29.5,4.05,4.05,0,0,0-1.17,1.74v6.24Z"/><path d="M238.78,99.07V89.35h1.36l.14,1.4h.06a6.6,6.6,0,0,1,1.39-1.17,3,3,0,0,1,1.63-.47,2.76,2.76,0,0,1,1.75.49A2.84,2.84,0,0,1,246,91a8.42,8.42,0,0,1,1.53-1.35,3,3,0,0,1,1.67-.51,2.63,2.63,0,0,1,2.23,1,4.63,4.63,0,0,1,.73,2.84v6.16h-1.64V93.13a3.43,3.43,0,0,0-.44-2,1.54,1.54,0,0,0-1.36-.61,3.63,3.63,0,0,0-2.44,1.5v7h-1.64V93.13a3.43,3.43,0,0,0-.44-2,1.57,1.57,0,0,0-1.38-.61,3.61,3.61,0,0,0-2.44,1.5v7Z"/><path d="M257.9,99.31a5.32,5.32,0,0,1-2-.38,6.16,6.16,0,0,1-1.64-1l.82-1.1a6.57,6.57,0,0,0,1.31.84A3.64,3.64,0,0,0,258,98a2.08,2.08,0,0,0,1.44-.44,1.4,1.4,0,0,0,.48-1.08,1.14,1.14,0,0,0-.2-.66,1.84,1.84,0,0,0-.51-.49,3.63,3.63,0,0,0-.71-.37l-.8-.32c-.35-.12-.69-.26-1-.41a4.11,4.11,0,0,1-.93-.56,2.88,2.88,0,0,1-.67-.77,2.08,2.08,0,0,1-.26-1.06,2.66,2.66,0,0,1,.23-1.09,2.72,2.72,0,0,1,.66-.88,3.13,3.13,0,0,1,1-.58,4.69,4.69,0,0,1,3.09.11,4.91,4.91,0,0,1,1.33.78l-.78,1a5.29,5.29,0,0,0-1-.62,2.86,2.86,0,0,0-1.18-.24,1.88,1.88,0,0,0-1.35.42,1.32,1.32,0,0,0-.43,1,1,1,0,0,0,.18.59,1.71,1.71,0,0,0,.48.44,3.7,3.7,0,0,0,.69.34l.81.31q.53.19,1.05.42a4,4,0,0,1,.95.55,2.7,2.7,0,0,1,.69.81,2.34,2.34,0,0,1,.27,1.16,2.66,2.66,0,0,1-.91,2,3.12,3.12,0,0,1-1.12.63A4.78,4.78,0,0,1,257.9,99.31Z"/><path d="M270,99.31a3,3,0,0,1-2-.72,2.59,2.59,0,0,1-.81-2,2.69,2.69,0,0,1,1.42-2.45,11.74,11.74,0,0,1,4.54-1.19A4.43,4.43,0,0,0,273,92a2.24,2.24,0,0,0-.31-.78,1.55,1.55,0,0,0-.61-.55,2.07,2.07,0,0,0-1-.21,4,4,0,0,0-1.58.32,7.51,7.51,0,0,0-1.32.72l-.64-1.14a11.08,11.08,0,0,1,1.66-.85,5.65,5.65,0,0,1,2.16-.41A3,3,0,0,1,274,90.2a4.78,4.78,0,0,1,.8,2.91v6H273.4l-.14-1.16h-.06a8.11,8.11,0,0,1-1.5,1A3.73,3.73,0,0,1,270,99.31Zm.48-1.32a2.75,2.75,0,0,0,1.32-.33,6.4,6.4,0,0,0,1.32-1V94a16.59,16.59,0,0,0-2.05.38,5.59,5.59,0,0,0-1.34.52,2.07,2.07,0,0,0-.74.69,1.67,1.67,0,0,0-.23.85,1.39,1.39,0,0,0,.5,1.2A2,2,0,0,0,270.46,98Z"/><path d="M277.82,99.07V89.35h1.36l.14,1.4h.06a7.86,7.86,0,0,1,1.47-1.17,3.41,3.41,0,0,1,1.79-.47,2.6,2.6,0,0,1,2.25,1,4.7,4.7,0,0,1,.71,2.84v6.16H284V93.13a3.51,3.51,0,0,0-.44-2,1.6,1.6,0,0,0-1.4-.61,2.44,2.44,0,0,0-1.34.38A9.39,9.39,0,0,0,279.46,92v7Z"/><path d="M292.08,99.31A3.6,3.6,0,0,1,289.15,98a5.73,5.73,0,0,1-1.09-3.76,6.18,6.18,0,0,1,.35-2.13,5.16,5.16,0,0,1,.93-1.61,4.12,4.12,0,0,1,1.34-1,3.7,3.7,0,0,1,1.6-.36,3.31,3.31,0,0,1,1.46.3,6.57,6.57,0,0,1,1.26.82l-.08-1.66V84.83h1.66V99.07h-1.36l-.14-1.14H295a6.23,6.23,0,0,1-1.33,1A3.35,3.35,0,0,1,292.08,99.31Zm.36-1.38a2.6,2.6,0,0,0,1.28-.33,4.67,4.67,0,0,0,1.2-1V91.51a4.09,4.09,0,0,0-1.19-.79,3.17,3.17,0,0,0-1.17-.23,2.29,2.29,0,0,0-1.09.27,2.68,2.68,0,0,0-.89.76,4,4,0,0,0-.6,1.17,4.81,4.81,0,0,0-.22,1.52,4.63,4.63,0,0,0,.7,2.74A2.31,2.31,0,0,0,292.44,97.93Z"/><path d="M307.7,99.31a4.69,4.69,0,0,1-1.8-.34,4.16,4.16,0,0,1-1.45-1,4.56,4.56,0,0,1-1-1.6,6.25,6.25,0,0,1-.35-2.15,5.87,5.87,0,0,1,.38-2.17,4.82,4.82,0,0,1,1-1.61,4.3,4.3,0,0,1,1.49-1,4.71,4.71,0,0,1,1.79-.34,3.58,3.58,0,0,1,1.64.34,5.7,5.7,0,0,1,1.2.8l-.84,1.08a4.33,4.33,0,0,0-.89-.62,2.26,2.26,0,0,0-1.05-.24,2.76,2.76,0,0,0-1.22.27,2.84,2.84,0,0,0-1,.77,3.65,3.65,0,0,0-.63,1.19,4.91,4.91,0,0,0-.23,1.53,4.81,4.81,0,0,0,.22,1.52,3.82,3.82,0,0,0,.61,1.17,2.69,2.69,0,0,0,.95.76,2.86,2.86,0,0,0,2.47,0,4.88,4.88,0,0,0,1-.69l.72,1.1a5.18,5.18,0,0,1-1.46.91A4.34,4.34,0,0,1,307.7,99.31Z"/><path d="M316.34,99.31A4.28,4.28,0,0,1,313.2,98a4.93,4.93,0,0,1-1-1.6,5.81,5.81,0,0,1-.37-2.15,5.88,5.88,0,0,1,.37-2.17,5.09,5.09,0,0,1,1-1.61,4.16,4.16,0,0,1,1.43-1,4.47,4.47,0,0,1,3.42,0,4.16,4.16,0,0,1,1.43,1,5.09,5.09,0,0,1,1,1.61,5.88,5.88,0,0,1,.37,2.17,5.81,5.81,0,0,1-.37,2.15,4.93,4.93,0,0,1-1,1.6,4.28,4.28,0,0,1-3.14,1.33Zm0-1.36a2.46,2.46,0,0,0,1.14-.27,2.58,2.58,0,0,0,.89-.76,3.55,3.55,0,0,0,.57-1.17,5.49,5.49,0,0,0,.2-1.52,5.61,5.61,0,0,0-.2-1.53,3.56,3.56,0,0,0-.57-1.19,2.61,2.61,0,0,0-.89-.77,2.54,2.54,0,0,0-2.28,0,2.61,2.61,0,0,0-.89.77,3.56,3.56,0,0,0-.57,1.19,5.61,5.61,0,0,0-.2,1.53,5.49,5.49,0,0,0,.2,1.52,3.55,3.55,0,0,0,.57,1.17,2.58,2.58,0,0,0,.89.76A2.46,2.46,0,0,0,316.34,98Z"/><path d="M323.4,99.07V89.35h1.36l.14,1.4H325a7.86,7.86,0,0,1,1.47-1.17,3.39,3.39,0,0,1,1.79-.47,2.6,2.6,0,0,1,2.25,1,4.78,4.78,0,0,1,.71,2.84v6.16h-1.64V93.13a3.51,3.51,0,0,0-.44-2,1.6,1.6,0,0,0-1.4-.61,2.42,2.42,0,0,0-1.34.38A8.38,8.38,0,0,0,325,92v7Z"/><path d="M337.66,99.31A3.62,3.62,0,0,1,334.73,98a5.73,5.73,0,0,1-1.09-3.76A6.18,6.18,0,0,1,334,92.1a5.16,5.16,0,0,1,.93-1.61,4.12,4.12,0,0,1,1.34-1,3.7,3.7,0,0,1,1.6-.36,3.31,3.31,0,0,1,1.46.3,6.57,6.57,0,0,1,1.26.82l-.08-1.66V84.83h1.66V99.07H340.8l-.14-1.14h-.06a6.23,6.23,0,0,1-1.33,1A3.35,3.35,0,0,1,337.66,99.31Zm.36-1.38a2.6,2.6,0,0,0,1.28-.33,4.67,4.67,0,0,0,1.2-1V91.51a4.09,4.09,0,0,0-1.19-.79,3.17,3.17,0,0,0-1.17-.23,2.29,2.29,0,0,0-1.09.27,2.68,2.68,0,0,0-.89.76,4,4,0,0,0-.6,1.17,4.81,4.81,0,0,0-.22,1.52A4.63,4.63,0,0,0,336,97,2.31,2.31,0,0,0,338,97.93Z"/><path d="M346.28,87.35a1.16,1.16,0,0,1-.81-.3,1.05,1.05,0,0,1,0-1.53,1.28,1.28,0,0,1,1.62,0,1.05,1.05,0,0,1,0,1.53A1.16,1.16,0,0,1,346.28,87.35Zm-.84,11.72V89.35h1.64v9.72Z"/><path d="M353.42,99.31a3.16,3.16,0,0,1-1.31-.24,2.28,2.28,0,0,1-.86-.66,2.53,2.53,0,0,1-.47-1,6,6,0,0,1-.14-1.32V90.69H349.2V89.45l1.52-.1.2-2.72h1.38v2.72h2.62v1.34H352.3v5.4a2.48,2.48,0,0,0,.33,1.39,1.3,1.3,0,0,0,1.17.49,2.36,2.36,0,0,0,.56-.08,3.42,3.42,0,0,0,.54-.18l.32,1.24a9,9,0,0,1-.87.25A4.22,4.22,0,0,1,353.42,99.31Z"/><path d="M358,87.35a1.16,1.16,0,0,1-.81-.3,1.05,1.05,0,0,1,0-1.53,1.28,1.28,0,0,1,1.62,0,1.05,1.05,0,0,1,0,1.53A1.16,1.16,0,0,1,358,87.35Zm-.84,11.72V89.35h1.64v9.72Z"/><path d="M365.82,99.31A4.28,4.28,0,0,1,362.68,98a4.93,4.93,0,0,1-1-1.6,5.81,5.81,0,0,1-.37-2.15,5.88,5.88,0,0,1,.37-2.17,5.09,5.09,0,0,1,1-1.61,4.16,4.16,0,0,1,1.43-1,4.47,4.47,0,0,1,3.42,0,4.16,4.16,0,0,1,1.43,1,5.09,5.09,0,0,1,1,1.61,5.88,5.88,0,0,1,.37,2.17,5.81,5.81,0,0,1-.37,2.15,4.93,4.93,0,0,1-1,1.6,4.28,4.28,0,0,1-3.14,1.33Zm0-1.36a2.46,2.46,0,0,0,1.14-.27,2.58,2.58,0,0,0,.89-.76,3.55,3.55,0,0,0,.57-1.17,5.49,5.49,0,0,0,.2-1.52,5.61,5.61,0,0,0-.2-1.53,3.56,3.56,0,0,0-.57-1.19,2.61,2.61,0,0,0-.89-.77,2.54,2.54,0,0,0-2.28,0,2.61,2.61,0,0,0-.89.77,3.56,3.56,0,0,0-.57,1.19,5.61,5.61,0,0,0-.2,1.53,5.49,5.49,0,0,0,.2,1.52,3.55,3.55,0,0,0,.57,1.17,2.58,2.58,0,0,0,.89.76A2.46,2.46,0,0,0,365.82,98Z"/><path d="M372.88,99.07V89.35h1.36l.14,1.4h.06a7.86,7.86,0,0,1,1.47-1.17,3.39,3.39,0,0,1,1.79-.47,2.6,2.6,0,0,1,2.25,1,4.78,4.78,0,0,1,.71,2.84v6.16H379V93.13a3.51,3.51,0,0,0-.44-2,1.6,1.6,0,0,0-1.4-.61,2.42,2.42,0,0,0-1.34.38A8.38,8.38,0,0,0,374.52,92v7Z"/><path d="M386.36,99.31a5.32,5.32,0,0,1-2-.38,6,6,0,0,1-1.64-1l.82-1.1a6.29,6.29,0,0,0,1.31.84,3.61,3.61,0,0,0,1.55.32,2.08,2.08,0,0,0,1.44-.44,1.4,1.4,0,0,0,.48-1.08,1.14,1.14,0,0,0-.2-.66,1.84,1.84,0,0,0-.51-.49,3.94,3.94,0,0,0-.71-.37l-.8-.32c-.35-.12-.69-.26-1-.41a3.9,3.9,0,0,1-.93-.56,2.88,2.88,0,0,1-.67-.77,2.08,2.08,0,0,1-.26-1.06,2.66,2.66,0,0,1,.23-1.09,2.46,2.46,0,0,1,.66-.88,3.13,3.13,0,0,1,1.05-.58,4.34,4.34,0,0,1,1.4-.21,4.42,4.42,0,0,1,1.69.32,5.07,5.07,0,0,1,1.33.78l-.78,1a5.29,5.29,0,0,0-1-.62,2.86,2.86,0,0,0-1.18-.24,1.88,1.88,0,0,0-1.35.42,1.32,1.32,0,0,0-.43,1,1,1,0,0,0,.18.59,1.71,1.71,0,0,0,.48.44,3.7,3.7,0,0,0,.69.34l.81.31q.53.19,1.05.42a4.22,4.22,0,0,1,.95.55,2.7,2.7,0,0,1,.69.81,2.34,2.34,0,0,1,.27,1.16,2.8,2.8,0,0,1-.23,1.12,2.62,2.62,0,0,1-.68.92,3.12,3.12,0,0,1-1.12.63A4.82,4.82,0,0,1,386.36,99.31Z"/></svg>