<?xml version="1.0" encoding="utf-8"?>
<!-- Generator: Adobe Illustrator 24.1.2, SVG Export Plug-In . SVG Version: 6.00 Build 0)  -->
<svg version="1.1" id="Layer_1" xmlns="http://www.w3.org/2000/svg" xmlns:xlink="http://www.w3.org/1999/xlink" x="0px" y="0px"
	 viewBox="0 0 500 180" style="enable-background:new 0 0 500 180;" xml:space="preserve">
<style type="text/css">
	.st0{fill:#F5F5F5;}
	.st1{fill:#00916A;}
	.st2{fill:#005FC6;}
	.st3{fill:#FFFFFF;}
</style>
<rect id="Rectangle" x="7" class="st0" width="495" height="180"/>
<rect id="Rectangle_1_" class="st1" width="6" height="180"/>
<path id="Shape" class="st1" d="M33.5,12C25,12,18,18.9,18,27.5S24.9,43,33.5,43S49,36.1,49,27.5S42,12,33.5,12z M30.4,35.2
	l-7.7-7.7l2.2-2.2l5.5,5.5L42,19.1l2.2,2.2L30.4,35.2z"/>
<g id="checked" transform="translate(166.000000, 69.000000)">
	<path id="Shape_1_" class="st2" d="M12,3h-25.7c-2,0-3.7,1.7-3.7,3.7v25.7c0,2,1.6,3.7,3.7,3.7H12c2,0,3.7-1.6,3.7-3.7V6.7
		C15.6,4.7,14,3,12,3z"/>
</g>
<g id="check-icon" transform="translate(171.000000, 77.000000)">
	<path id="Path" class="st3" d="M-7.5,20.5L7.1,6.1c0.5-0.5,0.5-1.3,0-1.8L5.3,2.5C4.8,2,4,2,3.5,2.5L-8.4,14.3L-14,8.8
		c-0.5-0.5-1.3-0.5-1.8,0l-1.8,1.8c-0.5,0.5-0.5,1.3,0,1.8l8.3,8.2C-8.8,21-8,21-7.5,20.5L-7.5,20.5z"/>
</g>
<g>
	<path d="M197.1,95.3v-13h1.6v6.5h0.1l5.4-6.5h1.9l-4.1,4.9l4.7,8h-1.8l-3.9-6.8l-2.2,2.6v4.1H197.1z"/>
	<path d="M212.2,95.5c-0.6,0-1.3-0.1-1.8-0.3c-0.6-0.2-1-0.6-1.5-1s-0.7-1-1-1.6c-0.2-0.6-0.4-1.3-0.4-2.1s0.1-1.5,0.4-2.1
		c0.2-0.6,0.6-1.2,1-1.6c0.4-0.4,0.9-0.8,1.4-1c0.5-0.2,1-0.3,1.6-0.3c0.6,0,1.2,0.1,1.6,0.3c0.5,0.2,0.9,0.5,1.2,0.9
		c0.3,0.4,0.6,0.9,0.7,1.4c0.2,0.6,0.3,1.2,0.3,1.9c0,0.2,0,0.3,0,0.5c0,0.2,0,0.3,0,0.4h-6.5c0.1,1,0.4,1.8,1,2.4
		c0.6,0.6,1.3,0.9,2.2,0.9c0.5,0,0.9-0.1,1.3-0.2c0.4-0.1,0.8-0.3,1.1-0.5l0.6,1.1c-0.4,0.3-0.9,0.5-1.4,0.7S212.9,95.5,212.2,95.5z
		 M209.2,89.7h5.1c0-1-0.2-1.7-0.6-2.2s-1-0.8-1.8-0.8c-0.3,0-0.7,0.1-1,0.2c-0.3,0.1-0.6,0.3-0.8,0.6c-0.3,0.3-0.5,0.6-0.6,0.9
		C209.3,88.8,209.2,89.3,209.2,89.7z"/>
	<path d="M222,95.5c-0.6,0-1.3-0.1-1.8-0.3c-0.6-0.2-1-0.6-1.5-1s-0.7-1-1-1.6c-0.2-0.6-0.4-1.3-0.4-2.1s0.1-1.5,0.4-2.1
		c0.2-0.6,0.6-1.2,1-1.6c0.4-0.4,0.9-0.8,1.4-1c0.5-0.2,1-0.3,1.6-0.3c0.6,0,1.2,0.1,1.6,0.3c0.5,0.2,0.9,0.5,1.2,0.9
		c0.3,0.4,0.6,0.9,0.7,1.4c0.2,0.6,0.3,1.2,0.3,1.9c0,0.2,0,0.3,0,0.5c0,0.2,0,0.3,0,0.4H219c0.1,1,0.4,1.8,1,2.4
		c0.6,0.6,1.3,0.9,2.2,0.9c0.5,0,0.9-0.1,1.3-0.2c0.4-0.1,0.8-0.3,1.1-0.5l0.6,1.1c-0.4,0.3-0.9,0.5-1.4,0.7S222.7,95.5,222,95.5z
		 M219,89.7h5.1c0-1-0.2-1.7-0.6-2.2s-1-0.8-1.8-0.8c-0.3,0-0.7,0.1-1,0.2c-0.3,0.1-0.6,0.3-0.8,0.6c-0.3,0.3-0.5,0.6-0.6,0.9
		C219.1,88.8,219,89.3,219,89.7z"/>
	<path d="M227.9,99.4V85.7h1.3l0.1,1.1h0.1c0.4-0.4,0.9-0.7,1.4-1c0.5-0.3,1.1-0.4,1.6-0.4c0.6,0,1.2,0.1,1.6,0.3
		c0.5,0.2,0.9,0.6,1.2,1c0.3,0.4,0.6,0.9,0.7,1.5c0.2,0.6,0.2,1.3,0.2,2c0,0.8-0.1,1.5-0.3,2.2c-0.2,0.6-0.5,1.2-0.9,1.6
		c-0.4,0.4-0.8,0.8-1.3,1c-0.5,0.2-1,0.3-1.6,0.3c-0.4,0-0.9-0.1-1.3-0.3c-0.4-0.2-0.9-0.5-1.3-0.8l0,1.7v3.2H227.9z M231.9,94.2
		c0.4,0,0.8-0.1,1.1-0.3c0.3-0.2,0.6-0.4,0.9-0.8s0.4-0.7,0.6-1.2c0.1-0.5,0.2-1,0.2-1.6c0-0.5,0-1-0.1-1.4
		c-0.1-0.4-0.2-0.8-0.4-1.1c-0.2-0.3-0.5-0.6-0.8-0.7c-0.3-0.2-0.7-0.3-1.2-0.3c-0.4,0-0.8,0.1-1.2,0.3c-0.4,0.2-0.9,0.5-1.3,1v5
		c0.4,0.4,0.9,0.6,1.3,0.8C231.2,94.1,231.6,94.2,231.9,94.2z"/>
	<path d="M242.9,95.3v-9.6h1.3l0.1,1.4h0.1c0.4-0.5,0.9-0.8,1.4-1.2c0.5-0.3,1-0.5,1.6-0.5c0.7,0,1.3,0.2,1.7,0.5
		c0.4,0.3,0.7,0.8,0.9,1.4c0.5-0.6,1-1,1.5-1.3c0.5-0.3,1.1-0.5,1.7-0.5c1,0,1.7,0.3,2.2,1c0.5,0.6,0.7,1.6,0.7,2.8v6.1h-1.6v-5.9
		c0-0.9-0.1-1.6-0.4-2c-0.3-0.4-0.7-0.6-1.3-0.6c-0.7,0-1.5,0.5-2.4,1.5v7h-1.6v-5.9c0-0.9-0.1-1.6-0.4-2c-0.3-0.4-0.7-0.6-1.4-0.6
		c-0.7,0-1.5,0.5-2.4,1.5v7H242.9z"/>
	<path d="M263.2,95.5c-0.6,0-1.2-0.1-1.8-0.3c-0.6-0.2-1-0.6-1.5-1c-0.4-0.4-0.7-1-1-1.6s-0.4-1.3-0.4-2.1s0.1-1.5,0.4-2.1
		s0.6-1.2,1-1.6s0.9-0.8,1.4-1c0.5-0.2,1-0.3,1.6-0.3c0.6,0,1.2,0.1,1.6,0.3c0.5,0.2,0.9,0.5,1.2,0.9c0.3,0.4,0.6,0.9,0.7,1.4
		c0.2,0.6,0.3,1.2,0.3,1.9c0,0.2,0,0.3,0,0.5c0,0.2,0,0.3,0,0.4h-6.5c0.1,1,0.4,1.8,1,2.4c0.6,0.6,1.3,0.9,2.2,0.9
		c0.5,0,0.9-0.1,1.3-0.2c0.4-0.1,0.8-0.3,1.1-0.5l0.6,1.1c-0.4,0.3-0.9,0.5-1.4,0.7C264.4,95.4,263.8,95.5,263.2,95.5z M260.2,89.7
		h5.1c0-1-0.2-1.7-0.6-2.2c-0.4-0.5-1-0.8-1.8-0.8c-0.3,0-0.7,0.1-1,0.2s-0.6,0.3-0.8,0.6c-0.3,0.3-0.5,0.6-0.6,0.9
		S260.2,89.3,260.2,89.7z"/>
	<path d="M275.6,95.5c-0.7,0-1.3-0.1-2-0.4c-0.6-0.2-1.2-0.6-1.6-1l0.8-1.1c0.4,0.3,0.9,0.6,1.3,0.8s1,0.3,1.5,0.3
		c0.6,0,1.1-0.1,1.4-0.4c0.3-0.3,0.5-0.6,0.5-1.1c0-0.3-0.1-0.5-0.2-0.7s-0.3-0.3-0.5-0.5c-0.2-0.1-0.4-0.3-0.7-0.4
		c-0.3-0.1-0.5-0.2-0.8-0.3c-0.3-0.1-0.7-0.3-1-0.4c-0.3-0.2-0.7-0.3-0.9-0.6c-0.3-0.2-0.5-0.5-0.7-0.8c-0.2-0.3-0.3-0.6-0.3-1
		c0-0.4,0.1-0.7,0.2-1.1c0.2-0.3,0.4-0.6,0.7-0.9c0.3-0.2,0.6-0.4,1-0.6s0.9-0.2,1.4-0.2c0.6,0,1.2,0.1,1.7,0.3
		c0.5,0.2,0.9,0.5,1.3,0.8l-0.8,1c-0.3-0.3-0.7-0.5-1-0.6s-0.7-0.2-1.2-0.2c-0.6,0-1.1,0.1-1.3,0.4c-0.3,0.3-0.4,0.6-0.4,1
		c0,0.2,0.1,0.4,0.2,0.6c0.1,0.2,0.3,0.3,0.5,0.4c0.2,0.1,0.4,0.2,0.7,0.3c0.3,0.1,0.5,0.2,0.8,0.3c0.3,0.1,0.7,0.3,1,0.4
		c0.3,0.1,0.7,0.3,0.9,0.5c0.3,0.2,0.5,0.5,0.7,0.8c0.2,0.3,0.3,0.7,0.3,1.1c0,0.4-0.1,0.8-0.2,1.1c-0.2,0.3-0.4,0.6-0.7,0.9
		c-0.3,0.3-0.7,0.5-1.1,0.6S276.1,95.5,275.6,95.5z"/>
	<path d="M282.2,83.7c-0.3,0-0.6-0.1-0.8-0.3c-0.2-0.2-0.3-0.4-0.3-0.8c0-0.3,0.1-0.6,0.3-0.8c0.2-0.2,0.5-0.3,0.8-0.3
		c0.3,0,0.6,0.1,0.8,0.3c0.2,0.2,0.3,0.4,0.3,0.8c0,0.3-0.1,0.6-0.3,0.8S282.5,83.7,282.2,83.7z M281.4,95.3v-9.6h1.6v9.6H281.4z"/>
	<path d="M289.5,99.7c-0.6,0-1.1-0.1-1.6-0.2s-0.9-0.3-1.3-0.5s-0.6-0.5-0.8-0.8s-0.3-0.7-0.3-1.1c0-0.4,0.1-0.8,0.4-1.2
		s0.6-0.7,1-1v-0.1c-0.2-0.1-0.4-0.3-0.6-0.6c-0.2-0.3-0.2-0.6-0.2-1c0-0.4,0.1-0.8,0.3-1.1c0.2-0.3,0.5-0.5,0.7-0.7v-0.1
		c-0.3-0.3-0.6-0.6-0.9-1.1c-0.3-0.4-0.4-1-0.4-1.5c0-0.5,0.1-1,0.3-1.4c0.2-0.4,0.5-0.8,0.8-1.1c0.3-0.3,0.7-0.5,1.2-0.7
		s0.9-0.2,1.4-0.2c0.3,0,0.5,0,0.7,0.1c0.2,0,0.4,0.1,0.6,0.2h3.3v1.2h-2c0.2,0.2,0.4,0.5,0.6,0.9c0.2,0.3,0.2,0.7,0.2,1.1
		c0,0.5-0.1,1-0.3,1.4c-0.2,0.4-0.4,0.8-0.8,1c-0.3,0.3-0.7,0.5-1.1,0.7s-0.9,0.2-1.4,0.2c-0.2,0-0.5,0-0.7-0.1s-0.5-0.1-0.7-0.2
		c-0.2,0.1-0.3,0.3-0.4,0.5c-0.1,0.2-0.2,0.4-0.2,0.7c0,0.3,0.1,0.6,0.4,0.8c0.2,0.2,0.7,0.3,1.3,0.3h1.9c1.1,0,2,0.2,2.5,0.5
		c0.6,0.4,0.8,0.9,0.8,1.8c0,0.4-0.1,0.9-0.3,1.3c-0.2,0.4-0.5,0.8-1,1.1c-0.4,0.3-0.9,0.5-1.5,0.7
		C290.9,99.7,290.2,99.7,289.5,99.7z M289.7,98.6c0.5,0,0.9-0.1,1.3-0.2c0.4-0.1,0.7-0.3,1-0.4c0.3-0.2,0.5-0.4,0.6-0.6
		c0.1-0.2,0.2-0.5,0.2-0.7c0-0.4-0.2-0.8-0.5-0.9c-0.3-0.2-0.8-0.3-1.4-0.3h-1.7c-0.2,0-0.4,0-0.6,0c-0.2,0-0.4-0.1-0.6-0.1
		c-0.3,0.3-0.6,0.5-0.8,0.8s-0.2,0.6-0.2,0.8c0,0.5,0.2,0.9,0.7,1.2C288.2,98.5,288.8,98.6,289.7,98.6z M289.5,91.2
		c0.3,0,0.5-0.1,0.8-0.2s0.5-0.3,0.7-0.5c0.2-0.2,0.3-0.4,0.4-0.7c0.1-0.3,0.2-0.6,0.2-1c0-0.7-0.2-1.3-0.6-1.7s-0.9-0.6-1.4-0.6
		s-1,0.2-1.4,0.6c-0.4,0.4-0.6,0.9-0.6,1.7c0,0.4,0.1,0.7,0.2,1c0.1,0.3,0.3,0.5,0.4,0.7c0.2,0.2,0.4,0.4,0.7,0.5
		C288.9,91.1,289.2,91.2,289.5,91.2z"/>
	<path d="M296.2,95.3v-9.6h1.3l0.1,1.4h0.1c0.5-0.5,0.9-0.8,1.5-1.2c0.5-0.3,1.1-0.5,1.8-0.5c1,0,1.8,0.3,2.2,1
		c0.5,0.6,0.7,1.6,0.7,2.8v6.1h-1.6v-5.9c0-0.9-0.1-1.6-0.4-2c-0.3-0.4-0.8-0.6-1.4-0.6c-0.5,0-0.9,0.1-1.3,0.4
		c-0.4,0.3-0.8,0.6-1.3,1.1v7H296.2z"/>
	<path d="M310.9,95.5c-0.6,0-1.2-0.1-1.8-0.3c-0.6-0.2-1-0.6-1.5-1c-0.4-0.4-0.7-1-1-1.6s-0.4-1.3-0.4-2.1s0.1-1.5,0.4-2.1
		s0.6-1.2,1-1.6c0.4-0.4,0.9-0.8,1.4-1c0.5-0.2,1-0.3,1.6-0.3c0.6,0,1.2,0.1,1.6,0.3s0.9,0.5,1.2,0.9c0.3,0.4,0.6,0.9,0.7,1.4
		c0.2,0.6,0.3,1.2,0.3,1.9c0,0.2,0,0.3,0,0.5s0,0.3,0,0.4h-6.5c0.1,1,0.4,1.8,1,2.4s1.3,0.9,2.2,0.9c0.5,0,0.9-0.1,1.3-0.2
		c0.4-0.1,0.8-0.3,1.1-0.5l0.6,1.1c-0.4,0.3-0.9,0.5-1.4,0.7S311.6,95.5,310.9,95.5z M307.9,89.7h5.1c0-1-0.2-1.7-0.6-2.2
		c-0.4-0.5-1-0.8-1.8-0.8c-0.3,0-0.7,0.1-1,0.2c-0.3,0.1-0.6,0.3-0.8,0.6c-0.3,0.3-0.5,0.6-0.6,0.9S308,89.3,307.9,89.7z"/>
	<path d="M320.1,95.5c-1.2,0-2.2-0.4-2.9-1.3c-0.7-0.9-1.1-2.1-1.1-3.7c0-0.8,0.1-1.5,0.3-2.1c0.2-0.6,0.5-1.2,0.9-1.6
		s0.8-0.8,1.3-1c0.5-0.2,1-0.4,1.6-0.4c0.6,0,1,0.1,1.4,0.3s0.8,0.5,1.2,0.8l-0.1-1.6v-3.7h1.6v14.1h-1.3l-0.1-1.1H323
		c-0.4,0.4-0.8,0.7-1.3,1C321.2,95.4,320.7,95.5,320.1,95.5z M320.5,94.2c0.4,0,0.9-0.1,1.3-0.3s0.8-0.6,1.2-1v-5
		c-0.4-0.4-0.8-0.6-1.2-0.8c-0.4-0.2-0.8-0.2-1.2-0.2c-0.4,0-0.7,0.1-1.1,0.3c-0.3,0.2-0.6,0.4-0.9,0.8c-0.3,0.3-0.4,0.7-0.6,1.2
		c-0.1,0.4-0.2,1-0.2,1.5c0,1.2,0.2,2.1,0.7,2.7C319,93.9,319.6,94.2,320.5,94.2z"/>
	<path d="M332.6,83.7c-0.3,0-0.6-0.1-0.8-0.3c-0.2-0.2-0.3-0.4-0.3-0.8c0-0.3,0.1-0.6,0.3-0.8c0.2-0.2,0.5-0.3,0.8-0.3
		c0.3,0,0.6,0.1,0.8,0.3c0.2,0.2,0.3,0.4,0.3,0.8c0,0.3-0.1,0.6-0.3,0.8S332.9,83.7,332.6,83.7z M331.8,95.3v-9.6h1.6v9.6H331.8z"/>
	<path d="M336.7,95.3v-9.6h1.3l0.1,1.4h0.1c0.5-0.5,0.9-0.8,1.5-1.2c0.5-0.3,1.1-0.5,1.8-0.5c1,0,1.8,0.3,2.2,1
		c0.5,0.6,0.7,1.6,0.7,2.8v6.1h-1.6v-5.9c0-0.9-0.1-1.6-0.4-2c-0.3-0.4-0.8-0.6-1.4-0.6c-0.5,0-0.9,0.1-1.3,0.4
		c-0.4,0.3-0.8,0.6-1.3,1.1v7H336.7z"/>
</g>
</svg>
