<?xml version="1.0" encoding="utf-8"?>
<!-- Generator: Adobe Illustrator 24.1.2, SVG Export Plug-In . SVG Version: 6.00 Build 0)  -->
<svg version="1.1" id="Layer_1" xmlns="http://www.w3.org/2000/svg" xmlns:xlink="http://www.w3.org/1999/xlink" x="0px" y="0px"
	 viewBox="0 0 500 180" style="enable-background:new 0 0 500 180;" xml:space="preserve">
<style type="text/css">
	.st0{fill:#F5F5F5;}
	.st1{fill:#00916A;}
	.st2{fill:#005FC6;}
	.st3{fill:#FFFFFF;}
</style>
<rect id="Rectangle" x="6" class="st0" width="495" height="180"/>
<rect id="Rectangle_1_" class="st1" width="6" height="180"/>
<path id="Shape" class="st1" d="M33.5,12C25,12,18,18.9,18,27.5S24.9,43,33.5,43S49,36.1,49,27.5S42,12,33.5,12z M30.4,35.2
	l-7.7-7.7l2.2-2.2l5.5,5.5L42,19.1l2.2,2.2L30.4,35.2z"/>
<g id="Group" transform="translate(103.000000, 72.000000)">
	<g id="checked">
		<path id="Shape_1_" class="st2" d="M35.8,1.4H10.1C8,1.4,6.4,3.1,6.4,5.1v25.7c0,2.1,1.6,3.7,3.7,3.7h25.7c2.1,0,3.7-1.6,3.7-3.7
			V5.1C39.5,3.1,37.9,1.4,35.8,1.4z"/>
	</g>
	<g id="check-icon" transform="translate(5.000000, 8.000000)">
		<path id="Path" class="st3" d="M16.4,18.9L30.9,4.5c0.5-0.5,0.5-1.2,0-1.8l-1.8-1.8c-0.5-0.5-1.3-0.5-1.8,0L15.5,12.7L9.9,7.1
			c-0.5-0.5-1.2-0.5-1.8,0L6.4,8.9c-0.5,0.5-0.5,1.2,0,1.8l8.3,8.2C15.1,19.4,15.9,19.4,16.4,18.9L16.4,18.9z"/>
	</g>
</g>
<g>
	<path d="M156.4,94.9l4.4-13h1.9l4.4,13h-1.8l-1.2-4h-4.7l-1.2,4H156.4z M160.4,87.6l-0.6,2h3.9l-0.6-2c-0.2-0.7-0.5-1.4-0.7-2.2
		c-0.2-0.7-0.4-1.5-0.6-2.2h-0.1c-0.2,0.8-0.4,1.5-0.6,2.2C160.8,86.2,160.6,86.9,160.4,87.6z"/>
	<path d="M172,99.3c-0.6,0-1.1-0.1-1.6-0.2s-0.9-0.3-1.3-0.5s-0.6-0.5-0.8-0.8s-0.3-0.7-0.3-1.1c0-0.4,0.1-0.8,0.4-1.2
		c0.3-0.4,0.6-0.7,1-1v-0.1c-0.2-0.1-0.4-0.3-0.6-0.6c-0.2-0.3-0.2-0.6-0.2-1c0-0.4,0.1-0.8,0.3-1.1c0.2-0.3,0.5-0.5,0.7-0.7v-0.1
		c-0.3-0.3-0.6-0.6-0.9-1.1c-0.3-0.4-0.4-1-0.4-1.5c0-0.5,0.1-1,0.3-1.4c0.2-0.4,0.5-0.8,0.8-1.1c0.3-0.3,0.7-0.5,1.2-0.7
		c0.4-0.2,0.9-0.2,1.4-0.2c0.3,0,0.5,0,0.7,0.1c0.2,0,0.4,0.1,0.6,0.2h3.3v1.2h-2c0.2,0.2,0.4,0.5,0.6,0.9c0.2,0.3,0.2,0.7,0.2,1.1
		c0,0.5-0.1,1-0.3,1.4c-0.2,0.4-0.4,0.8-0.8,1c-0.3,0.3-0.7,0.5-1.1,0.7c-0.4,0.2-0.9,0.2-1.4,0.2c-0.2,0-0.5,0-0.7-0.1
		c-0.3-0.1-0.5-0.1-0.7-0.2c-0.2,0.1-0.3,0.3-0.4,0.5c-0.1,0.2-0.2,0.4-0.2,0.7c0,0.3,0.1,0.6,0.4,0.8c0.2,0.2,0.7,0.3,1.3,0.3h1.9
		c1.1,0,2,0.2,2.5,0.5c0.6,0.4,0.8,0.9,0.8,1.8c0,0.4-0.1,0.9-0.3,1.3c-0.2,0.4-0.5,0.8-1,1.1c-0.4,0.3-0.9,0.5-1.5,0.7
		C173.4,99.2,172.8,99.3,172,99.3z M172.2,98.2c0.5,0,0.9-0.1,1.3-0.2c0.4-0.1,0.7-0.3,1-0.4c0.3-0.2,0.5-0.4,0.6-0.6
		c0.1-0.2,0.2-0.5,0.2-0.7c0-0.4-0.2-0.8-0.5-0.9c-0.3-0.2-0.8-0.3-1.4-0.3h-1.7c-0.2,0-0.4,0-0.6,0c-0.2,0-0.4-0.1-0.6-0.1
		c-0.3,0.3-0.6,0.5-0.8,0.8c-0.2,0.3-0.2,0.6-0.2,0.8c0,0.5,0.2,0.9,0.7,1.2C170.7,98.1,171.4,98.2,172.2,98.2z M172,90.8
		c0.3,0,0.5-0.1,0.8-0.2c0.2-0.1,0.5-0.3,0.7-0.5c0.2-0.2,0.3-0.4,0.4-0.7c0.1-0.3,0.2-0.6,0.2-1c0-0.7-0.2-1.3-0.6-1.7
		s-0.9-0.6-1.4-0.6c-0.6,0-1,0.2-1.4,0.6s-0.6,0.9-0.6,1.7c0,0.4,0.1,0.7,0.2,1c0.1,0.3,0.3,0.5,0.4,0.7c0.2,0.2,0.4,0.4,0.7,0.5
		S171.7,90.8,172,90.8z"/>
	<path d="M178.7,94.9v-9.6h1.3l0.1,1.7h0.1c0.3-0.6,0.7-1.1,1.2-1.4c0.5-0.4,1-0.5,1.5-0.5c0.4,0,0.7,0.1,1,0.2l-0.3,1.4
		c-0.2-0.1-0.3-0.1-0.4-0.1c-0.1,0-0.3,0-0.5,0c-0.4,0-0.8,0.2-1.3,0.5c-0.4,0.3-0.8,0.9-1.2,1.7v6.2H178.7z"/>
	<path d="M189.3,95.1c-0.6,0-1.3-0.1-1.8-0.3c-0.6-0.2-1-0.6-1.5-1s-0.7-1-1-1.6c-0.2-0.6-0.4-1.3-0.4-2.1s0.1-1.5,0.4-2.1
		c0.2-0.6,0.6-1.2,1-1.6c0.4-0.4,0.9-0.8,1.4-1c0.5-0.2,1-0.3,1.6-0.3c0.6,0,1.2,0.1,1.6,0.3c0.5,0.2,0.9,0.5,1.2,0.9
		c0.3,0.4,0.6,0.9,0.7,1.4c0.2,0.6,0.3,1.2,0.3,1.9c0,0.2,0,0.3,0,0.5c0,0.2,0,0.3,0,0.4h-6.5c0.1,1,0.4,1.8,1,2.4
		c0.6,0.6,1.3,0.9,2.2,0.9c0.5,0,0.9-0.1,1.3-0.2c0.4-0.1,0.8-0.3,1.1-0.5l0.6,1.1c-0.4,0.3-0.9,0.5-1.4,0.7S190,95.1,189.3,95.1z
		 M186.3,89.3h5.1c0-1-0.2-1.7-0.6-2.2s-1-0.8-1.8-0.8c-0.3,0-0.7,0.1-1,0.2c-0.3,0.1-0.6,0.3-0.8,0.6c-0.3,0.3-0.5,0.6-0.6,0.9
		C186.4,88.4,186.3,88.8,186.3,89.3z"/>
	<path d="M199.1,95.1c-0.6,0-1.3-0.1-1.8-0.3c-0.6-0.2-1-0.6-1.5-1s-0.7-1-1-1.6c-0.2-0.6-0.4-1.3-0.4-2.1s0.1-1.5,0.4-2.1
		c0.2-0.6,0.6-1.2,1-1.6c0.4-0.4,0.9-0.8,1.4-1c0.5-0.2,1-0.3,1.6-0.3c0.6,0,1.2,0.1,1.6,0.3c0.5,0.2,0.9,0.5,1.2,0.9
		c0.3,0.4,0.6,0.9,0.7,1.4c0.2,0.6,0.3,1.2,0.3,1.9c0,0.2,0,0.3,0,0.5c0,0.2,0,0.3,0,0.4h-6.5c0.1,1,0.4,1.8,1,2.4
		c0.6,0.6,1.3,0.9,2.2,0.9c0.5,0,0.9-0.1,1.3-0.2c0.4-0.1,0.8-0.3,1.1-0.5l0.6,1.1c-0.4,0.3-0.9,0.5-1.4,0.7S199.8,95.1,199.1,95.1z
		 M196.1,89.3h5.1c0-1-0.2-1.7-0.6-2.2s-1-0.8-1.8-0.8c-0.3,0-0.7,0.1-1,0.2c-0.3,0.1-0.6,0.3-0.8,0.6c-0.3,0.3-0.5,0.6-0.6,0.9
		C196.2,88.4,196.1,88.8,196.1,89.3z"/>
	<path d="M212,95.1c-0.5,0-0.9-0.1-1.3-0.2s-0.6-0.4-0.9-0.7s-0.4-0.6-0.5-1c-0.1-0.4-0.1-0.8-0.1-1.3v-5.3h-1.4v-1.2l1.5-0.1
		l0.2-2.7h1.4v2.7h2.6v1.3h-2.6V92c0,0.6,0.1,1.1,0.3,1.4s0.6,0.5,1.2,0.5c0.2,0,0.4,0,0.6-0.1s0.4-0.1,0.5-0.2l0.3,1.2
		c-0.3,0.1-0.6,0.2-0.9,0.2C212.6,95.1,212.3,95.1,212,95.1z"/>
	<path d="M219.1,95.1c-0.6,0-1.2-0.1-1.7-0.3c-0.5-0.2-1-0.6-1.4-1c-0.4-0.4-0.7-1-1-1.6c-0.2-0.6-0.4-1.3-0.4-2.1
		c0-0.8,0.1-1.5,0.4-2.1c0.2-0.6,0.6-1.2,1-1.6s0.9-0.8,1.4-1c0.5-0.2,1.1-0.3,1.7-0.3s1.2,0.1,1.7,0.3c0.5,0.2,1,0.6,1.4,1
		c0.4,0.4,0.7,1,1,1.6c0.2,0.6,0.4,1.3,0.4,2.1c0,0.8-0.1,1.5-0.4,2.1c-0.2,0.6-0.6,1.2-1,1.6c-0.4,0.4-0.9,0.8-1.4,1
		C220.3,95,219.7,95.1,219.1,95.1z M219.1,93.8c0.4,0,0.8-0.1,1.1-0.3c0.3-0.2,0.6-0.4,0.9-0.8c0.2-0.3,0.4-0.7,0.6-1.2
		c0.1-0.4,0.2-1,0.2-1.5c0-0.6-0.1-1.1-0.2-1.5s-0.3-0.8-0.6-1.2c-0.2-0.3-0.5-0.6-0.9-0.8c-0.3-0.2-0.7-0.3-1.1-0.3
		c-0.4,0-0.8,0.1-1.1,0.3c-0.3,0.2-0.6,0.4-0.9,0.8c-0.2,0.3-0.4,0.7-0.6,1.2s-0.2,1-0.2,1.5c0,0.6,0.1,1.1,0.2,1.5
		c0.1,0.4,0.3,0.8,0.6,1.2s0.5,0.6,0.9,0.8C218.4,93.7,218.7,93.8,219.1,93.8z"/>
	<path d="M233.1,95.1c-0.5,0-0.9-0.1-1.3-0.2c-0.4-0.2-0.6-0.4-0.9-0.7s-0.4-0.6-0.5-1c-0.1-0.4-0.1-0.8-0.1-1.3v-5.3h-1.4v-1.2
		l1.5-0.1l0.2-2.7h1.4v2.7h2.6v1.3H232V92c0,0.6,0.1,1.1,0.3,1.4s0.6,0.5,1.2,0.5c0.2,0,0.4,0,0.6-0.1s0.4-0.1,0.5-0.2l0.3,1.2
		c-0.3,0.1-0.6,0.2-0.9,0.2C233.7,95.1,233.4,95.1,233.1,95.1z"/>
	<path d="M240.4,95.1c-0.6,0-1.2-0.1-1.8-0.3c-0.6-0.2-1-0.6-1.5-1c-0.4-0.4-0.7-1-1-1.6s-0.4-1.3-0.4-2.1s0.1-1.5,0.4-2.1
		s0.6-1.2,1-1.6c0.4-0.4,0.9-0.8,1.4-1c0.5-0.2,1-0.3,1.6-0.3c0.6,0,1.2,0.1,1.6,0.3s0.9,0.5,1.2,0.9c0.3,0.4,0.6,0.9,0.7,1.4
		c0.2,0.6,0.3,1.2,0.3,1.9c0,0.2,0,0.3,0,0.5s0,0.3,0,0.4h-6.5c0.1,1,0.4,1.8,1,2.4s1.3,0.9,2.2,0.9c0.5,0,0.9-0.1,1.3-0.2
		c0.4-0.1,0.8-0.3,1.1-0.5l0.6,1.1c-0.4,0.3-0.9,0.5-1.4,0.7S241.1,95.1,240.4,95.1z M237.4,89.3h5.1c0-1-0.2-1.7-0.6-2.2
		c-0.4-0.5-1-0.8-1.8-0.8c-0.3,0-0.7,0.1-1,0.2c-0.3,0.1-0.6,0.3-0.8,0.6c-0.3,0.3-0.5,0.6-0.6,0.9S237.4,88.8,237.4,89.3z"/>
	<path d="M246.3,94.9v-9.6h1.3l0.1,1.7h0.1c0.3-0.6,0.7-1.1,1.2-1.4c0.5-0.4,1-0.5,1.5-0.5c0.4,0,0.7,0.1,1,0.2l-0.3,1.4
		c-0.2-0.1-0.3-0.1-0.4-0.1c-0.1,0-0.3,0-0.5,0c-0.4,0-0.8,0.2-1.3,0.5c-0.4,0.3-0.8,0.9-1.2,1.7v6.2H246.3z"/>
	<path d="M253.2,94.9v-9.6h1.3l0.1,1.4h0.1c0.4-0.5,0.9-0.8,1.4-1.2c0.5-0.3,1-0.5,1.6-0.5c0.7,0,1.3,0.2,1.7,0.5
		c0.4,0.3,0.7,0.8,0.9,1.4c0.5-0.6,1-1,1.5-1.3c0.5-0.3,1.1-0.5,1.7-0.5c1,0,1.7,0.3,2.2,1c0.5,0.6,0.7,1.6,0.7,2.8v6.1h-1.6V89
		c0-0.9-0.1-1.6-0.4-2c-0.3-0.4-0.7-0.6-1.3-0.6c-0.7,0-1.5,0.5-2.4,1.5v7H259V89c0-0.9-0.1-1.6-0.4-2c-0.3-0.4-0.7-0.6-1.4-0.6
		c-0.7,0-1.5,0.5-2.4,1.5v7H253.2z"/>
	<path d="M272.1,95.1c-0.7,0-1.3-0.1-2-0.4c-0.6-0.2-1.2-0.6-1.6-1l0.8-1.1c0.4,0.3,0.9,0.6,1.3,0.8s1,0.3,1.5,0.3
		c0.6,0,1.1-0.1,1.4-0.4c0.3-0.3,0.5-0.6,0.5-1.1c0-0.3-0.1-0.5-0.2-0.7s-0.3-0.3-0.5-0.5c-0.2-0.1-0.4-0.3-0.7-0.4
		c-0.3-0.1-0.5-0.2-0.8-0.3c-0.3-0.1-0.7-0.3-1-0.4c-0.3-0.2-0.7-0.3-0.9-0.6c-0.3-0.2-0.5-0.5-0.7-0.8c-0.2-0.3-0.3-0.6-0.3-1
		c0-0.4,0.1-0.7,0.2-1.1c0.2-0.3,0.4-0.6,0.7-0.9c0.3-0.2,0.6-0.4,1-0.6s0.9-0.2,1.4-0.2c0.6,0,1.2,0.1,1.7,0.3
		c0.5,0.2,0.9,0.5,1.3,0.8l-0.8,1c-0.3-0.3-0.7-0.5-1-0.6s-0.7-0.2-1.2-0.2c-0.6,0-1.1,0.1-1.3,0.4c-0.3,0.3-0.4,0.6-0.4,1
		c0,0.2,0.1,0.4,0.2,0.6c0.1,0.2,0.3,0.3,0.5,0.4c0.2,0.1,0.4,0.2,0.7,0.3c0.3,0.1,0.5,0.2,0.8,0.3c0.3,0.1,0.7,0.3,1,0.4
		c0.3,0.1,0.7,0.3,0.9,0.5c0.3,0.2,0.5,0.5,0.7,0.8c0.2,0.3,0.3,0.7,0.3,1.1c0,0.4-0.1,0.8-0.2,1.1c-0.2,0.3-0.4,0.6-0.7,0.9
		c-0.3,0.3-0.7,0.5-1.1,0.6S272.7,95.1,272.1,95.1z"/>
	<path d="M284.1,95.1c-0.8,0-1.5-0.2-2-0.7c-0.5-0.5-0.8-1.1-0.8-2c0-1.1,0.5-1.9,1.4-2.4c0.9-0.6,2.4-1,4.5-1.2
		c0-0.3,0-0.6-0.1-0.9s-0.2-0.5-0.3-0.8c-0.1-0.2-0.3-0.4-0.6-0.5c-0.3-0.1-0.6-0.2-1-0.2c-0.6,0-1.1,0.1-1.6,0.3
		c-0.5,0.2-0.9,0.4-1.3,0.7l-0.6-1.1c0.4-0.3,1-0.6,1.6-0.8c0.6-0.3,1.4-0.4,2.1-0.4c1.2,0,2,0.4,2.6,1.1c0.5,0.7,0.8,1.7,0.8,2.9
		v5.9h-1.3l-0.1-1.1h-0.1c-0.5,0.4-1,0.7-1.5,1C285.2,95,284.7,95.1,284.1,95.1z M284.5,93.8c0.5,0,0.9-0.1,1.3-0.3
		c0.4-0.2,0.8-0.5,1.3-1v-2.7c-0.8,0.1-1.5,0.2-2,0.4c-0.5,0.1-1,0.3-1.3,0.5c-0.3,0.2-0.6,0.4-0.7,0.7c-0.2,0.3-0.2,0.5-0.2,0.8
		c0,0.6,0.2,1,0.5,1.2C283.7,93.7,284.1,93.8,284.5,93.8z"/>
	<path d="M291.8,94.9v-9.6h1.3l0.1,1.4h0.1c0.5-0.5,0.9-0.8,1.5-1.2c0.5-0.3,1.1-0.5,1.8-0.5c1,0,1.8,0.3,2.2,1
		c0.5,0.6,0.7,1.6,0.7,2.8v6.1h-1.6V89c0-0.9-0.1-1.6-0.4-2c-0.3-0.4-0.8-0.6-1.4-0.6c-0.5,0-0.9,0.1-1.3,0.4
		c-0.4,0.3-0.8,0.6-1.3,1.1v7H291.8z"/>
	<path d="M305.9,95.1c-1.2,0-2.2-0.4-2.9-1.3c-0.7-0.9-1.1-2.1-1.1-3.7c0-0.8,0.1-1.5,0.3-2.1c0.2-0.6,0.5-1.2,0.9-1.6
		s0.8-0.8,1.3-1c0.5-0.2,1-0.4,1.6-0.4c0.6,0,1,0.1,1.4,0.3s0.8,0.5,1.2,0.8l-0.1-1.6v-3.7h1.6v14.1h-1.3l-0.1-1.1h-0.1
		c-0.4,0.4-0.8,0.7-1.3,1C307,95,306.5,95.1,305.9,95.1z M306.3,93.8c0.4,0,0.9-0.1,1.3-0.3s0.8-0.6,1.2-1v-5
		c-0.4-0.4-0.8-0.6-1.2-0.8c-0.4-0.2-0.8-0.2-1.2-0.2c-0.4,0-0.7,0.1-1.1,0.3c-0.3,0.2-0.6,0.4-0.9,0.8c-0.3,0.3-0.4,0.7-0.6,1.2
		c-0.1,0.4-0.2,1-0.2,1.5c0,1.2,0.2,2.1,0.7,2.7C304.8,93.5,305.5,93.8,306.3,93.8z"/>
	<path d="M321.4,95.1c-0.6,0-1.2-0.1-1.8-0.3c-0.6-0.2-1-0.6-1.4-1c-0.4-0.4-0.7-1-1-1.6s-0.3-1.3-0.3-2.1c0-0.8,0.1-1.5,0.4-2.1
		c0.2-0.6,0.6-1.2,1-1.6c0.4-0.4,0.9-0.8,1.5-1c0.6-0.2,1.2-0.3,1.8-0.3c0.6,0,1.2,0.1,1.6,0.3c0.4,0.2,0.8,0.5,1.2,0.8l-0.8,1.1
		c-0.3-0.3-0.6-0.5-0.9-0.6c-0.3-0.2-0.7-0.2-1-0.2c-0.4,0-0.8,0.1-1.2,0.3c-0.4,0.2-0.7,0.4-1,0.8c-0.3,0.3-0.5,0.7-0.6,1.2
		c-0.2,0.5-0.2,1-0.2,1.5c0,0.6,0.1,1.1,0.2,1.5c0.1,0.4,0.3,0.8,0.6,1.2c0.3,0.3,0.6,0.6,0.9,0.8c0.4,0.2,0.8,0.3,1.2,0.3
		c0.4,0,0.9-0.1,1.2-0.3c0.4-0.2,0.7-0.4,1-0.7l0.7,1.1c-0.4,0.4-0.9,0.7-1.4,0.9C322.5,95,322,95.1,321.4,95.1z"/>
	<path d="M330,95.1c-0.6,0-1.2-0.1-1.7-0.3c-0.5-0.2-1-0.6-1.4-1c-0.4-0.4-0.7-1-1-1.6s-0.4-1.3-0.4-2.1c0-0.8,0.1-1.5,0.4-2.1
		s0.6-1.2,1-1.6c0.4-0.4,0.9-0.8,1.4-1c0.5-0.2,1.1-0.3,1.7-0.3s1.2,0.1,1.7,0.3c0.5,0.2,1,0.6,1.4,1s0.7,1,1,1.6
		c0.2,0.6,0.4,1.3,0.4,2.1c0,0.8-0.1,1.5-0.4,2.1c-0.2,0.6-0.6,1.2-1,1.6c-0.4,0.4-0.9,0.8-1.4,1C331.1,95,330.5,95.1,330,95.1z
		 M330,93.8c0.4,0,0.8-0.1,1.1-0.3c0.3-0.2,0.6-0.4,0.9-0.8s0.4-0.7,0.6-1.2c0.1-0.4,0.2-1,0.2-1.5c0-0.6-0.1-1.1-0.2-1.5
		s-0.3-0.8-0.6-1.2c-0.2-0.3-0.5-0.6-0.9-0.8c-0.3-0.2-0.7-0.3-1.1-0.3s-0.8,0.1-1.1,0.3c-0.3,0.2-0.6,0.4-0.9,0.8
		c-0.2,0.3-0.4,0.7-0.6,1.2s-0.2,1-0.2,1.5c0,0.6,0.1,1.1,0.2,1.5c0.1,0.4,0.3,0.8,0.6,1.2c0.2,0.3,0.5,0.6,0.9,0.8
		C329.2,93.7,329.5,93.8,330,93.8z"/>
	<path d="M336.9,94.9v-9.6h1.3l0.1,1.4h0.1c0.5-0.5,0.9-0.8,1.5-1.2c0.5-0.3,1.1-0.5,1.8-0.5c1,0,1.8,0.3,2.2,1
		c0.5,0.6,0.7,1.6,0.7,2.8v6.1H343V89c0-0.9-0.1-1.6-0.4-2c-0.3-0.4-0.8-0.6-1.4-0.6c-0.5,0-0.9,0.1-1.3,0.4
		c-0.4,0.3-0.8,0.6-1.3,1.1v7H336.9z"/>
	<path d="M351.1,95.1c-1.2,0-2.2-0.4-2.9-1.3c-0.7-0.9-1.1-2.1-1.1-3.7c0-0.8,0.1-1.5,0.3-2.1c0.2-0.6,0.5-1.2,0.9-1.6
		s0.8-0.8,1.3-1c0.5-0.2,1-0.4,1.6-0.4c0.6,0,1,0.1,1.4,0.3s0.8,0.5,1.2,0.8l-0.1-1.6v-3.7h1.6v14.1h-1.3l-0.1-1.1H354
		c-0.4,0.4-0.8,0.7-1.3,1C352.2,95,351.6,95.1,351.1,95.1z M351.4,93.8c0.4,0,0.9-0.1,1.3-0.3s0.8-0.6,1.2-1v-5
		c-0.4-0.4-0.8-0.6-1.2-0.8c-0.4-0.2-0.8-0.2-1.2-0.2c-0.4,0-0.7,0.1-1.1,0.3c-0.3,0.2-0.6,0.4-0.9,0.8c-0.3,0.3-0.4,0.7-0.6,1.2
		c-0.1,0.4-0.2,1-0.2,1.5c0,1.2,0.2,2.1,0.7,2.7C349.9,93.5,350.6,93.8,351.4,93.8z"/>
	<path d="M359.6,83.3c-0.3,0-0.6-0.1-0.8-0.3c-0.2-0.2-0.3-0.4-0.3-0.8c0-0.3,0.1-0.6,0.3-0.8c0.2-0.2,0.5-0.3,0.8-0.3
		c0.3,0,0.6,0.1,0.8,0.3c0.2,0.2,0.3,0.4,0.3,0.8c0,0.3-0.1,0.6-0.3,0.8S359.9,83.3,359.6,83.3z M358.8,94.9v-9.6h1.6v9.6H358.8z"/>
	<path d="M366.7,95.1c-0.5,0-0.9-0.1-1.3-0.2c-0.4-0.2-0.6-0.4-0.9-0.7s-0.4-0.6-0.5-1c-0.1-0.4-0.1-0.8-0.1-1.3v-5.3h-1.4v-1.2
		l1.5-0.1l0.2-2.7h1.4v2.7h2.6v1.3h-2.6V92c0,0.6,0.1,1.1,0.3,1.4s0.6,0.5,1.2,0.5c0.2,0,0.4,0,0.6-0.1s0.4-0.1,0.5-0.2l0.3,1.2
		c-0.3,0.1-0.6,0.2-0.9,0.2C367.3,95.1,367,95.1,366.7,95.1z"/>
	<path d="M371.1,83.3c-0.3,0-0.6-0.1-0.8-0.3c-0.2-0.2-0.3-0.4-0.3-0.8c0-0.3,0.1-0.6,0.3-0.8c0.2-0.2,0.5-0.3,0.8-0.3
		c0.3,0,0.6,0.1,0.8,0.3c0.2,0.2,0.3,0.4,0.3,0.8c0,0.3-0.1,0.6-0.3,0.8S371.5,83.3,371.1,83.3z M370.3,94.9v-9.6h1.6v9.6H370.3z"/>
	<path d="M378.9,95.1c-0.6,0-1.2-0.1-1.7-0.3c-0.5-0.2-1-0.6-1.4-1c-0.4-0.4-0.7-1-1-1.6s-0.4-1.3-0.4-2.1c0-0.8,0.1-1.5,0.4-2.1
		s0.6-1.2,1-1.6c0.4-0.4,0.9-0.8,1.4-1c0.5-0.2,1.1-0.3,1.7-0.3s1.2,0.1,1.7,0.3c0.5,0.2,1,0.6,1.4,1s0.7,1,1,1.6
		c0.2,0.6,0.4,1.3,0.4,2.1c0,0.8-0.1,1.5-0.4,2.1c-0.2,0.6-0.6,1.2-1,1.6c-0.4,0.4-0.9,0.8-1.4,1C380.1,95,379.5,95.1,378.9,95.1z
		 M378.9,93.8c0.4,0,0.8-0.1,1.1-0.3c0.3-0.2,0.6-0.4,0.9-0.8s0.4-0.7,0.6-1.2c0.1-0.4,0.2-1,0.2-1.5c0-0.6-0.1-1.1-0.2-1.5
		s-0.3-0.8-0.6-1.2c-0.2-0.3-0.5-0.6-0.9-0.8c-0.3-0.2-0.7-0.3-1.1-0.3s-0.8,0.1-1.1,0.3c-0.3,0.2-0.6,0.4-0.9,0.8
		c-0.2,0.3-0.4,0.7-0.6,1.2s-0.2,1-0.2,1.5c0,0.6,0.1,1.1,0.2,1.5c0.1,0.4,0.3,0.8,0.6,1.2c0.2,0.3,0.5,0.6,0.9,0.8
		C378.1,93.7,378.5,93.8,378.9,93.8z"/>
	<path d="M385.9,94.9v-9.6h1.3l0.1,1.4h0.1c0.5-0.5,0.9-0.8,1.5-1.2c0.5-0.3,1.1-0.5,1.8-0.5c1,0,1.8,0.3,2.2,1
		c0.5,0.6,0.7,1.6,0.7,2.8v6.1H392V89c0-0.9-0.1-1.6-0.4-2c-0.3-0.4-0.8-0.6-1.4-0.6c-0.5,0-0.9,0.1-1.3,0.4
		c-0.4,0.3-0.8,0.6-1.3,1.1v7H385.9z"/>
	<path d="M399.3,95.1c-0.7,0-1.3-0.1-2-0.4c-0.6-0.2-1.2-0.6-1.6-1l0.8-1.1c0.4,0.3,0.9,0.6,1.3,0.8s1,0.3,1.5,0.3
		c0.6,0,1.1-0.1,1.4-0.4c0.3-0.3,0.5-0.6,0.5-1.1c0-0.3-0.1-0.5-0.2-0.7s-0.3-0.3-0.5-0.5c-0.2-0.1-0.4-0.3-0.7-0.4
		c-0.3-0.1-0.5-0.2-0.8-0.3c-0.3-0.1-0.7-0.3-1-0.4c-0.3-0.2-0.7-0.3-0.9-0.6c-0.3-0.2-0.5-0.5-0.7-0.8c-0.2-0.3-0.3-0.6-0.3-1
		c0-0.4,0.1-0.7,0.2-1.1c0.2-0.3,0.4-0.6,0.7-0.9c0.3-0.2,0.6-0.4,1-0.6s0.9-0.2,1.4-0.2c0.6,0,1.2,0.1,1.7,0.3
		c0.5,0.2,0.9,0.5,1.3,0.8l-0.8,1c-0.3-0.3-0.7-0.5-1-0.6s-0.7-0.2-1.2-0.2c-0.6,0-1.1,0.1-1.3,0.4c-0.3,0.3-0.4,0.6-0.4,1
		c0,0.2,0.1,0.4,0.2,0.6c0.1,0.2,0.3,0.3,0.5,0.4c0.2,0.1,0.4,0.2,0.7,0.3c0.3,0.1,0.5,0.2,0.8,0.3c0.3,0.1,0.7,0.3,1,0.4
		c0.3,0.1,0.7,0.3,0.9,0.5c0.3,0.2,0.5,0.5,0.7,0.8c0.2,0.3,0.3,0.7,0.3,1.1c0,0.4-0.1,0.8-0.2,1.1c-0.2,0.3-0.4,0.6-0.7,0.9
		c-0.3,0.3-0.7,0.5-1.1,0.6S399.8,95.1,399.3,95.1z"/>
</g>
</svg>
