<svg id="Layer_1" data-name="Layer 1" xmlns="http://www.w3.org/2000/svg" viewBox="0 0 480 240"><defs><style>.cls-1{fill:#00916a;}.cls-2{fill:#f5f5f5;}.cls-3,.cls-5,.cls-6{fill:none;stroke-miterlimit:10;}.cls-3{stroke:#005fc6;stroke-width:2px;}.cls-4{fill:#005fc6;}.cls-5{stroke:#6e7272;}.cls-6{stroke:#000;}</style></defs><rect class="cls-1" width="6" height="240"/><rect class="cls-2" x="6" width="474" height="240"/><path class="cls-1" d="M32.4,10.2A15.7,15.7,0,1,0,48.1,25.9,15.73,15.73,0,0,0,32.4,10.2ZM29.3,33.7l-7.8-7.8,2.2-2.2,5.6,5.6L41.1,17.4l2.2,2.2Z"/><rect class="cls-3" x="83" y="134.25" width="320" height="54" rx="4"/><rect class="cls-2" x="94.7" y="131.17" width="68" height="5.45"/><path class="cls-4" d="M101.24,138.62v-9.19h2.62a6.88,6.88,0,0,1,1.41.14,3.12,3.12,0,0,1,1.08.46,2.18,2.18,0,0,1,.7.83,2.89,2.89,0,0,1,.25,1.28,3.08,3.08,0,0,1-.24,1.26,2.32,2.32,0,0,1-.7.88,2.89,2.89,0,0,1-1.07.52,4.91,4.91,0,0,1-1.38.18H102.4v3.64ZM102.4,134h1.37a2.91,2.91,0,0,0,1.79-.46,1.69,1.69,0,0,0,.58-1.43,1.49,1.49,0,0,0-.61-1.38,3.38,3.38,0,0,0-1.81-.39H102.4Z"/><path class="cls-4" d="M110,138.79a2,2,0,0,1-1.42-.51,1.8,1.8,0,0,1-.57-1.43,1.89,1.89,0,0,1,1-1.71,8.26,8.26,0,0,1,3.18-.83,3.21,3.21,0,0,0-.06-.63,1.41,1.41,0,0,0-.22-.55,1,1,0,0,0-.42-.38,1.48,1.48,0,0,0-.7-.15,2.7,2.7,0,0,0-1.1.22,5.11,5.11,0,0,0-.93.51l-.44-.8a6.54,6.54,0,0,1,1.16-.6,3.87,3.87,0,0,1,1.51-.28,2.1,2.1,0,0,1,1.81.76,3.4,3.4,0,0,1,.55,2v4.17h-1l-.1-.81h0a5.29,5.29,0,0,1-1,.69A2.59,2.59,0,0,1,110,138.79Zm.33-.93a1.89,1.89,0,0,0,.93-.23,4.24,4.24,0,0,0,.92-.68v-1.89a13.21,13.21,0,0,0-1.43.27,3.7,3.7,0,0,0-.94.36,1.37,1.37,0,0,0-.52.49,1.11,1.11,0,0,0-.16.59,1,1,0,0,0,.35.84A1.4,1.4,0,0,0,110.35,137.86Z"/><path class="cls-4" d="M117.28,138.79a3.61,3.61,0,0,1-1.38-.27,4.46,4.46,0,0,1-1.15-.67l.57-.77a4.92,4.92,0,0,0,.92.59,2.5,2.5,0,0,0,1.09.22,1.41,1.41,0,0,0,1-.31,1,1,0,0,0,.34-.75.84.84,0,0,0-.14-.47,1.31,1.31,0,0,0-.36-.34,2.82,2.82,0,0,0-.49-.26l-.56-.22c-.25-.09-.49-.18-.73-.29a3.2,3.2,0,0,1-.65-.39,1.87,1.87,0,0,1-.47-.54,1.45,1.45,0,0,1-.18-.74,1.76,1.76,0,0,1,.16-.76,1.65,1.65,0,0,1,.46-.62,2.35,2.35,0,0,1,.73-.41,3.33,3.33,0,0,1,1-.14,3.06,3.06,0,0,1,1.18.22,3.52,3.52,0,0,1,.93.55l-.55.72a3.81,3.81,0,0,0-.72-.43,2.09,2.09,0,0,0-.83-.17,1.3,1.3,0,0,0-1,.3.91.91,0,0,0-.3.68.63.63,0,0,0,.13.41,1.09,1.09,0,0,0,.33.31,2.79,2.79,0,0,0,.49.24l.56.22.74.29a2.67,2.67,0,0,1,.66.39,1.89,1.89,0,0,1,.49.56,1.74,1.74,0,0,1,.19.82,2,2,0,0,1-.16.78,1.86,1.86,0,0,1-.48.64,2.29,2.29,0,0,1-.78.45A3.56,3.56,0,0,1,117.28,138.79Z"/><path class="cls-4" d="M123.15,138.79a3.57,3.57,0,0,1-1.38-.27,4.29,4.29,0,0,1-1.15-.67l.57-.77a4.92,4.92,0,0,0,.92.59,2.45,2.45,0,0,0,1.08.22,1.42,1.42,0,0,0,1-.31,1,1,0,0,0,.34-.75.84.84,0,0,0-.14-.47A1.47,1.47,0,0,0,124,136a2.6,2.6,0,0,0-.5-.26l-.56-.22c-.24-.09-.48-.18-.72-.29a3.28,3.28,0,0,1-.66-.39,1.84,1.84,0,0,1-.46-.54,1.36,1.36,0,0,1-.19-.74,1.91,1.91,0,0,1,.16-.76,1.79,1.79,0,0,1,.47-.62,2.24,2.24,0,0,1,.73-.41,3.31,3.31,0,0,1,1-.14,3,3,0,0,1,1.18.22,3.52,3.52,0,0,1,.93.55l-.54.72a3.88,3.88,0,0,0-.73-.43,2,2,0,0,0-.82-.17,1.3,1.3,0,0,0-1,.3.91.91,0,0,0-.3.68.63.63,0,0,0,.13.41,1,1,0,0,0,.33.31,2.69,2.69,0,0,0,.48.24l.57.22.74.29a3.1,3.1,0,0,1,.66.39,1.73,1.73,0,0,1,.48.56,1.63,1.63,0,0,1,.19.82,1.86,1.86,0,0,1-.63,1.42,2.33,2.33,0,0,1-.79.45A3.49,3.49,0,0,1,123.15,138.79Z"/><path class="cls-4" d="M128.32,138.62l-1.89-6.81h1.17l1,3.94c.08.33.15.64.21.95s.13.62.2.94h0c.08-.32.15-.63.23-.95s.15-.62.23-.94l1.05-3.94h1.12l1.07,3.94c.08.33.16.64.24.95s.16.62.23.94h.06l.21-.94c.07-.31.14-.62.21-.95l1-3.94h1.1L134,138.62h-1.4l-1-3.66c-.09-.32-.16-.64-.23-1s-.15-.65-.24-1h0c-.08.34-.15.67-.23,1s-.15.64-.25,1l-1,3.64Z"/><path class="cls-4" d="M139.88,138.79a3.06,3.06,0,0,1-1.2-.24,3,3,0,0,1-1-.7,3.27,3.27,0,0,1-.69-1.11,4.54,4.54,0,0,1,0-3,3.46,3.46,0,0,1,.69-1.13,3.12,3.12,0,0,1,1-.7,3.25,3.25,0,0,1,2.4,0,3,3,0,0,1,1,.7,3.46,3.46,0,0,1,.69,1.13,4.54,4.54,0,0,1,0,3,3.27,3.27,0,0,1-.69,1.11,2.88,2.88,0,0,1-1,.7A3.06,3.06,0,0,1,139.88,138.79Zm0-1a1.77,1.77,0,0,0,.8-.18,1.88,1.88,0,0,0,.62-.54,2.41,2.41,0,0,0,.4-.82,3.83,3.83,0,0,0,.14-1.06,4,4,0,0,0-.14-1.07,2.56,2.56,0,0,0-.4-.83,1.68,1.68,0,0,0-.62-.54,1.78,1.78,0,0,0-1.6,0,1.68,1.68,0,0,0-.62.54,2.56,2.56,0,0,0-.4.83,4,4,0,0,0-.14,1.07,3.83,3.83,0,0,0,.14,1.06,2.41,2.41,0,0,0,.4.82,1.88,1.88,0,0,0,.62.54A1.77,1.77,0,0,0,139.88,137.83Z"/><path class="cls-4" d="M144.82,138.62v-6.81h1l.1,1.24h0a3.37,3.37,0,0,1,.85-1,1.75,1.75,0,0,1,1.09-.37,1.65,1.65,0,0,1,.72.14l-.22,1-.31-.08a1.69,1.69,0,0,0-.35,0,1.53,1.53,0,0,0-.9.35,2.82,2.82,0,0,0-.82,1.22v4.37Z"/><path class="cls-4" d="M151.86,138.79a2.53,2.53,0,0,1-2.05-.93,4,4,0,0,1-.76-2.63,4.12,4.12,0,0,1,.25-1.49,3.56,3.56,0,0,1,.65-1.13,2.88,2.88,0,0,1,.93-.71,2.58,2.58,0,0,1,1.12-.25,2.34,2.34,0,0,1,1,.21,5,5,0,0,1,.88.57l-.06-1.16v-2.62H155v10h-.95l-.1-.8h0a4.28,4.28,0,0,1-.93.68A2.32,2.32,0,0,1,151.86,138.79Zm.26-1a1.87,1.87,0,0,0,.89-.23,3.31,3.31,0,0,0,.84-.71v-3.55a3.11,3.11,0,0,0-.83-.56,2.34,2.34,0,0,0-.82-.16,1.68,1.68,0,0,0-.76.19,2,2,0,0,0-.63.53,3.16,3.16,0,0,0-.42.82,3.55,3.55,0,0,0-.15,1.07,3.19,3.19,0,0,0,.49,1.91A1.61,1.61,0,0,0,152.12,137.82Z"/><rect class="cls-5" x="83" y="53.97" width="320" height="54" rx="4"/><rect class="cls-2" x="94.7" y="51.24" width="73" height="5.45"/><path d="M105.76,58.86a4.33,4.33,0,0,1-1.31-.2,2.66,2.66,0,0,1-1-.67,3.38,3.38,0,0,1-.69-1.23,5.85,5.85,0,0,1-.25-1.86V49.51h1.16v5.42a4.9,4.9,0,0,0,.17,1.38,2.37,2.37,0,0,0,.45.9,1.77,1.77,0,0,0,.68.48,2.32,2.32,0,0,0,.84.15,2.43,2.43,0,0,0,.86-.15,1.69,1.69,0,0,0,.68-.48,2.38,2.38,0,0,0,.47-.9,4.93,4.93,0,0,0,.16-1.38V49.51h1.12V54.9a5.85,5.85,0,0,1-.25,1.86,3.38,3.38,0,0,1-.69,1.23,2.59,2.59,0,0,1-1,.67A4.17,4.17,0,0,1,105.76,58.86Z"/><path d="M113.14,58.86a3.81,3.81,0,0,1-1.39-.26,4.42,4.42,0,0,1-1.14-.68l.57-.77a4.21,4.21,0,0,0,.92.59,2.45,2.45,0,0,0,1.08.23,1.47,1.47,0,0,0,1-.31,1,1,0,0,0,.34-.76.78.78,0,0,0-.14-.46,1.46,1.46,0,0,0-.36-.34,2.36,2.36,0,0,0-.5-.26l-.56-.23c-.24-.08-.48-.18-.73-.28a2.83,2.83,0,0,1-.65-.4,2.16,2.16,0,0,1-.47-.53,1.49,1.49,0,0,1-.18-.75,2,2,0,0,1,.16-.76,1.86,1.86,0,0,1,.46-.62,2.38,2.38,0,0,1,.74-.4,3.2,3.2,0,0,1,2.16.08,3.79,3.79,0,0,1,.93.54l-.54.73a3.67,3.67,0,0,0-.73-.43,1.9,1.9,0,0,0-.83-.17,1.32,1.32,0,0,0-.94.29,1,1,0,0,0-.3.69.71.71,0,0,0,.12.41,1.27,1.27,0,0,0,.34.31,2.69,2.69,0,0,0,.48.24l.57.21.74.3a3.07,3.07,0,0,1,.66.38,1.87,1.87,0,0,1,.48.57,1.57,1.57,0,0,1,.19.81,1.86,1.86,0,0,1-.63,1.43,2.32,2.32,0,0,1-.79.44A3.21,3.21,0,0,1,113.14,58.86Z"/><path d="M120,58.86a3.35,3.35,0,0,1-1.28-.24,3.13,3.13,0,0,1-1-.7A3.42,3.42,0,0,1,117,56.8a4.08,4.08,0,0,1-.26-1.49A4.19,4.19,0,0,1,117,53.8a3.64,3.64,0,0,1,.69-1.13,3,3,0,0,1,1-.7,2.66,2.66,0,0,1,1.14-.25,2.81,2.81,0,0,1,1.15.23,2.29,2.29,0,0,1,.86.64,3.11,3.11,0,0,1,.52,1,4.46,4.46,0,0,1,.18,1.31v.36a2,2,0,0,1,0,.3h-4.59a2.59,2.59,0,0,0,.68,1.73,2.1,2.1,0,0,0,1.59.64,2.66,2.66,0,0,0,.9-.15,4.42,4.42,0,0,0,.79-.38l.41.75a5.47,5.47,0,0,1-1,.49A3.43,3.43,0,0,1,120,58.86Zm-2.15-4.11h3.64a2.42,2.42,0,0,0-.44-1.58,1.5,1.5,0,0,0-1.24-.54,1.81,1.81,0,0,0-.69.14,1.7,1.7,0,0,0-.59.41,2.23,2.23,0,0,0-.44.67A3,3,0,0,0,117.84,54.75Z"/><path d="M124.17,58.69v-6.8h1l.1,1.23h0a3.22,3.22,0,0,1,.85-1,1.76,1.76,0,0,1,1.09-.38,1.81,1.81,0,0,1,.72.14l-.22,1a1.42,1.42,0,0,0-.31-.08,1.69,1.69,0,0,0-.35,0,1.47,1.47,0,0,0-.9.35,2.76,2.76,0,0,0-.82,1.22v4.36Z"/><path d="M129,58.69v-6.8H130l.1,1h0a5.53,5.53,0,0,1,1-.82,2.36,2.36,0,0,1,1.25-.33,1.86,1.86,0,0,1,1.58.67,3.34,3.34,0,0,1,.5,2v4.31h-1.15V54.54a2.42,2.42,0,0,0-.31-1.4,1.14,1.14,0,0,0-1-.42,1.66,1.66,0,0,0-.94.26,5.83,5.83,0,0,0-.92.79v4.92Z"/><path d="M138.26,58.86a2.07,2.07,0,0,1-1.42-.5,1.81,1.81,0,0,1-.57-1.43,1.9,1.9,0,0,1,1-1.72,8.39,8.39,0,0,1,3.18-.83,3.36,3.36,0,0,0-.06-.63,1.54,1.54,0,0,0-.22-.54,1.09,1.09,0,0,0-.43-.39,1.41,1.41,0,0,0-.69-.15,2.79,2.79,0,0,0-1.11.23,6.12,6.12,0,0,0-.92.5l-.45-.8a8.3,8.3,0,0,1,1.16-.59,4,4,0,0,1,1.52-.29,2.1,2.1,0,0,1,1.8.76,3.33,3.33,0,0,1,.56,2v4.17h-.95l-.1-.81h0a5.94,5.94,0,0,1-1,.69A2.48,2.48,0,0,1,138.26,58.86Zm.33-.92a2,2,0,0,0,.93-.23,4.9,4.9,0,0,0,.92-.68V55.14a11,11,0,0,0-1.43.26,4.08,4.08,0,0,0-.94.37,1.43,1.43,0,0,0-.52.48,1.12,1.12,0,0,0-.16.6,1,1,0,0,0,.35.84A1.47,1.47,0,0,0,138.59,57.94Z"/><path d="M143.74,58.69v-6.8h1l.09,1h.05a4.64,4.64,0,0,1,1-.82,2.1,2.1,0,0,1,1.14-.33,1.76,1.76,0,0,1,1.88,1.3,5.68,5.68,0,0,1,1.07-.94,2.07,2.07,0,0,1,1.17-.36,1.85,1.85,0,0,1,1.56.67,3.26,3.26,0,0,1,.51,2v4.31H152V54.54a2.42,2.42,0,0,0-.31-1.4,1.09,1.09,0,0,0-1-.42A2.54,2.54,0,0,0,149,53.77v4.92h-1.15V54.54a2.51,2.51,0,0,0-.3-1.4,1.13,1.13,0,0,0-1-.42,2.54,2.54,0,0,0-1.71,1.05v4.92Z"/><path d="M158.11,58.86a3.35,3.35,0,0,1-1.28-.24,3.13,3.13,0,0,1-1-.7,3.42,3.42,0,0,1-.69-1.12,4.08,4.08,0,0,1-.25-1.49,4.2,4.2,0,0,1,.25-1.51,3.84,3.84,0,0,1,.69-1.13,3.12,3.12,0,0,1,1-.7,2.7,2.7,0,0,1,1.14-.25,2.81,2.81,0,0,1,1.15.23,2.29,2.29,0,0,1,.86.64,2.93,2.93,0,0,1,.52,1,4.46,4.46,0,0,1,.18,1.31v.36a2,2,0,0,1,0,.3H156a2.64,2.64,0,0,0,.68,1.73,2.1,2.1,0,0,0,1.59.64,2.62,2.62,0,0,0,.9-.15,4.42,4.42,0,0,0,.79-.38l.41.75a5.47,5.47,0,0,1-1,.49A3.43,3.43,0,0,1,158.11,58.86ZM156,54.75h3.64a2.42,2.42,0,0,0-.45-1.58,1.49,1.49,0,0,0-1.23-.54,1.82,1.82,0,0,0-.7.14,1.7,1.7,0,0,0-.59.41,2.23,2.23,0,0,0-.44.67A2.7,2.7,0,0,0,156,54.75Z"/><path d="M101.32,90.4a3.18,3.18,0,0,1-.66-.07,3.3,3.3,0,0,1-.49-.14l.27-1,.33.08a1.75,1.75,0,0,0,.4,0,.76.76,0,0,0,.77-.4,2.6,2.6,0,0,0,.19-1.12V79.15h1.31V87.8a3.31,3.31,0,0,1-.47,1.89A1.85,1.85,0,0,1,101.32,90.4Zm1.49-12.85a.92.92,0,0,1-.65-.24.84.84,0,0,1,0-1.23,1,1,0,0,1,1.28,0,.86.86,0,0,1,0,1.23A.92.92,0,0,1,102.81,77.55Z"/><path d="M109.09,87.12a3.31,3.31,0,0,1-1.36-.28,3.24,3.24,0,0,1-1.15-.79,3.8,3.8,0,0,1-.79-1.28,5.11,5.11,0,0,1,0-3.45,4,4,0,0,1,.79-1.29,3.27,3.27,0,0,1,1.15-.8,3.47,3.47,0,0,1,1.36-.27,3.52,3.52,0,0,1,1.37.27,3.33,3.33,0,0,1,1.14.8,3.81,3.81,0,0,1,.8,1.29,5.28,5.28,0,0,1,0,3.45,3.67,3.67,0,0,1-.8,1.28,3.3,3.3,0,0,1-1.14.79A3.36,3.36,0,0,1,109.09,87.12Zm0-1.09a1.92,1.92,0,0,0,.92-.22,2.05,2.05,0,0,0,.71-.61,2.88,2.88,0,0,0,.45-.93,4.19,4.19,0,0,0,.16-1.22,4.24,4.24,0,0,0-.16-1.22,2.89,2.89,0,0,0-.45-1,2.08,2.08,0,0,0-.71-.62,2,2,0,0,0-.92-.22,2,2,0,0,0-1.62.84,2.9,2.9,0,0,0-.46,1,4.62,4.62,0,0,0-.16,1.22,4.56,4.56,0,0,0,.16,1.22,2.89,2.89,0,0,0,.46.93,2,2,0,0,0,.71.61A1.88,1.88,0,0,0,109.09,86Z"/><path d="M117.89,87.12a3.91,3.91,0,0,1-1.46-.28,3.57,3.57,0,0,1-1.18-.8,3.77,3.77,0,0,1-.8-1.28,4.79,4.79,0,0,1-.28-1.71,4.67,4.67,0,0,1,.29-1.72,4.18,4.18,0,0,1,.79-1.29,3.21,3.21,0,0,1,1.11-.8,3.06,3.06,0,0,1,1.29-.28,3.27,3.27,0,0,1,1.32.25,2.58,2.58,0,0,1,1,.74,3.4,3.4,0,0,1,.6,1.15,5,5,0,0,1,.21,1.5c0,.14,0,.28,0,.41a2.84,2.84,0,0,1,0,.35h-5.25a3,3,0,0,0,.78,2,2.37,2.37,0,0,0,1.81.73,3.15,3.15,0,0,0,1-.17,4.68,4.68,0,0,0,.9-.44l.46.87a7,7,0,0,1-1.13.56A4,4,0,0,1,117.89,87.12Zm-2.45-4.71h4.16a2.76,2.76,0,0,0-.5-1.8,1.72,1.72,0,0,0-1.41-.61,2,2,0,0,0-.8.16,2,2,0,0,0-.68.47,2.57,2.57,0,0,0-.5.76A3.81,3.81,0,0,0,115.44,82.41Z"/><path d="M126.12,87.12a2.67,2.67,0,0,1-1.13-.27,4.05,4.05,0,0,1-1.1-.73h0l-.12.8h-1V75.53H124v3.11l0,1.4a5.25,5.25,0,0,1,1.15-.77,2.78,2.78,0,0,1,1.28-.31,3,3,0,0,1,1.33.28,2.66,2.66,0,0,1,1,.8,3.76,3.76,0,0,1,.59,1.24,6.33,6.33,0,0,1,.2,1.63,5.14,5.14,0,0,1-.28,1.77,4,4,0,0,1-.73,1.33,3.13,3.13,0,0,1-1.07.83A3.17,3.17,0,0,1,126.12,87.12ZM125.89,86a1.91,1.91,0,0,0,.89-.21,2.15,2.15,0,0,0,.7-.61,2.92,2.92,0,0,0,.47-1,4.71,4.71,0,0,0,.17-1.3,5.23,5.23,0,0,0-.12-1.16,2.58,2.58,0,0,0-.35-.91,1.73,1.73,0,0,0-.65-.58,1.94,1.94,0,0,0-.93-.21A3.22,3.22,0,0,0,124,81.12V85.2a3.41,3.41,0,0,0,1,.63A2.75,2.75,0,0,0,125.89,86Z"/><path d="M132.92,87.12a1.24,1.24,0,0,1-1.08-.45,2.28,2.28,0,0,1-.32-1.31V75.53h1.32v9.92a.66.66,0,0,0,.11.45.31.31,0,0,0,.25.13h.12l.17,0,.18,1a1.26,1.26,0,0,1-.31.09A1.78,1.78,0,0,1,132.92,87.12Z"/><path d="M138.63,87.12a3.36,3.36,0,0,1-1.37-.28,3.3,3.3,0,0,1-1.14-.79,3.82,3.82,0,0,1-.8-1.28,5.28,5.28,0,0,1,0-3.45,4,4,0,0,1,.8-1.29,3.33,3.33,0,0,1,1.14-.8,3.52,3.52,0,0,1,1.37-.27,3.56,3.56,0,0,1,1.37.27,3.33,3.33,0,0,1,1.14.8,4,4,0,0,1,.79,1.29,5.11,5.11,0,0,1,0,3.45,3.8,3.8,0,0,1-.79,1.28,3.3,3.3,0,0,1-1.14.79A3.39,3.39,0,0,1,138.63,87.12Zm0-1.09a2,2,0,0,0,1.62-.83,2.89,2.89,0,0,0,.46-.93,4.56,4.56,0,0,0,.16-1.22,4.62,4.62,0,0,0-.16-1.22,2.9,2.9,0,0,0-.46-1,1.91,1.91,0,0,0-.71-.62,2,2,0,0,0-.91-.22,2,2,0,0,0-.91.22,2,2,0,0,0-.72.62,2.89,2.89,0,0,0-.45,1,4.24,4.24,0,0,0-.16,1.22,4.19,4.19,0,0,0,.16,1.22,2.88,2.88,0,0,0,.45.93,2,2,0,0,0,.72.61A1.86,1.86,0,0,0,138.63,86Z"/><path d="M146.9,90.51a5.85,5.85,0,0,1-1.31-.14,3,3,0,0,1-1-.41,2,2,0,0,1-.65-.65,1.68,1.68,0,0,1,.07-1.84,3.24,3.24,0,0,1,.83-.82v-.06a1.63,1.63,0,0,1-.49-.49,1.46,1.46,0,0,1-.2-.78,1.42,1.42,0,0,1,.27-.86,2.89,2.89,0,0,1,.58-.58v-.06a3.09,3.09,0,0,1-.7-.86,2.48,2.48,0,0,1-.31-1.24,2.84,2.84,0,0,1,.23-1.15,2.66,2.66,0,0,1,.64-.87,2.7,2.7,0,0,1,.93-.55A3.31,3.31,0,0,1,146.9,79a2.92,2.92,0,0,1,.6.05,4.39,4.39,0,0,1,.5.14h2.71v1h-1.6a2.24,2.24,0,0,1,.45.68,2.17,2.17,0,0,1,.19.92,2.7,2.7,0,0,1-.23,1.12,2.51,2.51,0,0,1-.6.85,2.85,2.85,0,0,1-.91.54,3.12,3.12,0,0,1-1.11.19,2.44,2.44,0,0,1-.59-.07,3.6,3.6,0,0,1-.58-.2,2.13,2.13,0,0,0-.35.39.91.91,0,0,0-.14.54.75.75,0,0,0,.28.6,1.8,1.8,0,0,0,1.09.24h1.51a3.86,3.86,0,0,1,2,.44,1.58,1.58,0,0,1,.68,1.42,2,2,0,0,1-.28,1,2.64,2.64,0,0,1-.78.86,4.07,4.07,0,0,1-1.24.58A5.52,5.52,0,0,1,146.9,90.51Zm.19-.91a3.59,3.59,0,0,0,1-.14,2.89,2.89,0,0,0,.77-.35,1.62,1.62,0,0,0,.5-.51,1.1,1.1,0,0,0,.18-.59.78.78,0,0,0-.4-.75,2.6,2.6,0,0,0-1.17-.21h-1.35l-.48,0a2.29,2.29,0,0,1-.52-.11,2.26,2.26,0,0,0-.61.64,1.35,1.35,0,0,0-.19.68,1.13,1.13,0,0,0,.6,1A3.2,3.2,0,0,0,147.09,89.6Zm-.19-6a1.51,1.51,0,0,0,.63-.13,1.5,1.5,0,0,0,.53-.37,1.63,1.63,0,0,0,.36-.58,2.13,2.13,0,0,0,.13-.78,1.78,1.78,0,0,0-.48-1.33,1.69,1.69,0,0,0-2.34,0,1.78,1.78,0,0,0-.48,1.33,2.13,2.13,0,0,0,.13.78,1.78,1.78,0,0,0,.36.58,1.59,1.59,0,0,0,.53.37A1.51,1.51,0,0,0,146.9,83.58Z"/><path d="M155,90.51a5.91,5.91,0,0,1-1.31-.14,3,3,0,0,1-1-.41,2.05,2.05,0,0,1-.66-.65,1.77,1.77,0,0,1-.23-.9,1.66,1.66,0,0,1,.3-.94,3.29,3.29,0,0,1,.84-.82v-.06a1.44,1.44,0,0,1-.49-.49,1.37,1.37,0,0,1-.2-.78,1.42,1.42,0,0,1,.27-.86,2.62,2.62,0,0,1,.57-.58v-.06a3.25,3.25,0,0,1-.69-.86,2.38,2.38,0,0,1-.31-1.24,2.69,2.69,0,0,1,.23-1.15,2.5,2.5,0,0,1,.63-.87,2.84,2.84,0,0,1,.94-.55A3.21,3.21,0,0,1,155,79a2.8,2.8,0,0,1,.6.05,4.6,4.6,0,0,1,.51.14h2.7v1h-1.6a2.26,2.26,0,0,1,.46.68,2.32,2.32,0,0,1,.18.92,2.7,2.7,0,0,1-.22,1.12,2.4,2.4,0,0,1-.61.85,2.8,2.8,0,0,1-.9.54,3.18,3.18,0,0,1-1.12.19,2.49,2.49,0,0,1-.59-.07,3.49,3.49,0,0,1-.57-.2,2.19,2.19,0,0,0-.36.39,1,1,0,0,0-.14.54.76.76,0,0,0,.29.6,1.76,1.76,0,0,0,1.09.24h1.5a3.82,3.82,0,0,1,2,.44,1.58,1.58,0,0,1,.68,1.42,2.09,2.09,0,0,1-.27,1,2.64,2.64,0,0,1-.78.86,4.25,4.25,0,0,1-1.25.58A5.52,5.52,0,0,1,155,90.51Zm.2-.91a3.52,3.52,0,0,0,1-.14,3,3,0,0,0,.78-.35,1.58,1.58,0,0,0,.49-.51,1.1,1.1,0,0,0,.18-.59.77.77,0,0,0-.4-.75,2.6,2.6,0,0,0-1.17-.21h-1.34l-.49,0a2.29,2.29,0,0,1-.52-.11,2.26,2.26,0,0,0-.61.64,1.35,1.35,0,0,0-.19.68,1.13,1.13,0,0,0,.6,1A3.21,3.21,0,0,0,155.16,89.6Zm-.2-6a1.53,1.53,0,0,0,.64-.13,1.55,1.55,0,0,0,.52-.37,1.5,1.5,0,0,0,.36-.58,2.13,2.13,0,0,0,.13-.78,1.78,1.78,0,0,0-.48-1.33,1.68,1.68,0,0,0-2.33,0,1.78,1.78,0,0,0-.48,1.33,2.37,2.37,0,0,0,.12.78,1.65,1.65,0,0,0,.37.58,1.55,1.55,0,0,0,.52.37A1.51,1.51,0,0,0,155,83.58Z"/><path d="M162.44,87.12a4.06,4.06,0,0,1-1.59-.31,4.82,4.82,0,0,1-1.31-.77l.66-.88a5.29,5.29,0,0,0,1,.68,2.89,2.89,0,0,0,1.24.25,1.69,1.69,0,0,0,1.16-.35,1.13,1.13,0,0,0,.38-.86.86.86,0,0,0-.16-.53,1.53,1.53,0,0,0-.41-.39,2.54,2.54,0,0,0-.57-.3l-.64-.26c-.27-.09-.55-.2-.83-.32a4.17,4.17,0,0,1-.74-.45,2.28,2.28,0,0,1-.54-.62,1.62,1.62,0,0,1-.21-.85,2.13,2.13,0,0,1,.19-.87,2,2,0,0,1,.53-.7,2.62,2.62,0,0,1,.84-.47,3.87,3.87,0,0,1,2.47.09,4.07,4.07,0,0,1,1.06.63l-.62.83a4.82,4.82,0,0,0-.83-.5,2.3,2.3,0,0,0-.95-.19,1.47,1.47,0,0,0-1.08.34,1,1,0,0,0-.34.78.82.82,0,0,0,.14.47,1.32,1.32,0,0,0,.39.35,2.57,2.57,0,0,0,.55.28l.65.24.84.34a3.35,3.35,0,0,1,.76.44,2.32,2.32,0,0,1,.55.65,1.88,1.88,0,0,1,.21.93,2.18,2.18,0,0,1-.18.89,2,2,0,0,1-.54.74,2.6,2.6,0,0,1-.9.5A3.55,3.55,0,0,1,162.44,87.12Z"/><path d="M169.78,87.12a2.72,2.72,0,0,1-2.42-1.38,7.52,7.52,0,0,1-.86-3.95,7.33,7.33,0,0,1,.86-3.92,2.83,2.83,0,0,1,4.82,0,7.24,7.24,0,0,1,.86,3.92,7.42,7.42,0,0,1-.86,3.95A2.7,2.7,0,0,1,169.78,87.12Zm0-1.06a1.36,1.36,0,0,0,.81-.25,1.9,1.9,0,0,0,.62-.77,4.68,4.68,0,0,0,.41-1.32,10.89,10.89,0,0,0,.14-1.93,10.62,10.62,0,0,0-.14-1.92,4.71,4.71,0,0,0-.41-1.31,1.93,1.93,0,0,0-.62-.74,1.43,1.43,0,0,0-.81-.24,1.48,1.48,0,0,0-.82.24,2,2,0,0,0-.63.74,5.07,5.07,0,0,0-.41,1.31,11.62,11.62,0,0,0-.14,1.92,7.11,7.11,0,0,0,.55,3.25A1.64,1.64,0,0,0,169.78,86.06Z"/><path d="M175,86.92V85.84h2.34V78.32h-1.86v-.85a9.15,9.15,0,0,0,1.23-.31,5.72,5.72,0,0,0,.93-.44h1v9.12h2.11v1.08Z"/><circle cx="103.06" cy="162.92" r="4"/><circle cx="115.57" cy="162.92" r="4"/><circle cx="128.08" cy="162.92" r="4"/><circle cx="140.59" cy="162.92" r="4"/><circle cx="153.1" cy="162.92" r="4"/><circle cx="165.61" cy="162.92" r="4"/><line class="cls-6" x1="177.66" y1="151.8" x2="177.66" y2="173.99"/></svg>