<?xml version="1.0" encoding="UTF-8"?>
<svg viewBox="0 0 500 380" version="1.1" xmlns="http://www.w3.org/2000/svg" xmlns:xlink="http://www.w3.org/1999/xlink">
    <title>Artboard</title>
    <g id="Artboard" stroke="none" stroke-width="1" fill="none" fill-rule="evenodd">
        <rect id="Rectangle" fill="#F5F5F5" fill-rule="nonzero" x="6" y="0" width="495" height="380"></rect>
        <rect id="Rectangle" fill="#00916A" fill-rule="nonzero" x="0" y="0" width="6" height="380"></rect>
        <path d="M33.5,12 C25.0095541,12 18,18.910828 18,27.5 C18,36.089172 24.910828,43 33.5,43 C42.089172,43 49,36.089172 49,27.5 C49,18.910828 41.9904459,12 33.5,12 Z M30.4394904,35.2006369 L22.7388535,27.5 L24.910828,25.3280255 L30.4394904,30.8566879 L42.089172,19.1082803 L44.2611465,21.2802548 L30.4394904,35.2006369 Z" id="Shape" fill="#00916A" fill-rule="nonzero"></path>
        <rect id="Rectangle" stroke="#6E7272" x="138.5" y="132.5" width="269" height="39" rx="3"></rect>
        <rect id="Rectangle" stroke="#6E7272" x="138.5" y="50.5" width="269" height="39" rx="3"></rect>
        <path d="M145.792,42 L145.792,40.432 L141.184,40.432 L141.184,37.344 L144.944,37.344 L144.944,35.776 L141.184,35.776 L141.184,33.104 L145.632,33.104 L145.632,31.536 L139.328,31.536 L139.328,42 L145.792,42 Z M149.616,42 L149.616,36.512 C150.224,35.8613333 150.773333,35.536 151.264,35.536 C151.68,35.536 151.986667,35.6693333 152.184,35.936 C152.381333,36.2026667 152.48,36.6613333 152.48,37.312 L152.48,37.312 L152.48,42 L154.32,42 L154.32,36.512 C154.928,35.8613333 155.477333,35.536 155.968,35.536 C156.373333,35.536 156.674667,35.6693333 156.872,35.936 C157.069333,36.2026667 157.168,36.6613333 157.168,37.312 L157.168,37.312 L157.168,42 L159.024,42 L159.024,37.072 C159.024,36.0693333 158.826667,35.2986667 158.432,34.76 C158.037333,34.2213333 157.424,33.952 156.592,33.952 C156.090667,33.952 155.637333,34.0853333 155.232,34.352 C154.826667,34.6186667 154.437333,34.9546667 154.064,35.36 C153.882667,34.912 153.618667,34.5653333 153.272,34.32 C152.925333,34.0746667 152.464,33.952 151.888,33.952 C151.397333,33.952 150.957333,34.0746667 150.568,34.32 C150.178667,34.5653333 149.818667,34.864 149.488,35.216 L149.488,35.216 L149.424,35.216 L149.296,34.144 L147.776,34.144 L147.776,42 L149.616,42 Z M163.168,42.192 C163.637333,42.192 164.072,42.0906667 164.472,41.888 C164.872,41.6853333 165.248,41.4346667 165.6,41.136 L165.6,41.136 L165.664,41.136 L165.792,42 L167.312,42 L167.312,37.344 C167.312,36.2453333 167.069333,35.4053333 166.584,34.824 C166.098667,34.2426667 165.365333,33.952 164.384,33.952 C163.754667,33.952 163.168,34.0533333 162.624,34.256 C162.08,34.4586667 161.589333,34.6986667 161.152,34.976 L161.152,34.976 L161.824,36.208 C162.176,35.9946667 162.536,35.8133333 162.904,35.664 C163.272,35.5146667 163.648,35.44 164.032,35.44 C164.298667,35.44 164.522667,35.48 164.704,35.56 C164.885333,35.64 165.032,35.752 165.144,35.896 C165.256,36.04 165.336,36.2053333 165.384,36.392 C165.432,36.5786667 165.461333,36.7733333 165.472,36.976 C164.661333,37.0613333 163.965333,37.184 163.384,37.344 C162.802667,37.504 162.322667,37.7013333 161.944,37.936 C161.565333,38.1706667 161.288,38.4506667 161.112,38.776 C160.936,39.1013333 160.848,39.472 160.848,39.888 C160.848,40.5813333 161.061333,41.1386667 161.488,41.56 C161.914667,41.9813333 162.474667,42.192 163.168,42.192 Z M163.76,40.752 C163.429333,40.752 163.157333,40.672 162.944,40.512 C162.730667,40.352 162.624,40.096 162.624,39.744 C162.624,39.552 162.672,39.3706667 162.768,39.2 C162.864,39.0293333 163.024,38.8773333 163.248,38.744 C163.472,38.6106667 163.765333,38.4906667 164.128,38.384 C164.490667,38.2773333 164.938667,38.192 165.472,38.128 L165.472,38.128 L165.472,39.888 C165.173333,40.1653333 164.893333,40.3786667 164.632,40.528 C164.370667,40.6773333 164.08,40.752 163.76,40.752 Z M170.448,32.768 C170.778667,32.768 171.050667,32.672 171.264,32.48 C171.477333,32.288 171.584,32.0373333 171.584,31.728 C171.584,31.4186667 171.477333,31.1653333 171.264,30.968 C171.050667,30.7706667 170.778667,30.672 170.448,30.672 C170.117333,30.672 169.845333,30.7706667 169.632,30.968 C169.418667,31.1653333 169.312,31.4186667 169.312,31.728 C169.312,32.0373333 169.418667,32.288 169.632,32.48 C169.845333,32.672 170.117333,32.768 170.448,32.768 Z M171.36,42 L171.36,34.144 L169.52,34.144 L169.52,42 L171.36,42 Z M175.504,42.192 C175.909333,42.192 176.234667,42.1386667 176.48,42.032 L176.48,42.032 L176.24,40.656 C176.165333,40.6773333 176.109333,40.688 176.072,40.688 L176.072,40.688 L175.952,40.688 C175.856,40.688 175.765333,40.6426667 175.68,40.552 C175.594667,40.4613333 175.552,40.304 175.552,40.08 L175.552,40.08 L175.552,30.704 L173.712,30.704 L173.712,39.984 C173.712,40.6666667 173.845333,41.2053333 174.112,41.6 C174.378667,41.9946667 174.842667,42.192 175.504,42.192 Z" id="Email" fill="#000000" fill-rule="nonzero"></path>
        <path d="M143.504,124.192 C144.176,124.192 144.786667,124.061333 145.336,123.8 C145.885333,123.538667 146.373333,123.162667 146.8,122.672 L146.8,122.672 L145.808,121.504 C145.509333,121.824 145.178667,122.082667 144.816,122.28 C144.453333,122.477333 144.037333,122.576 143.568,122.576 C142.682667,122.576 141.981333,122.237333 141.464,121.56 C140.946667,120.882667 140.688,119.946667 140.688,118.752 C140.688,118.165333 140.76,117.637333 140.904,117.168 C141.048,116.698667 141.250667,116.301333 141.512,115.976 C141.773333,115.650667 142.082667,115.4 142.44,115.224 C142.797333,115.048 143.189333,114.96 143.616,114.96 C144.021333,114.96 144.384,115.042667 144.704,115.208 C145.024,115.373333 145.322667,115.594667 145.6,115.872 L145.6,115.872 L146.592,114.672 C146.261333,114.32 145.84,114.010667 145.328,113.744 C144.816,113.477333 144.229333,113.344 143.568,113.344 C142.906667,113.344 142.285333,113.466667 141.704,113.712 C141.122667,113.957333 140.616,114.314667 140.184,114.784 C139.752,115.253333 139.410667,115.826667 139.16,116.504 C138.909333,117.181333 138.784,117.946667 138.784,118.8 C138.784,119.664 138.906667,120.432 139.152,121.104 C139.397333,121.776 139.730667,122.341333 140.152,122.8 C140.573333,123.258667 141.072,123.605333 141.648,123.84 C142.224,124.074667 142.842667,124.192 143.504,124.192 Z M150.56,124.192 C151.104,124.192 151.576,124.069333 151.976,123.824 C152.376,123.578667 152.746667,123.253333 153.088,122.848 L153.088,122.848 L153.136,122.848 L153.28,124 L154.784,124 L154.784,116.144 L152.944,116.144 L152.944,121.52 C152.645333,121.904 152.365333,122.181333 152.104,122.352 C151.842667,122.522667 151.541333,122.608 151.2,122.608 C150.773333,122.608 150.464,122.474667 150.272,122.208 C150.08,121.941333 149.984,121.482667 149.984,120.832 L149.984,120.832 L149.984,116.144 L148.144,116.144 L148.144,121.072 C148.144,122.074667 148.336,122.845333 148.72,123.384 C149.104,123.922667 149.717333,124.192 150.56,124.192 Z M158.96,124 L158.96,119.2 C159.205333,118.602667 159.498667,118.184 159.84,117.944 C160.181333,117.704 160.506667,117.584 160.816,117.584 C160.986667,117.584 161.130667,117.594667 161.248,117.616 C161.365333,117.637333 161.493333,117.669333 161.632,117.712 L161.632,117.712 L161.952,116.112 C161.728,116.005333 161.429333,115.952 161.056,115.952 C160.64,115.952 160.234667,116.088 159.84,116.36 C159.445333,116.632 159.109333,117.024 158.832,117.536 L158.832,117.536 L158.768,117.536 L158.64,116.144 L157.12,116.144 L157.12,124 L158.96,124 Z M164.928,124 L164.928,119.2 C165.173333,118.602667 165.466667,118.184 165.808,117.944 C166.149333,117.704 166.474667,117.584 166.784,117.584 C166.954667,117.584 167.098667,117.594667 167.216,117.616 C167.333333,117.637333 167.461333,117.669333 167.6,117.712 L167.6,117.712 L167.92,116.112 C167.696,116.005333 167.397333,115.952 167.024,115.952 C166.608,115.952 166.202667,116.088 165.808,116.36 C165.413333,116.632 165.077333,117.024 164.8,117.536 L164.8,117.536 L164.736,117.536 L164.608,116.144 L163.088,116.144 L163.088,124 L164.928,124 Z M172.256,124.192 C172.757333,124.192 173.237333,124.112 173.696,123.952 C174.154667,123.792 174.570667,123.589333 174.944,123.344 L174.944,123.344 L174.32,122.192 C174.032,122.373333 173.741333,122.514667 173.448,122.616 C173.154667,122.717333 172.837333,122.768 172.496,122.768 C171.856,122.768 171.330667,122.578667 170.92,122.2 C170.509333,121.821333 170.261333,121.28 170.176,120.576 L170.176,120.576 L175.168,120.576 C175.189333,120.48 175.208,120.352 175.224,120.192 C175.24,120.032 175.248,119.861333 175.248,119.68 C175.248,119.136 175.178667,118.634667 175.04,118.176 C174.901333,117.717333 174.696,117.322667 174.424,116.992 C174.152,116.661333 173.813333,116.405333 173.408,116.224 C173.002667,116.042667 172.533333,115.952 172,115.952 C171.541333,115.952 171.093333,116.048 170.656,116.24 C170.218667,116.432 169.832,116.704 169.496,117.056 C169.16,117.408 168.890667,117.84 168.688,118.352 C168.485333,118.864 168.384,119.44 168.384,120.08 C168.384,120.730667 168.482667,121.309333 168.68,121.816 C168.877333,122.322667 169.152,122.752 169.504,123.104 C169.856,123.456 170.266667,123.725333 170.736,123.912 C171.205333,124.098667 171.712,124.192 172.256,124.192 Z M173.648,119.328 L170.16,119.328 C170.245333,118.688 170.464,118.202667 170.816,117.872 C171.168,117.541333 171.578667,117.376 172.048,117.376 C172.592,117.376 172.994667,117.549333 173.256,117.896 C173.517333,118.242667 173.648,118.72 173.648,119.328 L173.648,119.328 Z M178.848,124 L178.848,118.512 C179.178667,118.192 179.474667,117.949333 179.736,117.784 C179.997333,117.618667 180.298667,117.536 180.64,117.536 C181.077333,117.536 181.392,117.669333 181.584,117.936 C181.776,118.202667 181.872,118.661333 181.872,119.312 L181.872,119.312 L181.872,124 L183.712,124 L183.712,119.072 C183.712,118.069333 183.52,117.298667 183.136,116.76 C182.752,116.221333 182.138667,115.952 181.296,115.952 C180.752,115.952 180.274667,116.074667 179.864,116.32 C179.453333,116.565333 179.072,116.858667 178.72,117.2 L178.72,117.2 L178.656,117.2 L178.528,116.144 L177.008,116.144 L177.008,124 L178.848,124 Z M188.736,124.192 C189.045333,124.192 189.336,124.162667 189.608,124.104 C189.88,124.045333 190.122667,123.978667 190.336,123.904 L190.336,123.904 L190.016,122.544 C189.898667,122.597333 189.768,122.64 189.624,122.672 C189.48,122.704 189.338667,122.72 189.2,122.72 C188.464,122.72 188.096,122.261333 188.096,121.344 L188.096,121.344 L188.096,117.6 L190.096,117.6 L190.096,116.144 L188.096,116.144 L188.096,114 L186.56,114 L186.336,116.144 L185.12,116.224 L185.12,117.6 L186.24,117.6 L186.24,121.344 C186.24,121.770667 186.285333,122.157333 186.376,122.504 C186.466667,122.850667 186.610667,123.149333 186.808,123.4 C187.005333,123.650667 187.261333,123.845333 187.576,123.984 C187.890667,124.122667 188.277333,124.192 188.736,124.192 Z M196.784,127.104 L196.784,124.64 L196.736,123.328 C197.056,123.605333 197.386667,123.818667 197.728,123.968 C198.069333,124.117333 198.410667,124.192 198.752,124.192 C199.189333,124.192 199.610667,124.096 200.016,123.904 C200.421333,123.712 200.778667,123.437333 201.088,123.08 C201.397333,122.722667 201.645333,122.28 201.832,121.752 C202.018667,121.224 202.112,120.624 202.112,119.952 C202.112,119.344 202.042667,118.794667 201.904,118.304 C201.765333,117.813333 201.562667,117.392 201.296,117.04 C201.029333,116.688 200.706667,116.418667 200.328,116.232 C199.949333,116.045333 199.514667,115.952 199.024,115.952 C198.586667,115.952 198.165333,116.053333 197.76,116.256 C197.354667,116.458667 196.986667,116.698667 196.656,116.976 L196.656,116.976 L196.592,116.976 L196.464,116.144 L194.944,116.144 L194.944,127.104 L196.784,127.104 Z M198.368,122.672 C198.133333,122.672 197.882667,122.624 197.616,122.528 C197.349333,122.432 197.072,122.261333 196.784,122.016 L196.784,122.016 L196.784,118.352 C197.381333,117.765333 197.957333,117.472 198.512,117.472 C199.109333,117.472 199.541333,117.690667 199.808,118.128 C200.074667,118.565333 200.208,119.178667 200.208,119.968 C200.208,120.864 200.032,121.538667 199.68,121.992 C199.328,122.445333 198.890667,122.672 198.368,122.672 Z M205.68,124.192 C206.149333,124.192 206.584,124.090667 206.984,123.888 C207.384,123.685333 207.76,123.434667 208.112,123.136 L208.112,123.136 L208.176,123.136 L208.304,124 L209.824,124 L209.824,119.344 C209.824,118.245333 209.581333,117.405333 209.096,116.824 C208.610667,116.242667 207.877333,115.952 206.896,115.952 C206.266667,115.952 205.68,116.053333 205.136,116.256 C204.592,116.458667 204.101333,116.698667 203.664,116.976 L203.664,116.976 L204.336,118.208 C204.688,117.994667 205.048,117.813333 205.416,117.664 C205.784,117.514667 206.16,117.44 206.544,117.44 C206.810667,117.44 207.034667,117.48 207.216,117.56 C207.397333,117.64 207.544,117.752 207.656,117.896 C207.768,118.04 207.848,118.205333 207.896,118.392 C207.944,118.578667 207.973333,118.773333 207.984,118.976 C207.173333,119.061333 206.477333,119.184 205.896,119.344 C205.314667,119.504 204.834667,119.701333 204.456,119.936 C204.077333,120.170667 203.8,120.450667 203.624,120.776 C203.448,121.101333 203.36,121.472 203.36,121.888 C203.36,122.581333 203.573333,123.138667 204,123.56 C204.426667,123.981333 204.986667,124.192 205.68,124.192 Z M206.272,122.752 C205.941333,122.752 205.669333,122.672 205.456,122.512 C205.242667,122.352 205.136,122.096 205.136,121.744 C205.136,121.552 205.184,121.370667 205.28,121.2 C205.376,121.029333 205.536,120.877333 205.76,120.744 C205.984,120.610667 206.277333,120.490667 206.64,120.384 C207.002667,120.277333 207.450667,120.192 207.984,120.128 L207.984,120.128 L207.984,121.888 C207.685333,122.165333 207.405333,122.378667 207.144,122.528 C206.882667,122.677333 206.592,122.752 206.272,122.752 Z M214.224,124.192 C214.714667,124.192 215.152,124.128 215.536,124 C215.92,123.872 216.24,123.698667 216.496,123.48 C216.752,123.261333 216.946667,123.005333 217.08,122.712 C217.213333,122.418667 217.28,122.101333 217.28,121.76 C217.28,121.397333 217.213333,121.085333 217.08,120.824 C216.946667,120.562667 216.770667,120.341333 216.552,120.16 C216.333333,119.978667 216.090667,119.826667 215.824,119.704 C215.557333,119.581333 215.290667,119.472 215.024,119.376 C214.810667,119.301333 214.605333,119.226667 214.408,119.152 C214.210667,119.077333 214.037333,118.997333 213.888,118.912 C213.738667,118.826667 213.618667,118.728 213.528,118.616 C213.437333,118.504 213.392,118.368 213.392,118.208 C213.392,117.962667 213.485333,117.757333 213.672,117.592 C213.858667,117.426667 214.149333,117.344 214.544,117.344 C214.853333,117.344 215.149333,117.405333 215.432,117.528 C215.714667,117.650667 215.994667,117.813333 216.272,118.016 L216.272,118.016 L217.12,116.896 C216.8,116.650667 216.421333,116.432 215.984,116.24 C215.546667,116.048 215.056,115.952 214.512,115.952 C213.626667,115.952 212.928,116.170667 212.416,116.608 C211.904,117.045333 211.648,117.610667 211.648,118.304 C211.648,118.634667 211.714667,118.92 211.848,119.16 C211.981333,119.4 212.152,119.610667 212.36,119.792 C212.568,119.973333 212.805333,120.128 213.072,120.256 C213.338667,120.384 213.6,120.496 213.856,120.592 C214.058667,120.677333 214.261333,120.76 214.464,120.84 C214.666667,120.92 214.848,121.008 215.008,121.104 C215.168,121.2 215.296,121.309333 215.392,121.432 C215.488,121.554667 215.536,121.696 215.536,121.856 C215.536,122.133333 215.434667,122.36 215.232,122.536 C215.029333,122.712 214.714667,122.8 214.288,122.8 C213.882667,122.8 213.506667,122.722667 213.16,122.568 C212.813333,122.413333 212.464,122.197333 212.112,121.92 L212.112,121.92 L211.248,123.104 C211.632,123.413333 212.088,123.672 212.616,123.88 C213.144,124.088 213.68,124.192 214.224,124.192 Z M221.12,124.192 C221.610667,124.192 222.048,124.128 222.432,124 C222.816,123.872 223.136,123.698667 223.392,123.48 C223.648,123.261333 223.842667,123.005333 223.976,122.712 C224.109333,122.418667 224.176,122.101333 224.176,121.76 C224.176,121.397333 224.109333,121.085333 223.976,120.824 C223.842667,120.562667 223.666667,120.341333 223.448,120.16 C223.229333,119.978667 222.986667,119.826667 222.72,119.704 C222.453333,119.581333 222.186667,119.472 221.92,119.376 C221.706667,119.301333 221.501333,119.226667 221.304,119.152 C221.106667,119.077333 220.933333,118.997333 220.784,118.912 C220.634667,118.826667 220.514667,118.728 220.424,118.616 C220.333333,118.504 220.288,118.368 220.288,118.208 C220.288,117.962667 220.381333,117.757333 220.568,117.592 C220.754667,117.426667 221.045333,117.344 221.44,117.344 C221.749333,117.344 222.045333,117.405333 222.328,117.528 C222.610667,117.650667 222.890667,117.813333 223.168,118.016 L223.168,118.016 L224.016,116.896 C223.696,116.650667 223.317333,116.432 222.88,116.24 C222.442667,116.048 221.952,115.952 221.408,115.952 C220.522667,115.952 219.824,116.170667 219.312,116.608 C218.8,117.045333 218.544,117.610667 218.544,118.304 C218.544,118.634667 218.610667,118.92 218.744,119.16 C218.877333,119.4 219.048,119.610667 219.256,119.792 C219.464,119.973333 219.701333,120.128 219.968,120.256 C220.234667,120.384 220.496,120.496 220.752,120.592 C220.954667,120.677333 221.157333,120.76 221.36,120.84 C221.562667,120.92 221.744,121.008 221.904,121.104 C222.064,121.2 222.192,121.309333 222.288,121.432 C222.384,121.554667 222.432,121.696 222.432,121.856 C222.432,122.133333 222.330667,122.36 222.128,122.536 C221.925333,122.712 221.610667,122.8 221.184,122.8 C220.778667,122.8 220.402667,122.722667 220.056,122.568 C219.709333,122.413333 219.36,122.197333 219.008,121.92 L219.008,121.92 L218.144,123.104 C218.528,123.413333 218.984,123.672 219.512,123.88 C220.04,124.088 220.576,124.192 221.12,124.192 Z M229.232,124 L230.128,120.352 C230.213333,119.978667 230.293333,119.605333 230.368,119.232 C230.442667,118.858667 230.517333,118.464 230.592,118.048 L230.592,118.048 L230.656,118.048 C230.741333,118.464 230.821333,118.856 230.896,119.224 C230.970667,119.592 231.050667,119.962667 231.136,120.336 L231.136,120.336 L232.048,124 L234.24,124 L236.24,116.144 L234.512,116.144 L233.568,120.224 C233.493333,120.597333 233.424,120.970667 233.36,121.344 C233.296,121.717333 233.226667,122.096 233.152,122.48 L233.152,122.48 L233.088,122.48 C233.002667,122.096 232.917333,121.717333 232.832,121.344 C232.746667,120.970667 232.656,120.597333 232.56,120.224 L232.56,120.224 L231.52,116.144 L229.84,116.144 L228.816,120.224 C228.72,120.597333 228.632,120.970667 228.552,121.344 C228.472,121.717333 228.394667,122.096 228.32,122.48 L228.32,122.48 L228.256,122.48 C228.181333,122.096 228.114667,121.717333 228.056,121.344 C227.997333,120.970667 227.925333,120.597333 227.84,120.224 L227.84,120.224 L226.896,116.144 L225.04,116.144 L227.12,124 L229.232,124 Z M240.912,124.192 C241.402667,124.192 241.874667,124.101333 242.328,123.92 C242.781333,123.738667 243.178667,123.472 243.52,123.12 C243.861333,122.768 244.136,122.336 244.344,121.824 C244.552,121.312 244.656,120.730667 244.656,120.08 C244.656,119.429333 244.552,118.848 244.344,118.336 C244.136,117.824 243.861333,117.392 243.52,117.04 C243.178667,116.688 242.781333,116.418667 242.328,116.232 C241.874667,116.045333 241.402667,115.952 240.912,115.952 C240.421333,115.952 239.952,116.045333 239.504,116.232 C239.056,116.418667 238.658667,116.688 238.312,117.04 C237.965333,117.392 237.690667,117.824 237.488,118.336 C237.285333,118.848 237.184,119.429333 237.184,120.08 C237.184,120.730667 237.285333,121.312 237.488,121.824 C237.690667,122.336 237.965333,122.768 238.312,123.12 C238.658667,123.472 239.056,123.738667 239.504,123.92 C239.952,124.101333 240.421333,124.192 240.912,124.192 Z M240.912,122.688 C240.336,122.688 239.885333,122.450667 239.56,121.976 C239.234667,121.501333 239.072,120.869333 239.072,120.08 C239.072,119.28 239.234667,118.642667 239.56,118.168 C239.885333,117.693333 240.336,117.456 240.912,117.456 C241.488,117.456 241.941333,117.693333 242.272,118.168 C242.602667,118.642667 242.768,119.28 242.768,120.08 C242.768,120.869333 242.602667,121.501333 242.272,121.976 C241.941333,122.450667 241.488,122.688 240.912,122.688 Z M248.32,124 L248.32,119.2 C248.565333,118.602667 248.858667,118.184 249.2,117.944 C249.541333,117.704 249.866667,117.584 250.176,117.584 C250.346667,117.584 250.490667,117.594667 250.608,117.616 C250.725333,117.637333 250.853333,117.669333 250.992,117.712 L250.992,117.712 L251.312,116.112 C251.088,116.005333 250.789333,115.952 250.416,115.952 C250,115.952 249.594667,116.088 249.2,116.36 C248.805333,116.632 248.469333,117.024 248.192,117.536 L248.192,117.536 L248.128,117.536 L248,116.144 L246.48,116.144 L246.48,124 L248.32,124 Z M255.04,124.192 C255.466667,124.192 255.872,124.090667 256.256,123.888 C256.64,123.685333 256.976,123.44 257.264,123.152 L257.264,123.152 L257.328,123.152 L257.456,124 L258.976,124 L258.976,112.704 L257.136,112.704 L257.136,115.552 L257.2,116.816 C256.890667,116.549333 256.581333,116.338667 256.272,116.184 C255.962667,116.029333 255.584,115.952 255.136,115.952 C254.709333,115.952 254.296,116.048 253.896,116.24 C253.496,116.432 253.141333,116.704 252.832,117.056 C252.522667,117.408 252.274667,117.84 252.088,118.352 C251.901333,118.864 251.808,119.44 251.808,120.08 C251.808,121.381333 252.098667,122.392 252.68,123.112 C253.261333,123.832 254.048,124.192 255.04,124.192 Z M255.488,122.672 C254.912,122.672 254.472,122.450667 254.168,122.008 C253.864,121.565333 253.712,120.917333 253.712,120.064 C253.712,119.232 253.888,118.592 254.24,118.144 C254.592,117.696 255.024,117.472 255.536,117.472 C255.802667,117.472 256.066667,117.52 256.328,117.616 C256.589333,117.712 256.858667,117.882667 257.136,118.128 L257.136,118.128 L257.136,121.792 C256.624,122.378667 256.074667,122.672 255.488,122.672 Z" id="Currentpassword" fill="#000000" fill-rule="nonzero"></path>
        <rect id="Rectangle" stroke="#6E7272" x="138.5" y="294.5" width="269" height="39" rx="3"></rect>
        <path d="M143.504,286.192 C144.176,286.192 144.786667,286.061333 145.336,285.8 C145.885333,285.538667 146.373333,285.162667 146.8,284.672 L146.8,284.672 L145.808,283.504 C145.509333,283.824 145.178667,284.082667 144.816,284.28 C144.453333,284.477333 144.037333,284.576 143.568,284.576 C142.682667,284.576 141.981333,284.237333 141.464,283.56 C140.946667,282.882667 140.688,281.946667 140.688,280.752 C140.688,280.165333 140.76,279.637333 140.904,279.168 C141.048,278.698667 141.250667,278.301333 141.512,277.976 C141.773333,277.650667 142.082667,277.4 142.44,277.224 C142.797333,277.048 143.189333,276.96 143.616,276.96 C144.021333,276.96 144.384,277.042667 144.704,277.208 C145.024,277.373333 145.322667,277.594667 145.6,277.872 L145.6,277.872 L146.592,276.672 C146.261333,276.32 145.84,276.010667 145.328,275.744 C144.816,275.477333 144.229333,275.344 143.568,275.344 C142.906667,275.344 142.285333,275.466667 141.704,275.712 C141.122667,275.957333 140.616,276.314667 140.184,276.784 C139.752,277.253333 139.410667,277.826667 139.16,278.504 C138.909333,279.181333 138.784,279.946667 138.784,280.8 C138.784,281.664 138.906667,282.432 139.152,283.104 C139.397333,283.776 139.730667,284.341333 140.152,284.8 C140.573333,285.258667 141.072,285.605333 141.648,285.84 C142.224,286.074667 142.842667,286.192 143.504,286.192 Z M151.6,286.192 C152.090667,286.192 152.562667,286.101333 153.016,285.92 C153.469333,285.738667 153.866667,285.472 154.208,285.12 C154.549333,284.768 154.824,284.336 155.032,283.824 C155.24,283.312 155.344,282.730667 155.344,282.08 C155.344,281.429333 155.24,280.848 155.032,280.336 C154.824,279.824 154.549333,279.392 154.208,279.04 C153.866667,278.688 153.469333,278.418667 153.016,278.232 C152.562667,278.045333 152.090667,277.952 151.6,277.952 C151.109333,277.952 150.64,278.045333 150.192,278.232 C149.744,278.418667 149.346667,278.688 149,279.04 C148.653333,279.392 148.378667,279.824 148.176,280.336 C147.973333,280.848 147.872,281.429333 147.872,282.08 C147.872,282.730667 147.973333,283.312 148.176,283.824 C148.378667,284.336 148.653333,284.768 149,285.12 C149.346667,285.472 149.744,285.738667 150.192,285.92 C150.64,286.101333 151.109333,286.192 151.6,286.192 Z M151.6,284.688 C151.024,284.688 150.573333,284.450667 150.248,283.976 C149.922667,283.501333 149.76,282.869333 149.76,282.08 C149.76,281.28 149.922667,280.642667 150.248,280.168 C150.573333,279.693333 151.024,279.456 151.6,279.456 C152.176,279.456 152.629333,279.693333 152.96,280.168 C153.290667,280.642667 153.456,281.28 153.456,282.08 C153.456,282.869333 153.290667,283.501333 152.96,283.976 C152.629333,284.450667 152.176,284.688 151.6,284.688 Z M159.008,286 L159.008,280.512 C159.338667,280.192 159.634667,279.949333 159.896,279.784 C160.157333,279.618667 160.458667,279.536 160.8,279.536 C161.237333,279.536 161.552,279.669333 161.744,279.936 C161.936,280.202667 162.032,280.661333 162.032,281.312 L162.032,281.312 L162.032,286 L163.872,286 L163.872,281.072 C163.872,280.069333 163.68,279.298667 163.296,278.76 C162.912,278.221333 162.298667,277.952 161.456,277.952 C160.912,277.952 160.434667,278.074667 160.024,278.32 C159.613333,278.565333 159.232,278.858667 158.88,279.2 L158.88,279.2 L158.816,279.2 L158.688,278.144 L157.168,278.144 L157.168,286 L159.008,286 Z M168.288,286 L168.288,279.6 L169.824,279.6 L169.824,278.144 L168.288,278.144 L168.288,277.296 C168.288,276.410667 168.618667,275.968 169.28,275.968 C169.568,275.968 169.856,276.032 170.144,276.16 L170.144,276.16 L170.496,274.784 C170.314667,274.709333 170.098667,274.645333 169.848,274.592 C169.597333,274.538667 169.333333,274.512 169.056,274.512 C168.586667,274.512 168.189333,274.581333 167.864,274.72 C167.538667,274.858667 167.269333,275.053333 167.056,275.304 C166.842667,275.554667 166.688,275.853333 166.592,276.2 C166.496,276.546667 166.448,276.922667 166.448,277.328 L166.448,277.328 L166.448,278.144 L165.392,278.224 L165.392,279.6 L166.448,279.6 L166.448,286 L168.288,286 Z M172.128,276.768 C172.458667,276.768 172.730667,276.672 172.944,276.48 C173.157333,276.288 173.264,276.037333 173.264,275.728 C173.264,275.418667 173.157333,275.165333 172.944,274.968 C172.730667,274.770667 172.458667,274.672 172.128,274.672 C171.797333,274.672 171.525333,274.770667 171.312,274.968 C171.098667,275.165333 170.992,275.418667 170.992,275.728 C170.992,276.037333 171.098667,276.288 171.312,276.48 C171.525333,276.672 171.797333,276.768 172.128,276.768 Z M173.04,286 L173.04,278.144 L171.2,278.144 L171.2,286 L173.04,286 Z M177.232,286 L177.232,281.2 C177.477333,280.602667 177.770667,280.184 178.112,279.944 C178.453333,279.704 178.778667,279.584 179.088,279.584 C179.258667,279.584 179.402667,279.594667 179.52,279.616 C179.637333,279.637333 179.765333,279.669333 179.904,279.712 L179.904,279.712 L180.224,278.112 C180,278.005333 179.701333,277.952 179.328,277.952 C178.912,277.952 178.506667,278.088 178.112,278.36 C177.717333,278.632 177.381333,279.024 177.104,279.536 L177.104,279.536 L177.04,279.536 L176.912,278.144 L175.392,278.144 L175.392,286 L177.232,286 Z M183.2,286 L183.2,280.512 C183.808,279.861333 184.357333,279.536 184.848,279.536 C185.264,279.536 185.570667,279.669333 185.768,279.936 C185.965333,280.202667 186.064,280.661333 186.064,281.312 L186.064,281.312 L186.064,286 L187.904,286 L187.904,280.512 C188.512,279.861333 189.061333,279.536 189.552,279.536 C189.957333,279.536 190.258667,279.669333 190.456,279.936 C190.653333,280.202667 190.752,280.661333 190.752,281.312 L190.752,281.312 L190.752,286 L192.608,286 L192.608,281.072 C192.608,280.069333 192.410667,279.298667 192.016,278.76 C191.621333,278.221333 191.008,277.952 190.176,277.952 C189.674667,277.952 189.221333,278.085333 188.816,278.352 C188.410667,278.618667 188.021333,278.954667 187.648,279.36 C187.466667,278.912 187.202667,278.565333 186.856,278.32 C186.509333,278.074667 186.048,277.952 185.472,277.952 C184.981333,277.952 184.541333,278.074667 184.152,278.32 C183.762667,278.565333 183.402667,278.864 183.072,279.216 L183.072,279.216 L183.008,279.216 L182.88,278.144 L181.36,278.144 L181.36,286 L183.2,286 Z M199.888,286 L199.888,280.512 C200.218667,280.192 200.514667,279.949333 200.776,279.784 C201.037333,279.618667 201.338667,279.536 201.68,279.536 C202.117333,279.536 202.432,279.669333 202.624,279.936 C202.816,280.202667 202.912,280.661333 202.912,281.312 L202.912,281.312 L202.912,286 L204.752,286 L204.752,281.072 C204.752,280.069333 204.56,279.298667 204.176,278.76 C203.792,278.221333 203.178667,277.952 202.336,277.952 C201.792,277.952 201.314667,278.074667 200.904,278.32 C200.493333,278.565333 200.112,278.858667 199.76,279.2 L199.76,279.2 L199.696,279.2 L199.568,278.144 L198.048,278.144 L198.048,286 L199.888,286 Z M210.368,286.192 C210.869333,286.192 211.349333,286.112 211.808,285.952 C212.266667,285.792 212.682667,285.589333 213.056,285.344 L213.056,285.344 L212.432,284.192 C212.144,284.373333 211.853333,284.514667 211.56,284.616 C211.266667,284.717333 210.949333,284.768 210.608,284.768 C209.968,284.768 209.442667,284.578667 209.032,284.2 C208.621333,283.821333 208.373333,283.28 208.288,282.576 L208.288,282.576 L213.28,282.576 C213.301333,282.48 213.32,282.352 213.336,282.192 C213.352,282.032 213.36,281.861333 213.36,281.68 C213.36,281.136 213.290667,280.634667 213.152,280.176 C213.013333,279.717333 212.808,279.322667 212.536,278.992 C212.264,278.661333 211.925333,278.405333 211.52,278.224 C211.114667,278.042667 210.645333,277.952 210.112,277.952 C209.653333,277.952 209.205333,278.048 208.768,278.24 C208.330667,278.432 207.944,278.704 207.608,279.056 C207.272,279.408 207.002667,279.84 206.8,280.352 C206.597333,280.864 206.496,281.44 206.496,282.08 C206.496,282.730667 206.594667,283.309333 206.792,283.816 C206.989333,284.322667 207.264,284.752 207.616,285.104 C207.968,285.456 208.378667,285.725333 208.848,285.912 C209.317333,286.098667 209.824,286.192 210.368,286.192 Z M211.76,281.328 L208.272,281.328 C208.357333,280.688 208.576,280.202667 208.928,279.872 C209.28,279.541333 209.690667,279.376 210.16,279.376 C210.704,279.376 211.106667,279.549333 211.368,279.896 C211.629333,280.242667 211.76,280.72 211.76,281.328 L211.76,281.328 Z M218.528,286 L219.424,282.352 C219.509333,281.978667 219.589333,281.605333 219.664,281.232 C219.738667,280.858667 219.813333,280.464 219.888,280.048 L219.888,280.048 L219.952,280.048 C220.037333,280.464 220.117333,280.856 220.192,281.224 C220.266667,281.592 220.346667,281.962667 220.432,282.336 L220.432,282.336 L221.344,286 L223.536,286 L225.536,278.144 L223.808,278.144 L222.864,282.224 C222.789333,282.597333 222.72,282.970667 222.656,283.344 C222.592,283.717333 222.522667,284.096 222.448,284.48 L222.448,284.48 L222.384,284.48 C222.298667,284.096 222.213333,283.717333 222.128,283.344 C222.042667,282.970667 221.952,282.597333 221.856,282.224 L221.856,282.224 L220.816,278.144 L219.136,278.144 L218.112,282.224 C218.016,282.597333 217.928,282.970667 217.848,283.344 C217.768,283.717333 217.690667,284.096 217.616,284.48 L217.616,284.48 L217.552,284.48 C217.477333,284.096 217.410667,283.717333 217.352,283.344 C217.293333,282.970667 217.221333,282.597333 217.136,282.224 L217.136,282.224 L216.192,278.144 L214.336,278.144 L216.416,286 L218.528,286 Z M232.128,289.104 L232.128,286.64 L232.08,285.328 C232.4,285.605333 232.730667,285.818667 233.072,285.968 C233.413333,286.117333 233.754667,286.192 234.096,286.192 C234.533333,286.192 234.954667,286.096 235.36,285.904 C235.765333,285.712 236.122667,285.437333 236.432,285.08 C236.741333,284.722667 236.989333,284.28 237.176,283.752 C237.362667,283.224 237.456,282.624 237.456,281.952 C237.456,281.344 237.386667,280.794667 237.248,280.304 C237.109333,279.813333 236.906667,279.392 236.64,279.04 C236.373333,278.688 236.050667,278.418667 235.672,278.232 C235.293333,278.045333 234.858667,277.952 234.368,277.952 C233.930667,277.952 233.509333,278.053333 233.104,278.256 C232.698667,278.458667 232.330667,278.698667 232,278.976 L232,278.976 L231.936,278.976 L231.808,278.144 L230.288,278.144 L230.288,289.104 L232.128,289.104 Z M233.712,284.672 C233.477333,284.672 233.226667,284.624 232.96,284.528 C232.693333,284.432 232.416,284.261333 232.128,284.016 L232.128,284.016 L232.128,280.352 C232.725333,279.765333 233.301333,279.472 233.856,279.472 C234.453333,279.472 234.885333,279.690667 235.152,280.128 C235.418667,280.565333 235.552,281.178667 235.552,281.968 C235.552,282.864 235.376,283.538667 235.024,283.992 C234.672,284.445333 234.234667,284.672 233.712,284.672 Z M241.024,286.192 C241.493333,286.192 241.928,286.090667 242.328,285.888 C242.728,285.685333 243.104,285.434667 243.456,285.136 L243.456,285.136 L243.52,285.136 L243.648,286 L245.168,286 L245.168,281.344 C245.168,280.245333 244.925333,279.405333 244.44,278.824 C243.954667,278.242667 243.221333,277.952 242.24,277.952 C241.610667,277.952 241.024,278.053333 240.48,278.256 C239.936,278.458667 239.445333,278.698667 239.008,278.976 L239.008,278.976 L239.68,280.208 C240.032,279.994667 240.392,279.813333 240.76,279.664 C241.128,279.514667 241.504,279.44 241.888,279.44 C242.154667,279.44 242.378667,279.48 242.56,279.56 C242.741333,279.64 242.888,279.752 243,279.896 C243.112,280.04 243.192,280.205333 243.24,280.392 C243.288,280.578667 243.317333,280.773333 243.328,280.976 C242.517333,281.061333 241.821333,281.184 241.24,281.344 C240.658667,281.504 240.178667,281.701333 239.8,281.936 C239.421333,282.170667 239.144,282.450667 238.968,282.776 C238.792,283.101333 238.704,283.472 238.704,283.888 C238.704,284.581333 238.917333,285.138667 239.344,285.56 C239.770667,285.981333 240.330667,286.192 241.024,286.192 Z M241.616,284.752 C241.285333,284.752 241.013333,284.672 240.8,284.512 C240.586667,284.352 240.48,284.096 240.48,283.744 C240.48,283.552 240.528,283.370667 240.624,283.2 C240.72,283.029333 240.88,282.877333 241.104,282.744 C241.328,282.610667 241.621333,282.490667 241.984,282.384 C242.346667,282.277333 242.794667,282.192 243.328,282.128 L243.328,282.128 L243.328,283.888 C243.029333,284.165333 242.749333,284.378667 242.488,284.528 C242.226667,284.677333 241.936,284.752 241.616,284.752 Z M249.568,286.192 C250.058667,286.192 250.496,286.128 250.88,286 C251.264,285.872 251.584,285.698667 251.84,285.48 C252.096,285.261333 252.290667,285.005333 252.424,284.712 C252.557333,284.418667 252.624,284.101333 252.624,283.76 C252.624,283.397333 252.557333,283.085333 252.424,282.824 C252.290667,282.562667 252.114667,282.341333 251.896,282.16 C251.677333,281.978667 251.434667,281.826667 251.168,281.704 C250.901333,281.581333 250.634667,281.472 250.368,281.376 C250.154667,281.301333 249.949333,281.226667 249.752,281.152 C249.554667,281.077333 249.381333,280.997333 249.232,280.912 C249.082667,280.826667 248.962667,280.728 248.872,280.616 C248.781333,280.504 248.736,280.368 248.736,280.208 C248.736,279.962667 248.829333,279.757333 249.016,279.592 C249.202667,279.426667 249.493333,279.344 249.888,279.344 C250.197333,279.344 250.493333,279.405333 250.776,279.528 C251.058667,279.650667 251.338667,279.813333 251.616,280.016 L251.616,280.016 L252.464,278.896 C252.144,278.650667 251.765333,278.432 251.328,278.24 C250.890667,278.048 250.4,277.952 249.856,277.952 C248.970667,277.952 248.272,278.170667 247.76,278.608 C247.248,279.045333 246.992,279.610667 246.992,280.304 C246.992,280.634667 247.058667,280.92 247.192,281.16 C247.325333,281.4 247.496,281.610667 247.704,281.792 C247.912,281.973333 248.149333,282.128 248.416,282.256 C248.682667,282.384 248.944,282.496 249.2,282.592 C249.402667,282.677333 249.605333,282.76 249.808,282.84 C250.010667,282.92 250.192,283.008 250.352,283.104 C250.512,283.2 250.64,283.309333 250.736,283.432 C250.832,283.554667 250.88,283.696 250.88,283.856 C250.88,284.133333 250.778667,284.36 250.576,284.536 C250.373333,284.712 250.058667,284.8 249.632,284.8 C249.226667,284.8 248.850667,284.722667 248.504,284.568 C248.157333,284.413333 247.808,284.197333 247.456,283.92 L247.456,283.92 L246.592,285.104 C246.976,285.413333 247.432,285.672 247.96,285.88 C248.488,286.088 249.024,286.192 249.568,286.192 Z M256.464,286.192 C256.954667,286.192 257.392,286.128 257.776,286 C258.16,285.872 258.48,285.698667 258.736,285.48 C258.992,285.261333 259.186667,285.005333 259.32,284.712 C259.453333,284.418667 259.52,284.101333 259.52,283.76 C259.52,283.397333 259.453333,283.085333 259.32,282.824 C259.186667,282.562667 259.010667,282.341333 258.792,282.16 C258.573333,281.978667 258.330667,281.826667 258.064,281.704 C257.797333,281.581333 257.530667,281.472 257.264,281.376 C257.050667,281.301333 256.845333,281.226667 256.648,281.152 C256.450667,281.077333 256.277333,280.997333 256.128,280.912 C255.978667,280.826667 255.858667,280.728 255.768,280.616 C255.677333,280.504 255.632,280.368 255.632,280.208 C255.632,279.962667 255.725333,279.757333 255.912,279.592 C256.098667,279.426667 256.389333,279.344 256.784,279.344 C257.093333,279.344 257.389333,279.405333 257.672,279.528 C257.954667,279.650667 258.234667,279.813333 258.512,280.016 L258.512,280.016 L259.36,278.896 C259.04,278.650667 258.661333,278.432 258.224,278.24 C257.786667,278.048 257.296,277.952 256.752,277.952 C255.866667,277.952 255.168,278.170667 254.656,278.608 C254.144,279.045333 253.888,279.610667 253.888,280.304 C253.888,280.634667 253.954667,280.92 254.088,281.16 C254.221333,281.4 254.392,281.610667 254.6,281.792 C254.808,281.973333 255.045333,282.128 255.312,282.256 C255.578667,282.384 255.84,282.496 256.096,282.592 C256.298667,282.677333 256.501333,282.76 256.704,282.84 C256.906667,282.92 257.088,283.008 257.248,283.104 C257.408,283.2 257.536,283.309333 257.632,283.432 C257.728,283.554667 257.776,283.696 257.776,283.856 C257.776,284.133333 257.674667,284.36 257.472,284.536 C257.269333,284.712 256.954667,284.8 256.528,284.8 C256.122667,284.8 255.746667,284.722667 255.4,284.568 C255.053333,284.413333 254.704,284.197333 254.352,283.92 L254.352,283.92 L253.488,285.104 C253.872,285.413333 254.328,285.672 254.856,285.88 C255.384,286.088 255.92,286.192 256.464,286.192 Z M264.576,286 L265.472,282.352 C265.557333,281.978667 265.637333,281.605333 265.712,281.232 C265.786667,280.858667 265.861333,280.464 265.936,280.048 L265.936,280.048 L266,280.048 C266.085333,280.464 266.165333,280.856 266.24,281.224 C266.314667,281.592 266.394667,281.962667 266.48,282.336 L266.48,282.336 L267.392,286 L269.584,286 L271.584,278.144 L269.856,278.144 L268.912,282.224 C268.837333,282.597333 268.768,282.970667 268.704,283.344 C268.64,283.717333 268.570667,284.096 268.496,284.48 L268.496,284.48 L268.432,284.48 C268.346667,284.096 268.261333,283.717333 268.176,283.344 C268.090667,282.970667 268,282.597333 267.904,282.224 L267.904,282.224 L266.864,278.144 L265.184,278.144 L264.16,282.224 C264.064,282.597333 263.976,282.970667 263.896,283.344 C263.816,283.717333 263.738667,284.096 263.664,284.48 L263.664,284.48 L263.6,284.48 C263.525333,284.096 263.458667,283.717333 263.4,283.344 C263.341333,282.970667 263.269333,282.597333 263.184,282.224 L263.184,282.224 L262.24,278.144 L260.384,278.144 L262.464,286 L264.576,286 Z M276.256,286.192 C276.746667,286.192 277.218667,286.101333 277.672,285.92 C278.125333,285.738667 278.522667,285.472 278.864,285.12 C279.205333,284.768 279.48,284.336 279.688,283.824 C279.896,283.312 280,282.730667 280,282.08 C280,281.429333 279.896,280.848 279.688,280.336 C279.48,279.824 279.205333,279.392 278.864,279.04 C278.522667,278.688 278.125333,278.418667 277.672,278.232 C277.218667,278.045333 276.746667,277.952 276.256,277.952 C275.765333,277.952 275.296,278.045333 274.848,278.232 C274.4,278.418667 274.002667,278.688 273.656,279.04 C273.309333,279.392 273.034667,279.824 272.832,280.336 C272.629333,280.848 272.528,281.429333 272.528,282.08 C272.528,282.730667 272.629333,283.312 272.832,283.824 C273.034667,284.336 273.309333,284.768 273.656,285.12 C274.002667,285.472 274.4,285.738667 274.848,285.92 C275.296,286.101333 275.765333,286.192 276.256,286.192 Z M276.256,284.688 C275.68,284.688 275.229333,284.450667 274.904,283.976 C274.578667,283.501333 274.416,282.869333 274.416,282.08 C274.416,281.28 274.578667,280.642667 274.904,280.168 C275.229333,279.693333 275.68,279.456 276.256,279.456 C276.832,279.456 277.285333,279.693333 277.616,280.168 C277.946667,280.642667 278.112,281.28 278.112,282.08 C278.112,282.869333 277.946667,283.501333 277.616,283.976 C277.285333,284.450667 276.832,284.688 276.256,284.688 Z M283.664,286 L283.664,281.2 C283.909333,280.602667 284.202667,280.184 284.544,279.944 C284.885333,279.704 285.210667,279.584 285.52,279.584 C285.690667,279.584 285.834667,279.594667 285.952,279.616 C286.069333,279.637333 286.197333,279.669333 286.336,279.712 L286.336,279.712 L286.656,278.112 C286.432,278.005333 286.133333,277.952 285.76,277.952 C285.344,277.952 284.938667,278.088 284.544,278.36 C284.149333,278.632 283.813333,279.024 283.536,279.536 L283.536,279.536 L283.472,279.536 L283.344,278.144 L281.824,278.144 L281.824,286 L283.664,286 Z M290.384,286.192 C290.810667,286.192 291.216,286.090667 291.6,285.888 C291.984,285.685333 292.32,285.44 292.608,285.152 L292.608,285.152 L292.672,285.152 L292.8,286 L294.32,286 L294.32,274.704 L292.48,274.704 L292.48,277.552 L292.544,278.816 C292.234667,278.549333 291.925333,278.338667 291.616,278.184 C291.306667,278.029333 290.928,277.952 290.48,277.952 C290.053333,277.952 289.64,278.048 289.24,278.24 C288.84,278.432 288.485333,278.704 288.176,279.056 C287.866667,279.408 287.618667,279.84 287.432,280.352 C287.245333,280.864 287.152,281.44 287.152,282.08 C287.152,283.381333 287.442667,284.392 288.024,285.112 C288.605333,285.832 289.392,286.192 290.384,286.192 Z M290.832,284.672 C290.256,284.672 289.816,284.450667 289.512,284.008 C289.208,283.565333 289.056,282.917333 289.056,282.064 C289.056,281.232 289.232,280.592 289.584,280.144 C289.936,279.696 290.368,279.472 290.88,279.472 C291.146667,279.472 291.410667,279.52 291.672,279.616 C291.933333,279.712 292.202667,279.882667 292.48,280.128 L292.48,280.128 L292.48,283.792 C291.968,284.378667 291.418667,284.672 290.832,284.672 Z" id="Confirmnewpassword" fill="#000000" fill-rule="nonzero"></path>
        <rect id="Rectangle" stroke="#6E7272" x="138.5" y="213.5" width="269" height="39" rx="3"></rect>
        <path d="M141.104,205 L141.104,200.424 C141.104,199.837333 141.074667,199.24 141.016,198.632 C140.957333,198.024 140.906667,197.442667 140.864,196.888 L140.864,196.888 L140.928,196.888 L142,199.112 L145.264,205 L147.168,205 L147.168,194.536 L145.392,194.536 L145.392,199.08 C145.392,199.666667 145.421333,200.272 145.48,200.896 C145.538667,201.52 145.589333,202.104 145.632,202.648 L145.632,202.648 L145.568,202.648 L144.496,200.424 L141.232,194.536 L139.328,194.536 L139.328,205 L141.104,205 Z M153.024,205.192 C153.525333,205.192 154.005333,205.112 154.464,204.952 C154.922667,204.792 155.338667,204.589333 155.712,204.344 L155.712,204.344 L155.088,203.192 C154.8,203.373333 154.509333,203.514667 154.216,203.616 C153.922667,203.717333 153.605333,203.768 153.264,203.768 C152.624,203.768 152.098667,203.578667 151.688,203.2 C151.277333,202.821333 151.029333,202.28 150.944,201.576 L150.944,201.576 L155.936,201.576 C155.957333,201.48 155.976,201.352 155.992,201.192 C156.008,201.032 156.016,200.861333 156.016,200.68 C156.016,200.136 155.946667,199.634667 155.808,199.176 C155.669333,198.717333 155.464,198.322667 155.192,197.992 C154.92,197.661333 154.581333,197.405333 154.176,197.224 C153.770667,197.042667 153.301333,196.952 152.768,196.952 C152.309333,196.952 151.861333,197.048 151.424,197.24 C150.986667,197.432 150.6,197.704 150.264,198.056 C149.928,198.408 149.658667,198.84 149.456,199.352 C149.253333,199.864 149.152,200.44 149.152,201.08 C149.152,201.730667 149.250667,202.309333 149.448,202.816 C149.645333,203.322667 149.92,203.752 150.272,204.104 C150.624,204.456 151.034667,204.725333 151.504,204.912 C151.973333,205.098667 152.48,205.192 153.024,205.192 Z M154.416,200.328 L150.928,200.328 C151.013333,199.688 151.232,199.202667 151.584,198.872 C151.936,198.541333 152.346667,198.376 152.816,198.376 C153.36,198.376 153.762667,198.549333 154.024,198.896 C154.285333,199.242667 154.416,199.72 154.416,200.328 L154.416,200.328 Z M161.184,205 L162.08,201.352 C162.165333,200.978667 162.245333,200.605333 162.32,200.232 C162.394667,199.858667 162.469333,199.464 162.544,199.048 L162.544,199.048 L162.608,199.048 C162.693333,199.464 162.773333,199.856 162.848,200.224 C162.922667,200.592 163.002667,200.962667 163.088,201.336 L163.088,201.336 L164,205 L166.192,205 L168.192,197.144 L166.464,197.144 L165.52,201.224 C165.445333,201.597333 165.376,201.970667 165.312,202.344 C165.248,202.717333 165.178667,203.096 165.104,203.48 L165.104,203.48 L165.04,203.48 C164.954667,203.096 164.869333,202.717333 164.784,202.344 C164.698667,201.970667 164.608,201.597333 164.512,201.224 L164.512,201.224 L163.472,197.144 L161.792,197.144 L160.768,201.224 C160.672,201.597333 160.584,201.970667 160.504,202.344 C160.424,202.717333 160.346667,203.096 160.272,203.48 L160.272,203.48 L160.208,203.48 C160.133333,203.096 160.066667,202.717333 160.008,202.344 C159.949333,201.970667 159.877333,201.597333 159.792,201.224 L159.792,201.224 L158.848,197.144 L156.992,197.144 L159.072,205 L161.184,205 Z M174.784,208.104 L174.784,205.64 L174.736,204.328 C175.056,204.605333 175.386667,204.818667 175.728,204.968 C176.069333,205.117333 176.410667,205.192 176.752,205.192 C177.189333,205.192 177.610667,205.096 178.016,204.904 C178.421333,204.712 178.778667,204.437333 179.088,204.08 C179.397333,203.722667 179.645333,203.28 179.832,202.752 C180.018667,202.224 180.112,201.624 180.112,200.952 C180.112,200.344 180.042667,199.794667 179.904,199.304 C179.765333,198.813333 179.562667,198.392 179.296,198.04 C179.029333,197.688 178.706667,197.418667 178.328,197.232 C177.949333,197.045333 177.514667,196.952 177.024,196.952 C176.586667,196.952 176.165333,197.053333 175.76,197.256 C175.354667,197.458667 174.986667,197.698667 174.656,197.976 L174.656,197.976 L174.592,197.976 L174.464,197.144 L172.944,197.144 L172.944,208.104 L174.784,208.104 Z M176.368,203.672 C176.133333,203.672 175.882667,203.624 175.616,203.528 C175.349333,203.432 175.072,203.261333 174.784,203.016 L174.784,203.016 L174.784,199.352 C175.381333,198.765333 175.957333,198.472 176.512,198.472 C177.109333,198.472 177.541333,198.690667 177.808,199.128 C178.074667,199.565333 178.208,200.178667 178.208,200.968 C178.208,201.864 178.032,202.538667 177.68,202.992 C177.328,203.445333 176.890667,203.672 176.368,203.672 Z M183.68,205.192 C184.149333,205.192 184.584,205.090667 184.984,204.888 C185.384,204.685333 185.76,204.434667 186.112,204.136 L186.112,204.136 L186.176,204.136 L186.304,205 L187.824,205 L187.824,200.344 C187.824,199.245333 187.581333,198.405333 187.096,197.824 C186.610667,197.242667 185.877333,196.952 184.896,196.952 C184.266667,196.952 183.68,197.053333 183.136,197.256 C182.592,197.458667 182.101333,197.698667 181.664,197.976 L181.664,197.976 L182.336,199.208 C182.688,198.994667 183.048,198.813333 183.416,198.664 C183.784,198.514667 184.16,198.44 184.544,198.44 C184.810667,198.44 185.034667,198.48 185.216,198.56 C185.397333,198.64 185.544,198.752 185.656,198.896 C185.768,199.04 185.848,199.205333 185.896,199.392 C185.944,199.578667 185.973333,199.773333 185.984,199.976 C185.173333,200.061333 184.477333,200.184 183.896,200.344 C183.314667,200.504 182.834667,200.701333 182.456,200.936 C182.077333,201.170667 181.8,201.450667 181.624,201.776 C181.448,202.101333 181.36,202.472 181.36,202.888 C181.36,203.581333 181.573333,204.138667 182,204.56 C182.426667,204.981333 182.986667,205.192 183.68,205.192 Z M184.272,203.752 C183.941333,203.752 183.669333,203.672 183.456,203.512 C183.242667,203.352 183.136,203.096 183.136,202.744 C183.136,202.552 183.184,202.370667 183.28,202.2 C183.376,202.029333 183.536,201.877333 183.76,201.744 C183.984,201.610667 184.277333,201.490667 184.64,201.384 C185.002667,201.277333 185.450667,201.192 185.984,201.128 L185.984,201.128 L185.984,202.888 C185.685333,203.165333 185.405333,203.378667 185.144,203.528 C184.882667,203.677333 184.592,203.752 184.272,203.752 Z M192.224,205.192 C192.714667,205.192 193.152,205.128 193.536,205 C193.92,204.872 194.24,204.698667 194.496,204.48 C194.752,204.261333 194.946667,204.005333 195.08,203.712 C195.213333,203.418667 195.28,203.101333 195.28,202.76 C195.28,202.397333 195.213333,202.085333 195.08,201.824 C194.946667,201.562667 194.770667,201.341333 194.552,201.16 C194.333333,200.978667 194.090667,200.826667 193.824,200.704 C193.557333,200.581333 193.290667,200.472 193.024,200.376 C192.810667,200.301333 192.605333,200.226667 192.408,200.152 C192.210667,200.077333 192.037333,199.997333 191.888,199.912 C191.738667,199.826667 191.618667,199.728 191.528,199.616 C191.437333,199.504 191.392,199.368 191.392,199.208 C191.392,198.962667 191.485333,198.757333 191.672,198.592 C191.858667,198.426667 192.149333,198.344 192.544,198.344 C192.853333,198.344 193.149333,198.405333 193.432,198.528 C193.714667,198.650667 193.994667,198.813333 194.272,199.016 L194.272,199.016 L195.12,197.896 C194.8,197.650667 194.421333,197.432 193.984,197.24 C193.546667,197.048 193.056,196.952 192.512,196.952 C191.626667,196.952 190.928,197.170667 190.416,197.608 C189.904,198.045333 189.648,198.610667 189.648,199.304 C189.648,199.634667 189.714667,199.92 189.848,200.16 C189.981333,200.4 190.152,200.610667 190.36,200.792 C190.568,200.973333 190.805333,201.128 191.072,201.256 C191.338667,201.384 191.6,201.496 191.856,201.592 C192.058667,201.677333 192.261333,201.76 192.464,201.84 C192.666667,201.92 192.848,202.008 193.008,202.104 C193.168,202.2 193.296,202.309333 193.392,202.432 C193.488,202.554667 193.536,202.696 193.536,202.856 C193.536,203.133333 193.434667,203.36 193.232,203.536 C193.029333,203.712 192.714667,203.8 192.288,203.8 C191.882667,203.8 191.506667,203.722667 191.16,203.568 C190.813333,203.413333 190.464,203.197333 190.112,202.92 L190.112,202.92 L189.248,204.104 C189.632,204.413333 190.088,204.672 190.616,204.88 C191.144,205.088 191.68,205.192 192.224,205.192 Z M199.12,205.192 C199.610667,205.192 200.048,205.128 200.432,205 C200.816,204.872 201.136,204.698667 201.392,204.48 C201.648,204.261333 201.842667,204.005333 201.976,203.712 C202.109333,203.418667 202.176,203.101333 202.176,202.76 C202.176,202.397333 202.109333,202.085333 201.976,201.824 C201.842667,201.562667 201.666667,201.341333 201.448,201.16 C201.229333,200.978667 200.986667,200.826667 200.72,200.704 C200.453333,200.581333 200.186667,200.472 199.92,200.376 C199.706667,200.301333 199.501333,200.226667 199.304,200.152 C199.106667,200.077333 198.933333,199.997333 198.784,199.912 C198.634667,199.826667 198.514667,199.728 198.424,199.616 C198.333333,199.504 198.288,199.368 198.288,199.208 C198.288,198.962667 198.381333,198.757333 198.568,198.592 C198.754667,198.426667 199.045333,198.344 199.44,198.344 C199.749333,198.344 200.045333,198.405333 200.328,198.528 C200.610667,198.650667 200.890667,198.813333 201.168,199.016 L201.168,199.016 L202.016,197.896 C201.696,197.650667 201.317333,197.432 200.88,197.24 C200.442667,197.048 199.952,196.952 199.408,196.952 C198.522667,196.952 197.824,197.170667 197.312,197.608 C196.8,198.045333 196.544,198.610667 196.544,199.304 C196.544,199.634667 196.610667,199.92 196.744,200.16 C196.877333,200.4 197.048,200.610667 197.256,200.792 C197.464,200.973333 197.701333,201.128 197.968,201.256 C198.234667,201.384 198.496,201.496 198.752,201.592 C198.954667,201.677333 199.157333,201.76 199.36,201.84 C199.562667,201.92 199.744,202.008 199.904,202.104 C200.064,202.2 200.192,202.309333 200.288,202.432 C200.384,202.554667 200.432,202.696 200.432,202.856 C200.432,203.133333 200.330667,203.36 200.128,203.536 C199.925333,203.712 199.610667,203.8 199.184,203.8 C198.778667,203.8 198.402667,203.722667 198.056,203.568 C197.709333,203.413333 197.36,203.197333 197.008,202.92 L197.008,202.92 L196.144,204.104 C196.528,204.413333 196.984,204.672 197.512,204.88 C198.04,205.088 198.576,205.192 199.12,205.192 Z M207.232,205 L208.128,201.352 C208.213333,200.978667 208.293333,200.605333 208.368,200.232 C208.442667,199.858667 208.517333,199.464 208.592,199.048 L208.592,199.048 L208.656,199.048 C208.741333,199.464 208.821333,199.856 208.896,200.224 C208.970667,200.592 209.050667,200.962667 209.136,201.336 L209.136,201.336 L210.048,205 L212.24,205 L214.24,197.144 L212.512,197.144 L211.568,201.224 C211.493333,201.597333 211.424,201.970667 211.36,202.344 C211.296,202.717333 211.226667,203.096 211.152,203.48 L211.152,203.48 L211.088,203.48 C211.002667,203.096 210.917333,202.717333 210.832,202.344 C210.746667,201.970667 210.656,201.597333 210.56,201.224 L210.56,201.224 L209.52,197.144 L207.84,197.144 L206.816,201.224 C206.72,201.597333 206.632,201.970667 206.552,202.344 C206.472,202.717333 206.394667,203.096 206.32,203.48 L206.32,203.48 L206.256,203.48 C206.181333,203.096 206.114667,202.717333 206.056,202.344 C205.997333,201.970667 205.925333,201.597333 205.84,201.224 L205.84,201.224 L204.896,197.144 L203.04,197.144 L205.12,205 L207.232,205 Z M218.912,205.192 C219.402667,205.192 219.874667,205.101333 220.328,204.92 C220.781333,204.738667 221.178667,204.472 221.52,204.12 C221.861333,203.768 222.136,203.336 222.344,202.824 C222.552,202.312 222.656,201.730667 222.656,201.08 C222.656,200.429333 222.552,199.848 222.344,199.336 C222.136,198.824 221.861333,198.392 221.52,198.04 C221.178667,197.688 220.781333,197.418667 220.328,197.232 C219.874667,197.045333 219.402667,196.952 218.912,196.952 C218.421333,196.952 217.952,197.045333 217.504,197.232 C217.056,197.418667 216.658667,197.688 216.312,198.04 C215.965333,198.392 215.690667,198.824 215.488,199.336 C215.285333,199.848 215.184,200.429333 215.184,201.08 C215.184,201.730667 215.285333,202.312 215.488,202.824 C215.690667,203.336 215.965333,203.768 216.312,204.12 C216.658667,204.472 217.056,204.738667 217.504,204.92 C217.952,205.101333 218.421333,205.192 218.912,205.192 Z M218.912,203.688 C218.336,203.688 217.885333,203.450667 217.56,202.976 C217.234667,202.501333 217.072,201.869333 217.072,201.08 C217.072,200.28 217.234667,199.642667 217.56,199.168 C217.885333,198.693333 218.336,198.456 218.912,198.456 C219.488,198.456 219.941333,198.693333 220.272,199.168 C220.602667,199.642667 220.768,200.28 220.768,201.08 C220.768,201.869333 220.602667,202.501333 220.272,202.976 C219.941333,203.450667 219.488,203.688 218.912,203.688 Z M226.32,205 L226.32,200.2 C226.565333,199.602667 226.858667,199.184 227.2,198.944 C227.541333,198.704 227.866667,198.584 228.176,198.584 C228.346667,198.584 228.490667,198.594667 228.608,198.616 C228.725333,198.637333 228.853333,198.669333 228.992,198.712 L228.992,198.712 L229.312,197.112 C229.088,197.005333 228.789333,196.952 228.416,196.952 C228,196.952 227.594667,197.088 227.2,197.36 C226.805333,197.632 226.469333,198.024 226.192,198.536 L226.192,198.536 L226.128,198.536 L226,197.144 L224.48,197.144 L224.48,205 L226.32,205 Z M233.04,205.192 C233.466667,205.192 233.872,205.090667 234.256,204.888 C234.64,204.685333 234.976,204.44 235.264,204.152 L235.264,204.152 L235.328,204.152 L235.456,205 L236.976,205 L236.976,193.704 L235.136,193.704 L235.136,196.552 L235.2,197.816 C234.890667,197.549333 234.581333,197.338667 234.272,197.184 C233.962667,197.029333 233.584,196.952 233.136,196.952 C232.709333,196.952 232.296,197.048 231.896,197.24 C231.496,197.432 231.141333,197.704 230.832,198.056 C230.522667,198.408 230.274667,198.84 230.088,199.352 C229.901333,199.864 229.808,200.44 229.808,201.08 C229.808,202.381333 230.098667,203.392 230.68,204.112 C231.261333,204.832 232.048,205.192 233.04,205.192 Z M233.488,203.672 C232.912,203.672 232.472,203.450667 232.168,203.008 C231.864,202.565333 231.712,201.917333 231.712,201.064 C231.712,200.232 231.888,199.592 232.24,199.144 C232.592,198.696 233.024,198.472 233.536,198.472 C233.802667,198.472 234.066667,198.52 234.328,198.616 C234.589333,198.712 234.858667,198.882667 235.136,199.128 L235.136,199.128 L235.136,202.792 C234.624,203.378667 234.074667,203.672 233.488,203.672 Z" id="Newpassword" fill="#000000" fill-rule="nonzero"></path>
        <path id="Line" d="M106,29 L106,310 L116,310 L104,334 L92,310 L102,310 L102,29 L106,29 Z" fill="#5151D3" fill-rule="nonzero"></path>
    </g>
</svg>