<svg id="Layer_1" data-name="Layer 1" xmlns="http://www.w3.org/2000/svg" viewBox="0 0 480 400"><defs><style>.cls-1{fill:#00916a;}.cls-2{fill:#f5f5f5;}.cls-3{fill:none;stroke:#6e7272;stroke-miterlimit:10;}.cls-4{fill:#5151d3;}</style></defs><rect class="cls-1" width="6" height="400"/><rect class="cls-2" x="6" width="475.25" height="400"/><path class="cls-1" d="M32.4,10.2A15.7,15.7,0,1,0,48.1,25.9,15.73,15.73,0,0,0,32.4,10.2ZM29.3,33.7l-7.8-7.8,2.2-2.2,5.6,5.6L41.1,17.4l2.2,2.2Z"/><path d="M101.11,53.05V42.59h6.31v1.57H103v2.67h3.76V48.4H103v3.09h4.61v1.56Z"/><path d="M109.56,53.05V45.2h1.52l.13,1.07h.06a5.74,5.74,0,0,1,1.08-.9,2.47,2.47,0,0,1,1.32-.36,2.09,2.09,0,0,1,2.18,1.4,6,6,0,0,1,1.17-1,2.39,2.39,0,0,1,1.36-.4,2.16,2.16,0,0,1,1.84.8,3.91,3.91,0,0,1,.59,2.32v4.92H119V48.37a2.48,2.48,0,0,0-.29-1.38,1.05,1.05,0,0,0-.91-.4,2.49,2.49,0,0,0-1.65,1v5.48h-1.83V48.37A2.39,2.39,0,0,0,114,47a1.06,1.06,0,0,0-.92-.4,2.49,2.49,0,0,0-1.65,1v5.48Z"/><path d="M125,53.25a2.33,2.33,0,0,1-2-3.42,2.29,2.29,0,0,1,.83-.84,5.73,5.73,0,0,1,1.44-.59,13.72,13.72,0,0,1,2.09-.37,2.7,2.7,0,0,0-.09-.58,1.37,1.37,0,0,0-.24-.5,1.27,1.27,0,0,0-.44-.34,1.67,1.67,0,0,0-.67-.12,3,3,0,0,0-1.13.23,7.77,7.77,0,0,0-1.08.54L122.94,46a7.18,7.18,0,0,1,1.47-.72,5,5,0,0,1,1.76-.3,2.71,2.71,0,0,1,2.2.87,3.86,3.86,0,0,1,.73,2.52v4.65h-1.52l-.13-.86h-.07a5.48,5.48,0,0,1-1.12.75A2.78,2.78,0,0,1,125,53.25Zm.59-1.44a1.78,1.78,0,0,0,.88-.23,4.68,4.68,0,0,0,.84-.64V49.18a8.53,8.53,0,0,0-1.35.26,4.43,4.43,0,0,0-.88.36,1.31,1.31,0,0,0-.48.45,1.21,1.21,0,0,0-.14.55.91.91,0,0,0,.32.77A1.3,1.3,0,0,0,125.54,51.81Z"/><path d="M132.23,43.82a1.12,1.12,0,0,1-.81-.29.93.93,0,0,1-.32-.75,1,1,0,0,1,.32-.76,1.12,1.12,0,0,1,.81-.29,1.16,1.16,0,0,1,.82.29,1,1,0,0,1,.32.76,1,1,0,0,1-.32.75A1.16,1.16,0,0,1,132.23,43.82Zm-.93,9.23V45.2h1.84v7.85Z"/><path d="M137.29,53.25a1.54,1.54,0,0,1-1.39-.6,2.8,2.8,0,0,1-.4-1.61V41.76h1.84v9.37a.73.73,0,0,0,.12.48.38.38,0,0,0,.28.13h.12l.16,0,.24,1.38A2.58,2.58,0,0,1,137.29,53.25Z"/><rect class="cls-3" x="99.63" y="61.65" width="320" height="38" rx="4"/><path d="M105.29,136a5,5,0,0,1-1.86-.35,4.31,4.31,0,0,1-1.49-1,5,5,0,0,1-1-1.7,7.33,7.33,0,0,1,0-4.6,5.15,5.15,0,0,1,1-1.72,4.25,4.25,0,0,1,1.52-1.07,4.64,4.64,0,0,1,1.86-.37,3.71,3.71,0,0,1,1.76.4,4.64,4.64,0,0,1,1.27.93l-1,1.2a3.53,3.53,0,0,0-.89-.67,2.39,2.39,0,0,0-1.09-.24,2.51,2.51,0,0,0-1.17.26,2.68,2.68,0,0,0-.93.75,3.52,3.52,0,0,0-.61,1.19,5.22,5.22,0,0,0-.22,1.59,4.48,4.48,0,0,0,.78,2.8,2.51,2.51,0,0,0,2.1,1,2.54,2.54,0,0,0,1.25-.3,3.78,3.78,0,0,0,1-.77l1,1.17a4.53,4.53,0,0,1-1.46,1.13A4.23,4.23,0,0,1,105.29,136Z"/><path d="M112.34,136a2.11,2.11,0,0,1-1.84-.81,4,4,0,0,1-.57-2.31V128h1.84v4.69a2.34,2.34,0,0,0,.29,1.37,1,1,0,0,0,.92.4,1.61,1.61,0,0,0,.91-.25,3.67,3.67,0,0,0,.84-.84V128h1.84v7.86h-1.51l-.14-1.16h0a4.6,4.6,0,0,1-1.11,1A2.7,2.7,0,0,1,112.34,136Z"/><path d="M118.9,135.81V128h1.53l.12,1.39h.07a3.36,3.36,0,0,1,1-1.18,2.16,2.16,0,0,1,1.22-.4,2.1,2.1,0,0,1,.9.16l-.32,1.6a2.24,2.24,0,0,0-.39-.1,2.54,2.54,0,0,0-.43,0,1.75,1.75,0,0,0-1,.36,2.83,2.83,0,0,0-.88,1.26v4.8Z"/><path d="M124.87,135.81V128h1.52l.13,1.39h.06a3.48,3.48,0,0,1,1-1.18,2.14,2.14,0,0,1,1.22-.4,2,2,0,0,1,.89.16l-.32,1.6a2,2,0,0,0-.38-.1,2.63,2.63,0,0,0-.43,0,1.72,1.72,0,0,0-1,.36,2.83,2.83,0,0,0-.88,1.26v4.8Z"/><path d="M134,136a4.23,4.23,0,0,1-1.52-.28,3.66,3.66,0,0,1-1.23-.81,3.72,3.72,0,0,1-.83-1.29,4.9,4.9,0,0,1-.29-1.73,4.68,4.68,0,0,1,.3-1.73,3.88,3.88,0,0,1,.81-1.3,3.58,3.58,0,0,1,1.16-.81,3.21,3.21,0,0,1,1.34-.29,3.41,3.41,0,0,1,1.41.27,2.71,2.71,0,0,1,1,.77,3.23,3.23,0,0,1,.61,1.18,5.15,5.15,0,0,1,.21,1.51c0,.18,0,.35,0,.51s0,.28-.06.38h-5a2.59,2.59,0,0,0,.74,1.63,2.28,2.28,0,0,0,1.58.56,2.91,2.91,0,0,0,.95-.15,3.87,3.87,0,0,0,.87-.42l.63,1.15a6,6,0,0,1-1.25.61A4.35,4.35,0,0,1,134,136Zm-2.1-4.87h3.49a2.36,2.36,0,0,0-.39-1.43,1.4,1.4,0,0,0-1.21-.52,1.74,1.74,0,0,0-1.23.5A2.37,2.37,0,0,0,131.94,131.13Z"/><path d="M138.79,135.81V128h1.52l.13,1.06h.06a6.45,6.45,0,0,1,1.15-.89,2.79,2.79,0,0,1,1.43-.36,2.1,2.1,0,0,1,1.84.81,3.93,3.93,0,0,1,.58,2.31v4.93h-1.84v-4.69a2.48,2.48,0,0,0-.29-1.38,1.08,1.08,0,0,0-1-.4,1.6,1.6,0,0,0-.9.25,5.53,5.53,0,0,0-.89.73v5.49Z"/><path d="M150.52,136a2.86,2.86,0,0,1-1.16-.21,2,2,0,0,1-.77-.59,2.46,2.46,0,0,1-.43-.89,4.61,4.61,0,0,1-.14-1.16V129.4H146.9V128l1.22-.08.22-2.14h1.54V128h2v1.45h-2v3.75c0,.92.37,1.38,1.1,1.38a2.18,2.18,0,0,0,.43-.05,2.23,2.23,0,0,0,.39-.13l.32,1.36a7.47,7.47,0,0,1-.73.2A4,4,0,0,1,150.52,136Z"/><path d="M156.73,138.91V128h1.52l.13.83h.06a5.49,5.49,0,0,1,1.1-.72,3,3,0,0,1,2.57,0,2.59,2.59,0,0,1,1,.81,3.7,3.7,0,0,1,.61,1.26,6,6,0,0,1,.21,1.65,5.57,5.57,0,0,1-.28,1.8,4.27,4.27,0,0,1-.75,1.33,3.26,3.26,0,0,1-1.07.82,2.94,2.94,0,0,1-1.26.29,2.53,2.53,0,0,1-1-.23,3.88,3.88,0,0,1-1-.64l0,1.32v2.46Zm3.42-4.43a1.61,1.61,0,0,0,1.31-.68,3.24,3.24,0,0,0,.53-2,3.51,3.51,0,0,0-.4-1.84,1.4,1.4,0,0,0-1.29-.65,2.54,2.54,0,0,0-1.73.88v3.66a2.52,2.52,0,0,0,.83.51A2.17,2.17,0,0,0,160.15,134.48Z"/><path d="M167.46,136a2.33,2.33,0,0,1-2.05-3.42,2.29,2.29,0,0,1,.83-.84,5.73,5.73,0,0,1,1.44-.59,13.72,13.72,0,0,1,2.09-.37,2.7,2.7,0,0,0-.09-.58,1.45,1.45,0,0,0-.24-.5,1.27,1.27,0,0,0-.44-.34,1.67,1.67,0,0,0-.67-.12,3,3,0,0,0-1.13.23,7.77,7.77,0,0,0-1.08.54l-.67-1.23a7.73,7.73,0,0,1,1.47-.72,5,5,0,0,1,1.76-.3,2.7,2.7,0,0,1,2.2.87,3.81,3.81,0,0,1,.73,2.52v4.66h-1.52l-.13-.87h-.06a5.83,5.83,0,0,1-1.13.75A2.78,2.78,0,0,1,167.46,136Zm.6-1.44a1.71,1.71,0,0,0,.87-.23,4.68,4.68,0,0,0,.84-.64v-1.76a8.77,8.77,0,0,0-1.35.26,4.43,4.43,0,0,0-.88.36,1.25,1.25,0,0,0-.48.46,1.14,1.14,0,0,0-.14.54.91.91,0,0,0,.32.77A1.33,1.33,0,0,0,168.06,134.56Z"/><path d="M176,136a4.51,4.51,0,0,1-1.61-.31,5.33,5.33,0,0,1-1.37-.78l.87-1.18a5.14,5.14,0,0,0,1,.64,2.7,2.7,0,0,0,1.13.24,1.42,1.42,0,0,0,1-.27.87.87,0,0,0,.3-.68.68.68,0,0,0-.14-.42,1.42,1.42,0,0,0-.39-.33,3.39,3.39,0,0,0-.54-.26l-.61-.25c-.26-.1-.52-.21-.78-.34a3.28,3.28,0,0,1-.72-.46,2.82,2.82,0,0,1-.51-.63,1.79,1.79,0,0,1-.2-.86,2.15,2.15,0,0,1,.77-1.7,3.16,3.16,0,0,1,2.1-.65,3.51,3.51,0,0,1,1.47.29,5.5,5.5,0,0,1,1.13.65l-.84,1.12a5.22,5.22,0,0,0-.84-.49,2.28,2.28,0,0,0-.89-.18,1.24,1.24,0,0,0-.87.25.77.77,0,0,0-.28.61.63.63,0,0,0,.13.41,1.37,1.37,0,0,0,.36.3,5.2,5.2,0,0,0,.52.24l.62.22.8.33a3.1,3.1,0,0,1,.73.46,2.12,2.12,0,0,1,.52.66,2,2,0,0,1,.2.94,2.19,2.19,0,0,1-.2,1,2,2,0,0,1-.58.76,3,3,0,0,1-1,.53A4.35,4.35,0,0,1,176,136Z"/><path d="M182.9,136a4.46,4.46,0,0,1-1.6-.31,5.16,5.16,0,0,1-1.37-.78l.86-1.18a4.93,4.93,0,0,0,1.05.64,2.66,2.66,0,0,0,1.13.24,1.39,1.39,0,0,0,.94-.27.87.87,0,0,0,.31-.68.64.64,0,0,0-.15-.42,1.24,1.24,0,0,0-.38-.33,3.13,3.13,0,0,0-.55-.26l-.6-.25c-.26-.1-.52-.21-.79-.34a3.21,3.21,0,0,1-.71-.46,2.36,2.36,0,0,1-.51-.63,1.68,1.68,0,0,1-.2-.86,2.12,2.12,0,0,1,.77-1.7,3.15,3.15,0,0,1,2.09-.65,3.45,3.45,0,0,1,1.47.29,5.59,5.59,0,0,1,1.14.65l-.85,1.12a5.22,5.22,0,0,0-.84-.49,2.25,2.25,0,0,0-.89-.18,1.27,1.27,0,0,0-.87.25.77.77,0,0,0-.28.61.64.64,0,0,0,.14.41,1.37,1.37,0,0,0,.36.3,5.2,5.2,0,0,0,.52.24l.61.22c.27.1.54.21.8.33a2.91,2.91,0,0,1,.73.46,2,2,0,0,1,.53.66,2.07,2.07,0,0,1,.2.94,2.34,2.34,0,0,1-.2,1,2.14,2.14,0,0,1-.58.76,3,3,0,0,1-1,.53A4.47,4.47,0,0,1,182.9,136Z"/><path d="M188.9,135.81,186.82,128h1.86l.94,4.08c.09.37.16.75.22,1.12s.13.75.2,1.13h.06l.24-1.13c.08-.37.16-.75.26-1.12l1-4.08h1.68l1,4.08c.1.37.19.75.28,1.12s.17.75.25,1.13h.07c.07-.38.14-.76.2-1.13l.21-1.12,1-4.08H198l-2,7.86h-2.19l-.91-3.67q-.13-.55-.24-1.11c-.08-.37-.16-.76-.24-1.18h-.06c-.08.42-.15.81-.23,1.19s-.15.74-.24,1.12l-.89,3.65Z"/><path d="M202.69,136a3.67,3.67,0,0,1-1.4-.27,3.57,3.57,0,0,1-1.19-.8,3.86,3.86,0,0,1-.83-1.3,4.74,4.74,0,0,1-.3-1.74,4.79,4.79,0,0,1,.3-1.75,3.72,3.72,0,0,1,.83-1.29,3.32,3.32,0,0,1,1.19-.81,3.5,3.5,0,0,1,1.4-.28,3.6,3.6,0,0,1,1.42.28,3.32,3.32,0,0,1,1.19.81,4,4,0,0,1,.83,1.29,4.59,4.59,0,0,1,.31,1.75,4.54,4.54,0,0,1-.31,1.74,4.2,4.2,0,0,1-.83,1.3,3.57,3.57,0,0,1-1.19.8A3.78,3.78,0,0,1,202.69,136Zm0-1.51a1.58,1.58,0,0,0,1.37-.71,3.25,3.25,0,0,0,.49-1.89,3.31,3.31,0,0,0-.49-1.92,1.6,1.6,0,0,0-1.37-.71,1.57,1.57,0,0,0-1.35.71,3.39,3.39,0,0,0-.49,1.92,3.33,3.33,0,0,0,.49,1.89A1.55,1.55,0,0,0,202.69,134.49Z"/><path d="M208.26,135.81V128h1.52l.13,1.39H210a3.36,3.36,0,0,1,1-1.18,2.14,2.14,0,0,1,1.22-.4,2.1,2.1,0,0,1,.9.16l-.33,1.6a2,2,0,0,0-.38-.1,2.63,2.63,0,0,0-.43,0,1.72,1.72,0,0,0-1,.36,2.83,2.83,0,0,0-.88,1.26v4.8Z"/><path d="M216.82,136a2.87,2.87,0,0,1-2.36-1.08,4.71,4.71,0,0,1-.87-3,4.91,4.91,0,0,1,.28-1.73,4.29,4.29,0,0,1,.74-1.3,3.33,3.33,0,0,1,1.07-.81,2.72,2.72,0,0,1,1.24-.29,2.47,2.47,0,0,1,1.14.23,4.45,4.45,0,0,1,.92.63l-.06-1.26v-2.85h1.84v11.3h-1.52l-.13-.85h-.06a4.42,4.42,0,0,1-1,.73A2.52,2.52,0,0,1,216.82,136Zm.45-1.52a2.21,2.21,0,0,0,1.65-.88v-3.67a2.84,2.84,0,0,0-.81-.51,2.16,2.16,0,0,0-.79-.14,1.59,1.59,0,0,0-1.3.67,3.07,3.07,0,0,0-.53,1.92,3.45,3.45,0,0,0,.46,1.94A1.48,1.48,0,0,0,217.27,134.48Z"/><rect class="cls-3" x="99.63" y="144.4" width="320" height="38" rx="4"/><path d="M101.11,218.7V208.24H103l3.26,5.89,1.07,2.22h.07c0-.54-.1-1.13-.15-1.75s-.09-1.23-.09-1.82v-4.54H109V218.7h-1.9l-3.27-5.88-1.07-2.23h-.06q.06.84.15,1.74t.09,1.8v4.57Z"/><path d="M114.81,218.9a4,4,0,0,1-1.52-.29,3.49,3.49,0,0,1-1.23-.8,3.68,3.68,0,0,1-.83-1.29,5,5,0,0,1-.29-1.74,4.67,4.67,0,0,1,.3-1.72,3.78,3.78,0,0,1,.81-1.3,3.65,3.65,0,0,1,1.16-.82,3.33,3.33,0,0,1,1.34-.29,3.41,3.41,0,0,1,1.41.28,2.68,2.68,0,0,1,1,.77,3.39,3.39,0,0,1,.61,1.18,5.13,5.13,0,0,1,.21,1.5c0,.18,0,.36,0,.52s0,.28-.06.38h-5a2.51,2.51,0,0,0,.74,1.62,2.24,2.24,0,0,0,1.58.57,2.91,2.91,0,0,0,1-.15,4.33,4.33,0,0,0,.87-.42l.63,1.15a6,6,0,0,1-1.25.6A4.12,4.12,0,0,1,114.81,218.9Zm-2.1-4.87h3.49a2.34,2.34,0,0,0-.39-1.43,1.4,1.4,0,0,0-1.21-.52,1.73,1.73,0,0,0-1.23.49A2.43,2.43,0,0,0,112.71,214Z"/><path d="M120.86,218.7l-2.08-7.85h1.85l1,4.08c.08.37.15.74.21,1.12s.13.75.2,1.13h.07c.07-.38.15-.76.23-1.13s.17-.75.26-1.12l1-4.08h1.68l1,4.08.27,1.12c.08.37.17.75.25,1.13h.07l.21-1.13c.06-.38.13-.75.2-1.12l1-4.08H130l-2,7.85h-2.2l-.91-3.66-.24-1.11c-.07-.37-.15-.76-.24-1.18h-.06c-.08.42-.15.81-.23,1.19s-.15.74-.24,1.12L123,218.7Z"/><path d="M134.73,221.81v-11h1.52l.13.83h.06a5.49,5.49,0,0,1,1.1-.72,2.9,2.9,0,0,1,2.57,0,2.66,2.66,0,0,1,1,.8,3.84,3.84,0,0,1,.61,1.27,6,6,0,0,1,.21,1.64,5.49,5.49,0,0,1-.28,1.8,4.05,4.05,0,0,1-.75,1.33,3.29,3.29,0,0,1-1.07.83,2.94,2.94,0,0,1-1.26.29,2.53,2.53,0,0,1-1-.23,3.88,3.88,0,0,1-1-.64l0,1.31v2.47Zm3.42-4.44a1.6,1.6,0,0,0,1.31-.67,3.24,3.24,0,0,0,.53-2,3.51,3.51,0,0,0-.4-1.84,1.38,1.38,0,0,0-1.29-.65,2.54,2.54,0,0,0-1.73.88v3.66a2.7,2.7,0,0,0,.83.51A2.14,2.14,0,0,0,138.15,217.37Z"/><path d="M145.46,218.9a2.31,2.31,0,0,1-1.68-.64,2.47,2.47,0,0,1-.37-2.78,2.15,2.15,0,0,1,.83-.84,5.39,5.39,0,0,1,1.44-.59,12.58,12.58,0,0,1,2.09-.37,2.7,2.7,0,0,0-.09-.58,1.37,1.37,0,0,0-.24-.5,1.07,1.07,0,0,0-.44-.34,1.67,1.67,0,0,0-.67-.12,3,3,0,0,0-1.13.23,7.77,7.77,0,0,0-1.08.54l-.67-1.23a7.73,7.73,0,0,1,1.47-.72,5,5,0,0,1,1.76-.31,2.71,2.71,0,0,1,2.2.88,3.81,3.81,0,0,1,.73,2.52v4.65h-1.52l-.13-.86h-.06a5.83,5.83,0,0,1-1.13.75A2.91,2.91,0,0,1,145.46,218.9Zm.6-1.45a1.71,1.71,0,0,0,.87-.22,4.68,4.68,0,0,0,.84-.64v-1.76a8.77,8.77,0,0,0-1.35.26,3.49,3.49,0,0,0-.88.36,1.31,1.31,0,0,0-.48.45,1.15,1.15,0,0,0-.14.55.91.91,0,0,0,.32.77A1.39,1.39,0,0,0,146.06,217.45Z"/><path d="M154,218.9a4.32,4.32,0,0,1-1.61-.32,5.31,5.31,0,0,1-1.37-.77l.87-1.19a4.79,4.79,0,0,0,1,.65,2.69,2.69,0,0,0,1.13.23,1.48,1.48,0,0,0,1-.26.87.87,0,0,0,.3-.68.68.68,0,0,0-.14-.42,1.27,1.27,0,0,0-.39-.33,3.4,3.4,0,0,0-.54-.27l-.61-.25a6.5,6.5,0,0,1-.78-.33,3,3,0,0,1-.72-.47,2.61,2.61,0,0,1-.51-.63,1.75,1.75,0,0,1-.2-.85,2.14,2.14,0,0,1,.77-1.7,3.11,3.11,0,0,1,2.1-.66,3.67,3.67,0,0,1,1.47.29,5.51,5.51,0,0,1,1.13.66l-.84,1.12a4.57,4.57,0,0,0-.84-.49,2.28,2.28,0,0,0-.89-.18,1.29,1.29,0,0,0-.87.24.8.8,0,0,0-.28.62.63.63,0,0,0,.13.41,1.18,1.18,0,0,0,.36.29,3.61,3.61,0,0,0,.52.25l.62.22c.26.1.53.2.8.33a3.42,3.42,0,0,1,.73.45,2.16,2.16,0,0,1,.52.67,1.93,1.93,0,0,1,.2.93,2.16,2.16,0,0,1-.2.95,2.07,2.07,0,0,1-.58.77,2.94,2.94,0,0,1-1,.52A4.05,4.05,0,0,1,154,218.9Z"/><path d="M160.9,218.9a4.27,4.27,0,0,1-1.6-.32,5.15,5.15,0,0,1-1.37-.77l.86-1.19a4.61,4.61,0,0,0,1.05.65,2.66,2.66,0,0,0,1.13.23,1.44,1.44,0,0,0,.94-.26.87.87,0,0,0,.31-.68.64.64,0,0,0-.15-.42,1.12,1.12,0,0,0-.38-.33,3.13,3.13,0,0,0-.55-.27l-.6-.25a7.39,7.39,0,0,1-.79-.33,2.92,2.92,0,0,1-.71-.47,2.21,2.21,0,0,1-.51-.63,1.65,1.65,0,0,1-.2-.85,2.11,2.11,0,0,1,.77-1.7,3.1,3.1,0,0,1,2.09-.66,3.6,3.6,0,0,1,1.47.29,5.6,5.6,0,0,1,1.14.66l-.85,1.12a4.57,4.57,0,0,0-.84-.49,2.25,2.25,0,0,0-.89-.18,1.33,1.33,0,0,0-.87.24.8.8,0,0,0-.28.62.64.64,0,0,0,.14.41,1.18,1.18,0,0,0,.36.29,3.61,3.61,0,0,0,.52.25l.61.22a7.92,7.92,0,0,1,.8.33,3.18,3.18,0,0,1,.73.45,2,2,0,0,1,.73,1.6,2.31,2.31,0,0,1-.2.95,2.18,2.18,0,0,1-.58.77,2.94,2.94,0,0,1-1,.52A4.16,4.16,0,0,1,160.9,218.9Z"/><path d="M166.9,218.7l-2.08-7.85h1.86l.94,4.08c.09.37.16.74.22,1.12s.13.75.2,1.13h.06l.24-1.13c.08-.38.16-.75.26-1.12l1-4.08h1.68l1,4.08c.1.37.19.74.28,1.12s.17.75.25,1.13h.07c.07-.38.14-.76.2-1.13l.21-1.12,1-4.08H176l-2,7.85h-2.19l-.91-3.66c-.09-.37-.17-.75-.24-1.11s-.16-.76-.24-1.18h-.06c-.08.42-.15.81-.23,1.19s-.15.74-.24,1.12L169,218.7Z"/><path d="M180.7,218.9a3.77,3.77,0,0,1-1.41-.28,3.29,3.29,0,0,1-1.19-.8,3.72,3.72,0,0,1-.83-1.29,4.79,4.79,0,0,1-.3-1.75,4.74,4.74,0,0,1,.3-1.74,3.86,3.86,0,0,1,.83-1.3,3.42,3.42,0,0,1,1.19-.8,3.57,3.57,0,0,1,2.82,0,3.42,3.42,0,0,1,1.19.8,4,4,0,0,1,.83,1.3,4.54,4.54,0,0,1,.31,1.74,4.59,4.59,0,0,1-.31,1.75,3.87,3.87,0,0,1-.83,1.29,3.29,3.29,0,0,1-1.19.8A3.77,3.77,0,0,1,180.7,218.9Zm0-1.51a1.59,1.59,0,0,0,1.36-.71,3.95,3.95,0,0,0,0-3.81,1.66,1.66,0,0,0-2.72,0,4,4,0,0,0,0,3.81A1.57,1.57,0,0,0,180.7,217.39Z"/><path d="M186.26,218.7v-7.85h1.52l.13,1.39H188a3.27,3.27,0,0,1,1-1.18,2.15,2.15,0,0,1,1.22-.41,2.09,2.09,0,0,1,.9.17l-.32,1.59-.39-.09a2.63,2.63,0,0,0-.43,0,1.75,1.75,0,0,0-1,.36,2.85,2.85,0,0,0-.88,1.25v4.8Z"/><path d="M194.82,218.9a2.92,2.92,0,0,1-2.36-1.08,4.74,4.74,0,0,1-.87-3,5.13,5.13,0,0,1,.28-1.72,4,4,0,0,1,.75-1.3,3.48,3.48,0,0,1,1.06-.82,2.85,2.85,0,0,1,1.24-.29,2.46,2.46,0,0,1,1.14.24,4.45,4.45,0,0,1,.92.63l-.06-1.27v-2.84h1.84V218.7h-1.52l-.13-.84h-.06a4.42,4.42,0,0,1-1,.73A2.6,2.6,0,0,1,194.82,218.9Zm.45-1.53a2.18,2.18,0,0,0,1.65-.88v-3.66a2.63,2.63,0,0,0-.81-.51,2.16,2.16,0,0,0-.79-.14,1.61,1.61,0,0,0-1.3.67,3,3,0,0,0-.52,1.92,3.46,3.46,0,0,0,.45,1.94A1.52,1.52,0,0,0,195.27,217.37Z"/><rect class="cls-3" x="99.63" y="227.3" width="320" height="38" rx="4"/><path d="M105.29,302a4.81,4.81,0,0,1-1.86-.35,4.06,4.06,0,0,1-1.49-1,5,5,0,0,1-1-1.69,6.63,6.63,0,0,1-.37-2.31,6.55,6.55,0,0,1,.37-2.29,5.15,5.15,0,0,1,1-1.72,4.4,4.4,0,0,1,1.52-1.08,4.82,4.82,0,0,1,1.86-.36,3.71,3.71,0,0,1,1.76.4,4.62,4.62,0,0,1,1.27.92l-1,1.2a3.74,3.74,0,0,0-.89-.66,2.28,2.28,0,0,0-1.09-.25,2.52,2.52,0,0,0-1.17.27,2.57,2.57,0,0,0-.93.75,3.43,3.43,0,0,0-.61,1.19,5.2,5.2,0,0,0-.22,1.58,4.51,4.51,0,0,0,.78,2.81,2.51,2.51,0,0,0,2.1,1,2.54,2.54,0,0,0,1.25-.3,4,4,0,0,0,1-.77l1,1.16a4.39,4.39,0,0,1-1.46,1.13A4.23,4.23,0,0,1,105.29,302Z"/><path d="M113.38,302a3.67,3.67,0,0,1-1.4-.27,3.56,3.56,0,0,1-1.2-.8,3.85,3.85,0,0,1-.82-1.29,4.83,4.83,0,0,1-.3-1.75,4.74,4.74,0,0,1,.3-1.74,3.9,3.9,0,0,1,.82-1.3A3.74,3.74,0,0,1,112,294a3.68,3.68,0,0,1,1.4-.28,3.82,3.82,0,0,1,1.42.28,3.59,3.59,0,0,1,1.19.81,4.09,4.09,0,0,1,.83,1.3,4.73,4.73,0,0,1,.31,1.74,4.83,4.83,0,0,1-.31,1.75,4,4,0,0,1-.83,1.29,3.42,3.42,0,0,1-1.19.8A3.81,3.81,0,0,1,113.38,302Zm0-1.5a1.57,1.57,0,0,0,1.36-.71,3.88,3.88,0,0,0,0-3.81,1.65,1.65,0,0,0-2.71,0,3.95,3.95,0,0,0,0,3.81A1.57,1.57,0,0,0,113.38,300.49Z"/><path d="M119,301.8V294h1.52l.13,1.05h.06a6.88,6.88,0,0,1,1.15-.88,2.79,2.79,0,0,1,1.43-.37,2.1,2.1,0,0,1,1.84.81,4,4,0,0,1,.58,2.31v4.93h-1.84v-4.69a2.42,2.42,0,0,0-.29-1.37,1.08,1.08,0,0,0-1-.4,1.6,1.6,0,0,0-.9.25,5.39,5.39,0,0,0-.89.72v5.49Z"/><path d="M128.23,301.8v-6.4h-1V294l1-.08v-.82a4.06,4.06,0,0,1,.15-1.13,2.22,2.22,0,0,1,.46-.89,2.13,2.13,0,0,1,.81-.59,3,3,0,0,1,1.19-.21,4,4,0,0,1,.79.08,3.87,3.87,0,0,1,.65.2l-.35,1.37a2.1,2.1,0,0,0-.87-.19c-.66,0-1,.44-1,1.33V294h1.54v1.45h-1.54v6.4Z"/><path d="M133.91,292.57a1.16,1.16,0,0,1-.81-.29.93.93,0,0,1-.32-.75,1,1,0,0,1,.32-.76,1.13,1.13,0,0,1,.81-.3,1.17,1.17,0,0,1,.82.3,1,1,0,0,1,.32.76,1,1,0,0,1-.32.75A1.21,1.21,0,0,1,133.91,292.57ZM133,301.8V294h1.84v7.85Z"/><path d="M137.18,301.8V294h1.52l.12,1.39h.07a3.29,3.29,0,0,1,1-1.18,2.12,2.12,0,0,1,1.21-.41,2.23,2.23,0,0,1,.9.16l-.32,1.6-.39-.09a2.54,2.54,0,0,0-.43,0,1.69,1.69,0,0,0-1,.36A2.71,2.71,0,0,0,139,297v4.8Z"/><path d="M143.14,301.8V294h1.52l.13,1.07h.07a5.74,5.74,0,0,1,1.08-.9,2.47,2.47,0,0,1,1.32-.37,2.4,2.4,0,0,1,1.38.37,2.26,2.26,0,0,1,.79,1,6.76,6.76,0,0,1,1.17-1,2.49,2.49,0,0,1,1.36-.4,2.12,2.12,0,0,1,1.84.81,3.9,3.9,0,0,1,.59,2.31v4.93h-1.85v-4.69a2.33,2.33,0,0,0-.3-1.37,1,1,0,0,0-.9-.4,2.47,2.47,0,0,0-1.65,1v5.49h-1.84v-4.69a2.33,2.33,0,0,0-.3-1.37,1.06,1.06,0,0,0-.92-.4,2.47,2.47,0,0,0-1.65,1v5.49Z"/><path d="M159.83,301.8V294h1.52l.13,1.05h.06a6.88,6.88,0,0,1,1.15-.88,2.79,2.79,0,0,1,1.43-.37,2.1,2.1,0,0,1,1.84.81,4,4,0,0,1,.58,2.31v4.93H164.7v-4.69a2.42,2.42,0,0,0-.29-1.37,1.08,1.08,0,0,0-.95-.4,1.6,1.6,0,0,0-.9.25,5.39,5.39,0,0,0-.89.72v5.49Z"/><path d="M172.15,302a4,4,0,0,1-1.52-.28,3.49,3.49,0,0,1-1.23-.8,3.74,3.74,0,0,1-.82-1.29,5.17,5.17,0,0,1,0-3.47,4.17,4.17,0,0,1,.81-1.29,3.61,3.61,0,0,1,1.16-.82,3.38,3.38,0,0,1,1.35-.29,3.24,3.24,0,0,1,1.4.28,2.68,2.68,0,0,1,1,.76,3.45,3.45,0,0,1,.62,1.19,5.5,5.5,0,0,1,.2,1.5,4.18,4.18,0,0,1,0,.51q0,.24-.06.39h-5a2.52,2.52,0,0,0,.75,1.62,2.21,2.21,0,0,0,1.57.57,2.91,2.91,0,0,0,1-.15,3.76,3.76,0,0,0,.88-.43l.62,1.16a5.79,5.79,0,0,1-1.25.6A4.35,4.35,0,0,1,172.15,302Zm-2.09-4.86h3.48a2.32,2.32,0,0,0-.39-1.43,1.4,1.4,0,0,0-1.21-.52,1.73,1.73,0,0,0-1.23.49A2.34,2.34,0,0,0,170.06,297.13Z"/><path d="M178.2,301.8,176.12,294H178l.94,4.08c.08.37.16.74.22,1.12s.12.75.19,1.13h.07c.07-.38.15-.76.23-1.13s.17-.75.27-1.12l1-4.08h1.68l1,4.08c.09.37.19.74.27,1.12s.17.75.26,1.13h.06c.08-.38.14-.76.21-1.13s.13-.75.21-1.12l.94-4.08h1.73l-2,7.85h-2.19l-.91-3.66q-.14-.57-.24-1.11l-.25-1.18h-.06c-.07.42-.15.81-.22,1.18l-.24,1.12-.9,3.65Z"/><path d="M192.07,304.91V294h1.52l.13.83h.06a5.29,5.29,0,0,1,1.11-.72,2.79,2.79,0,0,1,1.26-.31,3,3,0,0,1,1.3.28,2.7,2.7,0,0,1,1,.81,3.66,3.66,0,0,1,.61,1.27,6,6,0,0,1,.21,1.64,5.23,5.23,0,0,1-.28,1.8,4.16,4.16,0,0,1-.75,1.33,3.19,3.19,0,0,1-1.07.83,2.9,2.9,0,0,1-1.26.28,2.58,2.58,0,0,1-1-.22,3.88,3.88,0,0,1-1-.64l0,1.31v2.47Zm3.42-4.44a1.6,1.6,0,0,0,1.32-.68,3.25,3.25,0,0,0,.52-2,3.62,3.62,0,0,0-.39-1.84,1.41,1.41,0,0,0-1.3-.66,2.58,2.58,0,0,0-1.73.88v3.67a3.06,3.06,0,0,0,.83.51A2.14,2.14,0,0,0,195.49,300.47Z"/><path d="M202.81,302a2.27,2.27,0,0,1-1.68-.63,2.3,2.3,0,0,1,.45-3.62,5.39,5.39,0,0,1,1.44-.59,12.58,12.58,0,0,1,2.09-.37,2.8,2.8,0,0,0-.09-.59,1.13,1.13,0,0,0-.24-.49,1.07,1.07,0,0,0-.44-.34,1.64,1.64,0,0,0-.67-.12,3,3,0,0,0-1.13.23,7.26,7.26,0,0,0-1.08.54l-.67-1.23a7.73,7.73,0,0,1,1.47-.72,5.09,5.09,0,0,1,1.76-.31,2.68,2.68,0,0,1,2.2.88,3.81,3.81,0,0,1,.73,2.52v4.65h-1.52l-.13-.86h-.06a5.55,5.55,0,0,1-1.13.75A2.86,2.86,0,0,1,202.81,302Zm.59-1.44a1.71,1.71,0,0,0,.87-.22,4.68,4.68,0,0,0,.84-.64v-1.76a7.58,7.58,0,0,0-1.34.26,3.2,3.2,0,0,0-.88.36,1.17,1.17,0,0,0-.48.45,1.06,1.06,0,0,0-.15.55.89.89,0,0,0,.32.76A1.35,1.35,0,0,0,203.4,300.55Z"/><path d="M211.35,302a4.34,4.34,0,0,1-1.61-.31,5.31,5.31,0,0,1-1.37-.77l.87-1.19a4.61,4.61,0,0,0,1,.65,2.77,2.77,0,0,0,1.12.23,1.46,1.46,0,0,0,1-.26.87.87,0,0,0,.3-.68.74.74,0,0,0-.14-.43,1.39,1.39,0,0,0-.39-.32,3,3,0,0,0-.54-.27l-.61-.25a8.23,8.23,0,0,1-.78-.33,2.74,2.74,0,0,1-.71-.47A2.21,2.21,0,0,1,209,297a1.65,1.65,0,0,1-.21-.85,2.14,2.14,0,0,1,.77-1.7,3.13,3.13,0,0,1,2.1-.66,3.67,3.67,0,0,1,1.47.29,5.17,5.17,0,0,1,1.14.66l-.85,1.12a4.06,4.06,0,0,0-.84-.49,2.25,2.25,0,0,0-.89-.18,1.31,1.31,0,0,0-.87.24.79.79,0,0,0-.28.62.63.63,0,0,0,.13.41,1.22,1.22,0,0,0,.37.29,2.69,2.69,0,0,0,.51.24l.62.23a6.76,6.76,0,0,1,.8.33,3.18,3.18,0,0,1,.73.45,2,2,0,0,1,.73,1.6,2.31,2.31,0,0,1-.2.95,2.21,2.21,0,0,1-.59.77,2.74,2.74,0,0,1-1,.52A4.06,4.06,0,0,1,211.35,302Z"/><path d="M218.25,302a4.31,4.31,0,0,1-1.61-.31,5.15,5.15,0,0,1-1.37-.77l.87-1.19a4.79,4.79,0,0,0,1,.65,2.85,2.85,0,0,0,1.13.23,1.48,1.48,0,0,0,.95-.26.87.87,0,0,0,.3-.68.74.74,0,0,0-.14-.43,1.39,1.39,0,0,0-.39-.32,3.4,3.4,0,0,0-.54-.27l-.61-.25a6.5,6.5,0,0,1-.78-.33,3,3,0,0,1-.72-.47,2.39,2.39,0,0,1-.51-.63,1.75,1.75,0,0,1-.2-.85,2.14,2.14,0,0,1,.77-1.7,3.11,3.11,0,0,1,2.1-.66A3.67,3.67,0,0,1,220,294a5.33,5.33,0,0,1,1.13.66l-.84,1.12a4.06,4.06,0,0,0-.84-.49,2.28,2.28,0,0,0-.89-.18,1.34,1.34,0,0,0-.88.24.81.81,0,0,0-.27.62.63.63,0,0,0,.13.41,1.18,1.18,0,0,0,.36.29,2.8,2.8,0,0,0,.52.24l.62.23a7.53,7.53,0,0,1,.8.33,3.42,3.42,0,0,1,.73.45,2,2,0,0,1,.52.67,1.93,1.93,0,0,1,.2.93,2.23,2.23,0,0,1-.78,1.72,2.94,2.94,0,0,1-1,.52A4.06,4.06,0,0,1,218.25,302Z"/><path d="M224.25,301.8,222.17,294H224L225,298c.08.37.15.74.21,1.12s.13.75.2,1.13h.07c.07-.38.15-.76.23-1.13s.17-.75.26-1.12l1-4.08h1.68l1,4.08.27,1.12c.08.37.17.75.25,1.13h.07l.21-1.13c.06-.38.13-.75.2-1.12l.95-4.08h1.73l-2,7.85h-2.2l-.91-3.66q-.12-.57-.24-1.11c-.07-.37-.15-.76-.24-1.18h-.06c-.08.42-.15.81-.23,1.18s-.15.75-.24,1.12l-.89,3.65Z"/><path d="M238,302a3.76,3.76,0,0,1-1.41-.27,3.52,3.52,0,0,1-1.19-.8,3.87,3.87,0,0,1-.83-1.29,4.83,4.83,0,0,1-.3-1.75,4.74,4.74,0,0,1,.3-1.74,3.92,3.92,0,0,1,.83-1.3,3.7,3.7,0,0,1,1.19-.81,3.69,3.69,0,0,1,2.82,0,3.54,3.54,0,0,1,1.2.81,4.06,4.06,0,0,1,.82,1.3,4.54,4.54,0,0,1,.31,1.74,4.62,4.62,0,0,1-.31,1.75,4,4,0,0,1-.82,1.29,3.37,3.37,0,0,1-1.2.8A3.76,3.76,0,0,1,238,302Zm0-1.5a1.59,1.59,0,0,0,1.36-.71,3.88,3.88,0,0,0,0-3.81,1.56,1.56,0,0,0-1.36-.71,1.52,1.52,0,0,0-1.35.71,3.95,3.95,0,0,0,0,3.81A1.54,1.54,0,0,0,238,300.49Z"/><path d="M243.61,301.8V294h1.52l.13,1.39h.06a3.29,3.29,0,0,1,1-1.18,2.12,2.12,0,0,1,1.21-.41,2.2,2.2,0,0,1,.9.16l-.32,1.6-.39-.09a2.54,2.54,0,0,0-.43,0,1.69,1.69,0,0,0-1,.36,2.71,2.71,0,0,0-.88,1.25v4.8Z"/><path d="M252.17,302a2.86,2.86,0,0,1-2.36-1.08,4.71,4.71,0,0,1-.87-3,5.23,5.23,0,0,1,.27-1.73,4.06,4.06,0,0,1,.75-1.29A3.33,3.33,0,0,1,251,294a2.89,2.89,0,0,1,1.24-.29,2.46,2.46,0,0,1,1.14.24,4.24,4.24,0,0,1,.93.63l-.07-1.27v-2.84h1.84V301.8h-1.52l-.13-.85h-.06a4,4,0,0,1-1,.74A2.58,2.58,0,0,1,252.17,302Zm.44-1.52a2.18,2.18,0,0,0,1.65-.88v-3.66a2.36,2.36,0,0,0-.81-.51,2.17,2.17,0,0,0-.79-.15,1.59,1.59,0,0,0-1.29.68,3,3,0,0,0-.53,1.92,3.46,3.46,0,0,0,.45,1.94A1.52,1.52,0,0,0,252.61,300.47Z"/><rect class="cls-3" x="99.63" y="310.39" width="320" height="38" rx="4"/><path class="cls-4" d="M68.16,41.77h2.7a.68.68,0,0,1,.7.7v289.6h2.9a.71.71,0,0,1,.5,1.2l-5,5a.67.67,0,0,1-1,0l-5-5a.73.73,0,0,1,.5-1.2h3V42.47A.68.68,0,0,1,68.16,41.77Z"/><path class="cls-4" d="M74.76,332.17h7.5a1.76,1.76,0,0,1,1.2,3l-12.7,12.7a1.75,1.75,0,0,1-2.5,0l-12.7-12.7a1.76,1.76,0,0,1,1.2-3h7.5"/></svg>