<svg id="Layer_1" data-name="Layer 1" xmlns="http://www.w3.org/2000/svg" viewBox="0 0 480 240"><defs><style>.cls-1{fill:#00916a;}.cls-2{fill:#f5f5f5;}.cls-3{fill:#5151d3;}.cls-4{isolation:isolate;}.cls-5{fill:#4b4b4b;}</style></defs><rect class="cls-1" width="6" height="240"/><rect class="cls-2" x="6" width="474" height="240"/><path class="cls-1" d="M32.4,10.2A15.7,15.7,0,1,0,48.1,25.9,15.73,15.73,0,0,0,32.4,10.2ZM29.3,33.7l-7.8-7.8,2.2-2.2,5.6,5.6L41.1,17.4l2.2,2.2Z"/><polygon class="cls-3" points="237.4 158.34 237.6 188.34 236.6 188.34 236.4 158.34 237.4 158.34"/><circle class="cls-3" cx="237" cy="158.44" r="3"/><g class="cls-4"><path class="cls-3" d="M209,206.31a2.86,2.86,0,0,1-1.16-.21,2.06,2.06,0,0,1-.77-.59,2.38,2.38,0,0,1-.43-.89,4.67,4.67,0,0,1-.14-1.16v-3.75h-1.12v-1.37l1.22-.08.22-2.15h1.54v2.15h2v1.45h-2v3.75c0,.92.37,1.37,1.1,1.37a2.09,2.09,0,0,0,.43,0,3.56,3.56,0,0,0,.39-.13l.32,1.36a7.47,7.47,0,0,1-.73.2A4,4,0,0,1,209,206.31Z"/><path class="cls-3" d="M215.09,206.31a4.23,4.23,0,0,1-1.52-.28,3.66,3.66,0,0,1-1.23-.81,3.57,3.57,0,0,1-.82-1.29,4.74,4.74,0,0,1-.3-1.74,4.67,4.67,0,0,1,.3-1.72,4.11,4.11,0,0,1,.81-1.3,3.89,3.89,0,0,1,1.16-.82,3.57,3.57,0,0,1,2.75,0,2.71,2.71,0,0,1,1,.77,3.4,3.4,0,0,1,.62,1.18,5.13,5.13,0,0,1,.2,1.5,4.27,4.27,0,0,1,0,.52,2.54,2.54,0,0,1-.06.38h-5a2.55,2.55,0,0,0,.75,1.62,2.21,2.21,0,0,0,1.57.57,2.91,2.91,0,0,0,.95-.15,4.16,4.16,0,0,0,.88-.42l.62,1.15a5.81,5.81,0,0,1-1.25.61A4.35,4.35,0,0,1,215.09,206.31ZM213,201.44h3.48a2.34,2.34,0,0,0-.39-1.43,1.4,1.4,0,0,0-1.21-.52,1.76,1.76,0,0,0-1.23.5A2.31,2.31,0,0,0,213,201.44Z"/><path class="cls-3" d="M218.71,206.11,221.2,202l-2.33-3.76h2l.88,1.49.36.66.36.66h.07q.14-.31.3-.66t.3-.66l.76-1.49h1.9l-2.32,4,2.5,3.88h-2l-1-1.55-.39-.7c-.13-.24-.27-.47-.41-.69h-.06c-.12.22-.23.45-.35.68s-.22.47-.34.71l-.83,1.55Z"/><path class="cls-3" d="M229.7,206.31a2.83,2.83,0,0,1-1.16-.21,2.06,2.06,0,0,1-.77-.59,2.38,2.38,0,0,1-.43-.89,4.67,4.67,0,0,1-.14-1.16v-3.75h-1.12v-1.37l1.22-.08.22-2.15h1.54v2.15h2v1.45h-2v3.75c0,.92.37,1.37,1.1,1.37a2.15,2.15,0,0,0,.43,0,3.56,3.56,0,0,0,.39-.13l.32,1.36a7.47,7.47,0,0,1-.73.2A4,4,0,0,1,229.7,206.31Z"/><path class="cls-3" d="M231.72,202.75v-1.34h3.8v1.34Z"/><path class="cls-3" d="M241.17,206.31a2.44,2.44,0,0,1-1.09-.27,3.68,3.68,0,0,1-1.05-.76H239l-.16.83h-1.46V194.82h1.84v2.91l0,1.31a4.44,4.44,0,0,1,1.08-.7,2.79,2.79,0,0,1,1.19-.27,2.9,2.9,0,0,1,1.31.28,2.69,2.69,0,0,1,1,.8,3.55,3.55,0,0,1,.6,1.25,6,6,0,0,1,.21,1.65,5.31,5.31,0,0,1-.28,1.8,4.12,4.12,0,0,1-.74,1.34,3.26,3.26,0,0,1-1.07.83A3,3,0,0,1,241.17,206.31Zm-.38-1.52a1.61,1.61,0,0,0,1.31-.68,3.3,3.3,0,0,0,.53-2,3.61,3.61,0,0,0-.4-1.84,1.4,1.4,0,0,0-1.3-.65,2.56,2.56,0,0,0-1.73.88v3.66a2.43,2.43,0,0,0,.83.51A2.18,2.18,0,0,0,240.79,204.79Z"/><path class="cls-3" d="M249.59,206.31a3.58,3.58,0,0,1-1.41-.28,3.29,3.29,0,0,1-1.19-.8,3.87,3.87,0,0,1-.83-1.29,4.79,4.79,0,0,1-.3-1.75,4.74,4.74,0,0,1,.3-1.74,4,4,0,0,1,.83-1.3,3.42,3.42,0,0,1,1.19-.8,3.69,3.69,0,0,1,2.82,0,3.46,3.46,0,0,1,1.2.8,4.18,4.18,0,0,1,.82,1.3,4.54,4.54,0,0,1,.31,1.74,4.59,4.59,0,0,1-.31,1.75,4,4,0,0,1-.82,1.29,3.33,3.33,0,0,1-1.2.8A3.58,3.58,0,0,1,249.59,206.31Zm0-1.51a1.56,1.56,0,0,0,1.36-.71,3.26,3.26,0,0,0,.49-1.9,3.3,3.3,0,0,0-.49-1.91,1.59,1.59,0,0,0-1.36-.71,1.54,1.54,0,0,0-1.35.71,3.3,3.3,0,0,0-.49,1.91,3.26,3.26,0,0,0,.49,1.9A1.52,1.52,0,0,0,249.59,204.8Z"/><path class="cls-3" d="M257.91,206.31a2.87,2.87,0,0,1-2.36-1.08,4.72,4.72,0,0,1-.87-3,4.89,4.89,0,0,1,.28-1.72,3.82,3.82,0,0,1,.74-1.3,3.48,3.48,0,0,1,1.06-.82,2.87,2.87,0,0,1,1.24-.28,2.47,2.47,0,0,1,1.14.23,4.24,4.24,0,0,1,.93.63l-.07-1.26v-2.85h1.84v11.29h-1.52l-.12-.84h-.07a4.22,4.22,0,0,1-1,.73A2.48,2.48,0,0,1,257.91,206.31Zm.45-1.52a2.21,2.21,0,0,0,1.64-.88v-3.67a2.67,2.67,0,0,0-.8-.51,2.25,2.25,0,0,0-.8-.14,1.58,1.58,0,0,0-1.29.67,3.07,3.07,0,0,0-.53,1.92,3.37,3.37,0,0,0,.46,1.94A1.48,1.48,0,0,0,258.36,204.79Z"/><path class="cls-3" d="M264.71,209.35a4.32,4.32,0,0,1-.56,0,3.59,3.59,0,0,1-.47-.12l.34-1.44.26.07a1.65,1.65,0,0,0,.3,0,1.35,1.35,0,0,0,1-.38,2.38,2.38,0,0,0,.57-1l.14-.49-3.09-7.76h1.88l1.36,3.85c.11.35.23.71.34,1.08s.23.76.34,1.13h.07c.09-.36.19-.73.29-1.11s.2-.74.3-1.1l1.18-3.85h1.78l-2.85,8.21a8.33,8.33,0,0,1-.53,1.2,3.88,3.88,0,0,1-.66.9,2.78,2.78,0,0,1-.86.58A3,3,0,0,1,264.71,209.35Z"/></g><path class="cls-5" d="M59.74,63,57.52,52.5H58.9L60,58.21c.1.57.2,1.14.3,1.69s.21,1.12.31,1.7h.06c.12-.58.24-1.14.37-1.7s.25-1.13.37-1.69l1.45-5.71h1.22l1.45,5.71q.19.82.39,1.68c.13.56.26,1.13.38,1.71h.07c.09-.58.19-1.14.28-1.7s.2-1.13.31-1.69l1.1-5.71h1.28L67.17,63h-1.6L64,56.67c-.09-.4-.18-.8-.26-1.19s-.16-.79-.25-1.19h-.06l-.27,1.19c-.09.39-.18.79-.26,1.19L61.33,63Z"/><path class="cls-5" d="M74.19,63.18a3.72,3.72,0,0,1-1.46-.28,3.33,3.33,0,0,1-1.19-.8,3.7,3.7,0,0,1-.79-1.27,4.79,4.79,0,0,1-.29-1.71,4.67,4.67,0,0,1,.3-1.72,4.11,4.11,0,0,1,.78-1.29,3.6,3.6,0,0,1,1.11-.81,3.31,3.31,0,0,1,2.62,0,2.58,2.58,0,0,1,1,.74,3.4,3.4,0,0,1,.6,1.15,5,5,0,0,1,.21,1.5c0,.14,0,.28,0,.41a2.66,2.66,0,0,1,0,.34H71.76a3,3,0,0,0,.77,2,2.43,2.43,0,0,0,1.82.73,3.09,3.09,0,0,0,1-.17,4.49,4.49,0,0,0,.91-.44l.46.86a6,6,0,0,1-1.14.56A3.91,3.91,0,0,1,74.19,63.18Zm-2.45-4.7H75.9a2.82,2.82,0,0,0-.5-1.8A1.74,1.74,0,0,0,74,56.06a2.14,2.14,0,0,0-.79.16,2.11,2.11,0,0,0-.68.48,2.45,2.45,0,0,0-.5.76A3.39,3.39,0,0,0,71.74,58.48Z"/><path class="cls-5" d="M82.17,66.27v-11h1.09l.11.89h0a6.15,6.15,0,0,1,1.16-.77A2.92,2.92,0,0,1,85.9,55a3.1,3.1,0,0,1,1.33.28,2.66,2.66,0,0,1,1,.8,3.69,3.69,0,0,1,.58,1.25A5.93,5.93,0,0,1,89,59a5.39,5.39,0,0,1-.28,1.77A4,4,0,0,1,88,62.08a3.1,3.1,0,0,1-1.07.82,3,3,0,0,1-1.29.28,2.64,2.64,0,0,1-1.08-.24,6.31,6.31,0,0,1-1.08-.65l0,1.36v2.62Zm3.22-4.19a1.81,1.81,0,0,0,.89-.22,2,2,0,0,0,.7-.6,3.24,3.24,0,0,0,.47-1,4.77,4.77,0,0,0,.16-1.3,5.35,5.35,0,0,0-.11-1.17,2.43,2.43,0,0,0-.36-.9,1.62,1.62,0,0,0-.64-.58,1.94,1.94,0,0,0-.93-.21,2.09,2.09,0,0,0-1,.27,5.56,5.56,0,0,0-1.08.78v4.08a3.63,3.63,0,0,0,1,.64A2.65,2.65,0,0,0,85.39,62.08Z"/><path class="cls-5" d="M91.05,63V55.22h1.09l.11,1.4h0a3.51,3.51,0,0,1,1-1.16A2,2,0,0,1,94.51,55a2.15,2.15,0,0,1,.83.16l-.25,1.16a2,2,0,0,0-.36-.1,2.17,2.17,0,0,0-.4,0,1.72,1.72,0,0,0-1,.4A3.06,3.06,0,0,0,92.37,58v5Z"/><path class="cls-5" d="M99.47,63.18a3.52,3.52,0,0,1-1.37-.27A3.3,3.3,0,0,1,97,62.12a3.75,3.75,0,0,1-.79-1.28,4.67,4.67,0,0,1-.3-1.72,4.74,4.74,0,0,1,.3-1.74A3.84,3.84,0,0,1,97,56.1a3.2,3.2,0,0,1,1.14-.8,3.49,3.49,0,0,1,2.74,0,3.2,3.2,0,0,1,1.14.8,3.84,3.84,0,0,1,.79,1.28,4.74,4.74,0,0,1,.3,1.74,4.67,4.67,0,0,1-.3,1.72,3.75,3.75,0,0,1-.79,1.28,3.3,3.3,0,0,1-1.14.79A3.52,3.52,0,0,1,99.47,63.18Zm0-1.08a2,2,0,0,0,.91-.22,2,2,0,0,0,.71-.61,2.89,2.89,0,0,0,.46-.93,4.24,4.24,0,0,0,.16-1.22,4.19,4.19,0,0,0-.16-1.22,3.06,3.06,0,0,0-.46-1,2,2,0,0,0-.71-.61,2,2,0,0,0-1.82,0,2,2,0,0,0-.71.61,3.06,3.06,0,0,0-.46,1,4.19,4.19,0,0,0-.16,1.22,4.24,4.24,0,0,0,.16,1.22,2.89,2.89,0,0,0,.46.93,2,2,0,0,0,.71.61A2,2,0,0,0,99.47,62.1Z"/><path class="cls-5" d="M106.73,63l-2.79-7.77h1.35l1.48,4.41c.11.39.23.77.36,1.15l.36,1.14h.06c.12-.37.24-.75.35-1.14s.24-.76.35-1.15l1.48-4.41H111L108.27,63Z"/><path class="cls-5" d="M113.2,53.62a.93.93,0,0,1-.65-.24.86.86,0,0,1,0-1.23,1,1,0,0,1,.65-.23,1,1,0,0,1,.65.23.81.81,0,0,1,.26.62.82.82,0,0,1-.26.61A1,1,0,0,1,113.2,53.62ZM112.53,63V55.22h1.31V63Z"/><path class="cls-5" d="M119.12,63.18a2.9,2.9,0,0,1-2.35-1,4.63,4.63,0,0,1-.87-3,5,5,0,0,1,.28-1.7,4.06,4.06,0,0,1,.75-1.29,3.16,3.16,0,0,1,1.07-.82,3,3,0,0,1,1.28-.29,2.69,2.69,0,0,1,1.17.24,5.06,5.06,0,0,1,1,.66l-.06-1.33v-3h1.33V63h-1.09l-.11-.91h0a4.57,4.57,0,0,1-1.06.77A2.63,2.63,0,0,1,119.12,63.18Zm.29-1.1a2.15,2.15,0,0,0,1-.26,3.83,3.83,0,0,0,1-.81V56.94a3.25,3.25,0,0,0-1-.63,2.57,2.57,0,0,0-.94-.18,1.86,1.86,0,0,0-.87.21,2.29,2.29,0,0,0-.71.61,3.08,3.08,0,0,0-.48.94,3.84,3.84,0,0,0-.18,1.21,3.79,3.79,0,0,0,.56,2.2A1.83,1.83,0,0,0,119.41,62.08Z"/><path class="cls-5" d="M128.49,63.18A3.72,3.72,0,0,1,127,62.9a3.3,3.3,0,0,1-1.18-.8,3.72,3.72,0,0,1-.8-1.27,4.79,4.79,0,0,1-.28-1.71,4.67,4.67,0,0,1,.29-1.72,4,4,0,0,1,.79-1.29A3.38,3.38,0,0,1,127,55.3a3.22,3.22,0,0,1,1.29-.28,3.27,3.27,0,0,1,1.32.26,2.58,2.58,0,0,1,1,.74,3.4,3.4,0,0,1,.6,1.15,5,5,0,0,1,.21,1.5c0,.14,0,.28,0,.41a2.66,2.66,0,0,1,0,.34h-5.25a3,3,0,0,0,.78,2,2.41,2.41,0,0,0,1.81.73,3.15,3.15,0,0,0,1-.17,4.68,4.68,0,0,0,.9-.44l.46.86a6.26,6.26,0,0,1-1.13.56A4,4,0,0,1,128.49,63.18Zm-2.44-4.7h4.16a2.76,2.76,0,0,0-.51-1.8,1.72,1.72,0,0,0-1.41-.62,2.15,2.15,0,0,0-.8.16,2.22,2.22,0,0,0-.68.48,2.45,2.45,0,0,0-.5.76A3.39,3.39,0,0,0,126.05,58.48Z"/><path class="cls-5" d="M139.55,63.18a3.84,3.84,0,0,1-1.44-.27,3.11,3.11,0,0,1-1.16-.79,3.71,3.71,0,0,1-.77-1.28,4.89,4.89,0,0,1-.28-1.72,4.54,4.54,0,0,1,.31-1.74A3.89,3.89,0,0,1,137,56.1a3.29,3.29,0,0,1,1.19-.8,3.7,3.7,0,0,1,1.44-.28,2.79,2.79,0,0,1,1.31.28,4.34,4.34,0,0,1,1,.64l-.67.86a3.73,3.73,0,0,0-.72-.5,1.92,1.92,0,0,0-.84-.19,2.13,2.13,0,0,0-1,.22,2.17,2.17,0,0,0-.77.61,3.12,3.12,0,0,0-.5,1,3.59,3.59,0,0,0-.19,1.22,3.91,3.91,0,0,0,.18,1.22,2.94,2.94,0,0,0,.49.93,2.06,2.06,0,0,0,.76.61,2.23,2.23,0,0,0,1,.22,2.11,2.11,0,0,0,1-.24,4,4,0,0,0,.83-.55l.57.88a4.18,4.18,0,0,1-1.17.73A3.37,3.37,0,0,1,139.55,63.18Z"/><path class="cls-5" d="M146.05,63.18a2.11,2.11,0,0,1-1.82-.76,3.81,3.81,0,0,1-.57-2.28V55.22H145V60a2.85,2.85,0,0,0,.34,1.59,1.29,1.29,0,0,0,1.12.49,1.94,1.94,0,0,0,1.07-.31,5.22,5.22,0,0,0,1-1V55.22h1.31V63h-1.08l-.12-1.21h-.05a5.37,5.37,0,0,1-1.14,1A2.52,2.52,0,0,1,146.05,63.18Z"/><path class="cls-5" d="M154.51,63.18a4.19,4.19,0,0,1-1.58-.3,4.88,4.88,0,0,1-1.32-.77l.66-.88a5,5,0,0,0,1,.67,2.83,2.83,0,0,0,1.24.26,1.68,1.68,0,0,0,1.15-.35,1.13,1.13,0,0,0,.38-.87.83.83,0,0,0-.16-.52,1.69,1.69,0,0,0-.4-.4,3,3,0,0,0-.57-.29l-.64-.26a6.52,6.52,0,0,1-.83-.33,3.44,3.44,0,0,1-.75-.44,2.22,2.22,0,0,1-.53-.62,1.65,1.65,0,0,1-.21-.85,2.12,2.12,0,0,1,.18-.87,1.92,1.92,0,0,1,.53-.7,2.45,2.45,0,0,1,.84-.47,3.7,3.7,0,0,1,2.47.09,4.42,4.42,0,0,1,1.07.62l-.63.84a4,4,0,0,0-.83-.5,2.26,2.26,0,0,0-.94-.19,1.48,1.48,0,0,0-1.08.33,1.09,1.09,0,0,0-.35.79.75.75,0,0,0,.15.47,1.29,1.29,0,0,0,.38.35,3.13,3.13,0,0,0,.55.27l.65.25.84.34a2.85,2.85,0,0,1,.76.44,2,2,0,0,1,.55.65,1.77,1.77,0,0,1,.22.92,2.11,2.11,0,0,1-.19.9,2.14,2.14,0,0,1-.54.74,2.6,2.6,0,0,1-.9.5A3.78,3.78,0,0,1,154.51,63.18Z"/><path class="cls-5" d="M161.31,63.18a2.5,2.5,0,0,1-1.05-.19,1.83,1.83,0,0,1-.69-.53,2,2,0,0,1-.37-.81,4.37,4.37,0,0,1-.11-1.06v-4.3h-1.16v-1l1.22-.08.16-2.18h1.1v2.18h2.1v1.07h-2.1v4.32a1.94,1.94,0,0,0,.27,1.11,1,1,0,0,0,.93.39,1.86,1.86,0,0,0,.45-.06,3.05,3.05,0,0,0,.43-.15l.26,1c-.21.07-.45.14-.7.2A3.81,3.81,0,0,1,161.31,63.18Z"/><path class="cls-5" d="M167.07,63.18a3.52,3.52,0,0,1-1.37-.27,3.3,3.3,0,0,1-1.14-.79,3.75,3.75,0,0,1-.79-1.28,4.67,4.67,0,0,1-.3-1.72,4.74,4.74,0,0,1,.3-1.74,3.84,3.84,0,0,1,.79-1.28,3.2,3.2,0,0,1,1.14-.8,3.49,3.49,0,0,1,2.74,0,3.2,3.2,0,0,1,1.14.8,3.84,3.84,0,0,1,.79,1.28,4.74,4.74,0,0,1,.3,1.74,4.67,4.67,0,0,1-.3,1.72,3.75,3.75,0,0,1-.79,1.28,3.3,3.3,0,0,1-1.14.79A3.52,3.52,0,0,1,167.07,63.18Zm0-1.08a2,2,0,0,0,.91-.22,2,2,0,0,0,.71-.61,2.89,2.89,0,0,0,.46-.93,4.24,4.24,0,0,0,.16-1.22,4.19,4.19,0,0,0-.16-1.22,3.06,3.06,0,0,0-.46-1,2,2,0,0,0-.71-.61,2,2,0,0,0-1.82,0,2,2,0,0,0-.71.61,3.06,3.06,0,0,0-.46,1,4.19,4.19,0,0,0-.16,1.22,4.24,4.24,0,0,0,.16,1.22,2.89,2.89,0,0,0,.46.93,2,2,0,0,0,.71.61A2,2,0,0,0,167.07,62.1Z"/><path class="cls-5" d="M172.72,63V55.22h1.09l.11,1.12H174a5.13,5.13,0,0,1,1.11-.94,2.4,2.4,0,0,1,1.3-.38,2.16,2.16,0,0,1,1.4.4,2.23,2.23,0,0,1,.75,1.09,6.27,6.27,0,0,1,1.22-1.08,2.4,2.4,0,0,1,1.34-.41,2.1,2.1,0,0,1,1.78.77,3.71,3.71,0,0,1,.58,2.27V63h-1.31V58.24a2.79,2.79,0,0,0-.35-1.59,1.24,1.24,0,0,0-1.09-.49,2.87,2.87,0,0,0-1.95,1.2V63h-1.31V58.24a2.79,2.79,0,0,0-.35-1.59,1.28,1.28,0,0,0-1.11-.49,2.89,2.89,0,0,0-1.95,1.2V63Z"/><path class="cls-5" d="M189.13,63.18a3.72,3.72,0,0,1-1.46-.28,3.3,3.3,0,0,1-1.18-.8,3.72,3.72,0,0,1-.8-1.27,4.79,4.79,0,0,1-.28-1.71,4.67,4.67,0,0,1,.29-1.72,4,4,0,0,1,.79-1.29,3.38,3.38,0,0,1,1.11-.81,3.22,3.22,0,0,1,1.29-.28,3.27,3.27,0,0,1,1.32.26,2.58,2.58,0,0,1,1,.74,3.4,3.4,0,0,1,.6,1.15,5,5,0,0,1,.21,1.5c0,.14,0,.28,0,.41a2.66,2.66,0,0,1,0,.34H186.7a3,3,0,0,0,.78,2,2.41,2.41,0,0,0,1.81.73,3.15,3.15,0,0,0,1-.17,4.68,4.68,0,0,0,.9-.44l.46.86a6.26,6.26,0,0,1-1.13.56A4,4,0,0,1,189.13,63.18Zm-2.44-4.7h4.16a2.76,2.76,0,0,0-.51-1.8,1.72,1.72,0,0,0-1.41-.62,2.15,2.15,0,0,0-.8.16,2.22,2.22,0,0,0-.68.48,2.45,2.45,0,0,0-.5.76A3.39,3.39,0,0,0,186.69,58.48Z"/><path class="cls-5" d="M193.92,63V55.22H195l.11,1.4h0a3.51,3.51,0,0,1,1-1.16,2,2,0,0,1,1.24-.44,2.15,2.15,0,0,1,.83.16L198,56.34a2.13,2.13,0,0,0-.35-.1,2.25,2.25,0,0,0-.4,0,1.75,1.75,0,0,0-1,.4,3.23,3.23,0,0,0-.93,1.39v5Z"/><path class="cls-5" d="M201.44,63.18a4.24,4.24,0,0,1-1.59-.3,4.82,4.82,0,0,1-1.31-.77l.66-.88a5,5,0,0,0,1.05.67,2.82,2.82,0,0,0,1.23.26,1.69,1.69,0,0,0,1.16-.35,1.17,1.17,0,0,0,.38-.87.83.83,0,0,0-.16-.52,1.74,1.74,0,0,0-.41-.4,2.68,2.68,0,0,0-.56-.29l-.64-.26a7.3,7.3,0,0,1-.84-.33,3.62,3.62,0,0,1-.74-.44,2.44,2.44,0,0,1-.54-.62,1.65,1.65,0,0,1-.2-.85,2.12,2.12,0,0,1,.18-.87,1.92,1.92,0,0,1,.53-.7,2.45,2.45,0,0,1,.84-.47,3.7,3.7,0,0,1,2.47.09,4.35,4.35,0,0,1,1.06.62l-.62.84a4,4,0,0,0-.83-.5,2.3,2.3,0,0,0-.95-.19,1.52,1.52,0,0,0-1.08.33,1.08,1.08,0,0,0-.34.79.82.82,0,0,0,.14.47,1.48,1.48,0,0,0,.39.35,3.13,3.13,0,0,0,.55.27l.65.25.84.34a3,3,0,0,1,.76.44,2,2,0,0,1,.55.65,1.87,1.87,0,0,1,.22.92,2.27,2.27,0,0,1-.19.9,2.14,2.14,0,0,1-.54.74,2.6,2.6,0,0,1-.9.5A3.82,3.82,0,0,1,201.44,63.18Z"/><path class="cls-5" d="M210.54,63l-2.16-7.77h1.35l1.15,4.49c.08.37.16.74.24,1.09s.15.71.22,1.07h.07c.08-.36.17-.72.25-1.08l.27-1.08,1.2-4.49h1.28l1.22,4.49c.1.37.19.74.28,1.09s.18.71.26,1.07h.07l.24-1.07c.07-.35.15-.72.24-1.09l1.13-4.49h1.25L217,63h-1.6l-1.12-4.17c-.09-.38-.18-.75-.26-1.11s-.17-.74-.27-1.13h-.06c-.09.39-.17.77-.26,1.14s-.18.74-.28,1.11L212.08,63Z"/><path class="cls-5" d="M221.47,53.62a.93.93,0,0,1-.65-.24.86.86,0,0,1,0-1.23,1,1,0,0,1,.65-.23,1,1,0,0,1,.65.23.81.81,0,0,1,.26.62.82.82,0,0,1-.26.61A1,1,0,0,1,221.47,53.62ZM220.8,63V55.22h1.31V63Z"/><path class="cls-5" d="M227.18,63.18a2.5,2.5,0,0,1-1.05-.19,1.83,1.83,0,0,1-.69-.53,2,2,0,0,1-.37-.81,4.37,4.37,0,0,1-.11-1.06v-4.3H223.8v-1l1.22-.08.16-2.18h1.1v2.18h2.1v1.07h-2.1v4.32a1.94,1.94,0,0,0,.27,1.11,1,1,0,0,0,.93.39,1.86,1.86,0,0,0,.45-.06,3.05,3.05,0,0,0,.43-.15l.26,1c-.21.07-.45.14-.7.2A3.81,3.81,0,0,1,227.18,63.18Z"/><path class="cls-5" d="M230.14,63V51.6h1.31v3.1l0,1.6a8,8,0,0,1,1.17-.9A2.68,2.68,0,0,1,234,55a2.1,2.1,0,0,1,1.8.77,3.86,3.86,0,0,1,.56,2.27V63h-1.31V58.24a2.79,2.79,0,0,0-.35-1.59,1.27,1.27,0,0,0-1.12-.49,1.91,1.91,0,0,0-1.07.3,7.38,7.38,0,0,0-1.06.9V63Z"/><path class="cls-5" d="M244.08,63.18a4.24,4.24,0,0,1-1.59-.3,4.82,4.82,0,0,1-1.31-.77l.66-.88a5.23,5.23,0,0,0,1,.67,2.86,2.86,0,0,0,1.24.26,1.69,1.69,0,0,0,1.16-.35,1.17,1.17,0,0,0,.38-.87.83.83,0,0,0-.16-.52,1.74,1.74,0,0,0-.41-.4,2.53,2.53,0,0,0-.57-.29l-.64-.26a8,8,0,0,1-.83-.33,3.37,3.37,0,0,1-.74-.44,2.44,2.44,0,0,1-.54-.62,1.65,1.65,0,0,1-.21-.85,2.13,2.13,0,0,1,.19-.87,1.92,1.92,0,0,1,.53-.7,2.45,2.45,0,0,1,.84-.47,3.7,3.7,0,0,1,2.47.09,4.35,4.35,0,0,1,1.06.62l-.62.84a4.26,4.26,0,0,0-.83-.5,2.3,2.3,0,0,0-.95-.19,1.52,1.52,0,0,0-1.08.33,1.08,1.08,0,0,0-.34.79.82.82,0,0,0,.14.47,1.48,1.48,0,0,0,.39.35,3.13,3.13,0,0,0,.55.27l.65.25.84.34a3,3,0,0,1,.76.44,2.19,2.19,0,0,1,.55.65,1.87,1.87,0,0,1,.21.92,2.26,2.26,0,0,1-.18.9,2.14,2.14,0,0,1-.54.74,2.6,2.6,0,0,1-.9.5A3.86,3.86,0,0,1,244.08,63.18Z"/><path class="cls-5" d="M251.77,63.18a3.56,3.56,0,0,1-1.37-.27,3.3,3.3,0,0,1-1.14-.79,3.91,3.91,0,0,1-.79-1.28,4.67,4.67,0,0,1-.3-1.72,4.74,4.74,0,0,1,.3-1.74,4,4,0,0,1,.79-1.28,3.2,3.2,0,0,1,1.14-.8,3.39,3.39,0,0,1,1.37-.28,3.36,3.36,0,0,1,1.37.28,3.2,3.2,0,0,1,1.14.8,3.87,3.87,0,0,1,.8,1.28,5,5,0,0,1,.29,1.74,4.88,4.88,0,0,1-.29,1.72,3.77,3.77,0,0,1-.8,1.28,3.3,3.3,0,0,1-1.14.79A3.52,3.52,0,0,1,251.77,63.18Zm0-1.08a2,2,0,0,0,.92-.22,2.16,2.16,0,0,0,.71-.61,2.88,2.88,0,0,0,.45-.93,4.24,4.24,0,0,0,.16-1.22,4.19,4.19,0,0,0-.16-1.22,3,3,0,0,0-.45-1,2.16,2.16,0,0,0-.71-.61,1.92,1.92,0,0,0-.92-.22,1.88,1.88,0,0,0-.91.22,2.07,2.07,0,0,0-.71.61,3.06,3.06,0,0,0-.46,1,4.56,4.56,0,0,0-.16,1.22,4.62,4.62,0,0,0,.16,1.22,2.89,2.89,0,0,0,.46.93,2.07,2.07,0,0,0,.71.61A2,2,0,0,0,251.77,62.1Z"/><path class="cls-5" d="M258.81,63.18a1.24,1.24,0,0,1-1.07-.44,2.29,2.29,0,0,1-.32-1.32V51.6h1.31v9.92a.67.67,0,0,0,.12.45.34.34,0,0,0,.25.13h.12l.17,0,.17,1a1.07,1.07,0,0,1-.3.09A2.81,2.81,0,0,1,258.81,63.18Z"/><path class="cls-5" d="M263.77,63.18a2.1,2.1,0,0,1-1.81-.76,3.81,3.81,0,0,1-.57-2.28V55.22h1.33V60a2.85,2.85,0,0,0,.34,1.59,1.28,1.28,0,0,0,1.11.49,1.9,1.9,0,0,0,1.07-.31,5.23,5.23,0,0,0,1-1V55.22h1.31V63h-1.09l-.11-1.21h-.05a5.37,5.37,0,0,1-1.14,1A2.53,2.53,0,0,1,263.77,63.18Z"/><path class="cls-5" d="M272.65,63.18a2.56,2.56,0,0,1-1-.19,1.72,1.72,0,0,1-.68-.53,1.9,1.9,0,0,1-.38-.81,4.93,4.93,0,0,1-.11-1.06v-4.3h-1.15v-1l1.21-.08.16-2.18h1.11v2.18h2.09v1.07h-2.09v4.32a1.94,1.94,0,0,0,.26,1.11,1.06,1.06,0,0,0,.94.39,1.85,1.85,0,0,0,.44-.06,3.76,3.76,0,0,0,.44-.15l.25,1c-.21.07-.44.14-.69.2A3.82,3.82,0,0,1,272.65,63.18Z"/><path class="cls-5" d="M276.28,53.62a.91.91,0,0,1-.64-.24.79.79,0,0,1-.27-.61.78.78,0,0,1,.27-.62,1,1,0,0,1,1.29,0,.78.78,0,0,1,.27.62.79.79,0,0,1-.27.61A.92.92,0,0,1,276.28,53.62ZM275.61,63V55.22h1.31V63Z"/><path class="cls-5" d="M282.57,63.18a3.56,3.56,0,0,1-1.37-.27,3.3,3.3,0,0,1-1.14-.79,3.91,3.91,0,0,1-.79-1.28,4.67,4.67,0,0,1-.3-1.72,4.74,4.74,0,0,1,.3-1.74,4,4,0,0,1,.79-1.28,3.2,3.2,0,0,1,1.14-.8,3.39,3.39,0,0,1,1.37-.28,3.36,3.36,0,0,1,1.37.28,3.2,3.2,0,0,1,1.14.8,4,4,0,0,1,.8,1.28,5,5,0,0,1,.29,1.74,4.88,4.88,0,0,1-.29,1.72,3.93,3.93,0,0,1-.8,1.28,3.3,3.3,0,0,1-1.14.79A3.52,3.52,0,0,1,282.57,63.18Zm0-1.08a2,2,0,0,0,.91-.22,2.1,2.1,0,0,0,.72-.61,2.88,2.88,0,0,0,.45-.93,4.24,4.24,0,0,0,.16-1.22,4.19,4.19,0,0,0-.16-1.22,3,3,0,0,0-.45-1,2.1,2.1,0,0,0-.72-.61,1.86,1.86,0,0,0-.91-.22,1.88,1.88,0,0,0-.91.22,2.07,2.07,0,0,0-.71.61,3.06,3.06,0,0,0-.46,1,4.56,4.56,0,0,0-.16,1.22,4.62,4.62,0,0,0,.16,1.22,2.89,2.89,0,0,0,.46.93,2.07,2.07,0,0,0,.71.61A2,2,0,0,0,282.57,62.1Z"/><path class="cls-5" d="M288.22,63V55.22h1.09l.11,1.12h.05a6,6,0,0,1,1.17-.94,2.71,2.71,0,0,1,1.44-.38,2.1,2.1,0,0,1,1.8.77,3.86,3.86,0,0,1,.56,2.27V63h-1.31V58.24a2.79,2.79,0,0,0-.35-1.59,1.27,1.27,0,0,0-1.12-.49,1.91,1.91,0,0,0-1.07.3,7.38,7.38,0,0,0-1.06.9V63Z"/><path class="cls-5" d="M299,63.18a4.23,4.23,0,0,1-1.58-.3,4.82,4.82,0,0,1-1.31-.77l.65-.88a5,5,0,0,0,1.05.67,2.86,2.86,0,0,0,1.24.26,1.66,1.66,0,0,0,1.15-.35,1.14,1.14,0,0,0,.39-.87.89.89,0,0,0-.16-.52A1.74,1.74,0,0,0,300,60a3,3,0,0,0-.57-.29l-.64-.26a7.16,7.16,0,0,1-.83-.33,3.15,3.15,0,0,1-.74-.44,2.44,2.44,0,0,1-.54-.62,1.65,1.65,0,0,1-.21-.85,2,2,0,0,1,.19-.87,1.89,1.89,0,0,1,.52-.7,2.45,2.45,0,0,1,.84-.47,3.73,3.73,0,0,1,2.48.09,4.35,4.35,0,0,1,1.06.62l-.62.84a4,4,0,0,0-.84-.5,2.23,2.23,0,0,0-.94-.19,1.52,1.52,0,0,0-1.08.33,1.08,1.08,0,0,0-.34.79.75.75,0,0,0,.14.47,1.43,1.43,0,0,0,.38.35,3.24,3.24,0,0,0,.56.27l.64.25.84.34a2.7,2.7,0,0,1,.76.44,2.08,2.08,0,0,1,.56.65,1.87,1.87,0,0,1,.21.92,2.26,2.26,0,0,1-.18.9,2.31,2.31,0,0,1-.55.74,2.65,2.65,0,0,1-.89.5A3.88,3.88,0,0,1,299,63.18Z"/><path class="cls-5" d="M308.67,63.18a2.4,2.4,0,0,1-1.63-.57A2.08,2.08,0,0,1,306.4,61a2.14,2.14,0,0,1,1.13-2,9.24,9.24,0,0,1,3.63-1,3.51,3.51,0,0,0-.07-.72,1.8,1.8,0,0,0-.25-.62,1.28,1.28,0,0,0-.48-.44,1.72,1.72,0,0,0-.8-.17,3.16,3.16,0,0,0-1.26.26,6.21,6.21,0,0,0-1.06.57l-.51-.91a9.07,9.07,0,0,1,1.33-.68,4.41,4.41,0,0,1,1.73-.33,2.35,2.35,0,0,1,2.06.88,3.8,3.8,0,0,1,.64,2.32V63H311.4l-.11-.93h-.05a5.93,5.93,0,0,1-1.2.79A2.92,2.92,0,0,1,308.67,63.18Zm.38-1a2.17,2.17,0,0,0,1.06-.27,5,5,0,0,0,1.05-.77V58.93a12.22,12.22,0,0,0-1.64.3,4.41,4.41,0,0,0-1.07.42,1.58,1.58,0,0,0-.59.55,1.33,1.33,0,0,0-.18.68,1.09,1.09,0,0,0,.4,1A1.62,1.62,0,0,0,309.05,62.13Z"/><path class="cls-5" d="M314.94,63V55.22H316l.11,1.12h.05a6,6,0,0,1,1.17-.94A2.71,2.71,0,0,1,318.8,55a2.1,2.1,0,0,1,1.8.77,3.78,3.78,0,0,1,.56,2.27V63h-1.31V58.24a2.79,2.79,0,0,0-.35-1.59,1.27,1.27,0,0,0-1.12-.49,1.94,1.94,0,0,0-1.07.3,7.38,7.38,0,0,0-1.06.9V63Z"/><path class="cls-5" d="M326.35,63.18a2.92,2.92,0,0,1-2.35-1,4.63,4.63,0,0,1-.87-3,5,5,0,0,1,.28-1.7,4.06,4.06,0,0,1,.75-1.29,3.26,3.26,0,0,1,1.07-.82,3,3,0,0,1,1.28-.29,2.66,2.66,0,0,1,1.17.24,5.06,5.06,0,0,1,1,.66l-.06-1.33v-3H330V63h-1.09l-.11-.91h-.05a4.57,4.57,0,0,1-1.06.77A2.63,2.63,0,0,1,326.35,63.18Zm.29-1.1a2.15,2.15,0,0,0,1-.26,3.83,3.83,0,0,0,1-.81V56.94a3.25,3.25,0,0,0-.95-.63,2.57,2.57,0,0,0-.94-.18,1.86,1.86,0,0,0-.87.21,2.29,2.29,0,0,0-.71.61,3.08,3.08,0,0,0-.48.94,3.84,3.84,0,0,0-.18,1.21,3.79,3.79,0,0,0,.56,2.2A1.85,1.85,0,0,0,326.64,62.08Z"/><path class="cls-5" d="M338.43,63.18a2.92,2.92,0,0,1-2.35-1,4.63,4.63,0,0,1-.87-3,5,5,0,0,1,.28-1.7,4.06,4.06,0,0,1,.75-1.29,3.26,3.26,0,0,1,1.07-.82,3,3,0,0,1,1.28-.29,2.66,2.66,0,0,1,1.17.24,5.06,5.06,0,0,1,1,.66l-.06-1.33v-3H342V63h-1.09l-.11-.91h-.05a4.57,4.57,0,0,1-1.06.77A2.63,2.63,0,0,1,338.43,63.18Zm.29-1.1a2.15,2.15,0,0,0,1-.26,3.83,3.83,0,0,0,1-.81V56.94a3.25,3.25,0,0,0-.95-.63,2.57,2.57,0,0,0-.94-.18,1.86,1.86,0,0,0-.87.21,2.29,2.29,0,0,0-.71.61,3.08,3.08,0,0,0-.48.94,3.84,3.84,0,0,0-.18,1.21,3.79,3.79,0,0,0,.56,2.2A1.85,1.85,0,0,0,338.72,62.08Z"/><path class="cls-5" d="M347.81,63.18a3.74,3.74,0,0,1-1.47-.28,3.3,3.3,0,0,1-1.18-.8,3.56,3.56,0,0,1-.79-1.27,4.58,4.58,0,0,1-.29-1.71,4.88,4.88,0,0,1,.29-1.72,4,4,0,0,1,.79-1.29,3.38,3.38,0,0,1,1.11-.81,3.31,3.31,0,0,1,2.62,0,2.62,2.62,0,0,1,1,.74,3.4,3.4,0,0,1,.6,1.15,5,5,0,0,1,.21,1.5c0,.14,0,.28,0,.41a1.59,1.59,0,0,1,0,.34h-5.25a3.1,3.1,0,0,0,.78,2,2.42,2.42,0,0,0,1.82.73,3.13,3.13,0,0,0,1-.17,4.68,4.68,0,0,0,.9-.44l.47.86a6.36,6.36,0,0,1-1.14.56A4,4,0,0,1,347.81,63.18Zm-2.45-4.7h4.16a2.76,2.76,0,0,0-.51-1.8,1.71,1.71,0,0,0-1.41-.62,2.1,2.1,0,0,0-.79.16,2,2,0,0,0-.68.48,2.31,2.31,0,0,0-.51.76A3.39,3.39,0,0,0,345.36,58.48Z"/><path class="cls-5" d="M355.66,63.18a3.84,3.84,0,0,1-1.44-.27,3.19,3.19,0,0,1-1.16-.79,3.87,3.87,0,0,1-.77-1.28,5.13,5.13,0,0,1-.28-1.72,4.54,4.54,0,0,1,.31-1.74,3.89,3.89,0,0,1,.81-1.28,3.29,3.29,0,0,1,1.19-.8,3.73,3.73,0,0,1,1.44-.28,2.79,2.79,0,0,1,1.31.28,4.34,4.34,0,0,1,1,.64l-.67.86a3.67,3.67,0,0,0-.71-.5,2,2,0,0,0-.84-.19,2.14,2.14,0,0,0-1,.22,2.17,2.17,0,0,0-.77.61,3.12,3.12,0,0,0-.5,1,3.59,3.59,0,0,0-.19,1.22,3.91,3.91,0,0,0,.18,1.22,2.94,2.94,0,0,0,.49.93,2.06,2.06,0,0,0,.76.61,2.26,2.26,0,0,0,1,.22,2.08,2.08,0,0,0,1-.24,4,4,0,0,0,.83-.55l.57.88a4.18,4.18,0,0,1-1.17.73A3.37,3.37,0,0,1,355.66,63.18Z"/><path class="cls-5" d="M360.56,53.62a.92.92,0,0,1-.65-.24.79.79,0,0,1-.27-.61.78.78,0,0,1,.27-.62,1,1,0,0,1,1.29,0,.78.78,0,0,1,.27.62.79.79,0,0,1-.27.61A.91.91,0,0,1,360.56,53.62ZM359.88,63V55.22h1.32V63Z"/><path class="cls-5" d="M365.85,63.18a4.23,4.23,0,0,1-1.58-.3,4.82,4.82,0,0,1-1.31-.77l.65-.88a5,5,0,0,0,1.05.67,2.86,2.86,0,0,0,1.24.26,1.66,1.66,0,0,0,1.15-.35,1.14,1.14,0,0,0,.39-.87.83.83,0,0,0-.17-.52,1.69,1.69,0,0,0-.4-.4,3,3,0,0,0-.57-.29l-.64-.26a6.52,6.52,0,0,1-.83-.33,3.44,3.44,0,0,1-.75-.44,2.39,2.39,0,0,1-.53-.62,1.65,1.65,0,0,1-.21-.85,2.12,2.12,0,0,1,.18-.87,2,2,0,0,1,.53-.7,2.45,2.45,0,0,1,.84-.47A3.56,3.56,0,0,1,366,55a3.49,3.49,0,0,1,1.35.26,4.42,4.42,0,0,1,1.07.62l-.63.84a3.74,3.74,0,0,0-.83-.5,2.26,2.26,0,0,0-.94-.19,1.52,1.52,0,0,0-1.08.33,1.09,1.09,0,0,0-.35.79.75.75,0,0,0,.15.47,1.29,1.29,0,0,0,.38.35,3.52,3.52,0,0,0,.55.27l.65.25.84.34a2.85,2.85,0,0,1,.76.44,1.93,1.93,0,0,1,.55.65,1.77,1.77,0,0,1,.22.92,2.26,2.26,0,0,1-.18.9,2.31,2.31,0,0,1-.55.74,2.65,2.65,0,0,1-.89.5A3.88,3.88,0,0,1,365.85,63.18Z"/><path class="cls-5" d="M371.2,53.62a.92.92,0,0,1-.65-.24.79.79,0,0,1-.27-.61.78.78,0,0,1,.27-.62,1,1,0,0,1,1.29,0,.78.78,0,0,1,.27.62.79.79,0,0,1-.27.61A.91.91,0,0,1,371.2,53.62ZM370.52,63V55.22h1.32V63Z"/><path class="cls-5" d="M377.48,63.18a3.47,3.47,0,0,1-1.36-.27,3.24,3.24,0,0,1-1.15-.79,3.91,3.91,0,0,1-.79-1.28,4.67,4.67,0,0,1-.3-1.72,4.74,4.74,0,0,1,.3-1.74A4,4,0,0,1,375,56.1a3.15,3.15,0,0,1,1.15-.8,3.31,3.31,0,0,1,1.36-.28,3.36,3.36,0,0,1,1.37.28,3.23,3.23,0,0,1,1.15.8,4,4,0,0,1,.79,1.28,5,5,0,0,1,.29,1.74,4.88,4.88,0,0,1-.29,1.72,3.91,3.91,0,0,1-.79,1.28,3.33,3.33,0,0,1-1.15.79A3.52,3.52,0,0,1,377.48,63.18Zm0-1.08a2,2,0,0,0,.92-.22,2.16,2.16,0,0,0,.71-.61,2.69,2.69,0,0,0,.45-.93,4.24,4.24,0,0,0,.16-1.22,4.19,4.19,0,0,0-.16-1.22,2.84,2.84,0,0,0-.45-1,2.16,2.16,0,0,0-.71-.61,1.92,1.92,0,0,0-.92-.22,1.88,1.88,0,0,0-.91.22,2.07,2.07,0,0,0-.71.61,3.06,3.06,0,0,0-.46,1,4.56,4.56,0,0,0-.16,1.22,4.62,4.62,0,0,0,.16,1.22,2.89,2.89,0,0,0,.46.93,2.07,2.07,0,0,0,.71.61A2,2,0,0,0,377.48,62.1Z"/><path class="cls-5" d="M383.13,63V55.22h1.09l.11,1.12h.05a6,6,0,0,1,1.18-.94A2.68,2.68,0,0,1,387,55a2.1,2.1,0,0,1,1.8.77,3.78,3.78,0,0,1,.57,2.27V63H388V58.24a2.71,2.71,0,0,0-.35-1.59,1.27,1.27,0,0,0-1.12-.49,1.94,1.94,0,0,0-1.07.3,7.38,7.38,0,0,0-1.06.9V63Z"/><path class="cls-5" d="M60.91,87.18a2.53,2.53,0,0,1-1-.19,1.72,1.72,0,0,1-.68-.53,1.9,1.9,0,0,1-.38-.81,4.37,4.37,0,0,1-.11-1.06v-4.3H57.53v-1l1.22-.08L58.91,77H60v2.18h2.09v1.07H60v4.32a1.94,1.94,0,0,0,.26,1.11,1,1,0,0,0,.94.39,1.85,1.85,0,0,0,.44-.06,3.76,3.76,0,0,0,.44-.15l.25,1c-.21.07-.44.14-.7.2A3.72,3.72,0,0,1,60.91,87.18Z"/><path class="cls-5" d="M66.67,87.18a3.56,3.56,0,0,1-1.37-.27,3.3,3.3,0,0,1-1.14-.79,3.75,3.75,0,0,1-.79-1.28,4.67,4.67,0,0,1-.3-1.72,4.74,4.74,0,0,1,.3-1.74,3.84,3.84,0,0,1,.79-1.28,3.2,3.2,0,0,1,1.14-.8A3.39,3.39,0,0,1,66.67,79,3.36,3.36,0,0,1,68,79.3a3.2,3.2,0,0,1,1.14.8,4,4,0,0,1,.8,1.28,5,5,0,0,1,.29,1.74A4.88,4.88,0,0,1,70,84.84a3.93,3.93,0,0,1-.8,1.28,3.3,3.3,0,0,1-1.14.79A3.52,3.52,0,0,1,66.67,87.18Zm0-1.08a2,2,0,0,0,.91-.22,2.1,2.1,0,0,0,.72-.61,2.88,2.88,0,0,0,.45-.93,4.24,4.24,0,0,0,.16-1.22,4.19,4.19,0,0,0-.16-1.22,3,3,0,0,0-.45-1,2.1,2.1,0,0,0-.72-.61,1.86,1.86,0,0,0-.91-.22,1.88,1.88,0,0,0-.91.22,2,2,0,0,0-.71.61,3.06,3.06,0,0,0-.46,1,4.19,4.19,0,0,0-.16,1.22,4.24,4.24,0,0,0,.16,1.22,2.89,2.89,0,0,0,.46.93,2,2,0,0,0,.71.61A2,2,0,0,0,66.67,86.1Z"/><path class="cls-5" d="M75.34,87.18A3.47,3.47,0,0,1,74,86.91a3.24,3.24,0,0,1-1.15-.79A3.91,3.91,0,0,1,72,84.84a4.67,4.67,0,0,1-.3-1.72,4.74,4.74,0,0,1,.3-1.74,4,4,0,0,1,.79-1.28A3.15,3.15,0,0,1,74,79.3,3.31,3.31,0,0,1,75.34,79a3.36,3.36,0,0,1,1.37.28,3.2,3.2,0,0,1,1.14.8,3.87,3.87,0,0,1,.8,1.28,5,5,0,0,1,.29,1.74,4.88,4.88,0,0,1-.29,1.72,3.77,3.77,0,0,1-.8,1.28,3.3,3.3,0,0,1-1.14.79A3.52,3.52,0,0,1,75.34,87.18Zm0-1.08a2,2,0,0,0,.92-.22,2.16,2.16,0,0,0,.71-.61,2.88,2.88,0,0,0,.45-.93,4.24,4.24,0,0,0,.16-1.22,4.19,4.19,0,0,0-.16-1.22,3,3,0,0,0-.45-1,2.16,2.16,0,0,0-.71-.61,1.92,1.92,0,0,0-.92-.22,1.88,1.88,0,0,0-.91.22,2.07,2.07,0,0,0-.71.61,3.06,3.06,0,0,0-.46,1,4.56,4.56,0,0,0-.16,1.22,4.62,4.62,0,0,0,.16,1.22,2.89,2.89,0,0,0,.46.93,2.07,2.07,0,0,0,.71.61A2,2,0,0,0,75.34,86.1Z"/><path class="cls-5" d="M82.38,87.18a1.24,1.24,0,0,1-1.07-.44A2.29,2.29,0,0,1,81,85.42V75.6H82.3v9.92a.67.67,0,0,0,.12.45.34.34,0,0,0,.25.13h.12l.17,0,.18,1a1.26,1.26,0,0,1-.31.09A2.81,2.81,0,0,1,82.38,87.18Z"/><path class="cls-5" d="M87.1,87.18a4.23,4.23,0,0,1-1.58-.3,4.82,4.82,0,0,1-1.31-.77l.65-.88a5,5,0,0,0,1,.67,2.86,2.86,0,0,0,1.24.26,1.66,1.66,0,0,0,1.15-.35,1.14,1.14,0,0,0,.39-.87.89.89,0,0,0-.16-.52,2,2,0,0,0-.41-.4,3,3,0,0,0-.57-.29l-.64-.26a7.16,7.16,0,0,1-.83-.33,3.15,3.15,0,0,1-.74-.44,2.44,2.44,0,0,1-.54-.62,1.65,1.65,0,0,1-.21-.85,2.12,2.12,0,0,1,.18-.87,2,2,0,0,1,.53-.7,2.45,2.45,0,0,1,.84-.47,3.73,3.73,0,0,1,2.48.09,4.35,4.35,0,0,1,1.06.62l-.62.84a4,4,0,0,0-.84-.5,2.23,2.23,0,0,0-.94-.19,1.52,1.52,0,0,0-1.08.33,1.09,1.09,0,0,0-.35.79.75.75,0,0,0,.15.47,1.43,1.43,0,0,0,.38.35,3.24,3.24,0,0,0,.56.27l.64.25.84.34a2.7,2.7,0,0,1,.76.44,1.93,1.93,0,0,1,.55.65,1.77,1.77,0,0,1,.22.92,2.26,2.26,0,0,1-.18.9,2.31,2.31,0,0,1-.55.74,2.65,2.65,0,0,1-.89.5A3.88,3.88,0,0,1,87.1,87.18Z"/><path class="cls-5" d="M97.42,87.18a2.48,2.48,0,0,1-1-.19,1.68,1.68,0,0,1-.69-.53,2,2,0,0,1-.38-.81,4.93,4.93,0,0,1-.11-1.06v-4.3H94.05v-1l1.21-.08L95.42,77h1.11v2.18h2.09v1.07H96.53v4.32a2,2,0,0,0,.26,1.11,1.06,1.06,0,0,0,.94.39,1.86,1.86,0,0,0,.45-.06,3.58,3.58,0,0,0,.43-.15l.25,1c-.21.07-.44.14-.69.2A3.82,3.82,0,0,1,97.42,87.18Z"/><path class="cls-5" d="M100.38,87V75.6h1.32v3.1l0,1.6a7,7,0,0,1,1.17-.9,2.64,2.64,0,0,1,1.42-.38,2.1,2.1,0,0,1,1.8.77,3.78,3.78,0,0,1,.57,2.27V87H105.3V82.24a2.7,2.7,0,0,0-.36-1.59,1.26,1.26,0,0,0-1.12-.49,1.94,1.94,0,0,0-1.07.3,6.86,6.86,0,0,0-1,.9V87Z"/><path class="cls-5" d="M110.88,87.18a2.36,2.36,0,0,1-1.62-.57,2.05,2.05,0,0,1-.65-1.63,2.16,2.16,0,0,1,1.13-2,9.25,9.25,0,0,1,3.64-1,3.53,3.53,0,0,0-.08-.72,1.78,1.78,0,0,0-.24-.62,1.31,1.31,0,0,0-.49-.44,1.68,1.68,0,0,0-.79-.17,3.21,3.21,0,0,0-1.27.26,6.5,6.5,0,0,0-1.05.57l-.52-.91a9.61,9.61,0,0,1,1.33-.68A4.41,4.41,0,0,1,112,79a2.35,2.35,0,0,1,2.06.88,3.8,3.8,0,0,1,.64,2.32V87h-1.08l-.12-.93h0a6.54,6.54,0,0,1-1.2.79A3,3,0,0,1,110.88,87.18Zm.38-1.05a2.17,2.17,0,0,0,1.06-.27,5.28,5.28,0,0,0,1.06-.77V82.93a11.93,11.93,0,0,0-1.64.3,4.51,4.51,0,0,0-1.08.42,1.58,1.58,0,0,0-.59.55,1.33,1.33,0,0,0-.18.68,1.09,1.09,0,0,0,.4,1A1.62,1.62,0,0,0,111.26,86.13Z"/><path class="cls-5" d="M119.38,87.18a2.5,2.5,0,0,1-1-.19,1.83,1.83,0,0,1-.69-.53,1.89,1.89,0,0,1-.37-.81,4.35,4.35,0,0,1-.12-1.06v-4.3H116v-1l1.22-.08.16-2.18h1.1v2.18h2.1v1.07h-2.1v4.32a2,2,0,0,0,.26,1.11,1.06,1.06,0,0,0,.94.39,1.86,1.86,0,0,0,.45-.06,3.58,3.58,0,0,0,.43-.15l.26,1c-.22.07-.45.14-.7.2A3.81,3.81,0,0,1,119.38,87.18Z"/><path class="cls-5" d="M128.61,87.18a3.84,3.84,0,0,1-1.44-.27,3.11,3.11,0,0,1-1.16-.79,3.71,3.71,0,0,1-.77-1.28,4.89,4.89,0,0,1-.28-1.72,4.74,4.74,0,0,1,.3-1.74,4.08,4.08,0,0,1,.82-1.28,3.29,3.29,0,0,1,1.19-.8A3.68,3.68,0,0,1,128.7,79a2.83,2.83,0,0,1,1.32.28,4.34,4.34,0,0,1,1,.64l-.68.86a3.39,3.39,0,0,0-.71-.5,1.92,1.92,0,0,0-.84-.19,2.1,2.1,0,0,0-1,.22,2.17,2.17,0,0,0-.77.61,3.14,3.14,0,0,0-.51,1,3.86,3.86,0,0,0-.18,1.22,3.91,3.91,0,0,0,.18,1.22,2.92,2.92,0,0,0,.48.93,2.23,2.23,0,0,0,.76.61,2.31,2.31,0,0,0,1,.22,2.11,2.11,0,0,0,1-.24,3.92,3.92,0,0,0,.82-.55l.58.88a4.18,4.18,0,0,1-1.17.73A3.4,3.4,0,0,1,128.61,87.18Z"/><path class="cls-5" d="M135.52,87.18a3.56,3.56,0,0,1-1.37-.27,3.3,3.3,0,0,1-1.14-.79,3.75,3.75,0,0,1-.79-1.28,4.67,4.67,0,0,1-.3-1.72,4.74,4.74,0,0,1,.3-1.74A3.84,3.84,0,0,1,133,80.1a3.2,3.2,0,0,1,1.14-.8,3.39,3.39,0,0,1,1.37-.28,3.36,3.36,0,0,1,1.37.28,3.2,3.2,0,0,1,1.14.8,3.84,3.84,0,0,1,.79,1.28,4.74,4.74,0,0,1,.3,1.74,4.67,4.67,0,0,1-.3,1.72,3.75,3.75,0,0,1-.79,1.28,3.3,3.3,0,0,1-1.14.79A3.52,3.52,0,0,1,135.52,87.18Zm0-1.08a2,2,0,0,0,.91-.22,2.1,2.1,0,0,0,.72-.61,3.1,3.1,0,0,0,.45-.93,4.24,4.24,0,0,0,.16-1.22,4.19,4.19,0,0,0-.16-1.22,3.28,3.28,0,0,0-.45-1,2.1,2.1,0,0,0-.72-.61,1.86,1.86,0,0,0-.91-.22,1.88,1.88,0,0,0-.91.22,2,2,0,0,0-.71.61,3.06,3.06,0,0,0-.46,1,4.19,4.19,0,0,0-.16,1.22,4.24,4.24,0,0,0,.16,1.22,2.89,2.89,0,0,0,.46.93,2,2,0,0,0,.71.61A2,2,0,0,0,135.52,86.1Z"/><path class="cls-5" d="M141.17,87V79.22h1.09l.11,1.12h0a5.13,5.13,0,0,1,1.11-.94,2.4,2.4,0,0,1,1.3-.38,2.16,2.16,0,0,1,1.4.4,2.23,2.23,0,0,1,.75,1.09,6.27,6.27,0,0,1,1.22-1.08,2.4,2.4,0,0,1,1.34-.41,2.1,2.1,0,0,1,1.78.77,3.71,3.71,0,0,1,.58,2.27V87h-1.31V82.24a2.71,2.71,0,0,0-.35-1.59,1.24,1.24,0,0,0-1.09-.49,2.91,2.91,0,0,0-2,1.2V87h-1.31V82.24a2.79,2.79,0,0,0-.35-1.59,1.28,1.28,0,0,0-1.11-.49,2.91,2.91,0,0,0-2,1.2V87Z"/><path class="cls-5" d="M157.87,87.18a2.68,2.68,0,0,1-1.13-.26,4.25,4.25,0,0,1-1.09-.73h-.05l-.11.8h-1.06V75.6h1.31v3.1l0,1.41a5.14,5.14,0,0,1,1.15-.77,2.86,2.86,0,0,1,1.29-.32,3.05,3.05,0,0,1,1.32.28,2.69,2.69,0,0,1,1,.8,3.71,3.71,0,0,1,.59,1.25,5.92,5.92,0,0,1,.2,1.63,5.39,5.39,0,0,1-.27,1.77,4.06,4.06,0,0,1-.74,1.33,3.06,3.06,0,0,1-2.35,1.1Zm-.22-1.1a1.83,1.83,0,0,0,.89-.22,2.1,2.1,0,0,0,.7-.6,3,3,0,0,0,.46-1,4.4,4.4,0,0,0,.17-1.3,5.35,5.35,0,0,0-.11-1.17,2.43,2.43,0,0,0-.36-.9,1.69,1.69,0,0,0-.64-.58,2,2,0,0,0-.94-.21,3.24,3.24,0,0,0-2.08,1.05v4.08a3.5,3.5,0,0,0,1,.64A2.7,2.7,0,0,0,157.65,86.08Z"/><path class="cls-5" d="M164,77.62a1,1,0,0,1-.65-.24.82.82,0,0,1-.26-.61.81.81,0,0,1,.26-.62,1,1,0,0,1,.65-.23,1,1,0,0,1,.65.23.86.86,0,0,1,0,1.23A.93.93,0,0,1,164,77.62ZM163.28,87V79.22h1.31V87Z"/><path class="cls-5" d="M167.22,87V79.22h1.08l.12,1.12h0a6.32,6.32,0,0,1,1.18-.94,2.7,2.7,0,0,1,1.43-.38,2.1,2.1,0,0,1,1.8.77,3.78,3.78,0,0,1,.57,2.27V87h-1.31V82.24a2.79,2.79,0,0,0-.35-1.59,1.29,1.29,0,0,0-1.12-.49,2,2,0,0,0-1.08.3,6.86,6.86,0,0,0-1.05.9V87Z"/><path class="cls-5" d="M179.12,87.18a3.72,3.72,0,0,1-1.46-.28,3.33,3.33,0,0,1-1.19-.8,3.7,3.7,0,0,1-.79-1.27,4.79,4.79,0,0,1-.29-1.71,4.67,4.67,0,0,1,.3-1.72,4.11,4.11,0,0,1,.78-1.29,3.6,3.6,0,0,1,1.11-.81,3.31,3.31,0,0,1,2.62,0,2.65,2.65,0,0,1,1,.74,3.4,3.4,0,0,1,.6,1.15,5.39,5.39,0,0,1,.2,1.5v.41a2.66,2.66,0,0,1,0,.34h-5.25a3,3,0,0,0,.77,2,2.43,2.43,0,0,0,1.82.73,3.09,3.09,0,0,0,1-.17,4.49,4.49,0,0,0,.91-.44l.46.86a6,6,0,0,1-1.14.56A3.91,3.91,0,0,1,179.12,87.18Zm-2.45-4.7h4.16a2.82,2.82,0,0,0-.5-1.8,1.74,1.74,0,0,0-1.42-.62,2,2,0,0,0-1.47.64,2.45,2.45,0,0,0-.5.76A3.12,3.12,0,0,0,176.67,82.48Z"/><path class="cls-5" d="M187.1,90.27v-11h1.09l.11.89h0a6.15,6.15,0,0,1,1.16-.77,2.92,2.92,0,0,1,1.32-.32,3.13,3.13,0,0,1,1.33.28,2.75,2.75,0,0,1,1,.8,3.9,3.9,0,0,1,.58,1.25,5.94,5.94,0,0,1,.2,1.64,5.39,5.39,0,0,1-.27,1.77,4,4,0,0,1-.74,1.32,3.06,3.06,0,0,1-2.35,1.1,2.64,2.64,0,0,1-1.08-.24,5.63,5.63,0,0,1-1.08-.65l0,1.36v2.62Zm3.22-4.19a1.83,1.83,0,0,0,.89-.22,2.1,2.1,0,0,0,.7-.6,3,3,0,0,0,.46-1,4.4,4.4,0,0,0,.17-1.3,5.35,5.35,0,0,0-.11-1.17,2.43,2.43,0,0,0-.36-.9,1.69,1.69,0,0,0-.64-.58,2,2,0,0,0-.94-.21,2.12,2.12,0,0,0-1,.27,6.23,6.23,0,0,0-1.08.78v4.08a3.82,3.82,0,0,0,1,.64A2.6,2.6,0,0,0,190.32,86.08Z"/><path class="cls-5" d="M198.26,87.18a2.11,2.11,0,0,1-1.82-.76,3.81,3.81,0,0,1-.57-2.28V79.22h1.33V84a2.85,2.85,0,0,0,.34,1.59,1.29,1.29,0,0,0,1.12.49,1.94,1.94,0,0,0,1.07-.31,5.22,5.22,0,0,0,1-1V79.22h1.31V87H201l-.12-1.21h-.05a5.37,5.37,0,0,1-1.14,1A2.52,2.52,0,0,1,198.26,87.18Z"/><path class="cls-5" d="M208.13,87.18a2.65,2.65,0,0,1-1.13-.26,4.3,4.3,0,0,1-1.1-.73h-.05l-.11.8h-1.05V75.6H206v3.1l0,1.41a4.92,4.92,0,0,1,1.15-.77A2.79,2.79,0,0,1,208.4,79a3.13,3.13,0,0,1,1.33.28,2.75,2.75,0,0,1,1,.8,3.72,3.72,0,0,1,.6,1.25,6.33,6.33,0,0,1,.2,1.63,5.14,5.14,0,0,1-.28,1.77,4,4,0,0,1-.73,1.33,3.1,3.1,0,0,1-1.07.82A3,3,0,0,1,208.13,87.18Zm-.23-1.1a1.81,1.81,0,0,0,.89-.22,2,2,0,0,0,.7-.6,3,3,0,0,0,.47-1,4.76,4.76,0,0,0,.17-1.3,5.32,5.32,0,0,0-.12-1.17,2.43,2.43,0,0,0-.36-.9,1.56,1.56,0,0,0-.64-.58,1.94,1.94,0,0,0-.93-.21A3.24,3.24,0,0,0,206,81.18v4.08a3.46,3.46,0,0,0,1,.64A2.75,2.75,0,0,0,207.9,86.08Z"/><path class="cls-5" d="M214.93,87.18a1.26,1.26,0,0,1-1.08-.44,2.29,2.29,0,0,1-.32-1.32V75.6h1.32v9.92A.68.68,0,0,0,215,86a.34.34,0,0,0,.25.13h.12l.17,0,.18,1a1.26,1.26,0,0,1-.31.09A2.59,2.59,0,0,1,214.93,87.18Z"/><path class="cls-5" d="M218.29,77.62a.92.92,0,0,1-.65-.24.79.79,0,0,1-.27-.61.78.78,0,0,1,.27-.62,1,1,0,0,1,1.29,0,.78.78,0,0,1,.27.62.79.79,0,0,1-.27.61A.91.91,0,0,1,218.29,77.62ZM217.61,87V79.22h1.32V87Z"/><path class="cls-5" d="M224.62,87.18a3.84,3.84,0,0,1-1.44-.27,3.19,3.19,0,0,1-1.16-.79,3.87,3.87,0,0,1-.77-1.28,5.13,5.13,0,0,1-.28-1.72,4.54,4.54,0,0,1,.31-1.74,3.89,3.89,0,0,1,.81-1.28,3.33,3.33,0,0,1,1.2-.8,3.65,3.65,0,0,1,1.43-.28,2.79,2.79,0,0,1,1.31.28,4.34,4.34,0,0,1,1,.64l-.67.86a3.67,3.67,0,0,0-.71-.5,2,2,0,0,0-.84-.19,2.14,2.14,0,0,0-1,.22,2.17,2.17,0,0,0-.77.61,3.12,3.12,0,0,0-.5,1,3.86,3.86,0,0,0-.19,1.22,3.91,3.91,0,0,0,.18,1.22,2.94,2.94,0,0,0,.49.93,2.14,2.14,0,0,0,.76.61,2.26,2.26,0,0,0,1,.22,2.08,2.08,0,0,0,1-.24,4,4,0,0,0,.83-.55l.57.88a4.28,4.28,0,0,1-1.16.73A3.45,3.45,0,0,1,224.62,87.18Z"/><path class="cls-5" d="M233.84,87.18a2.4,2.4,0,0,1-1.63-.57,2.08,2.08,0,0,1-.64-1.63,2.14,2.14,0,0,1,1.13-2,9.24,9.24,0,0,1,3.63-1,3.51,3.51,0,0,0-.07-.72,1.8,1.8,0,0,0-.25-.62,1.28,1.28,0,0,0-.48-.44,1.72,1.72,0,0,0-.8-.17,3.16,3.16,0,0,0-1.26.26,6.21,6.21,0,0,0-1.06.57L231.9,80a9.07,9.07,0,0,1,1.33-.68A4.41,4.41,0,0,1,235,79a2.35,2.35,0,0,1,2.06.88,3.8,3.8,0,0,1,.64,2.32V87h-1.09l-.11-.93h-.05a5.93,5.93,0,0,1-1.2.79A2.92,2.92,0,0,1,233.84,87.18Zm.38-1.05a2.17,2.17,0,0,0,1.06-.27,5,5,0,0,0,1.05-.77V82.93a12.22,12.22,0,0,0-1.64.3,4.41,4.41,0,0,0-1.07.42,1.58,1.58,0,0,0-.59.55,1.33,1.33,0,0,0-.18.68,1.09,1.09,0,0,0,.4,1A1.62,1.62,0,0,0,234.22,86.13Z"/><path class="cls-5" d="M240.11,87V79.22h1.09l.11,1.12h.05a6,6,0,0,1,1.17-.94A2.71,2.71,0,0,1,244,79a2.1,2.1,0,0,1,1.8.77,3.78,3.78,0,0,1,.56,2.27V87H245V82.24a2.79,2.79,0,0,0-.35-1.59,1.27,1.27,0,0,0-1.12-.49,1.94,1.94,0,0,0-1.07.3,7.38,7.38,0,0,0-1.06.9V87Z"/><path class="cls-5" d="M251.52,87.18a2.92,2.92,0,0,1-2.35-1.05,4.63,4.63,0,0,1-.87-3,5,5,0,0,1,.28-1.7,4.06,4.06,0,0,1,.75-1.29,3.26,3.26,0,0,1,1.07-.82,3,3,0,0,1,1.28-.29,2.66,2.66,0,0,1,1.17.24,5.06,5.06,0,0,1,1,.66l-.06-1.33v-3h1.33V87H254l-.11-.91h0a4.57,4.57,0,0,1-1.06.77A2.63,2.63,0,0,1,251.52,87.18Zm.29-1.1a2.15,2.15,0,0,0,1-.26,3.83,3.83,0,0,0,1-.81V80.94a3.25,3.25,0,0,0-.95-.63,2.57,2.57,0,0,0-.94-.18,1.86,1.86,0,0,0-.87.21,2.29,2.29,0,0,0-.71.61,3.08,3.08,0,0,0-.48.94,3.84,3.84,0,0,0-.18,1.21,3.79,3.79,0,0,0,.56,2.2A1.85,1.85,0,0,0,251.81,86.08Z"/><path class="cls-5" d="M261.61,77.62a.91.91,0,0,1-.64-.24.79.79,0,0,1-.27-.61.78.78,0,0,1,.27-.62,1,1,0,0,1,1.29,0,.78.78,0,0,1,.27.62.79.79,0,0,1-.27.61A.92.92,0,0,1,261.61,77.62ZM260.94,87V79.22h1.31V87Z"/><path class="cls-5" d="M264.88,87V79.22H266l.11,1.12h.05a6,6,0,0,1,1.17-.94,2.7,2.7,0,0,1,1.43-.38,2.09,2.09,0,0,1,1.8.77,3.78,3.78,0,0,1,.57,2.27V87h-1.31V82.24a2.79,2.79,0,0,0-.35-1.59,1.29,1.29,0,0,0-1.12-.49,1.91,1.91,0,0,0-1.07.3,6.88,6.88,0,0,0-1.06.9V87Z"/><path class="cls-5" d="M276.29,87.18a2.89,2.89,0,0,1-2.35-1.05,4.63,4.63,0,0,1-.87-3,4.77,4.77,0,0,1,.28-1.7,4,4,0,0,1,.74-1.29,3.3,3.3,0,0,1,1.08-.82,3,3,0,0,1,1.28-.29,2.64,2.64,0,0,1,1.16.24,5.12,5.12,0,0,1,1,.66l-.06-1.33v-3h1.33V87H278.8l-.11-.91h-.05a4.63,4.63,0,0,1-1.07.77A2.62,2.62,0,0,1,276.29,87.18Zm.28-1.1a2.16,2.16,0,0,0,1-.26,3.83,3.83,0,0,0,1-.81V80.94a3.25,3.25,0,0,0-.95-.63,2.57,2.57,0,0,0-.94-.18,1.86,1.86,0,0,0-.87.21,2.29,2.29,0,0,0-.71.61,2.69,2.69,0,0,0-.48.94,3.84,3.84,0,0,0-.18,1.21,3.79,3.79,0,0,0,.56,2.2A1.83,1.83,0,0,0,276.57,86.08Z"/><path class="cls-5" d="M284.78,87.18a2.12,2.12,0,0,1-1.82-.76,3.89,3.89,0,0,1-.56-2.28V79.22h1.33V84a2.85,2.85,0,0,0,.34,1.59,1.28,1.28,0,0,0,1.11.49,1.92,1.92,0,0,0,1.07-.31,5.52,5.52,0,0,0,1-1V79.22h1.31V87H287.5l-.11-1.21h-.05a5.37,5.37,0,0,1-1.14,1A2.56,2.56,0,0,1,284.78,87.18Z"/><path class="cls-5" d="M293.25,87.18a4.24,4.24,0,0,1-1.59-.3,4.82,4.82,0,0,1-1.31-.77l.66-.88a5.23,5.23,0,0,0,1,.67,2.86,2.86,0,0,0,1.24.26,1.69,1.69,0,0,0,1.16-.35,1.17,1.17,0,0,0,.38-.87.83.83,0,0,0-.16-.52,1.74,1.74,0,0,0-.41-.4,2.53,2.53,0,0,0-.57-.29l-.64-.26a8,8,0,0,1-.83-.33,3.37,3.37,0,0,1-.74-.44,2.44,2.44,0,0,1-.54-.62,1.65,1.65,0,0,1-.21-.85,2.13,2.13,0,0,1,.19-.87,1.92,1.92,0,0,1,.53-.7,2.45,2.45,0,0,1,.84-.47,3.7,3.7,0,0,1,2.47.09,4.35,4.35,0,0,1,1.06.62l-.62.84a4.26,4.26,0,0,0-.83-.5,2.3,2.3,0,0,0-.95-.19,1.52,1.52,0,0,0-1.08.33,1.08,1.08,0,0,0-.34.79.82.82,0,0,0,.14.47,1.48,1.48,0,0,0,.39.35,3.13,3.13,0,0,0,.55.27l.65.25.84.34a3,3,0,0,1,.76.44,2.19,2.19,0,0,1,.55.65,1.87,1.87,0,0,1,.21.92,2.26,2.26,0,0,1-.18.9,2.14,2.14,0,0,1-.54.74,2.6,2.6,0,0,1-.9.5A3.86,3.86,0,0,1,293.25,87.18Z"/><path class="cls-5" d="M300.05,87.18A2.5,2.5,0,0,1,299,87a1.83,1.83,0,0,1-.69-.53,2,2,0,0,1-.38-.81,4.93,4.93,0,0,1-.11-1.06v-4.3h-1.15v-1l1.22-.08.16-2.18h1.1v2.18h2.1v1.07h-2.1v4.32a2,2,0,0,0,.26,1.11,1.06,1.06,0,0,0,.94.39,1.86,1.86,0,0,0,.45-.06,3.58,3.58,0,0,0,.43-.15l.26,1c-.22.07-.45.14-.7.2A3.81,3.81,0,0,1,300.05,87.18Z"/><path class="cls-5" d="M303,87V79.22h1.08l.12,1.4h0a3.51,3.51,0,0,1,1-1.16,2,2,0,0,1,1.24-.44,2.15,2.15,0,0,1,.83.16L307,80.34a2.13,2.13,0,0,0-.35-.1,2.25,2.25,0,0,0-.4,0,1.75,1.75,0,0,0-1,.4,3.14,3.14,0,0,0-.93,1.39v5Z"/><path class="cls-5" d="M309.09,90.34a3.62,3.62,0,0,1-.5,0,2.58,2.58,0,0,1-.42-.12l.26-1,.29.07a1.65,1.65,0,0,0,.3,0,1.42,1.42,0,0,0,1.1-.47,3.46,3.46,0,0,0,.66-1.2L311,87l-3.12-7.79h1.36l1.58,4.3c.12.34.24.7.38,1.08s.26.75.37,1.11h.07c.12-.35.23-.72.33-1.1s.22-.75.32-1.09l1.4-4.3h1.28L312,87.63a8.83,8.83,0,0,1-.47,1.07,3.66,3.66,0,0,1-.6.86,2.93,2.93,0,0,1-.8.57A2.44,2.44,0,0,1,309.09,90.34Z"/><path class="cls-5" d="M321.66,87.18a4.23,4.23,0,0,1-1.58-.3,4.82,4.82,0,0,1-1.31-.77l.65-.88a5,5,0,0,0,1.05.67,2.86,2.86,0,0,0,1.24.26,1.66,1.66,0,0,0,1.15-.35,1.14,1.14,0,0,0,.39-.87.89.89,0,0,0-.16-.52,2,2,0,0,0-.41-.4,3,3,0,0,0-.57-.29l-.64-.26a7.16,7.16,0,0,1-.83-.33,3.44,3.44,0,0,1-.75-.44,2.6,2.6,0,0,1-.53-.62,1.65,1.65,0,0,1-.21-.85,2.12,2.12,0,0,1,.18-.87,2,2,0,0,1,.53-.7,2.45,2.45,0,0,1,.84-.47,3.56,3.56,0,0,1,1.12-.17,3.49,3.49,0,0,1,1.35.26,4.42,4.42,0,0,1,1.07.62l-.63.84a3.74,3.74,0,0,0-.83-.5,2.26,2.26,0,0,0-.94-.19,1.52,1.52,0,0,0-1.08.33,1.09,1.09,0,0,0-.35.79.75.75,0,0,0,.15.47,1.29,1.29,0,0,0,.38.35,3.52,3.52,0,0,0,.55.27l.65.25.84.34a2.85,2.85,0,0,1,.76.44,1.93,1.93,0,0,1,.55.65,1.77,1.77,0,0,1,.22.92,2.26,2.26,0,0,1-.18.9,2.31,2.31,0,0,1-.55.74,2.65,2.65,0,0,1-.89.5A3.88,3.88,0,0,1,321.66,87.18Z"/><path class="cls-5" d="M326.33,90.27v-11h1.09l.11.89h.05a6.15,6.15,0,0,1,1.16-.77,2.92,2.92,0,0,1,1.32-.32,3.1,3.1,0,0,1,1.33.28,2.75,2.75,0,0,1,1,.8,3.9,3.9,0,0,1,.58,1.25,5.94,5.94,0,0,1,.2,1.64,5.39,5.39,0,0,1-.27,1.77,4,4,0,0,1-.74,1.32,3.06,3.06,0,0,1-2.35,1.1,2.64,2.64,0,0,1-1.08-.24,6.31,6.31,0,0,1-1.08-.65l0,1.36v2.62Zm3.22-4.19a1.83,1.83,0,0,0,.89-.22,2.1,2.1,0,0,0,.7-.6,3,3,0,0,0,.46-1,4.4,4.4,0,0,0,.17-1.3,5.35,5.35,0,0,0-.11-1.17,2.43,2.43,0,0,0-.36-.9,1.62,1.62,0,0,0-.64-.58,1.94,1.94,0,0,0-.93-.21,2.06,2.06,0,0,0-1,.27,5.56,5.56,0,0,0-1.08.78v4.08a3.63,3.63,0,0,0,1,.64A2.6,2.6,0,0,0,329.55,86.08Z"/><path class="cls-5" d="M338.37,87.18a3.74,3.74,0,0,1-1.47-.28,3.3,3.3,0,0,1-1.18-.8,3.56,3.56,0,0,1-.79-1.27,4.58,4.58,0,0,1-.29-1.71,4.88,4.88,0,0,1,.29-1.72,4,4,0,0,1,.79-1.29,3.38,3.38,0,0,1,1.11-.81,3.31,3.31,0,0,1,2.62,0,2.54,2.54,0,0,1,1,.74,3.4,3.4,0,0,1,.6,1.15,5,5,0,0,1,.21,1.5c0,.14,0,.28,0,.41a1.59,1.59,0,0,1,0,.34h-5.25a3.1,3.1,0,0,0,.78,2,2.42,2.42,0,0,0,1.82.73,3.13,3.13,0,0,0,1-.17,4.68,4.68,0,0,0,.9-.44l.47.86a6.36,6.36,0,0,1-1.14.56A4,4,0,0,1,338.37,87.18Zm-2.45-4.7h4.16a2.76,2.76,0,0,0-.51-1.8,1.71,1.71,0,0,0-1.41-.62,2.1,2.1,0,0,0-.79.16,2,2,0,0,0-.68.48,2.31,2.31,0,0,0-.51.76A3.39,3.39,0,0,0,335.92,82.48Z"/><path class="cls-5" d="M346.22,87.18a3.84,3.84,0,0,1-1.44-.27,3.19,3.19,0,0,1-1.16-.79,3.87,3.87,0,0,1-.77-1.28,5.13,5.13,0,0,1-.28-1.72,4.54,4.54,0,0,1,.31-1.74,3.89,3.89,0,0,1,.81-1.28,3.25,3.25,0,0,1,1.2-.8,3.65,3.65,0,0,1,1.43-.28,2.79,2.79,0,0,1,1.31.28,4.34,4.34,0,0,1,1,.64l-.67.86a3.67,3.67,0,0,0-.71-.5,2,2,0,0,0-.84-.19,2.14,2.14,0,0,0-1,.22,2.17,2.17,0,0,0-.77.61,3.12,3.12,0,0,0-.5,1,3.59,3.59,0,0,0-.19,1.22,3.91,3.91,0,0,0,.18,1.22,2.94,2.94,0,0,0,.49.93,2.14,2.14,0,0,0,.76.61,2.26,2.26,0,0,0,1,.22,2.08,2.08,0,0,0,1-.24,4,4,0,0,0,.83-.55l.57.88a4.18,4.18,0,0,1-1.17.73A3.37,3.37,0,0,1,346.22,87.18Z"/><path class="cls-5" d="M351.12,77.62a.92.92,0,0,1-.65-.24.79.79,0,0,1-.27-.61.78.78,0,0,1,.27-.62,1,1,0,0,1,1.29,0,.78.78,0,0,1,.27.62.79.79,0,0,1-.27.61A.91.91,0,0,1,351.12,77.62ZM350.44,87V79.22h1.32V87Z"/><path class="cls-5" d="M354.6,87v-6.7h-1.05v-1l1.05-.08V78a2.89,2.89,0,0,1,.56-1.88,2.06,2.06,0,0,1,1.72-.69,3.11,3.11,0,0,1,.69.07,4.27,4.27,0,0,1,.6.18l-.29,1a2.08,2.08,0,0,0-.88-.19q-1.08,0-1.08,1.5v1.24h1.64v1.07h-1.64V87Z"/><path class="cls-5" d="M359.72,77.62a.91.91,0,0,1-.64-.24.79.79,0,0,1-.27-.61.78.78,0,0,1,.27-.62,1,1,0,0,1,1.29,0,.78.78,0,0,1,.27.62.79.79,0,0,1-.27.61A.92.92,0,0,1,359.72,77.62ZM359.05,87V79.22h1.31V87Z"/><path class="cls-5" d="M366.06,87.18a3.84,3.84,0,0,1-1.44-.27,3.11,3.11,0,0,1-1.16-.79,3.71,3.71,0,0,1-.77-1.28,4.89,4.89,0,0,1-.28-1.72,4.54,4.54,0,0,1,.31-1.74,3.89,3.89,0,0,1,.81-1.28,3.29,3.29,0,0,1,1.19-.8,3.7,3.7,0,0,1,1.44-.28,2.81,2.81,0,0,1,1.31.28,4.34,4.34,0,0,1,1,.64l-.67.86a3.73,3.73,0,0,0-.72-.5,1.92,1.92,0,0,0-.84-.19,2.13,2.13,0,0,0-1,.22,2.17,2.17,0,0,0-.77.61,3.12,3.12,0,0,0-.5,1,3.59,3.59,0,0,0-.19,1.22,3.91,3.91,0,0,0,.18,1.22,2.75,2.75,0,0,0,.49.93,2.11,2.11,0,0,0,.75.61,2.31,2.31,0,0,0,1,.22,2.11,2.11,0,0,0,1-.24,4,4,0,0,0,.83-.55l.57.88a4.18,4.18,0,0,1-1.17.73A3.37,3.37,0,0,1,366.06,87.18Z"/><path class="cls-5" d="M376.56,87.18a3.77,3.77,0,0,1-1.44-.27,3.11,3.11,0,0,1-1.16-.79,3.56,3.56,0,0,1-.77-1.28,4.89,4.89,0,0,1-.28-1.72,4.74,4.74,0,0,1,.3-1.74A3.91,3.91,0,0,1,374,80.1a3.29,3.29,0,0,1,1.19-.8,3.65,3.65,0,0,1,1.43-.28,2.79,2.79,0,0,1,1.31.28,3.92,3.92,0,0,1,1,.64l-.67.86a3.39,3.39,0,0,0-.71-.5,1.92,1.92,0,0,0-.84-.19,2.17,2.17,0,0,0-1,.22,2.14,2.14,0,0,0-.76.61,2.94,2.94,0,0,0-.51,1,3.86,3.86,0,0,0-.18,1.22,4.23,4.23,0,0,0,.17,1.22,2.94,2.94,0,0,0,.49.93,2.14,2.14,0,0,0,.76.61,2.27,2.27,0,0,0,1,.22,2.14,2.14,0,0,0,1-.24,3.92,3.92,0,0,0,.82-.55l.58.88a4.18,4.18,0,0,1-1.17.73A3.44,3.44,0,0,1,376.56,87.18Z"/><path class="cls-5" d="M383.47,87.18a3.52,3.52,0,0,1-1.37-.27,3.3,3.3,0,0,1-1.14-.79,3.93,3.93,0,0,1-.8-1.28,4.88,4.88,0,0,1-.29-1.72,5,5,0,0,1,.29-1.74,4,4,0,0,1,.8-1.28,3.2,3.2,0,0,1,1.14-.8,3.36,3.36,0,0,1,1.37-.28,3.39,3.39,0,0,1,1.37.28,3.2,3.2,0,0,1,1.14.8,4,4,0,0,1,.79,1.28,4.74,4.74,0,0,1,.3,1.74,4.67,4.67,0,0,1-.3,1.72,3.91,3.91,0,0,1-.79,1.28,3.3,3.3,0,0,1-1.14.79A3.56,3.56,0,0,1,383.47,87.18Zm0-1.08a2,2,0,0,0,.91-.22,2,2,0,0,0,.71-.61,2.89,2.89,0,0,0,.46-.93,4.62,4.62,0,0,0,.16-1.22,4.56,4.56,0,0,0-.16-1.22,3.06,3.06,0,0,0-.46-1,2,2,0,0,0-.71-.61,1.88,1.88,0,0,0-.91-.22,1.86,1.86,0,0,0-.91.22,2.1,2.1,0,0,0-.72.61,3,3,0,0,0-.45,1,4.19,4.19,0,0,0-.16,1.22,4.24,4.24,0,0,0,.16,1.22,2.88,2.88,0,0,0,.45.93,2.1,2.1,0,0,0,.72.61A2,2,0,0,0,383.47,86.1Z"/><path class="cls-5" d="M389.12,87V79.22h1.08l.12,1.12h0a6.32,6.32,0,0,1,1.18-.94A2.7,2.7,0,0,1,393,79a2.1,2.1,0,0,1,1.8.77,3.78,3.78,0,0,1,.57,2.27V87H394V82.24a2.79,2.79,0,0,0-.35-1.59,1.29,1.29,0,0,0-1.12-.49,2,2,0,0,0-1.08.3,6.86,6.86,0,0,0-1.05.9V87Z"/><path class="cls-5" d="M400.32,87.18a2.5,2.5,0,0,1-1.05-.19,1.83,1.83,0,0,1-.69-.53,2,2,0,0,1-.38-.81,4.93,4.93,0,0,1-.11-1.06v-4.3h-1.15v-1l1.22-.08.16-2.18h1.1v2.18h2.1v1.07h-2.1v4.32a2,2,0,0,0,.26,1.11,1.06,1.06,0,0,0,.94.39,1.86,1.86,0,0,0,.45-.06,3.58,3.58,0,0,0,.43-.15l.26,1c-.22.07-.45.14-.7.2A3.81,3.81,0,0,1,400.32,87.18Z"/><path class="cls-5" d="M406.2,87.18a3.72,3.72,0,0,1-1.46-.28,3.3,3.3,0,0,1-1.18-.8,3.72,3.72,0,0,1-.8-1.27,4.79,4.79,0,0,1-.28-1.71,4.67,4.67,0,0,1,.29-1.72,4,4,0,0,1,.79-1.29,3.38,3.38,0,0,1,1.11-.81A3.22,3.22,0,0,1,406,79a3.27,3.27,0,0,1,1.32.26,2.58,2.58,0,0,1,1,.74,3.4,3.4,0,0,1,.6,1.15,5,5,0,0,1,.21,1.5c0,.14,0,.28,0,.41a2.66,2.66,0,0,1,0,.34h-5.25a3,3,0,0,0,.78,2,2.41,2.41,0,0,0,1.81.73,3.15,3.15,0,0,0,1-.17,4.68,4.68,0,0,0,.9-.44l.46.86a6.26,6.26,0,0,1-1.13.56A4,4,0,0,1,406.2,87.18Zm-2.44-4.7h4.16a2.76,2.76,0,0,0-.51-1.8,1.72,1.72,0,0,0-1.41-.62,2.15,2.15,0,0,0-.8.16,2.22,2.22,0,0,0-.68.48,2.45,2.45,0,0,0-.5.76A3.39,3.39,0,0,0,403.76,82.48Z"/><path class="cls-5" d="M411,87V79.22h1.09l.11,1.12h0a6.32,6.32,0,0,1,1.18-.94,2.7,2.7,0,0,1,1.43-.38,2.1,2.1,0,0,1,1.8.77,3.78,3.78,0,0,1,.57,2.27V87H415.9V82.24a2.79,2.79,0,0,0-.35-1.59,1.29,1.29,0,0,0-1.12-.49,2,2,0,0,0-1.08.3,7.38,7.38,0,0,0-1.05.9V87Z"/><path class="cls-5" d="M422.19,87.18a2.5,2.5,0,0,1-1.05-.19,1.83,1.83,0,0,1-.69-.53,1.89,1.89,0,0,1-.37-.81,4.35,4.35,0,0,1-.12-1.06v-4.3h-1.15v-1l1.22-.08.16-2.18h1.1v2.18h2.1v1.07h-2.1v4.32a1.94,1.94,0,0,0,.27,1.11,1,1,0,0,0,.93.39,1.86,1.86,0,0,0,.45-.06,3.58,3.58,0,0,0,.43-.15l.26,1c-.22.07-.45.14-.7.2A3.81,3.81,0,0,1,422.19,87.18Z"/><path class="cls-5" d="M59.69,111l-2.16-7.77h1.35L60,107.71c.09.37.17.74.24,1.09s.15.71.22,1.07h.07c.08-.36.17-.72.25-1.08s.18-.72.28-1.08l1.2-4.49h1.28l1.21,4.49c.1.37.19.74.28,1.09l.27,1.07h.06c.09-.36.17-.72.24-1.07s.16-.72.24-1.09L67,103.22h1.24L66.18,111H64.57l-1.12-4.17c-.09-.38-.18-.75-.26-1.11s-.17-.74-.26-1.13h-.07c-.08.39-.17.77-.25,1.14s-.18.74-.29,1.11L61.23,111Z"/><path class="cls-5" d="M70.62,101.62a1,1,0,0,1-.65-.24.82.82,0,0,1-.26-.61.81.81,0,0,1,.26-.62,1,1,0,0,1,.65-.23,1,1,0,0,1,.65.23.86.86,0,0,1,0,1.23A.93.93,0,0,1,70.62,101.62ZM70,111v-7.77h1.31V111Z"/><path class="cls-5" d="M76.33,111.18a2.48,2.48,0,0,1-1-.19,1.68,1.68,0,0,1-.69-.53,2,2,0,0,1-.38-.81,4.93,4.93,0,0,1-.11-1.06v-4.3H73v-1l1.21-.08.16-2.18h1.11v2.18h2.09v1.07H75.44v4.32a2,2,0,0,0,.26,1.11,1.06,1.06,0,0,0,.94.39,1.86,1.86,0,0,0,.45-.06,3.58,3.58,0,0,0,.43-.15l.25,1c-.21.07-.44.14-.69.2A3.82,3.82,0,0,1,76.33,111.18Z"/><path class="cls-5" d="M79.29,111V99.6h1.32v3.1l0,1.6a7,7,0,0,1,1.17-.9,2.64,2.64,0,0,1,1.42-.38,2.1,2.1,0,0,1,1.8.77,3.78,3.78,0,0,1,.57,2.27V111H84.21v-4.75a2.7,2.7,0,0,0-.36-1.59,1.26,1.26,0,0,0-1.12-.49,1.94,1.94,0,0,0-1.07.3,6.86,6.86,0,0,0-1,.9V111Z"/><path class="cls-5" d="M93,111.18a2.36,2.36,0,0,1-1.62-.57,2.05,2.05,0,0,1-.65-1.63,2.16,2.16,0,0,1,1.13-2,9.43,9.43,0,0,1,3.64-1,3.53,3.53,0,0,0-.08-.72,1.78,1.78,0,0,0-.24-.62,1.31,1.31,0,0,0-.49-.44,1.68,1.68,0,0,0-.79-.17,3.21,3.21,0,0,0-1.27.26,6.5,6.5,0,0,0-1.05.57l-.52-.91a9.61,9.61,0,0,1,1.33-.68,4.41,4.41,0,0,1,1.73-.33,2.35,2.35,0,0,1,2.06.88,3.8,3.8,0,0,1,.64,2.32V111H95.73l-.12-.93h0a7.16,7.16,0,0,1-1.2.8A3.11,3.11,0,0,1,93,111.18Zm.38-1.05a2.17,2.17,0,0,0,1.06-.27,5.28,5.28,0,0,0,1.06-.77v-2.16a11.93,11.93,0,0,0-1.64.3,4.51,4.51,0,0,0-1.08.42,1.66,1.66,0,0,0-.59.55,1.33,1.33,0,0,0-.18.68,1.09,1.09,0,0,0,.4,1A1.62,1.62,0,0,0,93.37,110.13Z"/><path class="cls-5" d="M101.92,111.18a2.92,2.92,0,0,1-2.35-1.05,4.63,4.63,0,0,1-.87-3,5,5,0,0,1,.28-1.7,4.06,4.06,0,0,1,.75-1.29,3.26,3.26,0,0,1,1.07-.82,3,3,0,0,1,1.28-.29,2.66,2.66,0,0,1,1.17.24,5.06,5.06,0,0,1,1,.66l-.06-1.33v-3h1.33V111h-1.09l-.11-.91h0a4.92,4.92,0,0,1-1.06.78A2.74,2.74,0,0,1,101.92,111.18Zm.29-1.1a2.15,2.15,0,0,0,1-.26,3.83,3.83,0,0,0,1-.81v-4.07a3.25,3.25,0,0,0-1-.63,2.53,2.53,0,0,0-.94-.18,1.86,1.86,0,0,0-.87.21,2.29,2.29,0,0,0-.71.61,3.2,3.2,0,0,0-.48.94,3.84,3.84,0,0,0-.18,1.21,3.79,3.79,0,0,0,.56,2.2A1.85,1.85,0,0,0,102.21,110.08Z"/><path class="cls-5" d="M109.82,111l-2.8-7.77h1.36l1.47,4.41.36,1.15q.2.59.36,1.14h.07c.12-.37.23-.75.35-1.14l.35-1.15,1.47-4.41h1.3L111.36,111Z"/><path class="cls-5" d="M117.09,111.18a2.38,2.38,0,0,1-1.63-.57,2.09,2.09,0,0,1-.65-1.63,2.15,2.15,0,0,1,1.14-2,9.42,9.42,0,0,1,3.63-1,3.51,3.51,0,0,0-.07-.72,1.8,1.8,0,0,0-.25-.62,1.31,1.31,0,0,0-.49-.44,1.65,1.65,0,0,0-.79-.17,3.12,3.12,0,0,0-1.26.26,6.21,6.21,0,0,0-1.06.57l-.51-.91a9.07,9.07,0,0,1,1.33-.68,4.41,4.41,0,0,1,1.73-.33,2.38,2.38,0,0,1,2.06.88,3.8,3.8,0,0,1,.64,2.32V111h-1.09l-.11-.93h0a6.43,6.43,0,0,1-1.2.8A3,3,0,0,1,117.09,111.18Zm.38-1.05a2.23,2.23,0,0,0,1.06-.27,5,5,0,0,0,1-.77v-2.16a11.93,11.93,0,0,0-1.64.3,4.41,4.41,0,0,0-1.07.42,1.58,1.58,0,0,0-.59.55,1.25,1.25,0,0,0-.19.68,1.11,1.11,0,0,0,.4,1A1.67,1.67,0,0,0,117.47,110.13Z"/><path class="cls-5" d="M123.36,111v-7.77h1.09l.11,1.12h0a6,6,0,0,1,1.17-.94,2.7,2.7,0,0,1,1.43-.38,2.08,2.08,0,0,1,1.8.77,3.78,3.78,0,0,1,.57,2.27V111h-1.31v-4.75a2.79,2.79,0,0,0-.35-1.59,1.29,1.29,0,0,0-1.12-.49,1.91,1.91,0,0,0-1.07.3,6.88,6.88,0,0,0-1.06.9V111Z"/><path class="cls-5" d="M135.18,111.18a3.84,3.84,0,0,1-1.44-.27,3.19,3.19,0,0,1-1.16-.79,3.87,3.87,0,0,1-.77-1.28,5.13,5.13,0,0,1-.28-1.72,4.73,4.73,0,0,1,.31-1.74,3.89,3.89,0,0,1,.81-1.28,3.33,3.33,0,0,1,1.2-.8,3.65,3.65,0,0,1,1.43-.28,2.79,2.79,0,0,1,1.31.28,4.34,4.34,0,0,1,1,.64l-.67.86a3.67,3.67,0,0,0-.71-.5,1.92,1.92,0,0,0-.84-.19,2.14,2.14,0,0,0-1,.22,2.26,2.26,0,0,0-.77.61,3.12,3.12,0,0,0-.5,1,3.86,3.86,0,0,0-.19,1.22,3.91,3.91,0,0,0,.18,1.22,2.94,2.94,0,0,0,.49.93,2.14,2.14,0,0,0,.76.61,2.26,2.26,0,0,0,1,.22,2.08,2.08,0,0,0,1-.24,3.63,3.63,0,0,0,.83-.55l.57.88a4.28,4.28,0,0,1-1.16.73A3.45,3.45,0,0,1,135.18,111.18Z"/><path class="cls-5" d="M142.22,111.18a3.72,3.72,0,0,1-1.46-.28,3.3,3.3,0,0,1-1.18-.8,3.72,3.72,0,0,1-.8-1.27,4.79,4.79,0,0,1-.28-1.71,4.67,4.67,0,0,1,.29-1.72,4,4,0,0,1,.79-1.29,3.38,3.38,0,0,1,1.11-.81A3.22,3.22,0,0,1,142,103a3.27,3.27,0,0,1,1.32.26,2.58,2.58,0,0,1,1,.74,3.4,3.4,0,0,1,.6,1.15,5,5,0,0,1,.21,1.5c0,.14,0,.28,0,.41a2.66,2.66,0,0,1,0,.34h-5.25a3,3,0,0,0,.78,2,2.41,2.41,0,0,0,1.81.73,3.15,3.15,0,0,0,1-.17,4.68,4.68,0,0,0,.9-.44l.46.86a6.26,6.26,0,0,1-1.13.56A4,4,0,0,1,142.22,111.18Zm-2.45-4.7h4.17a2.76,2.76,0,0,0-.51-1.8,1.72,1.72,0,0,0-1.41-.62,2.15,2.15,0,0,0-.8.16,2.22,2.22,0,0,0-.68.48,2.45,2.45,0,0,0-.5.76A3.71,3.71,0,0,0,139.77,106.48Z"/><path class="cls-5" d="M149.66,111.18a2.88,2.88,0,0,1-2.34-1.05,4.63,4.63,0,0,1-.87-3,4.77,4.77,0,0,1,.28-1.7,3.86,3.86,0,0,1,.74-1.29,3.37,3.37,0,0,1,1.07-.82,3,3,0,0,1,1.28-.29,2.66,2.66,0,0,1,1.17.24,5.12,5.12,0,0,1,1,.66l-.06-1.33v-3h1.32V111h-1.08l-.12-.91h0a5,5,0,0,1-1.07.78A2.74,2.74,0,0,1,149.66,111.18Zm.29-1.1a2.22,2.22,0,0,0,1-.26,4.22,4.22,0,0,0,1-.81v-4.07a3.28,3.28,0,0,0-1-.63,2.48,2.48,0,0,0-.93-.18,1.86,1.86,0,0,0-.87.21,2.32,2.32,0,0,0-.72.61,3.2,3.2,0,0,0-.48.94,4.16,4.16,0,0,0-.17,1.21,3.71,3.71,0,0,0,.56,2.2A1.83,1.83,0,0,0,150,110.08Z"/><path class="cls-5" d="M161.53,111.18a2.48,2.48,0,0,1-1-.19,1.75,1.75,0,0,1-.69-.53,2,2,0,0,1-.38-.81,4.93,4.93,0,0,1-.11-1.06v-4.3h-1.15v-1l1.21-.08.16-2.18h1.11v2.18h2.09v1.07h-2.09v4.32a2,2,0,0,0,.26,1.11,1.06,1.06,0,0,0,.94.39,1.86,1.86,0,0,0,.45-.06,3.58,3.58,0,0,0,.43-.15l.26,1c-.22.07-.45.14-.7.2A3.82,3.82,0,0,1,161.53,111.18Z"/><path class="cls-5" d="M167.42,111.18a3.72,3.72,0,0,1-1.46-.28,3.42,3.42,0,0,1-1.19-.8,3.7,3.7,0,0,1-.79-1.27,4.79,4.79,0,0,1-.29-1.71,4.67,4.67,0,0,1,.3-1.72,4.11,4.11,0,0,1,.78-1.29,3.53,3.53,0,0,1,1.12-.81,3.18,3.18,0,0,1,1.29-.28,3.27,3.27,0,0,1,1.32.26,2.58,2.58,0,0,1,1,.74,3.4,3.4,0,0,1,.6,1.15,5,5,0,0,1,.21,1.5c0,.14,0,.28,0,.41a2.66,2.66,0,0,1,0,.34H165a3,3,0,0,0,.78,2,2.41,2.41,0,0,0,1.81.73,3,3,0,0,0,1-.17,4.49,4.49,0,0,0,.91-.44l.46.86a6.26,6.26,0,0,1-1.13.56A4,4,0,0,1,167.42,111.18Zm-2.45-4.7h4.16a2.76,2.76,0,0,0-.5-1.8,1.74,1.74,0,0,0-1.42-.62,2.14,2.14,0,0,0-.79.16,2.11,2.11,0,0,0-.68.48,2.45,2.45,0,0,0-.5.76A3.39,3.39,0,0,0,165,106.48Z"/><path class="cls-5" d="M175.28,111.18a3.84,3.84,0,0,1-1.44-.27,3.11,3.11,0,0,1-1.16-.79,3.71,3.71,0,0,1-.77-1.28,4.89,4.89,0,0,1-.28-1.72,4.74,4.74,0,0,1,.3-1.74,4.08,4.08,0,0,1,.82-1.28,3.29,3.29,0,0,1,1.19-.8,3.68,3.68,0,0,1,1.43-.28,2.83,2.83,0,0,1,1.32.28,4.34,4.34,0,0,1,1,.64l-.68.86a3.39,3.39,0,0,0-.71-.5,1.92,1.92,0,0,0-.84-.19,2.1,2.1,0,0,0-1,.22,2.17,2.17,0,0,0-.77.61,3.14,3.14,0,0,0-.51,1,3.86,3.86,0,0,0-.18,1.22,3.91,3.91,0,0,0,.18,1.22,2.92,2.92,0,0,0,.48.93,2.23,2.23,0,0,0,.76.61,2.31,2.31,0,0,0,1,.22,2.11,2.11,0,0,0,1-.24,3.57,3.57,0,0,0,.82-.55l.58.88a4.18,4.18,0,0,1-1.17.73A3.4,3.4,0,0,1,175.28,111.18Z"/><path class="cls-5" d="M179.5,111V99.6h1.31v3.1l0,1.6a7.39,7.39,0,0,1,1.16-.9,2.68,2.68,0,0,1,1.43-.38,2.1,2.1,0,0,1,1.8.77,3.78,3.78,0,0,1,.57,2.27V111h-1.32v-4.75a2.71,2.71,0,0,0-.35-1.59,1.27,1.27,0,0,0-1.12-.49,1.94,1.94,0,0,0-1.07.3,7.38,7.38,0,0,0-1.06.9V111Z"/><path class="cls-5" d="M188.21,111v-7.77h1.08l.12,1.12h0a6.32,6.32,0,0,1,1.18-.94,2.7,2.7,0,0,1,1.43-.38,2.1,2.1,0,0,1,1.8.77,3.78,3.78,0,0,1,.57,2.27V111h-1.31v-4.75a2.79,2.79,0,0,0-.35-1.59,1.29,1.29,0,0,0-1.12-.49,2,2,0,0,0-1.08.3,6.86,6.86,0,0,0-1,.9V111Z"/><path class="cls-5" d="M200,111.18a3.56,3.56,0,0,1-1.37-.27,3.3,3.3,0,0,1-1.14-.79,3.91,3.91,0,0,1-.79-1.28,4.67,4.67,0,0,1-.3-1.72,4.74,4.74,0,0,1,.3-1.74,4,4,0,0,1,.79-1.28,3.2,3.2,0,0,1,1.14-.8A3.39,3.39,0,0,1,200,103a3.36,3.36,0,0,1,1.37.28,3.2,3.2,0,0,1,1.14.8,4,4,0,0,1,.8,1.28,5,5,0,0,1,.29,1.74,4.88,4.88,0,0,1-.29,1.72,3.93,3.93,0,0,1-.8,1.28,3.3,3.3,0,0,1-1.14.79A3.52,3.52,0,0,1,200,111.18Zm0-1.08a2,2,0,0,0,.91-.22,2.1,2.1,0,0,0,.72-.61,2.88,2.88,0,0,0,.45-.93,4.24,4.24,0,0,0,.16-1.22,4.19,4.19,0,0,0-.16-1.22,3,3,0,0,0-.45-1,2.1,2.1,0,0,0-.72-.61,1.86,1.86,0,0,0-.91-.22,1.88,1.88,0,0,0-.91.22,2.07,2.07,0,0,0-.71.61,3.06,3.06,0,0,0-.46,1,4.56,4.56,0,0,0-.16,1.22,4.62,4.62,0,0,0,.16,1.22,2.89,2.89,0,0,0,.46.93,2.07,2.07,0,0,0,.71.61A2,2,0,0,0,200,110.1Z"/><path class="cls-5" d="M207,111.18a1.24,1.24,0,0,1-1.07-.44,2.29,2.29,0,0,1-.32-1.32V99.6h1.31v9.92a.74.74,0,0,0,.11.45.36.36,0,0,0,.26.13h.12l.17,0,.17,1a1.07,1.07,0,0,1-.3.09A2.81,2.81,0,0,1,207,111.18Z"/><path class="cls-5" d="M212.73,111.18a3.47,3.47,0,0,1-1.36-.27,3.24,3.24,0,0,1-1.15-.79,3.91,3.91,0,0,1-.79-1.28,4.67,4.67,0,0,1-.3-1.72,4.74,4.74,0,0,1,.3-1.74,4,4,0,0,1,.79-1.28,3.15,3.15,0,0,1,1.15-.8,3.31,3.31,0,0,1,1.36-.28,3.36,3.36,0,0,1,1.37.28,3.23,3.23,0,0,1,1.15.8,4,4,0,0,1,.79,1.28,5,5,0,0,1,.29,1.74,4.88,4.88,0,0,1-.29,1.72,3.91,3.91,0,0,1-.79,1.28,3.33,3.33,0,0,1-1.15.79A3.52,3.52,0,0,1,212.73,111.18Zm0-1.08a2,2,0,0,0,.92-.22,2.16,2.16,0,0,0,.71-.61,2.69,2.69,0,0,0,.45-.93,4.24,4.24,0,0,0,.16-1.22,4.19,4.19,0,0,0-.16-1.22,2.84,2.84,0,0,0-.45-1,2.16,2.16,0,0,0-.71-.61,1.92,1.92,0,0,0-.92-.22,1.88,1.88,0,0,0-.91.22,2.07,2.07,0,0,0-.71.61,3.06,3.06,0,0,0-.46,1,4.56,4.56,0,0,0-.16,1.22,4.62,4.62,0,0,0,.16,1.22,2.89,2.89,0,0,0,.46.93,2.07,2.07,0,0,0,.71.61A2,2,0,0,0,212.73,110.1Z"/><path class="cls-5" d="M221,114.58a6,6,0,0,1-1.32-.14,3.19,3.19,0,0,1-1-.41,2.16,2.16,0,0,1-.66-.65,1.77,1.77,0,0,1-.23-.9,1.64,1.64,0,0,1,.3-.94,3.13,3.13,0,0,1,.84-.82v-.06a1.44,1.44,0,0,1-.49-.49,1.37,1.37,0,0,1-.2-.78,1.4,1.4,0,0,1,.27-.86,2.28,2.28,0,0,1,.58-.58v-.06a3.24,3.24,0,0,1-.7-.86,2.4,2.4,0,0,1-.31-1.24,2.69,2.69,0,0,1,.23-1.15,2.63,2.63,0,0,1,.63-.87,2.68,2.68,0,0,1,.94-.55A3.24,3.24,0,0,1,221,103a2.91,2.91,0,0,1,.6.06,3.29,3.29,0,0,1,.5.14h2.7v1h-1.6a2.14,2.14,0,0,1,.46.69,2.27,2.27,0,0,1,.18.91,2.71,2.71,0,0,1-.22,1.13,2.4,2.4,0,0,1-.61.85,2.8,2.8,0,0,1-.9.54,3.4,3.4,0,0,1-1.11.19,3.16,3.16,0,0,1-.6-.07,3.49,3.49,0,0,1-.57-.2,1.44,1.44,0,0,0-.35.39.9.9,0,0,0-.15.53.76.76,0,0,0,.29.61,1.76,1.76,0,0,0,1.09.24h1.5a3.82,3.82,0,0,1,2,.44,1.55,1.55,0,0,1,.68,1.42,2.11,2.11,0,0,1-.27,1,2.64,2.64,0,0,1-.78.86,4.31,4.31,0,0,1-1.24.58A6,6,0,0,1,221,114.58Zm.19-.92a3.53,3.53,0,0,0,1-.13,2.82,2.82,0,0,0,.78-.35,1.86,1.86,0,0,0,.5-.51,1.18,1.18,0,0,0,.17-.59.77.77,0,0,0-.4-.75,2.57,2.57,0,0,0-1.17-.21h-1.34l-.49,0a3.21,3.21,0,0,1-.52-.11,2.14,2.14,0,0,0-.61.64,1.45,1.45,0,0,0-.19.67,1.13,1.13,0,0,0,.6,1A3.22,3.22,0,0,0,221.2,113.66Zm-.19-6a1.69,1.69,0,0,0,.63-.13,1.75,1.75,0,0,0,.53-.37,1.78,1.78,0,0,0,.36-.58,2.37,2.37,0,0,0,.12-.78,1.78,1.78,0,0,0-.48-1.33,1.65,1.65,0,0,0-2.33,0,1.78,1.78,0,0,0-.48,1.33,2.13,2.13,0,0,0,.13.78,1.5,1.5,0,0,0,.36.58,1.56,1.56,0,0,0,1.16.5Z"/><path class="cls-5" d="M226.81,114.34a3.6,3.6,0,0,1-.49,0,2.58,2.58,0,0,1-.42-.12l.26-1,.29.07a1.54,1.54,0,0,0,.3,0,1.44,1.44,0,0,0,1.1-.47,3.46,3.46,0,0,0,.66-1.2l.18-.57-3.12-7.79h1.36l1.58,4.3c.12.34.24.7.38,1.08s.25.75.37,1.11h.07c.11-.35.23-.72.33-1.1s.21-.75.32-1.09l1.39-4.3h1.28l-2.92,8.41a8.83,8.83,0,0,1-.47,1.07,3.41,3.41,0,0,1-.61.86,2.66,2.66,0,0,1-.8.57A2.38,2.38,0,0,1,226.81,114.34Z"/><path class="cls-5" d="M239.15,111.18a2.36,2.36,0,0,1-1.62-.57,2.05,2.05,0,0,1-.65-1.63,2.16,2.16,0,0,1,1.13-2,9.43,9.43,0,0,1,3.64-1,3.53,3.53,0,0,0-.08-.72,1.78,1.78,0,0,0-.24-.62,1.31,1.31,0,0,0-.49-.44,1.68,1.68,0,0,0-.79-.17,3.21,3.21,0,0,0-1.27.26,6.1,6.1,0,0,0-1.05.57l-.52-.91a9.61,9.61,0,0,1,1.33-.68,4.41,4.41,0,0,1,1.73-.33,2.35,2.35,0,0,1,2.06.88,3.8,3.8,0,0,1,.64,2.32V111h-1.08l-.12-.93h0a7.16,7.16,0,0,1-1.2.8A3.11,3.11,0,0,1,239.15,111.18Zm.38-1.05a2.17,2.17,0,0,0,1.06-.27,5.28,5.28,0,0,0,1.06-.77v-2.16a11.65,11.65,0,0,0-1.64.3,4.51,4.51,0,0,0-1.08.42,1.58,1.58,0,0,0-.59.55,1.33,1.33,0,0,0-.18.68,1.09,1.09,0,0,0,.4,1A1.62,1.62,0,0,0,239.53,110.13Z"/><path class="cls-5" d="M245.42,111v-7.77h1.09l.11,1.12h0a6,6,0,0,1,1.18-.94,2.68,2.68,0,0,1,1.43-.38,2.1,2.1,0,0,1,1.8.77,3.78,3.78,0,0,1,.57,2.27V111h-1.32v-4.75a2.71,2.71,0,0,0-.35-1.59,1.27,1.27,0,0,0-1.12-.49,1.94,1.94,0,0,0-1.07.3,7.38,7.38,0,0,0-1.06.9V111Z"/><path class="cls-5" d="M256.83,111.18a2.88,2.88,0,0,1-2.34-1.05,4.58,4.58,0,0,1-.88-3,5,5,0,0,1,.28-1.7,4.06,4.06,0,0,1,.75-1.29,3.26,3.26,0,0,1,1.07-.82A3,3,0,0,1,257,103a2.66,2.66,0,0,1,1.17.24,5.42,5.42,0,0,1,1,.66l-.07-1.33v-3h1.33V111h-1.09l-.11-.91h-.05a4.92,4.92,0,0,1-1.06.78A2.74,2.74,0,0,1,256.83,111.18Zm.29-1.1a2.15,2.15,0,0,0,1-.26,3.83,3.83,0,0,0,1-.81v-4.07a3.25,3.25,0,0,0-1-.63,2.53,2.53,0,0,0-.94-.18,1.86,1.86,0,0,0-.87.21,2.29,2.29,0,0,0-.71.61,3.2,3.2,0,0,0-.48.94,3.84,3.84,0,0,0-.18,1.21,3.79,3.79,0,0,0,.56,2.2A1.86,1.86,0,0,0,257.12,110.08Z"/><path class="cls-5" d="M268.05,111.18a2.38,2.38,0,0,1-1.63-.57,2.09,2.09,0,0,1-.65-1.63,2.15,2.15,0,0,1,1.14-2,9.42,9.42,0,0,1,3.63-1,3.51,3.51,0,0,0-.07-.72,1.8,1.8,0,0,0-.25-.62,1.31,1.31,0,0,0-.49-.44,1.65,1.65,0,0,0-.79-.17,3.12,3.12,0,0,0-1.26.26,6.21,6.21,0,0,0-1.06.57l-.51-.91a9.07,9.07,0,0,1,1.33-.68,4.41,4.41,0,0,1,1.73-.33,2.38,2.38,0,0,1,2.06.88,3.8,3.8,0,0,1,.64,2.32V111h-1.09l-.11-.93h-.05a6.43,6.43,0,0,1-1.2.8A3,3,0,0,1,268.05,111.18Zm.38-1.05a2.23,2.23,0,0,0,1.06-.27,5,5,0,0,0,1.05-.77v-2.16a11.93,11.93,0,0,0-1.64.3,4.41,4.41,0,0,0-1.07.42,1.58,1.58,0,0,0-.59.55,1.25,1.25,0,0,0-.19.68,1.11,1.11,0,0,0,.4,1A1.67,1.67,0,0,0,268.43,110.13Z"/><path class="cls-5" d="M274.32,111v-7.77h1.09l.11,1.12h.05a6,6,0,0,1,1.17-.94,2.7,2.7,0,0,1,1.43-.38,2.08,2.08,0,0,1,1.8.77,3.78,3.78,0,0,1,.57,2.27V111h-1.31v-4.75a2.79,2.79,0,0,0-.35-1.59,1.29,1.29,0,0,0-1.12-.49,1.91,1.91,0,0,0-1.07.3,6.88,6.88,0,0,0-1.06.9V111Z"/><path class="cls-5" d="M284.86,111.18a2.36,2.36,0,0,1-1.62-.57,2.09,2.09,0,0,1-.65-1.63,2.15,2.15,0,0,1,1.14-2,9.31,9.31,0,0,1,3.63-1,4.39,4.39,0,0,0-.07-.72,1.8,1.8,0,0,0-.25-.62,1.31,1.31,0,0,0-.49-.44,1.68,1.68,0,0,0-.79-.17,3.21,3.21,0,0,0-1.27.26,6.5,6.5,0,0,0-1.05.57l-.51-.91a8.92,8.92,0,0,1,1.32-.68A4.44,4.44,0,0,1,286,103a2.39,2.39,0,0,1,2.07.88,3.87,3.87,0,0,1,.64,2.32V111H287.6l-.11-.93h-.05a7.16,7.16,0,0,1-1.2.8A3.11,3.11,0,0,1,284.86,111.18Zm.39-1.05a2.16,2.16,0,0,0,1.05-.27,5.28,5.28,0,0,0,1.06-.77v-2.16a11.93,11.93,0,0,0-1.64.3,4.41,4.41,0,0,0-1.07.42,1.62,1.62,0,0,0-.6.55,1.33,1.33,0,0,0-.18.68,1.09,1.09,0,0,0,.4,1A1.65,1.65,0,0,0,285.25,110.13Z"/><path class="cls-5" d="M292.53,111.18a1.26,1.26,0,0,1-1.08-.44,2.29,2.29,0,0,1-.32-1.32V99.6h1.32v9.92a.68.68,0,0,0,.11.45.34.34,0,0,0,.25.13h.13l.16,0,.18,1a1.32,1.32,0,0,1-.3.09A2.81,2.81,0,0,1,292.53,111.18Z"/><path class="cls-5" d="M295.34,114.34a3.6,3.6,0,0,1-.49,0,2.58,2.58,0,0,1-.42-.12l.26-1,.29.07a1.54,1.54,0,0,0,.3,0,1.4,1.4,0,0,0,1.09-.47,3.32,3.32,0,0,0,.67-1.2l.17-.57-3.11-7.79h1.35l1.59,4.3c.12.34.24.7.37,1.08s.26.75.38,1.11h.06c.12-.35.23-.72.34-1.1s.21-.75.32-1.09l1.39-4.3h1.28l-2.93,8.41a7.49,7.49,0,0,1-.46,1.07,3.41,3.41,0,0,1-.61.86,2.66,2.66,0,0,1-.8.57A2.41,2.41,0,0,1,295.34,114.34Z"/><path class="cls-5" d="M305.13,111.18a2.48,2.48,0,0,1-1-.19,1.68,1.68,0,0,1-.69-.53,2,2,0,0,1-.38-.81,4.93,4.93,0,0,1-.11-1.06v-4.3h-1.15v-1l1.21-.08.16-2.18h1.11v2.18h2.09v1.07h-2.09v4.32a2,2,0,0,0,.26,1.11,1.06,1.06,0,0,0,.94.39,1.86,1.86,0,0,0,.45-.06,3.58,3.58,0,0,0,.43-.15l.25,1c-.21.07-.44.14-.69.2A3.82,3.82,0,0,1,305.13,111.18Z"/><path class="cls-5" d="M308.77,101.62a.92.92,0,0,1-.65-.24.79.79,0,0,1-.27-.61.78.78,0,0,1,.27-.62,1,1,0,0,1,1.29,0,.78.78,0,0,1,.27.62.79.79,0,0,1-.27.61A.91.91,0,0,1,308.77,101.62Zm-.68,9.37v-7.77h1.32V111Z"/><path class="cls-5" d="M315.1,111.18a3.84,3.84,0,0,1-1.44-.27,3.19,3.19,0,0,1-1.16-.79,3.87,3.87,0,0,1-.77-1.28,5.13,5.13,0,0,1-.28-1.72,4.73,4.73,0,0,1,.31-1.74,3.89,3.89,0,0,1,.81-1.28,3.33,3.33,0,0,1,1.2-.8,3.65,3.65,0,0,1,1.43-.28,2.79,2.79,0,0,1,1.31.28,4.34,4.34,0,0,1,1,.64l-.67.86a3.67,3.67,0,0,0-.71-.5,1.92,1.92,0,0,0-.84-.19,2.14,2.14,0,0,0-1,.22,2.26,2.26,0,0,0-.77.61,3.12,3.12,0,0,0-.5,1,3.86,3.86,0,0,0-.19,1.22,3.91,3.91,0,0,0,.18,1.22,2.94,2.94,0,0,0,.49.93,2.14,2.14,0,0,0,.76.61,2.26,2.26,0,0,0,1,.22,2.08,2.08,0,0,0,1-.24,3.63,3.63,0,0,0,.83-.55l.57.88a4.28,4.28,0,0,1-1.16.73A3.45,3.45,0,0,1,315.1,111.18Z"/><path class="cls-5" d="M321.36,111.18a4.28,4.28,0,0,1-1.59-.3,5,5,0,0,1-1.31-.77l.66-.88a5,5,0,0,0,1.05.67,2.83,2.83,0,0,0,1.24.26,1.68,1.68,0,0,0,1.15-.35,1.15,1.15,0,0,0,.38-.87.85.85,0,0,0-.16-.52,1.57,1.57,0,0,0-.41-.4,2.68,2.68,0,0,0-.56-.29l-.64-.26a7.3,7.3,0,0,1-.84-.33,3.62,3.62,0,0,1-.74-.44,2.44,2.44,0,0,1-.54-.62,1.75,1.75,0,0,1-.2-.85,2.12,2.12,0,0,1,.18-.87,1.92,1.92,0,0,1,.53-.7,2.45,2.45,0,0,1,.84-.47,3.7,3.7,0,0,1,2.47.09,4.17,4.17,0,0,1,1.06.62l-.62.84a4,4,0,0,0-.83-.5,2.27,2.27,0,0,0-1-.19,1.52,1.52,0,0,0-1.08.33,1.12,1.12,0,0,0-.34.79.82.82,0,0,0,.14.47,1.48,1.48,0,0,0,.39.35,3.13,3.13,0,0,0,.55.27l.65.25.84.34a3,3,0,0,1,.76.44,2,2,0,0,1,.55.65,1.87,1.87,0,0,1,.22.92,2.11,2.11,0,0,1-.19.9,2.14,2.14,0,0,1-.54.74,2.6,2.6,0,0,1-.9.5A3.78,3.78,0,0,1,321.36,111.18Z"/><path class="cls-5" d="M331.68,111.18a2.5,2.5,0,0,1-1.05-.19,1.83,1.83,0,0,1-.69-.53,2,2,0,0,1-.37-.81,4.35,4.35,0,0,1-.12-1.06v-4.3H328.3v-1l1.22-.08.16-2.18h1.1v2.18h2.1v1.07h-2.1v4.32a1.94,1.94,0,0,0,.27,1.11,1,1,0,0,0,.93.39,1.86,1.86,0,0,0,.45-.06,3.58,3.58,0,0,0,.43-.15l.26,1c-.22.07-.45.14-.7.2A3.81,3.81,0,0,1,331.68,111.18Z"/><path class="cls-5" d="M337.44,111.18a3.52,3.52,0,0,1-1.37-.27,3.3,3.3,0,0,1-1.14-.79,3.75,3.75,0,0,1-.79-1.28,4.67,4.67,0,0,1-.3-1.72,4.74,4.74,0,0,1,.3-1.74,3.84,3.84,0,0,1,.79-1.28,3.2,3.2,0,0,1,1.14-.8,3.49,3.49,0,0,1,2.74,0,3.2,3.2,0,0,1,1.14.8,3.84,3.84,0,0,1,.79,1.28,4.74,4.74,0,0,1,.3,1.74,4.67,4.67,0,0,1-.3,1.72,3.75,3.75,0,0,1-.79,1.28,3.3,3.3,0,0,1-1.14.79A3.52,3.52,0,0,1,337.44,111.18Zm0-1.08a2,2,0,0,0,.91-.22,2,2,0,0,0,.71-.61,2.89,2.89,0,0,0,.46-.93,4.24,4.24,0,0,0,.16-1.22,4.19,4.19,0,0,0-.16-1.22,3.06,3.06,0,0,0-.46-1,2,2,0,0,0-.71-.61,1.88,1.88,0,0,0-.91-.22,1.86,1.86,0,0,0-.91.22,2.1,2.1,0,0,0-.72.61,3.28,3.28,0,0,0-.45,1,4.19,4.19,0,0,0-.16,1.22,4.24,4.24,0,0,0,.16,1.22,3.1,3.1,0,0,0,.45.93,2.1,2.1,0,0,0,.72.61A2,2,0,0,0,337.44,110.1Z"/><path class="cls-5" d="M348.08,111.18a2.36,2.36,0,0,1-1.62-.57,2.05,2.05,0,0,1-.65-1.63,2.16,2.16,0,0,1,1.13-2,9.42,9.42,0,0,1,3.63-1,3.51,3.51,0,0,0-.07-.72,1.78,1.78,0,0,0-.24-.62,1.31,1.31,0,0,0-.49-.44,1.68,1.68,0,0,0-.79-.17,3.21,3.21,0,0,0-1.27.26,6.61,6.61,0,0,0-1.06.57l-.51-.91a9.61,9.61,0,0,1,1.33-.68,4.41,4.41,0,0,1,1.73-.33,2.35,2.35,0,0,1,2.06.88,3.8,3.8,0,0,1,.64,2.32V111h-1.09l-.11-.93h-.05a6.7,6.7,0,0,1-1.19.8A3.11,3.11,0,0,1,348.08,111.18Zm.38-1.05a2.17,2.17,0,0,0,1.06-.27,5,5,0,0,0,1.05-.77v-2.16a11.76,11.76,0,0,0-1.63.3,4.51,4.51,0,0,0-1.08.42,1.58,1.58,0,0,0-.59.55,1.33,1.33,0,0,0-.18.68,1.09,1.09,0,0,0,.4,1A1.62,1.62,0,0,0,348.46,110.13Z"/><path class="cls-5" d="M356.38,111.18a4.23,4.23,0,0,1-1.58-.3,4.82,4.82,0,0,1-1.31-.77l.65-.88a5,5,0,0,0,1.05.67,2.86,2.86,0,0,0,1.24.26,1.66,1.66,0,0,0,1.15-.35,1.13,1.13,0,0,0,.39-.87.91.91,0,0,0-.16-.52,2,2,0,0,0-.41-.4,3,3,0,0,0-.57-.29l-.64-.26a7.16,7.16,0,0,1-.83-.33,3.44,3.44,0,0,1-.75-.44,2.6,2.6,0,0,1-.53-.62,1.65,1.65,0,0,1-.21-.85,2.12,2.12,0,0,1,.18-.87,2,2,0,0,1,.53-.7,2.45,2.45,0,0,1,.84-.47,3.73,3.73,0,0,1,2.48.09,4.35,4.35,0,0,1,1.06.62l-.63.84a3.74,3.74,0,0,0-.83-.5,2.26,2.26,0,0,0-.94-.19,1.52,1.52,0,0,0-1.08.33,1.09,1.09,0,0,0-.35.79.75.75,0,0,0,.15.47,1.29,1.29,0,0,0,.38.35,3.52,3.52,0,0,0,.55.27l.65.25.84.34a2.85,2.85,0,0,1,.76.44,1.93,1.93,0,0,1,.55.65,1.77,1.77,0,0,1,.22.92,2.26,2.26,0,0,1-.18.9,2.31,2.31,0,0,1-.55.74,2.65,2.65,0,0,1-.89.5A3.88,3.88,0,0,1,356.38,111.18Z"/><path class="cls-5" d="M363.09,111.18a4.24,4.24,0,0,1-1.59-.3,4.82,4.82,0,0,1-1.31-.77l.66-.88a5,5,0,0,0,1,.67,2.82,2.82,0,0,0,1.23.26,1.69,1.69,0,0,0,1.16-.35,1.15,1.15,0,0,0,.38-.87.85.85,0,0,0-.16-.52,1.74,1.74,0,0,0-.41-.4,2.53,2.53,0,0,0-.57-.29l-.63-.26a7.3,7.3,0,0,1-.84-.33,3.62,3.62,0,0,1-.74-.44,2.44,2.44,0,0,1-.54-.62,1.65,1.65,0,0,1-.21-.85,2.13,2.13,0,0,1,.19-.87,1.92,1.92,0,0,1,.53-.7,2.45,2.45,0,0,1,.84-.47,3.7,3.7,0,0,1,2.47.09,4.35,4.35,0,0,1,1.06.62l-.62.84a4.26,4.26,0,0,0-.83-.5,2.3,2.3,0,0,0-.95-.19,1.52,1.52,0,0,0-1.08.33,1.08,1.08,0,0,0-.34.79.82.82,0,0,0,.14.47,1.48,1.48,0,0,0,.39.35,3.13,3.13,0,0,0,.55.27l.65.25.84.34a3,3,0,0,1,.76.44,2.19,2.19,0,0,1,.55.65,1.87,1.87,0,0,1,.22.92,2.27,2.27,0,0,1-.19.9,2.14,2.14,0,0,1-.54.74,2.6,2.6,0,0,1-.9.5A3.82,3.82,0,0,1,363.09,111.18Z"/><path class="cls-5" d="M368.43,101.62a.93.93,0,0,1-.65-.24.82.82,0,0,1-.26-.61.81.81,0,0,1,.26-.62,1,1,0,0,1,1.3,0,.81.81,0,0,1,.26.62.82.82,0,0,1-.26.61A.93.93,0,0,1,368.43,101.62Zm-.67,9.37v-7.77h1.31V111Z"/><path class="cls-5" d="M373.73,111.18a4.24,4.24,0,0,1-1.59-.3,4.82,4.82,0,0,1-1.31-.77l.66-.88a5.23,5.23,0,0,0,1,.67,2.89,2.89,0,0,0,1.24.26,1.69,1.69,0,0,0,1.16-.35,1.15,1.15,0,0,0,.38-.87.85.85,0,0,0-.16-.52,1.74,1.74,0,0,0-.41-.4,2.53,2.53,0,0,0-.57-.29l-.64-.26a8,8,0,0,1-.83-.33,3.62,3.62,0,0,1-.74-.44,2.44,2.44,0,0,1-.54-.62,1.65,1.65,0,0,1-.21-.85,2.13,2.13,0,0,1,.19-.87,1.92,1.92,0,0,1,.53-.7,2.45,2.45,0,0,1,.84-.47,3.7,3.7,0,0,1,2.47.09,4.35,4.35,0,0,1,1.06.62l-.62.84a4.26,4.26,0,0,0-.83-.5,2.3,2.3,0,0,0-1-.19,1.52,1.52,0,0,0-1.08.33,1.08,1.08,0,0,0-.34.79.82.82,0,0,0,.14.47,1.48,1.48,0,0,0,.39.35,3.13,3.13,0,0,0,.55.27l.65.25.84.34a3,3,0,0,1,.76.44,2.19,2.19,0,0,1,.55.65,1.87,1.87,0,0,1,.21.92,2.26,2.26,0,0,1-.18.9,2.14,2.14,0,0,1-.54.74,2.6,2.6,0,0,1-.9.5A3.82,3.82,0,0,1,373.73,111.18Z"/><path class="cls-5" d="M380.53,111.18a2.5,2.5,0,0,1-1-.19,1.83,1.83,0,0,1-.69-.53,2,2,0,0,1-.38-.81,4.93,4.93,0,0,1-.11-1.06v-4.3h-1.15v-1l1.22-.08.16-2.18h1.1v2.18h2.1v1.07h-2.1v4.32a2,2,0,0,0,.26,1.11,1.06,1.06,0,0,0,.94.39,1.86,1.86,0,0,0,.45-.06,3.58,3.58,0,0,0,.43-.15l.26,1c-.22.07-.45.14-.7.2A3.81,3.81,0,0,1,380.53,111.18Z"/><path class="cls-5" d="M389.13,111.18a2.48,2.48,0,0,1-1-.19,1.68,1.68,0,0,1-.69-.53,2,2,0,0,1-.38-.81,4.93,4.93,0,0,1-.11-1.06v-4.3h-1.15v-1l1.21-.08.16-2.18h1.11v2.18h2.09v1.07h-2.09v4.32a2,2,0,0,0,.26,1.11,1.06,1.06,0,0,0,.94.39,1.86,1.86,0,0,0,.45-.06,3.58,3.58,0,0,0,.43-.15l.25,1c-.21.07-.44.14-.69.2A3.82,3.82,0,0,1,389.13,111.18Z"/><path class="cls-5" d="M392.09,111V99.6h1.32v3.1l-.05,1.6a7,7,0,0,1,1.17-.9A2.64,2.64,0,0,1,396,103a2.1,2.1,0,0,1,1.8.77,3.78,3.78,0,0,1,.57,2.27V111H397v-4.75a2.7,2.7,0,0,0-.36-1.59,1.26,1.26,0,0,0-1.12-.49,1.94,1.94,0,0,0-1.07.3,6.86,6.86,0,0,0-1,.9V111Z"/><path class="cls-5" d="M404,111.18a3.72,3.72,0,0,1-1.46-.28,3.33,3.33,0,0,1-1.19-.8,3.7,3.7,0,0,1-.79-1.27,4.79,4.79,0,0,1-.29-1.71,4.67,4.67,0,0,1,.3-1.72,4.11,4.11,0,0,1,.78-1.29,3.6,3.6,0,0,1,1.11-.81,3.31,3.31,0,0,1,2.62,0,2.58,2.58,0,0,1,1,.74,3.4,3.4,0,0,1,.6,1.15,5,5,0,0,1,.2,1.5v.41a2.66,2.66,0,0,1,0,.34h-5.25a3,3,0,0,0,.77,2,2.43,2.43,0,0,0,1.82.73,3.09,3.09,0,0,0,1-.17,4.49,4.49,0,0,0,.91-.44l.46.86a6,6,0,0,1-1.14.56A3.91,3.91,0,0,1,404,111.18Zm-2.45-4.7h4.16a2.82,2.82,0,0,0-.5-1.8,1.74,1.74,0,0,0-1.42-.62,2.14,2.14,0,0,0-.79.16,2.11,2.11,0,0,0-.68.48,2.45,2.45,0,0,0-.5.76A3.39,3.39,0,0,0,401.5,106.48Z"/><path class="cls-5" d="M408.73,111v-7.77h1.09l.11,1.12H410a5.13,5.13,0,0,1,1.11-.94,2.44,2.44,0,0,1,1.31-.38,2.18,2.18,0,0,1,1.4.4,2.28,2.28,0,0,1,.74,1.09,6.61,6.61,0,0,1,1.23-1.08,2.37,2.37,0,0,1,1.33-.41,2.12,2.12,0,0,1,1.79.77,3.71,3.71,0,0,1,.58,2.27V111h-1.31v-4.75a2.79,2.79,0,0,0-.35-1.59,1.25,1.25,0,0,0-1.09-.49,2.87,2.87,0,0,0-2,1.2V111h-1.32v-4.75a2.71,2.71,0,0,0-.35-1.59,1.25,1.25,0,0,0-1.1-.49,2.87,2.87,0,0,0-1.95,1.2V111Z"/><path class="cls-5" d="M59.14,125.62a.92.92,0,0,1-.65-.24.79.79,0,0,1-.27-.61.78.78,0,0,1,.27-.62,1,1,0,0,1,1.29,0,.78.78,0,0,1,.27.62.79.79,0,0,1-.27.61A.91.91,0,0,1,59.14,125.62ZM58.46,135v-7.77h1.31V135Z"/><path class="cls-5" d="M62.4,135v-7.77h1.09l.11,1.12h0a6,6,0,0,1,1.17-.94,2.7,2.7,0,0,1,1.43-.38,2.08,2.08,0,0,1,1.8.77,3.78,3.78,0,0,1,.57,2.27V135H67.31v-4.75a2.79,2.79,0,0,0-.35-1.59,1.29,1.29,0,0,0-1.12-.49,1.91,1.91,0,0,0-1.07.3,6.88,6.88,0,0,0-1.06.9V135Z"/><path class="cls-5" d="M77.5,135.18A3.72,3.72,0,0,1,76,134.9a3.42,3.42,0,0,1-1.19-.8,3.7,3.7,0,0,1-.79-1.27,4.79,4.79,0,0,1-.29-1.71,4.67,4.67,0,0,1,.3-1.72,4.11,4.11,0,0,1,.78-1.29A3.53,3.53,0,0,1,76,127.3a3.18,3.18,0,0,1,1.29-.28,3.27,3.27,0,0,1,1.32.26,2.58,2.58,0,0,1,1,.74,3.4,3.4,0,0,1,.6,1.15,5,5,0,0,1,.21,1.5c0,.14,0,.28,0,.41a2.66,2.66,0,0,1,0,.34H75.07a3,3,0,0,0,.78,2,2.41,2.41,0,0,0,1.81.73,3,3,0,0,0,1-.17,4.49,4.49,0,0,0,.91-.44l.46.86a6.26,6.26,0,0,1-1.13.56A4,4,0,0,1,77.5,135.18Zm-2.45-4.7h4.16a2.76,2.76,0,0,0-.5-1.8,1.74,1.74,0,0,0-1.42-.62,2.14,2.14,0,0,0-.79.16,2.11,2.11,0,0,0-.68.48,2.45,2.45,0,0,0-.5.76A3.71,3.71,0,0,0,75.05,130.48Z"/><path class="cls-5" d="M84.05,135l-2.8-7.77h1.36l1.47,4.41.36,1.15.36,1.14h.06c.12-.37.24-.75.35-1.14l.36-1.15L87,127.22h1.29L85.58,135Z"/><path class="cls-5" d="M91.31,135.18a2.36,2.36,0,0,1-1.62-.57A2.05,2.05,0,0,1,89,133a2.16,2.16,0,0,1,1.13-2,9.43,9.43,0,0,1,3.64-1,3.53,3.53,0,0,0-.08-.72,1.78,1.78,0,0,0-.24-.62,1.31,1.31,0,0,0-.49-.44,1.68,1.68,0,0,0-.79-.17,3.21,3.21,0,0,0-1.27.26,6.1,6.1,0,0,0-1,.57l-.52-.91a9.61,9.61,0,0,1,1.33-.68,4.41,4.41,0,0,1,1.73-.33,2.35,2.35,0,0,1,2.06.88,3.8,3.8,0,0,1,.64,2.32V135H94.05l-.12-.93h0a7.16,7.16,0,0,1-1.2.8A3.11,3.11,0,0,1,91.31,135.18Zm.38-1.05a2.17,2.17,0,0,0,1.06-.27,5.28,5.28,0,0,0,1.06-.77v-2.16a11.65,11.65,0,0,0-1.64.3,4.51,4.51,0,0,0-1.08.42,1.58,1.58,0,0,0-.59.55,1.33,1.33,0,0,0-.18.68,1.09,1.09,0,0,0,.4,1A1.62,1.62,0,0,0,91.69,134.13Z"/><path class="cls-5" d="M99,135.18a1.24,1.24,0,0,1-1.07-.44,2.29,2.29,0,0,1-.32-1.32V123.6h1.31v9.92A.67.67,0,0,0,99,134a.34.34,0,0,0,.25.13h.12l.17,0,.18,1a1.26,1.26,0,0,1-.31.09A2.81,2.81,0,0,1,99,135.18Z"/><path class="cls-5" d="M103.93,135.18a2.1,2.1,0,0,1-1.81-.76,3.81,3.81,0,0,1-.57-2.28v-4.92h1.33V132a2.85,2.85,0,0,0,.34,1.59,1.28,1.28,0,0,0,1.11.49,1.9,1.9,0,0,0,1.07-.31,5.23,5.23,0,0,0,1-1v-5.52h1.31V135h-1.09l-.11-1.21h-.05a5.37,5.37,0,0,1-1.14,1A2.53,2.53,0,0,1,103.93,135.18Z"/><path class="cls-5" d="M112.16,135.18a2.4,2.4,0,0,1-1.63-.57,2.08,2.08,0,0,1-.64-1.63,2.14,2.14,0,0,1,1.13-2,9.42,9.42,0,0,1,3.63-1,3.51,3.51,0,0,0-.07-.72,1.8,1.8,0,0,0-.25-.62,1.28,1.28,0,0,0-.48-.44,1.72,1.72,0,0,0-.8-.17,3.12,3.12,0,0,0-1.26.26,6.21,6.21,0,0,0-1.06.57l-.51-.91a9.07,9.07,0,0,1,1.33-.68,4.41,4.41,0,0,1,1.73-.33,2.37,2.37,0,0,1,2.06.88,3.8,3.8,0,0,1,.64,2.32V135h-1.09l-.11-.93h0a6.43,6.43,0,0,1-1.2.8A3,3,0,0,1,112.16,135.18Zm.38-1.05a2.2,2.2,0,0,0,1.06-.27,5,5,0,0,0,1.05-.77v-2.16a12.22,12.22,0,0,0-1.64.3,4.41,4.41,0,0,0-1.07.42,1.58,1.58,0,0,0-.59.55,1.33,1.33,0,0,0-.18.68,1.11,1.11,0,0,0,.39,1A1.67,1.67,0,0,0,112.54,134.13Z"/><path class="cls-5" d="M120.65,135.18a2.56,2.56,0,0,1-1.05-.19,1.72,1.72,0,0,1-.68-.53,2,2,0,0,1-.38-.81,4.93,4.93,0,0,1-.11-1.06v-4.3h-1.15v-1l1.21-.08.16-2.18h1.11v2.18h2.09v1.07h-2.09v4.32a2,2,0,0,0,.26,1.11,1.06,1.06,0,0,0,.94.39,1.78,1.78,0,0,0,.44-.06,3.76,3.76,0,0,0,.44-.15l.25,1c-.21.07-.44.14-.69.2A3.82,3.82,0,0,1,120.65,135.18Z"/><path class="cls-5" d="M124.29,125.62a.92.92,0,0,1-.65-.24.79.79,0,0,1-.27-.61.78.78,0,0,1,.27-.62,1,1,0,0,1,1.29,0,.78.78,0,0,1,.27.62.79.79,0,0,1-.27.61A.91.91,0,0,1,124.29,125.62Zm-.68,9.37v-7.77h1.32V135Z"/><path class="cls-5" d="M127.55,135v-7.77h1.09l.11,1.12h.05a6,6,0,0,1,1.17-.94,2.7,2.7,0,0,1,1.43-.38,2.08,2.08,0,0,1,1.8.77,3.78,3.78,0,0,1,.57,2.27V135h-1.31v-4.75a2.79,2.79,0,0,0-.35-1.59,1.29,1.29,0,0,0-1.12-.49,1.91,1.91,0,0,0-1.07.3,7.38,7.38,0,0,0-1.06.9V135Z"/><path class="cls-5" d="M138.92,138.58a5.91,5.91,0,0,1-1.31-.14,3.19,3.19,0,0,1-1-.41,2.05,2.05,0,0,1-.66-.65,1.77,1.77,0,0,1-.23-.9,1.64,1.64,0,0,1,.3-.94,3.13,3.13,0,0,1,.84-.82v-.06a1.44,1.44,0,0,1-.49-.49,1.37,1.37,0,0,1-.2-.78,1.4,1.4,0,0,1,.27-.86A2.42,2.42,0,0,1,137,132v-.06a3.42,3.42,0,0,1-.69-.86,2.4,2.4,0,0,1-.31-1.24,2.69,2.69,0,0,1,.23-1.15,2.5,2.5,0,0,1,.63-.87,2.68,2.68,0,0,1,.94-.55,3.22,3.22,0,0,1,1.12-.2,2.77,2.77,0,0,1,.6.06,3.12,3.12,0,0,1,.51.14h2.7v1h-1.6a2.31,2.31,0,0,1,.46.69,2.27,2.27,0,0,1,.18.91,2.71,2.71,0,0,1-.22,1.13,2.4,2.4,0,0,1-.61.85,2.8,2.8,0,0,1-.9.54,3.42,3.42,0,0,1-1.12.19,3.15,3.15,0,0,1-.59-.07,3.49,3.49,0,0,1-.57-.2,1.67,1.67,0,0,0-.36.39,1,1,0,0,0-.14.53.76.76,0,0,0,.29.61,1.76,1.76,0,0,0,1.09.24h1.5a3.82,3.82,0,0,1,2,.44,1.57,1.57,0,0,1,.68,1.42,2.11,2.11,0,0,1-.27,1,2.64,2.64,0,0,1-.78.86,4.25,4.25,0,0,1-1.25.58A5.86,5.86,0,0,1,138.92,138.58Zm.2-.92a3.53,3.53,0,0,0,1-.13,3,3,0,0,0,.78-.35,1.69,1.69,0,0,0,.49-.51,1.1,1.1,0,0,0,.18-.59.77.77,0,0,0-.4-.75,2.6,2.6,0,0,0-1.17-.21h-1.34l-.49,0a3,3,0,0,1-.52-.11,2.14,2.14,0,0,0-.61.64,1.34,1.34,0,0,0-.19.67,1.13,1.13,0,0,0,.6,1A3.22,3.22,0,0,0,139.12,137.66Zm-.2-6a1.56,1.56,0,0,0,1.16-.5,1.5,1.5,0,0,0,.36-.58,2.13,2.13,0,0,0,.13-.78,1.78,1.78,0,0,0-.48-1.33,1.65,1.65,0,0,0-2.33,0,1.78,1.78,0,0,0-.48,1.33,2.37,2.37,0,0,0,.12.78,1.65,1.65,0,0,0,.37.58,1.71,1.71,0,0,0,.52.37A1.69,1.69,0,0,0,138.92,131.65Z"/><path class="cls-5" d="M149.36,135.18a2.4,2.4,0,0,1-1.63-.57,2.08,2.08,0,0,1-.64-1.63,2.14,2.14,0,0,1,1.13-2,9.42,9.42,0,0,1,3.63-1,3.51,3.51,0,0,0-.07-.72,1.8,1.8,0,0,0-.25-.62,1.28,1.28,0,0,0-.48-.44,1.72,1.72,0,0,0-.8-.17,3.16,3.16,0,0,0-1.26.26,6.21,6.21,0,0,0-1.06.57l-.51-.91a9.07,9.07,0,0,1,1.33-.68,4.41,4.41,0,0,1,1.73-.33,2.37,2.37,0,0,1,2.06.88,3.8,3.8,0,0,1,.64,2.32V135h-1.09l-.11-.93h0a6.43,6.43,0,0,1-1.2.8A3,3,0,0,1,149.36,135.18Zm.38-1.05a2.2,2.2,0,0,0,1.06-.27,5,5,0,0,0,1-.77v-2.16a12.22,12.22,0,0,0-1.64.3,4.41,4.41,0,0,0-1.07.42,1.58,1.58,0,0,0-.59.55,1.33,1.33,0,0,0-.18.68,1.09,1.09,0,0,0,.4,1A1.62,1.62,0,0,0,149.74,134.13Z"/><path class="cls-5" d="M155.63,135v-7.77h1.09l.11,1.12h0a6,6,0,0,1,1.17-.94,2.7,2.7,0,0,1,1.43-.38,2.08,2.08,0,0,1,1.8.77,3.78,3.78,0,0,1,.57,2.27V135h-1.31v-4.75a2.79,2.79,0,0,0-.35-1.59,1.29,1.29,0,0,0-1.12-.49,1.91,1.91,0,0,0-1.07.3,7.38,7.38,0,0,0-1.06.9V135Z"/><path class="cls-5" d="M167,135.18a2.9,2.9,0,0,1-2.35-1.05,4.63,4.63,0,0,1-.87-3,4.77,4.77,0,0,1,.28-1.7,4.06,4.06,0,0,1,.75-1.29,3.16,3.16,0,0,1,1.07-.82,3,3,0,0,1,1.28-.29,2.61,2.61,0,0,1,1.16.24,4.84,4.84,0,0,1,1,.66l-.06-1.33v-3h1.33V135h-1.09l-.11-.91h-.05a4.75,4.75,0,0,1-1.07.78A2.67,2.67,0,0,1,167,135.18Zm.28-1.1a2.16,2.16,0,0,0,1-.26,3.83,3.83,0,0,0,1-.81v-4.07a3.25,3.25,0,0,0-.95-.63,2.57,2.57,0,0,0-.94-.18,1.86,1.86,0,0,0-.87.21,2.29,2.29,0,0,0-.71.61,2.78,2.78,0,0,0-.48.94,3.84,3.84,0,0,0-.18,1.21,3.79,3.79,0,0,0,.56,2.2A1.83,1.83,0,0,0,167.32,134.08Z"/><path class="cls-5" d="M176.46,138.27V127.22h1.09l.11.89h.05a6.15,6.15,0,0,1,1.16-.77,2.92,2.92,0,0,1,1.32-.32,3.13,3.13,0,0,1,1.33.28,2.75,2.75,0,0,1,1,.8,3.9,3.9,0,0,1,.58,1.25,6.35,6.35,0,0,1,.2,1.64,5.39,5.39,0,0,1-.27,1.77,4,4,0,0,1-.74,1.32,3,3,0,0,1-1.07.82,3,3,0,0,1-1.28.28,2.64,2.64,0,0,1-1.08-.24,5.16,5.16,0,0,1-1.08-.65l0,1.36v2.62Zm3.22-4.19a1.77,1.77,0,0,0,.88-.22,2,2,0,0,0,.71-.6,3,3,0,0,0,.46-1,4.4,4.4,0,0,0,.17-1.3,6.12,6.12,0,0,0-.11-1.17,2.83,2.83,0,0,0-.36-.9,1.69,1.69,0,0,0-.64-.58,2,2,0,0,0-.94-.21,2.12,2.12,0,0,0-1,.27,6.23,6.23,0,0,0-1.08.78v4.08a3.67,3.67,0,0,0,1,.64A2.6,2.6,0,0,0,179.68,134.08Z"/><path class="cls-5" d="M185.34,135v-7.77h1.09l.11,1.4h.05a3.4,3.4,0,0,1,1-1.16,2,2,0,0,1,1.24-.44,2.19,2.19,0,0,1,.83.16l-.26,1.16a1.89,1.89,0,0,0-.35-.1,2.25,2.25,0,0,0-.4,0,1.72,1.72,0,0,0-1,.4,3.15,3.15,0,0,0-.94,1.39v5Z"/><path class="cls-5" d="M193.88,135.18a3.72,3.72,0,0,1-1.46-.28,3.3,3.3,0,0,1-1.18-.8,3.72,3.72,0,0,1-.8-1.27,4.79,4.79,0,0,1-.28-1.71,4.88,4.88,0,0,1,.29-1.72,4,4,0,0,1,.79-1.29,3.38,3.38,0,0,1,1.11-.81,3.29,3.29,0,0,1,2.61,0,2.58,2.58,0,0,1,1,.74,3.4,3.4,0,0,1,.6,1.15,5,5,0,0,1,.21,1.5c0,.14,0,.28,0,.41a2.66,2.66,0,0,1,0,.34h-5.25a3,3,0,0,0,.78,2,2.41,2.41,0,0,0,1.81.73,3.15,3.15,0,0,0,1-.17,4.68,4.68,0,0,0,.9-.44l.46.86a6.26,6.26,0,0,1-1.13.56A4,4,0,0,1,193.88,135.18Zm-2.44-4.7h4.16a2.76,2.76,0,0,0-.51-1.8,1.72,1.72,0,0,0-1.41-.62,2.19,2.19,0,0,0-.8.16,2.22,2.22,0,0,0-.68.48,2.45,2.45,0,0,0-.5.76A3.39,3.39,0,0,0,191.44,130.48Z"/><path class="cls-5" d="M201.32,135.18a2.88,2.88,0,0,1-2.34-1.05,4.63,4.63,0,0,1-.87-3,4.77,4.77,0,0,1,.28-1.7,3.86,3.86,0,0,1,.74-1.29,3.37,3.37,0,0,1,1.07-.82,3,3,0,0,1,1.28-.29,2.66,2.66,0,0,1,1.17.24,5.12,5.12,0,0,1,1,.66l-.06-1.33v-3h1.32V135h-1.08l-.12-.91h0a5,5,0,0,1-1.07.78A2.74,2.74,0,0,1,201.32,135.18Zm.29-1.1a2.19,2.19,0,0,0,1-.26,3.83,3.83,0,0,0,1-.81v-4.07a3.16,3.16,0,0,0-1-.63,2.48,2.48,0,0,0-.93-.18,1.86,1.86,0,0,0-.87.21,2.32,2.32,0,0,0-.72.61,3.2,3.2,0,0,0-.48.94,4.16,4.16,0,0,0-.17,1.21,3.71,3.71,0,0,0,.56,2.2A1.83,1.83,0,0,0,201.61,134.08Z"/><path class="cls-5" d="M208.22,125.62a.93.93,0,0,1-.65-.24.82.82,0,0,1-.26-.61.81.81,0,0,1,.26-.62,1,1,0,0,1,1.3,0,.81.81,0,0,1,.26.62.82.82,0,0,1-.26.61A.93.93,0,0,1,208.22,125.62Zm-.67,9.37v-7.77h1.31V135Z"/><path class="cls-5" d="M214.56,135.18a3.77,3.77,0,0,1-1.44-.27,3.11,3.11,0,0,1-1.16-.79,3.56,3.56,0,0,1-.77-1.28,4.89,4.89,0,0,1-.28-1.72,4.74,4.74,0,0,1,.3-1.74,3.91,3.91,0,0,1,.82-1.28,3.29,3.29,0,0,1,1.19-.8,3.65,3.65,0,0,1,1.43-.28,2.79,2.79,0,0,1,1.31.28,3.92,3.92,0,0,1,1,.64l-.67.86a3.39,3.39,0,0,0-.71-.5,1.92,1.92,0,0,0-.84-.19,2.17,2.17,0,0,0-1,.22,2.14,2.14,0,0,0-.76.61,2.94,2.94,0,0,0-.51,1,3.86,3.86,0,0,0-.18,1.22,4.23,4.23,0,0,0,.17,1.22,2.94,2.94,0,0,0,.49.93,2.14,2.14,0,0,0,.76.61,2.27,2.27,0,0,0,1,.22,2.14,2.14,0,0,0,1-.24,3.57,3.57,0,0,0,.82-.55l.58.88a4.18,4.18,0,0,1-1.17.73A3.44,3.44,0,0,1,214.56,135.18Z"/><path class="cls-5" d="M221.07,135.18a2.5,2.5,0,0,1-1-.19,1.83,1.83,0,0,1-.69-.53,2,2,0,0,1-.37-.81,4.35,4.35,0,0,1-.12-1.06v-4.3h-1.15v-1l1.22-.08.16-2.18h1.1v2.18h2.1v1.07h-2.1v4.32a1.94,1.94,0,0,0,.27,1.11,1,1,0,0,0,.93.39,1.86,1.86,0,0,0,.45-.06,3.58,3.58,0,0,0,.43-.15l.26,1c-.22.07-.45.14-.7.2A3.81,3.81,0,0,1,221.07,135.18Z"/><path class="cls-5" d="M224.7,125.62a.93.93,0,0,1-.65-.24.82.82,0,0,1-.26-.61.81.81,0,0,1,.26-.62,1,1,0,0,1,1.3,0,.81.81,0,0,1,.26.62.82.82,0,0,1-.26.61A.93.93,0,0,1,224.7,125.62ZM224,135v-7.77h1.31V135Z"/><path class="cls-5" d="M228,135v-7.77h1.09l.11,1.12h.05a6.32,6.32,0,0,1,1.18-.94,2.7,2.7,0,0,1,1.43-.38,2.1,2.1,0,0,1,1.8.77,3.78,3.78,0,0,1,.57,2.27V135h-1.31v-4.75a2.7,2.7,0,0,0-.36-1.59,1.26,1.26,0,0,0-1.12-.49,1.94,1.94,0,0,0-1.07.3,6.86,6.86,0,0,0-1.05.9V135Z"/><path class="cls-5" d="M239.34,138.58a5.85,5.85,0,0,1-1.31-.14,3.16,3.16,0,0,1-1-.41,2,2,0,0,1-.65-.65,1.68,1.68,0,0,1-.24-.9,1.65,1.65,0,0,1,.31-.94,3.09,3.09,0,0,1,.83-.82v-.06a1.53,1.53,0,0,1-.49-.49,1.46,1.46,0,0,1-.2-.78,1.4,1.4,0,0,1,.27-.86,2.45,2.45,0,0,1,.58-.58v-.06a3.24,3.24,0,0,1-.7-.86,2.51,2.51,0,0,1-.31-1.24,2.84,2.84,0,0,1,.23-1.15,2.66,2.66,0,0,1,.64-.87,2.55,2.55,0,0,1,.93-.55,3.28,3.28,0,0,1,1.13-.2,2.91,2.91,0,0,1,.6.06,3,3,0,0,1,.5.14h2.71v1h-1.6a2.29,2.29,0,0,1,.45.69,2.12,2.12,0,0,1,.19.91A2.71,2.71,0,0,1,242,131a2.51,2.51,0,0,1-.6.85,2.85,2.85,0,0,1-.91.54,3.4,3.4,0,0,1-1.11.19,3.06,3.06,0,0,1-.59-.07,3.6,3.6,0,0,1-.58-.2,1.63,1.63,0,0,0-.35.39.89.89,0,0,0-.14.53.75.75,0,0,0,.28.61,1.8,1.8,0,0,0,1.09.24h1.51a3.86,3.86,0,0,1,2,.44,1.57,1.57,0,0,1,.68,1.42,2,2,0,0,1-.28,1,2.64,2.64,0,0,1-.78.86,4.07,4.07,0,0,1-1.24.58A5.92,5.92,0,0,1,239.34,138.58Zm.19-.92a3.65,3.65,0,0,0,1-.13,2.89,2.89,0,0,0,.77-.35,1.73,1.73,0,0,0,.5-.51,1.1,1.1,0,0,0,.18-.59.78.78,0,0,0-.4-.75,2.6,2.6,0,0,0-1.17-.21h-1.35l-.48,0a3,3,0,0,1-.52-.11,2.14,2.14,0,0,0-.61.64,1.34,1.34,0,0,0-.19.67,1.13,1.13,0,0,0,.6,1A3.21,3.21,0,0,0,239.53,137.66Zm-.19-6a1.69,1.69,0,0,0,.63-.13,1.64,1.64,0,0,0,.53-.37,1.78,1.78,0,0,0,.36-.58,2.36,2.36,0,0,0,.13-.78,1.78,1.78,0,0,0-.48-1.33,1.67,1.67,0,0,0-2.34,0,1.78,1.78,0,0,0-.48,1.33,2.13,2.13,0,0,0,.13.78,1.5,1.5,0,0,0,.36.58,1.6,1.6,0,0,0,1.16.5Z"/><path class="cls-5" d="M248,135v-7.77h1.09l.11,1.4h0a3.4,3.4,0,0,1,1-1.16,2,2,0,0,1,1.24-.44,2.23,2.23,0,0,1,.83.16l-.26,1.16a1.89,1.89,0,0,0-.35-.1,2.25,2.25,0,0,0-.4,0,1.7,1.7,0,0,0-1,.4,3.15,3.15,0,0,0-.94,1.39v5Z"/><path class="cls-5" d="M254.2,125.62a.91.91,0,0,1-.64-.24.79.79,0,0,1-.27-.61.78.78,0,0,1,.27-.62,1,1,0,0,1,1.29,0,.78.78,0,0,1,.27.62.79.79,0,0,1-.27.61A.92.92,0,0,1,254.2,125.62Zm-.67,9.37v-7.77h1.31V135Z"/><path class="cls-5" d="M259.5,135.18a4.19,4.19,0,0,1-1.58-.3,4.88,4.88,0,0,1-1.32-.77l.66-.88a5,5,0,0,0,1.05.67,2.83,2.83,0,0,0,1.24.26,1.68,1.68,0,0,0,1.15-.35,1.12,1.12,0,0,0,.38-.87.85.85,0,0,0-.16-.52,1.69,1.69,0,0,0-.4-.4,3,3,0,0,0-.57-.29l-.64-.26a6.52,6.52,0,0,1-.83-.33,3.44,3.44,0,0,1-.75-.44,2.22,2.22,0,0,1-.53-.62,1.65,1.65,0,0,1-.21-.85,2.12,2.12,0,0,1,.18-.87,1.92,1.92,0,0,1,.53-.7,2.45,2.45,0,0,1,.84-.47,3.7,3.7,0,0,1,2.47.09,4.42,4.42,0,0,1,1.07.62l-.63.84a3.74,3.74,0,0,0-.83-.5,2.26,2.26,0,0,0-.94-.19,1.5,1.5,0,0,0-1.08.33,1.09,1.09,0,0,0-.35.79.75.75,0,0,0,.15.47,1.29,1.29,0,0,0,.38.35,3.13,3.13,0,0,0,.55.27l.65.25.84.34a2.85,2.85,0,0,1,.76.44,2,2,0,0,1,.55.65,1.77,1.77,0,0,1,.22.92,2.11,2.11,0,0,1-.19.9,2.14,2.14,0,0,1-.54.74,2.6,2.6,0,0,1-.9.5A3.78,3.78,0,0,1,259.5,135.18Z"/><path class="cls-5" d="M264.17,135V123.6h1.3v7.71h0l3.31-4.09h1.45l-2.6,3.12,3,4.65h-1.45l-2.27-3.74-1.45,1.69V135Z"/><path class="cls-5" d="M277.08,135.18a2.36,2.36,0,0,1-1.62-.57,2.09,2.09,0,0,1-.65-1.63,2.15,2.15,0,0,1,1.14-2,9.42,9.42,0,0,1,3.63-1,3.51,3.51,0,0,0-.07-.72,1.8,1.8,0,0,0-.25-.62,1.31,1.31,0,0,0-.49-.44,1.68,1.68,0,0,0-.79-.17,3.12,3.12,0,0,0-1.26.26,6.21,6.21,0,0,0-1.06.57l-.51-.91a8.59,8.59,0,0,1,1.33-.68,4.36,4.36,0,0,1,1.72-.33,2.39,2.39,0,0,1,2.07.88,3.87,3.87,0,0,1,.64,2.32V135h-1.09l-.11-.93h0a6.43,6.43,0,0,1-1.2.8A3.11,3.11,0,0,1,277.08,135.18Zm.39-1.05a2.16,2.16,0,0,0,1-.27,5,5,0,0,0,1.06-.77v-2.16a11.93,11.93,0,0,0-1.64.3,4.41,4.41,0,0,0-1.07.42,1.58,1.58,0,0,0-.59.55,1.25,1.25,0,0,0-.19.68,1.11,1.11,0,0,0,.4,1A1.65,1.65,0,0,0,277.47,134.13Z"/><path class="cls-5" d="M283.36,135v-7.77h1.08l.12,1.12h0a6.32,6.32,0,0,1,1.18-.94,2.7,2.7,0,0,1,1.43-.38,2.1,2.1,0,0,1,1.8.77,3.78,3.78,0,0,1,.57,2.27V135h-1.31v-4.75a2.79,2.79,0,0,0-.35-1.59,1.29,1.29,0,0,0-1.12-.49,2,2,0,0,0-1.08.3,6.86,6.86,0,0,0-1.05.9V135Z"/><path class="cls-5" d="M294.76,135.18a2.88,2.88,0,0,1-2.34-1.05,4.63,4.63,0,0,1-.87-3,4.77,4.77,0,0,1,.28-1.7,4,4,0,0,1,.74-1.29,3.37,3.37,0,0,1,1.07-.82,3,3,0,0,1,1.28-.29,2.66,2.66,0,0,1,1.17.24,5.12,5.12,0,0,1,1,.66l-.06-1.33v-3h1.32V135h-1.08l-.12-.91h0a5,5,0,0,1-1.07.78A2.74,2.74,0,0,1,294.76,135.18Zm.29-1.1a2.19,2.19,0,0,0,1-.26,3.83,3.83,0,0,0,1-.81v-4.07a3.16,3.16,0,0,0-1-.63,2.48,2.48,0,0,0-.93-.18,1.86,1.86,0,0,0-.87.21,2.32,2.32,0,0,0-.72.61,3.2,3.2,0,0,0-.48.94,4.16,4.16,0,0,0-.17,1.21,3.79,3.79,0,0,0,.56,2.2A1.83,1.83,0,0,0,295.05,134.08Z"/><path class="cls-5" d="M307.34,135.18a3.72,3.72,0,0,1-1.46-.28,3.33,3.33,0,0,1-1.19-.8,3.7,3.7,0,0,1-.79-1.27,4.79,4.79,0,0,1-.29-1.71,4.67,4.67,0,0,1,.3-1.72,4.11,4.11,0,0,1,.78-1.29,3.6,3.6,0,0,1,1.11-.81,3.31,3.31,0,0,1,2.62,0,2.58,2.58,0,0,1,1,.74,3.4,3.4,0,0,1,.6,1.15,5,5,0,0,1,.2,1.5v.41a2.66,2.66,0,0,1,0,.34h-5.25a3,3,0,0,0,.77,2,2.43,2.43,0,0,0,1.82.73,3.09,3.09,0,0,0,1-.17,4.49,4.49,0,0,0,.91-.44l.46.86a6,6,0,0,1-1.14.56A3.91,3.91,0,0,1,307.34,135.18Zm-2.45-4.7h4.16a2.82,2.82,0,0,0-.5-1.8,1.74,1.74,0,0,0-1.42-.62,2,2,0,0,0-1.47.64,2.45,2.45,0,0,0-.5.76A3.39,3.39,0,0,0,304.89,130.48Z"/><path class="cls-5" d="M312.12,135v-7.77h1.09l.11,1.12h.05a6.32,6.32,0,0,1,1.18-.94A2.7,2.7,0,0,1,316,127a2.1,2.1,0,0,1,1.8.77,3.78,3.78,0,0,1,.57,2.27V135H317v-4.75a2.7,2.7,0,0,0-.36-1.59,1.26,1.26,0,0,0-1.12-.49,1.94,1.94,0,0,0-1.07.3,6.86,6.86,0,0,0-1.05.9V135Z"/><path class="cls-5" d="M320.88,135V123.6h1.31v3.1l-.05,1.6a7,7,0,0,1,1.17-.9,2.64,2.64,0,0,1,1.42-.38,2.1,2.1,0,0,1,1.8.77,3.78,3.78,0,0,1,.57,2.27V135h-1.31v-4.75a2.79,2.79,0,0,0-.35-1.59,1.29,1.29,0,0,0-1.12-.49,2,2,0,0,0-1.08.3,6.86,6.86,0,0,0-1.05.9V135Z"/><path class="cls-5" d="M331.37,135.18a2.36,2.36,0,0,1-1.62-.57,2.05,2.05,0,0,1-.65-1.63,2.16,2.16,0,0,1,1.13-2,9.43,9.43,0,0,1,3.64-1,4.39,4.39,0,0,0-.07-.72,2,2,0,0,0-.25-.62,1.31,1.31,0,0,0-.49-.44,1.68,1.68,0,0,0-.79-.17,3.21,3.21,0,0,0-1.27.26,6.5,6.5,0,0,0-1.05.57l-.51-.91a8.92,8.92,0,0,1,1.32-.68,4.44,4.44,0,0,1,1.73-.33,2.39,2.39,0,0,1,2.07.88,3.87,3.87,0,0,1,.63,2.32V135h-1.08l-.12-.93h0a7.16,7.16,0,0,1-1.2.8A3.11,3.11,0,0,1,331.37,135.18Zm.39-1.05a2.16,2.16,0,0,0,1.05-.27,5.28,5.28,0,0,0,1.06-.77v-2.16a11.93,11.93,0,0,0-1.64.3,4.51,4.51,0,0,0-1.08.42,1.66,1.66,0,0,0-.59.55,1.33,1.33,0,0,0-.18.68,1.09,1.09,0,0,0,.4,1A1.65,1.65,0,0,0,331.76,134.13Z"/><path class="cls-5" d="M337.64,135v-7.77h1.09l.11,1.12h.05a6.32,6.32,0,0,1,1.18-.94,2.7,2.7,0,0,1,1.43-.38,2.1,2.1,0,0,1,1.8.77,3.78,3.78,0,0,1,.57,2.27V135h-1.31v-4.75a2.7,2.7,0,0,0-.36-1.59,1.26,1.26,0,0,0-1.12-.49,1.94,1.94,0,0,0-1.07.3,6.86,6.86,0,0,0-1.05.9V135Z"/><path class="cls-5" d="M349.47,135.18a3.84,3.84,0,0,1-1.44-.27,3.11,3.11,0,0,1-1.16-.79,3.71,3.71,0,0,1-.77-1.28,4.89,4.89,0,0,1-.28-1.72,4.74,4.74,0,0,1,.3-1.74,4.08,4.08,0,0,1,.82-1.28,3.29,3.29,0,0,1,1.19-.8,3.65,3.65,0,0,1,1.43-.28,2.83,2.83,0,0,1,1.32.28,4.34,4.34,0,0,1,1,.64l-.68.86a3.39,3.39,0,0,0-.71-.5,1.92,1.92,0,0,0-.84-.19,2.1,2.1,0,0,0-1,.22,2.17,2.17,0,0,0-.77.61,3.14,3.14,0,0,0-.51,1,3.86,3.86,0,0,0-.18,1.22,3.91,3.91,0,0,0,.18,1.22,2.92,2.92,0,0,0,.48.93,2.23,2.23,0,0,0,.76.61,2.31,2.31,0,0,0,1,.22,2.11,2.11,0,0,0,1-.24,3.57,3.57,0,0,0,.82-.55l.58.88a4.18,4.18,0,0,1-1.17.73A3.4,3.4,0,0,1,349.47,135.18Z"/><path class="cls-5" d="M354.36,125.62a1,1,0,0,1-.65-.24.82.82,0,0,1-.26-.61.81.81,0,0,1,.26-.62,1,1,0,0,1,.65-.23,1,1,0,0,1,.65.23.86.86,0,0,1,0,1.23A.93.93,0,0,1,354.36,125.62Zm-.67,9.37v-7.77H355V135Z"/><path class="cls-5" d="M357.63,135v-7.77h1.08l.12,1.12h0a6.32,6.32,0,0,1,1.18-.94,2.7,2.7,0,0,1,1.43-.38,2.1,2.1,0,0,1,1.8.77,3.78,3.78,0,0,1,.57,2.27V135h-1.31v-4.75a2.79,2.79,0,0,0-.35-1.59,1.29,1.29,0,0,0-1.12-.49,2,2,0,0,0-1.08.3,6.86,6.86,0,0,0-1.05.9V135Z"/><path class="cls-5" d="M369,138.58a5.85,5.85,0,0,1-1.31-.14,3.35,3.35,0,0,1-1-.41,2,2,0,0,1-.65-.65,1.68,1.68,0,0,1-.23-.9,1.64,1.64,0,0,1,.3-.94,3.09,3.09,0,0,1,.83-.82v-.06a1.63,1.63,0,0,1-.49-.49,1.46,1.46,0,0,1-.2-.78,1.35,1.35,0,0,1,.28-.86,2.42,2.42,0,0,1,.57-.58v-.06a3.22,3.22,0,0,1-.69-.86,2.41,2.41,0,0,1-.32-1.24,2.69,2.69,0,0,1,.24-1.15,2.5,2.5,0,0,1,.63-.87,2.64,2.64,0,0,1,.93-.55A3.32,3.32,0,0,1,369,127a2.77,2.77,0,0,1,.6.06,3.12,3.12,0,0,1,.51.14h2.7v1h-1.6a2.52,2.52,0,0,1,.46.69,2.27,2.27,0,0,1,.18.91,2.88,2.88,0,0,1-.22,1.13,2.54,2.54,0,0,1-.61.85,2.85,2.85,0,0,1-.91.54,3.31,3.31,0,0,1-1.11.19,3.06,3.06,0,0,1-.59-.07,4,4,0,0,1-.58-.2,1.63,1.63,0,0,0-.35.39,1,1,0,0,0-.14.53.73.73,0,0,0,.29.61,1.75,1.75,0,0,0,1.08.24h1.51a3.86,3.86,0,0,1,2,.44,1.57,1.57,0,0,1,.68,1.42,2.11,2.11,0,0,1-.27,1,2.79,2.79,0,0,1-.79.86,4.07,4.07,0,0,1-1.24.58A5.86,5.86,0,0,1,369,138.58Zm.19-.92a3.56,3.56,0,0,0,1-.13,3.12,3.12,0,0,0,.78-.35,1.82,1.82,0,0,0,.49-.51,1.1,1.1,0,0,0,.18-.59.78.78,0,0,0-.4-.75,2.6,2.6,0,0,0-1.17-.21h-1.34l-.49,0a3,3,0,0,1-.52-.11,2.14,2.14,0,0,0-.61.64,1.34,1.34,0,0,0-.19.67,1.13,1.13,0,0,0,.6,1A3.21,3.21,0,0,0,369.19,137.66Zm-.19-6a1.61,1.61,0,0,0,.63-.13,1.64,1.64,0,0,0,.53-.37,1.5,1.5,0,0,0,.36-.58,2.13,2.13,0,0,0,.13-.78,1.78,1.78,0,0,0-.48-1.33,1.67,1.67,0,0,0-2.34,0,1.78,1.78,0,0,0-.48,1.33,2.36,2.36,0,0,0,.13.78,1.78,1.78,0,0,0,.36.58,1.75,1.75,0,0,0,.53.37A1.69,1.69,0,0,0,369,131.65Z"/><path class="cls-5" d="M61.49,159.18a3.52,3.52,0,0,1-1.37-.27,3.3,3.3,0,0,1-1.14-.79,3.77,3.77,0,0,1-.8-1.28,4.88,4.88,0,0,1-.29-1.72,5,5,0,0,1,.29-1.74,3.87,3.87,0,0,1,.8-1.28,3.2,3.2,0,0,1,1.14-.8,3.36,3.36,0,0,1,1.37-.28,3.31,3.31,0,0,1,1.36.28,3.15,3.15,0,0,1,1.15.8,4,4,0,0,1,.79,1.28,4.74,4.74,0,0,1,.3,1.74,4.67,4.67,0,0,1-.3,1.72,3.91,3.91,0,0,1-.79,1.28,3.24,3.24,0,0,1-1.15.79A3.47,3.47,0,0,1,61.49,159.18Zm0-1.08a2,2,0,0,0,.91-.22,2.07,2.07,0,0,0,.71-.61,2.89,2.89,0,0,0,.46-.93,4.62,4.62,0,0,0,.16-1.22,4.56,4.56,0,0,0-.16-1.22,3.06,3.06,0,0,0-.46-1,2.07,2.07,0,0,0-.71-.61,1.88,1.88,0,0,0-.91-.22,1.92,1.92,0,0,0-.92.22,2.16,2.16,0,0,0-.71.61,3,3,0,0,0-.45,1,4.19,4.19,0,0,0-.16,1.22,4.24,4.24,0,0,0,.16,1.22,2.88,2.88,0,0,0,.45.93,2.16,2.16,0,0,0,.71.61A2,2,0,0,0,61.49,158.1Z"/><path class="cls-5" d="M67.13,162.27V151.22h1.09l.11.89h0a6.15,6.15,0,0,1,1.16-.77,2.92,2.92,0,0,1,1.32-.32,3.1,3.1,0,0,1,1.33.28,2.66,2.66,0,0,1,1,.8,3.69,3.69,0,0,1,.58,1.25,5.93,5.93,0,0,1,.21,1.64,5.39,5.39,0,0,1-.28,1.77,4,4,0,0,1-.73,1.32,3,3,0,0,1-1.08.82,3,3,0,0,1-1.28.28,2.64,2.64,0,0,1-1.08-.24,5.73,5.73,0,0,1-1.08-.65l0,1.36v2.62Zm3.22-4.19a1.81,1.81,0,0,0,.89-.22,2,2,0,0,0,.7-.6,3.24,3.24,0,0,0,.47-1,4.77,4.77,0,0,0,.16-1.3,5.41,5.41,0,0,0-.11-1.17,2.43,2.43,0,0,0-.36-.9,1.62,1.62,0,0,0-.64-.58,1.94,1.94,0,0,0-.93-.21,2.09,2.09,0,0,0-1,.27,5.56,5.56,0,0,0-1.08.78v4.08a3.63,3.63,0,0,0,1,.64A2.65,2.65,0,0,0,70.35,158.08Z"/><path class="cls-5" d="M79.17,159.18a3.77,3.77,0,0,1-1.47-.28,3.3,3.3,0,0,1-1.18-.8,3.56,3.56,0,0,1-.79-1.27,4.58,4.58,0,0,1-.29-1.71,4.88,4.88,0,0,1,.29-1.72,4,4,0,0,1,.79-1.29,3.38,3.38,0,0,1,1.11-.81,3.31,3.31,0,0,1,2.62,0,2.54,2.54,0,0,1,1,.74,3.4,3.4,0,0,1,.6,1.15,5,5,0,0,1,.21,1.5c0,.14,0,.28,0,.41a1.59,1.59,0,0,1,0,.34H76.73a3.1,3.1,0,0,0,.78,2,2.43,2.43,0,0,0,1.82.73,3.13,3.13,0,0,0,1-.17,4.41,4.41,0,0,0,.9-.44l.47.86a6,6,0,0,1-1.14.56A4,4,0,0,1,79.17,159.18Zm-2.45-4.7h4.16a2.76,2.76,0,0,0-.51-1.8,1.71,1.71,0,0,0-1.41-.62,2,2,0,0,0-1.47.64,2.47,2.47,0,0,0-.51.76A3.39,3.39,0,0,0,76.72,154.48Z"/><path class="cls-5" d="M84,159v-7.77H85l.11,1.4h0a3.4,3.4,0,0,1,1-1.16,2,2,0,0,1,1.24-.44,2.19,2.19,0,0,1,.83.16L88,152.34a1.89,1.89,0,0,0-.35-.1,2.25,2.25,0,0,0-.4,0,1.72,1.72,0,0,0-1,.4,3.15,3.15,0,0,0-.94,1.39v5Z"/><path class="cls-5" d="M90.91,159.18a2.36,2.36,0,0,1-1.62-.57,2.05,2.05,0,0,1-.65-1.63,2.16,2.16,0,0,1,1.13-2,9.43,9.43,0,0,1,3.64-1,3.53,3.53,0,0,0-.08-.72,1.78,1.78,0,0,0-.24-.62,1.31,1.31,0,0,0-.49-.44,1.68,1.68,0,0,0-.79-.17,3.21,3.21,0,0,0-1.27.26,6.5,6.5,0,0,0-1.05.57L89,152a9.61,9.61,0,0,1,1.33-.68A4.41,4.41,0,0,1,92,151a2.35,2.35,0,0,1,2.06.88,3.8,3.8,0,0,1,.64,2.32V159H93.65l-.12-.93h0a7.16,7.16,0,0,1-1.2.8A3.11,3.11,0,0,1,90.91,159.18Zm.38-1.05a2.17,2.17,0,0,0,1.06-.27,5.28,5.28,0,0,0,1.06-.77v-2.16a11.93,11.93,0,0,0-1.64.3,4.51,4.51,0,0,0-1.08.42,1.66,1.66,0,0,0-.59.55,1.33,1.33,0,0,0-.18.68,1.09,1.09,0,0,0,.4,1A1.62,1.62,0,0,0,91.29,158.13Z"/><path class="cls-5" d="M99.41,159.18a2.5,2.5,0,0,1-1-.19,1.83,1.83,0,0,1-.69-.53,2,2,0,0,1-.38-.81,4.93,4.93,0,0,1-.11-1.06v-4.3H96v-1l1.22-.08.16-2.18h1.1v2.18h2.1v1.07h-2.1v4.32a2,2,0,0,0,.26,1.11,1.06,1.06,0,0,0,.94.39,1.86,1.86,0,0,0,.45-.06,3.58,3.58,0,0,0,.43-.15l.26,1c-.22.07-.45.14-.7.2A3.81,3.81,0,0,1,99.41,159.18Z"/><path class="cls-5" d="M103,149.62a.93.93,0,0,1-.65-.24.86.86,0,0,1,0-1.23,1,1,0,0,1,.65-.23,1,1,0,0,1,.65.23.81.81,0,0,1,.26.62.82.82,0,0,1-.26.61A1,1,0,0,1,103,149.62Zm-.67,9.37v-7.77h1.31V159Z"/><path class="cls-5" d="M109.33,159.18a3.52,3.52,0,0,1-1.37-.27,3.33,3.33,0,0,1-1.15-.79,3.91,3.91,0,0,1-.79-1.28,4.67,4.67,0,0,1-.29-1.72,4.74,4.74,0,0,1,.29-1.74,4,4,0,0,1,.79-1.28,3.23,3.23,0,0,1,1.15-.8,3.36,3.36,0,0,1,1.37-.28,3.31,3.31,0,0,1,1.36.28,3.15,3.15,0,0,1,1.15.8,4,4,0,0,1,.79,1.28,4.74,4.74,0,0,1,.3,1.74,4.67,4.67,0,0,1-.3,1.72,3.91,3.91,0,0,1-.79,1.28,3.24,3.24,0,0,1-1.15.79A3.47,3.47,0,0,1,109.33,159.18Zm0-1.08a2,2,0,0,0,.91-.22,2.07,2.07,0,0,0,.71-.61,2.89,2.89,0,0,0,.46-.93,4.62,4.62,0,0,0,.16-1.22,4.56,4.56,0,0,0-.16-1.22,3.06,3.06,0,0,0-.46-1,2.07,2.07,0,0,0-.71-.61,2,2,0,0,0-1.83,0,2.16,2.16,0,0,0-.71.61,2.84,2.84,0,0,0-.45,1,4.19,4.19,0,0,0-.16,1.22,4.24,4.24,0,0,0,.16,1.22,2.69,2.69,0,0,0,.45.93,2.16,2.16,0,0,0,.71.61A2,2,0,0,0,109.33,158.1Z"/><path class="cls-5" d="M115,159v-7.77h1.09l.11,1.12h0a6.32,6.32,0,0,1,1.18-.94,2.7,2.7,0,0,1,1.43-.38,2.1,2.1,0,0,1,1.8.77,3.78,3.78,0,0,1,.57,2.27V159h-1.31v-4.75a2.7,2.7,0,0,0-.36-1.59,1.26,1.26,0,0,0-1.12-.49,1.94,1.94,0,0,0-1.07.3,6.86,6.86,0,0,0-1,.9V159Z"/><path class="cls-5" d="M125.52,159.18a2.4,2.4,0,0,1-1.63-.57,2.08,2.08,0,0,1-.64-1.63,2.14,2.14,0,0,1,1.13-2,9.42,9.42,0,0,1,3.63-1,3.51,3.51,0,0,0-.07-.72,1.8,1.8,0,0,0-.25-.62,1.28,1.28,0,0,0-.48-.44,1.72,1.72,0,0,0-.8-.17,3.16,3.16,0,0,0-1.26.26,6.21,6.21,0,0,0-1.06.57l-.51-.91a9.07,9.07,0,0,1,1.33-.68,4.41,4.41,0,0,1,1.73-.33,2.37,2.37,0,0,1,2.06.88,3.8,3.8,0,0,1,.64,2.32V159h-1.09l-.11-.93h0a6.43,6.43,0,0,1-1.2.8A3,3,0,0,1,125.52,159.18Zm.38-1.05a2.2,2.2,0,0,0,1.06-.27,5,5,0,0,0,1-.77v-2.16a12.22,12.22,0,0,0-1.64.3,4.41,4.41,0,0,0-1.07.42,1.58,1.58,0,0,0-.59.55,1.33,1.33,0,0,0-.18.68,1.09,1.09,0,0,0,.4,1A1.62,1.62,0,0,0,125.9,158.13Z"/><path class="cls-5" d="M133.18,159.18a1.24,1.24,0,0,1-1.07-.44,2.29,2.29,0,0,1-.32-1.32V147.6h1.31v9.92a.74.74,0,0,0,.11.45.36.36,0,0,0,.26.13h.12l.17,0,.17,1a1.07,1.07,0,0,1-.3.09A2.81,2.81,0,0,1,133.18,159.18Z"/><path class="cls-5" d="M142.22,159.18a3.72,3.72,0,0,1-1.46-.28,3.42,3.42,0,0,1-1.19-.8,3.7,3.7,0,0,1-.79-1.27,4.79,4.79,0,0,1-.29-1.71,4.67,4.67,0,0,1,.3-1.72,4.11,4.11,0,0,1,.78-1.29,3.53,3.53,0,0,1,1.12-.81A3.18,3.18,0,0,1,142,151a3.27,3.27,0,0,1,1.32.26,2.58,2.58,0,0,1,1,.74,3.4,3.4,0,0,1,.6,1.15,5,5,0,0,1,.21,1.5c0,.14,0,.28,0,.41a2.66,2.66,0,0,1,0,.34h-5.25a3,3,0,0,0,.78,2,2.41,2.41,0,0,0,1.81.73,3,3,0,0,0,1-.17,4.49,4.49,0,0,0,.91-.44l.46.86a6.26,6.26,0,0,1-1.13.56A4,4,0,0,1,142.22,159.18Zm-2.45-4.7h4.16a2.76,2.76,0,0,0-.5-1.8,1.74,1.74,0,0,0-1.42-.62,2.14,2.14,0,0,0-.79.16,2.11,2.11,0,0,0-.68.48,2.45,2.45,0,0,0-.5.76A3.39,3.39,0,0,0,139.77,154.48Z"/><path class="cls-5" d="M151.79,159v-6.7h-3.25V159h-1.31v-6.7h-1.06v-1l1.06-.08v-1a2.87,2.87,0,0,1,.6-1.92,2.26,2.26,0,0,1,1.82-.7,3.33,3.33,0,0,1,.76.08,2.84,2.84,0,0,1,.66.21l-.27,1a2.58,2.58,0,0,0-1-.21,1.08,1.08,0,0,0-.9.41,1.87,1.87,0,0,0-.32,1.17v1h3.25V150a2.88,2.88,0,0,1,.55-1.88,2.07,2.07,0,0,1,1.72-.69,3.14,3.14,0,0,1,.7.07,4.27,4.27,0,0,1,.6.18l-.29,1a2.12,2.12,0,0,0-.88-.19c-.73,0-1.09.5-1.09,1.5v1.24h1.65v1.07H153.1V159Z"/><path class="cls-5" d="M156.91,149.62a.93.93,0,0,1-.65-.24.82.82,0,0,1-.26-.61.81.81,0,0,1,.26-.62,1,1,0,0,1,1.3,0,.81.81,0,0,1,.26.62.82.82,0,0,1-.26.61A.93.93,0,0,1,156.91,149.62Zm-.67,9.37v-7.77h1.31V159Z"/><path class="cls-5" d="M163.24,159.18a3.75,3.75,0,0,1-1.43-.27,3.11,3.11,0,0,1-1.16-.79,3.56,3.56,0,0,1-.77-1.28,4.89,4.89,0,0,1-.28-1.72,4.74,4.74,0,0,1,.3-1.74,3.91,3.91,0,0,1,.82-1.28,3.29,3.29,0,0,1,1.19-.8,3.65,3.65,0,0,1,1.43-.28,2.79,2.79,0,0,1,1.31.28,3.92,3.92,0,0,1,1,.64l-.67.86a3.39,3.39,0,0,0-.71-.5,1.92,1.92,0,0,0-.84-.19,2.17,2.17,0,0,0-1,.22,2.14,2.14,0,0,0-.76.61,2.94,2.94,0,0,0-.51,1,3.86,3.86,0,0,0-.18,1.22,4.23,4.23,0,0,0,.17,1.22,2.94,2.94,0,0,0,.49.93,2.14,2.14,0,0,0,.76.61,2.27,2.27,0,0,0,1,.22,2.14,2.14,0,0,0,1-.24,3.57,3.57,0,0,0,.82-.55l.58.88a4.33,4.33,0,0,1-1.17.73A3.45,3.45,0,0,1,163.24,159.18Z"/><path class="cls-5" d="M168.14,149.62a.93.93,0,0,1-.65-.24.82.82,0,0,1-.26-.61.81.81,0,0,1,.26-.62,1,1,0,0,1,1.3,0,.81.81,0,0,1,.26.62.82.82,0,0,1-.26.61A.93.93,0,0,1,168.14,149.62Zm-.67,9.37v-7.77h1.31V159Z"/><path class="cls-5" d="M174.56,159.18a3.77,3.77,0,0,1-1.47-.28,3.3,3.3,0,0,1-1.18-.8,3.56,3.56,0,0,1-.79-1.27,4.58,4.58,0,0,1-.29-1.71,4.88,4.88,0,0,1,.29-1.72,4,4,0,0,1,.79-1.29,3.38,3.38,0,0,1,1.11-.81,3.31,3.31,0,0,1,2.62,0,2.54,2.54,0,0,1,1,.74,3.4,3.4,0,0,1,.6,1.15,5,5,0,0,1,.21,1.5c0,.14,0,.28,0,.41a1.59,1.59,0,0,1,0,.34h-5.25a3.1,3.1,0,0,0,.78,2,2.42,2.42,0,0,0,1.82.73,3.13,3.13,0,0,0,1-.17,4.68,4.68,0,0,0,.9-.44l.47.86a6.36,6.36,0,0,1-1.14.56A4,4,0,0,1,174.56,159.18Zm-2.45-4.7h4.16a2.76,2.76,0,0,0-.51-1.8,1.71,1.71,0,0,0-1.41-.62,2,2,0,0,0-1.47.64,2.47,2.47,0,0,0-.51.76A3.39,3.39,0,0,0,172.11,154.48Z"/><path class="cls-5" d="M179.34,159v-7.77h1.09l.11,1.12h.05a6,6,0,0,1,1.17-.94,2.71,2.71,0,0,1,1.44-.38,2.1,2.1,0,0,1,1.8.77,3.86,3.86,0,0,1,.56,2.27V159h-1.31v-4.75a2.79,2.79,0,0,0-.35-1.59,1.27,1.27,0,0,0-1.12-.49,1.91,1.91,0,0,0-1.07.3,7.38,7.38,0,0,0-1.06.9V159Z"/><path class="cls-5" d="M191.16,159.18a3.84,3.84,0,0,1-1.44-.27,3.28,3.28,0,0,1-1.16-.79,3.69,3.69,0,0,1-.76-1.28,4.89,4.89,0,0,1-.28-1.72,4.74,4.74,0,0,1,.3-1.74,3.75,3.75,0,0,1,.82-1.28,3.21,3.21,0,0,1,1.19-.8,3.65,3.65,0,0,1,1.43-.28,2.79,2.79,0,0,1,1.31.28,4.34,4.34,0,0,1,1,.64l-.67.86a3.39,3.39,0,0,0-.71-.5,1.92,1.92,0,0,0-.84-.19,2.17,2.17,0,0,0-1,.22,2.26,2.26,0,0,0-.77.61,3.12,3.12,0,0,0-.5,1,3.86,3.86,0,0,0-.18,1.22,3.91,3.91,0,0,0,.17,1.22,2.94,2.94,0,0,0,.49.93,2.14,2.14,0,0,0,.76.61,2.27,2.27,0,0,0,1,.22,2.14,2.14,0,0,0,1-.24,3.8,3.8,0,0,0,.82-.55l.58.88a4.49,4.49,0,0,1-1.17.73A3.45,3.45,0,0,1,191.16,159.18Z"/><path class="cls-5" d="M195.61,162.34a3.47,3.47,0,0,1-.49,0,2.58,2.58,0,0,1-.42-.12l.26-1,.28.07a1.76,1.76,0,0,0,.31,0,1.4,1.4,0,0,0,1.09-.47,3.32,3.32,0,0,0,.67-1.2l.17-.57-3.12-7.79h1.36l1.59,4.3c.11.34.24.7.37,1.08s.26.75.38,1.11h.06c.12-.35.23-.72.34-1.1s.21-.75.32-1.09l1.39-4.3h1.28l-2.93,8.41a8.82,8.82,0,0,1-.46,1.07,3.41,3.41,0,0,1-.61.86,2.66,2.66,0,0,1-.8.57A2.41,2.41,0,0,1,195.61,162.34Z"/><path class="cls-5" d="M203.08,159.18a.93.93,0,0,1-.68-.28,1,1,0,0,1-.28-.71,1,1,0,0,1,.28-.74.93.93,0,0,1,.68-.28.91.91,0,0,1,.67.28,1,1,0,0,1,.28.74,1,1,0,0,1-.28.71A.91.91,0,0,1,203.08,159.18Z"/></svg>