<svg id="Layer_1" data-name="Layer 1" xmlns="http://www.w3.org/2000/svg" viewBox="0 0 480 200"><defs><style>.cls-1{fill:#00916a;}.cls-2{fill:#f5f5f5;}.cls-3{fill:#4b4b4b;}.cls-4{fill:#005fc6;}</style></defs><rect class="cls-1" width="6" height="200"/><rect class="cls-2" x="6" width="474" height="200"/><path class="cls-1" d="M32.4,10.2A15.7,15.7,0,1,0,48.1,25.9,15.73,15.73,0,0,0,32.4,10.2ZM29.3,33.7l-7.8-7.8,2.2-2.2,5.6,5.6L41.1,17.4l2.2,2.2Z"/><path class="cls-3" d="M88.42,68.92V58.42h1.33v10.5Z"/><path class="cls-3" d="M92.72,68.92v-6.7h-1v-1l1-.08V59.91A3,3,0,0,1,93.27,58,2.11,2.11,0,0,1,95,57.34a3.14,3.14,0,0,1,.7.07,4.27,4.27,0,0,1,.6.18l-.29,1a2.12,2.12,0,0,0-.88-.19c-.72,0-1.09.5-1.09,1.5v1.23h1.65v1.08H94v6.7Z"/><path class="cls-3" d="M102.82,69.11a2.5,2.5,0,0,1-1-.19,1.83,1.83,0,0,1-.69-.53,1.89,1.89,0,0,1-.37-.81,4.35,4.35,0,0,1-.12-1.06v-4.3H99.44v-1l1.22-.08.16-2.17h1.1v2.17H104v1.08h-2.1v4.32a1.94,1.94,0,0,0,.27,1.11,1,1,0,0,0,.93.39,1.86,1.86,0,0,0,.45-.06,3.58,3.58,0,0,0,.43-.15l.26,1a4.77,4.77,0,0,1-.7.2A3.18,3.18,0,0,1,102.82,69.11Z"/><path class="cls-3" d="M107,68.92l-2.16-7.78h1.34l1.16,4.5c.08.37.16.74.24,1.09s.14.71.22,1.07h.06c.09-.36.17-.72.26-1.08s.18-.72.27-1.08l1.2-4.5h1.28l1.22,4.5c.09.37.19.74.28,1.09s.18.71.26,1.07h.07l.24-1.07c.07-.35.15-.72.24-1.09l1.13-4.5h1.25l-2.08,7.78h-1.6l-1.12-4.18c-.1-.37-.18-.74-.26-1.1s-.17-.74-.27-1.14h-.06c-.09.4-.17.78-.26,1.15s-.18.74-.29,1.11l-1.08,4.16Z"/><path class="cls-3" d="M120.23,69.11a3.52,3.52,0,0,1-1.37-.27,3.33,3.33,0,0,1-1.15-.79,3.91,3.91,0,0,1-.79-1.28,4.67,4.67,0,0,1-.29-1.72,4.74,4.74,0,0,1,.29-1.74,4.18,4.18,0,0,1,.79-1.29,3.47,3.47,0,0,1,5,0,4.18,4.18,0,0,1,.79,1.29,4.74,4.74,0,0,1,.29,1.74,4.67,4.67,0,0,1-.29,1.72,3.91,3.91,0,0,1-.79,1.28,3.33,3.33,0,0,1-1.15.79A3.47,3.47,0,0,1,120.23,69.11Zm0-1.09a2,2,0,0,0,.91-.21,2.29,2.29,0,0,0,.71-.61,2.85,2.85,0,0,0,.46-.94,4.49,4.49,0,0,0,.16-1.21,4.7,4.7,0,0,0-.16-1.23,3.11,3.11,0,0,0-.46-1,2.16,2.16,0,0,0-.71-.61,2,2,0,0,0-1.83,0,2.16,2.16,0,0,0-.71.61,2.88,2.88,0,0,0-.45,1,4.3,4.3,0,0,0-.17,1.23,4.11,4.11,0,0,0,.17,1.21,2.65,2.65,0,0,0,.45.94,2.29,2.29,0,0,0,.71.61A2,2,0,0,0,120.23,68Z"/><path class="cls-3" d="M132.23,69.11a3.74,3.74,0,0,1-1.47-.28,3.3,3.3,0,0,1-1.18-.8,3.56,3.56,0,0,1-.79-1.27,4.58,4.58,0,0,1-.29-1.71,4.88,4.88,0,0,1,.29-1.72,4,4,0,0,1,.79-1.29,3.38,3.38,0,0,1,1.11-.81A3.22,3.22,0,0,1,132,61a3.29,3.29,0,0,1,1.33.26,2.52,2.52,0,0,1,1,.74,3.3,3.3,0,0,1,.6,1.15,5,5,0,0,1,.21,1.5c0,.14,0,.28,0,.41a1.59,1.59,0,0,1,0,.34h-5.25a3.07,3.07,0,0,0,.78,2,2.42,2.42,0,0,0,1.82.73,3.13,3.13,0,0,0,1-.17,4.68,4.68,0,0,0,.9-.44l.47.86a6.71,6.71,0,0,1-1.14.56A4,4,0,0,1,132.23,69.11Zm-2.45-4.7h4.16a2.76,2.76,0,0,0-.51-1.8A1.71,1.71,0,0,0,132,62a2.1,2.1,0,0,0-.79.16,2.13,2.13,0,0,0-.68.47,2.54,2.54,0,0,0-.51.76A3.46,3.46,0,0,0,129.78,64.41Z"/><path class="cls-3" d="M137,68.92V61.14h1.09l.11,1.12h0a5.38,5.38,0,0,1,1.11-.93,2.4,2.4,0,0,1,1.3-.38,2.22,2.22,0,0,1,1.4.39,2.31,2.31,0,0,1,.75,1.1A6.27,6.27,0,0,1,144,61.36a2.4,2.4,0,0,1,1.34-.41,2.1,2.1,0,0,1,1.78.77,3.71,3.71,0,0,1,.58,2.27v4.93h-1.31V64.17a2.79,2.79,0,0,0-.35-1.59,1.24,1.24,0,0,0-1.09-.49,2.91,2.91,0,0,0-2,1.2v5.63h-1.31V64.17a2.79,2.79,0,0,0-.35-1.59,1.28,1.28,0,0,0-1.11-.49,2.91,2.91,0,0,0-2,1.2v5.63Z"/><path class="cls-3" d="M152.06,69.11a2.36,2.36,0,0,1-1.62-.57,2.09,2.09,0,0,1-.65-1.63,2.15,2.15,0,0,1,1.14-2,9.24,9.24,0,0,1,3.63-1,3.51,3.51,0,0,0-.07-.72,1.8,1.8,0,0,0-.25-.62,1.31,1.31,0,0,0-.49-.44A1.65,1.65,0,0,0,153,62a3.12,3.12,0,0,0-1.26.26,6.21,6.21,0,0,0-1.06.57l-.51-.91a9.07,9.07,0,0,1,1.33-.68,4.41,4.41,0,0,1,1.73-.33,2.4,2.4,0,0,1,2.06.87,3.85,3.85,0,0,1,.64,2.33v4.77H154.8l-.11-.93h-.05a5.93,5.93,0,0,1-1.2.79A2.93,2.93,0,0,1,152.06,69.11Zm.39-1a2.23,2.23,0,0,0,1.06-.27,5,5,0,0,0,1.05-.77V64.86a11.93,11.93,0,0,0-1.64.3,4.41,4.41,0,0,0-1.07.42,1.58,1.58,0,0,0-.59.55,1.25,1.25,0,0,0-.19.68,1.11,1.11,0,0,0,.4,1A1.65,1.65,0,0,0,152.45,68.06Z"/><path class="cls-3" d="M159,59.54a.93.93,0,0,1-.65-.24.79.79,0,0,1-.26-.6.81.81,0,0,1,.26-.62,1,1,0,0,1,1.3,0,.81.81,0,0,1,.26.62.79.79,0,0,1-.26.6A.93.93,0,0,1,159,59.54Zm-.67,9.38V61.14h1.31v7.78Z"/><path class="cls-3" d="M163.66,69.11a1.23,1.23,0,0,1-1.07-.45,2.24,2.24,0,0,1-.32-1.31V57.53h1.31v9.92a.67.67,0,0,0,.12.45A.33.33,0,0,0,164,68h.12l.17,0,.18,1a1.26,1.26,0,0,1-.31.09A2.72,2.72,0,0,1,163.66,69.11Z"/><path class="cls-3" d="M171.34,69.11a2.36,2.36,0,0,1-1.62-.57,2.09,2.09,0,0,1-.65-1.63,2.15,2.15,0,0,1,1.14-2,9.24,9.24,0,0,1,3.63-1,3.51,3.51,0,0,0-.07-.72,1.8,1.8,0,0,0-.25-.62,1.31,1.31,0,0,0-.49-.44,1.68,1.68,0,0,0-.79-.17,3.12,3.12,0,0,0-1.26.26,6.21,6.21,0,0,0-1.06.57l-.51-.91a8.59,8.59,0,0,1,1.33-.68,4.39,4.39,0,0,1,1.72-.33,2.41,2.41,0,0,1,2.07.87,3.85,3.85,0,0,1,.64,2.33v4.77h-1.09L174,68h-.05a5.93,5.93,0,0,1-1.2.79A3,3,0,0,1,171.34,69.11Zm.39-1a2.16,2.16,0,0,0,1.05-.27,5,5,0,0,0,1.06-.77V64.86a11.93,11.93,0,0,0-1.64.3,4.41,4.41,0,0,0-1.07.42,1.58,1.58,0,0,0-.59.55,1.25,1.25,0,0,0-.19.68,1.11,1.11,0,0,0,.4,1A1.65,1.65,0,0,0,171.73,68.06Z"/><path class="cls-3" d="M180.27,69.11a2.88,2.88,0,0,1-2.34-1,4.63,4.63,0,0,1-.87-3,4.87,4.87,0,0,1,.28-1.71,3.91,3.91,0,0,1,.74-1.28,3.23,3.23,0,0,1,1.07-.82,3,3,0,0,1,1.28-.29,2.66,2.66,0,0,1,1.17.24,5.12,5.12,0,0,1,1,.66l-.07-1.33v-3h1.33V68.92h-1.09l-.11-.91h0a4.57,4.57,0,0,1-1.06.77A2.63,2.63,0,0,1,180.27,69.11Zm.29-1.1a2,2,0,0,0,1-.27,3.57,3.57,0,0,0,1-.8V62.87a3.13,3.13,0,0,0-.95-.63,2.48,2.48,0,0,0-.93-.18,1.93,1.93,0,0,0-.88.21,2.29,2.29,0,0,0-.71.61,3.08,3.08,0,0,0-.48.94,4.11,4.11,0,0,0-.17,1.21,3.66,3.66,0,0,0,.56,2.19A1.81,1.81,0,0,0,180.56,68Z"/><path class="cls-3" d="M189.15,69.11a2.88,2.88,0,0,1-2.34-1,4.63,4.63,0,0,1-.87-3,4.87,4.87,0,0,1,.28-1.71,3.91,3.91,0,0,1,.74-1.28,3.23,3.23,0,0,1,1.07-.82,3,3,0,0,1,1.28-.29,2.66,2.66,0,0,1,1.17.24,5.12,5.12,0,0,1,1,.66l-.07-1.33v-3h1.33V68.92h-1.09l-.11-.91h-.05a4.57,4.57,0,0,1-1.06.77A2.63,2.63,0,0,1,189.15,69.11Zm.29-1.1a2,2,0,0,0,1-.27,3.57,3.57,0,0,0,1-.8V62.87a3.13,3.13,0,0,0-.95-.63,2.48,2.48,0,0,0-.93-.18,1.93,1.93,0,0,0-.88.21,2.29,2.29,0,0,0-.71.61,3.08,3.08,0,0,0-.48.94A3.81,3.81,0,0,0,187.3,65a3.66,3.66,0,0,0,.56,2.19A1.81,1.81,0,0,0,189.44,68Z"/><path class="cls-3" d="M195.38,68.92V61.14h1.08l.12,1.41h0a3.66,3.66,0,0,1,1-1.17,2.05,2.05,0,0,1,1.24-.43,2.15,2.15,0,0,1,.83.16l-.25,1.15-.35-.09a2.25,2.25,0,0,0-.4,0,1.75,1.75,0,0,0-1,.4,3.14,3.14,0,0,0-.93,1.39v5Z"/><path class="cls-3" d="M203.92,69.11a3.72,3.72,0,0,1-1.46-.28,3.33,3.33,0,0,1-1.19-.8,3.7,3.7,0,0,1-.79-1.27,4.79,4.79,0,0,1-.29-1.71,4.67,4.67,0,0,1,.3-1.72,4.11,4.11,0,0,1,.78-1.29,3.6,3.6,0,0,1,1.11-.81,3.31,3.31,0,0,1,2.62,0,2.55,2.55,0,0,1,1,.74,3.3,3.3,0,0,1,.6,1.15,5.34,5.34,0,0,1,.2,1.5V65a2.66,2.66,0,0,1,0,.34h-5.25a3.06,3.06,0,0,0,.77,2,2.43,2.43,0,0,0,1.82.73,3.09,3.09,0,0,0,1-.17,4.49,4.49,0,0,0,.91-.44l.46.86a6,6,0,0,1-1.14.56A3.91,3.91,0,0,1,203.92,69.11Zm-2.45-4.7h4.16a2.82,2.82,0,0,0-.5-1.8,1.74,1.74,0,0,0-1.42-.62,2.1,2.1,0,0,0-.79.16,2.24,2.24,0,0,0-.68.47,2.71,2.71,0,0,0-.5.76A3.18,3.18,0,0,0,201.47,64.41Z"/><path class="cls-3" d="M210.74,69.11a4.24,4.24,0,0,1-1.59-.3,4.82,4.82,0,0,1-1.31-.77l.66-.88a5.23,5.23,0,0,0,1,.67,2.86,2.86,0,0,0,1.24.26,1.69,1.69,0,0,0,1.16-.35,1.17,1.17,0,0,0,.38-.87.88.88,0,0,0-.16-.53,1.7,1.7,0,0,0-.41-.39,2.53,2.53,0,0,0-.57-.29l-.64-.26c-.27-.1-.55-.2-.83-.33a3.25,3.25,0,0,1-.74-.45,2.24,2.24,0,0,1-.54-.61,1.65,1.65,0,0,1-.21-.85,2.13,2.13,0,0,1,.19-.87,2,2,0,0,1,.53-.71,2.6,2.6,0,0,1,.84-.46,3.7,3.7,0,0,1,2.47.09,4.35,4.35,0,0,1,1.06.62l-.62.83a4.75,4.75,0,0,0-.83-.49,2.3,2.3,0,0,0-1-.19,1.52,1.52,0,0,0-1.08.33,1.08,1.08,0,0,0-.34.79.82.82,0,0,0,.14.47,1.48,1.48,0,0,0,.39.35,3.13,3.13,0,0,0,.55.27l.65.25.84.34a3,3,0,0,1,.76.44,2.28,2.28,0,0,1,.55.64,1.94,1.94,0,0,1,.21.93,2.26,2.26,0,0,1-.18.9,2,2,0,0,1-.54.73,2.46,2.46,0,0,1-.9.51A3.86,3.86,0,0,1,210.74,69.11Z"/><path class="cls-3" d="M217.44,69.11a4.23,4.23,0,0,1-1.58-.3,4.88,4.88,0,0,1-1.32-.77l.66-.88a5,5,0,0,0,1.05.67,2.83,2.83,0,0,0,1.24.26,1.68,1.68,0,0,0,1.15-.35,1.13,1.13,0,0,0,.38-.87.88.88,0,0,0-.16-.53,1.65,1.65,0,0,0-.4-.39,3,3,0,0,0-.57-.29l-.64-.26a8.43,8.43,0,0,1-.83-.33,3.11,3.11,0,0,1-.75-.45,2,2,0,0,1-.53-.61,1.65,1.65,0,0,1-.21-.85,2.12,2.12,0,0,1,.18-.87,2,2,0,0,1,.53-.71,2.6,2.6,0,0,1,.84-.46,3.7,3.7,0,0,1,2.47.09,4.42,4.42,0,0,1,1.07.62l-.63.83a4.11,4.11,0,0,0-.83-.49,2.26,2.26,0,0,0-.94-.19,1.52,1.52,0,0,0-1.08.33,1.09,1.09,0,0,0-.35.79.75.75,0,0,0,.15.47,1.29,1.29,0,0,0,.38.35,3.13,3.13,0,0,0,.55.27l.65.25.84.34a2.85,2.85,0,0,1,.76.44,2.13,2.13,0,0,1,.55.64,1.83,1.83,0,0,1,.22.93,2.11,2.11,0,0,1-.19.9,2,2,0,0,1-.54.73,2.46,2.46,0,0,1-.9.51A3.78,3.78,0,0,1,217.44,69.11Z"/><path class="cls-3" d="M225.26,69.11a3.72,3.72,0,0,1-1.46-.28,3.3,3.3,0,0,1-1.18-.8,3.72,3.72,0,0,1-.8-1.27,4.79,4.79,0,0,1-.28-1.71,4.67,4.67,0,0,1,.29-1.72,4,4,0,0,1,.79-1.29,3.38,3.38,0,0,1,1.11-.81A3.22,3.22,0,0,1,225,61a3.27,3.27,0,0,1,1.32.26,2.48,2.48,0,0,1,1,.74,3.3,3.3,0,0,1,.6,1.15,5,5,0,0,1,.21,1.5c0,.14,0,.28,0,.41a2.66,2.66,0,0,1,0,.34h-5.25a3,3,0,0,0,.78,2,2.41,2.41,0,0,0,1.81.73,3.15,3.15,0,0,0,1-.17,4.68,4.68,0,0,0,.9-.44l.46.86a6.26,6.26,0,0,1-1.13.56A4,4,0,0,1,225.26,69.11Zm-2.45-4.7H227a2.76,2.76,0,0,0-.51-1.8,1.72,1.72,0,0,0-1.41-.62,2.15,2.15,0,0,0-.8.16,2.37,2.37,0,0,0-.68.47,2.71,2.71,0,0,0-.5.76A3.78,3.78,0,0,0,222.81,64.41Z"/><path class="cls-3" d="M232.08,69.11a4.28,4.28,0,0,1-1.59-.3,5,5,0,0,1-1.31-.77l.66-.88a5,5,0,0,0,1,.67,2.83,2.83,0,0,0,1.24.26,1.68,1.68,0,0,0,1.15-.35,1.17,1.17,0,0,0,.38-.87.88.88,0,0,0-.16-.53,1.65,1.65,0,0,0-.4-.39,3,3,0,0,0-.57-.29l-.64-.26a8.43,8.43,0,0,1-.83-.33,3.11,3.11,0,0,1-.75-.45,2.24,2.24,0,0,1-.54-.61,1.75,1.75,0,0,1-.2-.85,2.12,2.12,0,0,1,.18-.87,2,2,0,0,1,.53-.71,2.6,2.6,0,0,1,.84-.46,3.7,3.7,0,0,1,2.47.09,4.17,4.17,0,0,1,1.06.62l-.62.83a4.41,4.41,0,0,0-.83-.49,2.27,2.27,0,0,0-.95-.19,1.47,1.47,0,0,0-1.07.33,1.09,1.09,0,0,0-.35.79.75.75,0,0,0,.15.47,1.29,1.29,0,0,0,.38.35,3.13,3.13,0,0,0,.55.27l.65.25.84.34a2.85,2.85,0,0,1,.76.44,2.13,2.13,0,0,1,.55.64,1.94,1.94,0,0,1,.22.93,2.11,2.11,0,0,1-.19.9,2,2,0,0,1-.54.73,2.46,2.46,0,0,1-.9.51A3.78,3.78,0,0,1,232.08,69.11Z"/><path class="cls-3" d="M240,68.92V57.53h1.31v3.1l0,1.6a7.39,7.39,0,0,1,1.16-.9,2.68,2.68,0,0,1,1.43-.38,2.1,2.1,0,0,1,1.8.77,3.78,3.78,0,0,1,.57,2.27v4.93h-1.32V64.17a2.71,2.71,0,0,0-.35-1.59,1.27,1.27,0,0,0-1.12-.49,1.94,1.94,0,0,0-1.07.3,7.38,7.38,0,0,0-1.06.9v5.63Z"/><path class="cls-3" d="M250.45,69.11a2.4,2.4,0,0,1-1.63-.57,2.08,2.08,0,0,1-.64-1.63,2.14,2.14,0,0,1,1.13-2,9.24,9.24,0,0,1,3.63-1,3.51,3.51,0,0,0-.07-.72,1.8,1.8,0,0,0-.25-.62,1.28,1.28,0,0,0-.48-.44,1.72,1.72,0,0,0-.8-.17,3.16,3.16,0,0,0-1.26.26,6.21,6.21,0,0,0-1.06.57l-.51-.91a9.07,9.07,0,0,1,1.33-.68,4.41,4.41,0,0,1,1.73-.33,2.39,2.39,0,0,1,2.06.87,3.85,3.85,0,0,1,.64,2.33v4.77h-1.09l-.11-.93h0a5.93,5.93,0,0,1-1.2.79A2.92,2.92,0,0,1,250.45,69.11Zm.38-1a2.2,2.2,0,0,0,1.06-.27,5,5,0,0,0,1.05-.77V64.86a12.22,12.22,0,0,0-1.64.3,4.41,4.41,0,0,0-1.07.42,1.58,1.58,0,0,0-.59.55,1.33,1.33,0,0,0-.18.68,1.11,1.11,0,0,0,.39,1A1.67,1.67,0,0,0,250.83,68.06Z"/><path class="cls-3" d="M258.4,68.92l-2.8-7.78H257l1.47,4.42.36,1.15q.18.58.36,1.14h.06q.18-.55.36-1.14c.11-.38.23-.76.35-1.15l1.47-4.42h1.3l-2.75,7.78Z"/><path class="cls-3" d="M267.28,69.11a3.81,3.81,0,0,1-1.47-.28,3.38,3.38,0,0,1-1.18-.8,3.7,3.7,0,0,1-.79-1.27,4.79,4.79,0,0,1-.29-1.71,4.67,4.67,0,0,1,.3-1.72,3.94,3.94,0,0,1,.78-1.29,3.6,3.6,0,0,1,1.11-.81,3.31,3.31,0,0,1,2.62,0,2.45,2.45,0,0,1,1,.74,3.16,3.16,0,0,1,.61,1.15,5.34,5.34,0,0,1,.2,1.5V65a2.66,2.66,0,0,1,0,.34h-5.25a3.06,3.06,0,0,0,.77,2,2.43,2.43,0,0,0,1.82.73,3.09,3.09,0,0,0,1-.17,4.17,4.17,0,0,0,.9-.44l.47.86a6,6,0,0,1-1.14.56A3.91,3.91,0,0,1,267.28,69.11Zm-2.45-4.7H269a2.82,2.82,0,0,0-.5-1.8,1.74,1.74,0,0,0-1.42-.62,2.1,2.1,0,0,0-.79.16,2.24,2.24,0,0,0-.68.47,2.71,2.71,0,0,0-.5.76A3.18,3.18,0,0,0,264.83,64.41Z"/><path class="cls-3" d="M278.7,69.11a2.84,2.84,0,0,1-1.13-.26,4.43,4.43,0,0,1-1.09-.73h-.05l-.11.8h-1.06V57.53h1.31v3.1l0,1.41a5.83,5.83,0,0,1,1.15-.78A3,3,0,0,1,279,61a3.05,3.05,0,0,1,1.32.28,2.69,2.69,0,0,1,1,.8,3.71,3.71,0,0,1,.59,1.25,5.92,5.92,0,0,1,.2,1.63,5.39,5.39,0,0,1-.27,1.77,4.06,4.06,0,0,1-.74,1.33,3.06,3.06,0,0,1-2.35,1.1Zm-.22-1.1a1.83,1.83,0,0,0,.89-.22,2,2,0,0,0,.7-.61,2.86,2.86,0,0,0,.46-1,4.4,4.4,0,0,0,.17-1.3,5.29,5.29,0,0,0-.11-1.17,2.43,2.43,0,0,0-.36-.9,1.81,1.81,0,0,0-.64-.59,2.07,2.07,0,0,0-.94-.2,3.24,3.24,0,0,0-2.08,1v4.08a3.25,3.25,0,0,0,1,.63A2.5,2.5,0,0,0,278.48,68Z"/><path class="cls-3" d="M287.26,69.11a3.72,3.72,0,0,1-1.46-.28,3.42,3.42,0,0,1-1.19-.8,3.7,3.7,0,0,1-.79-1.27,4.79,4.79,0,0,1-.29-1.71,4.67,4.67,0,0,1,.3-1.72,4.11,4.11,0,0,1,.78-1.29,3.53,3.53,0,0,1,1.12-.81A3.18,3.18,0,0,1,287,61a3.27,3.27,0,0,1,1.32.26,2.48,2.48,0,0,1,1,.74,3.3,3.3,0,0,1,.6,1.15,5,5,0,0,1,.21,1.5c0,.14,0,.28,0,.41a2.66,2.66,0,0,1,0,.34h-5.25a3,3,0,0,0,.78,2,2.41,2.41,0,0,0,1.81.73,3,3,0,0,0,1-.17,4.49,4.49,0,0,0,.91-.44l.46.86a6.26,6.26,0,0,1-1.13.56A4,4,0,0,1,287.26,69.11Zm-2.45-4.7H289a2.76,2.76,0,0,0-.5-1.8,1.74,1.74,0,0,0-1.42-.62,2.14,2.14,0,0,0-.79.16,2.24,2.24,0,0,0-.68.47,2.71,2.71,0,0,0-.5.76A3.45,3.45,0,0,0,284.81,64.41Z"/><path class="cls-3" d="M295.2,69.11a3.81,3.81,0,0,1-1.47-.28,3.38,3.38,0,0,1-1.18-.8,3.7,3.7,0,0,1-.79-1.27,4.79,4.79,0,0,1-.29-1.71,4.67,4.67,0,0,1,.3-1.72,3.94,3.94,0,0,1,.78-1.29,3.6,3.6,0,0,1,1.11-.81,3.31,3.31,0,0,1,2.62,0,2.45,2.45,0,0,1,1,.74,3,3,0,0,1,.6,1.15,5,5,0,0,1,.21,1.5V65a2.66,2.66,0,0,1,0,.34h-5.25a3.06,3.06,0,0,0,.77,2,2.43,2.43,0,0,0,1.82.73,3.09,3.09,0,0,0,1-.17,4.17,4.17,0,0,0,.9-.44l.47.86a6,6,0,0,1-1.14.56A3.91,3.91,0,0,1,295.2,69.11Zm-2.45-4.7h4.16a2.82,2.82,0,0,0-.5-1.8A1.74,1.74,0,0,0,295,62a2.1,2.1,0,0,0-.79.16,2.24,2.24,0,0,0-.68.47,2.71,2.71,0,0,0-.5.76A3.18,3.18,0,0,0,292.75,64.41Z"/><path class="cls-3" d="M300,68.92V61.14h1.09l.11,1.12h.05a6.34,6.34,0,0,1,1.18-.93,2.68,2.68,0,0,1,1.43-.38,2.1,2.1,0,0,1,1.8.77,3.78,3.78,0,0,1,.57,2.27v4.93h-1.32V64.17a2.71,2.71,0,0,0-.35-1.59,1.27,1.27,0,0,0-1.12-.49,1.94,1.94,0,0,0-1.07.3,7.38,7.38,0,0,0-1.06.9v5.63Z"/><path class="cls-3" d="M313.73,69.11a2.37,2.37,0,0,1-1.63-.57,2.09,2.09,0,0,1-.65-1.63,2.15,2.15,0,0,1,1.14-2,9.24,9.24,0,0,1,3.63-1,3.51,3.51,0,0,0-.07-.72,1.8,1.8,0,0,0-.25-.62,1.31,1.31,0,0,0-.49-.44,1.65,1.65,0,0,0-.79-.17,3.12,3.12,0,0,0-1.26.26,6.21,6.21,0,0,0-1.06.57l-.51-.91a9.07,9.07,0,0,1,1.33-.68,4.41,4.41,0,0,1,1.73-.33,2.4,2.4,0,0,1,2.06.87,3.85,3.85,0,0,1,.64,2.33v4.77h-1.09l-.11-.93h-.05a5.93,5.93,0,0,1-1.2.79A2.92,2.92,0,0,1,313.73,69.11Zm.38-1a2.23,2.23,0,0,0,1.06-.27,5,5,0,0,0,1.05-.77V64.86a11.93,11.93,0,0,0-1.64.3,4.41,4.41,0,0,0-1.07.42,1.58,1.58,0,0,0-.59.55,1.25,1.25,0,0,0-.19.68,1.11,1.11,0,0,0,.4,1A1.67,1.67,0,0,0,314.11,68.06Z"/><path class="cls-3" d="M322.65,69.11a2.88,2.88,0,0,1-2.34-1,4.63,4.63,0,0,1-.87-3,4.87,4.87,0,0,1,.28-1.71,3.91,3.91,0,0,1,.74-1.28,3.23,3.23,0,0,1,1.07-.82,3,3,0,0,1,1.28-.29,2.66,2.66,0,0,1,1.17.24,5.12,5.12,0,0,1,1,.66l-.06-1.33v-3h1.32V68.92h-1.08l-.12-.91h0a4.63,4.63,0,0,1-1.07.77A2.63,2.63,0,0,1,322.65,69.11Zm.29-1.1a2.09,2.09,0,0,0,1-.27,3.57,3.57,0,0,0,1-.8V62.87a3.16,3.16,0,0,0-1-.63,2.48,2.48,0,0,0-.93-.18,1.86,1.86,0,0,0-.87.21,2.32,2.32,0,0,0-.72.61,3.08,3.08,0,0,0-.48.94A4.11,4.11,0,0,0,320.8,65a3.66,3.66,0,0,0,.56,2.19A1.81,1.81,0,0,0,322.94,68Z"/><path class="cls-3" d="M331.53,69.11a2.88,2.88,0,0,1-2.34-1,4.63,4.63,0,0,1-.87-3,4.87,4.87,0,0,1,.28-1.71,3.91,3.91,0,0,1,.74-1.28,3.23,3.23,0,0,1,1.07-.82,3,3,0,0,1,1.28-.29,2.66,2.66,0,0,1,1.17.24,5.12,5.12,0,0,1,1,.66l-.06-1.33v-3h1.32V68.92h-1.08l-.12-.91h0a4.63,4.63,0,0,1-1.07.77A2.63,2.63,0,0,1,331.53,69.11Zm.29-1.1a2.09,2.09,0,0,0,1-.27,3.57,3.57,0,0,0,1-.8V62.87a3.16,3.16,0,0,0-1-.63,2.48,2.48,0,0,0-.93-.18,1.86,1.86,0,0,0-.87.21,2.32,2.32,0,0,0-.72.61,3.08,3.08,0,0,0-.48.94,4.11,4.11,0,0,0-.17,1.21,3.66,3.66,0,0,0,.56,2.19A1.81,1.81,0,0,0,331.82,68Z"/><path class="cls-3" d="M340.91,69.11a3.72,3.72,0,0,1-1.46-.28,3.33,3.33,0,0,1-1.19-.8,3.7,3.7,0,0,1-.79-1.27,4.79,4.79,0,0,1-.29-1.71,4.67,4.67,0,0,1,.3-1.72,4.11,4.11,0,0,1,.78-1.29,3.6,3.6,0,0,1,1.11-.81,3.31,3.31,0,0,1,2.62,0,2.55,2.55,0,0,1,1,.74,3.3,3.3,0,0,1,.6,1.15,5.34,5.34,0,0,1,.2,1.5V65a2.66,2.66,0,0,1,0,.34h-5.25a3.06,3.06,0,0,0,.77,2,2.43,2.43,0,0,0,1.82.73,3.09,3.09,0,0,0,1-.17,4.49,4.49,0,0,0,.91-.44l.46.86a6,6,0,0,1-1.14.56A3.91,3.91,0,0,1,340.91,69.11Zm-2.45-4.7h4.16a2.82,2.82,0,0,0-.5-1.8A1.74,1.74,0,0,0,340.7,62a2.1,2.1,0,0,0-.79.16,2.24,2.24,0,0,0-.68.47,2.71,2.71,0,0,0-.5.76A3.18,3.18,0,0,0,338.46,64.41Z"/><path class="cls-3" d="M348.35,69.11a2.88,2.88,0,0,1-2.34-1,4.58,4.58,0,0,1-.88-3,5.11,5.11,0,0,1,.28-1.71,4.12,4.12,0,0,1,.75-1.28,3.13,3.13,0,0,1,1.07-.82,3,3,0,0,1,1.28-.29,2.66,2.66,0,0,1,1.17.24,5.42,5.42,0,0,1,1,.66l-.07-1.33v-3H352V68.92h-1.09l-.11-.91h-.05a4.57,4.57,0,0,1-1.06.77A2.63,2.63,0,0,1,348.35,69.11Zm.29-1.1a2,2,0,0,0,1-.27,3.57,3.57,0,0,0,1-.8V62.87a3.25,3.25,0,0,0-.95-.63,2.53,2.53,0,0,0-.94-.18,1.86,1.86,0,0,0-.87.21,2.29,2.29,0,0,0-.71.61,3.08,3.08,0,0,0-.48.94,3.8,3.8,0,0,0-.18,1.21,3.73,3.73,0,0,0,.56,2.19A1.83,1.83,0,0,0,348.64,68Z"/><path class="cls-3" d="M354.33,71.64l-.32-.77a2.66,2.66,0,0,0,1.08-.81,1.77,1.77,0,0,0,.36-1.14l-.16,0a1,1,0,0,1-.66-.24.81.81,0,0,1-.28-.68.84.84,0,0,1,.29-.68,1,1,0,0,1,.69-.24.93.93,0,0,1,.8.41,1.93,1.93,0,0,1,.3,1.14,3,3,0,0,1-.56,1.81A3.62,3.62,0,0,1,354.33,71.64Z"/><path class="cls-3" d="M364.21,69.11a2.5,2.5,0,0,1-1-.19,1.83,1.83,0,0,1-.69-.53,2,2,0,0,1-.38-.81,4.93,4.93,0,0,1-.11-1.06v-4.3h-1.15v-1l1.22-.08.16-2.17h1.1v2.17h2.1v1.08h-2.1v4.32a2,2,0,0,0,.26,1.11,1.06,1.06,0,0,0,.94.39A1.86,1.86,0,0,0,365,68a3.58,3.58,0,0,0,.43-.15l.26,1a4.77,4.77,0,0,1-.7.2A3.18,3.18,0,0,1,364.21,69.11Z"/><path class="cls-3" d="M367.16,68.92V57.53h1.32v3.1l-.05,1.6a7,7,0,0,1,1.17-.9A2.64,2.64,0,0,1,371,61a2.1,2.1,0,0,1,1.8.77,3.78,3.78,0,0,1,.57,2.27v4.93h-1.31V64.17a2.79,2.79,0,0,0-.35-1.59,1.29,1.29,0,0,0-1.13-.49,1.94,1.94,0,0,0-1.07.3,6.86,6.86,0,0,0-1,.9v5.63Z"/><path class="cls-3" d="M379,69.11a3.72,3.72,0,0,1-1.46-.28,3.33,3.33,0,0,1-1.19-.8,3.7,3.7,0,0,1-.79-1.27,4.79,4.79,0,0,1-.29-1.71,4.67,4.67,0,0,1,.3-1.72,4.11,4.11,0,0,1,.78-1.29,3.6,3.6,0,0,1,1.11-.81,3.31,3.31,0,0,1,2.62,0,2.48,2.48,0,0,1,1,.74,3.3,3.3,0,0,1,.6,1.15,5,5,0,0,1,.21,1.5c0,.14,0,.28,0,.41a2.66,2.66,0,0,1,0,.34h-5.25a3.06,3.06,0,0,0,.77,2,2.43,2.43,0,0,0,1.82.73,3.09,3.09,0,0,0,1-.17,4.49,4.49,0,0,0,.91-.44l.46.86a6,6,0,0,1-1.14.56A3.91,3.91,0,0,1,379,69.11Zm-2.45-4.7h4.16a2.82,2.82,0,0,0-.5-1.8,1.74,1.74,0,0,0-1.42-.62,2.14,2.14,0,0,0-.79.16,2.24,2.24,0,0,0-.68.47,2.71,2.71,0,0,0-.5.76A3.45,3.45,0,0,0,376.57,64.41Z"/><path class="cls-3" d="M91.44,93.11A3.72,3.72,0,0,1,90,92.83a3.33,3.33,0,0,1-1.19-.8A3.7,3.7,0,0,1,88,90.76a4.79,4.79,0,0,1-.29-1.71,4.67,4.67,0,0,1,.3-1.72A4.11,4.11,0,0,1,88.79,86a3.53,3.53,0,0,1,1.12-.81A3.18,3.18,0,0,1,91.2,85a3.27,3.27,0,0,1,1.32.26,2.48,2.48,0,0,1,1,.74,3.3,3.3,0,0,1,.6,1.15,5,5,0,0,1,.21,1.5c0,.14,0,.28,0,.41a2.66,2.66,0,0,1,0,.34H89a3,3,0,0,0,.78,2,2.39,2.39,0,0,0,1.81.73,3,3,0,0,0,1-.17,4.49,4.49,0,0,0,.91-.44l.46.86a6.26,6.26,0,0,1-1.13.56A4,4,0,0,1,91.44,93.11ZM89,88.41h4.16a2.76,2.76,0,0,0-.5-1.8A1.74,1.74,0,0,0,91.23,86a2.14,2.14,0,0,0-.79.16,2.24,2.24,0,0,0-.68.47,2.71,2.71,0,0,0-.5.76A3.45,3.45,0,0,0,89,88.41Z"/><path class="cls-3" d="M96.23,92.92V85.14h1.08l.12,1.12h0a5.43,5.43,0,0,1,1.12-.93,2.4,2.4,0,0,1,1.3-.38,2.24,2.24,0,0,1,1.4.39,2.29,2.29,0,0,1,.74,1.1,6.61,6.61,0,0,1,1.23-1.08,2.37,2.37,0,0,1,1.33-.41,2.12,2.12,0,0,1,1.79.77A3.71,3.71,0,0,1,107,88v4.93h-1.31V88.17a2.79,2.79,0,0,0-.35-1.59,1.25,1.25,0,0,0-1.09-.49,2.87,2.87,0,0,0-1.95,1.2v5.63H101V88.17a2.7,2.7,0,0,0-.36-1.59,1.25,1.25,0,0,0-1.1-.49,2.87,2.87,0,0,0-1.95,1.2v5.63Z"/><path class="cls-3" d="M111.28,93.11a2.36,2.36,0,0,1-1.62-.57,2.09,2.09,0,0,1-.65-1.63,2.15,2.15,0,0,1,1.14-2,9.14,9.14,0,0,1,3.63-1,4.39,4.39,0,0,0-.07-.72,1.8,1.8,0,0,0-.25-.62,1.31,1.31,0,0,0-.49-.44,1.68,1.68,0,0,0-.79-.17,3.21,3.21,0,0,0-1.27.26,6.5,6.5,0,0,0-1,.57l-.51-.91a8.92,8.92,0,0,1,1.32-.68A4.44,4.44,0,0,1,112.4,85a2.41,2.41,0,0,1,2.07.87,3.92,3.92,0,0,1,.64,2.33v4.77H114l-.11-.93h0a6.54,6.54,0,0,1-1.2.79A3,3,0,0,1,111.28,93.11Zm.39-1a2.16,2.16,0,0,0,1-.27,5.28,5.28,0,0,0,1.06-.77V88.86a11.93,11.93,0,0,0-1.64.3,4.41,4.41,0,0,0-1.07.42,1.62,1.62,0,0,0-.6.55,1.33,1.33,0,0,0-.18.68,1.09,1.09,0,0,0,.4,1A1.65,1.65,0,0,0,111.67,92.06Z"/><path class="cls-3" d="M118.23,83.54a.92.92,0,0,1-.65-.24.77.77,0,0,1-.27-.6.78.78,0,0,1,.27-.62,1,1,0,0,1,1.29,0,.78.78,0,0,1,.27.62.77.77,0,0,1-.27.6A.91.91,0,0,1,118.23,83.54Zm-.68,9.38V85.14h1.32v7.78Z"/><path class="cls-3" d="M122.88,93.11a1.22,1.22,0,0,1-1.07-.45,2.24,2.24,0,0,1-.32-1.31V81.53h1.31v9.92a.74.74,0,0,0,.11.45.35.35,0,0,0,.26.12h.12l.17,0,.17,1a1.07,1.07,0,0,1-.3.09A2.81,2.81,0,0,1,122.88,93.11Z"/><path class="cls-3" d="M130.56,93.11a2.36,2.36,0,0,1-1.62-.57,2.09,2.09,0,0,1-.65-1.63,2.15,2.15,0,0,1,1.14-2,9.14,9.14,0,0,1,3.63-1,4.39,4.39,0,0,0-.07-.72,2,2,0,0,0-.25-.62,1.31,1.31,0,0,0-.49-.44,1.68,1.68,0,0,0-.79-.17,3.21,3.21,0,0,0-1.27.26,6.5,6.5,0,0,0-1.05.57l-.51-.91a8.92,8.92,0,0,1,1.32-.68,4.44,4.44,0,0,1,1.73-.33,2.41,2.41,0,0,1,2.07.87,3.92,3.92,0,0,1,.64,2.33v4.77H133.3l-.11-.93h-.05a6.54,6.54,0,0,1-1.2.79A3,3,0,0,1,130.56,93.11Zm.39-1a2.16,2.16,0,0,0,1.05-.27,5.28,5.28,0,0,0,1.06-.77V88.86a11.93,11.93,0,0,0-1.64.3,4.41,4.41,0,0,0-1.07.42,1.62,1.62,0,0,0-.6.55,1.33,1.33,0,0,0-.18.68,1.09,1.09,0,0,0,.4,1A1.65,1.65,0,0,0,131,92.06Z"/><path class="cls-3" d="M139.49,93.11a2.88,2.88,0,0,1-2.34-1,4.58,4.58,0,0,1-.88-3,5.11,5.11,0,0,1,.28-1.71,4.12,4.12,0,0,1,.75-1.28,3.13,3.13,0,0,1,1.07-.82,3,3,0,0,1,1.28-.29,2.66,2.66,0,0,1,1.17.24,5.06,5.06,0,0,1,1,.66l-.06-1.33v-3h1.33V92.92H142l-.11-.91h0a4.57,4.57,0,0,1-1.06.77A2.63,2.63,0,0,1,139.49,93.11Zm.29-1.1a2,2,0,0,0,1-.27,3.57,3.57,0,0,0,1-.8V86.87a3.25,3.25,0,0,0-.95-.63,2.53,2.53,0,0,0-.94-.18,1.86,1.86,0,0,0-.87.21,2.29,2.29,0,0,0-.71.61,3.08,3.08,0,0,0-.48.94,3.8,3.8,0,0,0-.18,1.21,3.73,3.73,0,0,0,.56,2.19A1.83,1.83,0,0,0,139.78,92Z"/><path class="cls-3" d="M148.37,93.11a2.92,2.92,0,0,1-2.35-1,4.63,4.63,0,0,1-.87-3,5.11,5.11,0,0,1,.28-1.71,4.12,4.12,0,0,1,.75-1.28,3.13,3.13,0,0,1,1.07-.82,3,3,0,0,1,1.28-.29,2.66,2.66,0,0,1,1.17.24,5.06,5.06,0,0,1,1,.66l-.06-1.33v-3H152V92.92h-1.09l-.11-.91h-.05a4.57,4.57,0,0,1-1.06.77A2.63,2.63,0,0,1,148.37,93.11Zm.29-1.1a2,2,0,0,0,1-.27,3.57,3.57,0,0,0,1-.8V86.87a3.25,3.25,0,0,0-.95-.63,2.53,2.53,0,0,0-.94-.18,1.86,1.86,0,0,0-.87.21,2.29,2.29,0,0,0-.71.61,3.08,3.08,0,0,0-.48.94,3.8,3.8,0,0,0-.18,1.21,3.73,3.73,0,0,0,.56,2.19A1.83,1.83,0,0,0,148.66,92Z"/><path class="cls-3" d="M154.59,92.92V85.14h1.09l.11,1.41h.05a3.66,3.66,0,0,1,1-1.17,2.05,2.05,0,0,1,1.24-.43,2.15,2.15,0,0,1,.83.16l-.26,1.15-.35-.09a2.17,2.17,0,0,0-.4,0,1.72,1.72,0,0,0-1,.4,3.15,3.15,0,0,0-.94,1.39v5Z"/><path class="cls-3" d="M163.14,93.11a3.77,3.77,0,0,1-1.47-.28,3.3,3.3,0,0,1-1.18-.8,3.56,3.56,0,0,1-.79-1.27,4.58,4.58,0,0,1-.29-1.71,4.88,4.88,0,0,1,.29-1.72,4,4,0,0,1,.79-1.29,3.38,3.38,0,0,1,1.11-.81,3.31,3.31,0,0,1,2.62,0,2.45,2.45,0,0,1,1,.74,3.3,3.3,0,0,1,.6,1.15,5,5,0,0,1,.21,1.5c0,.14,0,.28,0,.41a1.59,1.59,0,0,1,0,.34H160.7a3.12,3.12,0,0,0,.78,2,2.42,2.42,0,0,0,1.82.73,3.13,3.13,0,0,0,1-.17,4.68,4.68,0,0,0,.9-.44l.47.86a6.36,6.36,0,0,1-1.14.56A4,4,0,0,1,163.14,93.11Zm-2.45-4.7h4.16a2.76,2.76,0,0,0-.51-1.8,1.71,1.71,0,0,0-1.41-.62,2.1,2.1,0,0,0-.79.16,2.24,2.24,0,0,0-.68.47,2.74,2.74,0,0,0-.51.76A3.46,3.46,0,0,0,160.69,88.41Z"/><path class="cls-3" d="M170,93.11a4.23,4.23,0,0,1-1.58-.3,4.82,4.82,0,0,1-1.31-.77l.65-.88a5,5,0,0,0,1,.67,2.86,2.86,0,0,0,1.24.26,1.66,1.66,0,0,0,1.15-.35,1.14,1.14,0,0,0,.39-.87,1,1,0,0,0-.16-.53A1.91,1.91,0,0,0,171,90a3,3,0,0,0-.57-.29l-.64-.26c-.28-.1-.55-.2-.83-.33a2.87,2.87,0,0,1-.74-.45,2.24,2.24,0,0,1-.54-.61,1.65,1.65,0,0,1-.21-.85,2.12,2.12,0,0,1,.18-.87,2.17,2.17,0,0,1,.53-.71,2.6,2.6,0,0,1,.84-.46,3.73,3.73,0,0,1,2.48.09,4.35,4.35,0,0,1,1.06.62l-.63.83a4.11,4.11,0,0,0-.83-.49,2.26,2.26,0,0,0-.94-.19,1.52,1.52,0,0,0-1.08.33,1.09,1.09,0,0,0-.35.79.75.75,0,0,0,.15.47,1.29,1.29,0,0,0,.38.35,3.52,3.52,0,0,0,.55.27l.65.25.84.34a2.7,2.7,0,0,1,.76.44,2,2,0,0,1,.55.64,1.83,1.83,0,0,1,.22.93,2.26,2.26,0,0,1-.18.9,2.17,2.17,0,0,1-.55.73,2.5,2.5,0,0,1-.89.51A3.88,3.88,0,0,1,170,93.11Z"/><path class="cls-3" d="M176.66,93.11a4.24,4.24,0,0,1-1.59-.3,4.82,4.82,0,0,1-1.31-.77l.66-.88a5,5,0,0,0,1.05.67,2.82,2.82,0,0,0,1.23.26,1.69,1.69,0,0,0,1.16-.35,1.17,1.17,0,0,0,.38-.87.88.88,0,0,0-.16-.53,1.7,1.7,0,0,0-.41-.39,2.53,2.53,0,0,0-.57-.29l-.63-.26c-.28-.1-.56-.2-.84-.33a3.25,3.25,0,0,1-.74-.45,2.24,2.24,0,0,1-.54-.61,1.65,1.65,0,0,1-.2-.85,2.12,2.12,0,0,1,.18-.87,2,2,0,0,1,.53-.71,2.6,2.6,0,0,1,.84-.46,3.7,3.7,0,0,1,2.47.09,4.35,4.35,0,0,1,1.06.62l-.62.83a4.75,4.75,0,0,0-.83-.49,2.3,2.3,0,0,0-.95-.19,1.52,1.52,0,0,0-1.08.33,1.08,1.08,0,0,0-.34.79.82.82,0,0,0,.14.47,1.48,1.48,0,0,0,.39.35,3.13,3.13,0,0,0,.55.27l.65.25.84.34a3,3,0,0,1,.76.44,2.13,2.13,0,0,1,.55.64,1.94,1.94,0,0,1,.22.93,2.27,2.27,0,0,1-.19.9,2,2,0,0,1-.54.73,2.46,2.46,0,0,1-.9.51A3.82,3.82,0,0,1,176.66,93.11Z"/><path class="cls-3" d="M185.76,92.92l-2.16-7.78h1.34l1.16,4.5c.08.37.16.74.24,1.09s.15.71.22,1.07h.06c.09-.36.17-.72.26-1.08l.27-1.08,1.2-4.5h1.28l1.22,4.5c.09.37.19.74.28,1.09s.18.71.26,1.07h.07l.24-1.07c.07-.35.15-.72.24-1.09l1.13-4.5h1.25l-2.08,7.78h-1.6l-1.12-4.18c-.1-.37-.18-.74-.26-1.1s-.17-.74-.27-1.14h-.06c-.09.4-.17.78-.26,1.15s-.18.74-.29,1.11l-1.08,4.16Z"/><path class="cls-3" d="M196.69,83.54a.93.93,0,0,1-.65-.24.76.76,0,0,1-.26-.6.77.77,0,0,1,.26-.62,1,1,0,0,1,.65-.23,1,1,0,0,1,.65.23.81.81,0,0,1,.26.62.79.79,0,0,1-.26.6A1,1,0,0,1,196.69,83.54ZM196,92.92V85.14h1.31v7.78Z"/><path class="cls-3" d="M202.4,93.11a2.5,2.5,0,0,1-1.05-.19,1.83,1.83,0,0,1-.69-.53,2,2,0,0,1-.37-.81,4.37,4.37,0,0,1-.11-1.06v-4.3H199v-1l1.22-.08L200.4,83h1.1v2.17h2.1v1.08h-2.1v4.32a1.94,1.94,0,0,0,.27,1.11,1,1,0,0,0,.93.39,1.86,1.86,0,0,0,.45-.06,3.05,3.05,0,0,0,.43-.15l.26,1a4.15,4.15,0,0,1-.7.2A3.12,3.12,0,0,1,202.4,93.11Z"/><path class="cls-3" d="M205.36,92.92V81.53h1.31v3.1l0,1.6a8,8,0,0,1,1.17-.9,2.68,2.68,0,0,1,1.43-.38,2.1,2.1,0,0,1,1.8.77,3.86,3.86,0,0,1,.56,2.27v4.93h-1.31V88.17a2.79,2.79,0,0,0-.35-1.59,1.27,1.27,0,0,0-1.12-.49,1.91,1.91,0,0,0-1.07.3,7.38,7.38,0,0,0-1.06.9v5.63Z"/><path class="cls-3" d="M219.71,93.11a2.56,2.56,0,0,1-1.05-.19,1.72,1.72,0,0,1-.68-.53,1.9,1.9,0,0,1-.38-.81,4.37,4.37,0,0,1-.11-1.06v-4.3h-1.15v-1l1.21-.08.16-2.17h1.11v2.17h2.09v1.08h-2.09v4.32a1.94,1.94,0,0,0,.26,1.11A1.06,1.06,0,0,0,220,92a1.85,1.85,0,0,0,.44-.06,3.76,3.76,0,0,0,.44-.15l.25,1a4.31,4.31,0,0,1-.69.2A3.27,3.27,0,0,1,219.71,93.11Z"/><path class="cls-3" d="M222.67,92.92V81.53H224v3.1l0,1.6a7.39,7.39,0,0,1,1.16-.9,2.68,2.68,0,0,1,1.43-.38,2.1,2.1,0,0,1,1.8.77A3.78,3.78,0,0,1,228.9,88v4.93h-1.32V88.17a2.71,2.71,0,0,0-.35-1.59,1.27,1.27,0,0,0-1.12-.49,1.94,1.94,0,0,0-1.07.3,7.38,7.38,0,0,0-1.06.9v5.63Z"/><path class="cls-3" d="M234.53,93.11a3.77,3.77,0,0,1-1.47-.28,3.38,3.38,0,0,1-1.18-.8,3.56,3.56,0,0,1-.79-1.27,4.79,4.79,0,0,1-.29-1.71,4.67,4.67,0,0,1,.3-1.72,3.77,3.77,0,0,1,.78-1.29,3.38,3.38,0,0,1,1.11-.81,3.31,3.31,0,0,1,2.62,0,2.45,2.45,0,0,1,1,.74,3.3,3.3,0,0,1,.6,1.15,5,5,0,0,1,.21,1.5c0,.14,0,.28,0,.41a1.59,1.59,0,0,1,0,.34H232.1a3.06,3.06,0,0,0,.77,2,2.43,2.43,0,0,0,1.82.73,3.13,3.13,0,0,0,1-.17,4.41,4.41,0,0,0,.9-.44l.47.86a6,6,0,0,1-1.14.56A4,4,0,0,1,234.53,93.11Zm-2.45-4.7h4.16a2.76,2.76,0,0,0-.51-1.8,1.71,1.71,0,0,0-1.41-.62,2.1,2.1,0,0,0-.79.16,2.24,2.24,0,0,0-.68.47,2.74,2.74,0,0,0-.51.76A3.46,3.46,0,0,0,232.08,88.41Z"/><path class="cls-3" d="M242.51,92.92V81.53h1.31v3.1l0,1.6a7.39,7.39,0,0,1,1.16-.9,2.68,2.68,0,0,1,1.43-.38,2.1,2.1,0,0,1,1.8.77,3.78,3.78,0,0,1,.57,2.27v4.93h-1.32V88.17a2.71,2.71,0,0,0-.35-1.59,1.27,1.27,0,0,0-1.12-.49,1.94,1.94,0,0,0-1.07.3,7.38,7.38,0,0,0-1.06.9v5.63Z"/><path class="cls-3" d="M251.89,83.54a.92.92,0,0,1-.65-.24.76.76,0,0,1-.26-.6.77.77,0,0,1,.26-.62,1,1,0,0,1,1.29,0,.78.78,0,0,1,.27.62.77.77,0,0,1-.27.6A.91.91,0,0,1,251.89,83.54Zm-.68,9.38V85.14h1.32v7.78Z"/><path class="cls-3" d="M257.77,96.5a5.94,5.94,0,0,1-1.31-.13,3.19,3.19,0,0,1-1-.41,1.89,1.89,0,0,1-.66-.66,1.74,1.74,0,0,1,.07-1.84,3.21,3.21,0,0,1,.83-.81v-.07a1.47,1.47,0,0,1-.48-.48,1.37,1.37,0,0,1-.2-.78,1.4,1.4,0,0,1,.27-.86,2.42,2.42,0,0,1,.57-.58v-.06a3.42,3.42,0,0,1-.69-.86,2.4,2.4,0,0,1-.31-1.24,2.66,2.66,0,0,1,.23-1.15,2.5,2.5,0,0,1,.63-.87,2.86,2.86,0,0,1,.94-.56,3.46,3.46,0,0,1,1.12-.19,2.77,2.77,0,0,1,.6.06,4.71,4.71,0,0,1,.51.13h2.7v1H260a2.19,2.19,0,0,1,.46.69,2.27,2.27,0,0,1,.18.91,2.75,2.75,0,0,1-.22,1.13,2.4,2.4,0,0,1-.61.85,2.71,2.71,0,0,1-.9.53,3.18,3.18,0,0,1-1.12.2,2.53,2.53,0,0,1-.59-.08,2.27,2.27,0,0,1-.57-.2,2,2,0,0,0-.36.4,1,1,0,0,0-.14.53.76.76,0,0,0,.29.61,1.76,1.76,0,0,0,1.09.24H259a3.82,3.82,0,0,1,2,.44,1.57,1.57,0,0,1,.68,1.42,2.11,2.11,0,0,1-.27,1,2.54,2.54,0,0,1-.79.85,4.08,4.08,0,0,1-1.24.59A5.88,5.88,0,0,1,257.77,96.5Zm.2-.91a3.53,3.53,0,0,0,1-.13,2.68,2.68,0,0,0,.78-.36,1.55,1.55,0,0,0,.49-.5,1.1,1.1,0,0,0,.18-.59.77.77,0,0,0-.4-.75,2.6,2.6,0,0,0-1.17-.21h-1.34L257,93a2.28,2.28,0,0,1-.52-.1,2.14,2.14,0,0,0-.61.64,1.31,1.31,0,0,0-.19.67,1.11,1.11,0,0,0,.6,1A3.12,3.12,0,0,0,258,95.59Zm-.2-6a1.56,1.56,0,0,0,1.16-.5,1.5,1.5,0,0,0,.36-.58,2.13,2.13,0,0,0,.13-.78,1.8,1.8,0,0,0-.48-1.34,1.68,1.68,0,0,0-2.33,0,1.8,1.8,0,0,0-.48,1.34,2.37,2.37,0,0,0,.12.78,1.78,1.78,0,0,0,.36.58,1.75,1.75,0,0,0,.53.37A1.69,1.69,0,0,0,257.77,89.58Z"/><path class="cls-3" d="M263.21,92.92V81.53h1.32v3.1l0,1.6a7,7,0,0,1,1.17-.9,2.64,2.64,0,0,1,1.42-.38,2.1,2.1,0,0,1,1.8.77,3.78,3.78,0,0,1,.57,2.27v4.93h-1.31V88.17a2.7,2.7,0,0,0-.36-1.59,1.26,1.26,0,0,0-1.12-.49,1.94,1.94,0,0,0-1.07.3,6.86,6.86,0,0,0-1.05.9v5.63Z"/><path class="cls-3" d="M275.07,93.11a3.72,3.72,0,0,1-1.46-.28,3.33,3.33,0,0,1-1.19-.8,3.7,3.7,0,0,1-.79-1.27,4.79,4.79,0,0,1-.29-1.71,4.67,4.67,0,0,1,.3-1.72,4.11,4.11,0,0,1,.78-1.29,3.6,3.6,0,0,1,1.11-.81,3.31,3.31,0,0,1,2.62,0,2.48,2.48,0,0,1,1,.74,3.3,3.3,0,0,1,.6,1.15,5,5,0,0,1,.21,1.5c0,.14,0,.28,0,.41a2.66,2.66,0,0,1,0,.34h-5.25a3.06,3.06,0,0,0,.77,2,2.43,2.43,0,0,0,1.82.73,3.09,3.09,0,0,0,1-.17,4.49,4.49,0,0,0,.91-.44l.46.86a6,6,0,0,1-1.14.56A3.91,3.91,0,0,1,275.07,93.11Zm-2.45-4.7h4.16a2.82,2.82,0,0,0-.5-1.8,1.74,1.74,0,0,0-1.42-.62,2.14,2.14,0,0,0-.79.16,2.24,2.24,0,0,0-.68.47,2.71,2.71,0,0,0-.5.76A3.45,3.45,0,0,0,272.62,88.41Z"/><path class="cls-3" d="M281.89,93.11a4.24,4.24,0,0,1-1.59-.3A4.82,4.82,0,0,1,279,92l.66-.88a5.23,5.23,0,0,0,1,.67,2.89,2.89,0,0,0,1.24.26,1.69,1.69,0,0,0,1.16-.35,1.17,1.17,0,0,0,.38-.87.88.88,0,0,0-.16-.53,1.7,1.7,0,0,0-.41-.39,2.53,2.53,0,0,0-.57-.29l-.64-.26c-.27-.1-.55-.2-.83-.33a3.25,3.25,0,0,1-.74-.45,2.24,2.24,0,0,1-.54-.61,1.65,1.65,0,0,1-.21-.85,2.13,2.13,0,0,1,.19-.87,2,2,0,0,1,.53-.71,2.6,2.6,0,0,1,.84-.46,3.7,3.7,0,0,1,2.47.09,4.35,4.35,0,0,1,1.06.62l-.62.83a4.75,4.75,0,0,0-.83-.49,2.3,2.3,0,0,0-.95-.19,1.52,1.52,0,0,0-1.08.33,1.08,1.08,0,0,0-.34.79.82.82,0,0,0,.14.47,1.48,1.48,0,0,0,.39.35,3.13,3.13,0,0,0,.55.27l.65.25.84.34a3,3,0,0,1,.76.44,2.28,2.28,0,0,1,.55.64,1.94,1.94,0,0,1,.21.93,2.26,2.26,0,0,1-.18.9,2,2,0,0,1-.54.73,2.46,2.46,0,0,1-.9.51A3.82,3.82,0,0,1,281.89,93.11Z"/><path class="cls-3" d="M288.69,93.11a2.5,2.5,0,0,1-1.05-.19,1.83,1.83,0,0,1-.69-.53,2,2,0,0,1-.38-.81,4.93,4.93,0,0,1-.11-1.06v-4.3h-1.15v-1l1.22-.08.16-2.17h1.1v2.17h2.1v1.08h-2.1v4.32a2,2,0,0,0,.26,1.11A1.06,1.06,0,0,0,289,92a1.86,1.86,0,0,0,.45-.06,3.58,3.58,0,0,0,.43-.15l.26,1a4.77,4.77,0,0,1-.7.2A3.18,3.18,0,0,1,288.69,93.11Z"/><path class="cls-3" d="M296.24,93.11a1.22,1.22,0,0,1-1.07-.45,2.17,2.17,0,0,1-.32-1.31V81.53h1.31v9.92a.74.74,0,0,0,.11.45.35.35,0,0,0,.26.12h.12l.16,0,.18,1a1.32,1.32,0,0,1-.3.09A2.81,2.81,0,0,1,296.24,93.11Z"/><path class="cls-3" d="M302.08,93.11a3.81,3.81,0,0,1-1.47-.28,3.38,3.38,0,0,1-1.18-.8,3.56,3.56,0,0,1-.79-1.27,4.79,4.79,0,0,1-.29-1.71,4.67,4.67,0,0,1,.3-1.72,3.77,3.77,0,0,1,.78-1.29,3.6,3.6,0,0,1,1.11-.81,3.31,3.31,0,0,1,2.62,0,2.45,2.45,0,0,1,1,.74,3,3,0,0,1,.6,1.15,5,5,0,0,1,.21,1.5c0,.14,0,.28,0,.41a1.59,1.59,0,0,1,0,.34h-5.24a3.06,3.06,0,0,0,.77,2,2.43,2.43,0,0,0,1.82.73,3.13,3.13,0,0,0,1-.17,4.41,4.41,0,0,0,.9-.44l.47.86a6,6,0,0,1-1.14.56A3.91,3.91,0,0,1,302.08,93.11Zm-2.45-4.7h4.16a2.82,2.82,0,0,0-.5-1.8,1.74,1.74,0,0,0-1.42-.62,2.1,2.1,0,0,0-.79.16,2.24,2.24,0,0,0-.68.47,2.74,2.74,0,0,0-.51.76A3.46,3.46,0,0,0,299.63,88.41Z"/><path class="cls-3" d="M308.62,92.92l-2.8-7.78h1.36l1.47,4.42.36,1.15q.19.58.36,1.14h.07c.11-.37.23-.75.35-1.14s.23-.76.35-1.15l1.47-4.42h1.3l-2.75,7.78Z"/><path class="cls-3" d="M317.5,93.11a3.72,3.72,0,0,1-1.46-.28,3.33,3.33,0,0,1-1.19-.8,3.7,3.7,0,0,1-.79-1.27,4.79,4.79,0,0,1-.29-1.71,4.67,4.67,0,0,1,.3-1.72,4.11,4.11,0,0,1,.78-1.29,3.53,3.53,0,0,1,1.12-.81,3.18,3.18,0,0,1,1.29-.28,3.27,3.27,0,0,1,1.32.26,2.48,2.48,0,0,1,1,.74,3.3,3.3,0,0,1,.6,1.15,5,5,0,0,1,.21,1.5c0,.14,0,.28,0,.41a2.66,2.66,0,0,1,0,.34h-5.25a3,3,0,0,0,.78,2,2.39,2.39,0,0,0,1.81.73,3.09,3.09,0,0,0,1-.17,4.49,4.49,0,0,0,.91-.44l.46.86a6.26,6.26,0,0,1-1.13.56A4,4,0,0,1,317.5,93.11Zm-2.45-4.7h4.16a2.76,2.76,0,0,0-.5-1.8,1.74,1.74,0,0,0-1.42-.62,2.14,2.14,0,0,0-.79.16,2.24,2.24,0,0,0-.68.47,2.71,2.71,0,0,0-.5.76A3.45,3.45,0,0,0,315.05,88.41Z"/><path class="cls-3" d="M323.68,93.11a1.25,1.25,0,0,1-1.08-.45,2.24,2.24,0,0,1-.32-1.31V81.53h1.32v9.92a.68.68,0,0,0,.11.45A.34.34,0,0,0,324,92h.12l.16,0,.18,1a1.32,1.32,0,0,1-.3.09A2.81,2.81,0,0,1,323.68,93.11Z"/><path class="cls-3" d="M332.59,93.11a3.52,3.52,0,0,1-1.37-.27,3.3,3.3,0,0,1-1.14-.79,3.75,3.75,0,0,1-.79-1.28,4.67,4.67,0,0,1-.3-1.72,4.74,4.74,0,0,1,.3-1.74,4,4,0,0,1,.79-1.29,3.47,3.47,0,0,1,1.14-.8,3.61,3.61,0,0,1,2.74,0,3.47,3.47,0,0,1,1.14.8,4,4,0,0,1,.79,1.29,4.74,4.74,0,0,1,.3,1.74,4.67,4.67,0,0,1-.3,1.72,3.75,3.75,0,0,1-.79,1.28,3.3,3.3,0,0,1-1.14.79A3.52,3.52,0,0,1,332.59,93.11Zm0-1.09a2,2,0,0,0,.91-.21,2.08,2.08,0,0,0,.71-.61,2.85,2.85,0,0,0,.46-.94,4.12,4.12,0,0,0,.16-1.21,4.31,4.31,0,0,0-.16-1.23,3.11,3.11,0,0,0-.46-.95,2,2,0,0,0-.71-.61,1.88,1.88,0,0,0-.91-.22,1.86,1.86,0,0,0-.91.22,2,2,0,0,0-.71.61,3.11,3.11,0,0,0-.46.95,4.31,4.31,0,0,0-.16,1.23,4.12,4.12,0,0,0,.16,1.21,2.85,2.85,0,0,0,.46.94,2.08,2.08,0,0,0,.71.61A2,2,0,0,0,332.59,92Z"/><path class="cls-3" d="M338.46,92.92v-6.7h-1v-1l1-.08V83.91A3,3,0,0,1,339,82a2.1,2.1,0,0,1,1.72-.68,3.14,3.14,0,0,1,.7.07,4.27,4.27,0,0,1,.6.18l-.29,1a2.12,2.12,0,0,0-.88-.19c-.72,0-1.09.5-1.09,1.5v1.23h1.65v1.08h-1.65v6.7Z"/><path class="cls-3" d="M346.11,92.92V85.14h1.09l.11,1.41h.05a3.54,3.54,0,0,1,1-1.17,2,2,0,0,1,1.23-.43,2.24,2.24,0,0,1,.84.16l-.26,1.15-.35-.09a2.25,2.25,0,0,0-.4,0,1.7,1.7,0,0,0-1,.4,3.15,3.15,0,0,0-.94,1.39v5Z"/><path class="cls-3" d="M352.33,83.54a.91.91,0,0,1-.64-.24.77.77,0,0,1-.27-.6.78.78,0,0,1,.27-.62,1,1,0,0,1,1.29,0,.78.78,0,0,1,.27.62.77.77,0,0,1-.27.6A.92.92,0,0,1,352.33,83.54Zm-.67,9.38V85.14H353v7.78Z"/><path class="cls-3" d="M357.63,93.11a4.28,4.28,0,0,1-1.59-.3,5,5,0,0,1-1.31-.77l.66-.88a5,5,0,0,0,1.05.67,2.83,2.83,0,0,0,1.24.26,1.68,1.68,0,0,0,1.15-.35,1.17,1.17,0,0,0,.38-.87.88.88,0,0,0-.16-.53,1.65,1.65,0,0,0-.4-.39,3,3,0,0,0-.57-.29l-.64-.26c-.28-.1-.56-.2-.84-.33a3.25,3.25,0,0,1-.74-.45,2.24,2.24,0,0,1-.54-.61,1.75,1.75,0,0,1-.2-.85,2.12,2.12,0,0,1,.18-.87,2,2,0,0,1,.53-.71,2.6,2.6,0,0,1,.84-.46,3.7,3.7,0,0,1,2.47.09,4.17,4.17,0,0,1,1.06.62l-.62.83a4.41,4.41,0,0,0-.83-.49,2.27,2.27,0,0,0-.95-.19,1.47,1.47,0,0,0-1.07.33,1.09,1.09,0,0,0-.35.79.82.82,0,0,0,.14.47,1.48,1.48,0,0,0,.39.35,3.13,3.13,0,0,0,.55.27l.65.25.84.34a3,3,0,0,1,.76.44,2.13,2.13,0,0,1,.55.64,1.94,1.94,0,0,1,.22.93,2.11,2.11,0,0,1-.19.9,2,2,0,0,1-.54.73,2.46,2.46,0,0,1-.9.51A3.78,3.78,0,0,1,357.63,93.11Z"/><path class="cls-3" d="M362.3,92.92V81.53h1.3v7.71h0l3.31-4.1h1.45l-2.6,3.12,3,4.66h-1.45l-2.27-3.74-1.45,1.69v2Z"/><path class="cls-3" d="M374.65,92.92l-2.16-7.78h1.35l1.15,4.5c.08.37.16.74.24,1.09s.15.71.22,1.07h.07c.08-.36.17-.72.25-1.08l.27-1.08,1.2-4.5h1.28l1.22,4.5c.1.37.19.74.28,1.09s.18.71.26,1.07h.07l.24-1.07c.07-.35.15-.72.24-1.09l1.13-4.5h1.25l-2.08,7.78h-1.6l-1.12-4.18c-.09-.37-.18-.74-.26-1.1s-.17-.74-.27-1.14h-.06c-.09.4-.17.78-.26,1.15s-.18.74-.28,1.11l-1.09,4.16Z"/><path class="cls-3" d="M385.58,83.54a.93.93,0,0,1-.65-.24.79.79,0,0,1-.26-.6.81.81,0,0,1,.26-.62,1,1,0,0,1,1.3,0,.81.81,0,0,1,.26.62.79.79,0,0,1-.26.6A.93.93,0,0,1,385.58,83.54Zm-.67,9.38V85.14h1.31v7.78Z"/><path class="cls-3" d="M390.24,93.11a1.24,1.24,0,0,1-1.08-.45,2.24,2.24,0,0,1-.32-1.31V81.53h1.32v9.92a.68.68,0,0,0,.11.45.33.33,0,0,0,.25.12h.12l.17,0,.18,1a1.26,1.26,0,0,1-.31.09A2.59,2.59,0,0,1,390.24,93.11Z"/><path class="cls-3" d="M394.32,93.11a1.24,1.24,0,0,1-1.08-.45,2.24,2.24,0,0,1-.32-1.31V81.53h1.32v9.92a.68.68,0,0,0,.11.45.33.33,0,0,0,.25.12h.12l.17,0,.18,1a1.26,1.26,0,0,1-.31.09A2.59,2.59,0,0,1,394.32,93.11Z"/><path class="cls-3" d="M90.08,117.11a2.36,2.36,0,0,1-1.62-.57,2.09,2.09,0,0,1-.65-1.63A2.15,2.15,0,0,1,89,113a9.14,9.14,0,0,1,3.63-1,4.39,4.39,0,0,0-.07-.72,1.8,1.8,0,0,0-.25-.62,1.31,1.31,0,0,0-.49-.44A1.68,1.68,0,0,0,91,110a3.21,3.21,0,0,0-1.27.26,6.5,6.5,0,0,0-1,.57l-.51-.91a8.92,8.92,0,0,1,1.32-.68A4.44,4.44,0,0,1,91.2,109a2.41,2.41,0,0,1,2.07.87,3.92,3.92,0,0,1,.64,2.33v4.77H92.82l-.11-.93h0a6.54,6.54,0,0,1-1.2.79A3,3,0,0,1,90.08,117.11Zm.39-1a2.16,2.16,0,0,0,1-.27,5.28,5.28,0,0,0,1.06-.77v-2.16a11.93,11.93,0,0,0-1.64.3,4.41,4.41,0,0,0-1.07.42,1.62,1.62,0,0,0-.6.55,1.33,1.33,0,0,0-.18.68,1.09,1.09,0,0,0,.4,1A1.65,1.65,0,0,0,90.47,116.06Z"/><path class="cls-3" d="M101.14,116.92v-6.7H97.89v6.7H96.58v-6.7H95.52v-1l1.06-.08v-1a2.87,2.87,0,0,1,.6-1.92,2.24,2.24,0,0,1,1.81-.7,3.22,3.22,0,0,1,.76.08,3.55,3.55,0,0,1,.67.2l-.27,1a2.58,2.58,0,0,0-1-.21,1.05,1.05,0,0,0-.9.41,1.87,1.87,0,0,0-.32,1.17v1h3.25v-1.23a2.93,2.93,0,0,1,.55-1.89,2.1,2.1,0,0,1,1.72-.68,3.2,3.2,0,0,1,.7.07,5.26,5.26,0,0,1,.6.18l-.29,1a2.12,2.12,0,0,0-.88-.19c-.73,0-1.09.5-1.09,1.5v1.23h1.65v1.08h-1.65v6.7Z"/><path class="cls-3" d="M108.58,117.11a3.81,3.81,0,0,1-1.47-.28,3.38,3.38,0,0,1-1.18-.8,3.56,3.56,0,0,1-.79-1.27,4.79,4.79,0,0,1-.29-1.71,4.67,4.67,0,0,1,.3-1.72,3.77,3.77,0,0,1,.78-1.29,3.6,3.6,0,0,1,1.11-.81,3.31,3.31,0,0,1,2.62,0,2.45,2.45,0,0,1,1,.74,3,3,0,0,1,.6,1.15,5,5,0,0,1,.21,1.5c0,.14,0,.28,0,.41a1.59,1.59,0,0,1,0,.34h-5.24a3.06,3.06,0,0,0,.77,2,2.43,2.43,0,0,0,1.82.73,3.13,3.13,0,0,0,1-.17,4.41,4.41,0,0,0,.9-.44l.47.86a6,6,0,0,1-1.14.56A3.91,3.91,0,0,1,108.58,117.11Zm-2.45-4.7h4.16a2.82,2.82,0,0,0-.5-1.8,1.74,1.74,0,0,0-1.42-.62,2.1,2.1,0,0,0-.79.16,2.24,2.24,0,0,0-.68.47,2.74,2.74,0,0,0-.51.76A3.46,3.46,0,0,0,106.13,112.41Z"/><path class="cls-3" d="M116.43,117.11a3.84,3.84,0,0,1-1.44-.27,3.28,3.28,0,0,1-1.16-.79,3.87,3.87,0,0,1-.77-1.28,5.13,5.13,0,0,1-.27-1.72,4.74,4.74,0,0,1,.3-1.74,3.9,3.9,0,0,1,.82-1.29,3.47,3.47,0,0,1,1.19-.8,3.83,3.83,0,0,1,1.43-.27,2.91,2.91,0,0,1,1.31.27,5.17,5.17,0,0,1,1,.64l-.67.87a3.39,3.39,0,0,0-.71-.5,1.79,1.79,0,0,0-.84-.19,2.17,2.17,0,0,0-1,.22,2.26,2.26,0,0,0-.77.61,3.18,3.18,0,0,0-.5.95,4,4,0,0,0-.18,1.23,3.81,3.81,0,0,0,.17,1.21,2.89,2.89,0,0,0,.49.94,2.14,2.14,0,0,0,1.74.82,2.13,2.13,0,0,0,1-.23,4.2,4.2,0,0,0,.82-.55l.58.88a4.49,4.49,0,0,1-1.17.73A3.64,3.64,0,0,1,116.43,117.11Z"/><path class="cls-3" d="M123,117.11a2.5,2.5,0,0,1-1-.19,1.83,1.83,0,0,1-.69-.53,2,2,0,0,1-.38-.81,4.93,4.93,0,0,1-.11-1.06v-4.3h-1.15v-1l1.22-.08L121,107h1.1v2.17h2.1v1.08h-2.1v4.32a2,2,0,0,0,.26,1.11,1.06,1.06,0,0,0,.94.39,1.86,1.86,0,0,0,.45-.06,3.58,3.58,0,0,0,.43-.15l.26,1a4.77,4.77,0,0,1-.7.2A3.18,3.18,0,0,1,123,117.11Z"/><path class="cls-3" d="M131.55,117.11a2.48,2.48,0,0,1-1-.19,1.68,1.68,0,0,1-.69-.53,2,2,0,0,1-.38-.81,4.93,4.93,0,0,1-.11-1.06v-4.3h-1.15v-1l1.21-.08.16-2.17h1.11v2.17h2.09v1.08h-2.09v4.32a2,2,0,0,0,.26,1.11,1.06,1.06,0,0,0,.94.39,1.86,1.86,0,0,0,.45-.06,3.58,3.58,0,0,0,.43-.15l.25,1a4.31,4.31,0,0,1-.69.2A3.2,3.2,0,0,1,131.55,117.11Z"/><path class="cls-3" d="M134.51,116.92V105.53h1.32v3.1l-.05,1.6a7,7,0,0,1,1.17-.9,2.64,2.64,0,0,1,1.42-.38,2.1,2.1,0,0,1,1.8.77,3.78,3.78,0,0,1,.57,2.27v4.93h-1.31v-4.75a2.7,2.7,0,0,0-.36-1.59,1.26,1.26,0,0,0-1.12-.49,1.94,1.94,0,0,0-1.07.3,6.86,6.86,0,0,0-1,.9v5.63Z"/><path class="cls-3" d="M146.37,117.11a3.72,3.72,0,0,1-1.46-.28,3.33,3.33,0,0,1-1.19-.8,3.7,3.7,0,0,1-.79-1.27,4.79,4.79,0,0,1-.29-1.71,4.67,4.67,0,0,1,.3-1.72,4.11,4.11,0,0,1,.78-1.29,3.6,3.6,0,0,1,1.11-.81,3.31,3.31,0,0,1,2.62,0,2.55,2.55,0,0,1,1,.74,3.3,3.3,0,0,1,.6,1.15,5.34,5.34,0,0,1,.2,1.5V113a2.66,2.66,0,0,1,0,.34h-5.25a3.06,3.06,0,0,0,.77,2,2.43,2.43,0,0,0,1.82.73,3.09,3.09,0,0,0,1-.17,4.49,4.49,0,0,0,.91-.44l.46.86a6,6,0,0,1-1.14.56A3.91,3.91,0,0,1,146.37,117.11Zm-2.45-4.7h4.16a2.82,2.82,0,0,0-.5-1.8,1.74,1.74,0,0,0-1.42-.62,2.1,2.1,0,0,0-.79.16,2.24,2.24,0,0,0-.68.47,2.71,2.71,0,0,0-.5.76A3.18,3.18,0,0,0,143.92,112.41Z"/><path class="cls-3" d="M156.39,117.11a4.24,4.24,0,0,1-1.59-.3,4.82,4.82,0,0,1-1.31-.77l.66-.88a5.23,5.23,0,0,0,1,.67,2.86,2.86,0,0,0,1.24.26,1.69,1.69,0,0,0,1.16-.35,1.17,1.17,0,0,0,.38-.87.88.88,0,0,0-.16-.53,1.7,1.7,0,0,0-.41-.39,2.53,2.53,0,0,0-.57-.29l-.64-.26c-.27-.1-.55-.2-.83-.33a3,3,0,0,1-.74-.45,2.24,2.24,0,0,1-.54-.61,1.65,1.65,0,0,1-.21-.85,2.13,2.13,0,0,1,.19-.87,2,2,0,0,1,.53-.71,2.5,2.5,0,0,1,.84-.46,3.7,3.7,0,0,1,2.47.09,4.35,4.35,0,0,1,1.06.62l-.62.83a4.75,4.75,0,0,0-.83-.49,2.3,2.3,0,0,0-.95-.19,1.52,1.52,0,0,0-1.08.33,1.08,1.08,0,0,0-.34.79.82.82,0,0,0,.14.47,1.48,1.48,0,0,0,.39.35,3.13,3.13,0,0,0,.55.27l.65.25.84.34a3,3,0,0,1,.76.44,2.28,2.28,0,0,1,.55.64,1.94,1.94,0,0,1,.21.93,2.26,2.26,0,0,1-.18.9,2,2,0,0,1-.54.73,2.46,2.46,0,0,1-.9.51A3.86,3.86,0,0,1,156.39,117.11Z"/><path class="cls-3" d="M164.13,117.11a3.84,3.84,0,0,1-1.44-.27,3.11,3.11,0,0,1-1.16-.79,3.71,3.71,0,0,1-.77-1.28,4.89,4.89,0,0,1-.28-1.72,4.74,4.74,0,0,1,.3-1.74,4.25,4.25,0,0,1,.82-1.29,3.57,3.57,0,0,1,1.19-.8,3.88,3.88,0,0,1,1.44-.27,2.94,2.94,0,0,1,1.31.27,5.17,5.17,0,0,1,1,.64l-.68.87a3.39,3.39,0,0,0-.71-.5,1.79,1.79,0,0,0-.84-.19,2.13,2.13,0,0,0-1,.22,2.17,2.17,0,0,0-.77.61,3.2,3.2,0,0,0-.51.95,4,4,0,0,0-.18,1.23,3.8,3.8,0,0,0,.18,1.21,2.87,2.87,0,0,0,.48.94,2.36,2.36,0,0,0,.76.61,2.3,2.3,0,0,0,1,.21,2.1,2.1,0,0,0,1-.23,3.92,3.92,0,0,0,.82-.55l.58.88a4.18,4.18,0,0,1-1.17.73A3.55,3.55,0,0,1,164.13,117.11Z"/><path class="cls-3" d="M171,117.11a3.56,3.56,0,0,1-1.37-.27,3.3,3.3,0,0,1-1.14-.79,3.91,3.91,0,0,1-.79-1.28,4.67,4.67,0,0,1-.3-1.72,4.74,4.74,0,0,1,.3-1.74,4.18,4.18,0,0,1,.79-1.29,3.47,3.47,0,0,1,1.14-.8A3.56,3.56,0,0,1,171,109a3.52,3.52,0,0,1,1.37.27,3.47,3.47,0,0,1,1.14.8,4.2,4.2,0,0,1,.8,1.29,5,5,0,0,1,.29,1.74,4.88,4.88,0,0,1-.29,1.72,3.93,3.93,0,0,1-.8,1.28,3.3,3.3,0,0,1-1.14.79A3.52,3.52,0,0,1,171,117.11Zm0-1.09a2,2,0,0,0,.91-.21,2.21,2.21,0,0,0,.72-.61,2.83,2.83,0,0,0,.45-.94,4.12,4.12,0,0,0,.16-1.21,4.31,4.31,0,0,0-.16-1.23,3.09,3.09,0,0,0-.45-.95,2.1,2.1,0,0,0-.72-.61A1.86,1.86,0,0,0,171,110a1.88,1.88,0,0,0-.91.22,2,2,0,0,0-.71.61,3.11,3.11,0,0,0-.46.95,4.31,4.31,0,0,0-.16,1.23,4.12,4.12,0,0,0,.16,1.21,2.85,2.85,0,0,0,.46.94,2.08,2.08,0,0,0,.71.61A2,2,0,0,0,171,116Z"/><path class="cls-3" d="M176.69,116.92v-7.78h1.09l.11,1.41h.05a3.54,3.54,0,0,1,1-1.17,2,2,0,0,1,1.24-.43,2.23,2.23,0,0,1,.83.16l-.26,1.15-.35-.09a2.25,2.25,0,0,0-.4,0,1.7,1.7,0,0,0-1,.4,3.15,3.15,0,0,0-.94,1.39v5Z"/><path class="cls-3" d="M185.23,117.11a3.72,3.72,0,0,1-1.46-.28,3.3,3.3,0,0,1-1.18-.8,3.58,3.58,0,0,1-.8-1.27,4.79,4.79,0,0,1-.28-1.71,4.67,4.67,0,0,1,.29-1.72,4,4,0,0,1,.79-1.29,3.38,3.38,0,0,1,1.11-.81A3.22,3.22,0,0,1,185,109a3.27,3.27,0,0,1,1.32.26,2.48,2.48,0,0,1,1,.74,3.3,3.3,0,0,1,.6,1.15,5,5,0,0,1,.21,1.5c0,.14,0,.28,0,.41a2.66,2.66,0,0,1,0,.34H182.8a3,3,0,0,0,.78,2,2.41,2.41,0,0,0,1.81.73,3.15,3.15,0,0,0,1-.17,4.68,4.68,0,0,0,.9-.44l.46.86a6.26,6.26,0,0,1-1.13.56A4,4,0,0,1,185.23,117.11Zm-2.45-4.7h4.16a2.76,2.76,0,0,0-.5-1.8A1.74,1.74,0,0,0,185,110a2.14,2.14,0,0,0-.79.16,2.37,2.37,0,0,0-.68.47,2.71,2.71,0,0,0-.5.76A3.78,3.78,0,0,0,182.78,112.41Z"/><path class="cls-3" d="M193.09,117.11a3.84,3.84,0,0,1-1.44-.27,3.11,3.11,0,0,1-1.16-.79,3.71,3.71,0,0,1-.77-1.28,4.89,4.89,0,0,1-.28-1.72,4.74,4.74,0,0,1,.3-1.74,4.25,4.25,0,0,1,.82-1.29,3.57,3.57,0,0,1,1.19-.8,3.88,3.88,0,0,1,1.44-.27,2.94,2.94,0,0,1,1.31.27,5.17,5.17,0,0,1,1,.64l-.68.87a3.39,3.39,0,0,0-.71-.5,1.79,1.79,0,0,0-.84-.19,2.13,2.13,0,0,0-1,.22,2.17,2.17,0,0,0-.77.61,3.2,3.2,0,0,0-.51.95,4,4,0,0,0-.18,1.23,3.8,3.8,0,0,0,.18,1.21,2.87,2.87,0,0,0,.48.94,2.36,2.36,0,0,0,.76.61,2.3,2.3,0,0,0,1,.21,2.1,2.1,0,0,0,1-.23,3.92,3.92,0,0,0,.82-.55l.58.88a4.18,4.18,0,0,1-1.17.73A3.55,3.55,0,0,1,193.09,117.11Z"/><path class="cls-3" d="M198.94,117.11a2.36,2.36,0,0,1-1.62-.57,2.09,2.09,0,0,1-.65-1.63,2.15,2.15,0,0,1,1.14-2,9.24,9.24,0,0,1,3.63-1,3.51,3.51,0,0,0-.07-.72,1.8,1.8,0,0,0-.25-.62,1.31,1.31,0,0,0-.49-.44,1.68,1.68,0,0,0-.79-.17,3.12,3.12,0,0,0-1.26.26,6.21,6.21,0,0,0-1.06.57L197,110a8.59,8.59,0,0,1,1.33-.68,4.39,4.39,0,0,1,1.72-.33,2.41,2.41,0,0,1,2.07.87,3.85,3.85,0,0,1,.64,2.33v4.77h-1.09l-.11-.93h0a5.93,5.93,0,0,1-1.2.79A3,3,0,0,1,198.94,117.11Zm.39-1a2.16,2.16,0,0,0,1-.27,5,5,0,0,0,1.06-.77v-2.16a11.93,11.93,0,0,0-1.64.3,4.41,4.41,0,0,0-1.07.42,1.58,1.58,0,0,0-.59.55,1.25,1.25,0,0,0-.19.68,1.11,1.11,0,0,0,.4,1A1.65,1.65,0,0,0,199.33,116.06Z"/><path class="cls-3" d="M205.22,116.92v-7.78h1.09l.11,1.41h0a3.66,3.66,0,0,1,1-1.17,2.07,2.07,0,0,1,1.24-.43,2.15,2.15,0,0,1,.83.16l-.25,1.15-.35-.09a2.25,2.25,0,0,0-.4,0,1.75,1.75,0,0,0-1,.4,3.23,3.23,0,0,0-.93,1.39v5Z"/><path class="cls-3" d="M213.26,117.11a2.88,2.88,0,0,1-2.34-1,4.63,4.63,0,0,1-.87-3,4.87,4.87,0,0,1,.28-1.71,4.1,4.1,0,0,1,.74-1.28,3.23,3.23,0,0,1,1.07-.82,3,3,0,0,1,1.28-.29,2.66,2.66,0,0,1,1.17.24,5.12,5.12,0,0,1,1,.66l-.06-1.33v-3h1.32v11.39h-1.08l-.12-.91h0a4.63,4.63,0,0,1-1.07.77A2.63,2.63,0,0,1,213.26,117.11Zm.29-1.1a2.09,2.09,0,0,0,1-.27,3.57,3.57,0,0,0,1-.8v-4.07a3.16,3.16,0,0,0-1-.63,2.48,2.48,0,0,0-.93-.18,1.86,1.86,0,0,0-.87.21,2.32,2.32,0,0,0-.72.61,3.08,3.08,0,0,0-.48.94,4.11,4.11,0,0,0-.17,1.21,3.73,3.73,0,0,0,.56,2.19A1.81,1.81,0,0,0,213.55,116Z"/><path class="cls-3" d="M220.18,117.11a.9.9,0,0,1-.68-.28.93.93,0,0,1-.28-.71,1,1,0,0,1,.28-.74.94.94,0,0,1,1.34,0,1,1,0,0,1,.28.74.93.93,0,0,1-.28.71A.9.9,0,0,1,220.18,117.11Z"/><path class="cls-3" d="M226.8,116.92v-10.5h1.6l2,5.6c.12.37.25.73.37,1.1s.25.73.38,1.1h.06c.13-.37.25-.73.36-1.1s.23-.73.36-1.1l2-5.6h1.61v10.5H234.3v-5.78c0-.46,0-1,.07-1.55s.08-1.08.11-1.55h-.06l-.84,2.38-2,5.44h-.88l-2-5.44L227.9,108h-.06c0,.47.07,1,.1,1.55s.06,1.09.06,1.55v5.78Z"/><path class="cls-3" d="M241.33,117.11a3.52,3.52,0,0,1-1.37-.27,3.3,3.3,0,0,1-1.14-.79,3.77,3.77,0,0,1-.8-1.28,4.88,4.88,0,0,1-.29-1.72,5,5,0,0,1,.29-1.74,4,4,0,0,1,.8-1.29,3.47,3.47,0,0,1,1.14-.8,3.52,3.52,0,0,1,1.37-.27,3.56,3.56,0,0,1,1.37.27,3.47,3.47,0,0,1,1.14.8,4.18,4.18,0,0,1,.79,1.29,4.74,4.74,0,0,1,.3,1.74,4.67,4.67,0,0,1-.3,1.72,3.91,3.91,0,0,1-.79,1.28,3.3,3.3,0,0,1-1.14.79A3.56,3.56,0,0,1,241.33,117.11Zm0-1.09a2,2,0,0,0,.91-.21,2.18,2.18,0,0,0,.71-.61,2.85,2.85,0,0,0,.46-.94,4.49,4.49,0,0,0,.16-1.21,4.7,4.7,0,0,0-.16-1.23,3.11,3.11,0,0,0-.46-.95,2.07,2.07,0,0,0-.71-.61,1.88,1.88,0,0,0-.91-.22,1.86,1.86,0,0,0-.91.22,2.1,2.1,0,0,0-.72.61,3.09,3.09,0,0,0-.45.95,4.31,4.31,0,0,0-.16,1.23,4.12,4.12,0,0,0,.16,1.21,2.83,2.83,0,0,0,.45.94,2.21,2.21,0,0,0,.72.61A2,2,0,0,0,241.33,116Z"/><path class="cls-3" d="M247,116.92v-7.78h1.08l.12,1.41h0a3.66,3.66,0,0,1,1-1.17,2.05,2.05,0,0,1,1.24-.43,2.15,2.15,0,0,1,.83.16l-.25,1.15-.35-.09a2.25,2.25,0,0,0-.4,0,1.75,1.75,0,0,0-1,.4,3.14,3.14,0,0,0-.93,1.39v5Z"/><path class="cls-3" d="M255.52,117.11a3.72,3.72,0,0,1-1.46-.28,3.33,3.33,0,0,1-1.19-.8,3.7,3.7,0,0,1-.79-1.27,4.79,4.79,0,0,1-.29-1.71,4.67,4.67,0,0,1,.3-1.72,3.94,3.94,0,0,1,.78-1.29,3.6,3.6,0,0,1,1.11-.81,3.31,3.31,0,0,1,2.62,0,2.45,2.45,0,0,1,1,.74,3.16,3.16,0,0,1,.61,1.15,5.34,5.34,0,0,1,.2,1.5V113a2.66,2.66,0,0,1,0,.34h-5.25a3.06,3.06,0,0,0,.77,2,2.43,2.43,0,0,0,1.82.73,3.09,3.09,0,0,0,1-.17,4.17,4.17,0,0,0,.9-.44l.47.86a6,6,0,0,1-1.14.56A3.91,3.91,0,0,1,255.52,117.11Zm-2.45-4.7h4.16a2.82,2.82,0,0,0-.5-1.8,1.74,1.74,0,0,0-1.42-.62,2.1,2.1,0,0,0-.79.16,2.24,2.24,0,0,0-.68.47,2.71,2.71,0,0,0-.5.76A3.18,3.18,0,0,0,253.07,112.41Z"/><path class="cls-3" d="M264.18,107.54a.92.92,0,0,1-.65-.24.77.77,0,0,1-.27-.6.78.78,0,0,1,.27-.62,1,1,0,0,1,1.29,0,.78.78,0,0,1,.27.62.77.77,0,0,1-.27.6A.91.91,0,0,1,264.18,107.54Zm-.68,9.38v-7.78h1.32v7.78Z"/><path class="cls-3" d="M267.44,116.92v-7.78h1.09l.11,1.12h.05a6.29,6.29,0,0,1,1.17-.93,2.71,2.71,0,0,1,1.44-.38,2.1,2.1,0,0,1,1.8.77,3.86,3.86,0,0,1,.56,2.27v4.93h-1.31v-4.75a2.79,2.79,0,0,0-.35-1.59,1.27,1.27,0,0,0-1.12-.49,1.91,1.91,0,0,0-1.07.3,7.38,7.38,0,0,0-1.06.9v5.63Z"/><path class="cls-3" d="M276.42,116.92v-6.7h-1.06v-1l1.06-.08v-1.23A2.93,2.93,0,0,1,277,106a2.1,2.1,0,0,1,1.72-.68,3.11,3.11,0,0,1,.69.07,4.27,4.27,0,0,1,.6.18l-.28,1a2.16,2.16,0,0,0-.89-.19q-1.08,0-1.08,1.5v1.23h1.65v1.08h-1.65v6.7Z"/><path class="cls-3" d="M283.73,117.11a3.52,3.52,0,0,1-1.37-.27,3.3,3.3,0,0,1-1.14-.79,3.77,3.77,0,0,1-.8-1.28,4.88,4.88,0,0,1-.29-1.72,5,5,0,0,1,.29-1.74,4,4,0,0,1,.8-1.29,3.47,3.47,0,0,1,1.14-.8,3.52,3.52,0,0,1,1.37-.27,3.56,3.56,0,0,1,1.37.27,3.47,3.47,0,0,1,1.14.8,4.18,4.18,0,0,1,.79,1.29,4.74,4.74,0,0,1,.3,1.74,4.67,4.67,0,0,1-.3,1.72,3.91,3.91,0,0,1-.79,1.28,3.3,3.3,0,0,1-1.14.79A3.56,3.56,0,0,1,283.73,117.11Zm0-1.09a2,2,0,0,0,.91-.21,2.18,2.18,0,0,0,.71-.61,2.85,2.85,0,0,0,.46-.94,4.49,4.49,0,0,0,.16-1.21,4.7,4.7,0,0,0-.16-1.23,3.11,3.11,0,0,0-.46-.95,2.07,2.07,0,0,0-.71-.61,1.88,1.88,0,0,0-.91-.22,1.92,1.92,0,0,0-.92.22,2.16,2.16,0,0,0-.71.61,3.09,3.09,0,0,0-.45.95,4.31,4.31,0,0,0-.16,1.23,4.12,4.12,0,0,0,.16,1.21,2.83,2.83,0,0,0,.45.94,2.29,2.29,0,0,0,.71.61A2,2,0,0,0,283.73,116Z"/><path class="cls-3" d="M289.37,116.92v-7.78h1.09l.11,1.41h.05a3.66,3.66,0,0,1,1-1.17,2.05,2.05,0,0,1,1.24-.43,2.15,2.15,0,0,1,.83.16l-.25,1.15-.35-.09a2.37,2.37,0,0,0-.41,0,1.72,1.72,0,0,0-1,.4,3.14,3.14,0,0,0-.93,1.39v5Z"/><path class="cls-3" d="M294.93,116.92v-7.78H296l.11,1.12h0a5.71,5.71,0,0,1,1.12-.93,2.4,2.4,0,0,1,1.3-.38,2.24,2.24,0,0,1,1.4.39,2.29,2.29,0,0,1,.74,1.1,6.61,6.61,0,0,1,1.23-1.08,2.37,2.37,0,0,1,1.33-.41,2.1,2.1,0,0,1,1.79.77,3.71,3.71,0,0,1,.58,2.27v4.93h-1.31v-4.75a2.79,2.79,0,0,0-.35-1.59,1.25,1.25,0,0,0-1.09-.49,2.87,2.87,0,0,0-2,1.2v5.63h-1.31v-4.75a2.7,2.7,0,0,0-.36-1.59,1.25,1.25,0,0,0-1.1-.49,2.87,2.87,0,0,0-1.95,1.2v5.63Z"/><path class="cls-3" d="M310,117.11a2.36,2.36,0,0,1-1.62-.57,2.09,2.09,0,0,1-.65-1.63,2.15,2.15,0,0,1,1.14-2,9.14,9.14,0,0,1,3.63-1,4.39,4.39,0,0,0-.07-.72,1.8,1.8,0,0,0-.25-.62,1.31,1.31,0,0,0-.49-.44,1.68,1.68,0,0,0-.79-.17,3.21,3.21,0,0,0-1.27.26,6.5,6.5,0,0,0-1.05.57l-.51-.91a8.92,8.92,0,0,1,1.32-.68,4.44,4.44,0,0,1,1.73-.33,2.41,2.41,0,0,1,2.07.87,3.92,3.92,0,0,1,.64,2.33v4.77h-1.09l-.11-.93h-.05a6.22,6.22,0,0,1-1.2.79A3,3,0,0,1,310,117.11Zm.39-1a2.16,2.16,0,0,0,1.05-.27,5.28,5.28,0,0,0,1.06-.77v-2.16a11.93,11.93,0,0,0-1.64.3,4.41,4.41,0,0,0-1.07.42,1.62,1.62,0,0,0-.6.55,1.33,1.33,0,0,0-.18.68,1.09,1.09,0,0,0,.4,1A1.65,1.65,0,0,0,310.37,116.06Z"/><path class="cls-3" d="M318.48,117.11a2.5,2.5,0,0,1-1.05-.19,1.83,1.83,0,0,1-.69-.53,2,2,0,0,1-.37-.81,4.37,4.37,0,0,1-.11-1.06v-4.3H315.1v-1l1.22-.08.16-2.17h1.1v2.17h2.1v1.08h-2.1v4.32a1.94,1.94,0,0,0,.27,1.11,1,1,0,0,0,.93.39,1.86,1.86,0,0,0,.45-.06,3.05,3.05,0,0,0,.43-.15l.26,1a4.44,4.44,0,0,1-.7.2A3.18,3.18,0,0,1,318.48,117.11Z"/><path class="cls-3" d="M322.11,107.54a.93.93,0,0,1-.65-.24.79.79,0,0,1-.26-.6.81.81,0,0,1,.26-.62,1,1,0,0,1,1.3,0,.81.81,0,0,1,.26.62.79.79,0,0,1-.26.6A.93.93,0,0,1,322.11,107.54Zm-.67,9.38v-7.78h1.31v7.78Z"/><path class="cls-3" d="M328.4,117.11a3.52,3.52,0,0,1-1.37-.27,3.3,3.3,0,0,1-1.14-.79,3.75,3.75,0,0,1-.79-1.28,4.67,4.67,0,0,1-.3-1.72,4.74,4.74,0,0,1,.3-1.74,4,4,0,0,1,.79-1.29,3.47,3.47,0,0,1,1.14-.8,3.61,3.61,0,0,1,2.74,0,3.47,3.47,0,0,1,1.14.8,4,4,0,0,1,.79,1.29,4.74,4.74,0,0,1,.3,1.74,4.67,4.67,0,0,1-.3,1.72,3.75,3.75,0,0,1-.79,1.28,3.3,3.3,0,0,1-1.14.79A3.52,3.52,0,0,1,328.4,117.11Zm0-1.09a2,2,0,0,0,.91-.21,2.08,2.08,0,0,0,.71-.61,2.85,2.85,0,0,0,.46-.94,4.12,4.12,0,0,0,.16-1.21,4.31,4.31,0,0,0-.16-1.23,3.11,3.11,0,0,0-.46-.95,2,2,0,0,0-.71-.61,1.88,1.88,0,0,0-.91-.22,1.86,1.86,0,0,0-.91.22,2.1,2.1,0,0,0-.72.61,3.34,3.34,0,0,0-.45.95,4.31,4.31,0,0,0-.16,1.23,4.12,4.12,0,0,0,.16,1.21,3,3,0,0,0,.45.94,2.21,2.21,0,0,0,.72.61A2,2,0,0,0,328.4,116Z"/><path class="cls-3" d="M334.05,116.92v-7.78h1.09l.11,1.12h0a6.69,6.69,0,0,1,1.18-.93,2.7,2.7,0,0,1,1.43-.38,2.1,2.1,0,0,1,1.8.77,3.78,3.78,0,0,1,.57,2.27v4.93H339v-4.75a2.79,2.79,0,0,0-.35-1.59,1.29,1.29,0,0,0-1.12-.49,2,2,0,0,0-1.08.3,6.86,6.86,0,0,0-1.05.9v5.63Z"/><path class="cls-3" d="M349,117.11a3.56,3.56,0,0,1-1.37-.27,3.3,3.3,0,0,1-1.14-.79,3.91,3.91,0,0,1-.79-1.28,4.67,4.67,0,0,1-.3-1.72,4.74,4.74,0,0,1,.3-1.74,4.18,4.18,0,0,1,.79-1.29,3.47,3.47,0,0,1,1.14-.8A3.56,3.56,0,0,1,349,109a3.52,3.52,0,0,1,1.37.27,3.47,3.47,0,0,1,1.14.8,4.2,4.2,0,0,1,.8,1.29,5,5,0,0,1,.29,1.74,4.88,4.88,0,0,1-.29,1.72,3.93,3.93,0,0,1-.8,1.28,3.3,3.3,0,0,1-1.14.79A3.52,3.52,0,0,1,349,117.11Zm0-1.09a2,2,0,0,0,.91-.21,2.21,2.21,0,0,0,.72-.61,2.83,2.83,0,0,0,.45-.94,4.12,4.12,0,0,0,.16-1.21,4.31,4.31,0,0,0-.16-1.23,3.09,3.09,0,0,0-.45-.95,2.1,2.1,0,0,0-.72-.61A1.86,1.86,0,0,0,349,110a1.88,1.88,0,0,0-.91.22,2.07,2.07,0,0,0-.71.61,3.11,3.11,0,0,0-.46.95,4.7,4.7,0,0,0-.16,1.23,4.49,4.49,0,0,0,.16,1.21,2.85,2.85,0,0,0,.46.94,2.18,2.18,0,0,0,.71.61A2,2,0,0,0,349,116Z"/><path class="cls-3" d="M354.67,116.92v-7.78h1.09l.11,1.12h.05a6.29,6.29,0,0,1,1.17-.93,2.71,2.71,0,0,1,1.44-.38,2.1,2.1,0,0,1,1.8.77,3.86,3.86,0,0,1,.56,2.27v4.93h-1.31v-4.75a2.79,2.79,0,0,0-.35-1.59,1.27,1.27,0,0,0-1.12-.49,1.91,1.91,0,0,0-1.07.3,7.38,7.38,0,0,0-1.06.9v5.63Z"/><path class="cls-3" d="M90.56,141.11a2.07,2.07,0,0,1-1.81-.77,3.78,3.78,0,0,1-.57-2.27v-4.93h1.33v4.76a2.85,2.85,0,0,0,.34,1.59A1.28,1.28,0,0,0,91,140a1.85,1.85,0,0,0,1.07-.32,4.94,4.94,0,0,0,1-1v-5.52h1.31v7.78H93.28l-.11-1.22h0a5.16,5.16,0,0,1-1.14,1A2.53,2.53,0,0,1,90.56,141.11Z"/><path class="cls-3" d="M97,140.92v-7.78h1.09l.11,1.12h0a6.69,6.69,0,0,1,1.18-.93,2.7,2.7,0,0,1,1.43-.38,2.1,2.1,0,0,1,1.8.77,3.78,3.78,0,0,1,.57,2.27v4.93h-1.31v-4.75a2.7,2.7,0,0,0-.36-1.59,1.26,1.26,0,0,0-1.12-.49,1.94,1.94,0,0,0-1.07.3,6.86,6.86,0,0,0-1,.9v5.63Z"/><path class="cls-3" d="M108.4,141.11a2.88,2.88,0,0,1-2.34-1.05,4.63,4.63,0,0,1-.87-3,4.87,4.87,0,0,1,.28-1.71,3.91,3.91,0,0,1,.74-1.28,3.23,3.23,0,0,1,1.07-.82,3,3,0,0,1,1.28-.29,2.66,2.66,0,0,1,1.17.24,5.12,5.12,0,0,1,1,.66l-.07-1.33v-3H112v11.39h-1.09l-.11-.91h0a4.57,4.57,0,0,1-1.06.77A2.63,2.63,0,0,1,108.4,141.11Zm.29-1.1a2,2,0,0,0,1-.27,3.57,3.57,0,0,0,1-.8v-4.07a3.13,3.13,0,0,0-1-.63,2.48,2.48,0,0,0-.93-.18,1.93,1.93,0,0,0-.88.21,2.29,2.29,0,0,0-.71.61,3.08,3.08,0,0,0-.48.94,3.81,3.81,0,0,0-.17,1.21,3.66,3.66,0,0,0,.56,2.19A1.81,1.81,0,0,0,108.69,140Z"/><path class="cls-3" d="M117.78,141.11a3.81,3.81,0,0,1-1.47-.28,3.38,3.38,0,0,1-1.18-.8,3.56,3.56,0,0,1-.79-1.27,4.79,4.79,0,0,1-.29-1.71,4.67,4.67,0,0,1,.3-1.72,3.77,3.77,0,0,1,.78-1.29,3.6,3.6,0,0,1,1.11-.81,3.31,3.31,0,0,1,2.62,0,2.45,2.45,0,0,1,1,.74,3,3,0,0,1,.6,1.15,5,5,0,0,1,.21,1.5c0,.14,0,.28,0,.41a1.59,1.59,0,0,1,0,.34h-5.24a3.06,3.06,0,0,0,.77,2,2.43,2.43,0,0,0,1.82.73,3.13,3.13,0,0,0,1-.17,4.41,4.41,0,0,0,.9-.44l.47.86a6,6,0,0,1-1.14.56A3.91,3.91,0,0,1,117.78,141.11Zm-2.45-4.7h4.16a2.82,2.82,0,0,0-.5-1.8,1.74,1.74,0,0,0-1.42-.62,2.1,2.1,0,0,0-.79.16,2.24,2.24,0,0,0-.68.47,3,3,0,0,0-.51.76A3.46,3.46,0,0,0,115.33,136.41Z"/><path class="cls-3" d="M122.56,140.92v-7.78h1.09l.11,1.41h0a3.66,3.66,0,0,1,1-1.17A2.05,2.05,0,0,1,126,133a2.19,2.19,0,0,1,.83.16l-.26,1.15-.35-.09a2.25,2.25,0,0,0-.4,0,1.72,1.72,0,0,0-1,.4,3.15,3.15,0,0,0-.94,1.39v5Z"/><path class="cls-3" d="M130.08,141.11a4.23,4.23,0,0,1-1.58-.3,4.82,4.82,0,0,1-1.31-.77l.65-.88a5,5,0,0,0,1,.67,2.86,2.86,0,0,0,1.24.26,1.68,1.68,0,0,0,1.15-.35,1.13,1.13,0,0,0,.38-.87.88.88,0,0,0-.16-.53,1.65,1.65,0,0,0-.4-.39,3,3,0,0,0-.57-.29l-.64-.26a8.43,8.43,0,0,1-.83-.33,3.11,3.11,0,0,1-.75-.45,2.2,2.2,0,0,1-.53-.61,1.65,1.65,0,0,1-.21-.85,2.12,2.12,0,0,1,.18-.87,2.17,2.17,0,0,1,.53-.71,2.6,2.6,0,0,1,.84-.46,3.7,3.7,0,0,1,2.47.09,4.42,4.42,0,0,1,1.07.62l-.63.83a4.11,4.11,0,0,0-.83-.49,2.26,2.26,0,0,0-.94-.19,1.52,1.52,0,0,0-1.08.33,1.09,1.09,0,0,0-.35.79.75.75,0,0,0,.15.47,1.29,1.29,0,0,0,.38.35,3.13,3.13,0,0,0,.55.27l.65.25.84.34a2.85,2.85,0,0,1,.76.44,2,2,0,0,1,.55.64,1.83,1.83,0,0,1,.22.93,2.11,2.11,0,0,1-.19.9,2,2,0,0,1-.54.73,2.5,2.5,0,0,1-.89.51A3.88,3.88,0,0,1,130.08,141.11Z"/><path class="cls-3" d="M136.88,141.11a2.56,2.56,0,0,1-1-.19,1.72,1.72,0,0,1-.68-.53,1.9,1.9,0,0,1-.38-.81,4.37,4.37,0,0,1-.11-1.06v-4.3h-1.15v-1l1.21-.08.16-2.17H136v2.17h2.09v1.08H136v4.32a1.94,1.94,0,0,0,.26,1.11,1.06,1.06,0,0,0,.94.39,1.85,1.85,0,0,0,.44-.06,3.76,3.76,0,0,0,.44-.15l.25,1a4.31,4.31,0,0,1-.69.2A3.27,3.27,0,0,1,136.88,141.11Z"/><path class="cls-3" d="M141.3,141.11a2.4,2.4,0,0,1-1.63-.57,2.08,2.08,0,0,1-.64-1.63,2.14,2.14,0,0,1,1.13-2,9.24,9.24,0,0,1,3.63-1,3.51,3.51,0,0,0-.07-.72,1.8,1.8,0,0,0-.25-.62,1.28,1.28,0,0,0-.48-.44,1.72,1.72,0,0,0-.8-.17,3.16,3.16,0,0,0-1.26.26,6.21,6.21,0,0,0-1.06.57l-.51-.91a9.07,9.07,0,0,1,1.33-.68,4.41,4.41,0,0,1,1.73-.33,2.37,2.37,0,0,1,2.06.87,3.85,3.85,0,0,1,.64,2.33v4.77H144l-.11-.93h0a5.93,5.93,0,0,1-1.2.79A2.92,2.92,0,0,1,141.3,141.11Zm.38-1.05a2.17,2.17,0,0,0,1.06-.27,5,5,0,0,0,1-.77v-2.16a12.22,12.22,0,0,0-1.64.3,4.41,4.41,0,0,0-1.07.42,1.58,1.58,0,0,0-.59.55,1.33,1.33,0,0,0-.18.68,1.09,1.09,0,0,0,.4,1A1.62,1.62,0,0,0,141.68,140.06Z"/><path class="cls-3" d="M147.57,140.92v-7.78h1.09l.11,1.12h0a6.29,6.29,0,0,1,1.17-.93,2.71,2.71,0,0,1,1.44-.38,2.1,2.1,0,0,1,1.8.77,3.86,3.86,0,0,1,.56,2.27v4.93h-1.31v-4.75a2.79,2.79,0,0,0-.35-1.59,1.27,1.27,0,0,0-1.12-.49,1.91,1.91,0,0,0-1.07.3,7.38,7.38,0,0,0-1.06.9v5.63Z"/><path class="cls-3" d="M159,141.11a2.9,2.9,0,0,1-2.35-1.05,4.63,4.63,0,0,1-.87-3,4.87,4.87,0,0,1,.28-1.71,4.12,4.12,0,0,1,.75-1.28,3,3,0,0,1,1.07-.82,3,3,0,0,1,1.28-.29,2.69,2.69,0,0,1,1.17.24,5.06,5.06,0,0,1,1,.66l-.06-1.33v-3h1.33v11.39h-1.09l-.11-.91h0a4.57,4.57,0,0,1-1.06.77A2.63,2.63,0,0,1,159,141.11Zm.29-1.1a2,2,0,0,0,1-.27,3.57,3.57,0,0,0,1-.8v-4.07a3.25,3.25,0,0,0-.95-.63,2.57,2.57,0,0,0-.94-.18,1.86,1.86,0,0,0-.87.21,2.29,2.29,0,0,0-.71.61,2.69,2.69,0,0,0-.48.94,3.8,3.8,0,0,0-.18,1.21,3.73,3.73,0,0,0,.56,2.19A1.82,1.82,0,0,0,159.27,140Z"/><path class="cls-3" d="M165.87,131.54a.91.91,0,0,1-.64-.24.77.77,0,0,1-.27-.6.78.78,0,0,1,.27-.62,1,1,0,0,1,1.29,0,.78.78,0,0,1,.27.62.77.77,0,0,1-.27.6A.92.92,0,0,1,165.87,131.54Zm-.67,9.38v-7.78h1.31v7.78Z"/><path class="cls-3" d="M169.14,140.92v-7.78h1.09l.11,1.12h0a6.69,6.69,0,0,1,1.18-.93A2.7,2.7,0,0,1,173,133a2.1,2.1,0,0,1,1.8.77,3.78,3.78,0,0,1,.57,2.27v4.93h-1.31v-4.75a2.79,2.79,0,0,0-.35-1.59,1.29,1.29,0,0,0-1.12-.49,2,2,0,0,0-1.08.3,6.86,6.86,0,0,0-1.05.9v5.63Z"/><path class="cls-3" d="M180.51,144.5a5.94,5.94,0,0,1-1.31-.13,3.19,3.19,0,0,1-1-.41,1.89,1.89,0,0,1-.66-.66,1.62,1.62,0,0,1-.23-.89,1.69,1.69,0,0,1,.3-.95,3.21,3.21,0,0,1,.83-.81v-.07a1.6,1.6,0,0,1-.49-.48,1.46,1.46,0,0,1-.2-.78,1.41,1.41,0,0,1,.28-.86,2.42,2.42,0,0,1,.57-.58v-.06a3.22,3.22,0,0,1-.69-.86,2.41,2.41,0,0,1-.32-1.24,2.66,2.66,0,0,1,.24-1.15,2.5,2.5,0,0,1,.63-.87,2.92,2.92,0,0,1,.93-.56,3.57,3.57,0,0,1,1.13-.19,2.77,2.77,0,0,1,.6.06,4.71,4.71,0,0,1,.51.13h2.7v1h-1.6a2.37,2.37,0,0,1,.46.69,2.27,2.27,0,0,1,.18.91,2.75,2.75,0,0,1-.22,1.13,2.54,2.54,0,0,1-.61.85,2.66,2.66,0,0,1-.91.53,3.08,3.08,0,0,1-1.11.2,2.46,2.46,0,0,1-.59-.08,2.49,2.49,0,0,1-.58-.2,2.23,2.23,0,0,0-.35.4,1,1,0,0,0-.14.53.73.73,0,0,0,.29.61,1.76,1.76,0,0,0,1.09.24h1.5a3.84,3.84,0,0,1,2,.44,1.57,1.57,0,0,1,.68,1.42,2.11,2.11,0,0,1-.27,1,2.64,2.64,0,0,1-.79.85,4.08,4.08,0,0,1-1.24.59A5.88,5.88,0,0,1,180.51,144.5Zm.19-.91a3.56,3.56,0,0,0,1-.13,2.81,2.81,0,0,0,.78-.36,1.55,1.55,0,0,0,.49-.5,1.1,1.1,0,0,0,.18-.59.77.77,0,0,0-.4-.75,2.6,2.6,0,0,0-1.17-.21h-1.34l-.49,0a2.28,2.28,0,0,1-.52-.1,2.14,2.14,0,0,0-.61.64,1.31,1.31,0,0,0-.19.67,1.11,1.11,0,0,0,.6,1A3.1,3.1,0,0,0,180.7,143.59Zm-.19-6a1.56,1.56,0,0,0,1.16-.5,1.5,1.5,0,0,0,.36-.58,2.13,2.13,0,0,0,.13-.78,1.8,1.8,0,0,0-.48-1.34,1.69,1.69,0,0,0-2.34,0,1.8,1.8,0,0,0-.48,1.34,2.36,2.36,0,0,0,.13.78,1.78,1.78,0,0,0,.36.58,1.75,1.75,0,0,0,.53.37A1.69,1.69,0,0,0,180.51,137.58Z"/><path class="cls-4" d="M189.17,140.92V130.46h6.3V132H191v2.68h3.76v1.56H191v3.09h4.61v1.57Z"/><path class="cls-4" d="M197.62,140.92v-7.86h1.52l.13,1.08h.06a5.38,5.38,0,0,1,1.08-.9,2.47,2.47,0,0,1,1.32-.37,2.35,2.35,0,0,1,1.38.37,2.26,2.26,0,0,1,.79,1,7.16,7.16,0,0,1,1.17-1,2.49,2.49,0,0,1,1.36-.4,2.11,2.11,0,0,1,1.84.81,3.83,3.83,0,0,1,.59,2.31v4.93H207v-4.69a2.33,2.33,0,0,0-.3-1.37,1,1,0,0,0-.9-.4,2.47,2.47,0,0,0-1.65,1v5.49h-1.84v-4.69a2.33,2.33,0,0,0-.3-1.37,1,1,0,0,0-.92-.4,2.44,2.44,0,0,0-1.64,1v5.49Z"/><path class="cls-4" d="M213,141.11a2.27,2.27,0,0,1-1.68-.63,2.23,2.23,0,0,1-.64-1.67,2.33,2.33,0,0,1,.26-1.11,2.3,2.3,0,0,1,.83-.84,5.38,5.38,0,0,1,1.44-.6,12.86,12.86,0,0,1,2.09-.36,2.8,2.8,0,0,0-.09-.59,1.13,1.13,0,0,0-.24-.49,1,1,0,0,0-.44-.34,1.64,1.64,0,0,0-.67-.12,3.2,3.2,0,0,0-1.13.22,9.17,9.17,0,0,0-1.08.55L211,133.9a7.73,7.73,0,0,1,1.47-.72,4.86,4.86,0,0,1,1.76-.31,2.69,2.69,0,0,1,2.2.87,3.84,3.84,0,0,1,.73,2.52v4.66h-1.52l-.13-.86h-.06a5.55,5.55,0,0,1-1.13.75A2.86,2.86,0,0,1,213,141.11Zm.59-1.44a1.71,1.71,0,0,0,.87-.22,4.68,4.68,0,0,0,.84-.64v-1.76a8.73,8.73,0,0,0-1.34.25,4,4,0,0,0-.88.36,1.26,1.26,0,0,0-.48.46,1,1,0,0,0-.15.54.9.9,0,0,0,.32.77A1.35,1.35,0,0,0,213.6,139.67Z"/><path class="cls-4" d="M220.29,131.69a1.21,1.21,0,0,1-.82-.29,1,1,0,0,1-.32-.75,1,1,0,0,1,.32-.76,1.17,1.17,0,0,1,.82-.3,1.13,1.13,0,0,1,.81.3,1,1,0,0,1,.32.76.93.93,0,0,1-.32.75A1.16,1.16,0,0,1,220.29,131.69Zm-.93,9.23v-7.86h1.84v7.86Z"/><path class="cls-4" d="M225.34,141.11a1.54,1.54,0,0,1-1.39-.59,2.88,2.88,0,0,1-.4-1.61v-9.29h1.84V139a.71.71,0,0,0,.13.47.4.4,0,0,0,.27.14h.12l.17,0,.24,1.37A2.44,2.44,0,0,1,225.34,141.11Z"/><path class="cls-4" d="M231.25,140.92V130.46h3.53a6.63,6.63,0,0,1,1.52.16,3.29,3.29,0,0,1,1.22.52,2.51,2.51,0,0,1,.81,1,3.21,3.21,0,0,1,.29,1.47,3.08,3.08,0,0,1-.56,1.94,3.12,3.12,0,0,1-1.52,1.05l2.5,4.37H237l-2.26-4.1h-1.6v4.1Zm1.85-5.57h1.49a2.65,2.65,0,0,0,1.64-.44,1.62,1.62,0,0,0,.57-1.35,1.35,1.35,0,0,0-.57-1.26,3.08,3.08,0,0,0-1.64-.35H233.1Z"/><path class="cls-4" d="M241.49,131.69a1.21,1.21,0,0,1-.82-.29,1,1,0,0,1-.32-.75,1,1,0,0,1,.32-.76,1.17,1.17,0,0,1,.82-.3,1.13,1.13,0,0,1,.81.3,1,1,0,0,1,.32.76.93.93,0,0,1-.32.75A1.16,1.16,0,0,1,241.49,131.69Zm-.93,9.23v-7.86h1.84v7.86Z"/><path class="cls-4" d="M246.94,141.11a4.26,4.26,0,0,1-1.6-.31A5.16,5.16,0,0,1,244,140l.86-1.18a5,5,0,0,0,1,.65,2.82,2.82,0,0,0,1.13.23,1.43,1.43,0,0,0,.94-.26.89.89,0,0,0,.31-.68.68.68,0,0,0-.15-.43,1.39,1.39,0,0,0-.38-.33,4.05,4.05,0,0,0-.55-.26l-.6-.25c-.26-.09-.52-.21-.79-.33a3.5,3.5,0,0,1-.71-.47,2.21,2.21,0,0,1-.51-.63,1.76,1.76,0,0,1-.2-.86,2.1,2.1,0,0,1,.77-1.69,3.1,3.1,0,0,1,2.09-.66,3.6,3.6,0,0,1,1.47.29,5.17,5.17,0,0,1,1.14.66l-.85,1.12a3.6,3.6,0,0,0-.84-.49,2.26,2.26,0,0,0-.89-.19,1.33,1.33,0,0,0-.87.25.82.82,0,0,0-.28.62.66.66,0,0,0,.14.41,1.18,1.18,0,0,0,.36.29,2.8,2.8,0,0,0,.52.24l.61.23a7.85,7.85,0,0,1,.8.32,3.61,3.61,0,0,1,.73.46,2,2,0,0,1,.53.66,2.13,2.13,0,0,1,.2.94,2.31,2.31,0,0,1-.2.95,2.18,2.18,0,0,1-.58.77,2.94,2.94,0,0,1-1,.52A4.12,4.12,0,0,1,246.94,141.11Z"/><path class="cls-4" d="M251.65,140.92v-11.3h1.81v7.06h0l2.92-3.62h2l-2.69,3.2,3,4.66h-2l-2-3.41-1.23,1.41v2Z"/><path class="cls-3" d="M263.34,140.92v-7.78h1.09l.11,1.41h0a3.66,3.66,0,0,1,1-1.17,2.05,2.05,0,0,1,1.24-.43,2.15,2.15,0,0,1,.83.16l-.25,1.15-.36-.09a2.17,2.17,0,0,0-.4,0,1.72,1.72,0,0,0-1,.4,3.06,3.06,0,0,0-.93,1.39v5Z"/><path class="cls-3" d="M271.89,141.11a3.77,3.77,0,0,1-1.47-.28,3.38,3.38,0,0,1-1.18-.8,3.56,3.56,0,0,1-.79-1.27,4.79,4.79,0,0,1-.29-1.71,4.67,4.67,0,0,1,.3-1.72,3.77,3.77,0,0,1,.78-1.29,3.49,3.49,0,0,1,1.11-.81,3.31,3.31,0,0,1,2.62,0,2.45,2.45,0,0,1,1,.74,3.3,3.3,0,0,1,.6,1.15,5,5,0,0,1,.21,1.5c0,.14,0,.28,0,.41a1.59,1.59,0,0,1,0,.34h-5.24a3.06,3.06,0,0,0,.77,2,2.43,2.43,0,0,0,1.82.73,3.13,3.13,0,0,0,1-.17,4.41,4.41,0,0,0,.9-.44l.47.86a6,6,0,0,1-1.14.56A3.91,3.91,0,0,1,271.89,141.11Zm-2.45-4.7h4.16a2.82,2.82,0,0,0-.5-1.8,1.74,1.74,0,0,0-1.42-.62,2.1,2.1,0,0,0-.79.16,2.24,2.24,0,0,0-.68.47,2.74,2.74,0,0,0-.51.76A3.46,3.46,0,0,0,269.44,136.41Z"/><path class="cls-3" d="M278.7,141.11a4.23,4.23,0,0,1-1.58-.3,4.82,4.82,0,0,1-1.31-.77l.65-.88a5.28,5.28,0,0,0,1.05.67,2.86,2.86,0,0,0,1.24.26,1.66,1.66,0,0,0,1.15-.35,1.14,1.14,0,0,0,.39-.87,1,1,0,0,0-.16-.53,1.7,1.7,0,0,0-.41-.39,3,3,0,0,0-.57-.29l-.64-.26c-.28-.1-.55-.2-.83-.33a2.87,2.87,0,0,1-.74-.45,2.24,2.24,0,0,1-.54-.61,1.65,1.65,0,0,1-.21-.85,2,2,0,0,1,.19-.87,2,2,0,0,1,.52-.71,2.6,2.6,0,0,1,.84-.46,3.73,3.73,0,0,1,2.48.09,4.35,4.35,0,0,1,1.06.62l-.62.83a4.48,4.48,0,0,0-.84-.49,2.23,2.23,0,0,0-.94-.19,1.52,1.52,0,0,0-1.08.33,1.08,1.08,0,0,0-.34.79.75.75,0,0,0,.14.47,1.43,1.43,0,0,0,.38.35,3.24,3.24,0,0,0,.56.27l.64.25.84.34a2.7,2.7,0,0,1,.76.44,2.16,2.16,0,0,1,.56.64,1.94,1.94,0,0,1,.21.93,2.26,2.26,0,0,1-.18.9,2.17,2.17,0,0,1-.55.73,2.5,2.5,0,0,1-.89.51A3.88,3.88,0,0,1,278.7,141.11Z"/><path class="cls-3" d="M285.65,141.11a2.09,2.09,0,0,1-1.82-.77,3.78,3.78,0,0,1-.57-2.27v-4.93h1.33v4.76a2.84,2.84,0,0,0,.35,1.59,1.25,1.25,0,0,0,1.11.49,1.87,1.87,0,0,0,1.07-.32,4.7,4.7,0,0,0,1-1v-5.52h1.31v7.78h-1.08l-.11-1.22h-.05a5.43,5.43,0,0,1-1.15,1A2.52,2.52,0,0,1,285.65,141.11Z"/><path class="cls-3" d="M293.47,141.11a1.22,1.22,0,0,1-1.07-.45,2.24,2.24,0,0,1-.32-1.31v-9.82h1.31v9.92a.74.74,0,0,0,.11.45.35.35,0,0,0,.26.12h.12l.17,0,.17,1a1.07,1.07,0,0,1-.3.09A2.81,2.81,0,0,1,293.47,141.11Z"/><path class="cls-3" d="M298.61,141.11a2.5,2.5,0,0,1-1.05-.19,1.83,1.83,0,0,1-.69-.53,1.89,1.89,0,0,1-.37-.81,4.35,4.35,0,0,1-.12-1.06v-4.3h-1.15v-1l1.22-.08.16-2.17h1.1v2.17h2.1v1.08h-2.1v4.32a1.94,1.94,0,0,0,.27,1.11,1,1,0,0,0,.93.39,1.86,1.86,0,0,0,.45-.06,3.58,3.58,0,0,0,.43-.15l.26,1a4.77,4.77,0,0,1-.7.2A3.18,3.18,0,0,1,298.61,141.11Z"/><path class="cls-3" d="M303.44,141.11a4.28,4.28,0,0,1-1.59-.3,5,5,0,0,1-1.31-.77l.66-.88a5,5,0,0,0,1.05.67,2.83,2.83,0,0,0,1.24.26,1.68,1.68,0,0,0,1.15-.35,1.13,1.13,0,0,0,.38-.87.88.88,0,0,0-.16-.53,1.65,1.65,0,0,0-.4-.39,3,3,0,0,0-.57-.29l-.64-.26a8.43,8.43,0,0,1-.83-.33,3.11,3.11,0,0,1-.75-.45,2,2,0,0,1-.53-.61,1.65,1.65,0,0,1-.21-.85,2.12,2.12,0,0,1,.18-.87,2,2,0,0,1,.53-.71,2.6,2.6,0,0,1,.84-.46,3.7,3.7,0,0,1,2.47.09,4.42,4.42,0,0,1,1.07.62l-.63.83a4.41,4.41,0,0,0-.83-.49,2.27,2.27,0,0,0-.95-.19,1.47,1.47,0,0,0-1.07.33,1.09,1.09,0,0,0-.35.79.75.75,0,0,0,.15.47,1.29,1.29,0,0,0,.38.35,3.13,3.13,0,0,0,.55.27l.65.25.84.34a2.85,2.85,0,0,1,.76.44,2.13,2.13,0,0,1,.55.64,1.83,1.83,0,0,1,.22.93,2.11,2.11,0,0,1-.19.9,2,2,0,0,1-.54.73,2.46,2.46,0,0,1-.9.51A3.78,3.78,0,0,1,303.44,141.11Z"/><path class="cls-3" d="M308.8,141.11a.91.91,0,0,1-.68-.28.93.93,0,0,1-.28-.71,1,1,0,0,1,.28-.74.91.91,0,0,1,.68-.28.87.87,0,0,1,.66.28,1,1,0,0,1,.28.74.93.93,0,0,1-.28.71A.87.87,0,0,1,308.8,141.11Z"/><path class="cls-4" d="M187.84,142.52v-.8h71v.8Z"/></svg>