<svg id="Layer_1" data-name="Layer 1" xmlns="http://www.w3.org/2000/svg" viewBox="0 0 480 200"><defs><style>.cls-1{fill:#00916a;}.cls-2{fill:#f5f5f5;}.cls-3{fill:#4b4b4b;}.cls-4{fill:#005fc6;}</style></defs><rect class="cls-1" width="6" height="200"/><rect class="cls-2" x="6" width="474" height="200"/><path class="cls-1" d="M32.4,10.2A15.7,15.7,0,1,0,48.1,25.9,15.73,15.73,0,0,0,32.4,10.2ZM29.3,33.7l-7.8-7.8,2.2-2.2,5.6,5.6L41.1,17.4l2.2,2.2Z"/><path class="cls-3" d="M88.13,81.5,85.91,71h1.37l1.11,5.71c.09.58.19,1.14.3,1.7s.21,1.12.3,1.69h.07c.12-.57.24-1.14.37-1.7s.25-1.12.36-1.69L91.25,71h1.22l1.45,5.71.39,1.68c.12.57.25,1.14.38,1.71h.06c.1-.57.2-1.14.29-1.7s.2-1.12.31-1.69L96.45,71h1.28L95.55,81.5H94l-1.58-6.32c-.1-.4-.18-.8-.26-1.19s-.17-.78-.25-1.19h-.07c-.08.41-.17.8-.26,1.19s-.18.79-.26,1.19L89.71,81.5Z"/><path class="cls-3" d="M102.58,81.7a4,4,0,0,1-1.47-.28,3.68,3.68,0,0,1-1.18-.8,3.6,3.6,0,0,1-.79-1.28,4.79,4.79,0,0,1-.29-1.71,4.67,4.67,0,0,1,.3-1.72,4,4,0,0,1,.78-1.29,3.41,3.41,0,0,1,1.11-.8,3.11,3.11,0,0,1,1.3-.28,3.27,3.27,0,0,1,1.32.25,2.54,2.54,0,0,1,1,.74,3.08,3.08,0,0,1,.6,1.15,5,5,0,0,1,.21,1.5c0,.14,0,.28,0,.41a1.69,1.69,0,0,1,0,.35h-5.24a3,3,0,0,0,.77,2,2.4,2.4,0,0,0,1.82.73,3.13,3.13,0,0,0,1-.17,4.41,4.41,0,0,0,.9-.44l.47.87a6.72,6.72,0,0,1-1.14.56A3.91,3.91,0,0,1,102.58,81.7ZM100.13,77h4.16a2.82,2.82,0,0,0-.5-1.8,1.74,1.74,0,0,0-1.42-.61,2,2,0,0,0-1.47.63,2.6,2.6,0,0,0-.51.76A3.47,3.47,0,0,0,100.13,77Z"/><path class="cls-3" d="M110.56,81.5V70.11h1.31v3.11l0,1.6a6.91,6.91,0,0,1,1.16-.91,2.67,2.67,0,0,1,1.43-.37,2.09,2.09,0,0,1,1.8.76,3.81,3.81,0,0,1,.57,2.28V81.5h-1.32V76.75a2.75,2.75,0,0,0-.35-1.59,1.3,1.3,0,0,0-1.12-.49,1.87,1.87,0,0,0-1.07.31,7.22,7.22,0,0,0-1.06.89V81.5Z"/><path class="cls-3" d="M121.06,81.7a2.39,2.39,0,0,1-1.63-.58,2.07,2.07,0,0,1-.65-1.63,2.16,2.16,0,0,1,1.14-2,9.27,9.27,0,0,1,3.63-1,3.38,3.38,0,0,0-.07-.72,1.77,1.77,0,0,0-.25-.63,1.31,1.31,0,0,0-.49-.44,1.65,1.65,0,0,0-.79-.17,3.12,3.12,0,0,0-1.26.26,5.6,5.6,0,0,0-1.06.58l-.51-.92a9.07,9.07,0,0,1,1.33-.68,4.59,4.59,0,0,1,1.73-.32,2.39,2.39,0,0,1,2.06.87,3.83,3.83,0,0,1,.64,2.33V81.5h-1.09l-.11-.92h-.05a6.38,6.38,0,0,1-1.2.79A2.92,2.92,0,0,1,121.06,81.7Zm.38-1.06a2.31,2.31,0,0,0,1.06-.26,5.44,5.44,0,0,0,1-.78V77.44a16,16,0,0,0-1.64.3,4.41,4.41,0,0,0-1.07.42,1.58,1.58,0,0,0-.59.55,1.37,1.37,0,0,0-.19.68,1.11,1.11,0,0,0,.4,1A1.67,1.67,0,0,0,121.44,80.64Z"/><path class="cls-3" d="M129,81.5l-2.8-7.77h1.36L129,78.14l.36,1.16.36,1.13h.06l.36-1.13c.11-.39.23-.77.35-1.16L132,73.73h1.3l-2.75,7.77Z"/><path class="cls-3" d="M137.89,81.7a3.91,3.91,0,0,1-1.46-.28,3.62,3.62,0,0,1-1.19-.8,3.75,3.75,0,0,1-.79-1.28,4.79,4.79,0,0,1-.29-1.71,4.67,4.67,0,0,1,.3-1.72,4.16,4.16,0,0,1,.78-1.29,3.41,3.41,0,0,1,1.11-.8,3.11,3.11,0,0,1,1.3-.28,3.27,3.27,0,0,1,1.32.25,2.54,2.54,0,0,1,1,.74,3.24,3.24,0,0,1,.61,1.15,5.39,5.39,0,0,1,.2,1.5v.41a2.84,2.84,0,0,1,0,.35h-5.25a3,3,0,0,0,.77,2,2.4,2.4,0,0,0,1.82.73,3.09,3.09,0,0,0,1-.17A4.17,4.17,0,0,0,140,80l.47.87a6.72,6.72,0,0,1-1.14.56A3.91,3.91,0,0,1,137.89,81.7ZM135.44,77h4.16a2.82,2.82,0,0,0-.5-1.8,1.74,1.74,0,0,0-1.42-.61,2,2,0,0,0-1.47.63,2.57,2.57,0,0,0-.5.76A3.19,3.19,0,0,0,135.44,77Z"/><path class="cls-3" d="M147.66,81.7a2.36,2.36,0,0,1-1.62-.58,2.07,2.07,0,0,1-.65-1.63,2.16,2.16,0,0,1,1.14-2,9.27,9.27,0,0,1,3.63-1,3.38,3.38,0,0,0-.07-.72,1.77,1.77,0,0,0-.25-.63,1.31,1.31,0,0,0-.49-.44,1.65,1.65,0,0,0-.79-.17,3.12,3.12,0,0,0-1.26.26,5.6,5.6,0,0,0-1.06.58l-.51-.92a8.59,8.59,0,0,1,1.33-.68,4.58,4.58,0,0,1,1.72-.32,2.41,2.41,0,0,1,2.07.87,3.83,3.83,0,0,1,.64,2.33V81.5H150.4l-.11-.92h0a6.38,6.38,0,0,1-1.2.79A3,3,0,0,1,147.66,81.7Zm.39-1.06a2.27,2.27,0,0,0,1-.26,5.19,5.19,0,0,0,1.06-.78V77.44a16,16,0,0,0-1.64.3,4.41,4.41,0,0,0-1.07.42,1.58,1.58,0,0,0-.59.55,1.27,1.27,0,0,0-.19.68,1.11,1.11,0,0,0,.4,1A1.65,1.65,0,0,0,148.05,80.64Z"/><path class="cls-3" d="M156.59,81.7a2.89,2.89,0,0,1-2.34-1.06,4.61,4.61,0,0,1-.87-3,4.81,4.81,0,0,1,.28-1.7,3.86,3.86,0,0,1,.74-1.29,3.52,3.52,0,0,1,1.07-.82,3,3,0,0,1,1.28-.28,2.66,2.66,0,0,1,1.17.24,5,5,0,0,1,1,.65l-.07-1.33v-3h1.33V81.5H159.1l-.11-.91h-.05a4.69,4.69,0,0,1-1.06.78A2.63,2.63,0,0,1,156.59,81.7Zm.29-1.11a2.15,2.15,0,0,0,1-.26,3.83,3.83,0,0,0,1-.81V75.46a3.38,3.38,0,0,0-1-.64,2.48,2.48,0,0,0-.93-.18,1.82,1.82,0,0,0-.88.22,2.23,2.23,0,0,0-.71.6,3.33,3.33,0,0,0-.48.94,4.18,4.18,0,0,0-.17,1.22,3.66,3.66,0,0,0,.56,2.19A1.83,1.83,0,0,0,156.88,80.59Z"/><path class="cls-3" d="M165.47,81.7a2.89,2.89,0,0,1-2.34-1.06,4.61,4.61,0,0,1-.87-3,4.81,4.81,0,0,1,.28-1.7,3.86,3.86,0,0,1,.74-1.29,3.52,3.52,0,0,1,1.07-.82,3,3,0,0,1,1.28-.28,2.66,2.66,0,0,1,1.17.24,5,5,0,0,1,1,.65l-.07-1.33v-3h1.33V81.5H168l-.11-.91h-.05a4.69,4.69,0,0,1-1.06.78A2.63,2.63,0,0,1,165.47,81.7Zm.29-1.11a2.15,2.15,0,0,0,1-.26,3.83,3.83,0,0,0,1-.81V75.46a3.38,3.38,0,0,0-1-.64,2.48,2.48,0,0,0-.93-.18,1.82,1.82,0,0,0-.88.22,2.23,2.23,0,0,0-.71.6,3.33,3.33,0,0,0-.48.94,4.18,4.18,0,0,0-.17,1.22,3.66,3.66,0,0,0,.56,2.19A1.83,1.83,0,0,0,165.76,80.59Z"/><path class="cls-3" d="M174.85,81.7a4,4,0,0,1-1.47-.28,3.68,3.68,0,0,1-1.18-.8,3.6,3.6,0,0,1-.79-1.28,4.79,4.79,0,0,1-.29-1.71,4.67,4.67,0,0,1,.3-1.72,4,4,0,0,1,.78-1.29,3.41,3.41,0,0,1,1.11-.8,3.11,3.11,0,0,1,1.3-.28,3.27,3.27,0,0,1,1.32.25,2.54,2.54,0,0,1,1,.74,3.08,3.08,0,0,1,.6,1.15,5,5,0,0,1,.21,1.5c0,.14,0,.28,0,.41a1.2,1.2,0,0,1,0,.35h-5.24a3,3,0,0,0,.77,2,2.4,2.4,0,0,0,1.82.73,3.09,3.09,0,0,0,1-.17,4.41,4.41,0,0,0,.9-.44l.47.87a6.72,6.72,0,0,1-1.14.56A3.91,3.91,0,0,1,174.85,81.7ZM172.4,77h4.16a2.82,2.82,0,0,0-.5-1.8,1.74,1.74,0,0,0-1.42-.61,2,2,0,0,0-1.47.63,2.81,2.81,0,0,0-.51.76A3.47,3.47,0,0,0,172.4,77Z"/><path class="cls-3" d="M182.29,81.7a2.91,2.91,0,0,1-2.35-1.06,4.61,4.61,0,0,1-.87-3,5,5,0,0,1,.28-1.7,4.06,4.06,0,0,1,.75-1.29,3.29,3.29,0,0,1,1.07-.82,3,3,0,0,1,1.28-.28,2.69,2.69,0,0,1,1.17.24,5,5,0,0,1,1,.65l-.06-1.33v-3h1.33V81.5H184.8l-.11-.91h-.05a4.92,4.92,0,0,1-1.06.78A2.63,2.63,0,0,1,182.29,81.7Zm.29-1.11a2.15,2.15,0,0,0,1-.26,3.83,3.83,0,0,0,1-.81V75.46a3.52,3.52,0,0,0-.95-.64,2.57,2.57,0,0,0-.94-.18,1.76,1.76,0,0,0-.87.22,2.13,2.13,0,0,0-.71.6,3.33,3.33,0,0,0-.48.94,3.86,3.86,0,0,0-.18,1.22,3.73,3.73,0,0,0,.56,2.19A1.83,1.83,0,0,0,182.58,80.59Z"/><path class="cls-3" d="M193.5,81.7a2.36,2.36,0,0,1-1.62-.58,2.07,2.07,0,0,1-.65-1.63,2.16,2.16,0,0,1,1.14-2,9.27,9.27,0,0,1,3.63-1,3.38,3.38,0,0,0-.07-.72,1.77,1.77,0,0,0-.25-.63,1.31,1.31,0,0,0-.49-.44,1.68,1.68,0,0,0-.79-.17,3.12,3.12,0,0,0-1.26.26,5.6,5.6,0,0,0-1.06.58l-.51-.92a8.59,8.59,0,0,1,1.33-.68,4.54,4.54,0,0,1,1.72-.32,2.41,2.41,0,0,1,2.07.87,3.9,3.9,0,0,1,.64,2.33V81.5h-1.09l-.11-.92h0a6.38,6.38,0,0,1-1.2.79A3,3,0,0,1,193.5,81.7Zm.39-1.06a2.27,2.27,0,0,0,1.05-.26A5.48,5.48,0,0,0,196,79.6V77.44a16,16,0,0,0-1.64.3,4.41,4.41,0,0,0-1.07.42,1.58,1.58,0,0,0-.59.55,1.27,1.27,0,0,0-.19.68,1.11,1.11,0,0,0,.4,1A1.65,1.65,0,0,0,193.89,80.64Z"/><path class="cls-3" d="M203,81.5V73.73h1.08l.12,1.12h0a6.76,6.76,0,0,1,1.18-.94,2.7,2.7,0,0,1,1.43-.37,2.09,2.09,0,0,1,1.8.76,3.81,3.81,0,0,1,.57,2.28V81.5h-1.31V76.75a2.84,2.84,0,0,0-.35-1.59,1.31,1.31,0,0,0-1.12-.49,1.88,1.88,0,0,0-1.08.31,6.73,6.73,0,0,0-1.05.89V81.5Z"/><path class="cls-3" d="M214,81.7a2.13,2.13,0,0,1-1.82-.77,3.86,3.86,0,0,1-.56-2.27V73.73h1.32v4.75a2.79,2.79,0,0,0,.35,1.59,1.25,1.25,0,0,0,1.11.49,1.84,1.84,0,0,0,1.07-.31,5.21,5.21,0,0,0,1-1V73.73h1.31V81.5h-1.09l-.11-1.21h-.05a4.87,4.87,0,0,1-1.14,1A2.56,2.56,0,0,1,214,81.7Z"/><path class="cls-3" d="M220.43,81.5V73.73h1.09l.11,1.12h.05a5.43,5.43,0,0,1,1.11-.94,2.43,2.43,0,0,1,1.31-.37,2.26,2.26,0,0,1,1.4.39,2.33,2.33,0,0,1,.74,1.09,7.39,7.39,0,0,1,1.22-1.08,2.39,2.39,0,0,1,1.34-.4,2.09,2.09,0,0,1,1.78.76,3.74,3.74,0,0,1,.59,2.28V81.5h-1.31V76.75a2.75,2.75,0,0,0-.36-1.59,1.25,1.25,0,0,0-1.08-.49,2.9,2.9,0,0,0-2,1.2V81.5h-1.31V76.75a2.84,2.84,0,0,0-.35-1.59,1.28,1.28,0,0,0-1.1-.49,2.9,2.9,0,0,0-2,1.2V81.5Z"/><path class="cls-3" d="M237.14,81.7a2.67,2.67,0,0,1-1.13-.27,4.05,4.05,0,0,1-1.1-.73h0l-.11.8H233.7V70.11H235v3.11l0,1.4a5.64,5.64,0,0,1,1.15-.77,2.78,2.78,0,0,1,1.28-.31,3,3,0,0,1,1.33.28,2.55,2.55,0,0,1,1,.8,3.58,3.58,0,0,1,.6,1.24,6.33,6.33,0,0,1,.2,1.63,5.14,5.14,0,0,1-.28,1.77,4,4,0,0,1-.73,1.33,3.13,3.13,0,0,1-1.07.83A3.17,3.17,0,0,1,237.14,81.7Zm-.23-1.11a1.91,1.91,0,0,0,.89-.21,2.15,2.15,0,0,0,.7-.61,2.92,2.92,0,0,0,.47-1,4.71,4.71,0,0,0,.17-1.3,5.23,5.23,0,0,0-.12-1.16,2.41,2.41,0,0,0-.36-.91,1.63,1.63,0,0,0-.64-.58,1.94,1.94,0,0,0-.93-.21A3.22,3.22,0,0,0,235,75.7v4.08a3.41,3.41,0,0,0,1,.63A2.75,2.75,0,0,0,236.91,80.59Z"/><path class="cls-3" d="M245.7,81.7a4,4,0,0,1-1.47-.28,3.5,3.5,0,0,1-2-2.08,4.58,4.58,0,0,1-.29-1.71,4.88,4.88,0,0,1,.29-1.72,4.18,4.18,0,0,1,.79-1.29,3.21,3.21,0,0,1,1.11-.8,3.11,3.11,0,0,1,1.3-.28,3.27,3.27,0,0,1,1.32.25,2.54,2.54,0,0,1,1,.74,3.4,3.4,0,0,1,.6,1.15,5,5,0,0,1,.21,1.5c0,.14,0,.28,0,.41a1.69,1.69,0,0,1,0,.35h-5.25a3.07,3.07,0,0,0,.78,2,2.38,2.38,0,0,0,1.82.73,3.13,3.13,0,0,0,1-.17,4.68,4.68,0,0,0,.9-.44l.47.87a7.11,7.11,0,0,1-1.14.56A4,4,0,0,1,245.7,81.7ZM243.25,77h4.16a2.76,2.76,0,0,0-.51-1.8,1.7,1.7,0,0,0-1.41-.61,1.92,1.92,0,0,0-.79.16,1.85,1.85,0,0,0-.68.47,2.6,2.6,0,0,0-.51.76A3.47,3.47,0,0,0,243.25,77Z"/><path class="cls-3" d="M250.48,81.5V73.73h1.09l.11,1.41h0a3.54,3.54,0,0,1,1-1.17,2,2,0,0,1,1.24-.43,2,2,0,0,1,.83.16l-.26,1.15a3.21,3.21,0,0,0-.35-.1,2.25,2.25,0,0,0-.4,0,1.7,1.7,0,0,0-1,.4,3.21,3.21,0,0,0-.94,1.39v5Z"/><path class="cls-3" d="M262.26,81.7a3.51,3.51,0,0,1-2.52-1.07,3.8,3.8,0,0,1-.79-1.28,5.28,5.28,0,0,1,0-3.45,4,4,0,0,1,.79-1.29,3.36,3.36,0,0,1,1.15-.8,3.52,3.52,0,0,1,1.37-.27,3.47,3.47,0,0,1,1.36.27,3.27,3.27,0,0,1,1.15.8,4,4,0,0,1,.79,1.29,5.28,5.28,0,0,1,0,3.45,3.8,3.8,0,0,1-.79,1.28,3.24,3.24,0,0,1-1.15.79A3.31,3.31,0,0,1,262.26,81.7Zm0-1.09a1.88,1.88,0,0,0,.91-.22,2.05,2.05,0,0,0,.71-.61,2.89,2.89,0,0,0,.46-.93,4.56,4.56,0,0,0,.16-1.22,4.62,4.62,0,0,0-.16-1.22,2.9,2.9,0,0,0-.46-1,2.08,2.08,0,0,0-.71-.62,2,2,0,0,0-1.83,0,2.08,2.08,0,0,0-.71.62,2.7,2.7,0,0,0-.45,1,4.24,4.24,0,0,0-.16,1.22,4.19,4.19,0,0,0,.16,1.22,2.69,2.69,0,0,0,.45.93,2.05,2.05,0,0,0,.71.61A1.9,1.9,0,0,0,262.26,80.61Z"/><path class="cls-3" d="M268.13,81.5V74.8h-1.06v-1l1.06-.08V72.5a2.93,2.93,0,0,1,.55-1.89,2.07,2.07,0,0,1,1.72-.69,3.14,3.14,0,0,1,.7.07,3.4,3.4,0,0,1,.59.19l-.28,1a2.28,2.28,0,0,0-.88-.19c-.73,0-1.09.5-1.09,1.51v1.23h1.65V74.8h-1.65v6.7Z"/><path class="cls-3" d="M275.77,81.5V73.73h1.09l.11,1.41h0A3.66,3.66,0,0,1,278,74a2.09,2.09,0,0,1,2.07-.27l-.25,1.15a3.34,3.34,0,0,0-.36-.1,2.17,2.17,0,0,0-.4,0,1.72,1.72,0,0,0-1,.4,3.12,3.12,0,0,0-.93,1.39v5Z"/><path class="cls-3" d="M284.32,81.7a4,4,0,0,1-1.47-.28,3.68,3.68,0,0,1-1.18-.8,3.75,3.75,0,0,1-.79-1.28,4.79,4.79,0,0,1-.29-1.71,4.67,4.67,0,0,1,.3-1.72,4.16,4.16,0,0,1,.78-1.29,3.41,3.41,0,0,1,1.11-.8,3.11,3.11,0,0,1,1.3-.28,3.27,3.27,0,0,1,1.32.25,2.54,2.54,0,0,1,1,.74,3.24,3.24,0,0,1,.61,1.15,5.39,5.39,0,0,1,.2,1.5v.41a2.84,2.84,0,0,1,0,.35h-5.25a3,3,0,0,0,.77,2,2.4,2.4,0,0,0,1.82.73,3.09,3.09,0,0,0,1-.17,4.17,4.17,0,0,0,.9-.44l.47.87a6.72,6.72,0,0,1-1.14.56A3.91,3.91,0,0,1,284.32,81.7ZM281.87,77H286a2.82,2.82,0,0,0-.5-1.8,1.74,1.74,0,0,0-1.42-.61,2,2,0,0,0-1.47.63,2.57,2.57,0,0,0-.5.76A3.19,3.19,0,0,0,281.87,77Z"/><path class="cls-3" d="M294,84.78V82l.06-1.41a4.06,4.06,0,0,1-1.06.77,2.69,2.69,0,0,1-1.27.32,2.92,2.92,0,0,1-2.35-1.06,4.61,4.61,0,0,1-.87-3,5,5,0,0,1,.28-1.7,4.06,4.06,0,0,1,.75-1.29,3.4,3.4,0,0,1,1.07-.82,3,3,0,0,1,1.28-.28,2.73,2.73,0,0,1,1.18.23,4.07,4.07,0,0,1,1,.69h0l.13-.73h1.06v11Zm-2-4.19a2.15,2.15,0,0,0,1-.26,3.83,3.83,0,0,0,1-.81V75.46a3.52,3.52,0,0,0-.95-.64,2.57,2.57,0,0,0-.94-.18,1.76,1.76,0,0,0-.87.22,2.13,2.13,0,0,0-.71.6,3.33,3.33,0,0,0-.48.94,3.86,3.86,0,0,0-.18,1.22,3.73,3.73,0,0,0,.56,2.19A1.85,1.85,0,0,0,292.05,80.59Z"/><path class="cls-3" d="M300.25,81.7a2.11,2.11,0,0,1-1.81-.77,3.78,3.78,0,0,1-.57-2.27V73.73h1.33v4.75a2.8,2.8,0,0,0,.34,1.59,1.25,1.25,0,0,0,1.11.49,1.88,1.88,0,0,0,1.08-.31,4.94,4.94,0,0,0,1-1V73.73h1.31V81.5H303l-.11-1.21h-.05a4.87,4.87,0,0,1-1.14,1A2.54,2.54,0,0,1,300.25,81.7Z"/><path class="cls-3" d="M309.84,81.7a4,4,0,0,1-1.47-.28,3.68,3.68,0,0,1-1.18-.8,3.6,3.6,0,0,1-.79-1.28,4.79,4.79,0,0,1-.29-1.71,4.67,4.67,0,0,1,.3-1.72,4,4,0,0,1,.78-1.29,3.41,3.41,0,0,1,1.11-.8,3.11,3.11,0,0,1,1.3-.28,3.27,3.27,0,0,1,1.32.25,2.54,2.54,0,0,1,1,.74,3.08,3.08,0,0,1,.6,1.15,5,5,0,0,1,.21,1.5c0,.14,0,.28,0,.41a1.2,1.2,0,0,1,0,.35h-5.24a3,3,0,0,0,.77,2,2.4,2.4,0,0,0,1.82.73,3.09,3.09,0,0,0,1-.17,4.17,4.17,0,0,0,.9-.44l.47.87a6.72,6.72,0,0,1-1.14.56A3.91,3.91,0,0,1,309.84,81.7ZM307.39,77h4.16a2.82,2.82,0,0,0-.5-1.8,1.74,1.74,0,0,0-1.42-.61,2,2,0,0,0-1.47.63,2.81,2.81,0,0,0-.51.76A3.47,3.47,0,0,0,307.39,77Z"/><path class="cls-3" d="M316.65,81.7a4,4,0,0,1-1.58-.31,4.82,4.82,0,0,1-1.31-.77l.65-.88a5.35,5.35,0,0,0,1,.68,2.86,2.86,0,0,0,1.24.25,1.62,1.62,0,0,0,1.15-.35,1.11,1.11,0,0,0,.39-.86.92.92,0,0,0-.16-.53,1.53,1.53,0,0,0-.41-.39,3.07,3.07,0,0,0-.57-.3l-.64-.26c-.28-.09-.55-.2-.83-.32a3.55,3.55,0,0,1-.74-.45,2.28,2.28,0,0,1-.54-.62,1.62,1.62,0,0,1-.21-.85,2,2,0,0,1,.19-.87,2,2,0,0,1,.52-.7,2.62,2.62,0,0,1,.84-.47,3.9,3.9,0,0,1,2.48.09,4.07,4.07,0,0,1,1.06.63l-.62.83a4.54,4.54,0,0,0-.84-.5,2.23,2.23,0,0,0-.94-.19,1.47,1.47,0,0,0-1.08.34,1,1,0,0,0-.34.78.75.75,0,0,0,.14.47,1.28,1.28,0,0,0,.38.35,2.66,2.66,0,0,0,.56.28l.64.24.84.34a3,3,0,0,1,.76.44,2.2,2.2,0,0,1,.56.65,1.88,1.88,0,0,1,.21.93,2.18,2.18,0,0,1-.18.89,2.2,2.2,0,0,1-.55.74,2.65,2.65,0,0,1-.89.5A3.61,3.61,0,0,1,316.65,81.7Z"/><path class="cls-3" d="M323.45,81.7a2.47,2.47,0,0,1-1-.2,1.66,1.66,0,0,1-.69-.52,2.14,2.14,0,0,1-.38-.82,4.93,4.93,0,0,1-.11-1.06V74.8h-1.15v-1l1.21-.08.16-2.18h1.11v2.18h2.09V74.8h-2.09v4.32a2,2,0,0,0,.26,1.11,1.06,1.06,0,0,0,.94.39,1.86,1.86,0,0,0,.45-.06,3.62,3.62,0,0,0,.43-.14l.25,1c-.21.07-.44.14-.69.2A3.2,3.2,0,0,1,323.45,81.7Z"/><path class="cls-3" d="M329.34,81.7a3.91,3.91,0,0,1-1.46-.28,3.47,3.47,0,0,1-2-2.08,4.79,4.79,0,0,1-.29-1.71,4.67,4.67,0,0,1,.3-1.72,4.35,4.35,0,0,1,.78-1.29,3.35,3.35,0,0,1,1.12-.8,3,3,0,0,1,1.29-.28,3.27,3.27,0,0,1,1.32.25,2.58,2.58,0,0,1,1,.74,3.4,3.4,0,0,1,.6,1.15,5,5,0,0,1,.21,1.5c0,.14,0,.28,0,.41a2.84,2.84,0,0,1,0,.35h-5.25a3,3,0,0,0,.78,2,2.37,2.37,0,0,0,1.81.73,3,3,0,0,0,1-.17,4.49,4.49,0,0,0,.91-.44l.46.87a7,7,0,0,1-1.13.56A4,4,0,0,1,329.34,81.7ZM326.89,77h4.16a2.76,2.76,0,0,0-.5-1.8,1.74,1.74,0,0,0-1.42-.61,2,2,0,0,0-.79.16,1.94,1.94,0,0,0-.68.47,2.57,2.57,0,0,0-.5.76A3.47,3.47,0,0,0,326.89,77Z"/><path class="cls-3" d="M336.78,81.7a2.89,2.89,0,0,1-2.34-1.06,4.61,4.61,0,0,1-.87-3,4.81,4.81,0,0,1,.28-1.7,3.86,3.86,0,0,1,.74-1.29,3.52,3.52,0,0,1,1.07-.82,3,3,0,0,1,1.28-.28,2.66,2.66,0,0,1,1.17.24,5,5,0,0,1,1,.65l-.07-1.33v-3h1.33V81.5h-1.09l-.11-.91h-.05a4.92,4.92,0,0,1-1.06.78A2.63,2.63,0,0,1,336.78,81.7Zm.29-1.11a2.15,2.15,0,0,0,1-.26,3.83,3.83,0,0,0,1-.81V75.46a3.38,3.38,0,0,0-.95-.64,2.48,2.48,0,0,0-.93-.18,1.82,1.82,0,0,0-.88.22,2.13,2.13,0,0,0-.71.6,3.33,3.33,0,0,0-.48.94,3.87,3.87,0,0,0-.17,1.22,3.66,3.66,0,0,0,.56,2.19A1.83,1.83,0,0,0,337.07,80.59Z"/><path class="cls-3" d="M346.43,81.5V74.8h-1.06v-1l1.06-.08V72.5a2.93,2.93,0,0,1,.55-1.89,2.07,2.07,0,0,1,1.72-.69,3.14,3.14,0,0,1,.7.07,3.25,3.25,0,0,1,.6.19l-.29,1a2.28,2.28,0,0,0-.88-.19c-.73,0-1.09.5-1.09,1.51v1.23h1.65V74.8h-1.65v6.7Z"/><path class="cls-3" d="M351.55,72.13a.93.93,0,0,1-.65-.24.86.86,0,0,1,0-1.23,1,1,0,0,1,1.3,0,.86.86,0,0,1,0,1.23A.93.93,0,0,1,351.55,72.13Zm-.67,9.37V73.73h1.31V81.5Z"/><path class="cls-3" d="M358,81.7a3.93,3.93,0,0,1-1.47-.28,3.5,3.5,0,0,1-2-2.08,4.58,4.58,0,0,1-.29-1.71,4.88,4.88,0,0,1,.29-1.72,4.18,4.18,0,0,1,.79-1.29,3.21,3.21,0,0,1,1.11-.8,3.11,3.11,0,0,1,1.3-.28,3.27,3.27,0,0,1,1.32.25,2.54,2.54,0,0,1,1,.74,3.4,3.4,0,0,1,.6,1.15,5,5,0,0,1,.21,1.5c0,.14,0,.28,0,.41a1.69,1.69,0,0,1,0,.35h-5.25a3.07,3.07,0,0,0,.78,2,2.38,2.38,0,0,0,1.82.73,3.13,3.13,0,0,0,1-.17,4.68,4.68,0,0,0,.9-.44l.47.87a7.11,7.11,0,0,1-1.14.56A4,4,0,0,1,358,81.7ZM355.52,77h4.16a2.76,2.76,0,0,0-.51-1.8,1.7,1.7,0,0,0-1.41-.61,1.92,1.92,0,0,0-.79.16,1.85,1.85,0,0,0-.68.47,2.42,2.42,0,0,0-.51.76A3.47,3.47,0,0,0,355.52,77Z"/><path class="cls-3" d="M364.14,81.7a1.22,1.22,0,0,1-1.07-.45,2.28,2.28,0,0,1-.32-1.31V70.11h1.31V80a.7.7,0,0,0,.11.45.33.33,0,0,0,.26.13h.12l.17,0,.17,1a1.07,1.07,0,0,1-.3.09A1.92,1.92,0,0,1,364.14,81.7Z"/><path class="cls-3" d="M369.48,81.7a2.89,2.89,0,0,1-2.34-1.06,4.61,4.61,0,0,1-.87-3,4.81,4.81,0,0,1,.28-1.7,4,4,0,0,1,.74-1.29,3.52,3.52,0,0,1,1.07-.82,3,3,0,0,1,1.29-.28,2.64,2.64,0,0,1,1.16.24,5,5,0,0,1,1,.65l-.06-1.33v-3h1.33V81.5H372l-.11-.91h-.05a5,5,0,0,1-1.07.78A2.63,2.63,0,0,1,369.48,81.7Zm.29-1.11a2.16,2.16,0,0,0,1-.26,3.83,3.83,0,0,0,1-.81V75.46a3.52,3.52,0,0,0-.95-.64,2.57,2.57,0,0,0-.94-.18,1.76,1.76,0,0,0-.87.22,2.27,2.27,0,0,0-.72.6,3.07,3.07,0,0,0-.47.94,3.86,3.86,0,0,0-.18,1.22,3.73,3.73,0,0,0,.56,2.19A1.83,1.83,0,0,0,369.77,80.59Z"/><path class="cls-3" d="M377.74,81.7a4,4,0,0,1-1.58-.31,4.82,4.82,0,0,1-1.31-.77l.65-.88a5.07,5.07,0,0,0,1.05.68,2.86,2.86,0,0,0,1.24.25,1.62,1.62,0,0,0,1.15-.35,1.1,1.1,0,0,0,.38-.86.86.86,0,0,0-.16-.53,1.49,1.49,0,0,0-.4-.39,3.07,3.07,0,0,0-.57-.3l-.64-.26a8.36,8.36,0,0,1-.83-.32,3.92,3.92,0,0,1-.75-.45,2.24,2.24,0,0,1-.53-.62,1.62,1.62,0,0,1-.21-.85,2.15,2.15,0,0,1,.18-.87,2.13,2.13,0,0,1,.53-.7,2.62,2.62,0,0,1,.84-.47,3.87,3.87,0,0,1,2.47.09,4.14,4.14,0,0,1,1.07.63l-.63.83a4.16,4.16,0,0,0-.83-.5,2.26,2.26,0,0,0-.94-.19,1.47,1.47,0,0,0-1.08.34,1,1,0,0,0-.35.78.75.75,0,0,0,.15.47,1.17,1.17,0,0,0,.38.35,2.57,2.57,0,0,0,.55.28l.65.24.84.34a3.15,3.15,0,0,1,.76.44,2,2,0,0,1,.55.65,1.78,1.78,0,0,1,.22.93,2.19,2.19,0,0,1-.73,1.63,2.65,2.65,0,0,1-.89.5A3.61,3.61,0,0,1,377.74,81.7Z"/><path class="cls-3" d="M388.06,81.7a2.49,2.49,0,0,1-1.05-.2,1.8,1.8,0,0,1-.69-.52,2.13,2.13,0,0,1-.37-.82,4.37,4.37,0,0,1-.11-1.06V74.8h-1.16v-1l1.22-.08.16-2.18h1.1v2.18h2.1V74.8h-2.1v4.32a1.94,1.94,0,0,0,.27,1.11,1,1,0,0,0,.93.39,1.86,1.86,0,0,0,.45-.06,3.11,3.11,0,0,0,.43-.14l.26,1c-.21.07-.44.14-.7.2A3.12,3.12,0,0,1,388.06,81.7Z"/><path class="cls-3" d="M393.82,81.7a3.39,3.39,0,0,1-1.37-.28,3.3,3.3,0,0,1-1.14-.79,3.65,3.65,0,0,1-.79-1.28,5.11,5.11,0,0,1,0-3.45,3.79,3.79,0,0,1,.79-1.29,3.33,3.33,0,0,1,1.14-.8,3.56,3.56,0,0,1,1.37-.27,3.52,3.52,0,0,1,1.37.27,3.33,3.33,0,0,1,1.14.8,3.79,3.79,0,0,1,.79,1.29,5.11,5.11,0,0,1,0,3.45,3.65,3.65,0,0,1-.79,1.28,3.3,3.3,0,0,1-1.14.79A3.36,3.36,0,0,1,393.82,81.7Zm0-1.09a1.86,1.86,0,0,0,.91-.22,1.89,1.89,0,0,0,.71-.61,2.89,2.89,0,0,0,.46-.93,4.19,4.19,0,0,0,.16-1.22,4.24,4.24,0,0,0-.16-1.22,2.9,2.9,0,0,0-.46-1,1.91,1.91,0,0,0-.71-.62,2,2,0,0,0-.91-.22,2,2,0,0,0-.91.22,1.91,1.91,0,0,0-.71.62,2.9,2.9,0,0,0-.46,1,4.24,4.24,0,0,0-.16,1.22,4.19,4.19,0,0,0,.16,1.22,2.89,2.89,0,0,0,.46.93,2,2,0,0,0,1.62.83Z"/><path class="cls-3" d="M89.3,105.7a2.49,2.49,0,0,1-1-.2,1.8,1.8,0,0,1-.69-.52,2.13,2.13,0,0,1-.37-.82,4.35,4.35,0,0,1-.12-1.06V98.8H85.92v-1l1.22-.08.16-2.18h1.1v2.18h2.1V98.8H88.4v4.32a1.94,1.94,0,0,0,.27,1.11,1,1,0,0,0,.93.39,1.86,1.86,0,0,0,.45-.06,3.62,3.62,0,0,0,.43-.14l.26,1c-.22.07-.45.14-.7.2A3.18,3.18,0,0,1,89.3,105.7Z"/><path class="cls-3" d="M92.26,105.5V94.11h1.31v3.11l0,1.6a7,7,0,0,1,1.17-.91,2.66,2.66,0,0,1,1.42-.37,2.08,2.08,0,0,1,1.8.76,3.81,3.81,0,0,1,.57,2.28v4.92H97.17v-4.75a2.84,2.84,0,0,0-.35-1.59,1.31,1.31,0,0,0-1.12-.49,1.84,1.84,0,0,0-1.07.31,6.74,6.74,0,0,0-1.06.89v5.63Z"/><path class="cls-3" d="M104.11,105.7a3.91,3.91,0,0,1-1.46-.28,3.57,3.57,0,0,1-1.18-.8,3.77,3.77,0,0,1-.8-1.28,4.79,4.79,0,0,1-.28-1.71,4.67,4.67,0,0,1,.29-1.72,4.18,4.18,0,0,1,.79-1.29,3.21,3.21,0,0,1,1.11-.8,3.06,3.06,0,0,1,1.29-.28,3.27,3.27,0,0,1,1.32.25,2.58,2.58,0,0,1,1,.74,3.4,3.4,0,0,1,.6,1.15,5,5,0,0,1,.21,1.5c0,.14,0,.28,0,.41a2.84,2.84,0,0,1,0,.35h-5.25a3,3,0,0,0,.78,2,2.37,2.37,0,0,0,1.81.73,3.15,3.15,0,0,0,1-.17,4.68,4.68,0,0,0,.9-.44l.46.87a7,7,0,0,1-1.13.56A4,4,0,0,1,104.11,105.7ZM101.67,101h4.16a2.76,2.76,0,0,0-.51-1.8,1.72,1.72,0,0,0-1.41-.61,2,2,0,0,0-.8.16,2,2,0,0,0-.68.47,2.57,2.57,0,0,0-.5.76A3.47,3.47,0,0,0,101.67,101Z"/><path class="cls-3" d="M114.75,105.7a2.89,2.89,0,0,1-2.34-1.06,4.61,4.61,0,0,1-.87-3,4.81,4.81,0,0,1,.28-1.7,3.86,3.86,0,0,1,.74-1.29,3.52,3.52,0,0,1,1.07-.82,3,3,0,0,1,1.28-.28,2.66,2.66,0,0,1,1.17.24,5,5,0,0,1,1,.65L117,97.1v-3h1.33V105.5h-1.08l-.12-.91h-.05a4.69,4.69,0,0,1-1.06.78A2.63,2.63,0,0,1,114.75,105.7Zm.29-1.11a2.15,2.15,0,0,0,1-.26,3.83,3.83,0,0,0,1-.81V99.46a3.38,3.38,0,0,0-1-.64,2.48,2.48,0,0,0-.93-.18,1.76,1.76,0,0,0-.87.22,2.16,2.16,0,0,0-.72.6,3.33,3.33,0,0,0-.48.94,4.18,4.18,0,0,0-.17,1.22,3.66,3.66,0,0,0,.56,2.19A1.83,1.83,0,0,0,115,104.59Z"/><path class="cls-3" d="M124,105.7a3.39,3.39,0,0,1-1.37-.28,3.3,3.3,0,0,1-1.14-.79,3.8,3.8,0,0,1-.79-1.28,5.11,5.11,0,0,1,0-3.45,4,4,0,0,1,.79-1.29,3.33,3.33,0,0,1,1.14-.8,3.56,3.56,0,0,1,1.37-.27,3.52,3.52,0,0,1,1.37.27,3.33,3.33,0,0,1,1.14.8,4,4,0,0,1,.8,1.29,5.28,5.28,0,0,1,0,3.45,3.82,3.82,0,0,1-.8,1.28,3.3,3.3,0,0,1-1.14.79A3.36,3.36,0,0,1,124,105.7Zm0-1.09a1.86,1.86,0,0,0,.91-.22,2,2,0,0,0,.72-.61,2.88,2.88,0,0,0,.45-.93,4.19,4.19,0,0,0,.16-1.22,4.24,4.24,0,0,0-.16-1.22,2.89,2.89,0,0,0-.45-1,2,2,0,0,0-.72-.62,2,2,0,0,0-.91-.22,2,2,0,0,0-.91.22,1.91,1.91,0,0,0-.71.62,2.9,2.9,0,0,0-.46,1,4.24,4.24,0,0,0-.16,1.22,4.19,4.19,0,0,0,.16,1.22,2.89,2.89,0,0,0,.46.93,2,2,0,0,0,1.62.83Z"/><path class="cls-3" d="M130.82,105.5l-2.16-7.77H130l1.15,4.49c.09.38.17.74.24,1.09s.15.71.23,1.07h.06c.09-.36.17-.72.26-1.08s.17-.71.27-1.08l1.2-4.49h1.28l1.21,4.49c.1.38.19.74.29,1.09s.17.71.26,1.07h.06c.09-.36.17-.72.24-1.07s.16-.71.24-1.09l1.14-4.49h1.25l-2.08,7.77h-1.6l-1.12-4.17q-.15-.56-.27-1.11c-.08-.36-.16-.74-.26-1.13H134c-.08.39-.17.77-.25,1.14s-.18.74-.29,1.11l-1.09,4.16Z"/><path class="cls-3" d="M141.07,105.5V97.73h1.09l.11,1.12h0a6.41,6.41,0,0,1,1.18-.94,2.7,2.7,0,0,1,1.43-.37,2.09,2.09,0,0,1,1.8.76,3.81,3.81,0,0,1,.57,2.28v4.92H146v-4.75a2.75,2.75,0,0,0-.35-1.59,1.3,1.3,0,0,0-1.12-.49,1.87,1.87,0,0,0-1.07.31,6.73,6.73,0,0,0-1.05.89v5.63Z"/><path class="cls-3" d="M151.22,105.7a1.22,1.22,0,0,1-1.07-.45,2.2,2.2,0,0,1-.33-1.31V94.11h1.32V104a.64.64,0,0,0,.11.45.32.32,0,0,0,.26.13h.12l.16,0,.18,1a1.32,1.32,0,0,1-.3.09A1.92,1.92,0,0,1,151.22,105.7Z"/><path class="cls-3" d="M156.93,105.7a3.36,3.36,0,0,1-1.37-.28,3.3,3.3,0,0,1-1.14-.79,3.82,3.82,0,0,1-.8-1.28,5.28,5.28,0,0,1,0-3.45,4,4,0,0,1,.8-1.29,3.33,3.33,0,0,1,1.14-.8,3.52,3.52,0,0,1,1.37-.27,3.56,3.56,0,0,1,1.37.27,3.33,3.33,0,0,1,1.14.8,4,4,0,0,1,.79,1.29,5.11,5.11,0,0,1,0,3.45,3.8,3.8,0,0,1-.79,1.28,3.3,3.3,0,0,1-1.14.79A3.39,3.39,0,0,1,156.93,105.7Zm0-1.09a1.88,1.88,0,0,0,.91-.22,2,2,0,0,0,.71-.61,2.89,2.89,0,0,0,.46-.93,4.56,4.56,0,0,0,.16-1.22,4.62,4.62,0,0,0-.16-1.22,2.9,2.9,0,0,0-.46-1,2,2,0,0,0-1.62-.84,2,2,0,0,0-.91.22,2,2,0,0,0-.72.62,2.89,2.89,0,0,0-.45,1,4.24,4.24,0,0,0-.16,1.22,4.19,4.19,0,0,0,.16,1.22,2.88,2.88,0,0,0,.45.93,2,2,0,0,0,.72.61A1.86,1.86,0,0,0,156.93,104.61Z"/><path class="cls-3" d="M164.14,105.7a2.36,2.36,0,0,1-1.62-.58,2.07,2.07,0,0,1-.65-1.63,2.16,2.16,0,0,1,1.14-2,9.27,9.27,0,0,1,3.63-1,3.38,3.38,0,0,0-.07-.72,1.77,1.77,0,0,0-.25-.63,1.31,1.31,0,0,0-.49-.44,1.68,1.68,0,0,0-.79-.17,3.12,3.12,0,0,0-1.26.26,5.6,5.6,0,0,0-1.06.58l-.51-.92a8.59,8.59,0,0,1,1.33-.68,4.58,4.58,0,0,1,1.72-.32,2.41,2.41,0,0,1,2.07.87,3.83,3.83,0,0,1,.64,2.33v4.76h-1.09l-.11-.92h-.05a6.38,6.38,0,0,1-1.2.79A3,3,0,0,1,164.14,105.7Zm.39-1.06a2.27,2.27,0,0,0,1.05-.26,5.48,5.48,0,0,0,1.06-.78v-2.16a16,16,0,0,0-1.64.3,4.41,4.41,0,0,0-1.07.42,1.58,1.58,0,0,0-.59.55,1.27,1.27,0,0,0-.19.68,1.11,1.11,0,0,0,.4,1A1.65,1.65,0,0,0,164.53,104.64Z"/><path class="cls-3" d="M173.07,105.7a2.89,2.89,0,0,1-2.34-1.06,4.61,4.61,0,0,1-.87-3,4.81,4.81,0,0,1,.28-1.7,3.86,3.86,0,0,1,.74-1.29,3.52,3.52,0,0,1,1.07-.82,3,3,0,0,1,1.28-.28,2.66,2.66,0,0,1,1.17.24,5,5,0,0,1,1,.65l-.06-1.33v-3h1.32V105.5h-1.08l-.12-.91h0a5,5,0,0,1-1.07.78A2.63,2.63,0,0,1,173.07,105.7Zm.29-1.11a2.22,2.22,0,0,0,1-.26,4.22,4.22,0,0,0,1-.81V99.46a3.56,3.56,0,0,0-1-.64,2.48,2.48,0,0,0-.93-.18,1.76,1.76,0,0,0-.87.22,2.16,2.16,0,0,0-.72.6,3.33,3.33,0,0,0-.48.94,4.18,4.18,0,0,0-.17,1.22,3.66,3.66,0,0,0,.56,2.19A1.83,1.83,0,0,0,173.36,104.59Z"/><path class="cls-3" d="M181.09,105.7a2.41,2.41,0,0,1-1.63-.58,2.07,2.07,0,0,1-.64-1.63,2.15,2.15,0,0,1,1.13-2,9.27,9.27,0,0,1,3.63-1,3.38,3.38,0,0,0-.07-.72,1.77,1.77,0,0,0-.25-.63,1.28,1.28,0,0,0-.48-.44,1.72,1.72,0,0,0-.8-.17,3.16,3.16,0,0,0-1.26.26,5.6,5.6,0,0,0-1.06.58l-.51-.92a9.07,9.07,0,0,1,1.33-.68,4.59,4.59,0,0,1,1.73-.32,2.37,2.37,0,0,1,2.06.87,3.83,3.83,0,0,1,.64,2.33v4.76h-1.09l-.11-.92h-.05a6.38,6.38,0,0,1-1.2.79A2.92,2.92,0,0,1,181.09,105.7Zm.38-1.06a2.28,2.28,0,0,0,1.06-.26,5.44,5.44,0,0,0,1.05-.78v-2.16a16.53,16.53,0,0,0-1.64.3,4.41,4.41,0,0,0-1.07.42,1.58,1.58,0,0,0-.59.55,1.36,1.36,0,0,0-.18.68,1.09,1.09,0,0,0,.4,1A1.62,1.62,0,0,0,181.47,104.64Z"/><path class="cls-3" d="M190.8,105.7a2.7,2.7,0,0,1-1.13-.27,4,4,0,0,1-1.09-.73h-.05l-.11.8h-1.06V94.11h1.31v3.11l0,1.4a5.92,5.92,0,0,1,1.15-.77,2.84,2.84,0,0,1,1.28-.31,3,3,0,0,1,1.33.28,2.58,2.58,0,0,1,1,.8,3.57,3.57,0,0,1,.59,1.24,6.33,6.33,0,0,1,.2,1.63,5.39,5.39,0,0,1-.27,1.77,4,4,0,0,1-.74,1.33,3,3,0,0,1-1.07.83A3.1,3.1,0,0,1,190.8,105.7Zm-.22-1.11a1.87,1.87,0,0,0,.88-.21,2.18,2.18,0,0,0,.71-.61,2.91,2.91,0,0,0,.46-1,4.71,4.71,0,0,0,.17-1.3,5.94,5.94,0,0,0-.11-1.16,2.79,2.79,0,0,0-.36-.91,1.78,1.78,0,0,0-.64-.58,2,2,0,0,0-.94-.21,3.22,3.22,0,0,0-2.08,1.06v4.08a3.33,3.33,0,0,0,1,.63A2.65,2.65,0,0,0,190.58,104.59Z"/><path class="cls-3" d="M197.6,105.7a1.22,1.22,0,0,1-1.07-.45,2.21,2.21,0,0,1-.32-1.31V94.11h1.31V104a.7.7,0,0,0,.11.45.33.33,0,0,0,.26.13H198l.17,0,.17,1a1.07,1.07,0,0,1-.3.09A1.92,1.92,0,0,1,197.6,105.7Z"/><path class="cls-3" d="M203.44,105.7a3.91,3.91,0,0,1-1.46-.28,3.62,3.62,0,0,1-1.19-.8,3.75,3.75,0,0,1-.79-1.28,4.79,4.79,0,0,1-.29-1.71,4.67,4.67,0,0,1,.3-1.72,4.35,4.35,0,0,1,.78-1.29,3.41,3.41,0,0,1,1.11-.8,3.11,3.11,0,0,1,1.3-.28,3.27,3.27,0,0,1,1.32.25,2.65,2.65,0,0,1,1,.74,3.4,3.4,0,0,1,.6,1.15,5.39,5.39,0,0,1,.2,1.5v.41a2.84,2.84,0,0,1,0,.35H201a3,3,0,0,0,.77,2,2.4,2.4,0,0,0,1.82.73,3.09,3.09,0,0,0,1-.17,4.49,4.49,0,0,0,.91-.44l.46.87a6.72,6.72,0,0,1-1.14.56A3.91,3.91,0,0,1,203.44,105.7ZM201,101h4.16a2.82,2.82,0,0,0-.5-1.8,1.74,1.74,0,0,0-1.42-.61,2,2,0,0,0-1.47.63,2.57,2.57,0,0,0-.5.76A3.19,3.19,0,0,0,201,101Z"/><path class="cls-3" d="M215.52,105.7a4.52,4.52,0,0,1-1.82-.37,4.12,4.12,0,0,1-1.45-1.07,4.89,4.89,0,0,1-1-1.71,7.06,7.06,0,0,1-.35-2.29A6.78,6.78,0,0,1,211.3,98a5.09,5.09,0,0,1,1-1.71,4.31,4.31,0,0,1,1.47-1.08,4.58,4.58,0,0,1,1.86-.37,3.54,3.54,0,0,1,1.69.39,4.48,4.48,0,0,1,1.19.9l-.72.87a3.42,3.42,0,0,0-.94-.72,2.53,2.53,0,0,0-1.2-.28,3,3,0,0,0-1.36.3,2.85,2.85,0,0,0-1,.85,4.06,4.06,0,0,0-.67,1.33,6.41,6.41,0,0,0-.23,1.76,6.53,6.53,0,0,0,.23,1.79,4.24,4.24,0,0,0,.65,1.35,2.9,2.9,0,0,0,1,.86,3.07,3.07,0,0,0,2.69,0,4,4,0,0,0,1.09-.88l.74.84a4.81,4.81,0,0,1-1.41,1.12A4,4,0,0,1,215.52,105.7Z"/><path class="cls-3" d="M223.22,105.7a5,5,0,0,1-3.68-1.56l.8-.92a4.37,4.37,0,0,0,1.32,1,3.61,3.61,0,0,0,1.57.36,2.52,2.52,0,0,0,1.62-.47,1.7,1.7,0,0,0,.44-1.92,1.47,1.47,0,0,0-.37-.48,2.18,2.18,0,0,0-.55-.36l-.69-.34-1.5-.66a6,6,0,0,1-.76-.38,3.23,3.23,0,0,1-.68-.54,2.64,2.64,0,0,1-.5-.76,2.54,2.54,0,0,1-.19-1,2.43,2.43,0,0,1,.25-1.1,2.58,2.58,0,0,1,.68-.89,3.31,3.31,0,0,1,1-.59,4.44,4.44,0,0,1,3.07.16,4.55,4.55,0,0,1,1.36.93l-.72.87a3.63,3.63,0,0,0-1.07-.73,3.11,3.11,0,0,0-1.32-.27,2.27,2.27,0,0,0-1.41.41,1.34,1.34,0,0,0-.54,1.13,1.3,1.3,0,0,0,.15.65,1.79,1.79,0,0,0,.41.46,2.93,2.93,0,0,0,.56.35,4.46,4.46,0,0,0,.63.28l1.48.64a7.56,7.56,0,0,1,.85.44,3,3,0,0,1,.69.58,2.81,2.81,0,0,1,.46.77,3.1,3.1,0,0,1-.08,2.18,2.89,2.89,0,0,1-.72.95,3.16,3.16,0,0,1-1.12.64A4.25,4.25,0,0,1,223.22,105.7Z"/><path class="cls-3" d="M230.77,105.5,227.41,95h1.42l1.68,5.66c.19.63.36,1.21.51,1.75s.31,1.11.52,1.72h.06c.19-.61.36-1.19.51-1.72s.32-1.12.5-1.75L234.29,95h1.36l-3.33,10.49Z"/><path class="cls-3" d="M240.83,96.13a1,1,0,0,1-.65-.24.86.86,0,0,1,0-1.23,1,1,0,0,1,.65-.23,1,1,0,0,1,.65.23.86.86,0,0,1,0,1.23A.93.93,0,0,1,240.83,96.13Zm-.67,9.37V97.73h1.31v7.77Z"/><path class="cls-3" d="M244.1,105.5V97.73h1.08l.12,1.12h0a6.76,6.76,0,0,1,1.18-.94,2.7,2.7,0,0,1,1.43-.37,2.09,2.09,0,0,1,1.8.76,3.81,3.81,0,0,1,.57,2.28v4.92H249v-4.75a2.84,2.84,0,0,0-.35-1.59,1.31,1.31,0,0,0-1.12-.49,1.88,1.88,0,0,0-1.08.31,6.73,6.73,0,0,0-1.05.89v5.63Z"/><path class="cls-4" d="M256.06,105.5V95h2.1l1.86,5.12q.17.5.33,1c.11.34.22.69.34,1h.06c.12-.34.23-.69.33-1s.21-.69.33-1L263.22,95h2.11V105.5h-1.71v-4.78c0-.24,0-.51,0-.8s0-.58.06-.87,0-.58.08-.87.05-.54.08-.79h-.07l-.85,2.43-1.71,4.71h-1.1l-1.73-4.71-.83-2.43h-.07c0,.25.05.51.08.79s.05.58.08.87l.06.87c0,.29,0,.56,0,.8v4.78Z"/><path class="cls-4" d="M268.35,108.74a4.45,4.45,0,0,1-.56,0,3.45,3.45,0,0,1-.46-.12l.33-1.44.27.07a1.55,1.55,0,0,0,.29,0,1.35,1.35,0,0,0,1-.38,2.38,2.38,0,0,0,.57-1l.15-.49-3.09-7.76h1.87l1.36,3.85c.12.35.23.71.34,1.08s.23.76.35,1.13h.06q.15-.54.3-1.11c.1-.38.2-.74.29-1.1l1.19-3.85h1.77l-2.84,8.21a9.6,9.6,0,0,1-.53,1.2,3.91,3.91,0,0,1-.67.9,2.66,2.66,0,0,1-.86.58A3,3,0,0,1,268.35,108.74Z"/><path class="cls-4" d="M279.1,105.5V95h3.54a6.69,6.69,0,0,1,1.52.16,3.41,3.41,0,0,1,1.21.52,2.41,2.41,0,0,1,.81,1,3.26,3.26,0,0,1,.3,1.47,3.09,3.09,0,0,1-.57,1.94,3.18,3.18,0,0,1-1.51,1.06l2.5,4.36h-2.09l-2.25-4.09H281v4.09ZM281,99.94h1.49a2.6,2.6,0,0,0,1.64-.45,1.61,1.61,0,0,0,.56-1.35,1.36,1.36,0,0,0-.56-1.26,3.2,3.2,0,0,0-1.64-.35H281Z"/><path class="cls-4" d="M291.62,105.7a4.15,4.15,0,0,1-1.52-.28,3.8,3.8,0,0,1-1.24-.81,3.7,3.7,0,0,1-.82-1.29,4.74,4.74,0,0,1-.3-1.74,4.47,4.47,0,0,1,.31-1.72,3.92,3.92,0,0,1,.8-1.3,3.81,3.81,0,0,1,1.17-.82,3.29,3.29,0,0,1,1.34-.28,3.48,3.48,0,0,1,1.41.27,2.75,2.75,0,0,1,1,.77,3.24,3.24,0,0,1,.62,1.18,5.13,5.13,0,0,1,.21,1.5,4.17,4.17,0,0,1,0,.52,2.73,2.73,0,0,1-.05.38h-5a2.49,2.49,0,0,0,.74,1.62,2.23,2.23,0,0,0,1.57.57,3,3,0,0,0,1-.15,4.33,4.33,0,0,0,.87-.42l.62,1.15a6,6,0,0,1-1.24.61A4.35,4.35,0,0,1,291.62,105.7Zm-2.1-4.87H293a2.34,2.34,0,0,0-.39-1.43,1.43,1.43,0,0,0-1.21-.52,1.74,1.74,0,0,0-1.23.5A2.27,2.27,0,0,0,289.52,100.83Z"/><path class="cls-4" d="M296.37,108.61v-11h1.52l.13.83h.06a5.49,5.49,0,0,1,1.1-.72,3,3,0,0,1,2.57,0,2.66,2.66,0,0,1,1,.8,4,4,0,0,1,.61,1.27,6,6,0,0,1,.2,1.65,5.31,5.31,0,0,1-.28,1.8,3.91,3.91,0,0,1-.74,1.32,3.26,3.26,0,0,1-1.07.83,3,3,0,0,1-1.27.29,2.52,2.52,0,0,1-1-.23,3.88,3.88,0,0,1-1-.64l0,1.31v2.47Zm3.42-4.43a1.61,1.61,0,0,0,1.31-.68,3.3,3.3,0,0,0,.53-2,3.51,3.51,0,0,0-.4-1.84,1.39,1.39,0,0,0-1.29-.65,2.52,2.52,0,0,0-1.73.88v3.66a2.43,2.43,0,0,0,.83.51A2.17,2.17,0,0,0,299.79,104.18Z"/><path class="cls-4" d="M308.61,105.7a3.58,3.58,0,0,1-1.41-.28,3.29,3.29,0,0,1-1.19-.8,3.87,3.87,0,0,1-.83-1.29,4.79,4.79,0,0,1-.3-1.75,4.74,4.74,0,0,1,.3-1.74,4,4,0,0,1,.83-1.3,3.42,3.42,0,0,1,1.19-.8,3.69,3.69,0,0,1,2.82,0,3.46,3.46,0,0,1,1.2.8,4.18,4.18,0,0,1,.82,1.3,4.54,4.54,0,0,1,.31,1.74,4.59,4.59,0,0,1-.31,1.75,4,4,0,0,1-.82,1.29,3.33,3.33,0,0,1-1.2.8A3.58,3.58,0,0,1,308.61,105.7Zm0-1.51a1.56,1.56,0,0,0,1.36-.71,3.26,3.26,0,0,0,.49-1.9,3.3,3.3,0,0,0-.49-1.91,1.59,1.59,0,0,0-1.36-.71,1.54,1.54,0,0,0-1.35.71,3.3,3.3,0,0,0-.49,1.91,3.26,3.26,0,0,0,.49,1.9A1.52,1.52,0,0,0,308.61,104.19Z"/><path class="cls-4" d="M314.18,105.5V97.65h1.52l.12,1.39h.07a3.28,3.28,0,0,1,1-1.18,2.23,2.23,0,0,1,2.11-.24l-.32,1.6a2.24,2.24,0,0,0-.39-.1,2.54,2.54,0,0,0-.43,0,1.69,1.69,0,0,0-1,.36,2.7,2.7,0,0,0-.88,1.25v4.8Z"/><path class="cls-4" d="M322.91,105.7a2.86,2.86,0,0,1-1.16-.21,2.06,2.06,0,0,1-.77-.59,2.46,2.46,0,0,1-.43-.89,4.63,4.63,0,0,1-.13-1.16V99.1H319.3V97.73l1.21-.08.22-2.15h1.54v2.15h2V99.1h-2v3.75c0,.92.37,1.37,1.11,1.37a2.12,2.12,0,0,0,.42,0l.39-.13.32,1.36a6.76,6.76,0,0,1-.73.2A4,4,0,0,1,322.91,105.7Z"/><path class="cls-4" d="M328,105.7a4.36,4.36,0,0,1-1.61-.32,4.83,4.83,0,0,1-1.36-.77l.86-1.19a4.61,4.61,0,0,0,1.05.65,2.63,2.63,0,0,0,1.13.23A1.39,1.39,0,0,0,329,104a.87.87,0,0,0,.3-.68.63.63,0,0,0-.14-.42,1.16,1.16,0,0,0-.39-.33,3,3,0,0,0-.54-.27l-.61-.24c-.25-.1-.51-.21-.78-.34a3.21,3.21,0,0,1-.71-.46,2.4,2.4,0,0,1-.51-.64,1.65,1.65,0,0,1-.2-.85,2.13,2.13,0,0,1,.76-1.7,3.18,3.18,0,0,1,2.1-.65,3.67,3.67,0,0,1,1.47.28,5.6,5.6,0,0,1,1.14.66L330,99.52a4.57,4.57,0,0,0-.84-.49,2.25,2.25,0,0,0-.89-.18,1.27,1.27,0,0,0-.87.25.77.77,0,0,0-.28.61.59.59,0,0,0,.14.41,1.37,1.37,0,0,0,.36.3,4.33,4.33,0,0,0,.52.24l.61.22c.27.1.53.21.8.33a3.18,3.18,0,0,1,.73.45,2.31,2.31,0,0,1,.53.67,2.06,2.06,0,0,1,.2.93,2.36,2.36,0,0,1-.2,1,2.17,2.17,0,0,1-.59.76,2.59,2.59,0,0,1-1,.52A4.05,4.05,0,0,1,328,105.7Z"/><path class="cls-3" d="M332.56,108.22l-.32-.76a2.73,2.73,0,0,0,1.07-.81,1.76,1.76,0,0,0,.37-1.15.34.34,0,0,1-.16,0,1,1,0,0,1-.67-.23.86.86,0,0,1-.28-.68.85.85,0,0,1,.29-.68,1,1,0,0,1,.69-.25,1,1,0,0,1,.81.42,1.87,1.87,0,0,1,.29,1.13,3,3,0,0,1-.55,1.81A3.6,3.6,0,0,1,332.56,108.22Z"/><path class="cls-3" d="M341.77,105.7a2.36,2.36,0,0,1-1.62-.58,2.07,2.07,0,0,1-.65-1.63,2.16,2.16,0,0,1,1.14-2,9.27,9.27,0,0,1,3.63-1,3.38,3.38,0,0,0-.07-.72,1.77,1.77,0,0,0-.25-.63,1.31,1.31,0,0,0-.49-.44,1.68,1.68,0,0,0-.79-.17,3.12,3.12,0,0,0-1.26.26,5.6,5.6,0,0,0-1.06.58l-.51-.92a8.59,8.59,0,0,1,1.33-.68,4.58,4.58,0,0,1,1.72-.32,2.41,2.41,0,0,1,2.07.87,3.83,3.83,0,0,1,.64,2.33v4.76h-1.09l-.11-.92h0a6.38,6.38,0,0,1-1.2.79A3,3,0,0,1,341.77,105.7Zm.39-1.06a2.27,2.27,0,0,0,1-.26,5.48,5.48,0,0,0,1.06-.78v-2.16a16,16,0,0,0-1.64.3,4.41,4.41,0,0,0-1.07.42,1.58,1.58,0,0,0-.59.55,1.27,1.27,0,0,0-.19.68,1.11,1.11,0,0,0,.4,1A1.65,1.65,0,0,0,342.16,104.64Z"/><path class="cls-3" d="M349.44,105.7a1.22,1.22,0,0,1-1.07-.45,2.21,2.21,0,0,1-.32-1.31V94.11h1.31V104a.7.7,0,0,0,.11.45.33.33,0,0,0,.26.13h.12l.17,0,.17,1a1.32,1.32,0,0,1-.3.09A1.92,1.92,0,0,1,349.44,105.7Z"/><path class="cls-3" d="M353.52,105.7a1.22,1.22,0,0,1-1.07-.45,2.21,2.21,0,0,1-.32-1.31V94.11h1.31V104a.7.7,0,0,0,.11.45.32.32,0,0,0,.26.13h.12l.16,0,.18,1a1.32,1.32,0,0,1-.3.09A1.92,1.92,0,0,1,353.52,105.7Z"/><path class="cls-3" d="M359.23,105.7a3.36,3.36,0,0,1-1.37-.28,3.3,3.3,0,0,1-1.14-.79,3.65,3.65,0,0,1-.79-1.28,5.11,5.11,0,0,1,0-3.45,3.79,3.79,0,0,1,.79-1.29,3.33,3.33,0,0,1,1.14-.8,3.61,3.61,0,0,1,2.74,0,3.33,3.33,0,0,1,1.14.8,3.79,3.79,0,0,1,.79,1.29,5.11,5.11,0,0,1,0,3.45,3.65,3.65,0,0,1-.79,1.28,3.3,3.3,0,0,1-1.14.79A3.36,3.36,0,0,1,359.23,105.7Zm0-1.09a2,2,0,0,0,1.62-.83,2.89,2.89,0,0,0,.46-.93,4.19,4.19,0,0,0,.16-1.22,4.24,4.24,0,0,0-.16-1.22,2.9,2.9,0,0,0-.46-1,1.91,1.91,0,0,0-.71-.62,2,2,0,0,0-1.82,0,1.91,1.91,0,0,0-.71.62,2.9,2.9,0,0,0-.46,1,4.24,4.24,0,0,0-.16,1.22,4.19,4.19,0,0,0,.16,1.22,2.89,2.89,0,0,0,.46.93,2,2,0,0,0,1.62.83Z"/><path class="cls-3" d="M366.05,105.5l-2.16-7.77h1.34l1.15,4.49c.09.38.17.74.24,1.09s.15.71.23,1.07h.06c.09-.36.17-.72.26-1.08s.17-.71.27-1.08l1.2-4.49h1.28l1.21,4.49.28,1.09c.1.35.18.71.27,1.07h.06c.09-.36.17-.72.24-1.07s.16-.71.24-1.09l1.14-4.49h1.25l-2.08,7.77h-1.6l-1.12-4.17q-.15-.56-.27-1.11c-.08-.36-.17-.74-.26-1.13h-.07c-.08.39-.17.77-.25,1.14s-.18.74-.29,1.11l-1.09,4.16Z"/><path class="cls-3" d="M377,96.13a.91.91,0,0,1-.64-.24.84.84,0,0,1,0-1.23,1,1,0,0,1,1.29,0,.84.84,0,0,1,0,1.23A.92.92,0,0,1,377,96.13Zm-.67,9.37V97.73h1.31v7.77Z"/><path class="cls-3" d="M380.24,105.5V97.73h1.09l.11,1.12h0a6.76,6.76,0,0,1,1.18-.94,2.7,2.7,0,0,1,1.43-.37,2.09,2.09,0,0,1,1.8.76,3.81,3.81,0,0,1,.57,2.28v4.92h-1.31v-4.75a2.84,2.84,0,0,0-.35-1.59,1.31,1.31,0,0,0-1.12-.49,1.88,1.88,0,0,0-1.08.31,7.22,7.22,0,0,0-1.05.89v5.63Z"/><path class="cls-3" d="M391.61,109.09a5.91,5.91,0,0,1-1.31-.14,3,3,0,0,1-1-.41,2,2,0,0,1-.66-.65,1.74,1.74,0,0,1,.07-1.84,3.24,3.24,0,0,1,.83-.82v-.06a1.5,1.5,0,0,1-.48-.49,1.37,1.37,0,0,1-.2-.78,1.42,1.42,0,0,1,.27-.86,2.62,2.62,0,0,1,.57-.58v-.06a3.25,3.25,0,0,1-.69-.86,2.38,2.38,0,0,1-.31-1.24,2.69,2.69,0,0,1,.23-1.15,2.5,2.5,0,0,1,.63-.87,2.9,2.9,0,0,1,.93-.55,3.31,3.31,0,0,1,1.13-.19,3.64,3.64,0,0,1,.6,0,4.6,4.6,0,0,1,.51.14h2.7v1h-1.6a2.46,2.46,0,0,1,.46.68,2.32,2.32,0,0,1,.18.92,2.7,2.7,0,0,1-.22,1.12,2.4,2.4,0,0,1-.61.85,2.92,2.92,0,0,1-.9.54,3.18,3.18,0,0,1-1.12.19A2.44,2.44,0,0,1,391,103a4,4,0,0,1-.58-.2,2.57,2.57,0,0,0-.35.39,1,1,0,0,0-.14.54.76.76,0,0,0,.29.6,1.76,1.76,0,0,0,1.09.24h1.5a3.82,3.82,0,0,1,2,.44,1.58,1.58,0,0,1,.68,1.42,2.09,2.09,0,0,1-.27,1,2.67,2.67,0,0,1-.79.86,4.07,4.07,0,0,1-1.24.58A5.52,5.52,0,0,1,391.61,109.09Zm.2-.91a3.52,3.52,0,0,0,1-.14,3,3,0,0,0,.78-.35,1.58,1.58,0,0,0,.49-.51,1.1,1.1,0,0,0,.18-.59.77.77,0,0,0-.4-.75,2.6,2.6,0,0,0-1.17-.21h-1.34l-.49,0a2.29,2.29,0,0,1-.52-.11,2.26,2.26,0,0,0-.61.64,1.35,1.35,0,0,0-.19.68,1.13,1.13,0,0,0,.6,1A3.21,3.21,0,0,0,391.81,108.18Zm-.2-6a1.53,1.53,0,0,0,.64-.13,1.55,1.55,0,0,0,.52-.37,1.5,1.5,0,0,0,.36-.58,2.13,2.13,0,0,0,.13-.78,1.78,1.78,0,0,0-.48-1.33,1.69,1.69,0,0,0-2.34,0,1.81,1.81,0,0,0-.47,1.33,2.37,2.37,0,0,0,.12.78,1.78,1.78,0,0,0,.36.58,1.59,1.59,0,0,0,.53.37A1.51,1.51,0,0,0,391.61,102.16Z"/><path class="cls-4" d="M254.74,107.1v-.8h76.75v.8Z"/><path class="cls-3" d="M87.07,129.5v-6.7H86v-1l1-.08V120.5a2.94,2.94,0,0,1,.56-1.89,2.06,2.06,0,0,1,1.72-.69A3.11,3.11,0,0,1,90,118a3.25,3.25,0,0,1,.6.19l-.29,1a2.25,2.25,0,0,0-.88-.19c-.72,0-1.08.5-1.08,1.51v1.23H90v1.07H88.39v6.7Z"/><path class="cls-3" d="M94.39,129.7a3.51,3.51,0,0,1-2.52-1.07,3.8,3.8,0,0,1-.79-1.28,5.28,5.28,0,0,1,0-3.45,4,4,0,0,1,.79-1.29,3.36,3.36,0,0,1,1.15-.8,3.52,3.52,0,0,1,1.37-.27,3.47,3.47,0,0,1,1.36.27,3.27,3.27,0,0,1,1.15.8,4,4,0,0,1,.79,1.29,5.28,5.28,0,0,1,0,3.45,3.8,3.8,0,0,1-.79,1.28,3.24,3.24,0,0,1-1.15.79A3.31,3.31,0,0,1,94.39,129.7Zm0-1.09a1.88,1.88,0,0,0,.91-.22,2.05,2.05,0,0,0,.71-.61,2.89,2.89,0,0,0,.46-.93,4.56,4.56,0,0,0,.16-1.22,4.62,4.62,0,0,0-.16-1.22,2.9,2.9,0,0,0-.46-1,2.08,2.08,0,0,0-.71-.62,2,2,0,0,0-1.83,0,2.08,2.08,0,0,0-.71.62,2.7,2.7,0,0,0-.45,1,4.24,4.24,0,0,0-.16,1.22,4.19,4.19,0,0,0,.16,1.22,2.69,2.69,0,0,0,.45.93,2.05,2.05,0,0,0,.71.61A1.9,1.9,0,0,0,94.39,128.61Z"/><path class="cls-3" d="M100,129.5v-7.77h1.09l.11,1.41h0a3.66,3.66,0,0,1,1-1.17,2.09,2.09,0,0,1,2.07-.27l-.26,1.15a2.68,2.68,0,0,0-.35-.1,2.17,2.17,0,0,0-.4,0,1.72,1.72,0,0,0-1,.4,3.12,3.12,0,0,0-.93,1.39v5Z"/><path class="cls-3" d="M112.23,129.7a2.67,2.67,0,0,1-1.13-.27,4.05,4.05,0,0,1-1.1-.73h0l-.11.8h-1.06V118.11h1.32v3.11l0,1.4a6,6,0,0,1,1.16-.77,2.78,2.78,0,0,1,1.28-.31,2.91,2.91,0,0,1,1.32.28,2.5,2.5,0,0,1,1,.8,3.77,3.77,0,0,1,.6,1.24,6.33,6.33,0,0,1,.2,1.63,5.39,5.39,0,0,1-.28,1.77,4,4,0,0,1-.73,1.33,3.13,3.13,0,0,1-1.07.83A3.17,3.17,0,0,1,112.23,129.7Zm-.23-1.11a1.91,1.91,0,0,0,.89-.21,2.15,2.15,0,0,0,.7-.61,3.13,3.13,0,0,0,.47-1,4.71,4.71,0,0,0,.17-1.3,5.23,5.23,0,0,0-.12-1.16,2.41,2.41,0,0,0-.36-.91,1.7,1.7,0,0,0-.64-.58,1.94,1.94,0,0,0-.93-.21,3.2,3.2,0,0,0-2.08,1.06v4.08a3.41,3.41,0,0,0,1,.63A2.75,2.75,0,0,0,112,128.59Z"/><path class="cls-3" d="M120.78,129.7a3.91,3.91,0,0,1-1.46-.28,3.5,3.5,0,0,1-2-2.08,4.58,4.58,0,0,1-.29-1.71,4.88,4.88,0,0,1,.29-1.72,4.18,4.18,0,0,1,.79-1.29,3.21,3.21,0,0,1,1.11-.8,3.06,3.06,0,0,1,1.29-.28,3.21,3.21,0,0,1,1.32.25,2.58,2.58,0,0,1,1,.74,3.4,3.4,0,0,1,.6,1.15,5,5,0,0,1,.21,1.5c0,.14,0,.28,0,.41a1.69,1.69,0,0,1,0,.35h-5.25a3,3,0,0,0,.78,2,2.37,2.37,0,0,0,1.81.73,3.15,3.15,0,0,0,1-.17,4.68,4.68,0,0,0,.9-.44l.47.87a7.55,7.55,0,0,1-1.14.56A4,4,0,0,1,120.78,129.7ZM118.34,125h4.16a2.76,2.76,0,0,0-.51-1.8,1.7,1.7,0,0,0-1.41-.61,2,2,0,0,0-.8.16,2,2,0,0,0-.68.47,2.57,2.57,0,0,0-.5.76A3.47,3.47,0,0,0,118.34,125Z"/><path class="cls-3" d="M127.86,129.7a2.49,2.49,0,0,1-1-.2,1.8,1.8,0,0,1-.69-.52,2,2,0,0,1-.37-.82,4.35,4.35,0,0,1-.12-1.06v-4.3h-1.15v-1l1.22-.08.16-2.18H127v2.18h2.1v1.07H127v4.32a1.94,1.94,0,0,0,.27,1.11,1,1,0,0,0,.93.39,1.86,1.86,0,0,0,.45-.06,3.62,3.62,0,0,0,.43-.14l.26,1c-.22.07-.45.14-.7.2A3.18,3.18,0,0,1,127.86,129.7Z"/><path class="cls-3" d="M132.94,129.7a2.47,2.47,0,0,1-1-.2,1.73,1.73,0,0,1-.69-.52,2.14,2.14,0,0,1-.38-.82,4.93,4.93,0,0,1-.11-1.06v-4.3h-1.15v-1l1.21-.08.16-2.18h1.11v2.18h2.1v1.07h-2.1v4.32a2,2,0,0,0,.26,1.11,1.06,1.06,0,0,0,.94.39,1.86,1.86,0,0,0,.45-.06,3.62,3.62,0,0,0,.43-.14l.26,1c-.22.07-.45.14-.7.2A3.2,3.2,0,0,1,132.94,129.7Z"/><path class="cls-3" d="M138.83,129.7a3.91,3.91,0,0,1-1.46-.28,3.57,3.57,0,0,1-1.18-.8,3.62,3.62,0,0,1-.8-1.28,4.79,4.79,0,0,1-.29-1.71,4.67,4.67,0,0,1,.3-1.72,4.18,4.18,0,0,1,.79-1.29,3.21,3.21,0,0,1,1.11-.8,3.06,3.06,0,0,1,1.29-.28,3.27,3.27,0,0,1,1.32.25,2.58,2.58,0,0,1,1,.74,3.4,3.4,0,0,1,.6,1.15,5,5,0,0,1,.21,1.5c0,.14,0,.28,0,.41a2.84,2.84,0,0,1,0,.35H136.4a3,3,0,0,0,.78,2,2.37,2.37,0,0,0,1.81.73,3,3,0,0,0,1-.17,4.49,4.49,0,0,0,.91-.44l.46.87a7,7,0,0,1-1.13.56A4,4,0,0,1,138.83,129.7ZM136.38,125h4.16a2.76,2.76,0,0,0-.5-1.8,1.74,1.74,0,0,0-1.42-.61,2,2,0,0,0-.79.16,1.94,1.94,0,0,0-.68.47,2.57,2.57,0,0,0-.5.76A3.81,3.81,0,0,0,136.38,125Z"/><path class="cls-3" d="M143.62,129.5v-7.77h1.09l.11,1.41h0a3.66,3.66,0,0,1,1-1.17,2,2,0,0,1,1.24-.43,2,2,0,0,1,.83.16l-.25,1.15-.35-.1a2.25,2.25,0,0,0-.4,0,1.75,1.75,0,0,0-1,.4,3.29,3.29,0,0,0-.93,1.39v5Z"/><path class="cls-3" d="M154.16,129.7a2.36,2.36,0,0,1-1.62-.58,2,2,0,0,1-.65-1.63,2.17,2.17,0,0,1,1.13-2,9.27,9.27,0,0,1,3.64-1,3.38,3.38,0,0,0-.08-.72,1.76,1.76,0,0,0-.24-.63,1.31,1.31,0,0,0-.49-.44,1.68,1.68,0,0,0-.79-.17,3.21,3.21,0,0,0-1.27.26,5.83,5.83,0,0,0-1,.58l-.52-.92a9.61,9.61,0,0,1,1.33-.68,4.59,4.59,0,0,1,1.73-.32,2.37,2.37,0,0,1,2.06.87,3.83,3.83,0,0,1,.64,2.33v4.76H156.9l-.12-.92h0a7.1,7.1,0,0,1-1.2.79A3,3,0,0,1,154.16,129.7Zm.38-1.06a2.28,2.28,0,0,0,1.06-.26,5.8,5.8,0,0,0,1.06-.78v-2.16a16,16,0,0,0-1.64.3,4.51,4.51,0,0,0-1.08.42,1.66,1.66,0,0,0-.59.55,1.36,1.36,0,0,0-.18.68,1.09,1.09,0,0,0,.4,1A1.62,1.62,0,0,0,154.54,128.64Z"/><path class="cls-3" d="M160.43,129.5v-7.77h1.09l.11,1.12h.05a6.41,6.41,0,0,1,1.18-.94,2.67,2.67,0,0,1,1.43-.37,2.09,2.09,0,0,1,1.8.76,3.81,3.81,0,0,1,.57,2.28v4.92h-1.32v-4.75a2.75,2.75,0,0,0-.35-1.59,1.3,1.3,0,0,0-1.12-.49,1.87,1.87,0,0,0-1.07.31,7.22,7.22,0,0,0-1.06.89v5.63Z"/><path class="cls-3" d="M171,129.7a2.39,2.39,0,0,1-1.63-.58,2.07,2.07,0,0,1-.65-1.63,2.16,2.16,0,0,1,1.14-2,9.27,9.27,0,0,1,3.63-1,3.38,3.38,0,0,0-.07-.72,1.77,1.77,0,0,0-.25-.63,1.31,1.31,0,0,0-.49-.44,1.65,1.65,0,0,0-.79-.17,3.12,3.12,0,0,0-1.26.26,5.6,5.6,0,0,0-1.06.58l-.51-.92a9.07,9.07,0,0,1,1.33-.68,4.59,4.59,0,0,1,1.73-.32,2.39,2.39,0,0,1,2.06.87,3.83,3.83,0,0,1,.64,2.33v4.76h-1.09l-.11-.92h0a6.38,6.38,0,0,1-1.2.79A2.92,2.92,0,0,1,171,129.7Zm.38-1.06a2.31,2.31,0,0,0,1.06-.26,5.44,5.44,0,0,0,1.05-.78v-2.16a16,16,0,0,0-1.64.3,4.41,4.41,0,0,0-1.07.42,1.58,1.58,0,0,0-.59.55,1.37,1.37,0,0,0-.19.68,1.11,1.11,0,0,0,.4,1A1.67,1.67,0,0,0,171.36,128.64Z"/><path class="cls-3" d="M178.64,129.7a1.22,1.22,0,0,1-1.07-.45,2.28,2.28,0,0,1-.32-1.31v-9.83h1.31V128a.7.7,0,0,0,.11.45.33.33,0,0,0,.26.13h.12l.17,0,.17,1a1.07,1.07,0,0,1-.3.09A1.92,1.92,0,0,1,178.64,129.7Z"/><path class="cls-3" d="M181.46,132.85a3.62,3.62,0,0,1-.5,0,2.58,2.58,0,0,1-.42-.12l.26-1,.29.07a1.08,1.08,0,0,0,.3,0,1.42,1.42,0,0,0,1.1-.47,3.41,3.41,0,0,0,.66-1.19l.18-.58-3.12-7.79h1.36l1.58,4.3c.12.34.25.7.38,1.08s.26.75.37,1.11H184c.12-.35.23-.72.33-1.1l.32-1.09,1.4-4.3h1.28l-2.93,8.41a9,9,0,0,1-.47,1.08,3.59,3.59,0,0,1-.6.85,2.93,2.93,0,0,1-.8.57A2.44,2.44,0,0,1,181.46,132.85Z"/><path class="cls-3" d="M190.83,129.7a4,4,0,0,1-1.58-.31,4.82,4.82,0,0,1-1.31-.77l.65-.88a5.07,5.07,0,0,0,1,.68,2.86,2.86,0,0,0,1.24.25,1.62,1.62,0,0,0,1.15-.35,1.11,1.11,0,0,0,.39-.86.92.92,0,0,0-.16-.53,1.69,1.69,0,0,0-.41-.39,3.07,3.07,0,0,0-.57-.3l-.64-.26c-.28-.09-.55-.2-.83-.32a3.92,3.92,0,0,1-.75-.45,2.42,2.42,0,0,1-.53-.62,1.62,1.62,0,0,1-.21-.85,2.15,2.15,0,0,1,.18-.87,2.13,2.13,0,0,1,.53-.7,2.62,2.62,0,0,1,.84-.47,3.57,3.57,0,0,1,1.12-.16,3.49,3.49,0,0,1,1.35.25,4.14,4.14,0,0,1,1.07.63l-.63.83a4.16,4.16,0,0,0-.83-.5,2.26,2.26,0,0,0-.94-.19,1.47,1.47,0,0,0-1.08.34,1,1,0,0,0-.35.78.75.75,0,0,0,.15.47,1.17,1.17,0,0,0,.38.35,2.84,2.84,0,0,0,.55.28l.65.24.84.34a3.15,3.15,0,0,1,.76.44,2,2,0,0,1,.55.65,1.78,1.78,0,0,1,.22.93,2.18,2.18,0,0,1-.18.89,2.2,2.2,0,0,1-.55.74,2.65,2.65,0,0,1-.89.5A3.61,3.61,0,0,1,190.83,129.7Z"/><path class="cls-3" d="M196.18,120.13a.92.92,0,0,1-.65-.24.84.84,0,0,1,0-1.23,1,1,0,0,1,1.29,0,.84.84,0,0,1,0,1.23A.91.91,0,0,1,196.18,120.13Zm-.68,9.37v-7.77h1.32v7.77Z"/><path class="cls-3" d="M201.47,129.7a4,4,0,0,1-1.58-.31,4.82,4.82,0,0,1-1.31-.77l.65-.88a5.07,5.07,0,0,0,1.05.68,2.86,2.86,0,0,0,1.24.25,1.62,1.62,0,0,0,1.15-.35,1.11,1.11,0,0,0,.39-.86.92.92,0,0,0-.16-.53,1.69,1.69,0,0,0-.41-.39,3.07,3.07,0,0,0-.57-.3l-.64-.26c-.28-.09-.55-.2-.83-.32a3.92,3.92,0,0,1-.75-.45,2.42,2.42,0,0,1-.53-.62,1.62,1.62,0,0,1-.21-.85,2.15,2.15,0,0,1,.18-.87,2.13,2.13,0,0,1,.53-.7,2.62,2.62,0,0,1,.84-.47,3.57,3.57,0,0,1,1.12-.16,3.49,3.49,0,0,1,1.35.25,4,4,0,0,1,1.07.63l-.63.83a4.16,4.16,0,0,0-.83-.5,2.26,2.26,0,0,0-.94-.19,1.47,1.47,0,0,0-1.08.34,1,1,0,0,0-.35.78.75.75,0,0,0,.15.47,1.17,1.17,0,0,0,.38.35,2.84,2.84,0,0,0,.55.28l.65.24.84.34a3.15,3.15,0,0,1,.76.44,2,2,0,0,1,.55.65,1.78,1.78,0,0,1,.22.93,2.18,2.18,0,0,1-.18.89,2.2,2.2,0,0,1-.55.74,2.65,2.65,0,0,1-.89.5A3.61,3.61,0,0,1,201.47,129.7Z"/><path class="cls-3" d="M212.37,129.7a3.36,3.36,0,0,1-1.37-.28,3.3,3.3,0,0,1-1.14-.79,3.67,3.67,0,0,1-.8-1.28,5.28,5.28,0,0,1,0-3.45,3.81,3.81,0,0,1,.8-1.29,3.33,3.33,0,0,1,1.14-.8,3.52,3.52,0,0,1,1.37-.27,3.56,3.56,0,0,1,1.37.27,3.33,3.33,0,0,1,1.14.8,4,4,0,0,1,.79,1.29,5.11,5.11,0,0,1,0,3.45,3.8,3.8,0,0,1-.79,1.28,3.3,3.3,0,0,1-1.14.79A3.39,3.39,0,0,1,212.37,129.7Zm0-1.09a1.88,1.88,0,0,0,.91-.22,2,2,0,0,0,.71-.61,2.89,2.89,0,0,0,.46-.93,4.56,4.56,0,0,0,.16-1.22,4.62,4.62,0,0,0-.16-1.22,2.9,2.9,0,0,0-.46-1,2,2,0,0,0-1.62-.84,2,2,0,0,0-.91.22,2,2,0,0,0-.72.62,2.89,2.89,0,0,0-.45,1,4.24,4.24,0,0,0-.16,1.22,4.19,4.19,0,0,0,.16,1.22,2.88,2.88,0,0,0,.45.93,2,2,0,0,0,.72.61A1.86,1.86,0,0,0,212.37,128.61Z"/><path class="cls-3" d="M218.24,129.5v-6.7h-1.06v-1l1.06-.08V120.5a2.93,2.93,0,0,1,.55-1.89,2.07,2.07,0,0,1,1.72-.69,3.14,3.14,0,0,1,.7.07,3.25,3.25,0,0,1,.6.19l-.29,1a2.28,2.28,0,0,0-.88-.19c-.73,0-1.09.5-1.09,1.51v1.23h1.65v1.07h-1.65v6.7Z"/><path class="cls-3" d="M226,129.5V119h1.32V129.5Z"/><path class="cls-3" d="M230.22,129.5V119h2.63a4.84,4.84,0,0,1,3.69,1.34,5.4,5.4,0,0,1,1.27,3.86,7.32,7.32,0,0,1-.32,2.23,4.44,4.44,0,0,1-1,1.66,4,4,0,0,1-1.53,1,5.71,5.71,0,0,1-2.1.36Zm1.33-1.08h1.2a3.37,3.37,0,0,0,2.76-1.11,4.72,4.72,0,0,0,.92-3.1,4.57,4.57,0,0,0-.92-3.06,3.47,3.47,0,0,0-2.76-1.05h-1.2Z"/><path class="cls-3" d="M243.79,129.7a4.62,4.62,0,0,1-1.5-.24,2.93,2.93,0,0,1-1.2-.76,3.86,3.86,0,0,1-.79-1.4,6.89,6.89,0,0,1-.29-2.13V119h1.33v6.19a5.83,5.83,0,0,0,.19,1.58,3,3,0,0,0,.52,1,1.92,1.92,0,0,0,.78.55,2.77,2.77,0,0,0,1,.17,2.84,2.84,0,0,0,1-.17,2,2,0,0,0,.78-.55,2.85,2.85,0,0,0,.53-1,5.46,5.46,0,0,0,.19-1.58V119h1.28v6.16a6.89,6.89,0,0,1-.29,2.13,3.72,3.72,0,0,1-.79,1.4,2.89,2.89,0,0,1-1.19.76A4.52,4.52,0,0,1,243.79,129.7Z"/><path class="cls-3" d="M253.45,129.5v-7.77h1.09l.11,1.41h0a3.66,3.66,0,0,1,1-1.17,2.09,2.09,0,0,1,2.07-.27l-.25,1.15-.35-.1a2.29,2.29,0,0,0-.41,0,1.72,1.72,0,0,0-1,.4,3.2,3.2,0,0,0-.93,1.39v5Z"/><path class="cls-3" d="M262,129.7a4,4,0,0,1-1.47-.28,3.68,3.68,0,0,1-1.18-.8,3.75,3.75,0,0,1-.79-1.28,4.79,4.79,0,0,1-.29-1.71,4.67,4.67,0,0,1,.3-1.72,4,4,0,0,1,.78-1.29,3.41,3.41,0,0,1,1.11-.8,3.11,3.11,0,0,1,1.3-.28,3.27,3.27,0,0,1,1.32.25,2.54,2.54,0,0,1,1,.74,3.08,3.08,0,0,1,.6,1.15,5,5,0,0,1,.21,1.5c0,.14,0,.28,0,.41a1.2,1.2,0,0,1,0,.35h-5.24a3,3,0,0,0,.77,2,2.4,2.4,0,0,0,1.82.73,3.09,3.09,0,0,0,1-.17,4.17,4.17,0,0,0,.9-.44l.47.87a6.72,6.72,0,0,1-1.14.56A3.91,3.91,0,0,1,262,129.7ZM259.55,125h4.16a2.82,2.82,0,0,0-.5-1.8,1.74,1.74,0,0,0-1.42-.61,2,2,0,0,0-1.47.63,2.81,2.81,0,0,0-.51.76A3.47,3.47,0,0,0,259.55,125Z"/><path class="cls-3" d="M268.81,129.7a4,4,0,0,1-1.58-.31,4.82,4.82,0,0,1-1.31-.77l.65-.88a5.66,5.66,0,0,0,1.05.68,2.86,2.86,0,0,0,1.24.25,1.62,1.62,0,0,0,1.15-.35,1.11,1.11,0,0,0,.39-.86.92.92,0,0,0-.16-.53,1.53,1.53,0,0,0-.41-.39,2.78,2.78,0,0,0-.57-.3l-.64-.26c-.28-.09-.55-.2-.83-.32a3.84,3.84,0,0,1-.74-.45,2.28,2.28,0,0,1-.54-.62,1.62,1.62,0,0,1-.21-.85,2,2,0,0,1,.19-.87,2,2,0,0,1,.52-.7,2.62,2.62,0,0,1,.84-.47,3.61,3.61,0,0,1,1.12-.16,3.54,3.54,0,0,1,1.36.25,4.07,4.07,0,0,1,1.06.63l-.62.83a4.54,4.54,0,0,0-.84-.5,2.23,2.23,0,0,0-.94-.19,1.47,1.47,0,0,0-1.08.34,1,1,0,0,0-.34.78.75.75,0,0,0,.14.47,1.28,1.28,0,0,0,.38.35,2.66,2.66,0,0,0,.56.28l.64.24.84.34a3,3,0,0,1,.76.44,2.2,2.2,0,0,1,.56.65,1.88,1.88,0,0,1,.21.93,2.18,2.18,0,0,1-.18.89,2.2,2.2,0,0,1-.55.74,2.55,2.55,0,0,1-.89.5A3.61,3.61,0,0,1,268.81,129.7Z"/><path class="cls-3" d="M275.76,129.7a2.13,2.13,0,0,1-1.82-.77,3.78,3.78,0,0,1-.57-2.27v-4.93h1.33v4.75a2.79,2.79,0,0,0,.35,1.59,1.25,1.25,0,0,0,1.11.49,1.87,1.87,0,0,0,1.07-.31,4.94,4.94,0,0,0,1-1v-5.52h1.32v7.77h-1.09l-.11-1.21h-.05a4.91,4.91,0,0,1-1.15,1A2.53,2.53,0,0,1,275.76,129.7Z"/><path class="cls-3" d="M283.58,129.7a1.22,1.22,0,0,1-1.07-.45,2.28,2.28,0,0,1-.32-1.31v-9.83h1.31V128a.7.7,0,0,0,.11.45.33.33,0,0,0,.26.13H284l.17,0,.17,1a1.07,1.07,0,0,1-.3.09A1.92,1.92,0,0,1,283.58,129.7Z"/><path class="cls-3" d="M288.72,129.7a2.49,2.49,0,0,1-1.05-.2A1.8,1.8,0,0,1,287,129a2.13,2.13,0,0,1-.37-.82,4.35,4.35,0,0,1-.12-1.06v-4.3h-1.15v-1l1.22-.08.16-2.18h1.1v2.18h2.1v1.07h-2.1v4.32a1.94,1.94,0,0,0,.27,1.11,1,1,0,0,0,.93.39,1.86,1.86,0,0,0,.45-.06,3.62,3.62,0,0,0,.43-.14l.26,1c-.22.07-.45.14-.7.2A3.18,3.18,0,0,1,288.72,129.7Z"/><path class="cls-3" d="M293.55,129.7a4,4,0,0,1-1.58-.31,5,5,0,0,1-1.32-.77l.66-.88a5.07,5.07,0,0,0,1.05.68,2.86,2.86,0,0,0,1.24.25,1.63,1.63,0,0,0,1.15-.35,1.1,1.1,0,0,0,.38-.86.86.86,0,0,0-.16-.53,1.49,1.49,0,0,0-.4-.39,3.07,3.07,0,0,0-.57-.3l-.64-.26a8.36,8.36,0,0,1-.83-.32,3.92,3.92,0,0,1-.75-.45,2.24,2.24,0,0,1-.53-.62,1.62,1.62,0,0,1-.21-.85,2.15,2.15,0,0,1,.18-.87,2.13,2.13,0,0,1,.53-.7,2.62,2.62,0,0,1,.84-.47,3.87,3.87,0,0,1,2.47.09,4.14,4.14,0,0,1,1.07.63l-.63.83a4.16,4.16,0,0,0-.83-.5,2.26,2.26,0,0,0-.94-.19,1.47,1.47,0,0,0-1.08.34,1,1,0,0,0-.35.78.75.75,0,0,0,.15.47,1.17,1.17,0,0,0,.38.35,2.57,2.57,0,0,0,.55.28l.65.24.84.34a3.15,3.15,0,0,1,.76.44,2.16,2.16,0,0,1,.55.65,1.78,1.78,0,0,1,.22.93,2.19,2.19,0,0,1-.73,1.63,2.6,2.6,0,0,1-.9.5A3.51,3.51,0,0,1,293.55,129.7Z"/></svg>