<?xml version="1.0" encoding="UTF-8"?>
<svg viewBox="0 0 500 230" version="1.1" xmlns="http://www.w3.org/2000/svg" xmlns:xlink="http://www.w3.org/1999/xlink">
    <title>Artboard</title>
    <g id="Artboard" stroke="none" stroke-width="1" fill="none" fill-rule="evenodd">
        <rect id="Rectangle" fill="#F5F5F5" fill-rule="nonzero" x="6" y="0" width="495" height="230"></rect>
        <rect id="Rectangle" fill="#00916A" fill-rule="nonzero" x="0" y="0" width="6" height="230"></rect>
        <path d="M33.5,12 C25.0095541,12 18,18.910828 18,27.5 C18,36.089172 24.910828,43 33.5,43 C42.089172,43 49,36.089172 49,27.5 C49,18.910828 41.9904459,12 33.5,12 Z M30.4394904,35.2006369 L22.7388535,27.5 L24.910828,25.3280255 L30.4394904,30.8566879 L42.089172,19.1082803 L44.2611465,21.2802548 L30.4394904,35.2006369 Z" id="Shape" fill="#00916A" fill-rule="nonzero"></path>
        <rect id="Rectangle" stroke="#6E7272" x="80.5" y="58.5" width="348" height="39" rx="3"></rect>
        <path d="M97.392,84.192 C97.904,84.192 98.344,84.1066667 98.712,83.936 C99.08,83.7653333 99.3786667,83.5306667 99.608,83.232 C99.8373333,82.9333333 100.008,82.584 100.12,82.184 C100.232,81.784 100.288,81.36 100.288,80.912 L100.288,80.912 L100.288,73.504 L98.944,73.504 L98.944,80.784 C98.944,81.584 98.8053333,82.1573333 98.528,82.504 C98.2506667,82.8506667 97.8293333,83.024 97.264,83.024 C96.8906667,83.024 96.5546667,82.9306667 96.256,82.744 C95.9573333,82.5573333 95.6906667,82.256 95.456,81.84 L95.456,81.84 L94.496,82.512 C95.1146667,83.632 96.08,84.192 97.392,84.192 Z M106.016,84.192 C106.496,84.192 106.952,84.1013333 107.384,83.92 C107.816,83.7386667 108.197333,83.4746667 108.528,83.128 C108.858667,82.7813333 109.122667,82.3546667 109.32,81.848 C109.517333,81.3413333 109.616,80.768 109.616,80.128 C109.616,79.4773333 109.517333,78.8986667 109.32,78.392 C109.122667,77.8853333 108.858667,77.456 108.528,77.104 C108.197333,76.752 107.816,76.4853333 107.384,76.304 C106.952,76.1226667 106.496,76.032 106.016,76.032 C105.536,76.032 105.08,76.1226667 104.648,76.304 C104.216,76.4853333 103.834667,76.752 103.504,77.104 C103.173333,77.456 102.909333,77.8853333 102.712,78.392 C102.514667,78.8986667 102.416,79.4773333 102.416,80.128 C102.416,80.768 102.514667,81.3413333 102.712,81.848 C102.909333,82.3546667 103.173333,82.7813333 103.504,83.128 C103.834667,83.4746667 104.216,83.7386667 104.648,83.92 C105.08,84.1013333 105.536,84.192 106.016,84.192 Z M106.016,83.104 C105.685333,83.104 105.381333,83.032 105.104,82.888 C104.826667,82.744 104.589333,82.5413333 104.392,82.28 C104.194667,82.0186667 104.042667,81.7066667 103.936,81.344 C103.829333,80.9813333 103.776,80.576 103.776,80.128 C103.776,79.68 103.829333,79.272 103.936,78.904 C104.042667,78.536 104.194667,78.2186667 104.392,77.952 C104.589333,77.6853333 104.826667,77.48 105.104,77.336 C105.381333,77.192 105.685333,77.12 106.016,77.12 C106.346667,77.12 106.650667,77.192 106.928,77.336 C107.205333,77.48 107.442667,77.6853333 107.64,77.952 C107.837333,78.2186667 107.989333,78.536 108.096,78.904 C108.202667,79.272 108.256,79.68 108.256,80.128 C108.256,80.576 108.202667,80.9813333 108.096,81.344 C107.989333,81.7066667 107.837333,82.0186667 107.64,82.28 C107.442667,82.5413333 107.205333,82.744 106.928,82.888 C106.650667,83.032 106.346667,83.104 106.016,83.104 Z M114.816,84.192 C115.349333,84.192 115.824,84.112 116.24,83.952 C116.656,83.792 117.034667,83.6053333 117.376,83.392 L117.376,83.392 L116.912,82.528 C116.624,82.7093333 116.322667,82.856 116.008,82.968 C115.693333,83.08 115.349333,83.136 114.976,83.136 C114.229333,83.136 113.624,82.8933333 113.16,82.408 C112.696,81.9226667 112.437333,81.264 112.384,80.432 L112.384,80.432 L117.632,80.432 C117.653333,80.336 117.666667,80.2213333 117.672,80.088 C117.677333,79.9546667 117.68,79.8186667 117.68,79.68 C117.68,79.1253333 117.610667,78.624 117.472,78.176 C117.333333,77.728 117.133333,77.344 116.872,77.024 C116.610667,76.704 116.285333,76.4586667 115.896,76.288 C115.506667,76.1173333 115.066667,76.032 114.576,76.032 C114.128,76.032 113.696,76.1253333 113.28,76.312 C112.864,76.4986667 112.493333,76.768 112.168,77.12 C111.842667,77.472 111.581333,77.9013333 111.384,78.408 C111.186667,78.9146667 111.088,79.488 111.088,80.128 C111.088,80.768 111.184,81.3386667 111.376,81.84 C111.568,82.3413333 111.832,82.7653333 112.168,83.112 C112.504,83.4586667 112.898667,83.7253333 113.352,83.912 C113.805333,84.0986667 114.293333,84.192 114.816,84.192 Z M116.528,79.488 L112.368,79.488 C112.410667,79.104 112.498667,78.7626667 112.632,78.464 C112.765333,78.1653333 112.933333,77.912 113.136,77.704 C113.338667,77.496 113.565333,77.3386667 113.816,77.232 C114.066667,77.1253333 114.330667,77.072 114.608,77.072 C115.216,77.072 115.688,77.2773333 116.024,77.688 C116.36,78.0986667 116.528,78.6986667 116.528,79.488 L116.528,79.488 Z" id="Joe" fill="#000000" fill-rule="nonzero"></path>
        <path d="M83.184,49 L83.184,44.632 L86.992,44.632 L86.992,43.064 L83.184,43.064 L83.184,40.104 L87.648,40.104 L87.648,38.536 L81.328,38.536 L81.328,49 L83.184,49 Z M90.256,39.768 C90.5866667,39.768 90.8586667,39.672 91.072,39.48 C91.2853333,39.288 91.392,39.0373333 91.392,38.728 C91.392,38.4186667 91.2853333,38.1653333 91.072,37.968 C90.8586667,37.7706667 90.5866667,37.672 90.256,37.672 C89.9253333,37.672 89.6533333,37.7706667 89.44,37.968 C89.2266667,38.1653333 89.12,38.4186667 89.12,38.728 C89.12,39.0373333 89.2266667,39.288 89.44,39.48 C89.6533333,39.672 89.9253333,39.768 90.256,39.768 Z M91.168,49 L91.168,41.144 L89.328,41.144 L89.328,49 L91.168,49 Z M95.36,49 L95.36,44.2 C95.6053333,43.6026667 95.8986667,43.184 96.24,42.944 C96.5813333,42.704 96.9066667,42.584 97.216,42.584 C97.3866667,42.584 97.5306667,42.5946667 97.648,42.616 C97.7653333,42.6373333 97.8933333,42.6693333 98.032,42.712 L98.032,42.712 L98.352,41.112 C98.128,41.0053333 97.8293333,40.952 97.456,40.952 C97.04,40.952 96.6346667,41.088 96.24,41.36 C95.8453333,41.632 95.5093333,42.024 95.232,42.536 L95.232,42.536 L95.168,42.536 L95.04,41.144 L93.52,41.144 L93.52,49 L95.36,49 Z M101.584,49.192 C102.074667,49.192 102.512,49.128 102.896,49 C103.28,48.872 103.6,48.6986667 103.856,48.48 C104.112,48.2613333 104.306667,48.0053333 104.44,47.712 C104.573333,47.4186667 104.64,47.1013333 104.64,46.76 C104.64,46.3973333 104.573333,46.0853333 104.44,45.824 C104.306667,45.5626667 104.130667,45.3413333 103.912,45.16 C103.693333,44.9786667 103.450667,44.8266667 103.184,44.704 C102.917333,44.5813333 102.650667,44.472 102.384,44.376 C102.170667,44.3013333 101.965333,44.2266667 101.768,44.152 C101.570667,44.0773333 101.397333,43.9973333 101.248,43.912 C101.098667,43.8266667 100.978667,43.728 100.888,43.616 C100.797333,43.504 100.752,43.368 100.752,43.208 C100.752,42.9626667 100.845333,42.7573333 101.032,42.592 C101.218667,42.4266667 101.509333,42.344 101.904,42.344 C102.213333,42.344 102.509333,42.4053333 102.792,42.528 C103.074667,42.6506667 103.354667,42.8133333 103.632,43.016 L103.632,43.016 L104.48,41.896 C104.16,41.6506667 103.781333,41.432 103.344,41.24 C102.906667,41.048 102.416,40.952 101.872,40.952 C100.986667,40.952 100.288,41.1706667 99.776,41.608 C99.264,42.0453333 99.008,42.6106667 99.008,43.304 C99.008,43.6346667 99.0746667,43.92 99.208,44.16 C99.3413333,44.4 99.512,44.6106667 99.72,44.792 C99.928,44.9733333 100.165333,45.128 100.432,45.256 C100.698667,45.384 100.96,45.496 101.216,45.592 C101.418667,45.6773333 101.621333,45.76 101.824,45.84 C102.026667,45.92 102.208,46.008 102.368,46.104 C102.528,46.2 102.656,46.3093333 102.752,46.432 C102.848,46.5546667 102.896,46.696 102.896,46.856 C102.896,47.1333333 102.794667,47.36 102.592,47.536 C102.389333,47.712 102.074667,47.8 101.648,47.8 C101.242667,47.8 100.866667,47.7226667 100.52,47.568 C100.173333,47.4133333 99.824,47.1973333 99.472,46.92 L99.472,46.92 L98.608,48.104 C98.992,48.4133333 99.448,48.672 99.976,48.88 C100.504,49.088 101.04,49.192 101.584,49.192 Z M108.736,49.192 C109.045333,49.192 109.336,49.1626667 109.608,49.104 C109.88,49.0453333 110.122667,48.9786667 110.336,48.904 L110.336,48.904 L110.016,47.544 C109.898667,47.5973333 109.768,47.64 109.624,47.672 C109.48,47.704 109.338667,47.72 109.2,47.72 C108.464,47.72 108.096,47.2613333 108.096,46.344 L108.096,46.344 L108.096,42.6 L110.096,42.6 L110.096,41.144 L108.096,41.144 L108.096,39 L106.56,39 L106.336,41.144 L105.12,41.224 L105.12,42.6 L106.24,42.6 L106.24,46.344 C106.24,46.7706667 106.285333,47.1573333 106.376,47.504 C106.466667,47.8506667 106.610667,48.1493333 106.808,48.4 C107.005333,48.6506667 107.261333,48.8453333 107.576,48.984 C107.890667,49.1226667 108.277333,49.192 108.736,49.192 Z M116.784,49 L116.784,43.512 C117.114667,43.192 117.410667,42.9493333 117.672,42.784 C117.933333,42.6186667 118.234667,42.536 118.576,42.536 C119.013333,42.536 119.328,42.6693333 119.52,42.936 C119.712,43.2026667 119.808,43.6613333 119.808,44.312 L119.808,44.312 L119.808,49 L121.648,49 L121.648,44.072 C121.648,43.0693333 121.456,42.2986667 121.072,41.76 C120.688,41.2213333 120.074667,40.952 119.232,40.952 C118.688,40.952 118.210667,41.0746667 117.8,41.32 C117.389333,41.5653333 117.008,41.8586667 116.656,42.2 L116.656,42.2 L116.592,42.2 L116.464,41.144 L114.944,41.144 L114.944,49 L116.784,49 Z M125.808,49.192 C126.277333,49.192 126.712,49.0906667 127.112,48.888 C127.512,48.6853333 127.888,48.4346667 128.24,48.136 L128.24,48.136 L128.304,48.136 L128.432,49 L129.952,49 L129.952,44.344 C129.952,43.2453333 129.709333,42.4053333 129.224,41.824 C128.738667,41.2426667 128.005333,40.952 127.024,40.952 C126.394667,40.952 125.808,41.0533333 125.264,41.256 C124.72,41.4586667 124.229333,41.6986667 123.792,41.976 L123.792,41.976 L124.464,43.208 C124.816,42.9946667 125.176,42.8133333 125.544,42.664 C125.912,42.5146667 126.288,42.44 126.672,42.44 C126.938667,42.44 127.162667,42.48 127.344,42.56 C127.525333,42.64 127.672,42.752 127.784,42.896 C127.896,43.04 127.976,43.2053333 128.024,43.392 C128.072,43.5786667 128.101333,43.7733333 128.112,43.976 C127.301333,44.0613333 126.605333,44.184 126.024,44.344 C125.442667,44.504 124.962667,44.7013333 124.584,44.936 C124.205333,45.1706667 123.928,45.4506667 123.752,45.776 C123.576,46.1013333 123.488,46.472 123.488,46.888 C123.488,47.5813333 123.701333,48.1386667 124.128,48.56 C124.554667,48.9813333 125.114667,49.192 125.808,49.192 Z M126.4,47.752 C126.069333,47.752 125.797333,47.672 125.584,47.512 C125.370667,47.352 125.264,47.096 125.264,46.744 C125.264,46.552 125.312,46.3706667 125.408,46.2 C125.504,46.0293333 125.664,45.8773333 125.888,45.744 C126.112,45.6106667 126.405333,45.4906667 126.768,45.384 C127.130667,45.2773333 127.578667,45.192 128.112,45.128 L128.112,45.128 L128.112,46.888 C127.813333,47.1653333 127.533333,47.3786667 127.272,47.528 C127.010667,47.6773333 126.72,47.752 126.4,47.752 Z M134,49 L134,43.512 C134.608,42.8613333 135.157333,42.536 135.648,42.536 C136.064,42.536 136.370667,42.6693333 136.568,42.936 C136.765333,43.2026667 136.864,43.6613333 136.864,44.312 L136.864,44.312 L136.864,49 L138.704,49 L138.704,43.512 C139.312,42.8613333 139.861333,42.536 140.352,42.536 C140.757333,42.536 141.058667,42.6693333 141.256,42.936 C141.453333,43.2026667 141.552,43.6613333 141.552,44.312 L141.552,44.312 L141.552,49 L143.408,49 L143.408,44.072 C143.408,43.0693333 143.210667,42.2986667 142.816,41.76 C142.421333,41.2213333 141.808,40.952 140.976,40.952 C140.474667,40.952 140.021333,41.0853333 139.616,41.352 C139.210667,41.6186667 138.821333,41.9546667 138.448,42.36 C138.266667,41.912 138.002667,41.5653333 137.656,41.32 C137.309333,41.0746667 136.848,40.952 136.272,40.952 C135.781333,40.952 135.341333,41.0746667 134.952,41.32 C134.562667,41.5653333 134.202667,41.864 133.872,42.216 L133.872,42.216 L133.808,42.216 L133.68,41.144 L132.16,41.144 L132.16,49 L134,49 Z M149.008,49.192 C149.509333,49.192 149.989333,49.112 150.448,48.952 C150.906667,48.792 151.322667,48.5893333 151.696,48.344 L151.696,48.344 L151.072,47.192 C150.784,47.3733333 150.493333,47.5146667 150.2,47.616 C149.906667,47.7173333 149.589333,47.768 149.248,47.768 C148.608,47.768 148.082667,47.5786667 147.672,47.2 C147.261333,46.8213333 147.013333,46.28 146.928,45.576 L146.928,45.576 L151.92,45.576 C151.941333,45.48 151.96,45.352 151.976,45.192 C151.992,45.032 152,44.8613333 152,44.68 C152,44.136 151.930667,43.6346667 151.792,43.176 C151.653333,42.7173333 151.448,42.3226667 151.176,41.992 C150.904,41.6613333 150.565333,41.4053333 150.16,41.224 C149.754667,41.0426667 149.285333,40.952 148.752,40.952 C148.293333,40.952 147.845333,41.048 147.408,41.24 C146.970667,41.432 146.584,41.704 146.248,42.056 C145.912,42.408 145.642667,42.84 145.44,43.352 C145.237333,43.864 145.136,44.44 145.136,45.08 C145.136,45.7306667 145.234667,46.3093333 145.432,46.816 C145.629333,47.3226667 145.904,47.752 146.256,48.104 C146.608,48.456 147.018667,48.7253333 147.488,48.912 C147.957333,49.0986667 148.464,49.192 149.008,49.192 Z M150.4,44.328 L146.912,44.328 C146.997333,43.688 147.216,43.2026667 147.568,42.872 C147.92,42.5413333 148.330667,42.376 148.8,42.376 C149.344,42.376 149.746667,42.5493333 150.008,42.896 C150.269333,43.2426667 150.4,43.72 150.4,44.328 L150.4,44.328 Z" id="Firstname" fill="#000000" fill-rule="nonzero"></path>
        <rect id="Rectangle" stroke="#6E7272" x="79.5" y="143.5" width="348" height="39" rx="3"></rect>
        <path d="M84.384,134.192 C84.9706667,134.192 85.496,134.109333 85.96,133.944 C86.424,133.778667 86.8186667,133.554667 87.144,133.272 C87.4693333,132.989333 87.7173333,132.661333 87.888,132.288 C88.0586667,131.914667 88.144,131.514667 88.144,131.088 C88.144,130.704 88.0906667,130.365333 87.984,130.072 C87.8773333,129.778667 87.7306667,129.52 87.544,129.296 C87.3573333,129.072 87.136,128.874667 86.88,128.704 C86.624,128.533333 86.3413333,128.384 86.032,128.256 L86.032,128.256 L84.608,127.664 C84.3946667,127.578667 84.1866667,127.490667 83.984,127.4 C83.7813333,127.309333 83.6026667,127.208 83.448,127.096 C83.2933333,126.984 83.1706667,126.856 83.08,126.712 C82.9893333,126.568 82.944,126.394667 82.944,126.192 C82.944,125.808 83.0933333,125.506667 83.392,125.288 C83.6906667,125.069333 84.0906667,124.96 84.592,124.96 C85.04,124.96 85.4453333,125.04 85.808,125.2 C86.1706667,125.36 86.5226667,125.578667 86.864,125.856 L86.864,125.856 L87.808,124.672 C87.4026667,124.266667 86.9173333,123.944 86.352,123.704 C85.7866667,123.464 85.2,123.344 84.592,123.344 C84.08,123.344 83.608,123.418667 83.176,123.568 C82.744,123.717333 82.3733333,123.925333 82.064,124.192 C81.7546667,124.458667 81.512,124.770667 81.336,125.128 C81.16,125.485333 81.072,125.872 81.072,126.288 C81.072,126.672 81.1333333,127.013333 81.256,127.312 C81.3786667,127.610667 81.5413333,127.872 81.744,128.096 C81.9466667,128.32 82.1733333,128.512 82.424,128.672 C82.6746667,128.832 82.928,128.965333 83.184,129.072 L83.184,129.072 L84.624,129.696 C84.8586667,129.792 85.0746667,129.888 85.272,129.984 C85.4693333,130.08 85.64,130.184 85.784,130.296 C85.928,130.408 86.04,130.538667 86.12,130.688 C86.2,130.837333 86.24,131.018667 86.24,131.232 C86.24,131.637333 86.0853333,131.962667 85.776,132.208 C85.4666667,132.453333 85.0133333,132.576 84.416,132.576 C83.936,132.576 83.456,132.466667 82.976,132.248 C82.496,132.029333 82.0693333,131.744 81.696,131.392 L81.696,131.392 L80.608,132.656 C81.1093333,133.146667 81.688,133.525333 82.344,133.792 C83,134.058667 83.68,134.192 84.384,134.192 Z M92.224,134.192 C92.768,134.192 93.24,134.069333 93.64,133.824 C94.04,133.578667 94.4106667,133.253333 94.752,132.848 L94.752,132.848 L94.8,132.848 L94.944,134 L96.448,134 L96.448,126.144 L94.608,126.144 L94.608,131.52 C94.3093333,131.904 94.0293333,132.181333 93.768,132.352 C93.5066667,132.522667 93.2053333,132.608 92.864,132.608 C92.4373333,132.608 92.128,132.474667 91.936,132.208 C91.744,131.941333 91.648,131.482667 91.648,130.832 L91.648,130.832 L91.648,126.144 L89.808,126.144 L89.808,131.072 C89.808,132.074667 90,132.845333 90.384,133.384 C90.768,133.922667 91.3813333,134.192 92.224,134.192 Z M100.624,134 L100.624,129.2 C100.869333,128.602667 101.162667,128.184 101.504,127.944 C101.845333,127.704 102.170667,127.584 102.48,127.584 C102.650667,127.584 102.794667,127.594667 102.912,127.616 C103.029333,127.637333 103.157333,127.669333 103.296,127.712 L103.296,127.712 L103.616,126.112 C103.392,126.005333 103.093333,125.952 102.72,125.952 C102.304,125.952 101.898667,126.088 101.504,126.36 C101.109333,126.632 100.773333,127.024 100.496,127.536 L100.496,127.536 L100.432,127.536 L100.304,126.144 L98.784,126.144 L98.784,134 L100.624,134 Z M106.592,134 L106.592,128.512 C106.922667,128.192 107.218667,127.949333 107.48,127.784 C107.741333,127.618667 108.042667,127.536 108.384,127.536 C108.821333,127.536 109.136,127.669333 109.328,127.936 C109.52,128.202667 109.616,128.661333 109.616,129.312 L109.616,129.312 L109.616,134 L111.456,134 L111.456,129.072 C111.456,128.069333 111.264,127.298667 110.88,126.76 C110.496,126.221333 109.882667,125.952 109.04,125.952 C108.496,125.952 108.018667,126.074667 107.608,126.32 C107.197333,126.565333 106.816,126.858667 106.464,127.2 L106.464,127.2 L106.4,127.2 L106.272,126.144 L104.752,126.144 L104.752,134 L106.592,134 Z M115.616,134.192 C116.085333,134.192 116.52,134.090667 116.92,133.888 C117.32,133.685333 117.696,133.434667 118.048,133.136 L118.048,133.136 L118.112,133.136 L118.24,134 L119.76,134 L119.76,129.344 C119.76,128.245333 119.517333,127.405333 119.032,126.824 C118.546667,126.242667 117.813333,125.952 116.832,125.952 C116.202667,125.952 115.616,126.053333 115.072,126.256 C114.528,126.458667 114.037333,126.698667 113.6,126.976 L113.6,126.976 L114.272,128.208 C114.624,127.994667 114.984,127.813333 115.352,127.664 C115.72,127.514667 116.096,127.44 116.48,127.44 C116.746667,127.44 116.970667,127.48 117.152,127.56 C117.333333,127.64 117.48,127.752 117.592,127.896 C117.704,128.04 117.784,128.205333 117.832,128.392 C117.88,128.578667 117.909333,128.773333 117.92,128.976 C117.109333,129.061333 116.413333,129.184 115.832,129.344 C115.250667,129.504 114.770667,129.701333 114.392,129.936 C114.013333,130.170667 113.736,130.450667 113.56,130.776 C113.384,131.101333 113.296,131.472 113.296,131.888 C113.296,132.581333 113.509333,133.138667 113.936,133.56 C114.362667,133.981333 114.922667,134.192 115.616,134.192 Z M116.208,132.752 C115.877333,132.752 115.605333,132.672 115.392,132.512 C115.178667,132.352 115.072,132.096 115.072,131.744 C115.072,131.552 115.12,131.370667 115.216,131.2 C115.312,131.029333 115.472,130.877333 115.696,130.744 C115.92,130.610667 116.213333,130.490667 116.576,130.384 C116.938667,130.277333 117.386667,130.192 117.92,130.128 L117.92,130.128 L117.92,131.888 C117.621333,132.165333 117.341333,132.378667 117.08,132.528 C116.818667,132.677333 116.528,132.752 116.208,132.752 Z M123.808,134 L123.808,128.512 C124.416,127.861333 124.965333,127.536 125.456,127.536 C125.872,127.536 126.178667,127.669333 126.376,127.936 C126.573333,128.202667 126.672,128.661333 126.672,129.312 L126.672,129.312 L126.672,134 L128.512,134 L128.512,128.512 C129.12,127.861333 129.669333,127.536 130.16,127.536 C130.565333,127.536 130.866667,127.669333 131.064,127.936 C131.261333,128.202667 131.36,128.661333 131.36,129.312 L131.36,129.312 L131.36,134 L133.216,134 L133.216,129.072 C133.216,128.069333 133.018667,127.298667 132.624,126.76 C132.229333,126.221333 131.616,125.952 130.784,125.952 C130.282667,125.952 129.829333,126.085333 129.424,126.352 C129.018667,126.618667 128.629333,126.954667 128.256,127.36 C128.074667,126.912 127.810667,126.565333 127.464,126.32 C127.117333,126.074667 126.656,125.952 126.08,125.952 C125.589333,125.952 125.149333,126.074667 124.76,126.32 C124.370667,126.565333 124.010667,126.864 123.68,127.216 L123.68,127.216 L123.616,127.216 L123.488,126.144 L121.968,126.144 L121.968,134 L123.808,134 Z M138.816,134.192 C139.317333,134.192 139.797333,134.112 140.256,133.952 C140.714667,133.792 141.130667,133.589333 141.504,133.344 L141.504,133.344 L140.88,132.192 C140.592,132.373333 140.301333,132.514667 140.008,132.616 C139.714667,132.717333 139.397333,132.768 139.056,132.768 C138.416,132.768 137.890667,132.578667 137.48,132.2 C137.069333,131.821333 136.821333,131.28 136.736,130.576 L136.736,130.576 L141.728,130.576 C141.749333,130.48 141.768,130.352 141.784,130.192 C141.8,130.032 141.808,129.861333 141.808,129.68 C141.808,129.136 141.738667,128.634667 141.6,128.176 C141.461333,127.717333 141.256,127.322667 140.984,126.992 C140.712,126.661333 140.373333,126.405333 139.968,126.224 C139.562667,126.042667 139.093333,125.952 138.56,125.952 C138.101333,125.952 137.653333,126.048 137.216,126.24 C136.778667,126.432 136.392,126.704 136.056,127.056 C135.72,127.408 135.450667,127.84 135.248,128.352 C135.045333,128.864 134.944,129.44 134.944,130.08 C134.944,130.730667 135.042667,131.309333 135.24,131.816 C135.437333,132.322667 135.712,132.752 136.064,133.104 C136.416,133.456 136.826667,133.725333 137.296,133.912 C137.765333,134.098667 138.272,134.192 138.816,134.192 Z M140.208,129.328 L136.72,129.328 C136.805333,128.688 137.024,128.202667 137.376,127.872 C137.728,127.541333 138.138667,127.376 138.608,127.376 C139.152,127.376 139.554667,127.549333 139.816,127.896 C140.077333,128.242667 140.208,128.72 140.208,129.328 L140.208,129.328 Z" id="Surname" fill="#000000" fill-rule="nonzero"></path>
    </g>
</svg>