<svg id="Layer_1" data-name="Layer 1" xmlns="http://www.w3.org/2000/svg" viewBox="0 0 480 210"><defs><style>.cls-1{fill:#00916a;}.cls-2{fill:#f5f5f5;}.cls-3{fill:none;stroke:#6e7272;stroke-miterlimit:10;}</style></defs><rect class="cls-1" width="6" height="210"/><rect class="cls-2" x="6" width="475.25" height="210"/><path class="cls-1" d="M32.4,10.2A15.7,15.7,0,1,0,48.1,25.9,15.73,15.73,0,0,0,32.4,10.2ZM29.3,33.7l-7.8-7.8,2.2-2.2,5.6,5.6L41.1,17.4l2.2,2.2Z"/><path d="M85.93,44.64V34.18h6.32v1.56H87.79v3H91.6v1.57H87.79v4.37Z"/><path d="M94.86,35.41a1.21,1.21,0,0,1-.82-.29,1,1,0,0,1-.32-.75,1,1,0,0,1,.32-.76,1.27,1.27,0,0,1,1.64,0,1,1,0,0,1,.32.76,1,1,0,0,1-.32.75A1.21,1.21,0,0,1,94.86,35.41Zm-.93,9.23V36.78h1.84v7.86Z"/><path d="M98.12,44.64V36.78h1.52l.13,1.4h.07a3.19,3.19,0,0,1,1-1.18,2.15,2.15,0,0,1,1.22-.41,2.27,2.27,0,0,1,.9.16l-.32,1.6-.39-.09a1.8,1.8,0,0,0-.43,0,1.75,1.75,0,0,0-1,.36,2.83,2.83,0,0,0-.88,1.26v4.8Z"/><path d="M106.19,44.83a4.31,4.31,0,0,1-1.61-.31,5.33,5.33,0,0,1-1.37-.78l.87-1.18a5.21,5.21,0,0,0,1,.65,2.85,2.85,0,0,0,1.13.23,1.48,1.48,0,0,0,1-.26.88.88,0,0,0,.3-.68.71.71,0,0,0-.14-.43,1.62,1.62,0,0,0-.39-.33,4.54,4.54,0,0,0-.54-.26l-.61-.25c-.26-.09-.52-.21-.78-.33a3.31,3.31,0,0,1-.72-.47,2.39,2.39,0,0,1-.51-.63,1.79,1.79,0,0,1-.2-.86,2.13,2.13,0,0,1,.77-1.69,3.11,3.11,0,0,1,2.1-.66,3.67,3.67,0,0,1,1.47.29,5.09,5.09,0,0,1,1.13.66l-.84,1.12a4.06,4.06,0,0,0-.84-.49,2.13,2.13,0,0,0-.89-.19,1.29,1.29,0,0,0-.87.25.79.79,0,0,0-.28.62.65.65,0,0,0,.13.41,1.18,1.18,0,0,0,.36.29,2.8,2.8,0,0,0,.52.24L107,40c.26.09.53.2.8.32a3.91,3.91,0,0,1,.73.46,2.12,2.12,0,0,1,.52.66,2,2,0,0,1,.2.94,2.16,2.16,0,0,1-.2,1,2.07,2.07,0,0,1-.58.77,2.94,2.94,0,0,1-1,.52A4.06,4.06,0,0,1,106.19,44.83Z"/><path d="M113.34,44.83a2.83,2.83,0,0,1-1.16-.21,2,2,0,0,1-.77-.58,2.35,2.35,0,0,1-.43-.9,4.55,4.55,0,0,1-.14-1.16V38.24h-1.12V36.86l1.22-.08.22-2.14h1.54v2.14h2v1.46h-2V42c0,.92.37,1.38,1.1,1.38a2.18,2.18,0,0,0,.43,0,1.63,1.63,0,0,0,.39-.13l.32,1.36a4.26,4.26,0,0,1-.73.2A4,4,0,0,1,113.34,44.83Z"/><path d="M119.55,44.64V36.78h1.52l.13,1.06h.06A6,6,0,0,1,122.4,37a2.71,2.71,0,0,1,1.44-.37,2.11,2.11,0,0,1,1.84.81,4,4,0,0,1,.57,2.31v4.93h-1.84V40a2.42,2.42,0,0,0-.29-1.37,1.06,1.06,0,0,0-.94-.4,1.68,1.68,0,0,0-.9.24,5.63,5.63,0,0,0-.89.73v5.49Z"/><path d="M130.41,44.83a2.3,2.3,0,0,1-1.68-.63,2.23,2.23,0,0,1-.64-1.67,2.33,2.33,0,0,1,.26-1.11,2.25,2.25,0,0,1,.84-.84,5.38,5.38,0,0,1,1.44-.6,12.48,12.48,0,0,1,2.09-.36,3.64,3.64,0,0,0-.09-.59,1.4,1.4,0,0,0-.24-.49,1.14,1.14,0,0,0-.44-.34,1.69,1.69,0,0,0-.68-.12,2.94,2.94,0,0,0-1.12.22,6.87,6.87,0,0,0-1.08.55l-.67-1.23a7.18,7.18,0,0,1,1.47-.72,4.83,4.83,0,0,1,1.76-.31,2.71,2.71,0,0,1,2.2.87,3.88,3.88,0,0,1,.73,2.52v4.66H133l-.13-.86h-.07a6.44,6.44,0,0,1-1.12.75A2.93,2.93,0,0,1,130.41,44.83Zm.59-1.44a1.77,1.77,0,0,0,.88-.22,4.68,4.68,0,0,0,.84-.64V40.77a8.65,8.65,0,0,0-1.35.25,4.43,4.43,0,0,0-.88.36,1.42,1.42,0,0,0-.48.46,1.14,1.14,0,0,0-.14.54.87.87,0,0,0,.32.77A1.3,1.3,0,0,0,131,43.39Z"/><path d="M136.76,44.64V36.78h1.52l.13,1.07h.07a5.33,5.33,0,0,1,1.08-.89,2.65,2.65,0,0,1,2.7,0,2.21,2.21,0,0,1,.79,1,6,6,0,0,1,1.17-1,2.46,2.46,0,0,1,1.36-.4,2.14,2.14,0,0,1,1.84.81,3.9,3.9,0,0,1,.59,2.31v4.93h-1.86V40a2.34,2.34,0,0,0-.29-1.37,1,1,0,0,0-.9-.4,2.45,2.45,0,0,0-1.65,1v5.49h-1.84V40a2.33,2.33,0,0,0-.3-1.37,1.06,1.06,0,0,0-.92-.4,2.47,2.47,0,0,0-1.65,1v5.49Z"/><path d="M153.61,44.83a4,4,0,0,1-1.52-.28,3.52,3.52,0,0,1-1.23-.81,3.61,3.61,0,0,1-.82-1.28A5.17,5.17,0,0,1,150,39a4.17,4.17,0,0,1,.81-1.29,3.46,3.46,0,0,1,1.16-.82,3.51,3.51,0,0,1,2.75,0,2.71,2.71,0,0,1,1,.77,3.5,3.5,0,0,1,.62,1.18,5.57,5.57,0,0,1,.2,1.51,4.18,4.18,0,0,1,0,.51q0,.24-.06.39h-5a2.52,2.52,0,0,0,.75,1.62,2.21,2.21,0,0,0,1.57.57,2.91,2.91,0,0,0,1-.15,4.76,4.76,0,0,0,.88-.43L156.3,44a5.38,5.38,0,0,1-1.25.61A4.35,4.35,0,0,1,153.61,44.83ZM151.52,40H155a2.32,2.32,0,0,0-.39-1.43A1.4,1.4,0,0,0,153.4,38a1.73,1.73,0,0,0-1.23.49A2.34,2.34,0,0,0,151.52,40Z"/><rect class="cls-3" x="84.44" y="53.23" width="320" height="38" rx="4"/><path d="M89,125.58a5.26,5.26,0,0,1-2-.4,5.18,5.18,0,0,1-1.74-1.13l1.09-1.27a4.71,4.71,0,0,0,1.28.86A3.43,3.43,0,0,0,89,124a2.18,2.18,0,0,0,1.36-.37,1.19,1.19,0,0,0,.46-1,1.13,1.13,0,0,0-.12-.54,1.23,1.23,0,0,0-.33-.39,3.17,3.17,0,0,0-.51-.32l-.65-.28-1.44-.63a5,5,0,0,1-.76-.4,3.37,3.37,0,0,1-.68-.57,2.77,2.77,0,0,1-.49-.79,2.73,2.73,0,0,1-.18-1,2.53,2.53,0,0,1,.26-1.16,3,3,0,0,1,.73-.94,3.33,3.33,0,0,1,1.11-.62,4.27,4.27,0,0,1,1.42-.23,4.51,4.51,0,0,1,1.76.36,4.61,4.61,0,0,1,1.45,1l-.94,1.19a4.64,4.64,0,0,0-1.06-.66,3,3,0,0,0-1.21-.24,1.94,1.94,0,0,0-1.2.33,1.06,1.06,0,0,0-.45.9,1,1,0,0,0,.13.52,1.51,1.51,0,0,0,.37.39,3.45,3.45,0,0,0,.54.3l.62.26,1.43.6a4.45,4.45,0,0,1,.84.44,3,3,0,0,1,.67.6,2.76,2.76,0,0,1,.44.77,3.16,3.16,0,0,1,.16,1,2.86,2.86,0,0,1-1,2.18,3.62,3.62,0,0,1-1.19.67A4.54,4.54,0,0,1,89,125.58Z"/><path d="M96.83,125.58a2.09,2.09,0,0,1-1.84-.81,3.88,3.88,0,0,1-.58-2.31v-4.93h1.84v4.69a2.48,2.48,0,0,0,.29,1.38,1.08,1.08,0,0,0,.93.4,1.61,1.61,0,0,0,.9-.26,3.81,3.81,0,0,0,.84-.83v-5.38h1.84v7.86h-1.5l-.15-1.15h0a4.79,4.79,0,0,1-1.12,1A2.6,2.6,0,0,1,96.83,125.58Z"/><path d="M103.39,125.39v-7.86h1.52l.13,1.4h.06a3.21,3.21,0,0,1,1-1.18,2.12,2.12,0,0,1,1.21-.41,2.2,2.2,0,0,1,.9.16l-.32,1.6-.38-.09a1.89,1.89,0,0,0-.44,0,1.69,1.69,0,0,0-1,.36,2.75,2.75,0,0,0-.88,1.26v4.8Z"/><path d="M109.36,125.39v-7.86h1.52l.12,1.06h.07a6.43,6.43,0,0,1,1.14-.88,2.7,2.7,0,0,1,1.43-.37,2.09,2.09,0,0,1,1.84.81,3.9,3.9,0,0,1,.58,2.31v4.93h-1.84V120.7a2.42,2.42,0,0,0-.29-1.37,1.06,1.06,0,0,0-.94-.4,1.74,1.74,0,0,0-.91.24,6.11,6.11,0,0,0-.88.73v5.49Z"/><path d="M120.22,125.58a2.3,2.3,0,0,1-1.68-.63,2.23,2.23,0,0,1-.64-1.67,2.33,2.33,0,0,1,.26-1.11,2.25,2.25,0,0,1,.84-.84,5.11,5.11,0,0,1,1.44-.6,12.53,12.53,0,0,1,2.08-.36,3.65,3.65,0,0,0-.08-.59,1.4,1.4,0,0,0-.24-.49,1.14,1.14,0,0,0-.44-.34,1.72,1.72,0,0,0-.68-.12,2.9,2.9,0,0,0-1.12.22,6.87,6.87,0,0,0-1.08.55l-.68-1.23a7.54,7.54,0,0,1,1.48-.72,4.83,4.83,0,0,1,1.76-.31,2.71,2.71,0,0,1,2.2.87,3.9,3.9,0,0,1,.72,2.52v4.66h-1.52l-.12-.86h-.07a6,6,0,0,1-1.13.75A2.86,2.86,0,0,1,120.22,125.58Zm.59-1.44a1.71,1.71,0,0,0,.87-.22,4.35,4.35,0,0,0,.84-.64v-1.76a8.73,8.73,0,0,0-1.34.25,4.19,4.19,0,0,0-.88.36,1.42,1.42,0,0,0-.48.46,1,1,0,0,0-.14.54.87.87,0,0,0,.32.77A1.3,1.3,0,0,0,120.81,124.14Z"/><path d="M126.57,125.39v-7.86h1.52l.13,1.08h.06a5.38,5.38,0,0,1,1.08-.9,2.39,2.39,0,0,1,1.32-.37,2.11,2.11,0,0,1,2.18,1.41,6,6,0,0,1,1.17-1,2.46,2.46,0,0,1,1.36-.4,2.14,2.14,0,0,1,1.84.81,3.9,3.9,0,0,1,.59,2.31v4.93H136V120.7a2.42,2.42,0,0,0-.29-1.37,1.05,1.05,0,0,0-.91-.4,2.44,2.44,0,0,0-1.64,1v5.49h-1.84V120.7a2.33,2.33,0,0,0-.3-1.37,1.06,1.06,0,0,0-.92-.4,2.47,2.47,0,0,0-1.65,1v5.49Z"/><path d="M143.42,125.58a4,4,0,0,1-1.52-.28,3.38,3.38,0,0,1-1.23-.81,3.63,3.63,0,0,1-.83-1.28,5,5,0,0,1-.29-1.74,4.72,4.72,0,0,1,.3-1.73,3.83,3.83,0,0,1,.81-1.29,3.49,3.49,0,0,1,2.5-1.11,3.41,3.41,0,0,1,1.41.27,2.9,2.9,0,0,1,1,.77,3.44,3.44,0,0,1,.61,1.19,5.08,5.08,0,0,1,.21,1.5c0,.18,0,.35,0,.51s0,.29-.06.39h-5a2.51,2.51,0,0,0,.74,1.62,2.24,2.24,0,0,0,1.58.57,2.91,2.91,0,0,0,1-.15,5,5,0,0,0,.87-.43l.63,1.15a5.58,5.58,0,0,1-1.25.61A4.35,4.35,0,0,1,143.42,125.58Zm-2.1-4.86h3.49a2.32,2.32,0,0,0-.39-1.43,1.4,1.4,0,0,0-1.21-.52,1.73,1.73,0,0,0-1.23.49A2.4,2.4,0,0,0,141.32,120.72Z"/><rect class="cls-3" x="84.44" y="133.98" width="320" height="38" rx="4"/><path d="M102.37,78.17a3.08,3.08,0,0,1-2.89-1.68l1-.67a2.46,2.46,0,0,0,.8.9,1.83,1.83,0,0,0,1,.28,1.51,1.51,0,0,0,1.26-.52,2.77,2.77,0,0,0,.42-1.72V67.48h1.34v7.41a4.75,4.75,0,0,1-.17,1.27,3,3,0,0,1-.51,1,2.33,2.33,0,0,1-.9.7A3.07,3.07,0,0,1,102.37,78.17Z"/><path d="M111,78.17a3.52,3.52,0,0,1-1.37-.27,3.33,3.33,0,0,1-1.14-.8,3.67,3.67,0,0,1-.8-1.28,4.84,4.84,0,0,1-.29-1.72,4.9,4.9,0,0,1,.29-1.73,3.81,3.81,0,0,1,.8-1.29,3.33,3.33,0,0,1,1.14-.8A3.52,3.52,0,0,1,111,70a3.56,3.56,0,0,1,1.37.27,3.33,3.33,0,0,1,1.14.8,4,4,0,0,1,.79,1.29,4.68,4.68,0,0,1,.3,1.73,4.63,4.63,0,0,1-.3,1.72,3.8,3.8,0,0,1-.79,1.28,3.33,3.33,0,0,1-1.14.8A3.56,3.56,0,0,1,111,78.17Zm0-1.09a1.88,1.88,0,0,0,.91-.22,2,2,0,0,0,.71-.6,3.05,3.05,0,0,0,.46-.94,4.56,4.56,0,0,0,.16-1.22,4.68,4.68,0,0,0-.16-1.22,2.9,2.9,0,0,0-.46-.95,2.1,2.1,0,0,0-.71-.62,2,2,0,0,0-.91-.21,2,2,0,0,0-.91.21,2.13,2.13,0,0,0-.72.62,2.89,2.89,0,0,0-.45.95,4.29,4.29,0,0,0-.16,1.22,4.19,4.19,0,0,0,.16,1.22,3,3,0,0,0,.45.94,2.07,2.07,0,0,0,.72.6A1.86,1.86,0,0,0,111,77.08Z"/><path d="M119.8,78.17a4,4,0,0,1-1.47-.28,3.53,3.53,0,0,1-1.18-.8,3.65,3.65,0,0,1-.79-1.27,4.88,4.88,0,0,1-.29-1.72,4.67,4.67,0,0,1,.3-1.72,3.82,3.82,0,0,1,.78-1.28,3.45,3.45,0,0,1,1.11-.81,3.11,3.11,0,0,1,1.3-.28,3.27,3.27,0,0,1,1.32.25,2.64,2.64,0,0,1,1,.74,3.4,3.4,0,0,1,.6,1.15,5.06,5.06,0,0,1,.21,1.51c0,.14,0,.27,0,.4a1.69,1.69,0,0,1,0,.35h-5.24a3,3,0,0,0,.77,2,2.4,2.4,0,0,0,1.82.73,2.89,2.89,0,0,0,1-.17,4,4,0,0,0,.9-.44l.47.87a6.72,6.72,0,0,1-1.14.56A3.91,3.91,0,0,1,119.8,78.17Zm-2.45-4.71h4.16a2.82,2.82,0,0,0-.5-1.8,1.74,1.74,0,0,0-1.42-.61,2,2,0,0,0-1.47.63,2.6,2.6,0,0,0-.51.76A3.47,3.47,0,0,0,117.35,73.46Z"/></svg>