<svg id="Layer_1" data-name="Layer 1" xmlns="http://www.w3.org/2000/svg" viewBox="0 0 480 240"><defs><style>.cls-1{fill:#00916a;}.cls-2{fill:#f5f5f5;}.cls-3,.cls-5{fill:#fff;}.cls-3{stroke:#000;}.cls-3,.cls-4,.cls-5{fill-rule:evenodd;}.cls-4{fill:#005fc6;}.cls-5{stroke:#6e7272;}</style></defs><rect class="cls-1" width="6" height="240"/><rect class="cls-2" x="6" width="474" height="240"/><path class="cls-1" d="M32.4,10.2A15.7,15.7,0,1,0,48.1,25.9,15.73,15.73,0,0,0,32.4,10.2ZM29.3,33.7l-7.8-7.8,2.2-2.2,5.6,5.6L41.1,17.4l2.2,2.2Z"/><path d="M182.85,54.91l4.44-13.12h1.88l4.44,13.12h-1.78l-1.24-4h-4.78l-1.26,4Zm4-7.34-.62,2h3.94l-.62-2c-.24-.73-.46-1.46-.68-2.18l-.64-2.24h-.08c-.2.76-.4,1.51-.62,2.24S187.09,46.84,186.85,47.57Z"/><path d="M199.15,55.15a4.88,4.88,0,0,1-1.8-.33,4.06,4.06,0,0,1-1.45-1,4.82,4.82,0,0,1-1-1.59,6.35,6.35,0,0,1-.35-2.16A5.91,5.91,0,0,1,195,47.9a5.15,5.15,0,0,1,1-1.61,4.54,4.54,0,0,1,1.49-1,5,5,0,0,1,1.79-.34,3.71,3.71,0,0,1,1.64.34,5.26,5.26,0,0,1,1.2.81l-.84,1.07a3.71,3.71,0,0,0-.89-.61,2.26,2.26,0,0,0-1-.24,2.79,2.79,0,0,0-1.22.26,2.87,2.87,0,0,0-1,.78,4,4,0,0,0-.63,1.18,5,5,0,0,0-.23,1.53,5.18,5.18,0,0,0,.22,1.53,3.82,3.82,0,0,0,.61,1.17,2.8,2.8,0,0,0,.95.76,2.93,2.93,0,0,0,1.22.26,2.62,2.62,0,0,0,1.25-.29,5,5,0,0,0,1-.68l.72,1.09a4.84,4.84,0,0,1-1.46.91A4.34,4.34,0,0,1,199.15,55.15Z"/><path d="M207.85,55.15a4.88,4.88,0,0,1-1.8-.33,4.06,4.06,0,0,1-1.45-1,4.82,4.82,0,0,1-1-1.59,6.35,6.35,0,0,1-.35-2.16,5.91,5.91,0,0,1,.38-2.17,5.15,5.15,0,0,1,1-1.61,4.54,4.54,0,0,1,1.49-1A5,5,0,0,1,208,45a3.71,3.71,0,0,1,1.64.34,5.26,5.26,0,0,1,1.2.81L210,47.17a3.71,3.71,0,0,0-.89-.61,2.26,2.26,0,0,0-1.05-.24,2.79,2.79,0,0,0-1.22.26,2.87,2.87,0,0,0-1,.78,4,4,0,0,0-.63,1.18,5,5,0,0,0-.23,1.53,5.18,5.18,0,0,0,.22,1.53,3.82,3.82,0,0,0,.61,1.17,2.8,2.8,0,0,0,1,.76,2.93,2.93,0,0,0,1.22.26,2.62,2.62,0,0,0,1.25-.29,5,5,0,0,0,1-.68l.72,1.09a4.84,4.84,0,0,1-1.46.91A4.34,4.34,0,0,1,207.85,55.15Z"/><path d="M216.49,55.15a4.49,4.49,0,0,1-1.71-.33,4.26,4.26,0,0,1-1.43-1,4.88,4.88,0,0,1-1-1.59,6.52,6.52,0,0,1,0-4.33,5.09,5.09,0,0,1,1-1.61,4.41,4.41,0,0,1,1.43-1,4.47,4.47,0,0,1,3.42,0,4.3,4.3,0,0,1,1.43,1,4.75,4.75,0,0,1,1,1.61,6.52,6.52,0,0,1,0,4.33,4.57,4.57,0,0,1-1,1.59,4.16,4.16,0,0,1-1.43,1A4.49,4.49,0,0,1,216.49,55.15Zm0-1.36a2.52,2.52,0,0,0,1.14-.26,2.6,2.6,0,0,0,.89-.76,3.55,3.55,0,0,0,.57-1.17,5.2,5.2,0,0,0,.2-1.53,5.3,5.3,0,0,0-.2-1.53,3.5,3.5,0,0,0-.57-1.18,2.55,2.55,0,0,0-.89-.78,2.39,2.39,0,0,0-1.14-.26,2.45,2.45,0,0,0-1.14.26,2.74,2.74,0,0,0-.89.78,3.93,3.93,0,0,0-.57,1.18,5.67,5.67,0,0,0-.2,1.53,5.56,5.56,0,0,0,.2,1.53,4,4,0,0,0,.57,1.17,2.8,2.8,0,0,0,.89.76A2.58,2.58,0,0,0,216.49,53.79Z"/><path d="M226.39,55.15a2.64,2.64,0,0,1-2.27-1,4.72,4.72,0,0,1-.71-2.83V45.19h1.66v6a3.54,3.54,0,0,0,.43,2,1.58,1.58,0,0,0,1.39.61,2.32,2.32,0,0,0,1.34-.38,6.39,6.39,0,0,0,1.28-1.25V45.19h1.64v9.72h-1.36l-.14-1.51h-.06a6.19,6.19,0,0,1-1.43,1.27A3.21,3.21,0,0,1,226.39,55.15Z"/><path d="M234.43,54.91V45.19h1.36l.14,1.41H236a8.36,8.36,0,0,1,1.47-1.18,3.41,3.41,0,0,1,1.79-.47,2.63,2.63,0,0,1,2.25,1,4.73,4.73,0,0,1,.71,2.84v6.16h-1.64V49a3.46,3.46,0,0,0-.44-2,1.62,1.62,0,0,0-1.4-.61,2.44,2.44,0,0,0-1.34.38,10.13,10.13,0,0,0-1.32,1.12v7Z"/><path d="M248.43,55.15a3.19,3.19,0,0,1-1.31-.24,2.28,2.28,0,0,1-.86-.66,2.53,2.53,0,0,1-.47-1,5.94,5.94,0,0,1-.14-1.32V46.53h-1.44V45.29l1.52-.1.2-2.71h1.38v2.71h2.62v1.34h-2.62v5.41a2.45,2.45,0,0,0,.33,1.38,1.3,1.3,0,0,0,1.17.5,1.92,1.92,0,0,0,.56-.09,5,5,0,0,0,.54-.17l.32,1.23a6,6,0,0,1-.87.25A3.69,3.69,0,0,1,248.43,55.15Z"/><path d="M258.67,55.15a5.32,5.32,0,0,1-2-.37,6.74,6.74,0,0,1-1.64-1l.82-1.11a7.11,7.11,0,0,0,1.31.85,3.64,3.64,0,0,0,1.55.31,2.08,2.08,0,0,0,1.44-.43,1.43,1.43,0,0,0,.48-1.08,1.09,1.09,0,0,0-.2-.67,2.17,2.17,0,0,0-.51-.49,4.26,4.26,0,0,0-.71-.37l-.8-.31c-.34-.12-.69-.26-1-.41a4.37,4.37,0,0,1-.93-.57,3,3,0,0,1-.67-.76,2.12,2.12,0,0,1-.26-1.07,2.56,2.56,0,0,1,.89-2,3.53,3.53,0,0,1,1.05-.58,4.68,4.68,0,0,1,1.4-.21,4.21,4.21,0,0,1,1.69.33,4.91,4.91,0,0,1,1.33.78l-.78,1a4.84,4.84,0,0,0-1-.62,2.87,2.87,0,0,0-1.18-.25,1.88,1.88,0,0,0-1.35.42,1.38,1.38,0,0,0-.43,1,1,1,0,0,0,.18.59,1.68,1.68,0,0,0,.48.43,3.7,3.7,0,0,0,.69.34l.81.32,1.05.41a4.38,4.38,0,0,1,.95.55,2.74,2.74,0,0,1,.69.82,2.28,2.28,0,0,1,.27,1.15,2.61,2.61,0,0,1-.23,1.12,2.54,2.54,0,0,1-.68.92,3.12,3.12,0,0,1-1.12.63A4.48,4.48,0,0,1,258.67,55.15Z"/><path d="M267.17,55.15a3.19,3.19,0,0,1-1.31-.24,2.28,2.28,0,0,1-.86-.66,2.53,2.53,0,0,1-.47-1,5.94,5.94,0,0,1-.14-1.32V46.53H263V45.29l1.52-.1.2-2.71h1.38v2.71h2.62v1.34h-2.62v5.41a2.45,2.45,0,0,0,.33,1.38,1.3,1.3,0,0,0,1.17.5,1.92,1.92,0,0,0,.56-.09,5,5,0,0,0,.54-.17l.32,1.23a6,6,0,0,1-.87.25A3.69,3.69,0,0,1,267.17,55.15Z"/><path d="M272.69,55.15a3,3,0,0,1-2-.71,2.6,2.6,0,0,1-.81-2,2.73,2.73,0,0,1,1.42-2.46,11.93,11.93,0,0,1,4.54-1.19,4.41,4.41,0,0,0-.09-.89,2.21,2.21,0,0,0-.31-.79,1.53,1.53,0,0,0-.61-.54,2.07,2.07,0,0,0-1-.21,3.85,3.85,0,0,0-1.58.32,7.51,7.51,0,0,0-1.32.72l-.64-1.15a12.11,12.11,0,0,1,1.66-.85,5.65,5.65,0,0,1,2.16-.41A3,3,0,0,1,276.67,46a4.78,4.78,0,0,1,.8,2.91v6h-1.36L276,53.75h-.06a7.49,7.49,0,0,1-1.5,1A3.61,3.61,0,0,1,272.69,55.15Zm.48-1.32a2.64,2.64,0,0,0,1.32-.33,6.14,6.14,0,0,0,1.32-1v-2.7a19.17,19.17,0,0,0-2.05.38,5.59,5.59,0,0,0-1.34.52,2.16,2.16,0,0,0-.74.69,1.73,1.73,0,0,0-.23.86,1.41,1.41,0,0,0,.5,1.2A2.11,2.11,0,0,0,273.17,53.83Z"/><path d="M283.31,55.15a3.19,3.19,0,0,1-1.31-.24,2.28,2.28,0,0,1-.86-.66,2.53,2.53,0,0,1-.47-1,5.94,5.94,0,0,1-.14-1.32V46.53h-1.44V45.29l1.52-.1.2-2.71h1.38v2.71h2.62v1.34h-2.62v5.41a2.45,2.45,0,0,0,.33,1.38,1.3,1.3,0,0,0,1.17.5,1.92,1.92,0,0,0,.56-.09,5,5,0,0,0,.54-.17l.32,1.23a6,6,0,0,1-.87.25A3.69,3.69,0,0,1,283.31,55.15Z"/><path d="M289.85,55.15a2.64,2.64,0,0,1-2.27-1,4.72,4.72,0,0,1-.71-2.83V45.19h1.66v6a3.54,3.54,0,0,0,.43,2,1.58,1.58,0,0,0,1.39.61,2.32,2.32,0,0,0,1.34-.38A6.39,6.39,0,0,0,293,52.1V45.19h1.64v9.72h-1.36l-.14-1.51h-.06a6.19,6.19,0,0,1-1.43,1.27A3.21,3.21,0,0,1,289.85,55.15Z"/><path d="M300.43,55.15a5.32,5.32,0,0,1-2-.37,6.74,6.74,0,0,1-1.64-1l.82-1.11a7.11,7.11,0,0,0,1.31.85,3.64,3.64,0,0,0,1.55.31,2.08,2.08,0,0,0,1.44-.43,1.43,1.43,0,0,0,.48-1.08,1.09,1.09,0,0,0-.2-.67,2.17,2.17,0,0,0-.51-.49,4.26,4.26,0,0,0-.71-.37l-.8-.31c-.34-.12-.69-.26-1-.41a4.37,4.37,0,0,1-.93-.57,3,3,0,0,1-.67-.76,2.12,2.12,0,0,1-.26-1.07,2.56,2.56,0,0,1,.89-2,3.53,3.53,0,0,1,1.05-.58,4.68,4.68,0,0,1,1.4-.21,4.21,4.21,0,0,1,1.69.33,4.91,4.91,0,0,1,1.33.78l-.78,1a4.84,4.84,0,0,0-1-.62,2.87,2.87,0,0,0-1.18-.25,1.88,1.88,0,0,0-1.35.42,1.38,1.38,0,0,0-.43,1,1,1,0,0,0,.18.59,1.68,1.68,0,0,0,.48.43,3.7,3.7,0,0,0,.69.34l.81.32,1.05.41a4.38,4.38,0,0,1,.95.55,2.74,2.74,0,0,1,.69.82,2.28,2.28,0,0,1,.27,1.15,2.61,2.61,0,0,1-.23,1.12,2.54,2.54,0,0,1-.68.92,3.12,3.12,0,0,1-1.12.63A4.48,4.48,0,0,1,300.43,55.15Z"/><path d="M229,99.07,233.39,86h1.88l4.44,13.12h-1.78l-1.24-4h-4.78l-1.26,4Zm4-7.34-.62,2h3.94l-.62-2c-.24-.73-.47-1.46-.68-2.19s-.43-1.47-.64-2.23h-.08c-.2.76-.41,1.51-.62,2.23S233.19,91,233,91.73Z"/><path d="M245.25,99.31a4.69,4.69,0,0,1-1.8-.34A4.07,4.07,0,0,1,242,98a4.56,4.56,0,0,1-1-1.6,6,6,0,0,1-.35-2.15,5.68,5.68,0,0,1,.38-2.17,4.82,4.82,0,0,1,1-1.61,4.21,4.21,0,0,1,1.49-1,4.67,4.67,0,0,1,1.79-.34,3.61,3.61,0,0,1,1.64.34,5.7,5.7,0,0,1,1.2.8l-.84,1.08a4.33,4.33,0,0,0-.89-.62,2.31,2.31,0,0,0-1-.24,2.76,2.76,0,0,0-1.22.27,2.66,2.66,0,0,0-1,.77,3.65,3.65,0,0,0-.63,1.19,4.64,4.64,0,0,0-.23,1.53,4.81,4.81,0,0,0,.22,1.52,3.61,3.61,0,0,0,.61,1.17,2.6,2.6,0,0,0,.95.76,2.86,2.86,0,0,0,2.47,0,4.88,4.88,0,0,0,1-.69l.72,1.1a5.18,5.18,0,0,1-1.46.91A4.41,4.41,0,0,1,245.25,99.31Z"/><path d="M253.39,99.31a3.16,3.16,0,0,1-1.31-.24,2.2,2.2,0,0,1-.86-.66,2.53,2.53,0,0,1-.47-1,5.46,5.46,0,0,1-.14-1.32V90.69h-1.44V89.45l1.52-.1.2-2.72h1.38v2.72h2.62v1.34h-2.62v5.4a2.48,2.48,0,0,0,.33,1.39,1.3,1.3,0,0,0,1.17.49,2.36,2.36,0,0,0,.56-.08,3.42,3.42,0,0,0,.54-.18l.32,1.24a9,9,0,0,1-.87.25A4.36,4.36,0,0,1,253.39,99.31Z"/><path d="M257.93,87.35a1.16,1.16,0,0,1-.81-.3,1.05,1.05,0,0,1,0-1.53,1.28,1.28,0,0,1,1.62,0,1.05,1.05,0,0,1,0,1.53A1.16,1.16,0,0,1,257.93,87.35Zm-.84,11.72V89.35h1.64v9.72Z"/><path d="M264.11,99.07l-3.5-9.72h1.7l1.84,5.52q.21.72.45,1.44l.45,1.42h.08c.14-.47.29-.94.44-1.42s.29-1,.44-1.44l1.84-5.52h1.62L266,99.07Z"/><path d="M275.21,99.31a4.77,4.77,0,0,1-1.83-.35,4.31,4.31,0,0,1-1.48-1,4.57,4.57,0,0,1-1-1.59,6,6,0,0,1-.36-2.14,5.81,5.81,0,0,1,.37-2.15,4.89,4.89,0,0,1,1-1.61,4.14,4.14,0,0,1,1.39-1,4,4,0,0,1,1.62-.35,4.15,4.15,0,0,1,1.65.32,3.26,3.26,0,0,1,1.22.92,4.47,4.47,0,0,1,.75,1.44,6.47,6.47,0,0,1,.26,1.88c0,.17,0,.34,0,.51a4,4,0,0,1,0,.43h-6.56a3.77,3.77,0,0,0,1,2.47,3,3,0,0,0,2.27.91,3.88,3.88,0,0,0,1.29-.21,5.61,5.61,0,0,0,1.13-.55l.58,1.08A8.16,8.16,0,0,1,277,99,5,5,0,0,1,275.21,99.31Zm-3.06-5.88h5.2a3.47,3.47,0,0,0-.63-2.25,2.17,2.17,0,0,0-1.77-.77,2.54,2.54,0,0,0-1,.2,2.46,2.46,0,0,0-.85.59,3,3,0,0,0-.63,1A4.15,4.15,0,0,0,272.15,93.43Z"/><path d="M230.69,144.11V131h1.66v11.7h5.74v1.42Z"/><path d="M243.79,144.35a4.31,4.31,0,0,1-1.71-.34,4,4,0,0,1-1.43-1,4.52,4.52,0,0,1-1-1.6,5.81,5.81,0,0,1-.37-2.15,5.91,5.91,0,0,1,.37-2.17,4.75,4.75,0,0,1,1-1.61,4.16,4.16,0,0,1,1.43-1,4.47,4.47,0,0,1,3.42,0,4.26,4.26,0,0,1,1.43,1,5.09,5.09,0,0,1,1,1.61,6.13,6.13,0,0,1,.37,2.17,6,6,0,0,1-.37,2.15,4.83,4.83,0,0,1-1,1.6,4.09,4.09,0,0,1-1.43,1A4.31,4.31,0,0,1,243.79,144.35Zm0-1.36a2.46,2.46,0,0,0,1.14-.27,2.68,2.68,0,0,0,.89-.76,3.75,3.75,0,0,0,.57-1.17,5.49,5.49,0,0,0,.2-1.52,5.61,5.61,0,0,0-.2-1.53,4.11,4.11,0,0,0-.57-1.19,2.71,2.71,0,0,0-.89-.77,2.46,2.46,0,0,0-1.14-.27,2.4,2.4,0,0,0-1.14.27,2.52,2.52,0,0,0-.89.77,3.65,3.65,0,0,0-.57,1.19,5.25,5.25,0,0,0-.2,1.53,5.13,5.13,0,0,0,.2,1.52,3.36,3.36,0,0,0,.57,1.17,2.5,2.5,0,0,0,.89.76A2.4,2.4,0,0,0,243.79,143Z"/><path d="M254.69,144.35a4.69,4.69,0,0,1-1.8-.34,3.83,3.83,0,0,1-1.45-1,4.47,4.47,0,0,1-1-1.6,6,6,0,0,1-.35-2.15,5.71,5.71,0,0,1,.38-2.17,4.82,4.82,0,0,1,1-1.61,4.21,4.21,0,0,1,1.49-1,4.87,4.87,0,0,1,1.79-.34,3.75,3.75,0,0,1,1.64.34,6.12,6.12,0,0,1,1.2.8l-.84,1.08a4.33,4.33,0,0,0-.89-.62,2.31,2.31,0,0,0-1-.24,2.76,2.76,0,0,0-1.22.27,2.66,2.66,0,0,0-1,.77,3.75,3.75,0,0,0-.63,1.19,4.64,4.64,0,0,0-.23,1.53,4.81,4.81,0,0,0,.22,1.52,3.42,3.42,0,0,0,.61,1.17,2.6,2.6,0,0,0,1,.76,2.76,2.76,0,0,0,1.22.27,2.64,2.64,0,0,0,1.25-.29,4.88,4.88,0,0,0,1-.69l.72,1.1a5.18,5.18,0,0,1-1.46.91A4.41,4.41,0,0,1,254.69,144.35Z"/><path d="M260,144.11V129.87h1.62v9.64h.06l4.14-5.12h1.82l-3.26,3.9,3.7,5.82h-1.8l-2.84-4.68-1.82,2.12v2.56Z"/><path d="M273.45,144.35a4.59,4.59,0,0,1-1.83-.35,4.17,4.17,0,0,1-1.48-1,4.57,4.57,0,0,1-1-1.59,5.93,5.93,0,0,1-.36-2.14,5.84,5.84,0,0,1,.37-2.15,4.89,4.89,0,0,1,1-1.61,4.28,4.28,0,0,1,1.39-1,4,4,0,0,1,1.62-.35,4.15,4.15,0,0,1,1.65.32,3.37,3.37,0,0,1,1.22.92,4.47,4.47,0,0,1,.75,1.44,6.47,6.47,0,0,1,.26,1.88c0,.18,0,.35,0,.51a4,4,0,0,1,0,.43h-6.56a3.75,3.75,0,0,0,1,2.47,3,3,0,0,0,2.27.91,3.88,3.88,0,0,0,1.29-.21,5.61,5.61,0,0,0,1.13-.55l.58,1.08a8.16,8.16,0,0,1-1.42.7A5,5,0,0,1,273.45,144.35Zm-3.06-5.88h5.2a3.51,3.51,0,0,0-.63-2.25,2.17,2.17,0,0,0-1.77-.77,2.54,2.54,0,0,0-1,.2,2.6,2.6,0,0,0-.85.59,3,3,0,0,0-.63.95A4.15,4.15,0,0,0,270.39,138.47Z"/><path d="M282.75,144.35a3.59,3.59,0,0,1-2.93-1.32,5.73,5.73,0,0,1-1.09-3.76,6,6,0,0,1,.35-2.13,5,5,0,0,1,.93-1.61,4,4,0,0,1,1.34-1,3.67,3.67,0,0,1,1.6-.36,3.34,3.34,0,0,1,1.46.3,7.08,7.08,0,0,1,1.26.82l-.08-1.66v-3.74h1.66v14.24h-1.36l-.14-1.14h-.06a5.91,5.91,0,0,1-1.33,1A3.24,3.24,0,0,1,282.75,144.35Zm.36-1.38a2.62,2.62,0,0,0,1.28-.33,4.48,4.48,0,0,0,1.2-1v-5.08a4.45,4.45,0,0,0-1.19-.79,3.17,3.17,0,0,0-1.17-.23,2.29,2.29,0,0,0-1.09.27,2.8,2.8,0,0,0-.89.76,3.59,3.59,0,0,0-.6,1.17,4.85,4.85,0,0,0-.22,1.52,4.61,4.61,0,0,0,.7,2.74A2.26,2.26,0,0,0,283.11,143Z"/><path d="M235.65,188a5.5,5.5,0,0,1-2.28-.46,5,5,0,0,1-1.81-1.33,5.93,5.93,0,0,1-1.2-2.14,8.79,8.79,0,0,1-.43-2.87,8.42,8.42,0,0,1,.44-2.84,6.3,6.3,0,0,1,1.22-2.14,5.45,5.45,0,0,1,1.84-1.35,5.69,5.69,0,0,1,2.32-.47,4.47,4.47,0,0,1,2.11.49,5.89,5.89,0,0,1,1.49,1.13l-.9,1.08a4.46,4.46,0,0,0-1.18-.9,3.31,3.31,0,0,0-1.5-.34,3.89,3.89,0,0,0-1.7.37,3.69,3.69,0,0,0-1.3,1.06,4.93,4.93,0,0,0-.83,1.67,7.56,7.56,0,0,0-.29,2.2,7.68,7.68,0,0,0,.29,2.23,5.11,5.11,0,0,0,.81,1.69,3.47,3.47,0,0,0,1.27,1.08,3.59,3.59,0,0,0,1.69.38,3.47,3.47,0,0,0,1.68-.39,5.22,5.22,0,0,0,1.36-1.09l.92,1a5.82,5.82,0,0,1-1.76,1.4A4.85,4.85,0,0,1,235.65,188Z"/><path d="M243.69,188a1.51,1.51,0,0,1-1.34-.56,2.78,2.78,0,0,1-.4-1.64V173.51h1.64v12.4a.8.8,0,0,0,.14.56.4.4,0,0,0,.32.16h.15a.8.8,0,0,0,.21,0l.22,1.24a1.13,1.13,0,0,1-.38.12A3,3,0,0,1,243.69,188Z"/><path d="M250.83,188a4.31,4.31,0,0,1-1.71-.34,4,4,0,0,1-1.43-1,4.52,4.52,0,0,1-1-1.6,5.81,5.81,0,0,1-.37-2.15,5.91,5.91,0,0,1,.37-2.17,4.75,4.75,0,0,1,1-1.61,4.16,4.16,0,0,1,1.43-1,4.47,4.47,0,0,1,3.42,0,4.26,4.26,0,0,1,1.43,1,5.09,5.09,0,0,1,1,1.61,6.13,6.13,0,0,1,.37,2.17,6,6,0,0,1-.37,2.15,4.83,4.83,0,0,1-1,1.6,4.09,4.09,0,0,1-1.43,1A4.31,4.31,0,0,1,250.83,188Zm0-1.36a2.46,2.46,0,0,0,1.14-.27,2.68,2.68,0,0,0,.89-.76,3.75,3.75,0,0,0,.57-1.17,5.49,5.49,0,0,0,.2-1.52,5.61,5.61,0,0,0-.2-1.53,4.11,4.11,0,0,0-.57-1.19,2.71,2.71,0,0,0-.89-.77,2.46,2.46,0,0,0-1.14-.27,2.4,2.4,0,0,0-1.14.27,2.52,2.52,0,0,0-.89.77,3.65,3.65,0,0,0-.57,1.19,5.25,5.25,0,0,0-.2,1.53,5.13,5.13,0,0,0,.2,1.52,3.36,3.36,0,0,0,.57,1.17,2.5,2.5,0,0,0,.89.76A2.4,2.4,0,0,0,250.83,186.63Z"/><path d="M260.43,188a5.06,5.06,0,0,1-2-.38,5.86,5.86,0,0,1-1.64-1l.82-1.1a6,6,0,0,0,1.31.84,3.44,3.44,0,0,0,1.55.32,2,2,0,0,0,1.44-.44,1.4,1.4,0,0,0,.48-1.08,1.14,1.14,0,0,0-.2-.66,2.38,2.38,0,0,0-.51-.49,4.3,4.3,0,0,0-.71-.37l-.8-.32a10.2,10.2,0,0,1-1-.41,3.9,3.9,0,0,1-.93-.56,2.59,2.59,0,0,1-.67-.77,2,2,0,0,1-.26-1.06,2.54,2.54,0,0,1,.23-1.09,2.46,2.46,0,0,1,.66-.88,3.11,3.11,0,0,1,1.05-.58,4.34,4.34,0,0,1,1.4-.21,4.46,4.46,0,0,1,1.69.32,5.9,5.9,0,0,1,1.33.78l-.78,1a5.6,5.6,0,0,0-1-.62,2.9,2.9,0,0,0-1.18-.24,1.85,1.85,0,0,0-1.35.42,1.32,1.32,0,0,0-.43,1,1,1,0,0,0,.18.59,1.57,1.57,0,0,0,.48.44,3.7,3.7,0,0,0,.69.34l.81.31,1.05.42a4.22,4.22,0,0,1,.95.55,2.7,2.7,0,0,1,.69.81,2.34,2.34,0,0,1,.27,1.16,2.77,2.77,0,0,1-.23,1.12,2.66,2.66,0,0,1-.68.92,3.21,3.21,0,0,1-1.12.63A4.56,4.56,0,0,1,260.43,188Z"/><path d="M270.21,188a4.59,4.59,0,0,1-1.83-.35,4.17,4.17,0,0,1-1.48-1,4.57,4.57,0,0,1-1-1.59,5.93,5.93,0,0,1-.36-2.14,5.84,5.84,0,0,1,.37-2.15,4.89,4.89,0,0,1,1-1.61,4.28,4.28,0,0,1,1.39-1,4,4,0,0,1,1.62-.35,4.15,4.15,0,0,1,1.65.32,3.37,3.37,0,0,1,1.22.92,4.47,4.47,0,0,1,.75,1.44,6.47,6.47,0,0,1,.26,1.88c0,.18,0,.35,0,.51a4,4,0,0,1,0,.43h-6.56a3.75,3.75,0,0,0,1,2.47,3,3,0,0,0,2.27.91,3.88,3.88,0,0,0,1.29-.21,5.61,5.61,0,0,0,1.13-.55l.58,1.08a8.16,8.16,0,0,1-1.42.7A5,5,0,0,1,270.21,188Zm-3.06-5.88h5.2a3.51,3.51,0,0,0-.63-2.25,2.17,2.17,0,0,0-1.77-.77,2.54,2.54,0,0,0-1,.2,2.6,2.6,0,0,0-.85.59,3,3,0,0,0-.63,1A4.15,4.15,0,0,0,267.15,182.11Z"/><path d="M279.51,188a3.59,3.59,0,0,1-2.93-1.32,5.73,5.73,0,0,1-1.09-3.76,6,6,0,0,1,.35-2.13,5,5,0,0,1,.93-1.61,4,4,0,0,1,1.34-1,3.67,3.67,0,0,1,1.6-.36,3.34,3.34,0,0,1,1.46.3,7.08,7.08,0,0,1,1.26.82l-.08-1.66v-3.74H284v14.24h-1.36l-.14-1.14h-.06a5.91,5.91,0,0,1-1.33,1A3.24,3.24,0,0,1,279.51,188Zm.36-1.38a2.62,2.62,0,0,0,1.28-.33,4.48,4.48,0,0,0,1.2-1v-5.08a4.45,4.45,0,0,0-1.19-.79,3.17,3.17,0,0,0-1.17-.23,2.29,2.29,0,0,0-1.09.27,2.8,2.8,0,0,0-.89.76,3.59,3.59,0,0,0-.6,1.17,4.85,4.85,0,0,0-.22,1.52,4.61,4.61,0,0,0,.7,2.74A2.26,2.26,0,0,0,279.87,186.61Z"/><path id="Rectangle" class="cls-3" d="M199.68,76.35h0a16,16,0,0,1,16,16h0a16,16,0,0,1-16,16h0a16,16,0,0,1-16-16h0A16,16,0,0,1,199.68,76.35Z"/><path id="Rectangle-2" data-name="Rectangle" class="cls-4" d="M199.62,83.41h0a8.88,8.88,0,0,1,8.88,8.88h0a8.89,8.89,0,0,1-8.88,8.88h0a8.89,8.89,0,0,1-8.88-8.88h0A8.88,8.88,0,0,1,199.62,83.41Z"/><path id="Rectangle-3" data-name="Rectangle" class="cls-5" d="M199.68,120.81h0a16,16,0,0,1,16,16h0a16,16,0,0,1-16,16h0a16,16,0,0,1-16-16h0A16,16,0,0,1,199.68,120.81Z"/><path id="Rectangle-4" data-name="Rectangle" class="cls-5" d="M199.68,165.26h0a16,16,0,0,1,16,16h0a16,16,0,0,1-16,16h0a16,16,0,0,1-16-16h0A16,16,0,0,1,199.68,165.26Z"/></svg>