<svg id="Layer_1" data-name="Layer 1" xmlns="http://www.w3.org/2000/svg" viewBox="0 0 480 400"><defs><style>.cls-1{fill:#00916a;}.cls-2{fill:#f5f5f5;}.cls-3{fill:none;stroke:#6e7272;stroke-miterlimit:10;}.cls-4{fill:#6e7272;}</style></defs><rect class="cls-1" width="6" height="400"/><rect class="cls-2" x="6" width="475.25" height="400"/><path class="cls-1" d="M32.4,10.2A15.7,15.7,0,1,0,48.1,25.9,15.73,15.73,0,0,0,32.4,10.2ZM29.3,33.7l-7.8-7.8,2.2-2.2,5.6,5.6L41.1,17.4l2.2,2.2Z"/><path d="M85.11,53.06V42.59h6.32v1.57H87v3h3.81v1.57H87v4.37Z"/><path d="M94,43.82a1.12,1.12,0,0,1-.81-.29.94.94,0,0,1-.33-.75,1,1,0,0,1,.33-.76,1.16,1.16,0,0,1,.81-.29,1.21,1.21,0,0,1,.82.29,1,1,0,0,1,.32.76,1,1,0,0,1-.32.75A1.16,1.16,0,0,1,94,43.82Zm-.93,9.24V45.2H95v7.86Z"/><path d="M97.3,53.06V45.2h1.52L99,46.59H99a3.36,3.36,0,0,1,1-1.18,2.14,2.14,0,0,1,1.22-.4,2.1,2.1,0,0,1,.9.16l-.32,1.6a2.24,2.24,0,0,0-.39-.1,2.63,2.63,0,0,0-.43,0,1.75,1.75,0,0,0-1,.36,2.83,2.83,0,0,0-.88,1.26v4.8Z"/><path d="M105.37,53.25a4.51,4.51,0,0,1-1.61-.31,5.33,5.33,0,0,1-1.37-.78l.87-1.18a5.14,5.14,0,0,0,1,.64,2.7,2.7,0,0,0,1.13.24,1.42,1.42,0,0,0,.95-.27.87.87,0,0,0,.3-.68.68.68,0,0,0-.14-.42,1.42,1.42,0,0,0-.39-.33,3.39,3.39,0,0,0-.54-.26l-.61-.25c-.26-.1-.52-.21-.78-.34a3.28,3.28,0,0,1-.72-.46,2.82,2.82,0,0,1-.51-.63,1.79,1.79,0,0,1-.2-.86,2.15,2.15,0,0,1,.77-1.7,3.16,3.16,0,0,1,2.1-.65,3.51,3.51,0,0,1,1.47.29,5.5,5.5,0,0,1,1.13.65l-.84,1.12a5.22,5.22,0,0,0-.84-.49,2.28,2.28,0,0,0-.89-.18,1.24,1.24,0,0,0-.87.25.77.77,0,0,0-.28.61.63.63,0,0,0,.13.41,1.37,1.37,0,0,0,.36.3,5.2,5.2,0,0,0,.52.24l.62.22c.27.1.53.21.8.33a3.1,3.1,0,0,1,.73.46,2.12,2.12,0,0,1,.52.66,2,2,0,0,1,.2.94,2.19,2.19,0,0,1-.2,1,2,2,0,0,1-.58.76,3,3,0,0,1-1,.53A4.35,4.35,0,0,1,105.37,53.25Z"/><path d="M112.52,53.25a2.86,2.86,0,0,1-1.16-.21,2,2,0,0,1-.77-.59,2.46,2.46,0,0,1-.43-.89A4.61,4.61,0,0,1,110,50.4V46.65H108.9V45.28l1.22-.08.22-2.14h1.54V45.2h2v1.45h-2V50.4c0,.92.37,1.38,1.1,1.38a2.18,2.18,0,0,0,.43-.05,3.56,3.56,0,0,0,.39-.13l.32,1.36a7.47,7.47,0,0,1-.73.2A4,4,0,0,1,112.52,53.25Z"/><path d="M118.73,53.06V45.2h1.52l.13,1.06h.06a6,6,0,0,1,1.14-.89A2.8,2.8,0,0,1,123,45a2.11,2.11,0,0,1,1.84.81,3.94,3.94,0,0,1,.57,2.31v4.93h-1.84V48.37A2.4,2.4,0,0,0,123.3,47a1.06,1.06,0,0,0-.94-.4,1.6,1.6,0,0,0-.9.25,5.12,5.12,0,0,0-.89.73v5.49Z"/><path d="M129.59,53.25a2.27,2.27,0,0,1-1.68-.64,2.22,2.22,0,0,1-.64-1.67,2.17,2.17,0,0,1,1.1-1.95,5.73,5.73,0,0,1,1.44-.59A13.72,13.72,0,0,1,131.9,48a2.7,2.7,0,0,0-.09-.58,1.45,1.45,0,0,0-.24-.5,1.16,1.16,0,0,0-.44-.34,1.67,1.67,0,0,0-.67-.12,3,3,0,0,0-1.13.23,7.77,7.77,0,0,0-1.08.54L127.58,46a7.18,7.18,0,0,1,1.47-.72,5,5,0,0,1,1.76-.3,2.71,2.71,0,0,1,2.2.87,3.86,3.86,0,0,1,.73,2.52v4.66h-1.52l-.13-.87H132a5.48,5.48,0,0,1-1.12.75A2.78,2.78,0,0,1,129.59,53.25Zm.59-1.44a1.78,1.78,0,0,0,.88-.23,4.68,4.68,0,0,0,.84-.64V49.18a8.53,8.53,0,0,0-1.35.26,4.43,4.43,0,0,0-.88.36,1.25,1.25,0,0,0-.48.46,1.14,1.14,0,0,0-.14.54.89.89,0,0,0,.32.77A1.3,1.3,0,0,0,130.18,51.81Z"/><path d="M135.94,53.06V45.2h1.52l.13,1.07h.07a5.74,5.74,0,0,1,1.08-.9,2.44,2.44,0,0,1,1.32-.36,2.4,2.4,0,0,1,1.38.36,2.32,2.32,0,0,1,.79,1,6,6,0,0,1,1.17-1,2.41,2.41,0,0,1,1.36-.4,2.12,2.12,0,0,1,1.84.81,3.86,3.86,0,0,1,.59,2.31v4.93h-1.85V48.37A2.39,2.39,0,0,0,145,47a1,1,0,0,0-.9-.4,2.49,2.49,0,0,0-1.65,1v5.49h-1.84V48.37a2.39,2.39,0,0,0-.3-1.38,1.06,1.06,0,0,0-.92-.4,2.49,2.49,0,0,0-1.65,1v5.49Z"/><path d="M152.79,53.25a4.23,4.23,0,0,1-1.52-.28,3.66,3.66,0,0,1-1.23-.81,3.57,3.57,0,0,1-.82-1.29,5.14,5.14,0,0,1,0-3.46,4.22,4.22,0,0,1,.81-1.3,3.58,3.58,0,0,1,1.16-.81,3.22,3.22,0,0,1,1.35-.29,3.4,3.4,0,0,1,1.4.27,2.71,2.71,0,0,1,1,.77,3.4,3.4,0,0,1,.62,1.18,5.5,5.5,0,0,1,.2,1.5,4.27,4.27,0,0,1,0,.52,2.54,2.54,0,0,1-.06.38h-5a2.6,2.6,0,0,0,.75,1.63,2.25,2.25,0,0,0,1.57.56,2.91,2.91,0,0,0,.95-.15,4.16,4.16,0,0,0,.88-.42l.62,1.15a5.81,5.81,0,0,1-1.25.61A4.35,4.35,0,0,1,152.79,53.25Zm-2.09-4.87h3.48a2.36,2.36,0,0,0-.39-1.43,1.4,1.4,0,0,0-1.21-.52,1.74,1.74,0,0,0-1.23.5A2.31,2.31,0,0,0,150.7,48.38Z"/><rect class="cls-3" x="83.63" y="61.65" width="320" height="38" rx="4"/><path d="M88.17,136a5.45,5.45,0,0,1-2-.4,5.36,5.36,0,0,1-1.74-1.14l1.09-1.26a4.68,4.68,0,0,0,1.28.85,3.43,3.43,0,0,0,1.44.33,2.12,2.12,0,0,0,1.36-.37,1.17,1.17,0,0,0,.46-1,1.15,1.15,0,0,0-.12-.55,1.23,1.23,0,0,0-.33-.39,4,4,0,0,0-.51-.31c-.2-.1-.42-.19-.65-.29L87,130.88a5,5,0,0,1-.76-.4,3.42,3.42,0,0,1-.68-.58,2.58,2.58,0,0,1-.49-.78,2.74,2.74,0,0,1-.18-1,2.56,2.56,0,0,1,.26-1.16,3,3,0,0,1,.73-.93,3.35,3.35,0,0,1,1.11-.63,4.27,4.27,0,0,1,1.42-.22,4.51,4.51,0,0,1,1.76.36,4.45,4.45,0,0,1,1.45,1l-.94,1.18a4.09,4.09,0,0,0-1.06-.65,3,3,0,0,0-1.21-.24,2,2,0,0,0-1.2.32,1.06,1.06,0,0,0-.45.91,1,1,0,0,0,.13.52,1.66,1.66,0,0,0,.37.38,3.45,3.45,0,0,0,.54.3c.2.1.41.18.62.27l1.43.59a4.77,4.77,0,0,1,.84.45,3.19,3.19,0,0,1,.67.59,2.47,2.47,0,0,1,.44.78,3.06,3.06,0,0,1-.1,2.21,3,3,0,0,1-.74,1,3.8,3.8,0,0,1-1.19.67A4.74,4.74,0,0,1,88.17,136Z"/><path d="M96,136a2.1,2.1,0,0,1-1.84-.81,3.9,3.9,0,0,1-.58-2.31V128h1.84v4.69a2.42,2.42,0,0,0,.29,1.37,1.05,1.05,0,0,0,.93.4,1.6,1.6,0,0,0,.9-.25,3.67,3.67,0,0,0,.84-.84V128h1.84v7.86h-1.5l-.15-1.16h0a4.84,4.84,0,0,1-1.12,1A2.69,2.69,0,0,1,96,136Z"/><path d="M102.57,135.81V128h1.52l.13,1.39h.06a3.38,3.38,0,0,1,1-1.18,2.11,2.11,0,0,1,1.21-.4,2,2,0,0,1,.9.16l-.32,1.6a2.4,2.4,0,0,0-.38-.1,2.63,2.63,0,0,0-.43,0,1.72,1.72,0,0,0-1,.36,2.75,2.75,0,0,0-.88,1.26v4.8Z"/><path d="M108.54,135.81V128h1.52l.13,1.06h.06a6,6,0,0,1,1.14-.89,2.79,2.79,0,0,1,1.43-.36,2.09,2.09,0,0,1,1.84.81,3.86,3.86,0,0,1,.58,2.31v4.93H113.4v-4.69a2.48,2.48,0,0,0-.29-1.38,1.06,1.06,0,0,0-.94-.4,1.6,1.6,0,0,0-.9.25,5.12,5.12,0,0,0-.89.73v5.49Z"/><path d="M119.4,136a2.27,2.27,0,0,1-1.68-.64,2.22,2.22,0,0,1-.64-1.67,2.12,2.12,0,0,1,1.1-1.95,5.58,5.58,0,0,1,1.44-.59,13.57,13.57,0,0,1,2.08-.37,3.53,3.53,0,0,0-.08-.58,1.45,1.45,0,0,0-.24-.5,1.24,1.24,0,0,0-.44-.34,1.69,1.69,0,0,0-.68-.12,2.91,2.91,0,0,0-1.12.23,7.77,7.77,0,0,0-1.08.54l-.68-1.23a7.54,7.54,0,0,1,1.48-.72,5,5,0,0,1,1.76-.3,2.71,2.71,0,0,1,2.2.87,3.86,3.86,0,0,1,.72,2.52v4.66H122l-.12-.87h-.07a5.55,5.55,0,0,1-1.13.75A2.74,2.74,0,0,1,119.4,136Zm.59-1.44a1.71,1.71,0,0,0,.87-.23,4.07,4.07,0,0,0,.84-.64v-1.76a8.62,8.62,0,0,0-1.34.26,4.19,4.19,0,0,0-.88.36,1.25,1.25,0,0,0-.48.46,1,1,0,0,0-.14.54.89.89,0,0,0,.32.77A1.3,1.3,0,0,0,120,134.56Z"/><path d="M125.75,135.81V128h1.52l.13,1.07h.06a6.07,6.07,0,0,1,1.08-.9,2.47,2.47,0,0,1,1.32-.36,2.41,2.41,0,0,1,1.39.36,2.32,2.32,0,0,1,.79,1,6,6,0,0,1,1.17-1,2.39,2.39,0,0,1,1.36-.4,2.14,2.14,0,0,1,1.84.81,3.86,3.86,0,0,1,.59,2.31v4.93h-1.86v-4.69a2.4,2.4,0,0,0-.29-1.38,1.05,1.05,0,0,0-.91-.4,2.46,2.46,0,0,0-1.64,1v5.49h-1.84v-4.69a2.39,2.39,0,0,0-.3-1.38,1.06,1.06,0,0,0-.92-.4,2.49,2.49,0,0,0-1.65,1v5.49Z"/><path d="M142.6,136a4.23,4.23,0,0,1-1.52-.28,3.66,3.66,0,0,1-1.23-.81,3.72,3.72,0,0,1-.83-1.29,4.9,4.9,0,0,1-.29-1.73,4.68,4.68,0,0,1,.3-1.73,3.88,3.88,0,0,1,.81-1.3,3.58,3.58,0,0,1,1.16-.81,3.21,3.21,0,0,1,1.34-.29,3.41,3.41,0,0,1,1.41.27,2.71,2.71,0,0,1,1,.77,3.39,3.39,0,0,1,.61,1.18,5.13,5.13,0,0,1,.21,1.5c0,.19,0,.36,0,.52s0,.28-.06.38h-5a2.54,2.54,0,0,0,.74,1.63,2.28,2.28,0,0,0,1.58.56,2.91,2.91,0,0,0,.95-.15,3.87,3.87,0,0,0,.87-.42l.63,1.15a6,6,0,0,1-1.25.61A4.35,4.35,0,0,1,142.6,136Zm-2.1-4.87H144a2.36,2.36,0,0,0-.39-1.43,1.4,1.4,0,0,0-1.21-.52,1.74,1.74,0,0,0-1.23.5A2.37,2.37,0,0,0,140.5,131.13Z"/><rect class="cls-3" x="83.63" y="144.4" width="320" height="38" rx="4"/><path d="M89.5,218.9a5.22,5.22,0,0,1-2-.36,4.19,4.19,0,0,1-1.57-1,4.71,4.71,0,0,1-1-1.69,7.24,7.24,0,0,1,0-4.6,5.19,5.19,0,0,1,1-1.72,4.35,4.35,0,0,1,1.57-1.07,5,5,0,0,1,1.94-.37,4,4,0,0,1,1.9.41,4.67,4.67,0,0,1,1.27.92l-1,1.2a3.77,3.77,0,0,0-.89-.65,2.48,2.48,0,0,0-1.22-.27,3,3,0,0,0-1.28.27,2.7,2.7,0,0,0-1,.75,3.46,3.46,0,0,0-.63,1.19,5.21,5.21,0,0,0-.23,1.59,4.36,4.36,0,0,0,.81,2.8,2.87,2.87,0,0,0,2.39,1,3,3,0,0,0,.85-.12,1.72,1.72,0,0,0,.66-.34v-2.26h-2V213h3.65v4.61a4.27,4.27,0,0,1-1.4.89A5,5,0,0,1,89.5,218.9Z"/><path d="M98.36,218.9a4.23,4.23,0,0,1-1.52-.28,3.66,3.66,0,0,1-1.23-.81,3.72,3.72,0,0,1-.83-1.29,5,5,0,0,1-.29-1.74,4.67,4.67,0,0,1,.3-1.72,3.73,3.73,0,0,1,2-2.12,3.36,3.36,0,0,1,1.34-.28,3.41,3.41,0,0,1,1.41.27,2.61,2.61,0,0,1,1,.77,3.23,3.23,0,0,1,.61,1.18,5.13,5.13,0,0,1,.21,1.5c0,.19,0,.36,0,.52s0,.28-.06.38h-5A2.54,2.54,0,0,0,97,216.9a2.25,2.25,0,0,0,1.58.57,2.91,2.91,0,0,0,1-.15,3.87,3.87,0,0,0,.87-.42l.63,1.15a5.81,5.81,0,0,1-1.25.61A4.35,4.35,0,0,1,98.36,218.9ZM96.26,214h3.49a2.34,2.34,0,0,0-.39-1.43,1.4,1.4,0,0,0-1.21-.52,1.7,1.7,0,0,0-1.23.5A2.37,2.37,0,0,0,96.26,214Z"/><path d="M103.11,218.7v-7.85h1.52l.13,1.05h.06A6.88,6.88,0,0,1,106,211a2.79,2.79,0,0,1,1.43-.36,2.12,2.12,0,0,1,1.84.8,4,4,0,0,1,.58,2.32v4.92H108V214a2.46,2.46,0,0,0-.29-1.38,1.08,1.08,0,0,0-1-.4,1.6,1.6,0,0,0-.9.25,5.53,5.53,0,0,0-.89.73v5.48Z"/><path d="M114.82,218.9a2.89,2.89,0,0,1-2.36-1.08,4.74,4.74,0,0,1-.87-3,5.13,5.13,0,0,1,.28-1.72,4,4,0,0,1,.75-1.3,3.48,3.48,0,0,1,1.06-.82,2.84,2.84,0,0,1,1.24-.28,2.47,2.47,0,0,1,1.14.23,4,4,0,0,1,.92.63l-.06-1.26v-2.85h1.84V218.7h-1.52l-.13-.84h-.06a4.42,4.42,0,0,1-1,.73A2.6,2.6,0,0,1,114.82,218.9Zm.45-1.52a2.21,2.21,0,0,0,1.65-.88v-3.67a2.84,2.84,0,0,0-.81-.51,2.16,2.16,0,0,0-.79-.14,1.61,1.61,0,0,0-1.3.67,3.07,3.07,0,0,0-.52,1.92,3.46,3.46,0,0,0,.45,1.94A1.53,1.53,0,0,0,115.27,217.38Z"/><path d="M124.46,218.9a4.19,4.19,0,0,1-1.52-.28,3.8,3.8,0,0,1-1.24-.81,3.7,3.7,0,0,1-.82-1.29,4.74,4.74,0,0,1-.3-1.74,4.66,4.66,0,0,1,.31-1.72,3.78,3.78,0,0,1,.81-1.3,3.65,3.65,0,0,1,1.16-.82,3.29,3.29,0,0,1,1.34-.28,3.48,3.48,0,0,1,1.41.27,2.65,2.65,0,0,1,1,.77,3.24,3.24,0,0,1,.62,1.18,5.13,5.13,0,0,1,.21,1.5,4.17,4.17,0,0,1,0,.52,2.73,2.73,0,0,1,0,.38h-5a2.49,2.49,0,0,0,.74,1.62,2.24,2.24,0,0,0,1.58.57,3,3,0,0,0,1-.15,4.33,4.33,0,0,0,.87-.42l.62,1.15a6,6,0,0,1-1.24.61A4.35,4.35,0,0,1,124.46,218.9Zm-2.1-4.87h3.49a2.34,2.34,0,0,0-.39-1.43,1.43,1.43,0,0,0-1.21-.52,1.7,1.7,0,0,0-1.23.5A2.32,2.32,0,0,0,122.36,214Z"/><path d="M129.21,218.7v-7.85h1.52l.13,1.39h.06a3.38,3.38,0,0,1,1-1.18,2.11,2.11,0,0,1,1.21-.4,2,2,0,0,1,.9.16l-.32,1.6a2.4,2.4,0,0,0-.38-.1,2.76,2.76,0,0,0-.44,0,1.69,1.69,0,0,0-1,.36,2.77,2.77,0,0,0-.88,1.25v4.8Z"/><rect class="cls-3" x="83.63" y="227.3" width="320" height="38" rx="4"/><path d="M100.71,251.7V241.2h3a7.88,7.88,0,0,1,1.6.16,3.42,3.42,0,0,1,1.24.53,2.26,2.26,0,0,1,.8,1,3.18,3.18,0,0,1,.29,1.45,3.33,3.33,0,0,1-.28,1.44,2.62,2.62,0,0,1-.79,1,3.4,3.4,0,0,1-1.22.6,6,6,0,0,1-1.58.2H102v4.16Zm1.33-5.25h1.57a3.26,3.26,0,0,0,2-.52,2,2,0,0,0,.66-1.64,1.72,1.72,0,0,0-.69-1.57,3.89,3.89,0,0,0-2.07-.44H102Z"/><path d="M111,251.89a1.23,1.23,0,0,1-1.07-.45,2.24,2.24,0,0,1-.32-1.31v-9.82H111v9.92a.67.67,0,0,0,.12.45.34.34,0,0,0,.25.13h.12l.17,0,.18,1a1.26,1.26,0,0,1-.31.09A2.81,2.81,0,0,1,111,251.89Z"/><path d="M116.87,251.89a3.72,3.72,0,0,1-1.46-.28,3.3,3.3,0,0,1-1.18-.8,3.72,3.72,0,0,1-.8-1.27,4.79,4.79,0,0,1-.28-1.71,4.67,4.67,0,0,1,.29-1.72,4,4,0,0,1,.79-1.29,3.38,3.38,0,0,1,1.11-.81,3.22,3.22,0,0,1,1.29-.28A3.27,3.27,0,0,1,118,244a2.48,2.48,0,0,1,1,.74,3.4,3.4,0,0,1,.6,1.15,5,5,0,0,1,.21,1.5c0,.14,0,.28,0,.41a2.66,2.66,0,0,1,0,.34h-5.25a3,3,0,0,0,.78,2,2.41,2.41,0,0,0,1.81.73,3.15,3.15,0,0,0,1-.17,4.68,4.68,0,0,0,.9-.44l.46.86a6.26,6.26,0,0,1-1.13.56A4,4,0,0,1,116.87,251.89Zm-2.44-4.7h4.16a2.76,2.76,0,0,0-.51-1.8,1.72,1.72,0,0,0-1.41-.62,2.15,2.15,0,0,0-.8.16,2.37,2.37,0,0,0-.68.47,2.71,2.71,0,0,0-.5.76A3.54,3.54,0,0,0,114.43,247.19Z"/><path d="M123.23,251.89a2.37,2.37,0,0,1-1.63-.57,2.09,2.09,0,0,1-.65-1.63,2.15,2.15,0,0,1,1.14-2,9.24,9.24,0,0,1,3.63-1,3.51,3.51,0,0,0-.07-.72,1.8,1.8,0,0,0-.25-.62,1.31,1.31,0,0,0-.49-.44,1.65,1.65,0,0,0-.79-.17,3.12,3.12,0,0,0-1.26.26,6.21,6.21,0,0,0-1.06.57l-.51-.91a9.07,9.07,0,0,1,1.33-.68,4.41,4.41,0,0,1,1.73-.33,2.38,2.38,0,0,1,2.06.88,3.8,3.8,0,0,1,.64,2.32v4.77H126l-.11-.93h0a6.43,6.43,0,0,1-1.2.8A3,3,0,0,1,123.23,251.89Zm.38-1a2.23,2.23,0,0,0,1.06-.27,5,5,0,0,0,1-.77v-2.16a11.93,11.93,0,0,0-1.64.3,4.41,4.41,0,0,0-1.07.42,1.58,1.58,0,0,0-.59.55,1.25,1.25,0,0,0-.19.68,1.11,1.11,0,0,0,.4,1A1.67,1.67,0,0,0,123.61,250.84Z"/><path d="M131.53,251.89a4.28,4.28,0,0,1-1.59-.3,5,5,0,0,1-1.31-.77l.66-.88a5,5,0,0,0,1.05.67,2.83,2.83,0,0,0,1.24.26,1.68,1.68,0,0,0,1.15-.35,1.17,1.17,0,0,0,.38-.87.9.9,0,0,0-.16-.53,1.86,1.86,0,0,0-.4-.39,3,3,0,0,0-.57-.29l-.64-.26a8.43,8.43,0,0,1-.83-.33,3.11,3.11,0,0,1-.75-.45,2,2,0,0,1-.53-.61,1.65,1.65,0,0,1-.21-.85,2.12,2.12,0,0,1,.18-.87,2,2,0,0,1,.53-.71,2.6,2.6,0,0,1,.84-.46A3.7,3.7,0,0,1,133,244a4.17,4.17,0,0,1,1.06.62l-.62.83a4.41,4.41,0,0,0-.83-.49,2.27,2.27,0,0,0-1-.19,1.47,1.47,0,0,0-1.07.33,1.09,1.09,0,0,0-.35.79.75.75,0,0,0,.15.47,1.29,1.29,0,0,0,.38.35,3.13,3.13,0,0,0,.55.27l.65.25.84.34a2.85,2.85,0,0,1,.76.44,2,2,0,0,1,.55.65,1.77,1.77,0,0,1,.22.92,2.11,2.11,0,0,1-.19.9,2,2,0,0,1-.54.73,2.46,2.46,0,0,1-.9.51A3.78,3.78,0,0,1,131.53,251.89Z"/><path d="M139.35,251.89a3.72,3.72,0,0,1-1.46-.28,3.3,3.3,0,0,1-1.18-.8,3.58,3.58,0,0,1-.8-1.27,4.79,4.79,0,0,1-.28-1.71,4.67,4.67,0,0,1,.29-1.72,4,4,0,0,1,.79-1.29,3.38,3.38,0,0,1,1.11-.81,3.22,3.22,0,0,1,1.29-.28,3.27,3.27,0,0,1,1.32.26,2.48,2.48,0,0,1,1,.74,3.4,3.4,0,0,1,.6,1.15,5,5,0,0,1,.21,1.5c0,.14,0,.28,0,.41a2.66,2.66,0,0,1,0,.34h-5.25a3,3,0,0,0,.78,2,2.41,2.41,0,0,0,1.81.73,3.15,3.15,0,0,0,1-.17,4.68,4.68,0,0,0,.9-.44l.46.86a6.26,6.26,0,0,1-1.13.56A4,4,0,0,1,139.35,251.89Zm-2.45-4.7h4.16a2.76,2.76,0,0,0-.5-1.8,1.72,1.72,0,0,0-1.41-.62,2.15,2.15,0,0,0-.8.16,2.37,2.37,0,0,0-.68.47,2.71,2.71,0,0,0-.5.76A3.88,3.88,0,0,0,136.9,247.19Z"/><path d="M149.37,251.89a4.28,4.28,0,0,1-1.59-.3,5,5,0,0,1-1.31-.77l.66-.88a5,5,0,0,0,1.05.67,2.83,2.83,0,0,0,1.24.26,1.68,1.68,0,0,0,1.15-.35,1.17,1.17,0,0,0,.38-.87.9.9,0,0,0-.16-.53,1.86,1.86,0,0,0-.4-.39,3,3,0,0,0-.57-.29l-.64-.26a8.43,8.43,0,0,1-.83-.33,3.11,3.11,0,0,1-.75-.45,2.24,2.24,0,0,1-.54-.61,1.75,1.75,0,0,1-.2-.85,2.12,2.12,0,0,1,.18-.87,2,2,0,0,1,.53-.71,2.6,2.6,0,0,1,.84-.46,3.7,3.7,0,0,1,2.47.09,4.17,4.17,0,0,1,1.06.62l-.62.83a4.41,4.41,0,0,0-.83-.49,2.27,2.27,0,0,0-1-.19,1.47,1.47,0,0,0-1.07.33,1.09,1.09,0,0,0-.35.79.75.75,0,0,0,.15.47,1.29,1.29,0,0,0,.38.35,3.13,3.13,0,0,0,.55.27l.65.25.84.34a2.85,2.85,0,0,1,.76.44,2,2,0,0,1,.55.65,1.77,1.77,0,0,1,.22.92,2.11,2.11,0,0,1-.19.9,2,2,0,0,1-.54.73,2.46,2.46,0,0,1-.9.51A3.78,3.78,0,0,1,149.37,251.89Z"/><path d="M157.19,251.89a3.72,3.72,0,0,1-1.46-.28,3.3,3.3,0,0,1-1.18-.8,3.58,3.58,0,0,1-.8-1.27,4.79,4.79,0,0,1-.28-1.71,4.67,4.67,0,0,1,.29-1.72,4,4,0,0,1,.79-1.29,3.38,3.38,0,0,1,1.11-.81,3.22,3.22,0,0,1,1.29-.28,3.27,3.27,0,0,1,1.32.26,2.48,2.48,0,0,1,1,.74,3.4,3.4,0,0,1,.6,1.15,5,5,0,0,1,.21,1.5c0,.14,0,.28,0,.41a2.66,2.66,0,0,1,0,.34h-5.25a3,3,0,0,0,.78,2,2.41,2.41,0,0,0,1.81.73,3.15,3.15,0,0,0,1-.17,4.68,4.68,0,0,0,.9-.44l.46.86a6.26,6.26,0,0,1-1.13.56A4,4,0,0,1,157.19,251.89Zm-2.45-4.7h4.16a2.76,2.76,0,0,0-.5-1.8,1.74,1.74,0,0,0-1.42-.62,2.14,2.14,0,0,0-.79.16,2.37,2.37,0,0,0-.68.47,2.71,2.71,0,0,0-.5.76A3.88,3.88,0,0,0,154.74,247.19Z"/><path d="M163.37,251.89a1.22,1.22,0,0,1-1.07-.45,2.17,2.17,0,0,1-.32-1.31v-9.82h1.31v9.92a.74.74,0,0,0,.11.45.36.36,0,0,0,.26.13h.12l.16,0,.18,1a1.32,1.32,0,0,1-.3.09A2.81,2.81,0,0,1,163.37,251.89Z"/><path d="M169.21,251.89a3.81,3.81,0,0,1-1.47-.28,3.38,3.38,0,0,1-1.18-.8,3.7,3.7,0,0,1-.79-1.27,4.79,4.79,0,0,1-.29-1.71,4.67,4.67,0,0,1,.3-1.72,3.77,3.77,0,0,1,.78-1.29,3.6,3.6,0,0,1,1.11-.81,3.31,3.31,0,0,1,2.62,0,2.45,2.45,0,0,1,1,.74,3.08,3.08,0,0,1,.6,1.15,5,5,0,0,1,.21,1.5c0,.14,0,.28,0,.41a1.13,1.13,0,0,1,0,.34h-5.24a3,3,0,0,0,.77,2,2.43,2.43,0,0,0,1.82.73,3.09,3.09,0,0,0,1-.17,4.17,4.17,0,0,0,.9-.44l.47.86a6,6,0,0,1-1.14.56A3.91,3.91,0,0,1,169.21,251.89Zm-2.45-4.7h4.16a2.82,2.82,0,0,0-.5-1.8,1.74,1.74,0,0,0-1.42-.62,2.1,2.1,0,0,0-.79.16,2.24,2.24,0,0,0-.68.47,3,3,0,0,0-.51.76A3.54,3.54,0,0,0,166.76,247.19Z"/><path d="M177.06,251.89a3.84,3.84,0,0,1-1.44-.27,3.28,3.28,0,0,1-1.16-.79,3.69,3.69,0,0,1-.76-1.28,4.89,4.89,0,0,1-.28-1.72,4.74,4.74,0,0,1,.3-1.74,3.75,3.75,0,0,1,.82-1.28,3.21,3.21,0,0,1,1.19-.8,3.65,3.65,0,0,1,1.43-.28,2.79,2.79,0,0,1,1.31.28,4.34,4.34,0,0,1,1,.64l-.67.86a3.39,3.39,0,0,0-.71-.5,1.92,1.92,0,0,0-.84-.19,2.17,2.17,0,0,0-1,.22,2.26,2.26,0,0,0-.77.61,3.12,3.12,0,0,0-.5,1,3.86,3.86,0,0,0-.18,1.22,3.91,3.91,0,0,0,.17,1.22,2.94,2.94,0,0,0,.49.93,2.19,2.19,0,0,0,1.74.83,2.14,2.14,0,0,0,1-.24A4.2,4.2,0,0,0,179,250l.58.88a4.49,4.49,0,0,1-1.17.73A3.45,3.45,0,0,1,177.06,251.89Z"/><path d="M183.58,251.89a2.5,2.5,0,0,1-1.05-.19,1.83,1.83,0,0,1-.69-.53,2,2,0,0,1-.38-.81,4.93,4.93,0,0,1-.11-1.06V245H180.2v-1l1.22-.08.16-2.18h1.1v2.18h2.1V245h-2.1v4.32a2,2,0,0,0,.26,1.11,1.06,1.06,0,0,0,.94.39,1.86,1.86,0,0,0,.45-.06,3.58,3.58,0,0,0,.43-.15l.26,1c-.22.07-.45.14-.7.2A3.81,3.81,0,0,1,183.58,251.89Z"/><path d="M85.11,302.21V291.74h2.8A4.62,4.62,0,0,1,93,296.93a7,7,0,0,1-.34,2.29,4.28,4.28,0,0,1-1,1.65,4,4,0,0,1-1.56,1,6,6,0,0,1-2.09.34Zm1.86-1.5h.81a3.21,3.21,0,0,0,2.46-.92,4.11,4.11,0,0,0,.86-2.86,3.87,3.87,0,0,0-.87-2.8,3.25,3.25,0,0,0-2.45-.88H87Z"/><path d="M96.86,302.4a2.27,2.27,0,0,1-1.68-.63,2.23,2.23,0,0,1-.64-1.67,2.11,2.11,0,0,1,1.09-2,5.38,5.38,0,0,1,1.44-.6,12.67,12.67,0,0,1,2.09-.36,2.8,2.8,0,0,0-.09-.59,1.32,1.32,0,0,0-.24-.49,1.07,1.07,0,0,0-.44-.34,1.64,1.64,0,0,0-.67-.12,3,3,0,0,0-1.13.22,7.33,7.33,0,0,0-1.08.55l-.67-1.23a7.73,7.73,0,0,1,1.47-.72,4.86,4.86,0,0,1,1.76-.31,2.7,2.7,0,0,1,2.2.87,3.81,3.81,0,0,1,.73,2.52v4.66H99.48l-.13-.86h-.06a6,6,0,0,1-1.13.75A2.86,2.86,0,0,1,96.86,302.4Zm.59-1.44a1.71,1.71,0,0,0,.87-.22,5.2,5.2,0,0,0,.84-.64v-1.76a8.73,8.73,0,0,0-1.34.25,4,4,0,0,0-.88.36,1.26,1.26,0,0,0-.48.46,1,1,0,0,0-.15.54.9.9,0,0,0,.32.77A1.35,1.35,0,0,0,97.45,301Z"/><path d="M105.72,302.4a2.86,2.86,0,0,1-1.16-.21,1.94,1.94,0,0,1-.77-.58,2.51,2.51,0,0,1-.43-.9,4.57,4.57,0,0,1-.13-1.16v-3.74H102.1v-1.38l1.22-.08.22-2.14h1.54v2.14h2v1.46h-2v3.74q0,1.38,1.11,1.38a2.18,2.18,0,0,0,.42-.05,1.63,1.63,0,0,0,.39-.13l.32,1.36a5.43,5.43,0,0,1-.73.2A4,4,0,0,1,105.72,302.4Z"/><path d="M111.83,302.4a4,4,0,0,1-1.52-.28,3.66,3.66,0,0,1-1.23-.81,3.61,3.61,0,0,1-.82-1.28,4.74,4.74,0,0,1-.3-1.74,4.52,4.52,0,0,1,.31-1.73,4,4,0,0,1,.8-1.29,3.56,3.56,0,0,1,1.16-.82,3.51,3.51,0,0,1,2.75,0,2.71,2.71,0,0,1,1,.77,3.45,3.45,0,0,1,.62,1.19,5.09,5.09,0,0,1,.2,1.5,4.18,4.18,0,0,1,0,.51,2.9,2.9,0,0,1,0,.39h-5a2.57,2.57,0,0,0,.75,1.62,2.21,2.21,0,0,0,1.57.57,2.67,2.67,0,0,0,1-.16,4.16,4.16,0,0,0,.88-.42l.62,1.15a5.38,5.38,0,0,1-1.25.61A4.35,4.35,0,0,1,111.83,302.4Zm-2.09-4.86h3.49a2.32,2.32,0,0,0-.4-1.43,1.4,1.4,0,0,0-1.2-.53,1.78,1.78,0,0,0-1.24.5A2.34,2.34,0,0,0,109.74,297.54Z"/><path d="M123,302.4a3.76,3.76,0,0,1-1.41-.27,3.62,3.62,0,0,1-1.19-.8,3.66,3.66,0,0,1-.82-1.3,5,5,0,0,1,0-3.48,3.66,3.66,0,0,1,.82-1.3,3.81,3.81,0,0,1,1.19-.81,3.58,3.58,0,0,1,1.41-.28,3.67,3.67,0,0,1,1.42.28,3.59,3.59,0,0,1,1.19.81,3.8,3.8,0,0,1,.82,1.3,5,5,0,0,1,0,3.48,3.8,3.8,0,0,1-.82,1.3,3.42,3.42,0,0,1-1.19.8A3.85,3.85,0,0,1,123,302.4Zm0-1.5a1.57,1.57,0,0,0,1.36-.71,3.88,3.88,0,0,0,0-3.81,1.56,1.56,0,0,0-1.36-.72,1.53,1.53,0,0,0-1.35.72,3.95,3.95,0,0,0,0,3.81A1.54,1.54,0,0,0,123,300.9Z"/><path d="M128.82,302.21v-6.4h-1v-1.38l1-.08v-.81a4.06,4.06,0,0,1,.15-1.13,2.26,2.26,0,0,1,.46-.9,2.18,2.18,0,0,1,.81-.58,3,3,0,0,1,1.19-.21,4,4,0,0,1,.79.08,3.66,3.66,0,0,1,.65.19l-.35,1.38a2.09,2.09,0,0,0-.86-.19c-.67,0-1,.44-1,1.32v.85h1.54v1.46h-1.54v6.4Z"/><path d="M140.58,302.4a2.6,2.6,0,0,1-1.09-.26,3.89,3.89,0,0,1-1.05-.76h-.05l-.16.83h-1.45v-11.3h1.84v2.91l-.05,1.32a4.48,4.48,0,0,1,1.08-.71,2.79,2.79,0,0,1,1.19-.27,2.9,2.9,0,0,1,1.31.28,2.81,2.81,0,0,1,1,.8,3.89,3.89,0,0,1,.61,1.26,6.43,6.43,0,0,1,.2,1.65,5.22,5.22,0,0,1-.28,1.79,4,4,0,0,1-.74,1.34,3.26,3.26,0,0,1-1.07.83A2.84,2.84,0,0,1,140.58,302.4Zm-.38-1.52a1.61,1.61,0,0,0,1.31-.68,3.27,3.27,0,0,0,.53-2,3.49,3.49,0,0,0-.4-1.84,1.41,1.41,0,0,0-1.3-.66,2.56,2.56,0,0,0-1.72.88v3.67a2.63,2.63,0,0,0,.82.51A2.46,2.46,0,0,0,140.2,300.88Z"/><path d="M146.71,293a1.16,1.16,0,0,1-.81-.29.93.93,0,0,1-.32-.75,1,1,0,0,1,.32-.76,1.13,1.13,0,0,1,.81-.3,1.17,1.17,0,0,1,.82.3,1,1,0,0,1,.32.76,1,1,0,0,1-.32.75A1.21,1.21,0,0,1,146.71,293Zm-.93,9.23v-7.86h1.84v7.86Z"/><path d="M150,302.21v-7.86h1.52l.12,1.39h.07a3.25,3.25,0,0,1,1-1.17,2.12,2.12,0,0,1,1.21-.41,2.07,2.07,0,0,1,.9.16l-.32,1.6-.39-.1a2.54,2.54,0,0,0-.43,0,1.69,1.69,0,0,0-1,.36,2.68,2.68,0,0,0-.88,1.26v4.8Z"/><path d="M158.71,302.4a2.86,2.86,0,0,1-1.16-.21,1.94,1.94,0,0,1-.77-.58,2.51,2.51,0,0,1-.43-.9,4.57,4.57,0,0,1-.13-1.16v-3.74H155.1v-1.38l1.21-.08.23-2.14h1.53v2.14h2v1.46h-2v3.74q0,1.38,1.11,1.38a2.09,2.09,0,0,0,.42-.05,1.63,1.63,0,0,0,.39-.13l.32,1.36a5,5,0,0,1-.73.2A4,4,0,0,1,158.71,302.4Z"/><path d="M161.72,302.21v-11.3h1.84v2.91l-.06,1.53a6.4,6.4,0,0,1,1.09-.83,2.7,2.7,0,0,1,1.42-.36,2.11,2.11,0,0,1,1.84.81,4,4,0,0,1,.57,2.31v4.93h-1.84v-4.69a2.44,2.44,0,0,0-.28-1.37,1.1,1.1,0,0,0-1-.41,1.69,1.69,0,0,0-.9.25,6.13,6.13,0,0,0-.89.73v5.49Z"/><path class="cls-4" d="M104.43,335.59V325.1h2.62a4.88,4.88,0,0,1,3.7,1.34A5.44,5.44,0,0,1,112,330.3a7.32,7.32,0,0,1-.32,2.23,4.42,4.42,0,0,1-.94,1.66,4,4,0,0,1-1.54,1,5.71,5.71,0,0,1-2.1.36Zm1.32-1.08H107a3.37,3.37,0,0,0,2.76-1.11,4.66,4.66,0,0,0,.92-3.1,4.5,4.5,0,0,0-.92-3.06,3.47,3.47,0,0,0-2.76-1.05h-1.2Z"/><path class="cls-4" d="M114.27,335.59V325.1h2.62a4.88,4.88,0,0,1,3.7,1.34,5.44,5.44,0,0,1,1.26,3.86,7.32,7.32,0,0,1-.32,2.23,4.42,4.42,0,0,1-.94,1.66,4,4,0,0,1-1.54,1,5.71,5.71,0,0,1-2.1.36Zm1.32-1.08h1.2a3.37,3.37,0,0,0,2.76-1.11,4.66,4.66,0,0,0,.92-3.1,4.5,4.5,0,0,0-.92-3.06,3.47,3.47,0,0,0-2.76-1.05h-1.2Z"/><path class="cls-4" d="M180.46,335.59V325.1h1.6l2,5.6c.13.36.26.73.38,1.09s.25.74.37,1.1h.07c.13-.36.25-.73.36-1.1s.23-.73.36-1.09l2-5.6h1.62v10.49H188v-5.77c0-.47,0-1,.06-1.55s.08-1.09.12-1.56h-.07l-.83,2.39-2,5.44h-.88l-2-5.44-.83-2.39h-.06c0,.47.06,1,.1,1.56s.06,1.08.06,1.55v5.77Z"/><path class="cls-4" d="M192.09,335.59V325.1h1.6l2,5.6c.13.36.26.73.38,1.09s.25.74.38,1.1h.06c.13-.36.25-.73.36-1.1s.23-.73.36-1.09l2-5.6h1.62v10.49h-1.25v-5.77c0-.47,0-1,.07-1.55s.08-1.09.11-1.56h-.07l-.83,2.39-2,5.44H196l-2-5.44-.83-2.39h-.06c0,.47.06,1,.1,1.56s.06,1.08.06,1.55v5.77Z"/><path class="cls-4" d="M256.09,335.59v-4.06l-3.15-6.43h1.43l1.36,3c.17.38.33.76.49,1.13s.33.76.51,1.16h.07c.18-.4.36-.78.54-1.16s.35-.75.51-1.13l1.35-3h1.39l-3.15,6.43v4.06Z"/><path class="cls-4" d="M263.71,335.59v-4.06l-3.15-6.43H262l1.36,3,.5,1.13c.16.38.33.76.51,1.16h.06l.55-1.16c.18-.37.35-.75.51-1.13l1.34-3h1.4l-3.16,6.43v4.06Z"/><path class="cls-4" d="M271.32,335.59v-4.06l-3.15-6.43h1.43l1.36,3c.17.38.33.76.49,1.13s.33.76.52,1.16H272c.18-.4.36-.78.54-1.16s.36-.75.52-1.13l1.34-3h1.39l-3.15,6.43v4.06Z"/><path class="cls-4" d="M278.94,335.59v-4.06l-3.15-6.43h1.42l1.36,3,.5,1.13c.16.38.33.76.51,1.16h.07c.18-.4.36-.78.54-1.16s.35-.75.51-1.13l1.35-3h1.39l-3.15,6.43v4.06Z"/><rect class="cls-3" x="83.63" y="310.8" width="60" height="38" rx="4"/><rect class="cls-3" x="160.91" y="310.8" width="60" height="38" rx="4"/><rect class="cls-3" x="238.01" y="310.8" width="60" height="38" rx="4"/><path d="M380.54,251.91l-6.68-6.68a.82.82,0,0,1,0-1.16l.78-.78a.82.82,0,0,1,1.16,0l5.32,5.29,5.31-5.29a.83.83,0,0,1,1.17,0l.78.78a.82.82,0,0,1,0,1.16l-6.68,6.68a.82.82,0,0,1-1.16,0Z"/></svg>