<?xml version="1.0" encoding="UTF-8"?>
<svg viewBox="0 0 500 150" version="1.1" xmlns="http://www.w3.org/2000/svg" xmlns:xlink="http://www.w3.org/1999/xlink">
    <!-- Generator: Sketch 64 (93537) - https://sketch.com -->
    <title>Artboard</title>
    <desc>Created with Sketch.</desc>
    <g id="Artboard" stroke="none" stroke-width="1" fill="none" fill-rule="evenodd">
        <rect id="Rectangle" fill="#00916A" fill-rule="nonzero" x="0" y="0" width="6" height="150"></rect>
        <rect id="Rectangle" fill="#F5F5F5" fill-rule="nonzero" x="6" y="0" width="495" height="150"></rect>
        <path d="M33.5,12 C25.0095541,12 18,18.910828 18,27.5 C18,36.089172 24.910828,43 33.5,43 C42.089172,43 49,36.089172 49,27.5 C49,18.910828 41.9904459,12 33.5,12 Z M30.4394904,35.2006369 L22.7388535,27.5 L24.910828,25.3280255 L30.4394904,30.8566879 L42.089172,19.1082803 L44.2611465,21.2802548 L30.4394904,35.2006369 Z" id="Shape" fill="#00916A" fill-rule="nonzero"></path>
        <g id="Group" transform="translate(172.000000, 51.000000)">
            <rect id="Rectangle" fill="#EE020A" x="0" y="0" width="164" height="48" rx="3"></rect>
            <path d="M24.856,28 L25.672,25.168 L29.192,25.168 L30.008,28 L31.96,28 L28.552,17.536 L26.376,17.536 L22.968,28 L24.856,28 Z M28.776,23.712 L26.104,23.712 L26.472,22.432 C26.6426667,21.8773333 26.8026667,21.3093333 26.952,20.728 C27.1013333,20.1466667 27.2506667,19.5626667 27.4,18.976 L27.4,18.976 L27.464,18.976 C27.6133333,19.552 27.7653333,20.1333333 27.92,20.72 C28.0746667,21.3066667 28.2373333,21.8773333 28.408,22.432 L28.408,22.432 L28.776,23.712 Z M35.848,28.192 C36.2746667,28.192 36.68,28.0906667 37.064,27.888 C37.448,27.6853333 37.784,27.44 38.072,27.152 L38.072,27.152 L38.136,27.152 L38.264,28 L39.784,28 L39.784,16.704 L37.944,16.704 L37.944,19.552 L38.008,20.816 C37.6986667,20.5493333 37.3893333,20.3386667 37.08,20.184 C36.7706667,20.0293333 36.392,19.952 35.944,19.952 C35.5173333,19.952 35.104,20.048 34.704,20.24 C34.304,20.432 33.9493333,20.704 33.64,21.056 C33.3306667,21.408 33.0826667,21.84 32.896,22.352 C32.7093333,22.864 32.616,23.44 32.616,24.08 C32.616,25.3813333 32.9066667,26.392 33.488,27.112 C34.0693333,27.832 34.856,28.192 35.848,28.192 Z M36.296,26.672 C35.72,26.672 35.28,26.4506667 34.976,26.008 C34.672,25.5653333 34.52,24.9173333 34.52,24.064 C34.52,23.232 34.696,22.592 35.048,22.144 C35.4,21.696 35.832,21.472 36.344,21.472 C36.6106667,21.472 36.8746667,21.52 37.136,21.616 C37.3973333,21.712 37.6666667,21.8826667 37.944,22.128 L37.944,22.128 L37.944,25.792 C37.432,26.3786667 36.8826667,26.672 36.296,26.672 Z M44.872,28.192 C45.2986667,28.192 45.704,28.0906667 46.088,27.888 C46.472,27.6853333 46.808,27.44 47.096,27.152 L47.096,27.152 L47.16,27.152 L47.288,28 L48.808,28 L48.808,16.704 L46.968,16.704 L46.968,19.552 L47.032,20.816 C46.7226667,20.5493333 46.4133333,20.3386667 46.104,20.184 C45.7946667,20.0293333 45.416,19.952 44.968,19.952 C44.5413333,19.952 44.128,20.048 43.728,20.24 C43.328,20.432 42.9733333,20.704 42.664,21.056 C42.3546667,21.408 42.1066667,21.84 41.92,22.352 C41.7333333,22.864 41.64,23.44 41.64,24.08 C41.64,25.3813333 41.9306667,26.392 42.512,27.112 C43.0933333,27.832 43.88,28.192 44.872,28.192 Z M45.32,26.672 C44.744,26.672 44.304,26.4506667 44,26.008 C43.696,25.5653333 43.544,24.9173333 43.544,24.064 C43.544,23.232 43.72,22.592 44.072,22.144 C44.424,21.696 44.856,21.472 45.368,21.472 C45.6346667,21.472 45.8986667,21.52 46.16,21.616 C46.4213333,21.712 46.6906667,21.8826667 46.968,22.128 L46.968,22.128 L46.968,25.792 C46.456,26.3786667 45.9066667,26.672 45.32,26.672 Z M56.248,28.192 C56.7173333,28.192 57.152,28.0906667 57.552,27.888 C57.952,27.6853333 58.328,27.4346667 58.68,27.136 L58.68,27.136 L58.744,27.136 L58.872,28 L60.392,28 L60.392,23.344 C60.392,22.2453333 60.1493333,21.4053333 59.664,20.824 C59.1786667,20.2426667 58.4453333,19.952 57.464,19.952 C56.8346667,19.952 56.248,20.0533333 55.704,20.256 C55.16,20.4586667 54.6693333,20.6986667 54.232,20.976 L54.232,20.976 L54.904,22.208 C55.256,21.9946667 55.616,21.8133333 55.984,21.664 C56.352,21.5146667 56.728,21.44 57.112,21.44 C57.3786667,21.44 57.6026667,21.48 57.784,21.56 C57.9653333,21.64 58.112,21.752 58.224,21.896 C58.336,22.04 58.416,22.2053333 58.464,22.392 C58.512,22.5786667 58.5413333,22.7733333 58.552,22.976 C57.7413333,23.0613333 57.0453333,23.184 56.464,23.344 C55.8826667,23.504 55.4026667,23.7013333 55.024,23.936 C54.6453333,24.1706667 54.368,24.4506667 54.192,24.776 C54.016,25.1013333 53.928,25.472 53.928,25.888 C53.928,26.5813333 54.1413333,27.1386667 54.568,27.56 C54.9946667,27.9813333 55.5546667,28.192 56.248,28.192 Z M56.84,26.752 C56.5093333,26.752 56.2373333,26.672 56.024,26.512 C55.8106667,26.352 55.704,26.096 55.704,25.744 C55.704,25.552 55.752,25.3706667 55.848,25.2 C55.944,25.0293333 56.104,24.8773333 56.328,24.744 C56.552,24.6106667 56.8453333,24.4906667 57.208,24.384 C57.5706667,24.2773333 58.0186667,24.192 58.552,24.128 L58.552,24.128 L58.552,25.888 C58.2533333,26.1653333 57.9733333,26.3786667 57.712,26.528 C57.4506667,26.6773333 57.16,26.752 56.84,26.752 Z M64.44,28 L64.44,22.512 C64.7706667,22.192 65.0666667,21.9493333 65.328,21.784 C65.5893333,21.6186667 65.8906667,21.536 66.232,21.536 C66.6693333,21.536 66.984,21.6693333 67.176,21.936 C67.368,22.2026667 67.464,22.6613333 67.464,23.312 L67.464,23.312 L67.464,28 L69.304,28 L69.304,23.072 C69.304,22.0693333 69.112,21.2986667 68.728,20.76 C68.344,20.2213333 67.7306667,19.952 66.888,19.952 C66.344,19.952 65.8666667,20.0746667 65.456,20.32 C65.0453333,20.5653333 64.664,20.8586667 64.312,21.2 L64.312,21.2 L64.248,21.2 L64.12,20.144 L62.6,20.144 L62.6,28 L64.44,28 Z M74.776,28.192 C75.2666667,28.192 75.7386667,28.1013333 76.192,27.92 C76.6453333,27.7386667 77.0426667,27.472 77.384,27.12 C77.7253333,26.768 78,26.336 78.208,25.824 C78.416,25.312 78.52,24.7306667 78.52,24.08 C78.52,23.4293333 78.416,22.848 78.208,22.336 C78,21.824 77.7253333,21.392 77.384,21.04 C77.0426667,20.688 76.6453333,20.4186667 76.192,20.232 C75.7386667,20.0453333 75.2666667,19.952 74.776,19.952 C74.2853333,19.952 73.816,20.0453333 73.368,20.232 C72.92,20.4186667 72.5226667,20.688 72.176,21.04 C71.8293333,21.392 71.5546667,21.824 71.352,22.336 C71.1493333,22.848 71.048,23.4293333 71.048,24.08 C71.048,24.7306667 71.1493333,25.312 71.352,25.824 C71.5546667,26.336 71.8293333,26.768 72.176,27.12 C72.5226667,27.472 72.92,27.7386667 73.368,27.92 C73.816,28.1013333 74.2853333,28.192 74.776,28.192 Z M74.776,26.688 C74.2,26.688 73.7493333,26.4506667 73.424,25.976 C73.0986667,25.5013333 72.936,24.8693333 72.936,24.08 C72.936,23.28 73.0986667,22.6426667 73.424,22.168 C73.7493333,21.6933333 74.2,21.456 74.776,21.456 C75.352,21.456 75.8053333,21.6933333 76.136,22.168 C76.4666667,22.6426667 76.632,23.28 76.632,24.08 C76.632,24.8693333 76.4666667,25.5013333 76.136,25.976 C75.8053333,26.4506667 75.352,26.688 74.776,26.688 Z M82.76,28.192 C83.0693333,28.192 83.36,28.1626667 83.632,28.104 C83.904,28.0453333 84.1466667,27.9786667 84.36,27.904 L84.36,27.904 L84.04,26.544 C83.9226667,26.5973333 83.792,26.64 83.648,26.672 C83.504,26.704 83.3626667,26.72 83.224,26.72 C82.488,26.72 82.12,26.2613333 82.12,25.344 L82.12,25.344 L82.12,21.6 L84.12,21.6 L84.12,20.144 L82.12,20.144 L82.12,18 L80.584,18 L80.36,20.144 L79.144,20.224 L79.144,21.6 L80.264,21.6 L80.264,25.344 C80.264,25.7706667 80.3093333,26.1573333 80.4,26.504 C80.4906667,26.8506667 80.6346667,27.1493333 80.832,27.4 C81.0293333,27.6506667 81.2853333,27.8453333 81.6,27.984 C81.9146667,28.1226667 82.3013333,28.192 82.76,28.192 Z M87.608,28 L87.608,22.512 C87.9386667,22.192 88.2346667,21.9493333 88.496,21.784 C88.7573333,21.6186667 89.0586667,21.536 89.4,21.536 C89.8373333,21.536 90.152,21.6693333 90.344,21.936 C90.536,22.2026667 90.632,22.6613333 90.632,23.312 L90.632,23.312 L90.632,28 L92.472,28 L92.472,23.072 C92.472,22.0693333 92.28,21.2986667 91.896,20.76 C91.512,20.2213333 90.8986667,19.952 90.056,19.952 C89.512,19.952 89.04,20.072 88.64,20.312 C88.24,20.552 87.8746667,20.8266667 87.544,21.136 L87.544,21.136 L87.608,19.616 L87.608,16.704 L85.768,16.704 L85.768,28 L87.608,28 Z M98.056,28.192 C98.5573333,28.192 99.0373333,28.112 99.496,27.952 C99.9546667,27.792 100.370667,27.5893333 100.744,27.344 L100.744,27.344 L100.12,26.192 C99.832,26.3733333 99.5413333,26.5146667 99.248,26.616 C98.9546667,26.7173333 98.6373333,26.768 98.296,26.768 C97.656,26.768 97.1306667,26.5786667 96.72,26.2 C96.3093333,25.8213333 96.0613333,25.28 95.976,24.576 L95.976,24.576 L100.968,24.576 C100.989333,24.48 101.008,24.352 101.024,24.192 C101.04,24.032 101.048,23.8613333 101.048,23.68 C101.048,23.136 100.978667,22.6346667 100.84,22.176 C100.701333,21.7173333 100.496,21.3226667 100.224,20.992 C99.952,20.6613333 99.6133333,20.4053333 99.208,20.224 C98.8026667,20.0426667 98.3333333,19.952 97.8,19.952 C97.3413333,19.952 96.8933333,20.048 96.456,20.24 C96.0186667,20.432 95.632,20.704 95.296,21.056 C94.96,21.408 94.6906667,21.84 94.488,22.352 C94.2853333,22.864 94.184,23.44 94.184,24.08 C94.184,24.7306667 94.2826667,25.3093333 94.48,25.816 C94.6773333,26.3226667 94.952,26.752 95.304,27.104 C95.656,27.456 96.0666667,27.7253333 96.536,27.912 C97.0053333,28.0986667 97.512,28.192 98.056,28.192 Z M99.448,23.328 L95.96,23.328 C96.0453333,22.688 96.264,22.2026667 96.616,21.872 C96.968,21.5413333 97.3786667,21.376 97.848,21.376 C98.392,21.376 98.7946667,21.5493333 99.056,21.896 C99.3173333,22.2426667 99.448,22.72 99.448,23.328 L99.448,23.328 Z M104.648,28 L104.648,23.2 C104.893333,22.6026667 105.186667,22.184 105.528,21.944 C105.869333,21.704 106.194667,21.584 106.504,21.584 C106.674667,21.584 106.818667,21.5946667 106.936,21.616 C107.053333,21.6373333 107.181333,21.6693333 107.32,21.712 L107.32,21.712 L107.64,20.112 C107.416,20.0053333 107.117333,19.952 106.744,19.952 C106.328,19.952 105.922667,20.088 105.528,20.36 C105.133333,20.632 104.797333,21.024 104.52,21.536 L104.52,21.536 L104.456,21.536 L104.328,20.144 L102.808,20.144 L102.808,28 L104.648,28 Z M114.312,28.192 C114.856,28.192 115.328,28.0693333 115.728,27.824 C116.128,27.5786667 116.498667,27.2533333 116.84,26.848 L116.84,26.848 L116.888,26.848 L117.032,28 L118.536,28 L118.536,20.144 L116.696,20.144 L116.696,25.52 C116.397333,25.904 116.117333,26.1813333 115.856,26.352 C115.594667,26.5226667 115.293333,26.608 114.952,26.608 C114.525333,26.608 114.216,26.4746667 114.024,26.208 C113.832,25.9413333 113.736,25.4826667 113.736,24.832 L113.736,24.832 L113.736,20.144 L111.896,20.144 L111.896,25.072 C111.896,26.0746667 112.088,26.8453333 112.472,27.384 C112.856,27.9226667 113.469333,28.192 114.312,28.192 Z M123.064,28.192 C123.554667,28.192 123.992,28.128 124.376,28 C124.76,27.872 125.08,27.6986667 125.336,27.48 C125.592,27.2613333 125.786667,27.0053333 125.92,26.712 C126.053333,26.4186667 126.12,26.1013333 126.12,25.76 C126.12,25.3973333 126.053333,25.0853333 125.92,24.824 C125.786667,24.5626667 125.610667,24.3413333 125.392,24.16 C125.173333,23.9786667 124.930667,23.8266667 124.664,23.704 C124.397333,23.5813333 124.130667,23.472 123.864,23.376 C123.650667,23.3013333 123.445333,23.2266667 123.248,23.152 C123.050667,23.0773333 122.877333,22.9973333 122.728,22.912 C122.578667,22.8266667 122.458667,22.728 122.368,22.616 C122.277333,22.504 122.232,22.368 122.232,22.208 C122.232,21.9626667 122.325333,21.7573333 122.512,21.592 C122.698667,21.4266667 122.989333,21.344 123.384,21.344 C123.693333,21.344 123.989333,21.4053333 124.272,21.528 C124.554667,21.6506667 124.834667,21.8133333 125.112,22.016 L125.112,22.016 L125.96,20.896 C125.64,20.6506667 125.261333,20.432 124.824,20.24 C124.386667,20.048 123.896,19.952 123.352,19.952 C122.466667,19.952 121.768,20.1706667 121.256,20.608 C120.744,21.0453333 120.488,21.6106667 120.488,22.304 C120.488,22.6346667 120.554667,22.92 120.688,23.16 C120.821333,23.4 120.992,23.6106667 121.2,23.792 C121.408,23.9733333 121.645333,24.128 121.912,24.256 C122.178667,24.384 122.44,24.496 122.696,24.592 C122.898667,24.6773333 123.101333,24.76 123.304,24.84 C123.506667,24.92 123.688,25.008 123.848,25.104 C124.008,25.2 124.136,25.3093333 124.232,25.432 C124.328,25.5546667 124.376,25.696 124.376,25.856 C124.376,26.1333333 124.274667,26.36 124.072,26.536 C123.869333,26.712 123.554667,26.8 123.128,26.8 C122.722667,26.8 122.346667,26.7226667 122,26.568 C121.653333,26.4133333 121.304,26.1973333 120.952,25.92 L120.952,25.92 L120.088,27.104 C120.472,27.4133333 120.928,27.672 121.456,27.88 C121.984,28.088 122.52,28.192 123.064,28.192 Z M131.128,28.192 C131.629333,28.192 132.109333,28.112 132.568,27.952 C133.026667,27.792 133.442667,27.5893333 133.816,27.344 L133.816,27.344 L133.192,26.192 C132.904,26.3733333 132.613333,26.5146667 132.32,26.616 C132.026667,26.7173333 131.709333,26.768 131.368,26.768 C130.728,26.768 130.202667,26.5786667 129.792,26.2 C129.381333,25.8213333 129.133333,25.28 129.048,24.576 L129.048,24.576 L134.04,24.576 C134.061333,24.48 134.08,24.352 134.096,24.192 C134.112,24.032 134.12,23.8613333 134.12,23.68 C134.12,23.136 134.050667,22.6346667 133.912,22.176 C133.773333,21.7173333 133.568,21.3226667 133.296,20.992 C133.024,20.6613333 132.685333,20.4053333 132.28,20.224 C131.874667,20.0426667 131.405333,19.952 130.872,19.952 C130.413333,19.952 129.965333,20.048 129.528,20.24 C129.090667,20.432 128.704,20.704 128.368,21.056 C128.032,21.408 127.762667,21.84 127.56,22.352 C127.357333,22.864 127.256,23.44 127.256,24.08 C127.256,24.7306667 127.354667,25.3093333 127.552,25.816 C127.749333,26.3226667 128.024,26.752 128.376,27.104 C128.728,27.456 129.138667,27.7253333 129.608,27.912 C130.077333,28.0986667 130.584,28.192 131.128,28.192 Z M132.52,23.328 L129.032,23.328 C129.117333,22.688 129.336,22.2026667 129.688,21.872 C130.04,21.5413333 130.450667,21.376 130.92,21.376 C131.464,21.376 131.866667,21.5493333 132.128,21.896 C132.389333,22.2426667 132.52,22.72 132.52,23.328 L132.52,23.328 Z M137.72,28 L137.72,23.2 C137.965333,22.6026667 138.258667,22.184 138.6,21.944 C138.941333,21.704 139.266667,21.584 139.576,21.584 C139.746667,21.584 139.890667,21.5946667 140.008,21.616 C140.125333,21.6373333 140.253333,21.6693333 140.392,21.712 L140.392,21.712 L140.712,20.112 C140.488,20.0053333 140.189333,19.952 139.816,19.952 C139.4,19.952 138.994667,20.088 138.6,20.36 C138.205333,20.632 137.869333,21.024 137.592,21.536 L137.592,21.536 L137.528,21.536 L137.4,20.144 L135.88,20.144 L135.88,28 L137.72,28 Z" id="Addanotheruser" fill="#FFFFFF" fill-rule="nonzero"></path>
        </g>
    </g>
</svg>