<?xml version="1.0" encoding="utf-8"?>
<!-- Generator: Adobe Illustrator 24.1.0, SVG Export Plug-In . SVG Version: 6.00 Build 0)  -->
<svg version="1.1" id="Layer_1" xmlns="http://www.w3.org/2000/svg" xmlns:xlink="http://www.w3.org/1999/xlink" x="0px" y="0px"
	 viewBox="0 0 500 200" style="enable-background:new 0 0 500 200;" xml:space="preserve">
<style type="text/css">
	.st0{fill:#00916A;}
	.st1{fill:#F5F5F5;}
	.st2{enable-background:new    ;}
	.st3{fill:#5151D3;}
</style>
<rect y="-0.5" class="st0" width="6" height="204"/>
<g>
	<rect x="6" y="-0.5" class="st1" width="495" height="204"/>
</g>
<path class="st0" d="M33.6,11.8c-8.6,0-15.7,7-15.7,15.7s7,15.7,15.7,15.7s15.7-7,15.7-15.7S42.2,11.8,33.6,11.8z M30.5,35.3
	l-7.8-7.8l2.2-2.2l5.6,5.6L42.3,19l2.2,2.2L30.5,35.3z"/>
<g class="st2">
	<path d="M79.9,109.2V92.1h2.2v7.1H90v-7.1h2.2v17.1H90v-8h-7.9v8H79.9z"/>
	<path d="M101.8,109.5c-0.8,0-1.6-0.2-2.4-0.5c-0.7-0.3-1.4-0.7-1.9-1.3c-0.5-0.6-1-1.3-1.3-2.1s-0.5-1.7-0.5-2.8s0.2-2,0.5-2.8
		s0.7-1.5,1.3-2.1c0.5-0.6,1.1-1,1.8-1.3c0.7-0.3,1.4-0.5,2.1-0.5c0.8,0,1.5,0.1,2.1,0.4c0.6,0.3,1.2,0.7,1.6,1.2
		c0.4,0.5,0.7,1.1,1,1.9c0.2,0.7,0.3,1.5,0.3,2.4c0,0.2,0,0.4,0,0.7c0,0.2,0,0.4-0.1,0.6h-8.5c0.1,1.4,0.5,2.4,1.3,3.2
		s1.7,1.2,3,1.2c0.6,0,1.2-0.1,1.7-0.3c0.5-0.2,1-0.4,1.5-0.7l0.8,1.4c-0.6,0.3-1.2,0.7-1.8,0.9
		C103.4,109.3,102.6,109.5,101.8,109.5z M97.8,101.8h6.8c0-1.3-0.3-2.3-0.8-2.9c-0.5-0.7-1.3-1-2.3-1c-0.5,0-0.9,0.1-1.3,0.3
		c-0.4,0.2-0.8,0.4-1.1,0.8c-0.3,0.3-0.6,0.8-0.8,1.2C98,100.6,97.9,101.2,97.8,101.8z"/>
	<path d="M112.1,109.5c-1.1,0-1.9-0.3-2.6-0.9c-0.7-0.6-1.1-1.5-1.1-2.7c0-1.4,0.6-2.4,1.8-3.2c1.2-0.7,3.2-1.3,5.9-1.5
		c0-0.4,0-0.8-0.1-1.2s-0.2-0.7-0.4-1c-0.2-0.3-0.5-0.5-0.8-0.7c-0.3-0.2-0.8-0.3-1.3-0.3c-0.7,0-1.4,0.1-2.1,0.4s-1.2,0.6-1.7,0.9
		l-0.8-1.5c0.6-0.4,1.3-0.8,2.2-1.1c0.8-0.4,1.8-0.5,2.8-0.5c1.5,0,2.7,0.5,3.4,1.4c0.7,0.9,1,2.2,1,3.8v7.7h-1.8l-0.2-1.5h-0.1
		c-0.6,0.5-1.3,0.9-2,1.3C113.6,109.3,112.9,109.5,112.1,109.5z M112.7,107.7c0.6,0,1.2-0.1,1.7-0.4s1.1-0.7,1.7-1.3v-3.5
		c-1.1,0.1-1.9,0.3-2.7,0.5c-0.7,0.2-1.3,0.4-1.7,0.7c-0.4,0.3-0.8,0.6-1,0.9s-0.3,0.7-0.3,1.1c0,0.7,0.2,1.2,0.6,1.6
		C111.6,107.6,112.1,107.7,112.7,107.7z"/>
	<path d="M126.6,109.5c-1.6,0-2.9-0.6-3.8-1.7c-0.9-1.1-1.4-2.8-1.4-4.9c0-1,0.2-1.9,0.5-2.8s0.7-1.5,1.2-2.1c0.5-0.6,1.1-1,1.7-1.3
		c0.7-0.3,1.4-0.5,2.1-0.5s1.4,0.1,1.9,0.4c0.5,0.3,1.1,0.6,1.6,1.1l-0.1-2.2v-4.9h2.2v18.5h-1.8l-0.2-1.5h-0.1
		c-0.5,0.5-1.1,0.9-1.7,1.3C128.1,109.3,127.4,109.5,126.6,109.5z M127.1,107.7c0.6,0,1.1-0.1,1.7-0.4s1-0.7,1.6-1.3v-6.6
		c-0.5-0.5-1.1-0.8-1.5-1c-0.5-0.2-1-0.3-1.5-0.3c-0.5,0-1,0.1-1.4,0.4c-0.4,0.2-0.8,0.6-1.2,1c-0.3,0.4-0.6,0.9-0.8,1.5
		c-0.2,0.6-0.3,1.2-0.3,2c0,1.5,0.3,2.7,0.9,3.6S126,107.7,127.1,107.7z"/>
	<path d="M139,109.5c-0.8,0-1.4-0.2-1.7-0.7s-0.5-1.2-0.5-2.1v-16h2.1v16.1c0,0.3,0.1,0.6,0.2,0.7s0.3,0.2,0.4,0.2
		c0.1,0,0.1,0,0.2,0c0.1,0,0.2,0,0.3-0.1l0.3,1.6c-0.1,0.1-0.3,0.1-0.5,0.2C139.5,109.4,139.3,109.5,139,109.5z"/>
	<path d="M144.4,93.9c-0.4,0-0.8-0.1-1.1-0.4s-0.4-0.6-0.4-1c0-0.4,0.1-0.7,0.4-1c0.3-0.3,0.6-0.4,1.1-0.4s0.8,0.1,1.1,0.4
		c0.3,0.3,0.4,0.6,0.4,1c0,0.4-0.1,0.7-0.4,1C145.2,93.8,144.9,93.9,144.4,93.9z M143.4,109.2V96.5h2.1v12.6H143.4z"/>
	<path d="M149.8,109.2V96.5h1.8l0.2,1.8h0.1c0.6-0.6,1.2-1.1,1.9-1.5s1.4-0.6,2.3-0.6c1.3,0,2.3,0.4,2.9,1.2
		c0.6,0.8,0.9,2.1,0.9,3.7v8h-2.1v-7.7c0-1.2-0.2-2.1-0.6-2.6c-0.4-0.5-1-0.8-1.8-0.8c-0.7,0-1.2,0.2-1.7,0.5
		c-0.5,0.3-1.1,0.8-1.7,1.5v9.2H149.8z"/>
	<path d="M169.1,109.5c-0.8,0-1.6-0.2-2.4-0.5c-0.7-0.3-1.4-0.7-1.9-1.3c-0.5-0.6-1-1.3-1.3-2.1s-0.5-1.7-0.5-2.8s0.2-2,0.5-2.8
		s0.7-1.5,1.3-2.1c0.5-0.6,1.1-1,1.8-1.3c0.7-0.3,1.4-0.5,2.1-0.5c0.8,0,1.5,0.1,2.1,0.4c0.6,0.3,1.2,0.7,1.6,1.2
		c0.4,0.5,0.7,1.1,1,1.9c0.2,0.7,0.3,1.5,0.3,2.4c0,0.2,0,0.4,0,0.7c0,0.2,0,0.4-0.1,0.6h-8.5c0.1,1.4,0.5,2.4,1.3,3.2
		s1.7,1.2,3,1.2c0.6,0,1.2-0.1,1.7-0.3c0.5-0.2,1-0.4,1.5-0.7l0.8,1.4c-0.6,0.3-1.2,0.7-1.8,0.9C170.7,109.3,170,109.5,169.1,109.5z
		 M165.1,101.8h6.8c0-1.3-0.3-2.3-0.8-2.9c-0.5-0.7-1.3-1-2.3-1c-0.5,0-0.9,0.1-1.3,0.3c-0.4,0.2-0.8,0.4-1.1,0.8
		c-0.3,0.3-0.6,0.8-0.8,1.2C165.3,100.6,165.2,101.2,165.1,101.8z"/>
	<path d="M182.3,109.2V92.1h5.3c0.9,0,1.7,0.1,2.4,0.2c0.7,0.2,1.4,0.4,1.9,0.8c0.5,0.4,0.9,0.9,1.2,1.5c0.3,0.6,0.4,1.4,0.4,2.2
		c0,1.3-0.3,2.4-1,3.2c-0.7,0.8-1.6,1.3-2.8,1.6l4.3,7.4h-2.4l-4.1-7.2h-3.1v7.2H182.3z M184.4,100.2h2.9c1.3,0,2.4-0.3,3.1-0.8
		s1.1-1.4,1.1-2.5c0-1.1-0.4-1.9-1.1-2.4c-0.7-0.5-1.7-0.7-3.1-0.7h-2.9V100.2z"/>
	<path d="M201.7,109.5c-0.8,0-1.6-0.2-2.4-0.5c-0.7-0.3-1.4-0.7-1.9-1.3c-0.5-0.6-1-1.3-1.3-2.1s-0.5-1.7-0.5-2.8s0.2-2,0.5-2.8
		s0.7-1.5,1.3-2.1c0.5-0.6,1.1-1,1.8-1.3c0.7-0.3,1.4-0.5,2.1-0.5c0.8,0,1.5,0.1,2.1,0.4c0.6,0.3,1.2,0.7,1.6,1.2
		c0.4,0.5,0.7,1.1,1,1.9c0.2,0.7,0.3,1.5,0.3,2.4c0,0.2,0,0.4,0,0.7c0,0.2,0,0.4-0.1,0.6h-8.5c0.1,1.4,0.5,2.4,1.3,3.2
		s1.7,1.2,3,1.2c0.6,0,1.2-0.1,1.7-0.3c0.5-0.2,1-0.4,1.5-0.7l0.8,1.4c-0.6,0.3-1.2,0.7-1.8,0.9
		C203.4,109.3,202.6,109.5,201.7,109.5z M197.7,101.8h6.8c0-1.3-0.3-2.3-0.8-2.9c-0.5-0.7-1.3-1-2.3-1c-0.5,0-0.9,0.1-1.3,0.3
		c-0.4,0.2-0.8,0.4-1.1,0.8c-0.3,0.3-0.6,0.8-0.8,1.2C198,100.6,197.8,101.2,197.7,101.8z"/>
	<path d="M213.5,115c-0.8,0-1.5-0.1-2.1-0.2c-0.6-0.1-1.2-0.4-1.7-0.7c-0.5-0.3-0.8-0.7-1.1-1.1c-0.3-0.4-0.4-0.9-0.4-1.5
		c0-0.5,0.2-1,0.5-1.5c0.3-0.5,0.8-0.9,1.4-1.3v-0.1c-0.3-0.2-0.6-0.5-0.8-0.8c-0.2-0.3-0.3-0.8-0.3-1.3c0-0.5,0.1-1,0.4-1.4
		s0.6-0.7,0.9-0.9v-0.1c-0.4-0.3-0.8-0.8-1.1-1.4c-0.3-0.6-0.5-1.3-0.5-2c0-0.7,0.1-1.3,0.4-1.9c0.3-0.6,0.6-1,1-1.4
		c0.4-0.4,0.9-0.7,1.5-0.9c0.6-0.2,1.2-0.3,1.8-0.3c0.3,0,0.7,0,1,0.1c0.3,0.1,0.6,0.1,0.8,0.2h4.4v1.6h-2.6
		c0.3,0.3,0.5,0.7,0.7,1.1c0.2,0.5,0.3,0.9,0.3,1.5c0,0.7-0.1,1.3-0.4,1.8c-0.2,0.5-0.6,1-1,1.4c-0.4,0.4-0.9,0.7-1.5,0.9
		c-0.6,0.2-1.2,0.3-1.8,0.3c-0.3,0-0.6,0-1-0.1c-0.3-0.1-0.6-0.2-0.9-0.3c-0.2,0.2-0.4,0.4-0.6,0.6c-0.2,0.2-0.2,0.5-0.2,0.9
		c0,0.4,0.2,0.7,0.5,1s0.9,0.4,1.8,0.4h2.4c1.5,0,2.6,0.2,3.3,0.7c0.7,0.5,1.1,1.2,1.1,2.3c0,0.6-0.1,1.1-0.4,1.7
		c-0.3,0.5-0.7,1-1.3,1.4c-0.6,0.4-1.2,0.7-2,0.9C215.4,114.9,214.5,115,213.5,115z M213.8,113.5c0.6,0,1.2-0.1,1.7-0.2
		c0.5-0.1,0.9-0.3,1.3-0.6c0.3-0.2,0.6-0.5,0.8-0.8c0.2-0.3,0.3-0.6,0.3-1c0-0.6-0.2-1-0.6-1.2c-0.4-0.2-1.1-0.3-1.9-0.3h-2.2
		c-0.2,0-0.5,0-0.8,0s-0.6-0.1-0.8-0.2c-0.5,0.3-0.8,0.7-1,1s-0.3,0.7-0.3,1.1c0,0.7,0.3,1.2,1,1.6
		C211.8,113.3,212.7,113.5,213.8,113.5z M213.5,103.7c0.4,0,0.7-0.1,1-0.2s0.6-0.3,0.9-0.6s0.4-0.6,0.6-0.9c0.1-0.4,0.2-0.8,0.2-1.3
		c0-0.9-0.3-1.7-0.8-2.2c-0.5-0.5-1.2-0.8-1.9-0.8c-0.7,0-1.4,0.3-1.9,0.8c-0.5,0.5-0.8,1.2-0.8,2.2c0,0.5,0.1,0.9,0.2,1.3
		c0.1,0.4,0.3,0.7,0.6,0.9c0.3,0.3,0.5,0.5,0.9,0.6C212.8,103.7,213.1,103.7,213.5,103.7z"/>
	<path d="M226,109.5c-1.4,0-2.3-0.4-3-1.2c-0.6-0.8-0.9-2.1-0.9-3.7v-8h2.2v7.7c0,1.2,0.2,2.1,0.6,2.6c0.4,0.5,1,0.8,1.8,0.8
		c0.7,0,1.2-0.2,1.7-0.5s1.1-0.9,1.7-1.6v-9h2.1v12.6h-1.8l-0.2-2h-0.1c-0.6,0.7-1.2,1.2-1.9,1.7C227.7,109.3,226.9,109.5,226,109.5
		z"/>
	<path d="M238.7,109.5c-0.8,0-1.4-0.2-1.7-0.7s-0.5-1.2-0.5-2.1v-16h2.1v16.1c0,0.3,0.1,0.6,0.2,0.7s0.3,0.2,0.4,0.2
		c0.1,0,0.1,0,0.2,0c0.1,0,0.2,0,0.3-0.1l0.3,1.6c-0.1,0.1-0.3,0.1-0.5,0.2C239.3,109.4,239,109.5,238.7,109.5z"/>
	<path d="M246,109.5c-1.1,0-1.9-0.3-2.6-0.9c-0.7-0.6-1.1-1.5-1.1-2.7c0-1.4,0.6-2.4,1.8-3.2c1.2-0.7,3.2-1.3,5.9-1.5
		c0-0.4,0-0.8-0.1-1.2s-0.2-0.7-0.4-1c-0.2-0.3-0.5-0.5-0.8-0.7c-0.3-0.2-0.8-0.3-1.3-0.3c-0.7,0-1.4,0.1-2.1,0.4s-1.2,0.6-1.7,0.9
		l-0.8-1.5c0.6-0.4,1.3-0.8,2.2-1.1c0.8-0.4,1.8-0.5,2.8-0.5c1.5,0,2.7,0.5,3.4,1.4c0.7,0.9,1,2.2,1,3.8v7.7h-1.8l-0.2-1.5h-0.1
		c-0.6,0.5-1.3,0.9-2,1.3C247.6,109.3,246.8,109.5,246,109.5z M246.7,107.7c0.6,0,1.2-0.1,1.7-0.4s1.1-0.7,1.7-1.3v-3.5
		c-1.1,0.1-1.9,0.3-2.7,0.5c-0.7,0.2-1.3,0.4-1.7,0.7c-0.4,0.3-0.8,0.6-1,0.9s-0.3,0.7-0.3,1.1c0,0.7,0.2,1.2,0.6,1.6
		C245.5,107.6,246,107.7,246.7,107.7z"/>
	<path d="M256.2,109.2V96.5h1.8l0.2,2.3h0.1c0.4-0.8,1-1.4,1.6-1.9s1.3-0.7,2-0.7c0.5,0,1,0.1,1.4,0.3l-0.4,1.9
		c-0.2-0.1-0.4-0.1-0.6-0.2c-0.2,0-0.4-0.1-0.7-0.1c-0.5,0-1.1,0.2-1.7,0.7c-0.6,0.4-1.1,1.2-1.5,2.3v8.1H256.2z"/>
	<path d="M276.2,109.2v-4.6h-7.5v-1.4l7.1-10.6h2.4v10.3h2.3v1.7h-2.3v4.6H276.2z M271,102.9h5.2v-4.8c0-0.5,0-1,0-1.6
		s0.1-1.1,0.1-1.6h-0.1c-0.2,0.4-0.4,0.8-0.7,1.2c-0.2,0.4-0.5,0.8-0.7,1.2L271,102.9z"/>
	<path d="M287.7,109.5c-1.7,0-3-0.7-3.9-2.2c-0.9-1.5-1.4-3.6-1.4-6.4s0.5-4.9,1.4-6.4c0.9-1.5,2.2-2.2,3.9-2.2c1.7,0,3,0.7,3.9,2.2
		c0.9,1.5,1.4,3.6,1.4,6.4s-0.5,4.9-1.4,6.4C290.7,108.7,289.4,109.5,287.7,109.5z M287.7,107.7c0.5,0,0.9-0.1,1.3-0.4
		s0.7-0.7,1-1.2c0.3-0.6,0.5-1.3,0.7-2.2c0.2-0.9,0.2-1.9,0.2-3.1s-0.1-2.3-0.2-3.1c-0.2-0.9-0.4-1.6-0.7-2.1
		c-0.3-0.5-0.6-0.9-1-1.2s-0.8-0.4-1.3-0.4c-0.5,0-0.9,0.1-1.3,0.4c-0.4,0.3-0.7,0.7-1,1.2s-0.5,1.3-0.7,2.1s-0.2,1.9-0.2,3.1
		c0,2.4,0.3,4.2,0.9,5.3C286,107.2,286.7,107.7,287.7,107.7z"/>
	<path d="M300.6,109.5c-1.7,0-3-0.7-3.9-2.2c-0.9-1.5-1.4-3.6-1.4-6.4s0.5-4.9,1.4-6.4c0.9-1.5,2.2-2.2,3.9-2.2c1.7,0,3,0.7,3.9,2.2
		c0.9,1.5,1.4,3.6,1.4,6.4s-0.5,4.9-1.4,6.4C303.6,108.7,302.3,109.5,300.6,109.5z M300.6,107.7c0.5,0,0.9-0.1,1.3-0.4
		s0.7-0.7,1-1.2c0.3-0.6,0.5-1.3,0.7-2.2c0.2-0.9,0.2-1.9,0.2-3.1s-0.1-2.3-0.2-3.1c-0.2-0.9-0.4-1.6-0.7-2.1
		c-0.3-0.5-0.6-0.9-1-1.2s-0.8-0.4-1.3-0.4c-0.5,0-0.9,0.1-1.3,0.4c-0.4,0.3-0.7,0.7-1,1.2s-0.5,1.3-0.7,2.1s-0.2,1.9-0.2,3.1
		c0,2.4,0.3,4.2,0.9,5.3C298.9,107.2,299.7,107.7,300.6,107.7z"/>
</g>
<g>
	<polygon class="st3" points="312.2,101.3 362.2,101.1 362.2,102.1 312.2,102.3 	"/>
</g>
<ellipse class="st3" cx="312.3" cy="101.7" rx="3" ry="3"/>
<g class="st2">
	<path class="st3" d="M371.3,105.8c-0.8,0-1.5-0.3-1.8-0.8c-0.4-0.5-0.6-1.3-0.6-2.3v-4.9h1.8v4.7c0,0.7,0.1,1.1,0.3,1.4
		c0.2,0.3,0.5,0.4,0.9,0.4c0.3,0,0.6-0.1,0.9-0.3c0.3-0.2,0.5-0.4,0.8-0.8v-5.4h1.8v7.9H374l-0.1-1.2h0c-0.3,0.4-0.7,0.7-1.1,1
		C372.3,105.7,371.8,105.8,371.3,105.8z"/>
	<path class="st3" d="M377.3,102.3V101h3.8v1.3H377.3z"/>
	<path class="st3" d="M383.3,105.7v-6.4h-1.1v-1.4l1.1-0.1V97c0-0.4,0-0.8,0.1-1.1c0.1-0.3,0.3-0.6,0.5-0.9c0.2-0.2,0.5-0.4,0.8-0.6
		s0.7-0.2,1.2-0.2c0.3,0,0.5,0,0.8,0.1c0.2,0.1,0.5,0.1,0.6,0.2l-0.4,1.4c-0.3-0.1-0.6-0.2-0.9-0.2c-0.7,0-1,0.4-1,1.3v0.8h1.5v1.5
		h-1.5v6.4H383.3z"/>
	<path class="st3" d="M389.3,105.7l-2.1-7.9h1.9l0.9,4.1c0.1,0.4,0.2,0.7,0.2,1.1c0.1,0.4,0.1,0.8,0.2,1.1h0.1
		c0.1-0.4,0.2-0.8,0.2-1.1c0.1-0.4,0.2-0.7,0.3-1.1l1-4.1h1.7l1,4.1c0.1,0.4,0.2,0.7,0.3,1.1c0.1,0.4,0.2,0.8,0.3,1.1h0.1
		c0.1-0.4,0.1-0.8,0.2-1.1c0.1-0.4,0.1-0.7,0.2-1.1l0.9-4.1h1.7l-2,7.9h-2.2l-0.9-3.7c-0.1-0.4-0.2-0.7-0.2-1.1
		c-0.1-0.4-0.2-0.8-0.2-1.2h-0.1c-0.1,0.4-0.1,0.8-0.2,1.2c-0.1,0.4-0.2,0.7-0.2,1.1l-0.9,3.6H389.3z"/>
	<path class="st3" d="M399.5,102.3V101h3.8v1.3H399.5z"/>
	<path class="st3" d="M408.8,105.7V103h-4.5v-1.2l4-6.3h2.2v6.1h1.3v1.4h-1.3v2.6H408.8z M406.1,101.6h2.7v-2.3c0-0.3,0-0.7,0-1.1
		c0-0.4,0-0.8,0.1-1.1h-0.1c-0.1,0.3-0.3,0.5-0.4,0.8s-0.3,0.5-0.4,0.8L406.1,101.6z"/>
	<path class="st3" d="M416.3,105.8c-1.1,0-1.9-0.5-2.5-1.4c-0.6-0.9-0.9-2.2-0.9-4c0-1.7,0.3-3,0.9-3.9c0.6-0.9,1.5-1.3,2.5-1.3
		c1.1,0,1.9,0.4,2.5,1.3c0.6,0.9,0.9,2.2,0.9,3.9c0,1.7-0.3,3-0.9,4C418.2,105.4,417.4,105.8,416.3,105.8z M416.3,104.4
		c0.2,0,0.5-0.1,0.7-0.2c0.2-0.1,0.4-0.4,0.5-0.7c0.1-0.3,0.3-0.7,0.4-1.2c0.1-0.5,0.1-1.1,0.1-1.8c0-0.7,0-1.3-0.1-1.8
		s-0.2-0.9-0.4-1.2c-0.1-0.3-0.3-0.5-0.5-0.6c-0.2-0.1-0.4-0.2-0.7-0.2c-0.2,0-0.5,0.1-0.7,0.2c-0.2,0.1-0.4,0.3-0.5,0.6
		c-0.1,0.3-0.3,0.7-0.4,1.2c-0.1,0.5-0.1,1.1-0.1,1.8c0,0.7,0,1.3,0.1,1.8c0.1,0.5,0.2,0.9,0.4,1.2c0.1,0.3,0.3,0.5,0.5,0.7
		C415.8,104.3,416,104.4,416.3,104.4z"/>
	<path class="st3" d="M424.5,105.8c-1.1,0-1.9-0.5-2.5-1.4c-0.6-0.9-0.9-2.2-0.9-4c0-1.7,0.3-3,0.9-3.9c0.6-0.9,1.5-1.3,2.5-1.3
		s1.9,0.4,2.5,1.3c0.6,0.9,0.9,2.2,0.9,3.9c0,1.7-0.3,3-0.9,4C426.4,105.4,425.6,105.8,424.5,105.8z M424.5,104.4
		c0.2,0,0.5-0.1,0.7-0.2c0.2-0.1,0.4-0.4,0.5-0.7c0.1-0.3,0.3-0.7,0.4-1.2c0.1-0.5,0.1-1.1,0.1-1.8c0-0.7,0-1.3-0.1-1.8
		c-0.1-0.5-0.2-0.9-0.4-1.2c-0.1-0.3-0.3-0.5-0.5-0.6c-0.2-0.1-0.4-0.2-0.7-0.2s-0.5,0.1-0.7,0.2c-0.2,0.1-0.4,0.3-0.5,0.6
		c-0.1,0.3-0.3,0.7-0.4,1.2c-0.1,0.5-0.1,1.1-0.1,1.8c0,0.7,0,1.3,0.1,1.8c0.1,0.5,0.2,0.9,0.4,1.2c0.1,0.3,0.3,0.5,0.5,0.7
		C424,104.3,424.3,104.4,424.5,104.4z"/>
</g>
</svg>
