<?xml version="1.0" encoding="UTF-8"?>
<svg viewBox="0 0 500 415" version="1.1" xmlns="http://www.w3.org/2000/svg" xmlns:xlink="http://www.w3.org/1999/xlink">
    <title>Artboard</title>
    <g id="Artboard" stroke="none" stroke-width="1" fill="none" fill-rule="evenodd">
        <rect id="Rectangle" fill="#EE020A" fill-rule="nonzero" x="0" y="0" width="6" height="415"></rect>
        <rect id="Rectangle" fill="#F5F5F5" fill-rule="nonzero" x="6" y="0" width="495" height="415"></rect>
        <path d="M33.5,12 C25.0095541,12 18,18.9329073 18,27.5495208 C18,36.1661342 24.910828,43 33.5,43 C42.089172,43 49,36.0670927 49,27.4504792 C49,18.8338658 41.9904459,12 33.5,12 Z" id="Path" fill="#EE020A" fill-rule="nonzero"></path>
        <g id="Group" transform="translate(25.000000, 19.000000)" fill="#F5F5F5" fill-rule="nonzero">
            <rect id="Rectangle" transform="translate(8.909875, 8.364395) rotate(-45.000000) translate(-8.909875, -8.364395) " x="-1.0900291" y="6.71441082" width="19.9998082" height="3.29996835"></rect>
            <rect id="Rectangle" transform="translate(8.847765, 8.285095) rotate(-45.000000) translate(-8.847765, -8.285095) " x="7.19778082" y="-1.7148091" width="3.29996835" height="19.9998082"></rect>
        </g>
        <rect id="Rectangle" stroke="#005FC6" stroke-width="2" x="81" y="70" width="347" height="38" rx="3"></rect>
        <rect id="Rectangle" stroke="#6E7272" x="80.5" y="134.5" width="348" height="39" rx="3"></rect>
        <rect id="Rectangle" stroke="#6E7272" x="80.5" y="218.5" width="348" height="39" rx="3"></rect>
        <path d="M85.712,208.192 C86.4266667,208.192 87.0746667,208.072 87.656,207.832 C88.2373333,207.592 88.704,207.296 89.056,206.944 L89.056,206.944 L89.056,202.336 L85.408,202.336 L85.408,203.856 L87.392,203.856 L87.392,206.112 C87.2213333,206.261333 87.0026667,206.376 86.736,206.456 C86.4693333,206.536 86.1866667,206.576 85.888,206.576 C84.832,206.576 84.0346667,206.237333 83.496,205.56 C82.9573333,204.882667 82.688,203.946667 82.688,202.752 C82.688,202.165333 82.7626667,201.637333 82.912,201.168 C83.0613333,200.698667 83.272,200.301333 83.544,199.976 C83.816,199.650667 84.1413333,199.4 84.52,199.224 C84.8986667,199.048 85.3226667,198.96 85.792,198.96 C86.2826667,198.96 86.6906667,199.048 87.016,199.224 C87.3413333,199.4 87.6373333,199.616 87.904,199.872 L87.904,199.872 L88.896,198.672 C88.5653333,198.330667 88.1413333,198.024 87.624,197.752 C87.1066667,197.48 86.4746667,197.344 85.728,197.344 C85.0346667,197.344 84.3866667,197.466667 83.784,197.712 C83.1813333,197.957333 82.6586667,198.314667 82.216,198.784 C81.7733333,199.253333 81.424,199.826667 81.168,200.504 C80.912,201.181333 80.784,201.946667 80.784,202.8 C80.784,203.664 80.9066667,204.432 81.152,205.104 C81.3973333,205.776 81.7413333,206.341333 82.184,206.8 C82.6266667,207.258667 83.1493333,207.605333 83.752,207.84 C84.3546667,208.074667 85.008,208.192 85.712,208.192 Z M94.576,208.192 C95.0773333,208.192 95.5573333,208.112 96.016,207.952 C96.4746667,207.792 96.8906667,207.589333 97.264,207.344 L97.264,207.344 L96.64,206.192 C96.352,206.373333 96.0613333,206.514667 95.768,206.616 C95.4746667,206.717333 95.1573333,206.768 94.816,206.768 C94.176,206.768 93.6506667,206.578667 93.24,206.2 C92.8293333,205.821333 92.5813333,205.28 92.496,204.576 L92.496,204.576 L97.488,204.576 C97.5093333,204.48 97.528,204.352 97.544,204.192 C97.56,204.032 97.568,203.861333 97.568,203.68 C97.568,203.136 97.4986667,202.634667 97.36,202.176 C97.2213333,201.717333 97.016,201.322667 96.744,200.992 C96.472,200.661333 96.1333333,200.405333 95.728,200.224 C95.3226667,200.042667 94.8533333,199.952 94.32,199.952 C93.8613333,199.952 93.4133333,200.048 92.976,200.24 C92.5386667,200.432 92.152,200.704 91.816,201.056 C91.48,201.408 91.2106667,201.84 91.008,202.352 C90.8053333,202.864 90.704,203.44 90.704,204.08 C90.704,204.730667 90.8026667,205.309333 91,205.816 C91.1973333,206.322667 91.472,206.752 91.824,207.104 C92.176,207.456 92.5866667,207.725333 93.056,207.912 C93.5253333,208.098667 94.032,208.192 94.576,208.192 Z M95.968,203.328 L92.48,203.328 C92.5653333,202.688 92.784,202.202667 93.136,201.872 C93.488,201.541333 93.8986667,201.376 94.368,201.376 C94.912,201.376 95.3146667,201.549333 95.576,201.896 C95.8373333,202.242667 95.968,202.72 95.968,203.328 L95.968,203.328 Z M101.168,208 L101.168,202.512 C101.498667,202.192 101.794667,201.949333 102.056,201.784 C102.317333,201.618667 102.618667,201.536 102.96,201.536 C103.397333,201.536 103.712,201.669333 103.904,201.936 C104.096,202.202667 104.192,202.661333 104.192,203.312 L104.192,203.312 L104.192,208 L106.032,208 L106.032,203.072 C106.032,202.069333 105.84,201.298667 105.456,200.76 C105.072,200.221333 104.458667,199.952 103.616,199.952 C103.072,199.952 102.594667,200.074667 102.184,200.32 C101.773333,200.565333 101.392,200.858667 101.04,201.2 L101.04,201.2 L100.976,201.2 L100.848,200.144 L99.328,200.144 L99.328,208 L101.168,208 Z M111.04,208.192 C111.466667,208.192 111.872,208.090667 112.256,207.888 C112.64,207.685333 112.976,207.44 113.264,207.152 L113.264,207.152 L113.328,207.152 L113.456,208 L114.976,208 L114.976,196.704 L113.136,196.704 L113.136,199.552 L113.2,200.816 C112.890667,200.549333 112.581333,200.338667 112.272,200.184 C111.962667,200.029333 111.584,199.952 111.136,199.952 C110.709333,199.952 110.296,200.048 109.896,200.24 C109.496,200.432 109.141333,200.704 108.832,201.056 C108.522667,201.408 108.274667,201.84 108.088,202.352 C107.901333,202.864 107.808,203.44 107.808,204.08 C107.808,205.381333 108.098667,206.392 108.68,207.112 C109.261333,207.832 110.048,208.192 111.04,208.192 Z M111.488,206.672 C110.912,206.672 110.472,206.450667 110.168,206.008 C109.864,205.565333 109.712,204.917333 109.712,204.064 C109.712,203.232 109.888,202.592 110.24,202.144 C110.592,201.696 111.024,201.472 111.536,201.472 C111.802667,201.472 112.066667,201.52 112.328,201.616 C112.589333,201.712 112.858667,201.882667 113.136,202.128 L113.136,202.128 L113.136,205.792 C112.624,206.378667 112.074667,206.672 111.488,206.672 Z M120.672,208.192 C121.173333,208.192 121.653333,208.112 122.112,207.952 C122.570667,207.792 122.986667,207.589333 123.36,207.344 L123.36,207.344 L122.736,206.192 C122.448,206.373333 122.157333,206.514667 121.864,206.616 C121.570667,206.717333 121.253333,206.768 120.912,206.768 C120.272,206.768 119.746667,206.578667 119.336,206.2 C118.925333,205.821333 118.677333,205.28 118.592,204.576 L118.592,204.576 L123.584,204.576 C123.605333,204.48 123.624,204.352 123.64,204.192 C123.656,204.032 123.664,203.861333 123.664,203.68 C123.664,203.136 123.594667,202.634667 123.456,202.176 C123.317333,201.717333 123.112,201.322667 122.84,200.992 C122.568,200.661333 122.229333,200.405333 121.824,200.224 C121.418667,200.042667 120.949333,199.952 120.416,199.952 C119.957333,199.952 119.509333,200.048 119.072,200.24 C118.634667,200.432 118.248,200.704 117.912,201.056 C117.576,201.408 117.306667,201.84 117.104,202.352 C116.901333,202.864 116.8,203.44 116.8,204.08 C116.8,204.730667 116.898667,205.309333 117.096,205.816 C117.293333,206.322667 117.568,206.752 117.92,207.104 C118.272,207.456 118.682667,207.725333 119.152,207.912 C119.621333,208.098667 120.128,208.192 120.672,208.192 Z M122.064,203.328 L118.576,203.328 C118.661333,202.688 118.88,202.202667 119.232,201.872 C119.584,201.541333 119.994667,201.376 120.464,201.376 C121.008,201.376 121.410667,201.549333 121.672,201.896 C121.933333,202.242667 122.064,202.72 122.064,203.328 L122.064,203.328 Z M127.264,208 L127.264,203.2 C127.509333,202.602667 127.802667,202.184 128.144,201.944 C128.485333,201.704 128.810667,201.584 129.12,201.584 C129.290667,201.584 129.434667,201.594667 129.552,201.616 C129.669333,201.637333 129.797333,201.669333 129.936,201.712 L129.936,201.712 L130.256,200.112 C130.032,200.005333 129.733333,199.952 129.36,199.952 C128.944,199.952 128.538667,200.088 128.144,200.36 C127.749333,200.632 127.413333,201.024 127.136,201.536 L127.136,201.536 L127.072,201.536 L126.944,200.144 L125.424,200.144 L125.424,208 L127.264,208 Z" id="Gender" fill="#000000" fill-rule="nonzero"></path>
        <path d="M98.768,244 L98.768,239.84 L100.496,239.84 C101.072,239.84 101.597333,239.773333 102.072,239.64 C102.546667,239.506667 102.954667,239.306667 103.296,239.04 C103.637333,238.773333 103.901333,238.437333 104.088,238.032 C104.274667,237.626667 104.368,237.146667 104.368,236.592 C104.368,236.016 104.272,235.530667 104.08,235.136 C103.888,234.741333 103.621333,234.424 103.28,234.184 C102.938667,233.944 102.525333,233.770667 102.04,233.664 C101.554667,233.557333 101.018667,233.504 100.432,233.504 L100.432,233.504 L97.44,233.504 L97.44,244 L98.768,244 Z M100.336,238.752 L98.768,238.752 L98.768,234.576 L100.272,234.576 C101.189333,234.576 101.88,234.722667 102.344,235.016 C102.808,235.309333 103.04,235.834667 103.04,236.592 C103.04,237.338667 102.818667,237.885333 102.376,238.232 C101.933333,238.578667 101.253333,238.752 100.336,238.752 L100.336,238.752 Z M107.76,244.192 C107.941333,244.192 108.090667,244.181333 108.208,244.16 C108.325333,244.138667 108.426667,244.106667 108.512,244.064 L108.512,244.064 L108.336,243.072 C108.261333,243.093333 108.205333,243.104 108.168,243.104 L108.168,243.104 L108.048,243.104 C107.952,243.104 107.866667,243.061333 107.792,242.976 C107.717333,242.890667 107.68,242.741333 107.68,242.528 L107.68,242.528 L107.68,232.608 L106.368,232.608 L106.368,242.432 C106.368,243.008 106.474667,243.445333 106.688,243.744 C106.901333,244.042667 107.258667,244.192 107.76,244.192 Z M113.6,244.192 C114.133333,244.192 114.608,244.112 115.024,243.952 C115.44,243.792 115.818667,243.605333 116.16,243.392 L116.16,243.392 L115.696,242.528 C115.408,242.709333 115.106667,242.856 114.792,242.968 C114.477333,243.08 114.133333,243.136 113.76,243.136 C113.013333,243.136 112.408,242.893333 111.944,242.408 C111.48,241.922667 111.221333,241.264 111.168,240.432 L111.168,240.432 L116.416,240.432 C116.437333,240.336 116.450667,240.221333 116.456,240.088 C116.461333,239.954667 116.464,239.818667 116.464,239.68 C116.464,239.125333 116.394667,238.624 116.256,238.176 C116.117333,237.728 115.917333,237.344 115.656,237.024 C115.394667,236.704 115.069333,236.458667 114.68,236.288 C114.290667,236.117333 113.850667,236.032 113.36,236.032 C112.912,236.032 112.48,236.125333 112.064,236.312 C111.648,236.498667 111.277333,236.768 110.952,237.12 C110.626667,237.472 110.365333,237.901333 110.168,238.408 C109.970667,238.914667 109.872,239.488 109.872,240.128 C109.872,240.768 109.968,241.338667 110.16,241.84 C110.352,242.341333 110.616,242.765333 110.952,243.112 C111.288,243.458667 111.682667,243.725333 112.136,243.912 C112.589333,244.098667 113.077333,244.192 113.6,244.192 Z M115.312,239.488 L111.152,239.488 C111.194667,239.104 111.282667,238.762667 111.416,238.464 C111.549333,238.165333 111.717333,237.912 111.92,237.704 C112.122667,237.496 112.349333,237.338667 112.6,237.232 C112.850667,237.125333 113.114667,237.072 113.392,237.072 C114,237.072 114.472,237.277333 114.808,237.688 C115.144,238.098667 115.312,238.698667 115.312,239.488 L115.312,239.488 Z M119.952,244.192 C120.442667,244.192 120.901333,244.082667 121.328,243.864 C121.754667,243.645333 122.154667,243.381333 122.528,243.072 L122.528,243.072 L122.576,243.072 L122.688,244 L123.776,244 L123.776,239.232 C123.776,238.261333 123.562667,237.485333 123.136,236.904 C122.709333,236.322667 122.021333,236.032 121.072,236.032 C120.442667,236.032 119.866667,236.141333 119.344,236.36 C118.821333,236.578667 118.378667,236.805333 118.016,237.04 L118.016,237.04 L118.528,237.952 C118.837333,237.738667 119.189333,237.546667 119.584,237.376 C119.978667,237.205333 120.4,237.12 120.848,237.12 C121.168,237.12 121.432,237.176 121.64,237.288 C121.848,237.4 122.010667,237.546667 122.128,237.728 C122.245333,237.909333 122.328,238.117333 122.376,238.352 C122.424,238.586667 122.448,238.826667 122.448,239.072 C120.784,239.253333 119.573333,239.570667 118.816,240.024 C118.058667,240.477333 117.68,241.130667 117.68,241.984 C117.68,242.688 117.896,243.232 118.328,243.616 C118.76,244 119.301333,244.192 119.952,244.192 Z M120.336,243.136 C119.952,243.136 119.626667,243.04 119.36,242.848 C119.093333,242.656 118.96,242.336 118.96,241.888 C118.96,241.642667 119.021333,241.416 119.144,241.208 C119.266667,241 119.464,240.816 119.736,240.656 C120.008,240.496 120.365333,240.357333 120.808,240.24 C121.250667,240.122667 121.797333,240.021333 122.448,239.936 L122.448,239.936 L122.448,242.096 C122.074667,242.437333 121.722667,242.696 121.392,242.872 C121.061333,243.048 120.709333,243.136 120.336,243.136 Z M128.256,244.192 C128.714667,244.192 129.122667,244.130667 129.48,244.008 C129.837333,243.885333 130.136,243.717333 130.376,243.504 C130.616,243.290667 130.797333,243.045333 130.92,242.768 C131.042667,242.490667 131.104,242.192 131.104,241.872 C131.104,241.509333 131.032,241.2 130.888,240.944 C130.744,240.688 130.56,240.472 130.336,240.296 C130.112,240.12 129.858667,239.973333 129.576,239.856 C129.293333,239.738667 129.013333,239.626667 128.736,239.52 C128.512,239.434667 128.296,239.352 128.088,239.272 C127.88,239.192 127.696,239.101333 127.536,239 C127.376,238.898667 127.248,238.781333 127.152,238.648 C127.056,238.514667 127.008,238.357333 127.008,238.176 C127.008,237.877333 127.122667,237.616 127.352,237.392 C127.581333,237.168 127.941333,237.056 128.432,237.056 C128.773333,237.056 129.088,237.12 129.376,237.248 C129.664,237.376 129.941333,237.541333 130.208,237.744 L130.208,237.744 L130.832,236.912 C130.533333,236.666667 130.178667,236.458667 129.768,236.288 C129.357333,236.117333 128.906667,236.032 128.416,236.032 C128,236.032 127.626667,236.088 127.296,236.2 C126.965333,236.312 126.685333,236.466667 126.456,236.664 C126.226667,236.861333 126.050667,237.096 125.928,237.368 C125.805333,237.64 125.744,237.930667 125.744,238.24 C125.744,238.570667 125.813333,238.853333 125.952,239.088 C126.090667,239.322667 126.269333,239.528 126.488,239.704 C126.706667,239.88 126.954667,240.029333 127.232,240.152 C127.509333,240.274667 127.786667,240.384 128.064,240.48 C128.277333,240.565333 128.490667,240.650667 128.704,240.736 C128.917333,240.821333 129.106667,240.92 129.272,241.032 C129.437333,241.144 129.573333,241.274667 129.68,241.424 C129.786667,241.573333 129.84,241.749333 129.84,241.952 C129.84,242.293333 129.712,242.581333 129.456,242.816 C129.2,243.050667 128.816,243.168 128.304,243.168 C127.834667,243.168 127.421333,243.082667 127.064,242.912 C126.706667,242.741333 126.357333,242.517333 126.016,242.24 L126.016,242.24 L125.36,243.12 C125.733333,243.429333 126.170667,243.685333 126.672,243.888 C127.173333,244.090667 127.701333,244.192 128.256,244.192 Z M136.08,244.192 C136.613333,244.192 137.088,244.112 137.504,243.952 C137.92,243.792 138.298667,243.605333 138.64,243.392 L138.64,243.392 L138.176,242.528 C137.888,242.709333 137.586667,242.856 137.272,242.968 C136.957333,243.08 136.613333,243.136 136.24,243.136 C135.493333,243.136 134.888,242.893333 134.424,242.408 C133.96,241.922667 133.701333,241.264 133.648,240.432 L133.648,240.432 L138.896,240.432 C138.917333,240.336 138.930667,240.221333 138.936,240.088 C138.941333,239.954667 138.944,239.818667 138.944,239.68 C138.944,239.125333 138.874667,238.624 138.736,238.176 C138.597333,237.728 138.397333,237.344 138.136,237.024 C137.874667,236.704 137.549333,236.458667 137.16,236.288 C136.770667,236.117333 136.330667,236.032 135.84,236.032 C135.392,236.032 134.96,236.125333 134.544,236.312 C134.128,236.498667 133.757333,236.768 133.432,237.12 C133.106667,237.472 132.845333,237.901333 132.648,238.408 C132.450667,238.914667 132.352,239.488 132.352,240.128 C132.352,240.768 132.448,241.338667 132.64,241.84 C132.832,242.341333 133.096,242.765333 133.432,243.112 C133.768,243.458667 134.162667,243.725333 134.616,243.912 C135.069333,244.098667 135.557333,244.192 136.08,244.192 Z M137.792,239.488 L133.632,239.488 C133.674667,239.104 133.762667,238.762667 133.896,238.464 C134.029333,238.165333 134.197333,237.912 134.4,237.704 C134.602667,237.496 134.829333,237.338667 135.08,237.232 C135.330667,237.125333 135.594667,237.072 135.872,237.072 C136.48,237.072 136.952,237.277333 137.288,237.688 C137.624,238.098667 137.792,238.698667 137.792,239.488 L137.792,239.488 Z M146.096,244.192 C146.554667,244.192 146.962667,244.130667 147.32,244.008 C147.677333,243.885333 147.976,243.717333 148.216,243.504 C148.456,243.290667 148.637333,243.045333 148.76,242.768 C148.882667,242.490667 148.944,242.192 148.944,241.872 C148.944,241.509333 148.872,241.2 148.728,240.944 C148.584,240.688 148.4,240.472 148.176,240.296 C147.952,240.12 147.698667,239.973333 147.416,239.856 C147.133333,239.738667 146.853333,239.626667 146.576,239.52 C146.352,239.434667 146.136,239.352 145.928,239.272 C145.72,239.192 145.536,239.101333 145.376,239 C145.216,238.898667 145.088,238.781333 144.992,238.648 C144.896,238.514667 144.848,238.357333 144.848,238.176 C144.848,237.877333 144.962667,237.616 145.192,237.392 C145.421333,237.168 145.781333,237.056 146.272,237.056 C146.613333,237.056 146.928,237.12 147.216,237.248 C147.504,237.376 147.781333,237.541333 148.048,237.744 L148.048,237.744 L148.672,236.912 C148.373333,236.666667 148.018667,236.458667 147.608,236.288 C147.197333,236.117333 146.746667,236.032 146.256,236.032 C145.84,236.032 145.466667,236.088 145.136,236.2 C144.805333,236.312 144.525333,236.466667 144.296,236.664 C144.066667,236.861333 143.890667,237.096 143.768,237.368 C143.645333,237.64 143.584,237.930667 143.584,238.24 C143.584,238.570667 143.653333,238.853333 143.792,239.088 C143.930667,239.322667 144.109333,239.528 144.328,239.704 C144.546667,239.88 144.794667,240.029333 145.072,240.152 C145.349333,240.274667 145.626667,240.384 145.904,240.48 C146.117333,240.565333 146.330667,240.650667 146.544,240.736 C146.757333,240.821333 146.946667,240.92 147.112,241.032 C147.277333,241.144 147.413333,241.274667 147.52,241.424 C147.626667,241.573333 147.68,241.749333 147.68,241.952 C147.68,242.293333 147.552,242.581333 147.296,242.816 C147.04,243.050667 146.656,243.168 146.144,243.168 C145.674667,243.168 145.261333,243.082667 144.904,242.912 C144.546667,242.741333 144.197333,242.517333 143.856,242.24 L143.856,242.24 L143.2,243.12 C143.573333,243.429333 144.010667,243.685333 144.512,243.888 C145.013333,244.090667 145.541333,244.192 146.096,244.192 Z M153.92,244.192 C154.453333,244.192 154.928,244.112 155.344,243.952 C155.76,243.792 156.138667,243.605333 156.48,243.392 L156.48,243.392 L156.016,242.528 C155.728,242.709333 155.426667,242.856 155.112,242.968 C154.797333,243.08 154.453333,243.136 154.08,243.136 C153.333333,243.136 152.728,242.893333 152.264,242.408 C151.8,241.922667 151.541333,241.264 151.488,240.432 L151.488,240.432 L156.736,240.432 C156.757333,240.336 156.770667,240.221333 156.776,240.088 C156.781333,239.954667 156.784,239.818667 156.784,239.68 C156.784,239.125333 156.714667,238.624 156.576,238.176 C156.437333,237.728 156.237333,237.344 155.976,237.024 C155.714667,236.704 155.389333,236.458667 155,236.288 C154.610667,236.117333 154.170667,236.032 153.68,236.032 C153.232,236.032 152.8,236.125333 152.384,236.312 C151.968,236.498667 151.597333,236.768 151.272,237.12 C150.946667,237.472 150.685333,237.901333 150.488,238.408 C150.290667,238.914667 150.192,239.488 150.192,240.128 C150.192,240.768 150.288,241.338667 150.48,241.84 C150.672,242.341333 150.936,242.765333 151.272,243.112 C151.608,243.458667 152.002667,243.725333 152.456,243.912 C152.909333,244.098667 153.397333,244.192 153.92,244.192 Z M155.632,239.488 L151.472,239.488 C151.514667,239.104 151.602667,238.762667 151.736,238.464 C151.869333,238.165333 152.037333,237.912 152.24,237.704 C152.442667,237.496 152.669333,237.338667 152.92,237.232 C153.170667,237.125333 153.434667,237.072 153.712,237.072 C154.32,237.072 154.792,237.277333 155.128,237.688 C155.464,238.098667 155.632,238.698667 155.632,239.488 L155.632,239.488 Z M160.096,244.192 C160.277333,244.192 160.426667,244.181333 160.544,244.16 C160.661333,244.138667 160.762667,244.106667 160.848,244.064 L160.848,244.064 L160.672,243.072 C160.597333,243.093333 160.541333,243.104 160.504,243.104 L160.504,243.104 L160.384,243.104 C160.288,243.104 160.202667,243.061333 160.128,242.976 C160.053333,242.890667 160.016,242.741333 160.016,242.528 L160.016,242.528 L160.016,232.608 L158.704,232.608 L158.704,242.432 C158.704,243.008 158.810667,243.445333 159.024,243.744 C159.237333,244.042667 159.594667,244.192 160.096,244.192 Z M165.936,244.192 C166.469333,244.192 166.944,244.112 167.36,243.952 C167.776,243.792 168.154667,243.605333 168.496,243.392 L168.496,243.392 L168.032,242.528 C167.744,242.709333 167.442667,242.856 167.128,242.968 C166.813333,243.08 166.469333,243.136 166.096,243.136 C165.349333,243.136 164.744,242.893333 164.28,242.408 C163.816,241.922667 163.557333,241.264 163.504,240.432 L163.504,240.432 L168.752,240.432 C168.773333,240.336 168.786667,240.221333 168.792,240.088 C168.797333,239.954667 168.8,239.818667 168.8,239.68 C168.8,239.125333 168.730667,238.624 168.592,238.176 C168.453333,237.728 168.253333,237.344 167.992,237.024 C167.730667,236.704 167.405333,236.458667 167.016,236.288 C166.626667,236.117333 166.186667,236.032 165.696,236.032 C165.248,236.032 164.816,236.125333 164.4,236.312 C163.984,236.498667 163.613333,236.768 163.288,237.12 C162.962667,237.472 162.701333,237.901333 162.504,238.408 C162.306667,238.914667 162.208,239.488 162.208,240.128 C162.208,240.768 162.304,241.338667 162.496,241.84 C162.688,242.341333 162.952,242.765333 163.288,243.112 C163.624,243.458667 164.018667,243.725333 164.472,243.912 C164.925333,244.098667 165.413333,244.192 165.936,244.192 Z M167.648,239.488 L163.488,239.488 C163.530667,239.104 163.618667,238.762667 163.752,238.464 C163.885333,238.165333 164.053333,237.912 164.256,237.704 C164.458667,237.496 164.685333,237.338667 164.936,237.232 C165.186667,237.125333 165.450667,237.072 165.728,237.072 C166.336,237.072 166.808,237.277333 167.144,237.688 C167.48,238.098667 167.648,238.698667 167.648,239.488 L167.648,239.488 Z M173.792,244.192 C174.261333,244.192 174.709333,244.104 175.136,243.928 C175.562667,243.752 175.952,243.509333 176.304,243.2 L176.304,243.2 L175.728,242.32 C175.482667,242.533333 175.208,242.717333 174.904,242.872 C174.6,243.026667 174.266667,243.104 173.904,243.104 C173.552,243.104 173.226667,243.032 172.928,242.888 C172.629333,242.744 172.376,242.541333 172.168,242.28 C171.96,242.018667 171.797333,241.706667 171.68,241.344 C171.562667,240.981333 171.504,240.576 171.504,240.128 C171.504,239.68 171.565333,239.272 171.688,238.904 C171.810667,238.536 171.978667,238.218667 172.192,237.952 C172.405333,237.685333 172.661333,237.48 172.96,237.336 C173.258667,237.192 173.584,237.12 173.936,237.12 C174.245333,237.12 174.525333,237.184 174.776,237.312 C175.026667,237.44 175.264,237.605333 175.488,237.808 L175.488,237.808 L176.16,236.944 C175.882667,236.698667 175.562667,236.485333 175.2,236.304 C174.837333,236.122667 174.4,236.032 173.888,236.032 C173.386667,236.032 172.909333,236.122667 172.456,236.304 C172.002667,236.485333 171.605333,236.752 171.264,237.104 C170.922667,237.456 170.650667,237.885333 170.448,238.392 C170.245333,238.898667 170.144,239.477333 170.144,240.128 C170.144,240.768 170.237333,241.341333 170.424,241.848 C170.610667,242.354667 170.866667,242.781333 171.192,243.128 C171.517333,243.474667 171.904,243.738667 172.352,243.92 C172.8,244.101333 173.28,244.192 173.792,244.192 Z M180.304,244.192 C180.549333,244.192 180.797333,244.162667 181.048,244.104 C181.298667,244.045333 181.530667,243.978667 181.744,243.904 L181.744,243.904 L181.488,242.912 C181.36,242.965333 181.216,243.013333 181.056,243.056 C180.896,243.098667 180.746667,243.12 180.608,243.12 C180.16,243.12 179.848,242.989333 179.672,242.728 C179.496,242.466667 179.408,242.096 179.408,241.616 L179.408,241.616 L179.408,237.296 L181.504,237.296 L181.504,236.224 L179.408,236.224 L179.408,234.048 L178.304,234.048 L178.144,236.224 L176.928,236.304 L176.928,237.296 L178.08,237.296 L178.08,241.6 C178.08,241.984 178.117333,242.336 178.192,242.656 C178.266667,242.976 178.392,243.248 178.568,243.472 C178.744,243.696 178.973333,243.872 179.256,244 C179.538667,244.128 179.888,244.192 180.304,244.192 Z" id="Pleaseselect" fill="#000000" fill-rule="nonzero"></path>
        <rect id="Rectangle" stroke="#005FC6" stroke-width="2" x="81" y="315" width="48" height="38" rx="3"></rect>
        <rect id="Rectangle" stroke="#6E7272" x="146.5" y="314.5" width="49" height="39" rx="3"></rect>
        <rect id="Rectangle" stroke="#6E7272" x="212.5" y="314.5" width="77" height="39" rx="3"></rect>
        <path d="M84.224,297 C85.0026667,297 85.6986667,296.888 86.312,296.664 C86.9253333,296.44 87.448,296.106667 87.88,295.664 C88.312,295.221333 88.6426667,294.669333 88.872,294.008 C89.1013333,293.346667 89.216,292.584 89.216,291.72 C89.216,289.992 88.768,288.696 87.872,287.832 C86.976,286.968 85.728,286.536 84.128,286.536 L84.128,286.536 L81.328,286.536 L81.328,297 L84.224,297 Z M84,295.496 L83.184,295.496 L83.184,288.04 L84,288.04 C85.056,288.04 85.872,288.333333 86.448,288.92 C87.024,289.506667 87.312,290.44 87.312,291.72 C87.312,293.010667 87.0266667,293.962667 86.456,294.576 C85.8853333,295.189333 85.0666667,295.496 84,295.496 L84,295.496 Z M93.072,297.192 C93.5413333,297.192 93.976,297.090667 94.376,296.888 C94.776,296.685333 95.152,296.434667 95.504,296.136 L95.504,296.136 L95.568,296.136 L95.696,297 L97.216,297 L97.216,292.344 C97.216,291.245333 96.9733333,290.405333 96.488,289.824 C96.0026667,289.242667 95.2693333,288.952 94.288,288.952 C93.6586667,288.952 93.072,289.053333 92.528,289.256 C91.984,289.458667 91.4933333,289.698667 91.056,289.976 L91.056,289.976 L91.728,291.208 C92.08,290.994667 92.44,290.813333 92.808,290.664 C93.176,290.514667 93.552,290.44 93.936,290.44 C94.2026667,290.44 94.4266667,290.48 94.608,290.56 C94.7893333,290.64 94.936,290.752 95.048,290.896 C95.16,291.04 95.24,291.205333 95.288,291.392 C95.336,291.578667 95.3653333,291.773333 95.376,291.976 C94.5653333,292.061333 93.8693333,292.184 93.288,292.344 C92.7066667,292.504 92.2266667,292.701333 91.848,292.936 C91.4693333,293.170667 91.192,293.450667 91.016,293.776 C90.84,294.101333 90.752,294.472 90.752,294.888 C90.752,295.581333 90.9653333,296.138667 91.392,296.56 C91.8186667,296.981333 92.3786667,297.192 93.072,297.192 Z M93.664,295.752 C93.3333333,295.752 93.0613333,295.672 92.848,295.512 C92.6346667,295.352 92.528,295.096 92.528,294.744 C92.528,294.552 92.576,294.370667 92.672,294.2 C92.768,294.029333 92.928,293.877333 93.152,293.744 C93.376,293.610667 93.6693333,293.490667 94.032,293.384 C94.3946667,293.277333 94.8426667,293.192 95.376,293.128 L95.376,293.128 L95.376,294.888 C95.0773333,295.165333 94.7973333,295.378667 94.536,295.528 C94.2746667,295.677333 93.984,295.752 93.664,295.752 Z M101.936,297.192 C102.245333,297.192 102.536,297.162667 102.808,297.104 C103.08,297.045333 103.322667,296.978667 103.536,296.904 L103.536,296.904 L103.216,295.544 C103.098667,295.597333 102.968,295.64 102.824,295.672 C102.68,295.704 102.538667,295.72 102.4,295.72 C101.664,295.72 101.296,295.261333 101.296,294.344 L101.296,294.344 L101.296,290.6 L103.296,290.6 L103.296,289.144 L101.296,289.144 L101.296,287 L99.76,287 L99.536,289.144 L98.32,289.224 L98.32,290.6 L99.44,290.6 L99.44,294.344 C99.44,294.770667 99.4853333,295.157333 99.576,295.504 C99.6666667,295.850667 99.8106667,296.149333 100.008,296.4 C100.205333,296.650667 100.461333,296.845333 100.776,296.984 C101.090667,297.122667 101.477333,297.192 101.936,297.192 Z M108.048,297.192 C108.549333,297.192 109.029333,297.112 109.488,296.952 C109.946667,296.792 110.362667,296.589333 110.736,296.344 L110.736,296.344 L110.112,295.192 C109.824,295.373333 109.533333,295.514667 109.24,295.616 C108.946667,295.717333 108.629333,295.768 108.288,295.768 C107.648,295.768 107.122667,295.578667 106.712,295.2 C106.301333,294.821333 106.053333,294.28 105.968,293.576 L105.968,293.576 L110.96,293.576 C110.981333,293.48 111,293.352 111.016,293.192 C111.032,293.032 111.04,292.861333 111.04,292.68 C111.04,292.136 110.970667,291.634667 110.832,291.176 C110.693333,290.717333 110.488,290.322667 110.216,289.992 C109.944,289.661333 109.605333,289.405333 109.2,289.224 C108.794667,289.042667 108.325333,288.952 107.792,288.952 C107.333333,288.952 106.885333,289.048 106.448,289.24 C106.010667,289.432 105.624,289.704 105.288,290.056 C104.952,290.408 104.682667,290.84 104.48,291.352 C104.277333,291.864 104.176,292.44 104.176,293.08 C104.176,293.730667 104.274667,294.309333 104.472,294.816 C104.669333,295.322667 104.944,295.752 105.296,296.104 C105.648,296.456 106.058667,296.725333 106.528,296.912 C106.997333,297.098667 107.504,297.192 108.048,297.192 Z M109.44,292.328 L105.952,292.328 C106.037333,291.688 106.256,291.202667 106.608,290.872 C106.96,290.541333 107.370667,290.376 107.84,290.376 C108.384,290.376 108.786667,290.549333 109.048,290.896 C109.309333,291.242667 109.44,291.72 109.44,292.328 L109.44,292.328 Z M119.216,297.192 C119.706667,297.192 120.178667,297.101333 120.632,296.92 C121.085333,296.738667 121.482667,296.472 121.824,296.12 C122.165333,295.768 122.44,295.336 122.648,294.824 C122.856,294.312 122.96,293.730667 122.96,293.08 C122.96,292.429333 122.856,291.848 122.648,291.336 C122.44,290.824 122.165333,290.392 121.824,290.04 C121.482667,289.688 121.085333,289.418667 120.632,289.232 C120.178667,289.045333 119.706667,288.952 119.216,288.952 C118.725333,288.952 118.256,289.045333 117.808,289.232 C117.36,289.418667 116.962667,289.688 116.616,290.04 C116.269333,290.392 115.994667,290.824 115.792,291.336 C115.589333,291.848 115.488,292.429333 115.488,293.08 C115.488,293.730667 115.589333,294.312 115.792,294.824 C115.994667,295.336 116.269333,295.768 116.616,296.12 C116.962667,296.472 117.36,296.738667 117.808,296.92 C118.256,297.101333 118.725333,297.192 119.216,297.192 Z M119.216,295.688 C118.64,295.688 118.189333,295.450667 117.864,294.976 C117.538667,294.501333 117.376,293.869333 117.376,293.08 C117.376,292.28 117.538667,291.642667 117.864,291.168 C118.189333,290.693333 118.64,290.456 119.216,290.456 C119.792,290.456 120.245333,290.693333 120.576,291.168 C120.906667,291.642667 121.072,292.28 121.072,293.08 C121.072,293.869333 120.906667,294.501333 120.576,294.976 C120.245333,295.450667 119.792,295.688 119.216,295.688 Z M126.88,297 L126.88,290.6 L128.416,290.6 L128.416,289.144 L126.88,289.144 L126.88,288.296 C126.88,287.410667 127.210667,286.968 127.872,286.968 C128.16,286.968 128.448,287.032 128.736,287.16 L128.736,287.16 L129.088,285.784 C128.906667,285.709333 128.690667,285.645333 128.44,285.592 C128.189333,285.538667 127.925333,285.512 127.648,285.512 C127.178667,285.512 126.781333,285.581333 126.456,285.72 C126.130667,285.858667 125.861333,286.053333 125.648,286.304 C125.434667,286.554667 125.28,286.853333 125.184,287.2 C125.088,287.546667 125.04,287.922667 125.04,288.328 L125.04,288.328 L125.04,289.144 L123.984,289.224 L123.984,290.6 L125.04,290.6 L125.04,297 L126.88,297 Z M136.8,297.192 C137.237333,297.192 137.658667,297.096 138.064,296.904 C138.469333,296.712 138.826667,296.434667 139.136,296.072 C139.445333,295.709333 139.693333,295.264 139.88,294.736 C140.066667,294.208 140.16,293.608 140.16,292.936 C140.16,292.328 140.090667,291.778667 139.952,291.288 C139.813333,290.797333 139.610667,290.378667 139.344,290.032 C139.077333,289.685333 138.752,289.418667 138.368,289.232 C137.984,289.045333 137.546667,288.952 137.056,288.952 C136.650667,288.952 136.253333,289.042667 135.864,289.224 C135.474667,289.405333 135.114667,289.64 134.784,289.928 L134.784,289.928 L134.832,288.616 L134.832,285.704 L132.992,285.704 L132.992,297 L134.448,297 L134.608,296.168 L134.656,296.168 C134.986667,296.498667 135.336,296.752 135.704,296.928 C136.072,297.104 136.437333,297.192 136.8,297.192 Z M136.416,295.672 C136.181333,295.672 135.928,295.624 135.656,295.528 C135.384,295.432 135.109333,295.261333 134.832,295.016 L134.832,295.016 L134.832,291.352 C135.429333,290.765333 136.005333,290.472 136.56,290.472 C137.157333,290.472 137.589333,290.690667 137.856,291.128 C138.122667,291.565333 138.256,292.178667 138.256,292.968 C138.256,293.864 138.08,294.538667 137.728,294.992 C137.376,295.445333 136.938667,295.672 136.416,295.672 Z M142.928,287.768 C143.258667,287.768 143.530667,287.672 143.744,287.48 C143.957333,287.288 144.064,287.037333 144.064,286.728 C144.064,286.418667 143.957333,286.165333 143.744,285.968 C143.530667,285.770667 143.258667,285.672 142.928,285.672 C142.597333,285.672 142.325333,285.770667 142.112,285.968 C141.898667,286.165333 141.792,286.418667 141.792,286.728 C141.792,287.037333 141.898667,287.288 142.112,287.48 C142.325333,287.672 142.597333,287.768 142.928,287.768 Z M143.84,297 L143.84,289.144 L142,289.144 L142,297 L143.84,297 Z M148.032,297 L148.032,292.2 C148.277333,291.602667 148.570667,291.184 148.912,290.944 C149.253333,290.704 149.578667,290.584 149.888,290.584 C150.058667,290.584 150.202667,290.594667 150.32,290.616 C150.437333,290.637333 150.565333,290.669333 150.704,290.712 L150.704,290.712 L151.024,289.112 C150.8,289.005333 150.501333,288.952 150.128,288.952 C149.712,288.952 149.306667,289.088 148.912,289.36 C148.517333,289.632 148.181333,290.024 147.904,290.536 L147.904,290.536 L147.84,290.536 L147.712,289.144 L146.192,289.144 L146.192,297 L148.032,297 Z M154.928,297.192 C155.237333,297.192 155.528,297.162667 155.8,297.104 C156.072,297.045333 156.314667,296.978667 156.528,296.904 L156.528,296.904 L156.208,295.544 C156.090667,295.597333 155.96,295.64 155.816,295.672 C155.672,295.704 155.530667,295.72 155.392,295.72 C154.656,295.72 154.288,295.261333 154.288,294.344 L154.288,294.344 L154.288,290.6 L156.288,290.6 L156.288,289.144 L154.288,289.144 L154.288,287 L152.752,287 L152.528,289.144 L151.312,289.224 L151.312,290.6 L152.432,290.6 L152.432,294.344 C152.432,294.770667 152.477333,295.157333 152.568,295.504 C152.658667,295.850667 152.802667,296.149333 153,296.4 C153.197333,296.650667 153.453333,296.845333 153.768,296.984 C154.082667,297.122667 154.469333,297.192 154.928,297.192 Z M159.776,297 L159.776,291.512 C160.106667,291.192 160.402667,290.949333 160.664,290.784 C160.925333,290.618667 161.226667,290.536 161.568,290.536 C162.005333,290.536 162.32,290.669333 162.512,290.936 C162.704,291.202667 162.8,291.661333 162.8,292.312 L162.8,292.312 L162.8,297 L164.64,297 L164.64,292.072 C164.64,291.069333 164.448,290.298667 164.064,289.76 C163.68,289.221333 163.066667,288.952 162.224,288.952 C161.68,288.952 161.208,289.072 160.808,289.312 C160.408,289.552 160.042667,289.826667 159.712,290.136 L159.712,290.136 L159.776,288.616 L159.776,285.704 L157.936,285.704 L157.936,297 L159.776,297 Z" id="Dateofbirth" fill="#000000" fill-rule="nonzero"></path>
        <g id="angle-down-red" transform="translate(395.000000, 234.000000)" fill="#000000" fill-rule="nonzero">
            <g id="angle-right" transform="translate(7.500000, 5.000000) rotate(90.000000) translate(-7.500000, -5.000000) translate(2.500000, -2.500000)">
                <path d="M9.3585455,8.29192547 L3.00426598,14.6273292 C2.56507313,15.0652174 1.85488895,15.0652174 1.42036836,14.6273292 L0.36443662,13.5745342 C-0.0747562297,13.136646 -0.0747562297,12.4285714 0.36443662,11.9953416 L4.86849946,7.50465839 L0.36443662,3.01397516 C-0.0747562297,2.57608696 -0.0747562297,1.86801242 0.36443662,1.43478261 L1.4156961,0.372670807 C1.85488895,-0.0652173913 2.56507313,-0.0652173913 2.99959372,0.372670807 L9.35387324,6.70807453 C9.79773835,7.14596273 9.79773835,7.85403727 9.3585455,8.29192547 L9.3585455,8.29192547 Z" id="Path"></path>
            </g>
        </g>
        <path d="M162.64,340 L162.64,334.224 C162.64,333.754667 162.621333,333.237333 162.584,332.672 C162.546667,332.106667 162.512,331.589333 162.48,331.12 L162.48,331.12 L162.544,331.12 L163.376,333.504 L165.36,338.944 L166.24,338.944 L168.224,333.504 L169.056,331.12 L169.12,331.12 C169.088,331.589333 169.050667,332.106667 169.008,332.672 C168.965333,333.237333 168.944,333.754667 168.944,334.224 L168.944,334.224 L168.944,340 L170.192,340 L170.192,329.504 L168.576,329.504 L166.592,335.104 C166.464,335.466667 166.344,335.832 166.232,336.2 L166.058,336.75 L166.058,336.75 L165.872,337.296 L165.808,337.296 C165.68,336.933333 165.554667,336.568 165.432,336.2 L165.246,335.65 L165.246,335.65 L165.056,335.104 L163.04,329.504 L161.44,329.504 L161.44,340 L162.64,340 Z M174.272,340 L174.272,334.224 C174.272,333.754667 174.253333,333.237333 174.216,332.672 C174.178667,332.106667 174.144,331.589333 174.112,331.12 L174.112,331.12 L174.176,331.12 L175.008,333.504 L176.992,338.944 L177.872,338.944 L179.856,333.504 L180.688,331.12 L180.752,331.12 C180.72,331.589333 180.682667,332.106667 180.64,332.672 C180.597333,333.237333 180.576,333.754667 180.576,334.224 L180.576,334.224 L180.576,340 L181.824,340 L181.824,329.504 L180.208,329.504 L178.224,335.104 C178.096,335.466667 177.976,335.832 177.864,336.2 C177.752,336.568 177.632,336.933333 177.504,337.296 L177.504,337.296 L177.44,337.296 C177.312,336.933333 177.186667,336.568 177.064,336.2 L176.878,335.65 L176.878,335.65 L176.688,335.104 L174.672,329.504 L173.072,329.504 L173.072,340 L174.272,340 Z" id="MM" fill="#6E7272" fill-rule="nonzero"></path>
        <path d="M239.48,340 L239.48,335.936 L242.632,329.504 L241.24,329.504 L239.896,332.464 C239.736,332.848 239.565333,333.226667 239.384,333.6 C239.202667,333.973333 239.021333,334.357333 238.84,334.752 L238.84,334.752 L238.776,334.752 C238.594667,334.357333 238.424,333.973333 238.264,333.6 C238.104,333.226667 237.938667,332.848 237.768,332.464 L237.768,332.464 L236.408,329.504 L234.984,329.504 L238.136,335.936 L238.136,340 L239.48,340 Z M247.096,340 L247.096,335.936 L250.248,329.504 L248.856,329.504 L247.512,332.464 C247.352,332.848 247.181333,333.226667 247,333.6 C246.818667,333.973333 246.637333,334.357333 246.456,334.752 L246.456,334.752 L246.392,334.752 C246.210667,334.357333 246.04,333.973333 245.88,333.6 C245.72,333.226667 245.554667,332.848 245.384,332.464 L245.384,332.464 L244.024,329.504 L242.6,329.504 L245.752,335.936 L245.752,340 L247.096,340 Z M254.712,340 L254.712,335.936 L257.864,329.504 L256.472,329.504 L255.128,332.464 C254.968,332.848 254.797333,333.226667 254.616,333.6 C254.434667,333.973333 254.253333,334.357333 254.072,334.752 L254.072,334.752 L254.008,334.752 C253.826667,334.357333 253.656,333.973333 253.496,333.6 C253.336,333.226667 253.170667,332.848 253,332.464 L253,332.464 L251.64,329.504 L250.216,329.504 L253.368,335.936 L253.368,340 L254.712,340 Z M262.328,340 L262.328,335.936 L265.48,329.504 L264.088,329.504 L262.744,332.464 C262.584,332.848 262.413333,333.226667 262.232,333.6 C262.050667,333.973333 261.869333,334.357333 261.688,334.752 L261.688,334.752 L261.624,334.752 C261.442667,334.357333 261.272,333.973333 261.112,333.6 C260.952,333.226667 260.786667,332.848 260.616,332.464 L260.616,332.464 L259.256,329.504 L257.832,329.504 L260.984,335.936 L260.984,340 L262.328,340 Z" id="YYYY" fill="#6E7272" fill-rule="nonzero"></path>
        <path d="M100.352,159.192 C100.906667,159.192 101.402667,159.114667 101.84,158.96 C102.277333,158.805333 102.650667,158.592 102.96,158.32 C103.269333,158.048 103.506667,157.730667 103.672,157.368 C103.837333,157.005333 103.92,156.616 103.92,156.2 C103.92,155.816 103.864,155.477333 103.752,155.184 C103.64,154.890667 103.488,154.634667 103.296,154.416 C103.104,154.197333 102.874667,154.005333 102.608,153.84 C102.341333,153.674667 102.058667,153.528 101.76,153.4 L101.76,153.4 L100.272,152.76 C100.058667,152.674667 99.8506667,152.581333 99.648,152.48 C99.4453333,152.378667 99.2586667,152.261333 99.088,152.128 C98.9173333,151.994667 98.7813333,151.84 98.68,151.664 C98.5786667,151.488 98.528,151.272 98.528,151.016 C98.528,150.536 98.7066667,150.16 99.064,149.888 C99.4213333,149.616 99.8933333,149.48 100.48,149.48 C100.970667,149.48 101.410667,149.568 101.8,149.744 C102.189333,149.92 102.544,150.162667 102.864,150.472 L102.864,150.472 L103.584,149.608 C103.210667,149.224 102.757333,148.912 102.224,148.672 C101.690667,148.432 101.109333,148.312 100.48,148.312 C100,148.312 99.56,148.381333 99.16,148.52 C98.76,148.658667 98.4133333,148.853333 98.12,149.104 C97.8266667,149.354667 97.5973333,149.650667 97.432,149.992 C97.2666667,150.333333 97.184,150.701333 97.184,151.096 C97.184,151.48 97.248,151.818667 97.376,152.112 C97.504,152.405333 97.6693333,152.658667 97.872,152.872 C98.0746667,153.085333 98.304,153.266667 98.56,153.416 C98.816,153.565333 99.0666667,153.693333 99.312,153.8 L99.312,153.8 L100.816,154.456 C101.061333,154.573333 101.290667,154.685333 101.504,154.792 C101.717333,154.898667 101.901333,155.018667 102.056,155.152 C102.210667,155.285333 102.333333,155.445333 102.424,155.632 C102.514667,155.818667 102.56,156.045333 102.56,156.312 C102.56,156.824 102.368,157.237333 101.984,157.552 C101.6,157.866667 101.061333,158.024 100.368,158.024 C99.824,158.024 99.2986667,157.904 98.792,157.664 C98.2853333,157.424 97.8453333,157.106667 97.472,156.712 L97.472,156.712 L96.672,157.64 C97.1306667,158.12 97.6746667,158.498667 98.304,158.776 C98.9333333,159.053333 99.616,159.192 100.352,159.192 Z M108.128,159.192 C108.672,159.192 109.144,159.064 109.544,158.808 C109.944,158.552 110.325333,158.210667 110.688,157.784 L110.688,157.784 L110.736,157.784 L110.848,159 L111.936,159 L111.936,151.224 L110.624,151.224 L110.624,156.744 C110.250667,157.202667 109.909333,157.536 109.6,157.744 C109.290667,157.952 108.933333,158.056 108.528,158.056 C108.016,158.056 107.645333,157.893333 107.416,157.568 C107.186667,157.242667 107.072,156.712 107.072,155.976 L107.072,155.976 L107.072,151.224 L105.744,151.224 L105.744,156.152 C105.744,157.154667 105.933333,157.912 106.312,158.424 C106.690667,158.936 107.296,159.192 108.128,159.192 Z M115.872,159 L115.872,154.008 C116.138667,153.346667 116.450667,152.882667 116.808,152.616 C117.165333,152.349333 117.509333,152.216 117.84,152.216 C118,152.216 118.133333,152.226667 118.24,152.248 C118.346667,152.269333 118.464,152.301333 118.592,152.344 L118.592,152.344 L118.848,151.192 C118.602667,151.085333 118.325333,151.032 118.016,151.032 C117.568,151.032 117.154667,151.176 116.776,151.464 C116.397333,151.752 116.074667,152.141333 115.808,152.632 L115.808,152.632 L115.76,152.632 L115.648,151.224 L114.56,151.224 L114.56,159 L115.872,159 Z M121.424,159 L121.424,153.368 C121.818667,152.973333 122.170667,152.674667 122.48,152.472 C122.789333,152.269333 123.146667,152.168 123.552,152.168 C124.064,152.168 124.437333,152.330667 124.672,152.656 C124.906667,152.981333 125.024,153.512 125.024,154.248 L125.024,154.248 L125.024,159 L126.336,159 L126.336,154.072 C126.336,153.069333 126.146667,152.312 125.768,151.8 C125.389333,151.288 124.789333,151.032 123.968,151.032 C123.424,151.032 122.946667,151.157333 122.536,151.408 C122.125333,151.658667 121.733333,151.970667 121.36,152.344 L121.36,152.344 L121.312,152.344 L121.2,151.224 L120.112,151.224 L120.112,159 L121.424,159 Z M130.656,159.192 C131.146667,159.192 131.605333,159.082667 132.032,158.864 C132.458667,158.645333 132.858667,158.381333 133.232,158.072 L133.232,158.072 L133.28,158.072 L133.392,159 L134.48,159 L134.48,154.232 C134.48,153.261333 134.266667,152.485333 133.84,151.904 C133.413333,151.322667 132.725333,151.032 131.776,151.032 C131.146667,151.032 130.570667,151.141333 130.048,151.36 C129.525333,151.578667 129.082667,151.805333 128.72,152.04 L128.72,152.04 L129.232,152.952 C129.541333,152.738667 129.893333,152.546667 130.288,152.376 C130.682667,152.205333 131.104,152.12 131.552,152.12 C131.872,152.12 132.136,152.176 132.344,152.288 C132.552,152.4 132.714667,152.546667 132.832,152.728 C132.949333,152.909333 133.032,153.117333 133.08,153.352 C133.128,153.586667 133.152,153.826667 133.152,154.072 C131.488,154.253333 130.277333,154.570667 129.52,155.024 C128.762667,155.477333 128.384,156.130667 128.384,156.984 C128.384,157.688 128.6,158.232 129.032,158.616 C129.464,159 130.005333,159.192 130.656,159.192 Z M131.04,158.136 C130.656,158.136 130.330667,158.04 130.064,157.848 C129.797333,157.656 129.664,157.336 129.664,156.888 C129.664,156.642667 129.725333,156.416 129.848,156.208 C129.970667,156 130.168,155.816 130.44,155.656 C130.712,155.496 131.069333,155.357333 131.512,155.24 C131.954667,155.122667 132.501333,155.021333 133.152,154.936 L133.152,154.936 L133.152,157.096 C132.778667,157.437333 132.426667,157.696 132.096,157.872 C131.765333,158.048 131.413333,158.136 131.04,158.136 Z M138.24,159 L138.24,153.368 C138.954667,152.568 139.605333,152.168 140.192,152.168 C140.693333,152.168 141.061333,152.330667 141.296,152.656 C141.530667,152.981333 141.648,153.512 141.648,154.248 L141.648,154.248 L141.648,159 L142.96,159 L142.96,153.368 C143.674667,152.568 144.325333,152.168 144.912,152.168 C145.402667,152.168 145.765333,152.330667 146,152.656 C146.234667,152.981333 146.352,153.512 146.352,154.248 L146.352,154.248 L146.352,159 L147.664,159 L147.664,154.072 C147.664,153.069333 147.469333,152.312 147.08,151.8 C146.690667,151.288 146.096,151.032 145.296,151.032 C144.816,151.032 144.370667,151.168 143.96,151.44 C143.549333,151.712 143.141333,152.072 142.736,152.52 C142.576,152.050667 142.328,151.685333 141.992,151.424 C141.656,151.162667 141.189333,151.032 140.592,151.032 C140.122667,151.032 139.688,151.157333 139.288,151.408 C138.888,151.658667 138.517333,151.970667 138.176,152.344 L138.176,152.344 L138.128,152.344 L138.016,151.224 L136.928,151.224 L136.928,159 L138.24,159 Z M153.344,159.192 C153.877333,159.192 154.352,159.112 154.768,158.952 C155.184,158.792 155.562667,158.605333 155.904,158.392 L155.904,158.392 L155.44,157.528 C155.152,157.709333 154.850667,157.856 154.536,157.968 C154.221333,158.08 153.877333,158.136 153.504,158.136 C152.757333,158.136 152.152,157.893333 151.688,157.408 C151.224,156.922667 150.965333,156.264 150.912,155.432 L150.912,155.432 L156.16,155.432 C156.181333,155.336 156.194667,155.221333 156.2,155.088 C156.205333,154.954667 156.208,154.818667 156.208,154.68 C156.208,154.125333 156.138667,153.624 156,153.176 C155.861333,152.728 155.661333,152.344 155.4,152.024 C155.138667,151.704 154.813333,151.458667 154.424,151.288 C154.034667,151.117333 153.594667,151.032 153.104,151.032 C152.656,151.032 152.224,151.125333 151.808,151.312 C151.392,151.498667 151.021333,151.768 150.696,152.12 C150.370667,152.472 150.109333,152.901333 149.912,153.408 C149.714667,153.914667 149.616,154.488 149.616,155.128 C149.616,155.768 149.712,156.338667 149.904,156.84 C150.096,157.341333 150.36,157.765333 150.696,158.112 C151.032,158.458667 151.426667,158.725333 151.88,158.912 C152.333333,159.098667 152.821333,159.192 153.344,159.192 Z M155.056,154.488 L150.896,154.488 C150.938667,154.104 151.026667,153.762667 151.16,153.464 C151.293333,153.165333 151.461333,152.912 151.664,152.704 C151.866667,152.496 152.093333,152.338667 152.344,152.232 C152.594667,152.125333 152.858667,152.072 153.136,152.072 C153.744,152.072 154.216,152.277333 154.552,152.688 C154.888,153.098667 155.056,153.698667 155.056,154.488 L155.056,154.488 Z" id="Surname" fill="#6E7272" fill-rule="nonzero"></path>
        <rect id="Rectangle" fill="#F5F5F5" x="90" y="66" width="69" height="8"></rect>
        <rect id="Rectangle" fill="#F5F5F5" x="90" y="311" width="22" height="8"></rect>
        <text id="First-name" font-family="SourceSansPro-Regular, Source Sans Pro" font-size="14" font-weight="normal" fill="#005FC6">
            <tspan x="93" y="74">First name</tspan>
        </text>
        <text id="DD" font-family="SourceSansPro-Regular, Source Sans Pro" font-size="14" font-weight="normal" fill="#005FC6">
            <tspan x="92" y="319">DD</tspan>
        </text>
    </g>
</svg>