<svg id="Layer_1" data-name="Layer 1" xmlns="http://www.w3.org/2000/svg" viewBox="0 0 480 190"><defs><style>.cls-1{fill:#db0022;}.cls-2{fill:#f5f5f5;}.cls-3{fill:#fff;}.cls-4{fill:#6e7272;}.cls-5{fill:#ee020a;opacity:0.14;isolation:isolate;}.cls-6{fill:none;stroke:#ee020a;}</style></defs><rect class="cls-1" width="6" height="190"/><rect class="cls-2" x="6" width="475.25" height="190"/><path class="cls-1" d="M33,10.15a15.65,15.65,0,1,0,15.7,15.6A15.73,15.73,0,0,0,33,10.15Z"/><rect class="cls-2" x="23" y="24.16" width="20" height="3.3" transform="translate(-8.58 30.9) rotate(-45)"/><rect class="cls-2" x="31.29" y="15.73" width="3.3" height="20" transform="translate(-8.55 30.83) rotate(-45)"/><path d="M197,99.07V86h1.66v6.58h.06L204.21,86h1.88L202,91l4.74,8.12h-1.86L201,92.25l-2.26,2.66v4.16Z"/><path d="M212.25,99.31a4.77,4.77,0,0,1-1.83-.35,4.31,4.31,0,0,1-1.48-1,4.57,4.57,0,0,1-1-1.59,6,6,0,0,1-.36-2.14,5.81,5.81,0,0,1,.37-2.15,4.89,4.89,0,0,1,1-1.61,4.14,4.14,0,0,1,1.39-1,4,4,0,0,1,1.62-.35,4.15,4.15,0,0,1,1.65.32,3.26,3.26,0,0,1,1.22.92,4.47,4.47,0,0,1,.75,1.44,6.47,6.47,0,0,1,.26,1.88c0,.17,0,.34,0,.51a4,4,0,0,1,0,.43h-6.56a3.77,3.77,0,0,0,1,2.47,3,3,0,0,0,2.27.91,3.88,3.88,0,0,0,1.29-.21,5.61,5.61,0,0,0,1.13-.55l.58,1.08A8.16,8.16,0,0,1,214,99,5,5,0,0,1,212.25,99.31Zm-3.06-5.88h5.2a3.47,3.47,0,0,0-.63-2.25,2.17,2.17,0,0,0-1.77-.77,2.54,2.54,0,0,0-1,.2,2.46,2.46,0,0,0-.85.59,3,3,0,0,0-.63,1A4.07,4.07,0,0,0,209.19,93.43Z"/><path d="M222.17,99.31a4.77,4.77,0,0,1-1.83-.35,4.31,4.31,0,0,1-1.48-1,4.57,4.57,0,0,1-1-1.59,6,6,0,0,1-.36-2.14,5.81,5.81,0,0,1,.37-2.15,4.89,4.89,0,0,1,1-1.61,4.14,4.14,0,0,1,1.39-1,4,4,0,0,1,1.62-.35,4.15,4.15,0,0,1,1.65.32,3.26,3.26,0,0,1,1.22.92,4.47,4.47,0,0,1,.75,1.44,6.47,6.47,0,0,1,.26,1.88c0,.17,0,.34,0,.51a4,4,0,0,1-.05.43h-6.56a3.77,3.77,0,0,0,1,2.47,3,3,0,0,0,2.27.91,3.88,3.88,0,0,0,1.29-.21,5.61,5.61,0,0,0,1.13-.55l.58,1.08A8.16,8.16,0,0,1,224,99,5,5,0,0,1,222.17,99.31Zm-3.06-5.88h5.2a3.47,3.47,0,0,0-.63-2.25,2.17,2.17,0,0,0-1.77-.77,2.54,2.54,0,0,0-1,.2,2.46,2.46,0,0,0-.85.59,3,3,0,0,0-.63,1A4.07,4.07,0,0,0,219.11,93.43Z"/><path d="M228.15,103.17V89.35h1.36l.14,1.12h.06a7.6,7.6,0,0,1,1.45-1,3.53,3.53,0,0,1,1.65-.4,3.82,3.82,0,0,1,1.66.35,3.22,3.22,0,0,1,1.2,1A4.69,4.69,0,0,1,236.4,92a8,8,0,0,1,.25,2,6.84,6.84,0,0,1-.34,2.21,5.24,5.24,0,0,1-.92,1.65,4,4,0,0,1-1.34,1,3.84,3.84,0,0,1-1.6.35,3.23,3.23,0,0,1-1.35-.3,6.5,6.5,0,0,1-1.35-.82l0,1.7v3.28Zm4-5.24a2.34,2.34,0,0,0,1.11-.27,2.65,2.65,0,0,0,.88-.76,3.89,3.89,0,0,0,.58-1.21,5.78,5.78,0,0,0,.21-1.62,7.31,7.31,0,0,0-.14-1.46,3.51,3.51,0,0,0-.45-1.13,2.23,2.23,0,0,0-.8-.73,2.52,2.52,0,0,0-1.17-.26,2.56,2.56,0,0,0-1.25.34,7.31,7.31,0,0,0-1.35,1v5.1a4.28,4.28,0,0,0,1.28.79A3.28,3.28,0,0,0,232.17,97.93Z"/><path d="M243.25,99.07V89.35h1.36l.14,1.4h.06a6.36,6.36,0,0,1,1.39-1.17,3,3,0,0,1,1.63-.47,2.78,2.78,0,0,1,1.75.49,2.84,2.84,0,0,1,.93,1.37A7.8,7.8,0,0,1,252,89.62a3,3,0,0,1,1.67-.51,2.63,2.63,0,0,1,2.23,1,4.7,4.7,0,0,1,.73,2.84v6.16H255V93.13a3.51,3.51,0,0,0-.44-2,1.57,1.57,0,0,0-1.36-.61,3.59,3.59,0,0,0-2.44,1.5v7h-1.64V93.13a3.51,3.51,0,0,0-.44-2,1.59,1.59,0,0,0-1.38-.61,3.59,3.59,0,0,0-2.44,1.5v7Z"/><path d="M263.77,99.31a4.77,4.77,0,0,1-1.83-.35,4.31,4.31,0,0,1-1.48-1,4.57,4.57,0,0,1-1-1.59,6,6,0,0,1-.36-2.14,5.81,5.81,0,0,1,.37-2.15,4.89,4.89,0,0,1,1-1.61,4.14,4.14,0,0,1,1.39-1,4,4,0,0,1,1.62-.35,4.15,4.15,0,0,1,1.65.32,3.26,3.26,0,0,1,1.22.92,4.47,4.47,0,0,1,.75,1.44,6.47,6.47,0,0,1,.26,1.88c0,.17,0,.34,0,.51a4,4,0,0,1,0,.43h-6.56a3.77,3.77,0,0,0,1,2.47A3,3,0,0,0,264,98a3.88,3.88,0,0,0,1.29-.21,5.61,5.61,0,0,0,1.13-.55l.58,1.08a8.16,8.16,0,0,1-1.42.7A5,5,0,0,1,263.77,99.31Zm-3.06-5.88h5.2a3.47,3.47,0,0,0-.63-2.25,2.17,2.17,0,0,0-1.77-.77,2.54,2.54,0,0,0-1,.2,2.46,2.46,0,0,0-.85.59,3,3,0,0,0-.63,1A4.07,4.07,0,0,0,260.71,93.43Z"/><path d="M276.29,99.31a5.25,5.25,0,0,1-2-.38,5.86,5.86,0,0,1-1.64-1l.82-1.1a6,6,0,0,0,1.31.84,3.57,3.57,0,0,0,1.55.32,2.08,2.08,0,0,0,1.44-.44,1.4,1.4,0,0,0,.48-1.08,1.14,1.14,0,0,0-.2-.66,2.16,2.16,0,0,0-.51-.49,4.3,4.3,0,0,0-.71-.37l-.8-.32c-.35-.12-.7-.26-1-.41a3.9,3.9,0,0,1-.93-.56,2.72,2.72,0,0,1-.67-.77,2,2,0,0,1-.26-1.06,2.51,2.51,0,0,1,.23-1.09,2.46,2.46,0,0,1,.66-.88,3,3,0,0,1,1-.58,4.34,4.34,0,0,1,1.4-.21,4.46,4.46,0,0,1,1.69.32,5.24,5.24,0,0,1,1.33.78l-.78,1a5.6,5.6,0,0,0-1-.62,2.9,2.9,0,0,0-1.18-.24,1.85,1.85,0,0,0-1.35.42,1.32,1.32,0,0,0-.43,1,1,1,0,0,0,.18.59,1.71,1.71,0,0,0,.48.44,3.7,3.7,0,0,0,.69.34l.81.31,1.05.42a4.22,4.22,0,0,1,.95.55,2.7,2.7,0,0,1,.69.81,2.34,2.34,0,0,1,.27,1.16,2.8,2.8,0,0,1-.23,1.12,2.75,2.75,0,0,1-.68.92,3.21,3.21,0,0,1-1.12.63A4.82,4.82,0,0,1,276.29,99.31Z"/><path d="M283,87.35a1.16,1.16,0,0,1-.81-.3,1.05,1.05,0,0,1,0-1.53,1.28,1.28,0,0,1,1.62,0,1.05,1.05,0,0,1,0,1.53A1.16,1.16,0,0,1,283,87.35Zm-.84,11.72V89.35h1.64v9.72Z"/><path d="M290.33,103.55a7.51,7.51,0,0,1-1.64-.17,3.75,3.75,0,0,1-1.27-.51,2.47,2.47,0,0,1-.82-.82,2.06,2.06,0,0,1-.29-1.12,2,2,0,0,1,.38-1.18,4,4,0,0,1,1-1v-.08a1.87,1.87,0,0,1-.61-.61,1.73,1.73,0,0,1-.25-1,1.76,1.76,0,0,1,.34-1.08,2.73,2.73,0,0,1,.72-.72v-.08a4,4,0,0,1-.87-1.07,3,3,0,0,1-.39-1.55,3.37,3.37,0,0,1,.29-1.44,3.09,3.09,0,0,1,.79-1.09,3.42,3.42,0,0,1,1.17-.69,4.09,4.09,0,0,1,1.41-.24,3.67,3.67,0,0,1,.75.07,4.77,4.77,0,0,1,.63.17h3.38v1.26h-2a3.07,3.07,0,0,1,.57.86,2.87,2.87,0,0,1,.23,1.14,3.55,3.55,0,0,1-.28,1.41,3.16,3.16,0,0,1-.76,1.06,3.46,3.46,0,0,1-1.13.67,4,4,0,0,1-1.39.24,3.18,3.18,0,0,1-.74-.09,3.22,3.22,0,0,1-.72-.25,2.25,2.25,0,0,0-.44.49,1.17,1.17,0,0,0-.18.67.94.94,0,0,0,.36.76,2.21,2.21,0,0,0,1.36.3h1.88a4.74,4.74,0,0,1,2.55.55,2,2,0,0,1,.85,1.77,2.7,2.7,0,0,1-.34,1.29,3.42,3.42,0,0,1-1,1.07,5.17,5.17,0,0,1-1.55.73A7.22,7.22,0,0,1,290.33,103.55Zm.24-1.14a4.59,4.59,0,0,0,1.27-.17,3.48,3.48,0,0,0,1-.44,2.18,2.18,0,0,0,.62-.63,1.47,1.47,0,0,0,.22-.74,1,1,0,0,0-.5-.94,3.32,3.32,0,0,0-1.46-.26H290l-.61,0a2.88,2.88,0,0,1-.65-.13,2.58,2.58,0,0,0-.76.8,1.68,1.68,0,0,0-.24.84,1.4,1.4,0,0,0,.75,1.24A3.92,3.92,0,0,0,290.57,102.41Zm-.24-7.52a1.92,1.92,0,0,0,.79-.16,2.25,2.25,0,0,0,.66-.46,2.15,2.15,0,0,0,.45-.73,2.94,2.94,0,0,0,.16-1,2.23,2.23,0,0,0-.6-1.67,2.1,2.1,0,0,0-2.92,0,2.23,2.23,0,0,0-.6,1.67,2.7,2.7,0,0,0,.16,1,1.88,1.88,0,0,0,.45.73,2,2,0,0,0,.66.46A1.89,1.89,0,0,0,290.33,94.89Z"/><path d="M297.13,99.07V89.35h1.36l.14,1.4h.06a7.27,7.27,0,0,1,1.47-1.17,3.39,3.39,0,0,1,1.79-.47,2.63,2.63,0,0,1,2.25,1,4.78,4.78,0,0,1,.71,2.84v6.16h-1.64V93.13a3.51,3.51,0,0,0-.44-2,1.61,1.61,0,0,0-1.4-.61,2.39,2.39,0,0,0-1.34.38A8.38,8.38,0,0,0,298.77,92v7Z"/><path d="M312,99.31a4.77,4.77,0,0,1-1.83-.35,4.31,4.31,0,0,1-1.48-1,4.57,4.57,0,0,1-1-1.59,6,6,0,0,1-.36-2.14,5.81,5.81,0,0,1,.37-2.15,4.89,4.89,0,0,1,1-1.61,4.14,4.14,0,0,1,1.39-1,4,4,0,0,1,1.62-.35,4.15,4.15,0,0,1,1.65.32,3.26,3.26,0,0,1,1.22.92,4.47,4.47,0,0,1,.75,1.44,6.47,6.47,0,0,1,.26,1.88c0,.17,0,.34,0,.51a4,4,0,0,1-.05.43H309a3.77,3.77,0,0,0,1,2.47,3,3,0,0,0,2.27.91,3.88,3.88,0,0,0,1.29-.21,5.61,5.61,0,0,0,1.13-.55l.58,1.08a8.16,8.16,0,0,1-1.42.7A5,5,0,0,1,312,99.31ZM309,93.43h5.2a3.47,3.47,0,0,0-.63-2.25,2.17,2.17,0,0,0-1.77-.77,2.54,2.54,0,0,0-1,.2,2.46,2.46,0,0,0-.85.59,3,3,0,0,0-.63,1A4.07,4.07,0,0,0,309,93.43Z"/><path d="M321.31,99.31A3.59,3.59,0,0,1,318.38,98a5.73,5.73,0,0,1-1.09-3.76,6,6,0,0,1,.35-2.13,5,5,0,0,1,.93-1.61,4,4,0,0,1,1.34-1,3.67,3.67,0,0,1,1.6-.36,3.34,3.34,0,0,1,1.46.3,6.57,6.57,0,0,1,1.26.82l-.08-1.66V84.83h1.66V99.07h-1.36l-.14-1.14h-.06a6.23,6.23,0,0,1-1.33,1A3.35,3.35,0,0,1,321.31,99.31Zm.36-1.38A2.62,2.62,0,0,0,323,97.6a4.67,4.67,0,0,0,1.2-1V91.51a4.22,4.22,0,0,0-1.19-.79,3.17,3.17,0,0,0-1.17-.23,2.29,2.29,0,0,0-1.09.27,2.68,2.68,0,0,0-.89.76,3.59,3.59,0,0,0-.6,1.17,4.81,4.81,0,0,0-.22,1.52,4.63,4.63,0,0,0,.7,2.74A2.28,2.28,0,0,0,321.67,97.93Z"/><path d="M333.93,87.35a1.14,1.14,0,0,1-.81-.3,1.05,1.05,0,0,1,0-1.53,1.18,1.18,0,0,1,.81-.29,1.2,1.2,0,0,1,.81.29,1.05,1.05,0,0,1,0,1.53A1.16,1.16,0,0,1,333.93,87.35Zm-.85,11.72V89.35h1.65v9.72Z"/><path d="M338,99.07V89.35h1.37l.13,1.4h.07A7.27,7.27,0,0,1,341,89.58a3.39,3.39,0,0,1,1.79-.47,2.63,2.63,0,0,1,2.25,1,4.78,4.78,0,0,1,.71,2.84v6.16h-1.64V93.13a3.51,3.51,0,0,0-.44-2,1.61,1.61,0,0,0-1.4-.61,2.45,2.45,0,0,0-1.35.38A8.85,8.85,0,0,0,339.65,92v7Z"/><g id="Rectangle"><rect class="cls-3" x="150.89" y="78.71" width="29" height="29" rx="2.85"/><path class="cls-4" d="M177,79.21a2.41,2.41,0,0,1,2.35,2.35v23.3a2.41,2.41,0,0,1-2.35,2.35h-23.3a2.41,2.41,0,0,1-2.35-2.35V81.56a2.41,2.41,0,0,1,2.35-2.35H177m0-1h-23.3a3.4,3.4,0,0,0-3.35,3.35v23.3a3.4,3.4,0,0,0,3.35,3.35H177a3.4,3.4,0,0,0,3.35-3.35V81.56A3.4,3.4,0,0,0,177,78.21Z"/></g><rect id="Rectangle-2" data-name="Rectangle" class="cls-5" x="141.46" y="68.57" width="48" height="48"/><rect id="Rectangle-3" data-name="Rectangle" class="cls-6" x="141.79" y="68.9" width="47.34" height="47.34"/></svg>