<svg id="Layer_1" data-name="Layer 1" xmlns="http://www.w3.org/2000/svg" viewBox="0 0 480 210"><defs><style>.cls-1{fill:#db0022;}.cls-2{fill:#f5f5f5;}.cls-3{fill:none;stroke:#6e7272;stroke-miterlimit:10;}.cls-4{fill:#a5a8aa;}</style></defs><rect class="cls-1" width="6" height="210"/><rect class="cls-2" x="6" width="475.25" height="210"/><path class="cls-1" d="M33,10.15a15.65,15.65,0,1,0,15.7,15.6A15.73,15.73,0,0,0,33,10.15Z"/><rect class="cls-2" x="23" y="24.16" width="20" height="3.3" transform="translate(-8.58 30.9) rotate(-45)"/><rect class="cls-2" x="31.29" y="15.73" width="3.3" height="20" transform="translate(-8.55 30.83) rotate(-45)"/><path d="M103.71,79.17a3.08,3.08,0,0,1-2.89-1.68l1-.67a2.46,2.46,0,0,0,.8.9,1.82,1.82,0,0,0,1,.28,1.52,1.52,0,0,0,1.27-.52,2.77,2.77,0,0,0,.42-1.72V68.48h1.34v7.41a4.75,4.75,0,0,1-.17,1.27,3,3,0,0,1-.51,1,2.33,2.33,0,0,1-.9.7A3.07,3.07,0,0,1,103.71,79.17Z"/><path d="M112.34,79.17A3.52,3.52,0,0,1,111,78.9a3.33,3.33,0,0,1-1.14-.8,3.67,3.67,0,0,1-.8-1.28,4.84,4.84,0,0,1-.29-1.72,4.9,4.9,0,0,1,.29-1.73,3.81,3.81,0,0,1,.8-1.29,3.33,3.33,0,0,1,1.14-.8,3.52,3.52,0,0,1,1.37-.27,3.56,3.56,0,0,1,1.37.27,3.33,3.33,0,0,1,1.14.8,4,4,0,0,1,.79,1.29,4.68,4.68,0,0,1,.3,1.73,4.63,4.63,0,0,1-.3,1.72,3.8,3.8,0,0,1-.79,1.28,3.33,3.33,0,0,1-1.14.8A3.56,3.56,0,0,1,112.34,79.17Zm0-1.09a1.88,1.88,0,0,0,.91-.22,2,2,0,0,0,.71-.6,3.05,3.05,0,0,0,.46-.94,4.56,4.56,0,0,0,.16-1.22,4.68,4.68,0,0,0-.16-1.22,2.9,2.9,0,0,0-.46-.95,2.1,2.1,0,0,0-.71-.62,2,2,0,0,0-.91-.21,2,2,0,0,0-.92.21,2.2,2.2,0,0,0-.71.62,2.89,2.89,0,0,0-.45.95,4.29,4.29,0,0,0-.16,1.22,4.19,4.19,0,0,0,.16,1.22,3,3,0,0,0,.45.94,2.13,2.13,0,0,0,.71.6A1.92,1.92,0,0,0,112.34,78.08Z"/><path d="M121.14,79.17a4,4,0,0,1-1.47-.28,3.53,3.53,0,0,1-1.18-.8,3.65,3.65,0,0,1-.79-1.27,5.16,5.16,0,0,1,0-3.44,3.82,3.82,0,0,1,.78-1.28,3.24,3.24,0,0,1,1.11-.81,3.11,3.11,0,0,1,1.3-.28,3.27,3.27,0,0,1,1.32.25,2.64,2.64,0,0,1,1,.74,3.4,3.4,0,0,1,.6,1.15,5.06,5.06,0,0,1,.21,1.51c0,.14,0,.27,0,.4a1.69,1.69,0,0,1,0,.35h-5.24a3,3,0,0,0,.77,2,2.4,2.4,0,0,0,1.82.73,2.89,2.89,0,0,0,1-.17,4,4,0,0,0,.9-.44l.47.87a6.72,6.72,0,0,1-1.14.56A4,4,0,0,1,121.14,79.17Zm-2.45-4.71h4.16a2.76,2.76,0,0,0-.51-1.8,1.7,1.7,0,0,0-1.41-.61,2,2,0,0,0-1.47.63,2.6,2.6,0,0,0-.51.76A3.47,3.47,0,0,0,118.69,74.46Z"/><rect class="cls-3" x="86.3" y="54.23" width="320" height="38" rx="4"/><path class="cls-4" d="M104.67,140.89a5,5,0,0,1-2-.42,5.18,5.18,0,0,1-1.63-1.13l.8-.93a4.63,4.63,0,0,0,1.32,1,3.68,3.68,0,0,0,1.58.36,2.54,2.54,0,0,0,1.62-.47,1.54,1.54,0,0,0,.57-1.24,1.56,1.56,0,0,0-.13-.68,1.62,1.62,0,0,0-.37-.48,3.27,3.27,0,0,0-.55-.36l-.69-.34-1.51-.65q-.36-.17-.75-.39a3.29,3.29,0,0,1-.69-.54,2.83,2.83,0,0,1-.49-.76,2.47,2.47,0,0,1-.2-1,2.57,2.57,0,0,1,.25-1.1,2.85,2.85,0,0,1,.69-.89,3,3,0,0,1,1-.58,4,4,0,0,1,1.32-.21,4.17,4.17,0,0,1,1.74.36,4.48,4.48,0,0,1,1.37.93l-.72.87a3.84,3.84,0,0,0-1.07-.73,3.11,3.11,0,0,0-1.32-.26,2.25,2.25,0,0,0-1.41.4,1.35,1.35,0,0,0-.54,1.13,1.3,1.3,0,0,0,.15.65,1.5,1.5,0,0,0,.41.46,3,3,0,0,0,.56.36l.62.28,1.49.64a5.26,5.26,0,0,1,.85.44,3,3,0,0,1,.69.57,2.56,2.56,0,0,1,.45.77,2.66,2.66,0,0,1,.17,1,2.69,2.69,0,0,1-.25,1.16,2.76,2.76,0,0,1-.71,1,3.49,3.49,0,0,1-1.12.64A4.57,4.57,0,0,1,104.67,140.89Z"/><path class="cls-4" d="M112.45,140.89a2.13,2.13,0,0,1-1.82-.77,3.78,3.78,0,0,1-.56-2.27v-4.93h1.32v4.75a2.79,2.79,0,0,0,.35,1.59,1.25,1.25,0,0,0,1.11.49,1.87,1.87,0,0,0,1.07-.31,5.21,5.21,0,0,0,1-1v-5.52h1.31v7.78h-1.09l-.11-1.22h0a4.87,4.87,0,0,1-1.14,1A2.59,2.59,0,0,1,112.45,140.89Z"/><path class="cls-4" d="M118.88,140.7v-7.78H120l.11,1.41h0a3.66,3.66,0,0,1,1-1.17,2,2,0,0,1,1.24-.43,2,2,0,0,1,.83.16l-.26,1.15-.35-.1a2.25,2.25,0,0,0-.4,0,1.79,1.79,0,0,0-1,.4,3.21,3.21,0,0,0-.94,1.39v5Z"/><path class="cls-4" d="M124.43,140.7v-7.78h1.09l.11,1.12h.05a6.41,6.41,0,0,1,1.18-.94,2.7,2.7,0,0,1,1.43-.37,2.07,2.07,0,0,1,1.8.77,3.78,3.78,0,0,1,.57,2.27v4.93h-1.32v-4.76a2.75,2.75,0,0,0-.35-1.59,1.3,1.3,0,0,0-1.12-.49,1.94,1.94,0,0,0-1.07.31,6.73,6.73,0,0,0-1,.89v5.64Z"/><path class="cls-4" d="M135,140.89a2.36,2.36,0,0,1-1.63-.58,2.07,2.07,0,0,1-.64-1.63,2.15,2.15,0,0,1,1.13-2,9.45,9.45,0,0,1,3.63-.95,3.38,3.38,0,0,0-.07-.72,1.85,1.85,0,0,0-.25-.63,1.36,1.36,0,0,0-.48-.44,1.73,1.73,0,0,0-.8-.16,3.12,3.12,0,0,0-1.26.25,6.22,6.22,0,0,0-1.06.58l-.51-.91a7.46,7.46,0,0,1,1.33-.68,4.41,4.41,0,0,1,1.73-.33,2.39,2.39,0,0,1,2.06.87,3.83,3.83,0,0,1,.64,2.33v4.77h-1.09l-.11-.93h0a6.38,6.38,0,0,1-1.2.79A2.92,2.92,0,0,1,135,140.89Zm.38-1.06a2.31,2.31,0,0,0,1.06-.26,5.44,5.44,0,0,0,1.05-.78v-2.16a13.85,13.85,0,0,0-1.64.31,4.06,4.06,0,0,0-1.07.41,1.66,1.66,0,0,0-.59.55,1.36,1.36,0,0,0-.18.68,1.11,1.11,0,0,0,.39,1A1.6,1.6,0,0,0,135.36,139.83Z"/><path class="cls-4" d="M141.25,140.7v-7.78h1.09l.11,1.12h.05a5.43,5.43,0,0,1,1.11-.94,2.39,2.39,0,0,1,1.3-.37,2.22,2.22,0,0,1,1.4.39,2.26,2.26,0,0,1,.75,1.1,6.27,6.27,0,0,1,1.22-1.08,2.32,2.32,0,0,1,1.34-.41,2.07,2.07,0,0,1,1.78.77,3.71,3.71,0,0,1,.58,2.27v4.93h-1.31v-4.76a2.84,2.84,0,0,0-.35-1.59,1.26,1.26,0,0,0-1.09-.49,2.91,2.91,0,0,0-1.95,1.2v5.64H146v-4.76a2.84,2.84,0,0,0-.35-1.59,1.3,1.3,0,0,0-1.11-.49,2.91,2.91,0,0,0-1.95,1.2v5.64Z"/><path class="cls-4" d="M157.67,140.89a3.74,3.74,0,0,1-1.47-.28,3.43,3.43,0,0,1-1.18-.8,3.65,3.65,0,0,1-.79-1.27,4.63,4.63,0,0,1-.29-1.72,4.88,4.88,0,0,1,.29-1.72,4,4,0,0,1,.79-1.28,3.12,3.12,0,0,1,1.11-.81,3.06,3.06,0,0,1,1.29-.28,3.29,3.29,0,0,1,1.33.25,2.73,2.73,0,0,1,1,.74,3.4,3.4,0,0,1,.6,1.15,5.06,5.06,0,0,1,.21,1.51c0,.14,0,.27,0,.4a1.69,1.69,0,0,1,0,.35h-5.25a3,3,0,0,0,.78,2,2.38,2.38,0,0,0,1.82.73,2.89,2.89,0,0,0,1-.17,4.16,4.16,0,0,0,.9-.44l.47.87a7.55,7.55,0,0,1-1.14.56A4,4,0,0,1,157.67,140.89Zm-2.45-4.71h4.16a2.8,2.8,0,0,0-.51-1.8,1.7,1.7,0,0,0-1.41-.61,1.92,1.92,0,0,0-.79.16,2,2,0,0,0-.68.47,2.42,2.42,0,0,0-.51.76A3.47,3.47,0,0,0,155.22,136.18Z"/><rect class="cls-3" x="86.3" y="116.98" width="320" height="38" rx="4"/></svg>