<?xml version="1.0" encoding="utf-8"?>
<!-- Generator: Adobe Illustrator 24.1.2, SVG Export Plug-In . SVG Version: 6.00 Build 0)  -->
<svg version="1.1" id="Layer_1" xmlns="http://www.w3.org/2000/svg" xmlns:xlink="http://www.w3.org/1999/xlink" x="0px" y="0px"
	 viewBox="0 0 500 270" style="enable-background:new 0 0 500 270;" xml:space="preserve">
<style type="text/css">
	.st0{fill:#EE020A;}
	.st1{fill:#F5F5F5;}
	.st2{fill-rule:evenodd;clip-rule:evenodd;fill:#FFFFFF;stroke:#6E7272;}
	.st3{fill:#005FC6;}
	.st4{fill:#FFFFFF;}
</style>
<rect id="Rectangle" class="st0" width="6" height="270"/>
<rect id="Rectangle_1_" x="6" class="st1" width="495" height="270"/>
<path id="Path" class="st0" d="M33.5,12C25,12,18,18.9,18,27.5S24.9,43,33.5,43S49,36.1,49,27.5S42,12,33.5,12z"/>
<g id="Group" transform="translate(25.000000, 19.000000)">
	
		<rect id="Rectangle_2_" x="-1.1" y="6.7" transform="matrix(0.7071 -0.7071 0.7071 0.7071 -3.3077 8.7369)" class="st1" width="20" height="3.3"/>
	
		<rect id="Rectangle_3_" x="7.2" y="-1.7" transform="matrix(0.7071 -0.7071 0.7071 0.7071 -3.2698 8.6941)" class="st1" width="3.3" height="20"/>
</g>
<path id="Accountstatus" d="M196.8,51l1.3-4h4.8l1.2,4h1.8l-4.4-13.1h-1.9L195.1,51H196.8z M202.4,45.7h-3.9l0.6-2
	c0.2-0.7,0.5-1.5,0.7-2.2s0.4-1.5,0.6-2.2l0,0h0.1c0.2,0.8,0.4,1.5,0.6,2.2c0.2,0.7,0.4,1.5,0.7,2.2l0,0L202.4,45.7z M211.4,51.2
	c0.6,0,1.1-0.1,1.7-0.3c0.5-0.2,1-0.5,1.5-0.9l0,0l-0.7-1.1c-0.3,0.3-0.6,0.5-1,0.7s-0.8,0.3-1.2,0.3s-0.8-0.1-1.2-0.3
	s-0.7-0.4-0.9-0.8c-0.3-0.3-0.5-0.7-0.6-1.2s-0.2-1-0.2-1.5s0.1-1.1,0.2-1.5c0.2-0.5,0.4-0.9,0.6-1.2c0.3-0.3,0.6-0.6,1-0.8
	s0.8-0.3,1.2-0.3s0.7,0.1,1.1,0.2c0.3,0.2,0.6,0.4,0.9,0.6l0,0l0.8-1.1c-0.3-0.3-0.7-0.6-1.2-0.8s-1-0.3-1.6-0.3s-1.2,0.1-1.8,0.3
	s-1.1,0.6-1.5,1s-0.8,1-1,1.6c-0.3,0.6-0.4,1.4-0.4,2.2s0.1,1.5,0.3,2.2c0.2,0.6,0.6,1.2,1,1.6s0.9,0.8,1.4,1
	C210.1,51.1,210.7,51.2,211.4,51.2z M220.1,51.2c0.6,0,1.1-0.1,1.7-0.3c0.5-0.2,1-0.5,1.5-0.9l0,0l-0.7-1.1c-0.3,0.3-0.6,0.5-1,0.7
	s-0.8,0.3-1.2,0.3s-0.8-0.1-1.2-0.3s-0.7-0.4-0.9-0.8c-0.3-0.3-0.5-0.7-0.6-1.2s-0.2-1-0.2-1.5s0.1-1.1,0.2-1.5
	c0.2-0.5,0.4-0.9,0.6-1.2c0.3-0.3,0.6-0.6,1-0.8s0.8-0.3,1.2-0.3s0.7,0.1,1,0.2c0.3,0.2,0.6,0.4,0.9,0.6l0,0l0.8-1.1
	c-0.3-0.3-0.7-0.6-1.2-0.8s-1-0.3-1.6-0.3s-1.2,0.1-1.8,0.3s-1.1,0.6-1.5,1s-0.8,1-1,1.6c-0.3,0.6-0.4,1.4-0.4,2.2s0.1,1.5,0.4,2.2
	c0.2,0.6,0.6,1.2,1,1.6s0.9,0.8,1.4,1C218.8,51.1,219.4,51.2,220.1,51.2z M228.7,51.2c0.6,0,1.2-0.1,1.7-0.3s1-0.6,1.4-1
	s0.7-1,1-1.6c0.2-0.6,0.4-1.4,0.4-2.2s-0.1-1.5-0.4-2.2c-0.2-0.6-0.6-1.2-1-1.6c-0.4-0.4-0.9-0.8-1.4-1s-1.1-0.3-1.7-0.3
	c-0.6,0-1.2,0.1-1.7,0.3s-1,0.6-1.4,1s-0.7,1-1,1.6c-0.2,0.6-0.4,1.4-0.4,2.2s0.1,1.5,0.4,2.2c0.2,0.6,0.6,1.2,1,1.6s0.9,0.8,1.4,1
	C227.5,51.1,228.1,51.2,228.7,51.2z M228.7,49.9c-0.4,0-0.8-0.1-1.1-0.3s-0.6-0.4-0.9-0.8c-0.2-0.3-0.4-0.7-0.6-1.2
	c-0.1-0.5-0.2-1-0.2-1.5s0.1-1.1,0.2-1.5c0.1-0.5,0.3-0.9,0.6-1.2c0.2-0.3,0.5-0.6,0.9-0.8c0.3-0.2,0.7-0.3,1.1-0.3s0.8,0.1,1.1,0.3
	s0.6,0.4,0.9,0.8c0.2,0.3,0.4,0.7,0.6,1.2c0.1,0.5,0.2,1,0.2,1.5s-0.1,1.1-0.2,1.5s-0.3,0.8-0.6,1.2c-0.2,0.3-0.5,0.6-0.9,0.8
	S229.1,49.9,228.7,49.9z M238.6,51.2c0.7,0,1.3-0.2,1.8-0.5s1-0.7,1.4-1.3l0,0h0.1L242,51h1.4v-9.7h-1.6v6.9c-0.5,0.6-0.9,1-1.3,1.2
	c-0.4,0.3-0.8,0.4-1.3,0.4c-0.6,0-1.1-0.2-1.4-0.6s-0.4-1.1-0.4-2l0,0v-5.9h-1.7v6.2c0,1.3,0.2,2.2,0.7,2.8S237.6,51.2,238.6,51.2z
	 M248.3,51v-7c0.5-0.5,0.9-0.9,1.3-1.1c0.4-0.3,0.8-0.4,1.3-0.4c0.6,0,1.1,0.2,1.4,0.6s0.4,1.1,0.4,2l0,0V51h1.6v-6.2
	c0-1.3-0.2-2.2-0.7-2.8s-1.2-1-2.2-1c-0.7,0-1.3,0.2-1.8,0.5s-1,0.7-1.5,1.2l0,0H248l-0.1-1.4h-1.4V51H248.3z M260.6,51.2
	c0.3,0,0.6,0,0.9-0.1s0.6-0.2,0.9-0.2l0,0l-0.3-1.2c-0.2,0.1-0.3,0.1-0.5,0.2S261.2,50,261,50c-0.6,0-0.9-0.2-1.2-0.5
	c-0.3-0.3-0.3-0.8-0.3-1.4l0,0v-5.4h2.6v-1.3h-2.6v-2.7h-1.4l-0.2,2.7l-1.5,0.1v1.2h1.4V48c0,0.5,0,0.9,0.1,1.3
	c0.1,0.4,0.2,0.7,0.5,1c0.3,0.3,0.5,0.5,0.9,0.7C259.7,51.2,260.1,51.2,260.6,51.2z M270.9,51.2c0.6,0,1.1-0.1,1.5-0.2
	c0.4-0.2,0.8-0.4,1.1-0.6s0.5-0.6,0.7-0.9c0.2-0.3,0.2-0.7,0.2-1.1c0-0.5-0.1-0.8-0.3-1.2c-0.2-0.3-0.4-0.6-0.7-0.8
	c-0.3-0.2-0.6-0.4-1-0.5s-0.7-0.3-1-0.4c-0.3-0.1-0.6-0.2-0.8-0.3c-0.3-0.1-0.5-0.2-0.7-0.3s-0.4-0.3-0.5-0.4
	c-0.1-0.2-0.2-0.4-0.2-0.6c0-0.4,0.1-0.7,0.4-1s0.7-0.4,1.4-0.4c0.4,0,0.8,0.1,1.2,0.2c0.4,0.2,0.7,0.4,1,0.6l0,0l0.8-1
	c-0.4-0.3-0.8-0.6-1.3-0.8s-1.1-0.3-1.7-0.3c-0.5,0-1,0.1-1.4,0.2s-0.8,0.3-1,0.6c-0.3,0.2-0.5,0.5-0.7,0.9s-0.2,0.7-0.2,1.1
	c0,0.4,0.1,0.8,0.3,1.1c0.2,0.3,0.4,0.5,0.7,0.8c0.3,0.2,0.6,0.4,0.9,0.6c0.3,0.2,0.7,0.3,1,0.4l0,0l0.8,0.3
	c0.3,0.1,0.5,0.2,0.7,0.4s0.4,0.3,0.5,0.5s0.2,0.4,0.2,0.7c0,0.4-0.2,0.8-0.5,1.1s-0.8,0.4-1.4,0.4s-1.1-0.1-1.5-0.3
	s-0.9-0.5-1.3-0.8l0,0l-0.8,1.1c0.5,0.4,1,0.7,1.6,1C269.5,51.1,270.2,51.2,270.9,51.2z M279.4,51.2c0.3,0,0.6,0,0.9-0.1
	s0.6-0.2,0.9-0.2l0,0l-0.3-1.2c-0.2,0.1-0.3,0.1-0.5,0.2c-0.2,0.1-0.4,0.1-0.6,0.1c-0.6,0-1-0.2-1.2-0.5s-0.3-0.8-0.3-1.4l0,0v-5.4
	h2.6v-1.3h-2.6v-2.7h-1.4l-0.2,2.7l-1.5,0.1v1.2h1.4V48c0,0.5,0,0.9,0.1,1.3c0.1,0.4,0.2,0.7,0.5,1s0.5,0.5,0.9,0.7
	S278.9,51.2,279.4,51.2z M284.9,51.2c0.6,0,1.2-0.1,1.7-0.4c0.5-0.3,1-0.6,1.5-1l0,0h0.1l0.1,1.2h1.4v-6c0-1.2-0.3-2.2-0.8-2.9
	s-1.4-1.1-2.6-1.1c-0.8,0-1.5,0.1-2.2,0.4c-0.7,0.3-1.2,0.6-1.7,0.8l0,0l0.6,1.1c0.4-0.3,0.8-0.5,1.3-0.7s1-0.3,1.6-0.3
	c0.4,0,0.7,0.1,1,0.2c0.3,0.1,0.5,0.3,0.6,0.5s0.2,0.5,0.3,0.8c0.1,0.3,0.1,0.6,0.1,0.9c-2.1,0.2-3.6,0.6-4.5,1.2
	c-0.9,0.6-1.4,1.4-1.4,2.5c0,0.9,0.3,1.6,0.8,2S284.1,51.2,284.9,51.2z M285.4,49.9c-0.5,0-0.9-0.1-1.2-0.4
	c-0.3-0.2-0.5-0.6-0.5-1.2c0-0.3,0.1-0.6,0.2-0.9c0.2-0.3,0.4-0.5,0.7-0.7s0.8-0.4,1.3-0.5s1.2-0.3,2-0.4l0,0v2.7
	c-0.5,0.4-0.9,0.8-1.3,1S285.8,49.9,285.4,49.9z M295.5,51.2c0.3,0,0.6,0,0.9-0.1s0.6-0.2,0.9-0.2l0,0l-0.3-1.2
	c-0.2,0.1-0.3,0.1-0.5,0.2c-0.2,0.1-0.4,0.1-0.6,0.1c-0.6,0-0.9-0.2-1.2-0.5s-0.3-0.8-0.3-1.4l0,0v-5.4h2.6v-1.3h-2.6v-2.7H293
	l-0.2,2.7l-1.5,0.1v1.2h1.4V48c0,0.5,0,0.9,0.1,1.3s0.2,0.7,0.5,1s0.5,0.5,0.9,0.7S295,51.2,295.5,51.2z M302.1,51.2
	c0.7,0,1.3-0.2,1.8-0.5s1-0.7,1.4-1.3l0,0h0.1l0.1,1.5h1.4v-9.7h-1.6v6.9c-0.5,0.6-0.9,1-1.3,1.2c-0.4,0.3-0.8,0.4-1.3,0.4
	c-0.6,0-1.1-0.2-1.4-0.6c-0.3-0.4-0.4-1.1-0.4-2l0,0v-5.9h-1.7v6.2c0,1.3,0.2,2.2,0.7,2.8S301,51.2,302.1,51.2z M312.6,51.2
	c0.6,0,1.1-0.1,1.5-0.2c0.4-0.2,0.8-0.4,1.1-0.6c0.3-0.3,0.5-0.6,0.7-0.9c0.2-0.3,0.2-0.7,0.2-1.1c0-0.5-0.1-0.8-0.3-1.2
	s-0.4-0.6-0.7-0.8c-0.3-0.2-0.6-0.4-0.9-0.5s-0.7-0.3-1.1-0.4c-0.3-0.1-0.5-0.2-0.8-0.3s-0.5-0.2-0.7-0.3s-0.4-0.3-0.5-0.4
	c-0.1-0.2-0.2-0.4-0.2-0.6c0-0.4,0.1-0.7,0.4-1s0.7-0.4,1.3-0.4c0.4,0,0.8,0.1,1.2,0.2c0.4,0.2,0.7,0.4,1,0.6l0,0l0.8-1
	c-0.4-0.3-0.8-0.6-1.3-0.8s-1.1-0.3-1.7-0.3c-0.5,0-1,0.1-1.4,0.2s-0.8,0.3-1,0.6c-0.3,0.2-0.5,0.5-0.7,0.9
	c-0.2,0.3-0.2,0.7-0.2,1.1c0,0.4,0.1,0.8,0.3,1.1c0.2,0.3,0.4,0.5,0.7,0.8c0.3,0.2,0.6,0.4,0.9,0.6c0.3,0.2,0.7,0.3,1,0.4l0,0
	l0.8,0.3c0.3,0.1,0.5,0.2,0.7,0.4s0.4,0.3,0.5,0.5s0.2,0.4,0.2,0.7c0,0.4-0.2,0.8-0.5,1.1s-0.8,0.4-1.4,0.4s-1.1-0.1-1.6-0.3
	c-0.4-0.2-0.9-0.5-1.3-0.8l0,0l-0.8,1.1c0.5,0.4,1,0.7,1.6,1S311.9,51.2,312.6,51.2z"/>
<path id="Active" d="M247.8,99l1.3-4h4.8l1.2,4h1.8l-4.4-13.1h-1.9L246.1,99H247.8z M253.4,93.7h-3.9l0.6-2c0.2-0.7,0.5-1.5,0.7-2.2
	s0.4-1.5,0.6-2.2l0,0h0.1c0.2,0.8,0.4,1.5,0.6,2.2c0.2,0.7,0.4,1.5,0.7,2.2l0,0L253.4,93.7z M262.4,99.2c0.6,0,1.1-0.1,1.7-0.3
	c0.5-0.2,1-0.5,1.5-0.9l0,0l-0.7-1.1c-0.3,0.3-0.6,0.5-1,0.7s-0.8,0.3-1.2,0.3c-0.4,0-0.8-0.1-1.2-0.3s-0.7-0.4-1-0.8
	c-0.3-0.3-0.5-0.7-0.6-1.2s-0.2-1-0.2-1.5c0-0.6,0.1-1.1,0.2-1.5s0.4-0.9,0.6-1.2c0.3-0.3,0.6-0.6,1-0.8c0.4-0.2,0.8-0.3,1.2-0.3
	c0.4,0,0.7,0.1,1,0.2c0.3,0.2,0.6,0.4,0.9,0.6l0,0l0.8-1.1c-0.3-0.3-0.7-0.6-1.2-0.8c-0.5-0.2-1-0.3-1.6-0.3s-1.2,0.1-1.8,0.3
	c-0.6,0.2-1.1,0.6-1.5,1s-0.8,1-1,1.6c-0.3,0.6-0.4,1.4-0.4,2.2c0,0.8,0.1,1.5,0.3,2.1c0.2,0.6,0.6,1.2,1,1.6c0.4,0.4,0.9,0.8,1.4,1
	C261.1,99.1,261.7,99.2,262.4,99.2z M270.5,99.2c0.3,0,0.6,0,0.9-0.1s0.6-0.2,0.9-0.2l0,0l-0.3-1.2c-0.2,0.1-0.3,0.1-0.5,0.2
	s-0.4,0.1-0.6,0.1c-0.6,0-1-0.2-1.2-0.5s-0.3-0.8-0.3-1.4l0,0v-5.4h2.6v-1.3h-2.6v-2.7H268l-0.2,2.7l-1.5,0.1v1.2h1.4V96
	c0,0.5,0,0.9,0.1,1.3s0.2,0.7,0.5,1c0.2,0.3,0.5,0.5,0.9,0.7S270,99.2,270.5,99.2z M275,87.3c0.3,0,0.6-0.1,0.8-0.3
	c0.2-0.2,0.3-0.5,0.3-0.8s-0.1-0.6-0.3-0.8c-0.2-0.2-0.5-0.3-0.8-0.3s-0.6,0.1-0.8,0.3c-0.2,0.2-0.3,0.5-0.3,0.8s0.1,0.6,0.3,0.8
	C274.5,87.2,274.7,87.3,275,87.3z M275.8,99v-9.7h-1.6V99H275.8z M283.1,99l3.4-9.7H285l-1.8,5.5l0,0l-0.4,1.4
	c-0.1,0.5-0.3,1-0.4,1.4l0,0h-0.1c-0.1-0.5-0.3-0.9-0.5-1.4s-0.3-1-0.4-1.4l0,0l-1.8-5.5h-1.7l3.5,9.7H283.1z M292.3,99.2
	c0.7,0,1.3-0.1,1.8-0.3c0.5-0.2,1-0.4,1.4-0.7l0,0l-0.6-1.1c-0.4,0.2-0.7,0.4-1.1,0.5s-0.8,0.2-1.3,0.2c-0.9,0-1.7-0.3-2.3-0.9
	s-0.9-1.4-1-2.5l0,0h6.6c0-0.1,0-0.3,0.1-0.4c0-0.2,0-0.3,0-0.5c0-0.7-0.1-1.3-0.3-1.9c-0.2-0.6-0.4-1-0.8-1.4
	c-0.3-0.4-0.7-0.7-1.2-0.9c-0.5-0.2-1-0.3-1.7-0.3c-0.6,0-1.1,0.1-1.6,0.3c-0.5,0.2-1,0.6-1.4,1s-0.7,1-1,1.6
	c-0.2,0.6-0.4,1.3-0.4,2.2c0,0.8,0.1,1.5,0.4,2.1c0.2,0.6,0.6,1.2,1,1.6s0.9,0.8,1.5,1C291.1,99.1,291.7,99.2,292.3,99.2z
	 M294.5,93.4h-5.2c0.1-0.5,0.2-0.9,0.3-1.3c0.2-0.4,0.4-0.7,0.6-1c0.3-0.3,0.5-0.5,0.9-0.6c0.3-0.1,0.6-0.2,1-0.2
	c0.8,0,1.4,0.3,1.8,0.8C294.2,91.6,294.5,92.4,294.5,93.4L294.5,93.4z"/>
<path id="Locked" d="M255.2,156v-1.4h-5.7v-11.7h-1.7V156H255.2z M260.9,156.2c0.6,0,1.2-0.1,1.7-0.3s1-0.6,1.4-1s0.7-1,1-1.6
	s0.4-1.3,0.4-2.1s-0.1-1.5-0.4-2.2s-0.6-1.2-1-1.6s-0.9-0.8-1.4-1s-1.1-0.3-1.7-0.3s-1.2,0.1-1.7,0.3s-1,0.6-1.4,1
	c-0.4,0.4-0.7,1-1,1.6c-0.2,0.6-0.4,1.4-0.4,2.2s0.1,1.5,0.4,2.1c0.2,0.6,0.6,1.2,1,1.6c0.4,0.4,0.9,0.8,1.4,1
	C259.7,156.1,260.3,156.2,260.9,156.2z M260.9,154.9c-0.4,0-0.8-0.1-1.1-0.3c-0.3-0.2-0.6-0.4-0.9-0.8c-0.2-0.3-0.4-0.7-0.6-1.2
	c-0.1-0.5-0.2-1-0.2-1.5s0.1-1.1,0.2-1.5c0.1-0.5,0.3-0.9,0.6-1.2c0.2-0.3,0.5-0.6,0.9-0.8c0.3-0.2,0.7-0.3,1.1-0.3s0.8,0.1,1.1,0.3
	c0.3,0.2,0.6,0.4,0.9,0.8s0.4,0.7,0.6,1.2c0.1,0.5,0.2,1,0.2,1.5s-0.1,1.1-0.2,1.5c-0.1,0.5-0.3,0.8-0.6,1.2
	c-0.2,0.3-0.5,0.6-0.9,0.8C261.7,154.8,261.3,154.9,260.9,154.9z M271.8,156.2c0.6,0,1.1-0.1,1.7-0.3c0.5-0.2,1-0.5,1.5-0.9l0,0
	l-0.7-1.1c-0.3,0.3-0.6,0.5-1,0.7s-0.8,0.3-1.2,0.3c-0.4,0-0.8-0.1-1.2-0.3c-0.4-0.2-0.7-0.4-1-0.8c-0.3-0.3-0.5-0.7-0.6-1.2
	s-0.2-1-0.2-1.5s0.1-1.1,0.2-1.5c0.2-0.5,0.4-0.9,0.6-1.2c0.3-0.3,0.6-0.6,1-0.8s0.8-0.3,1.2-0.3c0.4,0,0.7,0.1,1,0.2
	s0.6,0.4,0.9,0.6l0,0l0.8-1.1c-0.3-0.3-0.7-0.6-1.2-0.8s-1-0.3-1.6-0.3s-1.2,0.1-1.8,0.3c-0.6,0.2-1.1,0.6-1.5,1s-0.8,1-1,1.6
	s-0.4,1.4-0.4,2.2s0.1,1.5,0.4,2.1s0.6,1.2,1,1.6c0.4,0.4,0.9,0.8,1.5,1C270.6,156.1,271.2,156.2,271.8,156.2z M278.7,156v-2.6
	l1.8-2.1l2.8,4.7h1.8l-3.7-5.8l3.3-3.9h-1.8l-4.1,5.1h-0.1v-9.6h-1.6V156H278.7z M290.6,156.2c0.7,0,1.3-0.1,1.8-0.3s1-0.4,1.4-0.7
	l0,0l-0.6-1.1c-0.4,0.2-0.7,0.4-1.1,0.6c-0.4,0.1-0.8,0.2-1.3,0.2c-0.9,0-1.7-0.3-2.3-0.9c-0.6-0.6-0.9-1.4-1-2.5l0,0h6.6
	c0-0.1,0-0.3,0.1-0.4c0-0.2,0-0.3,0-0.5c0-0.7-0.1-1.3-0.3-1.9s-0.4-1-0.8-1.4s-0.7-0.7-1.2-0.9s-1-0.3-1.6-0.3s-1.1,0.1-1.6,0.4
	c-0.5,0.2-1,0.6-1.4,1s-0.7,1-1,1.6c-0.2,0.6-0.4,1.4-0.4,2.2s0.1,1.5,0.4,2.1c0.2,0.6,0.6,1.2,1,1.6s0.9,0.8,1.5,1
	C289.3,156.1,289.9,156.2,290.6,156.2z M292.7,150.4h-5.2c0.1-0.5,0.2-0.9,0.3-1.3c0.2-0.4,0.4-0.7,0.6-0.9c0.3-0.3,0.5-0.5,0.9-0.6
	c0.3-0.1,0.6-0.2,1-0.2c0.8,0,1.4,0.3,1.8,0.8C292.5,148.6,292.7,149.4,292.7,150.4L292.7,150.4z M299.9,156.2
	c0.6,0,1.1-0.1,1.6-0.4s0.9-0.6,1.3-1l0,0h0.1l0.1,1.1h1.4v-14.2h-1.7v3.7l0.1,1.7c-0.4-0.3-0.8-0.6-1.3-0.8s-0.9-0.3-1.5-0.3
	s-1.1,0.1-1.6,0.4c-0.5,0.2-1,0.6-1.3,1s-0.7,1-0.9,1.6s-0.4,1.3-0.4,2.1c0,1.6,0.4,2.9,1.1,3.8
	C297.7,155.8,298.6,156.2,299.9,156.2z M300.2,154.9c-0.9,0-1.5-0.3-2-1s-0.7-1.6-0.7-2.7c0-0.6,0.1-1.1,0.2-1.5
	c0.1-0.5,0.3-0.8,0.6-1.2c0.3-0.3,0.6-0.6,0.9-0.8s0.7-0.3,1.1-0.3s0.8,0.1,1.2,0.2c0.4,0.2,0.8,0.4,1.2,0.8l0,0v5.1
	c-0.4,0.5-0.8,0.8-1.2,1S300.7,154.9,300.2,154.9z"/>
<path id="Closed" d="M252.8,211.2c0.9,0,1.6-0.2,2.3-0.5s1.2-0.8,1.8-1.4l0,0l-0.9-1c-0.4,0.5-0.9,0.8-1.4,1.1s-1,0.4-1.7,0.4
	c-0.6,0-1.2-0.1-1.7-0.4c-0.5-0.3-0.9-0.6-1.3-1.1c-0.3-0.5-0.6-1-0.8-1.7s-0.3-1.4-0.3-2.2s0.1-1.5,0.3-2.2s0.5-1.2,0.8-1.7
	c0.4-0.5,0.8-0.8,1.3-1.1c0.5-0.2,1.1-0.4,1.7-0.4c0.6,0,1.1,0.1,1.5,0.3s0.8,0.5,1.2,0.9l0,0l0.9-1.1c-0.4-0.4-0.9-0.8-1.5-1.1
	s-1.3-0.5-2.1-0.5s-1.6,0.2-2.3,0.5s-1.3,0.8-1.8,1.4c-0.5,0.6-0.9,1.3-1.2,2.1s-0.4,1.8-0.4,2.8c0,1.1,0.1,2,0.4,2.9
	s0.7,1.6,1.2,2.1s1.1,1,1.8,1.3C251.2,211.1,251.9,211.2,252.8,211.2z M260.8,211.2c0.2,0,0.4,0,0.6,0c0.1,0,0.3-0.1,0.4-0.1l0,0
	l-0.2-1.2c-0.1,0-0.2,0-0.2,0l0,0h-0.1c-0.1,0-0.2-0.1-0.3-0.2c-0.1-0.1-0.1-0.3-0.1-0.6l0,0v-12.4h-1.6V209c0,0.7,0.1,1.3,0.4,1.6
	C259.7,211.1,260.2,211.2,260.8,211.2z M267.9,211.2c0.6,0,1.2-0.1,1.7-0.3s1-0.6,1.4-1s0.7-1,1-1.6s0.4-1.3,0.4-2.1
	s-0.1-1.5-0.4-2.2s-0.6-1.2-1-1.6c-0.4-0.4-0.9-0.8-1.4-1s-1.1-0.3-1.7-0.3s-1.2,0.1-1.7,0.3s-1,0.6-1.4,1s-0.7,1-1,1.6
	s-0.4,1.4-0.4,2.2s0.1,1.5,0.4,2.1s0.6,1.2,1,1.6s0.9,0.8,1.4,1C266.8,211.1,267.3,211.2,267.9,211.2z M267.9,209.9
	c-0.4,0-0.8-0.1-1.1-0.3c-0.3-0.2-0.6-0.4-0.9-0.8c-0.2-0.3-0.4-0.7-0.6-1.2c-0.1-0.5-0.2-1-0.2-1.5s0.1-1.1,0.2-1.5
	c0.1-0.5,0.3-0.9,0.6-1.2s0.5-0.6,0.9-0.8c0.3-0.2,0.7-0.3,1.1-0.3s0.8,0.1,1.1,0.3c0.3,0.2,0.6,0.4,0.9,0.8s0.4,0.7,0.6,1.2
	c0.1,0.5,0.2,1,0.2,1.5s-0.1,1.1-0.2,1.5c-0.1,0.5-0.3,0.8-0.6,1.2c-0.2,0.3-0.5,0.6-0.9,0.8C268.7,209.8,268.4,209.9,267.9,209.9z
	 M277.5,211.2c0.6,0,1.1-0.1,1.5-0.2c0.4-0.2,0.8-0.4,1.1-0.6c0.3-0.3,0.5-0.6,0.7-0.9c0.2-0.3,0.2-0.7,0.2-1.1
	c0-0.5-0.1-0.8-0.3-1.2c-0.2-0.3-0.4-0.6-0.7-0.8c-0.3-0.2-0.6-0.4-1-0.5s-0.7-0.3-1-0.4c-0.3-0.1-0.6-0.2-0.8-0.3
	c-0.3-0.1-0.5-0.2-0.7-0.3s-0.4-0.3-0.5-0.4s-0.2-0.4-0.2-0.6c0-0.4,0.1-0.7,0.4-1s0.7-0.4,1.4-0.4c0.4,0,0.8,0.1,1.2,0.2
	c0.4,0.2,0.7,0.4,1,0.6l0,0l0.8-1c-0.4-0.3-0.8-0.6-1.3-0.8s-1.1-0.3-1.7-0.3c-0.5,0-1,0.1-1.4,0.2s-0.8,0.3-1,0.6
	c-0.3,0.2-0.5,0.5-0.7,0.9c-0.2,0.3-0.2,0.7-0.2,1.1c0,0.4,0.1,0.8,0.3,1.1s0.4,0.6,0.7,0.8c0.3,0.2,0.6,0.4,0.9,0.6
	c0.3,0.2,0.7,0.3,1,0.4l0,0l0.8,0.3c0.3,0.1,0.5,0.2,0.7,0.4s0.4,0.3,0.5,0.5s0.2,0.4,0.2,0.7c0,0.4-0.2,0.8-0.5,1.1
	s-0.8,0.4-1.4,0.4s-1.1-0.1-1.6-0.3c-0.4-0.2-0.9-0.5-1.3-0.8l0,0l-0.8,1.1c0.5,0.4,1,0.7,1.6,1S276.8,211.2,277.5,211.2z
	 M287.3,211.2c0.7,0,1.3-0.1,1.8-0.3s1-0.4,1.4-0.7l0,0l-0.6-1.1c-0.4,0.2-0.7,0.4-1.1,0.6s-0.8,0.2-1.3,0.2c-0.9,0-1.7-0.3-2.3-0.9
	c-0.6-0.6-0.9-1.4-1-2.5l0,0h6.6c0-0.1,0-0.3,0.1-0.4c0-0.2,0-0.3,0-0.5c0-0.7-0.1-1.3-0.3-1.9c-0.2-0.6-0.4-1-0.8-1.4
	c-0.3-0.4-0.7-0.7-1.2-0.9s-1-0.3-1.7-0.3c-0.6,0-1.1,0.1-1.6,0.4c-0.5,0.2-1,0.6-1.4,1s-0.7,1-1,1.6s-0.4,1.4-0.4,2.2
	s0.1,1.5,0.4,2.1c0.2,0.6,0.6,1.2,1,1.6c0.4,0.4,0.9,0.8,1.5,1C286.1,211.1,286.7,211.2,287.3,211.2z M289.5,205.4h-5.2
	c0.1-0.5,0.2-0.9,0.3-1.3s0.4-0.7,0.6-0.9c0.3-0.3,0.5-0.5,0.9-0.6c0.3-0.1,0.6-0.2,1-0.2c0.8,0,1.4,0.3,1.8,0.8
	C289.2,203.6,289.5,204.4,289.5,205.4L289.5,205.4z M296.6,211.2c0.6,0,1.1-0.1,1.6-0.4s0.9-0.6,1.3-1l0,0h0.1l0.1,1.1h1.4v-14.2
	h-1.7v3.7l0.1,1.7c-0.4-0.3-0.8-0.6-1.3-0.8s-0.9-0.3-1.5-0.3s-1.1,0.1-1.6,0.4c-0.5,0.2-1,0.6-1.3,1s-0.7,1-0.9,1.6
	c-0.2,0.6-0.4,1.3-0.4,2.1c0,1.6,0.4,2.9,1.1,3.8C294.4,210.8,295.4,211.2,296.6,211.2z M297,209.9c-0.9,0-1.5-0.3-2-1
	s-0.7-1.6-0.7-2.7c0-0.6,0.1-1.1,0.2-1.5c0.1-0.5,0.3-0.8,0.6-1.2c0.3-0.3,0.6-0.6,0.9-0.8s0.7-0.3,1.1-0.3s0.8,0.1,1.2,0.2
	c0.4,0.2,0.8,0.4,1.2,0.8l0,0v5.1c-0.4,0.5-0.8,0.8-1.2,1C297.9,209.8,297.4,209.9,297,209.9z"/>
<path id="Rectangle_6_" class="st2" d="M200.6,188h25.7c2,0,3.7,1.7,3.7,3.7v25.7c0,2-1.7,3.7-3.7,3.7h-25.7c-2,0-3.7-1.7-3.7-3.7
	v-25.7C196.9,189.8,198.6,188,200.6,188z"/>
<g id="Group_4_" transform="translate(132.000000, 130.000000)">
	<g id="checked_3_">
		<path id="Shape_3_" class="st3" d="M94.7,2.4H68.2c-2.1,0-3.8,1.7-3.8,3.8v26.5c0,2,1.7,3.7,3.8,3.7h26.5c2.1,0,3.8-1.7,3.8-3.8
			V6.2C98.4,4.1,96.8,2.4,94.7,2.4z"/>
	</g>
	<g id="check-icon_3_" transform="translate(5.000000, 8.000000)">
		<path id="Path_4_" class="st4" d="M74.8,20.7l15-14.9c0.6-0.6,0.6-1.3,0-1.8l-1.8-1.8c-0.6-0.6-1.4-0.6-1.8,0l-12.3,12l-5.7-5.7
			c-0.6-0.6-1.3-0.6-1.8,0l-1.8,1.9c-0.6,0.6-0.6,1.3,0,1.8l8.5,8.5C73.6,21.1,74.3,21.1,74.8,20.7L74.8,20.7z"/>
	</g>
</g>
<g id="Group_3_" transform="translate(132.000000, 73.000000)">
	<g id="checked_2_">
		<path id="Shape_1_" class="st3" d="M94.7,2.4H68.2c-2.1,0-3.8,1.7-3.8,3.8v26.5c0,2,1.7,3.7,3.8,3.7h26.5c2.1,0,3.8-1.7,3.8-3.8
			V6.2C98.4,4.1,96.8,2.4,94.7,2.4z"/>
	</g>
	<g id="check-icon_2_" transform="translate(5.000000, 8.000000)">
		<path id="Path_3_" class="st4" d="M74.8,20.7l15-14.9c0.6-0.6,0.6-1.3,0-1.8l-1.8-1.8c-0.6-0.6-1.4-0.6-1.8,0l-12.3,12l-5.7-5.7
			c-0.6-0.6-1.3-0.6-1.8,0l-1.8,1.9c-0.6,0.6-0.6,1.3,0,1.8l8.5,8.5C73.6,21.1,74.3,21.1,74.8,20.7L74.8,20.7z"/>
	</g>
</g>
</svg>
