<svg id="Layer_1" data-name="Layer 1" xmlns="http://www.w3.org/2000/svg" viewBox="0 0 480 240"><defs><style>.cls-1{fill:#db0022;}.cls-2{fill:#f5f5f5;}.cls-3{fill:#005fc6;}.cls-4{fill:#fff;}.cls-5{fill:#6e7272;}</style></defs><rect class="cls-1" width="6" height="240"/><rect class="cls-2" x="6" width="474" height="240"/><path class="cls-1" d="M33,10.15a15.65,15.65,0,1,0,15.7,15.6A15.73,15.73,0,0,0,33,10.15Z"/><rect class="cls-2" x="23" y="24.16" width="20" height="3.3" transform="translate(-8.58 30.9) rotate(-45)"/><rect class="cls-2" x="31.29" y="15.73" width="3.3" height="20" transform="translate(-8.55 30.83) rotate(-45)"/><g id="Group"><g id="checked"><path id="Shape" class="cls-3" d="M209.07,77.58H185.85a3.34,3.34,0,0,0-3.34,3.35v23.38a3.33,3.33,0,0,0,3.34,3.27h23.31a3.35,3.35,0,0,0,3.35-3.36V80.93A3.49,3.49,0,0,0,209.07,77.58Z"/></g><g id="check-icon"><path id="Path" class="cls-4" d="M196,100.78l13.19-13.14a1,1,0,0,0,0-1.59l-1.58-1.59a1,1,0,0,0-1.58,0L195.17,95.05l-5-5a1,1,0,0,0-1.58,0L187,91.7a1,1,0,0,0,0,1.58l7.48,7.5a1.18,1.18,0,0,0,1.5,0Z"/></g></g><path d="M181.73,54.92l4.44-13.13h1.88l4.44,13.13h-1.78l-1.24-4h-4.78l-1.26,4Zm4-7.34-.62,2h3.94l-.62-2c-.24-.74-.47-1.47-.68-2.19s-.43-1.47-.64-2.23H187c-.2.76-.41,1.5-.62,2.23S186,46.84,185.73,47.58Z"/><path d="M198,55.16a4.69,4.69,0,0,1-1.8-.35,3.92,3.92,0,0,1-1.45-1,4.83,4.83,0,0,1-1-1.6,6.34,6.34,0,0,1-.34-2.15,5.64,5.64,0,0,1,.38-2.17,4.76,4.76,0,0,1,1-1.62,4.26,4.26,0,0,1,1.48-1,5,5,0,0,1,1.8-.33,3.75,3.75,0,0,1,1.64.33,5.74,5.74,0,0,1,1.2.81l-.84,1.07a3.92,3.92,0,0,0-.89-.61,2.32,2.32,0,0,0-1-.25,2.91,2.91,0,0,0-1.22.27,2.77,2.77,0,0,0-1,.77,3.75,3.75,0,0,0-.63,1.19,4.7,4.7,0,0,0-.23,1.54,4.85,4.85,0,0,0,.22,1.52,3.61,3.61,0,0,0,.61,1.17,2.58,2.58,0,0,0,.95.75,2.86,2.86,0,0,0,2.47,0,4.88,4.88,0,0,0,1-.69l.72,1.11a5.67,5.67,0,0,1-1.46.91A4.61,4.61,0,0,1,198,55.16Z"/><path d="M206.73,55.16a4.69,4.69,0,0,1-1.8-.35,3.92,3.92,0,0,1-1.45-1,4.65,4.65,0,0,1-1-1.6,6.1,6.1,0,0,1-.35-2.15,5.64,5.64,0,0,1,.38-2.17,4.76,4.76,0,0,1,1-1.62,4.21,4.21,0,0,1,1.49-1,4.86,4.86,0,0,1,1.79-.33,3.75,3.75,0,0,1,1.64.33,5.74,5.74,0,0,1,1.2.81l-.84,1.07a3.92,3.92,0,0,0-.89-.61,2.32,2.32,0,0,0-1.05-.25,2.91,2.91,0,0,0-1.22.27,2.77,2.77,0,0,0-1,.77,3.75,3.75,0,0,0-.63,1.19,4.7,4.7,0,0,0-.23,1.54,4.85,4.85,0,0,0,.22,1.52,3.61,3.61,0,0,0,.61,1.17,2.58,2.58,0,0,0,1,.75,2.86,2.86,0,0,0,2.47,0,4.88,4.88,0,0,0,1-.69l.72,1.11a5.67,5.67,0,0,1-1.46.91A4.61,4.61,0,0,1,206.73,55.16Z"/><path d="M215.36,55.16a4.36,4.36,0,0,1-1.71-.35,4.07,4.07,0,0,1-1.42-1,4.89,4.89,0,0,1-1-1.6,6.49,6.49,0,0,1,0-4.32,4.88,4.88,0,0,1,1-1.62,4.12,4.12,0,0,1,1.42-1,4.6,4.6,0,0,1,3.42,0,4.16,4.16,0,0,1,1.43,1,4.7,4.7,0,0,1,1,1.62,6.49,6.49,0,0,1,0,4.32,4.71,4.71,0,0,1-1,1.6,4.11,4.11,0,0,1-1.43,1A4.32,4.32,0,0,1,215.36,55.16Zm0-1.37a2.29,2.29,0,0,0,1.14-.27,2.59,2.59,0,0,0,.9-.75A3.74,3.74,0,0,0,218,51.6a5.18,5.18,0,0,0,.2-1.52,5.32,5.32,0,0,0-.2-1.54,3.85,3.85,0,0,0-.56-1.19,2.76,2.76,0,0,0-.9-.77,2.52,2.52,0,0,0-2.27,0,2.76,2.76,0,0,0-.9.77,3.85,3.85,0,0,0-.56,1.19,5.31,5.31,0,0,0-.21,1.54,5.17,5.17,0,0,0,.21,1.52,3.74,3.74,0,0,0,.56,1.17,2.59,2.59,0,0,0,.9.75A2.27,2.27,0,0,0,215.36,53.79Z"/><path d="M225.27,55.16a2.67,2.67,0,0,1-2.28-1,4.73,4.73,0,0,1-.71-2.84V45.19h1.66v6a3.54,3.54,0,0,0,.43,2,1.58,1.58,0,0,0,1.4.61,2.38,2.38,0,0,0,1.33-.38,6.39,6.39,0,0,0,1.28-1.25V45.19H230v9.73h-1.36l-.14-1.52h-.06A6.44,6.44,0,0,1,227,54.67,3.13,3.13,0,0,1,225.27,55.16Z"/><path d="M233.3,54.92V45.19h1.36l.14,1.41h.06a8.36,8.36,0,0,1,1.47-1.18,3.41,3.41,0,0,1,1.79-.46,2.58,2.58,0,0,1,2.25,1,4.67,4.67,0,0,1,.71,2.83v6.17h-1.64V49a3.46,3.46,0,0,0-.44-2,1.62,1.62,0,0,0-1.4-.61,2.44,2.44,0,0,0-1.34.38,10.13,10.13,0,0,0-1.32,1.12v7.05Z"/><path d="M247.31,55.16a3.21,3.21,0,0,1-1.32-.24,2.19,2.19,0,0,1-.85-.67,2.42,2.42,0,0,1-.48-1,5.91,5.91,0,0,1-.14-1.31V46.54h-1.43V45.29l1.51-.1.21-2.71h1.38v2.71h2.62v1.35h-2.62v5.4a2.48,2.48,0,0,0,.33,1.39,1.3,1.3,0,0,0,1.17.48,1.83,1.83,0,0,0,.55-.08,5,5,0,0,0,.54-.17l.32,1.23a6,6,0,0,1-.87.25A3.69,3.69,0,0,1,247.31,55.16Z"/><path d="M257.54,55.16a5.14,5.14,0,0,1-2-.39,6.16,6.16,0,0,1-1.64-1l.82-1.1a6.86,6.86,0,0,0,1.32.85,3.56,3.56,0,0,0,1.54.31,2.07,2.07,0,0,0,1.44-.43,1.43,1.43,0,0,0,.48-1.09,1.08,1.08,0,0,0-.2-.66,2,2,0,0,0-.51-.48,3.17,3.17,0,0,0-.71-.38l-.79-.31a10.28,10.28,0,0,1-1-.42,3.84,3.84,0,0,1-.94-.56,2.76,2.76,0,0,1-.67-.77,2.06,2.06,0,0,1-.26-1.06,2.52,2.52,0,0,1,.89-2,3.09,3.09,0,0,1,1.06-.58,4.06,4.06,0,0,1,1.39-.21,4.47,4.47,0,0,1,1.7.31,5.57,5.57,0,0,1,1.33.79l-.79,1a4.61,4.61,0,0,0-1-.62,2.7,2.7,0,0,0-1.17-.25,1.85,1.85,0,0,0-1.36.43,1.34,1.34,0,0,0-.43,1,1,1,0,0,0,.18.59,1.76,1.76,0,0,0,.49.44,3.58,3.58,0,0,0,.68.33l.82.31,1,.42a4,4,0,0,1,1,.56,2.58,2.58,0,0,1,.68.81,2.2,2.2,0,0,1,.27,1.15,2.58,2.58,0,0,1-.23,1.12,2.54,2.54,0,0,1-.68.92,3,3,0,0,1-1.12.63A4.47,4.47,0,0,1,257.54,55.16Z"/><path d="M266.05,55.16a3.21,3.21,0,0,1-1.32-.24,2.27,2.27,0,0,1-.85-.67,2.42,2.42,0,0,1-.48-1,5.94,5.94,0,0,1-.13-1.31V46.54h-1.44V45.29l1.52-.1.2-2.71h1.38v2.71h2.62v1.35h-2.62v5.4a2.48,2.48,0,0,0,.33,1.39,1.31,1.31,0,0,0,1.17.48,1.83,1.83,0,0,0,.55-.08,4.34,4.34,0,0,0,.54-.17l.33,1.23A6.85,6.85,0,0,1,267,55,3.83,3.83,0,0,1,266.05,55.16Z"/><path d="M271.56,55.16a3,3,0,0,1-2-.72,2.59,2.59,0,0,1-.8-2,2.71,2.71,0,0,1,1.42-2.46,11.82,11.82,0,0,1,4.54-1.19,5.49,5.49,0,0,0-.09-.9,2.32,2.32,0,0,0-.32-.77,1.62,1.62,0,0,0-.6-.56,2.2,2.2,0,0,0-1-.21,3.9,3.9,0,0,0-1.59.33,8.2,8.2,0,0,0-1.32.71l-.63-1.14a10.21,10.21,0,0,1,1.66-.84A5.4,5.4,0,0,1,273,45,3,3,0,0,1,275.55,46a4.86,4.86,0,0,1,.8,2.92v6H275l-.13-1.17h-.07a8,8,0,0,1-1.5,1A3.73,3.73,0,0,1,271.56,55.16Zm.49-1.33a2.63,2.63,0,0,0,1.31-.33,6.35,6.35,0,0,0,1.33-1V49.83a18.26,18.26,0,0,0-2.05.38,5.86,5.86,0,0,0-1.34.52,2.08,2.08,0,0,0-.74.69,1.63,1.63,0,0,0-.24.85,1.42,1.42,0,0,0,.5,1.21A2.12,2.12,0,0,0,272.05,53.83Z"/><path d="M282.19,55.16a3.21,3.21,0,0,1-1.32-.24,2.19,2.19,0,0,1-.85-.67,2.42,2.42,0,0,1-.48-1,5.91,5.91,0,0,1-.14-1.31V46.54H278V45.29l1.51-.1.21-2.71h1.37v2.71h2.63v1.35h-2.63v5.4a2.48,2.48,0,0,0,.34,1.39,1.29,1.29,0,0,0,1.16.48,1.85,1.85,0,0,0,.56-.08,5,5,0,0,0,.54-.17l.32,1.23a6,6,0,0,1-.87.25A3.69,3.69,0,0,1,282.19,55.16Z"/><path d="M288.73,55.16a2.67,2.67,0,0,1-2.28-1,4.73,4.73,0,0,1-.71-2.84V45.19h1.66v6a3.54,3.54,0,0,0,.43,2,1.58,1.58,0,0,0,1.4.61,2.38,2.38,0,0,0,1.33-.38,6.39,6.39,0,0,0,1.28-1.25V45.19h1.64v9.73h-1.36L292,53.4h-.06a6.44,6.44,0,0,1-1.43,1.27A3.13,3.13,0,0,1,288.73,55.16Z"/><path d="M299.3,55.16a5.14,5.14,0,0,1-2-.39,6.16,6.16,0,0,1-1.64-1l.82-1.1a7.11,7.11,0,0,0,1.31.85,3.64,3.64,0,0,0,1.55.31,2.08,2.08,0,0,0,1.44-.43,1.43,1.43,0,0,0,.48-1.09,1.08,1.08,0,0,0-.2-.66,2,2,0,0,0-.51-.48,3.17,3.17,0,0,0-.71-.38l-.8-.31c-.34-.12-.69-.26-1-.42a4,4,0,0,1-.93-.56,2.76,2.76,0,0,1-.67-.77,2.06,2.06,0,0,1-.26-1.06,2.52,2.52,0,0,1,.89-2,3.13,3.13,0,0,1,1.05-.58,4.12,4.12,0,0,1,1.4-.21,4.39,4.39,0,0,1,1.69.31,5.2,5.2,0,0,1,1.33.79l-.78,1a4.84,4.84,0,0,0-1-.62,2.71,2.71,0,0,0-1.18-.25,1.84,1.84,0,0,0-1.35.43,1.34,1.34,0,0,0-.43,1,1,1,0,0,0,.18.59,1.87,1.87,0,0,0,.48.44,3.69,3.69,0,0,0,.69.33l.81.31,1.05.42a3.72,3.72,0,0,1,.95.56,2.48,2.48,0,0,1,.69.81,2.3,2.3,0,0,1,.27,1.15,2.58,2.58,0,0,1-.23,1.12,2.54,2.54,0,0,1-.68.92,3.12,3.12,0,0,1-1.12.63A4.47,4.47,0,0,1,299.3,55.16Z"/><path d="M227.82,99.07,232.26,86h1.88l4.44,13.12H236.8l-1.24-4h-4.78l-1.26,4Zm4-7.34-.62,2h3.94l-.62-2c-.24-.73-.47-1.46-.68-2.19s-.43-1.47-.64-2.23h-.08c-.2.76-.41,1.5-.62,2.23S232.06,91,231.82,91.73Z"/><path d="M244.12,99.31a4.69,4.69,0,0,1-1.8-.34,4.16,4.16,0,0,1-1.45-1,4.56,4.56,0,0,1-1-1.6,6.25,6.25,0,0,1-.35-2.15,5.87,5.87,0,0,1,.38-2.17,4.82,4.82,0,0,1,1-1.61,4.3,4.3,0,0,1,1.49-1,4.71,4.71,0,0,1,1.79-.34,3.58,3.58,0,0,1,1.64.34,5.7,5.7,0,0,1,1.2.8l-.84,1.08a4.33,4.33,0,0,0-.89-.62,2.26,2.26,0,0,0-1-.24,2.76,2.76,0,0,0-1.22.27,2.84,2.84,0,0,0-1,.77,3.65,3.65,0,0,0-.63,1.19,4.91,4.91,0,0,0-.23,1.53,4.81,4.81,0,0,0,.22,1.52,3.82,3.82,0,0,0,.61,1.17,2.69,2.69,0,0,0,.95.76,2.86,2.86,0,0,0,2.47,0,4.88,4.88,0,0,0,1-.69l.72,1.1a5.18,5.18,0,0,1-1.46.91A4.34,4.34,0,0,1,244.12,99.31Z"/><path d="M252.26,99.31a3.16,3.16,0,0,1-1.31-.24,2.28,2.28,0,0,1-.86-.66,2.53,2.53,0,0,1-.47-1,6,6,0,0,1-.14-1.32V90.69H248V89.45l1.52-.1.2-2.72h1.38v2.72h2.62v1.34h-2.62v5.4a2.48,2.48,0,0,0,.33,1.39,1.3,1.3,0,0,0,1.17.49,2.36,2.36,0,0,0,.56-.08,3.42,3.42,0,0,0,.54-.18l.32,1.24a9,9,0,0,1-.87.25A4.22,4.22,0,0,1,252.26,99.31Z"/><path d="M256.8,87.35a1.16,1.16,0,0,1-.81-.3,1.05,1.05,0,0,1,0-1.53,1.28,1.28,0,0,1,1.62,0,1.05,1.05,0,0,1,0,1.53A1.16,1.16,0,0,1,256.8,87.35ZM256,99.07V89.35h1.64v9.72Z"/><path d="M263,99.07l-3.5-9.72h1.7L263,94.87l.45,1.44.45,1.42H264c.15-.47.29-.94.44-1.42s.29-1,.44-1.44l1.84-5.52h1.62l-3.44,9.72Z"/><path d="M274.08,99.31a4.85,4.85,0,0,1-1.83-.35,4.31,4.31,0,0,1-1.48-1,4.57,4.57,0,0,1-1-1.59,6,6,0,0,1-.36-2.14,5.81,5.81,0,0,1,.37-2.15,5.07,5.07,0,0,1,1-1.61,4.24,4.24,0,0,1,1.39-1,4,4,0,0,1,1.62-.35,4.15,4.15,0,0,1,1.65.32,3.18,3.18,0,0,1,1.22.92,4.11,4.11,0,0,1,.75,1.44,6.47,6.47,0,0,1,.26,1.88c0,.17,0,.34,0,.51a2.42,2.42,0,0,1,0,.43H271a3.82,3.82,0,0,0,1,2.47,3,3,0,0,0,2.27.91,3.79,3.79,0,0,0,1.29-.21,5.61,5.61,0,0,0,1.13-.55l.58,1.08a8.16,8.16,0,0,1-1.42.7A4.92,4.92,0,0,1,274.08,99.31ZM271,93.43h5.2a3.47,3.47,0,0,0-.63-2.25,2.17,2.17,0,0,0-1.77-.77,2.53,2.53,0,0,0-1.84.79,3.42,3.42,0,0,0-.63,1A4.07,4.07,0,0,0,271,93.43Z"/><g id="Group-2" data-name="Group"><g id="checked-2" data-name="checked"><path id="Shape-2" data-name="Shape" class="cls-3" d="M209.07,122.42H185.85a3.34,3.34,0,0,0-3.34,3.35v23.38a3.33,3.33,0,0,0,3.34,3.27h23.31a3.35,3.35,0,0,0,3.35-3.35v-23.3A3.49,3.49,0,0,0,209.07,122.42Z"/></g><g id="check-icon-2" data-name="check-icon"><path id="Path-2" data-name="Path" class="cls-4" d="M196,145.62l13.19-13.14a1,1,0,0,0,0-1.59l-1.58-1.59a1,1,0,0,0-1.58,0l-10.83,10.59-5-5a1,1,0,0,0-1.58,0L187,136.54a1,1,0,0,0,0,1.58l7.48,7.5a1.18,1.18,0,0,0,1.5,0Z"/></g></g><path d="M234.52,144.35a5.5,5.5,0,0,1-2.28-.46,5.12,5.12,0,0,1-1.81-1.33,6.25,6.25,0,0,1-1.2-2.14,8.79,8.79,0,0,1-.43-2.87,8.68,8.68,0,0,1,.44-2.84,6.3,6.3,0,0,1,1.22-2.14,5.45,5.45,0,0,1,1.84-1.35,5.73,5.73,0,0,1,2.32-.47,4.47,4.47,0,0,1,2.11.49,5.72,5.72,0,0,1,1.49,1.13l-.9,1.08a4.46,4.46,0,0,0-1.18-.9,3.31,3.31,0,0,0-1.5-.34,3.93,3.93,0,0,0-1.7.37,3.69,3.69,0,0,0-1.3,1.06,4.93,4.93,0,0,0-.83,1.67,7.92,7.92,0,0,0-.29,2.2,8,8,0,0,0,.29,2.23,5.11,5.11,0,0,0,.81,1.69,3.55,3.55,0,0,0,1.27,1.08,3.59,3.59,0,0,0,1.69.38,3.47,3.47,0,0,0,1.68-.39,5.22,5.22,0,0,0,1.36-1.09l.92,1a5.82,5.82,0,0,1-1.76,1.4A4.82,4.82,0,0,1,234.52,144.35Z"/><path d="M242.56,144.35a1.52,1.52,0,0,1-1.34-.56,2.78,2.78,0,0,1-.4-1.64V129.87h1.64v12.4a.86.86,0,0,0,.14.56.4.4,0,0,0,.32.16h.15a.68.68,0,0,0,.21,0l.22,1.24a1.06,1.06,0,0,1-.38.12A2.92,2.92,0,0,1,242.56,144.35Z"/><path d="M249.7,144.35A4.31,4.31,0,0,1,248,144a4,4,0,0,1-1.43-1,4.83,4.83,0,0,1-1-1.6,5.81,5.81,0,0,1-.37-2.15,5.91,5.91,0,0,1,.37-2.17,5.09,5.09,0,0,1,1-1.61,4.16,4.16,0,0,1,1.43-1,4.47,4.47,0,0,1,3.42,0,4.16,4.16,0,0,1,1.43,1,5.09,5.09,0,0,1,1,1.61,5.91,5.91,0,0,1,.37,2.17,5.81,5.81,0,0,1-.37,2.15,4.83,4.83,0,0,1-1,1.6,4,4,0,0,1-1.43,1A4.31,4.31,0,0,1,249.7,144.35Zm0-1.36a2.46,2.46,0,0,0,1.14-.27,2.58,2.58,0,0,0,.89-.76,3.36,3.36,0,0,0,.57-1.17,5.49,5.49,0,0,0,.2-1.52,5.61,5.61,0,0,0-.2-1.53,3.65,3.65,0,0,0-.57-1.19,2.61,2.61,0,0,0-.89-.77,2.54,2.54,0,0,0-2.28,0,2.61,2.61,0,0,0-.89.77,3.65,3.65,0,0,0-.57,1.19,5.61,5.61,0,0,0-.2,1.53,5.49,5.49,0,0,0,.2,1.52,3.36,3.36,0,0,0,.57,1.17,2.58,2.58,0,0,0,.89.76A2.46,2.46,0,0,0,249.7,143Z"/><path d="M259.3,144.35a5.13,5.13,0,0,1-2-.38,6,6,0,0,1-1.64-1l.82-1.1a6.29,6.29,0,0,0,1.31.84,3.46,3.46,0,0,0,1.55.32,2,2,0,0,0,1.44-.44,1.4,1.4,0,0,0,.48-1.08,1.14,1.14,0,0,0-.2-.66,2,2,0,0,0-.51-.49,3.94,3.94,0,0,0-.71-.37l-.8-.32c-.35-.12-.69-.25-1-.41a3.9,3.9,0,0,1-.93-.56,2.74,2.74,0,0,1-.67-.77,2.06,2.06,0,0,1-.26-1.06,2.7,2.7,0,0,1,.23-1.09,2.46,2.46,0,0,1,.66-.88,3.32,3.32,0,0,1,1.05-.58,4.34,4.34,0,0,1,1.4-.21,4.42,4.42,0,0,1,1.69.32,5.68,5.68,0,0,1,1.33.78l-.78,1a5.29,5.29,0,0,0-1-.62,2.86,2.86,0,0,0-1.18-.24,1.88,1.88,0,0,0-1.35.42,1.32,1.32,0,0,0-.43,1,1,1,0,0,0,.18.59,1.57,1.57,0,0,0,.48.44,3.7,3.7,0,0,0,.69.34l.81.31,1.05.42a4.22,4.22,0,0,1,.95.55,2.7,2.7,0,0,1,.69.81,2.34,2.34,0,0,1,.27,1.16,2.77,2.77,0,0,1-.23,1.12,2.54,2.54,0,0,1-.68.92,3.12,3.12,0,0,1-1.12.63A4.56,4.56,0,0,1,259.3,144.35Z"/><path d="M269.08,144.35a4.66,4.66,0,0,1-1.83-.35,4.17,4.17,0,0,1-1.48-1,4.57,4.57,0,0,1-1-1.59,5.93,5.93,0,0,1-.36-2.14,5.84,5.84,0,0,1,.37-2.15,5.07,5.07,0,0,1,1-1.61,4.39,4.39,0,0,1,1.39-1,4,4,0,0,1,1.62-.35,4.15,4.15,0,0,1,1.65.32,3.29,3.29,0,0,1,1.22.92,4.11,4.11,0,0,1,.75,1.44,6.47,6.47,0,0,1,.26,1.88c0,.18,0,.35,0,.51a2.42,2.42,0,0,1,0,.43H266a3.8,3.8,0,0,0,1,2.47,3,3,0,0,0,2.27.91,3.79,3.79,0,0,0,1.29-.21,5.61,5.61,0,0,0,1.13-.55l.58,1.08a8.16,8.16,0,0,1-1.42.7A4.92,4.92,0,0,1,269.08,144.35ZM266,138.47h5.2a3.51,3.51,0,0,0-.63-2.25,2.17,2.17,0,0,0-1.77-.77,2.54,2.54,0,0,0-1,.2,2.71,2.71,0,0,0-.85.59,3.42,3.42,0,0,0-.63.95A4.15,4.15,0,0,0,266,138.47Z"/><path d="M278.38,144.35a3.6,3.6,0,0,1-2.93-1.32,5.73,5.73,0,0,1-1.09-3.76,6.26,6.26,0,0,1,.35-2.13,5,5,0,0,1,.93-1.61,4.12,4.12,0,0,1,1.34-1,3.7,3.7,0,0,1,1.6-.36,3.31,3.31,0,0,1,1.46.3,7.08,7.08,0,0,1,1.26.82l-.08-1.66v-3.74h1.66v14.24h-1.36l-.14-1.14h-.06a5.91,5.91,0,0,1-1.33,1A3.24,3.24,0,0,1,278.38,144.35Zm.36-1.38a2.62,2.62,0,0,0,1.28-.33,4.48,4.48,0,0,0,1.2-1v-5.08a4.3,4.3,0,0,0-1.19-.79,3.17,3.17,0,0,0-1.17-.23,2.29,2.29,0,0,0-1.09.27,2.8,2.8,0,0,0-.89.76,4,4,0,0,0-.6,1.17,4.85,4.85,0,0,0-.22,1.52,4.61,4.61,0,0,0,.7,2.74A2.28,2.28,0,0,0,278.74,143Z"/><path d="M229.56,187.75V174.63h1.66v11.7H237v1.42Z"/><path d="M242.66,188a4.31,4.31,0,0,1-1.71-.34,4,4,0,0,1-1.43-1,4.83,4.83,0,0,1-1-1.6,5.81,5.81,0,0,1-.37-2.15,5.91,5.91,0,0,1,.37-2.17,5.09,5.09,0,0,1,1-1.61,4.16,4.16,0,0,1,1.43-1,4.47,4.47,0,0,1,3.42,0,4.16,4.16,0,0,1,1.43,1,5.09,5.09,0,0,1,1,1.61,5.91,5.91,0,0,1,.37,2.17,5.81,5.81,0,0,1-.37,2.15,4.83,4.83,0,0,1-1,1.6,4,4,0,0,1-1.43,1A4.31,4.31,0,0,1,242.66,188Zm0-1.36a2.46,2.46,0,0,0,1.14-.27,2.58,2.58,0,0,0,.89-.76,3.36,3.36,0,0,0,.57-1.17,5.49,5.49,0,0,0,.2-1.52,5.61,5.61,0,0,0-.2-1.53,3.65,3.65,0,0,0-.57-1.19,2.61,2.61,0,0,0-.89-.77,2.54,2.54,0,0,0-2.28,0,2.61,2.61,0,0,0-.89.77,3.65,3.65,0,0,0-.57,1.19,5.61,5.61,0,0,0-.2,1.53,5.49,5.49,0,0,0,.2,1.52,3.36,3.36,0,0,0,.57,1.17,2.58,2.58,0,0,0,.89.76A2.46,2.46,0,0,0,242.66,186.63Z"/><path d="M253.56,188a4.69,4.69,0,0,1-1.8-.34,3.91,3.91,0,0,1-1.45-1,4.47,4.47,0,0,1-1-1.6,6.25,6.25,0,0,1-.35-2.15,5.91,5.91,0,0,1,.38-2.17,4.82,4.82,0,0,1,1-1.61,4.3,4.3,0,0,1,1.49-1,4.91,4.91,0,0,1,1.79-.34,3.71,3.71,0,0,1,1.64.34,6.12,6.12,0,0,1,1.2.8l-.84,1.08a4.33,4.33,0,0,0-.89-.62,2.26,2.26,0,0,0-1-.24,2.76,2.76,0,0,0-1.22.27,2.84,2.84,0,0,0-1,.77,3.75,3.75,0,0,0-.63,1.19,4.91,4.91,0,0,0-.23,1.53,4.81,4.81,0,0,0,.22,1.52,3.6,3.6,0,0,0,.61,1.17,2.69,2.69,0,0,0,.95.76,2.76,2.76,0,0,0,1.22.27,2.64,2.64,0,0,0,1.25-.29,4.88,4.88,0,0,0,1-.69l.72,1.1a5.18,5.18,0,0,1-1.46.91A4.34,4.34,0,0,1,253.56,188Z"/><path d="M258.84,187.75V173.51h1.62v9.64h.06l4.14-5.12h1.82l-3.26,3.9,3.7,5.82h-1.8l-2.84-4.68-1.82,2.12v2.56Z"/><path d="M272.32,188a4.66,4.66,0,0,1-1.83-.35,4.17,4.17,0,0,1-1.48-1,4.57,4.57,0,0,1-1-1.59,5.93,5.93,0,0,1-.36-2.14,5.84,5.84,0,0,1,.37-2.15,5.07,5.07,0,0,1,1-1.61,4.39,4.39,0,0,1,1.39-1,4,4,0,0,1,1.62-.35,4.15,4.15,0,0,1,1.65.32,3.29,3.29,0,0,1,1.22.92,4.11,4.11,0,0,1,.75,1.44,6.47,6.47,0,0,1,.26,1.88c0,.18,0,.35,0,.51a2.42,2.42,0,0,1-.05.43h-6.56a3.8,3.8,0,0,0,1,2.47,3,3,0,0,0,2.27.91,3.79,3.79,0,0,0,1.29-.21,5.61,5.61,0,0,0,1.13-.55l.58,1.08a8.16,8.16,0,0,1-1.42.7A4.92,4.92,0,0,1,272.32,188Zm-3.06-5.88h5.2a3.51,3.51,0,0,0-.63-2.25,2.17,2.17,0,0,0-1.77-.77,2.54,2.54,0,0,0-1,.2,2.71,2.71,0,0,0-.85.59,3.42,3.42,0,0,0-.63,1A4.15,4.15,0,0,0,269.26,182.11Z"/><path d="M281.62,188a3.6,3.6,0,0,1-2.93-1.32,5.73,5.73,0,0,1-1.09-3.76,6.26,6.26,0,0,1,.35-2.13,5,5,0,0,1,.93-1.61,4.12,4.12,0,0,1,1.34-1,3.7,3.7,0,0,1,1.6-.36,3.31,3.31,0,0,1,1.46.3,7.08,7.08,0,0,1,1.26.82l-.08-1.66v-3.74h1.66v14.24h-1.36l-.14-1.14h-.06a5.91,5.91,0,0,1-1.33,1A3.24,3.24,0,0,1,281.62,188Zm.36-1.38a2.62,2.62,0,0,0,1.28-.33,4.48,4.48,0,0,0,1.2-1v-5.08a4.3,4.3,0,0,0-1.19-.79,3.17,3.17,0,0,0-1.17-.23,2.29,2.29,0,0,0-1.09.27,2.8,2.8,0,0,0-.89.76,4,4,0,0,0-.6,1.17,4.85,4.85,0,0,0-.22,1.52,4.61,4.61,0,0,0,.7,2.74A2.28,2.28,0,0,0,282,186.61Z"/><g id="Rectangle"><rect class="cls-4" x="183.02" y="167.76" width="29" height="29" rx="2.85"/><path class="cls-5" d="M209.16,168.26a2.42,2.42,0,0,1,2.36,2.35v23.3a2.42,2.42,0,0,1-2.36,2.35H185.87a2.41,2.41,0,0,1-2.35-2.35v-23.3a2.41,2.41,0,0,1,2.35-2.35h23.29m0-1H185.87a3.4,3.4,0,0,0-3.35,3.35v23.3a3.4,3.4,0,0,0,3.35,3.35h23.29a3.4,3.4,0,0,0,3.36-3.35v-23.3a3.4,3.4,0,0,0-3.36-3.35Z"/></g></svg>