<svg id="Layer_1" data-name="Layer 1" xmlns="http://www.w3.org/2000/svg" viewBox="0 0 480 190"><defs><style>.cls-1{fill:#db0022;}.cls-2{fill:#f5f5f5;}.cls-3{fill:#005fc6;}.cls-4{fill:#fff;}</style></defs><rect class="cls-1" width="6" height="190"/><rect class="cls-2" x="6" width="475.25" height="190"/><path class="cls-1" d="M33,10.15a15.65,15.65,0,1,0,15.7,15.6A15.73,15.73,0,0,0,33,10.15Z"/><rect class="cls-2" x="23" y="24.16" width="20" height="3.3" transform="translate(-8.58 30.9) rotate(-45)"/><rect class="cls-2" x="31.29" y="15.73" width="3.3" height="20" transform="translate(-8.55 30.83) rotate(-45)"/><g id="Group"><g id="checked"><path id="Shape" class="cls-3" d="M193.06,77.58H169.83a3.34,3.34,0,0,0-3.34,3.35v23.38a3.33,3.33,0,0,0,3.34,3.27h23.32a3.35,3.35,0,0,0,3.34-3.36V80.93A3.49,3.49,0,0,0,193.06,77.58Z"/></g><g id="check-icon"><path id="Path" class="cls-4" d="M180,100.78l13.2-13.14a1,1,0,0,0,0-1.59l-1.59-1.59a1,1,0,0,0-1.58,0L179.16,95.05l-5-5a1,1,0,0,0-1.58,0L171,91.7a1,1,0,0,0,0,1.58l7.47,7.5a1.18,1.18,0,0,0,1.5,0Z"/></g></g><path d="M215.26,99.07V87.35h-4V86h9.6v1.4h-4V99.07Z"/><path d="M225,99.31a2.64,2.64,0,0,1-2.27-1,4.78,4.78,0,0,1-.71-2.84V89.35h1.66v5.94a3.6,3.6,0,0,0,.43,2,1.58,1.58,0,0,0,1.39.61,2.32,2.32,0,0,0,1.34-.39,6.13,6.13,0,0,0,1.28-1.25v-6.9h1.64v9.72h-1.36l-.14-1.52h-.06a6.49,6.49,0,0,1-1.43,1.28A3.21,3.21,0,0,1,225,99.31Z"/><path d="M233.06,99.07V89.35h1.36l.14,1.76h.06a4.66,4.66,0,0,1,1.21-1.46,2.52,2.52,0,0,1,1.55-.54,2.61,2.61,0,0,1,1,.2l-.32,1.44-.44-.12a2.35,2.35,0,0,0-.5,0,2.22,2.22,0,0,0-1.29.5,4.05,4.05,0,0,0-1.17,1.74v6.24Z"/><path d="M240,99.07V89.35h1.36l.14,1.4h.06A7.86,7.86,0,0,1,243,89.58a3.41,3.41,0,0,1,1.79-.47,2.6,2.6,0,0,1,2.25,1,4.7,4.7,0,0,1,.71,2.84v6.16h-1.64V93.13a3.43,3.43,0,0,0-.44-2,1.6,1.6,0,0,0-1.4-.61,2.44,2.44,0,0,0-1.34.38A9.39,9.39,0,0,0,241.64,92v7Z"/><path d="M254.94,99.07V84.83h1.64v3.88l-.06,2A9.39,9.39,0,0,1,258,89.58a3.35,3.35,0,0,1,1.78-.47,2.6,2.6,0,0,1,2.25,1,4.7,4.7,0,0,1,.71,2.84v6.16h-1.64V93.13a3.43,3.43,0,0,0-.44-2,1.6,1.6,0,0,0-1.4-.61,2.44,2.44,0,0,0-1.34.38A9.39,9.39,0,0,0,256.58,92v7Z"/><path d="M266.66,87.35a1.16,1.16,0,0,1-.81-.3,1.05,1.05,0,0,1,0-1.53,1.28,1.28,0,0,1,1.62,0,1.05,1.05,0,0,1,0,1.53A1.16,1.16,0,0,1,266.66,87.35Zm-.84,11.72V89.35h1.64v9.72Z"/><path d="M270.74,99.07V89.35h1.36l.14,1.4h.06a7.86,7.86,0,0,1,1.47-1.17,3.41,3.41,0,0,1,1.79-.47,2.6,2.6,0,0,1,2.25,1,4.7,4.7,0,0,1,.71,2.84v6.16h-1.64V93.13a3.51,3.51,0,0,0-.44-2,1.6,1.6,0,0,0-1.4-.61,2.44,2.44,0,0,0-1.34.38A8.86,8.86,0,0,0,272.38,92v7Z"/><path d="M284.74,99.31a3.16,3.16,0,0,1-1.31-.24,2.28,2.28,0,0,1-.86-.66,2.53,2.53,0,0,1-.47-1,6,6,0,0,1-.14-1.32V90.69h-1.44V89.45l1.52-.1.2-2.72h1.38v2.72h2.62v1.34h-2.62v5.4a2.48,2.48,0,0,0,.33,1.39,1.3,1.3,0,0,0,1.17.49,2.36,2.36,0,0,0,.56-.08,3.42,3.42,0,0,0,.54-.18l.32,1.24a9,9,0,0,1-.87.25A4.22,4.22,0,0,1,284.74,99.31Z"/><path d="M290.78,99.31a5.32,5.32,0,0,1-2-.38,6.16,6.16,0,0,1-1.64-1l.82-1.1a6.57,6.57,0,0,0,1.31.84,3.64,3.64,0,0,0,1.55.32,2.08,2.08,0,0,0,1.44-.44,1.4,1.4,0,0,0,.48-1.08,1.14,1.14,0,0,0-.2-.66,1.84,1.84,0,0,0-.51-.49,3.63,3.63,0,0,0-.71-.37l-.8-.32c-.35-.12-.69-.26-1-.41a4.11,4.11,0,0,1-.93-.56,2.88,2.88,0,0,1-.67-.77,2.08,2.08,0,0,1-.26-1.06,2.66,2.66,0,0,1,.23-1.09,2.58,2.58,0,0,1,.66-.88,3.13,3.13,0,0,1,1.05-.58,4.69,4.69,0,0,1,3.09.11,4.91,4.91,0,0,1,1.33.78l-.78,1a5.29,5.29,0,0,0-1-.62,2.86,2.86,0,0,0-1.18-.24,1.88,1.88,0,0,0-1.35.42,1.32,1.32,0,0,0-.43,1,1,1,0,0,0,.18.59,1.71,1.71,0,0,0,.48.44,3.7,3.7,0,0,0,.69.34l.81.31q.53.19,1.05.42a4,4,0,0,1,.95.55,2.7,2.7,0,0,1,.69.81,2.34,2.34,0,0,1,.27,1.16,2.66,2.66,0,0,1-.91,2,3.12,3.12,0,0,1-1.12.63A4.82,4.82,0,0,1,290.78,99.31Z"/><path d="M304.4,99.31a4.31,4.31,0,0,1-1.71-.34,4.38,4.38,0,0,1-1.43-1,4.93,4.93,0,0,1-1-1.6,5.81,5.81,0,0,1-.37-2.15,5.88,5.88,0,0,1,.37-2.17,5.09,5.09,0,0,1,1-1.61,4.26,4.26,0,0,1,1.43-1,4.47,4.47,0,0,1,3.42,0,4.16,4.16,0,0,1,1.43,1,5.09,5.09,0,0,1,1,1.61,5.88,5.88,0,0,1,.37,2.17,5.81,5.81,0,0,1-.37,2.15,4.93,4.93,0,0,1-1,1.6,4.28,4.28,0,0,1-3.14,1.33Zm0-1.36a2.46,2.46,0,0,0,1.14-.27,2.5,2.5,0,0,0,.89-.76,3.55,3.55,0,0,0,.57-1.17,5.13,5.13,0,0,0,.2-1.52,5.25,5.25,0,0,0-.2-1.53,3.56,3.56,0,0,0-.57-1.19,2.52,2.52,0,0,0-.89-.77,2.54,2.54,0,0,0-2.28,0,2.71,2.71,0,0,0-.89.77,4,4,0,0,0-.57,1.19,5.61,5.61,0,0,0-.2,1.53,5.49,5.49,0,0,0,.2,1.52,4,4,0,0,0,.57,1.17,2.68,2.68,0,0,0,.89.76A2.46,2.46,0,0,0,304.4,98Z"/><path d="M311.46,99.07V89.35h1.36l.14,1.4H313a7.86,7.86,0,0,1,1.47-1.17,3.41,3.41,0,0,1,1.79-.47,2.6,2.6,0,0,1,2.25,1,4.7,4.7,0,0,1,.71,2.84v6.16H317.6V93.13a3.51,3.51,0,0,0-.44-2,1.6,1.6,0,0,0-1.4-.61,2.44,2.44,0,0,0-1.34.38A8.86,8.86,0,0,0,313.1,92v7Z"/></svg>