<?xml version="1.0" encoding="utf-8"?>
<!-- Generator: Adobe Illustrator 24.0.3, SVG Export Plug-In . SVG Version: 6.00 Build 0)  -->
<svg version="1.1" id="Layer_1" xmlns="http://www.w3.org/2000/svg" xmlns:xlink="http://www.w3.org/1999/xlink" x="0px" y="0px"
	 viewBox="0 0 500 200" style="enable-background:new 0 0 500 200;" xml:space="preserve">
<style type="text/css">
	.st0{fill:#EE020A;}
	.st1{fill:#F5F5F5;}
	.st2{fill:#5151D3;}
</style>
<g>
	<rect y="-0.5" class="st0" width="6" height="200.5"/>
</g>
<g>
	<rect x="6" y="-0.5" class="st1" width="495" height="200.5"/>
</g>
<g>
	<g>
		<g>
			<path class="st0" d="M33.9,11.7c-8.6,0-15.7,7-15.7,15.7S25.2,43,33.9,43s15.7-7,15.7-15.7S42.5,11.7,33.9,11.7z"/>
		</g>
	</g>
</g>
<g>
	<g>
		<rect x="23.9" y="25.7" transform="matrix(0.7071 -0.7071 0.7071 0.7071 -9.4 31.9959)" class="st1" width="20" height="3.3"/>
	</g>
	<g>
		<rect x="32.2" y="17.3" transform="matrix(0.7071 -0.7071 0.7071 0.7071 -9.3914 31.9166)" class="st1" width="3.3" height="20"/>
	</g>
</g>
<g>
	<polygon class="st2" points="295.9,100.7 345.9,100.4 345.9,101.4 295.9,101.7 	"/>
</g>
<ellipse class="st2" cx="296.1" cy="101.1" rx="3" ry="3"/>
<g>
	<path class="st2" d="M352.8,104.4v-1.1c0.7-0.7,1.3-1.3,1.9-1.9s1.1-1.1,1.5-1.6s0.7-0.9,0.9-1.4c0.2-0.4,0.3-0.8,0.3-1.2
		c0-0.5-0.1-1-0.4-1.3s-0.7-0.5-1.2-0.5c-0.4,0-0.8,0.1-1.1,0.3c-0.3,0.2-0.6,0.5-0.9,0.8l-1-1c0.5-0.5,1-0.9,1.4-1.2
		s1.1-0.4,1.8-0.4c0.5,0,0.9,0.1,1.3,0.2s0.7,0.4,1,0.6s0.5,0.6,0.6,1c0.2,0.4,0.2,0.8,0.2,1.3c0,0.4-0.1,0.9-0.3,1.4
		c-0.2,0.5-0.5,0.9-0.8,1.4s-0.7,1-1.2,1.5s-0.9,1-1.4,1.6c0.3,0,0.6,0,0.9-0.1c0.3,0,0.6,0,0.8,0h2.5v1.6
		C359.6,104.4,352.8,104.4,352.8,104.4z"/>
	<path class="st2" d="M363.1,104.4c0-0.9,0.1-1.7,0.2-2.5s0.3-1.5,0.5-2.2s0.5-1.3,0.8-2c0.3-0.6,0.8-1.3,1.2-2H361v-1.6h6.8v1.1
		c-0.6,0.7-1.1,1.4-1.4,2.1c-0.4,0.7-0.7,1.3-0.9,2c-0.2,0.7-0.4,1.4-0.5,2.2c-0.1,0.8-0.2,1.7-0.2,2.7h-1.7V104.4z"/>
	<path class="st2" d="M369.8,107.5v-11h1.5l0.1,0.8h0.1c0.3-0.3,0.7-0.5,1.1-0.7s0.8-0.3,1.3-0.3s0.9,0.1,1.3,0.3
		c0.4,0.2,0.7,0.5,1,0.8s0.5,0.8,0.6,1.3s0.2,1,0.2,1.6c0,0.7-0.1,1.3-0.3,1.8c-0.2,0.5-0.4,1-0.7,1.3c-0.3,0.4-0.7,0.6-1.1,0.8
		c-0.4,0.2-0.8,0.3-1.3,0.3c-0.3,0-0.7-0.1-1-0.2s-0.7-0.4-1-0.6v1.3v2.5L369.8,107.5L369.8,107.5z M373.2,103c0.5,0,1-0.2,1.3-0.7
		c0.4-0.5,0.5-1.1,0.5-2c0-0.8-0.1-1.4-0.4-1.8s-0.7-0.7-1.3-0.7c-0.6,0-1.1,0.3-1.7,0.9v3.7c0.3,0.2,0.6,0.4,0.8,0.5
		C372.7,103,373,103,373.2,103z"/>
	<path class="st2" d="M377.5,104.4l2.5-4.1l-2.3-3.8h2l0.9,1.5c0.1,0.2,0.2,0.4,0.4,0.7c0.1,0.2,0.2,0.5,0.4,0.7h0.1
		c0.1-0.2,0.2-0.4,0.3-0.7c0.1-0.2,0.2-0.5,0.3-0.7l0.8-1.5h1.9l-2.3,4l2.5,3.9h-2l-1-1.6c-0.1-0.2-0.3-0.5-0.4-0.7
		s-0.3-0.5-0.4-0.7h-0.1c-0.1,0.2-0.2,0.5-0.3,0.7c-0.1,0.2-0.2,0.5-0.3,0.7l-0.8,1.6H377.5z"/>
</g>
<g>
	<path d="M132.1,108.1V90.4h3.1v7.1h7.2v-7.1h3.1v17.7h-3.1v-7.8h-7.2v7.8H132.1z"/>
	<path d="M155.5,108.4c-0.9,0-1.8-0.2-2.6-0.5c-0.8-0.3-1.5-0.8-2.1-1.4c-0.6-0.6-1.1-1.3-1.4-2.2c-0.3-0.9-0.5-1.8-0.5-2.9
		c0-1.1,0.2-2.1,0.5-2.9c0.3-0.9,0.8-1.6,1.4-2.2c0.6-0.6,1.2-1.1,2-1.4c0.7-0.3,1.5-0.5,2.3-0.5c0.9,0,1.7,0.2,2.4,0.5
		c0.7,0.3,1.3,0.7,1.7,1.3c0.5,0.6,0.8,1.2,1,2c0.2,0.8,0.4,1.6,0.4,2.5c0,0.3,0,0.6,0,0.9c0,0.3-0.1,0.5-0.1,0.6h-8.4
		c0.1,1.2,0.6,2.1,1.3,2.7c0.7,0.6,1.6,1,2.7,1c0.6,0,1.1-0.1,1.6-0.3s1-0.4,1.5-0.7l1.1,1.9c-0.6,0.4-1.3,0.8-2.1,1
		C157.1,108.3,156.3,108.4,155.5,108.4z M151.9,100.2h5.9c0-1-0.2-1.8-0.7-2.4c-0.4-0.6-1.1-0.9-2-0.9c-0.8,0-1.5,0.3-2.1,0.8
		C152.4,98.3,152.1,99.1,151.9,100.2z"/>
	<path d="M166.4,108.4c-1.2,0-2.1-0.4-2.8-1.1c-0.7-0.7-1.1-1.7-1.1-2.8c0-0.7,0.1-1.3,0.4-1.9c0.3-0.5,0.8-1,1.4-1.4
		c0.6-0.4,1.4-0.7,2.4-1s2.2-0.5,3.5-0.6c0-0.3-0.1-0.7-0.1-1s-0.2-0.6-0.4-0.8c-0.2-0.2-0.4-0.4-0.7-0.6c-0.3-0.1-0.7-0.2-1.1-0.2
		c-0.6,0-1.3,0.1-1.9,0.4c-0.6,0.3-1.2,0.6-1.8,0.9l-1.1-2.1c0.7-0.5,1.6-0.9,2.5-1.2s1.9-0.5,3-0.5c1.7,0,2.9,0.5,3.7,1.5
		c0.8,1,1.2,2.4,1.2,4.3v7.9h-2.6l-0.2-1.5h-0.1c-0.6,0.5-1.2,0.9-1.9,1.3C167.9,108.3,167.1,108.4,166.4,108.4z M167.4,106
		c0.5,0,1-0.1,1.5-0.4s0.9-0.6,1.4-1.1v-3c-0.9,0.1-1.7,0.3-2.3,0.4c-0.6,0.2-1.1,0.4-1.5,0.6c-0.4,0.2-0.6,0.5-0.8,0.8
		c-0.2,0.3-0.2,0.6-0.2,0.9c0,0.6,0.2,1,0.5,1.3C166.3,105.9,166.8,106,167.4,106z"/>
	<path d="M181.7,108.4c-1.7,0-3-0.6-4-1.8s-1.5-2.9-1.5-5.1c0-1.1,0.2-2.1,0.5-2.9c0.3-0.9,0.7-1.6,1.3-2.2c0.5-0.6,1.1-1.1,1.8-1.4
		c0.7-0.3,1.4-0.5,2.1-0.5c0.8,0,1.4,0.1,1.9,0.4c0.5,0.3,1,0.6,1.6,1.1l-0.1-2.1V89h3.1v19.1h-2.6l-0.2-1.4h-0.1
		c-0.5,0.5-1.1,0.9-1.7,1.2S182.4,108.4,181.7,108.4z M182.5,105.9c1,0,1.9-0.5,2.8-1.5v-6.2c-0.5-0.4-0.9-0.7-1.4-0.9
		c-0.4-0.2-0.9-0.2-1.3-0.2c-0.9,0-1.6,0.4-2.2,1.1c-0.6,0.8-0.9,1.8-0.9,3.2c0,1.4,0.3,2.5,0.8,3.3S181.5,105.9,182.5,105.9z"/>
	<path d="M195.3,108.4c-1.1,0-1.9-0.3-2.3-1c-0.5-0.7-0.7-1.6-0.7-2.7V89h3.1v15.8c0,0.4,0.1,0.6,0.2,0.8c0.1,0.2,0.3,0.2,0.5,0.2
		c0.1,0,0.1,0,0.2,0c0.1,0,0.2,0,0.3-0.1l0.4,2.3C196.6,108.3,196,108.4,195.3,108.4z"/>
	<path d="M201.2,92.5c-0.6,0-1-0.2-1.4-0.5c-0.4-0.3-0.5-0.7-0.5-1.3c0-0.5,0.2-0.9,0.5-1.3c0.4-0.3,0.8-0.5,1.4-0.5
		c0.6,0,1,0.2,1.4,0.5c0.4,0.3,0.5,0.8,0.5,1.3c0,0.5-0.2,0.9-0.5,1.3C202.2,92.4,201.7,92.5,201.2,92.5z M199.6,108.1V94.8h3.1
		v13.3H199.6z"/>
	<path d="M206.7,108.1V94.8h2.6l0.2,1.8h0.1c0.6-0.6,1.2-1.1,1.9-1.5c0.7-0.4,1.5-0.6,2.4-0.6c1.4,0,2.5,0.5,3.1,1.4s1,2.2,1,3.9
		v8.3h-3.1v-7.9c0-1.1-0.2-1.9-0.5-2.3c-0.3-0.4-0.9-0.7-1.6-0.7c-0.6,0-1.1,0.1-1.5,0.4c-0.4,0.3-0.9,0.7-1.5,1.2v9.3H206.7z"/>
	<path d="M227.5,108.4c-0.9,0-1.8-0.2-2.6-0.5s-1.5-0.8-2.1-1.4s-1.1-1.3-1.4-2.2c-0.3-0.9-0.5-1.8-0.5-2.9c0-1.1,0.2-2.1,0.5-2.9
		c0.3-0.9,0.8-1.6,1.4-2.2c0.6-0.6,1.2-1.1,2-1.4c0.7-0.3,1.5-0.5,2.3-0.5c0.9,0,1.7,0.2,2.4,0.5c0.7,0.3,1.3,0.7,1.7,1.3
		c0.5,0.6,0.8,1.2,1,2c0.2,0.8,0.4,1.6,0.4,2.5c0,0.3,0,0.6,0,0.9c0,0.3-0.1,0.5-0.1,0.6H224c0.1,1.2,0.6,2.1,1.3,2.7
		c0.7,0.6,1.6,1,2.7,1c0.6,0,1.1-0.1,1.6-0.3s1-0.4,1.5-0.7l1.1,1.9c-0.6,0.4-1.3,0.8-2.1,1C229.1,108.3,228.3,108.4,227.5,108.4z
		 M223.9,100.2h5.9c0-1-0.2-1.8-0.7-2.4c-0.4-0.6-1.1-0.9-2-0.9c-0.8,0-1.5,0.3-2.1,0.8S224.1,99.1,223.9,100.2z"/>
	<path d="M245.6,108.4c-0.8,0-1.4-0.1-2-0.4c-0.5-0.2-1-0.6-1.3-1c-0.3-0.4-0.6-0.9-0.7-1.5c-0.2-0.6-0.2-1.2-0.2-2v-6.3h-1.9V95
		l2.1-0.1l0.4-3.6h2.6v3.6h3.4v2.5h-3.4v6.3c0,1.5,0.6,2.3,1.9,2.3c0.2,0,0.5,0,0.7-0.1c0.2-0.1,0.5-0.1,0.7-0.2l0.5,2.3
		c-0.4,0.1-0.8,0.2-1.2,0.3C246.6,108.4,246.1,108.4,245.6,108.4z"/>
	<path d="M255.9,108.4c-0.9,0-1.8-0.2-2.6-0.5s-1.5-0.8-2.1-1.4s-1.1-1.3-1.4-2.2c-0.3-0.9-0.5-1.8-0.5-2.9c0-1.1,0.2-2.1,0.5-2.9
		c0.3-0.9,0.8-1.6,1.4-2.2c0.6-0.6,1.2-1.1,2-1.4c0.7-0.3,1.5-0.5,2.3-0.5c0.9,0,1.7,0.2,2.4,0.5c0.7,0.3,1.3,0.7,1.7,1.3
		c0.5,0.6,0.8,1.2,1,2c0.2,0.8,0.4,1.6,0.4,2.5c0,0.3,0,0.6,0,0.9c0,0.3-0.1,0.5-0.1,0.6h-8.4c0.1,1.2,0.6,2.1,1.3,2.7
		c0.7,0.6,1.6,1,2.7,1c0.6,0,1.1-0.1,1.6-0.3s1-0.4,1.5-0.7l1.1,1.9c-0.6,0.4-1.3,0.8-2.1,1C257.5,108.3,256.7,108.4,255.9,108.4z
		 M252.4,100.2h5.9c0-1-0.2-1.8-0.7-2.4c-0.4-0.6-1.1-0.9-2-0.9c-0.8,0-1.5,0.3-2.1,0.8S252.5,99.1,252.4,100.2z"/>
	<path d="M262,108.1l4.2-6.9l-3.9-6.3h3.3l1.5,2.5c0.2,0.4,0.4,0.7,0.6,1.1c0.2,0.4,0.4,0.8,0.6,1.1h0.1c0.2-0.4,0.3-0.7,0.5-1.1
		c0.2-0.4,0.4-0.8,0.5-1.1l1.3-2.5h3.2l-3.9,6.7l4.2,6.6h-3.3l-1.6-2.6c-0.2-0.4-0.4-0.8-0.7-1.2c-0.2-0.4-0.5-0.8-0.7-1.2h-0.1
		c-0.2,0.4-0.4,0.8-0.6,1.1c-0.2,0.4-0.4,0.8-0.6,1.2l-1.4,2.6H262z"/>
	<path d="M280.5,108.4c-0.8,0-1.4-0.1-2-0.4c-0.5-0.2-1-0.6-1.3-1c-0.3-0.4-0.6-0.9-0.7-1.5c-0.2-0.6-0.2-1.2-0.2-2v-6.3h-1.9V95
		l2.1-0.1l0.4-3.6h2.6v3.6h3.4v2.5h-3.4v6.3c0,1.5,0.6,2.3,1.9,2.3c0.2,0,0.5,0,0.7-0.1c0.2-0.1,0.5-0.1,0.7-0.2l0.5,2.3
		c-0.4,0.1-0.8,0.2-1.2,0.3C281.6,108.4,281.1,108.4,280.5,108.4z"/>
</g>
</svg>
