<?xml version="1.0" encoding="UTF-8"?>
<svg viewBox="0 0 500 300" version="1.1" xmlns="http://www.w3.org/2000/svg" xmlns:xlink="http://www.w3.org/1999/xlink">
    <!-- Generator: Sketch 64 (93537) - https://sketch.com -->
    <title>Artboard</title>
    <desc>Created with Sketch.</desc>
    <g id="Artboard" stroke="none" stroke-width="1" fill="none" fill-rule="evenodd">
        <rect id="Rectangle" fill="#EE020A" fill-rule="nonzero" x="0" y="0" width="6" height="300"></rect>
        <rect id="Rectangle" fill="#F5F5F5" fill-rule="nonzero" x="6" y="0" width="495" height="300"></rect>
        <path d="M33.5,12 C25.0095541,12 18,18.9329073 18,27.5495208 C18,36.1661342 24.910828,43 33.5,43 C42.089172,43 49,36.0670927 49,27.4504792 C49,18.8338658 41.9904459,12 33.5,12 Z" id="Path" fill="#EE020A" fill-rule="nonzero"></path>
        <g id="Group" transform="translate(25.000000, 19.000000)" fill="#F5F5F5" fill-rule="nonzero">
            <rect id="Rectangle" transform="translate(8.909875, 8.364395) rotate(-45.000000) translate(-8.909875, -8.364395) " x="-1.0900291" y="6.71441082" width="19.9998082" height="3.29996835"></rect>
            <rect id="Rectangle" transform="translate(8.847765, 8.285095) rotate(-45.000000) translate(-8.847765, -8.285095) " x="7.19778082" y="-1.7148091" width="3.29996835" height="19.9998082"></rect>
        </g>
        <rect id="Rectangle" stroke="#E3E4E5" fill="#FFFFFF" x="79.5" y="51.5" width="348" height="194"></rect>
        <rect id="Rectangle" fill="#EE020A" x="108" y="169" width="136" height="41" rx="3"></rect>
        <rect id="Rectangle" fill="#E3E4E5" x="258" y="169" width="136" height="41" rx="3"></rect>
        <path id="Line-2" d="M370.015866,177.96832 L394,190 L369.984176,201.968299 L369.997,191.967 L109.997359,191.624998 L107.997361,191.622357 L108.002643,187.622361 L110.002641,187.625002 L370.002,187.967 L370.015866,177.96832 Z" fill="#5151D3" fill-rule="nonzero"></path>
        <rect id="Rectangle" fill="#C6CACC" x="108" y="95" width="286" height="12"></rect>
        <rect id="Rectangle" fill="#C6CACC" x="108" y="117" width="286" height="12"></rect>
        <rect id="Rectangle" fill="#C6CACC" x="108" y="139" width="220" height="12"></rect>
        <path id="Line-3" d="M395.451036,98.5721418 L396.427858,102.451036 L394.488411,102.939447 L131.761,169.102 L134.203831,178.799183 L108,173.023437 L128.342895,155.52582 L130.784,165.223 L393.511589,99.0605531 L395.451036,98.5721418 Z" fill="#5151D3" fill-rule="nonzero"></path>
        <path id="Line-2" d="M370,65.875 L394,77.875 L370,89.875 L370,79.875 L106,79.875 L106,75.875 L370,75.875 L370,65.875 Z" fill="#5151D3" fill-rule="nonzero"></path>
        <path id="Line-4" d="M392.574757,222.883724 L394.116276,226.574757 L392.27076,227.345516 C344.716825,247.205895 297.132769,257.140625 249.53125,257.140625 C209.414558,257.140625 169.294587,250.084462 129.179637,235.977091 L125.544324,245.359566 L107.5,225.5 L134.214247,222.980281 L130.625213,232.245301 C170.280522,246.177163 209.913109,253.140625 249.53125,253.140625 C296.116868,253.140625 342.703266,243.512434 389.302722,224.247245 L390.72924,223.654484 L392.574757,222.883724 Z" fill="#5151D3" fill-rule="nonzero"></path>
    </g>
</svg>