<svg id="Layer_1" data-name="Layer 1" xmlns="http://www.w3.org/2000/svg" viewBox="0 0 480 200"><defs><style>.cls-1{fill:#db0022;}.cls-2{fill:#f5f5f5;}.cls-3{fill:#4b4b4b;}.cls-4{fill:#005fc6;}</style></defs><rect class="cls-1" width="6" height="200"/><rect class="cls-2" x="6" width="474" height="200"/><path class="cls-1" d="M33,10.15a15.65,15.65,0,1,0,15.7,15.6A15.73,15.73,0,0,0,33,10.15Z"/><rect class="cls-2" x="23" y="24.16" width="20" height="3.3" transform="translate(-8.58 30.9) rotate(-45)"/><rect class="cls-2" x="31.29" y="15.73" width="3.3" height="20" transform="translate(-8.55 30.83) rotate(-45)"/><path class="cls-3" d="M95.27,81.5,93.05,71h1.38l1.1,5.71c.1.58.2,1.14.3,1.7s.21,1.12.31,1.69h.06c.12-.57.24-1.14.37-1.7s.25-1.12.37-1.69L98.39,71h1.22l1.45,5.71.39,1.68c.13.57.26,1.14.38,1.71h.07c.09-.57.19-1.14.29-1.7s.19-1.12.3-1.69l1.1-5.71h1.28L102.7,81.5h-1.6l-1.59-6.32c-.09-.4-.18-.8-.26-1.19s-.16-.78-.25-1.19h-.06c-.09.41-.18.8-.27,1.19s-.18.79-.26,1.19L96.86,81.5Z"/><path class="cls-3" d="M109.72,81.7a3.91,3.91,0,0,1-1.46-.28,3.62,3.62,0,0,1-1.19-.8,3.75,3.75,0,0,1-.79-1.28,4.79,4.79,0,0,1-.29-1.71,4.67,4.67,0,0,1,.3-1.72,4.35,4.35,0,0,1,.78-1.29,3.35,3.35,0,0,1,1.12-.8,3,3,0,0,1,1.29-.28,3.27,3.27,0,0,1,1.32.25,2.58,2.58,0,0,1,1,.74,3.4,3.4,0,0,1,.6,1.15,5,5,0,0,1,.21,1.5c0,.14,0,.28,0,.41a2.84,2.84,0,0,1,0,.35h-5.25a3,3,0,0,0,.77,2,2.4,2.4,0,0,0,1.82.73,3.09,3.09,0,0,0,1-.17,4.49,4.49,0,0,0,.91-.44l.46.87a7,7,0,0,1-1.13.56A4,4,0,0,1,109.72,81.7ZM107.27,77h4.16a2.76,2.76,0,0,0-.5-1.8,1.74,1.74,0,0,0-1.42-.61,2,2,0,0,0-.79.16,1.94,1.94,0,0,0-.68.47,2.57,2.57,0,0,0-.5.76A3.47,3.47,0,0,0,107.27,77Z"/><path class="cls-3" d="M117.7,81.5V70.11H119v3.11l0,1.6a6.59,6.59,0,0,1,1.17-.91,2.64,2.64,0,0,1,1.42-.37,2.09,2.09,0,0,1,1.8.76,3.81,3.81,0,0,1,.57,2.28V81.5h-1.31V76.75a2.84,2.84,0,0,0-.35-1.59,1.31,1.31,0,0,0-1.12-.49,1.88,1.88,0,0,0-1.08.31,6.73,6.73,0,0,0-1,.89V81.5Z"/><path class="cls-3" d="M128.2,81.7a2.36,2.36,0,0,1-1.62-.58,2,2,0,0,1-.65-1.63,2.17,2.17,0,0,1,1.13-2,9.27,9.27,0,0,1,3.64-1,3.38,3.38,0,0,0-.08-.72,1.76,1.76,0,0,0-.24-.63,1.31,1.31,0,0,0-.49-.44,1.68,1.68,0,0,0-.79-.17,3.21,3.21,0,0,0-1.27.26,5.83,5.83,0,0,0-1,.58l-.52-.92a9.61,9.61,0,0,1,1.33-.68,4.59,4.59,0,0,1,1.73-.32,2.37,2.37,0,0,1,2.06.87,3.83,3.83,0,0,1,.64,2.33V81.5h-1.08l-.12-.92h0a7.1,7.1,0,0,1-1.2.79A3,3,0,0,1,128.2,81.7Zm.38-1.06a2.28,2.28,0,0,0,1.06-.26,5.8,5.8,0,0,0,1.06-.78V77.44a16,16,0,0,0-1.64.3,4.51,4.51,0,0,0-1.08.42,1.66,1.66,0,0,0-.59.55,1.36,1.36,0,0,0-.18.68,1.09,1.09,0,0,0,.4,1A1.62,1.62,0,0,0,128.58,80.64Z"/><path class="cls-3" d="M136.15,81.5l-2.8-7.77h1.36l1.48,4.41c.11.39.23.77.35,1.16s.25.76.36,1.13H137c.12-.37.23-.75.35-1.13s.24-.77.35-1.16l1.48-4.41h1.29l-2.75,7.77Z"/><path class="cls-3" d="M145,81.7a3.91,3.91,0,0,1-1.46-.28,3.57,3.57,0,0,1-1.18-.8,3.62,3.62,0,0,1-.8-1.28,4.79,4.79,0,0,1-.28-1.71,4.67,4.67,0,0,1,.29-1.72,4.18,4.18,0,0,1,.79-1.29,3.21,3.21,0,0,1,1.11-.8,3.06,3.06,0,0,1,1.29-.28,3.27,3.27,0,0,1,1.32.25,2.58,2.58,0,0,1,1,.74,3.4,3.4,0,0,1,.6,1.15,5,5,0,0,1,.21,1.5c0,.14,0,.28,0,.41a2.84,2.84,0,0,1,0,.35H142.6a3,3,0,0,0,.78,2,2.37,2.37,0,0,0,1.81.73,3.15,3.15,0,0,0,1-.17,4.68,4.68,0,0,0,.9-.44l.46.87a7,7,0,0,1-1.13.56A4,4,0,0,1,145,81.7ZM142.58,77h4.16a2.76,2.76,0,0,0-.5-1.8,1.74,1.74,0,0,0-1.42-.61,2,2,0,0,0-.79.16,2,2,0,0,0-.68.47,2.57,2.57,0,0,0-.5.76A3.81,3.81,0,0,0,142.58,77Z"/><path class="cls-3" d="M154.81,81.7a2.36,2.36,0,0,1-1.62-.58,2,2,0,0,1-.65-1.63,2.17,2.17,0,0,1,1.13-2,9.27,9.27,0,0,1,3.63-1,3.38,3.38,0,0,0-.07-.72,1.6,1.6,0,0,0-.25-.63,1.28,1.28,0,0,0-.48-.44,1.72,1.72,0,0,0-.8-.17,3.19,3.19,0,0,0-1.26.26,5.93,5.93,0,0,0-1.06.58l-.51-.92a9.07,9.07,0,0,1,1.33-.68,4.59,4.59,0,0,1,1.73-.32,2.37,2.37,0,0,1,2.06.87,3.83,3.83,0,0,1,.64,2.33V81.5h-1.09l-.11-.92h-.05a6.65,6.65,0,0,1-1.19.79A3,3,0,0,1,154.81,81.7Zm.38-1.06a2.28,2.28,0,0,0,1.06-.26,5.44,5.44,0,0,0,1.05-.78V77.44a16.53,16.53,0,0,0-1.64.3,4.41,4.41,0,0,0-1.07.42,1.58,1.58,0,0,0-.59.55,1.36,1.36,0,0,0-.18.68,1.09,1.09,0,0,0,.4,1A1.62,1.62,0,0,0,155.19,80.64Z"/><path class="cls-3" d="M163.74,81.7a2.9,2.9,0,0,1-2.35-1.06,4.61,4.61,0,0,1-.87-3,4.81,4.81,0,0,1,.28-1.7,4,4,0,0,1,.74-1.29,3.44,3.44,0,0,1,1.08-.82,3,3,0,0,1,1.28-.28,2.64,2.64,0,0,1,1.16.24,4.78,4.78,0,0,1,1,.65L166,73.1v-3h1.33V81.5h-1.09l-.11-.91h0a5,5,0,0,1-1.07.78A2.62,2.62,0,0,1,163.74,81.7Zm.28-1.11a2.16,2.16,0,0,0,1-.26,3.83,3.83,0,0,0,1-.81V75.46a3.52,3.52,0,0,0-.95-.64,2.57,2.57,0,0,0-.94-.18,1.76,1.76,0,0,0-.87.22,2.13,2.13,0,0,0-.71.6,2.88,2.88,0,0,0-.48.94,3.86,3.86,0,0,0-.18,1.22,3.73,3.73,0,0,0,.56,2.19A1.83,1.83,0,0,0,164,80.59Z"/><path class="cls-3" d="M172.62,81.7a2.9,2.9,0,0,1-2.35-1.06,4.61,4.61,0,0,1-.87-3,4.81,4.81,0,0,1,.28-1.7,4,4,0,0,1,.74-1.29,3.44,3.44,0,0,1,1.08-.82,3,3,0,0,1,1.28-.28,2.64,2.64,0,0,1,1.16.24,5,5,0,0,1,1,.65l-.06-1.33v-3h1.33V81.5h-1.09l-.11-.91H175a5,5,0,0,1-1.07.78A2.62,2.62,0,0,1,172.62,81.7Zm.28-1.11a2.16,2.16,0,0,0,1-.26,3.83,3.83,0,0,0,1-.81V75.46a3.52,3.52,0,0,0-.95-.64,2.57,2.57,0,0,0-.94-.18,1.76,1.76,0,0,0-.87.22,2.13,2.13,0,0,0-.71.6,2.88,2.88,0,0,0-.48.94,3.86,3.86,0,0,0-.18,1.22,3.73,3.73,0,0,0,.56,2.19A1.83,1.83,0,0,0,172.9,80.59Z"/><path class="cls-3" d="M182,81.7a3.91,3.91,0,0,1-1.46-.28,3.62,3.62,0,0,1-1.19-.8,3.75,3.75,0,0,1-.79-1.28,4.79,4.79,0,0,1-.29-1.71,4.67,4.67,0,0,1,.3-1.72,4.35,4.35,0,0,1,.78-1.29,3.35,3.35,0,0,1,1.12-.8,3,3,0,0,1,1.29-.28,3.27,3.27,0,0,1,1.32.25,2.58,2.58,0,0,1,1,.74,3.4,3.4,0,0,1,.6,1.15,5,5,0,0,1,.21,1.5c0,.14,0,.28,0,.41a2.84,2.84,0,0,1,0,.35h-5.25a3,3,0,0,0,.78,2,2.36,2.36,0,0,0,1.81.73,3.09,3.09,0,0,0,1-.17,4.49,4.49,0,0,0,.91-.44l.46.87a7,7,0,0,1-1.13.56A4,4,0,0,1,182,81.7ZM179.54,77h4.16a2.76,2.76,0,0,0-.5-1.8,1.74,1.74,0,0,0-1.42-.61,2,2,0,0,0-.79.16,1.94,1.94,0,0,0-.68.47,2.57,2.57,0,0,0-.5.76A3.47,3.47,0,0,0,179.54,77Z"/><path class="cls-3" d="M189.43,81.7a2.89,2.89,0,0,1-2.34-1.06,4.61,4.61,0,0,1-.87-3,4.81,4.81,0,0,1,.28-1.7,3.86,3.86,0,0,1,.74-1.29,3.52,3.52,0,0,1,1.07-.82,3,3,0,0,1,1.28-.28,2.66,2.66,0,0,1,1.17.24,5,5,0,0,1,1,.65l-.07-1.33v-3H193V81.5h-1.09l-.11-.91h-.05a4.92,4.92,0,0,1-1.06.78A2.63,2.63,0,0,1,189.43,81.7Zm.29-1.11a2.15,2.15,0,0,0,1-.26,3.83,3.83,0,0,0,1-.81V75.46a3.38,3.38,0,0,0-.95-.64,2.5,2.5,0,0,0-.94-.18,1.81,1.81,0,0,0-.87.22,2.13,2.13,0,0,0-.71.6,3.33,3.33,0,0,0-.48.94,3.87,3.87,0,0,0-.17,1.22,3.66,3.66,0,0,0,.56,2.19A1.83,1.83,0,0,0,189.72,80.59Z"/><path class="cls-3" d="M200.65,81.7a2.41,2.41,0,0,1-1.63-.58,2.07,2.07,0,0,1-.64-1.63,2.15,2.15,0,0,1,1.13-2,9.27,9.27,0,0,1,3.63-1,3.38,3.38,0,0,0-.07-.72,1.77,1.77,0,0,0-.25-.63,1.28,1.28,0,0,0-.48-.44,1.72,1.72,0,0,0-.8-.17,3.16,3.16,0,0,0-1.26.26,5.6,5.6,0,0,0-1.06.58l-.51-.92a9.07,9.07,0,0,1,1.33-.68,4.59,4.59,0,0,1,1.73-.32,2.39,2.39,0,0,1,2.06.87,3.83,3.83,0,0,1,.64,2.33V81.5h-1.09l-.11-.92h-.05a6.38,6.38,0,0,1-1.2.79A2.92,2.92,0,0,1,200.65,81.7Zm.38-1.06a2.31,2.31,0,0,0,1.06-.26,5.44,5.44,0,0,0,1-.78V77.44a16.53,16.53,0,0,0-1.64.3,4.41,4.41,0,0,0-1.07.42,1.58,1.58,0,0,0-.59.55,1.36,1.36,0,0,0-.18.68,1.09,1.09,0,0,0,.4,1A1.62,1.62,0,0,0,201,80.64Z"/><path class="cls-3" d="M210.12,81.5V73.73h1.09l.11,1.12h.05a6.35,6.35,0,0,1,1.17-.94,2.71,2.71,0,0,1,1.44-.37,2.06,2.06,0,0,1,1.79.76,3.81,3.81,0,0,1,.57,2.28V81.5H215V76.75a2.84,2.84,0,0,0-.35-1.59,1.31,1.31,0,0,0-1.12-.49,1.84,1.84,0,0,0-1.07.31,7.22,7.22,0,0,0-1.06.89V81.5Z"/><path class="cls-3" d="M221.14,81.7a2.11,2.11,0,0,1-1.81-.77,3.78,3.78,0,0,1-.57-2.27V73.73h1.33v4.75a2.8,2.8,0,0,0,.34,1.59,1.25,1.25,0,0,0,1.11.49,1.82,1.82,0,0,0,1.07-.31,5,5,0,0,0,1-1V73.73H225V81.5h-1.09l-.11-1.21h-.05a4.87,4.87,0,0,1-1.14,1A2.54,2.54,0,0,1,221.14,81.7Z"/><path class="cls-3" d="M227.57,81.5V73.73h1.09l.11,1.12h0a5.48,5.48,0,0,1,1.12-.94,2.39,2.39,0,0,1,1.3-.37A2,2,0,0,1,233.38,75a7.43,7.43,0,0,1,1.23-1.08,2.36,2.36,0,0,1,1.33-.4,2.11,2.11,0,0,1,1.79.76,3.74,3.74,0,0,1,.58,2.28V81.5H237V76.75a2.84,2.84,0,0,0-.35-1.59,1.28,1.28,0,0,0-1.09-.49,2.87,2.87,0,0,0-1.95,1.2V81.5H232.3V76.75a2.75,2.75,0,0,0-.36-1.59,1.27,1.27,0,0,0-1.1-.49,2.87,2.87,0,0,0-2,1.2V81.5Z"/><path class="cls-3" d="M244.28,81.7a2.7,2.7,0,0,1-1.13-.27,4,4,0,0,1-1.09-.73H242l-.11.8h-1.06V70.11h1.31v3.11l0,1.4a5.92,5.92,0,0,1,1.15-.77,2.81,2.81,0,0,1,1.28-.31,3,3,0,0,1,1.33.28,2.58,2.58,0,0,1,1,.8,3.57,3.57,0,0,1,.59,1.24,6.33,6.33,0,0,1,.2,1.63,5.39,5.39,0,0,1-.27,1.77,4,4,0,0,1-.74,1.33,3,3,0,0,1-1.07.83A3.14,3.14,0,0,1,244.28,81.7Zm-.22-1.11a1.87,1.87,0,0,0,.88-.21,2.18,2.18,0,0,0,.71-.61,2.91,2.91,0,0,0,.46-1,4.71,4.71,0,0,0,.17-1.3,5.94,5.94,0,0,0-.11-1.16,2.79,2.79,0,0,0-.36-.91,1.78,1.78,0,0,0-.64-.58,2,2,0,0,0-.94-.21,3.22,3.22,0,0,0-2.08,1.06v4.08a3.33,3.33,0,0,0,1,.63A2.65,2.65,0,0,0,244.06,80.59Z"/><path class="cls-3" d="M252.84,81.7a3.91,3.91,0,0,1-1.46-.28,3.62,3.62,0,0,1-1.19-.8,3.75,3.75,0,0,1-.79-1.28,4.79,4.79,0,0,1-.29-1.71,4.67,4.67,0,0,1,.3-1.72,4.16,4.16,0,0,1,.78-1.29,3.41,3.41,0,0,1,1.11-.8,3.11,3.11,0,0,1,1.3-.28,3.27,3.27,0,0,1,1.32.25,2.65,2.65,0,0,1,1,.74,3.4,3.4,0,0,1,.6,1.15,5.39,5.39,0,0,1,.2,1.5v.41a2.84,2.84,0,0,1,0,.35h-5.25a3,3,0,0,0,.77,2,2.4,2.4,0,0,0,1.82.73,3.09,3.09,0,0,0,1-.17,4.49,4.49,0,0,0,.91-.44l.46.87a6.72,6.72,0,0,1-1.14.56A3.91,3.91,0,0,1,252.84,81.7ZM250.39,77h4.16a2.82,2.82,0,0,0-.5-1.8,1.74,1.74,0,0,0-1.42-.61,2,2,0,0,0-1.47.63,2.57,2.57,0,0,0-.5.76A3.19,3.19,0,0,0,250.39,77Z"/><path class="cls-3" d="M257.62,81.5V73.73h1.09l.11,1.41h.05a3.66,3.66,0,0,1,1-1.17,2.09,2.09,0,0,1,2.07-.27l-.26,1.15a2.68,2.68,0,0,0-.35-.1,2.17,2.17,0,0,0-.4,0,1.72,1.72,0,0,0-1,.4,3.12,3.12,0,0,0-.93,1.39v5Z"/><path class="cls-3" d="M269.4,81.7a3.36,3.36,0,0,1-1.37-.28,3.3,3.3,0,0,1-1.14-.79,3.65,3.65,0,0,1-.79-1.28,5.11,5.11,0,0,1,0-3.45,3.79,3.79,0,0,1,.79-1.29,3.33,3.33,0,0,1,1.14-.8,3.61,3.61,0,0,1,2.74,0,3.33,3.33,0,0,1,1.14.8,3.79,3.79,0,0,1,.79,1.29,5.11,5.11,0,0,1,0,3.45,3.65,3.65,0,0,1-.79,1.28,3.3,3.3,0,0,1-1.14.79A3.36,3.36,0,0,1,269.4,81.7Zm0-1.09a2,2,0,0,0,1.62-.83,2.89,2.89,0,0,0,.46-.93,4.19,4.19,0,0,0,.16-1.22,4.24,4.24,0,0,0-.16-1.22,2.9,2.9,0,0,0-.46-1,1.91,1.91,0,0,0-.71-.62,2,2,0,0,0-.91-.22,2,2,0,0,0-.91.22,2,2,0,0,0-.72.62,3.1,3.1,0,0,0-.45,1,4.24,4.24,0,0,0-.16,1.22,4.19,4.19,0,0,0,.16,1.22,3.1,3.1,0,0,0,.45.93,2,2,0,0,0,.72.61A1.86,1.86,0,0,0,269.4,80.61Z"/><path class="cls-3" d="M275.27,81.5V74.8h-1v-1l1-.08V72.5a2.93,2.93,0,0,1,.55-1.89,2.07,2.07,0,0,1,1.72-.69,3.14,3.14,0,0,1,.7.07,3.25,3.25,0,0,1,.6.19l-.29,1a2.28,2.28,0,0,0-.88-.19c-.72,0-1.09.5-1.09,1.51v1.23h1.65V74.8h-1.65v6.7Z"/><path class="cls-3" d="M282.92,81.5V73.73H284l.11,1.41h.05a3.64,3.64,0,0,1,1-1.17,2,2,0,0,1,1.24-.43,2.06,2.06,0,0,1,.84.16L287,74.85l-.35-.1a2.25,2.25,0,0,0-.4,0,1.7,1.7,0,0,0-1,.4,3.21,3.21,0,0,0-.94,1.39v5Z"/><path class="cls-3" d="M291.46,81.7a3.91,3.91,0,0,1-1.46-.28,3.47,3.47,0,0,1-2-2.08,4.79,4.79,0,0,1-.29-1.71,4.67,4.67,0,0,1,.3-1.72,4.35,4.35,0,0,1,.78-1.29,3.35,3.35,0,0,1,1.12-.8,3,3,0,0,1,1.29-.28,3.27,3.27,0,0,1,1.32.25,2.58,2.58,0,0,1,1,.74,3.4,3.4,0,0,1,.6,1.15,5,5,0,0,1,.21,1.5c0,.14,0,.28,0,.41a2.84,2.84,0,0,1,0,.35H289a3,3,0,0,0,.78,2,2.37,2.37,0,0,0,1.81.73,3,3,0,0,0,1-.17,4.49,4.49,0,0,0,.91-.44l.46.87a7,7,0,0,1-1.13.56A4,4,0,0,1,291.46,81.7ZM289,77h4.16a2.76,2.76,0,0,0-.5-1.8,1.74,1.74,0,0,0-1.42-.61,2,2,0,0,0-.79.16,1.94,1.94,0,0,0-.68.47,2.57,2.57,0,0,0-.5.76A3.81,3.81,0,0,0,289,77Z"/><path class="cls-3" d="M301.17,84.78V82l.07-1.41a4.11,4.11,0,0,1-1.07.77,2.69,2.69,0,0,1-1.27.32,2.89,2.89,0,0,1-2.34-1.06,4.61,4.61,0,0,1-.87-3,4.81,4.81,0,0,1,.28-1.7,3.86,3.86,0,0,1,.74-1.29,3.52,3.52,0,0,1,1.07-.82,3,3,0,0,1,1.28-.28,2.81,2.81,0,0,1,1.19.23,4.25,4.25,0,0,1,1,.69h0l.13-.73h1.05v11Zm-2-4.19a2.15,2.15,0,0,0,1-.26,3.83,3.83,0,0,0,1-.81V75.46a3.38,3.38,0,0,0-.95-.64,2.48,2.48,0,0,0-.93-.18,1.82,1.82,0,0,0-.88.22,2.13,2.13,0,0,0-.71.6,3.33,3.33,0,0,0-.48.94,3.87,3.87,0,0,0-.17,1.22,3.66,3.66,0,0,0,.56,2.19A1.83,1.83,0,0,0,299.19,80.59Z"/><path class="cls-3" d="M307.4,81.7a2.13,2.13,0,0,1-1.82-.77,3.78,3.78,0,0,1-.57-2.27V73.73h1.33v4.75a2.79,2.79,0,0,0,.35,1.59,1.25,1.25,0,0,0,1.11.49,1.87,1.87,0,0,0,1.07-.31,4.94,4.94,0,0,0,1-1V73.73h1.32V81.5h-1.09L310,80.29H310a4.91,4.91,0,0,1-1.15,1A2.53,2.53,0,0,1,307.4,81.7Z"/><path class="cls-3" d="M317,81.7a3.91,3.91,0,0,1-1.46-.28,3.62,3.62,0,0,1-1.19-.8,3.75,3.75,0,0,1-.79-1.28,4.79,4.79,0,0,1-.29-1.71,4.67,4.67,0,0,1,.3-1.72,4.35,4.35,0,0,1,.78-1.29,3.35,3.35,0,0,1,1.12-.8,3,3,0,0,1,1.29-.28,3.27,3.27,0,0,1,1.32.25,2.58,2.58,0,0,1,1,.74,3.4,3.4,0,0,1,.6,1.15,5,5,0,0,1,.21,1.5c0,.14,0,.28,0,.41a2.84,2.84,0,0,1,0,.35h-5.25a3,3,0,0,0,.78,2,2.37,2.37,0,0,0,1.81.73,3,3,0,0,0,1-.17,4.49,4.49,0,0,0,.91-.44l.46.87a7,7,0,0,1-1.13.56A4,4,0,0,1,317,81.7ZM314.53,77h4.16a2.76,2.76,0,0,0-.5-1.8,1.74,1.74,0,0,0-1.42-.61,2,2,0,0,0-.79.16,1.94,1.94,0,0,0-.68.47,2.57,2.57,0,0,0-.5.76A3.47,3.47,0,0,0,314.53,77Z"/><path class="cls-3" d="M323.8,81.7a4.1,4.1,0,0,1-1.59-.31,4.82,4.82,0,0,1-1.31-.77l.66-.88a5.07,5.07,0,0,0,1.05.68,2.83,2.83,0,0,0,1.24.25,1.63,1.63,0,0,0,1.15-.35,1.13,1.13,0,0,0,.38-.86.86.86,0,0,0-.16-.53,1.53,1.53,0,0,0-.41-.39,2.69,2.69,0,0,0-.56-.3l-.64-.26c-.28-.09-.56-.2-.84-.32a4.17,4.17,0,0,1-.74-.45,2.28,2.28,0,0,1-.54-.62,1.62,1.62,0,0,1-.2-.85,2.15,2.15,0,0,1,.18-.87,2,2,0,0,1,.53-.7,2.62,2.62,0,0,1,.84-.47,3.87,3.87,0,0,1,2.47.09,4.07,4.07,0,0,1,1.06.63l-.62.83a4.47,4.47,0,0,0-.83-.5,2.3,2.3,0,0,0-.95-.19,1.47,1.47,0,0,0-1.08.34,1,1,0,0,0-.34.78.82.82,0,0,0,.14.47,1.32,1.32,0,0,0,.39.35,2.57,2.57,0,0,0,.55.28l.65.24.84.34a3.35,3.35,0,0,1,.76.44,2.16,2.16,0,0,1,.55.65,1.88,1.88,0,0,1,.22.93,2.18,2.18,0,0,1-.19.89,2,2,0,0,1-.54.74,2.6,2.6,0,0,1-.9.5A3.55,3.55,0,0,1,323.8,81.7Z"/><path class="cls-3" d="M330.6,81.7a2.49,2.49,0,0,1-1.05-.2,1.8,1.8,0,0,1-.69-.52,2.13,2.13,0,0,1-.37-.82,4.35,4.35,0,0,1-.12-1.06V74.8h-1.15v-1l1.22-.08.16-2.18h1.1v2.18h2.1V74.8h-2.1v4.32a1.94,1.94,0,0,0,.27,1.11,1,1,0,0,0,.93.39,1.86,1.86,0,0,0,.45-.06,3.62,3.62,0,0,0,.43-.14l.26,1c-.22.07-.45.14-.7.2A3.18,3.18,0,0,1,330.6,81.7Z"/><path class="cls-3" d="M336.49,81.7a4,4,0,0,1-1.47-.28,3.5,3.5,0,0,1-2-2.08,4.58,4.58,0,0,1-.29-1.71,4.88,4.88,0,0,1,.29-1.72,4.18,4.18,0,0,1,.79-1.29,3.21,3.21,0,0,1,1.11-.8,3.11,3.11,0,0,1,1.3-.28,3.27,3.27,0,0,1,1.32.25,2.54,2.54,0,0,1,1,.74,3.4,3.4,0,0,1,.6,1.15,5,5,0,0,1,.21,1.5c0,.14,0,.28,0,.41a1.69,1.69,0,0,1,0,.35h-5.25a3.07,3.07,0,0,0,.78,2,2.38,2.38,0,0,0,1.82.73,3.13,3.13,0,0,0,1-.17,4.68,4.68,0,0,0,.9-.44l.47.87a7.11,7.11,0,0,1-1.14.56A4,4,0,0,1,336.49,81.7ZM334,77h4.16a2.76,2.76,0,0,0-.51-1.8,1.7,1.7,0,0,0-1.41-.61,1.92,1.92,0,0,0-.79.16,1.85,1.85,0,0,0-.68.47,2.6,2.6,0,0,0-.51.76A3.47,3.47,0,0,0,334,77Z"/><path class="cls-3" d="M343.93,81.7a2.9,2.9,0,0,1-2.35-1.06,4.61,4.61,0,0,1-.87-3,4.81,4.81,0,0,1,.28-1.7,4,4,0,0,1,.74-1.29,3.44,3.44,0,0,1,1.08-.82,3,3,0,0,1,1.28-.28,2.64,2.64,0,0,1,1.16.24,5,5,0,0,1,1,.65l-.06-1.33v-3h1.33V81.5h-1.09l-.11-.91h-.05a5,5,0,0,1-1.07.78A2.62,2.62,0,0,1,343.93,81.7Zm.28-1.11a2.16,2.16,0,0,0,1-.26,3.83,3.83,0,0,0,1-.81V75.46a3.52,3.52,0,0,0-.95-.64,2.57,2.57,0,0,0-.94-.18,1.76,1.76,0,0,0-.87.22,2.13,2.13,0,0,0-.71.6,2.88,2.88,0,0,0-.48.94,3.86,3.86,0,0,0-.18,1.22,3.73,3.73,0,0,0,.56,2.19A1.83,1.83,0,0,0,344.21,80.59Z"/><path class="cls-3" d="M353.57,81.5V74.8h-1.05v-1l1.05-.08V72.5a2.94,2.94,0,0,1,.56-1.89,2.06,2.06,0,0,1,1.72-.69,3.11,3.11,0,0,1,.69.07,3.25,3.25,0,0,1,.6.19l-.29,1A2.25,2.25,0,0,0,356,71c-.72,0-1.08.5-1.08,1.51v1.23h1.64V74.8h-1.64v6.7Z"/><path class="cls-3" d="M358.69,72.13a.91.91,0,0,1-.64-.24.84.84,0,0,1,0-1.23,1,1,0,0,1,1.29,0,.84.84,0,0,1,0,1.23A.92.92,0,0,1,358.69,72.13ZM358,81.5V73.73h1.31V81.5Z"/><path class="cls-3" d="M365.11,81.7a3.91,3.91,0,0,1-1.46-.28,3.62,3.62,0,0,1-1.19-.8,3.75,3.75,0,0,1-.79-1.28,4.79,4.79,0,0,1-.29-1.71,4.67,4.67,0,0,1,.3-1.72,4.16,4.16,0,0,1,.78-1.29,3.41,3.41,0,0,1,1.11-.8,3.11,3.11,0,0,1,1.3-.28,3.27,3.27,0,0,1,1.32.25,2.54,2.54,0,0,1,1,.74,3.24,3.24,0,0,1,.61,1.15,5.39,5.39,0,0,1,.2,1.5v.41a2.84,2.84,0,0,1,0,.35h-5.25a3,3,0,0,0,.77,2,2.4,2.4,0,0,0,1.82.73,3.09,3.09,0,0,0,1-.17,4.17,4.17,0,0,0,.9-.44l.47.87a6.72,6.72,0,0,1-1.14.56A3.91,3.91,0,0,1,365.11,81.7ZM362.66,77h4.16a2.82,2.82,0,0,0-.5-1.8,1.74,1.74,0,0,0-1.42-.61,2,2,0,0,0-1.47.63,2.57,2.57,0,0,0-.5.76A3.19,3.19,0,0,0,362.66,77Z"/><path class="cls-3" d="M371.28,81.7a1.23,1.23,0,0,1-1.07-.45,2.28,2.28,0,0,1-.32-1.31V70.11h1.31V80a.64.64,0,0,0,.12.45.31.31,0,0,0,.25.13h.12l.17,0,.18,1a1.26,1.26,0,0,1-.31.09A1.87,1.87,0,0,1,371.28,81.7Z"/><path class="cls-3" d="M376.63,81.7a2.92,2.92,0,0,1-2.35-1.06,4.61,4.61,0,0,1-.87-3,5,5,0,0,1,.28-1.7,4.06,4.06,0,0,1,.75-1.29,3.4,3.4,0,0,1,1.07-.82,3,3,0,0,1,1.28-.28,2.66,2.66,0,0,1,1.17.24,5,5,0,0,1,1,.65l-.06-1.33v-3h1.33V81.5h-1.09l-.11-.91h0a4.92,4.92,0,0,1-1.06.78A2.63,2.63,0,0,1,376.63,81.7Zm.29-1.11a2.15,2.15,0,0,0,1-.26,3.83,3.83,0,0,0,1-.81V75.46a3.52,3.52,0,0,0-.95-.64,2.53,2.53,0,0,0-.94-.18,1.76,1.76,0,0,0-.87.22,2.13,2.13,0,0,0-.71.6,3.33,3.33,0,0,0-.48.94,3.86,3.86,0,0,0-.18,1.22,3.73,3.73,0,0,0,.56,2.19A1.85,1.85,0,0,0,376.92,80.59Z"/><path class="cls-3" d="M384.88,81.7a4,4,0,0,1-1.58-.31,4.82,4.82,0,0,1-1.31-.77l.65-.88a5.66,5.66,0,0,0,1.05.68,2.86,2.86,0,0,0,1.24.25,1.62,1.62,0,0,0,1.15-.35,1.11,1.11,0,0,0,.39-.86.92.92,0,0,0-.16-.53,1.53,1.53,0,0,0-.41-.39,2.78,2.78,0,0,0-.57-.3l-.64-.26c-.28-.09-.55-.2-.83-.32a3.84,3.84,0,0,1-.74-.45,2.28,2.28,0,0,1-.54-.62,1.62,1.62,0,0,1-.21-.85,2,2,0,0,1,.19-.87,2,2,0,0,1,.52-.7,2.62,2.62,0,0,1,.84-.47,3.61,3.61,0,0,1,1.12-.16,3.54,3.54,0,0,1,1.36.25,4.07,4.07,0,0,1,1.06.63l-.62.83a4.54,4.54,0,0,0-.84-.5,2.23,2.23,0,0,0-.94-.19,1.47,1.47,0,0,0-1.08.34,1,1,0,0,0-.34.78.75.75,0,0,0,.14.47,1.28,1.28,0,0,0,.38.35,2.66,2.66,0,0,0,.56.28l.64.24.84.34a3,3,0,0,1,.76.44,2.2,2.2,0,0,1,.56.65,1.88,1.88,0,0,1,.21.93,2.18,2.18,0,0,1-.18.89A2.08,2.08,0,0,1,387,81a2.55,2.55,0,0,1-.89.5A3.61,3.61,0,0,1,384.88,81.7Z"/><path class="cls-3" d="M395.2,81.7a2.47,2.47,0,0,1-1-.2,1.66,1.66,0,0,1-.69-.52,2.14,2.14,0,0,1-.38-.82A4.93,4.93,0,0,1,393,79.1V74.8h-1.15v-1l1.21-.08.16-2.18h1.11v2.18h2.09V74.8h-2.09v4.32a2,2,0,0,0,.26,1.11,1.06,1.06,0,0,0,.94.39,1.86,1.86,0,0,0,.45-.06,3.62,3.62,0,0,0,.43-.14l.25,1c-.21.07-.44.14-.69.2A3.2,3.2,0,0,1,395.2,81.7Z"/><path class="cls-3" d="M401,81.7a3.31,3.31,0,0,1-1.36-.28,3.24,3.24,0,0,1-1.15-.79,3.8,3.8,0,0,1-.79-1.28,5.11,5.11,0,0,1,0-3.45,4,4,0,0,1,.79-1.29,3.27,3.27,0,0,1,1.15-.8,3.47,3.47,0,0,1,1.36-.27,3.52,3.52,0,0,1,1.37.27,3.36,3.36,0,0,1,1.15.8,4,4,0,0,1,.79,1.29,5.28,5.28,0,0,1,0,3.45,3.8,3.8,0,0,1-.79,1.28A3.51,3.51,0,0,1,401,81.7Zm0-1.09a1.92,1.92,0,0,0,.92-.22,2.05,2.05,0,0,0,.71-.61,2.69,2.69,0,0,0,.45-.93,4.19,4.19,0,0,0,.16-1.22,4.24,4.24,0,0,0-.16-1.22,2.7,2.7,0,0,0-.45-1,2.08,2.08,0,0,0-.71-.62,2,2,0,0,0-.92-.22,2,2,0,0,0-1.62.84,2.9,2.9,0,0,0-.46,1,4.62,4.62,0,0,0-.16,1.22,4.56,4.56,0,0,0,.16,1.22,2.89,2.89,0,0,0,.46.93,2,2,0,0,0,.71.61A1.88,1.88,0,0,0,401,80.61Z"/><path class="cls-3" d="M96.44,105.7a2.52,2.52,0,0,1-1-.2,1.7,1.7,0,0,1-.68-.52,2,2,0,0,1-.38-.82,4.37,4.37,0,0,1-.11-1.06V98.8H93.06v-1l1.22-.08.16-2.18h1.11v2.18h2.09V98.8H95.55v4.32a1.94,1.94,0,0,0,.26,1.11,1,1,0,0,0,.94.39,1.85,1.85,0,0,0,.44-.06,3.81,3.81,0,0,0,.44-.14l.25,1c-.21.07-.44.14-.69.2A3.27,3.27,0,0,1,96.44,105.7Z"/><path class="cls-3" d="M99.4,105.5V94.11h1.31v3.11l0,1.6a6.91,6.91,0,0,1,1.16-.91,2.67,2.67,0,0,1,1.43-.37,2.09,2.09,0,0,1,1.8.76,3.81,3.81,0,0,1,.57,2.28v4.92h-1.32v-4.75a2.75,2.75,0,0,0-.35-1.59,1.3,1.3,0,0,0-1.12-.49,1.87,1.87,0,0,0-1.07.31,7.22,7.22,0,0,0-1.06.89v5.63Z"/><path class="cls-3" d="M111.26,105.7a4,4,0,0,1-1.47-.28,3.68,3.68,0,0,1-1.18-.8,3.6,3.6,0,0,1-.79-1.28,4.79,4.79,0,0,1-.29-1.71,4.67,4.67,0,0,1,.3-1.72,4,4,0,0,1,.78-1.29,3.41,3.41,0,0,1,1.11-.8,3.11,3.11,0,0,1,1.3-.28,3.27,3.27,0,0,1,1.32.25,2.54,2.54,0,0,1,1,.74,3.4,3.4,0,0,1,.6,1.15,5,5,0,0,1,.21,1.5c0,.14,0,.28,0,.41a1.69,1.69,0,0,1,0,.35h-5.24a3,3,0,0,0,.77,2,2.4,2.4,0,0,0,1.82.73,3.13,3.13,0,0,0,1-.17,4.41,4.41,0,0,0,.9-.44l.47.87a6.72,6.72,0,0,1-1.14.56A3.91,3.91,0,0,1,111.26,105.7ZM108.81,101H113a2.82,2.82,0,0,0-.5-1.8,1.74,1.74,0,0,0-1.42-.61,2,2,0,0,0-1.47.63,2.6,2.6,0,0,0-.51.76A3.47,3.47,0,0,0,108.81,101Z"/><path class="cls-3" d="M121.9,105.7a2.9,2.9,0,0,1-2.35-1.06,4.61,4.61,0,0,1-.87-3,4.81,4.81,0,0,1,.28-1.7,4.24,4.24,0,0,1,.74-1.29,3.44,3.44,0,0,1,1.08-.82,3,3,0,0,1,1.28-.28,2.64,2.64,0,0,1,1.16.24,4.78,4.78,0,0,1,1,.65l-.06-1.33v-3h1.33V105.5h-1.09l-.11-.91h0a5,5,0,0,1-1.07.78A2.62,2.62,0,0,1,121.9,105.7Zm.28-1.11a2.16,2.16,0,0,0,1-.26,3.83,3.83,0,0,0,1-.81V99.46a3.52,3.52,0,0,0-1-.64,2.57,2.57,0,0,0-.94-.18,1.76,1.76,0,0,0-.87.22,2.13,2.13,0,0,0-.71.6,2.88,2.88,0,0,0-.48.94,3.86,3.86,0,0,0-.18,1.22,3.73,3.73,0,0,0,.56,2.19A1.83,1.83,0,0,0,122.18,104.59Z"/><path class="cls-3" d="M131.15,105.7a3.51,3.51,0,0,1-2.52-1.07,3.8,3.8,0,0,1-.79-1.28,5.28,5.28,0,0,1,0-3.45,4,4,0,0,1,.79-1.29,3.36,3.36,0,0,1,1.15-.8,3.52,3.52,0,0,1,1.37-.27,3.47,3.47,0,0,1,1.36.27,3.36,3.36,0,0,1,1.15.8,4,4,0,0,1,.79,1.29,5.28,5.28,0,0,1,0,3.45,3.8,3.8,0,0,1-.79,1.28,3.51,3.51,0,0,1-2.51,1.07Zm0-1.09a1.88,1.88,0,0,0,.91-.22,2.05,2.05,0,0,0,.71-.61,2.89,2.89,0,0,0,.46-.93,4.56,4.56,0,0,0,.16-1.22,4.62,4.62,0,0,0-.16-1.22,2.9,2.9,0,0,0-.46-1,2.08,2.08,0,0,0-.71-.62,2,2,0,0,0-1.83,0,2.08,2.08,0,0,0-.71.62,2.9,2.9,0,0,0-.46,1,4.62,4.62,0,0,0-.16,1.22,4.56,4.56,0,0,0,.16,1.22,2.89,2.89,0,0,0,.46.93,2.05,2.05,0,0,0,.71.61A1.9,1.9,0,0,0,131.15,104.61Z"/><path class="cls-3" d="M138,105.5l-2.16-7.77h1.34l1.16,4.49c.08.38.16.74.24,1.09s.15.71.22,1.07h.06c.09-.36.17-.72.26-1.08l.27-1.08,1.2-4.49h1.28l1.22,4.49c.09.38.19.74.28,1.09s.18.71.26,1.07h.07l.24-1.07c.07-.35.15-.71.24-1.09l1.13-4.49h1.25l-2.08,7.77h-1.6l-1.12-4.17c-.1-.37-.18-.74-.26-1.11s-.17-.74-.27-1.13h-.06c-.09.39-.17.77-.26,1.14s-.18.74-.29,1.11l-1.08,4.16Z"/><path class="cls-3" d="M148.22,105.5V97.73h1.09l.11,1.12h0a6.76,6.76,0,0,1,1.18-.94,2.7,2.7,0,0,1,1.43-.37,2.09,2.09,0,0,1,1.8.76,3.81,3.81,0,0,1,.57,2.28v4.92h-1.31v-4.75a2.84,2.84,0,0,0-.35-1.59,1.31,1.31,0,0,0-1.12-.49,1.88,1.88,0,0,0-1.08.31,6.73,6.73,0,0,0-1.05.89v5.63Z"/><path class="cls-3" d="M158.36,105.7a1.22,1.22,0,0,1-1.07-.45,2.28,2.28,0,0,1-.32-1.31V94.11h1.31V104a.7.7,0,0,0,.11.45.33.33,0,0,0,.26.13h.12l.17,0,.17,1a1.07,1.07,0,0,1-.3.09A1.92,1.92,0,0,1,158.36,105.7Z"/><path class="cls-3" d="M164.07,105.7a3.39,3.39,0,0,1-1.37-.28,3.3,3.3,0,0,1-1.14-.79,3.8,3.8,0,0,1-.79-1.28,5.11,5.11,0,0,1,0-3.45,4,4,0,0,1,.79-1.29,3.33,3.33,0,0,1,1.14-.8,3.56,3.56,0,0,1,1.37-.27,3.52,3.52,0,0,1,1.37.27,3.33,3.33,0,0,1,1.14.8,4,4,0,0,1,.8,1.29,5.28,5.28,0,0,1,0,3.45,3.82,3.82,0,0,1-.8,1.28,3.3,3.3,0,0,1-1.14.79A3.36,3.36,0,0,1,164.07,105.7Zm0-1.09a1.86,1.86,0,0,0,.91-.22,2,2,0,0,0,.72-.61,2.88,2.88,0,0,0,.45-.93,4.19,4.19,0,0,0,.16-1.22,4.24,4.24,0,0,0-.16-1.22,2.89,2.89,0,0,0-.45-1,2,2,0,0,0-.72-.62,2,2,0,0,0-.91-.22,2,2,0,0,0-1.62.84,2.9,2.9,0,0,0-.46,1,4.62,4.62,0,0,0-.16,1.22,4.56,4.56,0,0,0,.16,1.22,2.89,2.89,0,0,0,.46.93,2,2,0,0,0,.71.61A1.88,1.88,0,0,0,164.07,104.61Z"/><path class="cls-3" d="M171.29,105.7a2.41,2.41,0,0,1-1.63-.58,2.07,2.07,0,0,1-.64-1.63,2.17,2.17,0,0,1,1.13-2,9.27,9.27,0,0,1,3.63-1,3.38,3.38,0,0,0-.07-.72,1.77,1.77,0,0,0-.25-.63,1.28,1.28,0,0,0-.48-.44,1.72,1.72,0,0,0-.8-.17,3.16,3.16,0,0,0-1.26.26,5.6,5.6,0,0,0-1.06.58l-.51-.92a9.07,9.07,0,0,1,1.33-.68,4.59,4.59,0,0,1,1.73-.32,2.37,2.37,0,0,1,2.06.87,3.83,3.83,0,0,1,.64,2.33v4.76H174l-.11-.92h0a6.38,6.38,0,0,1-1.2.79A2.92,2.92,0,0,1,171.29,105.7Zm.38-1.06a2.28,2.28,0,0,0,1.06-.26,5.44,5.44,0,0,0,1.05-.78v-2.16a16.53,16.53,0,0,0-1.64.3,4.41,4.41,0,0,0-1.07.42,1.58,1.58,0,0,0-.59.55,1.36,1.36,0,0,0-.18.68,1.09,1.09,0,0,0,.4,1A1.62,1.62,0,0,0,171.67,104.64Z"/><path class="cls-3" d="M180.22,105.7a2.9,2.9,0,0,1-2.35-1.06,4.61,4.61,0,0,1-.87-3,4.81,4.81,0,0,1,.28-1.7,4.24,4.24,0,0,1,.74-1.29,3.44,3.44,0,0,1,1.08-.82,3,3,0,0,1,1.28-.28,2.64,2.64,0,0,1,1.16.24,4.78,4.78,0,0,1,1,.65l-.06-1.33v-3h1.33V105.5h-1.09l-.11-.91h-.05a5,5,0,0,1-1.07.78A2.6,2.6,0,0,1,180.22,105.7Zm.28-1.11a2.16,2.16,0,0,0,1-.26,3.83,3.83,0,0,0,1-.81V99.46a3.52,3.52,0,0,0-1-.64,2.57,2.57,0,0,0-.94-.18,1.76,1.76,0,0,0-.87.22,2.13,2.13,0,0,0-.71.6,2.88,2.88,0,0,0-.48.94,3.86,3.86,0,0,0-.18,1.22,3.73,3.73,0,0,0,.56,2.19A1.83,1.83,0,0,0,180.5,104.59Z"/><path class="cls-3" d="M188.23,105.7a2.36,2.36,0,0,1-1.62-.58,2.07,2.07,0,0,1-.65-1.63,2.16,2.16,0,0,1,1.14-2,9.17,9.17,0,0,1,3.63-1,4.18,4.18,0,0,0-.07-.72,2,2,0,0,0-.25-.63,1.31,1.31,0,0,0-.49-.44,1.68,1.68,0,0,0-.79-.17,3.21,3.21,0,0,0-1.27.26,5.83,5.83,0,0,0-1.05.58l-.51-.92a8.92,8.92,0,0,1,1.32-.68,4.63,4.63,0,0,1,1.73-.32,2.41,2.41,0,0,1,2.07.87,3.9,3.9,0,0,1,.64,2.33v4.76H191l-.12-.92h0a7.1,7.1,0,0,1-1.2.79A3,3,0,0,1,188.23,105.7Zm.39-1.06a2.27,2.27,0,0,0,1-.26,5.8,5.8,0,0,0,1.06-.78v-2.16a16,16,0,0,0-1.64.3,4.41,4.41,0,0,0-1.07.42,1.62,1.62,0,0,0-.6.55,1.36,1.36,0,0,0-.18.68,1.09,1.09,0,0,0,.4,1A1.65,1.65,0,0,0,188.62,104.64Z"/><path class="cls-3" d="M197.94,105.7a2.66,2.66,0,0,1-1.12-.27,4.05,4.05,0,0,1-1.1-.73h-.05l-.11.8H194.5V94.11h1.32v3.11l0,1.4a6,6,0,0,1,1.16-.77,2.78,2.78,0,0,1,1.28-.31,2.91,2.91,0,0,1,1.32.28,2.5,2.5,0,0,1,1,.8,3.57,3.57,0,0,1,.59,1.24,5.92,5.92,0,0,1,.2,1.63,5.39,5.39,0,0,1-.27,1.77,4.13,4.13,0,0,1-.73,1.33,3.06,3.06,0,0,1-2.36,1.11Zm-.22-1.11a1.91,1.91,0,0,0,.89-.21,2.25,2.25,0,0,0,.7-.61,3.13,3.13,0,0,0,.47-1,4.72,4.72,0,0,0,.16-1.3,5.25,5.25,0,0,0-.11-1.16,2.41,2.41,0,0,0-.36-.91,1.7,1.7,0,0,0-.64-.58,1.94,1.94,0,0,0-.93-.21,3.2,3.2,0,0,0-2.08,1.06v4.08a3.41,3.41,0,0,0,1,.63A2.7,2.7,0,0,0,197.72,104.59Z"/><path class="cls-3" d="M204.74,105.7a1.23,1.23,0,0,1-1.07-.45,2.28,2.28,0,0,1-.32-1.31V94.11h1.31V104a.64.64,0,0,0,.12.45.31.31,0,0,0,.25.13h.12l.17,0,.18,1a1.26,1.26,0,0,1-.31.09A1.92,1.92,0,0,1,204.74,105.7Z"/><path class="cls-3" d="M210.58,105.7a3.91,3.91,0,0,1-1.46-.28,3.57,3.57,0,0,1-1.18-.8,3.77,3.77,0,0,1-.8-1.28,4.79,4.79,0,0,1-.28-1.71,4.67,4.67,0,0,1,.29-1.72,4.18,4.18,0,0,1,.79-1.29,3.21,3.21,0,0,1,1.11-.8,3.06,3.06,0,0,1,1.29-.28,3.27,3.27,0,0,1,1.32.25,2.58,2.58,0,0,1,1,.74,3.4,3.4,0,0,1,.6,1.15,5,5,0,0,1,.21,1.5c0,.14,0,.28,0,.41a2.84,2.84,0,0,1,0,.35h-5.25a3,3,0,0,0,.78,2,2.37,2.37,0,0,0,1.81.73,3.15,3.15,0,0,0,1-.17,4.68,4.68,0,0,0,.9-.44l.46.87a7,7,0,0,1-1.13.56A4,4,0,0,1,210.58,105.7ZM208.14,101h4.16a2.76,2.76,0,0,0-.51-1.8,1.72,1.72,0,0,0-1.41-.61,2,2,0,0,0-.8.16,2,2,0,0,0-.68.47,2.57,2.57,0,0,0-.5.76A3.47,3.47,0,0,0,208.14,101Z"/><path class="cls-3" d="M222.66,105.7a4.52,4.52,0,0,1-1.82-.37,4.12,4.12,0,0,1-1.45-1.07,4.89,4.89,0,0,1-1-1.71,7.07,7.07,0,0,1-.34-2.29,6.78,6.78,0,0,1,.35-2.28,4.94,4.94,0,0,1,1-1.71,4.13,4.13,0,0,1,1.47-1.08,4.5,4.5,0,0,1,1.85-.37,3.51,3.51,0,0,1,1.69.39,4.33,4.33,0,0,1,1.19.9l-.72.87a3.27,3.27,0,0,0-.94-.72,2.47,2.47,0,0,0-1.2-.28,3,3,0,0,0-1.36.3,2.94,2.94,0,0,0-1,.85,3.86,3.86,0,0,0-.66,1.33,6,6,0,0,0-.24,1.76,6.15,6.15,0,0,0,.24,1.79,4.23,4.23,0,0,0,.64,1.35,2.9,2.9,0,0,0,1,.86,2.86,2.86,0,0,0,1.35.31,2.92,2.92,0,0,0,1.35-.31,4.14,4.14,0,0,0,1.08-.88l.74.84a4.81,4.81,0,0,1-1.41,1.12A4,4,0,0,1,222.66,105.7Z"/><path class="cls-3" d="M230.36,105.7a5,5,0,0,1-2.05-.42,5.1,5.1,0,0,1-1.63-1.14l.8-.92a4.37,4.37,0,0,0,1.32,1,3.65,3.65,0,0,0,1.58.36,2.49,2.49,0,0,0,1.61-.47,1.65,1.65,0,0,0,.44-1.92,1.35,1.35,0,0,0-.37-.48,2.18,2.18,0,0,0-.55-.36l-.69-.34-1.5-.66a5.29,5.29,0,0,1-.75-.38,3.05,3.05,0,0,1-.69-.54,2.86,2.86,0,0,1-.5-.76,2.73,2.73,0,0,1-.19-1,2.43,2.43,0,0,1,.25-1.1,2.49,2.49,0,0,1,.69-.89,3.2,3.2,0,0,1,1-.59,4.25,4.25,0,0,1,1.32-.2,4.17,4.17,0,0,1,1.74.36,4.43,4.43,0,0,1,1.36.93l-.72.87a3.59,3.59,0,0,0-1.06-.73,3.11,3.11,0,0,0-1.32-.27,2.3,2.3,0,0,0-1.42.41,1.33,1.33,0,0,0-.53,1.13,1.3,1.3,0,0,0,.15.65,1.48,1.48,0,0,0,.41.46,2.65,2.65,0,0,0,.56.35,4.91,4.91,0,0,0,.62.28l1.49.64a7.56,7.56,0,0,1,.85.44,3.2,3.2,0,0,1,.68.58,2.39,2.39,0,0,1,.46.77,2.84,2.84,0,0,1-.79,3.13,3.25,3.25,0,0,1-1.12.64A4.35,4.35,0,0,1,230.36,105.7Z"/><path class="cls-3" d="M237.91,105.5,234.55,95H236l1.67,5.66c.2.63.37,1.21.51,1.75s.32,1.11.52,1.72h.06c.2-.61.37-1.19.52-1.72s.31-1.12.49-1.75L241.43,95h1.36l-3.33,10.49Z"/><path class="cls-3" d="M248,96.13a.92.92,0,0,1-.65-.24.84.84,0,0,1,0-1.23,1,1,0,0,1,1.29,0,.84.84,0,0,1,0,1.23A.91.91,0,0,1,248,96.13Zm-.68,9.37V97.73h1.32v7.77Z"/><path class="cls-3" d="M251.24,105.5V97.73h1.09l.11,1.12h.05a6.35,6.35,0,0,1,1.17-.94,2.71,2.71,0,0,1,1.44-.37,2.09,2.09,0,0,1,1.8.76,3.89,3.89,0,0,1,.56,2.28v4.92h-1.31v-4.75a2.84,2.84,0,0,0-.35-1.59,1.31,1.31,0,0,0-1.12-.49,1.84,1.84,0,0,0-1.07.31,7.22,7.22,0,0,0-1.06.89v5.63Z"/><path class="cls-4" d="M263.21,105.5V95h2.09l1.86,5.12c.12.33.23.67.34,1s.21.69.33,1h.07c.11-.34.22-.69.32-1s.21-.69.33-1L270.36,95h2.11V105.5h-1.71v-4.78c0-.24,0-.51,0-.8l.06-.87c0-.29.05-.58.08-.87s.06-.54.08-.79h-.06l-.85,2.43-1.71,4.71h-1.11l-1.73-4.71-.83-2.43h-.06c0,.25,0,.51.07.79s0,.58.08.87.05.58.06.87,0,.56,0,.8v4.78Z"/><path class="cls-4" d="M275.5,108.74a4.32,4.32,0,0,1-.56,0,3.23,3.23,0,0,1-.47-.12l.34-1.44.26.07a1.54,1.54,0,0,0,.3,0,1.37,1.37,0,0,0,1-.38,2.38,2.38,0,0,0,.57-1l.14-.49L274,97.65h1.87l1.36,3.85c.12.35.24.71.35,1.08s.22.76.34,1.13H278c.09-.36.19-.73.29-1.11s.2-.74.3-1.1l1.18-3.85h1.78l-2.85,8.21a9.6,9.6,0,0,1-.53,1.2,3.88,3.88,0,0,1-.66.9,2.71,2.71,0,0,1-.87.58A3,3,0,0,1,275.5,108.74Z"/><path class="cls-4" d="M286.25,105.5V95h3.53a6.63,6.63,0,0,1,1.52.16,3.46,3.46,0,0,1,1.22.52,2.59,2.59,0,0,1,.81,1,3.41,3.41,0,0,1,.29,1.47,3.09,3.09,0,0,1-.57,1.94,3.13,3.13,0,0,1-1.51,1.06l2.5,4.36H292l-2.26-4.09h-1.6v4.09Zm1.85-5.56h1.49a2.58,2.58,0,0,0,1.64-.45,1.62,1.62,0,0,0,.57-1.35,1.36,1.36,0,0,0-.57-1.26,3.17,3.17,0,0,0-1.64-.35H288.1Z"/><path class="cls-4" d="M298.76,105.7a4.23,4.23,0,0,1-1.52-.28,3.66,3.66,0,0,1-1.23-.81,3.59,3.59,0,0,1-.83-1.29,5,5,0,0,1-.29-1.74,4.67,4.67,0,0,1,.3-1.72,3.78,3.78,0,0,1,.81-1.3,3.65,3.65,0,0,1,1.16-.82,3.32,3.32,0,0,1,1.34-.28,3.41,3.41,0,0,1,1.41.27,2.79,2.79,0,0,1,1,.77,3.39,3.39,0,0,1,.61,1.18,5.13,5.13,0,0,1,.21,1.5c0,.19,0,.36,0,.52s0,.28-.06.38h-5a2.49,2.49,0,0,0,.74,1.62,2.24,2.24,0,0,0,1.58.57,2.91,2.91,0,0,0,.95-.15,4.33,4.33,0,0,0,.87-.42l.63,1.15a6,6,0,0,1-1.25.61A4.35,4.35,0,0,1,298.76,105.7Zm-2.1-4.87h3.49a2.34,2.34,0,0,0-.39-1.43,1.4,1.4,0,0,0-1.21-.52,1.74,1.74,0,0,0-1.23.5A2.37,2.37,0,0,0,296.66,100.83Z"/><path class="cls-4" d="M303.51,108.61v-11H305l.13.83h.06a5.29,5.29,0,0,1,1.11-.72,2.78,2.78,0,0,1,1.26-.3,2.83,2.83,0,0,1,1.3.28,2.58,2.58,0,0,1,1,.8,3.84,3.84,0,0,1,.61,1.27,6,6,0,0,1,.21,1.65,5.57,5.57,0,0,1-.28,1.8,4.11,4.11,0,0,1-.75,1.32,3.07,3.07,0,0,1-1.07.83,2.91,2.91,0,0,1-1.26.29,2.6,2.6,0,0,1-1-.23,3.88,3.88,0,0,1-1-.64l.05,1.31v2.47Zm3.42-4.43a1.63,1.63,0,0,0,1.32-.68,3.3,3.3,0,0,0,.52-2,3.51,3.51,0,0,0-.4-1.84,1.37,1.37,0,0,0-1.29-.65,2.54,2.54,0,0,0-1.73.88v3.66a2.63,2.63,0,0,0,.83.51A2.17,2.17,0,0,0,306.93,104.18Z"/><path class="cls-4" d="M315.75,105.7a3.58,3.58,0,0,1-1.41-.28,3.47,3.47,0,0,1-1.19-.8,3.7,3.7,0,0,1-.82-1.29,4.59,4.59,0,0,1-.31-1.75,4.54,4.54,0,0,1,.31-1.74,3.84,3.84,0,0,1,.82-1.3,3.65,3.65,0,0,1,2.6-1.08,3.67,3.67,0,0,1,1.42.28,3.42,3.42,0,0,1,1.19.8,4,4,0,0,1,.82,1.3,4.54,4.54,0,0,1,.31,1.74,4.59,4.59,0,0,1-.31,1.75,3.85,3.85,0,0,1-.82,1.29,3.29,3.29,0,0,1-1.19.8A3.67,3.67,0,0,1,315.75,105.7Zm0-1.51a1.55,1.55,0,0,0,1.36-.71,3.26,3.26,0,0,0,.5-1.9,3.3,3.3,0,0,0-.5-1.91,1.57,1.57,0,0,0-1.36-.71,1.54,1.54,0,0,0-1.35.71,3.3,3.3,0,0,0-.49,1.91,3.26,3.26,0,0,0,.49,1.9A1.52,1.52,0,0,0,315.75,104.19Z"/><path class="cls-4" d="M321.32,105.5V97.65h1.52L323,99H323a3.38,3.38,0,0,1,1-1.18,2.11,2.11,0,0,1,1.21-.4,2,2,0,0,1,.9.16l-.32,1.6a2.4,2.4,0,0,0-.38-.1,2.63,2.63,0,0,0-.43,0,1.72,1.72,0,0,0-1,.36,2.77,2.77,0,0,0-.88,1.25v4.8Z"/><path class="cls-4" d="M330.05,105.7a2.81,2.81,0,0,1-1.15-.21,1.91,1.91,0,0,1-.77-.59,2.32,2.32,0,0,1-.44-.89,4.63,4.63,0,0,1-.13-1.16V99.1h-1.12V97.73l1.21-.08.23-2.15h1.53v2.15h2V99.1h-2v3.75c0,.92.37,1.37,1.11,1.37a2,2,0,0,0,.42,0,2.54,2.54,0,0,0,.39-.13l.32,1.36a7.23,7.23,0,0,1-.72.2A4.17,4.17,0,0,1,330.05,105.7Z"/><path class="cls-4" d="M335.1,105.7a4.32,4.32,0,0,1-1.61-.32,4.89,4.89,0,0,1-1.37-.77l.86-1.19a4.61,4.61,0,0,0,1,.65,2.66,2.66,0,0,0,1.13.23,1.37,1.37,0,0,0,.94-.26.84.84,0,0,0,.31-.68.64.64,0,0,0-.15-.42,1.12,1.12,0,0,0-.38-.33,3.13,3.13,0,0,0-.55-.27l-.6-.24c-.26-.1-.52-.21-.79-.34a3.46,3.46,0,0,1-.71-.46,2.4,2.4,0,0,1-.51-.64,1.75,1.75,0,0,1-.2-.85,2.11,2.11,0,0,1,.77-1.7,3.15,3.15,0,0,1,2.09-.65,3.6,3.6,0,0,1,1.47.28,5.6,5.6,0,0,1,1.14.66l-.85,1.12a4,4,0,0,0-.84-.49,2.25,2.25,0,0,0-.89-.18,1.27,1.27,0,0,0-.87.25.8.8,0,0,0-.28.61.64.64,0,0,0,.14.41,1.37,1.37,0,0,0,.36.3,5.2,5.2,0,0,0,.52.24l.62.22c.26.1.53.21.79.33a3.18,3.18,0,0,1,.73.45,2.16,2.16,0,0,1,.53.67,2.06,2.06,0,0,1,.2.93,2.36,2.36,0,0,1-.2,1,2.14,2.14,0,0,1-.58.76,2.76,2.76,0,0,1-1,.52A4.1,4.1,0,0,1,335.1,105.7Z"/><path class="cls-3" d="M339.7,108.22l-.32-.76a2.73,2.73,0,0,0,1.07-.81,1.76,1.76,0,0,0,.37-1.15.32.32,0,0,1-.16,0,1,1,0,0,1-.66-.23.83.83,0,0,1-.28-.68.82.82,0,0,1,.29-.68,1,1,0,0,1,.68-.25.92.92,0,0,1,.81.42,1.87,1.87,0,0,1,.3,1.13,3,3,0,0,1-.56,1.81A3.6,3.6,0,0,1,339.7,108.22Z"/><path class="cls-3" d="M348.92,105.7a2.41,2.41,0,0,1-1.63-.58,2.07,2.07,0,0,1-.64-1.63,2.15,2.15,0,0,1,1.13-2,9.27,9.27,0,0,1,3.63-1,3.38,3.38,0,0,0-.07-.72,1.77,1.77,0,0,0-.25-.63,1.28,1.28,0,0,0-.48-.44,1.72,1.72,0,0,0-.8-.17,3.16,3.16,0,0,0-1.26.26,5.6,5.6,0,0,0-1.06.58l-.51-.92a9.07,9.07,0,0,1,1.33-.68,4.59,4.59,0,0,1,1.73-.32,2.37,2.37,0,0,1,2.06.87,3.83,3.83,0,0,1,.64,2.33v4.76h-1.09l-.11-.92h-.05a6.38,6.38,0,0,1-1.2.79A2.92,2.92,0,0,1,348.92,105.7Zm.38-1.06a2.28,2.28,0,0,0,1.06-.26,5.44,5.44,0,0,0,1.05-.78v-2.16a16.53,16.53,0,0,0-1.64.3,4.41,4.41,0,0,0-1.07.42,1.58,1.58,0,0,0-.59.55,1.36,1.36,0,0,0-.18.68,1.09,1.09,0,0,0,.4,1A1.62,1.62,0,0,0,349.3,104.64Z"/><path class="cls-3" d="M356.58,105.7a1.22,1.22,0,0,1-1.07-.45,2.28,2.28,0,0,1-.32-1.31V94.11h1.31V104a.7.7,0,0,0,.11.45.33.33,0,0,0,.26.13H357l.17,0,.17,1a1.07,1.07,0,0,1-.3.09A1.92,1.92,0,0,1,356.58,105.7Z"/><path class="cls-3" d="M360.66,105.7a1.22,1.22,0,0,1-1.07-.45,2.28,2.28,0,0,1-.32-1.31V94.11h1.31V104a.7.7,0,0,0,.11.45.33.33,0,0,0,.26.13h.12l.17,0,.17,1a1.07,1.07,0,0,1-.3.09A1.92,1.92,0,0,1,360.66,105.7Z"/><path class="cls-3" d="M366.37,105.7a3.31,3.31,0,0,1-1.36-.28,3.24,3.24,0,0,1-1.15-.79,3.8,3.8,0,0,1-.79-1.28,5.11,5.11,0,0,1,0-3.45,4,4,0,0,1,.79-1.29,3.27,3.27,0,0,1,1.15-.8,3.47,3.47,0,0,1,1.36-.27,3.52,3.52,0,0,1,1.37.27,3.36,3.36,0,0,1,1.15.8,4,4,0,0,1,.79,1.29,5.28,5.28,0,0,1,0,3.45,3.8,3.8,0,0,1-.79,1.28,3.51,3.51,0,0,1-2.52,1.07Zm0-1.09a1.92,1.92,0,0,0,.92-.22,2.05,2.05,0,0,0,.71-.61,2.88,2.88,0,0,0,.45-.93,4.19,4.19,0,0,0,.16-1.22,4.24,4.24,0,0,0-.16-1.22,2.89,2.89,0,0,0-.45-1,2.08,2.08,0,0,0-.71-.62,2,2,0,0,0-.92-.22,2,2,0,0,0-1.62.84,2.9,2.9,0,0,0-.46,1,4.62,4.62,0,0,0-.16,1.22,4.56,4.56,0,0,0,.16,1.22,2.89,2.89,0,0,0,.46.93,2,2,0,0,0,.71.61A1.88,1.88,0,0,0,366.37,104.61Z"/><path class="cls-3" d="M373.19,105.5,371,97.73h1.34l1.16,4.49c.08.38.16.74.24,1.09s.15.71.22,1.07h.06c.09-.36.17-.72.26-1.08s.18-.71.27-1.08l1.2-4.49h1.28l1.22,4.49c.09.38.19.74.28,1.09s.18.71.26,1.07h.07l.24-1.07c.07-.35.15-.71.24-1.09l1.13-4.49h1.25l-2.08,7.77h-1.6L377,101.33c-.1-.37-.18-.74-.26-1.11s-.17-.74-.27-1.13h-.06c-.09.39-.17.77-.26,1.14s-.18.74-.29,1.11l-1.08,4.16Z"/><path class="cls-3" d="M384.12,96.13a.93.93,0,0,1-.65-.24.86.86,0,0,1,0-1.23,1,1,0,0,1,.65-.23,1,1,0,0,1,.65.23.86.86,0,0,1,0,1.23A1,1,0,0,1,384.12,96.13Zm-.68,9.37V97.73h1.32v7.77Z"/><path class="cls-3" d="M387.38,105.5V97.73h1.09l.11,1.12h.05a6.09,6.09,0,0,1,1.18-.94,2.67,2.67,0,0,1,1.43-.37,2.09,2.09,0,0,1,1.8.76,3.82,3.82,0,0,1,.56,2.28v4.92h-1.31v-4.75a2.75,2.75,0,0,0-.35-1.59,1.3,1.3,0,0,0-1.12-.49,1.87,1.87,0,0,0-1.07.31,7.22,7.22,0,0,0-1.06.89v5.63Z"/><path class="cls-3" d="M398.76,109.09a6,6,0,0,1-1.32-.14,3,3,0,0,1-1-.41,2.16,2.16,0,0,1-.66-.65,1.77,1.77,0,0,1-.23-.9,1.6,1.6,0,0,1,.31-.94,3.09,3.09,0,0,1,.83-.82v-.06a1.44,1.44,0,0,1-.49-.49,1.46,1.46,0,0,1-.2-.78,1.42,1.42,0,0,1,.27-.86,2.45,2.45,0,0,1,.58-.58v-.06a3.09,3.09,0,0,1-.7-.86,2.38,2.38,0,0,1-.31-1.24,2.84,2.84,0,0,1,.23-1.15,2.78,2.78,0,0,1,.63-.87,2.84,2.84,0,0,1,.94-.55,3.27,3.27,0,0,1,1.13-.19,3.83,3.83,0,0,1,.6,0,5.07,5.07,0,0,1,.5.14h2.7v1H401a2.09,2.09,0,0,1,.46.68,2.32,2.32,0,0,1,.18.92,2.7,2.7,0,0,1-.22,1.12,2.4,2.4,0,0,1-.61.85,2.7,2.7,0,0,1-.9.54,3.16,3.16,0,0,1-1.11.19,2.52,2.52,0,0,1-.6-.07,3.49,3.49,0,0,1-.57-.2,1.82,1.82,0,0,0-.35.39.91.91,0,0,0-.15.54.76.76,0,0,0,.29.6,1.78,1.78,0,0,0,1.09.24H400a3.82,3.82,0,0,1,2,.44,1.56,1.56,0,0,1,.68,1.42,2.09,2.09,0,0,1-.27,1,2.64,2.64,0,0,1-.78.86,4.19,4.19,0,0,1-1.24.58A5.61,5.61,0,0,1,398.76,109.09Zm.19-.91a3.52,3.52,0,0,0,1-.14,2.82,2.82,0,0,0,.78-.35,1.73,1.73,0,0,0,.5-.51,1.18,1.18,0,0,0,.17-.59.77.77,0,0,0-.4-.75,2.53,2.53,0,0,0-1.16-.21H398.5l-.49,0a2.41,2.41,0,0,1-.52-.11,2.21,2.21,0,0,0-.6.64,1.36,1.36,0,0,0-.2.68,1.13,1.13,0,0,0,.6,1A3.21,3.21,0,0,0,399,108.18Zm-.19-6a1.51,1.51,0,0,0,.63-.13,1.59,1.59,0,0,0,.53-.37,1.78,1.78,0,0,0,.36-.58,2.37,2.37,0,0,0,.12-.78,1.78,1.78,0,0,0-.48-1.33,1.56,1.56,0,0,0-1.16-.47,1.58,1.58,0,0,0-1.17.47,1.78,1.78,0,0,0-.48,1.33,2.13,2.13,0,0,0,.13.78,1.5,1.5,0,0,0,.36.58,1.55,1.55,0,0,0,.52.37A1.53,1.53,0,0,0,398.76,102.16Z"/><path class="cls-3" d="M94.22,129.5v-6.7H93.16v-1l1.06-.08V120.5a2.93,2.93,0,0,1,.55-1.89,2.07,2.07,0,0,1,1.72-.69,3.2,3.2,0,0,1,.7.07,3.4,3.4,0,0,1,.59.19l-.28,1a2.28,2.28,0,0,0-.88-.19c-.73,0-1.09.5-1.09,1.51v1.23h1.65v1.07H95.53v6.7Z"/><path class="cls-3" d="M101.53,129.7a3.36,3.36,0,0,1-1.37-.28,3.3,3.3,0,0,1-1.14-.79,3.65,3.65,0,0,1-.79-1.28,5.11,5.11,0,0,1,0-3.45,3.79,3.79,0,0,1,.79-1.29,3.33,3.33,0,0,1,1.14-.8,3.61,3.61,0,0,1,2.74,0,3.33,3.33,0,0,1,1.14.8,3.79,3.79,0,0,1,.79,1.29,5.11,5.11,0,0,1,0,3.45,3.65,3.65,0,0,1-.79,1.28,3.3,3.3,0,0,1-1.14.79A3.36,3.36,0,0,1,101.53,129.7Zm0-1.09a2,2,0,0,0,1.62-.83,2.89,2.89,0,0,0,.46-.93,4.19,4.19,0,0,0,.16-1.22,4.24,4.24,0,0,0-.16-1.22,2.9,2.9,0,0,0-.46-1,1.91,1.91,0,0,0-.71-.62,2,2,0,0,0-.91-.22,2,2,0,0,0-.91.22,2,2,0,0,0-.72.62,3.1,3.1,0,0,0-.45,1,4.24,4.24,0,0,0-.16,1.22,4.19,4.19,0,0,0,.16,1.22,3.1,3.1,0,0,0,.45.93,2,2,0,0,0,.72.61A1.86,1.86,0,0,0,101.53,128.61Z"/><path class="cls-3" d="M107.18,129.5v-7.77h1.09l.11,1.41h0a3.66,3.66,0,0,1,1-1.17,2,2,0,0,1,1.24-.43,2,2,0,0,1,.83.16l-.25,1.15-.35-.1a2.25,2.25,0,0,0-.4,0,1.75,1.75,0,0,0-1,.4,3.29,3.29,0,0,0-.93,1.39v5Z"/><path class="cls-3" d="M119.37,129.7a2.7,2.7,0,0,1-1.13-.27,4,4,0,0,1-1.09-.73h-.05l-.12.8h-1V118.11h1.31v3.11l0,1.4a5.64,5.64,0,0,1,1.15-.77,2.81,2.81,0,0,1,1.28-.31,3,3,0,0,1,1.33.28,2.58,2.58,0,0,1,1,.8,3.57,3.57,0,0,1,.59,1.24,6.33,6.33,0,0,1,.2,1.63,5.39,5.39,0,0,1-.27,1.77,4.15,4.15,0,0,1-.74,1.33,3,3,0,0,1-2.35,1.11Zm-.22-1.11a1.9,1.9,0,0,0,.88-.21,2.18,2.18,0,0,0,.71-.61,3.12,3.12,0,0,0,.46-1,4.71,4.71,0,0,0,.17-1.3,5.94,5.94,0,0,0-.11-1.16,2.79,2.79,0,0,0-.36-.91,1.78,1.78,0,0,0-.64-.58,2,2,0,0,0-.94-.21,3.22,3.22,0,0,0-2.08,1.06v4.08a3.33,3.33,0,0,0,1,.63A2.65,2.65,0,0,0,119.15,128.59Z"/><path class="cls-3" d="M127.93,129.7a4,4,0,0,1-1.47-.28,3.68,3.68,0,0,1-1.18-.8,3.6,3.6,0,0,1-.79-1.28,4.79,4.79,0,0,1-.29-1.71,4.67,4.67,0,0,1,.3-1.72,4,4,0,0,1,.78-1.29,3.41,3.41,0,0,1,1.11-.8,3.11,3.11,0,0,1,1.3-.28,3.27,3.27,0,0,1,1.32.25,2.54,2.54,0,0,1,1,.74,3.08,3.08,0,0,1,.6,1.15,5,5,0,0,1,.21,1.5c0,.14,0,.28,0,.41a1.2,1.2,0,0,1,0,.35H125.5a3,3,0,0,0,.77,2,2.4,2.4,0,0,0,1.82.73,3.09,3.09,0,0,0,1-.17,4.17,4.17,0,0,0,.9-.44l.47.87a6.72,6.72,0,0,1-1.14.56A3.91,3.91,0,0,1,127.93,129.7ZM125.48,125h4.16a2.82,2.82,0,0,0-.5-1.8,1.74,1.74,0,0,0-1.42-.61,2,2,0,0,0-1.47.63,2.81,2.81,0,0,0-.51.76A3.47,3.47,0,0,0,125.48,125Z"/><path class="cls-3" d="M135,129.7a2.49,2.49,0,0,1-1.05-.2,1.7,1.7,0,0,1-.68-.52,2,2,0,0,1-.38-.82,4.37,4.37,0,0,1-.11-1.06v-4.3h-1.16v-1l1.22-.08.16-2.18h1.1v2.18h2.1v1.07h-2.1v4.32a1.94,1.94,0,0,0,.27,1.11,1,1,0,0,0,.94.39,1.85,1.85,0,0,0,.44-.06,3.81,3.81,0,0,0,.44-.14l.25,1c-.21.07-.44.14-.7.2A3.12,3.12,0,0,1,135,129.7Z"/><path class="cls-3" d="M140.09,129.7a2.49,2.49,0,0,1-1.05-.2,1.8,1.8,0,0,1-.69-.52,2.13,2.13,0,0,1-.37-.82,4.35,4.35,0,0,1-.12-1.06v-4.3h-1.15v-1l1.22-.08.16-2.18h1.1v2.18h2.1v1.07h-2.1v4.32a1.94,1.94,0,0,0,.27,1.11,1,1,0,0,0,.93.39,1.86,1.86,0,0,0,.45-.06,3.11,3.11,0,0,0,.43-.14l.26,1c-.22.07-.45.14-.7.2A3.18,3.18,0,0,1,140.09,129.7Z"/><path class="cls-3" d="M146,129.7a4,4,0,0,1-1.47-.28,3.5,3.5,0,0,1-2-2.08,4.58,4.58,0,0,1-.29-1.71,4.88,4.88,0,0,1,.29-1.72,4.18,4.18,0,0,1,.79-1.29,3.21,3.21,0,0,1,1.11-.8,3.11,3.11,0,0,1,1.3-.28,3.27,3.27,0,0,1,1.32.25,2.54,2.54,0,0,1,1,.74,3.4,3.4,0,0,1,.6,1.15,5,5,0,0,1,.21,1.5c0,.14,0,.28,0,.41a1.69,1.69,0,0,1,0,.35h-5.25a3.07,3.07,0,0,0,.78,2,2.38,2.38,0,0,0,1.82.73,3.13,3.13,0,0,0,1-.17,4.68,4.68,0,0,0,.9-.44l.47.87a7.11,7.11,0,0,1-1.14.56A4,4,0,0,1,146,129.7ZM143.53,125h4.16a2.76,2.76,0,0,0-.51-1.8,1.7,1.7,0,0,0-1.41-.61,2,2,0,0,0-1.47.63,2.6,2.6,0,0,0-.51.76A3.47,3.47,0,0,0,143.53,125Z"/><path class="cls-3" d="M150.76,129.5v-7.77h1.09l.11,1.41h0a3.54,3.54,0,0,1,1-1.17,2,2,0,0,1,1.24-.43,2,2,0,0,1,.83.16l-.26,1.15a3.21,3.21,0,0,0-.35-.1,2.25,2.25,0,0,0-.4,0,1.72,1.72,0,0,0-1,.4,3.21,3.21,0,0,0-.94,1.39v5Z"/><path class="cls-3" d="M161.3,129.7a2.36,2.36,0,0,1-1.62-.58,2.07,2.07,0,0,1-.65-1.63,2.16,2.16,0,0,1,1.14-2,9.27,9.27,0,0,1,3.63-1,3.38,3.38,0,0,0-.07-.72,1.77,1.77,0,0,0-.25-.63,1.31,1.31,0,0,0-.49-.44,1.68,1.68,0,0,0-.79-.17,3.12,3.12,0,0,0-1.26.26,5.6,5.6,0,0,0-1.06.58l-.51-.92a8.59,8.59,0,0,1,1.33-.68,4.54,4.54,0,0,1,1.72-.32,2.41,2.41,0,0,1,2.07.87,3.9,3.9,0,0,1,.64,2.33v4.76H164l-.11-.92h-.05a6.38,6.38,0,0,1-1.2.79A3,3,0,0,1,161.3,129.7Zm.39-1.06a2.27,2.27,0,0,0,1.05-.26,5.48,5.48,0,0,0,1.06-.78v-2.16a16,16,0,0,0-1.64.3,4.41,4.41,0,0,0-1.07.42,1.58,1.58,0,0,0-.59.55,1.27,1.27,0,0,0-.19.68,1.09,1.09,0,0,0,.4,1A1.65,1.65,0,0,0,161.69,128.64Z"/><path class="cls-3" d="M167.58,129.5v-7.77h1.08l.12,1.12h0a6.76,6.76,0,0,1,1.18-.94,2.7,2.7,0,0,1,1.43-.37,2.09,2.09,0,0,1,1.8.76,3.81,3.81,0,0,1,.57,2.28v4.92h-1.31v-4.75a2.84,2.84,0,0,0-.35-1.59,1.31,1.31,0,0,0-1.12-.49,1.88,1.88,0,0,0-1.08.31,6.73,6.73,0,0,0-1.05.89v5.63Z"/><path class="cls-3" d="M178.12,129.7a2.36,2.36,0,0,1-1.62-.58,2,2,0,0,1-.65-1.63,2.17,2.17,0,0,1,1.13-2,9.27,9.27,0,0,1,3.64-1,3.38,3.38,0,0,0-.08-.72,1.76,1.76,0,0,0-.24-.63,1.31,1.31,0,0,0-.49-.44,1.68,1.68,0,0,0-.79-.17,3.21,3.21,0,0,0-1.27.26,5.83,5.83,0,0,0-1.05.58l-.52-.92a9.61,9.61,0,0,1,1.33-.68,4.59,4.59,0,0,1,1.73-.32,2.37,2.37,0,0,1,2.06.87,3.83,3.83,0,0,1,.64,2.33v4.76h-1.08l-.12-.92h0a7.1,7.1,0,0,1-1.2.79A3,3,0,0,1,178.12,129.7Zm.38-1.06a2.28,2.28,0,0,0,1.06-.26,5.8,5.8,0,0,0,1.06-.78v-2.16a16,16,0,0,0-1.64.3,4.51,4.51,0,0,0-1.08.42,1.66,1.66,0,0,0-.59.55,1.36,1.36,0,0,0-.18.68,1.09,1.09,0,0,0,.4,1A1.62,1.62,0,0,0,178.5,128.64Z"/><path class="cls-3" d="M185.78,129.7a1.23,1.23,0,0,1-1.07-.45,2.28,2.28,0,0,1-.32-1.31v-9.83h1.31V128a.64.64,0,0,0,.12.45.31.31,0,0,0,.25.13h.12l.17,0,.18,1a1.26,1.26,0,0,1-.31.09A1.87,1.87,0,0,1,185.78,129.7Z"/><path class="cls-3" d="M188.6,132.85a3.75,3.75,0,0,1-.5,0,2.45,2.45,0,0,1-.41-.12l.25-1,.29.07a1.15,1.15,0,0,0,.31,0,1.41,1.41,0,0,0,1.09-.47,3.42,3.42,0,0,0,.67-1.19l.17-.58-3.12-7.79h1.36l1.59,4.3c.11.34.24.7.37,1.08s.26.75.38,1.11h.06c.12-.35.23-.72.34-1.1s.21-.75.32-1.09l1.39-4.3h1.28l-2.93,8.41a9,9,0,0,1-.46,1.08,3.62,3.62,0,0,1-.61.85,2.79,2.79,0,0,1-.8.57A2.44,2.44,0,0,1,188.6,132.85Z"/><path class="cls-3" d="M198,129.7a4.06,4.06,0,0,1-1.59-.31,4.82,4.82,0,0,1-1.31-.77l.65-.88a5.66,5.66,0,0,0,1.05.68,2.86,2.86,0,0,0,1.24.25,1.64,1.64,0,0,0,1.16-.35,1.13,1.13,0,0,0,.38-.86.86.86,0,0,0-.16-.53,1.53,1.53,0,0,0-.41-.39,2.54,2.54,0,0,0-.57-.3l-.64-.26c-.27-.09-.55-.2-.83-.32a3.84,3.84,0,0,1-.74-.45,2.28,2.28,0,0,1-.54-.62,1.62,1.62,0,0,1-.21-.85,2.06,2.06,0,0,1,.72-1.57,2.52,2.52,0,0,1,.84-.47,3.87,3.87,0,0,1,2.47.09,4.07,4.07,0,0,1,1.06.63l-.62.83a4.82,4.82,0,0,0-.83-.5,2.3,2.3,0,0,0-.95-.19,1.47,1.47,0,0,0-1.08.34,1,1,0,0,0-.34.78.75.75,0,0,0,.14.47,1.32,1.32,0,0,0,.39.35,2.57,2.57,0,0,0,.55.28l.65.24.84.34a3.35,3.35,0,0,1,.76.44,2.32,2.32,0,0,1,.55.65,1.88,1.88,0,0,1,.21.93,2.18,2.18,0,0,1-.18.89,2,2,0,0,1-.54.74,2.7,2.7,0,0,1-.9.5A3.59,3.59,0,0,1,198,129.7Z"/><path class="cls-3" d="M203.32,120.13a.93.93,0,0,1-.65-.24.86.86,0,0,1,0-1.23,1,1,0,0,1,1.3,0,.86.86,0,0,1,0,1.23A.93.93,0,0,1,203.32,120.13Zm-.67,9.37v-7.77H204v7.77Z"/><path class="cls-3" d="M208.62,129.7a4.06,4.06,0,0,1-1.59-.31,4.82,4.82,0,0,1-1.31-.77l.66-.88a5.29,5.29,0,0,0,1,.68,2.86,2.86,0,0,0,1.24.25,1.64,1.64,0,0,0,1.16-.35,1.13,1.13,0,0,0,.38-.86.86.86,0,0,0-.16-.53,1.53,1.53,0,0,0-.41-.39,2.54,2.54,0,0,0-.57-.3l-.64-.26c-.27-.09-.55-.2-.83-.32a3.84,3.84,0,0,1-.74-.45,2.28,2.28,0,0,1-.54-.62,1.62,1.62,0,0,1-.21-.85,2.16,2.16,0,0,1,.19-.87,2,2,0,0,1,.53-.7,2.62,2.62,0,0,1,.84-.47,3.87,3.87,0,0,1,2.47.09,4.07,4.07,0,0,1,1.06.63l-.62.83a4.82,4.82,0,0,0-.83-.5,2.3,2.3,0,0,0-1-.19,1.47,1.47,0,0,0-1.08.34,1,1,0,0,0-.34.78.82.82,0,0,0,.14.47,1.32,1.32,0,0,0,.39.35,2.57,2.57,0,0,0,.55.28l.65.24.84.34a3.35,3.35,0,0,1,.76.44,2.32,2.32,0,0,1,.55.65,1.88,1.88,0,0,1,.21.93,2.18,2.18,0,0,1-.18.89,2,2,0,0,1-.54.74,2.6,2.6,0,0,1-.9.5A3.59,3.59,0,0,1,208.62,129.7Z"/><path class="cls-3" d="M219.51,129.7a3.39,3.39,0,0,1-1.37-.28,3.3,3.3,0,0,1-1.14-.79,3.65,3.65,0,0,1-.79-1.28,5.11,5.11,0,0,1,0-3.45,3.79,3.79,0,0,1,.79-1.29,3.33,3.33,0,0,1,1.14-.8,3.56,3.56,0,0,1,1.37-.27,3.52,3.52,0,0,1,1.37.27,3.33,3.33,0,0,1,1.14.8,3.79,3.79,0,0,1,.79,1.29,5.11,5.11,0,0,1,0,3.45,3.65,3.65,0,0,1-.79,1.28,3.3,3.3,0,0,1-1.14.79A3.36,3.36,0,0,1,219.51,129.7Zm0-1.09a1.86,1.86,0,0,0,.91-.22,2,2,0,0,0,.72-.61,3.1,3.1,0,0,0,.45-.93,4.19,4.19,0,0,0,.16-1.22,4.24,4.24,0,0,0-.16-1.22,3.1,3.1,0,0,0-.45-1,2,2,0,0,0-.72-.62,2,2,0,0,0-.91-.22,2,2,0,0,0-.91.22,1.91,1.91,0,0,0-.71.62,2.9,2.9,0,0,0-.46,1,4.24,4.24,0,0,0-.16,1.22,4.19,4.19,0,0,0,.16,1.22,2.89,2.89,0,0,0,.46.93,2,2,0,0,0,1.62.83Z"/><path class="cls-3" d="M225.38,129.5v-6.7h-1v-1l1-.08V120.5a2.94,2.94,0,0,1,.56-1.89,2.05,2.05,0,0,1,1.71-.69,3.14,3.14,0,0,1,.7.07,3.25,3.25,0,0,1,.6.19l-.29,1a2.25,2.25,0,0,0-.88-.19c-.72,0-1.09.5-1.09,1.51v1.23h1.65v1.07h-1.65v6.7Z"/><path class="cls-3" d="M233.16,129.5V119h1.33V129.5Z"/><path class="cls-3" d="M237.37,129.5V119H240a4.88,4.88,0,0,1,3.7,1.34,5.44,5.44,0,0,1,1.26,3.86,7.32,7.32,0,0,1-.32,2.23,4.42,4.42,0,0,1-.94,1.66,4,4,0,0,1-1.54,1,5.71,5.71,0,0,1-2.1.36Zm1.32-1.08h1.2a3.37,3.37,0,0,0,2.76-1.11,4.66,4.66,0,0,0,.92-3.1,4.51,4.51,0,0,0-.92-3.06,3.47,3.47,0,0,0-2.76-1.05h-1.2Z"/><path class="cls-3" d="M250.93,129.7a4.52,4.52,0,0,1-1.49-.24,2.8,2.8,0,0,1-1.2-.76,3.72,3.72,0,0,1-.79-1.4,6.61,6.61,0,0,1-.29-2.13V119h1.33v6.19a5.46,5.46,0,0,0,.19,1.58,2.84,2.84,0,0,0,.52,1,2,2,0,0,0,.77.55,2.77,2.77,0,0,0,1,.17,2.8,2.8,0,0,0,1-.17,1.92,1.92,0,0,0,.78-.55,2.7,2.7,0,0,0,.53-1,5.46,5.46,0,0,0,.19-1.58V119h1.28v6.16a6.92,6.92,0,0,1-.28,2.13,3.87,3.87,0,0,1-.8,1.4,2.83,2.83,0,0,1-1.19.76A4.48,4.48,0,0,1,250.93,129.7Z"/><path class="cls-3" d="M260.6,129.5v-7.77h1.09l.11,1.41h.05a3.64,3.64,0,0,1,1-1.17,2,2,0,0,1,1.24-.43,2.06,2.06,0,0,1,.84.16l-.26,1.15a3.21,3.21,0,0,0-.35-.1,2.25,2.25,0,0,0-.4,0,1.7,1.7,0,0,0-1,.4,3.21,3.21,0,0,0-.94,1.39v5Z"/><path class="cls-3" d="M269.14,129.7a3.91,3.91,0,0,1-1.46-.28,3.47,3.47,0,0,1-2-2.08,4.79,4.79,0,0,1-.29-1.71,4.67,4.67,0,0,1,.3-1.72,4.35,4.35,0,0,1,.78-1.29,3.35,3.35,0,0,1,1.12-.8,3,3,0,0,1,1.29-.28,3.27,3.27,0,0,1,1.32.25,2.58,2.58,0,0,1,1,.74,3.4,3.4,0,0,1,.6,1.15,5,5,0,0,1,.21,1.5c0,.14,0,.28,0,.41a2.84,2.84,0,0,1,0,.35h-5.25a3,3,0,0,0,.78,2,2.37,2.37,0,0,0,1.81.73,3,3,0,0,0,1-.17,4.49,4.49,0,0,0,.91-.44l.46.87a7,7,0,0,1-1.13.56A4,4,0,0,1,269.14,129.7ZM266.69,125h4.16a2.76,2.76,0,0,0-.5-1.8,1.74,1.74,0,0,0-1.42-.61,2,2,0,0,0-.79.16,1.94,1.94,0,0,0-.68.47,2.57,2.57,0,0,0-.5.76A3.47,3.47,0,0,0,266.69,125Z"/><path class="cls-3" d="M276,129.7a4.1,4.1,0,0,1-1.59-.31,5,5,0,0,1-1.31-.77l.66-.88a5.07,5.07,0,0,0,1,.68,2.83,2.83,0,0,0,1.24.25,1.63,1.63,0,0,0,1.15-.35,1.13,1.13,0,0,0,.38-.86.86.86,0,0,0-.16-.53,1.53,1.53,0,0,0-.41-.39,2.69,2.69,0,0,0-.56-.3l-.64-.26c-.28-.09-.56-.2-.84-.32a4.17,4.17,0,0,1-.74-.45,2.28,2.28,0,0,1-.54-.62,1.72,1.72,0,0,1-.2-.85,2.15,2.15,0,0,1,.18-.87,2,2,0,0,1,.53-.7,2.62,2.62,0,0,1,.84-.47,3.87,3.87,0,0,1,2.47.09,4.07,4.07,0,0,1,1.06.63l-.62.83a4.47,4.47,0,0,0-.83-.5,2.27,2.27,0,0,0-.95-.19,1.47,1.47,0,0,0-1.08.34,1,1,0,0,0-.34.78.82.82,0,0,0,.14.47,1.32,1.32,0,0,0,.39.35,2.57,2.57,0,0,0,.55.28l.65.24.84.34a3.35,3.35,0,0,1,.76.44,2.16,2.16,0,0,1,.55.65,1.88,1.88,0,0,1,.22.93,2.18,2.18,0,0,1-.19.89,2,2,0,0,1-.54.74,2.6,2.6,0,0,1-.9.5A3.55,3.55,0,0,1,276,129.7Z"/><path class="cls-3" d="M282.9,129.7a2.1,2.1,0,0,1-1.81-.77,3.78,3.78,0,0,1-.57-2.27v-4.93h1.33v4.75a2.8,2.8,0,0,0,.34,1.59,1.25,1.25,0,0,0,1.11.49,1.84,1.84,0,0,0,1.07-.31,5.21,5.21,0,0,0,1-1v-5.52h1.31v7.77h-1.09l-.11-1.21h-.05a4.87,4.87,0,0,1-1.14,1A2.54,2.54,0,0,1,282.9,129.7Z"/><path class="cls-3" d="M290.73,129.7a1.24,1.24,0,0,1-1.08-.45,2.28,2.28,0,0,1-.32-1.31v-9.83h1.32V128a.64.64,0,0,0,.11.45.31.31,0,0,0,.25.13h.12l.17,0,.18,1a1.26,1.26,0,0,1-.31.09A1.78,1.78,0,0,1,290.73,129.7Z"/><path class="cls-3" d="M295.86,129.7a2.55,2.55,0,0,1-1.05-.2,1.7,1.7,0,0,1-.68-.52,2,2,0,0,1-.38-.82,4.93,4.93,0,0,1-.11-1.06v-4.3h-1.15v-1l1.21-.08.16-2.18H295v2.18h2.09v1.07H295v4.32a1.94,1.94,0,0,0,.26,1.11,1.06,1.06,0,0,0,.94.39,1.85,1.85,0,0,0,.44-.06,3.81,3.81,0,0,0,.44-.14l.25,1c-.21.07-.44.14-.69.2A3.27,3.27,0,0,1,295.86,129.7Z"/><path class="cls-3" d="M300.69,129.7a4,4,0,0,1-1.58-.31,4.82,4.82,0,0,1-1.31-.77l.65-.88a5.66,5.66,0,0,0,1.05.68,2.86,2.86,0,0,0,1.24.25,1.62,1.62,0,0,0,1.15-.35,1.11,1.11,0,0,0,.39-.86.92.92,0,0,0-.16-.53,1.53,1.53,0,0,0-.41-.39,3.07,3.07,0,0,0-.57-.3l-.64-.26c-.28-.09-.55-.2-.83-.32a3.84,3.84,0,0,1-.74-.45,2.28,2.28,0,0,1-.54-.62,1.62,1.62,0,0,1-.21-.85,2,2,0,0,1,.19-.87,2,2,0,0,1,.52-.7,2.62,2.62,0,0,1,.84-.47,3.9,3.9,0,0,1,2.48.09,4.07,4.07,0,0,1,1.06.63l-.62.83a4.54,4.54,0,0,0-.84-.5,2.23,2.23,0,0,0-.94-.19,1.47,1.47,0,0,0-1.08.34,1,1,0,0,0-.34.78.75.75,0,0,0,.14.47,1.28,1.28,0,0,0,.38.35,2.66,2.66,0,0,0,.56.28l.64.24.84.34a3,3,0,0,1,.76.44,2.2,2.2,0,0,1,.56.65,1.88,1.88,0,0,1,.21.93,2.18,2.18,0,0,1-.18.89,2.2,2.2,0,0,1-.55.74,2.65,2.65,0,0,1-.89.5A3.61,3.61,0,0,1,300.69,129.7Z"/></svg>