<svg id="Layer_1" data-name="Layer 1" xmlns="http://www.w3.org/2000/svg" viewBox="0 0 480 240"><defs><style>.cls-1{fill:#db0022;}.cls-2{fill:#f5f5f5;}.cls-3{fill:#5151d3;}.cls-4{isolation:isolate;}.cls-5{fill:#4b4b4b;}</style></defs><rect class="cls-1" width="6" height="240"/><rect class="cls-2" x="6" width="474" height="240"/><path class="cls-1" d="M33,10.15a15.65,15.65,0,1,0,15.7,15.6A15.73,15.73,0,0,0,33,10.15Z"/><rect class="cls-2" x="23" y="24.16" width="20" height="3.3" transform="translate(-8.58 30.9) rotate(-45)"/><rect class="cls-2" x="31.29" y="15.73" width="3.3" height="20" transform="translate(-8.55 30.83) rotate(-45)"/><polygon class="cls-3" points="163.57 53.09 377.65 52.89 377.65 53.89 163.57 54.09 163.57 53.09"/><circle class="cls-3" cx="163.57" cy="53.49" r="3"/><g class="cls-4"><path class="cls-3" d="M388,47.76a3.09,3.09,0,0,1-1.16-.2,2,2,0,0,1-.76-.59,2.38,2.38,0,0,1-.43-.89,4.24,4.24,0,0,1-.14-1.16V41.17h-1.12V39.79l1.22-.08.22-2.14h1.54v2.14h2v1.46h-2v3.75c0,.91.36,1.37,1.1,1.37a1.51,1.51,0,0,0,.42,0,2.09,2.09,0,0,0,.4-.12l.32,1.36a5.93,5.93,0,0,1-.73.19A4.1,4.1,0,0,1,388,47.76Z"/><path class="cls-3" d="M394.14,47.76a4,4,0,0,1-1.52-.28,3.38,3.38,0,0,1-1.23-.81,3.63,3.63,0,0,1-.83-1.28,5.25,5.25,0,0,1,0-3.47,3.83,3.83,0,0,1,.81-1.29,3.5,3.5,0,0,1,1.16-.82,3.3,3.3,0,0,1,1.34-.29,3.48,3.48,0,0,1,1.41.27,3,3,0,0,1,1,.77,3.44,3.44,0,0,1,.61,1.19,5.13,5.13,0,0,1,.21,1.5,4.12,4.12,0,0,1,0,.51,2.9,2.9,0,0,1-.05.39h-5a2.51,2.51,0,0,0,.74,1.62,2.24,2.24,0,0,0,1.58.57,2.91,2.91,0,0,0,.95-.15,4.39,4.39,0,0,0,.87-.43l.63,1.16a6,6,0,0,1-1.25.6A4.35,4.35,0,0,1,394.14,47.76ZM392,42.9h3.49a2.32,2.32,0,0,0-.39-1.43,1.41,1.41,0,0,0-1.21-.52,1.73,1.73,0,0,0-1.23.49A2.4,2.4,0,0,0,392,42.9Z"/><path class="cls-3" d="M397.75,47.57l2.5-4.09-2.34-3.77h2l.88,1.49c.11.22.24.44.36.67s.24.45.36.66h.06q.15-.31.3-.66l.31-.67.75-1.49h1.91l-2.32,4L405,47.57h-2l-1-1.55-.39-.7c-.14-.24-.27-.47-.41-.69h-.07c-.11.22-.23.45-.34.68s-.23.46-.34.71l-.84,1.55Z"/><path class="cls-3" d="M408.75,47.76a3,3,0,0,1-1.16-.2,1.91,1.91,0,0,1-.77-.59,2.38,2.38,0,0,1-.43-.89,4.24,4.24,0,0,1-.14-1.16V41.17h-1.12V39.79l1.22-.08.22-2.14h1.53v2.14h2v1.46h-2v3.75c0,.91.37,1.37,1.11,1.37a1.51,1.51,0,0,0,.42,0,1.8,1.8,0,0,0,.39-.12l.33,1.36a5.93,5.93,0,0,1-.73.19A4.07,4.07,0,0,1,408.75,47.76Z"/><path class="cls-3" d="M410.76,44.21V42.87h3.81v1.34Z"/><path class="cls-3" d="M416.41,47.57V36.28h1.84v2.91l-.06,1.52a6.4,6.4,0,0,1,1.09-.83,2.7,2.7,0,0,1,1.42-.36,2.11,2.11,0,0,1,1.84.81,4,4,0,0,1,.57,2.31v4.93h-1.84V42.88a2.44,2.44,0,0,0-.28-1.37,1.09,1.09,0,0,0-.95-.4,1.6,1.6,0,0,0-.9.25,5.39,5.39,0,0,0-.89.72v5.49Z"/><path class="cls-3" d="M428,47.76a4.73,4.73,0,0,1-2.08-.41,4.57,4.57,0,0,1-1.38-1l.88-1.18a4.88,4.88,0,0,0,1.06.79,2.74,2.74,0,0,0,1.36.33,2.15,2.15,0,0,0,1.35-.41,1.35,1.35,0,0,0,.52-1.13,1.89,1.89,0,0,0-.14-.72,1.32,1.32,0,0,0-.49-.54,2.73,2.73,0,0,0-.92-.34,7.17,7.17,0,0,0-1.44-.12V41.65a5.6,5.6,0,0,0,1.26-.12,2.53,2.53,0,0,0,.81-.33,1.26,1.26,0,0,0,.45-.53,1.58,1.58,0,0,0,.14-.65,1.29,1.29,0,0,0-.4-1,1.61,1.61,0,0,0-1.11-.36,2.31,2.31,0,0,0-1.09.26,4.69,4.69,0,0,0-1,.7l-.94-1.14a5.94,5.94,0,0,1,1.4-.92,3.76,3.76,0,0,1,1.65-.36,4.74,4.74,0,0,1,1.35.18,3.08,3.08,0,0,1,1,.52,2.33,2.33,0,0,1,.67.85,2.58,2.58,0,0,1,.24,1.14,2.21,2.21,0,0,1-.47,1.44,3.22,3.22,0,0,1-1.3.9v.06a3.19,3.19,0,0,1,1.51.88,2.33,2.33,0,0,1,.6,1.65,2.77,2.77,0,0,1-.28,1.25,2.85,2.85,0,0,1-.77.92,3.49,3.49,0,0,1-1.14.57A4.43,4.43,0,0,1,428,47.76Z"/><path class="cls-3" d="M388,67a3.09,3.09,0,0,1-1.16-.2,2,2,0,0,1-.76-.59,2.38,2.38,0,0,1-.43-.89,4.24,4.24,0,0,1-.14-1.16V60.37h-1.12V59l1.22-.08.22-2.15h1.54v2.15h2v1.45h-2v3.75c0,.91.36,1.37,1.1,1.37a1.51,1.51,0,0,0,.42,0,2.09,2.09,0,0,0,.4-.12l.32,1.36c-.22.07-.46.14-.73.2A4.88,4.88,0,0,1,388,67Z"/><path class="cls-3" d="M394.14,67a4,4,0,0,1-1.52-.28,3.49,3.49,0,0,1-1.23-.8,3.77,3.77,0,0,1-.83-1.29,5.25,5.25,0,0,1,0-3.47,3.83,3.83,0,0,1,.81-1.29,3.5,3.5,0,0,1,1.16-.82,3.46,3.46,0,0,1,2.75,0,2.85,2.85,0,0,1,1,.76,3.44,3.44,0,0,1,.61,1.19,5.13,5.13,0,0,1,.21,1.5,4.12,4.12,0,0,1,0,.51,2.9,2.9,0,0,1-.05.39h-5A2.51,2.51,0,0,0,392.8,65a2.24,2.24,0,0,0,1.58.57,2.91,2.91,0,0,0,.95-.15,4.39,4.39,0,0,0,.87-.43l.63,1.16a6,6,0,0,1-1.25.6A4.35,4.35,0,0,1,394.14,67ZM392,62.1h3.49a2.32,2.32,0,0,0-.39-1.43,1.41,1.41,0,0,0-1.21-.52,1.73,1.73,0,0,0-1.23.49A2.4,2.4,0,0,0,392,62.1Z"/><path class="cls-3" d="M397.75,66.77l2.5-4.09-2.34-3.76h2l.88,1.48c.11.22.24.44.36.67s.24.45.36.66h.06q.15-.31.3-.66l.31-.67.75-1.48h1.91l-2.32,4L405,66.77h-2l-1-1.55-.39-.7c-.14-.24-.27-.47-.41-.69h-.07c-.11.22-.23.45-.34.68s-.23.46-.34.71l-.84,1.55Z"/><path class="cls-3" d="M408.75,67a3,3,0,0,1-1.16-.2,1.91,1.91,0,0,1-.77-.59,2.38,2.38,0,0,1-.43-.89,4.24,4.24,0,0,1-.14-1.16V60.37h-1.12V59l1.22-.08.22-2.15h1.53v2.15h2v1.45h-2v3.75c0,.91.37,1.37,1.11,1.37a1.51,1.51,0,0,0,.42,0,1.8,1.8,0,0,0,.39-.12l.33,1.36c-.22.07-.46.14-.73.2A4.85,4.85,0,0,1,408.75,67Z"/><path class="cls-3" d="M410.76,63.41V62.07h3.81v1.34Z"/><path class="cls-3" d="M416.41,66.77V58.92h1.52l.13,1h.06a6.15,6.15,0,0,1,1.15-.88,2.77,2.77,0,0,1,1.43-.37,2.11,2.11,0,0,1,1.84.81,4,4,0,0,1,.57,2.31v4.93h-1.84V62.08a2.44,2.44,0,0,0-.28-1.37,1.09,1.09,0,0,0-.95-.4,1.6,1.6,0,0,0-.9.25,5.39,5.39,0,0,0-.89.72v5.49Z"/><path class="cls-3" d="M428.59,67a3.69,3.69,0,0,1-1.41-.27,3.42,3.42,0,0,1-1.19-.8,3.72,3.72,0,0,1-.83-1.29,4.83,4.83,0,0,1-.3-1.75,4.74,4.74,0,0,1,.3-1.74,3.77,3.77,0,0,1,.83-1.3,3.59,3.59,0,0,1,1.19-.81,3.69,3.69,0,0,1,1.41-.28A3.77,3.77,0,0,1,430,59a3.59,3.59,0,0,1,1.19.81,4.09,4.09,0,0,1,.83,1.3,4.54,4.54,0,0,1,.31,1.74A4.62,4.62,0,0,1,432,64.6a4,4,0,0,1-.83,1.29,3.42,3.42,0,0,1-1.19.8A3.76,3.76,0,0,1,428.59,67Zm0-1.5a1.57,1.57,0,0,0,1.35-.71,3.88,3.88,0,0,0,0-3.81,1.65,1.65,0,0,0-2.71,0,4,4,0,0,0,0,3.81A1.57,1.57,0,0,0,428.59,65.46Z"/><path class="cls-3" d="M434.15,66.77V58.92h1.52l.13,1.39h.06a3.39,3.39,0,0,1,1-1.18,2.15,2.15,0,0,1,1.22-.41,2.18,2.18,0,0,1,.89.16l-.31,1.6-.39-.09a2.63,2.63,0,0,0-.43,0,1.72,1.72,0,0,0-1,.36A2.79,2.79,0,0,0,436,62v4.8Z"/><path class="cls-3" d="M440.12,66.77V58.92h1.52l.13,1.07h.06a5.74,5.74,0,0,1,1.08-.9,2.47,2.47,0,0,1,1.32-.37,2.41,2.41,0,0,1,1.39.37,2.33,2.33,0,0,1,.79,1,6.41,6.41,0,0,1,1.17-1,2.46,2.46,0,0,1,1.36-.4,2.14,2.14,0,0,1,1.84.81,3.9,3.9,0,0,1,.59,2.31v4.93h-1.86V62.08a2.42,2.42,0,0,0-.29-1.37,1.05,1.05,0,0,0-.91-.4,2.47,2.47,0,0,0-1.65,1v5.49h-1.84V62.08a2.34,2.34,0,0,0-.29-1.37,1.07,1.07,0,0,0-.92-.4,2.47,2.47,0,0,0-1.65,1v5.49Z"/><path class="cls-3" d="M455.51,67a2.3,2.3,0,0,1-1.68-.63,2.27,2.27,0,0,1-.64-1.67,2.23,2.23,0,0,1,.27-1.11,2.15,2.15,0,0,1,.83-.84,5.39,5.39,0,0,1,1.44-.59,12.58,12.58,0,0,1,2.09-.37,2.8,2.8,0,0,0-.09-.59,1.4,1.4,0,0,0-.24-.49,1.07,1.07,0,0,0-.44-.34,1.67,1.67,0,0,0-.67-.12,3,3,0,0,0-1.13.23,6.81,6.81,0,0,0-1.08.54l-.67-1.23A7.44,7.44,0,0,1,455,59a5,5,0,0,1,1.76-.31,2.69,2.69,0,0,1,2.2.88,3.86,3.86,0,0,1,.73,2.52v4.65h-1.52l-.13-.86h-.07a5.48,5.48,0,0,1-1.12.75A2.9,2.9,0,0,1,455.51,67Zm.59-1.44a1.72,1.72,0,0,0,.88-.22,4.68,4.68,0,0,0,.84-.64V62.9a7.71,7.71,0,0,0-1.35.26,3.49,3.49,0,0,0-.88.36,1.31,1.31,0,0,0-.48.45,1.15,1.15,0,0,0-.14.55.89.89,0,0,0,.32.76A1.3,1.3,0,0,0,456.1,65.52Z"/><path class="cls-3" d="M463.66,67a1.53,1.53,0,0,1-1.39-.59,2.8,2.8,0,0,1-.41-1.61V55.48h1.84v9.37a.69.69,0,0,0,.13.47.4.4,0,0,0,.27.14h.12l.17,0,.24,1.37A2.39,2.39,0,0,1,463.66,67Z"/></g><path class="cls-5" d="M68.55,149V138.5h1.33v9.36h4.59V149Z"/><path class="cls-5" d="M79,149.19a3.47,3.47,0,0,1-1.36-.27,3.41,3.41,0,0,1-1.15-.8,3.8,3.8,0,0,1-.79-1.28,5.11,5.11,0,0,1,0-3.45,4,4,0,0,1,.79-1.29,3.27,3.27,0,0,1,1.15-.8A3.47,3.47,0,0,1,79,141a3.52,3.52,0,0,1,1.37.27,3.36,3.36,0,0,1,1.15.8,4,4,0,0,1,.79,1.29,5.28,5.28,0,0,1,0,3.45,3.8,3.8,0,0,1-.79,1.28A3.41,3.41,0,0,1,79,149.19Zm0-1.09a1.92,1.92,0,0,0,.92-.22,2.13,2.13,0,0,0,.71-.6,3,3,0,0,0,.45-.94,4.19,4.19,0,0,0,.16-1.22,4.29,4.29,0,0,0-.16-1.22,2.89,2.89,0,0,0-.45-1,2.2,2.2,0,0,0-.71-.62,2,2,0,0,0-.92-.21,2,2,0,0,0-.91.21,2.1,2.1,0,0,0-.71.62,2.9,2.9,0,0,0-.46,1,4.68,4.68,0,0,0-.16,1.22,4.56,4.56,0,0,0,.16,1.22,3.05,3.05,0,0,0,.46.94,2,2,0,0,0,.71.6A1.88,1.88,0,0,0,79,148.1Z"/><path class="cls-5" d="M84.68,149v-7.78h1.09l.11,1.41h.05a3.66,3.66,0,0,1,1-1.17,2,2,0,0,1,1.24-.43,2,2,0,0,1,.83.16l-.26,1.15-.35-.1a2.25,2.25,0,0,0-.4,0,1.79,1.79,0,0,0-1,.4A3.21,3.21,0,0,0,86,144v5Z"/><path class="cls-5" d="M93.23,149.19a3.93,3.93,0,0,1-1.47-.28,3.43,3.43,0,0,1-1.18-.8,3.65,3.65,0,0,1-.79-1.27,4.67,4.67,0,0,1-.29-1.72,4.88,4.88,0,0,1,.29-1.72,4,4,0,0,1,.79-1.28,3.12,3.12,0,0,1,1.11-.81A3.06,3.06,0,0,1,93,141a3.29,3.29,0,0,1,1.33.25,2.73,2.73,0,0,1,1,.74,3.4,3.4,0,0,1,.6,1.15,5.06,5.06,0,0,1,.21,1.51c0,.13,0,.27,0,.4a1.69,1.69,0,0,1,0,.35H90.79a3,3,0,0,0,.78,2,2.38,2.38,0,0,0,1.82.73,2.89,2.89,0,0,0,1-.17,4.16,4.16,0,0,0,.9-.44l.47.87a7.55,7.55,0,0,1-1.14.56A4,4,0,0,1,93.23,149.19Zm-2.45-4.71h4.16a2.76,2.76,0,0,0-.51-1.8,1.7,1.7,0,0,0-1.41-.61,1.92,1.92,0,0,0-.79.16,1.85,1.85,0,0,0-.68.47,2.42,2.42,0,0,0-.51.76A3.47,3.47,0,0,0,90.78,144.48Z"/><path class="cls-5" d="M98,149v-7.78H99.1l.11,1.12h.05a5.43,5.43,0,0,1,1.11-.94,2.39,2.39,0,0,1,1.3-.37,2.22,2.22,0,0,1,1.4.39,2.26,2.26,0,0,1,.75,1.1,6.27,6.27,0,0,1,1.22-1.08,2.32,2.32,0,0,1,1.34-.41,2.07,2.07,0,0,1,1.78.77,3.71,3.71,0,0,1,.58,2.27V149h-1.31v-4.76a2.84,2.84,0,0,0-.35-1.59,1.26,1.26,0,0,0-1.09-.49,2.91,2.91,0,0,0-1.95,1.2V149h-1.31v-4.76a2.84,2.84,0,0,0-.35-1.59,1.3,1.3,0,0,0-1.11-.49,2.91,2.91,0,0,0-2,1.2V149Z"/><path class="cls-5" d="M115.15,139.62a.92.92,0,0,1-.65-.24.78.78,0,0,1-.27-.61.76.76,0,0,1,.27-.61,1,1,0,0,1,1.29,0,.76.76,0,0,1,.27.61.78.78,0,0,1-.27.61A.91.91,0,0,1,115.15,139.62Zm-.68,9.38v-7.78h1.31V149Z"/><path class="cls-5" d="M118.41,152.28V141.22h1.09l.11.9h0a5.7,5.7,0,0,1,1.16-.77,2.8,2.8,0,0,1,1.32-.32,2.91,2.91,0,0,1,1.32.28,2.4,2.4,0,0,1,1,.8,3.81,3.81,0,0,1,.59,1.25,6.3,6.3,0,0,1,.2,1.64,5.29,5.29,0,0,1-.27,1.76,4.2,4.2,0,0,1-.74,1.32,3,3,0,0,1-2.35,1.11,2.64,2.64,0,0,1-1.08-.24,5.23,5.23,0,0,1-1.08-.66l0,1.36v2.63Zm3.21-4.2a1.91,1.91,0,0,0,.89-.21,2.29,2.29,0,0,0,.71-.61,3,3,0,0,0,.46-1,4.63,4.63,0,0,0,.17-1.29,6,6,0,0,0-.11-1.17,2.89,2.89,0,0,0-.36-.91,1.78,1.78,0,0,0-.64-.58,2,2,0,0,0-.94-.21,2.12,2.12,0,0,0-1,.27,5.65,5.65,0,0,0-1.08.79v4.08a3.37,3.37,0,0,0,1,.63A2.65,2.65,0,0,0,121.62,148.08Z"/><path class="cls-5" d="M129.32,149.19a4,4,0,0,1-1.58-.31,4.85,4.85,0,0,1-1.32-.76l.66-.88a5.46,5.46,0,0,0,1,.67,2.83,2.83,0,0,0,1.24.25,1.63,1.63,0,0,0,1.15-.35,1.1,1.1,0,0,0,.38-.86.88.88,0,0,0-.16-.53,1.49,1.49,0,0,0-.4-.39,3.81,3.81,0,0,0-.57-.3l-.64-.25c-.28-.1-.56-.21-.83-.33a3.11,3.11,0,0,1-.75-.45,2.08,2.08,0,0,1-.53-.62,1.59,1.59,0,0,1-.21-.84,2.2,2.2,0,0,1,.18-.88,2,2,0,0,1,.53-.7,2.43,2.43,0,0,1,.84-.46,3.25,3.25,0,0,1,1.12-.17,3.49,3.49,0,0,1,1.35.25,4.44,4.44,0,0,1,1.07.63l-.63.83a4.16,4.16,0,0,0-.83-.5,2.43,2.43,0,0,0-.94-.19,1.47,1.47,0,0,0-1.08.34,1,1,0,0,0-.35.78.75.75,0,0,0,.15.47,1.32,1.32,0,0,0,.38.36,3.13,3.13,0,0,0,.55.27l.65.25q.42.15.84.33a3.52,3.52,0,0,1,.76.44,2.16,2.16,0,0,1,.55.65,1.8,1.8,0,0,1,.22.93,2.19,2.19,0,0,1-.73,1.63,2.6,2.6,0,0,1-.9.5A3.51,3.51,0,0,1,129.32,149.19Z"/><path class="cls-5" d="M136.26,149.19a2.11,2.11,0,0,1-1.81-.77,3.78,3.78,0,0,1-.57-2.27v-4.93h1.33V146a2.8,2.8,0,0,0,.34,1.59,1.25,1.25,0,0,0,1.11.49,1.88,1.88,0,0,0,1.08-.31,4.94,4.94,0,0,0,1-1v-5.52h1.31V149H139l-.11-1.22h-.05a4.87,4.87,0,0,1-1.14,1A2.54,2.54,0,0,1,136.26,149.19Z"/><path class="cls-5" d="M142.7,149v-7.78h1.08l.12,1.12h0a5.77,5.77,0,0,1,1.12-.94,2.39,2.39,0,0,1,1.3-.37,2,2,0,0,1,2.14,1.49,6.61,6.61,0,0,1,1.23-1.08,2.29,2.29,0,0,1,1.33-.41,2.09,2.09,0,0,1,1.79.77,3.71,3.71,0,0,1,.58,2.27V149h-1.31v-4.76a2.84,2.84,0,0,0-.35-1.59,1.28,1.28,0,0,0-1.09-.49,2.87,2.87,0,0,0-2,1.2V149h-1.31v-4.76a2.75,2.75,0,0,0-.36-1.59,1.27,1.27,0,0,0-1.1-.49,2.87,2.87,0,0,0-2,1.2V149Z"/><path class="cls-5" d="M161.82,149.19a2.87,2.87,0,0,1-2.35-1.06,4.6,4.6,0,0,1-.87-3,4.81,4.81,0,0,1,.28-1.7,4,4,0,0,1,.74-1.29,3.27,3.27,0,0,1,1.08-.81A2.82,2.82,0,0,1,162,141a2.64,2.64,0,0,1,1.16.24,5.21,5.21,0,0,1,1,.65l-.06-1.32v-3h1.33V149h-1.09l-.11-.92h-.05a5,5,0,0,1-1.07.78A2.62,2.62,0,0,1,161.82,149.19Zm.28-1.11a2,2,0,0,0,1-.26,3.63,3.63,0,0,0,1-.81V143a3.25,3.25,0,0,0-1-.63,2.39,2.39,0,0,0-.94-.19,1.76,1.76,0,0,0-.87.22,2.05,2.05,0,0,0-.71.61,2.73,2.73,0,0,0-.48.93,3.86,3.86,0,0,0-.18,1.22,3.73,3.73,0,0,0,.56,2.19A1.83,1.83,0,0,0,162.1,148.08Z"/><path class="cls-5" d="M171.06,149.19a3.47,3.47,0,0,1-1.36-.27,3.41,3.41,0,0,1-1.15-.8,3.8,3.8,0,0,1-.79-1.28,5.11,5.11,0,0,1,0-3.45,4,4,0,0,1,.79-1.29,3.27,3.27,0,0,1,1.15-.8,3.47,3.47,0,0,1,1.36-.27,3.52,3.52,0,0,1,1.37.27,3.36,3.36,0,0,1,1.15.8,4,4,0,0,1,.79,1.29,5.28,5.28,0,0,1,0,3.45,3.8,3.8,0,0,1-.79,1.28,3.41,3.41,0,0,1-2.52,1.07Zm0-1.09a1.92,1.92,0,0,0,.92-.22,2.13,2.13,0,0,0,.71-.6,2.83,2.83,0,0,0,.45-.94,4.19,4.19,0,0,0,.16-1.22,4.29,4.29,0,0,0-.16-1.22,2.7,2.7,0,0,0-.45-1,2.2,2.2,0,0,0-.71-.62,2,2,0,0,0-.92-.21,2,2,0,0,0-.91.21,2.1,2.1,0,0,0-.71.62,2.9,2.9,0,0,0-.46,1,4.68,4.68,0,0,0-.16,1.22,4.56,4.56,0,0,0,.16,1.22,3.05,3.05,0,0,0,.46.94,2,2,0,0,0,.71.6A1.88,1.88,0,0,0,171.06,148.1Z"/><path class="cls-5" d="M178.1,149.19a1.23,1.23,0,0,1-1.07-.45,2.28,2.28,0,0,1-.32-1.31V137.6H178v9.92a.64.64,0,0,0,.12.45.31.31,0,0,0,.25.13h.12l.17,0,.18,1a1.89,1.89,0,0,1-.31.1A2.81,2.81,0,0,1,178.1,149.19Z"/><path class="cls-5" d="M183.82,149.19a3.41,3.41,0,0,1-2.52-1.07,3.8,3.8,0,0,1-.79-1.28,5.28,5.28,0,0,1,0-3.45,4,4,0,0,1,.79-1.29,3.36,3.36,0,0,1,1.15-.8,3.52,3.52,0,0,1,1.37-.27,3.47,3.47,0,0,1,1.36.27,3.27,3.27,0,0,1,1.15.8,4,4,0,0,1,.79,1.29,5.11,5.11,0,0,1,0,3.45,3.8,3.8,0,0,1-.79,1.28,3.41,3.41,0,0,1-1.15.8A3.47,3.47,0,0,1,183.82,149.19Zm0-1.09a1.88,1.88,0,0,0,.91-.22,2,2,0,0,0,.71-.6,3.05,3.05,0,0,0,.46-.94,4.56,4.56,0,0,0,.16-1.22,4.68,4.68,0,0,0-.16-1.22,2.9,2.9,0,0,0-.46-1,2.1,2.1,0,0,0-.71-.62,2.1,2.1,0,0,0-1.83,0,2.2,2.2,0,0,0-.71.62,2.7,2.7,0,0,0-.45,1,4.29,4.29,0,0,0-.16,1.22,4.19,4.19,0,0,0,.16,1.22,2.83,2.83,0,0,0,.45.94,2.13,2.13,0,0,0,.71.6A1.9,1.9,0,0,0,183.82,148.1Z"/><path class="cls-5" d="M189.46,149v-7.78h1.09l.11,1.41h.05a3.66,3.66,0,0,1,1-1.17,2.09,2.09,0,0,1,2.07-.27l-.25,1.15-.36-.1a2.17,2.17,0,0,0-.4,0,1.79,1.79,0,0,0-1,.4,3.12,3.12,0,0,0-.93,1.39v5Z"/><path class="cls-5" d="M200.25,149.19a4.1,4.1,0,0,1-1.59-.31,5,5,0,0,1-1.31-.76l.66-.88a5.46,5.46,0,0,0,1.05.67,2.83,2.83,0,0,0,1.24.25,1.63,1.63,0,0,0,1.15-.35,1.13,1.13,0,0,0,.38-.86.88.88,0,0,0-.16-.53,1.53,1.53,0,0,0-.41-.39,3.26,3.26,0,0,0-.56-.3l-.64-.25q-.42-.15-.84-.33a3.25,3.25,0,0,1-.74-.45,2.28,2.28,0,0,1-.54-.62,1.68,1.68,0,0,1-.2-.84,2.2,2.2,0,0,1,.18-.88,2,2,0,0,1,.53-.7,2.43,2.43,0,0,1,.84-.46,3.25,3.25,0,0,1,1.12-.17,3.49,3.49,0,0,1,1.35.25,4.37,4.37,0,0,1,1.06.63l-.62.83a4.47,4.47,0,0,0-.83-.5,2.44,2.44,0,0,0-1-.19,1.47,1.47,0,0,0-1.08.34,1,1,0,0,0-.34.78.82.82,0,0,0,.14.47,1.51,1.51,0,0,0,.39.36,3.13,3.13,0,0,0,.55.27l.65.25.84.33a3.77,3.77,0,0,1,.76.44,2.16,2.16,0,0,1,.55.65,1.91,1.91,0,0,1,.22.93,2.18,2.18,0,0,1-.19.89,2,2,0,0,1-.54.74,2.6,2.6,0,0,1-.9.5A3.55,3.55,0,0,1,200.25,149.19Z"/><path class="cls-5" d="M205.59,139.62a1,1,0,0,1-.65-.24.8.8,0,0,1-.26-.61.79.79,0,0,1,.26-.61,1,1,0,0,1,.65-.24.93.93,0,0,1,.65.24.75.75,0,0,1,.26.61.77.77,0,0,1-.26.61A.93.93,0,0,1,205.59,139.62Zm-.67,9.38v-7.78h1.31V149Z"/><path class="cls-5" d="M211.3,149.19a2.65,2.65,0,0,1-1-.19,1.77,1.77,0,0,1-.69-.53,2.14,2.14,0,0,1-.38-.82,4.9,4.9,0,0,1-.11-1.05v-4.31h-1.15v-1l1.21-.08.16-2.18h1.11v2.18h2.09v1.07h-2.09v4.32a2,2,0,0,0,.26,1.11,1,1,0,0,0,.94.4,1.9,1.9,0,0,0,.45-.07,3.62,3.62,0,0,0,.43-.14l.25,1c-.21.07-.44.14-.69.2A3.2,3.2,0,0,1,211.3,149.19Z"/><path class="cls-5" d="M219.26,149.19a2.32,2.32,0,0,1-1.63-.58A2.07,2.07,0,0,1,217,147a2.16,2.16,0,0,1,1.14-2,9.45,9.45,0,0,1,3.63-1,3.38,3.38,0,0,0-.07-.72,1.85,1.85,0,0,0-.25-.63,1.4,1.4,0,0,0-.49-.44,1.66,1.66,0,0,0-.79-.16,3.12,3.12,0,0,0-1.26.25,5.6,5.6,0,0,0-1.06.58l-.51-.91a7.46,7.46,0,0,1,1.33-.68,4.41,4.41,0,0,1,1.73-.33,2.4,2.4,0,0,1,2.06.87,3.83,3.83,0,0,1,.64,2.33V149H222l-.11-.93h0a6.38,6.38,0,0,1-1.2.79A2.92,2.92,0,0,1,219.26,149.19Zm.38-1.06a2.34,2.34,0,0,0,1.06-.26,5.44,5.44,0,0,0,1.05-.78v-2.16a13.46,13.46,0,0,0-1.64.31,4.06,4.06,0,0,0-1.07.41,1.66,1.66,0,0,0-.59.55,1.27,1.27,0,0,0-.19.68,1.11,1.11,0,0,0,.4,1A1.6,1.6,0,0,0,219.64,148.13Z"/><path class="cls-5" d="M225.53,149v-7.78h1.09l.11,1.12h0a5.77,5.77,0,0,1,1.12-.94,2.39,2.39,0,0,1,1.3-.37,2.22,2.22,0,0,1,1.4.39,2.26,2.26,0,0,1,.75,1.1,6.27,6.27,0,0,1,1.22-1.08,2.32,2.32,0,0,1,1.34-.41,2.07,2.07,0,0,1,1.78.77,3.71,3.71,0,0,1,.58,2.27V149H235v-4.76a2.84,2.84,0,0,0-.35-1.59,1.28,1.28,0,0,0-1.09-.49,2.87,2.87,0,0,0-1.95,1.2V149h-1.31v-4.76a2.84,2.84,0,0,0-.35-1.59,1.3,1.3,0,0,0-1.11-.49,2.87,2.87,0,0,0-1.95,1.2V149Z"/><path class="cls-5" d="M241.94,149.19a3.91,3.91,0,0,1-1.46-.28,3.43,3.43,0,0,1-1.18-.8,3.67,3.67,0,0,1-.8-1.27,4.89,4.89,0,0,1-.28-1.72,4.67,4.67,0,0,1,.29-1.72,4,4,0,0,1,.79-1.28,3.12,3.12,0,0,1,1.11-.81,3.06,3.06,0,0,1,1.29-.28,3.27,3.27,0,0,1,1.32.25,2.68,2.68,0,0,1,1,.74,3.4,3.4,0,0,1,.6,1.15,5.06,5.06,0,0,1,.21,1.51c0,.13,0,.27,0,.4a2.84,2.84,0,0,1,0,.35h-5.25a3,3,0,0,0,.78,2,2.37,2.37,0,0,0,1.81.73,2.91,2.91,0,0,0,1-.17,4.16,4.16,0,0,0,.9-.44l.46.87a7,7,0,0,1-1.13.56A4,4,0,0,1,241.94,149.19Zm-2.45-4.71h4.16a2.76,2.76,0,0,0-.5-1.8,1.74,1.74,0,0,0-1.42-.61,2,2,0,0,0-.79.16,2,2,0,0,0-.68.47,2.57,2.57,0,0,0-.5.76A3.81,3.81,0,0,0,239.49,144.48Z"/><path class="cls-5" d="M249,149.19a2.65,2.65,0,0,1-1-.19,1.77,1.77,0,0,1-.69-.53,2.14,2.14,0,0,1-.38-.82,4.9,4.9,0,0,1-.11-1.05v-4.31h-1.15v-1l1.21-.08L247,139h1.11v2.18h2.09v1.07h-2.09v4.32a2,2,0,0,0,.26,1.11,1,1,0,0,0,.94.4,1.9,1.9,0,0,0,.45-.07,3.62,3.62,0,0,0,.43-.14l.25,1c-.21.07-.44.14-.69.2A3.2,3.2,0,0,1,249,149.19Z"/><path class="cls-5" d="M251.85,151.72l-.32-.77a2.69,2.69,0,0,0,1.07-.81A1.81,1.81,0,0,0,253,149h-.16a1,1,0,0,1-.67-.23.86.86,0,0,1-.28-.68.85.85,0,0,1,.29-.68,1,1,0,0,1,.69-.25,1,1,0,0,1,.81.42,2,2,0,0,1,.29,1.13,2.93,2.93,0,0,1-.56,1.81A3.61,3.61,0,0,1,251.85,151.72Z"/><path class="cls-5" d="M262.34,149.19a3.84,3.84,0,0,1-1.44-.27,3.45,3.45,0,0,1-1.16-.8,3.6,3.6,0,0,1-.76-1.28,4.85,4.85,0,0,1-.28-1.72,4.65,4.65,0,0,1,.3-1.73,3.7,3.7,0,0,1,.82-1.29,3.33,3.33,0,0,1,1.19-.8,3.83,3.83,0,0,1,1.43-.27,2.91,2.91,0,0,1,1.31.27,4.34,4.34,0,0,1,1,.64l-.67.86a3.34,3.34,0,0,0-.71-.49,1.79,1.79,0,0,0-.84-.19,2.15,2.15,0,0,0-1.75.83,3,3,0,0,0-.5,1,4,4,0,0,0-.18,1.22,3.87,3.87,0,0,0,.17,1.22,3.11,3.11,0,0,0,.49.94,2.11,2.11,0,0,0,.76.6,2.14,2.14,0,0,0,1,.22,2.26,2.26,0,0,0,1-.23,4.7,4.7,0,0,0,.82-.55l.58.88a4.45,4.45,0,0,1-1.17.72A3.46,3.46,0,0,1,262.34,149.19Z"/><path class="cls-5" d="M269.25,149.19a3.47,3.47,0,0,1-1.36-.27,3.41,3.41,0,0,1-1.15-.8,3.8,3.8,0,0,1-.79-1.28,5.11,5.11,0,0,1,0-3.45,4,4,0,0,1,.79-1.29,3.27,3.27,0,0,1,1.15-.8,3.47,3.47,0,0,1,1.36-.27,3.52,3.52,0,0,1,1.37.27,3.36,3.36,0,0,1,1.15.8,4,4,0,0,1,.79,1.29,5.28,5.28,0,0,1,0,3.45,3.8,3.8,0,0,1-.79,1.28,3.41,3.41,0,0,1-2.52,1.07Zm0-1.09a1.92,1.92,0,0,0,.92-.22,2.13,2.13,0,0,0,.71-.6,2.83,2.83,0,0,0,.45-.94,4.19,4.19,0,0,0,.16-1.22,4.29,4.29,0,0,0-.16-1.22,2.7,2.7,0,0,0-.45-1,2.2,2.2,0,0,0-.71-.62,2,2,0,0,0-.92-.21,2,2,0,0,0-.91.21,2.1,2.1,0,0,0-.71.62,2.9,2.9,0,0,0-.46,1,4.68,4.68,0,0,0-.16,1.22,4.56,4.56,0,0,0,.16,1.22,3.05,3.05,0,0,0,.46.94,2,2,0,0,0,.71.6A1.88,1.88,0,0,0,269.25,148.1Z"/><path class="cls-5" d="M274.9,149v-7.78H276l.11,1.12h0a6.41,6.41,0,0,1,1.18-.94,2.67,2.67,0,0,1,1.43-.37,2.07,2.07,0,0,1,1.8.77,3.78,3.78,0,0,1,.57,2.27V149h-1.32v-4.76a2.75,2.75,0,0,0-.35-1.59,1.3,1.3,0,0,0-1.12-.49,1.94,1.94,0,0,0-1.07.31,7.22,7.22,0,0,0-1.06.89V149Z"/><path class="cls-5" d="M285.69,149.19a4.06,4.06,0,0,1-1.59-.31,4.79,4.79,0,0,1-1.31-.76l.66-.88a5.71,5.71,0,0,0,1,.67,2.89,2.89,0,0,0,1.24.25,1.64,1.64,0,0,0,1.16-.35,1.13,1.13,0,0,0,.38-.86.88.88,0,0,0-.16-.53,1.53,1.53,0,0,0-.41-.39,3,3,0,0,0-.57-.3l-.64-.25-.83-.33a3.25,3.25,0,0,1-.74-.45,2.28,2.28,0,0,1-.54-.62,1.59,1.59,0,0,1-.21-.84,2.21,2.21,0,0,1,.19-.88,2,2,0,0,1,.53-.7,2.43,2.43,0,0,1,.84-.46,3.25,3.25,0,0,1,1.12-.17,3.49,3.49,0,0,1,1.35.25,4.37,4.37,0,0,1,1.06.63l-.62.83a4.82,4.82,0,0,0-.83-.5,2.48,2.48,0,0,0-.95-.19,1.47,1.47,0,0,0-1.08.34,1,1,0,0,0-.34.78.82.82,0,0,0,.14.47,1.51,1.51,0,0,0,.39.36,3.13,3.13,0,0,0,.55.27l.65.25.84.33a3.77,3.77,0,0,1,.76.44,2.32,2.32,0,0,1,.55.65,1.91,1.91,0,0,1,.21.93,2.18,2.18,0,0,1-.18.89,2,2,0,0,1-.54.74,2.6,2.6,0,0,1-.9.5A3.55,3.55,0,0,1,285.69,149.19Z"/><path class="cls-5" d="M293.51,149.19a3.91,3.91,0,0,1-1.46-.28,3.47,3.47,0,0,1-1.19-.8,3.8,3.8,0,0,1-.79-1.27,4.88,4.88,0,0,1-.29-1.72,4.67,4.67,0,0,1,.3-1.72,4.18,4.18,0,0,1,.78-1.28,3.24,3.24,0,0,1,1.12-.81,3,3,0,0,1,1.29-.28,3.27,3.27,0,0,1,1.32.25,2.68,2.68,0,0,1,1,.74,3.4,3.4,0,0,1,.6,1.15,5.06,5.06,0,0,1,.21,1.51c0,.13,0,.27,0,.4a2.84,2.84,0,0,1,0,.35h-5.25a3,3,0,0,0,.77,2,2.4,2.4,0,0,0,1.82.73,2.86,2.86,0,0,0,1-.17,4,4,0,0,0,.91-.44l.46.87a7,7,0,0,1-1.13.56A4,4,0,0,1,293.51,149.19Zm-2.45-4.71h4.16a2.76,2.76,0,0,0-.5-1.8,1.74,1.74,0,0,0-1.42-.61,2,2,0,0,0-.79.16,1.94,1.94,0,0,0-.68.47,2.57,2.57,0,0,0-.5.76A3.47,3.47,0,0,0,291.06,144.48Z"/><path class="cls-5" d="M301.37,149.19a3.77,3.77,0,0,1-1.44-.27,3.26,3.26,0,0,1-1.16-.8,3.62,3.62,0,0,1-.77-1.28,4.85,4.85,0,0,1-.28-1.72,4.65,4.65,0,0,1,.3-1.73,4,4,0,0,1,.82-1.29,3.42,3.42,0,0,1,1.19-.8,3.83,3.83,0,0,1,1.43-.27,2.89,2.89,0,0,1,1.31.27,3.92,3.92,0,0,1,1,.64l-.67.86a3.34,3.34,0,0,0-.71-.49,1.79,1.79,0,0,0-.84-.19,2.3,2.3,0,0,0-1,.21,2.26,2.26,0,0,0-.76.62,3,3,0,0,0-.51,1,4,4,0,0,0-.18,1.22,3.86,3.86,0,0,0,.18,1.22,2.88,2.88,0,0,0,.48.94,2.11,2.11,0,0,0,.76.6,2.17,2.17,0,0,0,1,.22,2.23,2.23,0,0,0,1-.23,4.35,4.35,0,0,0,.82-.55l.58.88a4.15,4.15,0,0,1-1.17.72A3.41,3.41,0,0,1,301.37,149.19Z"/><path class="cls-5" d="M307.88,149.19a2.66,2.66,0,0,1-1.05-.19,1.93,1.93,0,0,1-.69-.53,2.13,2.13,0,0,1-.37-.82,4.32,4.32,0,0,1-.12-1.05v-4.31H304.5v-1l1.22-.08.16-2.18H307v2.18h2.1v1.07H307v4.32a1.94,1.94,0,0,0,.27,1.11,1,1,0,0,0,.93.4,1.9,1.9,0,0,0,.45-.07,3.11,3.11,0,0,0,.43-.14l.26,1c-.22.07-.45.14-.7.2A3.18,3.18,0,0,1,307.88,149.19Z"/><path class="cls-5" d="M313.77,149.19a4,4,0,0,1-1.47-.28,3.53,3.53,0,0,1-1.18-.8,3.65,3.65,0,0,1-.79-1.27,4.88,4.88,0,0,1-.29-1.72,4.67,4.67,0,0,1,.3-1.72,3.82,3.82,0,0,1,.78-1.28,3.26,3.26,0,0,1,2.41-1.09,3.27,3.27,0,0,1,1.32.25,2.64,2.64,0,0,1,1,.74,3.4,3.4,0,0,1,.6,1.15,5.06,5.06,0,0,1,.21,1.51c0,.13,0,.27,0,.4a1.69,1.69,0,0,1,0,.35h-5.24a3,3,0,0,0,.77,2,2.4,2.4,0,0,0,1.82.73,2.89,2.89,0,0,0,1-.17,4,4,0,0,0,.9-.44l.47.87a6.72,6.72,0,0,1-1.14.56A4,4,0,0,1,313.77,149.19Zm-2.45-4.71h4.16a2.82,2.82,0,0,0-.5-1.8,1.74,1.74,0,0,0-1.42-.61,2,2,0,0,0-1.47.63,2.6,2.6,0,0,0-.51.76A3.47,3.47,0,0,0,311.32,144.48Z"/><path class="cls-5" d="M320.84,149.19a2.66,2.66,0,0,1-1-.19,1.93,1.93,0,0,1-.69-.53,2.13,2.13,0,0,1-.37-.82,4.32,4.32,0,0,1-.12-1.05v-4.31h-1.15v-1l1.22-.08.16-2.18h1.1v2.18H322v1.07h-2.1v4.32a1.94,1.94,0,0,0,.27,1.11,1,1,0,0,0,.93.4,1.9,1.9,0,0,0,.45-.07,3.11,3.11,0,0,0,.43-.14l.26,1c-.22.07-.45.14-.7.2A3.18,3.18,0,0,1,320.84,149.19Z"/><path class="cls-5" d="M326.07,149.19a2.13,2.13,0,0,1-1.82-.77,3.86,3.86,0,0,1-.56-2.27v-4.93H325V146a2.8,2.8,0,0,0,.34,1.59,1.25,1.25,0,0,0,1.11.49,1.84,1.84,0,0,0,1.07-.31,5.21,5.21,0,0,0,1-1v-5.52h1.31V149h-1.09l-.11-1.22h-.05a4.87,4.87,0,0,1-1.14,1A2.56,2.56,0,0,1,326.07,149.19Z"/><path class="cls-5" d="M332.5,149v-7.78h1.09l.11,1.41h.05a3.66,3.66,0,0,1,1-1.17,2.09,2.09,0,0,1,2.07-.27l-.26,1.15-.35-.1a2.17,2.17,0,0,0-.4,0,1.79,1.79,0,0,0-1,.4,3.21,3.21,0,0,0-.94,1.39v5Z"/><path class="cls-5" d="M70.22,173.19a2.36,2.36,0,0,1-1.63-.58A2.07,2.07,0,0,1,68,171a2.15,2.15,0,0,1,1.13-2,9.45,9.45,0,0,1,3.63-1,3.38,3.38,0,0,0-.07-.72,1.85,1.85,0,0,0-.25-.63,1.36,1.36,0,0,0-.48-.44,1.73,1.73,0,0,0-.8-.16,3.15,3.15,0,0,0-1.26.25,5.6,5.6,0,0,0-1.06.58l-.51-.91a7.46,7.46,0,0,1,1.33-.68,4.41,4.41,0,0,1,1.73-.33,2.37,2.37,0,0,1,2.06.87,3.83,3.83,0,0,1,.64,2.33V173H73l-.11-.93h0a6.38,6.38,0,0,1-1.2.79A2.92,2.92,0,0,1,70.22,173.19Zm.38-1.06a2.28,2.28,0,0,0,1.06-.26,5.44,5.44,0,0,0,1-.78v-2.16a13.85,13.85,0,0,0-1.64.31,4.06,4.06,0,0,0-1.07.41,1.66,1.66,0,0,0-.59.55,1.36,1.36,0,0,0-.18.68,1.09,1.09,0,0,0,.4,1A1.55,1.55,0,0,0,70.6,172.13Z"/><path class="cls-5" d="M79.15,173.19a2.87,2.87,0,0,1-2.35-1.06,4.6,4.6,0,0,1-.87-3,4.81,4.81,0,0,1,.28-1.7,4.24,4.24,0,0,1,.74-1.29,3.27,3.27,0,0,1,1.08-.81,2.82,2.82,0,0,1,1.28-.29,2.64,2.64,0,0,1,1.16.24,5.21,5.21,0,0,1,1,.65l-.06-1.32v-3h1.33V173H81.66l-.11-.92h0a5,5,0,0,1-1.07.78A2.62,2.62,0,0,1,79.15,173.19Zm.28-1.11a2,2,0,0,0,1-.26,3.63,3.63,0,0,0,1-.81V167a3.25,3.25,0,0,0-1-.63,2.39,2.39,0,0,0-.94-.19,1.76,1.76,0,0,0-.87.22A2.05,2.05,0,0,0,78,167a2.73,2.73,0,0,0-.48.93,3.86,3.86,0,0,0-.18,1.22,3.73,3.73,0,0,0,.56,2.19A1.83,1.83,0,0,0,79.43,172.08Z"/><path class="cls-5" d="M86,163.62a1,1,0,0,1-.65-.24.8.8,0,0,1-.26-.61.79.79,0,0,1,.26-.61,1,1,0,0,1,.65-.24.93.93,0,0,1,.65.24.75.75,0,0,1,.26.61.77.77,0,0,1-.26.61A.93.93,0,0,1,86,163.62ZM85.37,173v-7.78h1.31V173Z"/><path class="cls-5" d="M89.31,176.28V165.22h1.08l.12.9h0a6,6,0,0,1,1.16-.77A2.83,2.83,0,0,1,93,165a3,3,0,0,1,1.33.28,2.4,2.4,0,0,1,1,.8,3.81,3.81,0,0,1,.59,1.25,6.3,6.3,0,0,1,.2,1.64,5,5,0,0,1-.28,1.76,4,4,0,0,1-.73,1.32,3.13,3.13,0,0,1-1.07.83,3.17,3.17,0,0,1-1.28.28,2.57,2.57,0,0,1-1.08-.24,5.23,5.23,0,0,1-1.08-.66l0,1.36v2.63Zm3.21-4.2a1.91,1.91,0,0,0,.89-.21,2.15,2.15,0,0,0,.7-.61,2.83,2.83,0,0,0,.47-1,4.63,4.63,0,0,0,.17-1.29,5.26,5.26,0,0,0-.12-1.17,2.48,2.48,0,0,0-.36-.91,1.63,1.63,0,0,0-.64-.58,1.94,1.94,0,0,0-.93-.21,2.09,2.09,0,0,0-1,.27,5.65,5.65,0,0,0-1.08.79v4.08a3.37,3.37,0,0,0,1,.63A2.65,2.65,0,0,0,92.52,172.08Z"/><path class="cls-5" d="M98.86,163.62a.93.93,0,0,1-.65-.24.77.77,0,0,1-.26-.61.75.75,0,0,1,.26-.61.93.93,0,0,1,.65-.24,1,1,0,0,1,.65.24.79.79,0,0,1,.26.61.8.8,0,0,1-.26.61A1,1,0,0,1,98.86,163.62ZM98.19,173v-7.78H99.5V173Z"/><path class="cls-5" d="M104.15,173.19a4,4,0,0,1-1.58-.31,4.79,4.79,0,0,1-1.31-.76l.65-.88a5.46,5.46,0,0,0,1,.67,2.86,2.86,0,0,0,1.24.25,1.62,1.62,0,0,0,1.15-.35,1.11,1.11,0,0,0,.39-.86,1,1,0,0,0-.16-.53,1.69,1.69,0,0,0-.41-.39,3.81,3.81,0,0,0-.57-.3l-.64-.25c-.28-.1-.55-.21-.83-.33a2.87,2.87,0,0,1-.74-.45,2.28,2.28,0,0,1-.54-.62,1.59,1.59,0,0,1-.21-.84,2.2,2.2,0,0,1,.18-.88,2.13,2.13,0,0,1,.53-.7,2.43,2.43,0,0,1,.84-.46,3.29,3.29,0,0,1,1.12-.17,3.58,3.58,0,0,1,1.36.25,4.37,4.37,0,0,1,1.06.63l-.63.83a4.16,4.16,0,0,0-.83-.5,2.43,2.43,0,0,0-.94-.19,1.47,1.47,0,0,0-1.08.34,1,1,0,0,0-.35.78.75.75,0,0,0,.15.47,1.46,1.46,0,0,0,.38.36,3.52,3.52,0,0,0,.55.27l.65.25q.42.15.84.33a3.29,3.29,0,0,1,.76.44,2,2,0,0,1,.55.65,1.8,1.8,0,0,1,.22.93,2.18,2.18,0,0,1-.18.89,2.2,2.2,0,0,1-.55.74,2.65,2.65,0,0,1-.89.5A3.61,3.61,0,0,1,104.15,173.19Z"/><path class="cls-5" d="M111.9,173.19a3.8,3.8,0,0,1-1.44-.27,3.26,3.26,0,0,1-1.16-.8,3.62,3.62,0,0,1-.77-1.28,4.85,4.85,0,0,1-.28-1.72,4.65,4.65,0,0,1,.3-1.73,4,4,0,0,1,.82-1.29,3.42,3.42,0,0,1,1.19-.8A3.83,3.83,0,0,1,112,165a3,3,0,0,1,1.32.27,4.34,4.34,0,0,1,1,.64l-.68.86a3.34,3.34,0,0,0-.71-.49,1.79,1.79,0,0,0-.84-.19,2.3,2.3,0,0,0-1,.21,2.26,2.26,0,0,0-.76.62,3,3,0,0,0-.51,1,4,4,0,0,0-.18,1.22,3.86,3.86,0,0,0,.18,1.22,2.88,2.88,0,0,0,.48.94,2.11,2.11,0,0,0,.76.6,2.17,2.17,0,0,0,1,.22,2.23,2.23,0,0,0,1-.23,4.35,4.35,0,0,0,.82-.55l.58.88a4.15,4.15,0,0,1-1.17.72A3.41,3.41,0,0,1,111.9,173.19Z"/><path class="cls-5" d="M116.79,163.62a.91.91,0,0,1-.64-.24.78.78,0,0,1-.27-.61.76.76,0,0,1,.27-.61,1,1,0,0,1,1.29,0,.76.76,0,0,1,.27.61.78.78,0,0,1-.27.61A.92.92,0,0,1,116.79,163.62Zm-.67,9.38v-7.78h1.31V173Z"/><path class="cls-5" d="M120.06,173v-7.78h1.09l.11,1.12h0a6.76,6.76,0,0,1,1.18-.94,2.7,2.7,0,0,1,1.43-.37,2.07,2.07,0,0,1,1.8.77,3.78,3.78,0,0,1,.57,2.27V173H125v-4.76a2.84,2.84,0,0,0-.35-1.59,1.31,1.31,0,0,0-1.12-.49,2,2,0,0,0-1.08.31,6.73,6.73,0,0,0-1,.89V173Z"/><path class="cls-5" d="M131.43,176.58a5.91,5.91,0,0,1-1.31-.14,3.34,3.34,0,0,1-1-.4,2,2,0,0,1-.65-.66,1.74,1.74,0,0,1,.07-1.84,3.24,3.24,0,0,1,.83-.82v-.06a1.63,1.63,0,0,1-.49-.49,1.42,1.42,0,0,1-.2-.77,1.46,1.46,0,0,1,.28-.87,2.37,2.37,0,0,1,.57-.57v-.07a3.16,3.16,0,0,1-.69-.85,2.41,2.41,0,0,1-.32-1.24,2.74,2.74,0,0,1,.24-1.16,2.5,2.5,0,0,1,.63-.87,2.9,2.9,0,0,1,.93-.55,3.31,3.31,0,0,1,1.13-.19,3.64,3.64,0,0,1,.6.05,4.6,4.6,0,0,1,.51.14h2.7v1h-1.6a2.37,2.37,0,0,1,.46.69,2.24,2.24,0,0,1,.18.91,2.78,2.78,0,0,1-.22,1.13,2.6,2.6,0,0,1-.61.84,2.85,2.85,0,0,1-.91.54,3.08,3.08,0,0,1-1.11.19,2.44,2.44,0,0,1-.59-.07,3.06,3.06,0,0,1-.58-.2,2.57,2.57,0,0,0-.35.39,1,1,0,0,0-.14.54.75.75,0,0,0,.29.61,1.76,1.76,0,0,0,1.09.24h1.5a3.75,3.75,0,0,1,2,.44,1.55,1.55,0,0,1,.68,1.41,2.09,2.09,0,0,1-.27,1,2.67,2.67,0,0,1-.79.86,3.85,3.85,0,0,1-1.24.58A5.52,5.52,0,0,1,131.43,176.58Zm.19-.91a3.54,3.54,0,0,0,1-.14,3.12,3.12,0,0,0,.78-.35,1.55,1.55,0,0,0,.49-.5,1.13,1.13,0,0,0,.18-.6.77.77,0,0,0-.4-.75,2.6,2.6,0,0,0-1.17-.21h-1.34a4.18,4.18,0,0,1-.49,0,3,3,0,0,1-.52-.1,2,2,0,0,0-.61.64,1.29,1.29,0,0,0-.19.67,1.13,1.13,0,0,0,.6,1A3.2,3.2,0,0,0,131.62,175.67Zm-.19-6a1.45,1.45,0,0,0,.63-.13,1.47,1.47,0,0,0,.53-.36,1.54,1.54,0,0,0,.36-.59,2.11,2.11,0,0,0,.13-.77,1.79,1.79,0,0,0-.48-1.34,1.69,1.69,0,0,0-2.34,0,1.79,1.79,0,0,0-.48,1.34,2.34,2.34,0,0,0,.13.77,1.83,1.83,0,0,0,.36.59,1.56,1.56,0,0,0,.53.36A1.51,1.51,0,0,0,131.43,169.65Z"/><path class="cls-5" d="M143.23,173.19a3.93,3.93,0,0,1-1.47-.28,3.43,3.43,0,0,1-1.18-.8,3.65,3.65,0,0,1-.79-1.27,4.67,4.67,0,0,1-.29-1.72,4.88,4.88,0,0,1,.29-1.72,4,4,0,0,1,.79-1.28,3.12,3.12,0,0,1,1.11-.81A3.06,3.06,0,0,1,143,165a3.29,3.29,0,0,1,1.33.25,2.73,2.73,0,0,1,1,.74,3.4,3.4,0,0,1,.6,1.15,5.06,5.06,0,0,1,.21,1.51c0,.13,0,.27,0,.4a1.69,1.69,0,0,1,0,.35h-5.25a3,3,0,0,0,.78,2,2.38,2.38,0,0,0,1.82.73,2.89,2.89,0,0,0,1-.17,4.16,4.16,0,0,0,.9-.44l.47.87a7.55,7.55,0,0,1-1.14.56A4,4,0,0,1,143.23,173.19Zm-2.45-4.71h4.16a2.76,2.76,0,0,0-.51-1.8,1.7,1.7,0,0,0-1.41-.61,1.92,1.92,0,0,0-.79.16,1.85,1.85,0,0,0-.68.47,2.42,2.42,0,0,0-.51.76A3.47,3.47,0,0,0,140.78,168.48Z"/><path class="cls-5" d="M149.4,173.19a1.22,1.22,0,0,1-1.07-.45,2.28,2.28,0,0,1-.32-1.31V161.6h1.31v9.92a.7.7,0,0,0,.11.45.33.33,0,0,0,.26.13h.12l.17,0,.17,1a1.5,1.5,0,0,1-.3.1A2.81,2.81,0,0,1,149.4,173.19Z"/><path class="cls-5" d="M152.76,163.62a.93.93,0,0,1-.65-.24.8.8,0,0,1-.26-.61.79.79,0,0,1,.26-.61,1,1,0,0,1,1.3,0,.79.79,0,0,1,.26.61.8.8,0,0,1-.26.61A.93.93,0,0,1,152.76,163.62Zm-.67,9.38v-7.78h1.31V173Z"/><path class="cls-5" d="M158.47,173.19a2.74,2.74,0,0,1-1.05-.19,1.81,1.81,0,0,1-.68-.53,2.14,2.14,0,0,1-.38-.82,4.9,4.9,0,0,1-.11-1.05v-4.31H155.1v-1l1.21-.08.16-2.18h1.11v2.18h2.09v1.07h-2.09v4.32a1.94,1.94,0,0,0,.26,1.11,1,1,0,0,0,.94.4,1.9,1.9,0,0,0,.44-.07,3.81,3.81,0,0,0,.44-.14l.25,1c-.21.07-.44.14-.69.2A3.2,3.2,0,0,1,158.47,173.19Z"/><path class="cls-5" d="M161.31,175.72,161,175a2.66,2.66,0,0,0,1.08-.81,1.81,1.81,0,0,0,.37-1.14h-.16a1,1,0,0,1-.67-.23.83.83,0,0,1-.28-.68.85.85,0,0,1,.29-.68,1,1,0,0,1,.69-.25.92.92,0,0,1,.8.42,1.89,1.89,0,0,1,.3,1.13,3,3,0,0,1-.56,1.81A3.61,3.61,0,0,1,161.31,175.72Z"/><path class="cls-5" d="M170.76,173.19a4,4,0,0,1-1.58-.31,5,5,0,0,1-1.32-.76l.66-.88a5.46,5.46,0,0,0,1,.67,2.86,2.86,0,0,0,1.24.25,1.63,1.63,0,0,0,1.15-.35,1.1,1.1,0,0,0,.38-.86.88.88,0,0,0-.16-.53,1.49,1.49,0,0,0-.4-.39,3.81,3.81,0,0,0-.57-.3l-.64-.25c-.28-.1-.56-.21-.83-.33a3.11,3.11,0,0,1-.75-.45,2.24,2.24,0,0,1-.53-.62,1.59,1.59,0,0,1-.21-.84,2.2,2.2,0,0,1,.18-.88,2.13,2.13,0,0,1,.53-.7,2.43,2.43,0,0,1,.84-.46,3.25,3.25,0,0,1,1.12-.17,3.49,3.49,0,0,1,1.35.25,4.44,4.44,0,0,1,1.07.63l-.63.83a4.16,4.16,0,0,0-.83-.5,2.43,2.43,0,0,0-.94-.19,1.47,1.47,0,0,0-1.08.34,1,1,0,0,0-.35.78.75.75,0,0,0,.15.47,1.32,1.32,0,0,0,.38.36,3.13,3.13,0,0,0,.55.27l.65.25q.42.15.84.33a3.52,3.52,0,0,1,.76.44,2.16,2.16,0,0,1,.55.65,1.8,1.8,0,0,1,.22.93,2.19,2.19,0,0,1-.73,1.63,2.6,2.6,0,0,1-.9.5A3.51,3.51,0,0,1,170.76,173.19Z"/><path class="cls-5" d="M178.58,173.19a3.91,3.91,0,0,1-1.46-.28,3.43,3.43,0,0,1-1.18-.8,3.82,3.82,0,0,1-.8-1.27,4.89,4.89,0,0,1-.28-1.72,4.67,4.67,0,0,1,.29-1.72,4,4,0,0,1,.79-1.28,3.12,3.12,0,0,1,1.11-.81,3.06,3.06,0,0,1,1.29-.28,3.27,3.27,0,0,1,1.32.25,2.68,2.68,0,0,1,1,.74,3.4,3.4,0,0,1,.6,1.15,5.06,5.06,0,0,1,.21,1.51c0,.13,0,.27,0,.4a2.84,2.84,0,0,1,0,.35h-5.25a3,3,0,0,0,.78,2,2.37,2.37,0,0,0,1.81.73,2.91,2.91,0,0,0,1-.17,4.16,4.16,0,0,0,.9-.44l.46.87A7,7,0,0,1,180,173,4,4,0,0,1,178.58,173.19Zm-2.44-4.71h4.16a2.76,2.76,0,0,0-.51-1.8,1.72,1.72,0,0,0-1.41-.61,2,2,0,0,0-.8.16,2,2,0,0,0-.68.47,2.57,2.57,0,0,0-.5.76A3.47,3.47,0,0,0,176.14,168.48Z"/><path class="cls-5" d="M186,173.19a2.86,2.86,0,0,1-2.34-1.06,4.6,4.6,0,0,1-.87-3,4.81,4.81,0,0,1,.28-1.7,3.86,3.86,0,0,1,.74-1.29,3.33,3.33,0,0,1,1.07-.81,2.85,2.85,0,0,1,1.28-.29,2.66,2.66,0,0,1,1.17.24,5.53,5.53,0,0,1,1,.65l-.06-1.32v-3h1.32V173h-1.08l-.12-.92h0a5,5,0,0,1-1.07.78A2.63,2.63,0,0,1,186,173.19Zm.29-1.11a2.08,2.08,0,0,0,1-.26,3.79,3.79,0,0,0,1-.81V167a3.28,3.28,0,0,0-1-.63,2.31,2.31,0,0,0-.93-.19,1.76,1.76,0,0,0-.87.22,2.08,2.08,0,0,0-.72.61,3.14,3.14,0,0,0-.48.93,4.18,4.18,0,0,0-.17,1.22,3.66,3.66,0,0,0,.56,2.19A1.83,1.83,0,0,0,186.31,172.08Z"/><path class="cls-5" d="M198.1,173.19a2.86,2.86,0,0,1-2.34-1.06,4.6,4.6,0,0,1-.87-3,4.81,4.81,0,0,1,.28-1.7,3.86,3.86,0,0,1,.74-1.29,3.33,3.33,0,0,1,1.07-.81,2.85,2.85,0,0,1,1.28-.29,2.66,2.66,0,0,1,1.17.24,5.53,5.53,0,0,1,1,.65l-.06-1.32v-3h1.32V173h-1.08l-.12-.92h0a5,5,0,0,1-1.07.78A2.63,2.63,0,0,1,198.1,173.19Zm.29-1.11a2.08,2.08,0,0,0,1-.26,3.79,3.79,0,0,0,1-.81V167a3.28,3.28,0,0,0-1-.63,2.31,2.31,0,0,0-.93-.19,1.76,1.76,0,0,0-.87.22,2.08,2.08,0,0,0-.72.61,3.14,3.14,0,0,0-.48.93,4.18,4.18,0,0,0-.17,1.22,3.66,3.66,0,0,0,.56,2.19A1.83,1.83,0,0,0,198.39,172.08Z"/><path class="cls-5" d="M207.35,173.19a3.56,3.56,0,0,1-1.37-.27,3.47,3.47,0,0,1-1.14-.8,3.8,3.8,0,0,1-.79-1.28,5.11,5.11,0,0,1,0-3.45,4,4,0,0,1,.79-1.29,3.33,3.33,0,0,1,1.14-.8,3.56,3.56,0,0,1,1.37-.27,3.52,3.52,0,0,1,1.37.27,3.33,3.33,0,0,1,1.14.8,4,4,0,0,1,.8,1.29,5.28,5.28,0,0,1,0,3.45,3.82,3.82,0,0,1-.8,1.28,3.47,3.47,0,0,1-1.14.8A3.52,3.52,0,0,1,207.35,173.19Zm0-1.09a1.86,1.86,0,0,0,.91-.22,2.07,2.07,0,0,0,.72-.6,3,3,0,0,0,.45-.94,4.19,4.19,0,0,0,.16-1.22,4.29,4.29,0,0,0-.16-1.22,2.89,2.89,0,0,0-.45-1,2.13,2.13,0,0,0-.72-.62,2,2,0,0,0-.91-.21,2,2,0,0,0-.91.21,2.1,2.1,0,0,0-.71.62,2.9,2.9,0,0,0-.46,1,4.68,4.68,0,0,0-.16,1.22,4.56,4.56,0,0,0,.16,1.22,3.05,3.05,0,0,0,.46.94,2,2,0,0,0,.71.6A1.88,1.88,0,0,0,207.35,172.1Z"/><path class="cls-5" d="M219.35,173.19a3.91,3.91,0,0,1-1.46-.28,3.47,3.47,0,0,1-1.19-.8,3.8,3.8,0,0,1-.79-1.27,4.88,4.88,0,0,1-.29-1.72,4.67,4.67,0,0,1,.3-1.72,4.18,4.18,0,0,1,.78-1.28,3.3,3.3,0,0,1,1.11-.81,3.11,3.11,0,0,1,1.3-.28,3.27,3.27,0,0,1,1.32.25,2.68,2.68,0,0,1,1,.74,3.4,3.4,0,0,1,.6,1.15,5.06,5.06,0,0,1,.21,1.51c0,.13,0,.27,0,.4a2.84,2.84,0,0,1,0,.35h-5.25a3,3,0,0,0,.77,2,2.4,2.4,0,0,0,1.82.73,2.86,2.86,0,0,0,1-.17,4,4,0,0,0,.91-.44l.46.87a6.72,6.72,0,0,1-1.14.56A3.91,3.91,0,0,1,219.35,173.19Zm-2.45-4.71h4.16a2.76,2.76,0,0,0-.5-1.8,1.74,1.74,0,0,0-1.42-.61,2,2,0,0,0-.79.16,1.94,1.94,0,0,0-.68.47,2.57,2.57,0,0,0-.5.76A3.47,3.47,0,0,0,216.9,168.48Z"/><path class="cls-5" d="M224.81,163.62a.92.92,0,0,1-.65-.24.77.77,0,0,1-.26-.61.75.75,0,0,1,.26-.61,1,1,0,0,1,1.29,0,.76.76,0,0,1,.27.61.78.78,0,0,1-.27.61A.91.91,0,0,1,224.81,163.62Zm-.68,9.38v-7.78h1.32V173Z"/><path class="cls-5" d="M230.34,173.19a2.1,2.1,0,0,1-1.81-.77,3.78,3.78,0,0,1-.57-2.27v-4.93h1.33V170a2.8,2.8,0,0,0,.34,1.59,1.25,1.25,0,0,0,1.11.49,1.84,1.84,0,0,0,1.07-.31,5.21,5.21,0,0,0,1-1v-5.52h1.31V173h-1.09l-.11-1.22h0a4.87,4.87,0,0,1-1.14,1A2.54,2.54,0,0,1,230.34,173.19Z"/><path class="cls-5" d="M238.81,173.19a4.1,4.1,0,0,1-1.59-.31,4.79,4.79,0,0,1-1.31-.76l.66-.88a5.46,5.46,0,0,0,1.05.67,2.82,2.82,0,0,0,1.23.25,1.64,1.64,0,0,0,1.16-.35,1.13,1.13,0,0,0,.38-.86.88.88,0,0,0-.16-.53,1.53,1.53,0,0,0-.41-.39,3.26,3.26,0,0,0-.56-.3l-.64-.25q-.42-.15-.84-.33a3.25,3.25,0,0,1-.74-.45,2.28,2.28,0,0,1-.54-.62,1.58,1.58,0,0,1-.2-.84,2.2,2.2,0,0,1,.18-.88,2,2,0,0,1,.53-.7,2.43,2.43,0,0,1,.84-.46A3.25,3.25,0,0,1,239,165a3.49,3.49,0,0,1,1.35.25,4.37,4.37,0,0,1,1.06.63l-.62.83a4.47,4.47,0,0,0-.83-.5,2.48,2.48,0,0,0-1-.19,1.47,1.47,0,0,0-1.08.34,1,1,0,0,0-.34.78.82.82,0,0,0,.14.47,1.51,1.51,0,0,0,.39.36,3.13,3.13,0,0,0,.55.27l.65.25.84.33a3.77,3.77,0,0,1,.76.44,2.16,2.16,0,0,1,.55.65,1.91,1.91,0,0,1,.22.93,2.18,2.18,0,0,1-.19.89,2,2,0,0,1-.54.74,2.6,2.6,0,0,1-.9.5A3.55,3.55,0,0,1,238.81,173.19Z"/><path class="cls-5" d="M243.48,173v-7.78h1.09l.11,1.12h0a5.43,5.43,0,0,1,1.11-.94,2.39,2.39,0,0,1,1.3-.37,2.22,2.22,0,0,1,1.4.39,2.26,2.26,0,0,1,.75,1.1,6.27,6.27,0,0,1,1.22-1.08,2.32,2.32,0,0,1,1.34-.41,2.07,2.07,0,0,1,1.78.77,3.71,3.71,0,0,1,.58,2.27V173H252.9v-4.76a2.84,2.84,0,0,0-.35-1.59,1.26,1.26,0,0,0-1.09-.49,2.91,2.91,0,0,0-2,1.2V173H248.2v-4.76a2.84,2.84,0,0,0-.35-1.59,1.3,1.3,0,0,0-1.11-.49,2.91,2.91,0,0,0-2,1.2V173Z"/><path class="cls-5" d="M259.77,173.19a3.41,3.41,0,0,1-2.52-1.07,3.8,3.8,0,0,1-.79-1.28,5.28,5.28,0,0,1,0-3.45,4,4,0,0,1,.79-1.29,3.36,3.36,0,0,1,1.15-.8,3.52,3.52,0,0,1,1.37-.27,3.47,3.47,0,0,1,1.36.27,3.27,3.27,0,0,1,1.15.8,4,4,0,0,1,.79,1.29,5.11,5.11,0,0,1,0,3.45,3.8,3.8,0,0,1-.79,1.28,3.41,3.41,0,0,1-1.15.8A3.47,3.47,0,0,1,259.77,173.19Zm0-1.09a1.88,1.88,0,0,0,.91-.22,2,2,0,0,0,.71-.6,3.05,3.05,0,0,0,.46-.94,4.56,4.56,0,0,0,.16-1.22,4.68,4.68,0,0,0-.16-1.22,2.9,2.9,0,0,0-.46-1,2.1,2.1,0,0,0-.71-.62,2,2,0,0,0-.91-.21,2,2,0,0,0-.92.21,2.2,2.2,0,0,0-.71.62,2.7,2.7,0,0,0-.45,1,4.29,4.29,0,0,0-.16,1.22,4.19,4.19,0,0,0,.16,1.22,2.83,2.83,0,0,0,.45.94,2.13,2.13,0,0,0,.71.6A1.92,1.92,0,0,0,259.77,172.1Z"/><path class="cls-5" d="M268.07,173.19a2.86,2.86,0,0,1-2.34-1.06,4.6,4.6,0,0,1-.88-3,5,5,0,0,1,.28-1.7,4.06,4.06,0,0,1,.75-1.29,3.23,3.23,0,0,1,1.07-.81,2.82,2.82,0,0,1,1.28-.29,2.66,2.66,0,0,1,1.17.24,5.89,5.89,0,0,1,1,.65l-.07-1.32v-3h1.33V173h-1.09l-.11-.92h-.05a4.92,4.92,0,0,1-1.06.78A2.63,2.63,0,0,1,268.07,173.19Zm.29-1.11a2,2,0,0,0,1-.26,3.63,3.63,0,0,0,1-.81V167a3.25,3.25,0,0,0-.95-.63,2.36,2.36,0,0,0-.94-.19,1.79,1.79,0,0,0-.87.22,2.05,2.05,0,0,0-.71.61,3.14,3.14,0,0,0-.48.93,3.86,3.86,0,0,0-.18,1.22,3.73,3.73,0,0,0,.56,2.19A1.86,1.86,0,0,0,268.36,172.08Z"/><path class="cls-5" d="M279.94,173.19a2.74,2.74,0,0,1-1.05-.19,1.81,1.81,0,0,1-.68-.53,2,2,0,0,1-.38-.82,4.9,4.9,0,0,1-.11-1.05v-4.31h-1.15v-1l1.21-.08.16-2.18h1.11v2.18h2.09v1.07h-2.09v4.32a1.94,1.94,0,0,0,.26,1.11,1,1,0,0,0,.94.4,1.9,1.9,0,0,0,.44-.07,3.81,3.81,0,0,0,.44-.14l.25,1c-.21.07-.44.14-.69.2A3.2,3.2,0,0,1,279.94,173.19Z"/><path class="cls-5" d="M285.83,173.19a3.91,3.91,0,0,1-1.46-.28,3.47,3.47,0,0,1-1.19-.8,3.8,3.8,0,0,1-.79-1.27,4.88,4.88,0,0,1-.29-1.72,4.67,4.67,0,0,1,.3-1.72,4.18,4.18,0,0,1,.78-1.28,3.3,3.3,0,0,1,1.11-.81,3.11,3.11,0,0,1,1.3-.28,3.27,3.27,0,0,1,1.32.25,2.68,2.68,0,0,1,1,.74,3.4,3.4,0,0,1,.6,1.15,5.07,5.07,0,0,1,.2,1.51v.4a2.84,2.84,0,0,1,0,.35H283.4a3,3,0,0,0,.77,2,2.4,2.4,0,0,0,1.82.73,2.86,2.86,0,0,0,1-.17,4,4,0,0,0,.91-.44l.46.87a6.72,6.72,0,0,1-1.14.56A3.91,3.91,0,0,1,285.83,173.19Zm-2.45-4.71h4.16a2.82,2.82,0,0,0-.5-1.8,1.74,1.74,0,0,0-1.42-.61,2,2,0,0,0-.79.16,1.94,1.94,0,0,0-.68.47,2.57,2.57,0,0,0-.5.76A3.47,3.47,0,0,0,283.38,168.48Z"/><path class="cls-5" d="M290.61,173v-7.78h1.09l.11,1.12h.05a5.43,5.43,0,0,1,1.11-.94,2.43,2.43,0,0,1,1.31-.37,2.24,2.24,0,0,1,1.4.39,2.31,2.31,0,0,1,.74,1.1,6.61,6.61,0,0,1,1.23-1.08A2.29,2.29,0,0,1,299,165a2.09,2.09,0,0,1,1.79.77,3.71,3.71,0,0,1,.58,2.27V173H300v-4.76a2.84,2.84,0,0,0-.35-1.59,1.28,1.28,0,0,0-1.09-.49,2.87,2.87,0,0,0-2,1.2V173h-1.32v-4.76a2.75,2.75,0,0,0-.35-1.59,1.27,1.27,0,0,0-1.1-.49,2.87,2.87,0,0,0-1.95,1.2V173Z"/><path class="cls-5" d="M303.88,176.28V165.22H305l.11.9h.05a5.44,5.44,0,0,1,1.16-.77,2.8,2.8,0,0,1,1.32-.32,2.91,2.91,0,0,1,1.32.28,2.4,2.4,0,0,1,1,.8,3.81,3.81,0,0,1,.59,1.25,6.3,6.3,0,0,1,.2,1.64,5.29,5.29,0,0,1-.27,1.76,4.2,4.2,0,0,1-.74,1.32,3,3,0,0,1-2.35,1.11,2.64,2.64,0,0,1-1.08-.24,5.23,5.23,0,0,1-1.08-.66l0,1.36v2.63Zm3.21-4.2a1.91,1.91,0,0,0,.89-.21,2.29,2.29,0,0,0,.71-.61,3,3,0,0,0,.46-1,4.63,4.63,0,0,0,.17-1.29,6,6,0,0,0-.11-1.17,2.89,2.89,0,0,0-.36-.91,1.78,1.78,0,0,0-.64-.58,2,2,0,0,0-.94-.21,2.12,2.12,0,0,0-1,.27,5.65,5.65,0,0,0-1.08.79v4.08a3.37,3.37,0,0,0,1,.63A2.65,2.65,0,0,0,307.09,172.08Z"/><path class="cls-5" d="M315.78,173.19a3.56,3.56,0,0,1-1.37-.27,3.47,3.47,0,0,1-1.14-.8,3.8,3.8,0,0,1-.79-1.28,5.11,5.11,0,0,1,0-3.45,4,4,0,0,1,.79-1.29,3.33,3.33,0,0,1,1.14-.8,3.56,3.56,0,0,1,1.37-.27,3.52,3.52,0,0,1,1.37.27,3.33,3.33,0,0,1,1.14.8,4,4,0,0,1,.8,1.29,5.28,5.28,0,0,1,0,3.45,3.82,3.82,0,0,1-.8,1.28,3.47,3.47,0,0,1-1.14.8A3.52,3.52,0,0,1,315.78,173.19Zm0-1.09a1.86,1.86,0,0,0,.91-.22,2.07,2.07,0,0,0,.72-.6,3,3,0,0,0,.45-.94,4.19,4.19,0,0,0,.16-1.22,4.29,4.29,0,0,0-.16-1.22,2.89,2.89,0,0,0-.45-1,2.13,2.13,0,0,0-.72-.62,2,2,0,0,0-.91-.21,1.93,1.93,0,0,0-1.62.83,2.9,2.9,0,0,0-.46,1,4.68,4.68,0,0,0-.16,1.22,4.56,4.56,0,0,0,.16,1.22,3.05,3.05,0,0,0,.46.94,2,2,0,0,0,.71.6A1.88,1.88,0,0,0,315.78,172.1Z"/><path class="cls-5" d="M321.43,173v-7.78h1.09l.11,1.41h.05a3.54,3.54,0,0,1,1-1.17,2,2,0,0,1,1.24-.43,2,2,0,0,1,.83.16l-.26,1.15-.35-.1a2.25,2.25,0,0,0-.4,0,1.77,1.77,0,0,0-1,.4,3.21,3.21,0,0,0-.94,1.39v5Z"/><path class="cls-5" d="M69.1,187.62a.93.93,0,0,1-.65-.24.77.77,0,0,1-.26-.61.75.75,0,0,1,.26-.61.93.93,0,0,1,.65-.24,1,1,0,0,1,.65.24.79.79,0,0,1,.26.61.8.8,0,0,1-.26.61A1,1,0,0,1,69.1,187.62ZM68.43,197v-7.78h1.31V197Z"/><path class="cls-5" d="M72.36,197v-7.78h1.09l.11,1.12h0a6.09,6.09,0,0,1,1.18-.94,2.67,2.67,0,0,1,1.43-.37,2.07,2.07,0,0,1,1.8.77,3.78,3.78,0,0,1,.57,2.27V197H77.27v-4.76a2.75,2.75,0,0,0-.35-1.59,1.3,1.3,0,0,0-1.12-.49,1.94,1.94,0,0,0-1.07.31,7.22,7.22,0,0,0-1.06.89V197Z"/><path class="cls-5" d="M84.19,197.19a3.77,3.77,0,0,1-1.44-.27,3.26,3.26,0,0,1-1.16-.8,3.48,3.48,0,0,1-.77-1.28,4.85,4.85,0,0,1-.28-1.72,4.65,4.65,0,0,1,.3-1.73,3.85,3.85,0,0,1,.82-1.29,3.42,3.42,0,0,1,1.19-.8,3.83,3.83,0,0,1,1.43-.27,2.91,2.91,0,0,1,1.31.27,3.92,3.92,0,0,1,1,.64l-.67.86a3.34,3.34,0,0,0-.71-.49,1.79,1.79,0,0,0-.84-.19,2.3,2.3,0,0,0-1,.21,2.17,2.17,0,0,0-.76.62,2.79,2.79,0,0,0-.51,1,4,4,0,0,0-.18,1.22,4.18,4.18,0,0,0,.17,1.22,3.11,3.11,0,0,0,.49.94,2.11,2.11,0,0,0,.76.6,2.14,2.14,0,0,0,1,.22,2.26,2.26,0,0,0,1-.23,4.35,4.35,0,0,0,.82-.55l.58.88a4.15,4.15,0,0,1-1.17.72A3.45,3.45,0,0,1,84.19,197.19Z"/><path class="cls-5" d="M89.08,187.62a.93.93,0,0,1-.65-.24.8.8,0,0,1-.26-.61.79.79,0,0,1,.26-.61,1,1,0,0,1,1.3,0,.79.79,0,0,1,.26.61.8.8,0,0,1-.26.61A.93.93,0,0,1,89.08,187.62ZM88.41,197v-7.78h1.31V197Z"/><path class="cls-5" d="M95,197.19a2.86,2.86,0,0,1-2.34-1.06,4.6,4.6,0,0,1-.88-3,5,5,0,0,1,.28-1.7,4.06,4.06,0,0,1,.75-1.29,3.33,3.33,0,0,1,1.07-.81,2.85,2.85,0,0,1,1.28-.29,2.66,2.66,0,0,1,1.17.24,5.53,5.53,0,0,1,1,.65l-.07-1.32v-3H98.6V197H97.51l-.11-.92h-.05a4.92,4.92,0,0,1-1.06.78A2.63,2.63,0,0,1,95,197.19Zm.29-1.11a2,2,0,0,0,1-.26,3.63,3.63,0,0,0,1-.81V191a3.25,3.25,0,0,0-1-.63,2.36,2.36,0,0,0-.94-.19,1.79,1.79,0,0,0-.87.22,2.05,2.05,0,0,0-.71.61,3.14,3.14,0,0,0-.48.93,3.87,3.87,0,0,0-.17,1.22,3.73,3.73,0,0,0,.55,2.19A1.86,1.86,0,0,0,95.29,196.08Z"/><path class="cls-5" d="M101.9,187.62a.92.92,0,0,1-.65-.24.78.78,0,0,1-.27-.61.76.76,0,0,1,.27-.61,1,1,0,0,1,1.29,0,.76.76,0,0,1,.27.61.78.78,0,0,1-.27.61A.91.91,0,0,1,101.9,187.62Zm-.68,9.38v-7.78h1.32V197Z"/><path class="cls-5" d="M107.82,197.19a2.87,2.87,0,0,1-2.35-1.06,4.6,4.6,0,0,1-.87-3,4.81,4.81,0,0,1,.28-1.7,4,4,0,0,1,.74-1.29,3.27,3.27,0,0,1,1.08-.81A2.82,2.82,0,0,1,108,189a2.64,2.64,0,0,1,1.16.24,5.21,5.21,0,0,1,1,.65l-.06-1.32v-3h1.33V197h-1.09l-.11-.92h0a5,5,0,0,1-1.07.78A2.62,2.62,0,0,1,107.82,197.19Zm.28-1.11a2,2,0,0,0,1-.26,3.63,3.63,0,0,0,1-.81V191a3.25,3.25,0,0,0-1-.63,2.39,2.39,0,0,0-.94-.19,1.76,1.76,0,0,0-.87.22,2.05,2.05,0,0,0-.71.61,2.73,2.73,0,0,0-.48.93,3.86,3.86,0,0,0-.18,1.22,3.73,3.73,0,0,0,.56,2.19A1.83,1.83,0,0,0,108.1,196.08Z"/><path class="cls-5" d="M116.31,197.19a2.1,2.1,0,0,1-1.81-.77,3.78,3.78,0,0,1-.57-2.27v-4.93h1.33V194a2.8,2.8,0,0,0,.34,1.59,1.25,1.25,0,0,0,1.11.49,1.84,1.84,0,0,0,1.07-.31,5.21,5.21,0,0,0,1-1v-5.52h1.31V197H119l-.11-1.22h0a4.87,4.87,0,0,1-1.14,1A2.54,2.54,0,0,1,116.31,197.19Z"/><path class="cls-5" d="M122.74,197v-7.78h1.09l.11,1.12h0a6.76,6.76,0,0,1,1.18-.94,2.7,2.7,0,0,1,1.43-.37,2.07,2.07,0,0,1,1.8.77,3.78,3.78,0,0,1,.57,2.27V197h-1.31v-4.76a2.75,2.75,0,0,0-.36-1.59,1.29,1.29,0,0,0-1.12-.49,1.94,1.94,0,0,0-1.07.31,6.73,6.73,0,0,0-1,.89V197Z"/><path class="cls-5" d="M133.94,197.19a2.65,2.65,0,0,1-1-.19,1.77,1.77,0,0,1-.69-.53,2.14,2.14,0,0,1-.38-.82,4.9,4.9,0,0,1-.11-1.05v-4.31h-1.15v-1l1.21-.08.16-2.18h1.11v2.18h2.09v1.07h-2.09v4.32a2,2,0,0,0,.26,1.11,1,1,0,0,0,.94.4,1.9,1.9,0,0,0,.45-.07,3.62,3.62,0,0,0,.43-.14l.25,1c-.21.07-.44.14-.69.2A3.2,3.2,0,0,1,133.94,197.19Z"/><path class="cls-5" d="M142.38,197.19a2.11,2.11,0,0,1-1.82-.77,3.78,3.78,0,0,1-.57-2.27v-4.93h1.33V194a2.89,2.89,0,0,0,.34,1.59,1.26,1.26,0,0,0,1.12.49,1.87,1.87,0,0,0,1.07-.31,4.94,4.94,0,0,0,1-1v-5.52h1.31V197H145.1l-.12-1.22h0a5.11,5.11,0,0,1-1.15,1A2.53,2.53,0,0,1,142.38,197.19Z"/><path class="cls-5" d="M151.26,197.19a2.66,2.66,0,0,1-1-.19,1.93,1.93,0,0,1-.69-.53,2,2,0,0,1-.37-.82,4.32,4.32,0,0,1-.12-1.05v-4.31h-1.15v-1l1.22-.08.16-2.18h1.1v2.18h2.1v1.07h-2.1v4.32a2,2,0,0,0,.26,1.11,1,1,0,0,0,.94.4,1.9,1.9,0,0,0,.45-.07,3.62,3.62,0,0,0,.43-.14l.26,1c-.22.07-.45.14-.7.2A3.18,3.18,0,0,1,151.26,197.19Z"/><path class="cls-5" d="M158.81,197.19a1.22,1.22,0,0,1-1.07-.45,2.21,2.21,0,0,1-.32-1.31V185.6h1.31v9.92a.7.7,0,0,0,.11.45.33.33,0,0,0,.26.13h.12l.17,0,.17,1a1.75,1.75,0,0,1-.3.1A2.81,2.81,0,0,1,158.81,197.19Z"/><path class="cls-5" d="M163.29,197.19a2.32,2.32,0,0,1-1.62-.58A2,2,0,0,1,161,195a2.17,2.17,0,0,1,1.13-2,9.45,9.45,0,0,1,3.63-1,3.38,3.38,0,0,0-.07-.72,1.84,1.84,0,0,0-.24-.63,1.4,1.4,0,0,0-.49-.44,1.68,1.68,0,0,0-.79-.16,3.2,3.2,0,0,0-1.27.25,5.93,5.93,0,0,0-1.06.58l-.51-.91a7.82,7.82,0,0,1,1.33-.68,4.41,4.41,0,0,1,1.73-.33,2.37,2.37,0,0,1,2.06.87,3.83,3.83,0,0,1,.64,2.33V197H166l-.11-.93h0a6.65,6.65,0,0,1-1.19.79A3,3,0,0,1,163.29,197.19Zm.38-1.06a2.28,2.28,0,0,0,1.06-.26,5.44,5.44,0,0,0,1.05-.78v-2.16a13.26,13.26,0,0,0-1.63.31,4.14,4.14,0,0,0-1.08.41,1.66,1.66,0,0,0-.59.55,1.36,1.36,0,0,0-.18.68,1.09,1.09,0,0,0,.4,1A1.55,1.55,0,0,0,163.67,196.13Z"/><path class="cls-5" d="M173,197.19a2.7,2.7,0,0,1-1.13-.27,4.21,4.21,0,0,1-1.09-.72h-.05l-.11.8h-1.06V185.6h1.31v3.11l0,1.41a5.55,5.55,0,0,1,1.15-.78,2.84,2.84,0,0,1,1.28-.31,3,3,0,0,1,1.33.28,2.58,2.58,0,0,1,1,.8,3.62,3.62,0,0,1,.59,1.25,6.19,6.19,0,0,1,.2,1.62,5.5,5.5,0,0,1-.27,1.78,4,4,0,0,1-.74,1.32,3,3,0,0,1-1.07.83A3.1,3.1,0,0,1,173,197.19Zm-.22-1.11a1.87,1.87,0,0,0,.88-.21,2.18,2.18,0,0,0,.71-.61,2.82,2.82,0,0,0,.46-1A4.63,4.63,0,0,0,175,193a6,6,0,0,0-.11-1.17,2.89,2.89,0,0,0-.36-.91,1.78,1.78,0,0,0-.64-.58,2,2,0,0,0-.94-.21,3.22,3.22,0,0,0-2.08,1.06v4.08a3.15,3.15,0,0,0,1,.63A2.65,2.65,0,0,0,172.78,196.08Z"/><path class="cls-5" d="M181.43,197.19a3.56,3.56,0,0,1-1.37-.27,3.47,3.47,0,0,1-1.14-.8,3.8,3.8,0,0,1-.79-1.28,5.11,5.11,0,0,1,0-3.45,4,4,0,0,1,.79-1.29,3.33,3.33,0,0,1,1.14-.8,3.56,3.56,0,0,1,1.37-.27,3.52,3.52,0,0,1,1.37.27,3.33,3.33,0,0,1,1.14.8,4,4,0,0,1,.8,1.29,5.28,5.28,0,0,1,0,3.45,3.82,3.82,0,0,1-.8,1.28,3.47,3.47,0,0,1-1.14.8A3.52,3.52,0,0,1,181.43,197.19Zm0-1.09a1.86,1.86,0,0,0,.91-.22,2.07,2.07,0,0,0,.72-.6,3,3,0,0,0,.45-.94,4.19,4.19,0,0,0,.16-1.22,4.29,4.29,0,0,0-.16-1.22,2.89,2.89,0,0,0-.45-1,2.13,2.13,0,0,0-.72-.62,2,2,0,0,0-.91-.21,2,2,0,0,0-.91.21,2.1,2.1,0,0,0-.71.62,2.9,2.9,0,0,0-.46,1,4.68,4.68,0,0,0-.16,1.22,4.56,4.56,0,0,0,.16,1.22,3.05,3.05,0,0,0,.46.94,2,2,0,0,0,.71.6A1.88,1.88,0,0,0,181.43,196.1Z"/><path class="cls-5" d="M187.08,197v-7.78h1.09l.11,1.41h.05a3.54,3.54,0,0,1,1-1.17,2,2,0,0,1,1.24-.43,2,2,0,0,1,.83.16l-.26,1.15-.35-.1a2.25,2.25,0,0,0-.4,0,1.79,1.79,0,0,0-1,.4,3.21,3.21,0,0,0-.94,1.39v5Z"/><path class="cls-5" d="M195.62,197.19a3.91,3.91,0,0,1-1.46-.28,3.43,3.43,0,0,1-1.18-.8,3.82,3.82,0,0,1-.8-1.27,4.89,4.89,0,0,1-.28-1.72,4.67,4.67,0,0,1,.29-1.72,4,4,0,0,1,.79-1.28,3.12,3.12,0,0,1,1.11-.81,3.06,3.06,0,0,1,1.29-.28,3.27,3.27,0,0,1,1.32.25,2.68,2.68,0,0,1,1,.74,3.4,3.4,0,0,1,.6,1.15,5.06,5.06,0,0,1,.21,1.51c0,.13,0,.27,0,.4a2.84,2.84,0,0,1,0,.35h-5.25a3,3,0,0,0,.78,2,2.37,2.37,0,0,0,1.81.73,2.91,2.91,0,0,0,1-.17,4.16,4.16,0,0,0,.9-.44l.46.87a7,7,0,0,1-1.13.56A4,4,0,0,1,195.62,197.19Zm-2.44-4.71h4.16a2.76,2.76,0,0,0-.51-1.8,1.72,1.72,0,0,0-1.41-.61,2,2,0,0,0-.8.16,2,2,0,0,0-.68.47,2.57,2.57,0,0,0-.5.76A3.47,3.47,0,0,0,193.18,192.48Z"/><path class="cls-5" d="M206.76,197.19a3.91,3.91,0,0,1-1.46-.28,3.47,3.47,0,0,1-1.19-.8,3.8,3.8,0,0,1-.79-1.27,4.88,4.88,0,0,1-.29-1.72,4.67,4.67,0,0,1,.3-1.72,4,4,0,0,1,.78-1.28,3.3,3.3,0,0,1,1.11-.81,3.11,3.11,0,0,1,1.3-.28,3.27,3.27,0,0,1,1.32.25,2.64,2.64,0,0,1,1,.74,3.24,3.24,0,0,1,.61,1.15,5.41,5.41,0,0,1,.2,1.51v.4a2.84,2.84,0,0,1,0,.35h-5.25a3,3,0,0,0,.77,2,2.4,2.4,0,0,0,1.82.73,2.86,2.86,0,0,0,1-.17,3.76,3.76,0,0,0,.9-.44l.47.87a6.72,6.72,0,0,1-1.14.56A3.91,3.91,0,0,1,206.76,197.19Zm-2.45-4.71h4.16a2.82,2.82,0,0,0-.5-1.8,1.74,1.74,0,0,0-1.42-.61,2,2,0,0,0-1.47.63,2.57,2.57,0,0,0-.5.76A3.19,3.19,0,0,0,204.31,192.48Z"/><path class="cls-5" d="M213.83,197.19a2.66,2.66,0,0,1-1.05-.19,1.81,1.81,0,0,1-.68-.53,2,2,0,0,1-.38-.82,4.34,4.34,0,0,1-.11-1.05v-4.31h-1.16v-1l1.22-.08.16-2.18h1.11v2.18H215v1.07h-2.09v4.32a1.94,1.94,0,0,0,.26,1.11,1,1,0,0,0,.94.4,1.9,1.9,0,0,0,.44-.07,3.81,3.81,0,0,0,.44-.14l.25,1c-.21.07-.44.14-.7.2A3.12,3.12,0,0,1,213.83,197.19Z"/><path class="cls-5" d="M222.65,197.19a2.89,2.89,0,0,1-2.35-1.06,4.6,4.6,0,0,1-.87-3,5,5,0,0,1,.28-1.7,4.06,4.06,0,0,1,.75-1.29,3.23,3.23,0,0,1,1.07-.81,2.82,2.82,0,0,1,1.28-.29,2.66,2.66,0,0,1,1.17.24,5.47,5.47,0,0,1,1,.65l-.06-1.32v-3h1.33V197h-1.09l-.11-.92H225a4.92,4.92,0,0,1-1.06.78A2.63,2.63,0,0,1,222.65,197.19Zm.29-1.11a2,2,0,0,0,1-.26,3.63,3.63,0,0,0,1-.81V191a3.25,3.25,0,0,0-.95-.63,2.39,2.39,0,0,0-.94-.19,1.76,1.76,0,0,0-.87.22,2.05,2.05,0,0,0-.71.61,3.14,3.14,0,0,0-.48.93,3.86,3.86,0,0,0-.18,1.22,3.73,3.73,0,0,0,.56,2.19A1.85,1.85,0,0,0,222.94,196.08Z"/><path class="cls-5" d="M231.9,197.19a3.41,3.41,0,0,1-2.52-1.07,3.8,3.8,0,0,1-.79-1.28,5.28,5.28,0,0,1,0-3.45,4,4,0,0,1,.79-1.29,3.36,3.36,0,0,1,1.15-.8,3.52,3.52,0,0,1,1.37-.27,3.47,3.47,0,0,1,1.36.27,3.36,3.36,0,0,1,1.15.8,4,4,0,0,1,.79,1.29,5.28,5.28,0,0,1,0,3.45,3.8,3.8,0,0,1-.79,1.28,3.41,3.41,0,0,1-2.51,1.07Zm0-1.09a1.88,1.88,0,0,0,.91-.22,2.13,2.13,0,0,0,.71-.6,3.05,3.05,0,0,0,.46-.94,4.56,4.56,0,0,0,.16-1.22,4.68,4.68,0,0,0-.16-1.22,2.9,2.9,0,0,0-.46-1,2.2,2.2,0,0,0-.71-.62,2.1,2.1,0,0,0-1.83,0,2.2,2.2,0,0,0-.71.62,2.9,2.9,0,0,0-.46,1,4.68,4.68,0,0,0-.16,1.22,4.56,4.56,0,0,0,.16,1.22,3.05,3.05,0,0,0,.46.94,2.13,2.13,0,0,0,.71.6A1.9,1.9,0,0,0,231.9,196.1Z"/><path class="cls-5" d="M238.94,197.19a1.24,1.24,0,0,1-1.08-.45,2.28,2.28,0,0,1-.32-1.31V185.6h1.31v9.92a.64.64,0,0,0,.12.45.31.31,0,0,0,.25.13h.12l.17,0,.18,1a1.89,1.89,0,0,1-.31.1A2.59,2.59,0,0,1,238.94,197.19Z"/><path class="cls-5" d="M244.65,197.19a3.52,3.52,0,0,1-1.37-.27,3.47,3.47,0,0,1-1.14-.8,3.67,3.67,0,0,1-.8-1.28,5.28,5.28,0,0,1,0-3.45,3.81,3.81,0,0,1,.8-1.29,3.33,3.33,0,0,1,1.14-.8,3.52,3.52,0,0,1,1.37-.27,3.56,3.56,0,0,1,1.37.27,3.33,3.33,0,0,1,1.14.8,4,4,0,0,1,.79,1.29,5.11,5.11,0,0,1,0,3.45,3.8,3.8,0,0,1-.79,1.28,3.47,3.47,0,0,1-1.14.8A3.56,3.56,0,0,1,244.65,197.19Zm0-1.09a1.88,1.88,0,0,0,.91-.22,2,2,0,0,0,.71-.6,3.05,3.05,0,0,0,.46-.94,4.56,4.56,0,0,0,.16-1.22,4.68,4.68,0,0,0-.16-1.22,2.9,2.9,0,0,0-.46-1,2.1,2.1,0,0,0-.71-.62,2,2,0,0,0-.91-.21,2,2,0,0,0-.92.21,2.2,2.2,0,0,0-.71.62,2.89,2.89,0,0,0-.45,1,4.29,4.29,0,0,0-.16,1.22,4.19,4.19,0,0,0,.16,1.22,3,3,0,0,0,.45.94,2.13,2.13,0,0,0,.71.6A1.92,1.92,0,0,0,244.65,196.1Z"/><path class="cls-5" d="M250.29,197v-7.78h1.09l.11,1.41h0a3.66,3.66,0,0,1,1-1.17,2.09,2.09,0,0,1,2.07-.27l-.25,1.15-.35-.1a2.37,2.37,0,0,0-.41,0,1.79,1.79,0,0,0-1,.4,3.2,3.2,0,0,0-.93,1.39v5Z"/><path class="cls-5" d="M258.84,197.19a3.91,3.91,0,0,1-1.46-.28,3.47,3.47,0,0,1-1.19-.8,3.8,3.8,0,0,1-.79-1.27,4.88,4.88,0,0,1-.29-1.72,4.67,4.67,0,0,1,.3-1.72,4,4,0,0,1,.78-1.28,3.3,3.3,0,0,1,1.11-.81,3.11,3.11,0,0,1,1.3-.28,3.27,3.27,0,0,1,1.32.25,2.77,2.77,0,0,1,1,.74,3.4,3.4,0,0,1,.6,1.15,5.41,5.41,0,0,1,.2,1.51v.4a2.84,2.84,0,0,1,0,.35h-5.25a3,3,0,0,0,.77,2,2.4,2.4,0,0,0,1.82.73,2.86,2.86,0,0,0,1-.17,4,4,0,0,0,.91-.44l.46.87a6.72,6.72,0,0,1-1.14.56A3.91,3.91,0,0,1,258.84,197.19Zm-2.45-4.71h4.16a2.82,2.82,0,0,0-.5-1.8,1.74,1.74,0,0,0-1.42-.61,2,2,0,0,0-1.47.63,2.57,2.57,0,0,0-.5.76A3.19,3.19,0,0,0,256.39,192.48Z"/><path class="cls-5" d="M266.82,197v-7.78h1.09l.11,1.12h.05a5.43,5.43,0,0,1,1.11-.94,2.43,2.43,0,0,1,1.31-.37,2.26,2.26,0,0,1,1.4.39,2.31,2.31,0,0,1,.74,1.1,6.57,6.57,0,0,1,1.22-1.08,2.35,2.35,0,0,1,1.34-.41,2.09,2.09,0,0,1,1.79.77,3.78,3.78,0,0,1,.58,2.27V197h-1.31v-4.76a2.84,2.84,0,0,0-.35-1.59,1.28,1.28,0,0,0-1.09-.49,2.9,2.9,0,0,0-2,1.2V197h-1.31v-4.76a2.75,2.75,0,0,0-.35-1.59,1.27,1.27,0,0,0-1.1-.49,2.87,2.87,0,0,0-1.95,1.2V197Z"/><path class="cls-5" d="M281.88,197.19a2.32,2.32,0,0,1-1.62-.58,2,2,0,0,1-.65-1.63,2.17,2.17,0,0,1,1.13-2,9.45,9.45,0,0,1,3.63-1,3.38,3.38,0,0,0-.07-.72,1.84,1.84,0,0,0-.24-.63,1.49,1.49,0,0,0-.49-.44,1.7,1.7,0,0,0-.8-.16,3.18,3.18,0,0,0-1.26.25,5.93,5.93,0,0,0-1.06.58l-.51-.91a7.82,7.82,0,0,1,1.33-.68A4.41,4.41,0,0,1,283,189a2.37,2.37,0,0,1,2.06.87,3.83,3.83,0,0,1,.64,2.33V197h-1.09l-.11-.93h-.05a6.65,6.65,0,0,1-1.19.79A3,3,0,0,1,281.88,197.19Zm.38-1.06a2.28,2.28,0,0,0,1.06-.26,5.44,5.44,0,0,0,1.05-.78v-2.16a13.85,13.85,0,0,0-1.64.31,4.2,4.2,0,0,0-1.07.41,1.66,1.66,0,0,0-.59.55,1.36,1.36,0,0,0-.18.68,1.09,1.09,0,0,0,.4,1A1.55,1.55,0,0,0,282.26,196.13Z"/><path class="cls-5" d="M290.77,200.58a6,6,0,0,1-1.31-.14,3.18,3.18,0,0,1-1-.4,2.08,2.08,0,0,1-.66-.66,1.74,1.74,0,0,1-.23-.9,1.66,1.66,0,0,1,.3-.94,3.29,3.29,0,0,1,.84-.82v-.06a1.44,1.44,0,0,1-.49-.49,1.34,1.34,0,0,1-.2-.77,1.45,1.45,0,0,1,.27-.87,2.37,2.37,0,0,1,.57-.57v-.07a3.36,3.36,0,0,1-.69-.85,2.4,2.4,0,0,1-.31-1.24,2.73,2.73,0,0,1,.23-1.16,2.5,2.5,0,0,1,.63-.87,2.84,2.84,0,0,1,.94-.55,3.21,3.21,0,0,1,1.12-.19,3.86,3.86,0,0,1,.61.05,5.07,5.07,0,0,1,.5.14h2.7v1H293a2.19,2.19,0,0,1,.46.69,2.24,2.24,0,0,1,.18.91,2.78,2.78,0,0,1-.22,1.13,2.46,2.46,0,0,1-.61.84,2.8,2.8,0,0,1-.9.54,3.18,3.18,0,0,1-1.12.19,2.49,2.49,0,0,1-.59-.07,2.75,2.75,0,0,1-.57-.2,1.82,1.82,0,0,0-.35.39.93.93,0,0,0-.15.54.78.78,0,0,0,.29.61,1.76,1.76,0,0,0,1.09.24H292a3.72,3.72,0,0,1,2,.44,1.55,1.55,0,0,1,.68,1.41,2.09,2.09,0,0,1-.27,1,2.64,2.64,0,0,1-.78.86,4.06,4.06,0,0,1-1.24.58A5.63,5.63,0,0,1,290.77,200.58Zm.2-.91a3.52,3.52,0,0,0,1-.14,2.82,2.82,0,0,0,.78-.35,1.7,1.7,0,0,0,.5-.5,1.21,1.21,0,0,0,.17-.6.77.77,0,0,0-.4-.75,2.57,2.57,0,0,0-1.17-.21h-1.34a4.27,4.27,0,0,1-.49,0,3,3,0,0,1-.52-.1,2,2,0,0,0-.61.64,1.29,1.29,0,0,0-.19.67,1.13,1.13,0,0,0,.6,1A3.21,3.21,0,0,0,291,199.67Zm-.2-6a1.53,1.53,0,0,0,.64-.13,1.66,1.66,0,0,0,.53-.36,1.83,1.83,0,0,0,.36-.59,2.35,2.35,0,0,0,.12-.77,1.79,1.79,0,0,0-.48-1.34,1.68,1.68,0,0,0-2.33,0,1.79,1.79,0,0,0-.48,1.34,2.11,2.11,0,0,0,.13.77,1.54,1.54,0,0,0,.36.59,1.6,1.6,0,0,0,1.15.49Z"/><path class="cls-5" d="M296.22,197v-7.78h1.08l.12,1.12h0a6.76,6.76,0,0,1,1.18-.94,2.7,2.7,0,0,1,1.43-.37,2.07,2.07,0,0,1,1.8.77,3.78,3.78,0,0,1,.57,2.27V197h-1.31v-4.76a2.84,2.84,0,0,0-.35-1.59,1.31,1.31,0,0,0-1.12-.49,2,2,0,0,0-1.08.31,6.73,6.73,0,0,0-1.05.89V197Z"/><path class="cls-5" d="M306.76,197.19a2.32,2.32,0,0,1-1.62-.58,2,2,0,0,1-.65-1.63,2.17,2.17,0,0,1,1.13-2,9.45,9.45,0,0,1,3.64-1,3.38,3.38,0,0,0-.08-.72,1.84,1.84,0,0,0-.24-.63,1.4,1.4,0,0,0-.49-.44,1.68,1.68,0,0,0-.79-.16,3.2,3.2,0,0,0-1.27.25,5.83,5.83,0,0,0-1.05.58l-.52-.91a7.82,7.82,0,0,1,1.33-.68,4.41,4.41,0,0,1,1.73-.33,2.37,2.37,0,0,1,2.06.87,3.83,3.83,0,0,1,.64,2.33V197H309.5l-.12-.93h0a7.1,7.1,0,0,1-1.2.79A3,3,0,0,1,306.76,197.19Zm.38-1.06a2.28,2.28,0,0,0,1.06-.26,5.8,5.8,0,0,0,1.06-.78v-2.16a13.1,13.1,0,0,0-1.64.31,4.14,4.14,0,0,0-1.08.41,1.66,1.66,0,0,0-.59.55,1.36,1.36,0,0,0-.18.68,1.09,1.09,0,0,0,.4,1A1.55,1.55,0,0,0,307.14,196.13Z"/><path class="cls-5" d="M313.72,197.19a1,1,0,0,1-.68-.28,1,1,0,0,1-.28-.71,1,1,0,0,1,.28-.75,1,1,0,0,1,.68-.28.91.91,0,0,1,.66.28,1,1,0,0,1,.28.75,1,1,0,0,1-.28.71A.91.91,0,0,1,313.72,197.19Z"/><path d="M73.64,108.82a7.62,7.62,0,0,1-5.52-2.33l1.2-1.39a6.61,6.61,0,0,0,2,1.43,5.47,5.47,0,0,0,2.37.54,3.73,3.73,0,0,0,2.42-.71,2.52,2.52,0,0,0,.66-2.88,2.3,2.3,0,0,0-.55-.72,4,4,0,0,0-.83-.54l-1-.51-2.26-1a10.12,10.12,0,0,1-1.13-.58,4.72,4.72,0,0,1-1-.81,3.93,3.93,0,0,1-.74-1.14,3.83,3.83,0,0,1-.29-1.53A3.69,3.69,0,0,1,69.26,95a4,4,0,0,1,1-1.33,4.76,4.76,0,0,1,1.56-.88,6,6,0,0,1,2-.31,6.3,6.3,0,0,1,2.62.54,6.66,6.66,0,0,1,2,1.4l-1.08,1.3a5.35,5.35,0,0,0-1.6-1.09,4.64,4.64,0,0,0-2-.4,3.4,3.4,0,0,0-2.12.61,2,2,0,0,0-.8,1.69,2,2,0,0,0,.22,1,2.53,2.53,0,0,0,.62.69,4.44,4.44,0,0,0,.84.53q.45.23.93.42l2.23,1a9.08,9.08,0,0,1,1.28.66,4.85,4.85,0,0,1,1,.86,3.82,3.82,0,0,1,.68,1.16,4.18,4.18,0,0,1,.25,1.52,4.15,4.15,0,0,1-1.44,3.18,4.93,4.93,0,0,1-1.68,1A6.69,6.69,0,0,1,73.64,108.82Z"/><path d="M85.31,108.82a3.2,3.2,0,0,1-2.73-1.15,5.7,5.7,0,0,1-.85-3.41V96.87h2V104a4.19,4.19,0,0,0,.52,2.39,1.89,1.89,0,0,0,1.67.73,2.81,2.81,0,0,0,1.6-.46,7.84,7.84,0,0,0,1.54-1.5V96.87h2v11.66H89.39l-.17-1.82h-.07a7.79,7.79,0,0,1-1.72,1.53A3.81,3.81,0,0,1,85.31,108.82Z"/><path d="M100.11,108.82a4,4,0,0,1-1.69-.4,6.33,6.33,0,0,1-1.64-1.09h-.07l-.17,1.2H95V91.44h2V96.1l0,2.11a8.31,8.31,0,0,1,1.73-1.16,4.18,4.18,0,0,1,1.92-.47,4.48,4.48,0,0,1,2,.42A4,4,0,0,1,104,98.2a5.49,5.49,0,0,1,.88,1.87,9.21,9.21,0,0,1,.3,2.44,8.13,8.13,0,0,1-.4,2.66,6.16,6.16,0,0,1-1.11,2A4.56,4.56,0,0,1,102,108.4,4.48,4.48,0,0,1,100.11,108.82Zm-.33-1.66a2.87,2.87,0,0,0,1.33-.32,3.28,3.28,0,0,0,1.06-.91,4.71,4.71,0,0,0,.69-1.46,6.81,6.81,0,0,0,.25-1.94,8.62,8.62,0,0,0-.16-1.75,4.3,4.3,0,0,0-.54-1.36,2.58,2.58,0,0,0-1-.87,3,3,0,0,0-1.41-.32,4.86,4.86,0,0,0-3.12,1.59v6.12a4.92,4.92,0,0,0,1.53,1A4,4,0,0,0,99.78,107.16Z"/><path d="M108.23,108.53V91.44h2V96.1l-.07,2.4a11.47,11.47,0,0,1,1.75-1.36,4,4,0,0,1,2.14-.56,3.13,3.13,0,0,1,2.7,1.15,5.68,5.68,0,0,1,.85,3.41v7.39h-2V101.4a4.12,4.12,0,0,0-.53-2.39,1.94,1.94,0,0,0-1.67-.73,2.82,2.82,0,0,0-1.61.46,9.91,9.91,0,0,0-1.59,1.34v8.45Z"/><path d="M126,108.82a5.75,5.75,0,0,1-2.2-.42,5.14,5.14,0,0,1-1.77-1.2,5.53,5.53,0,0,1-1.19-1.91,7.1,7.1,0,0,1-.43-2.57,7,7,0,0,1,.44-2.58A6.09,6.09,0,0,1,122,98.21,5,5,0,0,1,123.7,97a4.75,4.75,0,0,1,2-.42,5,5,0,0,1,2,.38,3.92,3.92,0,0,1,1.46,1.11,5.11,5.11,0,0,1,.9,1.72,7.62,7.62,0,0,1,.32,2.26c0,.21,0,.41,0,.61a2.57,2.57,0,0,1-.06.52h-7.87a4.57,4.57,0,0,0,1.16,3,3.61,3.61,0,0,0,2.73,1.09,4.58,4.58,0,0,0,1.55-.25,7,7,0,0,0,1.35-.66l.7,1.3a10,10,0,0,1-1.7.84A6,6,0,0,1,126,108.82Zm-3.67-7.06h6.24a4.22,4.22,0,0,0-.76-2.7,2.59,2.59,0,0,0-2.12-.92,3,3,0,0,0-1.19.24,2.94,2.94,0,0,0-1,.71,3.92,3.92,0,0,0-.76,1.14A5,5,0,0,0,122.34,101.76Z"/><path d="M135.54,108.82a3.52,3.52,0,0,1-2.44-.87,3.08,3.08,0,0,1-1-2.44,3.25,3.25,0,0,1,1.7-2.94,14,14,0,0,1,5.45-1.43,5.49,5.49,0,0,0-.11-1.08,2.61,2.61,0,0,0-.37-.94,2,2,0,0,0-.73-.66,2.47,2.47,0,0,0-1.19-.25,4.88,4.88,0,0,0-1.9.38,9.42,9.42,0,0,0-1.58.87l-.77-1.37a13.55,13.55,0,0,1,2-1,6.65,6.65,0,0,1,2.6-.49,3.56,3.56,0,0,1,3.09,1.31,5.75,5.75,0,0,1,1,3.49v7.15h-1.63l-.17-1.39h-.07a10.2,10.2,0,0,1-1.8,1.19A4.56,4.56,0,0,1,135.54,108.82Zm.57-1.59a3.4,3.4,0,0,0,1.59-.39,8.07,8.07,0,0,0,1.58-1.17v-3.24a19.2,19.2,0,0,0-2.46.46,6.77,6.77,0,0,0-1.61.62,2.48,2.48,0,0,0-.89.83,2,2,0,0,0-.27,1,1.66,1.66,0,0,0,.6,1.44A2.42,2.42,0,0,0,136.11,107.23Z"/><path d="M148.93,108.82a4.33,4.33,0,0,1-3.52-1.59,6.91,6.91,0,0,1-1.31-4.51,7.33,7.33,0,0,1,.42-2.55,6.22,6.22,0,0,1,1.12-1.94A5,5,0,0,1,147.25,97a4.41,4.41,0,0,1,1.92-.43,4,4,0,0,1,1.75.36,7.89,7.89,0,0,1,1.51,1l-.09-2V91.44h2v17.09H152.7l-.17-1.37h-.07a7.58,7.58,0,0,1-1.6,1.17A4,4,0,0,1,148.93,108.82Zm.43-1.66a3.2,3.2,0,0,0,1.54-.39,5.57,5.57,0,0,0,1.44-1.22V99.46a5,5,0,0,0-1.43-.95,3.85,3.85,0,0,0-1.41-.28,2.67,2.67,0,0,0-1.3.33,3.19,3.19,0,0,0-1.07.91,4.31,4.31,0,0,0-.72,1.4,5.86,5.86,0,0,0-.27,1.83A5.6,5.6,0,0,0,147,106,2.76,2.76,0,0,0,149.36,107.16Z"/><path d="M159.27,94.47a1.39,1.39,0,0,1-1-.36,1.21,1.21,0,0,1-.4-.92,1.18,1.18,0,0,1,.4-.92,1.43,1.43,0,0,1,1-.35,1.41,1.41,0,0,1,1,.35,1.15,1.15,0,0,1,.4.92,1.18,1.18,0,0,1-.4.92A1.37,1.37,0,0,1,159.27,94.47Zm-1,14.06V96.87h2v11.66Z"/><path d="M164.17,108.53V96.87h1.63l.17,1.68H166a9.9,9.9,0,0,1,1.76-1.41,4.1,4.1,0,0,1,2.15-.56,3.13,3.13,0,0,1,2.7,1.15,5.68,5.68,0,0,1,.85,3.41v7.39h-2V101.4A4.21,4.21,0,0,0,171,99a2,2,0,0,0-1.68-.73,2.82,2.82,0,0,0-1.61.46,10.36,10.36,0,0,0-1.59,1.34v8.45Z"/><path d="M181.23,113.91a8.56,8.56,0,0,1-2-.21,4.65,4.65,0,0,1-1.52-.61,3.09,3.09,0,0,1-1-1,2.6,2.6,0,0,1-.34-1.35,2.48,2.48,0,0,1,.45-1.41,4.88,4.88,0,0,1,1.25-1.23V108a2.25,2.25,0,0,1-.73-.74,2.11,2.11,0,0,1-.3-1.16,2.08,2.08,0,0,1,.41-1.3,3.89,3.89,0,0,1,.86-.86v-.1a4.72,4.72,0,0,1-1-1.28,3.57,3.57,0,0,1-.47-1.86,4,4,0,0,1,.35-1.73,3.88,3.88,0,0,1,.94-1.31,4.12,4.12,0,0,1,1.41-.82,4.77,4.77,0,0,1,1.69-.29,5.11,5.11,0,0,1,.9.08,6.35,6.35,0,0,1,.76.21h4.05v1.51h-2.4a3.35,3.35,0,0,1,1,2.4,4.18,4.18,0,0,1-.33,1.69,3.71,3.71,0,0,1-.92,1.27,4.15,4.15,0,0,1-1.35.81,4.84,4.84,0,0,1-1.67.28,4,4,0,0,1-.89-.1,5.81,5.81,0,0,1-.86-.3,2.63,2.63,0,0,0-.53.58,1.48,1.48,0,0,0-.22.81,1.13,1.13,0,0,0,.44.91,2.64,2.64,0,0,0,1.63.36h2.25a5.7,5.7,0,0,1,3.06.66,2.34,2.34,0,0,1,1,2.12,3.14,3.14,0,0,1-.4,1.55,4.11,4.11,0,0,1-1.18,1.29,6.16,6.16,0,0,1-1.86.87A8.51,8.51,0,0,1,181.23,113.91Zm.29-1.37a5.12,5.12,0,0,0,1.52-.21,4.22,4.22,0,0,0,1.17-.52,2.54,2.54,0,0,0,.74-.76,1.66,1.66,0,0,0,.26-.89,1.17,1.17,0,0,0-.6-1.13,4,4,0,0,0-1.75-.31h-2l-.74,0a4.32,4.32,0,0,1-.78-.16,3.14,3.14,0,0,0-.91,1,2,2,0,0,0-.29,1A1.71,1.71,0,0,0,179,112,4.84,4.84,0,0,0,181.52,112.54Zm-.29-9a2.34,2.34,0,0,0,1-.19,2.44,2.44,0,0,0,1.33-1.43,3.25,3.25,0,0,0,.19-1.16,2.68,2.68,0,0,0-.72-2,2.51,2.51,0,0,0-3.5,0,2.68,2.68,0,0,0-.72,2,3.25,3.25,0,0,0,.19,1.16,2.44,2.44,0,0,0,1.33,1.43A2.37,2.37,0,0,0,181.23,103.51Z"/><path d="M198.92,108.82a5.71,5.71,0,0,1-2.2-.42,5.14,5.14,0,0,1-1.77-1.2,5.53,5.53,0,0,1-1.19-1.91,7.1,7.1,0,0,1-.43-2.57,7,7,0,0,1,.44-2.58A6.09,6.09,0,0,1,195,98.21,5,5,0,0,1,196.61,97a4.75,4.75,0,0,1,1.95-.42,5,5,0,0,1,2,.38A3.92,3.92,0,0,1,202,98.07a5.11,5.11,0,0,1,.9,1.72,7.62,7.62,0,0,1,.31,2.26c0,.21,0,.41,0,.61a3.56,3.56,0,0,1-.06.52h-7.87a4.57,4.57,0,0,0,1.16,3,3.61,3.61,0,0,0,2.73,1.09,4.58,4.58,0,0,0,1.55-.25,7,7,0,0,0,1.35-.66l.7,1.3a9.72,9.72,0,0,1-1.71.84A5.87,5.87,0,0,1,198.92,108.82Zm-3.67-7.06h6.24a4.22,4.22,0,0,0-.76-2.7,2.59,2.59,0,0,0-2.12-.92,3,3,0,0,0-1.19.24,2.94,2.94,0,0,0-1,.71,3.73,3.73,0,0,0-.76,1.14A5,5,0,0,0,195.25,101.76Z"/><path d="M204.29,108.53l3.82-6.1-3.53-5.56h2.14l1.56,2.56c.17.32.36.65.55,1s.39.65.6,1h.1l.52-1c.18-.33.35-.66.53-1L212,96.87h2.06l-3.53,5.78,3.8,5.88h-2.14l-1.7-2.71-.63-1.06c-.21-.35-.42-.69-.65-1h-.09q-.31.51-.6,1c-.19.34-.39.7-.58,1.07l-1.58,2.71Z"/><path d="M219.08,108.82a3.52,3.52,0,0,1-2.44-.87,3.08,3.08,0,0,1-1-2.44,3.25,3.25,0,0,1,1.7-2.94,14.1,14.1,0,0,1,5.45-1.43,4.83,4.83,0,0,0-.11-1.08,2.61,2.61,0,0,0-.37-.94,2,2,0,0,0-.73-.66,2.47,2.47,0,0,0-1.19-.25,4.8,4.8,0,0,0-1.89.38,9.53,9.53,0,0,0-1.59.87l-.77-1.37a13.21,13.21,0,0,1,2-1,6.57,6.57,0,0,1,2.59-.49,3.56,3.56,0,0,1,3.09,1.31,5.75,5.75,0,0,1,1,3.49v7.15h-1.63l-.17-1.39h-.07a10.2,10.2,0,0,1-1.8,1.19A4.56,4.56,0,0,1,219.08,108.82Zm.57-1.59a3.4,3.4,0,0,0,1.59-.39,8.07,8.07,0,0,0,1.58-1.17v-3.24a19.89,19.89,0,0,0-2.46.46,6.77,6.77,0,0,0-1.61.62,2.44,2.44,0,0,0-.88.83,1.91,1.91,0,0,0-.28,1,1.66,1.66,0,0,0,.6,1.44A2.42,2.42,0,0,0,219.65,107.23Z"/><path d="M228.49,108.53V96.87h1.63l.17,1.68h.07A8.18,8.18,0,0,1,232,97.14a3.65,3.65,0,0,1,1.95-.56,3.28,3.28,0,0,1,2.1.59,3.37,3.37,0,0,1,1.12,1.64A10.24,10.24,0,0,1,239,97.19a3.57,3.57,0,0,1,2-.61,3.12,3.12,0,0,1,2.67,1.15,5.53,5.53,0,0,1,.88,3.41v7.39h-2V101.4a4.12,4.12,0,0,0-.53-2.39,1.88,1.88,0,0,0-1.63-.73c-.88,0-1.85.6-2.93,1.8v8.45h-2V101.4A4.2,4.2,0,0,0,235,99a1.93,1.93,0,0,0-1.66-.73c-.88,0-1.85.6-2.93,1.8v8.45Z"/><path d="M248.38,113.45V96.87H250l.17,1.34h.07A8.89,8.89,0,0,1,252,97.06a4.38,4.38,0,0,1,2-.48,4.53,4.53,0,0,1,2,.42,4,4,0,0,1,1.44,1.2,5.67,5.67,0,0,1,.87,1.87,9.31,9.31,0,0,1,.3,2.46,7.76,7.76,0,0,1-.41,2.65,6.09,6.09,0,0,1-1.1,2,4.65,4.65,0,0,1-1.61,1.24,4.55,4.55,0,0,1-1.92.42,4,4,0,0,1-1.62-.36,8.4,8.4,0,0,1-1.62-1l0,2v3.94Zm4.83-6.29a2.87,2.87,0,0,0,1.33-.32,3.15,3.15,0,0,0,1.05-.91,4.51,4.51,0,0,0,.7-1.46,6.81,6.81,0,0,0,.25-1.94,8.59,8.59,0,0,0-.17-1.75,3.88,3.88,0,0,0-.54-1.36,2.44,2.44,0,0,0-1-.87,2.92,2.92,0,0,0-1.4-.32,3.14,3.14,0,0,0-1.5.41,9.09,9.09,0,0,0-1.62,1.18v6.12a5.32,5.32,0,0,0,1.54,1A3.88,3.88,0,0,0,253.21,107.16Z"/><path d="M263.79,108.82a1.87,1.87,0,0,1-1.61-.67,3.39,3.39,0,0,1-.48-2V91.44h2v14.88a1,1,0,0,0,.17.67.5.5,0,0,0,.38.2h.18a1.08,1.08,0,0,0,.25,0l.27,1.49a1.78,1.78,0,0,1-.46.14A4,4,0,0,1,263.79,108.82Z"/><path d="M272.55,108.82a5.75,5.75,0,0,1-2.2-.42,5.14,5.14,0,0,1-1.77-1.2,5.53,5.53,0,0,1-1.19-1.91,7.1,7.1,0,0,1-.43-2.57,7.19,7.19,0,0,1,.44-2.58,6.09,6.09,0,0,1,1.18-1.93A5,5,0,0,1,270.25,97a4.67,4.67,0,0,1,1.94-.42,5,5,0,0,1,2,.38,3.92,3.92,0,0,1,1.46,1.11,4.78,4.78,0,0,1,.9,1.72,7.62,7.62,0,0,1,.32,2.26c0,.21,0,.41,0,.61a2,2,0,0,1-.06.52H268.9a4.53,4.53,0,0,0,1.17,3,3.57,3.57,0,0,0,2.72,1.09,4.54,4.54,0,0,0,1.55-.25,7,7,0,0,0,1.35-.66l.7,1.3a10,10,0,0,1-1.7.84A6,6,0,0,1,272.55,108.82Zm-3.67-7.06h6.24a4.16,4.16,0,0,0-.76-2.7,2.59,2.59,0,0,0-2.12-.92,3,3,0,0,0-1.19.24,2.94,2.94,0,0,0-1,.71,3.92,3.92,0,0,0-.76,1.14A5,5,0,0,0,268.88,101.76Z"/><path d="M288.2,108.82a3.79,3.79,0,0,1-1.57-.29,2.77,2.77,0,0,1-1-.79,3.16,3.16,0,0,1-.56-1.23,7,7,0,0,1-.17-1.58V98.47h-1.73V97l1.83-.12.24-3.27h1.65v3.27H290v1.6h-3.15V105a2.92,2.92,0,0,0,.4,1.67,1.56,1.56,0,0,0,1.4.59,2.32,2.32,0,0,0,.67-.1,4.52,4.52,0,0,0,.65-.21l.39,1.49q-.48.17-1.05.3A5.33,5.33,0,0,1,288.2,108.82Z"/><path d="M297,108.82a5.75,5.75,0,0,1-2.2-.42,5.14,5.14,0,0,1-1.77-1.2,5.53,5.53,0,0,1-1.19-1.91,7.1,7.1,0,0,1-.43-2.57,7.19,7.19,0,0,1,.44-2.58,6.09,6.09,0,0,1,1.18-1.93A5,5,0,0,1,294.73,97a4.67,4.67,0,0,1,1.94-.42,5,5,0,0,1,2,.38,3.92,3.92,0,0,1,1.46,1.11,4.78,4.78,0,0,1,.9,1.72,7.62,7.62,0,0,1,.32,2.26c0,.21,0,.41,0,.61a2,2,0,0,1-.06.52h-7.87a4.53,4.53,0,0,0,1.17,3,3.57,3.57,0,0,0,2.72,1.09,4.54,4.54,0,0,0,1.55-.25,7,7,0,0,0,1.35-.66l.7,1.3a10,10,0,0,1-1.7.84A6,6,0,0,1,297,108.82Zm-3.67-7.06h6.24a4.16,4.16,0,0,0-.76-2.7,2.59,2.59,0,0,0-2.12-.92,3,3,0,0,0-1.19.24,2.94,2.94,0,0,0-1,.71,3.92,3.92,0,0,0-.76,1.14A5,5,0,0,0,293.36,101.76Z"/><path d="M302.4,108.53l3.82-6.1-3.53-5.56h2.14l1.56,2.56c.17.32.36.65.55,1s.39.65.6,1h.1l.52-1,.53-1,1.42-2.56h2.06l-3.52,5.78,3.79,5.88H310.3l-1.7-2.71-.63-1.06c-.2-.35-.42-.69-.65-1h-.09q-.32.51-.6,1c-.19.34-.39.7-.58,1.07l-1.58,2.71Z"/><path d="M317.84,108.82a3.79,3.79,0,0,1-1.57-.29,2.77,2.77,0,0,1-1-.79,3.16,3.16,0,0,1-.56-1.23,7,7,0,0,1-.17-1.58V98.47h-1.73V97l1.83-.12.24-3.27h1.65v3.27h3.15v1.6h-3.15V105a3,3,0,0,0,.4,1.67,1.56,1.56,0,0,0,1.4.59,2.43,2.43,0,0,0,.68-.1,4.37,4.37,0,0,0,.64-.21l.39,1.49q-.48.17-1.05.3A5.25,5.25,0,0,1,317.84,108.82Z"/><path d="M72.54,61.23V47.17H67.79V45.49H79.31v1.68H74.55V61.23Z"/><path d="M83,47.17a1.4,1.4,0,0,1-1-.36,1.18,1.18,0,0,1-.39-.91A1.16,1.16,0,0,1,82,45a1.53,1.53,0,0,1,2,0,1.16,1.16,0,0,1,.39.92,1.18,1.18,0,0,1-.39.91A1.41,1.41,0,0,1,83,47.17ZM82,61.23V49.57h2V61.23Z"/><path d="M91.52,61.52A3.67,3.67,0,0,1,90,61.23a2.56,2.56,0,0,1-1-.79,3.06,3.06,0,0,1-.57-1.22,7.14,7.14,0,0,1-.16-1.59V51.18H86.46V49.69l1.82-.12.24-3.26h1.66v3.26h3.14v1.61H90.18v6.48a3,3,0,0,0,.39,1.67,1.6,1.6,0,0,0,1.41.59,2.79,2.79,0,0,0,.67-.1c.24-.07.45-.14.65-.22l.38,1.49c-.32.11-.67.21-1,.3A4.82,4.82,0,0,1,91.52,61.52Z"/><path d="M98.05,61.52a1.84,1.84,0,0,1-1.61-.67,3.37,3.37,0,0,1-.48-2V44.15h2V59a1,1,0,0,0,.17.67.49.49,0,0,0,.38.19h.18a.72.72,0,0,0,.25,0l.27,1.49a2.26,2.26,0,0,1-.46.15A4.14,4.14,0,0,1,98.05,61.52Z"/><path d="M106.81,61.52a5.75,5.75,0,0,1-2.2-.42,5.14,5.14,0,0,1-1.77-1.2A5.44,5.44,0,0,1,101.65,58a7,7,0,0,1-.43-2.56,7.19,7.19,0,0,1,.44-2.58,6,6,0,0,1,1.18-1.93,5.06,5.06,0,0,1,1.67-1.22,4.67,4.67,0,0,1,1.94-.42,4.79,4.79,0,0,1,2,.39,3.79,3.79,0,0,1,1.46,1.1,4.83,4.83,0,0,1,.9,1.73,7.5,7.5,0,0,1,.32,2.25c0,.21,0,.42,0,.62a1.88,1.88,0,0,1-.06.51h-7.87a4.55,4.55,0,0,0,1.17,3,3.57,3.57,0,0,0,2.72,1.09,4.8,4.8,0,0,0,1.55-.25A7,7,0,0,0,110,59l.7,1.29a10,10,0,0,1-1.7.84A6,6,0,0,1,106.81,61.52Zm-3.67-7.05h6.24a4.12,4.12,0,0,0-.76-2.7,2.57,2.57,0,0,0-2.12-.93,3,3,0,0,0-1.19.24,3.08,3.08,0,0,0-1,.71,3.92,3.92,0,0,0-.76,1.14A5,5,0,0,0,103.14,54.47Z"/><path d="M122.46,61.52a3.64,3.64,0,0,1-1.57-.29,2.67,2.67,0,0,1-1-.79,3.05,3.05,0,0,1-.56-1.22,7.11,7.11,0,0,1-.17-1.59V51.18h-1.73V49.69l1.83-.12.24-3.26h1.65v3.26h3.15v1.61h-3.15v6.48a2.92,2.92,0,0,0,.4,1.67,1.56,1.56,0,0,0,1.4.59,2.72,2.72,0,0,0,.67-.1,6.15,6.15,0,0,0,.65-.22l.39,1.49q-.48.16-1.05.3A4.73,4.73,0,0,1,122.46,61.52Z"/><path d="M131.29,61.52a5.75,5.75,0,0,1-2.2-.42,5.14,5.14,0,0,1-1.77-1.2A5.44,5.44,0,0,1,126.13,58a7,7,0,0,1-.43-2.56,7.19,7.19,0,0,1,.44-2.58,6,6,0,0,1,1.18-1.93A5.13,5.13,0,0,1,129,49.7a4.75,4.75,0,0,1,2-.42,4.86,4.86,0,0,1,2,.39,3.79,3.79,0,0,1,1.46,1.1,5,5,0,0,1,.9,1.73,7.5,7.5,0,0,1,.32,2.25c0,.21,0,.42,0,.62a2.38,2.38,0,0,1-.06.51h-7.87a4.55,4.55,0,0,0,1.17,3,3.57,3.57,0,0,0,2.72,1.09,4.84,4.84,0,0,0,1.55-.25,7,7,0,0,0,1.35-.66l.7,1.29a10,10,0,0,1-1.7.84A6,6,0,0,1,131.29,61.52Zm-3.67-7.05h6.24a4.18,4.18,0,0,0-.76-2.7,2.57,2.57,0,0,0-2.12-.93,3,3,0,0,0-1.19.24,3.08,3.08,0,0,0-1,.71,3.92,3.92,0,0,0-.76,1.14A5,5,0,0,0,127.62,54.47Z"/><path d="M136.66,61.23l3.82-6.09L137,49.57h2.14l1.56,2.57c.17.32.36.64.55,1s.39.65.6,1h.1c.17-.32.35-.64.52-1l.53-1,1.42-2.57h2.06l-3.53,5.78,3.8,5.88h-2.14l-1.7-2.71-.63-1.05c-.21-.35-.42-.7-.65-1h-.09q-.31.5-.6,1c-.19.34-.39.69-.58,1.06l-1.58,2.71Z"/><path d="M152.1,61.52a3.64,3.64,0,0,1-1.57-.29,2.67,2.67,0,0,1-1-.79,3.05,3.05,0,0,1-.56-1.22,7.11,7.11,0,0,1-.17-1.59V51.18H147V49.69l1.83-.12.24-3.26h1.65v3.26h3.15v1.61h-3.15v6.48a3,3,0,0,0,.4,1.67,1.56,1.56,0,0,0,1.4.59,2.87,2.87,0,0,0,.68-.1,5.93,5.93,0,0,0,.64-.22l.39,1.49q-.48.16-1,.3A4.67,4.67,0,0,1,152.1,61.52Z"/><polygon class="cls-3" points="336.96 100.2 375.96 100 375.96 101 336.96 101.2 336.96 100.2"/><circle class="cls-3" cx="337.06" cy="100.6" r="3"/><g class="cls-4"><path class="cls-3" d="M388,94.83a2.83,2.83,0,0,1-1.16-.21,1.91,1.91,0,0,1-.77-.59,2.38,2.38,0,0,1-.43-.89,4.67,4.67,0,0,1-.14-1.16V88.23h-1.12V86.86l1.22-.08.22-2.15h1.54v2.15h2v1.45h-2V92c0,.92.36,1.37,1.1,1.37a2,2,0,0,0,.42,0,3.14,3.14,0,0,0,.4-.13l.32,1.36c-.22.07-.46.14-.73.2A4,4,0,0,1,388,94.83Z"/><path class="cls-3" d="M394.14,94.83a4.19,4.19,0,0,1-1.52-.28,3.66,3.66,0,0,1-1.23-.81,3.59,3.59,0,0,1-.83-1.29,4.74,4.74,0,0,1-.29-1.74,4.67,4.67,0,0,1,.3-1.72,3.78,3.78,0,0,1,.81-1.3,3.65,3.65,0,0,1,1.16-.82,3.32,3.32,0,0,1,1.34-.28,3.44,3.44,0,0,1,1.41.27,2.76,2.76,0,0,1,1,.77,3.39,3.39,0,0,1,.61,1.18,5.13,5.13,0,0,1,.21,1.5c0,.19,0,.36,0,.52s0,.28-.06.38h-5a2.49,2.49,0,0,0,.74,1.62,2.24,2.24,0,0,0,1.58.57,2.91,2.91,0,0,0,.95-.15,4.33,4.33,0,0,0,.87-.42l.63,1.15a6,6,0,0,1-1.25.61A4.35,4.35,0,0,1,394.14,94.83ZM392,90h3.49a2.34,2.34,0,0,0-.39-1.43,1.41,1.41,0,0,0-1.21-.52,1.7,1.7,0,0,0-1.23.5A2.37,2.37,0,0,0,392,90Z"/><path class="cls-3" d="M397.75,94.63l2.5-4.09-2.34-3.76h2l.88,1.49q.18.32.36.66l.36.66h.06l.31-.66q.15-.34.3-.66l.75-1.49h1.91l-2.32,4L405,94.63h-2l-1-1.55-.39-.7c-.14-.24-.27-.47-.41-.69h-.07c-.11.22-.23.45-.34.68s-.23.47-.34.71l-.84,1.55Z"/><path class="cls-3" d="M408.75,94.83a2.83,2.83,0,0,1-1.16-.21,2,2,0,0,1-.77-.59,2.38,2.38,0,0,1-.43-.89,4.24,4.24,0,0,1-.14-1.16V88.23h-1.12V86.86l1.22-.08.22-2.15h1.53v2.15h2v1.45h-2V92c0,.92.37,1.37,1.11,1.37a2,2,0,0,0,.42,0,2.54,2.54,0,0,0,.39-.13l.33,1.36c-.22.07-.46.14-.73.2A4.07,4.07,0,0,1,408.75,94.83Z"/><path class="cls-3" d="M410.76,91.27V89.93h3.81v1.34Z"/><path class="cls-3" d="M416.41,94.63V83.34h1.84v2.91l-.06,1.52a6.34,6.34,0,0,1,1.09-.82,2.7,2.7,0,0,1,1.42-.36,2.13,2.13,0,0,1,1.84.8,4,4,0,0,1,.57,2.32v4.92h-1.84V90a2.47,2.47,0,0,0-.28-1.38,1.09,1.09,0,0,0-.95-.4,1.6,1.6,0,0,0-.9.25,5.53,5.53,0,0,0-.89.73v5.48Z"/><path class="cls-3" d="M428,94.83a4.59,4.59,0,0,1-2.08-.42,4.72,4.72,0,0,1-1.38-1l.88-1.19a4.58,4.58,0,0,0,1.06.79,2.74,2.74,0,0,0,1.36.33,2.09,2.09,0,0,0,1.35-.41,1.33,1.33,0,0,0,.52-1.12,1.81,1.81,0,0,0-.14-.72,1.28,1.28,0,0,0-.49-.55,2.73,2.73,0,0,0-.92-.34,7.17,7.17,0,0,0-1.44-.12V88.71a5.6,5.6,0,0,0,1.26-.12,2.53,2.53,0,0,0,.81-.33,1.3,1.3,0,0,0,.45-.52,1.59,1.59,0,0,0,.14-.66,1.31,1.31,0,0,0-.4-1,1.61,1.61,0,0,0-1.11-.36,2.2,2.2,0,0,0-1.09.27,4.29,4.29,0,0,0-1,.69l-.94-1.13a5.69,5.69,0,0,1,1.4-.93,3.77,3.77,0,0,1,1.66-.35,4.73,4.73,0,0,1,1.34.17,3.08,3.08,0,0,1,1,.52,2.33,2.33,0,0,1,.67.85,2.64,2.64,0,0,1,.24,1.14,2.21,2.21,0,0,1-.47,1.44,3,3,0,0,1-1.3.9v.06a3.19,3.19,0,0,1,1.51.88,2.33,2.33,0,0,1,.6,1.65,2.77,2.77,0,0,1-.28,1.25,2.85,2.85,0,0,1-.77.92,3.71,3.71,0,0,1-1.14.58A4.75,4.75,0,0,1,428,94.83Z"/><path class="cls-3" d="M388,114a2.83,2.83,0,0,1-1.16-.21,1.91,1.91,0,0,1-.77-.59,2.38,2.38,0,0,1-.43-.89,4.67,4.67,0,0,1-.14-1.16v-3.75h-1.12v-1.37l1.22-.08.22-2.15h1.54V106h2v1.45h-2v3.75c0,.92.36,1.37,1.1,1.37a2,2,0,0,0,.42,0,3.14,3.14,0,0,0,.4-.13l.32,1.36c-.22.07-.46.14-.73.2A4,4,0,0,1,388,114Z"/><path class="cls-3" d="M394.14,114a4.19,4.19,0,0,1-1.52-.28,3.66,3.66,0,0,1-1.23-.81,3.59,3.59,0,0,1-.83-1.29,4.74,4.74,0,0,1-.29-1.74,4.67,4.67,0,0,1,.3-1.72,3.78,3.78,0,0,1,.81-1.3,3.65,3.65,0,0,1,1.16-.82,3.32,3.32,0,0,1,1.34-.28,3.44,3.44,0,0,1,1.41.27,2.87,2.87,0,0,1,1,.77,3.39,3.39,0,0,1,.61,1.18,5.13,5.13,0,0,1,.21,1.5c0,.19,0,.36,0,.52s0,.28-.06.38h-5a2.49,2.49,0,0,0,.74,1.62,2.24,2.24,0,0,0,1.58.57,2.91,2.91,0,0,0,.95-.15,4.33,4.33,0,0,0,.87-.42l.63,1.15a6,6,0,0,1-1.25.61A4.35,4.35,0,0,1,394.14,114Zm-2.1-4.87h3.49a2.34,2.34,0,0,0-.39-1.43,1.41,1.41,0,0,0-1.21-.52,1.74,1.74,0,0,0-1.23.5A2.37,2.37,0,0,0,392,109.16Z"/><path class="cls-3" d="M397.75,113.83l2.5-4.09L397.91,106h2l.88,1.49.36.66q.18.34.36.66h.06l.31-.66q.15-.34.3-.66l.75-1.49h1.91l-2.32,4,2.49,3.88h-2l-1-1.55-.39-.7c-.14-.24-.27-.47-.41-.69h-.07c-.11.22-.23.45-.34.68s-.23.47-.34.71l-.84,1.55Z"/><path class="cls-3" d="M408.75,114a2.83,2.83,0,0,1-1.16-.21,2,2,0,0,1-.77-.59,2.38,2.38,0,0,1-.43-.89,4.24,4.24,0,0,1-.14-1.16v-3.75h-1.12v-1.37l1.22-.08.22-2.15h1.53V106h2v1.45h-2v3.75c0,.92.37,1.37,1.11,1.37a2,2,0,0,0,.42,0,2.54,2.54,0,0,0,.39-.13l.33,1.36c-.22.07-.46.14-.73.2A4.07,4.07,0,0,1,408.75,114Z"/><path class="cls-3" d="M410.76,110.47v-1.34h3.81v1.34Z"/><path class="cls-3" d="M416.41,113.83V106h1.52l.13,1h.06a6.15,6.15,0,0,1,1.15-.88,2.76,2.76,0,0,1,1.43-.36,2.13,2.13,0,0,1,1.84.8,4,4,0,0,1,.57,2.32v4.92h-1.84v-4.68a2.5,2.5,0,0,0-.28-1.38,1.09,1.09,0,0,0-.95-.4,1.6,1.6,0,0,0-.9.25,5.53,5.53,0,0,0-.89.73v5.48Z"/><path class="cls-3" d="M428.59,114a3.58,3.58,0,0,1-1.41-.28A3.29,3.29,0,0,1,426,113a3.72,3.72,0,0,1-.83-1.29,4.79,4.79,0,0,1-.3-1.75,4.74,4.74,0,0,1,.3-1.74,3.86,3.86,0,0,1,.83-1.3,3.42,3.42,0,0,1,1.19-.8,3.69,3.69,0,0,1,2.82,0,3.42,3.42,0,0,1,1.19.8,4.2,4.2,0,0,1,.83,1.3,4.54,4.54,0,0,1,.31,1.74,4.59,4.59,0,0,1-.31,1.75,4,4,0,0,1-.83,1.29,3.29,3.29,0,0,1-1.19.8A3.58,3.58,0,0,1,428.59,114Zm0-1.51a1.57,1.57,0,0,0,1.36-.71,3.26,3.26,0,0,0,.49-1.9A3.3,3.3,0,0,0,430,108a1.6,1.6,0,0,0-1.36-.71,1.57,1.57,0,0,0-1.36.71,3.38,3.38,0,0,0-.48,1.91,3.34,3.34,0,0,0,.48,1.9A1.55,1.55,0,0,0,428.59,112.52Z"/><path class="cls-3" d="M434.15,113.83V106h1.52l.13,1.39h.06a3.48,3.48,0,0,1,1-1.18,2.14,2.14,0,0,1,1.22-.4,2.1,2.1,0,0,1,.9.16l-.32,1.6a2.24,2.24,0,0,0-.39-.1,2.63,2.63,0,0,0-.43,0,1.72,1.72,0,0,0-1,.36A2.85,2.85,0,0,0,436,109v4.8Z"/><path class="cls-3" d="M440.12,113.83V106h1.52l.13,1.07h.06a5.74,5.74,0,0,1,1.08-.9,2.47,2.47,0,0,1,1.32-.36,2.09,2.09,0,0,1,2.18,1.4,6,6,0,0,1,1.17-1,2.39,2.39,0,0,1,1.36-.4,2.16,2.16,0,0,1,1.84.8,3.91,3.91,0,0,1,.59,2.32v4.92h-1.86v-4.68a2.48,2.48,0,0,0-.29-1.38,1.05,1.05,0,0,0-.91-.4,2.46,2.46,0,0,0-1.64,1v5.48h-1.84v-4.68a2.39,2.39,0,0,0-.3-1.38,1.07,1.07,0,0,0-.92-.4,2.49,2.49,0,0,0-1.65,1v5.48Z"/><path class="cls-3" d="M455.51,114a2.33,2.33,0,0,1-2.05-3.42,2.22,2.22,0,0,1,.83-.84,5.73,5.73,0,0,1,1.44-.59,13.72,13.72,0,0,1,2.09-.37,2.7,2.7,0,0,0-.09-.58,1.37,1.37,0,0,0-.24-.5,1.16,1.16,0,0,0-.44-.34,1.67,1.67,0,0,0-.67-.12,3,3,0,0,0-1.13.23,7.77,7.77,0,0,0-1.08.54l-.67-1.23a7.73,7.73,0,0,1,1.47-.72,5,5,0,0,1,1.76-.3,2.71,2.71,0,0,1,2.2.87,3.86,3.86,0,0,1,.73,2.52v4.65h-1.52L458,113h-.07a5.48,5.48,0,0,1-1.12.75A2.91,2.91,0,0,1,455.51,114Zm.59-1.44a1.72,1.72,0,0,0,.88-.23,4.68,4.68,0,0,0,.84-.64V110a8.77,8.77,0,0,0-1.35.26,3.9,3.9,0,0,0-.88.36,1.31,1.31,0,0,0-.48.45,1.21,1.21,0,0,0-.14.55.91.91,0,0,0,.32.77A1.3,1.3,0,0,0,456.1,112.59Z"/><path class="cls-3" d="M463.66,114a1.54,1.54,0,0,1-1.39-.6,2.8,2.8,0,0,1-.41-1.61v-9.28h1.84v9.37a.73.73,0,0,0,.13.48.38.38,0,0,0,.27.13h.13l.16,0,.24,1.38A2.58,2.58,0,0,1,463.66,114Z"/></g><polygon class="cls-3" points="336.95 168.87 375.95 168.67 375.95 169.67 336.95 169.87 336.95 168.87"/><circle class="cls-3" cx="337.05" cy="169.27" r="3"/><g class="cls-4"><path class="cls-3" d="M388.35,174a2.83,2.83,0,0,1-1.16-.21,1.91,1.91,0,0,1-.77-.59,2.38,2.38,0,0,1-.43-.89,4.67,4.67,0,0,1-.14-1.16V167.4h-1.12V166L386,166l.22-2.15h1.54V166h2v1.45h-2v3.75c0,.92.36,1.37,1.1,1.37a2,2,0,0,0,.42,0,3.14,3.14,0,0,0,.4-.13l.32,1.36c-.22.07-.46.14-.73.2A4.07,4.07,0,0,1,388.35,174Z"/><path class="cls-3" d="M394.46,174a4.19,4.19,0,0,1-1.52-.28,3.66,3.66,0,0,1-1.23-.81,3.59,3.59,0,0,1-.83-1.29,4.74,4.74,0,0,1-.29-1.74,4.67,4.67,0,0,1,.3-1.72,3.78,3.78,0,0,1,.81-1.3,3.65,3.65,0,0,1,1.16-.82,3.29,3.29,0,0,1,1.34-.28,3.48,3.48,0,0,1,1.41.27,2.68,2.68,0,0,1,1,.77,3.39,3.39,0,0,1,.61,1.18,5.13,5.13,0,0,1,.21,1.5c0,.19,0,.36,0,.52s0,.28-.06.38h-5a2.51,2.51,0,0,0,.74,1.62,2.24,2.24,0,0,0,1.58.57,2.91,2.91,0,0,0,.95-.15,4.33,4.33,0,0,0,.87-.42l.63,1.15a6,6,0,0,1-1.25.61A4.35,4.35,0,0,1,394.46,174Zm-2.1-4.87h3.49a2.34,2.34,0,0,0-.39-1.43,1.41,1.41,0,0,0-1.21-.52,1.7,1.7,0,0,0-1.23.5A2.37,2.37,0,0,0,392.36,169.13Z"/><path class="cls-3" d="M398.07,173.8l2.5-4.09L398.23,166h2l.88,1.49.36.66q.18.35.36.66h.06l.31-.66q.15-.34.3-.66l.75-1.49h1.91l-2.32,4,2.49,3.88h-2l-1-1.55-.39-.7c-.14-.24-.27-.47-.41-.69h-.07c-.11.22-.23.45-.34.68s-.23.47-.34.71L400,173.8Z"/><path class="cls-3" d="M409.07,174a2.83,2.83,0,0,1-1.16-.21,1.91,1.91,0,0,1-.77-.59,2.38,2.38,0,0,1-.43-.89,4.24,4.24,0,0,1-.14-1.16V167.4h-1.12V166l1.22-.08.22-2.15h1.54V166h2v1.45h-2v3.75c0,.92.36,1.37,1.1,1.37a2,2,0,0,0,.42,0,3.14,3.14,0,0,0,.4-.13l.32,1.36c-.22.07-.46.14-.73.2A4.07,4.07,0,0,1,409.07,174Z"/><path class="cls-3" d="M411.08,170.44V169.1h3.81v1.34Z"/><path class="cls-3" d="M420.54,174a2.51,2.51,0,0,1-1.1-.27,3.68,3.68,0,0,1-1.05-.76h0l-.16.83h-1.46V162.51h1.84v2.91l-.05,1.31a4.44,4.44,0,0,1,1.08-.7,2.82,2.82,0,0,1,1.19-.27,2.9,2.9,0,0,1,1.31.28,2.61,2.61,0,0,1,1,.8,3.56,3.56,0,0,1,.61,1.25,6,6,0,0,1,.21,1.65,5.57,5.57,0,0,1-.28,1.8,4.33,4.33,0,0,1-.75,1.34,3.16,3.16,0,0,1-1.07.83A2.94,2.94,0,0,1,420.54,174Zm-.39-1.52a1.63,1.63,0,0,0,1.32-.68,3.3,3.3,0,0,0,.52-2,3.51,3.51,0,0,0-.4-1.84,1.38,1.38,0,0,0-1.29-.65,2.54,2.54,0,0,0-1.73.88v3.66a2.39,2.39,0,0,0,.82.51A2.27,2.27,0,0,0,420.15,172.48Z"/><path class="cls-3" d="M429,174a3.5,3.5,0,0,1-1.4-.28,3.42,3.42,0,0,1-1.2-.8,3.85,3.85,0,0,1-.82-1.29,4.79,4.79,0,0,1-.3-1.75,4.74,4.74,0,0,1,.3-1.74,4,4,0,0,1,.82-1.3,3.56,3.56,0,0,1,1.2-.8,3.5,3.5,0,0,1,1.4-.28,3.63,3.63,0,0,1,1.42.28,3.42,3.42,0,0,1,1.19.8,4.2,4.2,0,0,1,.83,1.3,4.73,4.73,0,0,1,.31,1.74,4.79,4.79,0,0,1-.31,1.75,4,4,0,0,1-.83,1.29,3.29,3.29,0,0,1-1.19.8A3.63,3.63,0,0,1,429,174Zm0-1.51a1.57,1.57,0,0,0,1.36-.71,3.26,3.26,0,0,0,.5-1.9,3.3,3.3,0,0,0-.5-1.91,1.65,1.65,0,0,0-2.71,0,3.38,3.38,0,0,0-.49,1.91,3.34,3.34,0,0,0,.49,1.9A1.57,1.57,0,0,0,429,172.49Z"/><path class="cls-3" d="M437.27,174a2.87,2.87,0,0,1-2.36-1.08,4.72,4.72,0,0,1-.87-3,4.89,4.89,0,0,1,.28-1.72,4.18,4.18,0,0,1,.74-1.3,3.52,3.52,0,0,1,1.07-.82,2.84,2.84,0,0,1,1.24-.28,2.49,2.49,0,0,1,1.14.23,4.45,4.45,0,0,1,.92.63l-.06-1.26v-2.85h1.84V173.8h-1.52l-.13-.84h-.06a4.42,4.42,0,0,1-1,.73A2.63,2.63,0,0,1,437.27,174Zm.45-1.52a2.21,2.21,0,0,0,1.65-.88v-3.67a2.84,2.84,0,0,0-.81-.51,2.16,2.16,0,0,0-.79-.14,1.61,1.61,0,0,0-1.3.67,3.07,3.07,0,0,0-.53,1.92,3.45,3.45,0,0,0,.46,1.94A1.52,1.52,0,0,0,437.72,172.48Z"/><path class="cls-3" d="M444.07,177a4.45,4.45,0,0,1-.56,0,3.45,3.45,0,0,1-.46-.12l.34-1.44.26.07a1.55,1.55,0,0,0,.29,0,1.35,1.35,0,0,0,1-.38,2.18,2.18,0,0,0,.57-1l.15-.49L442.57,166h1.87l1.36,3.85c.12.35.23.7.35,1.08s.22.76.34,1.13h.06l.3-1.11c.1-.38.2-.74.3-1.1l1.18-3.85h1.77l-2.84,8.21a9.6,9.6,0,0,1-.53,1.2,3.88,3.88,0,0,1-.66.9,2.82,2.82,0,0,1-.87.58A3,3,0,0,1,444.07,177Z"/></g></svg>