<?xml version="1.0" encoding="UTF-8"?>
<svg viewBox="0 0 500 400" version="1.1" xmlns="http://www.w3.org/2000/svg" xmlns:xlink="http://www.w3.org/1999/xlink">
    <!-- Generator: Sketch 64 (93537) - https://sketch.com -->
    <title>Artboard</title>
    <desc>Created with Sketch.</desc>
    <g id="Artboard" stroke="none" stroke-width="1" fill="none" fill-rule="evenodd">
        <rect id="Rectangle" fill="#EE020A" fill-rule="nonzero" x="0" y="0" width="6" height="400"></rect>
        <rect id="Rectangle" fill="#F5F5F5" fill-rule="nonzero" x="6" y="0" width="495" height="400"></rect>
        <path d="M33.5,12 C25.0095541,12 18,18.9329073 18,27.5495208 C18,36.1661342 24.910828,43 33.5,43 C42.089172,43 49,36.0670927 49,27.4504792 C49,18.8338658 41.9904459,12 33.5,12 Z" id="Path" fill="#EE020A" fill-rule="nonzero"></path>
        <g id="Group" transform="translate(25.000000, 19.000000)" fill="#F5F5F5" fill-rule="nonzero">
            <rect id="Rectangle" transform="translate(8.909875, 8.364395) rotate(-45.000000) translate(-8.909875, -8.364395) " x="-1.0900291" y="6.71441082" width="19.9998082" height="3.29996835"></rect>
            <rect id="Rectangle" transform="translate(8.847765, 8.285095) rotate(-45.000000) translate(-8.847765, -8.285095) " x="7.19778082" y="-1.7148091" width="3.29996835" height="19.9998082"></rect>
        </g>
        <g id="Group-2" transform="translate(84.000000, 58.000000)">
            <path d="M79.256827,47 C79.9340702,47 80.5495015,46.8638889 81.1031209,46.5916667 C81.6567404,46.3194444 82.1485479,45.9277778 82.5785436,45.4166667 L82.5785436,45.4166667 L81.5788036,44.2 C81.2778067,44.5333333 80.94456,44.8027778 80.5790637,45.0083333 C80.2135674,45.2138889 79.7943216,45.3166667 79.3213264,45.3166667 C78.4290854,45.3166667 77.72228,44.9638889 77.2009103,44.2583333 C76.6795405,43.5527778 76.4188557,42.5777778 76.4188557,41.3333333 C76.4188557,40.7222222 76.4914174,40.1722222 76.636541,39.6833333 C76.7816645,39.1944444 76.9859124,38.7805556 77.2492848,38.4416667 C77.5126571,38.1027778 77.824404,37.8416667 78.1845254,37.6583333 C78.5446467,37.475 78.9397052,37.3833333 79.3697009,37.3833333 C79.7781968,37.3833333 80.1436931,37.4694444 80.4661899,37.6416667 C80.7886866,37.8138889 81.0896836,38.0444444 81.3691808,38.3333333 L81.3691808,38.3333333 L82.3689207,37.0833333 C82.035674,36.7166667 81.6110533,36.3944444 81.0950585,36.1166667 C80.5790637,35.8388889 79.9878197,35.7 79.3213264,35.7 C78.6548331,35.7 78.0286519,35.8277778 77.4427828,36.0833333 C76.8569137,36.3388889 76.3462939,36.7111111 75.9109233,37.2 C75.4755527,37.6888889 75.1315561,38.2861111 74.8789337,38.9916667 C74.6263112,39.6972222 74.5,40.4944444 74.5,41.3833333 C74.5,42.2833333 74.6236238,43.0833333 74.8708713,43.7833333 C75.1181188,44.4833333 75.4540529,45.0722222 75.8786736,45.55 C76.3032943,46.0277778 76.8058518,46.3888889 77.3863459,46.6333333 C77.9668401,46.8777778 78.5903338,47 79.256827,47 Z M87.4159948,47 C87.9104898,47 88.3861725,46.9055556 88.8430429,46.7166667 C89.2999133,46.5277778 89.7003468,46.25 90.0443433,45.8833333 C90.3883398,45.5166667 90.6651495,45.0666667 90.8747724,44.5333333 C91.0843953,44 91.1892068,43.3944444 91.1892068,42.7166667 C91.1892068,42.0388889 91.0843953,41.4333333 90.8747724,40.9 C90.6651495,40.3666667 90.3883398,39.9166667 90.0443433,39.55 C89.7003468,39.1833333 89.2999133,38.9027778 88.8430429,38.7083333 C88.3861725,38.5138889 87.9104898,38.4166667 87.4159948,38.4166667 C86.9214998,38.4166667 86.4485046,38.5138889 85.9970091,38.7083333 C85.5455137,38.9027778 85.1450802,39.1833333 84.7957087,39.55 C84.4463372,39.9166667 84.1695275,40.3666667 83.9652796,40.9 C83.7610316,41.4333333 83.6589077,42.0388889 83.6589077,42.7166667 C83.6589077,43.3944444 83.7610316,44 83.9652796,44.5333333 C84.1695275,45.0666667 84.4463372,45.5166667 84.7957087,45.8833333 C85.1450802,46.25 85.5455137,46.5277778 85.9970091,46.7166667 C86.4485046,46.9055556 86.9214998,47 87.4159948,47 Z M87.4159948,45.4333333 C86.8355007,45.4333333 86.3813177,45.1861111 86.053446,44.6916667 C85.7255743,44.1972222 85.5616385,43.5388889 85.5616385,42.7166667 C85.5616385,41.8833333 85.7255743,41.2194444 86.053446,40.725 C86.3813177,40.2305556 86.8355007,39.9833333 87.4159948,39.9833333 C87.9964889,39.9833333 88.4533593,40.2305556 88.786606,40.725 C89.1198526,41.2194444 89.2864759,41.8833333 89.2864759,42.7166667 C89.2864759,43.5388889 89.1198526,44.1972222 88.786606,44.6916667 C88.4533593,45.1861111 87.9964889,45.4333333 87.4159948,45.4333333 Z M94.8817945,46.8 L94.8817945,41.0833333 C95.2150412,40.75 95.5133507,40.4972222 95.776723,40.325 C96.0400954,40.1527778 96.3437798,40.0666667 96.6877763,40.0666667 C97.1285219,40.0666667 97.4456437,40.2055556 97.6391417,40.4833333 C97.8326398,40.7611111 97.9293888,41.2388889 97.9293888,41.9166667 L97.9293888,41.9166667 L97.9293888,46.8 L99.7837451,46.8 L99.7837451,41.6666667 C99.7837451,40.6222222 99.5902471,39.8194444 99.203251,39.2583333 C98.8162549,38.6972222 98.1981361,38.4166667 97.3488947,38.4166667 C96.8006502,38.4166667 96.3195925,38.5444444 95.9057217,38.8 C95.4918509,39.0555556 95.1075423,39.3611111 94.7527958,39.7166667 L94.7527958,39.7166667 L94.6882965,39.7166667 L94.5592978,38.6166667 L93.0274382,38.6166667 L93.0274382,46.8 L94.8817945,46.8 Z M104.846944,47 C105.158691,47 105.451625,46.9694444 105.725748,46.9083333 C105.99987,46.8472222 106.24443,46.7777778 106.459428,46.7 L106.459428,46.7 L106.136931,45.2833333 C106.018682,45.3388889 105.886996,45.3833333 105.741873,45.4166667 C105.596749,45.45 105.454313,45.4666667 105.314564,45.4666667 C104.572822,45.4666667 104.201951,44.9888889 104.201951,44.0333333 L104.201951,44.0333333 L104.201951,40.1333333 L106.217555,40.1333333 L106.217555,38.6166667 L104.201951,38.6166667 L104.201951,36.3833333 L102.653966,36.3833333 L102.428218,38.6166667 L101.202731,38.7 L101.202731,40.1333333 L102.331469,40.1333333 L102.331469,44.0333333 C102.331469,44.4777778 102.377156,44.8805556 102.468531,45.2416667 C102.559905,45.6027778 102.705028,45.9138889 102.903901,46.175 C103.102774,46.4361111 103.360772,46.6388889 103.677893,46.7833333 C103.995015,46.9277778 104.384699,47 104.846944,47 Z M108.813654,37.1833333 C109.146901,37.1833333 109.421023,37.0833333 109.636021,36.8833333 C109.851019,36.6833333 109.958518,36.4222222 109.958518,36.1 C109.958518,35.7777778 109.851019,35.5138889 109.636021,35.3083333 C109.421023,35.1027778 109.146901,35 108.813654,35 C108.480407,35 108.206285,35.1027778 107.991287,35.3083333 C107.77629,35.5138889 107.668791,35.7777778 107.668791,36.1 C107.668791,36.4222222 107.77629,36.6833333 107.991287,36.8833333 C108.206285,37.0833333 108.480407,37.1833333 108.813654,37.1833333 Z M109.73277,46.8 L109.73277,38.6166667 L107.878414,38.6166667 L107.878414,46.8 L109.73277,46.8 Z M113.957477,46.8 L113.957477,41.0833333 C114.290724,40.75 114.589033,40.4972222 114.852406,40.325 C115.115778,40.1527778 115.419463,40.0666667 115.763459,40.0666667 C116.204205,40.0666667 116.521326,40.2055556 116.714824,40.4833333 C116.908322,40.7611111 117.005072,41.2388889 117.005072,41.9166667 L117.005072,41.9166667 L117.005072,46.8 L118.859428,46.8 L118.859428,41.6666667 C118.859428,40.6222222 118.66593,39.8194444 118.278934,39.2583333 C117.891938,38.6972222 117.273819,38.4166667 116.424577,38.4166667 C115.876333,38.4166667 115.395275,38.5444444 114.981404,38.8 C114.567534,39.0555556 114.183225,39.3611111 113.828479,39.7166667 L113.828479,39.7166667 L113.763979,39.7166667 L113.63498,38.6166667 L112.103121,38.6166667 L112.103121,46.8 L113.957477,46.8 Z M123.487256,47 C124.035501,47 124.511183,46.8722222 124.914304,46.6166667 C125.317425,46.3611111 125.690984,46.0222222 126.03498,45.6 L126.03498,45.6 L126.083355,45.6 L126.228479,46.8 L127.744213,46.8 L127.744213,38.6166667 L125.889857,38.6166667 L125.889857,44.2166667 C125.58886,44.6166667 125.306675,44.9055556 125.043303,45.0833333 C124.779931,45.2611111 124.476246,45.35 124.13225,45.35 C123.702254,45.35 123.390507,45.2111111 123.197009,44.9333333 C123.003511,44.6555556 122.906762,44.1777778 122.906762,43.5 L122.906762,43.5 L122.906762,38.6166667 L121.052406,38.6166667 L121.052406,43.75 C121.052406,44.7944444 121.245904,45.5972222 121.6329,46.1583333 C122.019896,46.7194444 122.638015,47 123.487256,47 Z M133.484655,47 C133.9899,47 134.473645,46.9166667 134.935891,46.75 C135.398136,46.5833333 135.817382,46.3722222 136.193628,46.1166667 L136.193628,46.1166667 L135.564759,44.9166667 C135.274512,45.1055556 134.981578,45.2527778 134.685956,45.3583333 C134.390334,45.4638889 134.070524,45.5166667 133.726528,45.5166667 C133.081534,45.5166667 132.552102,45.3194444 132.138231,44.925 C131.724361,44.5305556 131.474426,43.9666667 131.388427,43.2333333 L131.388427,43.2333333 L136.419376,43.2333333 C136.440876,43.1333333 136.459688,43 136.475813,42.8333333 C136.491938,42.6666667 136.5,42.4888889 136.5,42.3 C136.5,41.7333333 136.430126,41.2111111 136.290377,40.7333333 C136.150629,40.2555556 135.943693,39.8444444 135.669571,39.5 C135.395449,39.1555556 135.05414,38.8888889 134.645644,38.7 C134.237148,38.5111111 133.764153,38.4166667 133.226658,38.4166667 C132.764413,38.4166667 132.312917,38.5166667 131.872172,38.7166667 C131.431426,38.9166667 131.041743,39.2 130.703121,39.5666667 C130.364499,39.9333333 130.093065,40.3833333 129.888817,40.9166667 C129.684569,41.45 129.582445,42.05 129.582445,42.7166667 C129.582445,43.3944444 129.681881,43.9972222 129.880754,44.525 C130.079627,45.0527778 130.356437,45.5 130.711183,45.8666667 C131.06593,46.2333333 131.479801,46.5138889 131.952796,46.7083333 C132.425791,46.9027778 132.936411,47 133.484655,47 Z M134.887516,41.9333333 L131.372302,41.9333333 C131.458301,41.2666667 131.678674,40.7611111 132.03342,40.4166667 C132.388166,40.0722222 132.802037,39.9 133.275033,39.9 C133.823277,39.9 134.229085,40.0805556 134.492458,40.4416667 C134.75583,40.8027778 134.887516,41.3 134.887516,41.9333333 L134.887516,41.9333333 Z" id="Continue" fill="#FFFFFF" fill-rule="nonzero"></path>
            <path d="M221.251253,47 C221.927702,47 222.542412,46.8748839 223.095383,46.6246518 C223.648354,46.3744197 224.139585,46.0143918 224.569077,45.5445682 L224.569077,45.5445682 L223.570508,44.4261838 C223.269864,44.7325905 222.937008,44.9802693 222.57194,45.1692201 C222.206872,45.3581708 221.788117,45.4526462 221.315676,45.4526462 C220.424481,45.4526462 219.718504,45.1283658 219.197745,44.479805 C218.676986,43.8312442 218.416607,42.9350046 218.416607,41.7910864 C218.416607,41.2293408 218.489084,40.7237697 218.634037,40.2743733 C218.778991,39.8249768 218.982999,39.4445218 219.246063,39.1330084 C219.509127,38.8214949 219.820508,38.5814763 220.180208,38.4129526 C220.539907,38.244429 220.934503,38.1601671 221.363994,38.1601671 C221.772011,38.1601671 222.137079,38.2393222 222.459198,38.3976323 C222.781317,38.5559424 223.081961,38.7678737 223.361131,39.0334262 L223.361131,39.0334262 L224.359699,37.8844011 C224.026843,37.5473538 223.60272,37.2511606 223.08733,36.9958217 C222.57194,36.7404828 221.981389,36.6128134 221.315676,36.6128134 C220.649964,36.6128134 220.024517,36.7302693 219.439334,36.9651811 C218.854152,37.2000929 218.34413,37.542247 217.90927,37.9916435 C217.474409,38.4410399 217.130816,38.9900186 216.87849,39.6385794 C216.626163,40.2871402 216.5,41.0199629 216.5,41.8370474 C216.5,42.6643454 216.623479,43.3997214 216.870437,44.0431755 C217.117394,44.6866295 217.452935,45.227948 217.877058,45.6671309 C218.301181,46.1063138 218.80315,46.4382544 219.382963,46.6629526 C219.962777,46.8876509 220.58554,47 221.251253,47 Z M228.080172,47 C228.552613,47 228.990157,46.9029712 229.392806,46.7089136 C229.795455,46.5148561 230.173944,46.2748375 230.528275,45.9888579 L230.528275,45.9888579 L230.592699,45.9888579 L230.721546,46.816156 L232.251611,46.816156 L232.251611,42.3579387 C232.251611,41.3059424 232.007337,40.5016249 231.51879,39.9449861 C231.030243,39.3883473 230.292054,39.1100279 229.304223,39.1100279 C228.670723,39.1100279 228.080172,39.2070566 227.53257,39.4011142 C226.984968,39.5951718 226.491052,39.8249768 226.050823,40.0905292 L226.050823,40.0905292 L226.727273,41.270195 C227.081603,41.0659239 227.443987,40.8922934 227.814424,40.7493036 C228.18486,40.6063138 228.56335,40.5348189 228.949893,40.5348189 C229.218325,40.5348189 229.443808,40.5731198 229.626342,40.6497214 C229.808876,40.7263231 229.956514,40.8335655 230.069256,40.9714485 C230.181997,41.1093315 230.262527,41.2676416 230.310845,41.4463788 C230.359162,41.6251161 230.38869,41.8115135 230.399427,42.005571 C229.583393,42.0872795 228.882785,42.2047354 228.297602,42.3579387 C227.712419,42.5111421 227.229241,42.7000929 226.848067,42.9247911 C226.466893,43.1494893 226.187724,43.4175952 226.010558,43.7291086 C225.833393,44.0406221 225.74481,44.3955432 225.74481,44.7938719 C225.74481,45.457753 225.959556,45.9914113 226.389048,46.3948468 C226.81854,46.7982823 227.382248,47 228.080172,47 Z M228.676092,45.6211699 C228.343236,45.6211699 228.069435,45.5445682 227.854689,45.3913649 C227.639943,45.2381616 227.53257,44.9930362 227.53257,44.6559889 C227.53257,44.4721448 227.580888,44.2985144 227.677523,44.1350975 C227.774159,43.9716806 227.935218,43.8261374 228.160702,43.698468 C228.386185,43.5707985 228.68146,43.455896 229.046528,43.3537604 C229.411596,43.2516249 229.862563,43.1699164 230.399427,43.1086351 L230.399427,43.1086351 L230.399427,44.7938719 C230.098783,45.0594243 229.816929,45.2636955 229.553865,45.4066852 C229.290802,45.549675 228.99821,45.6211699 228.676092,45.6211699 Z M236.326414,46.816156 L236.326414,41.5612813 C236.65927,41.2548747 236.95723,41.0225162 237.220293,40.8642061 C237.483357,40.705896 237.786686,40.6267409 238.130279,40.6267409 C238.570508,40.6267409 238.887258,40.7544104 239.08053,41.0097493 C239.273801,41.2650882 239.370437,41.7042711 239.370437,42.3272981 L239.370437,42.3272981 L239.370437,46.816156 L241.22262,46.816156 L241.22262,42.097493 C241.22262,41.1374188 241.029349,40.3994893 240.642806,39.8837047 C240.256263,39.3679201 239.638869,39.1100279 238.790623,39.1100279 C238.243021,39.1100279 237.762527,39.2274838 237.349141,39.4623955 C236.935755,39.6973073 236.551897,39.9781801 236.197566,40.3050139 L236.197566,40.3050139 L236.133142,40.3050139 L236.004295,39.2938719 L234.47423,39.2938719 L234.47423,46.816156 L236.326414,46.816156 Z M246.795276,47 C247.246242,47 247.694524,46.9233983 248.140122,46.770195 C248.585719,46.6169916 248.996421,46.3871866 249.372226,46.0807799 L249.372226,46.0807799 L248.615247,44.9164345 C248.389764,45.090065 248.140122,45.2407149 247.866321,45.3683844 C247.59252,45.4960539 247.299928,45.5598886 246.988547,45.5598886 C246.365784,45.5598886 245.858447,45.332637 245.466535,44.8781337 C245.074624,44.4236305 244.878669,43.8184773 244.878669,43.0626741 C244.878669,42.2966574 245.077309,41.6863974 245.474588,41.2318942 C245.871868,40.7773909 246.392627,40.5501393 247.036865,40.5501393 C247.283822,40.5501393 247.51199,40.5986537 247.721367,40.6956825 C247.930744,40.7927112 248.142806,40.9280409 248.357552,41.1016713 L248.357552,41.1016713 L249.259485,39.9526462 C248.969578,39.7177344 248.639406,39.5185701 248.268969,39.3551532 C247.898533,39.1917363 247.455619,39.1100279 246.940229,39.1100279 C246.414102,39.1100279 245.912133,39.1993965 245.434324,39.3781337 C244.956514,39.5568709 244.535075,39.8147632 244.170007,40.1518106 C243.804939,40.4888579 243.515032,40.902507 243.300286,41.3927577 C243.08554,41.8830084 242.978168,42.4396472 242.978168,43.0626741 C242.978168,43.685701 243.074803,44.2423398 243.268074,44.7325905 C243.461346,45.2228412 243.729778,45.6364903 244.073372,45.9735376 C244.416965,46.310585 244.822298,46.5659239 245.28937,46.7395543 C245.756442,46.9131848 246.258411,47 246.795276,47 Z M253.930208,47 C254.43486,47 254.918039,46.9233983 255.379742,46.770195 C255.841446,46.6169916 256.2602,46.4229341 256.636006,46.1880223 L256.636006,46.1880223 L256.007874,45.0849582 C255.717967,45.2585887 255.425376,45.3939183 255.1301,45.4909471 C254.834825,45.5879759 254.51539,45.6364903 254.171797,45.6364903 C253.527559,45.6364903 252.998747,45.4551996 252.585361,45.0926184 C252.171976,44.7300371 251.922334,44.2116992 251.836435,43.5376045 L251.836435,43.5376045 L256.861489,43.5376045 C256.882963,43.4456825 256.901754,43.3231198 256.91786,43.1699164 C256.933966,43.0167131 256.942019,42.8532962 256.942019,42.6796657 C256.942019,42.1587744 256.872226,41.6787372 256.732641,41.2395543 C256.593057,40.8003714 256.386364,40.4224698 256.112563,40.1058496 C255.838762,39.7892293 255.497853,39.544104 255.089835,39.3704735 C254.681818,39.1968431 254.209377,39.1100279 253.672513,39.1100279 C253.210809,39.1100279 252.759843,39.2019499 252.319613,39.3857939 C251.879384,39.5696379 251.490157,39.8300836 251.151933,40.1671309 C250.813708,40.5041783 250.542591,40.9178273 250.338583,41.408078 C250.134574,41.8983287 250.03257,42.4498607 250.03257,43.0626741 C250.03257,43.685701 250.13189,44.2397864 250.33053,44.7249304 C250.52917,45.2100743 250.805655,45.6211699 251.159986,45.9582173 C251.514316,46.2952646 251.927702,46.5531569 252.400143,46.7318942 C252.872584,46.9106314 253.382606,47 253.930208,47 Z M255.331424,42.3426184 L251.820329,42.3426184 C251.906228,41.729805 252.126342,41.2650882 252.480673,40.948468 C252.835004,40.6318477 253.248389,40.4735376 253.72083,40.4735376 C254.268432,40.4735376 254.673765,40.6395079 254.936829,40.9714485 C255.199893,41.303389 255.331424,41.7604457 255.331424,42.3426184 L255.331424,42.3426184 Z M260.517538,47 C260.925555,47 261.253042,46.9489322 261.5,46.8467967 L261.5,46.8467967 L261.258411,45.5292479 C261.18325,45.549675 261.126879,45.5598886 261.089298,45.5598886 L261.089298,45.5598886 L260.968504,45.5598886 C260.871868,45.5598886 260.780601,45.516481 260.694703,45.4296657 C260.608805,45.3428505 260.565855,45.1922006 260.565855,44.9777159 L260.565855,44.9777159 L260.565855,36 L258.713672,36 L258.713672,44.8857939 C258.713672,45.5394615 258.847888,46.0552461 259.116321,46.4331476 C259.384753,46.8110492 259.851825,47 260.517538,47 Z" id="Cancel" fill="#FFFFFF" fill-rule="nonzero"></path>
            <rect id="Rectangle" stroke="#E3E4E5" fill="#FFFFFF" x="20" y="0.5" width="301" height="284"></rect>
            <rect id="Rectangle" fill="#222222" x="19.5" y="254" width="302" height="31"></rect>
            <rect id="Rectangle" stroke="#E3E4E5" fill="#FFFFFF" x="20" y="34.5" width="301" height="37"></rect>
            <rect id="Rectangle" fill="#4B4B4B" x="69.5" y="15" width="29" height="6"></rect>
            <rect id="Rectangle" fill="#4B4B4B" x="189.5" y="15" width="29" height="6"></rect>
            <rect id="Rectangle" fill="#4B4B4B" x="48.5" y="50" width="110" height="6"></rect>
            <rect id="Rectangle" fill="#4B4B4B" x="48.5" y="85" width="40" height="4"></rect>
            <rect id="Rectangle" fill="#4B4B4B" x="222.5" y="15" width="29" height="6"></rect>
            <rect id="Rectangle" fill="#4B4B4B" x="255.5" y="15" width="29" height="6"></rect>
            <rect id="Rectangle" fill="#FFFFFF" x="48.5" y="264" width="29" height="4"></rect>
            <rect id="Rectangle" fill="#FFFFFF" x="81.5" y="264" width="29" height="4"></rect>
            <rect id="Rectangle" fill="#FFFFFF" x="114.5" y="264" width="29" height="4"></rect>
            <circle id="Oval" fill="#EE020A" cx="56.5" cy="18" r="9"></circle>
            <rect id="Rectangle" fill="#EE020A" x="233.5" y="223" width="51" height="14" rx="1"></rect>
            <rect id="Rectangle" fill="#E3E4E5" x="199.5" y="223" width="30" height="14" rx="1"></rect>
            <rect id="Rectangle" stroke="#6E7272" x="49" y="93.5" width="96" height="11" rx="1"></rect>
            <rect id="Rectangle" fill="#4B4B4B" x="48.5" y="115" width="40" height="4"></rect>
            <rect id="Rectangle" stroke="#6E7272" x="49" y="123.5" width="96" height="11" rx="1"></rect>
            <rect id="Rectangle" fill="#4B4B4B" x="48.5" y="145" width="40" height="4"></rect>
            <rect id="Rectangle" stroke="#6E7272" x="49" y="153.5" width="96" height="56" rx="1"></rect>
            <path id="Line" d="M2.5,85 L2.5,193 L12.5,193 L0.5,217 L-11.5,193 L-1.5,193 L-1.5,85 L2.5,85 Z" fill="#5151D3" fill-rule="nonzero"></path>
            <path id="Line-2" d="M166.031746,218.936717 L190,231 L165.968421,242.936634 L165.994,232.936 L0.494722974,232.499993 L-1.50527006,232.494716 L-1.49471601,228.49473 L0.505277026,228.500007 L166.005,228.936 L166.031746,218.936717 Z" fill="#5151D3" fill-rule="nonzero"></path>
        </g>
    </g>
</svg>