<?xml version="1.0" encoding="UTF-8"?>
<svg viewBox="0 0 500 230" version="1.1" xmlns="http://www.w3.org/2000/svg" xmlns:xlink="http://www.w3.org/1999/xlink">
    <title>Artboard</title>
    <g id="Artboard" stroke="none" stroke-width="1" fill="none" fill-rule="evenodd">
        <rect id="Rectangle" fill="#EE020A" fill-rule="nonzero" x="0" y="0" width="6" height="230"></rect>
        <rect id="Rectangle" fill="#F5F5F5" fill-rule="nonzero" x="6" y="0" width="495" height="230"></rect>
        <path d="M33.5,12 C25.0095541,12 18,18.9329073 18,27.5495208 C18,36.1661342 24.910828,43 33.5,43 C42.089172,43 49,36.0670927 49,27.4504792 C49,18.8338658 41.9904459,12 33.5,12 Z" id="Path" fill="#EE020A" fill-rule="nonzero"></path>
        <g id="Group" transform="translate(25.000000, 19.000000)" fill="#F5F5F5" fill-rule="nonzero">
            <rect id="Rectangle" transform="translate(8.909875, 8.364395) rotate(-45.000000) translate(-8.909875, -8.364395) " x="-1.0900291" y="6.71441082" width="19.9998082" height="3.29996835"></rect>
            <rect id="Rectangle" transform="translate(8.847765, 8.285095) rotate(-45.000000) translate(-8.847765, -8.285095) " x="7.19778082" y="-1.7148091" width="3.29996835" height="19.9998082"></rect>
        </g>
        <rect id="Rectangle" stroke="#6E7272" x="77.5" y="66.5" width="348" height="39" rx="3"></rect>
        <path d="M94.392,92.192 C94.904,92.192 95.344,92.1066667 95.712,91.936 C96.08,91.7653333 96.3786667,91.5306667 96.608,91.232 C96.8373333,90.9333333 97.008,90.584 97.12,90.184 C97.232,89.784 97.288,89.36 97.288,88.912 L97.288,88.912 L97.288,81.504 L95.944,81.504 L95.944,88.784 C95.944,89.584 95.8053333,90.1573333 95.528,90.504 C95.2506667,90.8506667 94.8293333,91.024 94.264,91.024 C93.8906667,91.024 93.5546667,90.9306667 93.256,90.744 C92.9573333,90.5573333 92.6906667,90.256 92.456,89.84 L92.456,89.84 L91.496,90.512 C92.1146667,91.632 93.08,92.192 94.392,92.192 Z M103.016,92.192 C103.496,92.192 103.952,92.1013333 104.384,91.92 C104.816,91.7386667 105.197333,91.4746667 105.528,91.128 C105.858667,90.7813333 106.122667,90.3546667 106.32,89.848 C106.517333,89.3413333 106.616,88.768 106.616,88.128 C106.616,87.4773333 106.517333,86.8986667 106.32,86.392 C106.122667,85.8853333 105.858667,85.456 105.528,85.104 C105.197333,84.752 104.816,84.4853333 104.384,84.304 C103.952,84.1226667 103.496,84.032 103.016,84.032 C102.536,84.032 102.08,84.1226667 101.648,84.304 C101.216,84.4853333 100.834667,84.752 100.504,85.104 C100.173333,85.456 99.9093333,85.8853333 99.712,86.392 C99.5146667,86.8986667 99.416,87.4773333 99.416,88.128 C99.416,88.768 99.5146667,89.3413333 99.712,89.848 C99.9093333,90.3546667 100.173333,90.7813333 100.504,91.128 C100.834667,91.4746667 101.216,91.7386667 101.648,91.92 C102.08,92.1013333 102.536,92.192 103.016,92.192 Z M103.016,91.104 C102.685333,91.104 102.381333,91.032 102.104,90.888 C101.826667,90.744 101.589333,90.5413333 101.392,90.28 C101.194667,90.0186667 101.042667,89.7066667 100.936,89.344 C100.829333,88.9813333 100.776,88.576 100.776,88.128 C100.776,87.68 100.829333,87.272 100.936,86.904 C101.042667,86.536 101.194667,86.2186667 101.392,85.952 C101.589333,85.6853333 101.826667,85.48 102.104,85.336 C102.381333,85.192 102.685333,85.12 103.016,85.12 C103.346667,85.12 103.650667,85.192 103.928,85.336 C104.205333,85.48 104.442667,85.6853333 104.64,85.952 C104.837333,86.2186667 104.989333,86.536 105.096,86.904 C105.202667,87.272 105.256,87.68 105.256,88.128 C105.256,88.576 105.202667,88.9813333 105.096,89.344 C104.989333,89.7066667 104.837333,90.0186667 104.64,90.28 C104.442667,90.5413333 104.205333,90.744 103.928,90.888 C103.650667,91.032 103.346667,91.104 103.016,91.104 Z M111.816,92.192 C112.349333,92.192 112.824,92.112 113.24,91.952 C113.656,91.792 114.034667,91.6053333 114.376,91.392 L114.376,91.392 L113.912,90.528 C113.624,90.7093333 113.322667,90.856 113.008,90.968 C112.693333,91.08 112.349333,91.136 111.976,91.136 C111.229333,91.136 110.624,90.8933333 110.16,90.408 C109.696,89.9226667 109.437333,89.264 109.384,88.432 L109.384,88.432 L114.632,88.432 C114.653333,88.336 114.666667,88.2213333 114.672,88.088 C114.677333,87.9546667 114.68,87.8186667 114.68,87.68 C114.68,87.1253333 114.610667,86.624 114.472,86.176 C114.333333,85.728 114.133333,85.344 113.872,85.024 C113.610667,84.704 113.285333,84.4586667 112.896,84.288 C112.506667,84.1173333 112.066667,84.032 111.576,84.032 C111.128,84.032 110.696,84.1253333 110.28,84.312 C109.864,84.4986667 109.493333,84.768 109.168,85.12 C108.842667,85.472 108.581333,85.9013333 108.384,86.408 C108.186667,86.9146667 108.088,87.488 108.088,88.128 C108.088,88.768 108.184,89.3386667 108.376,89.84 C108.568,90.3413333 108.832,90.7653333 109.168,91.112 C109.504,91.4586667 109.898667,91.7253333 110.352,91.912 C110.805333,92.0986667 111.293333,92.192 111.816,92.192 Z M113.528,87.488 L109.368,87.488 C109.410667,87.104 109.498667,86.7626667 109.632,86.464 C109.765333,86.1653333 109.933333,85.912 110.136,85.704 C110.338667,85.496 110.565333,85.3386667 110.816,85.232 C111.066667,85.1253333 111.330667,85.072 111.608,85.072 C112.216,85.072 112.688,85.2773333 113.024,85.688 C113.36,86.0986667 113.528,86.6986667 113.528,87.488 L113.528,87.488 Z" id="Joe" fill="#000000" fill-rule="nonzero"></path>
        <rect id="Rectangle" stroke="#6E7272" x="77.5" y="123.5" width="348" height="39" rx="3"></rect>
        <path d="M95.352,148.192 C95.9066667,148.192 96.4026667,148.114667 96.84,147.96 C97.2773333,147.805333 97.6506667,147.592 97.96,147.32 C98.2693333,147.048 98.5066667,146.730667 98.672,146.368 C98.8373333,146.005333 98.92,145.616 98.92,145.2 C98.92,144.816 98.864,144.477333 98.752,144.184 C98.64,143.890667 98.488,143.634667 98.296,143.416 C98.104,143.197333 97.8746667,143.005333 97.608,142.84 C97.3413333,142.674667 97.0586667,142.528 96.76,142.4 L96.76,142.4 L95.272,141.76 C95.0586667,141.674667 94.8506667,141.581333 94.648,141.48 C94.4453333,141.378667 94.2586667,141.261333 94.088,141.128 C93.9173333,140.994667 93.7813333,140.84 93.68,140.664 C93.5786667,140.488 93.528,140.272 93.528,140.016 C93.528,139.536 93.7066667,139.16 94.064,138.888 C94.4213333,138.616 94.8933333,138.48 95.48,138.48 C95.9706667,138.48 96.4106667,138.568 96.8,138.744 C97.1893333,138.92 97.544,139.162667 97.864,139.472 L97.864,139.472 L98.584,138.608 C98.2106667,138.224 97.7573333,137.912 97.224,137.672 C96.6906667,137.432 96.1093333,137.312 95.48,137.312 C95,137.312 94.56,137.381333 94.16,137.52 C93.76,137.658667 93.4133333,137.853333 93.12,138.104 C92.8266667,138.354667 92.5973333,138.650667 92.432,138.992 C92.2666667,139.333333 92.184,139.701333 92.184,140.096 C92.184,140.48 92.248,140.818667 92.376,141.112 C92.504,141.405333 92.6693333,141.658667 92.872,141.872 C93.0746667,142.085333 93.304,142.266667 93.56,142.416 C93.816,142.565333 94.0666667,142.693333 94.312,142.8 L94.312,142.8 L95.816,143.456 C96.0613333,143.573333 96.2906667,143.685333 96.504,143.792 C96.7173333,143.898667 96.9013333,144.018667 97.056,144.152 C97.2106667,144.285333 97.3333333,144.445333 97.424,144.632 C97.5146667,144.818667 97.56,145.045333 97.56,145.312 C97.56,145.824 97.368,146.237333 96.984,146.552 C96.6,146.866667 96.0613333,147.024 95.368,147.024 C94.824,147.024 94.2986667,146.904 93.792,146.664 C93.2853333,146.424 92.8453333,146.106667 92.472,145.712 L92.472,145.712 L91.672,146.64 C92.1306667,147.12 92.6746667,147.498667 93.304,147.776 C93.9333333,148.053333 94.616,148.192 95.352,148.192 Z M103.128,148.192 C103.672,148.192 104.144,148.064 104.544,147.808 C104.944,147.552 105.325333,147.210667 105.688,146.784 L105.688,146.784 L105.736,146.784 L105.848,148 L106.936,148 L106.936,140.224 L105.624,140.224 L105.624,145.744 C105.250667,146.202667 104.909333,146.536 104.6,146.744 C104.290667,146.952 103.933333,147.056 103.528,147.056 C103.016,147.056 102.645333,146.893333 102.416,146.568 C102.186667,146.242667 102.072,145.712 102.072,144.976 L102.072,144.976 L102.072,140.224 L100.744,140.224 L100.744,145.152 C100.744,146.154667 100.933333,146.912 101.312,147.424 C101.690667,147.936 102.296,148.192 103.128,148.192 Z M110.872,148 L110.872,143.008 C111.138667,142.346667 111.450667,141.882667 111.808,141.616 C112.165333,141.349333 112.509333,141.216 112.84,141.216 C113,141.216 113.133333,141.226667 113.24,141.248 C113.346667,141.269333 113.464,141.301333 113.592,141.344 L113.592,141.344 L113.848,140.192 C113.602667,140.085333 113.325333,140.032 113.016,140.032 C112.568,140.032 112.154667,140.176 111.776,140.464 C111.397333,140.752 111.074667,141.141333 110.808,141.632 L110.808,141.632 L110.76,141.632 L110.648,140.224 L109.56,140.224 L109.56,148 L110.872,148 Z M116.424,148 L116.424,142.368 C116.818667,141.973333 117.170667,141.674667 117.48,141.472 C117.789333,141.269333 118.146667,141.168 118.552,141.168 C119.064,141.168 119.437333,141.330667 119.672,141.656 C119.906667,141.981333 120.024,142.512 120.024,143.248 L120.024,143.248 L120.024,148 L121.336,148 L121.336,143.072 C121.336,142.069333 121.146667,141.312 120.768,140.8 C120.389333,140.288 119.789333,140.032 118.968,140.032 C118.424,140.032 117.946667,140.157333 117.536,140.408 C117.125333,140.658667 116.733333,140.970667 116.36,141.344 L116.36,141.344 L116.312,141.344 L116.2,140.224 L115.112,140.224 L115.112,148 L116.424,148 Z M125.656,148.192 C126.146667,148.192 126.605333,148.082667 127.032,147.864 C127.458667,147.645333 127.858667,147.381333 128.232,147.072 L128.232,147.072 L128.28,147.072 L128.392,148 L129.48,148 L129.48,143.232 C129.48,142.261333 129.266667,141.485333 128.84,140.904 C128.413333,140.322667 127.725333,140.032 126.776,140.032 C126.146667,140.032 125.570667,140.141333 125.048,140.36 C124.525333,140.578667 124.082667,140.805333 123.72,141.04 L123.72,141.04 L124.232,141.952 C124.541333,141.738667 124.893333,141.546667 125.288,141.376 C125.682667,141.205333 126.104,141.12 126.552,141.12 C126.872,141.12 127.136,141.176 127.344,141.288 C127.552,141.4 127.714667,141.546667 127.832,141.728 C127.949333,141.909333 128.032,142.117333 128.08,142.352 C128.128,142.586667 128.152,142.826667 128.152,143.072 C126.488,143.253333 125.277333,143.570667 124.52,144.024 C123.762667,144.477333 123.384,145.130667 123.384,145.984 C123.384,146.688 123.6,147.232 124.032,147.616 C124.464,148 125.005333,148.192 125.656,148.192 Z M126.04,147.136 C125.656,147.136 125.330667,147.04 125.064,146.848 C124.797333,146.656 124.664,146.336 124.664,145.888 C124.664,145.642667 124.725333,145.416 124.848,145.208 C124.970667,145 125.168,144.816 125.44,144.656 C125.712,144.496 126.069333,144.357333 126.512,144.24 C126.954667,144.122667 127.501333,144.021333 128.152,143.936 L128.152,143.936 L128.152,146.096 C127.778667,146.437333 127.426667,146.696 127.096,146.872 C126.765333,147.048 126.413333,147.136 126.04,147.136 Z M133.24,148 L133.24,142.368 C133.954667,141.568 134.605333,141.168 135.192,141.168 C135.693333,141.168 136.061333,141.330667 136.296,141.656 C136.530667,141.981333 136.648,142.512 136.648,143.248 L136.648,143.248 L136.648,148 L137.96,148 L137.96,142.368 C138.674667,141.568 139.325333,141.168 139.912,141.168 C140.402667,141.168 140.765333,141.330667 141,141.656 C141.234667,141.981333 141.352,142.512 141.352,143.248 L141.352,143.248 L141.352,148 L142.664,148 L142.664,143.072 C142.664,142.069333 142.469333,141.312 142.08,140.8 C141.690667,140.288 141.096,140.032 140.296,140.032 C139.816,140.032 139.370667,140.168 138.96,140.44 C138.549333,140.712 138.141333,141.072 137.736,141.52 C137.576,141.050667 137.328,140.685333 136.992,140.424 C136.656,140.162667 136.189333,140.032 135.592,140.032 C135.122667,140.032 134.688,140.157333 134.288,140.408 C133.888,140.658667 133.517333,140.970667 133.176,141.344 L133.176,141.344 L133.128,141.344 L133.016,140.224 L131.928,140.224 L131.928,148 L133.24,148 Z M148.344,148.192 C148.877333,148.192 149.352,148.112 149.768,147.952 C150.184,147.792 150.562667,147.605333 150.904,147.392 L150.904,147.392 L150.44,146.528 C150.152,146.709333 149.850667,146.856 149.536,146.968 C149.221333,147.08 148.877333,147.136 148.504,147.136 C147.757333,147.136 147.152,146.893333 146.688,146.408 C146.224,145.922667 145.965333,145.264 145.912,144.432 L145.912,144.432 L151.16,144.432 C151.181333,144.336 151.194667,144.221333 151.2,144.088 C151.205333,143.954667 151.208,143.818667 151.208,143.68 C151.208,143.125333 151.138667,142.624 151,142.176 C150.861333,141.728 150.661333,141.344 150.4,141.024 C150.138667,140.704 149.813333,140.458667 149.424,140.288 C149.034667,140.117333 148.594667,140.032 148.104,140.032 C147.656,140.032 147.224,140.125333 146.808,140.312 C146.392,140.498667 146.021333,140.768 145.696,141.12 C145.370667,141.472 145.109333,141.901333 144.912,142.408 C144.714667,142.914667 144.616,143.488 144.616,144.128 C144.616,144.768 144.712,145.338667 144.904,145.84 C145.096,146.341333 145.36,146.765333 145.696,147.112 C146.032,147.458667 146.426667,147.725333 146.88,147.912 C147.333333,148.098667 147.821333,148.192 148.344,148.192 Z M150.056,143.488 L145.896,143.488 C145.938667,143.104 146.026667,142.762667 146.16,142.464 C146.293333,142.165333 146.461333,141.912 146.664,141.704 C146.866667,141.496 147.093333,141.338667 147.344,141.232 C147.594667,141.125333 147.858667,141.072 148.136,141.072 C148.744,141.072 149.216,141.277333 149.552,141.688 C149.888,142.098667 150.056,142.698667 150.056,143.488 L150.056,143.488 Z" id="Surname" fill="#969696" fill-rule="nonzero"></path>
    </g>
</svg>