<?xml version="1.0" encoding="UTF-8"?>
<svg viewBox="0 0 500 250" version="1.1" xmlns="http://www.w3.org/2000/svg" xmlns:xlink="http://www.w3.org/1999/xlink">
    <title>Artboard</title>
    <g id="Artboard" stroke="none" stroke-width="1" fill="none" fill-rule="evenodd">
        <rect id="Rectangle" fill="#EE020A" fill-rule="nonzero" x="0" y="0" width="6" height="250"></rect>
        <rect id="Rectangle" fill="#F5F5F5" fill-rule="nonzero" x="6" y="0" width="495" height="250"></rect>
        <path d="M33.5,12 C25.0095541,12 18,18.9329073 18,27.5495208 C18,36.1661342 24.910828,43 33.5,43 C42.089172,43 49,36.0670927 49,27.4504792 C49,18.8338658 41.9904459,12 33.5,12 Z" id="Path" fill="#EE020A" fill-rule="nonzero"></path>
        <g id="Group" transform="translate(25.000000, 19.000000)" fill="#F5F5F5" fill-rule="nonzero">
            <rect id="Rectangle" transform="translate(8.909875, 8.364395) rotate(-45.000000) translate(-8.909875, -8.364395) " x="-1.0900291" y="6.71441082" width="19.9998082" height="3.29996835"></rect>
            <rect id="Rectangle" transform="translate(8.847765, 8.285095) rotate(-45.000000) translate(-8.847765, -8.285095) " x="7.19778082" y="-1.7148091" width="3.29996835" height="19.9998082"></rect>
        </g>
        <path d="M140.44,47.24 C141.133333,47.24 141.753333,47.1433333 142.3,46.95 C142.846667,46.7566667 143.313333,46.49 143.7,46.15 C144.086667,45.81 144.383333,45.4133333 144.59,44.96 C144.796667,44.5066667 144.9,44.02 144.9,43.5 C144.9,43.02 144.83,42.5966667 144.69,42.23 C144.55,41.8633333 144.36,41.5433333 144.12,41.27 C143.88,40.9966667 143.593333,40.7566667 143.26,40.55 C142.926667,40.3433333 142.573333,40.16 142.2,40 L142.2,40 L140.34,39.2 C140.073333,39.0933333 139.813333,38.9766667 139.56,38.85 C139.306667,38.7233333 139.073333,38.5766667 138.86,38.41 C138.646667,38.2433333 138.476667,38.05 138.35,37.83 C138.223333,37.61 138.16,37.34 138.16,37.02 C138.16,36.42 138.383333,35.95 138.83,35.61 C139.276667,35.27 139.866667,35.1 140.6,35.1 C141.213333,35.1 141.763333,35.21 142.25,35.43 C142.736667,35.65 143.18,35.9533333 143.58,36.34 L143.58,36.34 L144.48,35.26 C144.013333,34.78 143.446667,34.39 142.78,34.09 C142.113333,33.79 141.386667,33.64 140.6,33.64 C140,33.64 139.45,33.7266667 138.95,33.9 C138.45,34.0733333 138.016667,34.3166667 137.65,34.63 C137.283333,34.9433333 136.996667,35.3133333 136.79,35.74 C136.583333,36.1666667 136.48,36.6266667 136.48,37.12 C136.48,37.6 136.56,38.0233333 136.72,38.39 C136.88,38.7566667 137.086667,39.0733333 137.34,39.34 C137.593333,39.6066667 137.88,39.8333333 138.2,40.02 C138.52,40.2066667 138.833333,40.3666667 139.14,40.5 L139.14,40.5 L141.02,41.32 C141.326667,41.4666667 141.613333,41.6066667 141.88,41.74 C142.146667,41.8733333 142.376667,42.0233333 142.57,42.19 C142.763333,42.3566667 142.916667,42.5566667 143.03,42.79 C143.143333,43.0233333 143.2,43.3066667 143.2,43.64 C143.2,44.28 142.96,44.7966667 142.48,45.19 C142,45.5833333 141.326667,45.78 140.46,45.78 C139.78,45.78 139.123333,45.63 138.49,45.33 C137.856667,45.03 137.306667,44.6333333 136.84,44.14 L136.84,44.14 L135.84,45.3 C136.413333,45.9 137.093333,46.3733333 137.88,46.72 C138.666667,47.0666667 139.52,47.24 140.44,47.24 Z M151.26,47.24 C151.926667,47.24 152.52,47.14 153.04,46.94 C153.56,46.74 154.033333,46.5066667 154.46,46.24 L154.46,46.24 L153.88,45.16 C153.52,45.3866667 153.143333,45.57 152.75,45.71 C152.356667,45.85 151.926667,45.92 151.46,45.92 C150.526667,45.92 149.77,45.6166667 149.19,45.01 C148.61,44.4033333 148.286667,43.58 148.22,42.54 L148.22,42.54 L154.78,42.54 C154.806667,42.42 154.823333,42.2766667 154.83,42.11 C154.836667,41.9433333 154.84,41.7733333 154.84,41.6 C154.84,40.9066667 154.753333,40.28 154.58,39.72 C154.406667,39.16 154.156667,38.68 153.83,38.28 C153.503333,37.88 153.096667,37.5733333 152.61,37.36 C152.123333,37.1466667 151.573333,37.04 150.96,37.04 C150.4,37.04 149.86,37.1566667 149.34,37.39 C148.82,37.6233333 148.356667,37.96 147.95,38.4 C147.543333,38.84 147.216667,39.3766667 146.97,40.01 C146.723333,40.6433333 146.6,41.36 146.6,42.16 C146.6,42.96 146.72,43.6733333 146.96,44.3 C147.2,44.9266667 147.53,45.4566667 147.95,45.89 C148.37,46.3233333 148.863333,46.6566667 149.43,46.89 C149.996667,47.1233333 150.606667,47.24 151.26,47.24 Z M153.4,41.36 L148.2,41.36 C148.253333,40.88 148.363333,40.4533333 148.53,40.08 C148.696667,39.7066667 148.906667,39.39 149.16,39.13 C149.413333,38.87 149.696667,38.6733333 150.01,38.54 C150.323333,38.4066667 150.653333,38.34 151,38.34 C151.76,38.34 152.35,38.5966667 152.77,39.11 C153.19,39.6233333 153.4,40.3733333 153.4,41.36 L153.4,41.36 Z M158.98,47.24 C159.206667,47.24 159.393333,47.2266667 159.54,47.2 C159.686667,47.1733333 159.813333,47.1333333 159.92,47.08 L159.92,47.08 L159.7,45.84 C159.606667,45.8666667 159.536667,45.88 159.49,45.88 L159.49,45.88 L159.34,45.88 C159.22,45.88 159.113333,45.8266667 159.02,45.72 C158.926667,45.6133333 158.88,45.4266667 158.88,45.16 L158.88,45.16 L158.88,32.76 L157.24,32.76 L157.24,45.04 C157.24,45.76 157.373333,46.3066667 157.64,46.68 C157.906667,47.0533333 158.353333,47.24 158.98,47.24 Z M166.28,47.24 C166.946667,47.24 167.54,47.14 168.06,46.94 C168.58,46.74 169.053333,46.5066667 169.48,46.24 L169.48,46.24 L168.9,45.16 C168.54,45.3866667 168.163333,45.57 167.77,45.71 C167.376667,45.85 166.946667,45.92 166.48,45.92 C165.546667,45.92 164.79,45.6166667 164.21,45.01 C163.63,44.4033333 163.306667,43.58 163.24,42.54 L163.24,42.54 L169.8,42.54 C169.826667,42.42 169.843333,42.2766667 169.85,42.11 C169.856667,41.9433333 169.86,41.7733333 169.86,41.6 C169.86,40.9066667 169.773333,40.28 169.6,39.72 C169.426667,39.16 169.176667,38.68 168.85,38.28 C168.523333,37.88 168.116667,37.5733333 167.63,37.36 C167.143333,37.1466667 166.593333,37.04 165.98,37.04 C165.42,37.04 164.88,37.1566667 164.36,37.39 C163.84,37.6233333 163.376667,37.96 162.97,38.4 C162.563333,38.84 162.236667,39.3766667 161.99,40.01 C161.743333,40.6433333 161.62,41.36 161.62,42.16 C161.62,42.96 161.74,43.6733333 161.98,44.3 C162.22,44.9266667 162.55,45.4566667 162.97,45.89 C163.39,46.3233333 163.883333,46.6566667 164.45,46.89 C165.016667,47.1233333 165.626667,47.24 166.28,47.24 Z M168.42,41.36 L163.22,41.36 C163.273333,40.88 163.383333,40.4533333 163.55,40.08 C163.716667,39.7066667 163.926667,39.39 164.18,39.13 C164.433333,38.87 164.716667,38.6733333 165.03,38.54 C165.343333,38.4066667 165.673333,38.34 166.02,38.34 C166.78,38.34 167.37,38.5966667 167.79,39.11 C168.21,39.6233333 168.42,40.3733333 168.42,41.36 L168.42,41.36 Z M176.1,47.24 C176.686667,47.24 177.246667,47.13 177.78,46.91 C178.313333,46.69 178.8,46.3866667 179.24,46 L179.24,46 L178.52,44.9 C178.213333,45.1666667 177.87,45.3966667 177.49,45.59 C177.11,45.7833333 176.693333,45.88 176.24,45.88 C175.8,45.88 175.393333,45.79 175.02,45.61 C174.646667,45.43 174.33,45.1766667 174.07,44.85 C173.81,44.5233333 173.606667,44.1333333 173.46,43.68 C173.313333,43.2266667 173.24,42.72 173.24,42.16 C173.24,41.6 173.316667,41.09 173.47,40.63 C173.623333,40.17 173.833333,39.7733333 174.1,39.44 C174.366667,39.1066667 174.686667,38.85 175.06,38.67 C175.433333,38.49 175.84,38.4 176.28,38.4 C176.666667,38.4 177.016667,38.48 177.33,38.64 C177.643333,38.8 177.94,39.0066667 178.22,39.26 L178.22,39.26 L179.06,38.18 C178.713333,37.8733333 178.313333,37.6066667 177.86,37.38 C177.406667,37.1533333 176.86,37.04 176.22,37.04 C175.593333,37.04 174.996667,37.1533333 174.43,37.38 C173.863333,37.6066667 173.366667,37.94 172.94,38.38 C172.513333,38.82 172.173333,39.3566667 171.92,39.99 C171.666667,40.6233333 171.54,41.3466667 171.54,42.16 C171.54,42.96 171.656667,43.6766667 171.89,44.31 C172.123333,44.9433333 172.443333,45.4766667 172.85,45.91 C173.256667,46.3433333 173.74,46.6733333 174.3,46.9 C174.86,47.1266667 175.46,47.24 176.1,47.24 Z M184.24,47.24 C184.546667,47.24 184.856667,47.2033333 185.17,47.13 C185.483333,47.0566667 185.773333,46.9733333 186.04,46.88 L186.04,46.88 L185.72,45.64 C185.56,45.7066667 185.38,45.7666667 185.18,45.82 C184.98,45.8733333 184.793333,45.9 184.62,45.9 C184.06,45.9 183.67,45.7366667 183.45,45.41 C183.23,45.0833333 183.12,44.62 183.12,44.02 L183.12,44.02 L183.12,38.62 L185.74,38.62 L185.74,37.28 L183.12,37.28 L183.12,34.56 L181.74,34.56 L181.54,37.28 L180.02,37.38 L180.02,38.62 L181.46,38.62 L181.46,44 C181.46,44.48 181.506667,44.92 181.6,45.32 C181.693333,45.72 181.85,46.06 182.07,46.34 C182.29,46.62 182.576667,46.84 182.93,47 C183.283333,47.16 183.72,47.24 184.24,47.24 Z M193.58,47 L193.58,39.96 C194.473333,38.96 195.286667,38.46 196.02,38.46 C196.646667,38.46 197.106667,38.6633333 197.4,39.07 C197.693333,39.4766667 197.84,40.14 197.84,41.06 L197.84,41.06 L197.84,47 L199.48,47 L199.48,39.96 C200.373333,38.96 201.186667,38.46 201.92,38.46 C202.533333,38.46 202.986667,38.6633333 203.28,39.07 C203.573333,39.4766667 203.72,40.14 203.72,41.06 L203.72,41.06 L203.72,47 L205.36,47 L205.36,40.84 C205.36,39.5866667 205.116667,38.64 204.63,38 C204.143333,37.36 203.4,37.04 202.4,37.04 C201.8,37.04 201.243333,37.21 200.73,37.55 C200.216667,37.89 199.706667,38.34 199.2,38.9 C199,38.3133333 198.69,37.8566667 198.27,37.53 C197.85,37.2033333 197.266667,37.04 196.52,37.04 C195.933333,37.04 195.39,37.1966667 194.89,37.51 C194.39,37.8233333 193.926667,38.2133333 193.5,38.68 L193.5,38.68 L193.44,38.68 L193.3,37.28 L191.94,37.28 L191.94,47 L193.58,47 Z M210.76,47.24 C211.373333,47.24 211.946667,47.1033333 212.48,46.83 C213.013333,46.5566667 213.513333,46.2266667 213.98,45.84 L213.98,45.84 L214.04,45.84 L214.18,47 L215.54,47 L215.54,41.04 C215.54,39.8266667 215.273333,38.8566667 214.74,38.13 C214.206667,37.4033333 213.346667,37.04 212.16,37.04 C211.373333,37.04 210.653333,37.1766667 210,37.45 C209.346667,37.7233333 208.793333,38.0066667 208.34,38.3 L208.34,38.3 L208.98,39.44 C209.366667,39.1733333 209.806667,38.9333333 210.3,38.72 C210.793333,38.5066667 211.32,38.4 211.88,38.4 C212.28,38.4 212.61,38.47 212.87,38.61 C213.13,38.75 213.333333,38.9333333 213.48,39.16 C213.626667,39.3866667 213.73,39.6466667 213.79,39.94 C213.85,40.2333333 213.88,40.5333333 213.88,40.84 C211.8,41.0666667 210.286667,41.4633333 209.34,42.03 C208.393333,42.5966667 207.92,43.4133333 207.92,44.48 C207.92,45.36 208.19,46.04 208.73,46.52 C209.27,47 209.946667,47.24 210.76,47.24 Z M211.24,45.92 C210.76,45.92 210.353333,45.8 210.02,45.56 C209.686667,45.32 209.52,44.92 209.52,44.36 C209.52,44.0533333 209.596667,43.77 209.75,43.51 C209.903333,43.25 210.15,43.02 210.49,42.82 C210.83,42.62 211.276667,42.4466667 211.83,42.3 C212.383333,42.1533333 213.066667,42.0266667 213.88,41.92 L213.88,41.92 L213.88,44.62 C213.413333,45.0466667 212.973333,45.37 212.56,45.59 C212.146667,45.81 211.706667,45.92 211.24,45.92 Z M220.24,47 L220.24,40.76 C220.573333,39.9333333 220.963333,39.3533333 221.41,39.02 C221.856667,38.6866667 222.286667,38.52 222.7,38.52 C222.9,38.52 223.066667,38.5333333 223.2,38.56 C223.333333,38.5866667 223.48,38.6266667 223.64,38.68 L223.64,38.68 L223.96,37.24 C223.653333,37.1066667 223.306667,37.04 222.92,37.04 C222.36,37.04 221.843333,37.22 221.37,37.58 C220.896667,37.94 220.493333,38.4266667 220.16,39.04 L220.16,39.04 L220.1,39.04 L219.96,37.28 L218.6,37.28 L218.6,47 L220.24,47 Z M227.16,47 L227.16,44.44 L228.98,42.32 L231.82,47 L233.62,47 L229.92,41.18 L233.18,37.28 L231.36,37.28 L227.22,42.4 L227.16,42.4 L227.16,32.76 L225.54,32.76 L225.54,47 L227.16,47 Z M239.02,47.24 C239.686667,47.24 240.28,47.14 240.8,46.94 C241.32,46.74 241.793333,46.5066667 242.22,46.24 L242.22,46.24 L241.64,45.16 C241.28,45.3866667 240.903333,45.57 240.51,45.71 C240.116667,45.85 239.686667,45.92 239.22,45.92 C238.286667,45.92 237.53,45.6166667 236.95,45.01 C236.37,44.4033333 236.046667,43.58 235.98,42.54 L235.98,42.54 L242.54,42.54 C242.566667,42.42 242.583333,42.2766667 242.59,42.11 C242.596667,41.9433333 242.6,41.7733333 242.6,41.6 C242.6,40.9066667 242.513333,40.28 242.34,39.72 C242.166667,39.16 241.916667,38.68 241.59,38.28 C241.263333,37.88 240.856667,37.5733333 240.37,37.36 C239.883333,37.1466667 239.333333,37.04 238.72,37.04 C238.16,37.04 237.62,37.1566667 237.1,37.39 C236.58,37.6233333 236.116667,37.96 235.71,38.4 C235.303333,38.84 234.976667,39.3766667 234.73,40.01 C234.483333,40.6433333 234.36,41.36 234.36,42.16 C234.36,42.96 234.48,43.6733333 234.72,44.3 C234.96,44.9266667 235.29,45.4566667 235.71,45.89 C236.13,46.3233333 236.623333,46.6566667 237.19,46.89 C237.756667,47.1233333 238.366667,47.24 239.02,47.24 Z M241.16,41.36 L235.96,41.36 C236.013333,40.88 236.123333,40.4533333 236.29,40.08 C236.456667,39.7066667 236.666667,39.39 236.92,39.13 C237.173333,38.87 237.456667,38.6733333 237.77,38.54 C238.083333,38.4066667 238.413333,38.34 238.76,38.34 C239.52,38.34 240.11,38.5966667 240.53,39.11 C240.95,39.6233333 241.16,40.3733333 241.16,41.36 L241.16,41.36 Z M247.86,47.24 C248.166667,47.24 248.476667,47.2033333 248.79,47.13 C249.103333,47.0566667 249.393333,46.9733333 249.66,46.88 L249.66,46.88 L249.34,45.64 C249.18,45.7066667 249,45.7666667 248.8,45.82 C248.6,45.8733333 248.413333,45.9 248.24,45.9 C247.68,45.9 247.29,45.7366667 247.07,45.41 C246.85,45.0833333 246.74,44.62 246.74,44.02 L246.74,44.02 L246.74,38.62 L249.36,38.62 L249.36,37.28 L246.74,37.28 L246.74,34.56 L245.36,34.56 L245.16,37.28 L243.64,37.38 L243.64,38.62 L245.08,38.62 L245.08,44 C245.08,44.48 245.126667,44.92 245.22,45.32 C245.313333,45.72 245.47,46.06 245.69,46.34 C245.91,46.62 246.196667,46.84 246.55,47 C246.903333,47.16 247.34,47.24 247.86,47.24 Z M252.4,35.28 C252.72,35.28 252.99,35.18 253.21,34.98 C253.43,34.78 253.54,34.5266667 253.54,34.22 C253.54,33.9 253.43,33.6433333 253.21,33.45 C252.99,33.2566667 252.72,33.16 252.4,33.16 C252.08,33.16 251.81,33.2566667 251.59,33.45 C251.37,33.6433333 251.26,33.9 251.26,34.22 C251.26,34.5266667 251.37,34.78 251.59,34.98 C251.81,35.18 252.08,35.28 252.4,35.28 Z M253.2,47 L253.2,37.28 L251.56,37.28 L251.56,47 L253.2,47 Z M258.12,47 L258.12,39.96 C258.613333,39.4666667 259.053333,39.0933333 259.44,38.84 C259.826667,38.5866667 260.273333,38.46 260.78,38.46 C261.42,38.46 261.886667,38.6633333 262.18,39.07 C262.473333,39.4766667 262.62,40.14 262.62,41.06 L262.62,41.06 L262.62,47 L264.26,47 L264.26,40.84 C264.26,39.5866667 264.023333,38.64 263.55,38 C263.076667,37.36 262.326667,37.04 261.3,37.04 C260.62,37.04 260.023333,37.1966667 259.51,37.51 C258.996667,37.8233333 258.506667,38.2133333 258.04,38.68 L258.04,38.68 L257.98,38.68 L257.84,37.28 L256.48,37.28 L256.48,47 L258.12,47 Z M270.7,51.48 C271.46,51.48 272.143333,51.39 272.75,51.21 C273.356667,51.03 273.873333,50.7866667 274.3,50.48 C274.726667,50.1733333 275.053333,49.8166667 275.28,49.41 C275.506667,49.0033333 275.62,48.5733333 275.62,48.12 C275.62,47.3066667 275.336667,46.7166667 274.77,46.35 C274.203333,45.9833333 273.353333,45.8 272.22,45.8 L272.22,45.8 L270.34,45.8 C269.673333,45.8 269.22,45.7 268.98,45.5 C268.74,45.3 268.62,45.0466667 268.62,44.74 C268.62,44.4733333 268.68,44.25 268.8,44.07 C268.92,43.89 269.066667,43.7266667 269.24,43.58 C269.466667,43.6866667 269.706667,43.77 269.96,43.83 C270.213333,43.89 270.46,43.92 270.7,43.92 C271.193333,43.92 271.656667,43.84 272.09,43.68 C272.523333,43.52 272.9,43.2966667 273.22,43.01 C273.54,42.7233333 273.793333,42.37 273.98,41.95 C274.166667,41.53 274.26,41.06 274.26,40.54 C274.26,40.1266667 274.183333,39.7466667 274.03,39.4 C273.876667,39.0533333 273.686667,38.7666667 273.46,38.54 L273.46,38.54 L275.46,38.54 L275.46,37.28 L272.08,37.28 C271.893333,37.2133333 271.683333,37.1566667 271.45,37.11 C271.216667,37.0633333 270.966667,37.04 270.7,37.04 C270.206667,37.04 269.736667,37.12 269.29,37.28 C268.843333,37.44 268.453333,37.67 268.12,37.97 C267.786667,38.27 267.523333,38.6333333 267.33,39.06 C267.136667,39.4866667 267.04,39.9666667 267.04,40.5 C267.04,41.0866667 267.17,41.6033333 267.43,42.05 C267.69,42.4966667 267.98,42.8533333 268.3,43.12 L268.3,43.12 L268.3,43.2 C268.046667,43.3733333 267.806667,43.6133333 267.58,43.92 C267.353333,44.2266667 267.24,44.5866667 267.24,45 C267.24,45.3866667 267.323333,45.71 267.49,45.97 C267.656667,46.23 267.86,46.4333333 268.1,46.58 L268.1,46.58 L268.1,46.66 C267.66,46.9666667 267.313333,47.3066667 267.06,47.68 C266.806667,48.0533333 266.68,48.4466667 266.68,48.86 C266.68,49.2866667 266.776667,49.66 266.97,49.98 C267.163333,50.3 267.436667,50.5733333 267.79,50.8 C268.143333,51.0266667 268.566667,51.1966667 269.06,51.31 C269.553333,51.4233333 270.1,51.48 270.7,51.48 Z M270.7,42.82 C270.42,42.82 270.156667,42.7666667 269.91,42.66 C269.663333,42.5533333 269.443333,42.4 269.25,42.2 C269.056667,42 268.906667,41.7566667 268.8,41.47 C268.693333,41.1833333 268.64,40.86 268.64,40.5 C268.64,39.78 268.84,39.2233333 269.24,38.83 C269.64,38.4366667 270.126667,38.24 270.7,38.24 C271.273333,38.24 271.76,38.4366667 272.16,38.83 C272.56,39.2233333 272.76,39.78 272.76,40.5 C272.76,40.86 272.706667,41.1833333 272.6,41.47 C272.493333,41.7566667 272.343333,42 272.15,42.2 C271.956667,42.4 271.736667,42.5533333 271.49,42.66 C271.243333,42.7666667 270.98,42.82 270.7,42.82 Z M270.94,50.34 C270.06,50.34 269.37,50.1866667 268.87,49.88 C268.37,49.5733333 268.12,49.16 268.12,48.64 C268.12,48.36 268.2,48.08 268.36,47.8 C268.52,47.52 268.773333,47.2533333 269.12,47 C269.333333,47.0666667 269.55,47.11 269.77,47.13 C269.99,47.15 270.193333,47.16 270.38,47.16 L270.38,47.16 L272.06,47.16 C272.7,47.16 273.186667,47.2466667 273.52,47.42 C273.853333,47.5933333 274.02,47.9066667 274.02,48.36 C274.02,48.6133333 273.946667,48.86 273.8,49.1 C273.653333,49.34 273.446667,49.55 273.18,49.73 C272.913333,49.91 272.59,50.0566667 272.21,50.17 C271.83,50.2833333 271.406667,50.34 270.94,50.34 Z M283.14,51.1 L283.14,47.82 L283.1,46.12 C283.553333,46.4666667 284.003333,46.74 284.45,46.94 C284.896667,47.14 285.346667,47.24 285.8,47.24 C286.36,47.24 286.893333,47.1233333 287.4,46.89 C287.906667,46.6566667 288.353333,46.3133333 288.74,45.86 C289.126667,45.4066667 289.433333,44.8566667 289.66,44.21 C289.886667,43.5633333 290,42.8266667 290,42 C290,41.24 289.916667,40.5566667 289.75,39.95 C289.583333,39.3433333 289.34,38.8233333 289.02,38.39 C288.7,37.9566667 288.3,37.6233333 287.82,37.39 C287.34,37.1566667 286.786667,37.04 286.16,37.04 C285.586667,37.04 285.036667,37.1733333 284.51,37.44 C283.983333,37.7066667 283.5,38.0266667 283.06,38.4 L283.06,38.4 L283,38.4 L282.86,37.28 L281.5,37.28 L281.5,51.1 L283.14,51.1 Z M285.52,45.86 C285.2,45.86 284.833333,45.7833333 284.42,45.63 C284.006667,45.4766667 283.58,45.2133333 283.14,44.84 L283.14,44.84 L283.14,39.74 C283.62,39.3133333 284.07,38.9866667 284.49,38.76 C284.91,38.5333333 285.326667,38.42 285.74,38.42 C286.193333,38.42 286.583333,38.5066667 286.91,38.68 C287.236667,38.8533333 287.503333,39.0966667 287.71,39.41 C287.916667,39.7233333 288.066667,40.1 288.16,40.54 C288.253333,40.98 288.3,41.4666667 288.3,42 C288.3,42.6 288.23,43.14 288.09,43.62 C287.95,44.1 287.756667,44.5033333 287.51,44.83 C287.263333,45.1566667 286.97,45.41 286.63,45.59 C286.29,45.77 285.92,45.86 285.52,45.86 Z M294.24,47 L294.24,40.76 C294.573333,39.9333333 294.963333,39.3533333 295.41,39.02 C295.856667,38.6866667 296.286667,38.52 296.7,38.52 C296.9,38.52 297.066667,38.5333333 297.2,38.56 C297.333333,38.5866667 297.48,38.6266667 297.64,38.68 L297.64,38.68 L297.96,37.24 C297.653333,37.1066667 297.306667,37.04 296.92,37.04 C296.36,37.04 295.843333,37.22 295.37,37.58 C294.896667,37.94 294.493333,38.4266667 294.16,39.04 L294.16,39.04 L294.1,39.04 L293.96,37.28 L292.6,37.28 L292.6,47 L294.24,47 Z M303.28,47.24 C303.946667,47.24 304.54,47.14 305.06,46.94 C305.58,46.74 306.053333,46.5066667 306.48,46.24 L306.48,46.24 L305.9,45.16 C305.54,45.3866667 305.163333,45.57 304.77,45.71 C304.376667,45.85 303.946667,45.92 303.48,45.92 C302.546667,45.92 301.79,45.6166667 301.21,45.01 C300.63,44.4033333 300.306667,43.58 300.24,42.54 L300.24,42.54 L306.8,42.54 C306.826667,42.42 306.843333,42.2766667 306.85,42.11 C306.856667,41.9433333 306.86,41.7733333 306.86,41.6 C306.86,40.9066667 306.773333,40.28 306.6,39.72 C306.426667,39.16 306.176667,38.68 305.85,38.28 C305.523333,37.88 305.116667,37.5733333 304.63,37.36 C304.143333,37.1466667 303.593333,37.04 302.98,37.04 C302.42,37.04 301.88,37.1566667 301.36,37.39 C300.84,37.6233333 300.376667,37.96 299.97,38.4 C299.563333,38.84 299.236667,39.3766667 298.99,40.01 C298.743333,40.6433333 298.62,41.36 298.62,42.16 C298.62,42.96 298.74,43.6733333 298.98,44.3 C299.22,44.9266667 299.55,45.4566667 299.97,45.89 C300.39,46.3233333 300.883333,46.6566667 301.45,46.89 C302.016667,47.1233333 302.626667,47.24 303.28,47.24 Z M305.42,41.36 L300.22,41.36 C300.273333,40.88 300.383333,40.4533333 300.55,40.08 C300.716667,39.7066667 300.926667,39.39 301.18,39.13 C301.433333,38.87 301.716667,38.6733333 302.03,38.54 C302.343333,38.4066667 302.673333,38.34 303.02,38.34 C303.78,38.34 304.37,38.5966667 304.79,39.11 C305.21,39.6233333 305.42,40.3733333 305.42,41.36 L305.42,41.36 Z M311.18,47 L311.18,38.62 L313.24,38.62 L313.24,37.28 L311.18,37.28 L311.18,35.74 C311.18,34.4866667 311.633333,33.86 312.54,33.86 C312.913333,33.86 313.28,33.94 313.64,34.1 L313.64,34.1 L314,32.84 C313.773333,32.7466667 313.523333,32.67 313.25,32.61 C312.976667,32.55 312.686667,32.52 312.38,32.52 C311.406667,32.52 310.69,32.8066667 310.23,33.38 C309.77,33.9533333 309.54,34.74 309.54,35.74 L309.54,35.74 L309.54,37.28 L308.22,37.38 L308.22,38.62 L309.54,38.62 L309.54,47 L311.18,47 Z M318.84,47.24 C319.506667,47.24 320.1,47.14 320.62,46.94 C321.14,46.74 321.613333,46.5066667 322.04,46.24 L322.04,46.24 L321.46,45.16 C321.1,45.3866667 320.723333,45.57 320.33,45.71 C319.936667,45.85 319.506667,45.92 319.04,45.92 C318.106667,45.92 317.35,45.6166667 316.77,45.01 C316.19,44.4033333 315.866667,43.58 315.8,42.54 L315.8,42.54 L322.36,42.54 C322.386667,42.42 322.403333,42.2766667 322.41,42.11 C322.416667,41.9433333 322.42,41.7733333 322.42,41.6 C322.42,40.9066667 322.333333,40.28 322.16,39.72 C321.986667,39.16 321.736667,38.68 321.41,38.28 C321.083333,37.88 320.676667,37.5733333 320.19,37.36 C319.703333,37.1466667 319.153333,37.04 318.54,37.04 C317.98,37.04 317.44,37.1566667 316.92,37.39 C316.4,37.6233333 315.936667,37.96 315.53,38.4 C315.123333,38.84 314.796667,39.3766667 314.55,40.01 C314.303333,40.6433333 314.18,41.36 314.18,42.16 C314.18,42.96 314.3,43.6733333 314.54,44.3 C314.78,44.9266667 315.11,45.4566667 315.53,45.89 C315.95,46.3233333 316.443333,46.6566667 317.01,46.89 C317.576667,47.1233333 318.186667,47.24 318.84,47.24 Z M320.98,41.36 L315.78,41.36 C315.833333,40.88 315.943333,40.4533333 316.11,40.08 C316.276667,39.7066667 316.486667,39.39 316.74,39.13 C316.993333,38.87 317.276667,38.6733333 317.59,38.54 C317.903333,38.4066667 318.233333,38.34 318.58,38.34 C319.34,38.34 319.93,38.5966667 320.35,39.11 C320.77,39.6233333 320.98,40.3733333 320.98,41.36 L320.98,41.36 Z M326.46,47 L326.46,40.76 C326.793333,39.9333333 327.183333,39.3533333 327.63,39.02 C328.076667,38.6866667 328.506667,38.52 328.92,38.52 C329.12,38.52 329.286667,38.5333333 329.42,38.56 C329.553333,38.5866667 329.7,38.6266667 329.86,38.68 L329.86,38.68 L330.18,37.24 C329.873333,37.1066667 329.526667,37.04 329.14,37.04 C328.58,37.04 328.063333,37.22 327.59,37.58 C327.116667,37.94 326.713333,38.4266667 326.38,39.04 L326.38,39.04 L326.32,39.04 L326.18,37.28 L324.82,37.28 L324.82,47 L326.46,47 Z M335.5,47.24 C336.166667,47.24 336.76,47.14 337.28,46.94 C337.8,46.74 338.273333,46.5066667 338.7,46.24 L338.7,46.24 L338.12,45.16 C337.76,45.3866667 337.383333,45.57 336.99,45.71 C336.596667,45.85 336.166667,45.92 335.7,45.92 C334.766667,45.92 334.01,45.6166667 333.43,45.01 C332.85,44.4033333 332.526667,43.58 332.46,42.54 L332.46,42.54 L339.02,42.54 C339.046667,42.42 339.063333,42.2766667 339.07,42.11 C339.076667,41.9433333 339.08,41.7733333 339.08,41.6 C339.08,40.9066667 338.993333,40.28 338.82,39.72 C338.646667,39.16 338.396667,38.68 338.07,38.28 C337.743333,37.88 337.336667,37.5733333 336.85,37.36 C336.363333,37.1466667 335.813333,37.04 335.2,37.04 C334.64,37.04 334.1,37.1566667 333.58,37.39 C333.06,37.6233333 332.596667,37.96 332.19,38.4 C331.783333,38.84 331.456667,39.3766667 331.21,40.01 C330.963333,40.6433333 330.84,41.36 330.84,42.16 C330.84,42.96 330.96,43.6733333 331.2,44.3 C331.44,44.9266667 331.77,45.4566667 332.19,45.89 C332.61,46.3233333 333.103333,46.6566667 333.67,46.89 C334.236667,47.1233333 334.846667,47.24 335.5,47.24 Z M337.64,41.36 L332.44,41.36 C332.493333,40.88 332.603333,40.4533333 332.77,40.08 C332.936667,39.7066667 333.146667,39.39 333.4,39.13 C333.653333,38.87 333.936667,38.6733333 334.25,38.54 C334.563333,38.4066667 334.893333,38.34 335.24,38.34 C336,38.34 336.59,38.5966667 337.01,39.11 C337.43,39.6233333 337.64,40.3733333 337.64,41.36 L337.64,41.36 Z M343.12,47 L343.12,39.96 C343.613333,39.4666667 344.053333,39.0933333 344.44,38.84 C344.826667,38.5866667 345.273333,38.46 345.78,38.46 C346.42,38.46 346.886667,38.6633333 347.18,39.07 C347.473333,39.4766667 347.62,40.14 347.62,41.06 L347.62,41.06 L347.62,47 L349.26,47 L349.26,40.84 C349.26,39.5866667 349.023333,38.64 348.55,38 C348.076667,37.36 347.326667,37.04 346.3,37.04 C345.62,37.04 345.023333,37.1966667 344.51,37.51 C343.996667,37.8233333 343.506667,38.2133333 343.04,38.68 L343.04,38.68 L342.98,38.68 L342.84,37.28 L341.48,37.28 L341.48,47 L343.12,47 Z M356.26,47.24 C356.846667,47.24 357.406667,47.13 357.94,46.91 C358.473333,46.69 358.96,46.3866667 359.4,46 L359.4,46 L358.68,44.9 C358.373333,45.1666667 358.03,45.3966667 357.65,45.59 C357.27,45.7833333 356.853333,45.88 356.4,45.88 C355.96,45.88 355.553333,45.79 355.18,45.61 C354.806667,45.43 354.49,45.1766667 354.23,44.85 C353.97,44.5233333 353.766667,44.1333333 353.62,43.68 C353.473333,43.2266667 353.4,42.72 353.4,42.16 C353.4,41.6 353.476667,41.09 353.63,40.63 C353.783333,40.17 353.993333,39.7733333 354.26,39.44 C354.526667,39.1066667 354.846667,38.85 355.22,38.67 C355.593333,38.49 356,38.4 356.44,38.4 C356.826667,38.4 357.176667,38.48 357.49,38.64 C357.803333,38.8 358.1,39.0066667 358.38,39.26 L358.38,39.26 L359.22,38.18 C358.873333,37.8733333 358.473333,37.6066667 358.02,37.38 C357.566667,37.1533333 357.02,37.04 356.38,37.04 C355.753333,37.04 355.156667,37.1533333 354.59,37.38 C354.023333,37.6066667 353.526667,37.94 353.1,38.38 C352.673333,38.82 352.333333,39.3566667 352.08,39.99 C351.826667,40.6233333 351.7,41.3466667 351.7,42.16 C351.7,42.96 351.816667,43.6766667 352.05,44.31 C352.283333,44.9433333 352.603333,45.4766667 353.01,45.91 C353.416667,46.3433333 353.9,46.6733333 354.46,46.9 C355.02,47.1266667 355.62,47.24 356.26,47.24 Z M365.06,47.24 C365.726667,47.24 366.32,47.14 366.84,46.94 C367.36,46.74 367.833333,46.5066667 368.26,46.24 L368.26,46.24 L367.68,45.16 C367.32,45.3866667 366.943333,45.57 366.55,45.71 C366.156667,45.85 365.726667,45.92 365.26,45.92 C364.326667,45.92 363.57,45.6166667 362.99,45.01 C362.41,44.4033333 362.086667,43.58 362.02,42.54 L362.02,42.54 L368.58,42.54 C368.606667,42.42 368.623333,42.2766667 368.63,42.11 C368.636667,41.9433333 368.64,41.7733333 368.64,41.6 C368.64,40.9066667 368.553333,40.28 368.38,39.72 C368.206667,39.16 367.956667,38.68 367.63,38.28 C367.303333,37.88 366.896667,37.5733333 366.41,37.36 C365.923333,37.1466667 365.373333,37.04 364.76,37.04 C364.2,37.04 363.66,37.1566667 363.14,37.39 C362.62,37.6233333 362.156667,37.96 361.75,38.4 C361.343333,38.84 361.016667,39.3766667 360.77,40.01 C360.523333,40.6433333 360.4,41.36 360.4,42.16 C360.4,42.96 360.52,43.6733333 360.76,44.3 C361,44.9266667 361.33,45.4566667 361.75,45.89 C362.17,46.3233333 362.663333,46.6566667 363.23,46.89 C363.796667,47.1233333 364.406667,47.24 365.06,47.24 Z M367.2,41.36 L362,41.36 C362.053333,40.88 362.163333,40.4533333 362.33,40.08 C362.496667,39.7066667 362.706667,39.39 362.96,39.13 C363.213333,38.87 363.496667,38.6733333 363.81,38.54 C364.123333,38.4066667 364.453333,38.34 364.8,38.34 C365.56,38.34 366.15,38.5966667 366.57,39.11 C366.99,39.6233333 367.2,40.3733333 367.2,41.36 L367.2,41.36 Z M373.58,47.24 C374.153333,47.24 374.663333,47.1633333 375.11,47.01 C375.556667,46.8566667 375.93,46.6466667 376.23,46.38 C376.53,46.1133333 376.756667,45.8066667 376.91,45.46 C377.063333,45.1133333 377.14,44.74 377.14,44.34 C377.14,43.8866667 377.05,43.5 376.87,43.18 C376.69,42.86 376.46,42.59 376.18,42.37 C375.9,42.15 375.583333,41.9666667 375.23,41.82 C374.876667,41.6733333 374.526667,41.5333333 374.18,41.4 C373.9,41.2933333 373.63,41.19 373.37,41.09 C373.11,40.99 372.88,40.8766667 372.68,40.75 C372.48,40.6233333 372.32,40.4766667 372.2,40.31 C372.08,40.1433333 372.02,39.9466667 372.02,39.72 C372.02,39.3466667 372.163333,39.02 372.45,38.74 C372.736667,38.46 373.186667,38.32 373.8,38.32 C374.226667,38.32 374.62,38.4 374.98,38.56 C375.34,38.72 375.686667,38.9266667 376.02,39.18 L376.02,39.18 L376.8,38.14 C376.426667,37.8333333 375.983333,37.5733333 375.47,37.36 C374.956667,37.1466667 374.393333,37.04 373.78,37.04 C373.26,37.04 372.793333,37.11 372.38,37.25 C371.966667,37.39 371.616667,37.5833333 371.33,37.83 C371.043333,38.0766667 370.823333,38.37 370.67,38.71 C370.516667,39.05 370.44,39.4133333 370.44,39.8 C370.44,40.2133333 370.526667,40.5666667 370.7,40.86 C370.873333,41.1533333 371.096667,41.41 371.37,41.63 C371.643333,41.85 371.953333,42.0366667 372.3,42.19 C372.646667,42.3433333 372.993333,42.48 373.34,42.6 C373.606667,42.7066667 373.873333,42.8133333 374.14,42.92 C374.406667,43.0266667 374.643333,43.15 374.85,43.29 C375.056667,43.43 375.226667,43.5933333 375.36,43.78 C375.493333,43.9666667 375.56,44.1866667 375.56,44.44 C375.56,44.8666667 375.4,45.2266667 375.08,45.52 C374.76,45.8133333 374.28,45.96 373.64,45.96 C373.053333,45.96 372.536667,45.8533333 372.09,45.64 C371.643333,45.4266667 371.206667,45.1466667 370.78,44.8 L370.78,44.8 L369.96,45.9 C370.426667,46.2866667 370.973333,46.6066667 371.6,46.86 C372.226667,47.1133333 372.886667,47.24 373.58,47.24 Z" id="Selectmarketingpreferences" fill="#000000" fill-rule="nonzero"></path>
        <path d="M190.76,94.24 L190.76,92.82 L184.66,92.82 L184.66,88.06 L189.64,88.06 L189.64,86.64 L184.66,86.64 L184.66,82.52 L190.56,82.52 L190.56,81.12 L183,81.12 L183,94.24 L190.76,94.24 Z M195.02,94.24 L195.02,87.2 C195.913333,86.2 196.726667,85.7 197.46,85.7 C198.086667,85.7 198.546667,85.9033333 198.84,86.31 C199.133333,86.7166667 199.28,87.38 199.28,88.3 L199.28,88.3 L199.28,94.24 L200.92,94.24 L200.92,87.2 C201.813333,86.2 202.626667,85.7 203.36,85.7 C203.973333,85.7 204.426667,85.9033333 204.72,86.31 C205.013333,86.7166667 205.16,87.38 205.16,88.3 L205.16,88.3 L205.16,94.24 L206.8,94.24 L206.8,88.08 C206.8,86.8266667 206.556667,85.88 206.07,85.24 C205.583333,84.6 204.84,84.28 203.84,84.28 C203.24,84.28 202.683333,84.45 202.17,84.79 C201.656667,85.13 201.146667,85.58 200.64,86.14 C200.44,85.5533333 200.13,85.0966667 199.71,84.77 C199.29,84.4433333 198.706667,84.28 197.96,84.28 C197.373333,84.28 196.83,84.4366667 196.33,84.75 C195.83,85.0633333 195.366667,85.4533333 194.94,85.92 L194.94,85.92 L194.88,85.92 L194.74,84.52 L193.38,84.52 L193.38,94.24 L195.02,94.24 Z M212.2,94.48 C212.813333,94.48 213.386667,94.3433333 213.92,94.07 C214.453333,93.7966667 214.953333,93.4666667 215.42,93.08 L215.42,93.08 L215.48,93.08 L215.62,94.24 L216.98,94.24 L216.98,88.28 C216.98,87.0666667 216.713333,86.0966667 216.18,85.37 C215.646667,84.6433333 214.786667,84.28 213.6,84.28 C212.813333,84.28 212.093333,84.4166667 211.44,84.69 C210.786667,84.9633333 210.233333,85.2466667 209.78,85.54 L209.78,85.54 L210.42,86.68 C210.806667,86.4133333 211.246667,86.1733333 211.74,85.96 C212.233333,85.7466667 212.76,85.64 213.32,85.64 C213.72,85.64 214.05,85.71 214.31,85.85 C214.57,85.99 214.773333,86.1733333 214.92,86.4 C215.066667,86.6266667 215.17,86.8866667 215.23,87.18 C215.29,87.4733333 215.32,87.7733333 215.32,88.08 C213.24,88.3066667 211.726667,88.7033333 210.78,89.27 C209.833333,89.8366667 209.36,90.6533333 209.36,91.72 C209.36,92.6 209.63,93.28 210.17,93.76 C210.71,94.24 211.386667,94.48 212.2,94.48 Z M212.68,93.16 C212.2,93.16 211.793333,93.04 211.46,92.8 C211.126667,92.56 210.96,92.16 210.96,91.6 C210.96,91.2933333 211.036667,91.01 211.19,90.75 C211.343333,90.49 211.59,90.26 211.93,90.06 C212.27,89.86 212.716667,89.6866667 213.27,89.54 C213.823333,89.3933333 214.506667,89.2666667 215.32,89.16 L215.32,89.16 L215.32,91.86 C214.853333,92.2866667 214.413333,92.61 214,92.83 C213.586667,93.05 213.146667,93.16 212.68,93.16 Z M220.88,82.52 C221.2,82.52 221.47,82.42 221.69,82.22 C221.91,82.02 222.02,81.7666667 222.02,81.46 C222.02,81.14 221.91,80.8833333 221.69,80.69 C221.47,80.4966667 221.2,80.4 220.88,80.4 C220.56,80.4 220.29,80.4966667 220.07,80.69 C219.85,80.8833333 219.74,81.14 219.74,81.46 C219.74,81.7666667 219.85,82.02 220.07,82.22 C220.29,82.42 220.56,82.52 220.88,82.52 Z M221.68,94.24 L221.68,84.52 L220.04,84.52 L220.04,94.24 L221.68,94.24 Z M226.7,94.48 C226.926667,94.48 227.113333,94.4666667 227.26,94.44 C227.406667,94.4133333 227.533333,94.3733333 227.64,94.32 L227.64,94.32 L227.42,93.08 C227.326667,93.1066667 227.256667,93.12 227.21,93.12 L227.21,93.12 L227.06,93.12 C226.94,93.12 226.833333,93.0666667 226.74,92.96 C226.646667,92.8533333 226.6,92.6666667 226.6,92.4 L226.6,92.4 L226.6,80 L224.96,80 L224.96,92.28 C224.96,93 225.093333,93.5466667 225.36,93.92 C225.626667,94.2933333 226.073333,94.48 226.7,94.48 Z" id="Email" fill="#000000" fill-rule="nonzero"></path>
        <path d="M184.66,148.12 L184.66,142.92 L186.82,142.92 C187.54,142.92 188.196667,142.836667 188.79,142.67 C189.383333,142.503333 189.893333,142.253333 190.32,141.92 C190.746667,141.586667 191.076667,141.166667 191.31,140.66 C191.543333,140.153333 191.66,139.553333 191.66,138.86 C191.66,138.14 191.54,137.533333 191.3,137.04 C191.06,136.546667 190.726667,136.15 190.3,135.85 C189.873333,135.55 189.356667,135.333333 188.75,135.2 C188.143333,135.066667 187.473333,135 186.74,135 L186.74,135 L183,135 L183,148.12 L184.66,148.12 Z M186.62,141.56 L184.66,141.56 L184.66,136.34 L186.54,136.34 C187.686667,136.34 188.55,136.523333 189.13,136.89 C189.71,137.256667 190,137.913333 190,138.86 C190,139.793333 189.723333,140.476667 189.17,140.91 C188.616667,141.343333 187.766667,141.56 186.62,141.56 L186.62,141.56 Z M197.46,148.36 C198.06,148.36 198.63,148.246667 199.17,148.02 C199.71,147.793333 200.186667,147.463333 200.6,147.03 C201.013333,146.596667 201.343333,146.063333 201.59,145.43 C201.836667,144.796667 201.96,144.08 201.96,143.28 C201.96,142.466667 201.836667,141.743333 201.59,141.11 C201.343333,140.476667 201.013333,139.94 200.6,139.5 C200.186667,139.06 199.71,138.726667 199.17,138.5 C198.63,138.273333 198.06,138.16 197.46,138.16 C196.86,138.16 196.29,138.273333 195.75,138.5 C195.21,138.726667 194.733333,139.06 194.32,139.5 C193.906667,139.94 193.576667,140.476667 193.33,141.11 C193.083333,141.743333 192.96,142.466667 192.96,143.28 C192.96,144.08 193.083333,144.796667 193.33,145.43 C193.576667,146.063333 193.906667,146.596667 194.32,147.03 C194.733333,147.463333 195.21,147.793333 195.75,148.02 C196.29,148.246667 196.86,148.36 197.46,148.36 Z M197.46,147 C197.046667,147 196.666667,146.91 196.32,146.73 C195.973333,146.55 195.676667,146.296667 195.43,145.97 C195.183333,145.643333 194.993333,145.253333 194.86,144.8 C194.726667,144.346667 194.66,143.84 194.66,143.28 C194.66,142.72 194.726667,142.21 194.86,141.75 C194.993333,141.29 195.183333,140.893333 195.43,140.56 C195.676667,140.226667 195.973333,139.97 196.32,139.79 C196.666667,139.61 197.046667,139.52 197.46,139.52 C197.873333,139.52 198.253333,139.61 198.6,139.79 C198.946667,139.97 199.243333,140.226667 199.49,140.56 C199.736667,140.893333 199.926667,141.29 200.06,141.75 C200.193333,142.21 200.26,142.72 200.26,143.28 C200.26,143.84 200.193333,144.346667 200.06,144.8 C199.926667,145.253333 199.736667,145.643333 199.49,145.97 C199.243333,146.296667 198.946667,146.55 198.6,146.73 C198.253333,146.91 197.873333,147 197.46,147 Z M207.06,148.36 C207.633333,148.36 208.143333,148.283333 208.59,148.13 C209.036667,147.976667 209.41,147.766667 209.71,147.5 C210.01,147.233333 210.236667,146.926667 210.39,146.58 C210.543333,146.233333 210.62,145.86 210.62,145.46 C210.62,145.006667 210.53,144.62 210.35,144.3 C210.17,143.98 209.94,143.71 209.66,143.49 C209.38,143.27 209.063333,143.086667 208.71,142.94 C208.356667,142.793333 208.006667,142.653333 207.66,142.52 C207.38,142.413333 207.11,142.31 206.85,142.21 C206.59,142.11 206.36,141.996667 206.16,141.87 C205.96,141.743333 205.8,141.596667 205.68,141.43 C205.56,141.263333 205.5,141.066667 205.5,140.84 C205.5,140.466667 205.643333,140.14 205.93,139.86 C206.216667,139.58 206.666667,139.44 207.28,139.44 C207.706667,139.44 208.1,139.52 208.46,139.68 C208.82,139.84 209.166667,140.046667 209.5,140.3 L209.5,140.3 L210.28,139.26 C209.906667,138.953333 209.463333,138.693333 208.95,138.48 C208.436667,138.266667 207.873333,138.16 207.26,138.16 C206.74,138.16 206.273333,138.23 205.86,138.37 C205.446667,138.51 205.096667,138.703333 204.81,138.95 C204.523333,139.196667 204.303333,139.49 204.15,139.83 C203.996667,140.17 203.92,140.533333 203.92,140.92 C203.92,141.333333 204.006667,141.686667 204.18,141.98 C204.353333,142.273333 204.576667,142.53 204.85,142.75 C205.123333,142.97 205.433333,143.156667 205.78,143.31 C206.126667,143.463333 206.473333,143.6 206.82,143.72 L206.82,143.72 L207.62,144.04 C207.886667,144.146667 208.123333,144.27 208.33,144.41 C208.536667,144.55 208.706667,144.713333 208.84,144.9 C208.973333,145.086667 209.04,145.306667 209.04,145.56 C209.04,145.986667 208.88,146.346667 208.56,146.64 C208.24,146.933333 207.76,147.08 207.12,147.08 C206.533333,147.08 206.016667,146.973333 205.57,146.76 C205.123333,146.546667 204.686667,146.266667 204.26,145.92 L204.26,145.92 L203.44,147.02 C203.906667,147.406667 204.453333,147.726667 205.08,147.98 C205.706667,148.233333 206.366667,148.36 207.06,148.36 Z M215.56,148.36 C215.866667,148.36 216.176667,148.323333 216.49,148.25 C216.803333,148.176667 217.093333,148.093333 217.36,148 L217.36,148 L217.04,146.76 C216.88,146.826667 216.7,146.886667 216.5,146.94 C216.3,146.993333 216.113333,147.02 215.94,147.02 C215.38,147.02 214.99,146.856667 214.77,146.53 C214.55,146.203333 214.44,145.74 214.44,145.14 L214.44,145.14 L214.44,139.74 L217.06,139.74 L217.06,138.4 L214.44,138.4 L214.44,135.68 L213.06,135.68 L212.86,138.4 L211.34,138.5 L211.34,139.74 L212.78,139.74 L212.78,145.12 C212.78,145.6 212.826667,146.04 212.92,146.44 C213.013333,146.84 213.17,147.18 213.39,147.46 C213.61,147.74 213.896667,147.96 214.25,148.12 C214.603333,148.28 215.04,148.36 215.56,148.36 Z" id="Post" fill="#000000" fill-rule="nonzero"></path>
        <path d="M187.2,201.24 L187.2,189.52 L191.16,189.52 L191.16,188.12 L181.56,188.12 L181.56,189.52 L185.52,189.52 L185.52,201.24 L187.2,201.24 Z M195.98,201.48 C196.646667,201.48 197.24,201.38 197.76,201.18 C198.28,200.98 198.753333,200.746667 199.18,200.48 L199.18,200.48 L198.6,199.4 C198.24,199.626667 197.863333,199.81 197.47,199.95 C197.076667,200.09 196.646667,200.16 196.18,200.16 C195.246667,200.16 194.49,199.856667 193.91,199.25 C193.33,198.643333 193.006667,197.82 192.94,196.78 L192.94,196.78 L199.5,196.78 C199.526667,196.66 199.543333,196.516667 199.55,196.35 C199.556667,196.183333 199.56,196.013333 199.56,195.84 C199.56,195.146667 199.473333,194.52 199.3,193.96 C199.126667,193.4 198.876667,192.92 198.55,192.52 C198.223333,192.12 197.816667,191.813333 197.33,191.6 C196.843333,191.386667 196.293333,191.28 195.68,191.28 C195.12,191.28 194.58,191.396667 194.06,191.63 C193.54,191.863333 193.076667,192.2 192.67,192.64 C192.263333,193.08 191.936667,193.616667 191.69,194.25 C191.443333,194.883333 191.32,195.6 191.32,196.4 C191.32,197.2 191.44,197.913333 191.68,198.54 C191.92,199.166667 192.25,199.696667 192.67,200.13 C193.09,200.563333 193.583333,200.896667 194.15,201.13 C194.716667,201.363333 195.326667,201.48 195.98,201.48 Z M198.12,195.6 L192.92,195.6 C192.973333,195.12 193.083333,194.693333 193.25,194.32 C193.416667,193.946667 193.626667,193.63 193.88,193.37 C194.133333,193.11 194.416667,192.913333 194.73,192.78 C195.043333,192.646667 195.373333,192.58 195.72,192.58 C196.48,192.58 197.07,192.836667 197.49,193.35 C197.91,193.863333 198.12,194.613333 198.12,195.6 L198.12,195.6 Z M203.7,201.48 C203.926667,201.48 204.113333,201.466667 204.26,201.44 C204.406667,201.413333 204.533333,201.373333 204.64,201.32 L204.64,201.32 L204.42,200.08 C204.326667,200.106667 204.256667,200.12 204.21,200.12 L204.21,200.12 L204.06,200.12 C203.94,200.12 203.833333,200.066667 203.74,199.96 C203.646667,199.853333 203.6,199.666667 203.6,199.4 L203.6,199.4 L203.6,187 L201.96,187 L201.96,199.28 C201.96,200 202.093333,200.546667 202.36,200.92 C202.626667,201.293333 203.073333,201.48 203.7,201.48 Z M211,201.48 C211.666667,201.48 212.26,201.38 212.78,201.18 C213.3,200.98 213.773333,200.746667 214.2,200.48 L214.2,200.48 L213.62,199.4 C213.26,199.626667 212.883333,199.81 212.49,199.95 C212.096667,200.09 211.666667,200.16 211.2,200.16 C210.266667,200.16 209.51,199.856667 208.93,199.25 C208.35,198.643333 208.026667,197.82 207.96,196.78 L207.96,196.78 L214.52,196.78 C214.546667,196.66 214.563333,196.516667 214.57,196.35 C214.576667,196.183333 214.58,196.013333 214.58,195.84 C214.58,195.146667 214.493333,194.52 214.32,193.96 C214.146667,193.4 213.896667,192.92 213.57,192.52 C213.243333,192.12 212.836667,191.813333 212.35,191.6 C211.863333,191.386667 211.313333,191.28 210.7,191.28 C210.14,191.28 209.6,191.396667 209.08,191.63 C208.56,191.863333 208.096667,192.2 207.69,192.64 C207.283333,193.08 206.956667,193.616667 206.71,194.25 C206.463333,194.883333 206.34,195.6 206.34,196.4 C206.34,197.2 206.46,197.913333 206.7,198.54 C206.94,199.166667 207.27,199.696667 207.69,200.13 C208.11,200.563333 208.603333,200.896667 209.17,201.13 C209.736667,201.363333 210.346667,201.48 211,201.48 Z M213.14,195.6 L207.94,195.6 C207.993333,195.12 208.103333,194.693333 208.27,194.32 C208.436667,193.946667 208.646667,193.63 208.9,193.37 C209.153333,193.11 209.436667,192.913333 209.75,192.78 C210.063333,192.646667 210.393333,192.58 210.74,192.58 C211.5,192.58 212.09,192.836667 212.51,193.35 C212.93,193.863333 213.14,194.613333 213.14,195.6 L213.14,195.6 Z M218.62,205.34 L218.62,202.06 L218.58,200.36 C219.033333,200.706667 219.483333,200.98 219.93,201.18 C220.376667,201.38 220.826667,201.48 221.28,201.48 C221.84,201.48 222.373333,201.363333 222.88,201.13 C223.386667,200.896667 223.833333,200.553333 224.22,200.1 C224.606667,199.646667 224.913333,199.096667 225.14,198.45 C225.366667,197.803333 225.48,197.066667 225.48,196.24 C225.48,195.48 225.396667,194.796667 225.23,194.19 C225.063333,193.583333 224.82,193.063333 224.5,192.63 C224.18,192.196667 223.78,191.863333 223.3,191.63 C222.82,191.396667 222.266667,191.28 221.64,191.28 C221.066667,191.28 220.516667,191.413333 219.99,191.68 C219.463333,191.946667 218.98,192.266667 218.54,192.64 L218.54,192.64 L218.48,192.64 L218.34,191.52 L216.98,191.52 L216.98,205.34 L218.62,205.34 Z M221,200.1 C220.68,200.1 220.313333,200.023333 219.9,199.87 C219.486667,199.716667 219.06,199.453333 218.62,199.08 L218.62,199.08 L218.62,193.98 C219.1,193.553333 219.55,193.226667 219.97,193 C220.39,192.773333 220.806667,192.66 221.22,192.66 C221.673333,192.66 222.063333,192.746667 222.39,192.92 C222.716667,193.093333 222.983333,193.336667 223.19,193.65 C223.396667,193.963333 223.546667,194.34 223.64,194.78 C223.733333,195.22 223.78,195.706667 223.78,196.24 C223.78,196.84 223.71,197.38 223.57,197.86 C223.43,198.34 223.236667,198.743333 222.99,199.07 C222.743333,199.396667 222.45,199.65 222.11,199.83 C221.77,200.01 221.4,200.1 221,200.1 Z M229.72,201.24 L229.72,194.2 C230.213333,193.706667 230.653333,193.333333 231.04,193.08 C231.426667,192.826667 231.873333,192.7 232.38,192.7 C233.02,192.7 233.486667,192.903333 233.78,193.31 C234.073333,193.716667 234.22,194.38 234.22,195.3 L234.22,195.3 L234.22,201.24 L235.86,201.24 L235.86,195.08 C235.86,193.826667 235.623333,192.88 235.15,192.24 C234.676667,191.6 233.926667,191.28 232.9,191.28 C232.22,191.28 231.626667,191.436667 231.12,191.75 C230.613333,192.063333 230.126667,192.44 229.66,192.88 L229.66,192.88 L229.72,190.88 L229.72,187 L228.08,187 L228.08,201.24 L229.72,201.24 Z M242.74,201.48 C243.34,201.48 243.91,201.366667 244.45,201.14 C244.99,200.913333 245.466667,200.583333 245.88,200.15 C246.293333,199.716667 246.623333,199.183333 246.87,198.55 C247.116667,197.916667 247.24,197.2 247.24,196.4 C247.24,195.586667 247.116667,194.863333 246.87,194.23 C246.623333,193.596667 246.293333,193.06 245.88,192.62 C245.466667,192.18 244.99,191.846667 244.45,191.62 C243.91,191.393333 243.34,191.28 242.74,191.28 C242.14,191.28 241.57,191.393333 241.03,191.62 C240.49,191.846667 240.013333,192.18 239.6,192.62 C239.186667,193.06 238.856667,193.596667 238.61,194.23 C238.363333,194.863333 238.24,195.586667 238.24,196.4 C238.24,197.2 238.363333,197.916667 238.61,198.55 C238.856667,199.183333 239.186667,199.716667 239.6,200.15 C240.013333,200.583333 240.49,200.913333 241.03,201.14 C241.57,201.366667 242.14,201.48 242.74,201.48 Z M242.74,200.12 C242.326667,200.12 241.946667,200.03 241.6,199.85 C241.253333,199.67 240.956667,199.416667 240.71,199.09 C240.463333,198.763333 240.273333,198.373333 240.14,197.92 C240.006667,197.466667 239.94,196.96 239.94,196.4 C239.94,195.84 240.006667,195.33 240.14,194.87 C240.273333,194.41 240.463333,194.013333 240.71,193.68 C240.956667,193.346667 241.253333,193.09 241.6,192.91 C241.946667,192.73 242.326667,192.64 242.74,192.64 C243.153333,192.64 243.533333,192.73 243.88,192.91 C244.226667,193.09 244.523333,193.346667 244.77,193.68 C245.016667,194.013333 245.206667,194.41 245.34,194.87 C245.473333,195.33 245.54,195.84 245.54,196.4 C245.54,196.96 245.473333,197.466667 245.34,197.92 C245.206667,198.373333 245.016667,198.763333 244.77,199.09 C244.523333,199.416667 244.226667,199.67 243.88,199.85 C243.533333,200.03 243.153333,200.12 242.74,200.12 Z M251.44,201.24 L251.44,194.2 C251.933333,193.706667 252.373333,193.333333 252.76,193.08 C253.146667,192.826667 253.593333,192.7 254.1,192.7 C254.74,192.7 255.206667,192.903333 255.5,193.31 C255.793333,193.716667 255.94,194.38 255.94,195.3 L255.94,195.3 L255.94,201.24 L257.58,201.24 L257.58,195.08 C257.58,193.826667 257.343333,192.88 256.87,192.24 C256.396667,191.6 255.646667,191.28 254.62,191.28 C253.94,191.28 253.343333,191.436667 252.83,191.75 C252.316667,192.063333 251.826667,192.453333 251.36,192.92 L251.36,192.92 L251.3,192.92 L251.16,191.52 L249.8,191.52 L249.8,201.24 L251.44,201.24 Z M264.68,201.48 C265.346667,201.48 265.94,201.38 266.46,201.18 C266.98,200.98 267.453333,200.746667 267.88,200.48 L267.88,200.48 L267.3,199.4 C266.94,199.626667 266.563333,199.81 266.17,199.95 C265.776667,200.09 265.346667,200.16 264.88,200.16 C263.946667,200.16 263.19,199.856667 262.61,199.25 C262.03,198.643333 261.706667,197.82 261.64,196.78 L261.64,196.78 L268.2,196.78 C268.226667,196.66 268.243333,196.516667 268.25,196.35 C268.256667,196.183333 268.26,196.013333 268.26,195.84 C268.26,195.146667 268.173333,194.52 268,193.96 C267.826667,193.4 267.576667,192.92 267.25,192.52 C266.923333,192.12 266.516667,191.813333 266.03,191.6 C265.543333,191.386667 264.993333,191.28 264.38,191.28 C263.82,191.28 263.28,191.396667 262.76,191.63 C262.24,191.863333 261.776667,192.2 261.37,192.64 C260.963333,193.08 260.636667,193.616667 260.39,194.25 C260.143333,194.883333 260.02,195.6 260.02,196.4 C260.02,197.2 260.14,197.913333 260.38,198.54 C260.62,199.166667 260.95,199.696667 261.37,200.13 C261.79,200.563333 262.283333,200.896667 262.85,201.13 C263.416667,201.363333 264.026667,201.48 264.68,201.48 Z M266.82,195.6 L261.62,195.6 C261.673333,195.12 261.783333,194.693333 261.95,194.32 C262.116667,193.946667 262.326667,193.63 262.58,193.37 C262.833333,193.11 263.116667,192.913333 263.43,192.78 C263.743333,192.646667 264.073333,192.58 264.42,192.58 C265.18,192.58 265.77,192.836667 266.19,193.35 C266.61,193.863333 266.82,194.613333 266.82,195.6 L266.82,195.6 Z" id="Telephone" fill="#000000" fill-rule="nonzero"></path>
        <rect id="Rectangle" stroke="#000000" fill="#FFFFFF" x="135.5" y="70.5" width="34" height="34" rx="17"></rect>
        <rect id="Rectangle" fill="#005FC6" x="143" y="78" width="18.864865" height="18.864865" rx="9.4324325"></rect>
        <rect id="Rectangle" stroke="#000000" fill="#FFFFFF" x="135.5" y="125.5" width="34" height="34" rx="17"></rect>
        <rect id="Rectangle" fill="#005FC6" x="143" y="133" width="18.864865" height="18.864865" rx="9.4324325"></rect>
        <rect id="Rectangle" stroke="#6E7272" fill="#FFFFFF" x="135.5" y="178.5" width="34" height="34" rx="17"></rect>
    </g>
</svg>