<svg id="Layer_1" data-name="Layer 1" xmlns="http://www.w3.org/2000/svg" viewBox="0 0 480 200"><defs><style>.cls-1{fill:#db0022;}.cls-2{fill:#f5f5f5;}.cls-3{fill:#4b4b4b;}.cls-4{fill:#005fc6;}</style></defs><rect class="cls-1" width="6" height="200"/><rect class="cls-2" x="6" width="474" height="200"/><path class="cls-1" d="M33,10.15a15.65,15.65,0,1,0,15.7,15.6A15.73,15.73,0,0,0,33,10.15Z"/><rect class="cls-2" x="23" y="24.16" width="20" height="3.3" transform="translate(-8.58 30.9) rotate(-45)"/><rect class="cls-2" x="31.29" y="15.73" width="3.3" height="20" transform="translate(-8.55 30.83) rotate(-45)"/><path class="cls-3" d="M88.49,68.92V58.42h1.32v10.5Z"/><path class="cls-3" d="M92.79,68.92v-6.7H91.73v-1l1.06-.08V59.91A2.93,2.93,0,0,1,93.34,58a2.1,2.1,0,0,1,1.72-.68,3.14,3.14,0,0,1,.7.07,4.27,4.27,0,0,1,.6.18l-.29,1a2.12,2.12,0,0,0-.88-.19c-.73,0-1.09.5-1.09,1.5v1.23h1.65v1.08H94.1v6.7Z"/><path class="cls-3" d="M102.88,69.11a2.48,2.48,0,0,1-1-.19,1.68,1.68,0,0,1-.69-.53,2,2,0,0,1-.38-.81,4.93,4.93,0,0,1-.11-1.06v-4.3H99.51v-1l1.21-.08.16-2.17H102v2.17h2.09v1.08H102v4.32a2,2,0,0,0,.26,1.11,1.06,1.06,0,0,0,.94.39,1.86,1.86,0,0,0,.45-.06,3.58,3.58,0,0,0,.43-.15l.25,1a4.31,4.31,0,0,1-.69.2A3.2,3.2,0,0,1,102.88,69.11Z"/><path class="cls-3" d="M107.08,68.92l-2.16-7.78h1.34l1.15,4.5c.09.37.17.74.24,1.09s.15.71.23,1.07h.06c.09-.36.17-.72.26-1.08s.17-.72.27-1.08l1.2-4.5H111l1.21,4.5c.1.37.19.74.28,1.09s.18.71.27,1.07h.06c.09-.36.17-.72.24-1.07s.16-.72.24-1.09l1.14-4.5h1.25l-2.08,7.78H112l-1.12-4.18c-.1-.37-.19-.74-.27-1.1l-.26-1.14h-.07c-.08.4-.17.78-.25,1.15s-.18.74-.29,1.11l-1.09,4.16Z"/><path class="cls-3" d="M120.29,69.11a3.56,3.56,0,0,1-1.37-.27,3.3,3.3,0,0,1-1.14-.79,3.91,3.91,0,0,1-.79-1.28,4.67,4.67,0,0,1-.3-1.72,4.74,4.74,0,0,1,.3-1.74,4.18,4.18,0,0,1,.79-1.29,3.47,3.47,0,0,1,1.14-.8,3.56,3.56,0,0,1,1.37-.27,3.52,3.52,0,0,1,1.37.27,3.47,3.47,0,0,1,1.14.8,4,4,0,0,1,.8,1.29,5,5,0,0,1,.29,1.74,4.88,4.88,0,0,1-.29,1.72,3.77,3.77,0,0,1-.8,1.28,3.3,3.3,0,0,1-1.14.79A3.52,3.52,0,0,1,120.29,69.11Zm0-1.09a2,2,0,0,0,.91-.21,2.21,2.21,0,0,0,.72-.61,2.83,2.83,0,0,0,.45-.94,4.12,4.12,0,0,0,.16-1.21,4.31,4.31,0,0,0-.16-1.23,3.09,3.09,0,0,0-.45-1,2.1,2.1,0,0,0-.72-.61,1.86,1.86,0,0,0-.91-.22,1.88,1.88,0,0,0-.91.22,2.07,2.07,0,0,0-.71.61,3.11,3.11,0,0,0-.46,1,4.7,4.7,0,0,0-.16,1.23,4.49,4.49,0,0,0,.16,1.21,2.85,2.85,0,0,0,.46.94,2.18,2.18,0,0,0,.71.61A2,2,0,0,0,120.29,68Z"/><path class="cls-3" d="M132.29,69.11a3.72,3.72,0,0,1-1.46-.28,3.3,3.3,0,0,1-1.18-.8,3.58,3.58,0,0,1-.8-1.27,4.79,4.79,0,0,1-.29-1.71,4.67,4.67,0,0,1,.3-1.72,4,4,0,0,1,.79-1.29,3.38,3.38,0,0,1,1.11-.81,3.18,3.18,0,0,1,1.29-.28,3.27,3.27,0,0,1,1.32.26,2.48,2.48,0,0,1,1,.74,3.3,3.3,0,0,1,.6,1.15,5,5,0,0,1,.21,1.5c0,.14,0,.28,0,.41a2.66,2.66,0,0,1,0,.34h-5.25a3,3,0,0,0,.78,2,2.41,2.41,0,0,0,1.81.73,3,3,0,0,0,1-.17,4.49,4.49,0,0,0,.91-.44l.46.86a6.26,6.26,0,0,1-1.13.56A4,4,0,0,1,132.29,69.11Zm-2.45-4.7H134a2.76,2.76,0,0,0-.5-1.8,1.74,1.74,0,0,0-1.42-.62,2.14,2.14,0,0,0-.79.16,2.24,2.24,0,0,0-.68.47,2.71,2.71,0,0,0-.5.76A3.78,3.78,0,0,0,129.84,64.41Z"/><path class="cls-3" d="M137.08,68.92V61.14h1.08l.12,1.12h0a5.71,5.71,0,0,1,1.12-.93,2.4,2.4,0,0,1,1.3-.38,2.24,2.24,0,0,1,1.4.39,2.29,2.29,0,0,1,.74,1.1,6.61,6.61,0,0,1,1.23-1.08,2.37,2.37,0,0,1,1.33-.41,2.12,2.12,0,0,1,1.79.77,3.71,3.71,0,0,1,.58,2.27v4.93H146.5V64.17a2.79,2.79,0,0,0-.35-1.59,1.25,1.25,0,0,0-1.09-.49,2.87,2.87,0,0,0-1.95,1.2v5.63H141.8V64.17a2.7,2.7,0,0,0-.36-1.59,1.25,1.25,0,0,0-1.1-.49,2.87,2.87,0,0,0-2,1.2v5.63Z"/><path class="cls-3" d="M152.13,69.11a2.36,2.36,0,0,1-1.62-.57,2.09,2.09,0,0,1-.65-1.63A2.15,2.15,0,0,1,151,65a9.14,9.14,0,0,1,3.63-1,4.39,4.39,0,0,0-.07-.72,1.8,1.8,0,0,0-.25-.62,1.31,1.31,0,0,0-.49-.44A1.68,1.68,0,0,0,153,62a3.12,3.12,0,0,0-1.26.26,6.21,6.21,0,0,0-1.06.57L150.2,62a8.92,8.92,0,0,1,1.32-.68,4.44,4.44,0,0,1,1.73-.33,2.41,2.41,0,0,1,2.07.87,3.92,3.92,0,0,1,.64,2.33v4.77h-1.09l-.11-.93h0a5.93,5.93,0,0,1-1.2.79A3,3,0,0,1,152.13,69.11Zm.39-1a2.16,2.16,0,0,0,1-.27,5,5,0,0,0,1.06-.77V64.86a11.93,11.93,0,0,0-1.64.3,4.41,4.41,0,0,0-1.07.42,1.7,1.7,0,0,0-.6.55,1.33,1.33,0,0,0-.18.68,1.09,1.09,0,0,0,.4,1A1.65,1.65,0,0,0,152.52,68.06Z"/><path class="cls-3" d="M159.08,59.54a.92.92,0,0,1-.65-.24.77.77,0,0,1-.27-.6.78.78,0,0,1,.27-.62,1,1,0,0,1,1.29,0,.78.78,0,0,1,.27.62.77.77,0,0,1-.27.6A.91.91,0,0,1,159.08,59.54Zm-.68,9.38V61.14h1.32v7.78Z"/><path class="cls-3" d="M163.73,69.11a1.22,1.22,0,0,1-1.07-.45,2.24,2.24,0,0,1-.32-1.31V57.53h1.31v9.92a.74.74,0,0,0,.11.45A.35.35,0,0,0,164,68h.12l.17,0,.17,1a1.07,1.07,0,0,1-.3.09A2.81,2.81,0,0,1,163.73,69.11Z"/><path class="cls-3" d="M171.41,69.11a2.36,2.36,0,0,1-1.62-.57,2.09,2.09,0,0,1-.65-1.63,2.15,2.15,0,0,1,1.14-2,9.14,9.14,0,0,1,3.63-1,4.39,4.39,0,0,0-.07-.72,1.8,1.8,0,0,0-.25-.62,1.31,1.31,0,0,0-.49-.44,1.68,1.68,0,0,0-.79-.17,3.21,3.21,0,0,0-1.27.26,6.5,6.5,0,0,0-1,.57l-.51-.91a8.92,8.92,0,0,1,1.32-.68,4.44,4.44,0,0,1,1.73-.33,2.41,2.41,0,0,1,2.07.87,3.92,3.92,0,0,1,.64,2.33v4.77h-1.09L174,68h0a6.54,6.54,0,0,1-1.2.79A3,3,0,0,1,171.41,69.11Zm.39-1a2.16,2.16,0,0,0,1-.27,5.28,5.28,0,0,0,1.06-.77V64.86a11.93,11.93,0,0,0-1.64.3,4.41,4.41,0,0,0-1.07.42,1.62,1.62,0,0,0-.6.55,1.33,1.33,0,0,0-.18.68,1.09,1.09,0,0,0,.4,1A1.65,1.65,0,0,0,171.8,68.06Z"/><path class="cls-3" d="M180.34,69.11a2.88,2.88,0,0,1-2.34-1,4.58,4.58,0,0,1-.88-3,5.11,5.11,0,0,1,.28-1.71,4.12,4.12,0,0,1,.75-1.28,3.13,3.13,0,0,1,1.07-.82A3,3,0,0,1,180.5,61a2.66,2.66,0,0,1,1.17.24,5.42,5.42,0,0,1,1,.66l-.07-1.33v-3h1.33V68.92h-1.09l-.11-.91h-.05a4.57,4.57,0,0,1-1.06.77A2.63,2.63,0,0,1,180.34,69.11Zm.29-1.1a2,2,0,0,0,1-.27,3.57,3.57,0,0,0,1-.8V62.87a3.25,3.25,0,0,0-1-.63,2.53,2.53,0,0,0-.94-.18,1.86,1.86,0,0,0-.87.21,2.29,2.29,0,0,0-.71.61,3.08,3.08,0,0,0-.48.94,3.8,3.8,0,0,0-.18,1.21,3.73,3.73,0,0,0,.56,2.19A1.83,1.83,0,0,0,180.63,68Z"/><path class="cls-3" d="M189.22,69.11a2.88,2.88,0,0,1-2.34-1,4.58,4.58,0,0,1-.88-3,5.11,5.11,0,0,1,.28-1.71,4.12,4.12,0,0,1,.75-1.28,3.13,3.13,0,0,1,1.07-.82,3,3,0,0,1,1.28-.29,2.66,2.66,0,0,1,1.17.24,5.42,5.42,0,0,1,1,.66l-.07-1.33v-3h1.33V68.92h-1.09l-.11-.91h-.05a4.57,4.57,0,0,1-1.06.77A2.63,2.63,0,0,1,189.22,69.11Zm.29-1.1a2,2,0,0,0,1-.27,3.57,3.57,0,0,0,1-.8V62.87a3.25,3.25,0,0,0-1-.63,2.53,2.53,0,0,0-.94-.18,1.86,1.86,0,0,0-.87.21,2.29,2.29,0,0,0-.71.61,3.08,3.08,0,0,0-.48.94,3.8,3.8,0,0,0-.18,1.21,3.73,3.73,0,0,0,.56,2.19A1.83,1.83,0,0,0,189.51,68Z"/><path class="cls-3" d="M195.44,68.92V61.14h1.09l.11,1.41h.05a3.66,3.66,0,0,1,1-1.17A2.05,2.05,0,0,1,198.9,61a2.15,2.15,0,0,1,.83.16l-.25,1.15-.36-.09a2.17,2.17,0,0,0-.4,0,1.72,1.72,0,0,0-1,.4,3.06,3.06,0,0,0-.93,1.39v5Z"/><path class="cls-3" d="M204,69.11a3.77,3.77,0,0,1-1.47-.28,3.38,3.38,0,0,1-1.18-.8,3.56,3.56,0,0,1-.79-1.27,4.58,4.58,0,0,1-.29-1.71,4.67,4.67,0,0,1,.3-1.72,3.77,3.77,0,0,1,.78-1.29,3.38,3.38,0,0,1,1.11-.81,3.31,3.31,0,0,1,2.62,0,2.45,2.45,0,0,1,1,.74,3.3,3.3,0,0,1,.6,1.15,5,5,0,0,1,.21,1.5c0,.14,0,.28,0,.41a1.59,1.59,0,0,1,0,.34h-5.24a3.06,3.06,0,0,0,.77,2,2.43,2.43,0,0,0,1.82.73,3.13,3.13,0,0,0,1-.17,4.41,4.41,0,0,0,.9-.44l.47.86a6,6,0,0,1-1.14.56A4,4,0,0,1,204,69.11Zm-2.45-4.7h4.16a2.76,2.76,0,0,0-.51-1.8,1.71,1.71,0,0,0-1.41-.62,2.1,2.1,0,0,0-.79.16,2.24,2.24,0,0,0-.68.47,2.74,2.74,0,0,0-.51.76A3.46,3.46,0,0,0,201.54,64.41Z"/><path class="cls-3" d="M210.8,69.11a4.23,4.23,0,0,1-1.58-.3,4.82,4.82,0,0,1-1.31-.77l.65-.88a5,5,0,0,0,1.05.67,2.86,2.86,0,0,0,1.24.26,1.66,1.66,0,0,0,1.15-.35,1.14,1.14,0,0,0,.39-.87,1,1,0,0,0-.16-.53,1.91,1.91,0,0,0-.41-.39,3,3,0,0,0-.57-.29l-.64-.26c-.28-.1-.55-.2-.83-.33a2.87,2.87,0,0,1-.74-.45,2.24,2.24,0,0,1-.54-.61,1.65,1.65,0,0,1-.21-.85,2,2,0,0,1,.19-.87,2,2,0,0,1,.52-.71,2.6,2.6,0,0,1,.84-.46,3.73,3.73,0,0,1,2.48.09,4.35,4.35,0,0,1,1.06.62l-.62.83a4.48,4.48,0,0,0-.84-.49A2.23,2.23,0,0,0,211,62a1.52,1.52,0,0,0-1.08.33,1.08,1.08,0,0,0-.34.79.75.75,0,0,0,.14.47,1.43,1.43,0,0,0,.38.35,3.24,3.24,0,0,0,.56.27l.64.25.84.34a2.7,2.7,0,0,1,.76.44,2.16,2.16,0,0,1,.56.64,1.94,1.94,0,0,1,.21.93,2.26,2.26,0,0,1-.18.9,2.17,2.17,0,0,1-.55.73,2.5,2.5,0,0,1-.89.51A3.88,3.88,0,0,1,210.8,69.11Z"/><path class="cls-3" d="M217.51,69.11a4.28,4.28,0,0,1-1.59-.3,4.82,4.82,0,0,1-1.31-.77l.66-.88a5,5,0,0,0,1,.67,2.83,2.83,0,0,0,1.24.26,1.68,1.68,0,0,0,1.15-.35,1.17,1.17,0,0,0,.38-.87.88.88,0,0,0-.16-.53,1.7,1.7,0,0,0-.41-.39,2.68,2.68,0,0,0-.56-.29l-.64-.26c-.28-.1-.56-.2-.84-.33a3.25,3.25,0,0,1-.74-.45,2.24,2.24,0,0,1-.54-.61,1.65,1.65,0,0,1-.2-.85,2.12,2.12,0,0,1,.18-.87,2,2,0,0,1,.53-.71,2.6,2.6,0,0,1,.84-.46,3.7,3.7,0,0,1,2.47.09,4.35,4.35,0,0,1,1.06.62l-.62.83a4.41,4.41,0,0,0-.83-.49,2.3,2.3,0,0,0-.95-.19,1.52,1.52,0,0,0-1.08.33,1.08,1.08,0,0,0-.34.79.82.82,0,0,0,.14.47,1.48,1.48,0,0,0,.39.35,3.13,3.13,0,0,0,.55.27l.65.25.84.34a3,3,0,0,1,.76.44,2.13,2.13,0,0,1,.55.64,1.94,1.94,0,0,1,.22.93,2.27,2.27,0,0,1-.19.9,2,2,0,0,1-.54.73,2.46,2.46,0,0,1-.9.51A3.82,3.82,0,0,1,217.51,69.11Z"/><path class="cls-3" d="M225.33,69.11a3.72,3.72,0,0,1-1.46-.28,3.33,3.33,0,0,1-1.19-.8,3.7,3.7,0,0,1-.79-1.27,4.79,4.79,0,0,1-.29-1.71,4.67,4.67,0,0,1,.3-1.72,4.11,4.11,0,0,1,.78-1.29,3.6,3.6,0,0,1,1.11-.81,3.31,3.31,0,0,1,2.62,0,2.48,2.48,0,0,1,1,.74,3.3,3.3,0,0,1,.6,1.15,5,5,0,0,1,.2,1.5V65a2.66,2.66,0,0,1,0,.34H222.9a3.06,3.06,0,0,0,.77,2,2.43,2.43,0,0,0,1.82.73,3.09,3.09,0,0,0,1-.17,4.49,4.49,0,0,0,.91-.44l.46.86a6,6,0,0,1-1.14.56A3.91,3.91,0,0,1,225.33,69.11Zm-2.45-4.7H227a2.82,2.82,0,0,0-.5-1.8,1.74,1.74,0,0,0-1.42-.62,2.14,2.14,0,0,0-.79.16,2.24,2.24,0,0,0-.68.47,2.71,2.71,0,0,0-.5.76A3.45,3.45,0,0,0,222.88,64.41Z"/><path class="cls-3" d="M232.15,69.11a4.24,4.24,0,0,1-1.59-.3,4.82,4.82,0,0,1-1.31-.77l.66-.88a5.23,5.23,0,0,0,1,.67,2.89,2.89,0,0,0,1.24.26,1.69,1.69,0,0,0,1.16-.35,1.17,1.17,0,0,0,.38-.87.88.88,0,0,0-.16-.53,1.7,1.7,0,0,0-.41-.39,2.53,2.53,0,0,0-.57-.29L232,65.4c-.27-.1-.55-.2-.83-.33a3.25,3.25,0,0,1-.74-.45,2.24,2.24,0,0,1-.54-.61,1.65,1.65,0,0,1-.21-.85,2.13,2.13,0,0,1,.19-.87,2,2,0,0,1,.53-.71,2.6,2.6,0,0,1,.84-.46,3.7,3.7,0,0,1,2.47.09,4.35,4.35,0,0,1,1.06.62l-.62.83a4.75,4.75,0,0,0-.83-.49,2.3,2.3,0,0,0-1-.19,1.52,1.52,0,0,0-1.08.33,1.08,1.08,0,0,0-.34.79.82.82,0,0,0,.14.47,1.48,1.48,0,0,0,.39.35,3.13,3.13,0,0,0,.55.27l.65.25.84.34a3,3,0,0,1,.76.44,2.28,2.28,0,0,1,.55.64,1.94,1.94,0,0,1,.21.93,2.26,2.26,0,0,1-.18.9,2,2,0,0,1-.54.73,2.46,2.46,0,0,1-.9.51A3.86,3.86,0,0,1,232.15,69.11Z"/><path class="cls-3" d="M240,68.92V57.53h1.31v3.1l-.05,1.6a8,8,0,0,1,1.17-.9,2.67,2.67,0,0,1,1.42-.38,2.08,2.08,0,0,1,1.8.77,3.78,3.78,0,0,1,.57,2.27v4.93h-1.31V64.17a2.79,2.79,0,0,0-.35-1.59,1.29,1.29,0,0,0-1.12-.49,1.91,1.91,0,0,0-1.07.3,7.38,7.38,0,0,0-1.06.9v5.63Z"/><path class="cls-3" d="M250.51,69.11a2.36,2.36,0,0,1-1.62-.57,2.09,2.09,0,0,1-.65-1.63,2.15,2.15,0,0,1,1.14-2A9.24,9.24,0,0,1,253,64a3.51,3.51,0,0,0-.07-.72,1.8,1.8,0,0,0-.25-.62,1.31,1.31,0,0,0-.49-.44,1.68,1.68,0,0,0-.79-.17,3.12,3.12,0,0,0-1.26.26,6.21,6.21,0,0,0-1.06.57l-.51-.91a8.59,8.59,0,0,1,1.33-.68,4.39,4.39,0,0,1,1.72-.33,2.41,2.41,0,0,1,2.07.87,3.85,3.85,0,0,1,.64,2.33v4.77h-1.09l-.11-.93h0a5.93,5.93,0,0,1-1.2.79A3,3,0,0,1,250.51,69.11Zm.39-1a2.16,2.16,0,0,0,1-.27A5,5,0,0,0,253,67V64.86a11.93,11.93,0,0,0-1.64.3,4.41,4.41,0,0,0-1.07.42,1.58,1.58,0,0,0-.59.55,1.25,1.25,0,0,0-.19.68,1.11,1.11,0,0,0,.4,1A1.65,1.65,0,0,0,250.9,68.06Z"/><path class="cls-3" d="M258.47,68.92l-2.8-7.78H257l1.47,4.42.36,1.15q.18.58.36,1.14h.06c.12-.37.24-.75.35-1.14l.36-1.15,1.47-4.42h1.29L260,68.92Z"/><path class="cls-3" d="M267.35,69.11a3.77,3.77,0,0,1-1.47-.28,3.3,3.3,0,0,1-1.18-.8,3.56,3.56,0,0,1-.79-1.27,4.58,4.58,0,0,1-.29-1.71,4.88,4.88,0,0,1,.29-1.72A4,4,0,0,1,264.7,62a3.38,3.38,0,0,1,1.11-.81,3.31,3.31,0,0,1,2.62,0,2.45,2.45,0,0,1,1,.74,3.3,3.3,0,0,1,.6,1.15,5,5,0,0,1,.21,1.5c0,.14,0,.28,0,.41a1.59,1.59,0,0,1,0,.34h-5.25a3.12,3.12,0,0,0,.78,2,2.42,2.42,0,0,0,1.82.73,3.13,3.13,0,0,0,1-.17,4.68,4.68,0,0,0,.9-.44l.47.86a6.36,6.36,0,0,1-1.14.56A4,4,0,0,1,267.35,69.11Zm-2.45-4.7h4.16a2.76,2.76,0,0,0-.51-1.8,1.71,1.71,0,0,0-1.41-.62,2.1,2.1,0,0,0-.79.16,2.24,2.24,0,0,0-.68.47,2.74,2.74,0,0,0-.51.76A3.46,3.46,0,0,0,264.9,64.41Z"/><path class="cls-3" d="M278.77,69.11a2.84,2.84,0,0,1-1.13-.26,4.25,4.25,0,0,1-1.09-.73h-.05l-.11.8h-1.06V57.53h1.31v3.1l0,1.41a5.55,5.55,0,0,1,1.15-.78A2.94,2.94,0,0,1,279,61a3.1,3.1,0,0,1,1.33.28,2.78,2.78,0,0,1,1,.8,3.71,3.71,0,0,1,.59,1.25,6.33,6.33,0,0,1,.2,1.63,5.39,5.39,0,0,1-.27,1.77,4.06,4.06,0,0,1-.74,1.33,3,3,0,0,1-1.07.82A3,3,0,0,1,278.77,69.11Zm-.22-1.1a1.77,1.77,0,0,0,.88-.22,2,2,0,0,0,.71-.61,2.86,2.86,0,0,0,.46-1,4.76,4.76,0,0,0,.17-1.3,6,6,0,0,0-.11-1.17,2.83,2.83,0,0,0-.36-.9,1.81,1.81,0,0,0-.64-.59,2.1,2.1,0,0,0-.94-.2,3.24,3.24,0,0,0-2.08,1v4.08a3.15,3.15,0,0,0,1,.63A2.46,2.46,0,0,0,278.55,68Z"/><path class="cls-3" d="M287.33,69.11a3.72,3.72,0,0,1-1.46-.28,3.33,3.33,0,0,1-1.19-.8,3.7,3.7,0,0,1-.79-1.27,4.79,4.79,0,0,1-.29-1.71,4.67,4.67,0,0,1,.3-1.72,4.11,4.11,0,0,1,.78-1.29,3.6,3.6,0,0,1,1.11-.81,3.31,3.31,0,0,1,2.62,0,2.55,2.55,0,0,1,1,.74,3.3,3.3,0,0,1,.6,1.15,5.34,5.34,0,0,1,.2,1.5V65a2.66,2.66,0,0,1,0,.34H284.9a3.06,3.06,0,0,0,.77,2,2.43,2.43,0,0,0,1.82.73,3.09,3.09,0,0,0,1-.17,4.49,4.49,0,0,0,.91-.44l.46.86a6,6,0,0,1-1.14.56A3.91,3.91,0,0,1,287.33,69.11Zm-2.45-4.7H289a2.82,2.82,0,0,0-.5-1.8,1.74,1.74,0,0,0-1.42-.62,2.1,2.1,0,0,0-.79.16,2.24,2.24,0,0,0-.68.47,2.71,2.71,0,0,0-.5.76A3.18,3.18,0,0,0,284.88,64.41Z"/><path class="cls-3" d="M295.27,69.11a3.77,3.77,0,0,1-1.47-.28,3.3,3.3,0,0,1-1.18-.8,3.56,3.56,0,0,1-.79-1.27,4.58,4.58,0,0,1-.29-1.71,4.88,4.88,0,0,1,.29-1.72,4,4,0,0,1,.79-1.29,3.38,3.38,0,0,1,1.11-.81,3.31,3.31,0,0,1,2.62,0,2.45,2.45,0,0,1,1,.74,3.3,3.3,0,0,1,.6,1.15,5,5,0,0,1,.21,1.5c0,.14,0,.28,0,.41a1.59,1.59,0,0,1,0,.34h-5.25a3.12,3.12,0,0,0,.78,2,2.42,2.42,0,0,0,1.82.73,3.13,3.13,0,0,0,1-.17,4.68,4.68,0,0,0,.9-.44l.47.86a6.36,6.36,0,0,1-1.14.56A4,4,0,0,1,295.27,69.11Zm-2.45-4.7H297a2.76,2.76,0,0,0-.51-1.8,1.71,1.71,0,0,0-1.41-.62,2.1,2.1,0,0,0-.79.16,2.24,2.24,0,0,0-.68.47,2.74,2.74,0,0,0-.51.76A3.46,3.46,0,0,0,292.82,64.41Z"/><path class="cls-3" d="M300.05,68.92V61.14h1.09l.11,1.12h.05a6.29,6.29,0,0,1,1.17-.93,2.71,2.71,0,0,1,1.44-.38,2.1,2.1,0,0,1,1.8.77,3.86,3.86,0,0,1,.56,2.27v4.93H305V64.17a2.79,2.79,0,0,0-.35-1.59,1.27,1.27,0,0,0-1.12-.49,1.91,1.91,0,0,0-1.07.3,7.38,7.38,0,0,0-1.06.9v5.63Z"/><path class="cls-3" d="M313.79,69.11a2.36,2.36,0,0,1-1.62-.57,2.09,2.09,0,0,1-.65-1.63,2.15,2.15,0,0,1,1.14-2,9.14,9.14,0,0,1,3.63-1,3.51,3.51,0,0,0-.07-.72,1.8,1.8,0,0,0-.25-.62,1.31,1.31,0,0,0-.49-.44,1.68,1.68,0,0,0-.79-.17,3.12,3.12,0,0,0-1.26.26,6.21,6.21,0,0,0-1.06.57l-.51-.91a8.59,8.59,0,0,1,1.33-.68,4.36,4.36,0,0,1,1.72-.33,2.41,2.41,0,0,1,2.07.87,3.92,3.92,0,0,1,.64,2.33v4.77h-1.09l-.11-.93h-.05a5.93,5.93,0,0,1-1.2.79A3,3,0,0,1,313.79,69.11Zm.39-1a2.16,2.16,0,0,0,1.05-.27,5,5,0,0,0,1.06-.77V64.86a11.93,11.93,0,0,0-1.64.3,4.41,4.41,0,0,0-1.07.42,1.7,1.7,0,0,0-.6.55,1.33,1.33,0,0,0-.18.68,1.09,1.09,0,0,0,.4,1A1.65,1.65,0,0,0,314.18,68.06Z"/><path class="cls-3" d="M322.72,69.11a2.88,2.88,0,0,1-2.34-1,4.63,4.63,0,0,1-.87-3,4.87,4.87,0,0,1,.28-1.71,3.91,3.91,0,0,1,.74-1.28,3.23,3.23,0,0,1,1.07-.82,3,3,0,0,1,1.28-.29,2.66,2.66,0,0,1,1.17.24,5.12,5.12,0,0,1,1,.66L325,60.52v-3h1.33V68.92h-1.09l-.11-.91h-.05a4.57,4.57,0,0,1-1.06.77A2.63,2.63,0,0,1,322.72,69.11ZM323,68a2,2,0,0,0,1-.27,3.57,3.57,0,0,0,1-.8V62.87a3.13,3.13,0,0,0-.95-.63,2.5,2.5,0,0,0-.94-.18,1.92,1.92,0,0,0-.87.21,2.29,2.29,0,0,0-.71.61,3.08,3.08,0,0,0-.48.94,3.81,3.81,0,0,0-.17,1.21,3.66,3.66,0,0,0,.56,2.19A1.81,1.81,0,0,0,323,68Z"/><path class="cls-3" d="M331.6,69.11a2.88,2.88,0,0,1-2.34-1,4.63,4.63,0,0,1-.87-3,4.87,4.87,0,0,1,.28-1.71,3.91,3.91,0,0,1,.74-1.28,3.23,3.23,0,0,1,1.07-.82,3,3,0,0,1,1.28-.29,2.66,2.66,0,0,1,1.17.24,5.12,5.12,0,0,1,1,.66l-.07-1.33v-3h1.33V68.92h-1.09L334,68H334a4.57,4.57,0,0,1-1.06.77A2.63,2.63,0,0,1,331.6,69.11Zm.29-1.1a2,2,0,0,0,1-.27,3.57,3.57,0,0,0,1-.8V62.87a3.13,3.13,0,0,0-.95-.63,2.5,2.5,0,0,0-.94-.18,1.92,1.92,0,0,0-.87.21,2.29,2.29,0,0,0-.71.61,3.08,3.08,0,0,0-.48.94,3.81,3.81,0,0,0-.17,1.21,3.66,3.66,0,0,0,.56,2.19A1.81,1.81,0,0,0,331.89,68Z"/><path class="cls-3" d="M341,69.11a3.77,3.77,0,0,1-1.47-.28,3.38,3.38,0,0,1-1.18-.8,3.56,3.56,0,0,1-.79-1.27,4.79,4.79,0,0,1-.29-1.71,4.67,4.67,0,0,1,.3-1.72,3.77,3.77,0,0,1,.78-1.29,3.38,3.38,0,0,1,1.11-.81,3.31,3.31,0,0,1,2.62,0,2.45,2.45,0,0,1,1,.74,3.3,3.3,0,0,1,.6,1.15,5,5,0,0,1,.21,1.5c0,.14,0,.28,0,.41a1.59,1.59,0,0,1,0,.34h-5.24a3.06,3.06,0,0,0,.77,2,2.43,2.43,0,0,0,1.82.73,3.13,3.13,0,0,0,1-.17,4.41,4.41,0,0,0,.9-.44l.47.86a6,6,0,0,1-1.14.56A4,4,0,0,1,341,69.11Zm-2.45-4.7h4.16a2.82,2.82,0,0,0-.5-1.8,1.74,1.74,0,0,0-1.42-.62,2.1,2.1,0,0,0-.79.16,2.24,2.24,0,0,0-.68.47,2.74,2.74,0,0,0-.51.76A3.46,3.46,0,0,0,338.53,64.41Z"/><path class="cls-3" d="M348.42,69.11a2.9,2.9,0,0,1-2.35-1,4.63,4.63,0,0,1-.87-3,4.87,4.87,0,0,1,.28-1.71,4.12,4.12,0,0,1,.75-1.28,3,3,0,0,1,1.07-.82,3,3,0,0,1,1.28-.29,2.64,2.64,0,0,1,1.16.24,4.84,4.84,0,0,1,1,.66l-.06-1.33v-3H352V68.92h-1.09l-.11-.91h-.05a4.63,4.63,0,0,1-1.07.77A2.57,2.57,0,0,1,348.42,69.11Zm.28-1.1a2.06,2.06,0,0,0,1-.27,3.57,3.57,0,0,0,1-.8V62.87a3.25,3.25,0,0,0-.95-.63,2.57,2.57,0,0,0-.94-.18,1.86,1.86,0,0,0-.87.21,2.29,2.29,0,0,0-.71.61,2.69,2.69,0,0,0-.48.94,3.8,3.8,0,0,0-.18,1.21,3.73,3.73,0,0,0,.56,2.19A1.81,1.81,0,0,0,348.7,68Z"/><path class="cls-3" d="M354.4,71.64l-.32-.77a2.56,2.56,0,0,0,1.07-.81,1.72,1.72,0,0,0,.37-1.14l-.16,0a1,1,0,0,1-.66-.24.81.81,0,0,1-.28-.68.87.87,0,0,1,.28-.68,1.07,1.07,0,0,1,.69-.24,1,1,0,0,1,.81.41,1.93,1.93,0,0,1,.3,1.14,3,3,0,0,1-.56,1.81A3.68,3.68,0,0,1,354.4,71.64Z"/><path class="cls-3" d="M364.27,69.11a2.48,2.48,0,0,1-1-.19,1.68,1.68,0,0,1-.69-.53,2,2,0,0,1-.38-.81,4.93,4.93,0,0,1-.11-1.06v-4.3H360.9v-1l1.21-.08.16-2.17h1.11v2.17h2.09v1.08h-2.09v4.32a2,2,0,0,0,.26,1.11,1.06,1.06,0,0,0,.94.39A1.78,1.78,0,0,0,365,68a3.21,3.21,0,0,0,.44-.15l.25,1a4.31,4.31,0,0,1-.69.2A3.2,3.2,0,0,1,364.27,69.11Z"/><path class="cls-3" d="M367.23,68.92V57.53h1.31v3.1l0,1.6a7.39,7.39,0,0,1,1.16-.9,2.68,2.68,0,0,1,1.43-.38,2.1,2.1,0,0,1,1.8.77,3.78,3.78,0,0,1,.57,2.27v4.93h-1.32V64.17a2.71,2.71,0,0,0-.35-1.59,1.27,1.27,0,0,0-1.12-.49,1.94,1.94,0,0,0-1.07.3,7.38,7.38,0,0,0-1.06.9v5.63Z"/><path class="cls-3" d="M379.09,69.11a3.81,3.81,0,0,1-1.47-.28,3.38,3.38,0,0,1-1.18-.8,3.56,3.56,0,0,1-.79-1.27,4.79,4.79,0,0,1-.29-1.71,4.67,4.67,0,0,1,.3-1.72,3.77,3.77,0,0,1,.78-1.29,3.6,3.6,0,0,1,1.11-.81,3.31,3.31,0,0,1,2.62,0,2.45,2.45,0,0,1,1,.74,3,3,0,0,1,.6,1.15,5,5,0,0,1,.21,1.5c0,.14,0,.28,0,.41a1.13,1.13,0,0,1,0,.34h-5.24a3.06,3.06,0,0,0,.77,2,2.43,2.43,0,0,0,1.82.73,3.09,3.09,0,0,0,1-.17,4.17,4.17,0,0,0,.9-.44l.47.86a6,6,0,0,1-1.14.56A3.91,3.91,0,0,1,379.09,69.11Zm-2.45-4.7h4.16a2.82,2.82,0,0,0-.5-1.8,1.74,1.74,0,0,0-1.42-.62,2.1,2.1,0,0,0-.79.16,2.24,2.24,0,0,0-.68.47,3,3,0,0,0-.51.76A3.46,3.46,0,0,0,376.64,64.41Z"/><path class="cls-3" d="M91.51,93.11a3.72,3.72,0,0,1-1.46-.28,3.33,3.33,0,0,1-1.19-.8,3.7,3.7,0,0,1-.79-1.27,4.79,4.79,0,0,1-.29-1.71,4.67,4.67,0,0,1,.3-1.72A3.94,3.94,0,0,1,88.86,86,3.6,3.6,0,0,1,90,85.23a3.31,3.31,0,0,1,2.62,0,2.45,2.45,0,0,1,1,.74,3.16,3.16,0,0,1,.61,1.15,5.34,5.34,0,0,1,.2,1.5V89a2.66,2.66,0,0,1,0,.34H89.08a3.06,3.06,0,0,0,.77,2,2.43,2.43,0,0,0,1.82.73,3.09,3.09,0,0,0,1-.17,4.17,4.17,0,0,0,.9-.44l.47.86a6,6,0,0,1-1.14.56A3.91,3.91,0,0,1,91.51,93.11Zm-2.45-4.7h4.16a2.82,2.82,0,0,0-.5-1.8A1.74,1.74,0,0,0,91.3,86a2.1,2.1,0,0,0-.79.16,2.24,2.24,0,0,0-.68.47,2.71,2.71,0,0,0-.5.76A3.18,3.18,0,0,0,89.06,88.41Z"/><path class="cls-3" d="M96.29,92.92V85.14h1.09l.11,1.12h.05a5.38,5.38,0,0,1,1.11-.93A2.44,2.44,0,0,1,100,85a2.26,2.26,0,0,1,1.4.39,2.36,2.36,0,0,1,.74,1.1,6.57,6.57,0,0,1,1.22-1.08,2.43,2.43,0,0,1,1.34-.41,2.09,2.09,0,0,1,1.78.77A3.71,3.71,0,0,1,107,88v4.93h-1.31V88.17a2.7,2.7,0,0,0-.36-1.59,1.22,1.22,0,0,0-1.08-.49,2.9,2.9,0,0,0-2,1.2v5.63H101V88.17a2.71,2.71,0,0,0-.35-1.59,1.25,1.25,0,0,0-1.1-.49,2.9,2.9,0,0,0-2,1.2v5.63Z"/><path class="cls-3" d="M111.35,93.11a2.36,2.36,0,0,1-1.62-.57,2.05,2.05,0,0,1-.65-1.63,2.16,2.16,0,0,1,1.13-2,9.25,9.25,0,0,1,3.64-1,3.53,3.53,0,0,0-.08-.72,1.78,1.78,0,0,0-.24-.62,1.31,1.31,0,0,0-.49-.44,1.68,1.68,0,0,0-.79-.17,3.21,3.21,0,0,0-1.27.26,6.1,6.1,0,0,0-1,.57l-.52-.91a9.61,9.61,0,0,1,1.33-.68,4.41,4.41,0,0,1,1.73-.33,2.37,2.37,0,0,1,2.06.87,3.85,3.85,0,0,1,.64,2.33v4.77h-1.08L114,92h0a6.54,6.54,0,0,1-1.2.79A3,3,0,0,1,111.35,93.11Zm.38-1a2.17,2.17,0,0,0,1.06-.27,5.28,5.28,0,0,0,1.06-.77V88.86a11.65,11.65,0,0,0-1.64.3,4.51,4.51,0,0,0-1.08.42,1.58,1.58,0,0,0-.59.55,1.33,1.33,0,0,0-.18.68,1.09,1.09,0,0,0,.4,1A1.62,1.62,0,0,0,111.73,92.06Z"/><path class="cls-3" d="M118.29,83.54a.91.91,0,0,1-.64-.24.77.77,0,0,1-.27-.6.78.78,0,0,1,.27-.62,1,1,0,0,1,1.29,0,.78.78,0,0,1,.27.62.77.77,0,0,1-.27.6A.92.92,0,0,1,118.29,83.54Zm-.67,9.38V85.14h1.31v7.78Z"/><path class="cls-3" d="M123,93.11a1.22,1.22,0,0,1-1.07-.45,2.17,2.17,0,0,1-.32-1.31V81.53h1.31v9.92a.74.74,0,0,0,.11.45.35.35,0,0,0,.26.12h.12l.16,0,.18,1a1.32,1.32,0,0,1-.3.09A2.81,2.81,0,0,1,123,93.11Z"/><path class="cls-3" d="M130.63,93.11a2.36,2.36,0,0,1-1.62-.57,2.05,2.05,0,0,1-.65-1.63,2.16,2.16,0,0,1,1.13-2,9.24,9.24,0,0,1,3.63-1,3.51,3.51,0,0,0-.07-.72,1.78,1.78,0,0,0-.24-.62,1.39,1.39,0,0,0-.49-.44,1.69,1.69,0,0,0-.8-.17,3.19,3.19,0,0,0-1.26.26,6.61,6.61,0,0,0-1.06.57l-.51-.91a9.61,9.61,0,0,1,1.33-.68,4.41,4.41,0,0,1,1.73-.33,2.37,2.37,0,0,1,2.06.87,3.85,3.85,0,0,1,.64,2.33v4.77h-1.09l-.11-.93h-.05a6.15,6.15,0,0,1-1.19.79A3,3,0,0,1,130.63,93.11Zm.38-1a2.17,2.17,0,0,0,1.06-.27,5,5,0,0,0,1.05-.77V88.86a12.22,12.22,0,0,0-1.64.3,4.59,4.59,0,0,0-1.07.42,1.58,1.58,0,0,0-.59.55,1.33,1.33,0,0,0-.18.68,1.09,1.09,0,0,0,.4,1A1.62,1.62,0,0,0,131,92.06Z"/><path class="cls-3" d="M139.56,93.11a2.89,2.89,0,0,1-2.35-1,4.63,4.63,0,0,1-.87-3,4.87,4.87,0,0,1,.28-1.71,4.3,4.3,0,0,1,.74-1.28,3.17,3.17,0,0,1,1.08-.82,3,3,0,0,1,1.28-.29,2.64,2.64,0,0,1,1.16.24,4.84,4.84,0,0,1,1,.66l-.06-1.33v-3h1.33V92.92h-1.09L142,92h-.05a4.63,4.63,0,0,1-1.07.77A2.6,2.6,0,0,1,139.56,93.11Zm.28-1.1a2.06,2.06,0,0,0,1-.27,3.57,3.57,0,0,0,1-.8V86.87a3.25,3.25,0,0,0-1-.63,2.57,2.57,0,0,0-.94-.18,1.86,1.86,0,0,0-.87.21,2.29,2.29,0,0,0-.71.61,2.69,2.69,0,0,0-.48.94A3.8,3.8,0,0,0,137.7,89a3.73,3.73,0,0,0,.56,2.19A1.81,1.81,0,0,0,139.84,92Z"/><path class="cls-3" d="M148.44,93.11a2.89,2.89,0,0,1-2.35-1,4.63,4.63,0,0,1-.87-3,4.87,4.87,0,0,1,.28-1.71,4.3,4.3,0,0,1,.74-1.28,3.17,3.17,0,0,1,1.08-.82A3,3,0,0,1,148.6,85a2.64,2.64,0,0,1,1.16.24,4.84,4.84,0,0,1,1,.66l-.06-1.33v-3H152V92.92H151l-.11-.91h-.05a4.63,4.63,0,0,1-1.07.77A2.6,2.6,0,0,1,148.44,93.11Zm.28-1.1a2.06,2.06,0,0,0,1-.27,3.57,3.57,0,0,0,1-.8V86.87a3.25,3.25,0,0,0-1-.63,2.57,2.57,0,0,0-.94-.18,1.86,1.86,0,0,0-.87.21,2.29,2.29,0,0,0-.71.61,2.69,2.69,0,0,0-.48.94,3.8,3.8,0,0,0-.18,1.21,3.73,3.73,0,0,0,.56,2.19A1.81,1.81,0,0,0,148.72,92Z"/><path class="cls-3" d="M154.66,92.92V85.14h1.09l.11,1.41h0a3.54,3.54,0,0,1,1-1.17,2,2,0,0,1,1.24-.43,2.19,2.19,0,0,1,.83.16l-.26,1.15-.35-.09a2.25,2.25,0,0,0-.4,0,1.72,1.72,0,0,0-1,.4,3.15,3.15,0,0,0-.94,1.39v5Z"/><path class="cls-3" d="M163.2,93.11a3.72,3.72,0,0,1-1.46-.28,3.3,3.3,0,0,1-1.18-.8,3.72,3.72,0,0,1-.8-1.27,4.79,4.79,0,0,1-.28-1.71,4.67,4.67,0,0,1,.29-1.72,4,4,0,0,1,.79-1.29,3.38,3.38,0,0,1,1.11-.81A3.22,3.22,0,0,1,163,85a3.27,3.27,0,0,1,1.32.26,2.48,2.48,0,0,1,1,.74,3.3,3.3,0,0,1,.6,1.15,5,5,0,0,1,.21,1.5c0,.14,0,.28,0,.41a2.66,2.66,0,0,1,0,.34h-5.25a3,3,0,0,0,.78,2,2.41,2.41,0,0,0,1.81.73,3.15,3.15,0,0,0,1-.17,4.68,4.68,0,0,0,.9-.44l.46.86a6.26,6.26,0,0,1-1.13.56A4,4,0,0,1,163.2,93.11Zm-2.44-4.7h4.16a2.76,2.76,0,0,0-.51-1.8A1.72,1.72,0,0,0,163,86a2.15,2.15,0,0,0-.8.16,2.37,2.37,0,0,0-.68.47,2.71,2.71,0,0,0-.5.76A3.46,3.46,0,0,0,160.76,88.41Z"/><path class="cls-3" d="M170,93.11a4.23,4.23,0,0,1-1.58-.3,5,5,0,0,1-1.32-.77l.66-.88a5,5,0,0,0,1.05.67,2.86,2.86,0,0,0,1.24.26,1.68,1.68,0,0,0,1.15-.35,1.13,1.13,0,0,0,.38-.87.88.88,0,0,0-.16-.53A1.65,1.65,0,0,0,171,90a3,3,0,0,0-.57-.29l-.64-.26a8.43,8.43,0,0,1-.83-.33,3.11,3.11,0,0,1-.75-.45,2,2,0,0,1-.53-.61,1.65,1.65,0,0,1-.21-.85,2.12,2.12,0,0,1,.18-.87,2,2,0,0,1,.53-.71,2.6,2.6,0,0,1,.84-.46,3.7,3.7,0,0,1,2.47.09,4.42,4.42,0,0,1,1.07.62l-.63.83a4.11,4.11,0,0,0-.83-.49,2.26,2.26,0,0,0-.94-.19,1.52,1.52,0,0,0-1.08.33,1.09,1.09,0,0,0-.35.79.75.75,0,0,0,.15.47,1.29,1.29,0,0,0,.38.35,3.13,3.13,0,0,0,.55.27l.65.25.84.34a2.85,2.85,0,0,1,.76.44,2.13,2.13,0,0,1,.55.64,1.83,1.83,0,0,1,.22.93,2.11,2.11,0,0,1-.19.9,2,2,0,0,1-.54.73,2.46,2.46,0,0,1-.9.51A3.78,3.78,0,0,1,170,93.11Z"/><path class="cls-3" d="M176.72,93.11a4.23,4.23,0,0,1-1.58-.3,4.82,4.82,0,0,1-1.31-.77l.65-.88a5.59,5.59,0,0,0,1.05.67,2.86,2.86,0,0,0,1.24.26,1.66,1.66,0,0,0,1.15-.35,1.14,1.14,0,0,0,.39-.87,1,1,0,0,0-.16-.53,1.7,1.7,0,0,0-.41-.39,2.76,2.76,0,0,0-.57-.29l-.64-.26c-.28-.1-.55-.2-.83-.33a3,3,0,0,1-.74-.45,2.24,2.24,0,0,1-.54-.61,1.65,1.65,0,0,1-.21-.85,2,2,0,0,1,.19-.87,2,2,0,0,1,.52-.71,2.6,2.6,0,0,1,.84-.46,3.6,3.6,0,0,1,1.12-.17,3.54,3.54,0,0,1,1.36.26,4.35,4.35,0,0,1,1.06.62l-.62.83a4.48,4.48,0,0,0-.84-.49,2.23,2.23,0,0,0-.94-.19,1.52,1.52,0,0,0-1.08.33,1.08,1.08,0,0,0-.34.79.75.75,0,0,0,.14.47,1.43,1.43,0,0,0,.38.35,3.24,3.24,0,0,0,.56.27l.64.25.84.34a2.7,2.7,0,0,1,.76.44,2.16,2.16,0,0,1,.56.64,1.94,1.94,0,0,1,.21.93,2.26,2.26,0,0,1-.18.9,2,2,0,0,1-.55.73,2.42,2.42,0,0,1-.89.51A3.88,3.88,0,0,1,176.72,93.11Z"/><path class="cls-3" d="M185.83,92.92l-2.16-7.78H185l1.15,4.5c.09.37.17.74.24,1.09s.15.71.23,1.07h.06c.09-.36.17-.72.26-1.08s.17-.72.27-1.08l1.2-4.5h1.28l1.22,4.5c.09.37.18.74.28,1.09s.17.71.26,1.07h.06c.09-.36.17-.72.24-1.07s.16-.72.24-1.09l1.14-4.5h1.25l-2.08,7.78h-1.6l-1.12-4.18c-.1-.37-.19-.74-.27-1.1s-.16-.74-.26-1.14H189c-.09.4-.18.78-.26,1.15s-.18.74-.29,1.11l-1.09,4.16Z"/><path class="cls-3" d="M196.76,83.54a.92.92,0,0,1-.65-.24.77.77,0,0,1-.27-.6.78.78,0,0,1,.27-.62,1,1,0,0,1,1.29,0,.78.78,0,0,1,.27.62.77.77,0,0,1-.27.6A.91.91,0,0,1,196.76,83.54Zm-.68,9.38V85.14h1.32v7.78Z"/><path class="cls-3" d="M202.47,93.11a2.5,2.5,0,0,1-1.05-.19,1.83,1.83,0,0,1-.69-.53,2,2,0,0,1-.37-.81,4.35,4.35,0,0,1-.12-1.06v-4.3h-1.15v-1l1.22-.08.16-2.17h1.1v2.17h2.1v1.08h-2.1v4.32a1.94,1.94,0,0,0,.27,1.11,1,1,0,0,0,.93.39,1.86,1.86,0,0,0,.45-.06,3.58,3.58,0,0,0,.43-.15l.26,1a4.77,4.77,0,0,1-.7.2A3.18,3.18,0,0,1,202.47,93.11Z"/><path class="cls-3" d="M205.43,92.92V81.53h1.31v3.1l-.05,1.6a7,7,0,0,1,1.17-.9,2.64,2.64,0,0,1,1.42-.38,2.1,2.1,0,0,1,1.8.77,3.78,3.78,0,0,1,.57,2.27v4.93h-1.31V88.17a2.79,2.79,0,0,0-.35-1.59,1.29,1.29,0,0,0-1.12-.49,2,2,0,0,0-1.08.3,6.86,6.86,0,0,0-1,.9v5.63Z"/><path class="cls-3" d="M219.78,93.11a2.5,2.5,0,0,1-1.05-.19,1.83,1.83,0,0,1-.69-.53,2,2,0,0,1-.37-.81,4.37,4.37,0,0,1-.11-1.06v-4.3H216.4v-1l1.22-.08.16-2.17h1.1v2.17H221v1.08h-2.1v4.32a1.94,1.94,0,0,0,.27,1.11,1,1,0,0,0,.93.39,1.86,1.86,0,0,0,.45-.06,3.05,3.05,0,0,0,.43-.15l.26,1a4.44,4.44,0,0,1-.7.2A3.18,3.18,0,0,1,219.78,93.11Z"/><path class="cls-3" d="M222.74,92.92V81.53h1.31v3.1l-.05,1.6a8,8,0,0,1,1.17-.9A2.68,2.68,0,0,1,226.6,85a2.1,2.1,0,0,1,1.8.77A3.86,3.86,0,0,1,229,88v4.93h-1.31V88.17a2.79,2.79,0,0,0-.35-1.59,1.29,1.29,0,0,0-1.12-.49,1.91,1.91,0,0,0-1.07.3,7.38,7.38,0,0,0-1.06.9v5.63Z"/><path class="cls-3" d="M234.59,93.11a3.72,3.72,0,0,1-1.46-.28A3.3,3.3,0,0,1,232,92a3.72,3.72,0,0,1-.8-1.27,4.79,4.79,0,0,1-.28-1.71,4.88,4.88,0,0,1,.29-1.72A4,4,0,0,1,232,86a3.38,3.38,0,0,1,1.11-.81,3.29,3.29,0,0,1,2.61,0,2.48,2.48,0,0,1,1,.74,3.3,3.3,0,0,1,.6,1.15,5,5,0,0,1,.21,1.5c0,.14,0,.28,0,.41a2.66,2.66,0,0,1,0,.34h-5.25a3.07,3.07,0,0,0,.78,2,2.41,2.41,0,0,0,1.81.73,3.15,3.15,0,0,0,1-.17,4.68,4.68,0,0,0,.9-.44l.46.86a6.26,6.26,0,0,1-1.13.56A4,4,0,0,1,234.59,93.11Zm-2.44-4.7h4.16a2.76,2.76,0,0,0-.51-1.8,1.72,1.72,0,0,0-1.41-.62,2.19,2.19,0,0,0-.8.16,2.37,2.37,0,0,0-.68.47,2.71,2.71,0,0,0-.5.76A3.46,3.46,0,0,0,232.15,88.41Z"/><path class="cls-3" d="M242.58,92.92V81.53h1.31v3.1l0,1.6a8,8,0,0,1,1.17-.9,2.68,2.68,0,0,1,1.43-.38,2.07,2.07,0,0,1,1.79.77A3.78,3.78,0,0,1,248.8,88v4.93h-1.31V88.17a2.79,2.79,0,0,0-.35-1.59,1.29,1.29,0,0,0-1.12-.49,1.91,1.91,0,0,0-1.07.3,7.38,7.38,0,0,0-1.06.9v5.63Z"/><path class="cls-3" d="M252,83.54a.91.91,0,0,1-.64-.24.77.77,0,0,1-.27-.6.78.78,0,0,1,.27-.62,1,1,0,0,1,1.29,0,.78.78,0,0,1,.27.62.77.77,0,0,1-.27.6A.92.92,0,0,1,252,83.54Zm-.67,9.38V85.14h1.31v7.78Z"/><path class="cls-3" d="M257.84,96.5a5.87,5.87,0,0,1-1.31-.13,3.35,3.35,0,0,1-1-.41,2,2,0,0,1-.65-.66,1.62,1.62,0,0,1-.23-.89,1.69,1.69,0,0,1,.3-1,3.21,3.21,0,0,1,.83-.81v-.07a1.6,1.6,0,0,1-.49-.48,1.46,1.46,0,0,1-.2-.78,1.35,1.35,0,0,1,.28-.86,2.42,2.42,0,0,1,.57-.58v-.06a3.22,3.22,0,0,1-.69-.86,2.41,2.41,0,0,1-.32-1.24,2.66,2.66,0,0,1,.24-1.15,2.5,2.5,0,0,1,.63-.87,2.82,2.82,0,0,1,.93-.56,3.57,3.57,0,0,1,1.13-.19,2.77,2.77,0,0,1,.6.06,4.71,4.71,0,0,1,.51.13h2.7v1h-1.6a2.37,2.37,0,0,1,.46.69,2.27,2.27,0,0,1,.18.91,2.92,2.92,0,0,1-.22,1.13,2.54,2.54,0,0,1-.61.85,2.66,2.66,0,0,1-.91.53,3.08,3.08,0,0,1-1.11.2,2.46,2.46,0,0,1-.59-.08,2.34,2.34,0,0,1-.58-.2,1.9,1.9,0,0,0-.35.4,1,1,0,0,0-.14.53.73.73,0,0,0,.29.61,1.75,1.75,0,0,0,1.08.24h1.51a3.86,3.86,0,0,1,2,.44,1.57,1.57,0,0,1,.68,1.42,2.11,2.11,0,0,1-.27,1,2.76,2.76,0,0,1-.79.85,4.08,4.08,0,0,1-1.24.59A5.88,5.88,0,0,1,257.84,96.5Zm.19-.91a3.56,3.56,0,0,0,1-.13,2.81,2.81,0,0,0,.78-.36,1.66,1.66,0,0,0,.49-.5,1.1,1.1,0,0,0,.18-.59.78.78,0,0,0-.4-.75,2.6,2.6,0,0,0-1.17-.21h-1.34l-.49,0a2.28,2.28,0,0,1-.52-.1,2.14,2.14,0,0,0-.61.64,1.31,1.31,0,0,0-.19.67,1.11,1.11,0,0,0,.6,1A3.1,3.1,0,0,0,258,95.59Zm-.19-6a1.61,1.61,0,0,0,.63-.13,1.64,1.64,0,0,0,.53-.37,1.5,1.5,0,0,0,.36-.58,2.13,2.13,0,0,0,.13-.78,1.8,1.8,0,0,0-.48-1.34,1.69,1.69,0,0,0-2.34,0,1.8,1.8,0,0,0-.48,1.34,2.36,2.36,0,0,0,.13.78,1.78,1.78,0,0,0,.36.58,1.75,1.75,0,0,0,.53.37A1.69,1.69,0,0,0,257.84,89.58Z"/><path class="cls-3" d="M263.28,92.92V81.53h1.31v3.1l0,1.6a7.39,7.39,0,0,1,1.16-.9,2.68,2.68,0,0,1,1.43-.38,2.1,2.1,0,0,1,1.8.77,3.78,3.78,0,0,1,.57,2.27v4.93h-1.32V88.17a2.71,2.71,0,0,0-.35-1.59,1.27,1.27,0,0,0-1.12-.49,1.94,1.94,0,0,0-1.07.3,7.38,7.38,0,0,0-1.06.9v5.63Z"/><path class="cls-3" d="M275.14,93.11a3.81,3.81,0,0,1-1.47-.28,3.38,3.38,0,0,1-1.18-.8,3.56,3.56,0,0,1-.79-1.27,4.79,4.79,0,0,1-.29-1.71,4.67,4.67,0,0,1,.3-1.72,3.77,3.77,0,0,1,.78-1.29,3.6,3.6,0,0,1,1.11-.81,3.31,3.31,0,0,1,2.62,0,2.45,2.45,0,0,1,1,.74,3,3,0,0,1,.6,1.15,5,5,0,0,1,.21,1.5c0,.14,0,.28,0,.41a1.13,1.13,0,0,1,0,.34h-5.24a3.06,3.06,0,0,0,.77,2,2.43,2.43,0,0,0,1.82.73,3.09,3.09,0,0,0,1-.17,4.17,4.17,0,0,0,.9-.44l.47.86a6,6,0,0,1-1.14.56A3.91,3.91,0,0,1,275.14,93.11Zm-2.45-4.7h4.16a2.82,2.82,0,0,0-.5-1.8,1.74,1.74,0,0,0-1.42-.62,2.1,2.1,0,0,0-.79.16,2.24,2.24,0,0,0-.68.47,3,3,0,0,0-.51.76A3.46,3.46,0,0,0,272.69,88.41Z"/><path class="cls-3" d="M282,93.11a4.23,4.23,0,0,1-1.58-.3,4.82,4.82,0,0,1-1.31-.77l.65-.88a5.28,5.28,0,0,0,1.05.67,2.86,2.86,0,0,0,1.24.26,1.66,1.66,0,0,0,1.15-.35,1.14,1.14,0,0,0,.39-.87,1,1,0,0,0-.16-.53A1.7,1.7,0,0,0,283,90a3,3,0,0,0-.57-.29l-.64-.26c-.28-.1-.55-.2-.83-.33a2.87,2.87,0,0,1-.74-.45,2.24,2.24,0,0,1-.54-.61,1.65,1.65,0,0,1-.21-.85,2,2,0,0,1,.19-.87,2,2,0,0,1,.52-.71,2.6,2.6,0,0,1,.84-.46,3.73,3.73,0,0,1,2.48.09,4.35,4.35,0,0,1,1.06.62l-.62.83a4.48,4.48,0,0,0-.84-.49,2.23,2.23,0,0,0-.94-.19,1.52,1.52,0,0,0-1.08.33,1.08,1.08,0,0,0-.34.79.75.75,0,0,0,.14.47,1.43,1.43,0,0,0,.38.35,3.24,3.24,0,0,0,.56.27l.64.25.84.34a2.7,2.7,0,0,1,.76.44,2.16,2.16,0,0,1,.56.64,1.94,1.94,0,0,1,.21.93,2.26,2.26,0,0,1-.18.9,2.17,2.17,0,0,1-.55.73,2.5,2.5,0,0,1-.89.51A3.88,3.88,0,0,1,282,93.11Z"/><path class="cls-3" d="M288.75,93.11a2.48,2.48,0,0,1-1-.19,1.68,1.68,0,0,1-.69-.53,2,2,0,0,1-.38-.81,4.93,4.93,0,0,1-.11-1.06v-4.3h-1.15v-1l1.21-.08.16-2.17h1.11v2.17H290v1.08h-2.09v4.32a2,2,0,0,0,.26,1.11,1.06,1.06,0,0,0,.94.39,1.86,1.86,0,0,0,.45-.06,3.58,3.58,0,0,0,.43-.15l.25,1a4.31,4.31,0,0,1-.69.2A3.2,3.2,0,0,1,288.75,93.11Z"/><path class="cls-3" d="M296.31,93.11a1.24,1.24,0,0,1-1.08-.45,2.24,2.24,0,0,1-.32-1.31V81.53h1.32v9.92a.68.68,0,0,0,.11.45.33.33,0,0,0,.25.12h.12l.17,0,.18,1a1.26,1.26,0,0,1-.31.09A2.59,2.59,0,0,1,296.31,93.11Z"/><path class="cls-3" d="M302.15,93.11a3.74,3.74,0,0,1-1.47-.28,3.3,3.3,0,0,1-1.18-.8,3.56,3.56,0,0,1-.79-1.27,4.58,4.58,0,0,1-.29-1.71,4.88,4.88,0,0,1,.29-1.72A4,4,0,0,1,299.5,86a3.38,3.38,0,0,1,1.11-.81A3.22,3.22,0,0,1,301.9,85a3.29,3.29,0,0,1,1.33.26,2.52,2.52,0,0,1,1,.74,3.3,3.3,0,0,1,.6,1.15,5,5,0,0,1,.21,1.5c0,.14,0,.28,0,.41a1.59,1.59,0,0,1,0,.34h-5.25a3.07,3.07,0,0,0,.78,2,2.42,2.42,0,0,0,1.82.73,3.13,3.13,0,0,0,1-.17,4.68,4.68,0,0,0,.9-.44l.47.86a6.71,6.71,0,0,1-1.14.56A4,4,0,0,1,302.15,93.11Zm-2.45-4.7h4.16a2.76,2.76,0,0,0-.51-1.8,1.71,1.71,0,0,0-1.41-.62,2.1,2.1,0,0,0-.79.16,2.13,2.13,0,0,0-.68.47,2.54,2.54,0,0,0-.51.76A3.46,3.46,0,0,0,299.7,88.41Z"/><path class="cls-3" d="M308.69,92.92l-2.8-7.78h1.36l1.47,4.42.36,1.15q.18.58.36,1.14h.06q.18-.55.36-1.14c.11-.38.23-.76.35-1.15l1.47-4.42H313l-2.75,7.78Z"/><path class="cls-3" d="M317.57,93.11a3.81,3.81,0,0,1-1.47-.28,3.38,3.38,0,0,1-1.18-.8,3.7,3.7,0,0,1-.79-1.27,4.79,4.79,0,0,1-.29-1.71,4.67,4.67,0,0,1,.3-1.72,3.94,3.94,0,0,1,.78-1.29,3.6,3.6,0,0,1,1.11-.81,3.31,3.31,0,0,1,2.62,0,2.45,2.45,0,0,1,1,.74,3.16,3.16,0,0,1,.61,1.15,5.34,5.34,0,0,1,.2,1.5V89a2.66,2.66,0,0,1,0,.34h-5.25a3.06,3.06,0,0,0,.77,2,2.43,2.43,0,0,0,1.82.73,3.09,3.09,0,0,0,1-.17,4.17,4.17,0,0,0,.9-.44l.47.86a6,6,0,0,1-1.14.56A3.91,3.91,0,0,1,317.57,93.11Zm-2.45-4.7h4.16a2.82,2.82,0,0,0-.5-1.8,1.74,1.74,0,0,0-1.42-.62,2.1,2.1,0,0,0-.79.16,2.24,2.24,0,0,0-.68.47,2.71,2.71,0,0,0-.5.76A3.18,3.18,0,0,0,315.12,88.41Z"/><path class="cls-3" d="M323.74,93.11a1.23,1.23,0,0,1-1.07-.45,2.24,2.24,0,0,1-.32-1.31V81.53h1.31v9.92a.67.67,0,0,0,.12.45A.33.33,0,0,0,324,92h.12l.17,0,.18,1a1.26,1.26,0,0,1-.31.09A2.72,2.72,0,0,1,323.74,93.11Z"/><path class="cls-3" d="M332.66,93.11a3.52,3.52,0,0,1-1.37-.27,3.3,3.3,0,0,1-1.14-.79,3.77,3.77,0,0,1-.8-1.28,4.88,4.88,0,0,1-.29-1.72,5,5,0,0,1,.29-1.74,4,4,0,0,1,.8-1.29,3.47,3.47,0,0,1,1.14-.8,3.52,3.52,0,0,1,1.37-.27,3.47,3.47,0,0,1,1.36.27,3.41,3.41,0,0,1,1.15.8,4.18,4.18,0,0,1,.79,1.29,4.74,4.74,0,0,1,.3,1.74,4.67,4.67,0,0,1-.3,1.72,3.91,3.91,0,0,1-.79,1.28,3.24,3.24,0,0,1-1.15.79A3.47,3.47,0,0,1,332.66,93.11Zm0-1.09a2,2,0,0,0,.91-.21,2.18,2.18,0,0,0,.71-.61,2.85,2.85,0,0,0,.46-.94,4.49,4.49,0,0,0,.16-1.21,4.7,4.7,0,0,0-.16-1.23,3.11,3.11,0,0,0-.46-.95,2.07,2.07,0,0,0-.71-.61,1.88,1.88,0,0,0-.91-.22,1.92,1.92,0,0,0-.92.22,2.16,2.16,0,0,0-.71.61,3.09,3.09,0,0,0-.45.95,4.31,4.31,0,0,0-.16,1.23,4.12,4.12,0,0,0,.16,1.21,2.83,2.83,0,0,0,.45.94,2.29,2.29,0,0,0,.71.61A2,2,0,0,0,332.66,92Z"/><path class="cls-3" d="M338.53,92.92v-6.7h-1.06v-1l1.06-.08V83.91a2.93,2.93,0,0,1,.55-1.89,2.1,2.1,0,0,1,1.72-.68,3.14,3.14,0,0,1,.7.07,4.27,4.27,0,0,1,.6.18l-.29,1a2.12,2.12,0,0,0-.88-.19c-.73,0-1.09.5-1.09,1.5v1.23h1.65v1.08h-1.65v6.7Z"/><path class="cls-3" d="M346.18,92.92V85.14h1.09l.11,1.41h0a3.66,3.66,0,0,1,1-1.17,2.07,2.07,0,0,1,1.24-.43,2.15,2.15,0,0,1,.83.16l-.25,1.15-.35-.09a2.25,2.25,0,0,0-.4,0,1.75,1.75,0,0,0-1,.4,3.23,3.23,0,0,0-.93,1.39v5Z"/><path class="cls-3" d="M352.4,83.54a.93.93,0,0,1-.65-.24.79.79,0,0,1-.26-.6.81.81,0,0,1,.26-.62,1,1,0,0,1,1.3,0,.81.81,0,0,1,.26.62.79.79,0,0,1-.26.6A.93.93,0,0,1,352.4,83.54Zm-.67,9.38V85.14H353v7.78Z"/><path class="cls-3" d="M357.7,93.11a4.24,4.24,0,0,1-1.59-.3A4.82,4.82,0,0,1,354.8,92l.66-.88a5.23,5.23,0,0,0,1,.67,2.86,2.86,0,0,0,1.24.26,1.69,1.69,0,0,0,1.16-.35,1.17,1.17,0,0,0,.38-.87.88.88,0,0,0-.16-.53,1.7,1.7,0,0,0-.41-.39,2.53,2.53,0,0,0-.57-.29l-.64-.26c-.27-.1-.55-.2-.83-.33a3.25,3.25,0,0,1-.74-.45,2.24,2.24,0,0,1-.54-.61,1.65,1.65,0,0,1-.21-.85,2.13,2.13,0,0,1,.19-.87,2,2,0,0,1,.53-.71,2.6,2.6,0,0,1,.84-.46,3.7,3.7,0,0,1,2.47.09,4.35,4.35,0,0,1,1.06.62l-.62.83a4.75,4.75,0,0,0-.83-.49,2.3,2.3,0,0,0-.95-.19,1.52,1.52,0,0,0-1.08.33,1.08,1.08,0,0,0-.34.79.82.82,0,0,0,.14.47,1.48,1.48,0,0,0,.39.35,3.13,3.13,0,0,0,.55.27l.65.25.84.34a3,3,0,0,1,.76.44,2.28,2.28,0,0,1,.55.64,1.94,1.94,0,0,1,.21.93,2.26,2.26,0,0,1-.18.9,2,2,0,0,1-.54.73,2.46,2.46,0,0,1-.9.51A3.86,3.86,0,0,1,357.7,93.11Z"/><path class="cls-3" d="M362.37,92.92V81.53h1.29v7.71h0l3.31-4.1h1.46l-2.61,3.12,3,4.66h-1.44l-2.27-3.74-1.46,1.69v2Z"/><path class="cls-3" d="M374.72,92.92l-2.16-7.78h1.34l1.16,4.5c.08.37.16.74.24,1.09s.14.71.22,1.07h.06c.09-.36.17-.72.26-1.08s.18-.72.27-1.08l1.2-4.5h1.28l1.22,4.5c.09.37.19.74.28,1.09s.18.71.26,1.07h.07l.24-1.07c.07-.35.15-.72.24-1.09l1.13-4.5h1.25l-2.08,7.78h-1.6l-1.12-4.18c-.1-.37-.18-.74-.26-1.1s-.17-.74-.27-1.14h-.06c-.09.4-.17.78-.26,1.15s-.18.74-.29,1.11l-1.08,4.16Z"/><path class="cls-3" d="M385.65,83.54a.93.93,0,0,1-.65-.24.76.76,0,0,1-.26-.6.77.77,0,0,1,.26-.62,1,1,0,0,1,.65-.23,1,1,0,0,1,.65.23.81.81,0,0,1,.26.62.79.79,0,0,1-.26.6A1,1,0,0,1,385.65,83.54ZM385,92.92V85.14h1.31v7.78Z"/><path class="cls-3" d="M390.3,93.11a1.22,1.22,0,0,1-1.07-.45,2.24,2.24,0,0,1-.32-1.31V81.53h1.31v9.92a.67.67,0,0,0,.12.45.33.33,0,0,0,.25.12h.12l.17,0,.18,1a1.26,1.26,0,0,1-.31.09A2.81,2.81,0,0,1,390.3,93.11Z"/><path class="cls-3" d="M394.38,93.11a1.22,1.22,0,0,1-1.07-.45,2.24,2.24,0,0,1-.32-1.31V81.53h1.31v9.92a.67.67,0,0,0,.12.45.33.33,0,0,0,.25.12h.12l.17,0,.18,1a1.26,1.26,0,0,1-.31.09A2.81,2.81,0,0,1,394.38,93.11Z"/><path class="cls-3" d="M90.15,117.11a2.36,2.36,0,0,1-1.62-.57,2.05,2.05,0,0,1-.65-1.63A2.16,2.16,0,0,1,89,113a9.25,9.25,0,0,1,3.64-1,3.53,3.53,0,0,0-.08-.72,1.78,1.78,0,0,0-.24-.62,1.31,1.31,0,0,0-.49-.44,1.68,1.68,0,0,0-.79-.17,3.21,3.21,0,0,0-1.27.26,6.1,6.1,0,0,0-1,.57l-.52-.91a9.61,9.61,0,0,1,1.33-.68,4.41,4.41,0,0,1,1.73-.33,2.37,2.37,0,0,1,2.06.87,3.85,3.85,0,0,1,.64,2.33v4.77H92.89l-.12-.93h0a6.54,6.54,0,0,1-1.2.79A3,3,0,0,1,90.15,117.11Zm.38-1a2.17,2.17,0,0,0,1.06-.27,5.28,5.28,0,0,0,1.06-.77v-2.16a11.65,11.65,0,0,0-1.64.3,4.51,4.51,0,0,0-1.08.42,1.58,1.58,0,0,0-.59.55,1.33,1.33,0,0,0-.18.68,1.09,1.09,0,0,0,.4,1A1.62,1.62,0,0,0,90.53,116.06Z"/><path class="cls-3" d="M101.2,116.92v-6.7H98v6.7H96.65v-6.7H95.59v-1l1.06-.08v-1a2.92,2.92,0,0,1,.59-1.92,2.27,2.27,0,0,1,1.82-.7,3.22,3.22,0,0,1,.76.08,3.44,3.44,0,0,1,.66.2l-.27,1a2.54,2.54,0,0,0-1-.21,1,1,0,0,0-.89.41,1.81,1.81,0,0,0-.32,1.17v1h3.24v-1.23a2.94,2.94,0,0,1,.56-1.89,2.08,2.08,0,0,1,1.72-.68,3.11,3.11,0,0,1,.69.07,4.27,4.27,0,0,1,.6.18l-.29,1a2.08,2.08,0,0,0-.88-.19q-1.08,0-1.08,1.5v1.23h1.64v1.08h-1.64v6.7Z"/><path class="cls-3" d="M108.65,117.11a3.74,3.74,0,0,1-1.47-.28A3.3,3.3,0,0,1,106,116a3.56,3.56,0,0,1-.79-1.27,4.58,4.58,0,0,1-.29-1.71,4.88,4.88,0,0,1,.29-1.72A4,4,0,0,1,106,110a3.38,3.38,0,0,1,1.11-.81,3.22,3.22,0,0,1,1.29-.28,3.29,3.29,0,0,1,1.33.26,2.52,2.52,0,0,1,1,.74,3.3,3.3,0,0,1,.6,1.15,5,5,0,0,1,.21,1.5c0,.14,0,.28,0,.41a1.59,1.59,0,0,1,0,.34h-5.25a3.07,3.07,0,0,0,.78,2,2.42,2.42,0,0,0,1.82.73,3.13,3.13,0,0,0,1-.17,4.68,4.68,0,0,0,.9-.44l.47.86a6.71,6.71,0,0,1-1.14.56A4,4,0,0,1,108.65,117.11Zm-2.45-4.7h4.16a2.76,2.76,0,0,0-.51-1.8,1.71,1.71,0,0,0-1.41-.62,2.1,2.1,0,0,0-.79.16,2.13,2.13,0,0,0-.68.47,2.54,2.54,0,0,0-.51.76A3.46,3.46,0,0,0,106.2,112.41Z"/><path class="cls-3" d="M116.5,117.11a3.84,3.84,0,0,1-1.44-.27,3.19,3.19,0,0,1-1.16-.79,3.87,3.87,0,0,1-.77-1.28,5.13,5.13,0,0,1-.28-1.72,4.54,4.54,0,0,1,.31-1.74A4,4,0,0,1,114,110a3.57,3.57,0,0,1,1.19-.8,3.92,3.92,0,0,1,1.44-.27,2.91,2.91,0,0,1,1.31.27,5.17,5.17,0,0,1,1,.64l-.67.87a3.73,3.73,0,0,0-.72-.5,1.78,1.78,0,0,0-.83-.19,2.14,2.14,0,0,0-1,.22,2.17,2.17,0,0,0-.77.61,3.18,3.18,0,0,0-.5.95,3.69,3.69,0,0,0-.19,1.23,3.8,3.8,0,0,0,.18,1.21,2.89,2.89,0,0,0,.49.94,2.16,2.16,0,0,0,.76.61,2.25,2.25,0,0,0,1,.21,2.08,2.08,0,0,0,1-.23,4,4,0,0,0,.83-.55l.57.88a4.18,4.18,0,0,1-1.17.73A3.55,3.55,0,0,1,116.5,117.11Z"/><path class="cls-3" d="M123,117.11a2.48,2.48,0,0,1-1-.19,1.68,1.68,0,0,1-.69-.53,2,2,0,0,1-.38-.81,4.93,4.93,0,0,1-.11-1.06v-4.3h-1.15v-1l1.21-.08L121,107h1.11v2.17h2.09v1.08h-2.09v4.32a2,2,0,0,0,.26,1.11,1.06,1.06,0,0,0,.94.39,1.93,1.93,0,0,0,.45-.06,3.58,3.58,0,0,0,.43-.15l.25,1a4.31,4.31,0,0,1-.69.2A3.2,3.2,0,0,1,123,117.11Z"/><path class="cls-3" d="M131.62,117.11a2.5,2.5,0,0,1-1.05-.19,1.72,1.72,0,0,1-.68-.53,1.9,1.9,0,0,1-.38-.81,4.37,4.37,0,0,1-.11-1.06v-4.3h-1.16v-1l1.22-.08.16-2.17h1.11v2.17h2.09v1.08h-2.09v4.32a1.94,1.94,0,0,0,.26,1.11,1,1,0,0,0,.94.39,1.85,1.85,0,0,0,.44-.06,3.76,3.76,0,0,0,.44-.15l.25,1a4.15,4.15,0,0,1-.7.2A3.12,3.12,0,0,1,131.62,117.11Z"/><path class="cls-3" d="M134.58,116.92V105.53h1.31v3.1l0,1.6a7.39,7.39,0,0,1,1.16-.9,2.68,2.68,0,0,1,1.43-.38,2.1,2.1,0,0,1,1.8.77,3.78,3.78,0,0,1,.57,2.27v4.93h-1.32v-4.75a2.71,2.71,0,0,0-.35-1.59,1.27,1.27,0,0,0-1.12-.49,1.94,1.94,0,0,0-1.07.3,7.38,7.38,0,0,0-1.06.9v5.63Z"/><path class="cls-3" d="M146.44,117.11a3.77,3.77,0,0,1-1.47-.28,3.38,3.38,0,0,1-1.18-.8,3.56,3.56,0,0,1-.79-1.27,4.79,4.79,0,0,1-.29-1.71,4.67,4.67,0,0,1,.3-1.72,3.77,3.77,0,0,1,.78-1.29,3.38,3.38,0,0,1,1.11-.81,3.31,3.31,0,0,1,2.62,0,2.45,2.45,0,0,1,1,.74,3.3,3.3,0,0,1,.6,1.15,5,5,0,0,1,.21,1.5c0,.14,0,.28,0,.41a1.59,1.59,0,0,1,0,.34H144a3.06,3.06,0,0,0,.77,2,2.43,2.43,0,0,0,1.82.73,3.13,3.13,0,0,0,1-.17,4.41,4.41,0,0,0,.9-.44l.47.86a6,6,0,0,1-1.14.56A4,4,0,0,1,146.44,117.11Zm-2.45-4.7h4.16a2.82,2.82,0,0,0-.5-1.8,1.74,1.74,0,0,0-1.42-.62,2.1,2.1,0,0,0-.79.16,2.24,2.24,0,0,0-.68.47,2.74,2.74,0,0,0-.51.76A3.46,3.46,0,0,0,144,112.41Z"/><path class="cls-3" d="M156.45,117.11a4.23,4.23,0,0,1-1.58-.3,4.82,4.82,0,0,1-1.31-.77l.65-.88a5,5,0,0,0,1,.67,2.86,2.86,0,0,0,1.24.26,1.66,1.66,0,0,0,1.15-.35,1.14,1.14,0,0,0,.39-.87,1,1,0,0,0-.16-.53,1.91,1.91,0,0,0-.41-.39,3,3,0,0,0-.57-.29l-.64-.26c-.28-.1-.55-.2-.83-.33a2.87,2.87,0,0,1-.74-.45,2.24,2.24,0,0,1-.54-.61,1.65,1.65,0,0,1-.21-.85,2.12,2.12,0,0,1,.18-.87,2.17,2.17,0,0,1,.53-.71,2.6,2.6,0,0,1,.84-.46,3.73,3.73,0,0,1,2.48.09,4.35,4.35,0,0,1,1.06.62l-.63.83a4.11,4.11,0,0,0-.83-.49,2.26,2.26,0,0,0-.94-.19,1.52,1.52,0,0,0-1.08.33,1.09,1.09,0,0,0-.35.79.75.75,0,0,0,.15.47,1.29,1.29,0,0,0,.38.35,3.52,3.52,0,0,0,.55.27l.65.25.84.34a2.7,2.7,0,0,1,.76.44,2,2,0,0,1,.55.64,1.83,1.83,0,0,1,.22.93,2.26,2.26,0,0,1-.18.9,2.17,2.17,0,0,1-.55.73,2.5,2.5,0,0,1-.89.51A3.88,3.88,0,0,1,156.45,117.11Z"/><path class="cls-3" d="M164.2,117.11a3.77,3.77,0,0,1-1.44-.27,3.11,3.11,0,0,1-1.16-.79,3.56,3.56,0,0,1-.77-1.28,4.89,4.89,0,0,1-.28-1.72,4.74,4.74,0,0,1,.3-1.74,4.06,4.06,0,0,1,.82-1.29,3.57,3.57,0,0,1,1.19-.8,3.83,3.83,0,0,1,1.43-.27,2.91,2.91,0,0,1,1.31.27,4.58,4.58,0,0,1,1,.64l-.67.87a3.39,3.39,0,0,0-.71-.5,1.79,1.79,0,0,0-.84-.19,2.17,2.17,0,0,0-1,.22,2.14,2.14,0,0,0-.76.61,3,3,0,0,0-.51.95,4,4,0,0,0-.18,1.23,4.11,4.11,0,0,0,.17,1.21,2.89,2.89,0,0,0,.49.94,2.25,2.25,0,0,0,.76.61,2.3,2.3,0,0,0,1,.21,2.13,2.13,0,0,0,1-.23,3.92,3.92,0,0,0,.82-.55l.58.88a4.18,4.18,0,0,1-1.17.73A3.59,3.59,0,0,1,164.2,117.11Z"/><path class="cls-3" d="M171.11,117.11a3.52,3.52,0,0,1-1.37-.27,3.3,3.3,0,0,1-1.14-.79,3.75,3.75,0,0,1-.79-1.28,4.67,4.67,0,0,1-.3-1.72,4.74,4.74,0,0,1,.3-1.74,4,4,0,0,1,.79-1.29,3.47,3.47,0,0,1,1.14-.8,3.61,3.61,0,0,1,2.74,0,3.47,3.47,0,0,1,1.14.8,4,4,0,0,1,.79,1.29,4.74,4.74,0,0,1,.3,1.74,4.67,4.67,0,0,1-.3,1.72,3.75,3.75,0,0,1-.79,1.28,3.3,3.3,0,0,1-1.14.79A3.52,3.52,0,0,1,171.11,117.11Zm0-1.09a2,2,0,0,0,.91-.21,2.08,2.08,0,0,0,.71-.61,2.85,2.85,0,0,0,.46-.94,4.12,4.12,0,0,0,.16-1.21,4.31,4.31,0,0,0-.16-1.23,3.11,3.11,0,0,0-.46-.95,2,2,0,0,0-.71-.61,1.88,1.88,0,0,0-.91-.22,1.86,1.86,0,0,0-.91.22,2.1,2.1,0,0,0-.72.61,3.34,3.34,0,0,0-.45.95,4.31,4.31,0,0,0-.16,1.23,4.12,4.12,0,0,0,.16,1.21,3,3,0,0,0,.45.94,2.21,2.21,0,0,0,.72.61A2,2,0,0,0,171.11,116Z"/><path class="cls-3" d="M176.76,116.92v-7.78h1.09l.11,1.41h0a3.66,3.66,0,0,1,1-1.17,2.07,2.07,0,0,1,1.24-.43,2.15,2.15,0,0,1,.83.16l-.25,1.15-.35-.09a2.25,2.25,0,0,0-.4,0,1.75,1.75,0,0,0-1,.4,3.23,3.23,0,0,0-.93,1.39v5Z"/><path class="cls-3" d="M185.3,117.11a3.72,3.72,0,0,1-1.46-.28,3.33,3.33,0,0,1-1.19-.8,3.7,3.7,0,0,1-.79-1.27,4.79,4.79,0,0,1-.29-1.71,4.67,4.67,0,0,1,.3-1.72,4.11,4.11,0,0,1,.78-1.29,3.6,3.6,0,0,1,1.11-.81,3.31,3.31,0,0,1,2.62,0,2.48,2.48,0,0,1,1,.74,3.3,3.3,0,0,1,.6,1.15,5,5,0,0,1,.2,1.5V113a2.66,2.66,0,0,1,0,.34h-5.25a3.06,3.06,0,0,0,.77,2,2.43,2.43,0,0,0,1.82.73,3.09,3.09,0,0,0,1-.17,4.49,4.49,0,0,0,.91-.44l.46.86a6,6,0,0,1-1.14.56A3.91,3.91,0,0,1,185.3,117.11Zm-2.45-4.7H187a2.82,2.82,0,0,0-.5-1.8,1.74,1.74,0,0,0-1.42-.62,2.1,2.1,0,0,0-.79.16,2.24,2.24,0,0,0-.68.47,2.71,2.71,0,0,0-.5.76A3.45,3.45,0,0,0,182.85,112.41Z"/><path class="cls-3" d="M193.16,117.11a3.77,3.77,0,0,1-1.44-.27,3.11,3.11,0,0,1-1.16-.79,3.56,3.56,0,0,1-.77-1.28,4.89,4.89,0,0,1-.28-1.72,4.74,4.74,0,0,1,.3-1.74,4.06,4.06,0,0,1,.82-1.29,3.57,3.57,0,0,1,1.19-.8,3.83,3.83,0,0,1,1.43-.27,2.91,2.91,0,0,1,1.31.27,4.58,4.58,0,0,1,1,.64l-.67.87a3.39,3.39,0,0,0-.71-.5,1.79,1.79,0,0,0-.84-.19,2.17,2.17,0,0,0-1,.22,2.14,2.14,0,0,0-.76.61,3,3,0,0,0-.51.95,4,4,0,0,0-.18,1.23,4.11,4.11,0,0,0,.17,1.21,2.89,2.89,0,0,0,.49.94,2.25,2.25,0,0,0,.76.61,2.3,2.3,0,0,0,1,.21,2.13,2.13,0,0,0,1-.23,3.92,3.92,0,0,0,.82-.55l.58.88a4.18,4.18,0,0,1-1.17.73A3.59,3.59,0,0,1,193.16,117.11Z"/><path class="cls-3" d="M199,117.11a2.36,2.36,0,0,1-1.62-.57,2.09,2.09,0,0,1-.65-1.63,2.15,2.15,0,0,1,1.14-2,9.14,9.14,0,0,1,3.63-1,4.39,4.39,0,0,0-.07-.72,1.8,1.8,0,0,0-.25-.62,1.31,1.31,0,0,0-.49-.44,1.68,1.68,0,0,0-.79-.17,3.21,3.21,0,0,0-1.27.26,6.5,6.5,0,0,0-1,.57l-.51-.91a8.92,8.92,0,0,1,1.32-.68,4.44,4.44,0,0,1,1.73-.33,2.41,2.41,0,0,1,2.07.87,3.92,3.92,0,0,1,.64,2.33v4.77h-1.09l-.11-.93h0a6.54,6.54,0,0,1-1.2.79A3,3,0,0,1,199,117.11Zm.39-1a2.16,2.16,0,0,0,1-.27,5.28,5.28,0,0,0,1.06-.77v-2.16a11.93,11.93,0,0,0-1.64.3,4.41,4.41,0,0,0-1.07.42,1.62,1.62,0,0,0-.6.55,1.33,1.33,0,0,0-.18.68,1.09,1.09,0,0,0,.4,1A1.65,1.65,0,0,0,199.4,116.06Z"/><path class="cls-3" d="M205.28,116.92v-7.78h1.09l.11,1.41h.05a3.66,3.66,0,0,1,1-1.17,2.05,2.05,0,0,1,1.24-.43,2.15,2.15,0,0,1,.83.16l-.25,1.15-.36-.09a2.17,2.17,0,0,0-.4,0,1.72,1.72,0,0,0-1,.4,3.06,3.06,0,0,0-.93,1.39v5Z"/><path class="cls-3" d="M213.33,117.11a2.88,2.88,0,0,1-2.34-1,4.63,4.63,0,0,1-.87-3,4.87,4.87,0,0,1,.28-1.71,3.91,3.91,0,0,1,.74-1.28,3.23,3.23,0,0,1,1.07-.82,3,3,0,0,1,1.28-.29,2.66,2.66,0,0,1,1.17.24,5.12,5.12,0,0,1,1,.66l-.07-1.33v-3h1.33v11.39h-1.09l-.11-.91h0a4.57,4.57,0,0,1-1.06.77A2.63,2.63,0,0,1,213.33,117.11Zm.29-1.1a2,2,0,0,0,1-.27,3.57,3.57,0,0,0,1-.8v-4.07a3.13,3.13,0,0,0-.95-.63,2.48,2.48,0,0,0-.93-.18,1.93,1.93,0,0,0-.88.21,2.29,2.29,0,0,0-.71.61,3.08,3.08,0,0,0-.48.94,3.81,3.81,0,0,0-.17,1.21,3.66,3.66,0,0,0,.56,2.19A1.81,1.81,0,0,0,213.62,116Z"/><path class="cls-3" d="M220.24,117.11a.93.93,0,0,1-.68-.28,1,1,0,0,1-.28-.71,1,1,0,0,1,.28-.74.93.93,0,0,1,.68-.28.91.91,0,0,1,.67.28,1,1,0,0,1,.28.74,1,1,0,0,1-.28.71A.91.91,0,0,1,220.24,117.11Z"/><path class="cls-4" d="M226.76,116.92V106.46h3.53a6.63,6.63,0,0,1,1.52.16,3.29,3.29,0,0,1,1.22.52,2.51,2.51,0,0,1,.81,1,3.35,3.35,0,0,1,.29,1.47,2.91,2.91,0,0,1-2.08,3l2.5,4.37h-2.08l-2.26-4.1h-1.6v4.1Zm1.85-5.57h1.49a2.67,2.67,0,0,0,1.64-.44,1.62,1.62,0,0,0,.57-1.35,1.35,1.35,0,0,0-.57-1.26,3.1,3.1,0,0,0-1.64-.35h-1.49Z"/><path class="cls-4" d="M239.27,117.11a4,4,0,0,1-1.52-.28,3.38,3.38,0,0,1-1.23-.81,3.63,3.63,0,0,1-.83-1.28,5.25,5.25,0,0,1,0-3.47,3.83,3.83,0,0,1,.81-1.29,3.36,3.36,0,0,1,1.16-.82,3.3,3.3,0,0,1,1.34-.29,3.44,3.44,0,0,1,1.41.27,3,3,0,0,1,1,.77,3.44,3.44,0,0,1,.61,1.19,5.13,5.13,0,0,1,.21,1.5c0,.18,0,.35,0,.51s0,.29-.06.39h-5a2.51,2.51,0,0,0,.74,1.62,2.24,2.24,0,0,0,1.58.57,2.91,2.91,0,0,0,1-.15,4.39,4.39,0,0,0,.87-.43l.63,1.15a5.58,5.58,0,0,1-1.25.61A4.35,4.35,0,0,1,239.27,117.11Zm-2.1-4.86h3.49a2.32,2.32,0,0,0-.39-1.43,1.41,1.41,0,0,0-1.21-.52,1.73,1.73,0,0,0-1.23.49A2.4,2.4,0,0,0,237.17,112.25Z"/><path class="cls-4" d="M245.73,117.11a2.3,2.3,0,0,1-1.68-.63,2.47,2.47,0,0,1-.37-2.78,2.15,2.15,0,0,1,.83-.84,5.38,5.38,0,0,1,1.44-.6,12.67,12.67,0,0,1,2.09-.36,3.64,3.64,0,0,0-.09-.59,1.4,1.4,0,0,0-.24-.49,1.07,1.07,0,0,0-.44-.34,1.67,1.67,0,0,0-.67-.12,3.15,3.15,0,0,0-1.13.22,7.84,7.84,0,0,0-1.08.55l-.67-1.23a7.18,7.18,0,0,1,1.47-.72,4.83,4.83,0,0,1,1.76-.31,2.71,2.71,0,0,1,2.2.87,3.9,3.9,0,0,1,.73,2.52v4.66h-1.52l-.13-.86h-.07a5.48,5.48,0,0,1-1.12.75A2.9,2.9,0,0,1,245.73,117.11Zm.59-1.44a1.77,1.77,0,0,0,.88-.22,4.68,4.68,0,0,0,.84-.64v-1.76a8.65,8.65,0,0,0-1.35.25,4.43,4.43,0,0,0-.88.36,1.42,1.42,0,0,0-.48.46,1.14,1.14,0,0,0-.14.54.87.87,0,0,0,.32.77A1.3,1.3,0,0,0,246.32,115.67Z"/><path class="cls-4" d="M254.84,117.11a2.86,2.86,0,0,1-2.36-1.08,4.66,4.66,0,0,1-.88-3,5.19,5.19,0,0,1,.28-1.73,4.06,4.06,0,0,1,.75-1.29,3.19,3.19,0,0,1,1.06-.82,2.85,2.85,0,0,1,1.24-.29,2.6,2.6,0,0,1,1.14.23,4.7,4.7,0,0,1,.93.64l-.07-1.27v-2.85h1.84v11.3h-1.52l-.13-.85h-.06a4,4,0,0,1-1,.74A2.58,2.58,0,0,1,254.84,117.11Zm.44-1.52a2.18,2.18,0,0,0,1.65-.88v-3.66a2.36,2.36,0,0,0-.81-.51,2.17,2.17,0,0,0-.79-.15,1.6,1.6,0,0,0-1.29.67,3,3,0,0,0-.53,1.93,3.46,3.46,0,0,0,.45,1.94A1.52,1.52,0,0,0,255.28,115.59Z"/><path class="cls-4" d="M264.31,116.92v-7.86h1.52l.13,1.08H266a5.38,5.38,0,0,1,1.08-.9,2.47,2.47,0,0,1,1.32-.37,2.14,2.14,0,0,1,2.18,1.41,6.71,6.71,0,0,1,1.16-1,2.49,2.49,0,0,1,1.36-.4,2.11,2.11,0,0,1,1.84.81,3.83,3.83,0,0,1,.6,2.31v4.93H273.7v-4.69a2.33,2.33,0,0,0-.3-1.37,1,1,0,0,0-.9-.4,2.47,2.47,0,0,0-1.65,1v5.49H269v-4.69a2.42,2.42,0,0,0-.29-1.37,1.07,1.07,0,0,0-.92-.4,2.45,2.45,0,0,0-1.65,1v5.49Z"/><path class="cls-4" d="M281,117.11a3.76,3.76,0,0,1-1.41-.27,3.52,3.52,0,0,1-1.19-.8,3.66,3.66,0,0,1-.82-1.3,5,5,0,0,1,0-3.48,3.66,3.66,0,0,1,.82-1.3,3.7,3.7,0,0,1,1.19-.81,3.77,3.77,0,0,1,1.41-.28,3.86,3.86,0,0,1,1.42.28,3.59,3.59,0,0,1,1.19.81,4,4,0,0,1,.82,1.3,5,5,0,0,1,0,3.48,4,4,0,0,1-.82,1.3,3.42,3.42,0,0,1-1.19.8A3.85,3.85,0,0,1,281,117.11Zm0-1.5a1.57,1.57,0,0,0,1.36-.71,3.88,3.88,0,0,0,0-3.81,1.55,1.55,0,0,0-1.36-.71,1.52,1.52,0,0,0-1.35.71,3.95,3.95,0,0,0,0,3.81A1.54,1.54,0,0,0,281,115.61Z"/><path class="cls-4" d="M286.58,116.92v-7.86h1.52l.13,1.4h.06a3.29,3.29,0,0,1,1-1.18,2.12,2.12,0,0,1,1.21-.41,2.2,2.2,0,0,1,.9.16l-.32,1.6-.38-.09a2.65,2.65,0,0,0-.44,0,1.72,1.72,0,0,0-1,.36,2.75,2.75,0,0,0-.88,1.26v4.8Z"/><path class="cls-4" d="M295.75,117.11a4,4,0,0,1-1.52-.28A3.51,3.51,0,0,1,293,116a3.75,3.75,0,0,1-.82-1.28,5.09,5.09,0,0,1,0-3.47A3.83,3.83,0,0,1,293,110a3.36,3.36,0,0,1,1.16-.82,3.3,3.3,0,0,1,1.34-.29,3.48,3.48,0,0,1,1.41.27,2.86,2.86,0,0,1,1,.77,3.29,3.29,0,0,1,.62,1.19,5.13,5.13,0,0,1,.21,1.5,4.12,4.12,0,0,1,0,.51,2.9,2.9,0,0,1,0,.39h-5a2.51,2.51,0,0,0,.74,1.62,2.24,2.24,0,0,0,1.58.57,2.91,2.91,0,0,0,.95-.15,4.39,4.39,0,0,0,.87-.43l.62,1.15a5.3,5.3,0,0,1-1.24.61A4.35,4.35,0,0,1,295.75,117.11Zm-2.1-4.86h3.49a2.32,2.32,0,0,0-.39-1.43,1.43,1.43,0,0,0-1.21-.52,1.73,1.73,0,0,0-1.23.49A2.35,2.35,0,0,0,293.65,112.25Z"/><path class="cls-3" d="M305.63,117.11a2.36,2.36,0,0,1-1.62-.57,2.09,2.09,0,0,1-.65-1.63,2.15,2.15,0,0,1,1.14-2,9.24,9.24,0,0,1,3.63-1,3.51,3.51,0,0,0-.07-.72,1.8,1.8,0,0,0-.25-.62,1.31,1.31,0,0,0-.49-.44,1.68,1.68,0,0,0-.79-.17,3.12,3.12,0,0,0-1.26.26,6.21,6.21,0,0,0-1.06.57l-.51-.91a8.59,8.59,0,0,1,1.33-.68,4.39,4.39,0,0,1,1.72-.33,2.41,2.41,0,0,1,2.07.87,3.85,3.85,0,0,1,.64,2.33v4.77h-1.09l-.11-.93h-.05a5.93,5.93,0,0,1-1.2.79A3,3,0,0,1,305.63,117.11Zm.39-1a2.16,2.16,0,0,0,1.05-.27,5,5,0,0,0,1.06-.77v-2.16a11.93,11.93,0,0,0-1.64.3,4.41,4.41,0,0,0-1.07.42,1.58,1.58,0,0,0-.59.55,1.25,1.25,0,0,0-.19.68,1.11,1.11,0,0,0,.4,1A1.65,1.65,0,0,0,306,116.06Z"/><path class="cls-3" d="M315.35,117.11a2.81,2.81,0,0,1-1.13-.26,4.3,4.3,0,0,1-1.1-.73h-.05l-.11.8h-1V105.53h1.31v3.1l0,1.41a5.3,5.3,0,0,1,1.15-.78,2.91,2.91,0,0,1,1.28-.31,3.13,3.13,0,0,1,1.33.28,2.75,2.75,0,0,1,1,.8,3.72,3.72,0,0,1,.6,1.25,6.33,6.33,0,0,1,.2,1.63,5.14,5.14,0,0,1-.28,1.77,4,4,0,0,1-.73,1.33,3.1,3.1,0,0,1-1.07.82A3,3,0,0,1,315.35,117.11Zm-.23-1.1a1.81,1.81,0,0,0,.89-.22,1.94,1.94,0,0,0,.7-.61,2.87,2.87,0,0,0,.47-1,4.76,4.76,0,0,0,.17-1.3,5.26,5.26,0,0,0-.12-1.17,2.43,2.43,0,0,0-.36-.9,1.65,1.65,0,0,0-.64-.59,2.06,2.06,0,0,0-.93-.2,3.24,3.24,0,0,0-2.08,1v4.08a3.22,3.22,0,0,0,1,.63A2.55,2.55,0,0,0,315.12,116Z"/><path class="cls-3" d="M323.78,117.11a3.52,3.52,0,0,1-1.37-.27,3.3,3.3,0,0,1-1.14-.79,3.75,3.75,0,0,1-.79-1.28,4.67,4.67,0,0,1-.3-1.72,4.74,4.74,0,0,1,.3-1.74,4,4,0,0,1,.79-1.29,3.47,3.47,0,0,1,1.14-.8,3.61,3.61,0,0,1,2.74,0,3.47,3.47,0,0,1,1.14.8,4,4,0,0,1,.79,1.29,4.74,4.74,0,0,1,.3,1.74,4.67,4.67,0,0,1-.3,1.72,3.75,3.75,0,0,1-.79,1.28,3.3,3.3,0,0,1-1.14.79A3.52,3.52,0,0,1,323.78,117.11Zm0-1.09a2,2,0,0,0,.91-.21,2.08,2.08,0,0,0,.71-.61,2.85,2.85,0,0,0,.46-.94,4.12,4.12,0,0,0,.16-1.21,4.31,4.31,0,0,0-.16-1.23,3.11,3.11,0,0,0-.46-.95,2,2,0,0,0-.71-.61,1.88,1.88,0,0,0-.91-.22,1.86,1.86,0,0,0-.91.22,2.1,2.1,0,0,0-.72.61,3.34,3.34,0,0,0-.45.95,4.31,4.31,0,0,0-.16,1.23,4.12,4.12,0,0,0,.16,1.21,3,3,0,0,0,.45.94,2.21,2.21,0,0,0,.72.61A2,2,0,0,0,323.78,116Z"/><path class="cls-3" d="M331.7,117.11a2.1,2.1,0,0,1-1.82-.77,3.78,3.78,0,0,1-.57-2.27v-4.93h1.33v4.76a2.84,2.84,0,0,0,.35,1.59,1.28,1.28,0,0,0,1.11.49,1.87,1.87,0,0,0,1.07-.32,4.7,4.7,0,0,0,1-1v-5.52h1.32v7.78h-1.09l-.11-1.22h-.05a5,5,0,0,1-1.15,1A2.52,2.52,0,0,1,331.7,117.11Z"/><path class="cls-3" d="M340.58,117.11a2.5,2.5,0,0,1-1.05-.19,1.83,1.83,0,0,1-.69-.53,2,2,0,0,1-.37-.81,4.35,4.35,0,0,1-.12-1.06v-4.3H337.2v-1l1.22-.08.16-2.17h1.1v2.17h2.1v1.08h-2.1v4.32a1.94,1.94,0,0,0,.27,1.11,1,1,0,0,0,.93.39,1.86,1.86,0,0,0,.45-.06,3.58,3.58,0,0,0,.43-.15l.26,1a4.77,4.77,0,0,1-.7.2A3.18,3.18,0,0,1,340.58,117.11Z"/><path class="cls-4" d="M225.43,118.52v-.8h73.9v.8Z"/><path class="cls-3" d="M90.63,141.11a2.1,2.1,0,0,1-1.82-.77,3.86,3.86,0,0,1-.56-2.27v-4.93h1.32v4.76a2.84,2.84,0,0,0,.35,1.59A1.28,1.28,0,0,0,91,140a1.85,1.85,0,0,0,1.07-.32,4.94,4.94,0,0,0,1-1v-5.52h1.31v7.78H93.35l-.11-1.22h0a5.16,5.16,0,0,1-1.14,1A2.56,2.56,0,0,1,90.63,141.11Z"/><path class="cls-3" d="M97.06,140.92v-7.78h1.09l.11,1.12h0a6,6,0,0,1,1.18-.93,2.68,2.68,0,0,1,1.43-.38,2.1,2.1,0,0,1,1.8.77,3.78,3.78,0,0,1,.57,2.27v4.93H102v-4.75a2.71,2.71,0,0,0-.35-1.59,1.27,1.27,0,0,0-1.12-.49,1.94,1.94,0,0,0-1.07.3,7.38,7.38,0,0,0-1.06.9v5.63Z"/><path class="cls-3" d="M108.47,141.11a2.88,2.88,0,0,1-2.34-1.05,4.58,4.58,0,0,1-.88-3,5.11,5.11,0,0,1,.28-1.71,4.12,4.12,0,0,1,.75-1.28,3.13,3.13,0,0,1,1.07-.82,3,3,0,0,1,1.28-.29,2.66,2.66,0,0,1,1.17.24,5.42,5.42,0,0,1,1,.66l-.07-1.33v-3h1.33v11.39H111l-.11-.91h-.05a4.57,4.57,0,0,1-1.06.77A2.63,2.63,0,0,1,108.47,141.11Zm.29-1.1a2,2,0,0,0,1-.27,3.57,3.57,0,0,0,1-.8v-4.07a3.25,3.25,0,0,0-.95-.63,2.53,2.53,0,0,0-.94-.18,1.86,1.86,0,0,0-.87.21,2.29,2.29,0,0,0-.71.61,3.08,3.08,0,0,0-.48.94,3.8,3.8,0,0,0-.18,1.21,3.73,3.73,0,0,0,.56,2.19A1.83,1.83,0,0,0,108.76,140Z"/><path class="cls-3" d="M117.85,141.11a3.74,3.74,0,0,1-1.47-.28,3.3,3.3,0,0,1-1.18-.8,3.56,3.56,0,0,1-.79-1.27,4.58,4.58,0,0,1-.29-1.71,4.88,4.88,0,0,1,.29-1.72,4,4,0,0,1,.79-1.29,3.38,3.38,0,0,1,1.11-.81,3.31,3.31,0,0,1,2.62,0,2.52,2.52,0,0,1,1,.74,3.3,3.3,0,0,1,.6,1.15,5,5,0,0,1,.21,1.5c0,.14,0,.28,0,.41a1.59,1.59,0,0,1,0,.34h-5.25a3.12,3.12,0,0,0,.78,2,2.42,2.42,0,0,0,1.82.73,3.13,3.13,0,0,0,1-.17,4.68,4.68,0,0,0,.9-.44l.47.86a6.36,6.36,0,0,1-1.14.56A4,4,0,0,1,117.85,141.11Zm-2.45-4.7h4.16a2.76,2.76,0,0,0-.51-1.8,1.71,1.71,0,0,0-1.41-.62,2.1,2.1,0,0,0-.79.16,2.13,2.13,0,0,0-.68.47,2.54,2.54,0,0,0-.51.76A3.46,3.46,0,0,0,115.4,136.41Z"/><path class="cls-3" d="M122.63,140.92v-7.78h1.09l.11,1.41h0a3.54,3.54,0,0,1,1-1.17,2,2,0,0,1,1.23-.43,2.24,2.24,0,0,1,.84.16l-.26,1.15-.35-.09a2.25,2.25,0,0,0-.4,0,1.7,1.7,0,0,0-1,.4,3.15,3.15,0,0,0-.94,1.39v5Z"/><path class="cls-3" d="M130.15,141.11a4.28,4.28,0,0,1-1.59-.3,5,5,0,0,1-1.31-.77l.66-.88a5,5,0,0,0,1.05.67,2.83,2.83,0,0,0,1.24.26,1.68,1.68,0,0,0,1.15-.35,1.17,1.17,0,0,0,.38-.87.88.88,0,0,0-.16-.53,1.54,1.54,0,0,0-.41-.39,2.68,2.68,0,0,0-.56-.29l-.64-.26c-.28-.1-.56-.2-.84-.33a3.25,3.25,0,0,1-.74-.45,2.24,2.24,0,0,1-.54-.61,1.75,1.75,0,0,1-.2-.85,2.12,2.12,0,0,1,.18-.87,2,2,0,0,1,.53-.71,2.6,2.6,0,0,1,.84-.46,3.7,3.7,0,0,1,2.47.09,4.17,4.17,0,0,1,1.06.62l-.62.83a4.41,4.41,0,0,0-.83-.49,2.27,2.27,0,0,0-1-.19,1.52,1.52,0,0,0-1.08.33,1.12,1.12,0,0,0-.34.79.82.82,0,0,0,.14.47,1.48,1.48,0,0,0,.39.35,3.13,3.13,0,0,0,.55.27l.65.25.84.34a3,3,0,0,1,.76.44,2.13,2.13,0,0,1,.55.64,1.94,1.94,0,0,1,.22.93,2.11,2.11,0,0,1-.19.9,2,2,0,0,1-.54.73,2.46,2.46,0,0,1-.9.51A3.78,3.78,0,0,1,130.15,141.11Z"/><path class="cls-3" d="M137,141.11a2.5,2.5,0,0,1-1-.19,1.83,1.83,0,0,1-.69-.53,2,2,0,0,1-.37-.81,4.37,4.37,0,0,1-.11-1.06v-4.3h-1.16v-1l1.22-.08L135,131h1.1v2.17h2.1v1.08h-2.1v4.32a1.94,1.94,0,0,0,.27,1.11,1,1,0,0,0,.93.39,1.86,1.86,0,0,0,.45-.06,3.05,3.05,0,0,0,.43-.15l.26,1a4.44,4.44,0,0,1-.7.2A3.18,3.18,0,0,1,137,141.11Z"/><path class="cls-3" d="M141.36,141.11a2.36,2.36,0,0,1-1.62-.57,2.09,2.09,0,0,1-.65-1.63,2.15,2.15,0,0,1,1.14-2,9.24,9.24,0,0,1,3.63-1,3.51,3.51,0,0,0-.07-.72,1.8,1.8,0,0,0-.25-.62,1.31,1.31,0,0,0-.49-.44,1.65,1.65,0,0,0-.79-.17,3.12,3.12,0,0,0-1.26.26,6.21,6.21,0,0,0-1.06.57l-.51-.91a8.59,8.59,0,0,1,1.33-.68,4.39,4.39,0,0,1,1.72-.33,2.41,2.41,0,0,1,2.07.87,3.85,3.85,0,0,1,.64,2.33v4.77H144.1L144,140h-.05a5.93,5.93,0,0,1-1.2.79A3,3,0,0,1,141.36,141.11Zm.39-1.05a2.23,2.23,0,0,0,1.06-.27,5,5,0,0,0,1.05-.77v-2.16a11.93,11.93,0,0,0-1.64.3,4.41,4.41,0,0,0-1.07.42,1.58,1.58,0,0,0-.59.55,1.25,1.25,0,0,0-.19.68,1.11,1.11,0,0,0,.4,1A1.65,1.65,0,0,0,141.75,140.06Z"/><path class="cls-3" d="M147.64,140.92v-7.78h1.09l.11,1.12h0a6.69,6.69,0,0,1,1.18-.93,2.7,2.7,0,0,1,1.43-.38,2.1,2.1,0,0,1,1.8.77,3.78,3.78,0,0,1,.57,2.27v4.93h-1.31v-4.75a2.79,2.79,0,0,0-.35-1.59,1.29,1.29,0,0,0-1.12-.49,2,2,0,0,0-1.08.3,6.86,6.86,0,0,0-1.05.9v5.63Z"/><path class="cls-3" d="M159,141.11a2.88,2.88,0,0,1-2.34-1.05,4.63,4.63,0,0,1-.87-3,4.87,4.87,0,0,1,.28-1.71,4.1,4.1,0,0,1,.74-1.28,3.23,3.23,0,0,1,1.07-.82,3,3,0,0,1,1.28-.29,2.66,2.66,0,0,1,1.17.24,5.12,5.12,0,0,1,1,.66l-.06-1.33v-3h1.33v11.39h-1.09l-.12-.91h0a4.63,4.63,0,0,1-1.07.77A2.63,2.63,0,0,1,159,141.11Zm.29-1.1a2.09,2.09,0,0,0,1-.27,3.57,3.57,0,0,0,1-.8v-4.07a3.16,3.16,0,0,0-1-.63,2.48,2.48,0,0,0-.93-.18,1.86,1.86,0,0,0-.87.21,2.32,2.32,0,0,0-.72.61,3.08,3.08,0,0,0-.48.94,4.11,4.11,0,0,0-.17,1.21,3.73,3.73,0,0,0,.56,2.19A1.81,1.81,0,0,0,159.33,140Z"/><path class="cls-3" d="M165.94,131.54a.93.93,0,0,1-.65-.24.79.79,0,0,1-.26-.6.81.81,0,0,1,.26-.62,1,1,0,0,1,1.3,0,.81.81,0,0,1,.26.62.79.79,0,0,1-.26.6A.93.93,0,0,1,165.94,131.54Zm-.67,9.38v-7.78h1.31v7.78Z"/><path class="cls-3" d="M169.2,140.92v-7.78h1.09l.11,1.12h0a6.69,6.69,0,0,1,1.18-.93,2.7,2.7,0,0,1,1.43-.38,2.1,2.1,0,0,1,1.8.77,3.78,3.78,0,0,1,.57,2.27v4.93h-1.31v-4.75a2.7,2.7,0,0,0-.36-1.59,1.26,1.26,0,0,0-1.12-.49,1.94,1.94,0,0,0-1.07.3,6.86,6.86,0,0,0-1,.9v5.63Z"/><path class="cls-3" d="M180.58,144.5a5.87,5.87,0,0,1-1.31-.13,3.16,3.16,0,0,1-1-.41,2,2,0,0,1-.65-.66,1.62,1.62,0,0,1-.24-.89,1.71,1.71,0,0,1,.31-.95,3.21,3.21,0,0,1,.83-.81v-.07a1.6,1.6,0,0,1-.49-.48,1.46,1.46,0,0,1-.2-.78,1.4,1.4,0,0,1,.27-.86,2.65,2.65,0,0,1,.58-.58v-.06a3.24,3.24,0,0,1-.7-.86,2.51,2.51,0,0,1-.31-1.24,2.81,2.81,0,0,1,.23-1.15,2.66,2.66,0,0,1,.64-.87,2.72,2.72,0,0,1,.93-.56,3.57,3.57,0,0,1,1.13-.19,2.91,2.91,0,0,1,.6.06,4.5,4.5,0,0,1,.5.13h2.71v1h-1.6a2.17,2.17,0,0,1,.45.69,2.12,2.12,0,0,1,.19.91,2.75,2.75,0,0,1-.23,1.13,2.51,2.51,0,0,1-.6.85,2.66,2.66,0,0,1-.91.53,3.12,3.12,0,0,1-1.11.2,2.46,2.46,0,0,1-.59-.08,2.34,2.34,0,0,1-.58-.2,1.9,1.9,0,0,0-.35.4.89.89,0,0,0-.14.53.75.75,0,0,0,.28.61,1.8,1.8,0,0,0,1.09.24h1.51a3.86,3.86,0,0,1,2,.44,1.57,1.57,0,0,1,.68,1.42,2,2,0,0,1-.28,1,2.61,2.61,0,0,1-.78.85,4.08,4.08,0,0,1-1.24.59A5.93,5.93,0,0,1,180.58,144.5Zm.19-.91a3.6,3.6,0,0,0,1-.13,2.62,2.62,0,0,0,.77-.36,1.59,1.59,0,0,0,.5-.5,1.1,1.1,0,0,0,.18-.59.78.78,0,0,0-.4-.75,2.6,2.6,0,0,0-1.17-.21h-1.35l-.48,0a2.28,2.28,0,0,1-.52-.1,2.14,2.14,0,0,0-.61.64,1.31,1.31,0,0,0-.19.67,1.11,1.11,0,0,0,.6,1A3.1,3.1,0,0,0,180.77,143.59Zm-.19-6a1.69,1.69,0,0,0,.63-.13,1.65,1.65,0,0,0,.89-.95,2.13,2.13,0,0,0,.13-.78,1.8,1.8,0,0,0-.48-1.34,1.69,1.69,0,0,0-2.34,0,1.8,1.8,0,0,0-.48,1.34,2.13,2.13,0,0,0,.13.78,1.78,1.78,0,0,0,.36.58,1.64,1.64,0,0,0,.53.37A1.69,1.69,0,0,0,180.58,137.58Z"/><path class="cls-3" d="M189.35,140.92v-10.5h6.05v1.12h-4.72v3.3h4V136h-4v3.8h4.88v1.14Z"/><path class="cls-3" d="M197.65,140.92v-7.78h1.09l.11,1.12h.05a5.38,5.38,0,0,1,1.11-.93,2.44,2.44,0,0,1,1.31-.38,2.26,2.26,0,0,1,1.4.39,2.36,2.36,0,0,1,.74,1.1,6.57,6.57,0,0,1,1.22-1.08A2.43,2.43,0,0,1,206,133a2.1,2.1,0,0,1,1.78.77,3.71,3.71,0,0,1,.59,2.27v4.93h-1.31v-4.75a2.7,2.7,0,0,0-.36-1.59,1.22,1.22,0,0,0-1.08-.49,2.9,2.9,0,0,0-2,1.2v5.63h-1.31v-4.75a2.79,2.79,0,0,0-.35-1.59,1.25,1.25,0,0,0-1.1-.49,2.9,2.9,0,0,0-2,1.2v5.63Z"/><path class="cls-3" d="M212.71,141.11a2.4,2.4,0,0,1-1.63-.57,2.08,2.08,0,0,1-.64-1.63,2.14,2.14,0,0,1,1.13-2,9.24,9.24,0,0,1,3.63-1,3.51,3.51,0,0,0-.07-.72,1.8,1.8,0,0,0-.25-.62,1.28,1.28,0,0,0-.48-.44,1.72,1.72,0,0,0-.8-.17,3.16,3.16,0,0,0-1.26.26,6.21,6.21,0,0,0-1.06.57l-.51-.91a9.07,9.07,0,0,1,1.33-.68,4.41,4.41,0,0,1,1.73-.33,2.37,2.37,0,0,1,2.06.87,3.85,3.85,0,0,1,.64,2.33v4.77h-1.09l-.11-.93h-.05a5.93,5.93,0,0,1-1.2.79A2.92,2.92,0,0,1,212.71,141.11Zm.38-1.05a2.17,2.17,0,0,0,1.06-.27,5,5,0,0,0,1-.77v-2.16a12.22,12.22,0,0,0-1.64.3,4.41,4.41,0,0,0-1.07.42,1.58,1.58,0,0,0-.59.55,1.33,1.33,0,0,0-.18.68,1.09,1.09,0,0,0,.4,1A1.62,1.62,0,0,0,213.09,140.06Z"/><path class="cls-3" d="M219.65,131.54a1,1,0,0,1-.65-.24.79.79,0,0,1-.26-.6.81.81,0,0,1,.26-.62,1,1,0,0,1,.65-.23,1,1,0,0,1,.65.23.77.77,0,0,1,.26.62.76.76,0,0,1-.26.6A.93.93,0,0,1,219.65,131.54Zm-.67,9.38v-7.78h1.31v7.78Z"/><path class="cls-3" d="M224.31,141.11a1.22,1.22,0,0,1-1.07-.45,2.17,2.17,0,0,1-.32-1.31v-9.82h1.31v9.92a.74.74,0,0,0,.11.45.34.34,0,0,0,.26.12h.12l.16,0,.18,1a1.32,1.32,0,0,1-.3.09A2.81,2.81,0,0,1,224.31,141.11Z"/><path class="cls-3" d="M230.32,140.92v-10.5h3.28a6.78,6.78,0,0,1,1.48.16,3.12,3.12,0,0,1,1.17.5,2.4,2.4,0,0,1,.76.91,3.17,3.17,0,0,1,.27,1.38,2.88,2.88,0,0,1-.64,2,3.22,3.22,0,0,1-1.72,1l2.67,4.58h-1.51l-2.52-4.43h-1.91v4.43Zm1.33-5.52h1.76a3.1,3.1,0,0,0,1.89-.5,1.81,1.81,0,0,0,.66-1.53,1.6,1.6,0,0,0-.66-1.46,3.63,3.63,0,0,0-1.89-.41h-1.76Z"/><path class="cls-3" d="M240,131.54a1,1,0,0,1-.65-.24.79.79,0,0,1-.26-.6.81.81,0,0,1,.26-.62,1,1,0,0,1,.65-.23,1,1,0,0,1,.65.23.77.77,0,0,1,.26.62.76.76,0,0,1-.26.6A.93.93,0,0,1,240,131.54Zm-.67,9.38v-7.78h1.31v7.78Z"/><path class="cls-3" d="M245.27,141.11a4.28,4.28,0,0,1-1.59-.3,4.82,4.82,0,0,1-1.31-.77l.66-.88a5,5,0,0,0,1.05.67,2.82,2.82,0,0,0,1.23.26,1.69,1.69,0,0,0,1.16-.35,1.17,1.17,0,0,0,.38-.87.88.88,0,0,0-.16-.53,1.7,1.7,0,0,0-.41-.39,2.68,2.68,0,0,0-.56-.29l-.64-.26c-.28-.1-.56-.2-.84-.33a3.25,3.25,0,0,1-.74-.45A2.24,2.24,0,0,1,243,136a1.65,1.65,0,0,1-.2-.85,2.12,2.12,0,0,1,.18-.87,2,2,0,0,1,.53-.71,2.6,2.6,0,0,1,.84-.46,3.7,3.7,0,0,1,2.47.09,4.35,4.35,0,0,1,1.06.62l-.62.83a4.41,4.41,0,0,0-.83-.49,2.3,2.3,0,0,0-.95-.19,1.52,1.52,0,0,0-1.08.33,1.08,1.08,0,0,0-.34.79.82.82,0,0,0,.14.47,1.48,1.48,0,0,0,.39.35,3.13,3.13,0,0,0,.55.27l.65.25.84.34a3,3,0,0,1,.76.44,2.13,2.13,0,0,1,.55.64,1.94,1.94,0,0,1,.22.93,2.27,2.27,0,0,1-.19.9,2,2,0,0,1-.54.73,2.46,2.46,0,0,1-.9.51A3.82,3.82,0,0,1,245.27,141.11Z"/><path class="cls-3" d="M249.94,140.92V129.53h1.29v7.71h.05l3.31-4.1h1.46l-2.61,3.12,3,4.66H255l-2.27-3.74-1.46,1.69v2Z"/><path class="cls-3" d="M261.06,140.92v-7.78h1.09l.11,1.41h.05a3.64,3.64,0,0,1,1-1.17,2.07,2.07,0,0,1,1.24-.43,2.24,2.24,0,0,1,.84.16l-.26,1.15-.35-.09a2.25,2.25,0,0,0-.4,0,1.7,1.7,0,0,0-1,.4,3.15,3.15,0,0,0-.94,1.39v5Z"/><path class="cls-3" d="M269.6,141.11a3.72,3.72,0,0,1-1.46-.28A3.42,3.42,0,0,1,267,140a3.7,3.7,0,0,1-.79-1.27,4.79,4.79,0,0,1-.29-1.71,4.67,4.67,0,0,1,.3-1.72A4.11,4.11,0,0,1,267,134a3.53,3.53,0,0,1,1.12-.81,3.18,3.18,0,0,1,1.29-.28,3.27,3.27,0,0,1,1.32.26,2.48,2.48,0,0,1,1,.74,3.3,3.3,0,0,1,.6,1.15,5,5,0,0,1,.21,1.5c0,.14,0,.28,0,.41a2.66,2.66,0,0,1,0,.34h-5.25a3,3,0,0,0,.78,2,2.41,2.41,0,0,0,1.81.73,3,3,0,0,0,1-.17,4.49,4.49,0,0,0,.91-.44l.46.86a6.26,6.26,0,0,1-1.13.56A4,4,0,0,1,269.6,141.11Zm-2.45-4.7h4.16a2.76,2.76,0,0,0-.5-1.8,1.74,1.74,0,0,0-1.42-.62,2.14,2.14,0,0,0-.79.16,2.24,2.24,0,0,0-.68.47,2.71,2.71,0,0,0-.5.76A3.45,3.45,0,0,0,267.15,136.41Z"/><path class="cls-3" d="M276.42,141.11a4.28,4.28,0,0,1-1.59-.3,5,5,0,0,1-1.31-.77l.66-.88a5,5,0,0,0,1.05.67,2.83,2.83,0,0,0,1.24.26,1.68,1.68,0,0,0,1.15-.35,1.17,1.17,0,0,0,.38-.87.88.88,0,0,0-.16-.53,1.65,1.65,0,0,0-.4-.39,3,3,0,0,0-.57-.29l-.64-.26a8.43,8.43,0,0,1-.83-.33,3.11,3.11,0,0,1-.75-.45,2.24,2.24,0,0,1-.54-.61,1.75,1.75,0,0,1-.2-.85,2.12,2.12,0,0,1,.18-.87,2,2,0,0,1,.53-.71,2.6,2.6,0,0,1,.84-.46,3.7,3.7,0,0,1,2.47.09,4.17,4.17,0,0,1,1.06.62l-.62.83a4.41,4.41,0,0,0-.83-.49,2.27,2.27,0,0,0-1-.19,1.47,1.47,0,0,0-1.07.33,1.09,1.09,0,0,0-.35.79.82.82,0,0,0,.14.47,1.48,1.48,0,0,0,.39.35,3.13,3.13,0,0,0,.55.27l.65.25.84.34a3,3,0,0,1,.76.44,2.13,2.13,0,0,1,.55.64,1.94,1.94,0,0,1,.22.93,2.11,2.11,0,0,1-.19.9,2,2,0,0,1-.54.73,2.46,2.46,0,0,1-.9.51A3.78,3.78,0,0,1,276.42,141.11Z"/><path class="cls-3" d="M283.36,141.11a2.08,2.08,0,0,1-1.81-.77,3.78,3.78,0,0,1-.57-2.27v-4.93h1.33v4.76a2.85,2.85,0,0,0,.34,1.59,1.28,1.28,0,0,0,1.11.49,1.85,1.85,0,0,0,1.07-.32,4.94,4.94,0,0,0,1-1v-5.52h1.31v7.78h-1.09L286,139.7h-.05a5.16,5.16,0,0,1-1.14,1A2.53,2.53,0,0,1,283.36,141.11Z"/><path class="cls-3" d="M291.19,141.11a1.24,1.24,0,0,1-1.08-.45,2.24,2.24,0,0,1-.32-1.31v-9.82h1.32v9.92a.68.68,0,0,0,.11.45.33.33,0,0,0,.25.12h.12l.17,0,.18,1a1.26,1.26,0,0,1-.31.09A2.59,2.59,0,0,1,291.19,141.11Z"/><path class="cls-3" d="M296.32,141.11a2.56,2.56,0,0,1-1.05-.19,1.72,1.72,0,0,1-.68-.53,1.9,1.9,0,0,1-.38-.81,4.93,4.93,0,0,1-.11-1.06v-4.3H293v-1l1.21-.08.16-2.17h1.11v2.17h2.09v1.08h-2.09v4.32a1.94,1.94,0,0,0,.26,1.11,1.06,1.06,0,0,0,.94.39,1.85,1.85,0,0,0,.44-.06,3.76,3.76,0,0,0,.44-.15l.25,1a4.31,4.31,0,0,1-.69.2A3.27,3.27,0,0,1,296.32,141.11Z"/><path class="cls-3" d="M301.15,141.11a4.23,4.23,0,0,1-1.58-.3,4.82,4.82,0,0,1-1.31-.77l.65-.88a5.28,5.28,0,0,0,1,.67,2.86,2.86,0,0,0,1.24.26,1.66,1.66,0,0,0,1.15-.35,1.14,1.14,0,0,0,.39-.87,1,1,0,0,0-.16-.53,1.7,1.7,0,0,0-.41-.39,3,3,0,0,0-.57-.29l-.64-.26c-.28-.1-.55-.2-.83-.33a2.87,2.87,0,0,1-.74-.45,2.24,2.24,0,0,1-.54-.61,1.65,1.65,0,0,1-.21-.85,2,2,0,0,1,.19-.87,2,2,0,0,1,.52-.71,2.6,2.6,0,0,1,.84-.46,3.73,3.73,0,0,1,2.48.09,4.35,4.35,0,0,1,1.06.62l-.62.83a4.48,4.48,0,0,0-.84-.49,2.23,2.23,0,0,0-.94-.19,1.52,1.52,0,0,0-1.08.33,1.08,1.08,0,0,0-.34.79.75.75,0,0,0,.14.47,1.43,1.43,0,0,0,.38.35,3.24,3.24,0,0,0,.56.27l.64.25.84.34a2.7,2.7,0,0,1,.76.44,2.16,2.16,0,0,1,.56.64,1.94,1.94,0,0,1,.21.93,2.26,2.26,0,0,1-.18.9,2.17,2.17,0,0,1-.55.73,2.5,2.5,0,0,1-.89.51A3.88,3.88,0,0,1,301.15,141.11Z"/><path class="cls-3" d="M306.51,141.11a.93.93,0,0,1-.68-.28,1,1,0,0,1-.28-.71,1,1,0,0,1,.28-.74.93.93,0,0,1,.68-.28.91.91,0,0,1,.67.28,1,1,0,0,1,.28.74,1,1,0,0,1-.28.71A.91.91,0,0,1,306.51,141.11Z"/></svg>