<?xml version="1.0" encoding="UTF-8"?>
<svg viewBox="0 0 500 180" version="1.1" xmlns="http://www.w3.org/2000/svg" xmlns:xlink="http://www.w3.org/1999/xlink">
    <!-- Generator: Sketch 64 (93537) - https://sketch.com -->
    <title>Artboard</title>
    <desc>Created with Sketch.</desc>
    <g id="Artboard" stroke="none" stroke-width="1" fill="none" fill-rule="evenodd">
        <rect id="Rectangle" fill="#EE020A" fill-rule="nonzero" x="0" y="0" width="6" height="180"></rect>
        <rect id="Rectangle" fill="#F5F5F5" fill-rule="nonzero" x="6" y="0" width="495" height="180"></rect>
        <path d="M33.9,12 C25.3,12 18.2,19 18.2,27.7 C18.2,36.4 25.2,43.3 33.9,43.3 C42.6,43.3 49.6,36.3 49.6,27.6 C49.6,18.9 42.5,12 33.9,12 Z" id="Path" fill="#EE020A" fill-rule="nonzero"></path>
        <g id="Group" transform="translate(25.000000, 19.300000)" fill="#F5F5F5" fill-rule="nonzero">
            <rect id="Rectangle" transform="translate(8.909875, 8.364395) rotate(-45.000000) translate(-8.909875, -8.364395) " x="-1.0900291" y="6.71441082" width="19.9998082" height="3.29996835"></rect>
            <rect id="Rectangle" transform="translate(8.847765, 8.285095) rotate(-45.000000) translate(-8.847765, -8.285095) " x="7.19778082" y="-1.7148091" width="3.29996835" height="19.9998082"></rect>
        </g>
        <rect id="Rectangle" fill="#EE020A" x="125" y="66" width="128" height="48" rx="3"></rect>
        <path d="M162.504,95.192 C163.176,95.192 163.786667,95.0613333 164.336,94.8 C164.885333,94.5386667 165.373333,94.1626667 165.8,93.672 L165.8,93.672 L164.808,92.504 C164.509333,92.824 164.178667,93.0826667 163.816,93.28 C163.453333,93.4773333 163.037333,93.576 162.568,93.576 C161.682667,93.576 160.981333,93.2373333 160.464,92.56 C159.946667,91.8826667 159.688,90.9466667 159.688,89.752 C159.688,89.1653333 159.76,88.6373333 159.904,88.168 C160.048,87.6986667 160.250667,87.3013333 160.512,86.976 C160.773333,86.6506667 161.082667,86.4 161.44,86.224 C161.797333,86.048 162.189333,85.96 162.616,85.96 C163.021333,85.96 163.384,86.0426667 163.704,86.208 C164.024,86.3733333 164.322667,86.5946667 164.6,86.872 L164.6,86.872 L165.592,85.672 C165.261333,85.32 164.84,85.0106667 164.328,84.744 C163.816,84.4773333 163.229333,84.344 162.568,84.344 C161.906667,84.344 161.285333,84.4666667 160.704,84.712 C160.122667,84.9573333 159.616,85.3146667 159.184,85.784 C158.752,86.2533333 158.410667,86.8266667 158.16,87.504 C157.909333,88.1813333 157.784,88.9466667 157.784,89.8 C157.784,90.664 157.906667,91.432 158.152,92.104 C158.397333,92.776 158.730667,93.3413333 159.152,93.8 C159.573333,94.2586667 160.072,94.6053333 160.648,94.84 C161.224,95.0746667 161.842667,95.192 162.504,95.192 Z M170.6,95.192 C171.090667,95.192 171.562667,95.1013333 172.016,94.92 C172.469333,94.7386667 172.866667,94.472 173.208,94.12 C173.549333,93.768 173.824,93.336 174.032,92.824 C174.24,92.312 174.344,91.7306667 174.344,91.08 C174.344,90.4293333 174.24,89.848 174.032,89.336 C173.824,88.824 173.549333,88.392 173.208,88.04 C172.866667,87.688 172.469333,87.4186667 172.016,87.232 C171.562667,87.0453333 171.090667,86.952 170.6,86.952 C170.109333,86.952 169.64,87.0453333 169.192,87.232 C168.744,87.4186667 168.346667,87.688 168,88.04 C167.653333,88.392 167.378667,88.824 167.176,89.336 C166.973333,89.848 166.872,90.4293333 166.872,91.08 C166.872,91.7306667 166.973333,92.312 167.176,92.824 C167.378667,93.336 167.653333,93.768 168,94.12 C168.346667,94.472 168.744,94.7386667 169.192,94.92 C169.64,95.1013333 170.109333,95.192 170.6,95.192 Z M170.6,93.688 C170.024,93.688 169.573333,93.4506667 169.248,92.976 C168.922667,92.5013333 168.76,91.8693333 168.76,91.08 C168.76,90.28 168.922667,89.6426667 169.248,89.168 C169.573333,88.6933333 170.024,88.456 170.6,88.456 C171.176,88.456 171.629333,88.6933333 171.96,89.168 C172.290667,89.6426667 172.456,90.28 172.456,91.08 C172.456,91.8693333 172.290667,92.5013333 171.96,92.976 C171.629333,93.4506667 171.176,93.688 170.6,93.688 Z M178.008,95 L178.008,89.512 C178.338667,89.192 178.634667,88.9493333 178.896,88.784 C179.157333,88.6186667 179.458667,88.536 179.8,88.536 C180.237333,88.536 180.552,88.6693333 180.744,88.936 C180.936,89.2026667 181.032,89.6613333 181.032,90.312 L181.032,90.312 L181.032,95 L182.872,95 L182.872,90.072 C182.872,89.0693333 182.68,88.2986667 182.296,87.76 C181.912,87.2213333 181.298667,86.952 180.456,86.952 C179.912,86.952 179.434667,87.0746667 179.024,87.32 C178.613333,87.5653333 178.232,87.8586667 177.88,88.2 L177.88,88.2 L177.816,88.2 L177.688,87.144 L176.168,87.144 L176.168,95 L178.008,95 Z M187.896,95.192 C188.205333,95.192 188.496,95.1626667 188.768,95.104 C189.04,95.0453333 189.282667,94.9786667 189.496,94.904 L189.496,94.904 L189.176,93.544 C189.058667,93.5973333 188.928,93.64 188.784,93.672 C188.64,93.704 188.498667,93.72 188.36,93.72 C187.624,93.72 187.256,93.2613333 187.256,92.344 L187.256,92.344 L187.256,88.6 L189.256,88.6 L189.256,87.144 L187.256,87.144 L187.256,85 L185.72,85 L185.496,87.144 L184.28,87.224 L184.28,88.6 L185.4,88.6 L185.4,92.344 C185.4,92.7706667 185.445333,93.1573333 185.536,93.504 C185.626667,93.8506667 185.770667,94.1493333 185.968,94.4 C186.165333,94.6506667 186.421333,94.8453333 186.736,94.984 C187.050667,95.1226667 187.437333,95.192 187.896,95.192 Z M191.832,85.768 C192.162667,85.768 192.434667,85.672 192.648,85.48 C192.861333,85.288 192.968,85.0373333 192.968,84.728 C192.968,84.4186667 192.861333,84.1653333 192.648,83.968 C192.434667,83.7706667 192.162667,83.672 191.832,83.672 C191.501333,83.672 191.229333,83.7706667 191.016,83.968 C190.802667,84.1653333 190.696,84.4186667 190.696,84.728 C190.696,85.0373333 190.802667,85.288 191.016,85.48 C191.229333,85.672 191.501333,85.768 191.832,85.768 Z M192.744,95 L192.744,87.144 L190.904,87.144 L190.904,95 L192.744,95 Z M196.936,95 L196.936,89.512 C197.266667,89.192 197.562667,88.9493333 197.824,88.784 C198.085333,88.6186667 198.386667,88.536 198.728,88.536 C199.165333,88.536 199.48,88.6693333 199.672,88.936 C199.864,89.2026667 199.96,89.6613333 199.96,90.312 L199.96,90.312 L199.96,95 L201.8,95 L201.8,90.072 C201.8,89.0693333 201.608,88.2986667 201.224,87.76 C200.84,87.2213333 200.226667,86.952 199.384,86.952 C198.84,86.952 198.362667,87.0746667 197.952,87.32 C197.541333,87.5653333 197.16,87.8586667 196.808,88.2 L196.808,88.2 L196.744,88.2 L196.616,87.144 L195.096,87.144 L195.096,95 L196.936,95 Z M206.392,95.192 C206.936,95.192 207.408,95.0693333 207.808,94.824 C208.208,94.5786667 208.578667,94.2533333 208.92,93.848 L208.92,93.848 L208.968,93.848 L209.112,95 L210.616,95 L210.616,87.144 L208.776,87.144 L208.776,92.52 C208.477333,92.904 208.197333,93.1813333 207.936,93.352 C207.674667,93.5226667 207.373333,93.608 207.032,93.608 C206.605333,93.608 206.296,93.4746667 206.104,93.208 C205.912,92.9413333 205.816,92.4826667 205.816,91.832 L205.816,91.832 L205.816,87.144 L203.976,87.144 L203.976,92.072 C203.976,93.0746667 204.168,93.8453333 204.552,94.384 C204.936,94.9226667 205.549333,95.192 206.392,95.192 Z M216.312,95.192 C216.813333,95.192 217.293333,95.112 217.752,94.952 C218.210667,94.792 218.626667,94.5893333 219,94.344 L219,94.344 L218.376,93.192 C218.088,93.3733333 217.797333,93.5146667 217.504,93.616 C217.210667,93.7173333 216.893333,93.768 216.552,93.768 C215.912,93.768 215.386667,93.5786667 214.976,93.2 C214.565333,92.8213333 214.317333,92.28 214.232,91.576 L214.232,91.576 L219.224,91.576 C219.245333,91.48 219.264,91.352 219.28,91.192 C219.296,91.032 219.304,90.8613333 219.304,90.68 C219.304,90.136 219.234667,89.6346667 219.096,89.176 C218.957333,88.7173333 218.752,88.3226667 218.48,87.992 C218.208,87.6613333 217.869333,87.4053333 217.464,87.224 C217.058667,87.0426667 216.589333,86.952 216.056,86.952 C215.597333,86.952 215.149333,87.048 214.712,87.24 C214.274667,87.432 213.888,87.704 213.552,88.056 C213.216,88.408 212.946667,88.84 212.744,89.352 C212.541333,89.864 212.44,90.44 212.44,91.08 C212.44,91.7306667 212.538667,92.3093333 212.736,92.816 C212.933333,93.3226667 213.208,93.752 213.56,94.104 C213.912,94.456 214.322667,94.7253333 214.792,94.912 C215.261333,95.0986667 215.768,95.192 216.312,95.192 Z M217.704,90.328 L214.216,90.328 C214.301333,89.688 214.52,89.2026667 214.872,88.872 C215.224,88.5413333 215.634667,88.376 216.104,88.376 C216.648,88.376 217.050667,88.5493333 217.312,88.896 C217.573333,89.2426667 217.704,89.72 217.704,90.328 L217.704,90.328 Z" id="Continue" fill="#FFFFFF" fill-rule="nonzero"></path>
        <rect id="Rectangle" fill="#EE020A" x="269" y="66" width="107" height="48" rx="3"></rect>
        <path d="M304.504,95.192 C305.176,95.192 305.786667,95.0613333 306.336,94.8 C306.885333,94.5386667 307.373333,94.1626667 307.8,93.672 L307.8,93.672 L306.808,92.504 C306.509333,92.824 306.178667,93.0826667 305.816,93.28 C305.453333,93.4773333 305.037333,93.576 304.568,93.576 C303.682667,93.576 302.981333,93.2373333 302.464,92.56 C301.946667,91.8826667 301.688,90.9466667 301.688,89.752 C301.688,89.1653333 301.76,88.6373333 301.904,88.168 C302.048,87.6986667 302.250667,87.3013333 302.512,86.976 C302.773333,86.6506667 303.082667,86.4 303.44,86.224 C303.797333,86.048 304.189333,85.96 304.616,85.96 C305.021333,85.96 305.384,86.0426667 305.704,86.208 C306.024,86.3733333 306.322667,86.5946667 306.6,86.872 L306.6,86.872 L307.592,85.672 C307.261333,85.32 306.84,85.0106667 306.328,84.744 C305.816,84.4773333 305.229333,84.344 304.568,84.344 C303.906667,84.344 303.285333,84.4666667 302.704,84.712 C302.122667,84.9573333 301.616,85.3146667 301.184,85.784 C300.752,86.2533333 300.410667,86.8266667 300.16,87.504 C299.909333,88.1813333 299.784,88.9466667 299.784,89.8 C299.784,90.664 299.906667,91.432 300.152,92.104 C300.397333,92.776 300.730667,93.3413333 301.152,93.8 C301.573333,94.2586667 302.072,94.6053333 302.648,94.84 C303.224,95.0746667 303.842667,95.192 304.504,95.192 Z M311.288,95.192 C311.757333,95.192 312.192,95.0906667 312.592,94.888 C312.992,94.6853333 313.368,94.4346667 313.72,94.136 L313.72,94.136 L313.784,94.136 L313.912,95 L315.432,95 L315.432,90.344 C315.432,89.2453333 315.189333,88.4053333 314.704,87.824 C314.218667,87.2426667 313.485333,86.952 312.504,86.952 C311.874667,86.952 311.288,87.0533333 310.744,87.256 C310.2,87.4586667 309.709333,87.6986667 309.272,87.976 L309.272,87.976 L309.944,89.208 C310.296,88.9946667 310.656,88.8133333 311.024,88.664 C311.392,88.5146667 311.768,88.44 312.152,88.44 C312.418667,88.44 312.642667,88.48 312.824,88.56 C313.005333,88.64 313.152,88.752 313.264,88.896 C313.376,89.04 313.456,89.2053333 313.504,89.392 C313.552,89.5786667 313.581333,89.7733333 313.592,89.976 C312.781333,90.0613333 312.085333,90.184 311.504,90.344 C310.922667,90.504 310.442667,90.7013333 310.064,90.936 C309.685333,91.1706667 309.408,91.4506667 309.232,91.776 C309.056,92.1013333 308.968,92.472 308.968,92.888 C308.968,93.5813333 309.181333,94.1386667 309.608,94.56 C310.034667,94.9813333 310.594667,95.192 311.288,95.192 Z M311.88,93.752 C311.549333,93.752 311.277333,93.672 311.064,93.512 C310.850667,93.352 310.744,93.096 310.744,92.744 C310.744,92.552 310.792,92.3706667 310.888,92.2 C310.984,92.0293333 311.144,91.8773333 311.368,91.744 C311.592,91.6106667 311.885333,91.4906667 312.248,91.384 C312.610667,91.2773333 313.058667,91.192 313.592,91.128 L313.592,91.128 L313.592,92.888 C313.293333,93.1653333 313.013333,93.3786667 312.752,93.528 C312.490667,93.6773333 312.2,93.752 311.88,93.752 Z M319.48,95 L319.48,89.512 C319.810667,89.192 320.106667,88.9493333 320.368,88.784 C320.629333,88.6186667 320.930667,88.536 321.272,88.536 C321.709333,88.536 322.024,88.6693333 322.216,88.936 C322.408,89.2026667 322.504,89.6613333 322.504,90.312 L322.504,90.312 L322.504,95 L324.344,95 L324.344,90.072 C324.344,89.0693333 324.152,88.2986667 323.768,87.76 C323.384,87.2213333 322.770667,86.952 321.928,86.952 C321.384,86.952 320.906667,87.0746667 320.496,87.32 C320.085333,87.5653333 319.704,87.8586667 319.352,88.2 L319.352,88.2 L319.288,88.2 L319.16,87.144 L317.64,87.144 L317.64,95 L319.48,95 Z M329.88,95.192 C330.328,95.192 330.773333,95.112 331.216,94.952 C331.658667,94.792 332.066667,94.552 332.44,94.232 L332.44,94.232 L331.688,93.016 C331.464,93.1973333 331.216,93.3546667 330.944,93.488 C330.672,93.6213333 330.381333,93.688 330.072,93.688 C329.453333,93.688 328.949333,93.4506667 328.56,92.976 C328.170667,92.5013333 327.976,91.8693333 327.976,91.08 C327.976,90.28 328.173333,89.6426667 328.568,89.168 C328.962667,88.6933333 329.48,88.456 330.12,88.456 C330.365333,88.456 330.592,88.5066667 330.8,88.608 C331.008,88.7093333 331.218667,88.8506667 331.432,89.032 L331.432,89.032 L332.328,87.832 C332.04,87.5866667 331.712,87.3786667 331.344,87.208 C330.976,87.0373333 330.536,86.952 330.024,86.952 C329.501333,86.952 329.002667,87.0453333 328.528,87.232 C328.053333,87.4186667 327.634667,87.688 327.272,88.04 C326.909333,88.392 326.621333,88.824 326.408,89.336 C326.194667,89.848 326.088,90.4293333 326.088,91.08 C326.088,91.7306667 326.184,92.312 326.376,92.824 C326.568,93.336 326.834667,93.768 327.176,94.12 C327.517333,94.472 327.92,94.7386667 328.384,94.92 C328.848,95.1013333 329.346667,95.192 329.88,95.192 Z M336.968,95.192 C337.469333,95.192 337.949333,95.112 338.408,94.952 C338.866667,94.792 339.282667,94.5893333 339.656,94.344 L339.656,94.344 L339.032,93.192 C338.744,93.3733333 338.453333,93.5146667 338.16,93.616 C337.866667,93.7173333 337.549333,93.768 337.208,93.768 C336.568,93.768 336.042667,93.5786667 335.632,93.2 C335.221333,92.8213333 334.973333,92.28 334.888,91.576 L334.888,91.576 L339.88,91.576 C339.901333,91.48 339.92,91.352 339.936,91.192 C339.952,91.032 339.96,90.8613333 339.96,90.68 C339.96,90.136 339.890667,89.6346667 339.752,89.176 C339.613333,88.7173333 339.408,88.3226667 339.136,87.992 C338.864,87.6613333 338.525333,87.4053333 338.12,87.224 C337.714667,87.0426667 337.245333,86.952 336.712,86.952 C336.253333,86.952 335.805333,87.048 335.368,87.24 C334.930667,87.432 334.544,87.704 334.208,88.056 C333.872,88.408 333.602667,88.84 333.4,89.352 C333.197333,89.864 333.096,90.44 333.096,91.08 C333.096,91.7306667 333.194667,92.3093333 333.392,92.816 C333.589333,93.3226667 333.864,93.752 334.216,94.104 C334.568,94.456 334.978667,94.7253333 335.448,94.912 C335.917333,95.0986667 336.424,95.192 336.968,95.192 Z M338.36,90.328 L334.872,90.328 C334.957333,89.688 335.176,89.2026667 335.528,88.872 C335.88,88.5413333 336.290667,88.376 336.76,88.376 C337.304,88.376 337.706667,88.5493333 337.968,88.896 C338.229333,89.2426667 338.36,89.72 338.36,90.328 L338.36,90.328 Z M343.512,95.192 C343.917333,95.192 344.242667,95.1386667 344.488,95.032 L344.488,95.032 L344.248,93.656 C344.173333,93.6773333 344.117333,93.688 344.08,93.688 L344.08,93.688 L343.96,93.688 C343.864,93.688 343.773333,93.6426667 343.688,93.552 C343.602667,93.4613333 343.56,93.304 343.56,93.08 L343.56,93.08 L343.56,83.704 L341.72,83.704 L341.72,92.984 C341.72,93.6666667 341.853333,94.2053333 342.12,94.6 C342.386667,94.9946667 342.850667,95.192 343.512,95.192 Z" id="Cancel" fill="#FFFFFF" fill-rule="nonzero"></path>
    </g>
</svg>