<svg id="Layer_1" data-name="Layer 1" xmlns="http://www.w3.org/2000/svg" viewBox="0 0 480 240"><defs><style>.cls-1{fill:#db0022;}.cls-2{fill:#f5f5f5;}.cls-3{fill:#4b4b4b;}</style></defs><rect class="cls-1" width="6" height="240"/><rect class="cls-2" x="6" width="474" height="240"/><path class="cls-1" d="M33,10.15a15.65,15.65,0,1,0,15.7,15.6A15.73,15.73,0,0,0,33,10.15Z"/><rect class="cls-2" x="23" y="24.16" width="20" height="3.3" transform="translate(-8.58 30.9) rotate(-45)"/><rect class="cls-2" x="31.29" y="15.73" width="3.3" height="20" transform="translate(-8.55 30.83) rotate(-45)"/><path class="cls-3" d="M61.74,57.84,59.52,47.35H60.9L62,53.06c.1.58.2,1.14.3,1.7s.21,1.12.31,1.69h.06c.12-.57.24-1.14.37-1.7s.25-1.12.37-1.69l1.45-5.71h1.22l1.45,5.71.39,1.68c.13.57.26,1.14.38,1.71h.07c.09-.57.19-1.14.28-1.7s.2-1.12.31-1.69l1.1-5.71h1.28L69.17,57.84h-1.6L66,51.53c-.09-.41-.18-.81-.26-1.2s-.16-.78-.25-1.19h-.06c-.09.41-.18.8-.27,1.19s-.18.79-.26,1.2l-1.55,6.31Z"/><path class="cls-3" d="M73.17,57.84V47.35h6v1.12H74.49v3.29h4V52.9h-4v3.81h4.89v1.13Z"/><path class="cls-3" d="M88.53,58A4.54,4.54,0,0,1,87,57.8a2.93,2.93,0,0,1-1.2-.76,3.72,3.72,0,0,1-.79-1.4,6.89,6.89,0,0,1-.29-2.13V47.35h1.33v6.19a5.46,5.46,0,0,0,.19,1.58,2.84,2.84,0,0,0,.52,1,1.92,1.92,0,0,0,.78.55,2.82,2.82,0,0,0,1.93,0,2,2,0,0,0,.79-.55,2.69,2.69,0,0,0,.52-1,5.43,5.43,0,0,0,.2-1.58V47.35h1.28v6.16A6.89,6.89,0,0,1,92,55.64a3.86,3.86,0,0,1-.79,1.4A3,3,0,0,1,90,57.8,4.52,4.52,0,0,1,88.53,58Z"/><path class="cls-3" d="M97.87,58a5,5,0,0,1-2.05-.42,5.1,5.1,0,0,1-1.63-1.14l.8-.92a4.37,4.37,0,0,0,1.32.95,3.65,3.65,0,0,0,1.58.36,2.49,2.49,0,0,0,1.61-.47,1.65,1.65,0,0,0,.44-1.92,1.35,1.35,0,0,0-.37-.48,2.18,2.18,0,0,0-.55-.36l-.69-.34-1.5-.66a5.29,5.29,0,0,1-.75-.38,3.05,3.05,0,0,1-.69-.54,2.86,2.86,0,0,1-.5-.76,2.73,2.73,0,0,1-.19-1,2.43,2.43,0,0,1,.25-1.1,2.71,2.71,0,0,1,.69-.89,3.2,3.2,0,0,1,1-.59,4.25,4.25,0,0,1,1.32-.2,4.17,4.17,0,0,1,1.74.36,4.43,4.43,0,0,1,1.36.93l-.72.87a3.59,3.59,0,0,0-1.06-.73A3.11,3.11,0,0,0,98,48.32a2.3,2.3,0,0,0-1.42.41,1.33,1.33,0,0,0-.53,1.13,1.3,1.3,0,0,0,.15.65,1.62,1.62,0,0,0,.41.46,2.65,2.65,0,0,0,.56.35,4.91,4.91,0,0,0,.62.28l1.49.64a7.56,7.56,0,0,1,.85.44,3.2,3.2,0,0,1,.68.58,2.29,2.29,0,0,1,.46.77,3,3,0,0,1-.08,2.18,2.76,2.76,0,0,1-.71.95,3.16,3.16,0,0,1-1.12.64A4.35,4.35,0,0,1,97.87,58Z"/><path class="cls-3" d="M103.5,57.84V47.35h6v1.12h-4.72v3.29h4V52.9h-4v3.81h4.88v1.13Z"/><path class="cls-3" d="M117.31,57.84V48.47h-3.17V47.35h7.68v1.12h-3.17v9.37Z"/><path class="cls-3" d="M123.71,57.84V47.35H125v4.4h4.88v-4.4h1.34V57.84h-1.34V52.9H125v4.94Z"/><path class="cls-3" d="M134.14,57.84V47.35h6.05v1.12h-4.72v3.29h4V52.9h-4v3.81h4.88v1.13Z"/><path class="cls-3" d="M145.77,57.84V47.35h3a7.23,7.23,0,0,1,1.6.16,3.25,3.25,0,0,1,1.24.52,2.47,2.47,0,0,1,.8.95,3.22,3.22,0,0,1,.29,1.46,3.4,3.4,0,0,1-.28,1.44,2.69,2.69,0,0,1-.79,1,3.4,3.4,0,0,1-1.22.6,5.6,5.6,0,0,1-1.58.2H147.1v4.16Zm1.33-5.24h1.57a3.32,3.32,0,0,0,2-.52,2,2,0,0,0,.66-1.64,1.72,1.72,0,0,0-.69-1.58,4,4,0,0,0-2.07-.44H147.1Z"/><path class="cls-3" d="M158.7,58a4.14,4.14,0,0,1-1.81-.39,4,4,0,0,1-1.42-1.09,5.1,5.1,0,0,1-.92-1.73,7.38,7.38,0,0,1-.33-2.28,7.27,7.27,0,0,1,.33-2.27,4.91,4.91,0,0,1,.92-1.69,3.79,3.79,0,0,1,1.42-1.06,4.28,4.28,0,0,1,1.81-.37,4.36,4.36,0,0,1,1.82.37,4.13,4.13,0,0,1,1.42,1.07,5,5,0,0,1,.93,1.7,7.19,7.19,0,0,1,.33,2.25,7.38,7.38,0,0,1-.33,2.28,5.12,5.12,0,0,1-.93,1.73,4.07,4.07,0,0,1-1.42,1.09A4.22,4.22,0,0,1,158.7,58Zm0-1.17a2.67,2.67,0,0,0,1.27-.3,2.93,2.93,0,0,0,1-.88,4.38,4.38,0,0,0,.63-1.36,6.51,6.51,0,0,0,.23-1.78,6.36,6.36,0,0,0-.23-1.76,4.1,4.1,0,0,0-.63-1.33,2.91,2.91,0,0,0-1-.84,2.84,2.84,0,0,0-2.54,0,3,3,0,0,0-1,.84,4.1,4.1,0,0,0-.63,1.33,6.37,6.37,0,0,0-.22,1.76,6.52,6.52,0,0,0,.22,1.78,4.38,4.38,0,0,0,.63,1.36,3,3,0,0,0,1,.88A2.67,2.67,0,0,0,158.7,56.87Z"/><path class="cls-3" d="M166.51,57.84l-2.22-10.49h1.37l1.11,5.71c.09.58.19,1.14.3,1.7s.21,1.12.3,1.69h.07c.12-.57.24-1.14.37-1.7s.25-1.12.36-1.69l1.46-5.71h1.22l1.45,5.71c.13.55.26,1.12.39,1.68s.25,1.14.38,1.71h.06c.1-.57.2-1.14.29-1.7s.2-1.12.31-1.69l1.1-5.71h1.28l-2.18,10.49h-1.6l-1.58-6.31c-.1-.41-.18-.81-.26-1.2s-.17-.78-.25-1.19h-.07c-.08.41-.17.8-.26,1.19s-.18.79-.26,1.2l-1.56,6.31Z"/><path class="cls-3" d="M177.93,57.84V47.35h6v1.12h-4.72v3.29h4V52.9h-4v3.81h4.88v1.13Z"/><path class="cls-3" d="M186.37,57.84V47.35h3.28a6.94,6.94,0,0,1,1.48.15,3.14,3.14,0,0,1,1.16.5,2.36,2.36,0,0,1,.76.92,3.12,3.12,0,0,1,.28,1.37,2.93,2.93,0,0,1-.64,2,3.31,3.31,0,0,1-1.73,1l2.67,4.57h-1.5l-2.53-4.43h-1.91v4.43Zm1.32-5.52h1.76a3,3,0,0,0,1.89-.5,1.8,1.8,0,0,0,.66-1.53,1.57,1.57,0,0,0-.66-1.45,3.53,3.53,0,0,0-1.89-.42h-1.76Z"/><path class="cls-3" d="M202.54,58a4.14,4.14,0,0,1-1.81-.39,4,4,0,0,1-1.42-1.09,5.1,5.1,0,0,1-.92-1.73,7.38,7.38,0,0,1-.33-2.28,7.27,7.27,0,0,1,.33-2.27,4.91,4.91,0,0,1,.92-1.69,3.79,3.79,0,0,1,1.42-1.06,4.28,4.28,0,0,1,1.81-.37,4.36,4.36,0,0,1,1.82.37,4.13,4.13,0,0,1,1.42,1.07,5,5,0,0,1,.93,1.7,7.19,7.19,0,0,1,.33,2.25,7.38,7.38,0,0,1-.33,2.28,5.12,5.12,0,0,1-.93,1.73,4.07,4.07,0,0,1-1.42,1.09A4.22,4.22,0,0,1,202.54,58Zm0-1.17a2.67,2.67,0,0,0,1.27-.3,2.93,2.93,0,0,0,1-.88,4.38,4.38,0,0,0,.63-1.36,6.51,6.51,0,0,0,.23-1.78,6.36,6.36,0,0,0-.23-1.76,4.1,4.1,0,0,0-.63-1.33,2.91,2.91,0,0,0-1-.84,2.84,2.84,0,0,0-2.54,0,2.91,2.91,0,0,0-1,.84,4.1,4.1,0,0,0-.63,1.33,6.37,6.37,0,0,0-.22,1.76,6.52,6.52,0,0,0,.22,1.78,4.38,4.38,0,0,0,.63,1.36,2.93,2.93,0,0,0,1,.88A2.67,2.67,0,0,0,202.54,56.87Z"/><path class="cls-3" d="M209.29,57.84V47.35h6.05v1.12h-4.72V52h4v1.12h-4v4.7Z"/><path class="cls-3" d="M220.4,57.84V47.35H223a4.88,4.88,0,0,1,3.7,1.34A5.44,5.44,0,0,1,228,52.55a7.32,7.32,0,0,1-.32,2.23,4.42,4.42,0,0,1-.94,1.66,4,4,0,0,1-1.54,1,5.71,5.71,0,0,1-2.1.36Zm1.32-1.08h1.2a3.37,3.37,0,0,0,2.76-1.11,4.66,4.66,0,0,0,.92-3.1,4.51,4.51,0,0,0-.92-3.06,3.47,3.47,0,0,0-2.76-1.05h-1.2Z"/><path class="cls-3" d="M228.68,57.84l3.56-10.49h1.5l3.55,10.49h-1.42l-1-3.2h-3.83l-1,3.2Zm3.2-5.87-.49,1.6h3.15L234,52c-.19-.58-.37-1.17-.54-1.75s-.34-1.18-.51-1.78h-.07c-.16.6-.32,1.2-.49,1.78S232.08,51.39,231.88,52Z"/><path class="cls-3" d="M240.08,57.84V48.47h-3.17V47.35h7.68v1.12h-3.17v9.37Z"/><path class="cls-3" d="M244.44,57.84,248,47.35h1.5l3.55,10.49h-1.42l-1-3.2h-3.83l-1,3.2ZM247.65,52l-.5,1.6h3.15l-.49-1.6c-.2-.58-.38-1.17-.55-1.75s-.34-1.18-.51-1.78h-.06c-.17.6-.33,1.2-.5,1.78S247.84,51.39,247.65,52Z"/><path class="cls-3" d="M256.35,57.84l3.55-10.49h1.5L265,57.84h-1.43l-1-3.2h-3.82l-1,3.2Zm3.2-5.87-.5,1.6h3.16l-.5-1.6c-.19-.58-.37-1.17-.54-1.75s-.35-1.18-.52-1.78h-.06c-.16.6-.33,1.2-.5,1.78S259.74,51.39,259.55,52Z"/><path class="cls-3" d="M266.45,57.84V47.35h1.37l3.79,6.59,1.14,2.18h.06c0-.54-.06-1.09-.1-1.66s-.06-1.13-.06-1.69V47.35h1.27V57.84h-1.38l-3.81-6.6-1.13-2.16h-.07q.08.8.12,1.62c0,.55.06,1.1.06,1.66v5.48Z"/><path class="cls-3" d="M276.8,57.84V47.35h2.62a4.88,4.88,0,0,1,3.7,1.34,5.44,5.44,0,0,1,1.26,3.86,7.32,7.32,0,0,1-.32,2.23,4.42,4.42,0,0,1-.94,1.66,4,4,0,0,1-1.54,1,5.71,5.71,0,0,1-2.1.36Zm1.32-1.08h1.2a3.37,3.37,0,0,0,2.76-1.11,4.66,4.66,0,0,0,.93-3.1,4.51,4.51,0,0,0-.93-3.06,3.47,3.47,0,0,0-2.76-1.05h-1.2Z"/><path class="cls-3" d="M288.44,57.84,292,47.35h1.5l3.55,10.49h-1.42l-1-3.2h-3.83l-1,3.2ZM291.65,52l-.5,1.6h3.15l-.49-1.6c-.2-.58-.38-1.17-.55-1.75s-.34-1.18-.51-1.78h-.06c-.17.6-.33,1.2-.5,1.78S291.84,51.39,291.65,52Z"/><path class="cls-3" d="M298.54,57.84V47.35h2.63a4.84,4.84,0,0,1,3.69,1.34,5.44,5.44,0,0,1,1.27,3.86,7.32,7.32,0,0,1-.32,2.23,4.44,4.44,0,0,1-.95,1.66,4,4,0,0,1-1.54,1,5.61,5.61,0,0,1-2.09.36Zm1.33-1.08h1.2a3.37,3.37,0,0,0,2.76-1.11,4.72,4.72,0,0,0,.92-3.1,4.57,4.57,0,0,0-.92-3.06,3.47,3.47,0,0,0-2.76-1.05h-1.2Z"/><path class="cls-3" d="M310.14,57.84l-3.36-10.49h1.42L309.88,53c.2.63.36,1.21.51,1.75s.32,1.11.52,1.72H311c.19-.61.37-1.19.51-1.72s.32-1.12.5-1.75l1.68-5.66H315l-3.33,10.49Z"/><path class="cls-3" d="M314.85,57.84l3.55-10.49h1.5l3.55,10.49H322l-1-3.2h-3.83l-1,3.2Zm3.2-5.87-.5,1.6h3.15l-.49-1.6c-.2-.58-.38-1.17-.55-1.75s-.34-1.18-.51-1.78h-.06c-.16.6-.33,1.2-.5,1.78S318.24,51.39,318.05,52Z"/><path class="cls-3" d="M324.94,57.84V47.35h1.38l3.79,6.59,1.14,2.18h.06c0-.54-.07-1.09-.1-1.66s-.06-1.13-.06-1.69V47.35h1.26V57.84H331l-3.81-6.6-1.14-2.16H326q.06.8.12,1.62c0,.55.06,1.1.06,1.66v5.48Z"/><path class="cls-3" d="M339.26,58a4.52,4.52,0,0,1-1.82-.37A4.12,4.12,0,0,1,336,56.6a4.89,4.89,0,0,1-1-1.71,7.07,7.07,0,0,1-.34-2.29,6.78,6.78,0,0,1,.35-2.28,5.09,5.09,0,0,1,1-1.71,4.31,4.31,0,0,1,1.47-1.08,4.58,4.58,0,0,1,1.86-.37,3.54,3.54,0,0,1,1.69.39,4.48,4.48,0,0,1,1.19.9l-.72.87a3.42,3.42,0,0,0-.94-.72,2.62,2.62,0,0,0-1.2-.28,3,3,0,0,0-1.36.3,2.85,2.85,0,0,0-1,.85,4.06,4.06,0,0,0-.67,1.33,6.43,6.43,0,0,0-.23,1.77,6.51,6.51,0,0,0,.23,1.78,4.24,4.24,0,0,0,.65,1.35,3,3,0,0,0,1,.87,3,3,0,0,0,1.35.3,2.85,2.85,0,0,0,1.34-.31,4,4,0,0,0,1.09-.88l.74.84a4.81,4.81,0,0,1-1.41,1.12A4,4,0,0,1,339.26,58Z"/><path class="cls-3" d="M344.43,57.84V47.35h6.05v1.12h-4.72v3.29h4V52.9h-4v3.81h4.88v1.13Z"/><path class="cls-3" d="M352.86,57.84V47.35h2.62a4.85,4.85,0,0,1,3.7,1.34,5.44,5.44,0,0,1,1.26,3.86,7,7,0,0,1-.32,2.23,4.29,4.29,0,0,1-.94,1.66,4,4,0,0,1-1.54,1,5.61,5.61,0,0,1-2.09.36Zm1.33-1.08h1.2a3.4,3.4,0,0,0,2.76-1.11,4.72,4.72,0,0,0,.92-3.1,4.57,4.57,0,0,0-.92-3.06,3.49,3.49,0,0,0-2.76-1.05h-1.2Z"/><path class="cls-3" d="M364.51,57.84l3.55-10.49h1.5l3.56,10.49h-1.43l-1-3.2h-3.82l-1,3.2Zm3.2-5.87-.5,1.6h3.15l-.49-1.6c-.19-.58-.38-1.17-.55-1.75s-.34-1.18-.51-1.78h-.06c-.16.6-.33,1.2-.5,1.78S367.9,51.39,367.71,52Z"/><path class="cls-3" d="M374.6,57.84V47.35H376l3.79,6.59,1.14,2.18H381c0-.54-.06-1.09-.1-1.66s-.06-1.13-.06-1.69V47.35h1.27V57.84H380.7l-3.81-6.6-1.13-2.16h-.07q.06.8.12,1.62c0,.55.06,1.1.06,1.66v5.48Z"/><path class="cls-3" d="M383.56,57.84l3.56-10.49h1.5l3.55,10.49h-1.42l-1-3.2h-3.83l-1,3.2Zm3.2-5.87-.49,1.6h3.15l-.5-1.6c-.19-.58-.37-1.17-.54-1.75s-.34-1.18-.51-1.78h-.07c-.16.6-.32,1.2-.49,1.78S387,51.39,386.76,52Z"/><path class="cls-3" d="M393.66,57.84V47.35H395v9.36h4.59v1.13Z"/><path class="cls-3" d="M401.92,57.84V53.78l-3.16-6.43h1.43l1.36,3c.17.38.33.76.49,1.13s.33.76.52,1.16h.06c.18-.4.36-.78.54-1.16s.36-.75.52-1.13l1.34-3h1.39l-3.15,6.43v4.06Z"/><path class="cls-3" d="M409.79,57.84V48.47h-3.17V47.35h7.68v1.12h-3.17v9.37Z"/><path class="cls-3" d="M416.19,57.84V47.35h1.33V57.84Z"/><path class="cls-3" d="M424.36,58a4.55,4.55,0,0,1-1.82-.37,4.21,4.21,0,0,1-1.45-1.07,4.89,4.89,0,0,1-1-1.71,7.74,7.74,0,0,1,0-4.57,5.11,5.11,0,0,1,1-1.71,4.13,4.13,0,0,1,1.47-1.08,4.5,4.5,0,0,1,1.85-.37,3.51,3.51,0,0,1,1.69.39,4.18,4.18,0,0,1,1.19.9l-.72.87a3.27,3.27,0,0,0-.94-.72,2.59,2.59,0,0,0-1.2-.28,3,3,0,0,0-1.36.3,2.94,2.94,0,0,0-1,.85,3.86,3.86,0,0,0-.66,1.33,6.06,6.06,0,0,0-.24,1.77,6.13,6.13,0,0,0,.24,1.78A4.23,4.23,0,0,0,422,55.7a3,3,0,0,0,1,.87,3,3,0,0,0,1.35.3,2.92,2.92,0,0,0,1.35-.31,4.14,4.14,0,0,0,1.08-.88l.74.84a4.81,4.81,0,0,1-1.41,1.12A4,4,0,0,1,424.36,58Z"/><path class="cls-3" d="M432.06,58a5,5,0,0,1-2.05-.42,5.1,5.1,0,0,1-1.63-1.14l.8-.92a4.37,4.37,0,0,0,1.32.95,3.65,3.65,0,0,0,1.58.36,2.49,2.49,0,0,0,1.61-.47,1.65,1.65,0,0,0,.44-1.92,1.35,1.35,0,0,0-.37-.48,2,2,0,0,0-.55-.36l-.69-.34-1.5-.66a5.29,5.29,0,0,1-.75-.38,3.05,3.05,0,0,1-.69-.54,2.86,2.86,0,0,1-.5-.76,2.73,2.73,0,0,1-.19-1,2.57,2.57,0,0,1,.25-1.1,2.71,2.71,0,0,1,.69-.89,3.2,3.2,0,0,1,1-.59,4.25,4.25,0,0,1,1.32-.2,4.17,4.17,0,0,1,1.74.36,4.31,4.31,0,0,1,1.36.93l-.72.87a3.59,3.59,0,0,0-1.06-.73,3.11,3.11,0,0,0-1.32-.27,2.3,2.3,0,0,0-1.42.41,1.33,1.33,0,0,0-.53,1.13,1.3,1.3,0,0,0,.15.65,1.62,1.62,0,0,0,.41.46,2.65,2.65,0,0,0,.56.35,4.91,4.91,0,0,0,.62.28l1.49.64a7.56,7.56,0,0,1,.85.44,3.2,3.2,0,0,1,.68.58,2.29,2.29,0,0,1,.46.77,2.85,2.85,0,0,1,.17,1,2.7,2.7,0,0,1-.25,1.17,2.64,2.64,0,0,1-.71.95,3.16,3.16,0,0,1-1.12.64A4.35,4.35,0,0,1,432.06,58Z"/><path class="cls-3" d="M62.77,81.84V72.47H59.6V71.35h7.68v1.12H64.11v9.37Z"/><path class="cls-3" d="M72.65,82a4.17,4.17,0,0,1-1.81-.39,4.07,4.07,0,0,1-1.42-1.09,5.28,5.28,0,0,1-.92-1.73,7.39,7.39,0,0,1-.32-2.28,7.28,7.28,0,0,1,.32-2.27,5.08,5.08,0,0,1,.92-1.69,3.87,3.87,0,0,1,1.42-1.06,4.64,4.64,0,0,1,3.63,0A4.17,4.17,0,0,1,75.9,72.6a5,5,0,0,1,.92,1.7,7.19,7.19,0,0,1,.33,2.25,7.38,7.38,0,0,1-.33,2.28,5.1,5.1,0,0,1-.92,1.73,4.1,4.1,0,0,1-1.43,1.09A4.18,4.18,0,0,1,72.65,82Zm0-1.17a2.72,2.72,0,0,0,1.28-.3,2.9,2.9,0,0,0,1-.88,4.18,4.18,0,0,0,.64-1.36,6.94,6.94,0,0,0,.22-1.78,6.78,6.78,0,0,0-.22-1.76,3.92,3.92,0,0,0-.64-1.33,2.88,2.88,0,0,0-1-.84,2.86,2.86,0,0,0-2.55,0,2.88,2.88,0,0,0-1,.84,4.12,4.12,0,0,0-.64,1.33,6.78,6.78,0,0,0-.22,1.76,6.94,6.94,0,0,0,.22,1.78,4.39,4.39,0,0,0,.64,1.36,2.9,2.9,0,0,0,1,.88A2.7,2.7,0,0,0,72.65,80.87Z"/><path class="cls-3" d="M82.61,81.84V71.35h1.33v4.4h4.88v-4.4h1.34V81.84H88.82V76.9H83.94v4.94Z"/><path class="cls-3" d="M93,81.84V71.35h6v1.12H94.37v3.29h4V76.9h-4v3.81h4.88v1.13Z"/><path class="cls-3" d="M101.47,81.84V71.35h1.33v9.36h4.59v1.13Z"/><path class="cls-3" d="M109.25,81.84V71.35h3a7.38,7.38,0,0,1,1.61.16,3.39,3.39,0,0,1,1.24.52,2.56,2.56,0,0,1,.8,1,3.89,3.89,0,0,1,0,2.9,2.59,2.59,0,0,1-.79,1,3.4,3.4,0,0,1-1.22.6,5.6,5.6,0,0,1-1.58.2h-1.73v4.16Zm1.32-5.24h1.57a3.32,3.32,0,0,0,2-.52,2,2,0,0,0,.67-1.64,1.73,1.73,0,0,0-.7-1.58,3.93,3.93,0,0,0-2.07-.44h-1.51Z"/><path class="cls-3" d="M125.37,82a4.17,4.17,0,0,1-1.81-.39,4.07,4.07,0,0,1-1.42-1.09,5.28,5.28,0,0,1-.92-1.73,7.38,7.38,0,0,1-.33-2.28,7.27,7.27,0,0,1,.33-2.27,5.08,5.08,0,0,1,.92-1.69,3.87,3.87,0,0,1,1.42-1.06,4.64,4.64,0,0,1,3.63,0,4.13,4.13,0,0,1,1.42,1.07,5,5,0,0,1,.93,1.7,7.19,7.19,0,0,1,.33,2.25,7.38,7.38,0,0,1-.33,2.28,5.12,5.12,0,0,1-.93,1.73,4.07,4.07,0,0,1-1.42,1.09A4.18,4.18,0,0,1,125.37,82Zm0-1.17a2.72,2.72,0,0,0,1.28-.3,3,3,0,0,0,1-.88,4.38,4.38,0,0,0,.63-1.36,6.51,6.51,0,0,0,.23-1.78,6.36,6.36,0,0,0-.23-1.76,4.1,4.1,0,0,0-.63-1.33,3,3,0,0,0-1-.84,2.72,2.72,0,0,0-1.28-.3,2.67,2.67,0,0,0-1.27.3,2.88,2.88,0,0,0-1,.84,3.92,3.92,0,0,0-.64,1.33,6.37,6.37,0,0,0-.22,1.76,6.52,6.52,0,0,0,.22,1.78,4.18,4.18,0,0,0,.64,1.36,2.9,2.9,0,0,0,1,.88A2.67,2.67,0,0,0,125.37,80.87Z"/><path class="cls-3" d="M135.85,82a4.52,4.52,0,0,1-1.49-.24,2.8,2.8,0,0,1-1.2-.76,3.72,3.72,0,0,1-.79-1.4,6.61,6.61,0,0,1-.29-2.13V71.35h1.33v6.19a5.46,5.46,0,0,0,.19,1.58,2.84,2.84,0,0,0,.52,1,2,2,0,0,0,.77.55,2.77,2.77,0,0,0,1,.17,2.8,2.8,0,0,0,1-.17,1.92,1.92,0,0,0,.78-.55,2.7,2.7,0,0,0,.53-1,5.46,5.46,0,0,0,.19-1.58V71.35h1.28v6.16a6.92,6.92,0,0,1-.28,2.13,3.87,3.87,0,0,1-.8,1.4,2.83,2.83,0,0,1-1.19.76A4.48,4.48,0,0,1,135.85,82Z"/><path class="cls-3" d="M142.45,81.84V71.35h3.28a6.94,6.94,0,0,1,1.48.15,3.14,3.14,0,0,1,1.16.5,2.36,2.36,0,0,1,.76.92,3.12,3.12,0,0,1,.28,1.37,2.93,2.93,0,0,1-.64,2,3.31,3.31,0,0,1-1.73,1l2.67,4.57h-1.5l-2.53-4.43h-1.91v4.43Zm1.32-5.52h1.76a3,3,0,0,0,1.89-.5,1.8,1.8,0,0,0,.66-1.53,1.57,1.57,0,0,0-.66-1.45,3.53,3.53,0,0,0-1.89-.42h-1.76Z"/><path class="cls-3" d="M158.72,82a4.6,4.6,0,0,1-1.83-.37,4.31,4.31,0,0,1-1.45-1.07,4.89,4.89,0,0,1-1-1.71,7.35,7.35,0,0,1-.34-2.29,7,7,0,0,1,.35-2.28,5.11,5.11,0,0,1,1-1.71,4.31,4.31,0,0,1,1.47-1.08,4.58,4.58,0,0,1,1.86-.37,3.47,3.47,0,0,1,1.68.39,4.38,4.38,0,0,1,1.2.9l-.72.87a3.46,3.46,0,0,0-1-.72,2.59,2.59,0,0,0-1.2-.28,2.95,2.95,0,0,0-2.4,1.15,4,4,0,0,0-.66,1.33,6.07,6.07,0,0,0-.23,1.77,6.14,6.14,0,0,0,.23,1.78,4,4,0,0,0,.65,1.35,2.91,2.91,0,0,0,1,.87,3,3,0,0,0,1.36.3,2.85,2.85,0,0,0,1.34-.31,4.18,4.18,0,0,0,1.09-.88l.73.84a4.56,4.56,0,0,1-1.41,1.12A4,4,0,0,1,158.72,82Z"/><path class="cls-3" d="M167.39,82a4.62,4.62,0,0,1-1.5-.24,2.93,2.93,0,0,1-1.2-.76,3.86,3.86,0,0,1-.79-1.4,6.89,6.89,0,0,1-.29-2.13V71.35h1.33v6.19a5.83,5.83,0,0,0,.19,1.58,2.84,2.84,0,0,0,.52,1,1.92,1.92,0,0,0,.78.55,2.82,2.82,0,0,0,1.93,0,2,2,0,0,0,.79-.55,2.85,2.85,0,0,0,.53-1,5.46,5.46,0,0,0,.19-1.58V71.35h1.28v6.16a6.89,6.89,0,0,1-.29,2.13,3.86,3.86,0,0,1-.79,1.4,2.89,2.89,0,0,1-1.19.76A4.52,4.52,0,0,1,167.39,82Z"/><path class="cls-3" d="M176.73,82a4.93,4.93,0,0,1-2-.42,5.14,5.14,0,0,1-1.64-1.14l.8-.92a4.63,4.63,0,0,0,1.32,1,3.68,3.68,0,0,0,1.58.36,2.54,2.54,0,0,0,1.62-.47,1.7,1.7,0,0,0,.44-1.92,1.62,1.62,0,0,0-.37-.48,2.38,2.38,0,0,0-.55-.36l-.69-.34-1.51-.66a6.62,6.62,0,0,1-.75-.38,3.57,3.57,0,0,1-.69-.54,2.83,2.83,0,0,1-.49-.76,2.54,2.54,0,0,1-.2-1,2.57,2.57,0,0,1,.25-1.1,2.85,2.85,0,0,1,.69-.89,3.2,3.2,0,0,1,1-.59,4.25,4.25,0,0,1,1.32-.2,4.17,4.17,0,0,1,1.74.36,4.48,4.48,0,0,1,1.37.93l-.72.87a3.63,3.63,0,0,0-1.07-.73,3.11,3.11,0,0,0-1.32-.27,2.25,2.25,0,0,0-1.41.41,1.34,1.34,0,0,0-.54,1.13,1.3,1.3,0,0,0,.15.65,1.62,1.62,0,0,0,.41.46,2.93,2.93,0,0,0,.56.35,4.91,4.91,0,0,0,.62.28l1.49.64a7.56,7.56,0,0,1,.85.44,3.27,3.27,0,0,1,.69.58,2.44,2.44,0,0,1,.45.77,2.64,2.64,0,0,1,.17,1,2.7,2.7,0,0,1-.25,1.17,2.64,2.64,0,0,1-.71,1,3.16,3.16,0,0,1-1.12.64A4.31,4.31,0,0,1,176.73,82Z"/><path class="cls-3" d="M184.22,81.84V72.47h-3.17V71.35h7.68v1.12h-3.16v9.37Z"/><path class="cls-3" d="M194.11,82a4.22,4.22,0,0,1-1.82-.39,3.94,3.94,0,0,1-1.41-1.09,5.1,5.1,0,0,1-.92-1.73,7.38,7.38,0,0,1-.33-2.28,7.27,7.27,0,0,1,.33-2.27,4.91,4.91,0,0,1,.92-1.69,3.76,3.76,0,0,1,1.41-1.06,4.66,4.66,0,0,1,3.64,0,4.13,4.13,0,0,1,1.42,1.07,5,5,0,0,1,.93,1.7,7.2,7.2,0,0,1,.32,2.25,7.39,7.39,0,0,1-.32,2.28,5.12,5.12,0,0,1-.93,1.73,4.07,4.07,0,0,1-1.42,1.09A4.22,4.22,0,0,1,194.11,82Zm0-1.17a2.67,2.67,0,0,0,1.27-.3,2.93,2.93,0,0,0,1-.88,4.38,4.38,0,0,0,.63-1.36,6.52,6.52,0,0,0,.22-1.78,6.37,6.37,0,0,0-.22-1.76,4.1,4.1,0,0,0-.63-1.33,2.91,2.91,0,0,0-1-.84,2.84,2.84,0,0,0-2.54,0,2.91,2.91,0,0,0-1,.84,4.1,4.1,0,0,0-.63,1.33,6.37,6.37,0,0,0-.22,1.76,6.52,6.52,0,0,0,.22,1.78,4.38,4.38,0,0,0,.63,1.36,2.93,2.93,0,0,0,1,.88A2.67,2.67,0,0,0,194.11,80.87Z"/><path class="cls-3" d="M200.86,81.84V71.35h1.6l2,5.6c.13.36.25.73.37,1.09s.25.74.38,1.1h.06c.13-.36.25-.73.36-1.1L206,77l2-5.6h1.61V81.84h-1.24V76.07c0-.47,0-1,.06-1.55s.08-1.09.11-1.56h-.06l-.83,2.39-2,5.44h-.88l-2-5.44L202,73h-.07c0,.47.07,1,.11,1.56s.05,1.08.05,1.55v5.77Z"/><path class="cls-3" d="M212.49,81.84V71.35h6v1.12h-4.72v3.29h4V76.9h-4v3.81h4.88v1.13Z"/><path class="cls-3" d="M220.93,81.84V71.35h3.27a7,7,0,0,1,1.49.15,3.14,3.14,0,0,1,1.16.5,2.36,2.36,0,0,1,.76.92,3.12,3.12,0,0,1,.28,1.37,2.89,2.89,0,0,1-.65,2,3.24,3.24,0,0,1-1.72,1l2.67,4.57h-1.5l-2.53-4.43h-1.91v4.43Zm1.32-5.52H224a3,3,0,0,0,1.89-.5,1.8,1.8,0,0,0,.66-1.53,1.57,1.57,0,0,0-.66-1.45,3.53,3.53,0,0,0-1.89-.42h-1.76Z"/><path class="cls-3" d="M232.72,82a5,5,0,0,1-2.05-.42A5.1,5.1,0,0,1,229,80.48l.8-.92a4.37,4.37,0,0,0,1.32,1,3.61,3.61,0,0,0,1.57.36,2.52,2.52,0,0,0,1.62-.47,1.7,1.7,0,0,0,.44-1.92,1.35,1.35,0,0,0-.37-.48,2.18,2.18,0,0,0-.55-.36l-.69-.34-1.5-.66a6,6,0,0,1-.76-.38,3.23,3.23,0,0,1-.68-.54,2.64,2.64,0,0,1-.5-.76,2.54,2.54,0,0,1-.19-1,2.43,2.43,0,0,1,.25-1.1,2.68,2.68,0,0,1,.68-.89,3.31,3.31,0,0,1,1-.59,4.27,4.27,0,0,1,1.33-.2,4.2,4.2,0,0,1,1.74.36,4.43,4.43,0,0,1,1.36.93l-.72.87a3.63,3.63,0,0,0-1.07-.73,3.07,3.07,0,0,0-1.31-.27,2.3,2.3,0,0,0-1.42.41,1.34,1.34,0,0,0-.54,1.13,1.3,1.3,0,0,0,.15.65,1.79,1.79,0,0,0,.41.46,2.93,2.93,0,0,0,.56.35,5,5,0,0,0,.63.28l1.48.64a6.79,6.79,0,0,1,.85.44,3,3,0,0,1,.69.58,2.67,2.67,0,0,1,.46.77,3.1,3.1,0,0,1-.08,2.18,2.79,2.79,0,0,1-.72,1,3.07,3.07,0,0,1-1.12.64A4.25,4.25,0,0,1,232.72,82Z"/><path class="cls-3" d="M241.55,81.84V71.35h1.6l2,5.6c.13.36.26.73.38,1.09s.25.74.38,1.1H246c.13-.36.25-.73.36-1.1s.23-.73.36-1.09l2-5.6h1.61V81.84h-1.25V76.07c0-.47,0-1,.07-1.55s.08-1.09.11-1.56h-.07l-.83,2.39-2,5.44h-.88l-2-5.44L242.65,73h-.06c0,.47.07,1,.1,1.56s.06,1.08.06,1.55v5.77Z"/><path class="cls-3" d="M251.79,81.84l3.55-10.49h1.5l3.56,10.49H259l-1-3.2h-3.82l-1,3.2ZM255,76l-.5,1.6h3.16l-.5-1.6c-.19-.58-.38-1.17-.55-1.75s-.34-1.18-.51-1.78H256c-.16.6-.33,1.2-.5,1.78S255.18,75.39,255,76Z"/><path class="cls-3" d="M261.89,81.84V71.35h1.32v5.26h.05l4.37-5.26h1.5l-3.28,4,3.8,6.49h-1.49L265,76.39l-1.81,2.13v3.32Z"/><path class="cls-3" d="M271.15,81.84V71.35h6.05v1.12h-4.72v3.29h4V76.9h-4v3.81h4.88v1.13Z"/><path class="cls-3" d="M282.78,81.84V71.35h3.12a7.31,7.31,0,0,1,1.46.14,3.48,3.48,0,0,1,1.14.45,2.24,2.24,0,0,1,.74.79,2.54,2.54,0,0,1,.26,1.18,2.62,2.62,0,0,1-.39,1.41,2,2,0,0,1-1.15.88v.06a2.79,2.79,0,0,1,1.56.8,2.42,2.42,0,0,1,.59,1.71,3,3,0,0,1-.29,1.35,2.6,2.6,0,0,1-.82,1,3.65,3.65,0,0,1-1.26.57,6.32,6.32,0,0,1-1.62.19Zm1.33-6h1.55a3.18,3.18,0,0,0,1.94-.46,1.53,1.53,0,0,0,.59-1.27,1.4,1.4,0,0,0-.62-1.29,3.49,3.49,0,0,0-1.85-.39h-1.61Zm0,5h1.82a3.72,3.72,0,0,0,2.11-.51,1.72,1.72,0,0,0,.76-1.56,1.57,1.57,0,0,0-.74-1.43,4.12,4.12,0,0,0-2.13-.45h-1.82Z"/><path class="cls-3" d="M292.19,81.84V71.35h6.05v1.12h-4.72v3.29h4V76.9h-4v3.81h4.88v1.13Z"/><path class="cls-3" d="M302.8,81.84V72.47h-3.17V71.35h7.68v1.12h-3.17v9.37Z"/><path class="cls-3" d="M311.37,81.84V72.47H308.2V71.35h7.68v1.12h-3.16v9.37Z"/><path class="cls-3" d="M317.77,81.84V71.35h6.05v1.12H319.1v3.29h4V76.9h-4v3.81H324v1.13Z"/><path class="cls-3" d="M326.2,81.84V71.35h3.28a6.8,6.8,0,0,1,1.48.15,3.12,3.12,0,0,1,1.17.5,2.36,2.36,0,0,1,.76.92,3.13,3.13,0,0,1,.27,1.37,2.88,2.88,0,0,1-.64,2,3.24,3.24,0,0,1-1.72,1l2.67,4.57H332l-2.52-4.43h-1.91v4.43Zm1.33-5.52h1.76a3,3,0,0,0,1.89-.5,1.8,1.8,0,0,0,.66-1.53,1.57,1.57,0,0,0-.66-1.45,3.53,3.53,0,0,0-1.89-.42h-1.76Z"/><path class="cls-3" d="M334.94,84.57l-.32-.77a2.73,2.73,0,0,0,1.07-.81,1.76,1.76,0,0,0,.37-1.15.34.34,0,0,1-.16,0,1,1,0,0,1-.66-.23A.83.83,0,0,1,335,81a.84.84,0,0,1,.28-.68,1,1,0,0,1,.69-.25,1,1,0,0,1,.81.42,1.87,1.87,0,0,1,.3,1.13,3,3,0,0,1-.56,1.81A3.7,3.7,0,0,1,334.94,84.57Z"/><path class="cls-3" d="M344.67,81.84V72.47H341.5V71.35h7.68v1.12H346v9.37Z"/><path class="cls-3" d="M351.07,81.84V71.35h1.33V81.84Z"/><path class="cls-3" d="M355.28,81.84V71.35h1.6l2,5.6c.13.36.26.73.38,1.09s.25.74.37,1.1h.07c.13-.36.25-.73.36-1.1s.23-.73.36-1.09l2-5.6H364V81.84h-1.25V76.07c0-.47,0-1,.06-1.55s.08-1.09.12-1.56h-.07l-.83,2.39-2,5.44h-.88l-2-5.44L356.38,73h-.06c0,.47.06,1,.1,1.56s.06,1.08.06,1.55v5.77Z"/><path class="cls-3" d="M366.91,81.84V71.35h6v1.12h-4.72v3.29h4V76.9h-4v3.81h4.88v1.13Z"/><path class="cls-3" d="M375.34,81.84V71.35h1.33v9.36h4.59v1.13Z"/><path class="cls-3" d="M383.12,81.84V71.35h1.32V81.84Z"/><path class="cls-3" d="M387.32,81.84V71.35h6.05v1.12h-4.72v3.29h4V76.9h-4v3.81h4.88v1.13Z"/><path class="cls-3" d="M395.76,81.84V71.35H399a6.94,6.94,0,0,1,1.48.15,3.14,3.14,0,0,1,1.16.5,2.36,2.36,0,0,1,.76.92,3,3,0,0,1,.28,1.37,2.93,2.93,0,0,1-.64,2,3.31,3.31,0,0,1-1.73,1L403,81.84h-1.5L399,77.41h-1.91v4.43Zm1.32-5.52h1.76a3,3,0,0,0,1.89-.5,1.8,1.8,0,0,0,.66-1.53,1.57,1.57,0,0,0-.66-1.45,3.51,3.51,0,0,0-1.89-.42h-1.76Z"/><path class="cls-3" d="M60.59,105.84V95.35h2.63a4.84,4.84,0,0,1,3.69,1.34,5.44,5.44,0,0,1,1.27,3.86,7,7,0,0,1-.33,2.23,4.29,4.29,0,0,1-.94,1.66,4,4,0,0,1-1.54,1,5.61,5.61,0,0,1-2.09.36Zm1.33-1.08h1.2a3.37,3.37,0,0,0,2.76-1.11,4.72,4.72,0,0,0,.92-3.1,4.57,4.57,0,0,0-.92-3.06,3.47,3.47,0,0,0-2.76-1h-1.2Z"/><path class="cls-3" d="M70.43,105.84V95.35h6v1.12H71.76v3.29h4v1.14h-4v3.81h4.88v1.13Z"/><path class="cls-3" d="M82.83,106a4.52,4.52,0,0,1-1.82-.37,4.12,4.12,0,0,1-1.45-1.07,4.89,4.89,0,0,1-1-1.71,7.06,7.06,0,0,1-.35-2.29,6.78,6.78,0,0,1,.36-2.28,5.09,5.09,0,0,1,1-1.71,4.31,4.31,0,0,1,1.47-1.08,4.58,4.58,0,0,1,1.86-.37,3.54,3.54,0,0,1,1.69.39,4.48,4.48,0,0,1,1.19.9l-.72.87a3.42,3.42,0,0,0-.94-.72,2.65,2.65,0,0,0-1.2-.28,3,3,0,0,0-1.36.3,2.85,2.85,0,0,0-1,.85,4.06,4.06,0,0,0-.67,1.33,6.43,6.43,0,0,0-.23,1.77,6.51,6.51,0,0,0,.23,1.78,4.24,4.24,0,0,0,.65,1.35,3,3,0,0,0,1,.87,3,3,0,0,0,1.35.3,2.85,2.85,0,0,0,1.34-.31,4,4,0,0,0,1.09-.88l.74.84a4.81,4.81,0,0,1-1.41,1.12A4,4,0,0,1,82.83,106Z"/><path class="cls-3" d="M88,105.84V95.35h6v1.12H89.33v3.29h4v1.14h-4v3.81h4.88v1.13Z"/><path class="cls-3" d="M99.34,106a5,5,0,0,1-2-.42,5.1,5.1,0,0,1-1.63-1.14l.8-.92a4.5,4.5,0,0,0,1.32,1,3.65,3.65,0,0,0,1.58.36,2.49,2.49,0,0,0,1.61-.47,1.65,1.65,0,0,0,.44-1.92,1.44,1.44,0,0,0-.36-.48,2.25,2.25,0,0,0-.56-.36l-.68-.34-1.51-.66a6.62,6.62,0,0,1-.75-.38,3.05,3.05,0,0,1-.69-.54,2.61,2.61,0,0,1-.49-.76,2.54,2.54,0,0,1-.2-1,2.57,2.57,0,0,1,.25-1.1,2.85,2.85,0,0,1,.69-.89,3.2,3.2,0,0,1,1-.59,4.25,4.25,0,0,1,1.32-.2,4.17,4.17,0,0,1,1.74.36,4.31,4.31,0,0,1,1.36.93l-.72.87a3.59,3.59,0,0,0-1.06-.73,3.11,3.11,0,0,0-1.32-.27,2.3,2.3,0,0,0-1.42.41,1.35,1.35,0,0,0-.53,1.13,1.3,1.3,0,0,0,.15.65,1.62,1.62,0,0,0,.41.46,2.93,2.93,0,0,0,.56.35,4.91,4.91,0,0,0,.62.28l1.49.64a7.56,7.56,0,0,1,.85.44,3.54,3.54,0,0,1,.69.58,2.44,2.44,0,0,1,.45.77,2.85,2.85,0,0,1,.17,1,2.7,2.7,0,0,1-.25,1.17,2.64,2.64,0,0,1-.71,1,3.16,3.16,0,0,1-1.12.64A4.31,4.31,0,0,1,99.34,106Z"/><path class="cls-3" d="M105,105.84V95.35h1.33v10.49Z"/><path class="cls-3" d="M113.05,106a4.17,4.17,0,0,1-1.81-.39,4.07,4.07,0,0,1-1.42-1.09,5.28,5.28,0,0,1-.92-1.73,7.38,7.38,0,0,1-.33-2.28,7.27,7.27,0,0,1,.33-2.27,5.08,5.08,0,0,1,.92-1.69,3.87,3.87,0,0,1,1.42-1.06,4.64,4.64,0,0,1,3.63,0,4.13,4.13,0,0,1,1.42,1.07,5,5,0,0,1,.93,1.7,7.19,7.19,0,0,1,.33,2.25,7.38,7.38,0,0,1-.33,2.28,5.12,5.12,0,0,1-.93,1.73,4.07,4.07,0,0,1-1.42,1.09A4.18,4.18,0,0,1,113.05,106Zm0-1.17a2.72,2.72,0,0,0,1.28-.3,3,3,0,0,0,1-.88,4.38,4.38,0,0,0,.63-1.36,6.51,6.51,0,0,0,.23-1.78,6.36,6.36,0,0,0-.23-1.76,4.1,4.1,0,0,0-.63-1.33,3,3,0,0,0-1-.84,2.72,2.72,0,0,0-1.28-.3,2.67,2.67,0,0,0-1.27.3,2.88,2.88,0,0,0-1,.84,3.92,3.92,0,0,0-.64,1.33,6.37,6.37,0,0,0-.22,1.76,6.52,6.52,0,0,0,.22,1.78,4.18,4.18,0,0,0,.64,1.36,2.9,2.9,0,0,0,1,.88A2.67,2.67,0,0,0,113.05,104.87Z"/><path class="cls-3" d="M119.81,105.84V95.35h1.37l3.79,6.59,1.14,2.18h.06c0-.54-.06-1.09-.1-1.66s-.06-1.13-.06-1.69V95.35h1.27v10.49H125.9l-3.81-6.6L121,97.08h-.07q.08.8.12,1.62c0,.55.06,1.1.06,1.66v5.48Z"/><path class="cls-3" d="M133.07,106a5,5,0,0,1-2-.42,5.1,5.1,0,0,1-1.63-1.14l.8-.92a4.37,4.37,0,0,0,1.32,1,3.65,3.65,0,0,0,1.58.36,2.49,2.49,0,0,0,1.61-.47,1.65,1.65,0,0,0,.44-1.92,1.35,1.35,0,0,0-.37-.48,2.18,2.18,0,0,0-.55-.36l-.69-.34-1.5-.66a5.29,5.29,0,0,1-.75-.38,3.05,3.05,0,0,1-.69-.54,2.86,2.86,0,0,1-.5-.76,2.73,2.73,0,0,1-.19-1,2.43,2.43,0,0,1,.25-1.1,2.58,2.58,0,0,1,.69-.89,3.2,3.2,0,0,1,1-.59,4.25,4.25,0,0,1,1.32-.2,4.17,4.17,0,0,1,1.74.36,4.43,4.43,0,0,1,1.36.93l-.72.87a3.59,3.59,0,0,0-1.06-.73,3.11,3.11,0,0,0-1.32-.27,2.3,2.3,0,0,0-1.42.41,1.33,1.33,0,0,0-.53,1.13,1.3,1.3,0,0,0,.15.65,1.48,1.48,0,0,0,.41.46,2.65,2.65,0,0,0,.56.35,4.91,4.91,0,0,0,.62.28l1.49.64a7.56,7.56,0,0,1,.85.44,3.2,3.2,0,0,1,.68.58,2.29,2.29,0,0,1,.46.77,3,3,0,0,1-.08,2.18,2.76,2.76,0,0,1-.71,1,3.25,3.25,0,0,1-1.12.64A4.35,4.35,0,0,1,133.07,106Z"/><path class="cls-3" d="M139.26,106a1,1,0,0,1-.68-.28,1,1,0,0,1-.28-.72,1,1,0,0,1,.28-.74,1,1,0,0,1,1.35,0,1,1,0,0,1,.28.74,1,1,0,0,1-.28.72A1,1,0,0,1,139.26,106Z"/><path class="cls-3" d="M149.76,106a4.22,4.22,0,0,1-1.82-.39,4.07,4.07,0,0,1-1.42-1.09,5.28,5.28,0,0,1-.92-1.73,7.71,7.71,0,0,1-.32-2.28,7.59,7.59,0,0,1,.32-2.27,5.08,5.08,0,0,1,.92-1.69,3.87,3.87,0,0,1,1.42-1.06,4.36,4.36,0,0,1,1.82-.37,4.31,4.31,0,0,1,1.81.37A4.17,4.17,0,0,1,153,96.6a5,5,0,0,1,.93,1.7,7.5,7.5,0,0,1,.32,2.25,7.71,7.71,0,0,1-.32,2.28,5.12,5.12,0,0,1-.93,1.73,4.1,4.1,0,0,1-1.43,1.09A4.17,4.17,0,0,1,149.76,106Zm0-1.17a2.67,2.67,0,0,0,1.27-.3,2.9,2.9,0,0,0,1-.88,4.18,4.18,0,0,0,.64-1.36,6.52,6.52,0,0,0,.22-1.78,6.37,6.37,0,0,0-.22-1.76,3.92,3.92,0,0,0-.64-1.33,2.88,2.88,0,0,0-1-.84,2.67,2.67,0,0,0-1.27-.3,2.72,2.72,0,0,0-1.28.3,3,3,0,0,0-1,.84,4.1,4.1,0,0,0-.63,1.33,6.36,6.36,0,0,0-.23,1.76,6.51,6.51,0,0,0,.23,1.78,4.38,4.38,0,0,0,.63,1.36,3,3,0,0,0,1,.88A2.72,2.72,0,0,0,149.76,104.87Z"/><path class="cls-3" d="M160.24,106a4.54,4.54,0,0,1-1.5-.24,2.93,2.93,0,0,1-1.2-.76,3.72,3.72,0,0,1-.79-1.4,6.89,6.89,0,0,1-.29-2.13V95.35h1.33v6.19a5.46,5.46,0,0,0,.19,1.58,2.84,2.84,0,0,0,.52,1,1.92,1.92,0,0,0,.78.55,2.82,2.82,0,0,0,1.93,0,2,2,0,0,0,.79-.55,2.69,2.69,0,0,0,.52-1,5.43,5.43,0,0,0,.2-1.58V95.35H164v6.16a6.89,6.89,0,0,1-.29,2.13,3.86,3.86,0,0,1-.79,1.4,3,3,0,0,1-1.19.76A4.52,4.52,0,0,1,160.24,106Z"/><path class="cls-3" d="M166.83,105.84V95.35h3.28a6.87,6.87,0,0,1,1.48.15,3.26,3.26,0,0,1,1.17.5,2.44,2.44,0,0,1,.76.92,3.13,3.13,0,0,1,.27,1.37,2.88,2.88,0,0,1-.64,2,3.27,3.27,0,0,1-1.73,1l2.67,4.57h-1.5l-2.53-4.43h-1.9v4.43Zm1.33-5.52h1.76a3,3,0,0,0,1.89-.5,1.82,1.82,0,0,0,.65-1.53,1.59,1.59,0,0,0-.65-1.45,3.53,3.53,0,0,0-1.89-.42h-1.76Z"/><path class="cls-3" d="M179.13,105.84V95.35h1.33v10.49Z"/><path class="cls-3" d="M183.34,105.84V95.35h1.38l3.79,6.59,1.14,2.18h.06c0-.54-.07-1.09-.11-1.66s0-1.13,0-1.69V95.35h1.26v10.49h-1.37l-3.81-6.6-1.14-2.16h-.06l.12,1.62c0,.55,0,1.1,0,1.66v5.48Z"/><path class="cls-3" d="M193.69,105.84V95.35h1.38l3.79,6.59,1.14,2.18h.06c0-.54-.07-1.09-.1-1.66s-.06-1.13-.06-1.69V95.35h1.26v10.49h-1.37L196,99.24l-1.14-2.16h-.06q.06.8.12,1.62c0,.55.06,1.1.06,1.66v5.48Z"/><path class="cls-3" d="M207.92,106a4.18,4.18,0,0,1-1.82-.39,4.07,4.07,0,0,1-1.42-1.09,5.28,5.28,0,0,1-.92-1.73,7.71,7.71,0,0,1-.32-2.28,7.59,7.59,0,0,1,.32-2.27,5.08,5.08,0,0,1,.92-1.69,3.87,3.87,0,0,1,1.42-1.06,4.64,4.64,0,0,1,3.63,0,4.17,4.17,0,0,1,1.43,1.07,4.79,4.79,0,0,1,.92,1.7,7.19,7.19,0,0,1,.33,2.25,7.38,7.38,0,0,1-.33,2.28,4.93,4.93,0,0,1-.92,1.73,4.1,4.1,0,0,1-1.43,1.09A4.17,4.17,0,0,1,207.92,106Zm0-1.17a2.67,2.67,0,0,0,1.27-.3,2.9,2.9,0,0,0,1-.88,4.18,4.18,0,0,0,.64-1.36,6.94,6.94,0,0,0,.22-1.78,6.78,6.78,0,0,0-.22-1.76,3.92,3.92,0,0,0-.64-1.33,2.88,2.88,0,0,0-1-.84,2.67,2.67,0,0,0-1.27-.3,2.72,2.72,0,0,0-1.28.3,3,3,0,0,0-1,.84,4.1,4.1,0,0,0-.63,1.33,6.36,6.36,0,0,0-.23,1.76,6.51,6.51,0,0,0,.23,1.78,4.38,4.38,0,0,0,.63,1.36,3,3,0,0,0,1,.88A2.72,2.72,0,0,0,207.92,104.87Z"/><path class="cls-3" d="M216.43,105.84l-3.36-10.49h1.42l1.68,5.66c.19.63.36,1.21.51,1.75s.31,1.11.52,1.72h.06c.19-.61.36-1.19.51-1.72s.32-1.12.5-1.75L220,95.35h1.36L218,105.84Z"/><path class="cls-3" d="M221.13,105.84l3.55-10.49h1.51l3.55,10.49h-1.42l-1-3.2H223.5l-1,3.2Zm3.2-5.87-.49,1.6H227l-.5-1.6c-.19-.58-.37-1.17-.54-1.75s-.34-1.18-.51-1.78h-.07c-.16.6-.32,1.2-.49,1.78S224.52,99.39,224.33,100Z"/><path class="cls-3" d="M232.52,105.84V96.47h-3.16V95.35H237v1.12h-3.17v9.37Z"/><path class="cls-3" d="M238.93,105.84V95.35h1.32v10.49Z"/><path class="cls-3" d="M245.05,105.84l-3.36-10.49h1.43L244.8,101c.19.63.36,1.21.5,1.75s.32,1.11.52,1.72h.07c.19-.61.36-1.19.51-1.72s.31-1.12.49-1.75l1.68-5.66h1.36l-3.33,10.49Z"/><path class="cls-3" d="M251.37,105.84V95.35h6.05v1.12H252.7v3.29h4v1.14h-4v3.81h4.88v1.13Z"/><path class="cls-3" d="M265.92,106a5,5,0,0,1-2.05-.42,5.1,5.1,0,0,1-1.63-1.14l.8-.92a4.37,4.37,0,0,0,1.32,1,3.61,3.61,0,0,0,1.57.36,2.52,2.52,0,0,0,1.62-.47,1.7,1.7,0,0,0,.44-1.92,1.35,1.35,0,0,0-.37-.48,2.18,2.18,0,0,0-.55-.36l-.69-.34-1.5-.66a6,6,0,0,1-.76-.38,3.23,3.23,0,0,1-.68-.54,2.64,2.64,0,0,1-.5-.76,2.54,2.54,0,0,1-.19-1,2.43,2.43,0,0,1,.25-1.1,2.58,2.58,0,0,1,.69-.89,3.1,3.1,0,0,1,1-.59,4.16,4.16,0,0,1,1.32-.2,4.2,4.2,0,0,1,1.74.36,4.43,4.43,0,0,1,1.36.93l-.72.87a3.63,3.63,0,0,0-1.07-.73,3,3,0,0,0-1.31-.27,2.3,2.3,0,0,0-1.42.41,1.34,1.34,0,0,0-.54,1.13,1.3,1.3,0,0,0,.15.65,1.79,1.79,0,0,0,.41.46,2.93,2.93,0,0,0,.56.35,5,5,0,0,0,.63.28l1.48.64a6.79,6.79,0,0,1,.85.44,3,3,0,0,1,.69.58,2.67,2.67,0,0,1,.46.77,3.1,3.1,0,0,1-.08,2.18,2.79,2.79,0,0,1-.72,1,3.07,3.07,0,0,1-1.12.64A4.25,4.25,0,0,1,265.92,106Z"/><path class="cls-3" d="M275.42,106a4.22,4.22,0,0,1-1.82-.39,4,4,0,0,1-1.41-1.09,5.1,5.1,0,0,1-.92-1.73,7.38,7.38,0,0,1-.33-2.28,7.27,7.27,0,0,1,.33-2.27,4.91,4.91,0,0,1,.92-1.69,3.84,3.84,0,0,1,1.41-1.06,4.66,4.66,0,0,1,3.64,0,4.13,4.13,0,0,1,1.42,1.07,5,5,0,0,1,.93,1.7,7.19,7.19,0,0,1,.33,2.25,7.38,7.38,0,0,1-.33,2.28,5.12,5.12,0,0,1-.93,1.73,4.07,4.07,0,0,1-1.42,1.09A4.22,4.22,0,0,1,275.42,106Zm0-1.17a2.67,2.67,0,0,0,1.27-.3,2.93,2.93,0,0,0,1-.88,4.38,4.38,0,0,0,.63-1.36,6.52,6.52,0,0,0,.22-1.78,6.37,6.37,0,0,0-.22-1.76,4.1,4.1,0,0,0-.63-1.33,2.91,2.91,0,0,0-1-.84,2.84,2.84,0,0,0-2.54,0,2.91,2.91,0,0,0-1,.84,4.1,4.1,0,0,0-.63,1.33,6.37,6.37,0,0,0-.22,1.76,6.52,6.52,0,0,0,.22,1.78,4.38,4.38,0,0,0,.63,1.36,2.93,2.93,0,0,0,1,.88A2.67,2.67,0,0,0,275.42,104.87Z"/><path class="cls-3" d="M282.17,105.84V95.35h1.33v9.36h4.59v1.13Z"/><path class="cls-3" d="M293.21,106a4.52,4.52,0,0,1-1.49-.24,2.8,2.8,0,0,1-1.2-.76,3.87,3.87,0,0,1-.8-1.4,6.92,6.92,0,0,1-.28-2.13V95.35h1.32v6.19a5.43,5.43,0,0,0,.2,1.58,2.69,2.69,0,0,0,.52,1,1.83,1.83,0,0,0,.77.55,2.77,2.77,0,0,0,1,.17,2.84,2.84,0,0,0,1-.17,1.92,1.92,0,0,0,.78-.55,2.7,2.7,0,0,0,.53-1,5.46,5.46,0,0,0,.19-1.58V95.35H297v6.16a6.61,6.61,0,0,1-.29,2.13,3.72,3.72,0,0,1-.79,1.4,2.83,2.83,0,0,1-1.19.76A4.48,4.48,0,0,1,293.21,106Z"/><path class="cls-3" d="M302,105.84V96.47h-3.17V95.35h7.68v1.12h-3.17v9.37Z"/><path class="cls-3" d="M308.38,105.84V95.35h1.33v10.49Z"/><path class="cls-3" d="M316.46,106a4.14,4.14,0,0,1-1.81-.39,4,4,0,0,1-1.42-1.09,5.1,5.1,0,0,1-.92-1.73,7.38,7.38,0,0,1-.33-2.28,7.27,7.27,0,0,1,.33-2.27,4.91,4.91,0,0,1,.92-1.69,3.79,3.79,0,0,1,1.42-1.06,4.28,4.28,0,0,1,1.81-.37,4.36,4.36,0,0,1,1.82.37,4.13,4.13,0,0,1,1.42,1.07,5,5,0,0,1,.93,1.7,7.19,7.19,0,0,1,.33,2.25,7.38,7.38,0,0,1-.33,2.28,5.12,5.12,0,0,1-.93,1.73,4.07,4.07,0,0,1-1.42,1.09A4.22,4.22,0,0,1,316.46,106Zm0-1.17a2.67,2.67,0,0,0,1.27-.3,2.93,2.93,0,0,0,1-.88,4.38,4.38,0,0,0,.63-1.36,6.52,6.52,0,0,0,.22-1.78,6.37,6.37,0,0,0-.22-1.76,4.1,4.1,0,0,0-.63-1.33,2.91,2.91,0,0,0-1-.84,2.84,2.84,0,0,0-2.54,0,2.91,2.91,0,0,0-1,.84,4.1,4.1,0,0,0-.63,1.33,6.37,6.37,0,0,0-.22,1.76,6.52,6.52,0,0,0,.22,1.78,4.38,4.38,0,0,0,.63,1.36,2.93,2.93,0,0,0,1,.88A2.67,2.67,0,0,0,316.46,104.87Z"/><path class="cls-3" d="M323.21,105.84V95.35h1.38l3.79,6.59,1.14,2.18h.06c0-.54-.07-1.09-.1-1.66s-.06-1.13-.06-1.69V95.35h1.27v10.49h-1.38l-3.81-6.6-1.14-2.16h-.06l.12,1.62c0,.55.06,1.1.06,1.66v5.48Z"/><path class="cls-3" d="M336.48,106a5,5,0,0,1-2.05-.42,5.1,5.1,0,0,1-1.63-1.14l.8-.92a4.37,4.37,0,0,0,1.32,1,3.61,3.61,0,0,0,1.57.36,2.52,2.52,0,0,0,1.62-.47,1.7,1.7,0,0,0,.44-1.92,1.35,1.35,0,0,0-.37-.48,2.18,2.18,0,0,0-.55-.36l-.69-.34-1.5-.66a6,6,0,0,1-.76-.38,3.23,3.23,0,0,1-.68-.54,2.64,2.64,0,0,1-.5-.76,2.54,2.54,0,0,1-.19-1,2.43,2.43,0,0,1,.25-1.1,2.68,2.68,0,0,1,.68-.89,3.31,3.31,0,0,1,1-.59,4.44,4.44,0,0,1,3.07.16,4.43,4.43,0,0,1,1.36.93l-.72.87a3.63,3.63,0,0,0-1.07-.73,3.08,3.08,0,0,0-1.32-.27,2.29,2.29,0,0,0-1.41.41,1.34,1.34,0,0,0-.54,1.13,1.3,1.3,0,0,0,.15.65,1.79,1.79,0,0,0,.41.46,2.93,2.93,0,0,0,.56.35,5,5,0,0,0,.63.28l1.48.64a6.79,6.79,0,0,1,.85.44,3,3,0,0,1,.69.58,2.67,2.67,0,0,1,.46.77,3.1,3.1,0,0,1-.08,2.18,2.79,2.79,0,0,1-.72,1,3.16,3.16,0,0,1-1.12.64A4.25,4.25,0,0,1,336.48,106Z"/><path class="cls-3" d="M345.31,105.84V95.35h6.05v1.12h-4.72v3.29h4v1.14h-4v3.81h4.88v1.13Z"/><path class="cls-3" d="M353.74,105.84V95.35h1.38l3.79,6.59,1.13,2.18h.07c0-.54-.07-1.09-.11-1.66s-.05-1.13-.05-1.69V95.35h1.26v10.49h-1.37L356,99.24l-1.14-2.16h-.06q.06.8.12,1.62c0,.55.05,1.1.05,1.66v5.48Z"/><path class="cls-3" d="M362.7,105.84l3.55-10.49h1.51l3.55,10.49h-1.43l-1-3.2h-3.82l-1,3.2Zm3.2-5.87-.5,1.6h3.16l-.5-1.6c-.19-.58-.37-1.17-.54-1.75s-.35-1.18-.52-1.78h-.06c-.16.6-.33,1.2-.5,1.78S366.09,99.39,365.9,100Z"/><path class="cls-3" d="M372.8,105.84V95.35h3.12a7.31,7.31,0,0,1,1.46.14,3.67,3.67,0,0,1,1.14.45,2.13,2.13,0,0,1,.73.79,2.42,2.42,0,0,1,.27,1.18,2.55,2.55,0,0,1-.4,1.41,2,2,0,0,1-1.14.88v.06a2.73,2.73,0,0,1,1.55.8,2.37,2.37,0,0,1,.59,1.71,3,3,0,0,1-.28,1.35,2.8,2.8,0,0,1-.82,1,3.65,3.65,0,0,1-1.26.57,6.32,6.32,0,0,1-1.62.19Zm1.32-6h1.56a3.15,3.15,0,0,0,1.93-.46,1.51,1.51,0,0,0,.59-1.27,1.4,1.4,0,0,0-.61-1.29,3.51,3.51,0,0,0-1.85-.39h-1.62Zm0,5H376a3.74,3.74,0,0,0,2.11-.51,1.73,1.73,0,0,0,.75-1.56,1.56,1.56,0,0,0-.73-1.43,4.12,4.12,0,0,0-2.13-.45h-1.83Z"/><path class="cls-3" d="M382.2,105.84V95.35h1.33v9.36h4.59v1.13Z"/><path class="cls-3" d="M390,105.84V95.35h6v1.12h-4.72v3.29h4v1.14h-4v3.81h4.88v1.13Z"/><path class="cls-3" d="M64.46,130a4.17,4.17,0,0,1-1.81-.39,4.07,4.07,0,0,1-1.42-1.09,5.28,5.28,0,0,1-.92-1.73,7.38,7.38,0,0,1-.33-2.28,7.27,7.27,0,0,1,.33-2.27,5.08,5.08,0,0,1,.92-1.69,3.87,3.87,0,0,1,1.42-1.06,4.31,4.31,0,0,1,1.81-.37,4.36,4.36,0,0,1,1.82.37,4.13,4.13,0,0,1,1.42,1.07,5,5,0,0,1,.93,1.7,7.19,7.19,0,0,1,.33,2.25,7.38,7.38,0,0,1-.33,2.28,5.12,5.12,0,0,1-.93,1.73,4.07,4.07,0,0,1-1.42,1.09A4.22,4.22,0,0,1,64.46,130Zm0-1.17a2.65,2.65,0,0,0,1.27-.3,2.93,2.93,0,0,0,1-.88,4.38,4.38,0,0,0,.63-1.36,6.51,6.51,0,0,0,.23-1.78,6.36,6.36,0,0,0-.23-1.76,4.1,4.1,0,0,0-.63-1.33,2.91,2.91,0,0,0-1-.84,2.65,2.65,0,0,0-1.27-.3,2.67,2.67,0,0,0-1.27.3,2.88,2.88,0,0,0-1,.84,3.92,3.92,0,0,0-.64,1.33,6.37,6.37,0,0,0-.22,1.76,6.52,6.52,0,0,0,.22,1.78,4.18,4.18,0,0,0,.64,1.36,2.9,2.9,0,0,0,1,.88A2.67,2.67,0,0,0,64.46,128.87Z"/><path class="cls-3" d="M71.22,129.84V119.35h3.27a7,7,0,0,1,1.49.15,3.14,3.14,0,0,1,1.16.5,2.36,2.36,0,0,1,.76.92,3.12,3.12,0,0,1,.28,1.37,2.89,2.89,0,0,1-.65,2,3.24,3.24,0,0,1-1.72,1l2.67,4.57H77l-2.53-4.43H72.54v4.43Zm1.32-5.52H74.3a3,3,0,0,0,1.89-.5,1.8,1.8,0,0,0,.66-1.53,1.57,1.57,0,0,0-.66-1.45,3.53,3.53,0,0,0-1.89-.42H72.54Z"/><path class="cls-3" d="M84.45,130a5,5,0,0,1-1.92-.37A4.09,4.09,0,0,1,81,128.6a4.92,4.92,0,0,1-1-1.71,7.06,7.06,0,0,1-.35-2.29,6.78,6.78,0,0,1,.36-2.28,5,5,0,0,1,1-1.71,4.35,4.35,0,0,1,1.53-1.08,4.88,4.88,0,0,1,1.93-.37,4,4,0,0,1,1,.11,3.55,3.55,0,0,1,.83.3A4,4,0,0,1,87,120a4.88,4.88,0,0,1,.52.47l-.74.87a3.59,3.59,0,0,0-.92-.71,2.81,2.81,0,0,0-1.33-.29,3.31,3.31,0,0,0-1.44.3,3,3,0,0,0-1.09.85,4.1,4.1,0,0,0-.7,1.33,6.06,6.06,0,0,0-.24,1.77,6.14,6.14,0,0,0,.23,1.78A3.88,3.88,0,0,0,82,127.7a3.09,3.09,0,0,0,1.09.87,3.51,3.51,0,0,0,1.49.3,3.43,3.43,0,0,0,1.07-.17,2.17,2.17,0,0,0,.82-.46v-2.73H84.24V124.4h3.44v4.42a3.94,3.94,0,0,1-1.35.87A4.85,4.85,0,0,1,84.45,130Z"/><path class="cls-3" d="M88.73,129.84l3.56-10.49h1.5l3.55,10.49H95.92l-1-3.2H91.1l-1,3.2Zm3.2-5.87-.49,1.6h3.15l-.5-1.6c-.19-.58-.37-1.17-.54-1.75s-.34-1.18-.51-1.78H93c-.16.6-.32,1.2-.49,1.78S92.13,123.39,91.93,124Z"/><path class="cls-3" d="M98.83,129.84V119.35h1.38l3.79,6.59,1.14,2.18h.06c0-.54-.07-1.09-.1-1.66s-.06-1.13-.06-1.69v-5.42h1.26v10.49h-1.37l-3.81-6.6L100,121.08h-.06l.12,1.62c0,.55.06,1.1.06,1.66v5.48Z"/><path class="cls-3" d="M109.18,129.84V119.35h1.33v10.49Z"/><path class="cls-3" d="M116.3,130a5,5,0,0,1-2-.42,5.1,5.1,0,0,1-1.63-1.14l.8-.92a4.5,4.5,0,0,0,1.32.95,3.65,3.65,0,0,0,1.58.36,2.49,2.49,0,0,0,1.61-.47,1.65,1.65,0,0,0,.44-1.92A1.44,1.44,0,0,0,118,126a2.25,2.25,0,0,0-.56-.36l-.68-.34-1.51-.66a6.62,6.62,0,0,1-.75-.38,3.05,3.05,0,0,1-.69-.54,2.61,2.61,0,0,1-.49-.76,2.54,2.54,0,0,1-.2-1,2.57,2.57,0,0,1,.25-1.1,2.85,2.85,0,0,1,.69-.89,3.2,3.2,0,0,1,1-.59,4.25,4.25,0,0,1,1.32-.2,4.17,4.17,0,0,1,1.74.36,4.31,4.31,0,0,1,1.36.93l-.72.87a3.59,3.59,0,0,0-1.06-.73,3.11,3.11,0,0,0-1.32-.27,2.3,2.3,0,0,0-1.42.41,1.35,1.35,0,0,0-.53,1.13,1.3,1.3,0,0,0,.15.65,1.62,1.62,0,0,0,.41.46,2.93,2.93,0,0,0,.56.35,4.91,4.91,0,0,0,.62.28l1.49.64a7.56,7.56,0,0,1,.85.44,3.54,3.54,0,0,1,.69.58,2.44,2.44,0,0,1,.45.77,2.85,2.85,0,0,1,.17,1,2.7,2.7,0,0,1-.25,1.17,2.64,2.64,0,0,1-.71.95,3.16,3.16,0,0,1-1.12.64A4.31,4.31,0,0,1,116.3,130Z"/><path class="cls-3" d="M120.54,129.84l3.55-10.49h1.51l3.55,10.49h-1.42l-1-3.2h-3.82l-1,3.2Zm3.2-5.87-.49,1.6h3.15l-.5-1.6c-.19-.58-.37-1.17-.54-1.75s-.34-1.18-.51-1.78h-.07c-.16.6-.32,1.2-.49,1.78S123.94,123.39,123.74,124Z"/><path class="cls-3" d="M131.94,129.84v-9.37h-3.17v-1.12h7.68v1.12h-3.17v9.37Z"/><path class="cls-3" d="M138.34,129.84V119.35h1.32v10.49Z"/><path class="cls-3" d="M146.41,130a4.17,4.17,0,0,1-1.81-.39,4.07,4.07,0,0,1-1.42-1.09,5.28,5.28,0,0,1-.92-1.73,7.38,7.38,0,0,1-.33-2.28,7.27,7.27,0,0,1,.33-2.27,5.08,5.08,0,0,1,.92-1.69,3.87,3.87,0,0,1,1.42-1.06,4.64,4.64,0,0,1,3.63,0,4.13,4.13,0,0,1,1.42,1.07,5,5,0,0,1,.93,1.7,7.19,7.19,0,0,1,.33,2.25,7.38,7.38,0,0,1-.33,2.28,5.12,5.12,0,0,1-.93,1.73,4.07,4.07,0,0,1-1.42,1.09A4.18,4.18,0,0,1,146.41,130Zm0-1.17a2.72,2.72,0,0,0,1.28-.3,3,3,0,0,0,1-.88,4.16,4.16,0,0,0,.63-1.36,6.51,6.51,0,0,0,.23-1.78,6.36,6.36,0,0,0-.23-1.76,3.91,3.91,0,0,0-.63-1.33,3,3,0,0,0-1-.84,2.72,2.72,0,0,0-1.28-.3,2.67,2.67,0,0,0-1.27.3,2.88,2.88,0,0,0-1,.84,3.92,3.92,0,0,0-.64,1.33,6.37,6.37,0,0,0-.22,1.76,6.52,6.52,0,0,0,.22,1.78,4.18,4.18,0,0,0,.64,1.36,2.9,2.9,0,0,0,1,.88A2.67,2.67,0,0,0,146.41,128.87Z"/><path class="cls-3" d="M153.17,129.84V119.35h1.37l3.8,6.59,1.13,2.18h.06c0-.54-.06-1.09-.1-1.66s-.05-1.13-.05-1.69v-5.42h1.26v10.49h-1.38l-3.81-6.6-1.13-2.16h-.06q.06.8.12,1.62c0,.55.05,1.1.05,1.66v5.48Z"/><path class="cls-3" d="M166.43,130a5,5,0,0,1-2.05-.42,5.1,5.1,0,0,1-1.63-1.14l.8-.92a4.37,4.37,0,0,0,1.32.95,3.65,3.65,0,0,0,1.58.36,2.49,2.49,0,0,0,1.61-.47,1.65,1.65,0,0,0,.44-1.92,1.35,1.35,0,0,0-.37-.48,2,2,0,0,0-.55-.36l-.68-.34-1.51-.66a6.62,6.62,0,0,1-.75-.38,3.05,3.05,0,0,1-.69-.54,2.86,2.86,0,0,1-.5-.76,2.73,2.73,0,0,1-.19-1,2.57,2.57,0,0,1,.25-1.1,2.71,2.71,0,0,1,.69-.89,3.2,3.2,0,0,1,1-.59,4.25,4.25,0,0,1,1.32-.2,4.17,4.17,0,0,1,1.74.36,4.31,4.31,0,0,1,1.36.93l-.72.87a3.59,3.59,0,0,0-1.06-.73,3.11,3.11,0,0,0-1.32-.27,2.3,2.3,0,0,0-1.42.41,1.33,1.33,0,0,0-.53,1.13,1.3,1.3,0,0,0,.15.65,1.62,1.62,0,0,0,.41.46,2.65,2.65,0,0,0,.56.35,4.91,4.91,0,0,0,.62.28l1.49.64a7.56,7.56,0,0,1,.85.44,3.2,3.2,0,0,1,.68.58,2.29,2.29,0,0,1,.46.77,2.85,2.85,0,0,1,.17,1,2.7,2.7,0,0,1-.25,1.17,2.64,2.64,0,0,1-.71.95,3.16,3.16,0,0,1-1.12.64A4.35,4.35,0,0,1,166.43,130Z"/><path class="cls-3" d="M177.44,129.84v-9.37h-3.17v-1.12H182v1.12h-3.17v9.37Z"/><path class="cls-3" d="M187.33,130a4.18,4.18,0,0,1-1.82-.39,4.07,4.07,0,0,1-1.42-1.09,5.28,5.28,0,0,1-.92-1.73,7.71,7.71,0,0,1-.32-2.28,7.59,7.59,0,0,1,.32-2.27,5.08,5.08,0,0,1,.92-1.69,3.87,3.87,0,0,1,1.42-1.06,4.64,4.64,0,0,1,3.63,0,4.17,4.17,0,0,1,1.43,1.07,4.79,4.79,0,0,1,.92,1.7,7.19,7.19,0,0,1,.33,2.25,7.38,7.38,0,0,1-.33,2.28,4.93,4.93,0,0,1-.92,1.73,4.1,4.1,0,0,1-1.43,1.09A4.17,4.17,0,0,1,187.33,130Zm0-1.17a2.67,2.67,0,0,0,1.27-.3,2.9,2.9,0,0,0,1-.88,4.18,4.18,0,0,0,.64-1.36,6.94,6.94,0,0,0,.22-1.78,6.78,6.78,0,0,0-.22-1.76,3.92,3.92,0,0,0-.64-1.33,2.88,2.88,0,0,0-1-.84,2.67,2.67,0,0,0-1.27-.3,2.72,2.72,0,0,0-1.28.3,3,3,0,0,0-1,.84,4.1,4.1,0,0,0-.63,1.33,6.36,6.36,0,0,0-.23,1.76,6.51,6.51,0,0,0,.23,1.78,4.38,4.38,0,0,0,.63,1.36,3,3,0,0,0,1,.88A2.72,2.72,0,0,0,187.33,128.87Z"/><path class="cls-3" d="M197.28,129.84V119.35h1.6l2,5.6c.13.36.26.73.38,1.09s.25.74.38,1.1h.06c.13-.36.25-.73.36-1.1s.23-.73.36-1.09l2-5.6H206v10.49h-1.25v-5.77c0-.47,0-1,.07-1.55s.08-1.09.11-1.56h-.07l-.83,2.39-2,5.44h-.88l-2-5.44-.83-2.39h-.06c0,.47.07,1,.1,1.56s.06,1.08.06,1.55v5.77Z"/><path class="cls-3" d="M207.52,129.84l3.55-10.49h1.5l3.56,10.49H214.7l-1-3.2h-3.82l-1,3.2Zm3.2-5.87-.5,1.6h3.16l-.5-1.6c-.19-.58-.37-1.17-.54-1.75s-.35-1.18-.52-1.78h-.06c-.16.6-.33,1.2-.5,1.78S210.91,123.39,210.72,124Z"/><path class="cls-3" d="M217.61,129.84V119.35H219l3.79,6.59,1.14,2.18H224c0-.54-.06-1.09-.1-1.66s-.06-1.13-.06-1.69v-5.42h1.27v10.49h-1.38l-3.81-6.6-1.13-2.16h-.07q.06.8.12,1.62c0,.55.06,1.1.06,1.66v5.48Z"/><path class="cls-3" d="M226.57,129.84l3.56-10.49h1.5l3.55,10.49h-1.42l-1-3.2h-3.83l-1,3.2Zm3.2-5.87-.49,1.6h3.15l-.5-1.6c-.19-.58-.37-1.17-.54-1.75s-.34-1.18-.51-1.78h-.07c-.16.6-.32,1.2-.49,1.78S230,123.39,229.77,124Z"/><path class="cls-3" d="M240.64,130a4.93,4.93,0,0,1-1.91-.37,4.21,4.21,0,0,1-1.5-1.07,4.92,4.92,0,0,1-1-1.71,7.06,7.06,0,0,1-.35-2.29,6.78,6.78,0,0,1,.36-2.28,5.15,5.15,0,0,1,1-1.71,4.35,4.35,0,0,1,1.53-1.08,4.88,4.88,0,0,1,1.93-.37,4,4,0,0,1,1,.11,3.55,3.55,0,0,1,.83.3,4,4,0,0,1,.67.41,4.88,4.88,0,0,1,.52.47l-.73.87a3.82,3.82,0,0,0-.93-.71,2.78,2.78,0,0,0-1.33-.29,3.37,3.37,0,0,0-1.44.3,3,3,0,0,0-1.09.85,3.9,3.9,0,0,0-.69,1.33,5.73,5.73,0,0,0-.25,1.77,6.51,6.51,0,0,0,.23,1.78,4.06,4.06,0,0,0,.67,1.35,3.18,3.18,0,0,0,1.09.87,3.52,3.52,0,0,0,1.5.3,3.41,3.41,0,0,0,1.06-.17,2.09,2.09,0,0,0,.82-.46v-2.73h-2.22V124.4h3.44v4.42a4,4,0,0,1-1.34.87A4.93,4.93,0,0,1,240.64,130Z"/><path class="cls-3" d="M246.38,129.84V119.35h6.05v1.12h-4.72v3.29h4v1.14h-4v3.81h4.88v1.13Z"/><path class="cls-3" d="M258,129.84V119.35h3.27a6.8,6.8,0,0,1,1.48.15,3.12,3.12,0,0,1,1.17.5,2.36,2.36,0,0,1,.76.92,3.12,3.12,0,0,1,.28,1.37,2.89,2.89,0,0,1-.65,2,3.24,3.24,0,0,1-1.72,1l2.67,4.57h-1.51l-2.52-4.43h-1.91v4.43Zm1.32-5.52h1.76a3,3,0,0,0,1.89-.5,1.8,1.8,0,0,0,.66-1.53,1.57,1.57,0,0,0-.66-1.45,3.53,3.53,0,0,0-1.89-.42h-1.76Z"/><path class="cls-3" d="M267.12,129.84V119.35h1.33v10.49Z"/><path class="cls-3" d="M274.24,130a5,5,0,0,1-2.05-.42,5.1,5.1,0,0,1-1.63-1.14l.8-.92a4.37,4.37,0,0,0,1.32.95,3.64,3.64,0,0,0,1.57.36,2.5,2.5,0,0,0,1.62-.47,1.55,1.55,0,0,0,.58-1.24,1.52,1.52,0,0,0-.14-.68,1.35,1.35,0,0,0-.37-.48,2.18,2.18,0,0,0-.55-.36l-.69-.34-1.5-.66a5.29,5.29,0,0,1-.75-.38,3.05,3.05,0,0,1-.69-.54,2.86,2.86,0,0,1-.5-.76,2.54,2.54,0,0,1-.19-1,2.43,2.43,0,0,1,.25-1.1A2.58,2.58,0,0,1,272,120a3.2,3.2,0,0,1,1-.59,4.25,4.25,0,0,1,1.32-.2,4.17,4.17,0,0,1,1.74.36,4.43,4.43,0,0,1,1.36.93l-.72.87a3.59,3.59,0,0,0-1.06-.73,3.11,3.11,0,0,0-1.32-.27,2.3,2.3,0,0,0-1.42.41,1.34,1.34,0,0,0-.54,1.13,1.21,1.21,0,0,0,.16.65,1.58,1.58,0,0,0,.4.46,3.27,3.27,0,0,0,.56.35,5,5,0,0,0,.63.28l1.49.64a7.41,7.41,0,0,1,.84.44,3,3,0,0,1,.69.58,2.46,2.46,0,0,1,.46.77,3,3,0,0,1-.08,2.18,2.76,2.76,0,0,1-.71.95,3.25,3.25,0,0,1-1.12.64A4.35,4.35,0,0,1,274.24,130Z"/><path class="cls-3" d="M279.87,129.84V119.35h1.33v5.26h.05l4.36-5.26h1.51l-3.28,4,3.79,6.49h-1.49L283,124.39l-1.81,2.13v3.32Z"/><path class="cls-3" d="M291.9,130a5,5,0,0,1-2-.42,5.1,5.1,0,0,1-1.63-1.14l.8-.92a4.5,4.5,0,0,0,1.32.95,3.65,3.65,0,0,0,1.58.36,2.49,2.49,0,0,0,1.61-.47,1.65,1.65,0,0,0,.44-1.92,1.35,1.35,0,0,0-.37-.48,2,2,0,0,0-.55-.36l-.68-.34-1.51-.66a6.62,6.62,0,0,1-.75-.38,3.05,3.05,0,0,1-.69-.54,2.61,2.61,0,0,1-.49-.76,2.54,2.54,0,0,1-.2-1,2.57,2.57,0,0,1,.25-1.1,2.85,2.85,0,0,1,.69-.89,3.2,3.2,0,0,1,1-.59,4.25,4.25,0,0,1,1.32-.2,4.17,4.17,0,0,1,1.74.36,4.31,4.31,0,0,1,1.36.93l-.72.87a3.59,3.59,0,0,0-1.06-.73,3.11,3.11,0,0,0-1.32-.27,2.3,2.3,0,0,0-1.42.41,1.35,1.35,0,0,0-.53,1.13,1.3,1.3,0,0,0,.15.65,1.62,1.62,0,0,0,.41.46,2.65,2.65,0,0,0,.56.35,4.91,4.91,0,0,0,.62.28l1.49.64a7.56,7.56,0,0,1,.85.44,3.54,3.54,0,0,1,.69.58,2.44,2.44,0,0,1,.45.77,2.85,2.85,0,0,1,.17,1,2.7,2.7,0,0,1-.25,1.17,2.64,2.64,0,0,1-.71.95,3.16,3.16,0,0,1-1.12.64A4.31,4.31,0,0,1,291.9,130Z"/><path class="cls-3" d="M300.73,129.84V119.35h1.33v9.36h4.59v1.13Z"/><path class="cls-3" d="M308.51,129.84V119.35h1.33v10.49Z"/><path class="cls-3" d="M312.72,129.84V119.35h1.33v5.26h0l4.37-5.26H320l-3.28,4,3.79,6.49H319l-3.14-5.45-1.8,2.13v3.32Z"/><path class="cls-3" d="M322,129.84V119.35h6v1.12h-4.72v3.29h4v1.14h-4v3.81h4.88v1.13Z"/><path class="cls-3" d="M333.61,129.84V119.35h1.33v10.49Z"/><path class="cls-3" d="M337.82,129.84V119.35h2.63a4.84,4.84,0,0,1,3.69,1.34,5.44,5.44,0,0,1,1.27,3.86,7.32,7.32,0,0,1-.32,2.23,4.44,4.44,0,0,1-.95,1.66,4,4,0,0,1-1.54,1,5.61,5.61,0,0,1-2.09.36Zm1.33-1.08h1.2a3.37,3.37,0,0,0,2.76-1.11,4.72,4.72,0,0,0,.92-3.1,4.57,4.57,0,0,0-.92-3.06,3.47,3.47,0,0,0-2.76-1h-1.2Z"/><path class="cls-3" d="M347.66,129.84V119.35h6v1.12H349v3.29h4v1.14h-4v3.81h4.88v1.13Z"/><path class="cls-3" d="M356.09,129.84V119.35h1.38l3.79,6.59,1.14,2.18h.06c0-.54-.07-1.09-.1-1.66s-.06-1.13-.06-1.69v-5.42h1.26v10.49h-1.37l-3.81-6.6-1.14-2.16h-.06q.06.8.12,1.62c0,.55.06,1.1.06,1.66v5.48Z"/><path class="cls-3" d="M368.62,129.84v-9.37h-3.17v-1.12h7.68v1.12H370v9.37Z"/><path class="cls-3" d="M375,129.84V119.35h1.33v10.49Z"/><path class="cls-3" d="M381.41,129.84v-9.37h-3.17v-1.12h7.68v1.12h-3.17v9.37Z"/><path class="cls-3" d="M389.28,129.84v-4.06l-3.15-6.43h1.42l1.36,3c.17.38.33.76.49,1.13s.34.76.52,1.16H390c.18-.4.36-.78.54-1.16s.36-.75.52-1.13l1.34-3h1.39l-3.15,6.43v4.06Z"/><path class="cls-3" d="M62.77,153.84v-9.37H59.6v-1.12h7.68v1.12H64.11v9.37Z"/><path class="cls-3" d="M69.17,153.84V143.35h1.32v4.4h4.89v-4.4h1.34v10.49H75.38V148.9H70.49v4.94Z"/><path class="cls-3" d="M79.6,153.84V143.35h6.05v1.12H80.93v3.29h4v1.14h-4v3.81h4.88v1.13Z"/><path class="cls-3" d="M88,153.84V143.35h6v1.12H89.36V148h4v1.12h-4v4.7Z"/><path class="cls-3" d="M98.11,153.84v-9.37H94.94v-1.12h7.68v1.12H99.45v9.37Z"/><path class="cls-3" d="M102.45,156.57l-.32-.77a2.81,2.81,0,0,0,1.07-.81,1.76,1.76,0,0,0,.37-1.15.34.34,0,0,1-.16,0,1,1,0,0,1-.67-.23.86.86,0,0,1-.28-.68.85.85,0,0,1,.29-.68,1,1,0,0,1,.69-.25,1,1,0,0,1,.81.42,2,2,0,0,1,.29,1.13,2.93,2.93,0,0,1-.56,1.81A3.61,3.61,0,0,1,102.45,156.57Z"/><path class="cls-3" d="M110,153.84V143.35h6v1.12h-4.72V148h4v1.12h-4v4.7Z"/><path class="cls-3" d="M117.9,153.84V143.35h3.28a6.8,6.8,0,0,1,1.48.15,3.12,3.12,0,0,1,1.17.5,2.36,2.36,0,0,1,.76.92,3.13,3.13,0,0,1,.27,1.37,2.88,2.88,0,0,1-.64,2,3.24,3.24,0,0,1-1.72,1l2.67,4.57h-1.51l-2.52-4.43h-1.91v4.43Zm1.33-5.52H121a3,3,0,0,0,1.89-.5,1.8,1.8,0,0,0,.66-1.53,1.57,1.57,0,0,0-.66-1.45,3.53,3.53,0,0,0-1.89-.42h-1.76Z"/><path class="cls-3" d="M125.55,153.84l3.55-10.49h1.51l3.55,10.49h-1.43l-1-3.2h-3.82l-1,3.2Zm3.2-5.87-.5,1.6h3.16l-.5-1.6c-.19-.58-.37-1.17-.54-1.75s-.35-1.18-.52-1.78h-.06c-.16.6-.32,1.2-.5,1.78S128.94,147.39,128.75,148Z"/><path class="cls-3" d="M139.13,154a4.52,4.52,0,0,1-1.49-.24,2.8,2.8,0,0,1-1.2-.76,3.72,3.72,0,0,1-.79-1.4,6.61,6.61,0,0,1-.29-2.13v-6.16h1.33v6.19a5.46,5.46,0,0,0,.19,1.58,2.84,2.84,0,0,0,.52,1,2,2,0,0,0,.77.55,2.77,2.77,0,0,0,1,.17,2.8,2.8,0,0,0,1-.17,1.92,1.92,0,0,0,.78-.55,2.7,2.7,0,0,0,.53-1,5.46,5.46,0,0,0,.19-1.58v-6.19h1.28v6.16a6.92,6.92,0,0,1-.28,2.13,3.87,3.87,0,0,1-.8,1.4,2.83,2.83,0,0,1-1.19.76A4.48,4.48,0,0,1,139.13,154Z"/><path class="cls-3" d="M145.73,153.84V143.35h2.62a4.88,4.88,0,0,1,3.7,1.34,5.44,5.44,0,0,1,1.26,3.86,7.32,7.32,0,0,1-.32,2.23,4.42,4.42,0,0,1-.94,1.66,4,4,0,0,1-1.54,1,5.71,5.71,0,0,1-2.1.36Zm1.32-1.08h1.2a3.37,3.37,0,0,0,2.76-1.11,4.66,4.66,0,0,0,.92-3.1,4.51,4.51,0,0,0-.92-3.06,3.47,3.47,0,0,0-2.76-1.05h-1.2Z"/><path class="cls-3" d="M155.2,156.57l-.32-.77A2.81,2.81,0,0,0,156,155a1.76,1.76,0,0,0,.37-1.15.34.34,0,0,1-.16,0,1,1,0,0,1-.67-.23.86.86,0,0,1-.28-.68.85.85,0,0,1,.29-.68,1,1,0,0,1,.69-.25,1,1,0,0,1,.81.42,2,2,0,0,1,.29,1.13,2.93,2.93,0,0,1-.56,1.81A3.61,3.61,0,0,1,155.2,156.57Z"/><path class="cls-3" d="M162.75,153.84V143.35h1.6l2,5.6.37,1.09c.12.37.25.74.38,1.1h.06c.13-.36.25-.73.36-1.1s.23-.73.36-1.09l2-5.6h1.61v10.49h-1.25v-5.77c0-.47,0-1,.07-1.55s.08-1.09.11-1.56h-.06l-.84,2.39-2,5.44h-.88l-2-5.44-.84-2.39h-.06c0,.47.07,1,.1,1.56s.06,1.08.06,1.55v5.77Z"/><path class="cls-3" d="M178.25,154a4.17,4.17,0,0,1-1.81-.39,4.07,4.07,0,0,1-1.42-1.09,5.28,5.28,0,0,1-.92-1.73,7.38,7.38,0,0,1-.33-2.28,7.27,7.27,0,0,1,.33-2.27,5.08,5.08,0,0,1,.92-1.69,3.87,3.87,0,0,1,1.42-1.06,4.64,4.64,0,0,1,3.63,0,4.13,4.13,0,0,1,1.42,1.07,5,5,0,0,1,.93,1.7,7.19,7.19,0,0,1,.33,2.25,7.38,7.38,0,0,1-.33,2.28,5.12,5.12,0,0,1-.93,1.73,4.07,4.07,0,0,1-1.42,1.09A4.18,4.18,0,0,1,178.25,154Zm0-1.17a2.72,2.72,0,0,0,1.28-.3,3,3,0,0,0,1-.88,4.38,4.38,0,0,0,.63-1.36,6.51,6.51,0,0,0,.23-1.78,6.36,6.36,0,0,0-.23-1.76,4.1,4.1,0,0,0-.63-1.33,3,3,0,0,0-1-.84,2.72,2.72,0,0,0-1.28-.3,2.67,2.67,0,0,0-1.27.3,2.88,2.88,0,0,0-1,.84,3.92,3.92,0,0,0-.64,1.33,6.37,6.37,0,0,0-.22,1.76,6.52,6.52,0,0,0,.22,1.78,4.18,4.18,0,0,0,.64,1.36,2.9,2.9,0,0,0,1,.88A2.67,2.67,0,0,0,178.25,152.87Z"/><path class="cls-3" d="M185,153.84V143.35h1.37l3.79,6.59,1.14,2.18h.06c0-.54-.06-1.09-.1-1.66s-.06-1.13-.06-1.69v-5.42h1.27v10.49H191.1l-3.81-6.6-1.13-2.16h-.07q.07.79.12,1.62c0,.55.06,1.1.06,1.66v5.48Z"/><path class="cls-3" d="M195.36,153.84V143.35h6v1.12h-4.72v3.29h4v1.14h-4v3.81h4.88v1.13Z"/><path class="cls-3" d="M205.48,153.84v-4.06l-3.15-6.43h1.43l1.36,3c.17.38.33.76.49,1.13s.33.76.52,1.16h.06c.18-.4.36-.78.54-1.16s.36-.75.52-1.13l1.34-3H210l-3.15,6.43v4.06Z"/><path class="cls-3" d="M214.61,153.84V143.35h1.32v9.36h4.6v1.13Z"/><path class="cls-3" d="M221,153.84l3.55-10.49h1.5l3.56,10.49h-1.43l-1-3.2h-3.82l-1,3.2Zm3.2-5.87-.5,1.6h3.15l-.49-1.6c-.19-.58-.38-1.17-.55-1.75s-.34-1.18-.51-1.78h-.06c-.16.6-.33,1.2-.5,1.78S224.43,147.39,224.24,148Z"/><path class="cls-3" d="M234.62,154a4.52,4.52,0,0,1-1.49-.24,2.8,2.8,0,0,1-1.2-.76,3.87,3.87,0,0,1-.8-1.4,6.92,6.92,0,0,1-.28-2.13v-6.16h1.32v6.19a5.43,5.43,0,0,0,.2,1.58,2.69,2.69,0,0,0,.52,1,1.83,1.83,0,0,0,.77.55,2.77,2.77,0,0,0,1,.17,2.84,2.84,0,0,0,1-.17,1.92,1.92,0,0,0,.78-.55,2.7,2.7,0,0,0,.53-1,5.46,5.46,0,0,0,.19-1.58v-6.19h1.28v6.16a6.61,6.61,0,0,1-.29,2.13,3.72,3.72,0,0,1-.79,1.4,2.83,2.83,0,0,1-1.19.76A4.52,4.52,0,0,1,234.62,154Z"/><path class="cls-3" d="M241.21,153.84V143.35h1.38l3.79,6.59,1.14,2.18h.06c0-.54-.06-1.09-.1-1.66s-.06-1.13-.06-1.69v-5.42h1.27v10.49h-1.38l-3.81-6.6-1.13-2.16h-.07l.12,1.62c0,.55.06,1.1.06,1.66v5.48Z"/><path class="cls-3" d="M251.57,153.84V143.35h2.62a4.88,4.88,0,0,1,3.7,1.34,5.44,5.44,0,0,1,1.26,3.86,7.32,7.32,0,0,1-.32,2.23,4.42,4.42,0,0,1-.94,1.66,4,4,0,0,1-1.54,1,5.71,5.71,0,0,1-2.1.36Zm1.32-1.08h1.2a3.37,3.37,0,0,0,2.76-1.11,4.66,4.66,0,0,0,.92-3.1,4.51,4.51,0,0,0-.92-3.06,3.47,3.47,0,0,0-2.76-1.05h-1.2Z"/><path class="cls-3" d="M261.41,153.84V143.35h6v1.12h-4.72v3.29h4v1.14h-4v3.81h4.88v1.13Z"/><path class="cls-3" d="M269.84,153.84V143.35h3.28a6.94,6.94,0,0,1,1.48.15,3.26,3.26,0,0,1,1.17.5,2.42,2.42,0,0,1,.75.92,3,3,0,0,1,.28,1.37,2.93,2.93,0,0,1-.64,2,3.31,3.31,0,0,1-1.73,1l2.67,4.57h-1.5l-2.53-4.43h-1.91v4.43Zm1.32-5.52h1.77a3,3,0,0,0,1.88-.5,1.8,1.8,0,0,0,.66-1.53,1.57,1.57,0,0,0-.66-1.45,3.47,3.47,0,0,0-1.88-.42h-1.77Z"/><path class="cls-3" d="M278.94,153.84V143.35h1.33v10.49Z"/><path class="cls-3" d="M283.15,153.84V143.35h1.37l3.8,6.59,1.13,2.18h.07c0-.54-.07-1.09-.11-1.66s-.05-1.13-.05-1.69v-5.42h1.26v10.49h-1.38l-3.8-6.6-1.14-2.16h-.06l.12,1.62c0,.55.05,1.1.05,1.66v5.48Z"/><path class="cls-3" d="M297.63,154a4.93,4.93,0,0,1-1.91-.37,4.13,4.13,0,0,1-1.5-1.07,4.92,4.92,0,0,1-1-1.71,7.06,7.06,0,0,1-.35-2.29,6.78,6.78,0,0,1,.36-2.28,5,5,0,0,1,1-1.71,4.35,4.35,0,0,1,1.53-1.08,4.88,4.88,0,0,1,1.93-.37,4,4,0,0,1,1,.11,3.55,3.55,0,0,1,.83.3,4,4,0,0,1,.67.41,4.88,4.88,0,0,1,.52.47l-.74.87a3.59,3.59,0,0,0-.92-.71,2.78,2.78,0,0,0-1.33-.29,3.37,3.37,0,0,0-1.44.3,3,3,0,0,0-1.09.85,3.9,3.9,0,0,0-.69,1.33,5.73,5.73,0,0,0-.25,1.77,6.14,6.14,0,0,0,.23,1.78,3.88,3.88,0,0,0,.67,1.35,3.09,3.09,0,0,0,1.09.87,3.52,3.52,0,0,0,1.5.3,3.41,3.41,0,0,0,1.06-.17,2.17,2.17,0,0,0,.82-.46v-2.73h-2.22V148.4h3.44v4.42a4,4,0,0,1-1.34.87A4.93,4.93,0,0,1,297.63,154Z"/><path class="cls-3" d="M305.18,153.84l3.55-10.49h1.5l3.56,10.49h-1.43l-1-3.2h-3.82l-1,3.2Zm3.2-5.87-.5,1.6H311l-.5-1.6c-.19-.58-.37-1.17-.54-1.75s-.35-1.18-.52-1.78h-.06c-.16.6-.33,1.2-.5,1.78S308.57,147.39,308.38,148Z"/><path class="cls-3" d="M315.28,153.84V143.35h1.37l3.79,6.59,1.14,2.18h.06c0-.54-.06-1.09-.1-1.66s-.06-1.13-.06-1.69v-5.42h1.27v10.49h-1.38l-3.81-6.6-1.13-2.16h-.07q.08.79.12,1.62c0,.55.06,1.1.06,1.66v5.48Z"/><path class="cls-3" d="M325.63,153.84V143.35h2.62a4.88,4.88,0,0,1,3.7,1.34,5.44,5.44,0,0,1,1.26,3.86,7.32,7.32,0,0,1-.32,2.23,4.42,4.42,0,0,1-.94,1.66,4,4,0,0,1-1.54,1,5.69,5.69,0,0,1-2.09.36Zm1.33-1.08h1.2a3.4,3.4,0,0,0,2.76-1.11,4.72,4.72,0,0,0,.92-3.1,4.57,4.57,0,0,0-.92-3.06,3.49,3.49,0,0,0-2.76-1.05H327Z"/><path class="cls-3" d="M340.84,153.84v-9.37h-3.16v-1.12h7.67v1.12h-3.16v9.37Z"/><path class="cls-3" d="M347.24,153.84V143.35h6.05v1.12h-4.72v3.29h4v1.14h-4v3.81h4.88v1.13Z"/><path class="cls-3" d="M355.68,153.84V143.35H359a7,7,0,0,1,1.49.15,3.14,3.14,0,0,1,1.16.5,2.36,2.36,0,0,1,.76.92,3.12,3.12,0,0,1,.28,1.37,2.89,2.89,0,0,1-.65,2,3.24,3.24,0,0,1-1.72,1l2.67,4.57h-1.5l-2.53-4.43H357v4.43Zm1.32-5.52h1.76a3,3,0,0,0,1.89-.5,1.8,1.8,0,0,0,.66-1.53,1.57,1.57,0,0,0-.66-1.45,3.53,3.53,0,0,0-1.89-.42H357Z"/><path class="cls-3" d="M364.78,153.84V143.35h3.28a6.94,6.94,0,0,1,1.48.15,3.26,3.26,0,0,1,1.17.5,2.54,2.54,0,0,1,.76.92,3.13,3.13,0,0,1,.27,1.37,2.93,2.93,0,0,1-.64,2,3.27,3.27,0,0,1-1.73,1l2.67,4.57h-1.5L368,149.41h-1.9v4.43Zm1.33-5.52h1.76a3,3,0,0,0,1.88-.5,1.8,1.8,0,0,0,.66-1.53,1.57,1.57,0,0,0-.66-1.45,3.47,3.47,0,0,0-1.88-.42h-1.76Z"/><path class="cls-3" d="M377.75,154a4.17,4.17,0,0,1-1.81-.39,4.07,4.07,0,0,1-1.42-1.09,5.28,5.28,0,0,1-.92-1.73,7.38,7.38,0,0,1-.33-2.28,7.27,7.27,0,0,1,.33-2.27,5.08,5.08,0,0,1,.92-1.69,3.87,3.87,0,0,1,1.42-1.06,4.64,4.64,0,0,1,3.63,0A4.13,4.13,0,0,1,381,144.6a5,5,0,0,1,.93,1.7,7.19,7.19,0,0,1,.33,2.25,7.38,7.38,0,0,1-.33,2.28,5.12,5.12,0,0,1-.93,1.73,4.07,4.07,0,0,1-1.42,1.09A4.18,4.18,0,0,1,377.75,154Zm0-1.17a2.72,2.72,0,0,0,1.28-.3,3,3,0,0,0,1-.88,4.38,4.38,0,0,0,.63-1.36,6.51,6.51,0,0,0,.23-1.78,6.36,6.36,0,0,0-.23-1.76,4.1,4.1,0,0,0-.63-1.33,3,3,0,0,0-1-.84,2.72,2.72,0,0,0-1.28-.3,2.67,2.67,0,0,0-1.27.3,2.88,2.88,0,0,0-1,.84,3.92,3.92,0,0,0-.64,1.33,6.37,6.37,0,0,0-.22,1.76,6.52,6.52,0,0,0,.22,1.78,4.18,4.18,0,0,0,.64,1.36,2.9,2.9,0,0,0,1,.88A2.67,2.67,0,0,0,377.75,152.87Z"/><path class="cls-3" d="M384.51,153.84V143.35h3.28a6.94,6.94,0,0,1,1.48.15,3.26,3.26,0,0,1,1.17.5,2.42,2.42,0,0,1,.75.92,3,3,0,0,1,.28,1.37,2.93,2.93,0,0,1-.64,2,3.31,3.31,0,0,1-1.73,1l2.67,4.57h-1.5l-2.53-4.43h-1.91v4.43Zm1.32-5.52h1.77a3,3,0,0,0,1.88-.5,1.8,1.8,0,0,0,.66-1.53,1.57,1.57,0,0,0-.66-1.45,3.47,3.47,0,0,0-1.88-.42h-1.77Z"/><path class="cls-3" d="M393.61,153.84V143.35h1.33v10.49Z"/><path class="cls-3" d="M400.73,154a5,5,0,0,1-2.05-.42,5.1,5.1,0,0,1-1.63-1.14l.8-.92a4.37,4.37,0,0,0,1.32.95,3.65,3.65,0,0,0,1.58.36,2.49,2.49,0,0,0,1.61-.47,1.65,1.65,0,0,0,.44-1.92,1.35,1.35,0,0,0-.37-.48,2.18,2.18,0,0,0-.55-.36l-.69-.34-1.5-.66a5.29,5.29,0,0,1-.75-.38,3.05,3.05,0,0,1-.69-.54,2.86,2.86,0,0,1-.5-.76,2.73,2.73,0,0,1-.19-1,2.43,2.43,0,0,1,.25-1.1,2.71,2.71,0,0,1,.69-.89,3.2,3.2,0,0,1,1-.59,4.25,4.25,0,0,1,1.32-.2,4.17,4.17,0,0,1,1.74.36,4.43,4.43,0,0,1,1.36.93l-.72.87a3.59,3.59,0,0,0-1.06-.73,3.11,3.11,0,0,0-1.32-.27,2.3,2.3,0,0,0-1.42.41,1.33,1.33,0,0,0-.53,1.13,1.3,1.3,0,0,0,.15.65,1.48,1.48,0,0,0,.41.46,2.65,2.65,0,0,0,.56.35,4.91,4.91,0,0,0,.62.28l1.49.64a7.56,7.56,0,0,1,.85.44,3.2,3.2,0,0,1,.68.58,2.29,2.29,0,0,1,.46.77,3,3,0,0,1-.08,2.18,2.76,2.76,0,0,1-.71.95,3.25,3.25,0,0,1-1.12.64A4.35,4.35,0,0,1,400.73,154Z"/><path class="cls-3" d="M406.36,153.84V143.35H408l2,5.6c.13.36.25.73.37,1.09s.25.74.38,1.1h.06c.13-.36.25-.73.36-1.1l.36-1.09,2-5.6h1.61v10.49h-1.24v-5.77c0-.47,0-1,.06-1.55s.08-1.09.11-1.56H414l-.83,2.39-2,5.44h-.88l-2-5.44-.83-2.39h-.07c0,.47.07,1,.11,1.56s.05,1.08.05,1.55v5.77Z"/><path class="cls-3" d="M417.63,156.57l-.32-.77a2.89,2.89,0,0,0,1.07-.81,1.82,1.82,0,0,0,.37-1.15.37.37,0,0,1-.16,0,1,1,0,0,1-.67-.23.83.83,0,0,1-.28-.68.85.85,0,0,1,.29-.68,1,1,0,0,1,.69-.25,1,1,0,0,1,.81.42,2,2,0,0,1,.29,1.13,3,3,0,0,1-.56,1.81A3.61,3.61,0,0,1,417.63,156.57Z"/><path class="cls-3" d="M60.59,177.84V167.35h3a7.26,7.26,0,0,1,1.61.16,3.25,3.25,0,0,1,1.24.52,2.47,2.47,0,0,1,.8.95,3.36,3.36,0,0,1,.29,1.46,3.4,3.4,0,0,1-.28,1.44,2.69,2.69,0,0,1-.79,1,3.45,3.45,0,0,1-1.23.6,5.53,5.53,0,0,1-1.57.2H61.92v4.16Zm1.33-5.24h1.57a3.36,3.36,0,0,0,2-.52,2,2,0,0,0,.66-1.64,1.71,1.71,0,0,0-.7-1.58,3.93,3.93,0,0,0-2.07-.44h-1.5Z"/><path class="cls-3" d="M69.65,177.84V167.35h3.28a6.94,6.94,0,0,1,1.48.15,3.14,3.14,0,0,1,1.16.5,2.36,2.36,0,0,1,.76.92,3,3,0,0,1,.28,1.37,2.93,2.93,0,0,1-.64,2,3.31,3.31,0,0,1-1.73,1l2.67,4.57h-1.5l-2.53-4.43H71v4.43ZM71,172.32h1.76a3,3,0,0,0,1.89-.5,1.8,1.8,0,0,0,.66-1.53,1.57,1.57,0,0,0-.66-1.45,3.48,3.48,0,0,0-1.89-.42H71Z"/><path class="cls-3" d="M78.75,177.84V167.35h6v1.12H80.08v3.29h4v1.14h-4v3.81H85v1.13Z"/><path class="cls-3" d="M89.1,177.84l-3.36-10.49h1.43L88.85,173c.19.63.36,1.21.5,1.75s.32,1.11.52,1.72h.06c.2-.61.37-1.19.52-1.72s.31-1.12.49-1.75l1.68-5.66H94l-3.33,10.49Z"/><path class="cls-3" d="M95.42,177.84V167.35h6v1.12H96.75v3.29h4v1.14h-4v3.81h4.88v1.13Z"/><path class="cls-3" d="M103.85,177.84V167.35h1.38l3.79,6.59,1.14,2.18h.06c0-.54-.07-1.09-.1-1.66s-.06-1.13-.06-1.69v-5.42h1.27v10.49H110l-3.81-6.6L105,169.08h-.07q.06.79.12,1.62c0,.55.06,1.1.06,1.66v5.48Z"/><path class="cls-3" d="M116.38,177.84v-9.37h-3.17v-1.12h7.68v1.12h-3.16v9.37Z"/><path class="cls-3" d="M126,177.84V167.35h6v1.12h-4.72V172h4v1.12h-4v4.7Z"/><path class="cls-3" d="M133.89,177.84V167.35h1.32v10.49Z"/><path class="cls-3" d="M138.09,177.84V167.35h1.38l3.79,6.59,1.14,2.18h.06c0-.54-.06-1.09-.1-1.66s-.06-1.13-.06-1.69v-5.42h1.27v10.49h-1.38l-3.81-6.6-1.13-2.16h-.07l.12,1.62c0,.55.06,1.1.06,1.66v5.48Z"/><path class="cls-3" d="M147.05,177.84l3.55-10.49h1.51l3.55,10.49h-1.42l-1-3.2h-3.83l-1,3.2Zm3.2-5.87-.49,1.6h3.15l-.5-1.6c-.19-.58-.37-1.17-.54-1.75s-.34-1.18-.51-1.78h-.07c-.16.6-.32,1.2-.49,1.78S150.45,171.39,150.25,172Z"/><path class="cls-3" d="M157.15,177.84V167.35h1.38l3.79,6.59,1.13,2.18h.07c0-.54-.07-1.09-.11-1.66s0-1.13,0-1.69v-5.42h1.26v10.49h-1.37l-3.81-6.6-1.14-2.16h-.06l.12,1.62c0,.55,0,1.1,0,1.66v5.48Z"/><path class="cls-3" d="M171.47,178a4.52,4.52,0,0,1-1.82-.37,4.12,4.12,0,0,1-1.45-1.07,4.89,4.89,0,0,1-1-1.71,7.63,7.63,0,0,1,0-4.57,5.28,5.28,0,0,1,1-1.71,4.31,4.31,0,0,1,1.47-1.08,4.58,4.58,0,0,1,1.86-.37,3.54,3.54,0,0,1,1.69.39,4.48,4.48,0,0,1,1.19.9l-.72.87a3.42,3.42,0,0,0-.94-.72,2.66,2.66,0,0,0-1.21-.28,2.95,2.95,0,0,0-2.4,1.15,4.24,4.24,0,0,0-.66,1.33,6.43,6.43,0,0,0-.23,1.77,6.51,6.51,0,0,0,.23,1.78,4.24,4.24,0,0,0,.65,1.35,3.1,3.1,0,0,0,1,.87,3,3,0,0,0,1.36.3,2.85,2.85,0,0,0,1.34-.31,4.18,4.18,0,0,0,1.09-.88l.74.84a4.81,4.81,0,0,1-1.41,1.12A4,4,0,0,1,171.47,178Z"/><path class="cls-3" d="M176.64,177.84V167.35H178v10.49Z"/><path class="cls-3" d="M179.45,177.84,183,167.35h1.51l3.55,10.49h-1.42l-1-3.2h-3.83l-1,3.2Zm3.2-5.87-.49,1.6h3.15l-.5-1.6c-.19-.58-.37-1.17-.54-1.75s-.34-1.18-.51-1.78h-.07c-.16.6-.32,1.2-.49,1.78S182.85,171.39,182.65,172Z"/><path class="cls-3" d="M189.55,177.84V167.35h1.33v9.36h4.59v1.13Z"/><path class="cls-3" d="M204.49,178a4.52,4.52,0,0,1-1.82-.37,4.12,4.12,0,0,1-1.45-1.07,4.89,4.89,0,0,1-1-1.71,7.07,7.07,0,0,1-.34-2.29,6.78,6.78,0,0,1,.35-2.28,4.94,4.94,0,0,1,1-1.71,4.13,4.13,0,0,1,1.47-1.08,4.5,4.5,0,0,1,1.85-.37,3.51,3.51,0,0,1,1.69.39,4.33,4.33,0,0,1,1.19.9l-.72.87a3.27,3.27,0,0,0-.94-.72,2.59,2.59,0,0,0-1.2-.28,3,3,0,0,0-1.36.3,2.94,2.94,0,0,0-1,.85,3.86,3.86,0,0,0-.66,1.33,6.06,6.06,0,0,0-.24,1.77,6.13,6.13,0,0,0,.24,1.78,4.23,4.23,0,0,0,.64,1.35,3,3,0,0,0,1,.87,3,3,0,0,0,1.35.3,2.92,2.92,0,0,0,1.35-.31,4.14,4.14,0,0,0,1.08-.88l.74.84a4.81,4.81,0,0,1-1.41,1.12A4,4,0,0,1,204.49,178Z"/><path class="cls-3" d="M209.66,177.84V167.35h3.28a6.87,6.87,0,0,1,1.48.15,3.26,3.26,0,0,1,1.17.5,2.44,2.44,0,0,1,.76.92,3.13,3.13,0,0,1,.27,1.37,2.88,2.88,0,0,1-.64,2,3.27,3.27,0,0,1-1.73,1l2.68,4.57h-1.51l-2.53-4.43H211v4.43Zm1.33-5.52h1.76a3,3,0,0,0,1.89-.5,1.82,1.82,0,0,0,.65-1.53,1.59,1.59,0,0,0-.65-1.45,3.53,3.53,0,0,0-1.89-.42H211Z"/><path class="cls-3" d="M218.77,177.84V167.35h1.32v10.49Z"/><path class="cls-3" d="M223,177.84V167.35h1.6l2,5.6c.13.36.25.73.37,1.09s.25.74.38,1.1h.06c.13-.36.25-.73.37-1.1s.23-.73.35-1.09l2-5.6h1.62v10.49h-1.25v-5.77c0-.47,0-1,.06-1.55s.08-1.09.11-1.56h-.06l-.83,2.39-2,5.44h-.88l-2-5.44-.83-2.39H224c0,.47.07,1,.11,1.56s0,1.08,0,1.55v5.77Z"/><path class="cls-3" d="M234.6,177.84V167.35h6.05v1.12h-4.72v3.29h4v1.14h-4v3.81h4.88v1.13Z"/><path class="cls-3" d="M246,178a5,5,0,0,1-2-.42,5.1,5.1,0,0,1-1.63-1.14l.8-.92a4.37,4.37,0,0,0,1.32.95,3.64,3.64,0,0,0,1.57.36,2.5,2.5,0,0,0,1.62-.47,1.55,1.55,0,0,0,.58-1.24,1.52,1.52,0,0,0-.14-.68,1.35,1.35,0,0,0-.37-.48,2.18,2.18,0,0,0-.55-.36l-.69-.34-1.5-.66a5.29,5.29,0,0,1-.75-.38,3.05,3.05,0,0,1-.69-.54,2.86,2.86,0,0,1-.5-.76,2.54,2.54,0,0,1-.19-1,2.43,2.43,0,0,1,.25-1.1,2.58,2.58,0,0,1,.69-.89,3.2,3.2,0,0,1,1-.59,4.25,4.25,0,0,1,1.32-.2,4.17,4.17,0,0,1,1.74.36,4.43,4.43,0,0,1,1.36.93l-.72.87a3.59,3.59,0,0,0-1.06-.73,3.11,3.11,0,0,0-1.32-.27,2.3,2.3,0,0,0-1.42.41,1.34,1.34,0,0,0-.54,1.13,1.21,1.21,0,0,0,.16.65,1.58,1.58,0,0,0,.4.46,2.93,2.93,0,0,0,.56.35,5,5,0,0,0,.63.28l1.49.64a7.41,7.41,0,0,1,.84.44,3,3,0,0,1,.69.58,2.46,2.46,0,0,1,.46.77,3,3,0,0,1-.08,2.18,2.76,2.76,0,0,1-.71.95,3.25,3.25,0,0,1-1.12.64A4.35,4.35,0,0,1,246,178Z"/><path class="cls-3" d="M251.21,180.57l-.32-.77A2.73,2.73,0,0,0,252,179a1.76,1.76,0,0,0,.37-1.15.32.32,0,0,1-.16,0,1,1,0,0,1-.66-.23.83.83,0,0,1-.28-.68.82.82,0,0,1,.29-.68,1,1,0,0,1,.68-.25.93.93,0,0,1,.81.42,1.87,1.87,0,0,1,.3,1.13,3,3,0,0,1-.56,1.81A3.7,3.7,0,0,1,251.21,180.57Z"/><path class="cls-3" d="M257.37,177.84l3.55-10.49h1.51L266,177.84h-1.42l-1-3.2h-3.82l-1,3.2Zm3.2-5.87-.49,1.6h3.15l-.5-1.6c-.19-.58-.37-1.17-.54-1.75s-.34-1.18-.51-1.78h-.07c-.16.6-.32,1.2-.49,1.78S260.76,171.39,260.57,172Z"/><path class="cls-3" d="M267.47,177.84V167.35h1.37l3.8,6.59,1.13,2.18h.07c0-.54-.07-1.09-.11-1.66s-.05-1.13-.05-1.69v-5.42h1.26v10.49h-1.38l-3.8-6.6-1.14-2.16h-.06q.06.79.12,1.62c0,.55.05,1.1.05,1.66v5.48Z"/><path class="cls-3" d="M277.82,177.84V167.35h2.62a4.86,4.86,0,0,1,3.7,1.34,5.44,5.44,0,0,1,1.26,3.86,7,7,0,0,1-.32,2.23,4.29,4.29,0,0,1-.94,1.66,4,4,0,0,1-1.54,1,5.61,5.61,0,0,1-2.09.36Zm1.33-1.08h1.2a3.4,3.4,0,0,0,2.76-1.11,4.72,4.72,0,0,0,.92-3.1,4.57,4.57,0,0,0-.92-3.06,3.49,3.49,0,0,0-2.76-1.05h-1.2Z"/><path class="cls-3" d="M290.86,177.84V167.35h1.33v10.49Z"/><path class="cls-3" d="M295.07,177.84V167.35h1.37l3.8,6.59,1.13,2.18h.07c0-.54-.07-1.09-.11-1.66s-.05-1.13-.05-1.69v-5.42h1.26v10.49h-1.38l-3.81-6.6-1.13-2.16h-.06q.06.79.12,1.62c0,.55.05,1.1.05,1.66v5.48Z"/><path class="cls-3" d="M308.33,178a5,5,0,0,1-2.05-.42,5.1,5.1,0,0,1-1.63-1.14l.8-.92a4.37,4.37,0,0,0,1.32.95,3.65,3.65,0,0,0,1.58.36,2.49,2.49,0,0,0,1.61-.47,1.65,1.65,0,0,0,.44-1.92A1.35,1.35,0,0,0,310,174a2,2,0,0,0-.55-.36l-.68-.34-1.51-.66a6.62,6.62,0,0,1-.75-.38,3.05,3.05,0,0,1-.69-.54,2.86,2.86,0,0,1-.5-.76,2.73,2.73,0,0,1-.19-1,2.57,2.57,0,0,1,.25-1.1,2.85,2.85,0,0,1,.69-.89,3.2,3.2,0,0,1,1-.59,4.25,4.25,0,0,1,1.32-.2,4.17,4.17,0,0,1,1.74.36,4.31,4.31,0,0,1,1.36.93l-.72.87a3.59,3.59,0,0,0-1.06-.73,3.11,3.11,0,0,0-1.32-.27,2.3,2.3,0,0,0-1.42.41,1.35,1.35,0,0,0-.53,1.13,1.3,1.3,0,0,0,.15.65,1.62,1.62,0,0,0,.41.46,2.65,2.65,0,0,0,.56.35,4.91,4.91,0,0,0,.62.28l1.49.64a7.56,7.56,0,0,1,.85.44,3.2,3.2,0,0,1,.68.58,2.29,2.29,0,0,1,.46.77,2.85,2.85,0,0,1,.17,1,2.7,2.7,0,0,1-.25,1.17,2.64,2.64,0,0,1-.71.95,3.16,3.16,0,0,1-1.12.64A4.31,4.31,0,0,1,308.33,178Z"/><path class="cls-3" d="M317.69,178a4.62,4.62,0,0,1-1.5-.24A2.93,2.93,0,0,1,315,177a4,4,0,0,1-.79-1.4,6.89,6.89,0,0,1-.29-2.13v-6.16h1.33v6.19a5.43,5.43,0,0,0,.2,1.58,2.84,2.84,0,0,0,.51,1,1.92,1.92,0,0,0,.78.55,2.77,2.77,0,0,0,1,.17,2.84,2.84,0,0,0,1-.17,1.92,1.92,0,0,0,.78-.55,2.7,2.7,0,0,0,.53-1,5.46,5.46,0,0,0,.19-1.58v-6.19h1.28v6.16a6.89,6.89,0,0,1-.29,2.13,3.72,3.72,0,0,1-.79,1.4,2.89,2.89,0,0,1-1.19.76A4.52,4.52,0,0,1,317.69,178Z"/><path class="cls-3" d="M324.28,177.84V167.35h3.28a6.8,6.8,0,0,1,1.48.15,3.12,3.12,0,0,1,1.17.5,2.36,2.36,0,0,1,.76.92,3.13,3.13,0,0,1,.27,1.37,2.88,2.88,0,0,1-.64,2,3.23,3.23,0,0,1-1.73,1l2.68,4.57H330l-2.53-4.43h-1.9v4.43Zm1.33-5.52h1.76a3,3,0,0,0,1.89-.5,1.79,1.79,0,0,0,.65-1.53,1.56,1.56,0,0,0-.65-1.45,3.53,3.53,0,0,0-1.89-.42h-1.76Z"/><path class="cls-3" d="M331.93,177.84l3.55-10.49H337l3.56,10.49h-1.43l-1-3.2H334.3l-1,3.2Zm3.2-5.87-.5,1.6h3.16l-.5-1.6c-.19-.58-.37-1.17-.54-1.75s-.35-1.18-.52-1.78h-.06c-.16.6-.33,1.2-.5,1.78S335.32,171.39,335.13,172Z"/><path class="cls-3" d="M342,177.84V167.35h1.37l3.79,6.59,1.14,2.18h.06c0-.54-.06-1.09-.1-1.66s-.06-1.13-.06-1.69v-5.42h1.27v10.49h-1.38l-3.81-6.6-1.13-2.16h-.07q.08.79.12,1.62c0,.55.06,1.1.06,1.66v5.48Z"/><path class="cls-3" d="M356.35,178a4.57,4.57,0,0,1-1.83-.37,4.21,4.21,0,0,1-1.45-1.07,4.89,4.89,0,0,1-1-1.71,7.74,7.74,0,0,1,0-4.57,5.11,5.11,0,0,1,1-1.71,4.13,4.13,0,0,1,1.47-1.08,4.54,4.54,0,0,1,1.86-.37,3.47,3.47,0,0,1,1.68.39,4.38,4.38,0,0,1,1.2.9l-.72.87a3.46,3.46,0,0,0-.95-.72,2.59,2.59,0,0,0-1.2-.28,2.95,2.95,0,0,0-2.4,1.15,3.86,3.86,0,0,0-.66,1.33,6.07,6.07,0,0,0-.23,1.77,6.14,6.14,0,0,0,.23,1.78,4,4,0,0,0,.65,1.35,2.91,2.91,0,0,0,1,.87,3,3,0,0,0,1.35.3,2.89,2.89,0,0,0,1.35-.31,4.35,4.35,0,0,0,1.09-.88l.73.84a4.56,4.56,0,0,1-1.41,1.12A4,4,0,0,1,356.35,178Z"/><path class="cls-3" d="M361.51,177.84V167.35h6.05v1.12h-4.72v3.29h4v1.14h-4v3.81h4.88v1.13Z"/><path class="cls-3" d="M371.75,177.84l3.56-10.49h1.5l3.55,10.49h-1.42l-1-3.2h-3.83l-1,3.2ZM375,172l-.49,1.6h3.15l-.5-1.6c-.19-.58-.37-1.17-.54-1.75s-.34-1.18-.51-1.78H376c-.16.6-.32,1.2-.49,1.78S375.15,171.39,375,172Z"/><path class="cls-3" d="M381.85,177.84V167.35h1.38l3.79,6.59,1.13,2.18h.07c0-.54-.07-1.09-.11-1.66s-.05-1.13-.05-1.69v-5.42h1.26v10.49h-1.38l-3.8-6.6L383,169.08h-.06q.06.79.12,1.62c0,.55.05,1.1.05,1.66v5.48Z"/><path class="cls-3" d="M392.2,177.84V167.35h2.62a4.85,4.85,0,0,1,3.7,1.34,5.44,5.44,0,0,1,1.26,3.86,7,7,0,0,1-.32,2.23,4.29,4.29,0,0,1-.94,1.66,4,4,0,0,1-1.54,1,5.61,5.61,0,0,1-2.09.36Zm1.33-1.08h1.2a3.4,3.4,0,0,0,2.76-1.11,4.72,4.72,0,0,0,.92-3.1,4.57,4.57,0,0,0-.92-3.06,3.49,3.49,0,0,0-2.76-1.05h-1.2Z"/><path class="cls-3" d="M64.72,202a4.93,4.93,0,0,1-1.91-.37,4.21,4.21,0,0,1-1.5-1.07,5.08,5.08,0,0,1-1-1.71A7.06,7.06,0,0,1,60,196.6a6.78,6.78,0,0,1,.36-2.28,5.15,5.15,0,0,1,1-1.71,4.35,4.35,0,0,1,1.53-1.08,4.88,4.88,0,0,1,1.93-.37,4,4,0,0,1,1,.11,3.55,3.55,0,0,1,.83.3,4,4,0,0,1,.67.41,4.88,4.88,0,0,1,.52.47l-.73.87a3.82,3.82,0,0,0-.93-.71,2.78,2.78,0,0,0-1.33-.29,3.37,3.37,0,0,0-1.44.3,3,3,0,0,0-1.09.85,3.9,3.9,0,0,0-.69,1.33,5.73,5.73,0,0,0-.25,1.77,6.51,6.51,0,0,0,.23,1.78,4.06,4.06,0,0,0,.67,1.35,3.18,3.18,0,0,0,1.09.87,3.52,3.52,0,0,0,1.5.3,3.41,3.41,0,0,0,1.06-.17,2.09,2.09,0,0,0,.82-.46v-2.73H64.51V196.4H68v4.42a4,4,0,0,1-1.34.87A4.93,4.93,0,0,1,64.72,202Z"/><path class="cls-3" d="M74.33,202a4.17,4.17,0,0,1-1.81-.39,4.07,4.07,0,0,1-1.42-1.09,5.28,5.28,0,0,1-.92-1.73,7.38,7.38,0,0,1-.33-2.28,7.27,7.27,0,0,1,.33-2.27,5.08,5.08,0,0,1,.92-1.69,3.87,3.87,0,0,1,1.42-1.06,4.64,4.64,0,0,1,3.63,0,4,4,0,0,1,1.42,1.07,4.81,4.81,0,0,1,.93,1.7,7.19,7.19,0,0,1,.33,2.25,7.38,7.38,0,0,1-.33,2.28,5,5,0,0,1-.93,1.73,4,4,0,0,1-1.42,1.09A4.18,4.18,0,0,1,74.33,202Zm0-1.17a2.72,2.72,0,0,0,1.28-.3,2.9,2.9,0,0,0,1-.88,4.39,4.39,0,0,0,.64-1.36,6.94,6.94,0,0,0,.22-1.78,6.78,6.78,0,0,0-.22-1.76,4.12,4.12,0,0,0-.64-1.33,2.88,2.88,0,0,0-1-.84,2.86,2.86,0,0,0-2.55,0,2.88,2.88,0,0,0-1,.84,3.92,3.92,0,0,0-.64,1.33,6.78,6.78,0,0,0-.22,1.76,6.94,6.94,0,0,0,.22,1.78,4.18,4.18,0,0,0,.64,1.36,2.9,2.9,0,0,0,1,.88A2.7,2.7,0,0,0,74.33,200.87Z"/><path class="cls-3" d="M82.85,201.84l-3.36-10.49h1.42L82.59,197c.19.63.36,1.21.51,1.75s.31,1.11.51,1.72h.07c.19-.61.36-1.19.51-1.72s.32-1.12.5-1.75l1.68-5.66h1.36L84.4,201.84Z"/><path class="cls-3" d="M89.17,201.84V191.35h6v1.12H90.49v3.29h4v1.14h-4v3.81h4.89v1.13Z"/><path class="cls-3" d="M97.6,201.84V191.35h3.28a6.94,6.94,0,0,1,1.48.15,3.26,3.26,0,0,1,1.17.5,2.54,2.54,0,0,1,.76.92,3.13,3.13,0,0,1,.27,1.37,2.88,2.88,0,0,1-.64,2,3.27,3.27,0,0,1-1.73,1l2.67,4.57h-1.5l-2.53-4.43h-1.9v4.43Zm1.33-5.52h1.76a3,3,0,0,0,1.88-.5,1.8,1.8,0,0,0,.66-1.53,1.57,1.57,0,0,0-.66-1.45,3.47,3.47,0,0,0-1.88-.42H98.93Z"/><path class="cls-3" d="M106.7,201.84V191.35h1.38l3.79,6.59,1.14,2.18h.06c0-.54-.07-1.09-.1-1.66s-.06-1.13-.06-1.69v-5.42h1.26v10.49H112.8l-3.81-6.6-1.14-2.16h-.06q.06.79.12,1.62c0,.55.06,1.1.06,1.66v5.48Z"/><path class="cls-3" d="M117.05,201.84V191.35h1.6l2,5.6c.13.36.25.73.38,1.09s.24.74.37,1.1h.07l.36-1.1c.11-.36.23-.73.36-1.09l2-5.6h1.62v10.49h-1.25v-5.77c0-.47,0-1,.06-1.55s.08-1.09.11-1.56h-.06l-.83,2.39-2,5.44H121l-2-5.44-.83-2.39h-.07c0,.47.07,1,.11,1.56s0,1.08,0,1.55v5.77Z"/><path class="cls-3" d="M128.69,201.84V191.35h6v1.12H130v3.29h4v1.14h-4v3.81h4.88v1.13Z"/><path class="cls-3" d="M137.12,201.84V191.35h1.37l3.8,6.59,1.13,2.18h.06c0-.54-.06-1.09-.1-1.66s0-1.13,0-1.69v-5.42h1.26v10.49h-1.38l-3.81-6.6-1.13-2.16h-.06l.12,1.62c0,.55,0,1.1,0,1.66v5.48Z"/><path class="cls-3" d="M149.65,201.84v-9.37h-3.17v-1.12h7.68v1.12H151v9.37Z"/><path class="cls-3" d="M159.25,201.84V191.35h3.11a7.34,7.34,0,0,1,1.47.14,3.67,3.67,0,0,1,1.14.45,2.21,2.21,0,0,1,.73.79,2.42,2.42,0,0,1,.27,1.18,2.63,2.63,0,0,1-.4,1.41,2,2,0,0,1-1.14.88v.06a2.73,2.73,0,0,1,1.55.8,2.37,2.37,0,0,1,.59,1.71,3,3,0,0,1-.28,1.35,2.8,2.8,0,0,1-.82,1,3.65,3.65,0,0,1-1.26.57,6.37,6.37,0,0,1-1.62.19Zm1.32-6h1.56a3.15,3.15,0,0,0,1.93-.46,1.51,1.51,0,0,0,.59-1.27,1.4,1.4,0,0,0-.61-1.29,3.51,3.51,0,0,0-1.85-.39h-1.62Zm0,5h1.83a3.74,3.74,0,0,0,2.11-.51,1.73,1.73,0,0,0,.75-1.56,1.55,1.55,0,0,0-.74-1.43,4.1,4.1,0,0,0-2.12-.45h-1.83Z"/><path class="cls-3" d="M168.65,201.84V191.35h6v1.12H170v3.29h4v1.14h-4v3.81h4.88v1.13Z"/><path class="cls-3" d="M177.09,201.84V191.35h1.37l3.79,6.59,1.14,2.18h.06c0-.54-.06-1.09-.1-1.66s-.06-1.13-.06-1.69v-5.42h1.27v10.49h-1.38l-3.81-6.6-1.13-2.16h-.07q.08.79.12,1.62c0,.55.06,1.1.06,1.66v5.48Z"/><path class="cls-3" d="M187.44,201.84V191.35h6v1.12h-4.72v3.29h4v1.14h-4v3.81h4.89v1.13Z"/><path class="cls-3" d="M195.87,201.84V191.35h6v1.12H197.2V196h4v1.12h-4v4.7Z"/><path class="cls-3" d="M203.77,201.84V191.35h1.33v10.49Z"/><path class="cls-3" d="M210.16,201.84v-9.37H207v-1.12h7.68v1.12H211.5v9.37Z"/><path class="cls-3" d="M222.67,202a5,5,0,0,1-2-.42,5.1,5.1,0,0,1-1.63-1.14l.8-.92a4.37,4.37,0,0,0,1.32.95,3.65,3.65,0,0,0,1.58.36,2.49,2.49,0,0,0,1.61-.47,1.65,1.65,0,0,0,.44-1.92,1.35,1.35,0,0,0-.37-.48,2.18,2.18,0,0,0-.55-.36l-.69-.34-1.5-.66a5.29,5.29,0,0,1-.75-.38,3.05,3.05,0,0,1-.69-.54,2.86,2.86,0,0,1-.5-.76,2.54,2.54,0,0,1-.19-1,2.43,2.43,0,0,1,.25-1.1,2.58,2.58,0,0,1,.69-.89,3.2,3.2,0,0,1,1-.59,4.25,4.25,0,0,1,1.32-.2,4.17,4.17,0,0,1,1.74.36,4.43,4.43,0,0,1,1.36.93l-.72.87a3.59,3.59,0,0,0-1.06-.73,3.11,3.11,0,0,0-1.32-.27,2.3,2.3,0,0,0-1.42.41,1.33,1.33,0,0,0-.53,1.13,1.3,1.3,0,0,0,.15.65,1.58,1.58,0,0,0,.4.46,3,3,0,0,0,.57.35,4.91,4.91,0,0,0,.62.28l1.49.64a7.56,7.56,0,0,1,.85.44,3.2,3.2,0,0,1,.68.58,2.29,2.29,0,0,1,.46.77,3,3,0,0,1-.08,2.18,2.76,2.76,0,0,1-.71.95,3.25,3.25,0,0,1-1.12.64A4.35,4.35,0,0,1,222.67,202Z"/><path class="cls-3" d="M232.27,202a4.6,4.6,0,0,1-1.83-.37A4.17,4.17,0,0,1,229,200.6a4.89,4.89,0,0,1-1-1.71,7.63,7.63,0,0,1,0-4.57,5.11,5.11,0,0,1,1-1.71,4.31,4.31,0,0,1,1.47-1.08,4.58,4.58,0,0,1,1.86-.37,3.54,3.54,0,0,1,1.69.39,4.48,4.48,0,0,1,1.19.9l-.72.87a3.32,3.32,0,0,0-.95-.72,2.59,2.59,0,0,0-1.2-.28,2.95,2.95,0,0,0-2.4,1.15,4.24,4.24,0,0,0-.66,1.33,6.43,6.43,0,0,0-.23,1.77,6.51,6.51,0,0,0,.23,1.78,4.24,4.24,0,0,0,.65,1.35,2.79,2.79,0,0,0,2.37,1.17,2.85,2.85,0,0,0,1.34-.31,4.18,4.18,0,0,0,1.09-.88l.73.84a4.65,4.65,0,0,1-1.4,1.12A4,4,0,0,1,232.27,202Z"/><path class="cls-3" d="M236,201.84l3.56-10.49h1.5l3.55,10.49h-1.42l-1-3.2h-3.83l-1,3.2Zm3.2-5.87-.49,1.6h3.15l-.5-1.6c-.19-.58-.37-1.17-.54-1.75s-.34-1.18-.51-1.78h-.07c-.16.6-.32,1.2-.49,1.78S239.44,195.39,239.24,196Z"/><path class="cls-3" d="M246.14,201.84V191.35h1.6l2,5.6.37,1.09c.13.37.25.74.38,1.1h.06c.13-.36.25-.73.36-1.1s.23-.73.36-1.09l2-5.6h1.61v10.49h-1.24v-5.77c0-.47,0-1,.06-1.55s.08-1.09.11-1.56h-.06l-.84,2.39-2,5.44h-.88l-2-5.44-.84-2.39h-.06c0,.47.07,1,.1,1.56s.06,1.08.06,1.55v5.77Z"/><path class="cls-3" d="M260.68,202a5,5,0,0,1-2-.42,5.14,5.14,0,0,1-1.64-1.14l.8-.92a4.63,4.63,0,0,0,1.32.95,3.68,3.68,0,0,0,1.58.36,2.54,2.54,0,0,0,1.62-.47,1.7,1.7,0,0,0,.44-1.92,1.47,1.47,0,0,0-.37-.48,2.38,2.38,0,0,0-.55-.36l-.69-.34-1.51-.66a6.62,6.62,0,0,1-.75-.38,3.57,3.57,0,0,1-.69-.54,2.83,2.83,0,0,1-.49-.76,2.73,2.73,0,0,1,.05-2.12,2.85,2.85,0,0,1,.69-.89,3.31,3.31,0,0,1,1-.59,4.44,4.44,0,0,1,3.07.16,4.55,4.55,0,0,1,1.36.93l-.72.87a3.63,3.63,0,0,0-1.07-.73,3.11,3.11,0,0,0-1.32-.27,2.27,2.27,0,0,0-1.41.41,1.34,1.34,0,0,0-.54,1.13,1.3,1.3,0,0,0,.15.65,1.62,1.62,0,0,0,.41.46,2.93,2.93,0,0,0,.56.35,4.91,4.91,0,0,0,.62.28l1.49.64a7.56,7.56,0,0,1,.85.44,3,3,0,0,1,.69.58,2.44,2.44,0,0,1,.45.77,2.64,2.64,0,0,1,.17,1,2.7,2.7,0,0,1-.25,1.17,2.64,2.64,0,0,1-.71.95,3.16,3.16,0,0,1-1.12.64A4.31,4.31,0,0,1,260.68,202Z"/><path class="cls-3" d="M266.88,202a.94.94,0,0,1-.68-.28,1,1,0,0,1-.28-.72,1,1,0,0,1,.28-.74.94.94,0,0,1,1.34,0,1,1,0,0,1,.28.74,1,1,0,0,1-.28.72A.94.94,0,0,1,266.88,202Z"/></svg>