<svg id="Layer_1" data-name="Layer 1" xmlns="http://www.w3.org/2000/svg" viewBox="0 0 480 240"><defs><style>.cls-1{fill:#db0022;}.cls-2{fill:#f5f5f5;}.cls-3,.cls-5{fill:#fff;}.cls-3{stroke:#000;}.cls-3,.cls-4,.cls-5{fill-rule:evenodd;}.cls-4{fill:#005fc6;}.cls-5{stroke:#6e7272;}</style></defs><rect class="cls-1" width="6" height="240"/><rect class="cls-2" x="6" width="474" height="240"/><path class="cls-1" d="M33,10.15a15.65,15.65,0,1,0,15.7,15.6A15.73,15.73,0,0,0,33,10.15Z"/><rect class="cls-2" x="23" y="24.16" width="20" height="3.3" transform="translate(-8.58 30.9) rotate(-45)"/><rect class="cls-2" x="31.29" y="15.73" width="3.3" height="20" transform="translate(-8.55 30.83) rotate(-45)"/><path d="M131,55.15a6.36,6.36,0,0,1-2.56-.51,6.16,6.16,0,0,1-2-1.43l1-1.15a5.34,5.34,0,0,0,1.65,1.18,4.54,4.54,0,0,0,2,.45,3.13,3.13,0,0,0,2-.58,1.93,1.93,0,0,0,.72-1.55,2,2,0,0,0-.17-.86,1.92,1.92,0,0,0-.46-.59,3.94,3.94,0,0,0-.69-.46l-.86-.42-1.88-.82a9.15,9.15,0,0,1-.94-.47,3.84,3.84,0,0,1-.86-.69,3.08,3.08,0,0,1-.62-.94,3.18,3.18,0,0,1-.24-1.28,3.1,3.1,0,0,1,.31-1.38,3.4,3.4,0,0,1,.86-1.11,3.9,3.9,0,0,1,1.3-.72,4.84,4.84,0,0,1,1.65-.26,5.28,5.28,0,0,1,2.18.44,5.77,5.77,0,0,1,1.7,1.17l-.9,1.08a4.88,4.88,0,0,0-1.33-.9,3.83,3.83,0,0,0-1.65-.33,2.82,2.82,0,0,0-1.77.51,1.64,1.64,0,0,0-.67,1.41,1.53,1.53,0,0,0,.19.8,1.75,1.75,0,0,0,.51.58,3.81,3.81,0,0,0,.7.45c.25.12.51.24.78.34l1.86.8a9.65,9.65,0,0,1,1.06.55,3.82,3.82,0,0,1,.86.73,3.06,3.06,0,0,1,.57,1,3.72,3.72,0,0,1-.1,2.72,3.62,3.62,0,0,1-.89,1.2,4.44,4.44,0,0,1-1.4.79A5.42,5.42,0,0,1,131,55.15Z"/><path d="M141.83,55.15a4.77,4.77,0,0,1-1.83-.34,4.45,4.45,0,0,1-1.48-1,4.71,4.71,0,0,1-1-1.6,6.49,6.49,0,0,1,0-4.29,4.75,4.75,0,0,1,1-1.6,4,4,0,0,1,1.39-1,3.82,3.82,0,0,1,1.62-.36,4,4,0,0,1,1.65.33,3.24,3.24,0,0,1,1.22.91,4.52,4.52,0,0,1,.75,1.45,6.37,6.37,0,0,1,.26,1.88c0,.17,0,.34,0,.51a4.05,4.05,0,0,1-.05.42h-6.56a3.75,3.75,0,0,0,1,2.47,3,3,0,0,0,2.27.91,3.64,3.64,0,0,0,1.29-.21,5.61,5.61,0,0,0,1.13-.55l.58,1.08a9,9,0,0,1-1.42.71A5,5,0,0,1,141.83,55.15Zm-3.06-5.87H144a3.47,3.47,0,0,0-.63-2.25,2.15,2.15,0,0,0-1.77-.78,2.54,2.54,0,0,0-1,.2,2.6,2.6,0,0,0-.85.59,3.15,3.15,0,0,0-.63,1A4.14,4.14,0,0,0,138.77,49.28Z"/><path d="M149.55,55.15a1.53,1.53,0,0,1-1.34-.55,2.83,2.83,0,0,1-.4-1.65V40.67h1.64v12.4a.85.85,0,0,0,.14.57.42.42,0,0,0,.32.15h.15a.8.8,0,0,0,.21,0l.22,1.24a1.13,1.13,0,0,1-.38.12A3,3,0,0,1,149.55,55.15Z"/><path d="M156.85,55.15a4.77,4.77,0,0,1-1.83-.34,4.6,4.6,0,0,1-1.49-1,4.54,4.54,0,0,1-1-1.6,6.49,6.49,0,0,1,0-4.29,4.89,4.89,0,0,1,1-1.6,4,4,0,0,1,1.4-1,3.76,3.76,0,0,1,1.62-.36,3.91,3.91,0,0,1,1.64.33,3.19,3.19,0,0,1,1.23.91,4.52,4.52,0,0,1,.75,1.45,6.37,6.37,0,0,1,.26,1.88c0,.17,0,.34,0,.51a2.35,2.35,0,0,1-.06.42h-6.55a3.74,3.74,0,0,0,1,2.47,3,3,0,0,0,2.28.91,3.64,3.64,0,0,0,1.29-.21,5.89,5.89,0,0,0,1.13-.55l.58,1.08a9,9,0,0,1-1.42.71A5,5,0,0,1,156.85,55.15Zm-3.07-5.87H159a3.47,3.47,0,0,0-.63-2.25,2.11,2.11,0,0,0-1.76-.78,2.54,2.54,0,0,0-1,.2,2.6,2.6,0,0,0-.85.59,3.37,3.37,0,0,0-.64,1A4.77,4.77,0,0,0,153.78,49.28Z"/><path d="M166.67,55.15a4.93,4.93,0,0,1-1.81-.33,4,4,0,0,1-1.44-1,4.68,4.68,0,0,1-1-1.59,6.35,6.35,0,0,1-.35-2.16,5.91,5.91,0,0,1,.38-2.17,5,5,0,0,1,1-1.61,4.4,4.4,0,0,1,1.48-1,5,5,0,0,1,1.79-.34,3.76,3.76,0,0,1,1.65.34,5.74,5.74,0,0,1,1.2.81l-.85,1.07a3.66,3.66,0,0,0-.88-.61,2.31,2.31,0,0,0-1.05-.24,2.73,2.73,0,0,0-1.22.26,2.69,2.69,0,0,0-1,.78,3.81,3.81,0,0,0-.64,1.18,5,5,0,0,0-.22,1.53A5.19,5.19,0,0,0,164,51.6a3.84,3.84,0,0,0,.62,1.17,2.71,2.71,0,0,0,1,.76,2.87,2.87,0,0,0,1.22.26,2.64,2.64,0,0,0,1.25-.29,5.25,5.25,0,0,0,1-.68l.72,1.09a5.09,5.09,0,0,1-1.46.91A4.41,4.41,0,0,1,166.67,55.15Z"/><path d="M174.81,55.15a3.21,3.21,0,0,1-1.32-.24,2.17,2.17,0,0,1-.85-.66,2.42,2.42,0,0,1-.48-1,5.94,5.94,0,0,1-.14-1.32V46.53h-1.43V45.29l1.51-.1.21-2.71h1.38v2.71h2.62v1.34h-2.62v5.41a2.45,2.45,0,0,0,.33,1.38,1.28,1.28,0,0,0,1.17.5,1.86,1.86,0,0,0,.55-.09,5,5,0,0,0,.54-.17l.32,1.23a6,6,0,0,1-.87.25A3.67,3.67,0,0,1,174.81,55.15Z"/><path d="M182.5,54.91V45.19h1.36L184,46.6h.06a7,7,0,0,1,1.39-1.18,3.06,3.06,0,0,1,1.63-.47,2.82,2.82,0,0,1,1.75.49,3,3,0,0,1,.94,1.38,8.14,8.14,0,0,1,1.52-1.36A3,3,0,0,1,193,45a2.64,2.64,0,0,1,2.23,1,4.65,4.65,0,0,1,.73,2.84v6.16h-1.64V49a3.56,3.56,0,0,0-.43-2,1.6,1.6,0,0,0-1.37-.61,3.63,3.63,0,0,0-2.44,1.5v7H188.4V49a3.46,3.46,0,0,0-.44-2,1.59,1.59,0,0,0-1.38-.61,3.59,3.59,0,0,0-2.43,1.5v7Z"/><path d="M201.32,55.15a3,3,0,0,1-2-.71,2.6,2.6,0,0,1-.81-2,2.73,2.73,0,0,1,1.42-2.46,11.93,11.93,0,0,1,4.54-1.19,4.41,4.41,0,0,0-.09-.89,2.21,2.21,0,0,0-.31-.79,1.57,1.57,0,0,0-.6-.54,2.09,2.09,0,0,0-1-.21,3.88,3.88,0,0,0-1.58.32,7.51,7.51,0,0,0-1.32.72l-.64-1.15a12.11,12.11,0,0,1,1.66-.85,5.67,5.67,0,0,1,2.17-.41A3,3,0,0,1,205.31,46,4.85,4.85,0,0,1,206.1,49v6h-1.36l-.14-1.16h-.06a7.49,7.49,0,0,1-1.5,1A3.61,3.61,0,0,1,201.32,55.15Zm.49-1.32a2.63,2.63,0,0,0,1.31-.33,6.14,6.14,0,0,0,1.32-1v-2.7a18.48,18.48,0,0,0-2,.38,5.43,5.43,0,0,0-1.34.52,2.11,2.11,0,0,0-.75.69,1.73,1.73,0,0,0-.23.86,1.41,1.41,0,0,0,.5,1.2A2.12,2.12,0,0,0,201.81,53.83Z"/><path d="M209.16,54.91V45.19h1.36l.14,1.76h.07a4.51,4.51,0,0,1,1.21-1.46,2.55,2.55,0,0,1,1.54-.54,2.61,2.61,0,0,1,1,.2l-.32,1.45a2.18,2.18,0,0,0-.43-.12,2.41,2.41,0,0,0-.5,0,2.11,2.11,0,0,0-1.29.5,3.9,3.9,0,0,0-1.17,1.73v6.24Z"/><path d="M216.1,54.91V40.67h1.62v9.65h.06l4.14-5.13h1.82l-3.26,3.91,3.7,5.81h-1.8l-2.84-4.68-1.82,2.13v2.55Z"/><path d="M229.58,55.15a4.84,4.84,0,0,1-1.83-.34,4.55,4.55,0,0,1-1.48-1,4.71,4.71,0,0,1-1-1.6,5.93,5.93,0,0,1-.36-2.14,6.1,6.1,0,0,1,.37-2.15,5.09,5.09,0,0,1,1-1.6,4.1,4.1,0,0,1,1.39-1,3.82,3.82,0,0,1,1.62-.36,3.92,3.92,0,0,1,1.65.33,3.09,3.09,0,0,1,1.22.91,4.16,4.16,0,0,1,.75,1.45,6.06,6.06,0,0,1,.26,1.88c0,.17,0,.34,0,.51a1.73,1.73,0,0,1-.05.42h-6.56a3.8,3.8,0,0,0,1,2.47,3,3,0,0,0,2.27.91,3.57,3.57,0,0,0,1.29-.21,5.37,5.37,0,0,0,1.13-.55l.58,1.08a8.55,8.55,0,0,1-1.42.71A4.92,4.92,0,0,1,229.58,55.15Zm-3.06-5.87h5.2a3.47,3.47,0,0,0-.63-2.25,2.15,2.15,0,0,0-1.77-.78,2.61,2.61,0,0,0-1,.2,2.83,2.83,0,0,0-.85.59,3.57,3.57,0,0,0-.63,1A4.77,4.77,0,0,0,226.52,49.28Z"/><path d="M238.42,55.15a3.19,3.19,0,0,1-1.31-.24,2.28,2.28,0,0,1-.86-.66,2.53,2.53,0,0,1-.47-1,5.94,5.94,0,0,1-.14-1.32V46.53H234.2V45.29l1.52-.1.2-2.71h1.38v2.71h2.62v1.34H237.3v5.41a2.45,2.45,0,0,0,.33,1.38,1.3,1.3,0,0,0,1.17.5,1.92,1.92,0,0,0,.56-.09,5,5,0,0,0,.54-.17l.32,1.23a6,6,0,0,1-.87.25A3.69,3.69,0,0,1,238.42,55.15Z"/><path d="M243,43.19a1.18,1.18,0,0,1-.82-.29,1.06,1.06,0,0,1,0-1.54,1.23,1.23,0,0,1,.82-.29,1.17,1.17,0,0,1,.8.29,1.06,1.06,0,0,1,0,1.54A1.13,1.13,0,0,1,243,43.19Zm-.85,11.72V45.19h1.65v9.72Z"/><path d="M247,54.91V45.19h1.36l.14,1.41h.06a8.36,8.36,0,0,1,1.47-1.18,3.41,3.41,0,0,1,1.79-.47,2.63,2.63,0,0,1,2.25,1,4.73,4.73,0,0,1,.71,2.84v6.16h-1.64V49a3.46,3.46,0,0,0-.44-2,1.62,1.62,0,0,0-1.4-.61,2.44,2.44,0,0,0-1.34.38,10.13,10.13,0,0,0-1.32,1.12v7Z"/><path d="M261.26,59.4a7.58,7.58,0,0,1-1.64-.17,4.18,4.18,0,0,1-1.27-.52,2.64,2.64,0,0,1-.82-.81,2.2,2.2,0,0,1-.29-1.12,2.07,2.07,0,0,1,.38-1.18,4.08,4.08,0,0,1,1-1v-.08a1.84,1.84,0,0,1-.61-.6,1.87,1.87,0,0,1-.25-1,1.83,1.83,0,0,1,.34-1.08,3.5,3.5,0,0,1,.72-.72V51A3.83,3.83,0,0,1,258,50a3,3,0,0,1-.39-1.55,3.45,3.45,0,0,1,.29-1.43,3.36,3.36,0,0,1,.79-1.09,3.65,3.65,0,0,1,1.17-.7,4.18,4.18,0,0,1,1.41-.24A3.52,3.52,0,0,1,262,45a4.11,4.11,0,0,1,.63.16H266v1.26h-2a2.74,2.74,0,0,1,.57.87,2.63,2.63,0,0,1,.23,1.13,3.35,3.35,0,0,1-.28,1.41,2.94,2.94,0,0,1-.76,1.06,3.38,3.38,0,0,1-1.13.68,4.18,4.18,0,0,1-1.39.23,2.77,2.77,0,0,1-.74-.09,3.07,3.07,0,0,1-.72-.25,2.87,2.87,0,0,0-.44.49,1.2,1.2,0,0,0-.18.67.94.94,0,0,0,.36.76,2.23,2.23,0,0,0,1.36.3h1.88a4.68,4.68,0,0,1,2.55.56,1.92,1.92,0,0,1,.85,1.76,2.54,2.54,0,0,1-.34,1.29,3.22,3.22,0,0,1-1,1.08,5.18,5.18,0,0,1-1.55.72A6.82,6.82,0,0,1,261.26,59.4Zm.24-1.15a4.2,4.2,0,0,0,1.27-.17,3.63,3.63,0,0,0,1-.43,2.17,2.17,0,0,0,.62-.63,1.38,1.38,0,0,0,.22-.74,1,1,0,0,0-.5-1,3.29,3.29,0,0,0-1.46-.26h-1.68a4.43,4.43,0,0,1-.61,0,2.5,2.5,0,0,1-.65-.13,3,3,0,0,0-.76.8,1.72,1.72,0,0,0-.24.85,1.39,1.39,0,0,0,.75,1.23A3.92,3.92,0,0,0,261.5,58.25Zm-.24-7.52a1.89,1.89,0,0,0,.79-.16,1.76,1.76,0,0,0,.66-.46,1.91,1.91,0,0,0,.45-.72,2.72,2.72,0,0,0,.16-1,2.25,2.25,0,0,0-.6-1.67,2.1,2.1,0,0,0-2.92,0,2.25,2.25,0,0,0-.6,1.67,3,3,0,0,0,.16,1,2.2,2.2,0,0,0,.45.72,2,2,0,0,0,1.45.62Z"/><path d="M272.06,59V45.19h1.36l.14,1.13h.06a7,7,0,0,1,1.45-1,3.6,3.6,0,0,1,1.65-.41,3.65,3.65,0,0,1,1.66.36,3.13,3.13,0,0,1,1.2,1,4.54,4.54,0,0,1,.73,1.55,7.62,7.62,0,0,1,.25,2,6.54,6.54,0,0,1-.34,2.21,5,5,0,0,1-.92,1.66,3.92,3.92,0,0,1-1.34,1,3.8,3.8,0,0,1-1.6.34,3.29,3.29,0,0,1-1.35-.29,7.7,7.7,0,0,1-1.35-.83l0,1.7V59Zm4-5.24a2.23,2.23,0,0,0,1.11-.28,2.55,2.55,0,0,0,.88-.76,3.5,3.5,0,0,0,.58-1.21,5.68,5.68,0,0,0,.21-1.62,6.7,6.7,0,0,0-.14-1.46,3.26,3.26,0,0,0-.45-1.13,2.06,2.06,0,0,0-.8-.72,2.35,2.35,0,0,0-1.17-.27,2.7,2.7,0,0,0-1.25.34,7.81,7.81,0,0,0-1.35,1v5.1a4.2,4.2,0,0,0,1.28.79A3.13,3.13,0,0,0,276.08,53.78Z"/><path d="M283.16,54.91V45.19h1.36l.14,1.76h.06a4.77,4.77,0,0,1,1.21-1.46,2.6,2.6,0,0,1,2.59-.34l-.32,1.45a2.08,2.08,0,0,0-.44-.12,2.35,2.35,0,0,0-.5,0,2.15,2.15,0,0,0-1.29.5,4.07,4.07,0,0,0-1.17,1.73v6.24Z"/><path d="M293.84,55.15a4.84,4.84,0,0,1-1.83-.34,4.55,4.55,0,0,1-1.48-1,4.71,4.71,0,0,1-1-1.6,5.93,5.93,0,0,1-.36-2.14,6.1,6.1,0,0,1,.37-2.15,5.09,5.09,0,0,1,1-1.6,4.1,4.1,0,0,1,1.39-1,3.82,3.82,0,0,1,1.62-.36,3.92,3.92,0,0,1,1.65.33,3.09,3.09,0,0,1,1.22.91,4.16,4.16,0,0,1,.75,1.45,6.06,6.06,0,0,1,.26,1.88c0,.17,0,.34,0,.51a1.73,1.73,0,0,1-.05.42H290.8a3.8,3.8,0,0,0,1,2.47,3,3,0,0,0,2.27.91,3.57,3.57,0,0,0,1.29-.21,5.37,5.37,0,0,0,1.13-.55l.58,1.08a8.55,8.55,0,0,1-1.42.71A4.92,4.92,0,0,1,293.84,55.15Zm-3.06-5.87H296a3.47,3.47,0,0,0-.63-2.25,2.15,2.15,0,0,0-1.77-.78,2.61,2.61,0,0,0-1,.2,2.83,2.83,0,0,0-.85.59,3.57,3.57,0,0,0-.63,1A4.77,4.77,0,0,0,290.78,49.28Z"/><path d="M300.1,54.91V46.53h-1.32V45.29l1.32-.1V43.65a3.68,3.68,0,0,1,.69-2.36,2.6,2.6,0,0,1,2.15-.85,3.47,3.47,0,0,1,.87.09,3.69,3.69,0,0,1,.75.22L304.2,42a2.66,2.66,0,0,0-1.1-.24c-.9,0-1.36.62-1.36,1.87v1.54h2.06v1.34h-2.06v8.38Z"/><path d="M309.4,55.15a4.84,4.84,0,0,1-1.83-.34,4.55,4.55,0,0,1-1.48-1,4.71,4.71,0,0,1-1-1.6,5.93,5.93,0,0,1-.36-2.14,6.1,6.1,0,0,1,.37-2.15,5.09,5.09,0,0,1,1-1.6,4.1,4.1,0,0,1,1.39-1A3.82,3.82,0,0,1,309.1,45a3.92,3.92,0,0,1,1.65.33,3.09,3.09,0,0,1,1.22.91,4.16,4.16,0,0,1,.75,1.45,6.06,6.06,0,0,1,.26,1.88c0,.17,0,.34,0,.51a1.73,1.73,0,0,1-.05.42h-6.56a3.8,3.8,0,0,0,1,2.47,3,3,0,0,0,2.27.91,3.57,3.57,0,0,0,1.29-.21,5.37,5.37,0,0,0,1.13-.55l.58,1.08a8.55,8.55,0,0,1-1.42.71A4.92,4.92,0,0,1,309.4,55.15Zm-3.06-5.87h5.2a3.47,3.47,0,0,0-.63-2.25,2.15,2.15,0,0,0-1.77-.78,2.61,2.61,0,0,0-1,.2,2.83,2.83,0,0,0-.85.59,3.57,3.57,0,0,0-.63,1A4.77,4.77,0,0,0,306.34,49.28Z"/><path d="M315.38,54.91V45.19h1.36l.14,1.76h.06a4.77,4.77,0,0,1,1.21-1.46,2.6,2.6,0,0,1,2.59-.34l-.32,1.45a2.08,2.08,0,0,0-.44-.12,2.35,2.35,0,0,0-.5,0,2.15,2.15,0,0,0-1.29.5A4.07,4.07,0,0,0,317,48.67v6.24Z"/><path d="M326.06,55.15a4.84,4.84,0,0,1-1.83-.34,4.55,4.55,0,0,1-1.48-1,4.71,4.71,0,0,1-1-1.6,5.93,5.93,0,0,1-.36-2.14,6.1,6.1,0,0,1,.37-2.15,5.09,5.09,0,0,1,1-1.6,4.1,4.1,0,0,1,1.39-1,3.82,3.82,0,0,1,1.62-.36,3.92,3.92,0,0,1,1.65.33,3.09,3.09,0,0,1,1.22.91,4.16,4.16,0,0,1,.75,1.45,6.06,6.06,0,0,1,.26,1.88c0,.17,0,.34,0,.51a1.73,1.73,0,0,1-.05.42H323a3.8,3.8,0,0,0,1,2.47,3,3,0,0,0,2.27.91,3.57,3.57,0,0,0,1.29-.21,5.37,5.37,0,0,0,1.13-.55l.58,1.08a8.55,8.55,0,0,1-1.42.71A4.92,4.92,0,0,1,326.06,55.15ZM323,49.28h5.2a3.47,3.47,0,0,0-.63-2.25,2.15,2.15,0,0,0-1.77-.78,2.61,2.61,0,0,0-1,.2A2.83,2.83,0,0,0,324,47a3.57,3.57,0,0,0-.63,1A4.77,4.77,0,0,0,323,49.28Z"/><path d="M332,54.91V45.19h1.36l.14,1.41h.06a8.36,8.36,0,0,1,1.47-1.18,3.41,3.41,0,0,1,1.79-.47,2.63,2.63,0,0,1,2.25,1,4.73,4.73,0,0,1,.71,2.84v6.16h-1.64V49a3.46,3.46,0,0,0-.44-2,1.62,1.62,0,0,0-1.4-.61,2.44,2.44,0,0,0-1.34.38,10.13,10.13,0,0,0-1.32,1.12v7Z"/><path d="M346.82,55.15a4.88,4.88,0,0,1-1.8-.33,4.06,4.06,0,0,1-1.45-1,4.82,4.82,0,0,1-1-1.59,6.35,6.35,0,0,1-.35-2.16,5.91,5.91,0,0,1,.38-2.17,5.15,5.15,0,0,1,1-1.61,4.54,4.54,0,0,1,1.49-1,4.91,4.91,0,0,1,1.79-.34,3.71,3.71,0,0,1,1.64.34,5.26,5.26,0,0,1,1.2.81l-.84,1.07a3.71,3.71,0,0,0-.89-.61,2.26,2.26,0,0,0-1.05-.24,2.79,2.79,0,0,0-1.22.26,2.87,2.87,0,0,0-1,.78,4,4,0,0,0-.63,1.18,5,5,0,0,0-.23,1.53,5.18,5.18,0,0,0,.22,1.53,3.82,3.82,0,0,0,.61,1.17,2.8,2.8,0,0,0,.95.76,2.93,2.93,0,0,0,1.22.26,2.62,2.62,0,0,0,1.25-.29,5,5,0,0,0,1-.68l.72,1.09a4.84,4.84,0,0,1-1.46.91A4.34,4.34,0,0,1,346.82,55.15Z"/><path d="M355.62,55.15a4.84,4.84,0,0,1-1.83-.34,4.55,4.55,0,0,1-1.48-1,4.71,4.71,0,0,1-1-1.6,5.93,5.93,0,0,1-.36-2.14,6.1,6.1,0,0,1,.37-2.15,5.09,5.09,0,0,1,1-1.6,4.1,4.1,0,0,1,1.39-1,3.82,3.82,0,0,1,1.62-.36,3.92,3.92,0,0,1,1.65.33,3.09,3.09,0,0,1,1.22.91,4.16,4.16,0,0,1,.75,1.45,6.06,6.06,0,0,1,.26,1.88c0,.17,0,.34,0,.51a1.73,1.73,0,0,1-.05.42h-6.56a3.8,3.8,0,0,0,1,2.47,3,3,0,0,0,2.27.91,3.57,3.57,0,0,0,1.29-.21,5.37,5.37,0,0,0,1.13-.55l.58,1.08a8.55,8.55,0,0,1-1.42.71A4.92,4.92,0,0,1,355.62,55.15Zm-3.06-5.87h5.2a3.47,3.47,0,0,0-.63-2.25,2.15,2.15,0,0,0-1.77-.78,2.61,2.61,0,0,0-1,.2,2.83,2.83,0,0,0-.85.59,3.57,3.57,0,0,0-.63,1A4.77,4.77,0,0,0,352.56,49.28Z"/><path d="M364.14,55.15a5.32,5.32,0,0,1-2-.37,6.74,6.74,0,0,1-1.64-1l.82-1.11a7.11,7.11,0,0,0,1.31.85,3.64,3.64,0,0,0,1.55.31,2.08,2.08,0,0,0,1.44-.43,1.43,1.43,0,0,0,.48-1.08,1.09,1.09,0,0,0-.2-.67,2.17,2.17,0,0,0-.51-.49,4.26,4.26,0,0,0-.71-.37l-.8-.31c-.34-.12-.69-.26-1-.41a4.37,4.37,0,0,1-.93-.57,3,3,0,0,1-.67-.76,2.12,2.12,0,0,1-.26-1.07,2.56,2.56,0,0,1,.89-2,3.53,3.53,0,0,1,1.05-.58,4.68,4.68,0,0,1,1.4-.21,4.21,4.21,0,0,1,1.69.33,4.91,4.91,0,0,1,1.33.78l-.78,1a4.84,4.84,0,0,0-1-.62,2.87,2.87,0,0,0-1.18-.25,1.88,1.88,0,0,0-1.35.42,1.38,1.38,0,0,0-.43,1,1,1,0,0,0,.18.59,1.68,1.68,0,0,0,.48.43,3.7,3.7,0,0,0,.69.34l.81.32,1.05.41a4.38,4.38,0,0,1,.95.55,2.74,2.74,0,0,1,.69.82,2.28,2.28,0,0,1,.27,1.15,2.61,2.61,0,0,1-.23,1.12,2.54,2.54,0,0,1-.68.92,3.12,3.12,0,0,1-1.12.63A4.48,4.48,0,0,1,364.14,55.15Z"/><path d="M173.63,99.07V86h7.56v1.4h-5.9v4.12h5v1.42h-5v4.76h6.1v1.42Z"/><path d="M184,99.07V89.35h1.36l.14,1.4h.06A6.36,6.36,0,0,1,187,89.58a3,3,0,0,1,1.63-.47A2.53,2.53,0,0,1,191.27,91a7.8,7.8,0,0,1,1.53-1.35,3,3,0,0,1,1.67-.51,2.63,2.63,0,0,1,2.23,1,4.7,4.7,0,0,1,.73,2.84v6.16h-1.64V93.13a3.51,3.51,0,0,0-.44-2,1.57,1.57,0,0,0-1.36-.61,3.59,3.59,0,0,0-2.44,1.5v7h-1.64V93.13a3.51,3.51,0,0,0-.44-2,1.59,1.59,0,0,0-1.38-.61,3.59,3.59,0,0,0-2.44,1.5v7Z"/><path d="M202.83,99.31a2.93,2.93,0,0,1-2-.72,2.59,2.59,0,0,1-.81-2,2.69,2.69,0,0,1,1.42-2.45A11.69,11.69,0,0,1,206,92.91a4.43,4.43,0,0,0-.09-.9,2.45,2.45,0,0,0-.31-.78,1.63,1.63,0,0,0-.61-.55,2.07,2.07,0,0,0-1-.21,4,4,0,0,0-1.58.32,6.85,6.85,0,0,0-1.32.72l-.64-1.14a10.18,10.18,0,0,1,1.66-.85,5.58,5.58,0,0,1,2.16-.41,3,3,0,0,1,2.58,1.09,4.85,4.85,0,0,1,.8,2.91v6h-1.36l-.14-1.16h-.06a8.11,8.11,0,0,1-1.5,1A3.79,3.79,0,0,1,202.83,99.31Zm.48-1.32a2.81,2.81,0,0,0,1.32-.33,6.67,6.67,0,0,0,1.32-1V94a16.24,16.24,0,0,0-2,.38,5.43,5.43,0,0,0-1.34.52,2,2,0,0,0-.74.69,1.57,1.57,0,0,0-.23.85,1.36,1.36,0,0,0,.5,1.2A2,2,0,0,0,203.31,98Z"/><path d="M211.51,87.35a1.16,1.16,0,0,1-.81-.3,1.05,1.05,0,0,1,0-1.53,1.28,1.28,0,0,1,1.62,0,1.05,1.05,0,0,1,0,1.53A1.16,1.16,0,0,1,211.51,87.35Zm-.84,11.72V89.35h1.64v9.72Z"/><path d="M217.33,99.31a1.53,1.53,0,0,1-1.34-.56,2.78,2.78,0,0,1-.4-1.64V84.83h1.64v12.4a.82.82,0,0,0,.14.56.4.4,0,0,0,.32.16h.15a.8.8,0,0,0,.21,0l.22,1.24a1.89,1.89,0,0,1-.38.12A3,3,0,0,1,217.33,99.31Z"/><path d="M173.63,144.11V131h3.74a9.64,9.64,0,0,1,2,.2,4.45,4.45,0,0,1,1.55.65,3.15,3.15,0,0,1,1,1.19,4.16,4.16,0,0,1,.36,1.82,4.28,4.28,0,0,1-.35,1.8,3.43,3.43,0,0,1-1,1.26,4.21,4.21,0,0,1-1.53.75,7.18,7.18,0,0,1-2,.25h-2.16v5.2Zm1.66-6.56h2a4.1,4.1,0,0,0,2.55-.65,2.44,2.44,0,0,0,.83-2.05,2.16,2.16,0,0,0-.87-2,5,5,0,0,0-2.59-.55h-1.88Z"/><path d="M188.09,144.35a4.31,4.31,0,0,1-1.71-.34,4,4,0,0,1-1.43-1,4.52,4.52,0,0,1-1-1.6,5.81,5.81,0,0,1-.37-2.15,5.91,5.91,0,0,1,.37-2.17,4.75,4.75,0,0,1,1-1.61,4.16,4.16,0,0,1,1.43-1,4.47,4.47,0,0,1,3.42,0,4.26,4.26,0,0,1,1.43,1,5.09,5.09,0,0,1,1,1.61,6.13,6.13,0,0,1,.37,2.17,6,6,0,0,1-.37,2.15,4.83,4.83,0,0,1-1,1.6,4.09,4.09,0,0,1-1.43,1A4.31,4.31,0,0,1,188.09,144.35Zm0-1.36a2.46,2.46,0,0,0,1.14-.27,2.68,2.68,0,0,0,.89-.76,3.75,3.75,0,0,0,.57-1.17,5.49,5.49,0,0,0,.2-1.52,5.61,5.61,0,0,0-.2-1.53,4.11,4.11,0,0,0-.57-1.19,2.71,2.71,0,0,0-.89-.77,2.46,2.46,0,0,0-1.14-.27,2.4,2.4,0,0,0-1.14.27,2.52,2.52,0,0,0-.89.77,3.65,3.65,0,0,0-.57,1.19,5.25,5.25,0,0,0-.2,1.53,5.13,5.13,0,0,0,.2,1.52,3.36,3.36,0,0,0,.57,1.17,2.5,2.5,0,0,0,.89.76A2.4,2.4,0,0,0,188.09,143Z"/><path d="M197.69,144.35a5.06,5.06,0,0,1-2-.38,5.86,5.86,0,0,1-1.64-1l.82-1.1a6,6,0,0,0,1.31.84,3.44,3.44,0,0,0,1.55.32,2,2,0,0,0,1.44-.44,1.4,1.4,0,0,0,.48-1.08,1.14,1.14,0,0,0-.2-.66,2.38,2.38,0,0,0-.51-.49,4.3,4.3,0,0,0-.71-.37l-.8-.32a10.2,10.2,0,0,1-1-.41,3.9,3.9,0,0,1-.93-.56,2.59,2.59,0,0,1-.67-.77,2,2,0,0,1-.26-1.06,2.54,2.54,0,0,1,.23-1.09,2.46,2.46,0,0,1,.66-.88,3.11,3.11,0,0,1,1.05-.58,4.34,4.34,0,0,1,1.4-.21,4.46,4.46,0,0,1,1.69.32,5.9,5.9,0,0,1,1.33.78l-.78,1a5.6,5.6,0,0,0-1-.62,2.9,2.9,0,0,0-1.18-.24,1.85,1.85,0,0,0-1.35.42,1.32,1.32,0,0,0-.43,1,1,1,0,0,0,.18.59,1.57,1.57,0,0,0,.48.44,3.7,3.7,0,0,0,.69.34l.81.31,1.05.42a4.22,4.22,0,0,1,.95.55,2.7,2.7,0,0,1,.69.81,2.34,2.34,0,0,1,.27,1.16,2.77,2.77,0,0,1-.23,1.12,2.66,2.66,0,0,1-.68.92,3.21,3.21,0,0,1-1.12.63A4.56,4.56,0,0,1,197.69,144.35Z"/><path d="M206.19,144.35a3.16,3.16,0,0,1-1.31-.24,2.2,2.2,0,0,1-.86-.66,2.53,2.53,0,0,1-.47-1,5.46,5.46,0,0,1-.14-1.32v-5.38H202v-1.24l1.52-.1.2-2.72h1.38v2.72h2.62v1.34h-2.62v5.4a2.46,2.46,0,0,0,.33,1.39,1.3,1.3,0,0,0,1.17.49,1.94,1.94,0,0,0,.56-.08,3.42,3.42,0,0,0,.54-.18L208,144a6.85,6.85,0,0,1-.87.25A3.8,3.8,0,0,1,206.19,144.35Z"/><path d="M176.35,187.75V176h-4v-1.4H182V176h-4v11.72Z"/><path d="M186.81,188a4.59,4.59,0,0,1-1.83-.35,4.17,4.17,0,0,1-1.48-1,4.57,4.57,0,0,1-1-1.59,5.93,5.93,0,0,1-.36-2.14,5.84,5.84,0,0,1,.37-2.15,4.89,4.89,0,0,1,1-1.61,4.28,4.28,0,0,1,1.39-1,4,4,0,0,1,1.62-.35,4.15,4.15,0,0,1,1.65.32,3.37,3.37,0,0,1,1.22.92,4.47,4.47,0,0,1,.75,1.44,6.47,6.47,0,0,1,.26,1.88c0,.18,0,.35,0,.51a4,4,0,0,1,0,.43h-6.56a3.75,3.75,0,0,0,1,2.47,3,3,0,0,0,2.27.91,3.88,3.88,0,0,0,1.29-.21,5.61,5.61,0,0,0,1.13-.55L190,187a8.16,8.16,0,0,1-1.42.7A5,5,0,0,1,186.81,188Zm-3.06-5.88H189a3.51,3.51,0,0,0-.63-2.25,2.17,2.17,0,0,0-1.77-.77,2.54,2.54,0,0,0-1,.2,2.6,2.6,0,0,0-.85.59,3,3,0,0,0-.63,1A4.15,4.15,0,0,0,183.75,182.11Z"/><path d="M194.53,188a1.51,1.51,0,0,1-1.34-.56,2.78,2.78,0,0,1-.4-1.64V173.51h1.64v12.4a.8.8,0,0,0,.14.56.4.4,0,0,0,.32.16H195a.8.8,0,0,0,.21,0l.22,1.24a1.13,1.13,0,0,1-.38.12A3,3,0,0,1,194.53,188Z"/><path d="M201.83,188a4.59,4.59,0,0,1-1.83-.35,4.17,4.17,0,0,1-1.48-1,4.57,4.57,0,0,1-1-1.59,5.93,5.93,0,0,1-.36-2.14,5.84,5.84,0,0,1,.37-2.15,4.89,4.89,0,0,1,1-1.61,4.28,4.28,0,0,1,1.39-1,4,4,0,0,1,1.62-.35,4.15,4.15,0,0,1,1.65.32,3.37,3.37,0,0,1,1.22.92,4.47,4.47,0,0,1,.75,1.44,6.47,6.47,0,0,1,.26,1.88c0,.18,0,.35,0,.51a4,4,0,0,1-.05.43h-6.56a3.75,3.75,0,0,0,1,2.47,3,3,0,0,0,2.27.91,3.88,3.88,0,0,0,1.29-.21,5.61,5.61,0,0,0,1.13-.55L205,187a8.16,8.16,0,0,1-1.42.7A5,5,0,0,1,201.83,188Zm-3.06-5.88H204a3.51,3.51,0,0,0-.63-2.25,2.17,2.17,0,0,0-1.77-.77,2.54,2.54,0,0,0-1,.2,2.6,2.6,0,0,0-.85.59,3,3,0,0,0-.63,1A4.15,4.15,0,0,0,198.77,182.11Z"/><path d="M207.81,191.85V178h1.36l.14,1.12h.06a7.6,7.6,0,0,1,1.45-1,3.65,3.65,0,0,1,1.65-.4,3.82,3.82,0,0,1,1.66.35,3.32,3.32,0,0,1,1.2,1,4.89,4.89,0,0,1,.73,1.56,8,8,0,0,1,.25,2.05A6.79,6.79,0,0,1,216,185a5.24,5.24,0,0,1-.92,1.65,3.86,3.86,0,0,1-1.34,1,3.69,3.69,0,0,1-1.6.35,3.23,3.23,0,0,1-1.35-.3,6.5,6.5,0,0,1-1.35-.82l0,1.7v3.28Zm4-5.24a2.34,2.34,0,0,0,1.11-.27,2.65,2.65,0,0,0,.88-.76,3.78,3.78,0,0,0,.58-1.21,5.78,5.78,0,0,0,.21-1.62,7.31,7.31,0,0,0-.14-1.46,3.61,3.61,0,0,0-.45-1.13,2.33,2.33,0,0,0-.8-.73,2.52,2.52,0,0,0-1.17-.26,2.67,2.67,0,0,0-1.25.34,7.81,7.81,0,0,0-1.35,1v5.1a4.09,4.09,0,0,0,1.28.79A3.05,3.05,0,0,0,211.83,186.61Z"/><path d="M218.91,187.75V173.51h1.64v3.88l-.06,2a9.07,9.07,0,0,1,1.46-1.13,3.33,3.33,0,0,1,1.78-.47,2.63,2.63,0,0,1,2.25,1,4.78,4.78,0,0,1,.71,2.84v6.16h-1.64v-5.94a3.51,3.51,0,0,0-.44-2,1.63,1.63,0,0,0-1.4-.61,2.39,2.39,0,0,0-1.34.38,9,9,0,0,0-1.32,1.12v7Z"/><path d="M233.57,188a4.31,4.31,0,0,1-1.71-.34,4,4,0,0,1-1.43-1,4.52,4.52,0,0,1-1-1.6,5.81,5.81,0,0,1-.37-2.15,5.91,5.91,0,0,1,.37-2.17,4.75,4.75,0,0,1,1-1.61,4.16,4.16,0,0,1,1.43-1,4.47,4.47,0,0,1,3.42,0,4.26,4.26,0,0,1,1.43,1,5.09,5.09,0,0,1,1,1.61,6.13,6.13,0,0,1,.37,2.17,6,6,0,0,1-.37,2.15,4.83,4.83,0,0,1-1,1.6,4.09,4.09,0,0,1-1.43,1A4.31,4.31,0,0,1,233.57,188Zm0-1.36a2.46,2.46,0,0,0,1.14-.27,2.68,2.68,0,0,0,.89-.76,3.75,3.75,0,0,0,.57-1.17,5.49,5.49,0,0,0,.2-1.52,5.61,5.61,0,0,0-.2-1.53,4.11,4.11,0,0,0-.57-1.19,2.71,2.71,0,0,0-.89-.77,2.46,2.46,0,0,0-1.14-.27,2.4,2.4,0,0,0-1.14.27,2.52,2.52,0,0,0-.89.77,3.65,3.65,0,0,0-.57,1.19,5.25,5.25,0,0,0-.2,1.53,5.13,5.13,0,0,0,.2,1.52,3.36,3.36,0,0,0,.57,1.17,2.5,2.5,0,0,0,.89.76A2.4,2.4,0,0,0,233.57,186.63Z"/><path d="M240.63,187.75V178H242l.14,1.4h.06a8,8,0,0,1,1.47-1.17,3.39,3.39,0,0,1,1.79-.47,2.63,2.63,0,0,1,2.25,1,4.78,4.78,0,0,1,.71,2.84v6.16h-1.64v-5.94a3.51,3.51,0,0,0-.44-2,1.63,1.63,0,0,0-1.4-.61,2.39,2.39,0,0,0-1.34.38,9,9,0,0,0-1.32,1.12v7Z"/><path d="M255.51,188a4.59,4.59,0,0,1-1.83-.35,4.3,4.3,0,0,1-1.49-1,4.41,4.41,0,0,1-1-1.59,5.93,5.93,0,0,1-.36-2.14,5.84,5.84,0,0,1,.37-2.15,5,5,0,0,1,1-1.61,4.32,4.32,0,0,1,1.4-1,3.93,3.93,0,0,1,1.62-.35,4.07,4.07,0,0,1,1.64.32,3.32,3.32,0,0,1,1.23.92,4.47,4.47,0,0,1,.75,1.44,6.47,6.47,0,0,1,.26,1.88c0,.18,0,.35,0,.51a2.34,2.34,0,0,1-.06.43h-6.55a3.7,3.7,0,0,0,1,2.47,3,3,0,0,0,2.27.91,3.88,3.88,0,0,0,1.29-.21,5.61,5.61,0,0,0,1.13-.55l.58,1.08a8.16,8.16,0,0,1-1.42.7A5,5,0,0,1,255.51,188Zm-3.07-5.88h5.21a3.51,3.51,0,0,0-.63-2.25,2.17,2.17,0,0,0-1.77-.77,2.54,2.54,0,0,0-1,.2,2.6,2.6,0,0,0-.85.59,3.24,3.24,0,0,0-.64,1A4.8,4.8,0,0,0,252.44,182.11Z"/><path id="Rectangle" class="cls-3" d="M142.62,76.35h0a16,16,0,0,1,16,16h0a16,16,0,0,1-16,16h0a16,16,0,0,1-16-16h0A16,16,0,0,1,142.62,76.35Z"/><path id="Rectangle-2" data-name="Rectangle" class="cls-4" d="M142.56,83.41h0a8.88,8.88,0,0,1,8.88,8.88h0a8.89,8.89,0,0,1-8.88,8.88h0a8.89,8.89,0,0,1-8.88-8.88h0A8.88,8.88,0,0,1,142.56,83.41Z"/><path id="Rectangle-3" data-name="Rectangle" class="cls-5" d="M142.62,120.81h0a16,16,0,0,1,16,16h0a16,16,0,0,1-16,16h0a16,16,0,0,1-16-16h0A16,16,0,0,1,142.62,120.81Z"/><path id="Rectangle-4" data-name="Rectangle" class="cls-5" d="M142.62,165.26h0a16,16,0,0,1,16,16h0a16,16,0,0,1-16,16h0a16,16,0,0,1-16-16h0A16,16,0,0,1,142.62,165.26Z"/></svg>