<?xml version="1.0" encoding="UTF-8"?>
<svg viewBox="0 0 500 200" version="1.1" xmlns="http://www.w3.org/2000/svg" xmlns:xlink="http://www.w3.org/1999/xlink">
    <title>Artboard</title>
    <g id="Artboard" stroke="none" stroke-width="1" fill="none" fill-rule="evenodd">
        <rect id="Rectangle" fill="#EE020A" fill-rule="nonzero" x="0" y="0" width="6" height="200"></rect>
        <rect id="Rectangle" fill="#F5F5F5" fill-rule="nonzero" x="6" y="0" width="495" height="200"></rect>
        <path d="M33.5,12 C25.0095541,12 18,18.9329073 18,27.5495208 C18,36.1661342 24.910828,43 33.5,43 C42.089172,43 49,36.0670927 49,27.4504792 C49,18.8338658 41.9904459,12 33.5,12 Z" id="Path" fill="#EE020A" fill-rule="nonzero"></path>
        <g id="Group" transform="translate(25.000000, 19.000000)" fill="#F5F5F5" fill-rule="nonzero">
            <rect id="Rectangle" transform="translate(8.909875, 8.364395) rotate(-45.000000) translate(-8.909875, -8.364395) " x="-1.0900291" y="6.71441082" width="19.9998082" height="3.29996835"></rect>
            <rect id="Rectangle" transform="translate(8.847765, 8.285095) rotate(-45.000000) translate(-8.847765, -8.285095) " x="7.19778082" y="-1.7148091" width="3.29996835" height="19.9998082"></rect>
        </g>
        <rect id="Rectangle" stroke="#6E7272" x="134.5" y="76.5" width="48" height="48" rx="6"></rect>
        <rect id="Rectangle" fill="#EE020A" opacity="0.136323475" x="122" y="64" width="73" height="73"></rect>
        <rect id="Rectangle" stroke="#EE020A" x="122.5" y="64.5" width="72" height="72"></rect>
        <path d="M206.152,108 L206.152,103.008 L208.864,99.816 L213.568,108 L215.8,108 L210.112,98.256 L215.032,92.256 L212.776,92.256 L206.224,100.152 L206.152,100.152 L206.152,92.256 L204.16,92.256 L204.16,108 L206.152,108 Z M222.424,108.288 C223.224,108.288 223.936,108.168 224.56,107.928 C225.184,107.688 225.752,107.408 226.264,107.088 L226.264,107.088 L225.568,105.792 C225.136,106.064 224.684,106.284 224.212,106.452 C223.74,106.62 223.224,106.704 222.664,106.704 C221.544,106.704 220.636,106.34 219.94,105.612 C219.244,104.884 218.856,103.896 218.776,102.648 L218.776,102.648 L226.648,102.648 C226.68,102.504 226.7,102.332 226.708,102.132 C226.716,101.932 226.72,101.728 226.72,101.52 C226.72,100.688 226.616,99.936 226.408,99.264 C226.2,98.592 225.9,98.016 225.508,97.536 C225.116,97.056 224.628,96.688 224.044,96.432 C223.46,96.176 222.8,96.048 222.064,96.048 C221.392,96.048 220.744,96.188 220.12,96.468 C219.496,96.748 218.94,97.152 218.452,97.68 C217.964,98.208 217.572,98.852 217.276,99.612 C216.98,100.372 216.832,101.232 216.832,102.192 C216.832,103.152 216.976,104.008 217.264,104.76 C217.552,105.512 217.948,106.148 218.452,106.668 C218.956,107.188 219.548,107.588 220.228,107.868 C220.908,108.148 221.64,108.288 222.424,108.288 Z M224.992,101.232 L218.752,101.232 C218.816,100.656 218.948,100.144 219.148,99.696 C219.348,99.248 219.6,98.868 219.904,98.556 C220.208,98.244 220.548,98.008 220.924,97.848 C221.3,97.688 221.696,97.608 222.112,97.608 C223.024,97.608 223.732,97.916 224.236,98.532 C224.74,99.148 224.992,100.048 224.992,101.232 L224.992,101.232 Z M234.328,108.288 C235.128,108.288 235.84,108.168 236.464,107.928 C237.088,107.688 237.656,107.408 238.168,107.088 L238.168,107.088 L237.472,105.792 C237.04,106.064 236.588,106.284 236.116,106.452 C235.644,106.62 235.128,106.704 234.568,106.704 C233.448,106.704 232.54,106.34 231.844,105.612 C231.148,104.884 230.76,103.896 230.68,102.648 L230.68,102.648 L238.552,102.648 C238.584,102.504 238.604,102.332 238.612,102.132 C238.62,101.932 238.624,101.728 238.624,101.52 C238.624,100.688 238.52,99.936 238.312,99.264 C238.104,98.592 237.804,98.016 237.412,97.536 C237.02,97.056 236.532,96.688 235.948,96.432 C235.364,96.176 234.704,96.048 233.968,96.048 C233.296,96.048 232.648,96.188 232.024,96.468 C231.4,96.748 230.844,97.152 230.356,97.68 C229.868,98.208 229.476,98.852 229.18,99.612 C228.884,100.372 228.736,101.232 228.736,102.192 C228.736,103.152 228.88,104.008 229.168,104.76 C229.456,105.512 229.852,106.148 230.356,106.668 C230.86,107.188 231.452,107.588 232.132,107.868 C232.812,108.148 233.544,108.288 234.328,108.288 Z M236.896,101.232 L230.656,101.232 C230.72,100.656 230.852,100.144 231.052,99.696 C231.252,99.248 231.504,98.868 231.808,98.556 C232.112,98.244 232.452,98.008 232.828,97.848 C233.204,97.688 233.6,97.608 234.016,97.608 C234.928,97.608 235.636,97.916 236.14,98.532 C236.644,99.148 236.896,100.048 236.896,101.232 L236.896,101.232 Z M243.472,112.92 L243.472,108.984 L243.424,106.944 C243.968,107.36 244.508,107.688 245.044,107.928 C245.58,108.168 246.12,108.288 246.664,108.288 C247.336,108.288 247.976,108.148 248.584,107.868 C249.192,107.588 249.728,107.176 250.192,106.632 C250.656,106.088 251.024,105.428 251.296,104.652 C251.568,103.876 251.704,102.992 251.704,102 C251.704,101.088 251.604,100.268 251.404,99.54 C251.204,98.812 250.912,98.188 250.528,97.668 C250.144,97.148 249.664,96.748 249.088,96.468 C248.512,96.188 247.848,96.048 247.096,96.048 C246.408,96.048 245.748,96.208 245.116,96.528 C244.484,96.848 243.904,97.232 243.376,97.68 L243.376,97.68 L243.304,97.68 L243.136,96.336 L241.504,96.336 L241.504,112.92 L243.472,112.92 Z M246.328,106.632 C245.944,106.632 245.504,106.54 245.008,106.356 C244.512,106.172 244,105.856 243.472,105.408 L243.472,105.408 L243.472,99.288 C244.048,98.776 244.588,98.384 245.092,98.112 C245.596,97.84 246.096,97.704 246.592,97.704 C247.136,97.704 247.604,97.808 247.996,98.016 C248.388,98.224 248.708,98.516 248.956,98.892 C249.204,99.268 249.384,99.72 249.496,100.248 C249.608,100.776 249.664,101.36 249.664,102 C249.664,102.72 249.58,103.368 249.412,103.944 C249.244,104.52 249.012,105.004 248.716,105.396 C248.42,105.788 248.068,106.092 247.66,106.308 C247.252,106.524 246.808,106.632 246.328,106.632 Z M261.592,108 L261.592,99.552 C262.664,98.352 263.64,97.752 264.52,97.752 C265.272,97.752 265.824,97.996 266.176,98.484 C266.528,98.972 266.704,99.768 266.704,100.872 L266.704,100.872 L266.704,108 L268.672,108 L268.672,99.552 C269.744,98.352 270.72,97.752 271.6,97.752 C272.336,97.752 272.88,97.996 273.232,98.484 C273.584,98.972 273.76,99.768 273.76,100.872 L273.76,100.872 L273.76,108 L275.728,108 L275.728,100.608 C275.728,99.104 275.436,97.968 274.852,97.2 C274.268,96.432 273.376,96.048 272.176,96.048 C271.456,96.048 270.788,96.252 270.172,96.66 C269.556,97.068 268.944,97.608 268.336,98.28 C268.096,97.576 267.724,97.028 267.22,96.636 C266.716,96.244 266.016,96.048 265.12,96.048 C264.416,96.048 263.764,96.236 263.164,96.612 C262.564,96.988 262.008,97.456 261.496,98.016 L261.496,98.016 L261.424,98.016 L261.256,96.336 L259.624,96.336 L259.624,108 L261.592,108 Z M284.248,108.288 C285.048,108.288 285.76,108.168 286.384,107.928 C287.008,107.688 287.576,107.408 288.088,107.088 L288.088,107.088 L287.392,105.792 C286.96,106.064 286.508,106.284 286.036,106.452 C285.564,106.62 285.048,106.704 284.488,106.704 C283.368,106.704 282.46,106.34 281.764,105.612 C281.068,104.884 280.68,103.896 280.6,102.648 L280.6,102.648 L288.472,102.648 C288.504,102.504 288.524,102.332 288.532,102.132 C288.54,101.932 288.544,101.728 288.544,101.52 C288.544,100.688 288.44,99.936 288.232,99.264 C288.024,98.592 287.724,98.016 287.332,97.536 C286.94,97.056 286.452,96.688 285.868,96.432 C285.284,96.176 284.624,96.048 283.888,96.048 C283.216,96.048 282.568,96.188 281.944,96.468 C281.32,96.748 280.764,97.152 280.276,97.68 C279.788,98.208 279.396,98.852 279.1,99.612 C278.804,100.372 278.656,101.232 278.656,102.192 C278.656,103.152 278.8,104.008 279.088,104.76 C279.376,105.512 279.772,106.148 280.276,106.668 C280.78,107.188 281.372,107.588 282.052,107.868 C282.732,108.148 283.464,108.288 284.248,108.288 Z M286.816,101.232 L280.576,101.232 C280.64,100.656 280.772,100.144 280.972,99.696 C281.172,99.248 281.424,98.868 281.728,98.556 C282.032,98.244 282.372,98.008 282.748,97.848 C283.124,97.688 283.52,97.608 283.936,97.608 C284.848,97.608 285.556,97.916 286.06,98.532 C286.564,99.148 286.816,100.048 286.816,101.232 L286.816,101.232 Z M299.272,108.288 C299.96,108.288 300.572,108.196 301.108,108.012 C301.644,107.828 302.092,107.576 302.452,107.256 C302.812,106.936 303.084,106.568 303.268,106.152 C303.452,105.736 303.544,105.288 303.544,104.808 C303.544,104.264 303.436,103.8 303.22,103.416 C303.004,103.032 302.728,102.708 302.392,102.444 C302.056,102.18 301.676,101.96 301.252,101.784 C300.828,101.608 300.408,101.44 299.992,101.28 C299.656,101.152 299.332,101.028 299.02,100.908 C298.708,100.788 298.432,100.652 298.192,100.5 C297.952,100.348 297.76,100.172 297.616,99.972 C297.472,99.772 297.4,99.536 297.4,99.264 C297.4,98.816 297.572,98.424 297.916,98.088 C298.26,97.752 298.8,97.584 299.536,97.584 C300.048,97.584 300.52,97.68 300.952,97.872 C301.384,98.064 301.8,98.312 302.2,98.616 L302.2,98.616 L303.136,97.368 C302.688,97 302.156,96.688 301.54,96.432 C300.924,96.176 300.248,96.048 299.512,96.048 C298.888,96.048 298.328,96.132 297.832,96.3 C297.336,96.468 296.916,96.7 296.572,96.996 C296.228,97.292 295.964,97.644 295.78,98.052 C295.596,98.46 295.504,98.896 295.504,99.36 C295.504,99.856 295.608,100.28 295.816,100.632 C296.024,100.984 296.292,101.292 296.62,101.556 C296.948,101.82 297.32,102.044 297.736,102.228 C298.152,102.412 298.568,102.576 298.984,102.72 L298.984,102.72 L299.944,103.104 C300.264,103.232 300.548,103.38 300.796,103.548 C301.044,103.716 301.248,103.912 301.408,104.136 C301.568,104.36 301.648,104.624 301.648,104.928 C301.648,105.44 301.456,105.872 301.072,106.224 C300.688,106.576 300.112,106.752 299.344,106.752 C298.64,106.752 298.02,106.624 297.484,106.368 C296.948,106.112 296.424,105.776 295.912,105.36 L295.912,105.36 L294.928,106.68 C295.488,107.144 296.144,107.528 296.896,107.832 C297.648,108.136 298.44,108.288 299.272,108.288 Z M307.288,93.936 C307.672,93.936 307.996,93.816 308.26,93.576 C308.524,93.336 308.656,93.032 308.656,92.664 C308.656,92.28 308.524,91.972 308.26,91.74 C307.996,91.508 307.672,91.392 307.288,91.392 C306.904,91.392 306.58,91.508 306.316,91.74 C306.052,91.972 305.92,92.28 305.92,92.664 C305.92,93.032 306.052,93.336 306.316,93.576 C306.58,93.816 306.904,93.936 307.288,93.936 Z M308.248,108 L308.248,96.336 L306.28,96.336 L306.28,108 L308.248,108 Z M316.12,113.376 C317.032,113.376 317.852,113.268 318.58,113.052 C319.308,112.836 319.928,112.544 320.44,112.176 C320.952,111.808 321.344,111.38 321.616,110.892 C321.888,110.404 322.024,109.888 322.024,109.344 C322.024,108.368 321.684,107.66 321.004,107.22 C320.324,106.78 319.304,106.56 317.944,106.56 L317.944,106.56 L315.688,106.56 C314.888,106.56 314.344,106.44 314.056,106.2 C313.768,105.96 313.624,105.656 313.624,105.288 C313.624,104.968 313.696,104.7 313.84,104.484 C313.984,104.268 314.16,104.072 314.368,103.896 C314.64,104.024 314.928,104.124 315.232,104.196 C315.536,104.268 315.832,104.304 316.12,104.304 C316.712,104.304 317.268,104.208 317.788,104.016 C318.308,103.824 318.76,103.556 319.144,103.212 C319.528,102.868 319.832,102.444 320.056,101.94 C320.28,101.436 320.392,100.872 320.392,100.248 C320.392,99.752 320.3,99.296 320.116,98.88 C319.932,98.464 319.704,98.12 319.432,97.848 L319.432,97.848 L321.832,97.848 L321.832,96.336 L317.776,96.336 C317.552,96.256 317.3,96.188 317.02,96.132 C316.74,96.076 316.44,96.048 316.12,96.048 C315.528,96.048 314.964,96.144 314.428,96.336 C313.892,96.528 313.424,96.804 313.024,97.164 C312.624,97.524 312.308,97.96 312.076,98.472 C311.844,98.984 311.728,99.56 311.728,100.2 C311.728,100.904 311.884,101.524 312.196,102.06 C312.508,102.596 312.856,103.024 313.24,103.344 L313.24,103.344 L313.24,103.44 C312.936,103.648 312.648,103.936 312.376,104.304 C312.104,104.672 311.968,105.104 311.968,105.6 C311.968,106.064 312.068,106.452 312.268,106.764 C312.468,107.076 312.712,107.32 313,107.496 L313,107.496 L313,107.592 C312.472,107.96 312.056,108.368 311.752,108.816 C311.448,109.264 311.296,109.736 311.296,110.232 C311.296,110.744 311.412,111.192 311.644,111.576 C311.876,111.96 312.204,112.288 312.628,112.56 C313.052,112.832 313.56,113.036 314.152,113.172 C314.744,113.308 315.4,113.376 316.12,113.376 Z M316.12,102.984 C315.784,102.984 315.468,102.92 315.172,102.792 C314.876,102.664 314.612,102.48 314.38,102.24 C314.148,102 313.968,101.708 313.84,101.364 C313.712,101.02 313.648,100.632 313.648,100.2 C313.648,99.336 313.888,98.668 314.368,98.196 C314.848,97.724 315.432,97.488 316.12,97.488 C316.808,97.488 317.392,97.724 317.872,98.196 C318.352,98.668 318.592,99.336 318.592,100.2 C318.592,100.632 318.528,101.02 318.4,101.364 C318.272,101.708 318.092,102 317.86,102.24 C317.628,102.48 317.364,102.664 317.068,102.792 C316.772,102.92 316.456,102.984 316.12,102.984 Z M316.408,112.008 C315.352,112.008 314.524,111.824 313.924,111.456 C313.324,111.088 313.024,110.592 313.024,109.968 C313.024,109.632 313.12,109.296 313.312,108.96 C313.504,108.624 313.808,108.304 314.224,108 C314.48,108.08 314.74,108.132 315.004,108.156 C315.268,108.18 315.512,108.192 315.736,108.192 L315.736,108.192 L317.752,108.192 C318.52,108.192 319.104,108.296 319.504,108.504 C319.904,108.712 320.104,109.088 320.104,109.632 C320.104,109.936 320.016,110.232 319.84,110.52 C319.664,110.808 319.416,111.06 319.096,111.276 C318.776,111.492 318.388,111.668 317.932,111.804 C317.476,111.94 316.968,112.008 316.408,112.008 Z M326.248,108 L326.248,99.552 C326.84,98.96 327.368,98.512 327.832,98.208 C328.296,97.904 328.832,97.752 329.44,97.752 C330.208,97.752 330.768,97.996 331.12,98.484 C331.472,98.972 331.648,99.768 331.648,100.872 L331.648,100.872 L331.648,108 L333.616,108 L333.616,100.608 C333.616,99.104 333.332,97.968 332.764,97.2 C332.196,96.432 331.296,96.048 330.064,96.048 C329.248,96.048 328.532,96.236 327.916,96.612 C327.3,96.988 326.712,97.456 326.152,98.016 L326.152,98.016 L326.08,98.016 L325.912,96.336 L324.28,96.336 L324.28,108 L326.248,108 Z M342.136,108.288 C342.936,108.288 343.648,108.168 344.272,107.928 C344.896,107.688 345.464,107.408 345.976,107.088 L345.976,107.088 L345.28,105.792 C344.848,106.064 344.396,106.284 343.924,106.452 C343.452,106.62 342.936,106.704 342.376,106.704 C341.256,106.704 340.348,106.34 339.652,105.612 C338.956,104.884 338.568,103.896 338.488,102.648 L338.488,102.648 L346.36,102.648 C346.392,102.504 346.412,102.332 346.42,102.132 C346.428,101.932 346.432,101.728 346.432,101.52 C346.432,100.688 346.328,99.936 346.12,99.264 C345.912,98.592 345.612,98.016 345.22,97.536 C344.828,97.056 344.34,96.688 343.756,96.432 C343.172,96.176 342.512,96.048 341.776,96.048 C341.104,96.048 340.456,96.188 339.832,96.468 C339.208,96.748 338.652,97.152 338.164,97.68 C337.676,98.208 337.284,98.852 336.988,99.612 C336.692,100.372 336.544,101.232 336.544,102.192 C336.544,103.152 336.688,104.008 336.976,104.76 C337.264,105.512 337.66,106.148 338.164,106.668 C338.668,107.188 339.26,107.588 339.94,107.868 C340.62,108.148 341.352,108.288 342.136,108.288 Z M344.704,101.232 L338.464,101.232 C338.528,100.656 338.66,100.144 338.86,99.696 C339.06,99.248 339.312,98.868 339.616,98.556 C339.92,98.244 340.26,98.008 340.636,97.848 C341.012,97.688 341.408,97.608 341.824,97.608 C342.736,97.608 343.444,97.916 343.948,98.532 C344.452,99.148 344.704,100.048 344.704,101.232 L344.704,101.232 Z M353.296,108.288 C353.984,108.288 354.628,108.124 355.228,107.796 C355.828,107.468 356.36,107.08 356.824,106.632 L356.824,106.632 L356.896,106.632 L357.064,108 L358.696,108 L358.696,90.912 L356.704,90.912 L356.704,95.4 L356.8,97.392 C356.288,96.976 355.784,96.648 355.288,96.408 C354.792,96.168 354.208,96.048 353.536,96.048 C352.864,96.048 352.224,96.192 351.616,96.48 C351.008,96.768 350.472,97.176 350.008,97.704 C349.544,98.232 349.172,98.876 348.892,99.636 C348.612,100.396 348.472,101.248 348.472,102.192 C348.472,104.144 348.908,105.648 349.78,106.704 C350.652,107.76 351.824,108.288 353.296,108.288 Z M353.728,106.632 C352.704,106.632 351.912,106.24 351.352,105.456 C350.792,104.672 350.512,103.576 350.512,102.168 C350.512,101.496 350.6,100.888 350.776,100.344 C350.952,99.8 351.192,99.332 351.496,98.94 C351.8,98.548 352.156,98.244 352.564,98.028 C352.972,97.812 353.408,97.704 353.872,97.704 C354.352,97.704 354.82,97.796 355.276,97.98 C355.732,98.164 356.208,98.48 356.704,98.928 L356.704,98.928 L356.704,105.024 C356.224,105.568 355.744,105.972 355.264,106.236 C354.784,106.5 354.272,106.632 353.728,106.632 Z M368.44,93.936 C368.824,93.936 369.148,93.816 369.412,93.576 C369.676,93.336 369.808,93.032 369.808,92.664 C369.808,92.28 369.676,91.972 369.412,91.74 C369.148,91.508 368.824,91.392 368.44,91.392 C368.056,91.392 367.732,91.508 367.468,91.74 C367.204,91.972 367.072,92.28 367.072,92.664 C367.072,93.032 367.204,93.336 367.468,93.576 C367.732,93.816 368.056,93.936 368.44,93.936 Z M369.4,108 L369.4,96.336 L367.432,96.336 L367.432,108 L369.4,108 Z M375.304,108 L375.304,99.552 C375.896,98.96 376.424,98.512 376.888,98.208 C377.352,97.904 377.888,97.752 378.496,97.752 C379.264,97.752 379.824,97.996 380.176,98.484 C380.528,98.972 380.704,99.768 380.704,100.872 L380.704,100.872 L380.704,108 L382.672,108 L382.672,100.608 C382.672,99.104 382.388,97.968 381.82,97.2 C381.252,96.432 380.352,96.048 379.12,96.048 C378.304,96.048 377.588,96.236 376.972,96.612 C376.356,96.988 375.768,97.456 375.208,98.016 L375.208,98.016 L375.136,98.016 L374.968,96.336 L373.336,96.336 L373.336,108 L375.304,108 Z" id="Keepmesignedin" fill="#000000" fill-rule="nonzero"></path>
    </g>
</svg>