<?xml version="1.0" encoding="UTF-8"?>
<svg viewBox="0 0 500 200" version="1.1" xmlns="http://www.w3.org/2000/svg" xmlns:xlink="http://www.w3.org/1999/xlink">
    <title>Artboard</title>
    <g id="Artboard" stroke="none" stroke-width="1" fill="none" fill-rule="evenodd">
        <rect id="Rectangle" fill="#EE020A" fill-rule="nonzero" x="0" y="0" width="6" height="200"></rect>
        <rect id="Rectangle" fill="#F5F5F5" fill-rule="nonzero" x="6" y="0" width="495" height="200"></rect>
        <rect id="Rectangle" fill="#EE020A" opacity="0.136323475" x="122" y="64" width="73" height="73"></rect>
        <path d="M33.5,12 C25.0095541,12 18,18.9329073 18,27.5495208 C18,36.1661342 24.910828,43 33.5,43 C42.089172,43 49,36.0670927 49,27.4504792 C49,18.8338658 41.9904459,12 33.5,12 Z" id="Path" fill="#EE020A" fill-rule="nonzero"></path>
        <g id="Group" transform="translate(25.000000, 19.000000)" fill="#F5F5F5" fill-rule="nonzero">
            <rect id="Rectangle" transform="translate(8.909875, 8.364395) rotate(-45.000000) translate(-8.909875, -8.364395) " x="-1.0900291" y="6.71441082" width="19.9998082" height="3.29996835"></rect>
            <rect id="Rectangle" transform="translate(8.847765, 8.285095) rotate(-45.000000) translate(-8.847765, -8.285095) " x="7.19778082" y="-1.7148091" width="3.29996835" height="19.9998082"></rect>
        </g>
        <rect id="Rectangle" stroke="#6E7272" x="134.5" y="76.5" width="48" height="48" rx="24"></rect>
        <rect id="Rectangle" stroke="#EE020A" x="122.5" y="64.5" width="72" height="72"></rect>
        <path d="M206.152,108 L206.152,101.352 L209.008,101.352 L212.8,108 L215.056,108 L211.048,101.136 C212.136,100.864 213,100.36 213.64,99.624 C214.28,98.888 214.6,97.904 214.6,96.672 C214.6,95.856 214.464,95.168 214.192,94.608 C213.92,94.048 213.54,93.592 213.052,93.24 C212.564,92.888 211.98,92.636 211.3,92.484 C210.62,92.332 209.88,92.256 209.08,92.256 L209.08,92.256 L204.16,92.256 L204.16,108 L206.152,108 Z M208.792,99.72 L206.152,99.72 L206.152,93.864 L208.792,93.864 C210.024,93.864 210.968,94.072 211.624,94.488 C212.28,94.904 212.608,95.632 212.608,96.672 C212.608,97.696 212.28,98.46 211.624,98.964 C210.968,99.468 210.024,99.72 208.792,99.72 L208.792,99.72 Z M220.216,108.288 C220.952,108.288 221.64,108.124 222.28,107.796 C222.92,107.468 223.52,107.072 224.08,106.608 L224.08,106.608 L224.152,106.608 L224.32,108 L225.952,108 L225.952,100.848 C225.952,99.392 225.632,98.228 224.992,97.356 C224.352,96.484 223.32,96.048 221.896,96.048 C220.952,96.048 220.088,96.212 219.304,96.54 C218.52,96.868 217.856,97.208 217.312,97.56 L217.312,97.56 L218.08,98.928 C218.544,98.608 219.072,98.32 219.664,98.064 C220.256,97.808 220.888,97.68 221.56,97.68 C222.04,97.68 222.436,97.764 222.748,97.932 C223.06,98.1 223.304,98.32 223.48,98.592 C223.656,98.864 223.78,99.176 223.852,99.528 C223.924,99.88 223.96,100.24 223.96,100.608 C221.464,100.88 219.648,101.356 218.512,102.036 C217.376,102.716 216.808,103.696 216.808,104.976 C216.808,106.032 217.132,106.848 217.78,107.424 C218.428,108 219.24,108.288 220.216,108.288 Z M220.792,106.704 C220.216,106.704 219.728,106.56 219.328,106.272 C218.928,105.984 218.728,105.504 218.728,104.832 C218.728,104.464 218.82,104.124 219.004,103.812 C219.188,103.5 219.484,103.224 219.892,102.984 C220.3,102.744 220.836,102.536 221.5,102.36 C222.164,102.184 222.984,102.032 223.96,101.904 L223.96,101.904 L223.96,105.144 C223.4,105.656 222.872,106.044 222.376,106.308 C221.88,106.572 221.352,106.704 220.792,106.704 Z M233.608,108.288 C234.296,108.288 234.94,108.124 235.54,107.796 C236.14,107.468 236.672,107.08 237.136,106.632 L237.136,106.632 L237.208,106.632 L237.376,108 L239.008,108 L239.008,90.912 L237.016,90.912 L237.016,95.4 L237.112,97.392 C236.6,96.976 236.096,96.648 235.6,96.408 C235.104,96.168 234.52,96.048 233.848,96.048 C233.176,96.048 232.536,96.192 231.928,96.48 C231.32,96.768 230.784,97.176 230.32,97.704 C229.856,98.232 229.484,98.876 229.204,99.636 C228.924,100.396 228.784,101.248 228.784,102.192 C228.784,104.144 229.22,105.648 230.092,106.704 C230.964,107.76 232.136,108.288 233.608,108.288 Z M234.04,106.632 C233.016,106.632 232.224,106.24 231.664,105.456 C231.104,104.672 230.824,103.576 230.824,102.168 C230.824,101.496 230.912,100.888 231.088,100.344 C231.264,99.8 231.504,99.332 231.808,98.94 C232.112,98.548 232.468,98.244 232.876,98.028 C233.284,97.812 233.72,97.704 234.184,97.704 C234.664,97.704 235.132,97.796 235.588,97.98 C236.044,98.164 236.52,98.48 237.016,98.928 L237.016,98.928 L237.016,105.024 C236.536,105.568 236.056,105.972 235.576,106.236 C235.096,106.5 234.584,106.632 234.04,106.632 Z M243.952,93.936 C244.336,93.936 244.66,93.816 244.924,93.576 C245.188,93.336 245.32,93.032 245.32,92.664 C245.32,92.28 245.188,91.972 244.924,91.74 C244.66,91.508 244.336,91.392 243.952,91.392 C243.568,91.392 243.244,91.508 242.98,91.74 C242.716,91.972 242.584,92.28 242.584,92.664 C242.584,93.032 242.716,93.336 242.98,93.576 C243.244,93.816 243.568,93.936 243.952,93.936 Z M244.912,108 L244.912,96.336 L242.944,96.336 L242.944,108 L244.912,108 Z M253.384,108.288 C254.104,108.288 254.788,108.152 255.436,107.88 C256.084,107.608 256.656,107.212 257.152,106.692 C257.648,106.172 258.044,105.532 258.34,104.772 C258.636,104.012 258.784,103.152 258.784,102.192 C258.784,101.216 258.636,100.348 258.34,99.588 C258.044,98.828 257.648,98.184 257.152,97.656 C256.656,97.128 256.084,96.728 255.436,96.456 C254.788,96.184 254.104,96.048 253.384,96.048 C252.664,96.048 251.98,96.184 251.332,96.456 C250.684,96.728 250.112,97.128 249.616,97.656 C249.12,98.184 248.724,98.828 248.428,99.588 C248.132,100.348 247.984,101.216 247.984,102.192 C247.984,103.152 248.132,104.012 248.428,104.772 C248.724,105.532 249.12,106.172 249.616,106.692 C250.112,107.212 250.684,107.608 251.332,107.88 C251.98,108.152 252.664,108.288 253.384,108.288 Z M253.384,106.656 C252.888,106.656 252.432,106.548 252.016,106.332 C251.6,106.116 251.244,105.812 250.948,105.42 C250.652,105.028 250.424,104.56 250.264,104.016 C250.104,103.472 250.024,102.864 250.024,102.192 C250.024,101.52 250.104,100.908 250.264,100.356 C250.424,99.804 250.652,99.328 250.948,98.928 C251.244,98.528 251.6,98.22 252.016,98.004 C252.432,97.788 252.888,97.68 253.384,97.68 C253.88,97.68 254.336,97.788 254.752,98.004 C255.168,98.22 255.524,98.528 255.82,98.928 C256.116,99.328 256.344,99.804 256.504,100.356 C256.664,100.908 256.744,101.52 256.744,102.192 C256.744,102.864 256.664,103.472 256.504,104.016 C256.344,104.56 256.116,105.028 255.82,105.42 C255.524,105.812 255.168,106.116 254.752,106.332 C254.336,106.548 253.88,106.656 253.384,106.656 Z M271.816,108.288 C272.488,108.288 273.128,108.148 273.736,107.868 C274.344,107.588 274.88,107.176 275.344,106.632 C275.808,106.088 276.176,105.424 276.448,104.64 C276.72,103.856 276.856,102.968 276.856,101.976 C276.856,101.08 276.756,100.268 276.556,99.54 C276.356,98.812 276.06,98.188 275.668,97.668 C275.276,97.148 274.792,96.748 274.216,96.468 C273.64,96.188 272.976,96.048 272.224,96.048 C271.568,96.048 270.928,96.204 270.304,96.516 C269.68,96.828 269.104,97.216 268.576,97.68 L268.576,97.68 L268.624,95.568 L268.624,90.912 L266.656,90.912 L266.656,108 L268.24,108 L268.408,106.8 L268.48,106.8 C268.992,107.264 269.54,107.628 270.124,107.892 C270.708,108.156 271.272,108.288 271.816,108.288 Z M271.48,106.632 C271.096,106.632 270.652,106.54 270.148,106.356 C269.644,106.172 269.136,105.856 268.624,105.408 L268.624,105.408 L268.624,99.288 C269.76,98.232 270.8,97.704 271.744,97.704 C272.288,97.704 272.756,97.808 273.148,98.016 C273.54,98.224 273.86,98.516 274.108,98.892 C274.356,99.268 274.536,99.72 274.648,100.248 C274.76,100.776 274.816,101.36 274.816,102 C274.816,102.72 274.732,103.368 274.564,103.944 C274.396,104.52 274.164,105.004 273.868,105.396 C273.572,105.788 273.22,106.092 272.812,106.308 C272.404,106.524 271.96,106.632 271.48,106.632 Z M283.336,108.288 C284.152,108.288 284.86,108.096 285.46,107.712 C286.06,107.328 286.632,106.816 287.176,106.176 L287.176,106.176 L287.248,106.176 L287.416,108 L289.048,108 L289.048,96.336 L287.08,96.336 L287.08,104.616 C286.52,105.304 286.008,105.804 285.544,106.116 C285.08,106.428 284.544,106.584 283.936,106.584 C283.168,106.584 282.612,106.34 282.268,105.852 C281.924,105.364 281.752,104.568 281.752,103.464 L281.752,103.464 L281.752,96.336 L279.76,96.336 L279.76,103.728 C279.76,105.232 280.044,106.368 280.612,107.136 C281.18,107.904 282.088,108.288 283.336,108.288 Z M296.656,108.288 C297.024,108.288 297.396,108.244 297.772,108.156 C298.148,108.068 298.496,107.968 298.816,107.856 L298.816,107.856 L298.432,106.368 C298.24,106.448 298.024,106.52 297.784,106.584 C297.544,106.648 297.32,106.68 297.112,106.68 C296.44,106.68 295.972,106.484 295.708,106.092 C295.444,105.7 295.312,105.144 295.312,104.424 L295.312,104.424 L295.312,97.944 L298.456,97.944 L298.456,96.336 L295.312,96.336 L295.312,93.072 L293.656,93.072 L293.416,96.336 L291.592,96.456 L291.592,97.944 L293.32,97.944 L293.32,104.4 C293.32,104.976 293.376,105.504 293.488,105.984 C293.6,106.464 293.788,106.872 294.052,107.208 C294.316,107.544 294.66,107.808 295.084,108 C295.508,108.192 296.032,108.288 296.656,108.288 Z M304.288,108.288 C304.656,108.288 305.028,108.244 305.404,108.156 C305.78,108.068 306.128,107.968 306.448,107.856 L306.448,107.856 L306.064,106.368 C305.872,106.448 305.656,106.52 305.416,106.584 C305.176,106.648 304.952,106.68 304.744,106.68 C304.072,106.68 303.604,106.484 303.34,106.092 C303.076,105.7 302.944,105.144 302.944,104.424 L302.944,104.424 L302.944,97.944 L306.088,97.944 L306.088,96.336 L302.944,96.336 L302.944,93.072 L301.288,93.072 L301.048,96.336 L299.224,96.456 L299.224,97.944 L300.952,97.944 L300.952,104.4 C300.952,104.976 301.008,105.504 301.12,105.984 C301.232,106.464 301.42,106.872 301.684,107.208 C301.948,107.544 302.292,107.808 302.716,108 C303.14,108.192 303.664,108.288 304.288,108.288 Z M312.928,108.288 C313.648,108.288 314.332,108.152 314.98,107.88 C315.628,107.608 316.2,107.212 316.696,106.692 C317.192,106.172 317.588,105.532 317.884,104.772 C318.18,104.012 318.328,103.152 318.328,102.192 C318.328,101.216 318.18,100.348 317.884,99.588 C317.588,98.828 317.192,98.184 316.696,97.656 C316.2,97.128 315.628,96.728 314.98,96.456 C314.332,96.184 313.648,96.048 312.928,96.048 C312.208,96.048 311.524,96.184 310.876,96.456 C310.228,96.728 309.656,97.128 309.16,97.656 C308.664,98.184 308.268,98.828 307.972,99.588 C307.676,100.348 307.528,101.216 307.528,102.192 C307.528,103.152 307.676,104.012 307.972,104.772 C308.268,105.532 308.664,106.172 309.16,106.692 C309.656,107.212 310.228,107.608 310.876,107.88 C311.524,108.152 312.208,108.288 312.928,108.288 Z M312.928,106.656 C312.432,106.656 311.976,106.548 311.56,106.332 C311.144,106.116 310.788,105.812 310.492,105.42 C310.196,105.028 309.968,104.56 309.808,104.016 C309.648,103.472 309.568,102.864 309.568,102.192 C309.568,101.52 309.648,100.908 309.808,100.356 C309.968,99.804 310.196,99.328 310.492,98.928 C310.788,98.528 311.144,98.22 311.56,98.004 C311.976,97.788 312.432,97.68 312.928,97.68 C313.424,97.68 313.88,97.788 314.296,98.004 C314.712,98.22 315.068,98.528 315.364,98.928 C315.66,99.328 315.888,99.804 316.048,100.356 C316.208,100.908 316.288,101.52 316.288,102.192 C316.288,102.864 316.208,103.472 316.048,104.016 C315.888,104.56 315.66,105.028 315.364,105.42 C315.068,105.812 314.712,106.116 314.296,106.332 C313.88,106.548 313.424,106.656 312.928,106.656 Z M323.368,108 L323.368,99.552 C323.96,98.96 324.488,98.512 324.952,98.208 C325.416,97.904 325.952,97.752 326.56,97.752 C327.328,97.752 327.888,97.996 328.24,98.484 C328.592,98.972 328.768,99.768 328.768,100.872 L328.768,100.872 L328.768,108 L330.736,108 L330.736,100.608 C330.736,99.104 330.452,97.968 329.884,97.2 C329.316,96.432 328.416,96.048 327.184,96.048 C326.368,96.048 325.652,96.236 325.036,96.612 C324.42,96.988 323.832,97.456 323.272,98.016 L323.272,98.016 L323.2,98.016 L323.032,96.336 L321.4,96.336 L321.4,108 L323.368,108 Z M341.416,108.288 C341.688,108.288 341.912,108.272 342.088,108.24 C342.264,108.208 342.416,108.16 342.544,108.096 L342.544,108.096 L342.28,106.608 C342.168,106.64 342.084,106.656 342.028,106.656 L342.028,106.656 L341.848,106.656 C341.704,106.656 341.576,106.592 341.464,106.464 C341.352,106.336 341.296,106.112 341.296,105.792 L341.296,105.792 L341.296,90.912 L339.328,90.912 L339.328,105.648 C339.328,106.512 339.488,107.168 339.808,107.616 C340.128,108.064 340.664,108.288 341.416,108.288 Z M348.136,108.288 C348.872,108.288 349.56,108.124 350.2,107.796 C350.84,107.468 351.44,107.072 352,106.608 L352,106.608 L352.072,106.608 L352.24,108 L353.872,108 L353.872,100.848 C353.872,99.392 353.552,98.228 352.912,97.356 C352.272,96.484 351.24,96.048 349.816,96.048 C348.872,96.048 348.008,96.212 347.224,96.54 C346.44,96.868 345.776,97.208 345.232,97.56 L345.232,97.56 L346,98.928 C346.464,98.608 346.992,98.32 347.584,98.064 C348.176,97.808 348.808,97.68 349.48,97.68 C349.96,97.68 350.356,97.764 350.668,97.932 C350.98,98.1 351.224,98.32 351.4,98.592 C351.576,98.864 351.7,99.176 351.772,99.528 C351.844,99.88 351.88,100.24 351.88,100.608 C349.384,100.88 347.568,101.356 346.432,102.036 C345.296,102.716 344.728,103.696 344.728,104.976 C344.728,106.032 345.052,106.848 345.7,107.424 C346.348,108 347.16,108.288 348.136,108.288 Z M348.712,106.704 C348.136,106.704 347.648,106.56 347.248,106.272 C346.848,105.984 346.648,105.504 346.648,104.832 C346.648,104.464 346.74,104.124 346.924,103.812 C347.108,103.5 347.404,103.224 347.812,102.984 C348.22,102.744 348.756,102.536 349.42,102.36 C350.084,102.184 350.904,102.032 351.88,101.904 L351.88,101.904 L351.88,105.144 C351.32,105.656 350.792,106.044 350.296,106.308 C349.8,106.572 349.272,106.704 348.712,106.704 Z M362.704,108.288 C363.376,108.288 364.016,108.148 364.624,107.868 C365.232,107.588 365.768,107.176 366.232,106.632 C366.696,106.088 367.064,105.424 367.336,104.64 C367.608,103.856 367.744,102.968 367.744,101.976 C367.744,101.08 367.644,100.268 367.444,99.54 C367.244,98.812 366.948,98.188 366.556,97.668 C366.164,97.148 365.68,96.748 365.104,96.468 C364.528,96.188 363.864,96.048 363.112,96.048 C362.456,96.048 361.816,96.204 361.192,96.516 C360.568,96.828 359.992,97.216 359.464,97.68 L359.464,97.68 L359.512,95.568 L359.512,90.912 L357.544,90.912 L357.544,108 L359.128,108 L359.296,106.8 L359.368,106.8 C359.88,107.264 360.428,107.628 361.012,107.892 C361.596,108.156 362.16,108.288 362.704,108.288 Z M362.368,106.632 C361.984,106.632 361.54,106.54 361.036,106.356 C360.532,106.172 360.024,105.856 359.512,105.408 L359.512,105.408 L359.512,99.288 C360.648,98.232 361.688,97.704 362.632,97.704 C363.176,97.704 363.644,97.808 364.036,98.016 C364.428,98.224 364.748,98.516 364.996,98.892 C365.244,99.268 365.424,99.72 365.536,100.248 C365.648,100.776 365.704,101.36 365.704,102 C365.704,102.72 365.62,103.368 365.452,103.944 C365.284,104.52 365.052,105.004 364.756,105.396 C364.46,105.788 364.108,106.092 363.7,106.308 C363.292,106.524 362.848,106.632 362.368,106.632 Z M375.544,108.288 C376.344,108.288 377.056,108.168 377.68,107.928 C378.304,107.688 378.872,107.408 379.384,107.088 L379.384,107.088 L378.688,105.792 C378.256,106.064 377.804,106.284 377.332,106.452 C376.86,106.62 376.344,106.704 375.784,106.704 C374.664,106.704 373.756,106.34 373.06,105.612 C372.364,104.884 371.976,103.896 371.896,102.648 L371.896,102.648 L379.768,102.648 C379.8,102.504 379.82,102.332 379.828,102.132 C379.836,101.932 379.84,101.728 379.84,101.52 C379.84,100.688 379.736,99.936 379.528,99.264 C379.32,98.592 379.02,98.016 378.628,97.536 C378.236,97.056 377.748,96.688 377.164,96.432 C376.58,96.176 375.92,96.048 375.184,96.048 C374.512,96.048 373.864,96.188 373.24,96.468 C372.616,96.748 372.06,97.152 371.572,97.68 C371.084,98.208 370.692,98.852 370.396,99.612 C370.1,100.372 369.952,101.232 369.952,102.192 C369.952,103.152 370.096,104.008 370.384,104.76 C370.672,105.512 371.068,106.148 371.572,106.668 C372.076,107.188 372.668,107.588 373.348,107.868 C374.028,108.148 374.76,108.288 375.544,108.288 Z M378.112,101.232 L371.872,101.232 C371.936,100.656 372.068,100.144 372.268,99.696 C372.468,99.248 372.72,98.868 373.024,98.556 C373.328,98.244 373.668,98.008 374.044,97.848 C374.42,97.688 374.816,97.608 375.232,97.608 C376.144,97.608 376.852,97.916 377.356,98.532 C377.86,99.148 378.112,100.048 378.112,101.232 L378.112,101.232 Z M384.808,108.288 C385.08,108.288 385.304,108.272 385.48,108.24 C385.656,108.208 385.808,108.16 385.936,108.096 L385.936,108.096 L385.672,106.608 C385.56,106.64 385.476,106.656 385.42,106.656 L385.42,106.656 L385.24,106.656 C385.096,106.656 384.968,106.592 384.856,106.464 C384.744,106.336 384.688,106.112 384.688,105.792 L384.688,105.792 L384.688,90.912 L382.72,90.912 L382.72,105.648 C382.72,106.512 382.88,107.168 383.2,107.616 C383.52,108.064 384.056,108.288 384.808,108.288 Z" id="Radiobuttonlabel" fill="#000000" fill-rule="nonzero"></path>
    </g>
</svg>