<?xml version="1.0" encoding="UTF-8"?>
<svg width="500px" height="240px" viewBox="0 0 500 240" version="1.1" xmlns="http://www.w3.org/2000/svg" xmlns:xlink="http://www.w3.org/1999/xlink">
    <!-- Generator: Sketch 63.1 (92452) - https://sketch.com -->
    <title>Artboard</title>
    <desc>Created with Sketch.</desc>
    <g id="Artboard" stroke="none" stroke-width="1" fill="none" fill-rule="evenodd">
        <rect id="Rectangle" fill="#EE020A" fill-rule="nonzero" x="0" y="0" width="6" height="300"></rect>
        <rect id="Rectangle" fill="#F5F5F5" fill-rule="nonzero" x="6" y="0" width="495" height="300"></rect>
        <path d="M33.5,12 C25.0095541,12 18,18.9329073 18,27.5495208 C18,36.1661342 24.910828,43 33.5,43 C42.089172,43 49,36.0670927 49,27.4504792 C49,18.8338658 41.9904459,12 33.5,12 Z" id="Path" fill="#EE020A" fill-rule="nonzero"></path>
        <g id="Group" transform="translate(25.000000, 19.000000)" fill="#F5F5F5" fill-rule="nonzero">
            <rect id="Rectangle" transform="translate(8.909875, 8.364395) rotate(-45.000000) translate(-8.909875, -8.364395) " x="-1.0900291" y="6.71441082" width="19.9998082" height="3.29996835"></rect>
            <rect id="Rectangle" transform="translate(8.847765, 8.285095) rotate(-45.000000) translate(-8.847765, -8.285095) " x="7.19778082" y="-1.7148091" width="3.29996835" height="19.9998082"></rect>
        </g>
        <rect id="Rectangle" fill="#000000" x="50" y="95" width="132" height="44" rx="3"></rect>
        <rect id="Rectangle" fill="#A1A0A1" x="190" y="95" width="132" height="44" rx="3"></rect>
        <rect id="Rectangle" fill="#000000" x="330" y="95" width="132" height="44" rx="3"></rect>
        <rect id="Rectangle" fill="#A1A0A1" x="330" y="147" width="132" height="44" rx="3"></rect>
        <rect id="Rectangle" fill="#A1A0A1" x="190" y="147" width="132" height="44" rx="3"></rect>
        <path d="M54.378,79 L54.378,72.994 L59.614,72.994 L59.614,70.838 L54.378,70.838 L54.378,66.768 L60.516,66.768 L60.516,64.612 L51.826,64.612 L51.826,79 L54.378,79 Z M66.896,79.264 C67.5706667,79.264 68.2196667,79.1393333 68.843,78.89 C69.4663333,78.6406667 70.0126667,78.274 70.482,77.79 C70.9513333,77.306 71.329,76.712 71.615,76.008 C71.901,75.304 72.044,74.5046667 72.044,73.61 C72.044,72.7153333 71.901,71.916 71.615,71.212 C71.329,70.508 70.9513333,69.914 70.482,69.43 C70.0126667,68.946 69.4663333,68.5756667 68.843,68.319 C68.2196667,68.0623333 67.5706667,67.934 66.896,67.934 C66.2213333,67.934 65.576,68.0623333 64.96,68.319 C64.344,68.5756667 63.7976667,68.946 63.321,69.43 C62.8443333,69.914 62.4666667,70.508 62.188,71.212 C61.9093333,71.916 61.77,72.7153333 61.77,73.61 C61.77,74.5046667 61.9093333,75.304 62.188,76.008 C62.4666667,76.712 62.8443333,77.306 63.321,77.79 C63.7976667,78.274 64.344,78.6406667 64.96,78.89 C65.576,79.1393333 66.2213333,79.264 66.896,79.264 Z M66.896,77.196 C66.104,77.196 65.4843333,76.8696667 65.037,76.217 C64.5896667,75.5643333 64.366,74.6953333 64.366,73.61 C64.366,72.51 64.5896667,71.6336667 65.037,70.981 C65.4843333,70.3283333 66.104,70.002 66.896,70.002 C67.688,70.002 68.3113333,70.3283333 68.766,70.981 C69.2206667,71.6336667 69.448,72.51 69.448,73.61 C69.448,74.6953333 69.2206667,75.5643333 68.766,76.217 C68.3113333,76.8696667 67.688,77.196 66.896,77.196 Z M77.016,79.264 C77.5733333,79.264 78.0206667,79.1906667 78.358,79.044 L78.358,79.044 L78.028,77.152 C77.9253333,77.1813333 77.8483333,77.196 77.797,77.196 L77.797,77.196 L77.632,77.196 C77.5,77.196 77.3753333,77.1336667 77.258,77.009 C77.1406667,76.8843333 77.082,76.668 77.082,76.36 L77.082,76.36 L77.082,63.468 L74.552,63.468 L74.552,76.228 C74.552,77.1666667 74.7353333,77.9073333 75.102,78.45 C75.4686667,78.9926667 76.1066667,79.264 77.016,79.264 Z M82.978,79.264 C83.5353333,79.264 83.9826667,79.1906667 84.32,79.044 L84.32,79.044 L83.99,77.152 C83.8873333,77.1813333 83.8103333,77.196 83.759,77.196 L83.759,77.196 L83.594,77.196 C83.462,77.196 83.3373333,77.1336667 83.22,77.009 C83.1026667,76.8843333 83.044,76.668 83.044,76.36 L83.044,76.36 L83.044,63.468 L80.514,63.468 L80.514,76.228 C80.514,77.1666667 80.6973333,77.9073333 81.064,78.45 C81.4306667,78.9926667 82.0686667,79.264 82.978,79.264 Z M90.898,79.264 C91.5726667,79.264 92.2216667,79.1393333 92.845,78.89 C93.4683333,78.6406667 94.0146667,78.274 94.484,77.79 C94.9533333,77.306 95.331,76.712 95.617,76.008 C95.903,75.304 96.046,74.5046667 96.046,73.61 C96.046,72.7153333 95.903,71.916 95.617,71.212 C95.331,70.508 94.9533333,69.914 94.484,69.43 C94.0146667,68.946 93.4683333,68.5756667 92.845,68.319 C92.2216667,68.0623333 91.5726667,67.934 90.898,67.934 C90.2233333,67.934 89.578,68.0623333 88.962,68.319 C88.346,68.5756667 87.7996667,68.946 87.323,69.43 C86.8463333,69.914 86.4686667,70.508 86.19,71.212 C85.9113333,71.916 85.772,72.7153333 85.772,73.61 C85.772,74.5046667 85.9113333,75.304 86.19,76.008 C86.4686667,76.712 86.8463333,77.306 87.323,77.79 C87.7996667,78.274 88.346,78.6406667 88.962,78.89 C89.578,79.1393333 90.2233333,79.264 90.898,79.264 Z M90.898,77.196 C90.106,77.196 89.4863333,76.8696667 89.039,76.217 C88.5916667,75.5643333 88.368,74.6953333 88.368,73.61 C88.368,72.51 88.5916667,71.6336667 89.039,70.981 C89.4863333,70.3283333 90.106,70.002 90.898,70.002 C91.69,70.002 92.3133333,70.3283333 92.768,70.981 C93.2226667,71.6336667 93.45,72.51 93.45,73.61 C93.45,74.6953333 93.2226667,75.5643333 92.768,76.217 C92.3133333,76.8696667 91.69,77.196 90.898,77.196 Z M103.108,79 L104.34,73.984 C104.457333,73.4706667 104.567333,72.9573333 104.67,72.444 C104.772667,71.9306667 104.875333,71.388 104.978,70.816 L104.978,70.816 L105.066,70.816 C105.183333,71.388 105.293333,71.927 105.396,72.433 C105.498667,72.939 105.608667,73.4486667 105.726,73.962 L105.726,73.962 L106.98,79 L109.994,79 L112.744,68.198 L110.368,68.198 L109.07,73.808 C108.967333,74.3213333 108.872,74.8346667 108.784,75.348 C108.696,75.8613333 108.600667,76.382 108.498,76.91 L108.498,76.91 L108.41,76.91 C108.292667,76.382 108.175333,75.8613333 108.058,75.348 C107.940667,74.8346667 107.816,74.3213333 107.684,73.808 L107.684,73.808 L106.254,68.198 L103.944,68.198 L102.536,73.808 C102.404,74.3213333 102.283,74.8346667 102.173,75.348 C102.063,75.8613333 101.956667,76.382 101.854,76.91 L101.854,76.91 L101.766,76.91 C101.663333,76.382 101.571667,75.8613333 101.491,75.348 C101.410333,74.8346667 101.311333,74.3213333 101.194,73.808 L101.194,73.808 L99.896,68.198 L97.344,68.198 L100.204,79 L103.108,79 Z M122.49,79.264 C123.238,79.264 123.887,79.0953333 124.437,78.758 C124.987,78.4206667 125.496667,77.9733333 125.966,77.416 L125.966,77.416 L126.032,77.416 L126.23,79 L128.298,79 L128.298,68.198 L125.768,68.198 L125.768,75.59 C125.357333,76.118 124.972333,76.4993333 124.613,76.734 C124.253667,76.9686667 123.839333,77.086 123.37,77.086 C122.783333,77.086 122.358,76.9026667 122.094,76.536 C121.83,76.1693333 121.698,75.5386667 121.698,74.644 L121.698,74.644 L121.698,68.198 L119.168,68.198 L119.168,74.974 C119.168,76.3526667 119.432,77.4123333 119.96,78.153 C120.488,78.8936667 121.331333,79.264 122.49,79.264 Z M134.04,83.268 L134.04,79.88 L133.974,78.076 C134.414,78.4573333 134.868667,78.7506667 135.338,78.956 C135.807333,79.1613333 136.276667,79.264 136.746,79.264 C137.347333,79.264 137.926667,79.132 138.484,78.868 C139.041333,78.604 139.532667,78.2263333 139.958,77.735 C140.383333,77.2436667 140.724333,76.635 140.981,75.909 C141.237667,75.183 141.366,74.358 141.366,73.434 C141.366,72.598 141.270667,71.8426667 141.08,71.168 C140.889333,70.4933333 140.610667,69.914 140.244,69.43 C139.877333,68.946 139.433667,68.5756667 138.913,68.319 C138.392333,68.0623333 137.794667,67.934 137.12,67.934 C136.518667,67.934 135.939333,68.0733333 135.382,68.352 C134.824667,68.6306667 134.318667,68.9606667 133.864,69.342 L133.864,69.342 L133.776,69.342 L133.6,68.198 L131.51,68.198 L131.51,83.268 L134.04,83.268 Z M136.218,77.174 C135.895333,77.174 135.550667,77.108 135.184,76.976 C134.817333,76.844 134.436,76.6093333 134.04,76.272 L134.04,76.272 L134.04,71.234 C134.861333,70.4273333 135.653333,70.024 136.416,70.024 C137.237333,70.024 137.831333,70.3246667 138.198,70.926 C138.564667,71.5273333 138.748,72.3706667 138.748,73.456 C138.748,74.688 138.506,75.6156667 138.022,76.239 C137.538,76.8623333 136.936667,77.174 136.218,77.174 Z M150.936,79.264 C151.581333,79.264 152.179,79.1246667 152.729,78.846 C153.279,78.5673333 153.796,78.2226667 154.28,77.812 L154.28,77.812 L154.368,77.812 L154.544,79 L156.634,79 L156.634,72.598 C156.634,71.0873333 156.300333,69.9323333 155.633,69.133 C154.965667,68.3336667 153.957333,67.934 152.608,67.934 C151.742667,67.934 150.936,68.0733333 150.188,68.352 C149.44,68.6306667 148.765333,68.9606667 148.164,69.342 L148.164,69.342 L149.088,71.036 C149.572,70.7426667 150.067,70.4933333 150.573,70.288 C151.079,70.0826667 151.596,69.98 152.124,69.98 C152.490667,69.98 152.798667,70.035 153.048,70.145 C153.297333,70.255 153.499,70.409 153.653,70.607 C153.807,70.805 153.917,71.0323333 153.983,71.289 C154.049,71.5456667 154.089333,71.8133333 154.104,72.092 C152.989333,72.2093333 152.032333,72.378 151.233,72.598 C150.433667,72.818 149.773667,73.0893333 149.253,73.412 C148.732333,73.7346667 148.351,74.1196667 148.109,74.567 C147.867,75.0143333 147.746,75.524 147.746,76.096 C147.746,77.0493333 148.039333,77.8156667 148.626,78.395 C149.212667,78.9743333 149.982667,79.264 150.936,79.264 Z M151.75,77.284 C151.295333,77.284 150.921333,77.174 150.628,76.954 C150.334667,76.734 150.188,76.382 150.188,75.898 C150.188,75.634 150.254,75.3846667 150.386,75.15 C150.518,74.9153333 150.738,74.7063333 151.046,74.523 C151.354,74.3396667 151.757333,74.1746667 152.256,74.028 C152.754667,73.8813333 153.370667,73.764 154.104,73.676 L154.104,73.676 L154.104,76.096 C153.693333,76.4773333 153.308333,76.7706667 152.949,76.976 C152.589667,77.1813333 152.19,77.284 151.75,77.284 Z M164.18,79.264 C164.796,79.264 165.408333,79.154 166.017,78.934 C166.625667,78.714 167.186667,78.384 167.7,77.944 L167.7,77.944 L166.666,76.272 C166.358,76.5213333 166.017,76.7376667 165.643,76.921 C165.269,77.1043333 164.869333,77.196 164.444,77.196 C163.593333,77.196 162.900333,76.8696667 162.365,76.217 C161.829667,75.5643333 161.562,74.6953333 161.562,73.61 C161.562,72.51 161.833333,71.6336667 162.376,70.981 C162.918667,70.3283333 163.63,70.002 164.51,70.002 C164.847333,70.002 165.159,70.0716667 165.445,70.211 C165.731,70.3503333 166.020667,70.5446667 166.314,70.794 L166.314,70.794 L167.546,69.144 C167.15,68.8066667 166.699,68.5206667 166.193,68.286 C165.687,68.0513333 165.082,67.934 164.378,67.934 C163.659333,67.934 162.973667,68.0623333 162.321,68.319 C161.668333,68.5756667 161.092667,68.946 160.594,69.43 C160.095333,69.914 159.699333,70.508 159.406,71.212 C159.112667,71.916 158.966,72.7153333 158.966,73.61 C158.966,74.5046667 159.098,75.304 159.362,76.008 C159.626,76.712 159.992667,77.306 160.462,77.79 C160.931333,78.274 161.485,78.6406667 162.123,78.89 C162.761,79.1393333 163.446667,79.264 164.18,79.264 Z M173.42,79.264 C173.845333,79.264 174.245,79.2236667 174.619,79.143 C174.993,79.0623333 175.326667,78.9706667 175.62,78.868 L175.62,78.868 L175.18,76.998 C175.018667,77.0713333 174.839,77.13 174.641,77.174 C174.443,77.218 174.248667,77.24 174.058,77.24 C173.046,77.24 172.54,76.6093333 172.54,75.348 L172.54,75.348 L172.54,70.2 L175.29,70.2 L175.29,68.198 L172.54,68.198 L172.54,65.25 L170.428,65.25 L170.12,68.198 L168.448,68.308 L168.448,70.2 L169.988,70.2 L169.988,75.348 C169.988,75.9346667 170.050333,76.4663333 170.175,76.943 C170.299667,77.4196667 170.497667,77.8303333 170.769,78.175 C171.040333,78.5196667 171.392333,78.7873333 171.825,78.978 C172.257667,79.1686667 172.789333,79.264 173.42,79.264 Z M178.832,66.306 C179.286667,66.306 179.660667,66.174 179.954,65.91 C180.247333,65.646 180.394,65.3013333 180.394,64.876 C180.394,64.4506667 180.247333,64.1023333 179.954,63.831 C179.660667,63.5596667 179.286667,63.424 178.832,63.424 C178.377333,63.424 178.003333,63.5596667 177.71,63.831 C177.416667,64.1023333 177.27,64.4506667 177.27,64.876 C177.27,65.3013333 177.416667,65.646 177.71,65.91 C178.003333,66.174 178.377333,66.306 178.832,66.306 Z M180.086,79 L180.086,68.198 L177.556,68.198 L177.556,79 L180.086,79 Z M187.742,79.264 C188.416667,79.264 189.065667,79.1393333 189.689,78.89 C190.312333,78.6406667 190.858667,78.274 191.328,77.79 C191.797333,77.306 192.175,76.712 192.461,76.008 C192.747,75.304 192.89,74.5046667 192.89,73.61 C192.89,72.7153333 192.747,71.916 192.461,71.212 C192.175,70.508 191.797333,69.914 191.328,69.43 C190.858667,68.946 190.312333,68.5756667 189.689,68.319 C189.065667,68.0623333 188.416667,67.934 187.742,67.934 C187.067333,67.934 186.422,68.0623333 185.806,68.319 C185.19,68.5756667 184.643667,68.946 184.167,69.43 C183.690333,69.914 183.312667,70.508 183.034,71.212 C182.755333,71.916 182.616,72.7153333 182.616,73.61 C182.616,74.5046667 182.755333,75.304 183.034,76.008 C183.312667,76.712 183.690333,77.306 184.167,77.79 C184.643667,78.274 185.19,78.6406667 185.806,78.89 C186.422,79.1393333 187.067333,79.264 187.742,79.264 Z M187.742,77.196 C186.95,77.196 186.330333,76.8696667 185.883,76.217 C185.435667,75.5643333 185.212,74.6953333 185.212,73.61 C185.212,72.51 185.435667,71.6336667 185.883,70.981 C186.330333,70.3283333 186.95,70.002 187.742,70.002 C188.534,70.002 189.157333,70.3283333 189.612,70.981 C190.066667,71.6336667 190.294,72.51 190.294,73.61 C190.294,74.6953333 190.066667,75.5643333 189.612,76.217 C189.157333,76.8696667 188.534,77.196 187.742,77.196 Z M197.928,79 L197.928,71.454 C198.382667,71.014 198.789667,70.6803333 199.149,70.453 C199.508333,70.2256667 199.922667,70.112 200.392,70.112 C200.993333,70.112 201.426,70.2953333 201.69,70.662 C201.954,71.0286667 202.086,71.6593333 202.086,72.554 L202.086,72.554 L202.086,79 L204.616,79 L204.616,72.224 C204.616,70.8453333 204.352,69.7856667 203.824,69.045 C203.296,68.3043333 202.452667,67.934 201.294,67.934 C200.546,67.934 199.889667,68.1026667 199.325,68.44 C198.760333,68.7773333 198.236,69.1806667 197.752,69.65 L197.752,69.65 L197.664,69.65 L197.488,68.198 L195.398,68.198 L195.398,79 L197.928,79 Z M210.732,79.264 C211.406667,79.264 212.008,79.176 212.536,79 C213.064,78.824 213.504,78.5856667 213.856,78.285 C214.208,77.9843333 214.475667,77.6323333 214.659,77.229 C214.842333,76.8256667 214.934,76.3893333 214.934,75.92 C214.934,75.4213333 214.842333,74.9923333 214.659,74.633 C214.475667,74.2736667 214.233667,73.9693333 213.933,73.72 C213.632333,73.4706667 213.298667,73.2616667 212.932,73.093 C212.565333,72.9243333 212.198667,72.774 211.832,72.642 C211.538667,72.5393333 211.256333,72.4366667 210.985,72.334 C210.713667,72.2313333 210.475333,72.1213333 210.27,72.004 C210.064667,71.8866667 209.899667,71.751 209.775,71.597 C209.650333,71.443 209.588,71.256 209.588,71.036 C209.588,70.6986667 209.716333,70.4163333 209.973,70.189 C210.229667,69.9616667 210.629333,69.848 211.172,69.848 C211.597333,69.848 212.004333,69.9323333 212.393,70.101 C212.781667,70.2696667 213.166667,70.4933333 213.548,70.772 L213.548,70.772 L214.714,69.232 C214.274,68.8946667 213.753333,68.594 213.152,68.33 C212.550667,68.066 211.876,67.934 211.128,67.934 C209.910667,67.934 208.95,68.2346667 208.246,68.836 C207.542,69.4373333 207.19,70.2146667 207.19,71.168 C207.19,71.6226667 207.281667,72.015 207.465,72.345 C207.648333,72.675 207.883,72.9646667 208.169,73.214 C208.455,73.4633333 208.781333,73.676 209.148,73.852 C209.514667,74.028 209.874,74.182 210.226,74.314 C210.504667,74.4313333 210.783333,74.545 211.062,74.655 C211.340667,74.765 211.59,74.886 211.81,75.018 C212.03,75.15 212.206,75.3003333 212.338,75.469 C212.47,75.6376667 212.536,75.832 212.536,76.052 C212.536,76.4333333 212.396667,76.745 212.118,76.987 C211.839333,77.229 211.406667,77.35 210.82,77.35 C210.262667,77.35 209.745667,77.2436667 209.269,77.031 C208.792333,76.8183333 208.312,76.5213333 207.828,76.14 L207.828,76.14 L206.64,77.768 C207.168,78.1933333 207.795,78.549 208.521,78.835 C209.247,79.121 209.984,79.264 210.732,79.264 Z" id="Followupactions" fill="#000000" fill-rule="nonzero"></path>
        <path d="M89.184,122 L89.184,118.16 L90.688,118.16 C91.2533333,118.16 91.7786667,118.093333 92.264,117.96 C92.7493333,117.826667 93.1706667,117.618667 93.528,117.336 C93.8853333,117.053333 94.1653333,116.698667 94.368,116.272 C94.5706667,115.845333 94.672,115.344 94.672,114.768 C94.672,114.16 94.5706667,113.650667 94.368,113.24 C94.1653333,112.829333 93.8826667,112.496 93.52,112.24 C93.1573333,111.984 92.728,111.802667 92.232,111.696 C91.736,111.589333 91.2,111.536 90.624,111.536 L90.624,111.536 L87.328,111.536 L87.328,122 L89.184,122 Z M90.544,116.672 L89.184,116.672 L89.184,113.024 L90.48,113.024 C91.2586667,113.024 91.848,113.149333 92.248,113.4 C92.648,113.650667 92.848,114.106667 92.848,114.768 C92.848,116.037333 92.08,116.672 90.544,116.672 L90.544,116.672 Z M97.776,122.192 C98.2453333,122.192 98.68,122.090667 99.08,121.888 C99.48,121.685333 99.856,121.434667 100.208,121.136 L100.208,121.136 L100.272,121.136 L100.4,122 L101.92,122 L101.92,117.344 C101.92,116.245333 101.677333,115.405333 101.192,114.824 C100.706667,114.242667 99.9733333,113.952 98.992,113.952 C98.3626667,113.952 97.776,114.053333 97.232,114.256 C96.688,114.458667 96.1973333,114.698667 95.76,114.976 L95.76,114.976 L96.432,116.208 C96.784,115.994667 97.144,115.813333 97.512,115.664 C97.88,115.514667 98.256,115.44 98.64,115.44 C98.9066667,115.44 99.1306667,115.48 99.312,115.56 C99.4933333,115.64 99.64,115.752 99.752,115.896 C99.864,116.04 99.944,116.205333 99.992,116.392 C100.04,116.578667 100.069333,116.773333 100.08,116.976 C99.2693333,117.061333 98.5733333,117.184 97.992,117.344 C97.4106667,117.504 96.9306667,117.701333 96.552,117.936 C96.1733333,118.170667 95.896,118.450667 95.72,118.776 C95.544,119.101333 95.456,119.472 95.456,119.888 C95.456,120.581333 95.6693333,121.138667 96.096,121.56 C96.5226667,121.981333 97.0826667,122.192 97.776,122.192 Z M98.368,120.752 C98.0373333,120.752 97.7653333,120.672 97.552,120.512 C97.3386667,120.352 97.232,120.096 97.232,119.744 C97.232,119.552 97.28,119.370667 97.376,119.2 C97.472,119.029333 97.632,118.877333 97.856,118.744 C98.08,118.610667 98.3733333,118.490667 98.736,118.384 C99.0986667,118.277333 99.5466667,118.192 100.08,118.128 L100.08,118.128 L100.08,119.888 C99.7813333,120.165333 99.5013333,120.378667 99.24,120.528 C98.9786667,120.677333 98.688,120.752 98.368,120.752 Z M106.32,122.192 C106.810667,122.192 107.248,122.128 107.632,122 C108.016,121.872 108.336,121.698667 108.592,121.48 C108.848,121.261333 109.042667,121.005333 109.176,120.712 C109.309333,120.418667 109.376,120.101333 109.376,119.76 C109.376,119.397333 109.309333,119.085333 109.176,118.824 C109.042667,118.562667 108.866667,118.341333 108.648,118.16 C108.429333,117.978667 108.186667,117.826667 107.92,117.704 C107.653333,117.581333 107.386667,117.472 107.12,117.376 C106.906667,117.301333 106.701333,117.226667 106.504,117.152 C106.306667,117.077333 106.133333,116.997333 105.984,116.912 C105.834667,116.826667 105.714667,116.728 105.624,116.616 C105.533333,116.504 105.488,116.368 105.488,116.208 C105.488,115.962667 105.581333,115.757333 105.768,115.592 C105.954667,115.426667 106.245333,115.344 106.64,115.344 C106.949333,115.344 107.245333,115.405333 107.528,115.528 C107.810667,115.650667 108.090667,115.813333 108.368,116.016 L108.368,116.016 L109.216,114.896 C108.896,114.650667 108.517333,114.432 108.08,114.24 C107.642667,114.048 107.152,113.952 106.608,113.952 C105.722667,113.952 105.024,114.170667 104.512,114.608 C104,115.045333 103.744,115.610667 103.744,116.304 C103.744,116.634667 103.810667,116.92 103.944,117.16 C104.077333,117.4 104.248,117.610667 104.456,117.792 C104.664,117.973333 104.901333,118.128 105.168,118.256 C105.434667,118.384 105.696,118.496 105.952,118.592 C106.154667,118.677333 106.357333,118.76 106.56,118.84 C106.762667,118.92 106.944,119.008 107.104,119.104 C107.264,119.2 107.392,119.309333 107.488,119.432 C107.584,119.554667 107.632,119.696 107.632,119.856 C107.632,120.133333 107.530667,120.36 107.328,120.536 C107.125333,120.712 106.810667,120.8 106.384,120.8 C105.978667,120.8 105.602667,120.722667 105.256,120.568 C104.909333,120.413333 104.56,120.197333 104.208,119.92 L104.208,119.92 L103.344,121.104 C103.728,121.413333 104.184,121.672 104.712,121.88 C105.24,122.088 105.776,122.192 106.32,122.192 Z M113.216,122.192 C113.706667,122.192 114.144,122.128 114.528,122 C114.912,121.872 115.232,121.698667 115.488,121.48 C115.744,121.261333 115.938667,121.005333 116.072,120.712 C116.205333,120.418667 116.272,120.101333 116.272,119.76 C116.272,119.397333 116.205333,119.085333 116.072,118.824 C115.938667,118.562667 115.762667,118.341333 115.544,118.16 C115.325333,117.978667 115.082667,117.826667 114.816,117.704 C114.549333,117.581333 114.282667,117.472 114.016,117.376 C113.802667,117.301333 113.597333,117.226667 113.4,117.152 C113.202667,117.077333 113.029333,116.997333 112.88,116.912 C112.730667,116.826667 112.610667,116.728 112.52,116.616 C112.429333,116.504 112.384,116.368 112.384,116.208 C112.384,115.962667 112.477333,115.757333 112.664,115.592 C112.850667,115.426667 113.141333,115.344 113.536,115.344 C113.845333,115.344 114.141333,115.405333 114.424,115.528 C114.706667,115.650667 114.986667,115.813333 115.264,116.016 L115.264,116.016 L116.112,114.896 C115.792,114.650667 115.413333,114.432 114.976,114.24 C114.538667,114.048 114.048,113.952 113.504,113.952 C112.618667,113.952 111.92,114.170667 111.408,114.608 C110.896,115.045333 110.64,115.610667 110.64,116.304 C110.64,116.634667 110.706667,116.92 110.84,117.16 C110.973333,117.4 111.144,117.610667 111.352,117.792 C111.56,117.973333 111.797333,118.128 112.064,118.256 C112.330667,118.384 112.592,118.496 112.848,118.592 C113.050667,118.677333 113.253333,118.76 113.456,118.84 C113.658667,118.92 113.84,119.008 114,119.104 C114.16,119.2 114.288,119.309333 114.384,119.432 C114.48,119.554667 114.528,119.696 114.528,119.856 C114.528,120.133333 114.426667,120.36 114.224,120.536 C114.021333,120.712 113.706667,120.8 113.28,120.8 C112.874667,120.8 112.498667,120.722667 112.152,120.568 C111.805333,120.413333 111.456,120.197333 111.104,119.92 L111.104,119.92 L110.24,121.104 C110.624,121.413333 111.08,121.672 111.608,121.88 C112.136,122.088 112.672,122.192 113.216,122.192 Z M119.76,125.104 L119.76,122.64 L119.712,121.328 C120.032,121.605333 120.362667,121.818667 120.704,121.968 C121.045333,122.117333 121.386667,122.192 121.728,122.192 C122.165333,122.192 122.586667,122.096 122.992,121.904 C123.397333,121.712 123.754667,121.437333 124.064,121.08 C124.373333,120.722667 124.621333,120.28 124.808,119.752 C124.994667,119.224 125.088,118.624 125.088,117.952 C125.088,117.344 125.018667,116.794667 124.88,116.304 C124.741333,115.813333 124.538667,115.392 124.272,115.04 C124.005333,114.688 123.682667,114.418667 123.304,114.232 C122.925333,114.045333 122.490667,113.952 122,113.952 C121.562667,113.952 121.141333,114.053333 120.736,114.256 C120.330667,114.458667 119.962667,114.698667 119.632,114.976 L119.632,114.976 L119.568,114.976 L119.44,114.144 L117.92,114.144 L117.92,125.104 L119.76,125.104 Z M121.344,120.672 C121.109333,120.672 120.858667,120.624 120.592,120.528 C120.325333,120.432 120.048,120.261333 119.76,120.016 L119.76,120.016 L119.76,116.352 C120.357333,115.765333 120.933333,115.472 121.488,115.472 C122.085333,115.472 122.517333,115.690667 122.784,116.128 C123.050667,116.565333 123.184,117.178667 123.184,117.968 C123.184,118.864 123.008,119.538667 122.656,119.992 C122.304,120.445333 121.866667,120.672 121.344,120.672 Z M130.16,122.192 C130.650667,122.192 131.122667,122.101333 131.576,121.92 C132.029333,121.738667 132.426667,121.472 132.768,121.12 C133.109333,120.768 133.384,120.336 133.592,119.824 C133.8,119.312 133.904,118.730667 133.904,118.08 C133.904,117.429333 133.8,116.848 133.592,116.336 C133.384,115.824 133.109333,115.392 132.768,115.04 C132.426667,114.688 132.029333,114.418667 131.576,114.232 C131.122667,114.045333 130.650667,113.952 130.16,113.952 C129.669333,113.952 129.2,114.045333 128.752,114.232 C128.304,114.418667 127.906667,114.688 127.56,115.04 C127.213333,115.392 126.938667,115.824 126.736,116.336 C126.533333,116.848 126.432,117.429333 126.432,118.08 C126.432,118.730667 126.533333,119.312 126.736,119.824 C126.938667,120.336 127.213333,120.768 127.56,121.12 C127.906667,121.472 128.304,121.738667 128.752,121.92 C129.2,122.101333 129.669333,122.192 130.16,122.192 Z M130.16,120.688 C129.584,120.688 129.133333,120.450667 128.808,119.976 C128.482667,119.501333 128.32,118.869333 128.32,118.08 C128.32,117.28 128.482667,116.642667 128.808,116.168 C129.133333,115.693333 129.584,115.456 130.16,115.456 C130.736,115.456 131.189333,115.693333 131.52,116.168 C131.850667,116.642667 132.016,117.28 132.016,118.08 C132.016,118.869333 131.850667,119.501333 131.52,119.976 C131.189333,120.450667 130.736,120.688 130.16,120.688 Z M137.568,122 L137.568,117.2 C137.813333,116.602667 138.106667,116.184 138.448,115.944 C138.789333,115.704 139.114667,115.584 139.424,115.584 C139.594667,115.584 139.738667,115.594667 139.856,115.616 C139.973333,115.637333 140.101333,115.669333 140.24,115.712 L140.24,115.712 L140.56,114.112 C140.336,114.005333 140.037333,113.952 139.664,113.952 C139.248,113.952 138.842667,114.088 138.448,114.36 C138.053333,114.632 137.717333,115.024 137.44,115.536 L137.44,115.536 L137.376,115.536 L137.248,114.144 L135.728,114.144 L135.728,122 L137.568,122 Z M144.464,122.192 C144.773333,122.192 145.064,122.162667 145.336,122.104 C145.608,122.045333 145.850667,121.978667 146.064,121.904 L146.064,121.904 L145.744,120.544 C145.626667,120.597333 145.496,120.64 145.352,120.672 C145.208,120.704 145.066667,120.72 144.928,120.72 C144.192,120.72 143.824,120.261333 143.824,119.344 L143.824,119.344 L143.824,115.6 L145.824,115.6 L145.824,114.144 L143.824,114.144 L143.824,112 L142.288,112 L142.064,114.144 L140.848,114.224 L140.848,115.6 L141.968,115.6 L141.968,119.344 C141.968,119.770667 142.013333,120.157333 142.104,120.504 C142.194667,120.850667 142.338667,121.149333 142.536,121.4 C142.733333,121.650667 142.989333,121.845333 143.304,121.984 C143.618667,122.122667 144.005333,122.192 144.464,122.192 Z" id="Passport" fill="#FFFFFF" fill-rule="nonzero"></path>
        <path d="M228.792,123 L228.792,121.432 L224.184,121.432 L224.184,118.344 L227.944,118.344 L227.944,116.776 L224.184,116.776 L224.184,114.104 L228.632,114.104 L228.632,112.536 L222.328,112.536 L222.328,123 L228.792,123 Z M232.616,123 L232.616,117.512 C233.224,116.861333 233.773333,116.536 234.264,116.536 C234.68,116.536 234.986667,116.669333 235.184,116.936 C235.381333,117.202667 235.48,117.661333 235.48,118.312 L235.48,118.312 L235.48,123 L237.32,123 L237.32,117.512 C237.928,116.861333 238.477333,116.536 238.968,116.536 C239.373333,116.536 239.674667,116.669333 239.872,116.936 C240.069333,117.202667 240.168,117.661333 240.168,118.312 L240.168,118.312 L240.168,123 L242.024,123 L242.024,118.072 C242.024,117.069333 241.826667,116.298667 241.432,115.76 C241.037333,115.221333 240.424,114.952 239.592,114.952 C239.090667,114.952 238.637333,115.085333 238.232,115.352 C237.826667,115.618667 237.437333,115.954667 237.064,116.36 C236.882667,115.912 236.618667,115.565333 236.272,115.32 C235.925333,115.074667 235.464,114.952 234.888,114.952 C234.397333,114.952 233.957333,115.074667 233.568,115.32 C233.178667,115.565333 232.818667,115.864 232.488,116.216 L232.488,116.216 L232.424,116.216 L232.296,115.144 L230.776,115.144 L230.776,123 L232.616,123 Z M246.168,123.192 C246.637333,123.192 247.072,123.090667 247.472,122.888 C247.872,122.685333 248.248,122.434667 248.6,122.136 L248.6,122.136 L248.664,122.136 L248.792,123 L250.312,123 L250.312,118.344 C250.312,117.245333 250.069333,116.405333 249.584,115.824 C249.098667,115.242667 248.365333,114.952 247.384,114.952 C246.754667,114.952 246.168,115.053333 245.624,115.256 C245.08,115.458667 244.589333,115.698667 244.152,115.976 L244.152,115.976 L244.824,117.208 C245.176,116.994667 245.536,116.813333 245.904,116.664 C246.272,116.514667 246.648,116.44 247.032,116.44 C247.298667,116.44 247.522667,116.48 247.704,116.56 C247.885333,116.64 248.032,116.752 248.144,116.896 C248.256,117.04 248.336,117.205333 248.384,117.392 C248.432,117.578667 248.461333,117.773333 248.472,117.976 C247.661333,118.061333 246.965333,118.184 246.384,118.344 C245.802667,118.504 245.322667,118.701333 244.944,118.936 C244.565333,119.170667 244.288,119.450667 244.112,119.776 C243.936,120.101333 243.848,120.472 243.848,120.888 C243.848,121.581333 244.061333,122.138667 244.488,122.56 C244.914667,122.981333 245.474667,123.192 246.168,123.192 Z M246.76,121.752 C246.429333,121.752 246.157333,121.672 245.944,121.512 C245.730667,121.352 245.624,121.096 245.624,120.744 C245.624,120.552 245.672,120.370667 245.768,120.2 C245.864,120.029333 246.024,119.877333 246.248,119.744 C246.472,119.610667 246.765333,119.490667 247.128,119.384 C247.490667,119.277333 247.938667,119.192 248.472,119.128 L248.472,119.128 L248.472,120.888 C248.173333,121.165333 247.893333,121.378667 247.632,121.528 C247.370667,121.677333 247.08,121.752 246.76,121.752 Z M253.448,113.768 C253.778667,113.768 254.050667,113.672 254.264,113.48 C254.477333,113.288 254.584,113.037333 254.584,112.728 C254.584,112.418667 254.477333,112.165333 254.264,111.968 C254.050667,111.770667 253.778667,111.672 253.448,111.672 C253.117333,111.672 252.845333,111.770667 252.632,111.968 C252.418667,112.165333 252.312,112.418667 252.312,112.728 C252.312,113.037333 252.418667,113.288 252.632,113.48 C252.845333,113.672 253.117333,113.768 253.448,113.768 Z M254.36,123 L254.36,115.144 L252.52,115.144 L252.52,123 L254.36,123 Z M258.504,123.192 C258.909333,123.192 259.234667,123.138667 259.48,123.032 L259.48,123.032 L259.24,121.656 C259.165333,121.677333 259.109333,121.688 259.072,121.688 L259.072,121.688 L258.952,121.688 C258.856,121.688 258.765333,121.642667 258.68,121.552 C258.594667,121.461333 258.552,121.304 258.552,121.08 L258.552,121.08 L258.552,111.704 L256.712,111.704 L256.712,120.984 C256.712,121.666667 256.845333,122.205333 257.112,122.6 C257.378667,122.994667 257.842667,123.192 258.504,123.192 Z M266.264,123 L266.264,118.904 L267.864,118.904 L270.12,123 L272.2,123 L269.704,118.632 C270.333333,118.418667 270.837333,118.066667 271.216,117.576 C271.594667,117.085333 271.784,116.44 271.784,115.64 C271.784,115.053333 271.685333,114.562667 271.488,114.168 C271.290667,113.773333 271.021333,113.456 270.68,113.216 C270.338667,112.976 269.933333,112.802667 269.464,112.696 C268.994667,112.589333 268.488,112.536 267.944,112.536 L267.944,112.536 L264.408,112.536 L264.408,123 L266.264,123 Z M267.752,117.432 L266.264,117.432 L266.264,114.024 L267.752,114.024 C268.466667,114.024 269.013333,114.141333 269.392,114.376 C269.770667,114.610667 269.96,115.032 269.96,115.64 C269.96,116.237333 269.770667,116.685333 269.392,116.984 C269.013333,117.282667 268.466667,117.432 267.752,117.432 L267.752,117.432 Z M274.648,113.768 C274.978667,113.768 275.250667,113.672 275.464,113.48 C275.677333,113.288 275.784,113.037333 275.784,112.728 C275.784,112.418667 275.677333,112.165333 275.464,111.968 C275.250667,111.770667 274.978667,111.672 274.648,111.672 C274.317333,111.672 274.045333,111.770667 273.832,111.968 C273.618667,112.165333 273.512,112.418667 273.512,112.728 C273.512,113.037333 273.618667,113.288 273.832,113.48 C274.045333,113.672 274.317333,113.768 274.648,113.768 Z M275.56,123 L275.56,115.144 L273.72,115.144 L273.72,123 L275.56,123 Z M280.104,123.192 C280.594667,123.192 281.032,123.128 281.416,123 C281.8,122.872 282.12,122.698667 282.376,122.48 C282.632,122.261333 282.826667,122.005333 282.96,121.712 C283.093333,121.418667 283.16,121.101333 283.16,120.76 C283.16,120.397333 283.093333,120.085333 282.96,119.824 C282.826667,119.562667 282.650667,119.341333 282.432,119.16 C282.213333,118.978667 281.970667,118.826667 281.704,118.704 C281.437333,118.581333 281.170667,118.472 280.904,118.376 C280.690667,118.301333 280.485333,118.226667 280.288,118.152 C280.090667,118.077333 279.917333,117.997333 279.768,117.912 C279.618667,117.826667 279.498667,117.728 279.408,117.616 C279.317333,117.504 279.272,117.368 279.272,117.208 C279.272,116.962667 279.365333,116.757333 279.552,116.592 C279.738667,116.426667 280.029333,116.344 280.424,116.344 C280.733333,116.344 281.029333,116.405333 281.312,116.528 C281.594667,116.650667 281.874667,116.813333 282.152,117.016 L282.152,117.016 L283,115.896 C282.68,115.650667 282.301333,115.432 281.864,115.24 C281.426667,115.048 280.936,114.952 280.392,114.952 C279.506667,114.952 278.808,115.170667 278.296,115.608 C277.784,116.045333 277.528,116.610667 277.528,117.304 C277.528,117.634667 277.594667,117.92 277.728,118.16 C277.861333,118.4 278.032,118.610667 278.24,118.792 C278.448,118.973333 278.685333,119.128 278.952,119.256 C279.218667,119.384 279.48,119.496 279.736,119.592 C279.938667,119.677333 280.141333,119.76 280.344,119.84 C280.546667,119.92 280.728,120.008 280.888,120.104 C281.048,120.2 281.176,120.309333 281.272,120.432 C281.368,120.554667 281.416,120.696 281.416,120.856 C281.416,121.133333 281.314667,121.36 281.112,121.536 C280.909333,121.712 280.594667,121.8 280.168,121.8 C279.762667,121.8 279.386667,121.722667 279.04,121.568 C278.693333,121.413333 278.344,121.197333 277.992,120.92 L277.992,120.92 L277.128,122.104 C277.512,122.413333 277.968,122.672 278.496,122.88 C279.024,123.088 279.56,123.192 280.104,123.192 Z M286.616,123 L286.616,121 L287.848,119.592 L289.864,123 L291.864,123 L288.904,118.344 L291.592,115.144 L289.576,115.144 L286.664,118.76 L286.616,118.76 L286.616,111.704 L284.808,111.704 L284.808,123 L286.616,123 Z" id="EmailRisk" fill="#FFFFFF" fill-rule="nonzero"></path>
        <path d="M362.104,123 L362.104,118.424 C362.104,117.837333 362.074667,117.24 362.016,116.632 C361.957333,116.024 361.906667,115.442667 361.864,114.888 L361.864,114.888 L361.928,114.888 L363,117.112 L366.264,123 L368.168,123 L368.168,112.536 L366.392,112.536 L366.392,117.08 C366.392,117.666667 366.421333,118.272 366.48,118.896 C366.538667,119.52 366.589333,120.104 366.632,120.648 L366.632,120.648 L366.568,120.648 L365.496,118.424 L362.232,112.536 L360.328,112.536 L360.328,123 L362.104,123 Z M372.68,123 L372.68,112.536 L370.824,112.536 L370.824,123 L372.68,123 Z M380.312,123 L380.312,118.424 C380.312,117.837333 380.282667,117.24 380.224,116.632 C380.165333,116.024 380.114667,115.442667 380.072,114.888 L380.072,114.888 L380.136,114.888 L381.208,117.112 L384.472,123 L386.376,123 L386.376,112.536 L384.6,112.536 L384.6,117.08 C384.6,117.666667 384.629333,118.272 384.688,118.896 C384.746667,119.52 384.797333,120.104 384.84,120.648 L384.84,120.648 L384.776,120.648 L383.704,118.424 L380.44,112.536 L378.536,112.536 L378.536,123 L380.312,123 Z M391.208,123.192 C391.752,123.192 392.224,123.069333 392.624,122.824 C393.024,122.578667 393.394667,122.253333 393.736,121.848 L393.736,121.848 L393.784,121.848 L393.928,123 L395.432,123 L395.432,115.144 L393.592,115.144 L393.592,120.52 C393.293333,120.904 393.013333,121.181333 392.752,121.352 C392.490667,121.522667 392.189333,121.608 391.848,121.608 C391.421333,121.608 391.112,121.474667 390.92,121.208 C390.728,120.941333 390.632,120.482667 390.632,119.832 L390.632,119.832 L390.632,115.144 L388.792,115.144 L388.792,120.072 C388.792,121.074667 388.984,121.845333 389.368,122.384 C389.752,122.922667 390.365333,123.192 391.208,123.192 Z M399.608,123 L399.608,117.512 C400.216,116.861333 400.765333,116.536 401.256,116.536 C401.672,116.536 401.978667,116.669333 402.176,116.936 C402.373333,117.202667 402.472,117.661333 402.472,118.312 L402.472,118.312 L402.472,123 L404.312,123 L404.312,117.512 C404.92,116.861333 405.469333,116.536 405.96,116.536 C406.365333,116.536 406.666667,116.669333 406.864,116.936 C407.061333,117.202667 407.16,117.661333 407.16,118.312 L407.16,118.312 L407.16,123 L409.016,123 L409.016,118.072 C409.016,117.069333 408.818667,116.298667 408.424,115.76 C408.029333,115.221333 407.416,114.952 406.584,114.952 C406.082667,114.952 405.629333,115.085333 405.224,115.352 C404.818667,115.618667 404.429333,115.954667 404.056,116.36 C403.874667,115.912 403.610667,115.565333 403.264,115.32 C402.917333,115.074667 402.456,114.952 401.88,114.952 C401.389333,114.952 400.949333,115.074667 400.56,115.32 C400.170667,115.565333 399.810667,115.864 399.48,116.216 L399.48,116.216 L399.416,116.216 L399.288,115.144 L397.768,115.144 L397.768,123 L399.608,123 Z M415.064,123.192 C415.501333,123.192 415.922667,123.096 416.328,122.904 C416.733333,122.712 417.090667,122.434667 417.4,122.072 C417.709333,121.709333 417.957333,121.264 418.144,120.736 C418.330667,120.208 418.424,119.608 418.424,118.936 C418.424,118.328 418.354667,117.778667 418.216,117.288 C418.077333,116.797333 417.874667,116.378667 417.608,116.032 C417.341333,115.685333 417.016,115.418667 416.632,115.232 C416.248,115.045333 415.810667,114.952 415.32,114.952 C414.914667,114.952 414.517333,115.042667 414.128,115.224 C413.738667,115.405333 413.378667,115.64 413.048,115.928 L413.048,115.928 L413.096,114.616 L413.096,111.704 L411.256,111.704 L411.256,123 L412.712,123 L412.872,122.168 L412.92,122.168 C413.250667,122.498667 413.6,122.752 413.968,122.928 C414.336,123.104 414.701333,123.192 415.064,123.192 Z M414.68,121.672 C414.445333,121.672 414.192,121.624 413.92,121.528 C413.648,121.432 413.373333,121.261333 413.096,121.016 L413.096,121.016 L413.096,117.352 C413.693333,116.765333 414.269333,116.472 414.824,116.472 C415.421333,116.472 415.853333,116.690667 416.12,117.128 C416.386667,117.565333 416.52,118.178667 416.52,118.968 C416.52,119.864 416.344,120.538667 415.992,120.992 C415.64,121.445333 415.202667,121.672 414.68,121.672 Z M423.624,123.192 C424.125333,123.192 424.605333,123.112 425.064,122.952 C425.522667,122.792 425.938667,122.589333 426.312,122.344 L426.312,122.344 L425.688,121.192 C425.4,121.373333 425.109333,121.514667 424.816,121.616 C424.522667,121.717333 424.205333,121.768 423.864,121.768 C423.224,121.768 422.698667,121.578667 422.288,121.2 C421.877333,120.821333 421.629333,120.28 421.544,119.576 L421.544,119.576 L426.536,119.576 C426.557333,119.48 426.576,119.352 426.592,119.192 C426.608,119.032 426.616,118.861333 426.616,118.68 C426.616,118.136 426.546667,117.634667 426.408,117.176 C426.269333,116.717333 426.064,116.322667 425.792,115.992 C425.52,115.661333 425.181333,115.405333 424.776,115.224 C424.370667,115.042667 423.901333,114.952 423.368,114.952 C422.909333,114.952 422.461333,115.048 422.024,115.24 C421.586667,115.432 421.2,115.704 420.864,116.056 C420.528,116.408 420.258667,116.84 420.056,117.352 C419.853333,117.864 419.752,118.44 419.752,119.08 C419.752,119.730667 419.850667,120.309333 420.048,120.816 C420.245333,121.322667 420.52,121.752 420.872,122.104 C421.224,122.456 421.634667,122.725333 422.104,122.912 C422.573333,123.098667 423.08,123.192 423.624,123.192 Z M425.016,118.328 L421.528,118.328 C421.613333,117.688 421.832,117.202667 422.184,116.872 C422.536,116.541333 422.946667,116.376 423.416,116.376 C423.96,116.376 424.362667,116.549333 424.624,116.896 C424.885333,117.242667 425.016,117.72 425.016,118.328 L425.016,118.328 Z M430.216,123 L430.216,118.2 C430.461333,117.602667 430.754667,117.184 431.096,116.944 C431.437333,116.704 431.762667,116.584 432.072,116.584 C432.242667,116.584 432.386667,116.594667 432.504,116.616 C432.621333,116.637333 432.749333,116.669333 432.888,116.712 L432.888,116.712 L433.208,115.112 C432.984,115.005333 432.685333,114.952 432.312,114.952 C431.896,114.952 431.490667,115.088 431.096,115.36 C430.701333,115.632 430.365333,116.024 430.088,116.536 L430.088,116.536 L430.024,116.536 L429.896,115.144 L428.376,115.144 L428.376,123 L430.216,123 Z" id="NINumber" fill="#FFFFFF" fill-rule="nonzero"></path>
        <path d="M374.184,174 L374.184,163.536 L372.328,163.536 L372.328,174 L374.184,174 Z M379.736,174 C380.514667,174 381.210667,173.888 381.824,173.664 C382.437333,173.44 382.96,173.106667 383.392,172.664 C383.824,172.221333 384.154667,171.669333 384.384,171.008 C384.613333,170.346667 384.728,169.584 384.728,168.72 C384.728,166.992 384.28,165.696 383.384,164.832 C382.488,163.968 381.24,163.536 379.64,163.536 L379.64,163.536 L376.84,163.536 L376.84,174 L379.736,174 Z M379.512,172.496 L378.696,172.496 L378.696,165.04 L379.512,165.04 C380.568,165.04 381.384,165.333333 381.96,165.92 C382.536,166.506667 382.824,167.44 382.824,168.72 C382.824,170.010667 382.538667,170.962667 381.968,171.576 C381.397333,172.189333 380.578667,172.496 379.512,172.496 L379.512,172.496 Z M394.216,174.192 C394.888,174.192 395.498667,174.061333 396.048,173.8 C396.597333,173.538667 397.085333,173.162667 397.512,172.672 L397.512,172.672 L396.52,171.504 C396.221333,171.824 395.890667,172.082667 395.528,172.28 C395.165333,172.477333 394.749333,172.576 394.28,172.576 C393.394667,172.576 392.693333,172.237333 392.176,171.56 C391.658667,170.882667 391.4,169.946667 391.4,168.752 C391.4,168.165333 391.472,167.637333 391.616,167.168 C391.76,166.698667 391.962667,166.301333 392.224,165.976 C392.485333,165.650667 392.794667,165.4 393.152,165.224 C393.509333,165.048 393.901333,164.96 394.328,164.96 C394.733333,164.96 395.096,165.042667 395.416,165.208 C395.736,165.373333 396.034667,165.594667 396.312,165.872 L396.312,165.872 L397.304,164.672 C396.973333,164.32 396.552,164.010667 396.04,163.744 C395.528,163.477333 394.941333,163.344 394.28,163.344 C393.618667,163.344 392.997333,163.466667 392.416,163.712 C391.834667,163.957333 391.328,164.314667 390.896,164.784 C390.464,165.253333 390.122667,165.826667 389.872,166.504 C389.621333,167.181333 389.496,167.946667 389.496,168.8 C389.496,169.664 389.618667,170.432 389.864,171.104 C390.109333,171.776 390.442667,172.341333 390.864,172.8 C391.285333,173.258667 391.784,173.605333 392.36,173.84 C392.936,174.074667 393.554667,174.192 394.216,174.192 Z M401,174.192 C401.469333,174.192 401.904,174.090667 402.304,173.888 C402.704,173.685333 403.08,173.434667 403.432,173.136 L403.432,173.136 L403.496,173.136 L403.624,174 L405.144,174 L405.144,169.344 C405.144,168.245333 404.901333,167.405333 404.416,166.824 C403.930667,166.242667 403.197333,165.952 402.216,165.952 C401.586667,165.952 401,166.053333 400.456,166.256 C399.912,166.458667 399.421333,166.698667 398.984,166.976 L398.984,166.976 L399.656,168.208 C400.008,167.994667 400.368,167.813333 400.736,167.664 C401.104,167.514667 401.48,167.44 401.864,167.44 C402.130667,167.44 402.354667,167.48 402.536,167.56 C402.717333,167.64 402.864,167.752 402.976,167.896 C403.088,168.04 403.168,168.205333 403.216,168.392 C403.264,168.578667 403.293333,168.773333 403.304,168.976 C402.493333,169.061333 401.797333,169.184 401.216,169.344 C400.634667,169.504 400.154667,169.701333 399.776,169.936 C399.397333,170.170667 399.12,170.450667 398.944,170.776 C398.768,171.101333 398.68,171.472 398.68,171.888 C398.68,172.581333 398.893333,173.138667 399.32,173.56 C399.746667,173.981333 400.306667,174.192 401,174.192 Z M401.592,172.752 C401.261333,172.752 400.989333,172.672 400.776,172.512 C400.562667,172.352 400.456,172.096 400.456,171.744 C400.456,171.552 400.504,171.370667 400.6,171.2 C400.696,171.029333 400.856,170.877333 401.08,170.744 C401.304,170.610667 401.597333,170.490667 401.96,170.384 C402.322667,170.277333 402.770667,170.192 403.304,170.128 L403.304,170.128 L403.304,171.888 C403.005333,172.165333 402.725333,172.378667 402.464,172.528 C402.202667,172.677333 401.912,172.752 401.592,172.752 Z M409.192,174 L409.192,169.2 C409.437333,168.602667 409.730667,168.184 410.072,167.944 C410.413333,167.704 410.738667,167.584 411.048,167.584 C411.218667,167.584 411.362667,167.594667 411.48,167.616 C411.597333,167.637333 411.725333,167.669333 411.864,167.712 L411.864,167.712 L412.184,166.112 C411.96,166.005333 411.661333,165.952 411.288,165.952 C410.872,165.952 410.466667,166.088 410.072,166.36 C409.677333,166.632 409.341333,167.024 409.064,167.536 L409.064,167.536 L409,167.536 L408.872,166.144 L407.352,166.144 L407.352,174 L409.192,174 Z M415.912,174.192 C416.338667,174.192 416.744,174.090667 417.128,173.888 C417.512,173.685333 417.848,173.44 418.136,173.152 L418.136,173.152 L418.2,173.152 L418.328,174 L419.848,174 L419.848,162.704 L418.008,162.704 L418.008,165.552 L418.072,166.816 C417.762667,166.549333 417.453333,166.338667 417.144,166.184 C416.834667,166.029333 416.456,165.952 416.008,165.952 C415.581333,165.952 415.168,166.048 414.768,166.24 C414.368,166.432 414.013333,166.704 413.704,167.056 C413.394667,167.408 413.146667,167.84 412.96,168.352 C412.773333,168.864 412.68,169.44 412.68,170.08 C412.68,171.381333 412.970667,172.392 413.552,173.112 C414.133333,173.832 414.92,174.192 415.912,174.192 Z M416.36,172.672 C415.784,172.672 415.344,172.450667 415.04,172.008 C414.736,171.565333 414.584,170.917333 414.584,170.064 C414.584,169.232 414.76,168.592 415.112,168.144 C415.464,167.696 415.896,167.472 416.408,167.472 C416.674667,167.472 416.938667,167.52 417.2,167.616 C417.461333,167.712 417.730667,167.882667 418.008,168.128 L418.008,168.128 L418.008,171.792 C417.496,172.378667 416.946667,172.672 416.36,172.672 Z" id="IDCard" fill="#FFFFFF" fill-rule="nonzero"></path>
        <path d="M228.008,174 L228.008,169.216 C228.008,168.970667 228,168.704 227.984,168.416 C227.968,168.128 227.946667,167.837333 227.92,167.544 C227.893333,167.250667 227.866667,166.962667 227.84,166.68 C227.813333,166.397333 227.789333,166.133333 227.768,165.888 L227.768,165.888 L227.832,165.888 L228.664,168.32 L230.392,173.024 L231.496,173.024 L233.208,168.32 L234.056,165.888 L234.12,165.888 C234.098667,166.133333 234.072,166.397333 234.04,166.68 C234.008,166.962667 233.981333,167.250667 233.96,167.544 C233.938667,167.837333 233.92,168.128 233.904,168.416 C233.888,168.704 233.88,168.970667 233.88,169.216 L233.88,169.216 L233.88,174 L235.592,174 L235.592,163.536 L233.48,163.536 L231.672,168.656 C231.554667,168.986667 231.445333,169.325333 231.344,169.672 C231.242667,170.018667 231.133333,170.362667 231.016,170.704 L231.016,170.704 L230.952,170.704 C230.834667,170.362667 230.722667,170.018667 230.616,169.672 C230.509333,169.325333 230.397333,168.986667 230.28,168.656 L230.28,168.656 L228.424,163.536 L226.328,163.536 L226.328,174 L228.008,174 Z M241.304,174.192 C241.794667,174.192 242.266667,174.101333 242.72,173.92 C243.173333,173.738667 243.570667,173.472 243.912,173.12 C244.253333,172.768 244.528,172.336 244.736,171.824 C244.944,171.312 245.048,170.730667 245.048,170.08 C245.048,169.429333 244.944,168.848 244.736,168.336 C244.528,167.824 244.253333,167.392 243.912,167.04 C243.570667,166.688 243.173333,166.418667 242.72,166.232 C242.266667,166.045333 241.794667,165.952 241.304,165.952 C240.813333,165.952 240.344,166.045333 239.896,166.232 C239.448,166.418667 239.050667,166.688 238.704,167.04 C238.357333,167.392 238.082667,167.824 237.88,168.336 C237.677333,168.848 237.576,169.429333 237.576,170.08 C237.576,170.730667 237.677333,171.312 237.88,171.824 C238.082667,172.336 238.357333,172.768 238.704,173.12 C239.050667,173.472 239.448,173.738667 239.896,173.92 C240.344,174.101333 240.813333,174.192 241.304,174.192 Z M241.304,172.688 C240.728,172.688 240.277333,172.450667 239.952,171.976 C239.626667,171.501333 239.464,170.869333 239.464,170.08 C239.464,169.28 239.626667,168.642667 239.952,168.168 C240.277333,167.693333 240.728,167.456 241.304,167.456 C241.88,167.456 242.333333,167.693333 242.664,168.168 C242.994667,168.642667 243.16,169.28 243.16,170.08 C243.16,170.869333 242.994667,171.501333 242.664,171.976 C242.333333,172.450667 241.88,172.688 241.304,172.688 Z M248.712,174 L248.712,169.2 C248.957333,168.602667 249.250667,168.184 249.592,167.944 C249.933333,167.704 250.258667,167.584 250.568,167.584 C250.738667,167.584 250.882667,167.594667 251,167.616 C251.117333,167.637333 251.245333,167.669333 251.384,167.712 L251.384,167.712 L251.704,166.112 C251.48,166.005333 251.181333,165.952 250.808,165.952 C250.392,165.952 249.986667,166.088 249.592,166.36 C249.197333,166.632 248.861333,167.024 248.584,167.536 L248.584,167.536 L248.52,167.536 L248.392,166.144 L246.872,166.144 L246.872,174 L248.712,174 Z M255.608,174.192 C255.917333,174.192 256.208,174.162667 256.48,174.104 C256.752,174.045333 256.994667,173.978667 257.208,173.904 L257.208,173.904 L256.888,172.544 C256.770667,172.597333 256.64,172.64 256.496,172.672 C256.352,172.704 256.210667,172.72 256.072,172.72 C255.336,172.72 254.968,172.261333 254.968,171.344 L254.968,171.344 L254.968,167.6 L256.968,167.6 L256.968,166.144 L254.968,166.144 L254.968,164 L253.432,164 L253.208,166.144 L251.992,166.224 L251.992,167.6 L253.112,167.6 L253.112,171.344 C253.112,171.770667 253.157333,172.157333 253.248,172.504 C253.338667,172.850667 253.482667,173.149333 253.68,173.4 C253.877333,173.650667 254.133333,173.845333 254.448,173.984 C254.762667,174.122667 255.149333,174.192 255.608,174.192 Z M260.184,174.192 C260.653333,174.192 261.088,174.090667 261.488,173.888 C261.888,173.685333 262.264,173.434667 262.616,173.136 L262.616,173.136 L262.68,173.136 L262.808,174 L264.328,174 L264.328,169.344 C264.328,168.245333 264.085333,167.405333 263.6,166.824 C263.114667,166.242667 262.381333,165.952 261.4,165.952 C260.770667,165.952 260.184,166.053333 259.64,166.256 C259.096,166.458667 258.605333,166.698667 258.168,166.976 L258.168,166.976 L258.84,168.208 C259.192,167.994667 259.552,167.813333 259.92,167.664 C260.288,167.514667 260.664,167.44 261.048,167.44 C261.314667,167.44 261.538667,167.48 261.72,167.56 C261.901333,167.64 262.048,167.752 262.16,167.896 C262.272,168.04 262.352,168.205333 262.4,168.392 C262.448,168.578667 262.477333,168.773333 262.488,168.976 C261.677333,169.061333 260.981333,169.184 260.4,169.344 C259.818667,169.504 259.338667,169.701333 258.96,169.936 C258.581333,170.170667 258.304,170.450667 258.128,170.776 C257.952,171.101333 257.864,171.472 257.864,171.888 C257.864,172.581333 258.077333,173.138667 258.504,173.56 C258.930667,173.981333 259.490667,174.192 260.184,174.192 Z M260.776,172.752 C260.445333,172.752 260.173333,172.672 259.96,172.512 C259.746667,172.352 259.64,172.096 259.64,171.744 C259.64,171.552 259.688,171.370667 259.784,171.2 C259.88,171.029333 260.04,170.877333 260.264,170.744 C260.488,170.610667 260.781333,170.490667 261.144,170.384 C261.506667,170.277333 261.954667,170.192 262.488,170.128 L262.488,170.128 L262.488,171.888 C262.189333,172.165333 261.909333,172.378667 261.648,172.528 C261.386667,172.677333 261.096,172.752 260.776,172.752 Z M268.328,174.192 C268.733333,174.192 269.058667,174.138667 269.304,174.032 L269.304,174.032 L269.064,172.656 C268.989333,172.677333 268.933333,172.688 268.896,172.688 L268.896,172.688 L268.776,172.688 C268.68,172.688 268.589333,172.642667 268.504,172.552 C268.418667,172.461333 268.376,172.304 268.376,172.08 L268.376,172.08 L268.376,162.704 L266.536,162.704 L266.536,171.984 C266.536,172.666667 266.669333,173.205333 266.936,173.6 C267.202667,173.994667 267.666667,174.192 268.328,174.192 Z M271.8,164.768 C272.130667,164.768 272.402667,164.672 272.616,164.48 C272.829333,164.288 272.936,164.037333 272.936,163.728 C272.936,163.418667 272.829333,163.165333 272.616,162.968 C272.402667,162.770667 272.130667,162.672 271.8,162.672 C271.469333,162.672 271.197333,162.770667 270.984,162.968 C270.770667,163.165333 270.664,163.418667 270.664,163.728 C270.664,164.037333 270.770667,164.288 270.984,164.48 C271.197333,164.672 271.469333,164.768 271.8,164.768 Z M272.712,174 L272.712,166.144 L270.872,166.144 L270.872,174 L272.712,174 Z M277.832,174.192 C278.141333,174.192 278.432,174.162667 278.704,174.104 C278.976,174.045333 279.218667,173.978667 279.432,173.904 L279.432,173.904 L279.112,172.544 C278.994667,172.597333 278.864,172.64 278.72,172.672 C278.576,172.704 278.434667,172.72 278.296,172.72 C277.56,172.72 277.192,172.261333 277.192,171.344 L277.192,171.344 L277.192,167.6 L279.192,167.6 L279.192,166.144 L277.192,166.144 L277.192,164 L275.656,164 L275.432,166.144 L274.216,166.224 L274.216,167.6 L275.336,167.6 L275.336,171.344 C275.336,171.770667 275.381333,172.157333 275.472,172.504 C275.562667,172.850667 275.706667,173.149333 275.904,173.4 C276.101333,173.650667 276.357333,173.845333 276.672,173.984 C276.986667,174.122667 277.373333,174.192 277.832,174.192 Z M281.368,177.232 C281.794667,177.232 282.170667,177.165333 282.496,177.032 C282.821333,176.898667 283.109333,176.706667 283.36,176.456 C283.610667,176.205333 283.832,175.904 284.024,175.552 C284.216,175.2 284.392,174.8 284.552,174.352 L284.552,174.352 L287.4,166.144 L285.624,166.144 L284.44,170 C284.344,170.352 284.245333,170.717333 284.144,171.096 C284.042667,171.474667 283.944,171.845333 283.848,172.208 L283.848,172.208 L283.784,172.208 C283.666667,171.834667 283.552,171.458667 283.44,171.08 C283.328,170.701333 283.213333,170.341333 283.096,170 L283.096,170 L281.736,166.144 L279.864,166.144 L282.952,173.904 L282.808,174.4 C282.68,174.794667 282.490667,175.117333 282.24,175.368 C281.989333,175.618667 281.656,175.744 281.24,175.744 C281.144,175.744 281.045333,175.730667 280.944,175.704 C280.842667,175.677333 280.754667,175.653333 280.68,175.632 L280.68,175.632 L280.344,177.072 C280.493333,177.125333 280.648,177.165333 280.808,177.192 C280.968,177.218667 281.154667,177.232 281.368,177.232 Z" id="Mortality" fill="#FFFFFF" fill-rule="nonzero"></path>
        <rect id="Rectangle" fill="#000000" x="50" y="147" width="132" height="44" rx="3"></rect>
        <path d="M68.224,174 C69.0026667,174 69.6986667,173.888 70.312,173.664 C70.9253333,173.44 71.448,173.106667 71.88,172.664 C72.312,172.221333 72.6426667,171.669333 72.872,171.008 C73.1013333,170.346667 73.216,169.584 73.216,168.72 C73.216,166.992 72.768,165.696 71.872,164.832 C70.976,163.968 69.728,163.536 68.128,163.536 L68.128,163.536 L65.328,163.536 L65.328,174 L68.224,174 Z M68,172.496 L67.184,172.496 L67.184,165.04 L68,165.04 C69.056,165.04 69.872,165.333333 70.448,165.92 C71.024,166.506667 71.312,167.44 71.312,168.72 C71.312,170.010667 71.0266667,170.962667 70.456,171.576 C69.8853333,172.189333 69.0666667,172.496 68,172.496 L68,172.496 Z M77.008,174 L77.008,169.2 C77.2533333,168.602667 77.5466667,168.184 77.888,167.944 C78.2293333,167.704 78.5546667,167.584 78.864,167.584 C79.0346667,167.584 79.1786667,167.594667 79.296,167.616 C79.4133333,167.637333 79.5413333,167.669333 79.68,167.712 L79.68,167.712 L80,166.112 C79.776,166.005333 79.4773333,165.952 79.104,165.952 C78.688,165.952 78.2826667,166.088 77.888,166.36 C77.4933333,166.632 77.1573333,167.024 76.88,167.536 L76.88,167.536 L76.816,167.536 L76.688,166.144 L75.168,166.144 L75.168,174 L77.008,174 Z M82.064,164.768 C82.3946667,164.768 82.6666667,164.672 82.88,164.48 C83.0933333,164.288 83.2,164.037333 83.2,163.728 C83.2,163.418667 83.0933333,163.165333 82.88,162.968 C82.6666667,162.770667 82.3946667,162.672 82.064,162.672 C81.7333333,162.672 81.4613333,162.770667 81.248,162.968 C81.0346667,163.165333 80.928,163.418667 80.928,163.728 C80.928,164.037333 81.0346667,164.288 81.248,164.48 C81.4613333,164.672 81.7333333,164.768 82.064,164.768 Z M82.976,174 L82.976,166.144 L81.136,166.144 L81.136,174 L82.976,174 Z M89.216,174 L91.888,166.144 L90.112,166.144 L88.864,170.224 C88.7466667,170.608 88.6346667,170.997333 88.528,171.392 C88.4213333,171.786667 88.3093333,172.186667 88.192,172.592 L88.192,172.592 L88.128,172.592 C88.0213333,172.186667 87.912,171.786667 87.8,171.392 C87.688,170.997333 87.5786667,170.608 87.472,170.224 L87.472,170.224 L86.224,166.144 L84.352,166.144 L87.088,174 L89.216,174 Z M94.176,164.768 C94.5066667,164.768 94.7786667,164.672 94.992,164.48 C95.2053333,164.288 95.312,164.037333 95.312,163.728 C95.312,163.418667 95.2053333,163.165333 94.992,162.968 C94.7786667,162.770667 94.5066667,162.672 94.176,162.672 C93.8453333,162.672 93.5733333,162.770667 93.36,162.968 C93.1466667,163.165333 93.04,163.418667 93.04,163.728 C93.04,164.037333 93.1466667,164.288 93.36,164.48 C93.5733333,164.672 93.8453333,164.768 94.176,164.768 Z M95.088,174 L95.088,166.144 L93.248,166.144 L93.248,174 L95.088,174 Z M99.28,174 L99.28,168.512 C99.6106667,168.192 99.9066667,167.949333 100.168,167.784 C100.429333,167.618667 100.730667,167.536 101.072,167.536 C101.509333,167.536 101.824,167.669333 102.016,167.936 C102.208,168.202667 102.304,168.661333 102.304,169.312 L102.304,169.312 L102.304,174 L104.144,174 L104.144,169.072 C104.144,168.069333 103.952,167.298667 103.568,166.76 C103.184,166.221333 102.570667,165.952 101.728,165.952 C101.184,165.952 100.706667,166.074667 100.296,166.32 C99.8853333,166.565333 99.504,166.858667 99.152,167.2 L99.152,167.2 L99.088,167.2 L98.96,166.144 L97.44,166.144 L97.44,174 L99.28,174 Z M109.136,177.472 C109.776,177.472 110.354667,177.4 110.872,177.256 C111.389333,177.112 111.829333,176.917333 112.192,176.672 C112.554667,176.426667 112.834667,176.133333 113.032,175.792 C113.229333,175.450667 113.328,175.088 113.328,174.704 C113.328,174.021333 113.085333,173.528 112.6,173.224 C112.114667,172.92 111.397333,172.768 110.448,172.768 L110.448,172.768 L109.056,172.768 C108.576,172.768 108.242667,172.704 108.056,172.576 C107.869333,172.448 107.776,172.272 107.776,172.048 C107.776,171.866667 107.810667,171.722667 107.88,171.616 C107.949333,171.509333 108.042667,171.402667 108.16,171.296 C108.341333,171.370667 108.522667,171.424 108.704,171.456 C108.885333,171.488 109.061333,171.504 109.232,171.504 C109.648,171.504 110.037333,171.445333 110.4,171.328 C110.762667,171.210667 111.077333,171.04 111.344,170.816 C111.610667,170.592 111.821333,170.314667 111.976,169.984 C112.130667,169.653333 112.208,169.269333 112.208,168.832 C112.208,168.554667 112.165333,168.301333 112.08,168.072 C111.994667,167.842667 111.888,167.653333 111.76,167.504 L111.76,167.504 L113.2,167.504 L113.2,166.144 L110.384,166.144 C110.224,166.090667 110.045333,166.045333 109.848,166.008 C109.650667,165.970667 109.445333,165.952 109.232,165.952 C108.816,165.952 108.421333,166.013333 108.048,166.136 C107.674667,166.258667 107.346667,166.44 107.064,166.68 C106.781333,166.92 106.554667,167.216 106.384,167.568 C106.213333,167.92 106.128,168.32 106.128,168.768 C106.128,169.237333 106.232,169.650667 106.44,170.008 C106.648,170.365333 106.885333,170.645333 107.152,170.848 L107.152,170.848 L107.152,170.912 C106.928,171.072 106.728,171.277333 106.552,171.528 C106.376,171.778667 106.288,172.058667 106.288,172.368 C106.288,172.688 106.354667,172.954667 106.488,173.168 C106.621333,173.381333 106.789333,173.552 106.992,173.68 L106.992,173.68 L106.992,173.744 C106.629333,173.968 106.352,174.221333 106.16,174.504 C105.968,174.786667 105.872,175.093333 105.872,175.424 C105.872,175.765333 105.954667,176.064 106.12,176.32 C106.285333,176.576 106.512,176.789333 106.8,176.96 C107.088,177.130667 107.432,177.258667 107.832,177.344 C108.232,177.429333 108.666667,177.472 109.136,177.472 Z M109.232,170.352 C108.848,170.352 108.522667,170.216 108.256,169.944 C107.989333,169.672 107.856,169.28 107.856,168.768 C107.856,168.266667 107.989333,167.882667 108.256,167.616 C108.522667,167.349333 108.848,167.216 109.232,167.216 C109.616,167.216 109.938667,167.352 110.2,167.624 C110.461333,167.896 110.592,168.277333 110.592,168.768 C110.592,169.28 110.458667,169.672 110.192,169.944 C109.925333,170.216 109.605333,170.352 109.232,170.352 Z M109.424,176.272 C108.794667,176.272 108.301333,176.173333 107.944,175.976 C107.586667,175.778667 107.408,175.504 107.408,175.152 C107.408,174.768 107.610667,174.421333 108.016,174.112 C108.304,174.186667 108.661333,174.224 109.088,174.224 L109.088,174.224 L110.16,174.224 C110.608,174.224 110.952,174.277333 111.192,174.384 C111.432,174.490667 111.552,174.698667 111.552,175.008 C111.552,175.349333 111.357333,175.645333 110.968,175.896 C110.578667,176.146667 110.064,176.272 109.424,176.272 Z M124.288,174 L124.288,172.432 L119.936,172.432 L119.936,163.536 L118.08,163.536 L118.08,174 L124.288,174 Z M126.88,164.768 C127.210667,164.768 127.482667,164.672 127.696,164.48 C127.909333,164.288 128.016,164.037333 128.016,163.728 C128.016,163.418667 127.909333,163.165333 127.696,162.968 C127.482667,162.770667 127.210667,162.672 126.88,162.672 C126.549333,162.672 126.277333,162.770667 126.064,162.968 C125.850667,163.165333 125.744,163.418667 125.744,163.728 C125.744,164.037333 125.850667,164.288 126.064,164.48 C126.277333,164.672 126.549333,164.768 126.88,164.768 Z M127.792,174 L127.792,166.144 L125.952,166.144 L125.952,174 L127.792,174 Z M133.424,174.192 C133.872,174.192 134.317333,174.112 134.76,173.952 C135.202667,173.792 135.610667,173.552 135.984,173.232 L135.984,173.232 L135.232,172.016 C135.008,172.197333 134.76,172.354667 134.488,172.488 C134.216,172.621333 133.925333,172.688 133.616,172.688 C132.997333,172.688 132.493333,172.450667 132.104,171.976 C131.714667,171.501333 131.52,170.869333 131.52,170.08 C131.52,169.28 131.717333,168.642667 132.112,168.168 C132.506667,167.693333 133.024,167.456 133.664,167.456 C133.909333,167.456 134.136,167.506667 134.344,167.608 C134.552,167.709333 134.762667,167.850667 134.976,168.032 L134.976,168.032 L135.872,166.832 C135.584,166.586667 135.256,166.378667 134.888,166.208 C134.52,166.037333 134.08,165.952 133.568,165.952 C133.045333,165.952 132.546667,166.045333 132.072,166.232 C131.597333,166.418667 131.178667,166.688 130.816,167.04 C130.453333,167.392 130.165333,167.824 129.952,168.336 C129.738667,168.848 129.632,169.429333 129.632,170.08 C129.632,170.730667 129.728,171.312 129.92,171.824 C130.112,172.336 130.378667,172.768 130.72,173.12 C131.061333,173.472 131.464,173.738667 131.928,173.92 C132.392,174.101333 132.890667,174.192 133.424,174.192 Z M140.512,174.192 C141.013333,174.192 141.493333,174.112 141.952,173.952 C142.410667,173.792 142.826667,173.589333 143.2,173.344 L143.2,173.344 L142.576,172.192 C142.288,172.373333 141.997333,172.514667 141.704,172.616 C141.410667,172.717333 141.093333,172.768 140.752,172.768 C140.112,172.768 139.586667,172.578667 139.176,172.2 C138.765333,171.821333 138.517333,171.28 138.432,170.576 L138.432,170.576 L143.424,170.576 C143.445333,170.48 143.464,170.352 143.48,170.192 C143.496,170.032 143.504,169.861333 143.504,169.68 C143.504,169.136 143.434667,168.634667 143.296,168.176 C143.157333,167.717333 142.952,167.322667 142.68,166.992 C142.408,166.661333 142.069333,166.405333 141.664,166.224 C141.258667,166.042667 140.789333,165.952 140.256,165.952 C139.797333,165.952 139.349333,166.048 138.912,166.24 C138.474667,166.432 138.088,166.704 137.752,167.056 C137.416,167.408 137.146667,167.84 136.944,168.352 C136.741333,168.864 136.64,169.44 136.64,170.08 C136.64,170.730667 136.738667,171.309333 136.936,171.816 C137.133333,172.322667 137.408,172.752 137.76,173.104 C138.112,173.456 138.522667,173.725333 138.992,173.912 C139.461333,174.098667 139.968,174.192 140.512,174.192 Z M141.904,169.328 L138.416,169.328 C138.501333,168.688 138.72,168.202667 139.072,167.872 C139.424,167.541333 139.834667,167.376 140.304,167.376 C140.848,167.376 141.250667,167.549333 141.512,167.896 C141.773333,168.242667 141.904,168.72 141.904,169.328 L141.904,169.328 Z M147.104,174 L147.104,168.512 C147.434667,168.192 147.730667,167.949333 147.992,167.784 C148.253333,167.618667 148.554667,167.536 148.896,167.536 C149.333333,167.536 149.648,167.669333 149.84,167.936 C150.032,168.202667 150.128,168.661333 150.128,169.312 L150.128,169.312 L150.128,174 L151.968,174 L151.968,169.072 C151.968,168.069333 151.776,167.298667 151.392,166.76 C151.008,166.221333 150.394667,165.952 149.552,165.952 C149.008,165.952 148.530667,166.074667 148.12,166.32 C147.709333,166.565333 147.328,166.858667 146.976,167.2 L146.976,167.2 L146.912,167.2 L146.784,166.144 L145.264,166.144 L145.264,174 L147.104,174 Z M156.416,174.192 C156.906667,174.192 157.344,174.128 157.728,174 C158.112,173.872 158.432,173.698667 158.688,173.48 C158.944,173.261333 159.138667,173.005333 159.272,172.712 C159.405333,172.418667 159.472,172.101333 159.472,171.76 C159.472,171.397333 159.405333,171.085333 159.272,170.824 C159.138667,170.562667 158.962667,170.341333 158.744,170.16 C158.525333,169.978667 158.282667,169.826667 158.016,169.704 C157.749333,169.581333 157.482667,169.472 157.216,169.376 C157.002667,169.301333 156.797333,169.226667 156.6,169.152 C156.402667,169.077333 156.229333,168.997333 156.08,168.912 C155.930667,168.826667 155.810667,168.728 155.72,168.616 C155.629333,168.504 155.584,168.368 155.584,168.208 C155.584,167.962667 155.677333,167.757333 155.864,167.592 C156.050667,167.426667 156.341333,167.344 156.736,167.344 C157.045333,167.344 157.341333,167.405333 157.624,167.528 C157.906667,167.650667 158.186667,167.813333 158.464,168.016 L158.464,168.016 L159.312,166.896 C158.992,166.650667 158.613333,166.432 158.176,166.24 C157.738667,166.048 157.248,165.952 156.704,165.952 C155.818667,165.952 155.12,166.170667 154.608,166.608 C154.096,167.045333 153.84,167.610667 153.84,168.304 C153.84,168.634667 153.906667,168.92 154.04,169.16 C154.173333,169.4 154.344,169.610667 154.552,169.792 C154.76,169.973333 154.997333,170.128 155.264,170.256 C155.530667,170.384 155.792,170.496 156.048,170.592 C156.250667,170.677333 156.453333,170.76 156.656,170.84 C156.858667,170.92 157.04,171.008 157.2,171.104 C157.36,171.2 157.488,171.309333 157.584,171.432 C157.68,171.554667 157.728,171.696 157.728,171.856 C157.728,172.133333 157.626667,172.36 157.424,172.536 C157.221333,172.712 156.906667,172.8 156.48,172.8 C156.074667,172.8 155.698667,172.722667 155.352,172.568 C155.005333,172.413333 154.656,172.197333 154.304,171.92 L154.304,171.92 L153.44,173.104 C153.824,173.413333 154.28,173.672 154.808,173.88 C155.336,174.088 155.872,174.192 156.416,174.192 Z M164.48,174.192 C164.981333,174.192 165.461333,174.112 165.92,173.952 C166.378667,173.792 166.794667,173.589333 167.168,173.344 L167.168,173.344 L166.544,172.192 C166.256,172.373333 165.965333,172.514667 165.672,172.616 C165.378667,172.717333 165.061333,172.768 164.72,172.768 C164.08,172.768 163.554667,172.578667 163.144,172.2 C162.733333,171.821333 162.485333,171.28 162.4,170.576 L162.4,170.576 L167.392,170.576 C167.413333,170.48 167.432,170.352 167.448,170.192 C167.464,170.032 167.472,169.861333 167.472,169.68 C167.472,169.136 167.402667,168.634667 167.264,168.176 C167.125333,167.717333 166.92,167.322667 166.648,166.992 C166.376,166.661333 166.037333,166.405333 165.632,166.224 C165.226667,166.042667 164.757333,165.952 164.224,165.952 C163.765333,165.952 163.317333,166.048 162.88,166.24 C162.442667,166.432 162.056,166.704 161.72,167.056 C161.384,167.408 161.114667,167.84 160.912,168.352 C160.709333,168.864 160.608,169.44 160.608,170.08 C160.608,170.730667 160.706667,171.309333 160.904,171.816 C161.101333,172.322667 161.376,172.752 161.728,173.104 C162.08,173.456 162.490667,173.725333 162.96,173.912 C163.429333,174.098667 163.936,174.192 164.48,174.192 Z M165.872,169.328 L162.384,169.328 C162.469333,168.688 162.688,168.202667 163.04,167.872 C163.392,167.541333 163.802667,167.376 164.272,167.376 C164.816,167.376 165.218667,167.549333 165.48,167.896 C165.741333,168.242667 165.872,168.72 165.872,169.328 L165.872,169.328 Z" id="DrivingLicense" fill="#FFFFFF" fill-rule="nonzero"></path>
    </g>
</svg>