<svg id="Layer_1" data-name="Layer 1" xmlns="http://www.w3.org/2000/svg" viewBox="0 0 480 400"><defs><style>.cls-1{fill:#db0022;}.cls-2{fill:#f5f5f5;}.cls-3{fill:none;stroke:#6e7272;stroke-miterlimit:10;}.cls-4{fill:#5151d3;}</style></defs><rect class="cls-1" width="6" height="400"/><rect class="cls-2" x="6" width="475.25" height="400"/><path class="cls-1" d="M33,10.15a15.65,15.65,0,1,0,15.7,15.6A15.73,15.73,0,0,0,33,10.15Z"/><rect class="cls-2" x="23" y="24.16" width="20" height="3.3" transform="translate(-8.58 30.9) rotate(-45)"/><rect class="cls-2" x="31.29" y="15.73" width="3.3" height="20" transform="translate(-8.55 30.83) rotate(-45)"/><path d="M187.68,100.31V89.85H194v1.56h-4.45v2.68h3.76v1.56h-3.76v3.09h4.61v1.57Z"/><path d="M196.13,100.31V92.45h1.52l.13,1.08h.06a5.07,5.07,0,0,1,1.08-.9,2.39,2.39,0,0,1,1.32-.37,2.33,2.33,0,0,1,1.39.37,2.28,2.28,0,0,1,.79,1,6,6,0,0,1,1.17-1,2.39,2.39,0,0,1,1.36-.4,2.14,2.14,0,0,1,1.84.81,3.9,3.9,0,0,1,.59,2.31v4.93h-1.86V95.62a2.42,2.42,0,0,0-.29-1.37,1.05,1.05,0,0,0-.91-.4,2.44,2.44,0,0,0-1.64,1v5.49h-1.84V95.62a2.33,2.33,0,0,0-.3-1.37,1.06,1.06,0,0,0-.92-.4,2.47,2.47,0,0,0-1.65,1v5.49Z"/><path d="M211.52,100.5a2.3,2.3,0,0,1-1.68-.63,2.27,2.27,0,0,1-.64-1.67,2.23,2.23,0,0,1,.27-1.11,2.15,2.15,0,0,1,.83-.84,5.38,5.38,0,0,1,1.44-.6,13.72,13.72,0,0,1,2.09-.37,2.8,2.8,0,0,0-.09-.58,1.54,1.54,0,0,0-.24-.5,1.14,1.14,0,0,0-.44-.33,1.67,1.67,0,0,0-.67-.12,3,3,0,0,0-1.13.22,6.87,6.87,0,0,0-1.08.55l-.67-1.24a8,8,0,0,1,1.47-.71,4.83,4.83,0,0,1,1.76-.31,2.71,2.71,0,0,1,2.2.87,3.86,3.86,0,0,1,.73,2.52v4.66h-1.52l-.13-.86H214a6.44,6.44,0,0,1-1.12.75A2.9,2.9,0,0,1,211.52,100.5Zm.59-1.44a1.72,1.72,0,0,0,.88-.22,5.2,5.2,0,0,0,.84-.64V96.44a8.88,8.88,0,0,0-1.35.25,4.43,4.43,0,0,0-.88.36,1.42,1.42,0,0,0-.48.46,1.14,1.14,0,0,0-.14.54.9.9,0,0,0,.32.77A1.3,1.3,0,0,0,212.11,99.06Z"/><path d="M218.8,91.08a1.16,1.16,0,0,1-.81-.29.93.93,0,0,1-.32-.75,1,1,0,0,1,.32-.76,1.13,1.13,0,0,1,.81-.3,1.17,1.17,0,0,1,.82.3,1,1,0,0,1,.32.76,1,1,0,0,1-.32.75A1.21,1.21,0,0,1,218.8,91.08Zm-.93,9.23V92.45h1.84v7.86Z"/><path d="M223.86,100.5a1.56,1.56,0,0,1-1.39-.59,2.81,2.81,0,0,1-.4-1.62V89h1.84v9.38a.72.72,0,0,0,.12.47.4.4,0,0,0,.28.14h.12a.54.54,0,0,0,.17,0l.23,1.38A2.39,2.39,0,0,1,223.86,100.5Z"/><rect class="cls-3" x="238.22" y="76.92" width="201.13" height="38" rx="4"/><path d="M108.6,168.25a5,5,0,0,1-1.86-.35,4.22,4.22,0,0,1-1.5-1,5.07,5.07,0,0,1-1-1.7,6.81,6.81,0,0,1-.36-2.3,6.65,6.65,0,0,1,.37-2.3,5.09,5.09,0,0,1,1-1.72,4.29,4.29,0,0,1,1.52-1.07,4.82,4.82,0,0,1,1.86-.37,3.84,3.84,0,0,1,1.76.4,4.8,4.8,0,0,1,1.26.93l-1,1.2a3.42,3.42,0,0,0-.89-.66,2.3,2.3,0,0,0-1.09-.25,2.72,2.72,0,0,0-1.18.26,2.81,2.81,0,0,0-.93.76,3.42,3.42,0,0,0-.6,1.19,5.2,5.2,0,0,0-.22,1.58,4.51,4.51,0,0,0,.78,2.81,2.48,2.48,0,0,0,2.1,1,2.54,2.54,0,0,0,1.25-.3,4.05,4.05,0,0,0,1-.78l1,1.17a4.39,4.39,0,0,1-1.46,1.13A4.23,4.23,0,0,1,108.6,168.25Z"/><path d="M115.65,168.25a2.11,2.11,0,0,1-1.84-.81,4,4,0,0,1-.57-2.31V160.2h1.84v4.69a2.5,2.5,0,0,0,.28,1.38,1.09,1.09,0,0,0,.93.4,1.67,1.67,0,0,0,.91-.26,3.81,3.81,0,0,0,.84-.83V160.2h1.84v7.86h-1.51l-.14-1.15h0a4.55,4.55,0,0,1-1.11,1A2.61,2.61,0,0,1,115.65,168.25Z"/><path d="M122.21,168.06V160.2h1.52l.13,1.4h.06a3.3,3.3,0,0,1,1-1.18,2.15,2.15,0,0,1,1.22-.41,2.18,2.18,0,0,1,.89.16l-.32,1.6-.38-.09a1.8,1.8,0,0,0-.43,0,1.72,1.72,0,0,0-1,.36,2.83,2.83,0,0,0-.88,1.26v4.8Z"/><path d="M128.18,168.06V160.2h1.52l.13,1.4h.06a3.3,3.3,0,0,1,1-1.18,2.13,2.13,0,0,1,1.22-.41,2.18,2.18,0,0,1,.89.16l-.32,1.6-.38-.09a1.8,1.8,0,0,0-.43,0,1.72,1.72,0,0,0-1,.36,2.83,2.83,0,0,0-.88,1.26v4.8Z"/><path d="M137.35,168.25a4,4,0,0,1-1.52-.28,3.52,3.52,0,0,1-1.23-.81,3.63,3.63,0,0,1-.83-1.28,5.25,5.25,0,0,1,0-3.47,3.83,3.83,0,0,1,.81-1.29,3.49,3.49,0,0,1,2.5-1.11,3.44,3.44,0,0,1,1.41.27,2.87,2.87,0,0,1,1,.77,3.44,3.44,0,0,1,.61,1.19,5.08,5.08,0,0,1,.21,1.5c0,.18,0,.35,0,.51s0,.29-.06.39h-5a2.51,2.51,0,0,0,.74,1.62,2.24,2.24,0,0,0,1.58.57,2.91,2.91,0,0,0,.95-.15,5,5,0,0,0,.87-.43l.63,1.15a5.58,5.58,0,0,1-1.25.61A4.35,4.35,0,0,1,137.35,168.25Zm-2.1-4.86h3.49a2.32,2.32,0,0,0-.39-1.43,1.41,1.41,0,0,0-1.21-.52,1.73,1.73,0,0,0-1.23.49A2.4,2.4,0,0,0,135.25,163.39Z"/><path d="M142.1,168.06V160.2h1.52l.13,1.06h.06a5.75,5.75,0,0,1,1.15-.88,2.67,2.67,0,0,1,1.43-.37,2.11,2.11,0,0,1,1.84.81,4,4,0,0,1,.57,2.31v4.93H147v-4.69a2.44,2.44,0,0,0-.28-1.37,1.09,1.09,0,0,0-1-.4,1.68,1.68,0,0,0-.9.24,6.13,6.13,0,0,0-.89.73v5.49Z"/><path d="M153.83,168.25a2.83,2.83,0,0,1-1.16-.21,2,2,0,0,1-.77-.58,2.35,2.35,0,0,1-.43-.9,4.55,4.55,0,0,1-.14-1.16v-3.74h-1.12v-1.38l1.22-.08.22-2.14h1.54v2.14h2v1.46h-2v3.74c0,.92.37,1.38,1.1,1.38a2.18,2.18,0,0,0,.43-.05,1.63,1.63,0,0,0,.39-.13l.32,1.36a4.53,4.53,0,0,1-.73.2A4,4,0,0,1,153.83,168.25Z"/><path d="M160,171.16v-11h1.52l.12.84h.07a5.49,5.49,0,0,1,1.1-.72,2.74,2.74,0,0,1,1.27-.31,3,3,0,0,1,1.3.28,2.79,2.79,0,0,1,1,.81,3.89,3.89,0,0,1,.61,1.26,6.43,6.43,0,0,1,.2,1.65,5.31,5.31,0,0,1-.28,1.8,4,4,0,0,1-.74,1.33,3.23,3.23,0,0,1-1.07.82,2.84,2.84,0,0,1-1.27.29,2.5,2.5,0,0,1-1-.22,4.17,4.17,0,0,1-1-.64l0,1.31v2.46Zm3.42-4.43a1.61,1.61,0,0,0,1.31-.68,3.27,3.27,0,0,0,.53-2,3.49,3.49,0,0,0-.4-1.84,1.41,1.41,0,0,0-1.3-.66,2.52,2.52,0,0,0-1.72.88v3.67a2.78,2.78,0,0,0,.83.51A2.35,2.35,0,0,0,163.46,166.73Z"/><path d="M170.77,168.25a2.3,2.3,0,0,1-1.68-.63,2.47,2.47,0,0,1-.37-2.78,2.15,2.15,0,0,1,.83-.84,5.38,5.38,0,0,1,1.44-.6,12.67,12.67,0,0,1,2.09-.36,3.64,3.64,0,0,0-.09-.59,1.4,1.4,0,0,0-.24-.49,1.07,1.07,0,0,0-.44-.34,1.67,1.67,0,0,0-.67-.12,3,3,0,0,0-1.13.22,6.87,6.87,0,0,0-1.08.55l-.67-1.23a7.18,7.18,0,0,1,1.47-.72A4.83,4.83,0,0,1,172,160a2.71,2.71,0,0,1,2.2.87,3.88,3.88,0,0,1,.73,2.52v4.66H173.4l-.13-.86h-.07a6.44,6.44,0,0,1-1.12.75A2.9,2.9,0,0,1,170.77,168.25Zm.59-1.44a1.77,1.77,0,0,0,.88-.22,4.68,4.68,0,0,0,.84-.64v-1.76a8.65,8.65,0,0,0-1.35.25,4.43,4.43,0,0,0-.88.36,1.42,1.42,0,0,0-.48.46,1.14,1.14,0,0,0-.14.54.87.87,0,0,0,.32.77A1.3,1.3,0,0,0,171.36,166.81Z"/><path d="M179.32,168.25a4.31,4.31,0,0,1-1.61-.31,5.16,5.16,0,0,1-1.37-.78l.86-1.18a5.26,5.26,0,0,0,1.05.65,2.82,2.82,0,0,0,1.13.23,1.43,1.43,0,0,0,.94-.26.86.86,0,0,0,.31-.68.66.66,0,0,0-.15-.43,1.39,1.39,0,0,0-.38-.33,4.54,4.54,0,0,0-.54-.26l-.61-.25c-.26-.09-.52-.21-.79-.33a3.5,3.5,0,0,1-.71-.47,2.21,2.21,0,0,1-.51-.63,1.79,1.79,0,0,1-.2-.86,2.13,2.13,0,0,1,.77-1.69,3.1,3.1,0,0,1,2.09-.66,3.69,3.69,0,0,1,1.48.29,5.33,5.33,0,0,1,1.13.66l-.85,1.12a3.6,3.6,0,0,0-.84-.49,2.08,2.08,0,0,0-.88-.19,1.34,1.34,0,0,0-.88.25.82.82,0,0,0-.28.62.66.66,0,0,0,.14.41,1.18,1.18,0,0,0,.36.29,2.8,2.8,0,0,0,.52.24l.62.23c.26.09.53.2.8.32a3.54,3.54,0,0,1,.72.46,2,2,0,0,1,.73,1.6,2.23,2.23,0,0,1-.78,1.72,2.94,2.94,0,0,1-1,.52A4.1,4.1,0,0,1,179.32,168.25Z"/><path d="M186.21,168.25a4.34,4.34,0,0,1-1.61-.31,5.33,5.33,0,0,1-1.37-.78l.87-1.18a5,5,0,0,0,1.05.65,2.77,2.77,0,0,0,1.12.23,1.46,1.46,0,0,0,.95-.26.88.88,0,0,0,.3-.68.65.65,0,0,0-.14-.43,1.62,1.62,0,0,0-.39-.33,3.9,3.9,0,0,0-.54-.26l-.61-.25c-.25-.09-.51-.21-.78-.33a3.24,3.24,0,0,1-.71-.47,2.21,2.21,0,0,1-.51-.63,1.68,1.68,0,0,1-.2-.86,2.12,2.12,0,0,1,.76-1.69,3.13,3.13,0,0,1,2.1-.66,3.67,3.67,0,0,1,1.47.29,5.17,5.17,0,0,1,1.14.66l-.85,1.12a4.06,4.06,0,0,0-.84-.49,2.09,2.09,0,0,0-.89-.19,1.33,1.33,0,0,0-.87.25.79.79,0,0,0-.28.62.6.6,0,0,0,.14.41,1.18,1.18,0,0,0,.36.29,2.52,2.52,0,0,0,.52.24l.61.23c.27.09.53.2.8.32a3.61,3.61,0,0,1,.73.46,2,2,0,0,1,.73,1.6,2.31,2.31,0,0,1-.2,1,2.21,2.21,0,0,1-.59.77,2.74,2.74,0,0,1-1,.52A4.06,4.06,0,0,1,186.21,168.25Z"/><path d="M192.21,168.06l-2.08-7.86H192l.94,4.08c.09.38.16.75.22,1.12s.12.76.2,1.14h.06c.08-.38.15-.76.23-1.14s.17-.74.27-1.12l1-4.08h1.68l1,4.08c.1.38.19.75.27,1.12s.17.76.26,1.14h.06q.12-.57.21-1.14c.07-.37.13-.74.21-1.12l.94-4.08h1.73l-2,7.86h-2.19l-.91-3.66c-.09-.38-.17-.75-.24-1.12s-.16-.76-.24-1.17h-.07c-.07.41-.15.81-.22,1.18s-.15.75-.24,1.12l-.9,3.65Z"/><path d="M206,168.25a3.76,3.76,0,0,1-1.41-.27,3.62,3.62,0,0,1-1.19-.8,3.8,3.8,0,0,1-.82-1.3,5,5,0,0,1,0-3.48,3.66,3.66,0,0,1,4.84-2.11,3.59,3.59,0,0,1,1.19.81,4,4,0,0,1,.83,1.3,5,5,0,0,1,0,3.48,4,4,0,0,1-.83,1.3,3.42,3.42,0,0,1-1.19.8A3.81,3.81,0,0,1,206,168.25Zm0-1.5a1.57,1.57,0,0,0,1.36-.71,3.88,3.88,0,0,0,0-3.81,1.65,1.65,0,0,0-2.71,0,3.95,3.95,0,0,0,0,3.81A1.57,1.57,0,0,0,206,166.75Z"/><path d="M211.57,168.06V160.2h1.52l.13,1.4h.06a3.3,3.3,0,0,1,1-1.18,2.15,2.15,0,0,1,1.22-.41,2.18,2.18,0,0,1,.89.16l-.32,1.6-.38-.09a1.8,1.8,0,0,0-.43,0,1.72,1.72,0,0,0-1,.36,2.83,2.83,0,0,0-.88,1.26v4.8Z"/><path d="M220.13,168.25a2.87,2.87,0,0,1-2.36-1.08,4.71,4.71,0,0,1-.87-3,4.94,4.94,0,0,1,.28-1.73,3.86,3.86,0,0,1,.74-1.29,3.23,3.23,0,0,1,1.07-.82,2.85,2.85,0,0,1,1.24-.29,2.59,2.59,0,0,1,1.13.23,4.7,4.7,0,0,1,.93.64l-.06-1.27v-2.85h1.84v11.3h-1.52l-.13-.85h-.07a4.19,4.19,0,0,1-1,.74A2.62,2.62,0,0,1,220.13,168.25Zm.45-1.52a2.21,2.21,0,0,0,1.65-.88v-3.66a2.46,2.46,0,0,0-.81-.51,2.21,2.21,0,0,0-.79-.15,1.61,1.61,0,0,0-1.3.67,3.07,3.07,0,0,0-.53,1.92,3.41,3.41,0,0,0,.46,1.95A1.5,1.5,0,0,0,220.58,166.73Z"/><rect class="cls-3" x="238.22" y="144.67" width="201.13" height="38" rx="4"/><path d="M126.42,236V225.49h1.9l3.27,5.89,1.07,2.23h.06c0-.55-.09-1.13-.15-1.76s-.09-1.23-.09-1.81v-4.55h1.78V236h-1.9l-3.27-5.89L128,227.85H128q.06.83.15,1.74c.06.61.09,1.21.09,1.79V236Z"/><path d="M140.12,236.15a4,4,0,0,1-1.52-.28,3.8,3.8,0,0,1-1.24-.81,3.7,3.7,0,0,1-.82-1.29,4.65,4.65,0,0,1-.3-1.73,4.72,4.72,0,0,1,.31-1.73,4,4,0,0,1,.81-1.3,3.47,3.47,0,0,1,1.16-.81,3.3,3.3,0,0,1,1.34-.29,3.48,3.48,0,0,1,1.41.27,2.75,2.75,0,0,1,1,.77,3.33,3.33,0,0,1,.62,1.18,5.15,5.15,0,0,1,.21,1.51,4.12,4.12,0,0,1,0,.51,2.53,2.53,0,0,1-.05.38h-5a2.52,2.52,0,0,0,.74,1.63,2.24,2.24,0,0,0,1.58.57,2.67,2.67,0,0,0,.95-.16,4.33,4.33,0,0,0,.87-.42l.62,1.15a5.3,5.3,0,0,1-1.24.61A4.35,4.35,0,0,1,140.12,236.15Zm-2.1-4.86h3.49a2.37,2.37,0,0,0-.39-1.44,1.45,1.45,0,0,0-1.21-.52,1.74,1.74,0,0,0-1.23.5A2.35,2.35,0,0,0,138,231.29Z"/><path d="M146.16,236l-2.08-7.86h1.86l.94,4.08c.09.38.16.75.22,1.12s.13.75.2,1.14h.06c.08-.39.16-.76.24-1.14s.16-.74.26-1.12l1-4.08h1.68l1,4.08c.1.38.19.75.28,1.12s.17.75.25,1.14h.07c.07-.39.14-.76.2-1.14l.21-1.12.95-4.08h1.72l-2,7.86h-2.19l-.91-3.67q-.13-.56-.24-1.11T149.7,230h-.06c-.08.41-.15.81-.23,1.18s-.15.75-.24,1.12l-.89,3.65Z"/><path d="M160,239.06v-11h1.52l.12.83h.07a6.52,6.52,0,0,1,1.1-.72,3,3,0,0,1,2.57,0,2.79,2.79,0,0,1,1,.81,3.89,3.89,0,0,1,.61,1.26,6.43,6.43,0,0,1,.2,1.65,5.31,5.31,0,0,1-.28,1.8,4,4,0,0,1-.74,1.33,3.23,3.23,0,0,1-1.07.82,3,3,0,0,1-1.27.29,2.68,2.68,0,0,1-1-.22,4.17,4.17,0,0,1-1-.64l0,1.31v2.46Zm3.42-4.43a1.61,1.61,0,0,0,1.31-.68,3.27,3.27,0,0,0,.53-2,3.49,3.49,0,0,0-.4-1.84,1.41,1.41,0,0,0-1.3-.66,2.52,2.52,0,0,0-1.72.88V234a2.64,2.64,0,0,0,.83.52A2.35,2.35,0,0,0,163.46,234.63Z"/><path d="M170.77,236.15a2.3,2.3,0,0,1-1.68-.63,2.23,2.23,0,0,1-.64-1.67,2.18,2.18,0,0,1,1.1-2,5.73,5.73,0,0,1,1.44-.59,13.72,13.72,0,0,1,2.09-.37,3.69,3.69,0,0,0-.09-.58,1.45,1.45,0,0,0-.24-.5,1.14,1.14,0,0,0-.44-.33,1.67,1.67,0,0,0-.67-.12,3,3,0,0,0-1.13.22,6.87,6.87,0,0,0-1.08.55l-.67-1.24a8.38,8.38,0,0,1,1.47-.72,5,5,0,0,1,1.76-.3,2.71,2.71,0,0,1,2.2.87,3.86,3.86,0,0,1,.73,2.52V236H173.4l-.13-.87h-.07a6,6,0,0,1-1.12.76A2.9,2.9,0,0,1,170.77,236.15Zm.59-1.44a1.77,1.77,0,0,0,.88-.22,5.2,5.2,0,0,0,.84-.64v-1.76a8.65,8.65,0,0,0-1.35.25,4.43,4.43,0,0,0-.88.36,1.42,1.42,0,0,0-.48.46,1.14,1.14,0,0,0-.14.54.89.89,0,0,0,.32.77A1.3,1.3,0,0,0,171.36,234.71Z"/><path d="M179.32,236.15a4.31,4.31,0,0,1-1.61-.31,5.16,5.16,0,0,1-1.37-.78l.86-1.18a5.77,5.77,0,0,0,1.05.65,2.82,2.82,0,0,0,1.13.23,1.37,1.37,0,0,0,.94-.27.83.83,0,0,0,.31-.68.64.64,0,0,0-.15-.42,1.39,1.39,0,0,0-.38-.33,4.54,4.54,0,0,0-.54-.26l-.61-.25c-.26-.1-.52-.21-.79-.34a3.09,3.09,0,0,1-.71-.46,2.21,2.21,0,0,1-.51-.63,1.79,1.79,0,0,1-.2-.86,2.12,2.12,0,0,1,.77-1.69,3.1,3.1,0,0,1,2.09-.66,3.69,3.69,0,0,1,1.48.29,5.78,5.78,0,0,1,1.13.65l-.85,1.12a3.94,3.94,0,0,0-.84-.48,2.08,2.08,0,0,0-.88-.19,1.28,1.28,0,0,0-.88.25.82.82,0,0,0-.28.62.61.61,0,0,0,.14.4,1.2,1.2,0,0,0,.36.3,2.8,2.8,0,0,0,.52.24l.62.22.8.33a3.15,3.15,0,0,1,.72.46,2,2,0,0,1,.53.66,2,2,0,0,1,.2.94,2.16,2.16,0,0,1-.2.95,2.27,2.27,0,0,1-.58.77,2.94,2.94,0,0,1-1,.52A4.1,4.1,0,0,1,179.32,236.15Z"/><path d="M186.21,236.15a4.34,4.34,0,0,1-1.61-.31,5.33,5.33,0,0,1-1.37-.78l.87-1.18a5.45,5.45,0,0,0,1.05.65,2.77,2.77,0,0,0,1.12.23,1.4,1.4,0,0,0,.95-.27.85.85,0,0,0,.3-.68.63.63,0,0,0-.14-.42,1.62,1.62,0,0,0-.39-.33,3.9,3.9,0,0,0-.54-.26l-.61-.25c-.25-.1-.51-.21-.78-.34a2.89,2.89,0,0,1-.71-.46,2.21,2.21,0,0,1-.51-.63,1.68,1.68,0,0,1-.2-.86,2.11,2.11,0,0,1,.76-1.69,3.13,3.13,0,0,1,2.1-.66,3.67,3.67,0,0,1,1.47.29,5.59,5.59,0,0,1,1.14.65l-.85,1.12a4.5,4.5,0,0,0-.84-.48,2.09,2.09,0,0,0-.89-.19,1.27,1.27,0,0,0-.87.25.79.79,0,0,0-.28.62.56.56,0,0,0,.14.4,1.2,1.2,0,0,0,.36.3,2.52,2.52,0,0,0,.52.24l.61.22c.27.1.53.21.8.33a3.22,3.22,0,0,1,.73.46,2.14,2.14,0,0,1,.53.66,2.1,2.1,0,0,1,.2.94,2.19,2.19,0,0,1-.79,1.72,2.74,2.74,0,0,1-1,.52A4.06,4.06,0,0,1,186.21,236.15Z"/><path d="M192.21,236l-2.08-7.86H192l.94,4.08c.09.38.16.75.22,1.12s.12.75.2,1.14h.06c.08-.39.15-.76.23-1.14s.17-.74.27-1.12l1-4.08h1.68l1,4.08c.1.38.19.75.27,1.12s.17.75.26,1.14h.06c.08-.39.15-.76.21-1.14s.13-.74.21-1.12l.94-4.08h1.73l-2,7.86h-2.19l-.91-3.67q-.14-.56-.24-1.11t-.24-1.17h-.07c-.07.41-.15.81-.22,1.18s-.15.75-.24,1.12l-.9,3.65Z"/><path d="M206,236.15a3.67,3.67,0,0,1-1.4-.27,3.56,3.56,0,0,1-1.2-.8,3.9,3.9,0,0,1-.82-1.3,4.74,4.74,0,0,1-.3-1.74,4.83,4.83,0,0,1,.3-1.75,3.85,3.85,0,0,1,.82-1.29,3.74,3.74,0,0,1,1.2-.81,3.5,3.5,0,0,1,1.4-.28,3.63,3.63,0,0,1,1.42.28,3.59,3.59,0,0,1,1.19.81,4,4,0,0,1,.83,1.29,4.83,4.83,0,0,1,.31,1.75,4.73,4.73,0,0,1-.31,1.74,4.09,4.09,0,0,1-.83,1.3,3.42,3.42,0,0,1-1.19.8A3.81,3.81,0,0,1,206,236.15Zm0-1.5a1.56,1.56,0,0,0,1.36-.72,3.23,3.23,0,0,0,.5-1.89,3.28,3.28,0,0,0-.5-1.91,1.64,1.64,0,0,0-2.71,0,3.35,3.35,0,0,0-.49,1.91,3.31,3.31,0,0,0,.49,1.89A1.56,1.56,0,0,0,206,234.65Z"/><path d="M211.57,236V228.1h1.52l.13,1.39h.06a3.35,3.35,0,0,1,1-1.17,2.15,2.15,0,0,1,1.22-.41,2,2,0,0,1,.89.16l-.32,1.6-.38-.1a2.63,2.63,0,0,0-.43,0,1.72,1.72,0,0,0-1,.36,2.83,2.83,0,0,0-.88,1.26V236Z"/><path d="M220.13,236.15a2.87,2.87,0,0,1-2.36-1.08,4.71,4.71,0,0,1-.87-3,4.94,4.94,0,0,1,.28-1.73,4.21,4.21,0,0,1,.74-1.3,3.33,3.33,0,0,1,1.07-.81,2.85,2.85,0,0,1,1.24-.29,2.56,2.56,0,0,1,1.13.23,5.09,5.09,0,0,1,.93.63l-.06-1.26v-2.85h1.84V236h-1.52l-.13-.85h-.07a4.19,4.19,0,0,1-1,.74A2.62,2.62,0,0,1,220.13,236.15Zm.45-1.52a2.18,2.18,0,0,0,1.65-.88v-3.66a2.68,2.68,0,0,0-.81-.52,2.44,2.44,0,0,0-.79-.14,1.59,1.59,0,0,0-1.3.67,3.07,3.07,0,0,0-.53,1.92,3.49,3.49,0,0,0,.46,1.95A1.5,1.5,0,0,0,220.58,234.63Z"/><rect class="cls-3" x="238.22" y="212.57" width="201.13" height="38" rx="4"/><path d="M73.25,303.25a4.91,4.91,0,0,1-1.85-.35,4.13,4.13,0,0,1-1.5-1,5.17,5.17,0,0,1-1-1.7,6.81,6.81,0,0,1-.37-2.3,6.6,6.6,0,0,1,.38-2.3,5.13,5.13,0,0,1,1-1.72,4.34,4.34,0,0,1,1.52-1.07,4.69,4.69,0,0,1,1.87-.37,3.71,3.71,0,0,1,1.76.4,4.8,4.8,0,0,1,1.26.93l-1,1.2a3.76,3.76,0,0,0-.9-.67,2.38,2.38,0,0,0-1.08-.24,2.58,2.58,0,0,0-1.18.26,2.8,2.8,0,0,0-.93.75,3.71,3.71,0,0,0-.61,1.19,5.57,5.57,0,0,0-.21,1.59,4.6,4.6,0,0,0,.77,2.81,2.53,2.53,0,0,0,2.11,1,2.68,2.68,0,0,0,1.25-.29,4.05,4.05,0,0,0,1-.78l1,1.17a4.75,4.75,0,0,1-1.46,1.13A4.24,4.24,0,0,1,73.25,303.25Z"/><path d="M81.35,303.25a3.76,3.76,0,0,1-1.41-.27,3.67,3.67,0,0,1-1.19-.8,3.84,3.84,0,0,1-.82-1.3,4.54,4.54,0,0,1-.31-1.74,4.59,4.59,0,0,1,.31-1.75,3.7,3.7,0,0,1,.82-1.29,3.55,3.55,0,0,1,1.19-.81,3.58,3.58,0,0,1,1.41-.28,3.67,3.67,0,0,1,1.42.28,3.45,3.45,0,0,1,1.19.81,4,4,0,0,1,.82,1.29,4.59,4.59,0,0,1,.31,1.75,4.54,4.54,0,0,1-.31,1.74,4.18,4.18,0,0,1-.82,1.3,3.57,3.57,0,0,1-1.19.8A3.85,3.85,0,0,1,81.35,303.25Zm0-1.51a1.55,1.55,0,0,0,1.36-.71,3.23,3.23,0,0,0,.5-1.89,3.33,3.33,0,0,0-.5-1.92,1.57,1.57,0,0,0-1.36-.71,1.54,1.54,0,0,0-1.35.71,3.33,3.33,0,0,0-.49,1.92A3.23,3.23,0,0,0,80,301,1.52,1.52,0,0,0,81.35,301.74Z"/><path d="M86.92,303.06V295.2h1.52l.13,1.06h.06a5.61,5.61,0,0,1,1.14-.88,2.71,2.71,0,0,1,1.44-.37,2.11,2.11,0,0,1,1.84.81,4,4,0,0,1,.57,2.31v4.93H91.78v-4.69a2.4,2.4,0,0,0-.29-1.38,1.09,1.09,0,0,0-.94-.4,1.6,1.6,0,0,0-.9.25,5.63,5.63,0,0,0-.89.73v5.49Z"/><path d="M96.2,303.06v-6.4H95.14v-1.38l1.06-.08v-.82a4.4,4.4,0,0,1,.14-1.12,2.28,2.28,0,0,1,.47-.9,2,2,0,0,1,.8-.58,3.07,3.07,0,0,1,1.2-.21,3.42,3.42,0,0,1,.79.08,4.24,4.24,0,0,1,.65.19l-.36,1.38A2,2,0,0,0,99,293c-.66,0-1,.45-1,1.33v.85h1.53v1.46H98v6.4Z"/><path d="M101.88,293.82a1.18,1.18,0,0,1-.82-.28,1,1,0,0,1-.32-.76,1,1,0,0,1,.32-.76,1.19,1.19,0,0,1,.82-.29,1.16,1.16,0,0,1,.81.29,1,1,0,0,1,.32.76,1,1,0,0,1-.32.76A1.16,1.16,0,0,1,101.88,293.82Zm-.93,9.24V295.2h1.84v7.86Z"/><path d="M105.14,303.06V295.2h1.52l.13,1.39h.06a3.35,3.35,0,0,1,1-1.17,2.08,2.08,0,0,1,1.22-.41,2,2,0,0,1,.89.16l-.32,1.6a3.61,3.61,0,0,0-.38-.1,2.63,2.63,0,0,0-.43,0,1.72,1.72,0,0,0-1,.36,2.83,2.83,0,0,0-.88,1.26v4.8Z"/><path d="M111.11,303.06V295.2h1.52l.13,1.07h.06a5.33,5.33,0,0,1,1.08-.89,2.39,2.39,0,0,1,1.32-.37,2.28,2.28,0,0,1,1.38.37,2.23,2.23,0,0,1,.8,1,6,6,0,0,1,1.16-1,2.42,2.42,0,0,1,1.37-.4,2.14,2.14,0,0,1,1.84.81,3.9,3.9,0,0,1,.59,2.31v4.93H120.5v-4.69a2.39,2.39,0,0,0-.3-1.38,1,1,0,0,0-.9-.4,2.49,2.49,0,0,0-1.65,1v5.49h-1.84v-4.69a2.48,2.48,0,0,0-.29-1.38,1.1,1.1,0,0,0-.92-.4,2.49,2.49,0,0,0-1.65,1v5.49Z"/><path d="M127.8,303.06V295.2h1.52l.12,1.06h.07a5.61,5.61,0,0,1,1.14-.88,2.7,2.7,0,0,1,1.43-.37,2.09,2.09,0,0,1,1.84.81,3.9,3.9,0,0,1,.58,2.31v4.93h-1.84v-4.69a2.48,2.48,0,0,0-.29-1.38,1.09,1.09,0,0,0-.94-.4,1.66,1.66,0,0,0-.91.25,6.11,6.11,0,0,0-.88.73v5.49Z"/><path d="M140.12,303.25a4.19,4.19,0,0,1-1.52-.28,3.8,3.8,0,0,1-1.24-.81,3.7,3.7,0,0,1-.82-1.29,4.65,4.65,0,0,1-.3-1.73,4.72,4.72,0,0,1,.31-1.73,3.88,3.88,0,0,1,.81-1.3,3.47,3.47,0,0,1,1.16-.81,3.14,3.14,0,0,1,1.34-.29,3.48,3.48,0,0,1,1.41.27,2.75,2.75,0,0,1,1,.77,3.24,3.24,0,0,1,.62,1.18,5.15,5.15,0,0,1,.21,1.51,4.12,4.12,0,0,1,0,.51,2.53,2.53,0,0,1-.05.38h-5a2.52,2.52,0,0,0,.74,1.63,2.28,2.28,0,0,0,1.58.56,2.91,2.91,0,0,0,.95-.15,4.33,4.33,0,0,0,.87-.42l.62,1.15a5.3,5.3,0,0,1-1.24.61A4.35,4.35,0,0,1,140.12,303.25Zm-2.1-4.87h3.49a2.36,2.36,0,0,0-.39-1.43,1.45,1.45,0,0,0-1.21-.52,1.74,1.74,0,0,0-1.23.5A2.32,2.32,0,0,0,138,298.38Z"/><path d="M146.16,303.06l-2.08-7.86h1.86l.94,4.08c.09.37.16.75.22,1.12s.13.75.2,1.14h.06q.12-.59.24-1.14c.08-.37.16-.75.26-1.12l1-4.08h1.68l1,4.08c.1.37.19.75.28,1.12s.17.75.25,1.14h.07c.07-.39.14-.77.2-1.14l.21-1.12.95-4.08h1.72l-2,7.86h-2.19l-.91-3.67q-.13-.56-.24-1.11c-.08-.37-.16-.76-.24-1.18h-.06c-.08.42-.15.81-.23,1.19s-.15.74-.24,1.12l-.89,3.65Z"/><path d="M160,306.16v-11h1.52l.12.83h.07a6,6,0,0,1,1.1-.72,3,3,0,0,1,2.57,0,2.69,2.69,0,0,1,1,.81,3.89,3.89,0,0,1,.61,1.26,6.43,6.43,0,0,1,.2,1.65,5.31,5.31,0,0,1-.28,1.8,4,4,0,0,1-.74,1.33,3.37,3.37,0,0,1-1.07.82,3,3,0,0,1-1.27.29,2.52,2.52,0,0,1-1-.23,3.88,3.88,0,0,1-1-.64l0,1.32v2.46Zm3.42-4.43a1.61,1.61,0,0,0,1.31-.68,3.3,3.3,0,0,0,.53-2,3.54,3.54,0,0,0-.4-1.84,1.42,1.42,0,0,0-1.3-.65,2.52,2.52,0,0,0-1.72.88v3.66a2.43,2.43,0,0,0,.83.51A2.13,2.13,0,0,0,163.46,301.73Z"/><path d="M170.77,303.25a2.3,2.3,0,0,1-1.68-.63,2.24,2.24,0,0,1-.64-1.68,2.17,2.17,0,0,1,1.1-1.95,5.73,5.73,0,0,1,1.44-.59,13.72,13.72,0,0,1,2.09-.37,3.52,3.52,0,0,0-.09-.58,1.45,1.45,0,0,0-.24-.5,1.14,1.14,0,0,0-.44-.33,1.67,1.67,0,0,0-.67-.12,3,3,0,0,0-1.13.22,7.77,7.77,0,0,0-1.08.54l-.67-1.23a7.73,7.73,0,0,1,1.47-.72A5,5,0,0,1,172,295a2.71,2.71,0,0,1,2.2.87,3.86,3.86,0,0,1,.73,2.52v4.66H173.4l-.13-.87h-.07a5.48,5.48,0,0,1-1.12.75A2.78,2.78,0,0,1,170.77,303.25Zm.59-1.44a1.78,1.78,0,0,0,.88-.23,4.25,4.25,0,0,0,.84-.64v-1.76a8.53,8.53,0,0,0-1.35.26,4.43,4.43,0,0,0-.88.36,1.33,1.33,0,0,0-.48.46,1.14,1.14,0,0,0-.14.54.89.89,0,0,0,.32.77A1.3,1.3,0,0,0,171.36,301.81Z"/><path d="M179.32,303.25a4.51,4.51,0,0,1-1.61-.31,5.16,5.16,0,0,1-1.37-.78l.86-1.18a5.19,5.19,0,0,0,1.05.64,2.66,2.66,0,0,0,1.13.24,1.37,1.37,0,0,0,.94-.27.83.83,0,0,0,.31-.68.64.64,0,0,0-.15-.42,1.39,1.39,0,0,0-.38-.33,3.39,3.39,0,0,0-.54-.26l-.61-.25c-.26-.1-.52-.21-.79-.34a3.46,3.46,0,0,1-.71-.46,2.21,2.21,0,0,1-.51-.63,1.79,1.79,0,0,1-.2-.86,2.15,2.15,0,0,1,.77-1.7,3.15,3.15,0,0,1,2.09-.65,3.52,3.52,0,0,1,1.48.29,5.78,5.78,0,0,1,1.13.65l-.85,1.12a4.48,4.48,0,0,0-.84-.49,2.23,2.23,0,0,0-.88-.18,1.28,1.28,0,0,0-.88.25.8.8,0,0,0-.28.61.64.64,0,0,0,.14.41,1.37,1.37,0,0,0,.36.3,5.2,5.2,0,0,0,.52.24l.62.22.8.33a2.85,2.85,0,0,1,.72.46,2,2,0,0,1,.53.66,2,2,0,0,1,.2.94,2.16,2.16,0,0,1-.2.95,2.27,2.27,0,0,1-.58.77,3.13,3.13,0,0,1-1,.52A4.4,4.4,0,0,1,179.32,303.25Z"/><path d="M186.21,303.25a4.56,4.56,0,0,1-1.61-.31,5.26,5.26,0,0,1-1.36-.78l.86-1.18a4.93,4.93,0,0,0,1.05.64,2.63,2.63,0,0,0,1.13.24,1.39,1.39,0,0,0,.94-.27.85.85,0,0,0,.3-.68.63.63,0,0,0-.14-.42,1.56,1.56,0,0,0-.38-.33,3.51,3.51,0,0,0-.55-.26l-.61-.25c-.25-.1-.51-.21-.78-.34a3.21,3.21,0,0,1-.71-.46,2.21,2.21,0,0,1-.51-.63,1.68,1.68,0,0,1-.2-.86,2.14,2.14,0,0,1,.76-1.7,3.18,3.18,0,0,1,2.1-.65,3.51,3.51,0,0,1,1.47.29,5.59,5.59,0,0,1,1.14.65l-.85,1.12a5.22,5.22,0,0,0-.84-.49,2.25,2.25,0,0,0-.89-.18,1.27,1.27,0,0,0-.87.25.77.77,0,0,0-.28.61.64.64,0,0,0,.14.41,1.37,1.37,0,0,0,.36.3,4.33,4.33,0,0,0,.52.24l.61.22c.27.1.54.21.8.33a2.91,2.91,0,0,1,.73.46,2.14,2.14,0,0,1,.53.66,2.07,2.07,0,0,1,.2.94,2.19,2.19,0,0,1-.79,1.72,2.92,2.92,0,0,1-1,.52A4.35,4.35,0,0,1,186.21,303.25Z"/><path d="M192.21,303.06l-2.08-7.86H192l.94,4.08c.09.37.16.75.22,1.12s.12.75.2,1.14h.06c.08-.39.15-.77.23-1.14s.17-.75.27-1.12l1-4.08h1.68l1,4.08c.1.37.19.75.27,1.12s.17.75.26,1.14h.06q.12-.59.21-1.14c.07-.37.13-.75.21-1.12l.94-4.08h1.73l-2,7.86h-2.19l-.91-3.67q-.14-.56-.24-1.11c-.08-.37-.16-.76-.24-1.18h-.07c-.07.42-.15.81-.22,1.19s-.15.74-.24,1.12l-.9,3.65Z"/><path d="M206,303.25a3.67,3.67,0,0,1-1.4-.27,3.71,3.71,0,0,1-1.2-.8,4,4,0,0,1-.82-1.3,4.74,4.74,0,0,1-.3-1.74,4.79,4.79,0,0,1,.3-1.75,3.85,3.85,0,0,1,.82-1.29,3.59,3.59,0,0,1,1.2-.81A3.5,3.5,0,0,1,206,295a3.63,3.63,0,0,1,1.42.28,3.45,3.45,0,0,1,1.19.81,4,4,0,0,1,.83,1.29,4.79,4.79,0,0,1,.31,1.75,4.73,4.73,0,0,1-.31,1.74,4.2,4.2,0,0,1-.83,1.3,3.57,3.57,0,0,1-1.19.8A3.81,3.81,0,0,1,206,303.25Zm0-1.51a1.55,1.55,0,0,0,1.36-.71,3.23,3.23,0,0,0,.5-1.89,3.33,3.33,0,0,0-.5-1.92,1.65,1.65,0,0,0-2.71,0,3.41,3.41,0,0,0-.49,1.92,3.31,3.31,0,0,0,.49,1.89A1.55,1.55,0,0,0,206,301.74Z"/><path d="M211.57,303.06V295.2h1.52l.13,1.39h.06a3.35,3.35,0,0,1,1-1.17,2.08,2.08,0,0,1,1.22-.41,2,2,0,0,1,.89.16l-.32,1.6a3.61,3.61,0,0,0-.38-.1,2.63,2.63,0,0,0-.43,0,1.72,1.72,0,0,0-1,.36,2.83,2.83,0,0,0-.88,1.26v4.8Z"/><path d="M220.13,303.25a2.87,2.87,0,0,1-2.36-1.08,4.71,4.71,0,0,1-.87-3,4.94,4.94,0,0,1,.28-1.73,4.09,4.09,0,0,1,.74-1.3,3.33,3.33,0,0,1,1.07-.81,2.72,2.72,0,0,1,1.24-.29,2.56,2.56,0,0,1,1.13.23,5.09,5.09,0,0,1,.93.63l-.06-1.26v-2.85h1.84v11.3h-1.52l-.13-.85h-.07a3.9,3.9,0,0,1-1,.73A2.52,2.52,0,0,1,220.13,303.25Zm.45-1.52a2.18,2.18,0,0,0,1.65-.88v-3.67a2.84,2.84,0,0,0-.81-.51,2.44,2.44,0,0,0-.79-.14,1.59,1.59,0,0,0-1.3.67,3.07,3.07,0,0,0-.53,1.92,3.45,3.45,0,0,0,.46,1.94A1.48,1.48,0,0,0,220.58,301.73Z"/><rect class="cls-3" x="238.22" y="279.67" width="201.13" height="38" rx="4"/><path class="cls-4" d="M176.68,92l1.39,2.31a.69.69,0,0,1-.24,1L98.45,143l1.5,2.48a.72.72,0,0,1-.77,1l-6.86-1.71a.67.67,0,0,1-.52-.86l1.71-6.86a.73.73,0,0,1,1.29-.19l1.54,2.57,79.38-47.69A.68.68,0,0,1,176.68,92Z"/><path class="cls-4" d="M100,145.77l3.86,6.43a1.76,1.76,0,0,1-1.95,2.57L84.5,150.43a1.75,1.75,0,0,1-1.29-2.14l4.35-17.43a1.76,1.76,0,0,1,3.19-.52l3.86,6.43"/><path class="cls-4" d="M102.07,247.39l1.51,2.24a.69.69,0,0,1-.19,1L50.66,286.16l1.62,2.41a.71.71,0,0,1-.71,1.08l-6.94-1.35a.67.67,0,0,1-.56-.83l1.35-6.94a.72.72,0,0,1,1.27-.25l1.68,2.48L101.1,247.2A.69.69,0,0,1,102.07,247.39Z"/><path class="cls-4" d="M52.37,288.87l4.19,6.22a1.76,1.76,0,0,1-1.82,2.67l-17.63-3.43a1.74,1.74,0,0,1-1.39-2.07l3.42-17.63A1.76,1.76,0,0,1,42.3,274l4.2,6.22"/><path class="cls-4" d="M68.39,156.18l2.39-1.26a.67.67,0,0,1,.94.28L107.22,222l2.56-1.36a.71.71,0,0,1,1,.83l-2.06,6.76a.68.68,0,0,1-.89.47l-6.76-2.07a.72.72,0,0,1-.12-1.29l2.65-1.41L68.1,157.13A.7.7,0,0,1,68.39,156.18Z"/><path class="cls-4" d="M110.09,220.54l6.62-3.52a1.76,1.76,0,0,1,2.47,2.08l-5.25,17.18a1.75,1.75,0,0,1-2.21,1.17L94.55,232.2A1.76,1.76,0,0,1,94.2,229l6.62-3.52"/></svg>