<?xml version="1.0" encoding="UTF-8"?>
<svg viewBox="0 0 500 250" version="1.1" xmlns="http://www.w3.org/2000/svg" xmlns:xlink="http://www.w3.org/1999/xlink">
    <!-- Generator: Sketch 64 (93537) - https://sketch.com -->
    <title>Artboard</title>
    <desc>Created with Sketch.</desc>
    <g id="Artboard" stroke="none" stroke-width="1" fill="none" fill-rule="evenodd">
        <rect id="Rectangle" fill="#EE020A" fill-rule="nonzero" x="0" y="0" width="6" height="250"></rect>
        <rect id="Rectangle" fill="#F5F5F5" fill-rule="nonzero" x="6" y="0" width="495" height="250"></rect>
        <path d="M33.9,12 C25.3,12 18.2,19 18.2,27.7 C18.2,36.4 25.2,43.3 33.9,43.3 C42.6,43.3 49.6,36.3 49.6,27.6 C49.6,18.9 42.5,12 33.9,12 Z" id="Path" fill="#EE020A" fill-rule="nonzero"></path>
        <g id="Group" transform="translate(25.000000, 19.300000)" fill="#F5F5F5" fill-rule="nonzero">
            <rect id="Rectangle" transform="translate(8.909875, 8.364395) rotate(-45.000000) translate(-8.909875, -8.364395) " x="-1.0900291" y="6.71441082" width="19.9998082" height="3.29996835"></rect>
            <rect id="Rectangle" transform="translate(8.847765, 8.285095) rotate(-45.000000) translate(-8.847765, -8.285095) " x="7.19778082" y="-1.7148091" width="3.29996835" height="19.9998082"></rect>
        </g>
        <text id="First-item" font-family="SourceSansPro-SemiBold, Source Sans Pro" font-size="18" font-weight="500" fill="#000000">
            <tspan x="95" y="83.5">First item</tspan>
        </text>
        <text id="Content-for-the-expa" font-family="SourceSansPro-Regular, Source Sans Pro" font-size="16" font-weight="normal" fill="#000000">
            <tspan x="95" y="174">Content for the expanded item</tspan>
        </text>
        <text id="Second-item" font-family="SourceSansPro-SemiBold, Source Sans Pro" font-size="18" font-weight="500" fill="#000000">
            <tspan x="95" y="139">Second item</tspan>
        </text>
        <line x1="72" y1="49.5" x2="456" y2="49.5" id="Line-5" stroke="#4B4B4B" stroke-linecap="square"></line>
        <line x1="72" y1="105.5" x2="456" y2="105.5" id="Line-5" stroke="#4B4B4B" stroke-linecap="square"></line>
        <line x1="72" y1="203" x2="456" y2="203" id="Line-5" stroke="#4B4B4B" stroke-linecap="square"></line>
        <g id="angle-down-red" transform="translate(431.500000, 76.859155) rotate(270.000000) translate(-431.500000, -76.859155) translate(424.000000, 72.000000)" fill="#EE020A" fill-rule="nonzero">
            <g id="angle-right" transform="translate(7.500000, 4.859155) rotate(90.000000) translate(-7.500000, -4.859155) translate(2.640845, -2.640845)">
                <path d="M9.3585455,8.29192547 L3.00426598,14.6273292 C2.56507313,15.0652174 1.85488895,15.0652174 1.42036836,14.6273292 L0.36443662,13.5745342 C-0.0747562297,13.136646 -0.0747562297,12.4285714 0.36443662,11.9953416 L4.86849946,7.50465839 L0.36443662,3.01397516 C-0.0747562297,2.57608696 -0.0747562297,1.86801242 0.36443662,1.43478261 L1.4156961,0.372670807 C1.85488895,-0.0652173913 2.56507313,-0.0652173913 2.99959372,0.372670807 L9.35387324,6.70807453 C9.79773835,7.14596273 9.79773835,7.85403727 9.3585455,8.29192547 L9.3585455,8.29192547 Z" id="Path"></path>
            </g>
        </g>
        <g id="angle-down-red" transform="translate(431.500000, 133.859155) rotate(360.000000) translate(-431.500000, -133.859155) translate(424.000000, 129.000000)" fill="#EE020A" fill-rule="nonzero">
            <g id="angle-right" transform="translate(7.500000, 4.859155) rotate(90.000000) translate(-7.500000, -4.859155) translate(2.640845, -2.640845)">
                <path d="M9.3585455,8.29192547 L3.00426598,14.6273292 C2.56507313,15.0652174 1.85488895,15.0652174 1.42036836,14.6273292 L0.36443662,13.5745342 C-0.0747562297,13.136646 -0.0747562297,12.4285714 0.36443662,11.9953416 L4.86849946,7.50465839 L0.36443662,3.01397516 C-0.0747562297,2.57608696 -0.0747562297,1.86801242 0.36443662,1.43478261 L1.4156961,0.372670807 C1.85488895,-0.0652173913 2.56507313,-0.0652173913 2.99959372,0.372670807 L9.35387324,6.70807453 C9.79773835,7.14596273 9.79773835,7.85403727 9.3585455,8.29192547 L9.3585455,8.29192547 Z" id="Path"></path>
            </g>
        </g>
    </g>
</svg>