<svg id="Layer_1" data-name="Layer 1" xmlns="http://www.w3.org/2000/svg" viewBox="0 0 480 400"><defs><style>.cls-1{fill:#db0022;}.cls-2{fill:#f5f5f5;}.cls-3,.cls-4{fill:none;stroke-miterlimit:10;}.cls-3{stroke:#005fc6;stroke-width:2px;}.cls-4{stroke:#6e7272;}.cls-5{fill:#005fc6;}</style></defs><rect class="cls-1" width="6" height="400"/><rect class="cls-2" x="6" width="475.25" height="400"/><path class="cls-1" d="M33,10.15a15.65,15.65,0,1,0,15.7,15.6A15.73,15.73,0,0,0,33,10.15Z"/><rect class="cls-2" x="23" y="24.16" width="20" height="3.3" transform="translate(-8.58 30.9) rotate(-45)"/><rect class="cls-2" x="31.29" y="15.73" width="3.3" height="20" transform="translate(-8.55 30.83) rotate(-45)"/><rect class="cls-3" x="85.62" y="42.65" width="320" height="54" rx="4"/><rect class="cls-4" x="85.62" y="122.51" width="320" height="54" rx="4"/><path d="M108.22,155.33a5,5,0,0,1-2-.42,5.07,5.07,0,0,1-1.63-1.13l.8-.93a4.37,4.37,0,0,0,1.32,1,3.61,3.61,0,0,0,1.57.36,2.5,2.5,0,0,0,1.62-.47,1.55,1.55,0,0,0,.58-1.24,1.52,1.52,0,0,0-.14-.68,1.35,1.35,0,0,0-.37-.48,2.18,2.18,0,0,0-.55-.36l-.69-.34-1.5-.65a6.72,6.72,0,0,1-.75-.39,3.05,3.05,0,0,1-.69-.54,2.64,2.64,0,0,1-.5-.76,2.51,2.51,0,0,1-.19-1,2.43,2.43,0,0,1,.25-1.1,2.58,2.58,0,0,1,.69-.89,3,3,0,0,1,1-.58,4,4,0,0,1,1.32-.21,4.17,4.17,0,0,1,1.74.36,4.43,4.43,0,0,1,1.36.93l-.72.87a3.79,3.79,0,0,0-1.06-.73,3.11,3.11,0,0,0-1.32-.26,2.3,2.3,0,0,0-1.42.4,1.35,1.35,0,0,0-.54,1.13,1.21,1.21,0,0,0,.16.65,1.46,1.46,0,0,0,.4.46,3,3,0,0,0,.56.36l.63.28,1.49.64a5.16,5.16,0,0,1,.84.44,2.76,2.76,0,0,1,.69.57,2.58,2.58,0,0,1,.46.77,2.87,2.87,0,0,1-.79,3.14,3.6,3.6,0,0,1-1.12.64A4.61,4.61,0,0,1,108.22,155.33Z"/><path d="M116,155.33a2.11,2.11,0,0,1-1.81-.77,3.78,3.78,0,0,1-.57-2.27v-4.93h1.33v4.75a2.8,2.8,0,0,0,.34,1.59,1.25,1.25,0,0,0,1.11.49,1.88,1.88,0,0,0,1.08-.31,5.2,5.2,0,0,0,1-1v-5.52h1.31v7.78h-1.09l-.11-1.22h0a4.87,4.87,0,0,1-1.14,1A2.54,2.54,0,0,1,116,155.33Z"/><path d="M122.43,155.14v-7.78h1.08l.12,1.41h0a3.66,3.66,0,0,1,1-1.17,2.09,2.09,0,0,1,2.07-.27l-.25,1.15-.35-.1a2.25,2.25,0,0,0-.4,0,1.82,1.82,0,0,0-1,.4,3.2,3.2,0,0,0-.93,1.39v5Z"/><path d="M128,155.14v-7.78h1.09l.11,1.12h0a6.35,6.35,0,0,1,1.17-.94,2.7,2.7,0,0,1,1.43-.37,2.07,2.07,0,0,1,1.8.77,3.78,3.78,0,0,1,.57,2.27v4.93h-1.31v-4.76a2.84,2.84,0,0,0-.35-1.59,1.31,1.31,0,0,0-1.12-.49,1.9,1.9,0,0,0-1.07.31,6.74,6.74,0,0,0-1.06.89v5.64Z"/><path d="M138.52,155.33a2.32,2.32,0,0,1-1.62-.58,2.07,2.07,0,0,1-.65-1.63,2.16,2.16,0,0,1,1.14-2,9.34,9.34,0,0,1,3.63-.95,4.18,4.18,0,0,0-.07-.72,2.08,2.08,0,0,0-.25-.63,1.4,1.4,0,0,0-.49-.44,1.68,1.68,0,0,0-.79-.16,3.2,3.2,0,0,0-1.27.25,5.83,5.83,0,0,0-1.05.58l-.51-.91a7.34,7.34,0,0,1,1.32-.68,4.44,4.44,0,0,1,1.73-.33,2.41,2.41,0,0,1,2.07.87,3.9,3.9,0,0,1,.64,2.33v4.77h-1.09l-.11-.93h-.05a7.1,7.1,0,0,1-1.2.79A3,3,0,0,1,138.52,155.33Zm.39-1.06A2.27,2.27,0,0,0,140,154a5.8,5.8,0,0,0,1.06-.78v-2.16a13.46,13.46,0,0,0-1.64.31,4.06,4.06,0,0,0-1.07.41,1.7,1.7,0,0,0-.6.55,1.36,1.36,0,0,0-.18.68,1.09,1.09,0,0,0,.4,1A1.58,1.58,0,0,0,138.91,154.27Z"/><path d="M144.79,155.14v-7.78h1.09l.11,1.12h0a5.43,5.43,0,0,1,1.11-.94,2.43,2.43,0,0,1,1.31-.37,2.26,2.26,0,0,1,1.4.39,2.31,2.31,0,0,1,.74,1.1,6.57,6.57,0,0,1,1.22-1.08,2.35,2.35,0,0,1,1.34-.41,2.06,2.06,0,0,1,1.78.77,3.71,3.71,0,0,1,.59,2.27v4.93h-1.31v-4.76a2.75,2.75,0,0,0-.36-1.59,1.25,1.25,0,0,0-1.08-.49,2.9,2.9,0,0,0-2,1.2v5.64h-1.31v-4.76a2.75,2.75,0,0,0-.35-1.59,1.27,1.27,0,0,0-1.1-.49,2.9,2.9,0,0,0-2,1.2v5.64Z"/><path d="M161.21,155.33a3.91,3.91,0,0,1-1.46-.28,3.47,3.47,0,0,1-1.19-.8,3.8,3.8,0,0,1-.79-1.27,4.84,4.84,0,0,1-.29-1.72,4.67,4.67,0,0,1,.3-1.72,4.18,4.18,0,0,1,.78-1.28,3.3,3.3,0,0,1,1.11-.81,3.11,3.11,0,0,1,1.3-.28,3.27,3.27,0,0,1,1.32.25,2.77,2.77,0,0,1,1,.74,3.4,3.4,0,0,1,.6,1.15,5.41,5.41,0,0,1,.2,1.51v.4a2.84,2.84,0,0,1,0,.35h-5.25a3,3,0,0,0,.77,2,2.4,2.4,0,0,0,1.82.73,2.86,2.86,0,0,0,1-.17,4,4,0,0,0,.91-.44l.46.87a6.72,6.72,0,0,1-1.14.56A3.91,3.91,0,0,1,161.21,155.33Zm-2.45-4.71h4.16a2.82,2.82,0,0,0-.5-1.8,1.74,1.74,0,0,0-1.42-.61,1.92,1.92,0,0,0-.79.16,2.08,2.08,0,0,0-.68.47,2.57,2.57,0,0,0-.5.76A3.19,3.19,0,0,0,158.76,150.62Z"/><path d="M91.5,208.9a5.22,5.22,0,0,1-2-.36,4.19,4.19,0,0,1-1.57-1,4.71,4.71,0,0,1-1-1.69,7.24,7.24,0,0,1,0-4.6,5.19,5.19,0,0,1,1-1.72,4.35,4.35,0,0,1,1.57-1.07,5,5,0,0,1,1.94-.37,4,4,0,0,1,1.9.41,4.67,4.67,0,0,1,1.27.92l-1,1.2a3.77,3.77,0,0,0-.89-.65,2.48,2.48,0,0,0-1.22-.27,3,3,0,0,0-1.28.27,2.7,2.7,0,0,0-1,.75,3.46,3.46,0,0,0-.63,1.19,5.21,5.21,0,0,0-.23,1.59,4.36,4.36,0,0,0,.81,2.8,2.87,2.87,0,0,0,2.39,1,3,3,0,0,0,.85-.12,1.72,1.72,0,0,0,.66-.34v-2.26h-2V203h3.65v4.61a4.27,4.27,0,0,1-1.4.89A5,5,0,0,1,91.5,208.9Z"/><path d="M100.36,208.9a4.23,4.23,0,0,1-1.52-.28,3.66,3.66,0,0,1-1.23-.81,3.72,3.72,0,0,1-.83-1.29,5,5,0,0,1-.29-1.74,4.67,4.67,0,0,1,.3-1.72,3.73,3.73,0,0,1,2-2.12,3.36,3.36,0,0,1,1.34-.28,3.41,3.41,0,0,1,1.41.27,2.61,2.61,0,0,1,1,.77,3.23,3.23,0,0,1,.61,1.18,5.13,5.13,0,0,1,.21,1.5c0,.19,0,.36,0,.52s0,.28-.06.38h-5A2.54,2.54,0,0,0,99,206.9a2.25,2.25,0,0,0,1.58.57,2.91,2.91,0,0,0,1-.15,3.87,3.87,0,0,0,.87-.42l.63,1.15a5.81,5.81,0,0,1-1.25.61A4.35,4.35,0,0,1,100.36,208.9ZM98.26,204h3.49a2.34,2.34,0,0,0-.39-1.43,1.4,1.4,0,0,0-1.21-.52,1.7,1.7,0,0,0-1.23.5A2.37,2.37,0,0,0,98.26,204Z"/><path d="M105.11,208.7v-7.85h1.52l.13,1.05h.06A6.88,6.88,0,0,1,108,201a2.79,2.79,0,0,1,1.43-.36,2.12,2.12,0,0,1,1.84.8,4,4,0,0,1,.58,2.32v4.92H110V204a2.46,2.46,0,0,0-.29-1.38,1.08,1.08,0,0,0-1-.4,1.6,1.6,0,0,0-.9.25,5.53,5.53,0,0,0-.89.73v5.48Z"/><path d="M116.82,208.9a2.89,2.89,0,0,1-2.36-1.08,4.74,4.74,0,0,1-.87-3,5.13,5.13,0,0,1,.28-1.72,4,4,0,0,1,.75-1.3,3.48,3.48,0,0,1,1.06-.82,2.84,2.84,0,0,1,1.24-.28,2.47,2.47,0,0,1,1.14.23,4,4,0,0,1,.92.63l-.06-1.26v-2.85h1.84V208.7h-1.52l-.13-.84h-.06a4.42,4.42,0,0,1-1,.73A2.6,2.6,0,0,1,116.82,208.9Zm.45-1.52a2.21,2.21,0,0,0,1.65-.88v-3.67a2.84,2.84,0,0,0-.81-.51,2.16,2.16,0,0,0-.79-.14,1.61,1.61,0,0,0-1.3.67,3.07,3.07,0,0,0-.52,1.92,3.46,3.46,0,0,0,.45,1.94A1.53,1.53,0,0,0,117.27,207.38Z"/><path d="M126.46,208.9a4.19,4.19,0,0,1-1.52-.28,3.8,3.8,0,0,1-1.24-.81,3.7,3.7,0,0,1-.82-1.29,4.74,4.74,0,0,1-.3-1.74,4.66,4.66,0,0,1,.31-1.72,3.78,3.78,0,0,1,.81-1.3,3.65,3.65,0,0,1,1.16-.82,3.29,3.29,0,0,1,1.34-.28,3.48,3.48,0,0,1,1.41.27,2.65,2.65,0,0,1,1,.77,3.24,3.24,0,0,1,.62,1.18,5.13,5.13,0,0,1,.21,1.5,4.17,4.17,0,0,1,0,.52,2.73,2.73,0,0,1,0,.38h-5a2.49,2.49,0,0,0,.74,1.62,2.24,2.24,0,0,0,1.58.57,3,3,0,0,0,1-.15,4.33,4.33,0,0,0,.87-.42l.62,1.15a6,6,0,0,1-1.24.61A4.35,4.35,0,0,1,126.46,208.9Zm-2.1-4.87h3.49a2.34,2.34,0,0,0-.39-1.43,1.43,1.43,0,0,0-1.21-.52,1.7,1.7,0,0,0-1.23.5A2.32,2.32,0,0,0,124.36,204Z"/><path d="M131.21,208.7v-7.85h1.52l.13,1.39h.06a3.38,3.38,0,0,1,1-1.18,2.11,2.11,0,0,1,1.21-.4,2,2,0,0,1,.9.16l-.32,1.6a2.4,2.4,0,0,0-.38-.1,2.76,2.76,0,0,0-.44,0,1.69,1.69,0,0,0-1,.36,2.77,2.77,0,0,0-.88,1.25v4.8Z"/><rect class="cls-4" x="85.62" y="217.3" width="320" height="38" rx="4"/><path d="M102.71,241.7V231.2h3a7.88,7.88,0,0,1,1.6.16,3.42,3.42,0,0,1,1.24.53,2.26,2.26,0,0,1,.8,1,3.18,3.18,0,0,1,.29,1.45,3.33,3.33,0,0,1-.28,1.44,2.62,2.62,0,0,1-.79,1,3.4,3.4,0,0,1-1.22.6,6,6,0,0,1-1.58.2H104v4.16Zm1.33-5.25h1.57a3.26,3.26,0,0,0,2-.52,2,2,0,0,0,.66-1.64,1.72,1.72,0,0,0-.69-1.57,3.89,3.89,0,0,0-2.07-.44H104Z"/><path d="M113,241.89a1.23,1.23,0,0,1-1.07-.45,2.24,2.24,0,0,1-.32-1.31v-9.82H113v9.92a.67.67,0,0,0,.12.45.34.34,0,0,0,.25.13h.12l.17,0,.18,1a1.26,1.26,0,0,1-.31.09A2.81,2.81,0,0,1,113,241.89Z"/><path d="M118.87,241.89a3.72,3.72,0,0,1-1.46-.28,3.3,3.3,0,0,1-1.18-.8,3.72,3.72,0,0,1-.8-1.27,4.79,4.79,0,0,1-.28-1.71,4.67,4.67,0,0,1,.29-1.72,4,4,0,0,1,.79-1.29,3.38,3.38,0,0,1,1.11-.81,3.22,3.22,0,0,1,1.29-.28A3.27,3.27,0,0,1,120,234a2.48,2.48,0,0,1,1,.74,3.4,3.4,0,0,1,.6,1.15,5,5,0,0,1,.21,1.5c0,.14,0,.28,0,.41a2.66,2.66,0,0,1,0,.34h-5.25a3,3,0,0,0,.78,2,2.41,2.41,0,0,0,1.81.73,3.15,3.15,0,0,0,1-.17,4.68,4.68,0,0,0,.9-.44l.46.86a6.26,6.26,0,0,1-1.13.56A4,4,0,0,1,118.87,241.89Zm-2.44-4.7h4.16a2.76,2.76,0,0,0-.51-1.8,1.72,1.72,0,0,0-1.41-.62,2.15,2.15,0,0,0-.8.16,2.37,2.37,0,0,0-.68.47,2.71,2.71,0,0,0-.5.76A3.54,3.54,0,0,0,116.43,237.19Z"/><path d="M125.23,241.89a2.37,2.37,0,0,1-1.63-.57,2.09,2.09,0,0,1-.65-1.63,2.15,2.15,0,0,1,1.14-2,9.24,9.24,0,0,1,3.63-1,3.51,3.51,0,0,0-.07-.72,1.8,1.8,0,0,0-.25-.62,1.31,1.31,0,0,0-.49-.44,1.65,1.65,0,0,0-.79-.17,3.12,3.12,0,0,0-1.26.26,6.21,6.21,0,0,0-1.06.57l-.51-.91a9.07,9.07,0,0,1,1.33-.68,4.41,4.41,0,0,1,1.73-.33,2.38,2.38,0,0,1,2.06.88,3.8,3.8,0,0,1,.64,2.32v4.77H128l-.11-.93h0a6.43,6.43,0,0,1-1.2.8A3,3,0,0,1,125.23,241.89Zm.38-1a2.23,2.23,0,0,0,1.06-.27,5,5,0,0,0,1-.77v-2.16a11.93,11.93,0,0,0-1.64.3,4.41,4.41,0,0,0-1.07.42,1.58,1.58,0,0,0-.59.55,1.25,1.25,0,0,0-.19.68,1.11,1.11,0,0,0,.4,1A1.67,1.67,0,0,0,125.61,240.84Z"/><path d="M133.53,241.89a4.28,4.28,0,0,1-1.59-.3,5,5,0,0,1-1.31-.77l.66-.88a5,5,0,0,0,1.05.67,2.83,2.83,0,0,0,1.24.26,1.68,1.68,0,0,0,1.15-.35,1.17,1.17,0,0,0,.38-.87.9.9,0,0,0-.16-.53,1.86,1.86,0,0,0-.4-.39,3,3,0,0,0-.57-.29l-.64-.26a8.43,8.43,0,0,1-.83-.33,3.11,3.11,0,0,1-.75-.45,2,2,0,0,1-.53-.61,1.65,1.65,0,0,1-.21-.85,2.12,2.12,0,0,1,.18-.87,2,2,0,0,1,.53-.71,2.6,2.6,0,0,1,.84-.46A3.7,3.7,0,0,1,135,234a4.17,4.17,0,0,1,1.06.62l-.62.83a4.41,4.41,0,0,0-.83-.49,2.27,2.27,0,0,0-1-.19,1.47,1.47,0,0,0-1.07.33,1.09,1.09,0,0,0-.35.79.75.75,0,0,0,.15.47,1.29,1.29,0,0,0,.38.35,3.13,3.13,0,0,0,.55.27l.65.25.84.34a2.85,2.85,0,0,1,.76.44,2,2,0,0,1,.55.65,1.77,1.77,0,0,1,.22.92,2.11,2.11,0,0,1-.19.9,2,2,0,0,1-.54.73,2.46,2.46,0,0,1-.9.51A3.78,3.78,0,0,1,133.53,241.89Z"/><path d="M141.35,241.89a3.72,3.72,0,0,1-1.46-.28,3.3,3.3,0,0,1-1.18-.8,3.58,3.58,0,0,1-.8-1.27,4.79,4.79,0,0,1-.28-1.71,4.67,4.67,0,0,1,.29-1.72,4,4,0,0,1,.79-1.29,3.38,3.38,0,0,1,1.11-.81,3.22,3.22,0,0,1,1.29-.28,3.27,3.27,0,0,1,1.32.26,2.48,2.48,0,0,1,1,.74,3.4,3.4,0,0,1,.6,1.15,5,5,0,0,1,.21,1.5c0,.14,0,.28,0,.41a2.66,2.66,0,0,1,0,.34h-5.25a3,3,0,0,0,.78,2,2.41,2.41,0,0,0,1.81.73,3.15,3.15,0,0,0,1-.17,4.68,4.68,0,0,0,.9-.44l.46.86a6.26,6.26,0,0,1-1.13.56A4,4,0,0,1,141.35,241.89Zm-2.45-4.7h4.16a2.76,2.76,0,0,0-.5-1.8,1.72,1.72,0,0,0-1.41-.62,2.15,2.15,0,0,0-.8.16,2.37,2.37,0,0,0-.68.47,2.71,2.71,0,0,0-.5.76A3.88,3.88,0,0,0,138.9,237.19Z"/><path d="M151.37,241.89a4.28,4.28,0,0,1-1.59-.3,5,5,0,0,1-1.31-.77l.66-.88a5,5,0,0,0,1.05.67,2.83,2.83,0,0,0,1.24.26,1.68,1.68,0,0,0,1.15-.35,1.17,1.17,0,0,0,.38-.87.9.9,0,0,0-.16-.53,1.86,1.86,0,0,0-.4-.39,3,3,0,0,0-.57-.29l-.64-.26a8.43,8.43,0,0,1-.83-.33,3.11,3.11,0,0,1-.75-.45,2.24,2.24,0,0,1-.54-.61,1.75,1.75,0,0,1-.2-.85,2.12,2.12,0,0,1,.18-.87,2,2,0,0,1,.53-.71,2.6,2.6,0,0,1,.84-.46,3.7,3.7,0,0,1,2.47.09,4.17,4.17,0,0,1,1.06.62l-.62.83a4.41,4.41,0,0,0-.83-.49,2.27,2.27,0,0,0-1-.19,1.47,1.47,0,0,0-1.07.33,1.09,1.09,0,0,0-.35.79.75.75,0,0,0,.15.47,1.29,1.29,0,0,0,.38.35,3.13,3.13,0,0,0,.55.27l.65.25.84.34a2.85,2.85,0,0,1,.76.44,2,2,0,0,1,.55.65,1.77,1.77,0,0,1,.22.92,2.11,2.11,0,0,1-.19.9,2,2,0,0,1-.54.73,2.46,2.46,0,0,1-.9.51A3.78,3.78,0,0,1,151.37,241.89Z"/><path d="M159.19,241.89a3.72,3.72,0,0,1-1.46-.28,3.3,3.3,0,0,1-1.18-.8,3.58,3.58,0,0,1-.8-1.27,4.79,4.79,0,0,1-.28-1.71,4.67,4.67,0,0,1,.29-1.72,4,4,0,0,1,.79-1.29,3.38,3.38,0,0,1,1.11-.81,3.22,3.22,0,0,1,1.29-.28,3.27,3.27,0,0,1,1.32.26,2.48,2.48,0,0,1,1,.74,3.4,3.4,0,0,1,.6,1.15,5,5,0,0,1,.21,1.5c0,.14,0,.28,0,.41a2.66,2.66,0,0,1,0,.34h-5.25a3,3,0,0,0,.78,2,2.41,2.41,0,0,0,1.81.73,3.15,3.15,0,0,0,1-.17,4.68,4.68,0,0,0,.9-.44l.46.86a6.26,6.26,0,0,1-1.13.56A4,4,0,0,1,159.19,241.89Zm-2.45-4.7h4.16a2.76,2.76,0,0,0-.5-1.8,1.74,1.74,0,0,0-1.42-.62,2.14,2.14,0,0,0-.79.16,2.37,2.37,0,0,0-.68.47,2.71,2.71,0,0,0-.5.76A3.88,3.88,0,0,0,156.74,237.19Z"/><path d="M165.37,241.89a1.22,1.22,0,0,1-1.07-.45,2.17,2.17,0,0,1-.32-1.31v-9.82h1.31v9.92a.74.74,0,0,0,.11.45.36.36,0,0,0,.26.13h.12l.16,0,.18,1a1.32,1.32,0,0,1-.3.09A2.81,2.81,0,0,1,165.37,241.89Z"/><path d="M171.21,241.89a3.81,3.81,0,0,1-1.47-.28,3.38,3.38,0,0,1-1.18-.8,3.7,3.7,0,0,1-.79-1.27,4.79,4.79,0,0,1-.29-1.71,4.67,4.67,0,0,1,.3-1.72,3.77,3.77,0,0,1,.78-1.29,3.6,3.6,0,0,1,1.11-.81,3.31,3.31,0,0,1,2.62,0,2.45,2.45,0,0,1,1,.74,3.08,3.08,0,0,1,.6,1.15,5,5,0,0,1,.21,1.5c0,.14,0,.28,0,.41a1.13,1.13,0,0,1,0,.34h-5.24a3,3,0,0,0,.77,2,2.43,2.43,0,0,0,1.82.73,3.09,3.09,0,0,0,1-.17,4.17,4.17,0,0,0,.9-.44l.47.86a6,6,0,0,1-1.14.56A3.91,3.91,0,0,1,171.21,241.89Zm-2.45-4.7h4.16a2.82,2.82,0,0,0-.5-1.8,1.74,1.74,0,0,0-1.42-.62,2.1,2.1,0,0,0-.79.16,2.24,2.24,0,0,0-.68.47,3,3,0,0,0-.51.76A3.54,3.54,0,0,0,168.76,237.19Z"/><path d="M179.06,241.89a3.84,3.84,0,0,1-1.44-.27,3.28,3.28,0,0,1-1.16-.79,3.69,3.69,0,0,1-.76-1.28,4.89,4.89,0,0,1-.28-1.72,4.74,4.74,0,0,1,.3-1.74,3.75,3.75,0,0,1,.82-1.28,3.21,3.21,0,0,1,1.19-.8,3.65,3.65,0,0,1,1.43-.28,2.79,2.79,0,0,1,1.31.28,4.34,4.34,0,0,1,1,.64l-.67.86a3.39,3.39,0,0,0-.71-.5,1.92,1.92,0,0,0-.84-.19,2.17,2.17,0,0,0-1,.22,2.26,2.26,0,0,0-.77.61,3.12,3.12,0,0,0-.5,1,3.86,3.86,0,0,0-.18,1.22,3.91,3.91,0,0,0,.17,1.22,2.94,2.94,0,0,0,.49.93,2.19,2.19,0,0,0,1.74.83,2.14,2.14,0,0,0,1-.24A4.2,4.2,0,0,0,181,240l.58.88a4.49,4.49,0,0,1-1.17.73A3.45,3.45,0,0,1,179.06,241.89Z"/><path d="M185.58,241.89a2.5,2.5,0,0,1-1.05-.19,1.83,1.83,0,0,1-.69-.53,2,2,0,0,1-.38-.81,4.93,4.93,0,0,1-.11-1.06V235H182.2v-1l1.22-.08.16-2.18h1.1v2.18h2.1V235h-2.1v4.32a2,2,0,0,0,.26,1.11,1.06,1.06,0,0,0,.94.39,1.86,1.86,0,0,0,.45-.06,3.58,3.58,0,0,0,.43-.15l.26,1c-.22.07-.45.14-.7.2A3.81,3.81,0,0,1,185.58,241.89Z"/><path d="M87.11,293.21V282.74h2.8A4.62,4.62,0,0,1,95,287.93a7,7,0,0,1-.34,2.29,4.28,4.28,0,0,1-1,1.65,4,4,0,0,1-1.56,1,6,6,0,0,1-2.09.34Zm1.86-1.5h.81a3.21,3.21,0,0,0,2.46-.92,4.11,4.11,0,0,0,.86-2.86,3.87,3.87,0,0,0-.87-2.8,3.25,3.25,0,0,0-2.45-.88H89Z"/><path d="M98.86,293.4a2.27,2.27,0,0,1-1.68-.63,2.23,2.23,0,0,1-.64-1.67,2.11,2.11,0,0,1,1.09-2,5.38,5.38,0,0,1,1.44-.6,12.67,12.67,0,0,1,2.09-.36,2.8,2.8,0,0,0-.09-.59,1.32,1.32,0,0,0-.24-.49,1.07,1.07,0,0,0-.44-.34,1.64,1.64,0,0,0-.67-.12,3,3,0,0,0-1.13.22,7.33,7.33,0,0,0-1.08.55l-.67-1.23a7.73,7.73,0,0,1,1.47-.72,4.86,4.86,0,0,1,1.76-.31,2.7,2.7,0,0,1,2.2.87,3.81,3.81,0,0,1,.73,2.52v4.66h-1.52l-.13-.86h-.06a6,6,0,0,1-1.13.75A2.86,2.86,0,0,1,98.86,293.4Zm.59-1.44a1.71,1.71,0,0,0,.87-.22,5.2,5.2,0,0,0,.84-.64v-1.76a8.73,8.73,0,0,0-1.34.25,4,4,0,0,0-.88.36,1.26,1.26,0,0,0-.48.46,1,1,0,0,0-.15.54.9.9,0,0,0,.32.77A1.35,1.35,0,0,0,99.45,292Z"/><path d="M107.72,293.4a2.86,2.86,0,0,1-1.16-.21,1.94,1.94,0,0,1-.77-.58,2.51,2.51,0,0,1-.43-.9,4.57,4.57,0,0,1-.13-1.16v-3.74H104.1v-1.38l1.22-.08.22-2.14h1.54v2.14h2v1.46h-2v3.74q0,1.38,1.11,1.38a2.18,2.18,0,0,0,.42-.05,1.63,1.63,0,0,0,.39-.13l.32,1.36a5.43,5.43,0,0,1-.73.2A4,4,0,0,1,107.72,293.4Z"/><path d="M113.83,293.4a4,4,0,0,1-1.52-.28,3.66,3.66,0,0,1-1.23-.81,3.61,3.61,0,0,1-.82-1.28,4.74,4.74,0,0,1-.3-1.74,4.52,4.52,0,0,1,.31-1.73,4,4,0,0,1,.8-1.29,3.56,3.56,0,0,1,1.16-.82,3.51,3.51,0,0,1,2.75,0,2.71,2.71,0,0,1,1,.77,3.45,3.45,0,0,1,.62,1.19,5.09,5.09,0,0,1,.2,1.5,4.18,4.18,0,0,1,0,.51,2.9,2.9,0,0,1,0,.39h-5a2.57,2.57,0,0,0,.75,1.62,2.21,2.21,0,0,0,1.57.57,2.67,2.67,0,0,0,1-.16,4.16,4.16,0,0,0,.88-.42l.62,1.15a5.38,5.38,0,0,1-1.25.61A4.35,4.35,0,0,1,113.83,293.4Zm-2.09-4.86h3.49a2.32,2.32,0,0,0-.4-1.43,1.4,1.4,0,0,0-1.2-.53,1.78,1.78,0,0,0-1.24.5A2.34,2.34,0,0,0,111.74,288.54Z"/><path d="M125,293.4a3.76,3.76,0,0,1-1.41-.27,3.62,3.62,0,0,1-1.19-.8,3.66,3.66,0,0,1-.82-1.3,5,5,0,0,1,0-3.48,3.66,3.66,0,0,1,.82-1.3,3.81,3.81,0,0,1,1.19-.81,3.58,3.58,0,0,1,1.41-.28,3.67,3.67,0,0,1,1.42.28,3.59,3.59,0,0,1,1.19.81,3.8,3.8,0,0,1,.82,1.3,5,5,0,0,1,0,3.48,3.8,3.8,0,0,1-.82,1.3,3.42,3.42,0,0,1-1.19.8A3.85,3.85,0,0,1,125,293.4Zm0-1.5a1.57,1.57,0,0,0,1.36-.71,3.88,3.88,0,0,0,0-3.81,1.56,1.56,0,0,0-1.36-.72,1.53,1.53,0,0,0-1.35.72,3.95,3.95,0,0,0,0,3.81A1.54,1.54,0,0,0,125,291.9Z"/><path d="M130.82,293.21v-6.4h-1v-1.38l1-.08v-.81a4.06,4.06,0,0,1,.15-1.13,2.26,2.26,0,0,1,.46-.9,2.18,2.18,0,0,1,.81-.58,3,3,0,0,1,1.19-.21,4,4,0,0,1,.79.08,3.66,3.66,0,0,1,.65.19l-.35,1.38a2.09,2.09,0,0,0-.86-.19c-.67,0-1,.44-1,1.32v.85h1.54v1.46h-1.54v6.4Z"/><path d="M142.58,293.4a2.6,2.6,0,0,1-1.09-.26,3.89,3.89,0,0,1-1.05-.76h-.05l-.16.83h-1.45v-11.3h1.84v2.91l-.05,1.32a4.48,4.48,0,0,1,1.08-.71,2.79,2.79,0,0,1,1.19-.27,2.9,2.9,0,0,1,1.31.28,2.81,2.81,0,0,1,1,.8,3.89,3.89,0,0,1,.61,1.26,6.43,6.43,0,0,1,.2,1.65,5.22,5.22,0,0,1-.28,1.79,4,4,0,0,1-.74,1.34,3.26,3.26,0,0,1-1.07.83A2.84,2.84,0,0,1,142.58,293.4Zm-.38-1.52a1.61,1.61,0,0,0,1.31-.68,3.27,3.27,0,0,0,.53-2,3.49,3.49,0,0,0-.4-1.84,1.41,1.41,0,0,0-1.3-.66,2.56,2.56,0,0,0-1.72.88v3.67a2.63,2.63,0,0,0,.82.51A2.46,2.46,0,0,0,142.2,291.88Z"/><path d="M148.71,284a1.16,1.16,0,0,1-.81-.29.93.93,0,0,1-.32-.75,1,1,0,0,1,.32-.76,1.13,1.13,0,0,1,.81-.3,1.17,1.17,0,0,1,.82.3,1,1,0,0,1,.32.76,1,1,0,0,1-.32.75A1.21,1.21,0,0,1,148.71,284Zm-.93,9.23v-7.86h1.84v7.86Z"/><path d="M152,293.21v-7.86h1.52l.12,1.39h.07a3.25,3.25,0,0,1,1-1.17,2.12,2.12,0,0,1,1.21-.41,2.07,2.07,0,0,1,.9.16l-.32,1.6-.39-.1a2.54,2.54,0,0,0-.43,0,1.69,1.69,0,0,0-1,.36,2.68,2.68,0,0,0-.88,1.26v4.8Z"/><path d="M160.71,293.4a2.86,2.86,0,0,1-1.16-.21,1.94,1.94,0,0,1-.77-.58,2.51,2.51,0,0,1-.43-.9,4.57,4.57,0,0,1-.13-1.16v-3.74H157.1v-1.38l1.21-.08.23-2.14h1.53v2.14h2v1.46h-2v3.74q0,1.38,1.11,1.38a2.09,2.09,0,0,0,.42-.05,1.63,1.63,0,0,0,.39-.13l.32,1.36a5,5,0,0,1-.73.2A4,4,0,0,1,160.71,293.4Z"/><path d="M163.72,293.21v-11.3h1.84v2.91l-.06,1.53a6.4,6.4,0,0,1,1.09-.83,2.7,2.7,0,0,1,1.42-.36,2.11,2.11,0,0,1,1.84.81,4,4,0,0,1,.57,2.31v4.93h-1.84v-4.69a2.44,2.44,0,0,0-.28-1.37,1.1,1.1,0,0,0-1-.41,1.69,1.69,0,0,0-.9.25,6.13,6.13,0,0,0-.89.73v5.49Z"/><path d="M182.46,340.59V330.1h1.6l2,5.6c.13.36.26.73.38,1.09s.25.74.37,1.1h.07c.13-.36.25-.73.36-1.1s.23-.73.36-1.09l2-5.6h1.62v10.49H190v-5.77c0-.47,0-1,.06-1.55s.08-1.09.12-1.56h-.07l-.83,2.39-2,5.44h-.88l-2-5.44-.83-2.39h-.06c0,.47.06,1,.1,1.56s.06,1.08.06,1.55v5.77Z"/><path d="M194.09,340.59V330.1h1.6l2,5.6c.13.36.26.73.38,1.09s.25.74.38,1.1h.06c.13-.36.25-.73.36-1.1s.23-.73.36-1.09l2-5.6h1.62v10.49h-1.25v-5.77c0-.47,0-1,.07-1.55s.08-1.09.11-1.56h-.07l-.83,2.39-2,5.44H198l-2-5.44-.83-2.39h-.06c0,.47.06,1,.1,1.56s.06,1.08.06,1.55v5.77Z"/><path d="M258.09,340.59v-4.06l-3.15-6.43h1.43l1.36,3c.17.38.33.76.49,1.13s.33.76.51,1.16h.07c.18-.4.36-.78.54-1.16s.35-.75.51-1.13l1.35-3h1.39l-3.15,6.43v4.06Z"/><path d="M265.71,340.59v-4.06l-3.15-6.43H264l1.36,3,.5,1.13c.16.38.33.76.51,1.16h.06l.55-1.16c.18-.37.35-.75.51-1.13l1.34-3h1.4l-3.16,6.43v4.06Z"/><path d="M273.32,340.59v-4.06l-3.15-6.43h1.43l1.36,3c.17.38.33.76.49,1.13s.33.76.52,1.16H274c.18-.4.36-.78.54-1.16s.36-.75.52-1.13l1.34-3h1.39l-3.15,6.43v4.06Z"/><path d="M280.94,340.59v-4.06l-3.15-6.43h1.42l1.36,3,.5,1.13c.16.38.33.76.51,1.16h.07c.18-.4.36-.78.54-1.16s.35-.75.51-1.13l1.35-3h1.39l-3.15,6.43v4.06Z"/><rect class="cls-3" x="85.62" y="307.8" width="60" height="54" rx="4"/><rect class="cls-4" x="162.91" y="307.8" width="60" height="54" rx="4"/><rect class="cls-4" x="240.01" y="307.8" width="60" height="54" rx="4"/><path d="M382.54,241.91l-6.68-6.68a.82.82,0,0,1,0-1.16l.78-.78a.82.82,0,0,1,1.16,0l5.32,5.29,5.31-5.29a.83.83,0,0,1,1.17,0l.78.78a.82.82,0,0,1,0,1.16l-6.68,6.68a.82.82,0,0,1-1.16,0Z"/><rect class="cls-2" x="97.33" y="39.57" width="73" height="5.45"/><path class="cls-5" d="M103.87,47V37.83h5.29v1H105v3.11h3.5v1H105V47Z"/><path class="cls-5" d="M111.26,38.81a.82.82,0,0,1-.57-.21.69.69,0,0,1-.23-.53.71.71,0,0,1,.23-.54.86.86,0,0,1,.57-.2.83.83,0,0,1,.56.2.68.68,0,0,1,.24.54.66.66,0,0,1-.24.53A.79.79,0,0,1,111.26,38.81ZM110.67,47V40.21h1.15V47Z"/><path class="cls-5" d="M114.11,47V40.21h1l.1,1.23h0a3.28,3.28,0,0,1,.84-1,1.78,1.78,0,0,1,1.09-.38,1.73,1.73,0,0,1,.73.15l-.23,1-.31-.08a1.69,1.69,0,0,0-.35,0,1.53,1.53,0,0,0-.9.35,2.76,2.76,0,0,0-.82,1.22V47Z"/><path class="cls-5" d="M120.69,47.19a3.61,3.61,0,0,1-1.38-.27,4.46,4.46,0,0,1-1.15-.67l.57-.77a4.92,4.92,0,0,0,.92.59,2.6,2.6,0,0,0,1.08.22,1.42,1.42,0,0,0,1-.31,1,1,0,0,0,.34-.75.82.82,0,0,0-.14-.47,1.31,1.31,0,0,0-.36-.34,2.82,2.82,0,0,0-.49-.26l-.57-.22c-.24-.09-.48-.18-.72-.29a3,3,0,0,1-.65-.39,2,2,0,0,1-.47-.54,1.45,1.45,0,0,1-.19-.74,1.84,1.84,0,0,1,.17-.77,1.7,1.7,0,0,1,.46-.61,2.24,2.24,0,0,1,.73-.41,3,3,0,0,1,1-.15,3.08,3.08,0,0,1,1.19.23,3.52,3.52,0,0,1,.93.55l-.55.72a3.59,3.59,0,0,0-.73-.43,2,2,0,0,0-.82-.17,1.35,1.35,0,0,0-.95.29,1,1,0,0,0-.3.69.63.63,0,0,0,.13.41,1.1,1.1,0,0,0,.33.31,2.49,2.49,0,0,0,.49.24l.56.22.74.29a2.4,2.4,0,0,1,.66.39,1.89,1.89,0,0,1,.49.56,1.73,1.73,0,0,1,.19.81,1.86,1.86,0,0,1-.17.79,1.72,1.72,0,0,1-.47.64,2.08,2.08,0,0,1-.79.44A3.2,3.2,0,0,1,120.69,47.19Z"/><path class="cls-5" d="M126.64,47.19a2.21,2.21,0,0,1-.91-.17,1.79,1.79,0,0,1-.61-.46,1.82,1.82,0,0,1-.32-.72,3.82,3.82,0,0,1-.1-.92V41.15h-1v-.87l1.06-.07.14-1.9h1v1.9h1.83v.94h-1.83v3.78a1.74,1.74,0,0,0,.23,1,.91.91,0,0,0,.82.35,1.43,1.43,0,0,0,.39-.06l.38-.12.22.86a4.42,4.42,0,0,1-.61.18A2.89,2.89,0,0,1,126.64,47.19Z"/><path class="cls-5" d="M132,47V40.21H133l.1,1h0a5.56,5.56,0,0,1,1-.82,2.37,2.37,0,0,1,1.26-.33,1.82,1.82,0,0,1,1.57.68,3.3,3.3,0,0,1,.5,2V47h-1.15V42.86a2.38,2.38,0,0,0-.31-1.39,1.11,1.11,0,0,0-1-.43,1.69,1.69,0,0,0-.94.27,5.62,5.62,0,0,0-.92.78V47Z"/><path class="cls-5" d="M141.26,47.19a2,2,0,0,1-1.42-.51,1.8,1.8,0,0,1-.57-1.43,1.88,1.88,0,0,1,1-1.71,8.13,8.13,0,0,1,3.17-.84,3.36,3.36,0,0,0-.06-.63,1.43,1.43,0,0,0-.22-.54,1.13,1.13,0,0,0-.42-.39A1.62,1.62,0,0,0,142,41a2.7,2.7,0,0,0-1.1.22,5.11,5.11,0,0,0-.93.51l-.44-.8a6.54,6.54,0,0,1,1.16-.6,3.91,3.91,0,0,1,1.51-.29,2.11,2.11,0,0,1,1.81.77,3.4,3.4,0,0,1,.55,2V47h-.95l-.09-.82h-.05a4.93,4.93,0,0,1-1,.7A2.59,2.59,0,0,1,141.26,47.19Zm.34-.93a2,2,0,0,0,.92-.23,4.24,4.24,0,0,0,.92-.68V43.46a11.15,11.15,0,0,0-1.43.27,3.7,3.7,0,0,0-.94.36,1.43,1.43,0,0,0-.52.48,1.15,1.15,0,0,0-.16.6,1,1,0,0,0,.35.84A1.43,1.43,0,0,0,141.6,46.26Z"/><path class="cls-5" d="M146.75,47V40.21h.95l.1,1h0a5,5,0,0,1,1-.82A2.1,2.1,0,0,1,150,40a2,2,0,0,1,1.23.35,2,2,0,0,1,.65,1,5.41,5.41,0,0,1,1.07-1,2.07,2.07,0,0,1,1.17-.36,1.83,1.83,0,0,1,1.56.68,3.23,3.23,0,0,1,.51,2V47H155V42.86a2.47,2.47,0,0,0-.3-1.39,1.1,1.1,0,0,0-1-.43A2.54,2.54,0,0,0,152,42.09V47h-1.14V42.86a2.46,2.46,0,0,0-.31-1.39,1.11,1.11,0,0,0-1-.43,2.51,2.51,0,0,0-1.7,1.05V47Z"/><path class="cls-5" d="M161.11,47.19a3.39,3.39,0,0,1-1.28-.25,3.08,3.08,0,0,1-1-.7,3.27,3.27,0,0,1-.69-1.11,4.14,4.14,0,0,1-.25-1.5,4.23,4.23,0,0,1,.26-1.51,3.57,3.57,0,0,1,.68-1.12,2.93,2.93,0,0,1,1-.71A2.77,2.77,0,0,1,160.9,40a2.86,2.86,0,0,1,1.16.23,2.25,2.25,0,0,1,.85.64,3.13,3.13,0,0,1,.53,1,4.48,4.48,0,0,1,.18,1.32c0,.12,0,.24,0,.35a2.51,2.51,0,0,1,0,.31H159a2.69,2.69,0,0,0,.68,1.72,2.09,2.09,0,0,0,1.59.64,2.57,2.57,0,0,0,.9-.15,3.65,3.65,0,0,0,.8-.38l.4.75a6.54,6.54,0,0,1-1,.5A3.72,3.72,0,0,1,161.11,47.19ZM159,43.07h3.64a2.48,2.48,0,0,0-.44-1.58,1.52,1.52,0,0,0-1.24-.54,1.65,1.65,0,0,0-.69.15,1.83,1.83,0,0,0-.6.41,2.24,2.24,0,0,0-.44.66A3,3,0,0,0,159,43.07Z"/><rect class="cls-2" x="97.35" y="305.08" width="31" height="5.45"/><path class="cls-5" d="M105.25,312.1v-9.19h2.29a4.26,4.26,0,0,1,3.24,1.18,4.76,4.76,0,0,1,1.1,3.37,6.27,6.27,0,0,1-.28,2,4,4,0,0,1-.82,1.45,3.62,3.62,0,0,1-1.35.91,4.94,4.94,0,0,1-1.83.32Zm1.16-1h1a3,3,0,0,0,2.41-1,4.11,4.11,0,0,0,.81-2.72,4,4,0,0,0-.81-2.67,3,3,0,0,0-2.41-.92h-1Z"/><path class="cls-5" d="M113.86,312.1v-9.19h2.29a4.26,4.26,0,0,1,3.24,1.18,4.76,4.76,0,0,1,1.1,3.37,6.27,6.27,0,0,1-.28,2,4,4,0,0,1-.82,1.45,3.62,3.62,0,0,1-1.35.91,4.94,4.94,0,0,1-1.83.32Zm1.16-1h1a3,3,0,0,0,2.41-1,4.11,4.11,0,0,0,.81-2.72,4,4,0,0,0-.81-2.67,3,3,0,0,0-2.41-.92h-1Z"/></svg>