<?xml version="1.0" encoding="UTF-8"?>
<svg width="170px" height="36px" viewBox="0 0 170 36" version="1.1" xmlns="http://www.w3.org/2000/svg" xmlns:xlink="http://www.w3.org/1999/xlink">
    <title>Group</title>
    <g id="Page-1" stroke="none" stroke-width="1" fill="none" fill-rule="evenodd">
        <g id="Sign-in-page-–-Grid-1024px" transform="translate(-875.000000, -222.000000)" fill="#ED1C24" fill-rule="nonzero">
            <g id="Group" transform="translate(875.000000, 222.000000)">
                <polygon id="Path" points="1.34210526 3.3 14.9122807 3.3 14.9122807 5.85 4.3245614 5.85 4.3245614 13.2 13.122807 13.2 13.122807 15.75 4.3245614 15.75 4.3245614 24.3 15.2105263 24.3 15.2105263 26.85 1.34210526 26.85"></polygon>
                <path d="M20.1315789,3.3 L25.9473684,3.3 C33.1052632,3.3 36.9824561,7.5 36.9824561,15 C36.9824561,22.5 33.1052632,26.85 26.0964912,26.85 L20.1315789,26.85 L20.1315789,3.3 L20.1315789,3.3 Z M25.7982456,24.45 C31.3157895,24.45 34,21 34,15 C34,9 31.3157895,5.7 25.7982456,5.7 L23.1140351,5.7 L23.1140351,24.45 C23.1140351,24.45 25.7982456,24.45 25.7982456,24.45 Z" id="Shape"></path>
                <path d="M41.9035088,3.3 L47.7192982,3.3 C54.877193,3.3 58.754386,7.5 58.754386,15 C58.754386,22.5 54.877193,26.85 47.8684211,26.85 L41.9035088,26.85 L41.9035088,3.3 L41.9035088,3.3 Z M47.5701754,24.45 C53.0877193,24.45 55.7719298,21 55.7719298,15 C55.7719298,9 53.0877193,5.7 47.5701754,5.7 L44.8859649,5.7 L44.8859649,24.45 C44.8859649,24.45 47.5701754,24.45 47.5701754,24.45 Z" id="Shape"></path>
                <polygon id="Path" points="71.1315789 3.3 74.1140351 3.3 74.1140351 26.85 71.1315789 26.85"></polygon>
                <path d="M80.0789474,9.45 L82.4649123,9.45 L82.7631579,12 L82.9122807,12 C84.5526316,10.35 86.3421053,9 88.7280702,9 C92.3070175,9 94.0964912,11.4 94.0964912,15.9 L94.0964912,27 L91.1140351,27 L91.1140351,16.2 C91.1140351,12.9 90.0701754,11.55 87.8333333,11.55 C86.0438596,11.55 84.8508772,12.45 83.0614035,14.25 L83.0614035,26.85 L80.0789474,26.85 L80.0789474,9.45 L80.0789474,9.45 Z" id="Path"></path>
                <path d="M99.1666667,22.95 C100.657895,24.15 102.149123,25.05 104.236842,25.05 C106.473684,25.05 107.666667,23.85 107.666667,22.35 C107.666667,20.55 105.578947,19.8 103.640351,19.05 C101.105263,18.15 98.4210526,16.95 98.4210526,13.95 C98.4210526,11.1 100.657895,9 104.385965,9 C106.622807,9 108.412281,9.9 109.754386,10.95 L108.412281,12.75 C107.219298,11.85 106.026316,11.25 104.385965,11.25 C102.149123,11.25 101.254386,12.45 101.254386,13.8 C101.254386,15.45 103.192982,16.05 105.131579,16.8 C107.666667,17.7 110.350877,18.75 110.350877,22.05 C110.350877,24.9 108.114035,27.3 103.938596,27.3 C101.403509,27.3 99.1666667,26.25 97.5263158,24.9 L99.1666667,22.95 Z" id="Path"></path>
                <path d="M114.22807,3.9 C114.22807,2.7 115.122807,1.95 116.315789,1.95 C117.508772,1.95 118.403509,2.7 118.403509,3.9 C118.403509,4.95 117.508772,5.85 116.315789,5.85 C115.122807,5.85 114.22807,4.95 114.22807,3.9 Z M114.675439,9.45 L117.657895,9.45 L117.657895,27 L114.675439,27 L114.675439,9.45 Z" id="Shape"></path>
                <path d="M124.666667,26.25 L124.666667,26.25 C123.77193,25.5 123.175439,24.6 123.175439,23.25 C123.175439,21.75 124.219298,20.55 125.114035,19.95 L125.114035,19.8 C123.921053,18.9 122.877193,17.1 122.877193,15.15 C122.877193,11.4 125.859649,9 129.438596,9 C130.333333,9 131.22807,9.15 131.973684,9.45 L138.087719,9.45 L138.087719,11.7 L134.508772,11.7 C135.403509,12.45 136,13.8 136,15.3 C136,19.05 133.166667,21.45 129.587719,21.45 C128.692982,21.45 127.798246,21.3 126.903509,20.85 C126.307018,21.45 125.859649,21.9 125.859649,22.95 C125.859649,24 126.605263,24.9 128.991228,24.9 L132.421053,24.9 C136.447368,24.9 138.535088,26.1 138.535088,29.1 C138.535088,32.4 135.105263,35.1 129.736842,35.1 C125.412281,35.1 122.578947,33.45 122.578947,30.45 C122.131579,28.8 123.175439,27.3 124.666667,26.25 Z M129.736842,32.85 C133.017544,32.85 135.254386,31.05 135.254386,29.25 C135.254386,27.6 134.061404,27.15 131.675439,27.15 L128.692982,27.15 C127.947368,27.15 127.201754,27.15 126.45614,26.85 C125.263158,27.75 124.666667,28.8 124.666667,29.85 C124.815789,31.65 126.605263,32.85 129.736842,32.85 Z M133.017544,15.15 C133.017544,12.6 131.377193,11.1 129.289474,11.1 C127.201754,11.1 125.561404,12.6 125.561404,15.15 C125.561404,17.7 127.201754,19.35 129.289474,19.35 C131.377193,19.35 133.017544,17.7 133.017544,15.15 Z" id="Shape"></path>
                <path d="M141.517544,1.2 L144.5,1.2 L144.5,8.25 L144.350877,11.85 C145.991228,10.2 147.780702,9 150.166667,9 C153.745614,9 155.535088,11.4 155.535088,15.9 L155.535088,27 L152.552632,27 L152.552632,16.2 C152.552632,12.9 151.508772,11.55 149.27193,11.55 C147.482456,11.55 146.289474,12.45 144.5,14.25 L144.5,26.85 L141.517544,26.85 L141.517544,1.2 L141.517544,1.2 Z" id="Path"></path>
                <path d="M161.5,11.85 L158.964912,11.85 L158.964912,9.6 L161.649123,9.45 L161.947368,4.5 L164.482456,4.5 L164.482456,9.45 L169.105263,9.45 L169.105263,11.85 L164.482456,11.85 L164.482456,21.6 C164.482456,23.7 165.22807,25.05 167.166667,25.05 C167.763158,25.05 168.508772,24.75 169.105263,24.6 L169.701754,26.85 C168.807018,27.15 167.614035,27.45 166.421053,27.45 C162.692982,27.45 161.5,25.05 161.5,21.6 L161.5,11.85 L161.5,11.85 Z" id="Path"></path>
            </g>
        </g>
    </g>
</svg>