<?xml version="1.0" encoding="UTF-8"?>
<svg width="28px" height="28px" viewBox="0 0 28 28" version="1.1" xmlns="http://www.w3.org/2000/svg" xmlns:xlink="http://www.w3.org/1999/xlink">
    <title>Shape</title>
    <g id="Page-1" stroke="none" stroke-width="1" fill="none" fill-rule="evenodd">
        <g id="Sign-in-error-–-Grid-1024px" transform="translate(-784.000000, -247.000000)" fill="#DB0022" fill-rule="nonzero">
            <path d="M812,261 C812,268.733702 805.731444,275 798,275 C790.268556,275 784,268.733702 784,261 C784,253.270815 790.268556,247 798,247 C805.731444,247 812,253.270815 812,261 Z M798,263.822581 C796.565847,263.822581 795.403226,264.985202 795.403226,266.419355 C795.403226,267.853508 796.565847,269.016129 798,269.016129 C799.434153,269.016129 800.596774,267.853508 800.596774,266.419355 C800.596774,264.985202 799.434153,263.822581 798,263.822581 Z M795.534589,254.488532 L795.953347,262.165952 C795.972935,262.52521 796.269984,262.806452 796.62975,262.806452 L799.37025,262.806452 C799.730016,262.806452 800.027065,262.52521 800.046653,262.165952 L800.465411,254.488532 C800.486581,254.100484 800.177621,253.774194 799.789008,253.774194 L796.210935,253.774194 C795.822323,253.774194 795.513419,254.100484 795.534589,254.488532 L795.534589,254.488532 Z" id="Shape"></path>
        </g>
    </g>
</svg>