<?xml version="1.0" encoding="utf-8"?>
<!-- Generator: Adobe Illustrator 25.2.3, SVG Export Plug-In . SVG Version: 6.00 Build 0)  -->
<svg version="1.1" id="Layer_1" xmlns="http://www.w3.org/2000/svg" xmlns:xlink="http://www.w3.org/1999/xlink" x="0px" y="0px"
	 viewBox="0 0 422.1 170" style="enable-background:new 0 0 422.1 170;" xml:space="preserve">
<style type="text/css">
	.st0{fill:#FFFFFF;}
	.st1{clip-path:url(#SVGID_4_);}
</style>
<g>
	<g>
		<g>
			<path id="SVGID_1_" class="st0" d="M196.4,46.1l2.5,46c0.1,2.2,1.9,3.8,4.1,3.8h16.4c2.2,0,4-1.7,4.1-3.8l2.5-46
				c0.1-2.3-1.6-4.2-3.8-4.3c-0.1,0-0.1,0-0.2,0h-21.4c-2.3,0-4.1,1.8-4.1,4.1C196.4,45.9,196.4,46,196.4,46.1z M211.2,101.9
				c-8.6,0-15.6,6.9-15.6,15.6s6.9,15.6,15.6,15.6s15.6-6.9,15.6-15.6S219.8,101.9,211.2,101.9L211.2,101.9z M295,85
				c0,46.4-37.5,83.9-83.9,83.9s-83.9-37.5-83.9-83.9s37.5-83.9,83.9-83.9S295,38.8,295,85z"/>
		</g>
		<g>
			<g>
				<path id="SVGID_2_" class="st0" d="M196.4,46.1l2.5,46c0.1,2.2,1.9,3.8,4.1,3.8h16.4c2.2,0,4-1.7,4.1-3.8l2.5-46
					c0.1-2.3-1.6-4.2-3.8-4.3c-0.1,0-0.1,0-0.2,0h-21.4c-2.3,0-4.1,1.8-4.1,4.1C196.4,45.9,196.4,46,196.4,46.1z M211.2,101.9
					c-8.6,0-15.6,6.9-15.6,15.6s6.9,15.6,15.6,15.6s15.6-6.9,15.6-15.6S219.8,101.9,211.2,101.9L211.2,101.9z M295,85
					c0,46.4-37.5,83.9-83.9,83.9s-83.9-37.5-83.9-83.9s37.5-83.9,83.9-83.9S295,38.8,295,85z"/>
			</g>
			<g>
				<defs>
					<path id="SVGID_3_" d="M196.4,46.1l2.5,46c0.1,2.2,1.9,3.8,4.1,3.8h16.4c2.2,0,4-1.7,4.1-3.8l2.5-46c0.1-2.3-1.6-4.2-3.8-4.3
						c-0.1,0-0.1,0-0.2,0h-21.4c-2.3,0-4.1,1.8-4.1,4.1C196.4,45.9,196.4,46,196.4,46.1z M211.2,101.9c-8.6,0-15.6,6.9-15.6,15.6
						s6.9,15.6,15.6,15.6s15.6-6.9,15.6-15.6S219.8,101.9,211.2,101.9L211.2,101.9z M295,85c0,46.4-37.5,83.9-83.9,83.9
						s-83.9-37.5-83.9-83.9s37.5-83.9,83.9-83.9S295,38.8,295,85z"/>
				</defs>
				<use xlink:href="#SVGID_3_"  style="overflow:visible;fill:#FFFFFF;"/>
				<clipPath id="SVGID_4_">
					<use xlink:href="#SVGID_3_"  style="overflow:visible;"/>
				</clipPath>
				<g class="st1">
					<rect x="-4569.4" y="-1484.5" class="st0" width="11502" height="3840"/>
				</g>
			</g>
		</g>
	</g>
</g>
</svg>
