<svg id="Layer_1" data-name="Layer 1" xmlns="http://www.w3.org/2000/svg" xmlns:xlink="http://www.w3.org/1999/xlink" viewBox="0 0 976 228.86"><defs><style>.cls-1,.cls-6{fill:#fff;}.cls-1,.cls-5{fill-rule:evenodd;}.cls-2{fill:#f5f5f5;}.cls-3{fill:#222;}.cls-4{mask:url(#mask);}.cls-5{fill:#e77d34;}.cls-7{fill:#5151d3;}.cls-8{fill:none;stroke:#5151d3;stroke-linecap:round;stroke-linejoin:round;stroke-width:2px;}</style><mask id="mask" x="825.6" y="122.86" width="32.96" height="24" maskUnits="userSpaceOnUse"><g id="mask-2"><polygon id="path-1" class="cls-1" points="825.6 122.86 858.56 122.86 858.56 146.83 825.6 146.83 825.6 122.86"/></g></mask></defs><rect class="cls-2" width="976" height="228.86"/><rect class="cls-3" x="26.94" y="90.86" width="921.12" height="88"/><g id="Page-1"><g id="XL-1280px-template"><g id="Group"><g id="Group-3"><g class="cls-4"><path id="Fill-1" class="cls-5" d="M835.86,134.44c5.42,0,12-1.27,12-6.5,0-3.7-3.78-5.08-7.23-5.08-5.27,0-15,2.93-15,13.35,0,5.22,4,8.24,10.29,8.24a13.11,13.11,0,0,0,13-10.17c-3.91,6.76-8.89,8.86-13,8.86-5,0-7-3.75-7-7,0-9.19,7.14-12.27,11.63-12.27,3,0,4.82,1.94,4.82,4.08,0,5.9-8.5,5.74-12.38,5.74h-1.86l-.82.85a21.63,21.63,0,0,1,6.9,2.09c5.55,2.8,10.77,10.2,17.68,10.2,2.51,0,3.16-.76,3.63-1.43-3.38,2.15-9-1.59-12.11-4.48-2.52-2.38-4.74-5.08-10.59-6.51"/></g></g><path id="Fill-4" class="cls-1" d="M869.46,131.5a2.52,2.52,0,0,0-2.72-2.63h-3.81c-.1,0-.15,0-.15.16v4.91c0,.11.05.16.15.16h3.81a2.52,2.52,0,0,0,2.72-2.6m.35,12.93a.38.38,0,0,1-.4-.27L866,137h-3.07c-.1,0-.15.06-.15.17v7a.26.26,0,0,1-.27.27H860a.26.26,0,0,1-.27-.27v-17.9A.26.26,0,0,1,860,126h6.89a5.39,5.39,0,0,1,5.69,5.51,5.24,5.24,0,0,1-3.38,5.07l3.75,7.51c.1.19,0,.35-.18.35h-2.91"/><path id="Fill-5" class="cls-1" d="M875.64,126.26a.25.25,0,0,1,.26-.27h10.83a.25.25,0,0,1,.26.27v2.34a.25.25,0,0,1-.26.27h-7.84a.14.14,0,0,0-.16.16v4.5a.14.14,0,0,0,.16.16h6.3a.25.25,0,0,1,.26.27v2.34a.25.25,0,0,1-.26.27h-6.3a.14.14,0,0,0-.16.16v4.66c0,.11,0,.17.16.17h7.84a.25.25,0,0,1,.26.27v2.33a.25.25,0,0,1-.26.27H875.9a.25.25,0,0,1-.26-.27v-17.9"/><path id="Fill-6" class="cls-1" d="M889.88,126.26a.25.25,0,0,1,.26-.27h2.57a.25.25,0,0,1,.26.27v15.13c0,.11,0,.17.16.17h7.29a.24.24,0,0,1,.26.27v2.33a.25.25,0,0,1-.26.27H890.14a.25.25,0,0,1-.26-.27v-17.9"/><path id="Fill-7" class="cls-1" d="M913.5,144.45a.43.43,0,0,1-.42-.27l-3.59-6.26h0l-3.62,6.26a.42.42,0,0,1-.42.27h-2.83c-.18,0-.26-.16-.16-.35l5.33-9.19-4.93-8.54c-.11-.19,0-.35.15-.35h2.84a.43.43,0,0,1,.42.27l3.22,5.58h0l3.23-5.58a.42.42,0,0,1,.42-.27H916c.18,0,.26.16.16.35l-4.93,8.54,5.32,9.19c.11.19,0,.35-.16.35H913.5"/><path id="Fill-8" class="cls-1" d="M920.26,132.27a.08.08,0,0,1-.09-.09V127s0-.06,0-.06h-1.59a.08.08,0,0,1-.09-.09v-.79a.09.09,0,0,1,.09-.1h4.34a.09.09,0,0,1,.09.1v.79a.08.08,0,0,1-.09.09h-1.59s0,0,0,.06v5.14a.08.08,0,0,1-.09.09h-.88"/><path id="Fill-9" class="cls-1" d="M924,126.1a.09.09,0,0,1,.09-.1h.79a.15.15,0,0,1,.16.1l1.66,3.86h0l1.64-3.86a.14.14,0,0,1,.15-.1h.78c.06,0,.09,0,.09.1v6.08a.08.08,0,0,1-.09.09h-.77a.08.08,0,0,1-.09-.09v-3.83h0l-1.29,3a.17.17,0,0,1-.17.12h-.52a.19.19,0,0,1-.17-.12l-1.28-3h0v3.83a.08.08,0,0,1-.09.09h-.78a.08.08,0,0,1-.09-.09V126.1"/></g></g></g><path class="cls-6" d="M49.52,138.71a3.93,3.93,0,0,1-1.59-.32,3.76,3.76,0,0,1-1.27-.93,4.37,4.37,0,0,1-.84-1.5,6.25,6.25,0,0,1-.3-2,5.9,5.9,0,0,1,.31-2,4.38,4.38,0,0,1,.85-1.5,3.64,3.64,0,0,1,1.29-.94,3.91,3.91,0,0,1,1.62-.33,3.08,3.08,0,0,1,1.48.34,4.12,4.12,0,0,1,1,.79l-.63.76a3.1,3.1,0,0,0-.82-.63,2.26,2.26,0,0,0-1-.24,2.7,2.7,0,0,0-1.19.26,2.5,2.5,0,0,0-.91.74,3.39,3.39,0,0,0-.59,1.17,5.63,5.63,0,0,0-.2,1.54,5.73,5.73,0,0,0,.2,1.56,3.87,3.87,0,0,0,.57,1.19,2.57,2.57,0,0,0,.89.75,2.53,2.53,0,0,0,1.18.27,2.37,2.37,0,0,0,1.18-.28,3.49,3.49,0,0,0,.95-.76l.65.73a4.1,4.1,0,0,1-1.24,1A3.44,3.44,0,0,1,49.52,138.71Z"/><path class="cls-6" d="M56.58,138.71a3.06,3.06,0,0,1-1.2-.24,3,3,0,0,1-1-.69,3.31,3.31,0,0,1-.69-1.12,4,4,0,0,1-.26-1.51,4,4,0,0,1,.26-1.52,3.42,3.42,0,0,1,.69-1.12,2.88,2.88,0,0,1,1-.7,3.12,3.12,0,0,1,2.4,0,3,3,0,0,1,1,.7,3.42,3.42,0,0,1,.69,1.12,4.25,4.25,0,0,1,.26,1.52,4.19,4.19,0,0,1-.26,1.51,3.31,3.31,0,0,1-.69,1.12,3.09,3.09,0,0,1-1,.69A3.06,3.06,0,0,1,56.58,138.71Zm0-1a1.69,1.69,0,0,0,.8-.19A1.85,1.85,0,0,0,58,137a2.85,2.85,0,0,0,.4-.82,3.91,3.91,0,0,0,.14-1.07,4,4,0,0,0-.14-1.07,2.79,2.79,0,0,0-.4-.83,1.88,1.88,0,0,0-.62-.54,1.69,1.69,0,0,0-.8-.19,1.66,1.66,0,0,0-.8.19,1.88,1.88,0,0,0-.62.54,2.37,2.37,0,0,0-.4.83,3.6,3.6,0,0,0-.14,1.07,3.56,3.56,0,0,0,.14,1.07,2.41,2.41,0,0,0,.4.82,1.85,1.85,0,0,0,.62.53A1.66,1.66,0,0,0,56.58,137.76Z"/><path class="cls-6" d="M61.52,141.41v-9.67h.95l.1.78h0a5.45,5.45,0,0,1,1-.67,2.47,2.47,0,0,1,1.15-.28,2.51,2.51,0,0,1,1.16.25,2.17,2.17,0,0,1,.84.69,3.1,3.1,0,0,1,.51,1.1,5.23,5.23,0,0,1,.18,1.43,4.63,4.63,0,0,1-.24,1.55,3.54,3.54,0,0,1-.64,1.15,2.69,2.69,0,0,1-.94.72,2.58,2.58,0,0,1-1.12.25,2.33,2.33,0,0,1-1-.21,5,5,0,0,1-.94-.57l0,1.19v2.29Zm2.81-3.67a1.61,1.61,0,0,0,.78-.19,1.83,1.83,0,0,0,.62-.53,2.73,2.73,0,0,0,.4-.84,4,4,0,0,0,.15-1.14,4.64,4.64,0,0,0-.1-1,2.25,2.25,0,0,0-.31-.79,1.52,1.52,0,0,0-.56-.51,1.74,1.74,0,0,0-.82-.18,1.84,1.84,0,0,0-.88.23,5.07,5.07,0,0,0-.94.69V137a2.91,2.91,0,0,0,.89.55A2.21,2.21,0,0,0,64.33,137.74Z"/><path class="cls-6" d="M69.35,141.47a2,2,0,0,1-.44,0,1.89,1.89,0,0,1-.36-.1l.22-.91.25.06a1.47,1.47,0,0,0,.27,0,1.23,1.23,0,0,0,1-.42,2.82,2.82,0,0,0,.58-1l.15-.5-2.73-6.82h1.19l1.39,3.76c.1.3.21.62.33.95s.22.65.33,1h.05c.11-.31.2-.63.3-1s.18-.66.28-1l1.22-3.76h1.12l-2.57,7.36a7.38,7.38,0,0,1-.4.94,3.24,3.24,0,0,1-.53.75,2.64,2.64,0,0,1-.7.5A2.21,2.21,0,0,1,69.35,141.47Z"/><path class="cls-6" d="M75.77,138.54v-6.8h1l.1,1.23h0a3.22,3.22,0,0,1,.85-1,1.76,1.76,0,0,1,1.09-.38,1.81,1.81,0,0,1,.72.14l-.22,1-.31-.09a1.78,1.78,0,0,0-.35,0,1.47,1.47,0,0,0-.9.35,2.78,2.78,0,0,0-.82,1.21v4.37Z"/><path class="cls-6" d="M81.22,130.34a.8.8,0,0,1-.57-.21.7.7,0,0,1-.23-.53.68.68,0,0,1,.23-.54.87.87,0,0,1,1.13,0,.66.66,0,0,1,.24.54.68.68,0,0,1-.24.53A.79.79,0,0,1,81.22,130.34Zm-.59,8.2v-6.8h1.15v6.8Z"/><path class="cls-6" d="M86.37,141.68a5.14,5.14,0,0,1-1.15-.12,2.86,2.86,0,0,1-.89-.36,1.72,1.72,0,0,1-.57-.57,1.48,1.48,0,0,1-.2-.79,1.4,1.4,0,0,1,.26-.82,2.94,2.94,0,0,1,.73-.72v-.05a1.36,1.36,0,0,1-.43-.43,1.29,1.29,0,0,1-.17-.68,1.2,1.2,0,0,1,.24-.75,1.87,1.87,0,0,1,.5-.51v0a2.93,2.93,0,0,1-.61-.75,2.18,2.18,0,0,1-.27-1.09,2.37,2.37,0,0,1,.2-1,2.47,2.47,0,0,1,.55-.76,2.5,2.5,0,0,1,.82-.48,3,3,0,0,1,1-.17,2.78,2.78,0,0,1,.52.05,2.67,2.67,0,0,1,.45.12H89.7v.88H88.3a2,2,0,0,1,.4.6,1.91,1.91,0,0,1,.16.8,2.46,2.46,0,0,1-.19,1,2.25,2.25,0,0,1-.54.74,2.3,2.3,0,0,1-.79.47,2.83,2.83,0,0,1-1,.17,2.4,2.4,0,0,1-.52-.07,2.67,2.67,0,0,1-.5-.17,1.43,1.43,0,0,0-.31.34.87.87,0,0,0-.13.47.67.67,0,0,0,.26.53,1.52,1.52,0,0,0,1,.21h1.31a3.3,3.3,0,0,1,1.79.39,1.35,1.35,0,0,1,.59,1.24,1.94,1.94,0,0,1-.23.9,2.43,2.43,0,0,1-.69.75,3.8,3.8,0,0,1-1.09.51A5.21,5.21,0,0,1,86.37,141.68Zm.17-.8a3.14,3.14,0,0,0,.89-.12,2.51,2.51,0,0,0,.68-.31,1.39,1.39,0,0,0,.43-.44,1,1,0,0,0,.15-.52.66.66,0,0,0-.35-.65,2.13,2.13,0,0,0-1-.19H86.15a3.17,3.17,0,0,1-.43,0,1.79,1.79,0,0,1-.46-.09,2,2,0,0,0-.53.56,1.21,1.21,0,0,0-.17.59,1,1,0,0,0,.53.87A2.81,2.81,0,0,0,86.54,140.88Zm-.17-5.26a1.26,1.26,0,0,0,.55-.12,1.23,1.23,0,0,0,.46-.32,1.48,1.48,0,0,0,.32-.51,2.06,2.06,0,0,0,.11-.68,1.58,1.58,0,0,0-.42-1.17,1.47,1.47,0,0,0-2,0,1.58,1.58,0,0,0-.42,1.17,1.83,1.83,0,0,0,.11.68,1.45,1.45,0,0,0,.31.51,1.36,1.36,0,0,0,.47.32A1.26,1.26,0,0,0,86.37,135.62Z"/><path class="cls-6" d="M91.13,138.54v-10h1.15v2.72l0,1.4a5.82,5.82,0,0,1,1-.79,2.3,2.3,0,0,1,1.24-.33,1.83,1.83,0,0,1,1.58.67,3.34,3.34,0,0,1,.5,2v4.31H95.43v-4.16a2.48,2.48,0,0,0-.31-1.39,1.14,1.14,0,0,0-1-.43,1.65,1.65,0,0,0-.94.27,6.27,6.27,0,0,0-.92.78v4.93Z"/><path class="cls-6" d="M100.89,138.71a2.26,2.26,0,0,1-.92-.17,1.46,1.46,0,0,1-.6-.46,1.66,1.66,0,0,1-.33-.71,3.84,3.84,0,0,1-.1-.93v-3.76h-1v-.87l1.07-.07.14-1.91h1v1.91h1.84v.94H100.1v3.78a1.76,1.76,0,0,0,.23,1,.92.92,0,0,0,.82.34,2,2,0,0,0,.4-.05,2.64,2.64,0,0,0,.37-.13l.23.87c-.19.06-.39.12-.61.17A3,3,0,0,1,100.89,138.71Z"/><path class="cls-6" d="M110.34,138.7a4.64,4.64,0,0,1-1.74-.33,4.38,4.38,0,0,1-1.44-.94,4.56,4.56,0,0,1-1-1.47,5,5,0,0,1-.37-1.94,4.9,4.9,0,0,1,.37-1.92,4.37,4.37,0,0,1,1-1.45,4.2,4.2,0,0,1,1.44-.93,4.86,4.86,0,0,1,3.47,0,4.33,4.33,0,0,1,2.42,2.38,4.73,4.73,0,0,1,.37,1.92,4.83,4.83,0,0,1-.37,1.94,4.34,4.34,0,0,1-2.42,2.41A4.63,4.63,0,0,1,110.34,138.7Zm0-.59a3.71,3.71,0,0,0,1.49-.3,3.57,3.57,0,0,0,1.23-.83,3.92,3.92,0,0,0,.83-1.29,4.63,4.63,0,0,0,0-3.33,3.78,3.78,0,0,0-.83-1.28,3.69,3.69,0,0,0-1.23-.82,3.88,3.88,0,0,0-1.49-.29,3.93,3.93,0,0,0-1.5.29,3.69,3.69,0,0,0-1.23.82,3.93,3.93,0,0,0-.83,1.28,4.63,4.63,0,0,0,0,3.33,4.09,4.09,0,0,0,.83,1.29,3.57,3.57,0,0,0,1.23.83A3.76,3.76,0,0,0,110.34,138.11Zm.11-1.32a2.41,2.41,0,0,1-2.35-1.6,3.26,3.26,0,0,1-.2-1.17,2.56,2.56,0,0,1,.22-1.09,2.5,2.5,0,0,1,.57-.84,2.27,2.27,0,0,1,.83-.53,2.5,2.5,0,0,1,1-.19,2,2,0,0,1,1,.24,3.19,3.19,0,0,1,.75.56l-.49.55a2.37,2.37,0,0,0-.57-.43,1.36,1.36,0,0,0-.65-.15,1.6,1.6,0,0,0-1.24.53,2,2,0,0,0-.46,1.35,2.2,2.2,0,0,0,.45,1.46,1.5,1.5,0,0,0,1.21.54,1.8,1.8,0,0,0,.79-.17,4.3,4.3,0,0,0,.64-.44l.42.58a4.09,4.09,0,0,1-.83.57A2.27,2.27,0,0,1,110.45,136.79Z"/><path class="cls-6" d="M118.9,138.54v-.68l1.8-1.82a19.11,19.11,0,0,0,1.31-1.51,7.63,7.63,0,0,0,.82-1.27,2.7,2.7,0,0,0,.27-1.13,1.88,1.88,0,0,0-.42-1.26,1.57,1.57,0,0,0-1.27-.49,1.87,1.87,0,0,0-1,.32,4.08,4.08,0,0,0-.86.76l-.66-.66a5.18,5.18,0,0,1,1.19-1,3,3,0,0,1,1.51-.37,2.64,2.64,0,0,1,2,.72,2.58,2.58,0,0,1,.71,1.91,3.22,3.22,0,0,1-.27,1.27,7.19,7.19,0,0,1-.75,1.32c-.33.45-.71.92-1.15,1.41s-.93,1-1.47,1.56l.76,0,.74,0h2.59v1Z"/><path class="cls-6" d="M128.79,138.71a2.38,2.38,0,0,1-2.12-1.2,6.61,6.61,0,0,1-.75-3.46,6.39,6.39,0,0,1,.75-3.43,2.48,2.48,0,0,1,4.22,0,6.39,6.39,0,0,1,.75,3.43,6.61,6.61,0,0,1-.75,3.46A2.37,2.37,0,0,1,128.79,138.71Zm0-.92a1.27,1.27,0,0,0,.71-.22,1.77,1.77,0,0,0,.54-.67,4.3,4.3,0,0,0,.36-1.16,10.38,10.38,0,0,0,.12-1.69,10,10,0,0,0-.12-1.68,3.93,3.93,0,0,0-.36-1.14,1.62,1.62,0,0,0-.54-.65,1.31,1.31,0,0,0-1.42,0,1.66,1.66,0,0,0-.56.65,4.26,4.26,0,0,0-.36,1.14,10,10,0,0,0-.12,1.68,6.36,6.36,0,0,0,.48,2.85A1.44,1.44,0,0,0,128.79,137.79Z"/><path class="cls-6" d="M132.82,138.54v-.68c.67-.68,1.27-1.28,1.79-1.82a19.43,19.43,0,0,0,1.32-1.51,8.2,8.2,0,0,0,.81-1.27,2.58,2.58,0,0,0,.28-1.13,1.88,1.88,0,0,0-.42-1.26,1.57,1.57,0,0,0-1.27-.49,1.85,1.85,0,0,0-1,.32,3.9,3.9,0,0,0-.87.76l-.66-.66a5.4,5.4,0,0,1,1.19-1,3,3,0,0,1,1.52-.37,2.47,2.47,0,0,1,2.67,2.63,3.22,3.22,0,0,1-.27,1.27,7.27,7.27,0,0,1-.76,1.32,14.61,14.61,0,0,1-1.15,1.41c-.44.49-.93,1-1.46,1.56l.76,0,.74,0h2.59v1Z"/><path class="cls-6" d="M142.7,138.71a2.37,2.37,0,0,1-2.11-1.2,6.6,6.6,0,0,1-.76-3.46,6.39,6.39,0,0,1,.76-3.43,2.47,2.47,0,0,1,4.21,0,6.3,6.3,0,0,1,.76,3.43,6.51,6.51,0,0,1-.76,3.46A2.35,2.35,0,0,1,142.7,138.71Zm0-.92a1.24,1.24,0,0,0,.71-.22,1.89,1.89,0,0,0,.55-.67,4.31,4.31,0,0,0,.35-1.16,9.29,9.29,0,0,0,.13-1.69,9,9,0,0,0-.13-1.68,4,4,0,0,0-.35-1.14,1.72,1.72,0,0,0-.55-.65,1.24,1.24,0,0,0-.71-.21,1.26,1.26,0,0,0-.71.21,1.64,1.64,0,0,0-.55.65,3.64,3.64,0,0,0-.36,1.14,9.89,9.89,0,0,0-.13,1.68,6.33,6.33,0,0,0,.49,2.85A1.43,1.43,0,0,0,142.7,137.79Z"/><path class="cls-6" d="M150.24,138.54v-9.18h1.16v8.19h4v1Z"/><path class="cls-6" d="M159.52,138.71a3.18,3.18,0,0,1-1.28-.25,2.85,2.85,0,0,1-1-.7,3.27,3.27,0,0,1-.69-1.11,4.14,4.14,0,0,1-.25-1.5,3.93,3.93,0,0,1,.26-1.5,3.62,3.62,0,0,1,.68-1.13,3,3,0,0,1,1-.7,2.7,2.7,0,0,1,1.14-.25,2.81,2.81,0,0,1,1.15.22,2.31,2.31,0,0,1,.86.65,2.84,2.84,0,0,1,.52,1,4.46,4.46,0,0,1,.18,1.31v.36a2,2,0,0,1,0,.3h-4.59a2.66,2.66,0,0,0,.68,1.73,2.12,2.12,0,0,0,1.59.64,2.57,2.57,0,0,0,.9-.15,3.87,3.87,0,0,0,.79-.39l.41.76a5.47,5.47,0,0,1-1,.49A3.39,3.39,0,0,1,159.52,138.71Zm-2.14-4.12H161a2.45,2.45,0,0,0-.44-1.57,1.52,1.52,0,0,0-1.24-.54,1.82,1.82,0,0,0-.7.14,1.8,1.8,0,0,0-.59.41,2.11,2.11,0,0,0-.44.67A2.71,2.71,0,0,0,157.38,134.59Z"/><path class="cls-6" d="M162.66,138.54l2.22-3.55-2.06-3.25h1.25l.91,1.5.32.56c.11.19.23.38.35.57h.06l.3-.57.31-.56.83-1.5h1.2l-2.06,3.37,2.22,3.43h-1.25l-1-1.58-.37-.62c-.12-.2-.24-.4-.37-.6h-.06c-.12.2-.24.4-.35.6s-.23.4-.34.62l-.92,1.58Z"/><path class="cls-6" d="M170.44,130.34a.82.82,0,0,1-.57-.21.7.7,0,0,1-.23-.53.68.68,0,0,1,.23-.54.82.82,0,0,1,.57-.21.79.79,0,0,1,.56.21.66.66,0,0,1,.24.54.68.68,0,0,1-.24.53A.79.79,0,0,1,170.44,130.34Zm-.59,8.2v-6.8H171v6.8Z"/><path class="cls-6" d="M175.07,138.71a3.57,3.57,0,0,1-1.38-.27,4.19,4.19,0,0,1-1.15-.67l.57-.77a4.92,4.92,0,0,0,.92.59,2.45,2.45,0,0,0,1.08.22,1.47,1.47,0,0,0,1-.3,1,1,0,0,0,.34-.76.78.78,0,0,0-.14-.46A1.3,1.3,0,0,0,176,136a2.14,2.14,0,0,0-.5-.26l-.56-.23a7.22,7.22,0,0,1-.72-.29,2.34,2.34,0,0,1-.65-.39,1.73,1.73,0,0,1-.47-.54,1.43,1.43,0,0,1-.19-.74,2,2,0,0,1,.16-.76,1.89,1.89,0,0,1,.47-.62,2.22,2.22,0,0,1,.73-.4,3,3,0,0,1,1-.15,3.07,3.07,0,0,1,1.19.22,3.69,3.69,0,0,1,.93.55l-.55.73a3.94,3.94,0,0,0-.73-.44,2,2,0,0,0-.82-.16,1.3,1.3,0,0,0-.95.29.93.93,0,0,0-.3.69.67.67,0,0,0,.13.41,1.1,1.1,0,0,0,.33.31,2.48,2.48,0,0,0,.49.23l.56.22.74.3a2.84,2.84,0,0,1,.66.38,1.66,1.66,0,0,1,.48.57,1.57,1.57,0,0,1,.19.81,1.85,1.85,0,0,1-.16.78,1.75,1.75,0,0,1-.47.65,2.39,2.39,0,0,1-.79.44A3.21,3.21,0,0,1,175.07,138.71Z"/><path class="cls-6" d="M179.27,138.54v-9.18h1.21l3.31,5.77,1,1.9h.05c0-.47-.06-.95-.09-1.45s-.05-1-.05-1.48v-4.74h1.11v9.18h-1.2l-3.34-5.78-1-1.89h-.06c0,.47.08.94.11,1.42s0,1,0,1.45v4.8Z"/><path class="cls-6" d="M191,138.71a3.18,3.18,0,0,1-1.28-.25,2.85,2.85,0,0,1-1-.7,3.12,3.12,0,0,1-.69-1.11,4.46,4.46,0,0,1,0-3,3.64,3.64,0,0,1,.69-1.13,2.86,2.86,0,0,1,1-.7,2.66,2.66,0,0,1,1.14-.25,2.81,2.81,0,0,1,1.15.22,2.31,2.31,0,0,1,.86.65,3,3,0,0,1,.52,1,4.46,4.46,0,0,1,.18,1.31v.36a2,2,0,0,1,0,.3h-4.59a2.61,2.61,0,0,0,.68,1.73,2.1,2.1,0,0,0,1.59.64,2.66,2.66,0,0,0,.9-.15,4.14,4.14,0,0,0,.79-.39l.41.76a5.47,5.47,0,0,1-1,.49A3.43,3.43,0,0,1,191,138.71Zm-2.15-4.12h3.64A2.39,2.39,0,0,0,192,133a1.5,1.5,0,0,0-1.24-.54,1.81,1.81,0,0,0-.69.14,1.7,1.7,0,0,0-.59.41,2.11,2.11,0,0,0-.44.67A3,3,0,0,0,188.83,134.59Z"/><path class="cls-6" d="M194.11,138.54l2.23-3.55-2.06-3.25h1.25l.91,1.5.32.56c.11.19.23.38.35.57h0c.11-.19.21-.38.31-.57l.31-.56.83-1.5h1.2l-2.06,3.37,2.21,3.43h-1.24l-1-1.58-.36-.62c-.12-.2-.25-.4-.38-.6h0c-.13.2-.24.4-.35.6s-.23.4-.34.62l-.92,1.58Z"/><path class="cls-6" d="M201.9,130.34a.8.8,0,0,1-.57-.21.67.67,0,0,1-.23-.53.65.65,0,0,1,.23-.54.87.87,0,0,1,1.13,0,.65.65,0,0,1,.23.54.67.67,0,0,1-.23.53A.79.79,0,0,1,201.9,130.34Zm-.59,8.2v-6.8h1.15v6.8Z"/><path class="cls-6" d="M206.53,138.71a3.62,3.62,0,0,1-1.39-.27,4.19,4.19,0,0,1-1.15-.67l.58-.77a4.61,4.61,0,0,0,.92.59,2.45,2.45,0,0,0,1.08.22,1.47,1.47,0,0,0,1-.3,1,1,0,0,0,.33-.76.78.78,0,0,0-.13-.46,1.46,1.46,0,0,0-.36-.34,2.36,2.36,0,0,0-.5-.26l-.56-.23c-.24-.08-.48-.18-.73-.29a2.5,2.5,0,0,1-.65-.39,1.87,1.87,0,0,1-.47-.54,1.42,1.42,0,0,1-.18-.74,1.79,1.79,0,0,1,.16-.76,1.86,1.86,0,0,1,.46-.62,2.38,2.38,0,0,1,.74-.4,3.28,3.28,0,0,1,2.16.07,3.52,3.52,0,0,1,.93.55l-.54.73a4.29,4.29,0,0,0-.73-.44,2,2,0,0,0-.83-.16,1.28,1.28,0,0,0-.94.29.93.93,0,0,0-.3.69.73.73,0,0,0,.12.41,1.27,1.27,0,0,0,.34.31,2.68,2.68,0,0,0,.48.23l.57.22c.24.1.49.19.73.3a2.91,2.91,0,0,1,.67.38,1.66,1.66,0,0,1,.48.57,1.57,1.57,0,0,1,.19.81,1.85,1.85,0,0,1-.16.78,1.9,1.9,0,0,1-.48.65,2.44,2.44,0,0,1-.78.44A3.21,3.21,0,0,1,206.53,138.71Z"/><path class="cls-6" d="M213.53,138.54v-9.18h2.87a5.75,5.75,0,0,1,1.29.13,2.92,2.92,0,0,1,1,.44,2.15,2.15,0,0,1,.66.8,2.73,2.73,0,0,1,.24,1.2,2.57,2.57,0,0,1-.56,1.73,2.93,2.93,0,0,1-1.51.88l2.34,4h-1.32l-2.21-3.88h-1.67v3.88Zm1.16-4.83h1.54a2.62,2.62,0,0,0,1.65-.44,1.56,1.56,0,0,0,.58-1.34,1.37,1.37,0,0,0-.58-1.27,3.11,3.11,0,0,0-1.65-.36h-1.54Z"/><path class="cls-6" d="M222,130.34a.84.84,0,0,1-.57-.21.7.7,0,0,1-.23-.53.68.68,0,0,1,.23-.54.84.84,0,0,1,.57-.21.82.82,0,0,1,.57.21.68.68,0,0,1,.23.54.7.7,0,0,1-.23.53A.82.82,0,0,1,222,130.34Zm-.59,8.2v-6.8h1.15v6.8Z"/><path class="cls-6" d="M226.61,138.71a3.62,3.62,0,0,1-1.39-.27,4.19,4.19,0,0,1-1.15-.67l.58-.77a4.55,4.55,0,0,0,.91.59,2.5,2.5,0,0,0,1.09.22,1.49,1.49,0,0,0,1-.3,1,1,0,0,0,.33-.76.72.72,0,0,0-.14-.46,1.18,1.18,0,0,0-.36-.34,2.27,2.27,0,0,0-.49-.26l-.56-.23a7.38,7.38,0,0,1-.73-.29,2.5,2.5,0,0,1-.65-.39,1.87,1.87,0,0,1-.47-.54,1.42,1.42,0,0,1-.18-.74,1.79,1.79,0,0,1,.16-.76,1.86,1.86,0,0,1,.46-.62,2.28,2.28,0,0,1,.74-.4,2.93,2.93,0,0,1,1-.15,3.06,3.06,0,0,1,1.18.22,3.52,3.52,0,0,1,.93.55l-.55.73a3.86,3.86,0,0,0-.72-.44,2.08,2.08,0,0,0-.83-.16,1.32,1.32,0,0,0-.95.29.93.93,0,0,0-.3.69.74.74,0,0,0,.13.41,1.14,1.14,0,0,0,.34.31,2.68,2.68,0,0,0,.48.23l.57.22.73.3a2.91,2.91,0,0,1,.67.38,1.92,1.92,0,0,1,.48.57,1.67,1.67,0,0,1,.19.81,2,2,0,0,1-.16.78,1.9,1.9,0,0,1-.48.65,2.44,2.44,0,0,1-.78.44A3.25,3.25,0,0,1,226.61,138.71Z"/><path class="cls-6" d="M230.69,138.54v-10h1.14v6.75h0l2.9-3.58H236l-2.28,2.73,2.59,4.07h-1.26l-2-3.27-1.27,1.48v1.79Z"/><path class="cls-6" d="M243.08,138.71a4.44,4.44,0,0,1-1.79-.36,4.55,4.55,0,0,1-1.43-1l.7-.81a3.85,3.85,0,0,0,1.16.83,3.17,3.17,0,0,0,1.38.32,2.19,2.19,0,0,0,1.41-.41,1.34,1.34,0,0,0,.51-1.09,1.4,1.4,0,0,0-.12-.6,1.34,1.34,0,0,0-.33-.42,2.21,2.21,0,0,0-.48-.31l-.6-.29-1.32-.58a5.69,5.69,0,0,1-.65-.33,2.59,2.59,0,0,1-.61-.48,2.41,2.41,0,0,1-.43-.67,2.19,2.19,0,0,1-.17-.88,2.13,2.13,0,0,1,.22-1,2.27,2.27,0,0,1,.6-.78,2.79,2.79,0,0,1,.91-.51,3.57,3.57,0,0,1,1.16-.18,3.66,3.66,0,0,1,1.52.31,3.94,3.94,0,0,1,1.19.82l-.63.76a3.43,3.43,0,0,0-.93-.64,2.84,2.84,0,0,0-1.15-.23,2,2,0,0,0-1.24.36,1.16,1.16,0,0,0-.47,1,1.08,1.08,0,0,0,.13.56,1.4,1.4,0,0,0,.36.41,2.71,2.71,0,0,0,.49.31,5.22,5.22,0,0,0,.54.24l1.31.56a5.22,5.22,0,0,1,.74.39,2.66,2.66,0,0,1,.6.5,2.25,2.25,0,0,1,.4.67,2.48,2.48,0,0,1,.14.89,2.45,2.45,0,0,1-.21,1,2.55,2.55,0,0,1-.62.84,3.35,3.35,0,0,1-1,.56A4.1,4.1,0,0,1,243.08,138.71Z"/><path class="cls-6" d="M250.54,138.71a3,3,0,0,1-2.19-.93,3.5,3.5,0,0,1-.7-1.12,4.19,4.19,0,0,1-.26-1.51,4.25,4.25,0,0,1,.26-1.52,3.61,3.61,0,0,1,.7-1.12,2.88,2.88,0,0,1,1-.7,3,3,0,0,1,1.19-.24,3.06,3.06,0,0,1,1.2.24,2.88,2.88,0,0,1,1,.7,3.61,3.61,0,0,1,.7,1.12,4.25,4.25,0,0,1,.26,1.52,4.19,4.19,0,0,1-.26,1.51,3.5,3.5,0,0,1-.7,1.12,3,3,0,0,1-1,.69A3.06,3.06,0,0,1,250.54,138.71Zm0-1a1.66,1.66,0,0,0,.8-.19A1.88,1.88,0,0,0,252,137a2.85,2.85,0,0,0,.4-.82,3.92,3.92,0,0,0,.13-1.07,4,4,0,0,0-.13-1.07,2.79,2.79,0,0,0-.4-.83,1.91,1.91,0,0,0-.63-.54,1.76,1.76,0,0,0-1.59,0,1.91,1.91,0,0,0-.63.54,2.79,2.79,0,0,0-.4.83,4,4,0,0,0-.14,1.07,3.91,3.91,0,0,0,.14,1.07,2.85,2.85,0,0,0,.4.82,1.88,1.88,0,0,0,.63.53A1.65,1.65,0,0,0,250.54,137.76Z"/><path class="cls-6" d="M256.7,138.71a1.06,1.06,0,0,1-.93-.39,2,2,0,0,1-.28-1.15v-8.6h1.14v8.68a.67.67,0,0,0,.1.4.31.31,0,0,0,.23.11h.1l.15,0,.15.87a1.34,1.34,0,0,1-.26.08A2.25,2.25,0,0,1,256.7,138.71Z"/><path class="cls-6" d="M261,138.71a1.83,1.83,0,0,1-1.58-.67,3.27,3.27,0,0,1-.5-2v-4.31h1.16v4.16a2.49,2.49,0,0,0,.3,1.39,1.13,1.13,0,0,0,1,.43,1.65,1.65,0,0,0,.93-.28,4.44,4.44,0,0,0,.9-.87v-4.83h1.15v6.8h-1l-.09-1.06h-.05a4.33,4.33,0,0,1-1,.89A2.2,2.2,0,0,1,261,138.71Z"/><path class="cls-6" d="M268.81,138.71a2.21,2.21,0,0,1-.91-.17,1.46,1.46,0,0,1-.6-.46,1.66,1.66,0,0,1-.33-.71,3.84,3.84,0,0,1-.1-.93v-3.76h-1v-.87l1.06-.07.14-1.91h1v1.91h1.83v.94H268v3.78a1.76,1.76,0,0,0,.23,1,.91.91,0,0,0,.82.34,1.89,1.89,0,0,0,.39-.05,2.8,2.8,0,0,0,.38-.13l.22.87-.6.17A3,3,0,0,1,268.81,138.71Z"/><path class="cls-6" d="M272,130.34a.79.79,0,0,1-.56-.21.67.67,0,0,1-.23-.53.65.65,0,0,1,.23-.54.87.87,0,0,1,1.13,0,.68.68,0,0,1,.23.54.7.7,0,0,1-.23.53A.8.8,0,0,1,272,130.34Zm-.58,8.2v-6.8h1.14v6.8Z"/><path class="cls-6" d="M277.49,138.71a3,3,0,0,1-1.19-.24,2.89,2.89,0,0,1-1-.69,3.5,3.5,0,0,1-.7-1.12,4.19,4.19,0,0,1-.26-1.51,4.25,4.25,0,0,1,.26-1.52,3.61,3.61,0,0,1,.7-1.12,2.79,2.79,0,0,1,1-.7,3,3,0,0,1,1.19-.24,3.06,3.06,0,0,1,1.2.24,2.88,2.88,0,0,1,1,.7,3.42,3.42,0,0,1,.69,1.12,4,4,0,0,1,.26,1.52,4,4,0,0,1-.26,1.51,3.31,3.31,0,0,1-.69,1.12,3,3,0,0,1-1,.69A3.06,3.06,0,0,1,277.49,138.71Zm0-1a1.66,1.66,0,0,0,.8-.19,1.85,1.85,0,0,0,.62-.53,2.41,2.41,0,0,0,.4-.82,3.56,3.56,0,0,0,.14-1.07,3.6,3.6,0,0,0-.14-1.07,2.37,2.37,0,0,0-.4-.83,1.88,1.88,0,0,0-.62-.54,1.66,1.66,0,0,0-.8-.19,1.62,1.62,0,0,0-.79.19,1.91,1.91,0,0,0-.63.54,2.79,2.79,0,0,0-.4.83,4,4,0,0,0-.14,1.07,3.91,3.91,0,0,0,.14,1.07,2.85,2.85,0,0,0,.4.82,1.88,1.88,0,0,0,.63.53A1.62,1.62,0,0,0,277.49,137.76Z"/><path class="cls-6" d="M282.44,138.54v-6.8h.95l.1,1h0a5.22,5.22,0,0,1,1-.82,2.33,2.33,0,0,1,1.25-.33,1.81,1.81,0,0,1,1.57.67,3.27,3.27,0,0,1,.5,2v4.31h-1.15v-4.16a2.49,2.49,0,0,0-.3-1.39,1.16,1.16,0,0,0-1-.43,1.65,1.65,0,0,0-.94.27,6.84,6.84,0,0,0-.93.78v4.93Z"/><path class="cls-6" d="M291.87,138.71a3.57,3.57,0,0,1-1.38-.27,4,4,0,0,1-1.15-.67l.57-.77a4.92,4.92,0,0,0,.92.59,2.45,2.45,0,0,0,1.08.22,1.47,1.47,0,0,0,1-.3,1,1,0,0,0,.34-.76.78.78,0,0,0-.14-.46,1.3,1.3,0,0,0-.36-.34,2.14,2.14,0,0,0-.5-.26l-.56-.23a7.22,7.22,0,0,1-.72-.29,2.34,2.34,0,0,1-.65-.39,1.73,1.73,0,0,1-.47-.54,1.43,1.43,0,0,1-.19-.74,2,2,0,0,1,.16-.76,1.89,1.89,0,0,1,.47-.62,2.22,2.22,0,0,1,.73-.4,3,3,0,0,1,1-.15,3.07,3.07,0,0,1,1.19.22,3.69,3.69,0,0,1,.93.55l-.55.73a3.94,3.94,0,0,0-.73-.44,2,2,0,0,0-.82-.16,1.3,1.3,0,0,0-.95.29.93.93,0,0,0-.3.69.67.67,0,0,0,.13.41,1.1,1.1,0,0,0,.33.31,2.48,2.48,0,0,0,.49.23l.56.22.74.3a2.84,2.84,0,0,1,.66.38,1.66,1.66,0,0,1,.48.57,1.57,1.57,0,0,1,.19.81,1.85,1.85,0,0,1-.16.78,1.75,1.75,0,0,1-.47.65,2.39,2.39,0,0,1-.79.44A3.21,3.21,0,0,1,291.87,138.71Z"/><path class="cls-6" d="M324.07,138.54v-9.18h2.62a6.24,6.24,0,0,1,1.41.14,2.93,2.93,0,0,1,1.08.45,2.14,2.14,0,0,1,.7.84,2.85,2.85,0,0,1,.25,1.27,3,3,0,0,1-.24,1.26,2.4,2.4,0,0,1-.69.88,3,3,0,0,1-1.08.53,5.32,5.32,0,0,1-1.38.17h-1.51v3.64Zm1.16-4.59h1.38a2.83,2.83,0,0,0,1.78-.46,1.69,1.69,0,0,0,.58-1.43,1.5,1.5,0,0,0-.61-1.38,3.39,3.39,0,0,0-1.81-.38h-1.32Z"/><path class="cls-6" d="M331.88,138.54v-6.8h.95l.1,1.23H333a3.07,3.07,0,0,1,.84-1,1.78,1.78,0,0,1,1.09-.38,1.9,1.9,0,0,1,.73.14l-.23,1-.31-.09a1.78,1.78,0,0,0-.35,0,1.47,1.47,0,0,0-.9.35,2.78,2.78,0,0,0-.82,1.21v4.37Z"/><path class="cls-6" d="M337.33,130.34a.84.84,0,0,1-.57-.21.7.7,0,0,1-.23-.53.68.68,0,0,1,.23-.54.88.88,0,0,1,1.14,0,.68.68,0,0,1,.23.54.7.7,0,0,1-.23.53A.84.84,0,0,1,337.33,130.34Zm-.59,8.2v-6.8h1.15v6.8Z"/><path class="cls-6" d="M341.66,138.54l-2.46-6.8h1.2l1.28,3.86.32,1c.11.34.21.67.31,1h.06c.1-.32.2-.65.31-1s.2-.67.31-1l1.28-3.86h1.14l-2.41,6.8Z"/><path class="cls-6" d="M348,138.71a2.09,2.09,0,0,1-1.42-.5,1.82,1.82,0,0,1-.57-1.43,1.89,1.89,0,0,1,1-1.72,8.34,8.34,0,0,1,3.18-.83,3.38,3.38,0,0,0-.07-.63,1.41,1.41,0,0,0-.22-.55,1.19,1.19,0,0,0-.42-.38,1.43,1.43,0,0,0-.7-.15,2.71,2.71,0,0,0-1.1.23,5.09,5.09,0,0,0-.93.5l-.44-.8a7.31,7.31,0,0,1,1.16-.59,3.91,3.91,0,0,1,1.51-.29,2.1,2.1,0,0,1,1.81.76,3.4,3.4,0,0,1,.56,2v4.17h-.95l-.1-.81h-.05a5.29,5.29,0,0,1-1.05.69A2.59,2.59,0,0,1,348,138.71Zm.34-.92a1.89,1.89,0,0,0,.92-.24,4.84,4.84,0,0,0,.93-.67V135a11.53,11.53,0,0,0-1.44.26,3.68,3.68,0,0,0-.94.37,1.43,1.43,0,0,0-.52.48,1.21,1.21,0,0,0-.16.59,1,1,0,0,0,.35.84A1.44,1.44,0,0,0,348.35,137.79Z"/><path class="cls-6" d="M356.19,138.71a3.29,3.29,0,0,1-1.26-.24,2.88,2.88,0,0,1-1-.69,3.28,3.28,0,0,1-.67-1.12,4.42,4.42,0,0,1-.25-1.51,4,4,0,0,1,.27-1.52,3.48,3.48,0,0,1,.72-1.12,2.85,2.85,0,0,1,1-.7,3.27,3.27,0,0,1,1.25-.24,2.54,2.54,0,0,1,1.15.24,3.62,3.62,0,0,1,.84.56l-.59.75a2.87,2.87,0,0,0-.62-.43,1.64,1.64,0,0,0-.74-.17,1.89,1.89,0,0,0-.85.19,2,2,0,0,0-.67.54,2.44,2.44,0,0,0-.44.83,3.29,3.29,0,0,0-.16,1.07,3.55,3.55,0,0,0,.15,1.07,2.47,2.47,0,0,0,.43.82,1.95,1.95,0,0,0,2.39.51,3,3,0,0,0,.72-.48l.51.77a3.78,3.78,0,0,1-1,.64A3.09,3.09,0,0,1,356.19,138.71Z"/><path class="cls-6" d="M360.08,141.47a1.91,1.91,0,0,1-.43,0,1.81,1.81,0,0,1-.37-.1l.22-.91.26.06a1.27,1.27,0,0,0,.26,0,1.21,1.21,0,0,0,1-.42,2.82,2.82,0,0,0,.58-1l.16-.5L359,131.74h1.19l1.38,3.76c.11.3.22.62.33.95s.23.65.33,1h.06c.1-.31.2-.63.29-1s.19-.66.28-1l1.22-3.76h1.12l-2.56,7.36a7.39,7.39,0,0,1-.41.94,3.24,3.24,0,0,1-.53.75,2.64,2.64,0,0,1-.7.5A2.17,2.17,0,0,1,360.08,141.47Z"/><path class="cls-6" d="M369.42,138.54v-9.18H372a6.12,6.12,0,0,1,1.41.14,2.91,2.91,0,0,1,1.09.45,2.14,2.14,0,0,1,.7.84,2.85,2.85,0,0,1,.25,1.27,2.89,2.89,0,0,1-.25,1.26,2.3,2.3,0,0,1-.69.88,3,3,0,0,1-1.07.53,5.38,5.38,0,0,1-1.38.17h-1.51v3.64Zm1.16-4.59H372a2.86,2.86,0,0,0,1.79-.46,1.72,1.72,0,0,0,.58-1.43,1.52,1.52,0,0,0-.61-1.38,3.41,3.41,0,0,0-1.81-.38h-1.32Z"/><path class="cls-6" d="M379.54,138.71a3.06,3.06,0,0,1-1.2-.24,3,3,0,0,1-1-.69,3.31,3.31,0,0,1-.69-1.12,4.19,4.19,0,0,1-.26-1.51,4.25,4.25,0,0,1,.26-1.52,3.42,3.42,0,0,1,.69-1.12,2.88,2.88,0,0,1,1-.7,3.12,3.12,0,0,1,2.4,0,3,3,0,0,1,1,.7,3.42,3.42,0,0,1,.69,1.12,4.25,4.25,0,0,1,.26,1.52,4.19,4.19,0,0,1-.26,1.51,3.31,3.31,0,0,1-.69,1.12,3.09,3.09,0,0,1-1,.69A3.06,3.06,0,0,1,379.54,138.71Zm0-1a1.69,1.69,0,0,0,.8-.19A1.85,1.85,0,0,0,381,137a2.61,2.61,0,0,0,.4-.82,3.91,3.91,0,0,0,.14-1.07,4,4,0,0,0-.14-1.07,2.56,2.56,0,0,0-.4-.83,1.88,1.88,0,0,0-.62-.54,1.69,1.69,0,0,0-.8-.19,1.66,1.66,0,0,0-.8.19,1.88,1.88,0,0,0-.62.54,2.56,2.56,0,0,0-.4.83,4,4,0,0,0-.14,1.07,3.91,3.91,0,0,0,.14,1.07,2.61,2.61,0,0,0,.4.82,1.85,1.85,0,0,0,.62.53A1.66,1.66,0,0,0,379.54,137.76Z"/><path class="cls-6" d="M385.7,138.71a1.08,1.08,0,0,1-.94-.39,2,2,0,0,1-.28-1.15v-8.6h1.15v8.68a.6.6,0,0,0,.1.4.29.29,0,0,0,.22.11h.11l.14,0,.16.87-.27.08A2.06,2.06,0,0,1,385.7,138.71Z"/><path class="cls-6" d="M388.64,130.34a.82.82,0,0,1-.57-.21.7.7,0,0,1-.23-.53.68.68,0,0,1,.23-.54.82.82,0,0,1,.57-.21.84.84,0,0,1,.57.21.68.68,0,0,1,.23.54.7.7,0,0,1-.23.53A.84.84,0,0,1,388.64,130.34Zm-.59,8.2v-6.8h1.15v6.8Z"/><path class="cls-6" d="M394.18,138.71a3.29,3.29,0,0,1-1.26-.24,2.84,2.84,0,0,1-1-.69,3.13,3.13,0,0,1-.67-1.12,4.2,4.2,0,0,1-.25-1.51,4,4,0,0,1,.27-1.52,3.3,3.3,0,0,1,.71-1.12,3,3,0,0,1,1-.7,3.36,3.36,0,0,1,1.26-.24,2.49,2.49,0,0,1,1.14.24,3.62,3.62,0,0,1,.84.56l-.58.75a3.2,3.2,0,0,0-.63-.43,1.6,1.6,0,0,0-.73-.17,1.93,1.93,0,0,0-.86.19,2,2,0,0,0-.67.54,2.84,2.84,0,0,0-.44.83,3.29,3.29,0,0,0-.16,1.07,3.55,3.55,0,0,0,.15,1.07,2.9,2.9,0,0,0,.43.82,1.84,1.84,0,0,0,.67.53,2,2,0,0,0,1.73,0,3.47,3.47,0,0,0,.72-.48l.5.77a3.89,3.89,0,0,1-1,.64A3.14,3.14,0,0,1,394.18,138.71Z"/><path class="cls-6" d="M398.07,141.47a2,2,0,0,1-.43,0,1.89,1.89,0,0,1-.36-.1l.22-.91.25.06a1.36,1.36,0,0,0,.27,0,1.23,1.23,0,0,0,1-.42,3,3,0,0,0,.58-1l.15-.5L397,131.74h1.19l1.39,3.76c.1.3.21.62.33.95l.33,1h0q.15-.46.3-1c.09-.34.18-.66.28-1l1.21-3.76h1.12l-2.56,7.36a7.38,7.38,0,0,1-.4.94,3,3,0,0,1-.54.75,2.35,2.35,0,0,1-.7.5A2.14,2.14,0,0,1,398.07,141.47Z"/><path class="cls-6" d="M436.08,138.71a3.93,3.93,0,0,1-1.59-.32,3.76,3.76,0,0,1-1.27-.93,4.37,4.37,0,0,1-.84-1.5,6.25,6.25,0,0,1-.3-2,5.9,5.9,0,0,1,.31-2,4.38,4.38,0,0,1,.85-1.5,3.73,3.73,0,0,1,1.29-.94,3.94,3.94,0,0,1,1.62-.33,3.05,3.05,0,0,1,1.48.34,4.12,4.12,0,0,1,1,.79l-.63.76a3,3,0,0,0-.82-.63,2.26,2.26,0,0,0-1.05-.24,2.7,2.7,0,0,0-1.19.26,2.5,2.5,0,0,0-.91.74,3.38,3.38,0,0,0-.58,1.17,5.26,5.26,0,0,0-.21,1.54,5.35,5.35,0,0,0,.21,1.56,3.65,3.65,0,0,0,.56,1.19,2.66,2.66,0,0,0,.89.75,2.57,2.57,0,0,0,1.19.27,2.33,2.33,0,0,0,1.17-.28,3.49,3.49,0,0,0,.95-.76l.65.73a4.19,4.19,0,0,1-1.23,1A3.51,3.51,0,0,1,436.08,138.71Z"/><path class="cls-6" d="M443.14,138.71a3.06,3.06,0,0,1-1.2-.24,3,3,0,0,1-1-.69,3.31,3.31,0,0,1-.69-1.12,4.19,4.19,0,0,1-.26-1.51,4.25,4.25,0,0,1,.26-1.52,3.42,3.42,0,0,1,.69-1.12,2.88,2.88,0,0,1,1-.7,3.12,3.12,0,0,1,2.4,0,3,3,0,0,1,1,.7,3.42,3.42,0,0,1,.69,1.12,4.25,4.25,0,0,1,.26,1.52,4.19,4.19,0,0,1-.26,1.51,3.31,3.31,0,0,1-.69,1.12,3.09,3.09,0,0,1-1,.69A3.06,3.06,0,0,1,443.14,138.71Zm0-1a1.66,1.66,0,0,0,.8-.19,1.85,1.85,0,0,0,.62-.53,2.61,2.61,0,0,0,.4-.82,3.91,3.91,0,0,0,.14-1.07,4,4,0,0,0-.14-1.07,2.56,2.56,0,0,0-.4-.83,1.88,1.88,0,0,0-.62-.54,1.78,1.78,0,0,0-1.6,0,1.88,1.88,0,0,0-.62.54,2.56,2.56,0,0,0-.4.83,4,4,0,0,0-.14,1.07,3.91,3.91,0,0,0,.14,1.07,2.61,2.61,0,0,0,.4.82,1.85,1.85,0,0,0,.62.53A1.66,1.66,0,0,0,443.14,137.76Z"/><path class="cls-6" d="M450.73,138.71a3.06,3.06,0,0,1-1.2-.24,3,3,0,0,1-1-.69,3.31,3.31,0,0,1-.69-1.12,4,4,0,0,1-.26-1.51,4,4,0,0,1,.26-1.52,3.42,3.42,0,0,1,.69-1.12,2.88,2.88,0,0,1,1-.7,3.06,3.06,0,0,1,1.2-.24,3,3,0,0,1,1.19.24,2.92,2.92,0,0,1,1,.7,3.59,3.59,0,0,1,.69,1.12,4.25,4.25,0,0,1,.26,1.52,4.19,4.19,0,0,1-.26,1.51,3.48,3.48,0,0,1-.69,1.12,3,3,0,0,1-1,.69A3,3,0,0,1,450.73,138.71Zm0-1a1.69,1.69,0,0,0,.8-.19,1.85,1.85,0,0,0,.62-.53,2.85,2.85,0,0,0,.4-.82,3.91,3.91,0,0,0,.14-1.07,4,4,0,0,0-.14-1.07,2.79,2.79,0,0,0-.4-.83,1.88,1.88,0,0,0-.62-.54,1.69,1.69,0,0,0-.8-.19,1.66,1.66,0,0,0-.8.19,1.88,1.88,0,0,0-.62.54,2.37,2.37,0,0,0-.4.83,3.6,3.6,0,0,0-.14,1.07,3.56,3.56,0,0,0,.14,1.07,2.41,2.41,0,0,0,.4.82,1.85,1.85,0,0,0,.62.53A1.66,1.66,0,0,0,450.73,137.76Z"/><path class="cls-6" d="M455.67,138.54v-10h1.13v6.75h.05l2.89-3.58H461l-2.28,2.73,2.59,4.07h-1.26l-2-3.27-1.28,1.48v1.79Z"/><path class="cls-6" d="M463.19,130.34a.82.82,0,0,1-.57-.21.7.7,0,0,1-.23-.53.68.68,0,0,1,.23-.54.82.82,0,0,1,.57-.21.79.79,0,0,1,.56.21.66.66,0,0,1,.24.54.68.68,0,0,1-.24.53A.79.79,0,0,1,463.19,130.34Zm-.59,8.2v-6.8h1.15v6.8Z"/><path class="cls-6" d="M468.8,138.71a3.21,3.21,0,0,1-1.28-.25,2.94,2.94,0,0,1-1-.7,3.27,3.27,0,0,1-.69-1.11,4.54,4.54,0,0,1,0-3,3.62,3.62,0,0,1,.68-1.13,2.9,2.9,0,0,1,1-.7,2.62,2.62,0,0,1,1.13-.25,2.86,2.86,0,0,1,1.16.22,2.28,2.28,0,0,1,.85.65,3,3,0,0,1,.53,1,4.46,4.46,0,0,1,.18,1.31c0,.12,0,.24,0,.36a2.16,2.16,0,0,1,0,.3h-4.6a2.72,2.72,0,0,0,.68,1.73,2.13,2.13,0,0,0,1.59.64,2.57,2.57,0,0,0,.9-.15,4.22,4.22,0,0,0,.8-.39l.4.76a5.71,5.71,0,0,1-1,.49A3.49,3.49,0,0,1,468.8,138.71Zm-2.14-4.12h3.64a2.45,2.45,0,0,0-.44-1.57,1.52,1.52,0,0,0-1.24-.54,1.81,1.81,0,0,0-.69.14,1.83,1.83,0,0,0-.6.41,2.29,2.29,0,0,0-.44.67A3,3,0,0,0,466.66,134.59Z"/><path class="cls-6" d="M475.9,138.54v-9.18h2.62a6.09,6.09,0,0,1,1.4.14A2.91,2.91,0,0,1,481,130a2.14,2.14,0,0,1,.7.84,2.85,2.85,0,0,1,.25,1.27,3,3,0,0,1-.24,1.26,2.42,2.42,0,0,1-.7.88,3,3,0,0,1-1.07.53,5.32,5.32,0,0,1-1.38.17h-1.51v3.64Zm1.16-4.59h1.37a2.84,2.84,0,0,0,1.79-.46,1.69,1.69,0,0,0,.58-1.43,1.5,1.5,0,0,0-.61-1.38,3.41,3.41,0,0,0-1.81-.38h-1.32Z"/><path class="cls-6" d="M486,138.71a3.06,3.06,0,0,1-1.2-.24,3.09,3.09,0,0,1-1-.69,3.31,3.31,0,0,1-.69-1.12,4.19,4.19,0,0,1-.26-1.51,4.25,4.25,0,0,1,.26-1.52,3.42,3.42,0,0,1,.69-1.12,3,3,0,0,1,1-.7,3.12,3.12,0,0,1,2.4,0,2.88,2.88,0,0,1,1,.7,3.42,3.42,0,0,1,.69,1.12,4.25,4.25,0,0,1,.26,1.52,4.19,4.19,0,0,1-.26,1.51,3.31,3.31,0,0,1-.69,1.12,3,3,0,0,1-1,.69A3.06,3.06,0,0,1,486,138.71Zm0-1a1.66,1.66,0,0,0,.8-.19,1.85,1.85,0,0,0,.62-.53,2.41,2.41,0,0,0,.4-.82,3.91,3.91,0,0,0,.14-1.07,4,4,0,0,0-.14-1.07,2.37,2.37,0,0,0-.4-.83,1.88,1.88,0,0,0-.62-.54,1.66,1.66,0,0,0-.8-.19,1.69,1.69,0,0,0-.8.19,1.88,1.88,0,0,0-.62.54,2.56,2.56,0,0,0-.4.83,4,4,0,0,0-.14,1.07,3.91,3.91,0,0,0,.14,1.07,2.61,2.61,0,0,0,.4.82,1.85,1.85,0,0,0,.62.53A1.69,1.69,0,0,0,486,137.76Z"/><path class="cls-6" d="M492.18,138.71a1.08,1.08,0,0,1-.94-.39,2,2,0,0,1-.28-1.15v-8.6h1.15v8.68a.6.6,0,0,0,.1.4.29.29,0,0,0,.22.11h.11l.15,0,.15.87a1.46,1.46,0,0,1-.27.08A2.06,2.06,0,0,1,492.18,138.71Z"/><path class="cls-6" d="M495.12,130.34a.84.84,0,0,1-.57-.21.7.7,0,0,1-.23-.53.68.68,0,0,1,.23-.54.88.88,0,0,1,1.14,0,.68.68,0,0,1,.23.54.7.7,0,0,1-.23.53A.84.84,0,0,1,495.12,130.34Zm-.59,8.2v-6.8h1.15v6.8Z"/><path class="cls-6" d="M500.66,138.71a3.27,3.27,0,0,1-1.25-.24,2.79,2.79,0,0,1-1-.69,3.28,3.28,0,0,1-.67-1.12,4.2,4.2,0,0,1-.25-1.51,4,4,0,0,1,.27-1.52,3.46,3.46,0,0,1,.71-1.12,3,3,0,0,1,1.05-.7,3.27,3.27,0,0,1,1.25-.24,2.54,2.54,0,0,1,1.15.24,4.1,4.1,0,0,1,.84.56l-.59.75a3.46,3.46,0,0,0-.62-.43,1.64,1.64,0,0,0-.74-.17,1.86,1.86,0,0,0-.85.19,2.09,2.09,0,0,0-.68.54,2.84,2.84,0,0,0-.44.83,3.59,3.59,0,0,0-.16,1.07,3.25,3.25,0,0,0,.16,1.07,2.65,2.65,0,0,0,.42.82,2,2,0,0,0,.67.53,2,2,0,0,0,1.73,0,3.47,3.47,0,0,0,.72-.48l.5.77a3.89,3.89,0,0,1-1,.64A3.1,3.1,0,0,1,500.66,138.71Z"/><path class="cls-6" d="M504.56,141.47a2,2,0,0,1-.44,0,1.89,1.89,0,0,1-.36-.1l.22-.91.26.06a1.27,1.27,0,0,0,.26,0,1.23,1.23,0,0,0,1-.42,2.82,2.82,0,0,0,.58-1l.16-.5-2.74-6.82h1.2L506,135.5c.1.3.21.62.33.95s.23.65.33,1h.05c.11-.31.2-.63.3-1s.19-.66.28-1l1.22-3.76h1.12l-2.57,7.36a7.38,7.38,0,0,1-.4.94,3.24,3.24,0,0,1-.53.75,2.64,2.64,0,0,1-.7.5A2.21,2.21,0,0,1,504.56,141.47Z"/><path class="cls-6" d="M542.57,138.71a4,4,0,0,1-1.6-.32,3.76,3.76,0,0,1-1.27-.93,4.37,4.37,0,0,1-.84-1.5,6.25,6.25,0,0,1-.3-2,5.9,5.9,0,0,1,.31-2,4.55,4.55,0,0,1,.85-1.5,3.83,3.83,0,0,1,1.29-.94,4,4,0,0,1,1.63-.33,3,3,0,0,1,1.47.34,4.18,4.18,0,0,1,1,.79l-.63.76a3.14,3.14,0,0,0-.83-.63,2.26,2.26,0,0,0-1.05-.24,2.7,2.7,0,0,0-1.19.26,2.59,2.59,0,0,0-.91.74,3.38,3.38,0,0,0-.58,1.17,5.27,5.27,0,0,0-.2,1.54,5.37,5.37,0,0,0,.2,1.56,3.47,3.47,0,0,0,.57,1.19,2.63,2.63,0,0,0,.88.75,2.6,2.6,0,0,0,1.19.27,2.3,2.3,0,0,0,1.17-.28,3.53,3.53,0,0,0,1-.76l.64.73a4,4,0,0,1-1.23,1A3.5,3.5,0,0,1,542.57,138.71Z"/><path class="cls-6" d="M548.82,138.71a1.83,1.83,0,0,1-1.58-.67,3.27,3.27,0,0,1-.5-2v-4.31h1.16v4.16a2.49,2.49,0,0,0,.3,1.39,1.12,1.12,0,0,0,1,.43,1.65,1.65,0,0,0,.94-.28,4.44,4.44,0,0,0,.9-.87v-4.83h1.15v6.8h-1l-.09-1.06h-.05a4.33,4.33,0,0,1-1,.89A2.2,2.2,0,0,1,548.82,138.71Z"/><path class="cls-6" d="M556.23,138.71a3.62,3.62,0,0,1-1.39-.27,4.13,4.13,0,0,1-1.14-.67l.57-.77a4.61,4.61,0,0,0,.92.59,2.45,2.45,0,0,0,1.08.22,1.47,1.47,0,0,0,1-.3,1,1,0,0,0,.34-.76.78.78,0,0,0-.14-.46,1.46,1.46,0,0,0-.36-.34,2.36,2.36,0,0,0-.5-.26l-.56-.23c-.24-.08-.48-.18-.73-.29a2.5,2.5,0,0,1-.65-.39,2,2,0,0,1-.47-.54,1.42,1.42,0,0,1-.18-.74,2,2,0,0,1,.16-.76,1.76,1.76,0,0,1,.47-.62,2.22,2.22,0,0,1,.73-.4,3.28,3.28,0,0,1,2.16.07,3.52,3.52,0,0,1,.93.55l-.54.73a4.29,4.29,0,0,0-.73-.44,2,2,0,0,0-.83-.16,1.28,1.28,0,0,0-.94.29.93.93,0,0,0-.3.69.73.73,0,0,0,.12.41,1.27,1.27,0,0,0,.34.31,2.68,2.68,0,0,0,.48.23l.57.22.74.3a3.07,3.07,0,0,1,.66.38,1.66,1.66,0,0,1,.48.57,1.57,1.57,0,0,1,.19.81,1.85,1.85,0,0,1-.16.78,1.87,1.87,0,0,1-.47.65,2.5,2.5,0,0,1-.79.44A3.21,3.21,0,0,1,556.23,138.71Z"/><path class="cls-6" d="M562.18,138.71a2.29,2.29,0,0,1-.92-.17,1.61,1.61,0,0,1-.6-.46,1.94,1.94,0,0,1-.33-.71,4.42,4.42,0,0,1-.1-.93v-3.76h-1v-.87l1.06-.07.14-1.91h1v1.91h1.83v.94H561.4v3.78a1.68,1.68,0,0,0,.23,1,.9.9,0,0,0,.82.34,1.89,1.89,0,0,0,.39-.05l.38-.13.22.87c-.19.06-.39.12-.61.17A2.89,2.89,0,0,1,562.18,138.71Z"/><path class="cls-6" d="M567.22,138.71a3.06,3.06,0,0,1-1.2-.24,3.09,3.09,0,0,1-1-.69,3.31,3.31,0,0,1-.69-1.12,4.19,4.19,0,0,1-.26-1.51,4.25,4.25,0,0,1,.26-1.52,3.42,3.42,0,0,1,.69-1.12,3,3,0,0,1,1-.7,3.12,3.12,0,0,1,2.4,0,2.88,2.88,0,0,1,1,.7,3.42,3.42,0,0,1,.69,1.12,4.25,4.25,0,0,1,.26,1.52,4.19,4.19,0,0,1-.26,1.51,3.31,3.31,0,0,1-.69,1.12,3,3,0,0,1-1,.69A3.06,3.06,0,0,1,567.22,138.71Zm0-1a1.66,1.66,0,0,0,.8-.19,1.85,1.85,0,0,0,.62-.53,2.61,2.61,0,0,0,.4-.82,3.91,3.91,0,0,0,.14-1.07,4,4,0,0,0-.14-1.07,2.56,2.56,0,0,0-.4-.83,1.88,1.88,0,0,0-.62-.54,1.78,1.78,0,0,0-1.6,0,1.88,1.88,0,0,0-.62.54,2.56,2.56,0,0,0-.4.83,4,4,0,0,0-.14,1.07,3.91,3.91,0,0,0,.14,1.07,2.61,2.61,0,0,0,.4.82,1.85,1.85,0,0,0,.62.53A1.66,1.66,0,0,0,567.22,137.76Z"/><path class="cls-6" d="M572.16,138.54v-6.8h1l.1,1h0a4.69,4.69,0,0,1,1-.82,2.1,2.1,0,0,1,1.14-.33,1.92,1.92,0,0,1,1.22.34,2,2,0,0,1,.65,1,5.67,5.67,0,0,1,1.08-.94,2,2,0,0,1,1.16-.36,1.86,1.86,0,0,1,1.57.67,3.26,3.26,0,0,1,.51,2v4.31h-1.15v-4.16a2.4,2.4,0,0,0-.31-1.39,1.1,1.1,0,0,0-1-.43,2.52,2.52,0,0,0-1.71,1.05v4.93h-1.15v-4.16A2.4,2.4,0,0,0,576,133a1.1,1.1,0,0,0-1-.43,2.52,2.52,0,0,0-1.71,1.05v4.93Z"/><path class="cls-6" d="M586.53,138.71a3.26,3.26,0,0,1-1.29-.25,2.9,2.9,0,0,1-1-.7,3,3,0,0,1-.69-1.11,4.46,4.46,0,0,1,0-3,3.64,3.64,0,0,1,.69-1.13,2.86,2.86,0,0,1,1-.7,2.66,2.66,0,0,1,1.14-.25,2.84,2.84,0,0,1,1.15.22,2.31,2.31,0,0,1,.86.65,3,3,0,0,1,.52,1,4.46,4.46,0,0,1,.18,1.31v.36a2,2,0,0,1,0,.3H584.4a2.61,2.61,0,0,0,.68,1.73,2.1,2.1,0,0,0,1.59.64,2.66,2.66,0,0,0,.9-.15,4.14,4.14,0,0,0,.79-.39l.41.76a5.47,5.47,0,0,1-1,.49A3.43,3.43,0,0,1,586.53,138.71Zm-2.15-4.12H588a2.39,2.39,0,0,0-.44-1.57,1.5,1.5,0,0,0-1.24-.54,1.81,1.81,0,0,0-.69.14,1.7,1.7,0,0,0-.59.41,2.11,2.11,0,0,0-.44.67A3,3,0,0,0,584.38,134.59Z"/><path class="cls-6" d="M590.71,138.54v-6.8h.95l.1,1.23h0a3.22,3.22,0,0,1,.85-1,1.76,1.76,0,0,1,1.09-.38,1.81,1.81,0,0,1,.72.14l-.22,1-.31-.09a1.78,1.78,0,0,0-.35,0,1.47,1.47,0,0,0-.9.35,2.78,2.78,0,0,0-.82,1.21v4.37Z"/><path class="cls-6" d="M601,138.71a4.44,4.44,0,0,1-1.79-.36,4.55,4.55,0,0,1-1.43-1l.7-.81a3.8,3.8,0,0,0,1.15.83,3.24,3.24,0,0,0,1.38.32,2.22,2.22,0,0,0,1.42-.41,1.36,1.36,0,0,0,.5-1.09,1.4,1.4,0,0,0-.12-.6,1.3,1.3,0,0,0-.32-.42,2.48,2.48,0,0,0-.48-.31l-.6-.29-1.32-.58a6.76,6.76,0,0,1-.66-.33,2.75,2.75,0,0,1-.6-.48,2.2,2.2,0,0,1-.43-.67,2,2,0,0,1-.17-.88,2.25,2.25,0,0,1,.21-1,2.43,2.43,0,0,1,.61-.78,2.69,2.69,0,0,1,.91-.51,3.51,3.51,0,0,1,1.15-.18,3.7,3.7,0,0,1,1.53.31,4.06,4.06,0,0,1,1.19.82l-.63.76a3.43,3.43,0,0,0-.93-.64,2.86,2.86,0,0,0-1.16-.23,2,2,0,0,0-1.24.36,1.19,1.19,0,0,0-.47,1,1.08,1.08,0,0,0,.14.56,1.37,1.37,0,0,0,.35.41,3.12,3.12,0,0,0,.49.31,5.38,5.38,0,0,0,.55.24l1.3.56a4.73,4.73,0,0,1,.74.39,2.51,2.51,0,0,1,.61.5,2.23,2.23,0,0,1,.39.67,2.48,2.48,0,0,1,.15.89,2.31,2.31,0,0,1-.22,1,2.42,2.42,0,0,1-.62.84,3.22,3.22,0,0,1-1,.56A4,4,0,0,1,601,138.71Z"/><path class="cls-6" d="M607.83,138.71a1.86,1.86,0,0,1-1.59-.67,3.34,3.34,0,0,1-.49-2v-4.31h1.16v4.16a2.49,2.49,0,0,0,.3,1.39,1.12,1.12,0,0,0,1,.43,1.65,1.65,0,0,0,.94-.28,4.44,4.44,0,0,0,.9-.87v-4.83h1.14v6.8h-.95l-.09-1.06h0a4.33,4.33,0,0,1-1,.89A2.2,2.2,0,0,1,607.83,138.71Z"/><path class="cls-6" d="M613.46,141.41v-9.67h.95l.1.78h0a5.45,5.45,0,0,1,1-.67,2.47,2.47,0,0,1,1.15-.28,2.58,2.58,0,0,1,1.17.25,2.33,2.33,0,0,1,.84.69,3.49,3.49,0,0,1,.51,1.1,5.66,5.66,0,0,1,.17,1.43,4.63,4.63,0,0,1-.24,1.55,3.54,3.54,0,0,1-.64,1.15,2.6,2.6,0,0,1-.94.72,2.55,2.55,0,0,1-1.12.25,2.25,2.25,0,0,1-.94-.21,4.78,4.78,0,0,1-.95-.57l0,1.19v2.29Zm2.82-3.67a1.57,1.57,0,0,0,.77-.19,1.74,1.74,0,0,0,.62-.53,2.52,2.52,0,0,0,.4-.84,4,4,0,0,0,.15-1.14,4.64,4.64,0,0,0-.1-1,2.25,2.25,0,0,0-.31-.79,1.52,1.52,0,0,0-.56-.51,1.74,1.74,0,0,0-.82-.18,1.84,1.84,0,0,0-.88.23,5.42,5.42,0,0,0-.94.69V137a3,3,0,0,0,.9.55A2.12,2.12,0,0,0,616.28,137.74Z"/><path class="cls-6" d="M621.23,141.41v-9.67h.95l.1.78h0a5.45,5.45,0,0,1,1-.67,2.47,2.47,0,0,1,1.15-.28,2.58,2.58,0,0,1,1.17.25,2.33,2.33,0,0,1,.84.69,3.49,3.49,0,0,1,.51,1.1,5.66,5.66,0,0,1,.17,1.43,4.63,4.63,0,0,1-.24,1.55,3.54,3.54,0,0,1-.64,1.15,2.6,2.6,0,0,1-.94.72,2.55,2.55,0,0,1-1.12.25,2.25,2.25,0,0,1-.94-.21,4.78,4.78,0,0,1-.95-.57l0,1.19v2.29Zm2.82-3.67a1.57,1.57,0,0,0,.77-.19,1.74,1.74,0,0,0,.62-.53,2.52,2.52,0,0,0,.4-.84A4,4,0,0,0,626,135a4.64,4.64,0,0,0-.1-1,2.25,2.25,0,0,0-.31-.79,1.52,1.52,0,0,0-.56-.51,1.74,1.74,0,0,0-.82-.18,1.77,1.77,0,0,0-.87.23,5.11,5.11,0,0,0-1,.69V137a3,3,0,0,0,.9.55A2.16,2.16,0,0,0,624.05,137.74Z"/><path class="cls-6" d="M631.65,138.71a3.06,3.06,0,0,1-1.2-.24,3,3,0,0,1-1-.69,3.31,3.31,0,0,1-.69-1.12,4,4,0,0,1-.26-1.51,4,4,0,0,1,.26-1.52,3.42,3.42,0,0,1,.69-1.12,2.88,2.88,0,0,1,1-.7,3.06,3.06,0,0,1,1.2-.24,3,3,0,0,1,1.19.24,2.92,2.92,0,0,1,1,.7,3.59,3.59,0,0,1,.69,1.12,4.25,4.25,0,0,1,.26,1.52,4.19,4.19,0,0,1-.26,1.51,3.48,3.48,0,0,1-.69,1.12,3,3,0,0,1-1,.69A3,3,0,0,1,631.65,138.71Zm0-1a1.69,1.69,0,0,0,.8-.19,1.85,1.85,0,0,0,.62-.53,2.85,2.85,0,0,0,.4-.82,3.91,3.91,0,0,0,.14-1.07,4,4,0,0,0-.14-1.07,2.79,2.79,0,0,0-.4-.83,1.88,1.88,0,0,0-.62-.54,1.69,1.69,0,0,0-.8-.19,1.66,1.66,0,0,0-.8.19,1.88,1.88,0,0,0-.62.54,2.37,2.37,0,0,0-.4.83,3.6,3.6,0,0,0-.14,1.07,3.56,3.56,0,0,0,.14,1.07,2.41,2.41,0,0,0,.4.82,1.85,1.85,0,0,0,.62.53A1.66,1.66,0,0,0,631.65,137.76Z"/><path class="cls-6" d="M636.59,138.54v-6.8h.95l.1,1.23h0a3.09,3.09,0,0,1,.85-1,1.76,1.76,0,0,1,1.08-.38,1.86,1.86,0,0,1,.73.14l-.22,1-.31-.09a1.78,1.78,0,0,0-.35,0,1.47,1.47,0,0,0-.9.35,2.7,2.7,0,0,0-.82,1.21v4.37Z"/><path class="cls-6" d="M643.59,138.71a2.26,2.26,0,0,1-.92-.17,1.46,1.46,0,0,1-.6-.46,1.94,1.94,0,0,1-.33-.71,4.42,4.42,0,0,1-.1-.93v-3.76h-1v-.87l1.07-.07.14-1.91h1v1.91h1.84v.94H642.8v3.78a1.67,1.67,0,0,0,.24,1,.89.89,0,0,0,.81.34,1.9,1.9,0,0,0,.4-.05,2.64,2.64,0,0,0,.37-.13l.23.87c-.19.06-.39.12-.61.17A3,3,0,0,1,643.59,138.71Z"/><circle class="cls-7" cx="170.89" cy="57.45" r="13.49"/><path class="cls-7" d="M170.84,118.86a1,1,0,0,1-1-1V70.26a1,1,0,0,1,2,0v47.6A1,1,0,0,1,170.84,118.86Z"/><path class="cls-6" d="M168,62.65v-1.5h2.27V54.46h-1.87V53.31a8.38,8.38,0,0,0,1.32-.34,6.52,6.52,0,0,0,1-.49h1.38v8.67h2v1.5Z"/><circle class="cls-7" cx="484.86" cy="45.36" r="13.49"/><path class="cls-7" d="M485,106.71a1,1,0,0,1-1-1V58.12a1,1,0,1,1,2,0v47.59A1,1,0,0,1,485,106.71Z"/><circle class="cls-7" cx="881.2" cy="57.45" r="13.49"/><path class="cls-7" d="M881.15,118.86a1,1,0,0,1-1-1V70.26a1,1,0,1,1,2,0v47.6A1,1,0,0,1,881.15,118.86Z"/><polyline class="cls-8" points="644.15 114.03 644.15 106.71 324.24 106.71 324.24 114.03"/><path class="cls-6" d="M481.46,50.54V49.47c.71-.68,1.34-1.31,1.91-1.89A19.73,19.73,0,0,0,484.83,46a7.33,7.33,0,0,0,.92-1.38,2.78,2.78,0,0,0,.32-1.22,1.8,1.8,0,0,0-.43-1.28,1.59,1.59,0,0,0-1.25-.48,1.92,1.92,0,0,0-1.08.34,4.83,4.83,0,0,0-.9.8l-1-1a6.06,6.06,0,0,1,1.45-1.17A4.2,4.2,0,0,1,486,40.4a3,3,0,0,1,1,.63,2.82,2.82,0,0,1,.64,1,3.28,3.28,0,0,1,.24,1.28,3.38,3.38,0,0,1-.3,1.36,7.21,7.21,0,0,1-.8,1.41,16.16,16.16,0,0,1-1.18,1.47c-.44.5-.92,1-1.42,1.55L485,49c.3,0,.58,0,.83,0h2.49v1.56Z"/><path class="cls-6" d="M881.09,62.73a4.61,4.61,0,0,1-2.08-.42,4.67,4.67,0,0,1-1.37-1l.88-1.19a4.86,4.86,0,0,0,1.05.8,2.87,2.87,0,0,0,1.36.32,2.16,2.16,0,0,0,1.36-.4,1.38,1.38,0,0,0,.51-1.13,1.65,1.65,0,0,0-.14-.72,1.28,1.28,0,0,0-.49-.55,2.65,2.65,0,0,0-.92-.34,7.17,7.17,0,0,0-1.44-.12V56.62a5.6,5.6,0,0,0,1.26-.12,2.35,2.35,0,0,0,.81-.34,1.24,1.24,0,0,0,.45-.52,1.59,1.59,0,0,0,.14-.66,1.27,1.27,0,0,0-.4-1,1.61,1.61,0,0,0-1.11-.36,2.2,2.2,0,0,0-1.09.27,4.24,4.24,0,0,0-1,.69L878,53.45a5.88,5.88,0,0,1,1.4-.93,3.92,3.92,0,0,1,1.66-.35,5.06,5.06,0,0,1,1.34.17,2.9,2.9,0,0,1,1,.52,2.56,2.56,0,0,1,.68.85,2.66,2.66,0,0,1,.24,1.15,2.15,2.15,0,0,1-.48,1.43,3,3,0,0,1-1.3.9v.07a3.07,3.07,0,0,1,1.51.88,2.29,2.29,0,0,1,.6,1.64,2.65,2.65,0,0,1-.28,1.25,2.73,2.73,0,0,1-.77.92,3.66,3.66,0,0,1-1.13.58A4.81,4.81,0,0,1,881.09,62.73Z"/></svg>