<?xml version="1.0" encoding="utf-8"?>
<!-- Generator: Adobe Illustrator 24.0.3, SVG Export Plug-In . SVG Version: 6.00 Build 0)  -->
<svg version="1.1" id="Layer_1" xmlns="http://www.w3.org/2000/svg" xmlns:xlink="http://www.w3.org/1999/xlink" x="0px" y="0px"
	 viewBox="0 0 891.2 436.7" style="enable-background:new 0 0 891.2 436.7;" xml:space="preserve">
<style type="text/css">
	.st0{opacity:0.25;fill:#FFFFFF;enable-background:new    ;}
	.st1{opacity:0.2;fill:#FFFFFF;enable-background:new    ;}
	.st2{fill:#FFFFFF;}
</style>
<rect x="23.1" y="88.4" class="st0" width="122" height="348.3"/>
<rect x="168" y="88.4" class="st0" width="122" height="348.3"/>
<rect x="457.8" y="88.4" class="st0" width="122" height="348.3"/>
<rect x="312.9" y="88.4" class="st0" width="122" height="348.3"/>
<rect x="0.4" y="112.7" class="st1" width="890.6" height="12"/>
<rect x="0.4" y="136.7" class="st1" width="890.6" height="12"/>
<rect x="0.4" y="160.7" class="st1" width="890.6" height="12"/>
<rect x="0.4" y="184.7" class="st1" width="890.6" height="12"/>
<rect x="0.7" y="208.7" class="st1" width="890.6" height="12"/>
<rect x="0.7" y="232.7" class="st1" width="890.6" height="12"/>
<rect x="0.7" y="256.7" class="st1" width="890.6" height="12"/>
<rect x="0.7" y="280.7" class="st1" width="890.6" height="12"/>
<rect x="0.2" y="304.7" class="st1" width="890.6" height="12"/>
<rect x="0.2" y="328.7" class="st1" width="890.6" height="12"/>
<rect x="0.2" y="352.7" class="st1" width="890.6" height="12"/>
<rect x="0.2" y="376.7" class="st1" width="890.6" height="12"/>
<rect x="0.6" y="400.7" class="st1" width="890.6" height="12"/>
<rect x="0.6" y="424.7" class="st1" width="890.6" height="12"/>
<rect x="602.8" y="88.5" class="st0" width="122" height="348.3"/>
<rect x="747.7" y="88.5" class="st0" width="122" height="348.3"/>
<rect x="0.6" y="88.4" class="st1" width="890.6" height="12"/>
<path class="st2" d="M106.7,493.8"/>
<path class="st2" d="M225.4,493.8"/>
</svg>
