<svg id="Layer_1" data-name="Layer 1" xmlns="http://www.w3.org/2000/svg" xmlns:xlink="http://www.w3.org/1999/xlink" height="160px" viewBox="0 0 540 329"><defs><style>.cls-1{fill:#fff;}.cls-2{clip-path:url(#clip-path);}.cls-3{clip-path:url(#clip-path-2);}</style><clipPath id="clip-path"><path class="cls-1" d="M-1924.84,107.07l2.1,38.38a3.38,3.38,0,0,0,3.38,3.21h13.7a3.39,3.39,0,0,0,3.38-3.21l2.1-38.38a3.39,3.39,0,0,0-3.39-3.57h-17.89A3.39,3.39,0,0,0-1924.84,107.07Zm12.33,46.67a13,13,0,0,0-13,13,13,13,0,0,0,13,13,13,13,0,0,0,13-13A13,13,0,0,0-1912.51,153.74Zm70-14.12a70,70,0,0,1-70,70,70,70,0,0,1-70-70,70,70,0,0,1,70-70A70,70,0,0,1-1842.51,139.62Z"/></clipPath><clipPath id="clip-path-2"><path class="cls-1" d="M-1742,176.8l51.66-52.18a4.58,4.58,0,0,0,0-6.42l-6.35-6.41a4.47,4.47,0,0,0-6.36,0l-42.12,42.55-19.67-19.87a4.46,4.46,0,0,0-6.35,0l-6.36,6.42a4.57,4.57,0,0,0,0,6.41l29.2,29.5A4.46,4.46,0,0,0-1742,176.8Zm77.47-37.18a70,70,0,0,1-70,70,70,70,0,0,1-70-70,70,70,0,0,1,70-70A70,70,0,0,1-1664.52,139.62Z"/></clipPath></defs><path class="cls-1" d="M-1924.84,107.07l2.1,38.38a3.38,3.38,0,0,0,3.38,3.21h13.7a3.39,3.39,0,0,0,3.38-3.21l2.1-38.38a3.39,3.39,0,0,0-3.39-3.57h-17.89A3.39,3.39,0,0,0-1924.84,107.07Zm12.33,46.67a13,13,0,0,0-13,13,13,13,0,0,0,13,13,13,13,0,0,0,13-13A13,13,0,0,0-1912.51,153.74Zm70-14.12a70,70,0,0,1-70,70,70,70,0,0,1-70-70,70,70,0,0,1,70-70A70,70,0,0,1-1842.51,139.62Z"/><g class="cls-2"><rect class="cls-1" x="-5902.51" y="-1170.38" width="9600" height="3205"/></g><path class="cls-1" d="M-1742,176.8l51.66-52.18a4.58,4.58,0,0,0,0-6.42l-6.35-6.41a4.47,4.47,0,0,0-6.36,0l-42.12,42.55-19.67-19.87a4.46,4.46,0,0,0-6.35,0l-6.36,6.42a4.57,4.57,0,0,0,0,6.41l29.2,29.5A4.46,4.46,0,0,0-1742,176.8Zm77.47-37.18a70,70,0,0,1-70,70,70,70,0,0,1-70-70,70,70,0,0,1,70-70A70,70,0,0,1-1664.52,139.62Z"/><g class="cls-3"><rect class="cls-1" x="-5724.52" y="-1030.38" width="9600" height="3205"/></g><path class="cls-1" d="M528,10a2,2,0,0,1,2,2V317a2,2,0,0,1-2,2H12a2,2,0,0,1-2-2V12a2,2,0,0,1,2-2H528m0-10H12A12,12,0,0,0,0,12V317a12,12,0,0,0,12,12H528a12,12,0,0,0,12-12V12A12,12,0,0,0,528,0Z"/><path class="cls-1" d="M7.24,8.48V66.4H533.59V8.48ZM43.73,49.87A12.43,12.43,0,1,1,56.16,37.44,12.44,12.44,0,0,1,43.73,49.87ZM120,42.44H69.36a5,5,0,0,1,0-10H120a5,5,0,0,1,0,10Zm223.59,0H292.94a5,5,0,0,1,0-10h50.68a5,5,0,0,1,0,10Zm76.83,0H369.77a5,5,0,0,1,0-10h50.68a5,5,0,0,1,0,10Zm77.64,0H447.42a5,5,0,0,1,0-10h50.67a5,5,0,0,1,0,10Z"/></svg>