<?xml version="1.0" encoding="utf-8"?>
<!-- Generator: Adobe Illustrator 25.0.1, SVG Export Plug-In . SVG Version: 6.00 Build 0)  -->
<svg version="1.1" id="Layer_1" xmlns="http://www.w3.org/2000/svg" xmlns:xlink="http://www.w3.org/1999/xlink" height="170px" x="0px" y="0px"
	 viewBox="0 0 229 150.6" style="enable-background:new 0 0 229 150.6;" xml:space="preserve">
<style type="text/css">
	.st0{opacity:0.2;}
	.st1{fill:#FFFFFF;}
	.st2{opacity:0.35;}
	.st3{fill:#EE020A;}
	.st4{opacity:0.25;}
</style>
<desc>Created with Sketch.</desc>
<desc>Created with Sketch.</desc>
<desc>Created with Sketch.</desc>
<g class="st0">
	<path class="st1" d="M229,145.8c0,2.6-2.2,4.8-4.8,4.8H4.8c-2.6,0-4.8-2.2-4.8-4.8V4.8C0,2.2,2.2,0,4.8,0h219.4
		c2.6,0,4.8,2.2,4.8,4.8V145.8z"/>
</g>
<g class="st2">
	<g>
		<g>
			<path class="st1" d="M224.2,9.7c2.6,0,4.8-2.2,4.8-4.8V4.8c0-2.6-2.2-4.8-4.8-4.8H4.8C2.2,0,0,2.2,0,4.8v0.1
				c0,2.6,2.2,4.8,4.8,4.8C4.8,9.7,224.2,9.7,224.2,9.7z"/>
		</g>
		<rect y="4.9" class="st1" width="4.8" height="4.8"/>
	</g>
	<rect x="224.3" y="4.9" class="st1" width="4.8" height="4.8"/>
</g>
<circle class="st1" cx="7.1" cy="4.9" r="1.7"/>
<circle class="st1" cx="13.4" cy="4.9" r="1.7"/>
<circle class="st1" cx="19.6" cy="4.9" r="1.7"/>
<rect y="9.7" class="st1" width="229" height="18.9"/>
<circle class="st3" cx="9.6" cy="19.2" r="4.1"/>
<rect x="16.8" y="17.4" width="23.2" height="3.6"/>
<rect x="142" y="25.6" class="st3" width="23.2" height="3"/>
<rect x="171" y="25.6" class="st3" width="23.2" height="3"/>
<rect x="200" y="25.6" class="st3" width="23.2" height="3"/>
<rect x="0" y="127.8" width="229" height="22.8"/>
<rect x="6.9" y="135" class="st1" width="23.2" height="3"/>
<rect x="35.9" y="135" class="st1" width="23.2" height="3"/>
<rect x="64.9" y="135" class="st1" width="23.2" height="3"/>
<g class="st4">
	<rect x="41.6" y="28.6" class="st1" width="9.9" height="99.2"/>
	<rect x="53.9" y="28.6" class="st1" width="9.9" height="99.2"/>
	<rect x="66.3" y="28.6" class="st1" width="9.9" height="99.2"/>
	<rect x="78.7" y="28.6" class="st1" width="9.9" height="99.2"/>
	<rect x="91" y="28.6" class="st1" width="9.9" height="99.2"/>
	<rect x="103.4" y="28.6" class="st1" width="9.9" height="99.2"/>
	<rect x="115.7" y="28.6" class="st1" width="9.9" height="99.2"/>
	<rect x="128.1" y="28.6" class="st1" width="9.9" height="99.2"/>
	<rect x="140.4" y="28.6" class="st1" width="9.9" height="99.2"/>
	<rect x="152.8" y="28.6" class="st1" width="9.9" height="99.2"/>
	<rect x="165.1" y="28.6" class="st1" width="9.9" height="99.2"/>
	<rect x="177.5" y="28.6" class="st1" width="9.9" height="99.2"/>
</g>
</svg>
