<?xml version="1.0" encoding="utf-8"?>
<!-- Generator: Adobe Illustrator 24.0.3, SVG Export Plug-In . SVG Version: 6.00 Build 0)  -->
<svg version="1.1" id="Layer_1" xmlns="http://www.w3.org/2000/svg" xmlns:xlink="http://www.w3.org/1999/xlink" x="0px" y="0px"
	 viewBox="0 0 158.2 48" style="enable-background:new 0 0 158.2 48;" xml:space="preserve">
<style type="text/css">
	.st0{fill:#EC1C24;}
	.st1{fill:#FFFFFF;}
</style>
<title>lexis-icon</title>
<path class="st0" d="M27.3,7.3L27.3,7.3C7.7,13.4,6.9,39.5,16.5,46.4c1.6,0.6,3.3,0.9,5.1,1.1C10.5,41.9,9.9,15.9,27.3,7.3z"/>
<path class="st0" d="M27,6.5c-20.2,1-26,18.9-22.3,31c1.5,2.1,3.3,4,5.4,5.5C3.4,33.6,5.3,10.9,27,6.5z"/>
<path class="st0" d="M26.7,5.6C14.7,2.9,5.7,8.5,1.5,16.9c-0.7,2.3-1.1,4.7-1.1,7.1c0,1.1,0.1,2.2,0.2,3.4
	C2.3,16.6,9.8,5.1,26.7,5.6z"/>
<path class="st0" d="M47.6,24C47.6,11,37,0.4,24,0.4c0,0,0,0,0,0c-1.6,0-3.2,0.2-4.8,0.5c3.4,0.3,6.7,1.6,9.5,3.7
	c0.4-0.1,0.9-0.2,1.3-0.1c0.7,0.1,1.3,0.4,1.8,0.9c1.1-0.4,2.3-0.7,3.5-0.9c0,0.2-2.6,1.1-3.2,1.3l0,0c1.6-0.1,5.4-0.2,5.3,0
	C35.7,6,34,6.1,32.3,6.2v0.1C35.1,6.9,39,7.8,39,8.1s-4.1-0.8-6.7-1.2l0,0V7c2.5,1.3,6.7,3.9,6.6,4S34.4,8.8,32,7.7c0,0,0,0,0,0.1
	c1.8,1.8,5.8,6,5.7,6.1s-3.8-3.5-6.3-5.6c-1.1,0.7-2.6,0.6-3.6-0.2c-16,9.8-10.9,35.2,0.3,39.2C39.4,45.3,47.6,35.4,47.6,24z"/>
<path class="st0" d="M27,4.8c-3.9-2.3-8.5-3.1-13-2.2c-2.2,1-4.2,2.4-6,4.1C12.8,3.7,19.3,2.5,27,4.8z"/>
<path class="st1" d="M27.8,8c1,0.8,2.5,0.9,3.6,0.2c2.5,2.1,6,5.8,6.2,5.6S33.8,9.5,32,7.8c0,0,0,0,0-0.1c2.3,1.1,6.7,3.5,6.9,3.3
	s-4.1-2.7-6.6-4V6.9l0,0C34.9,7.3,39,8.2,39,8.1s-3.9-1.2-6.7-1.8c0,0,0,0,0-0.1C34,6.1,35.7,6,37.4,5.7c0-0.2-3.7-0.1-5.3,0l0,0
	c0.6-0.2,3.2-1.1,3.2-1.3c-1.2,0.2-2.4,0.5-3.5,0.9c-0.5-0.5-1.1-0.8-1.8-0.8c-0.4-0.1-0.9,0-1.3,0.1c-2.8-2.1-6.1-3.3-9.5-3.7
	c-1.8,0.4-3.5,1-5.2,1.7c4.5-0.9,9.1-0.1,13,2.2c-7.7-2.3-14.2-1.2-19,1.9c-3,2.8-5.2,6.3-6.5,10.2c4.2-8.4,13.3-14,25.3-11.3
	C9.8,5.1,2.3,16.6,0.6,27.3c0.5,3.6,1.9,7.1,4,10.1C1,25.4,6.8,7.5,27,6.5C5.3,10.9,3.4,33.6,10,43c2,1.5,4.2,2.6,6.5,3.4
	c-9.6-6.9-8.8-33,10.7-39.2l0,0c-17.3,8.7-16.7,34.7-5.6,40.3c0.8,0.1,1.6,0.1,2.4,0.1c1.4,0,2.8-0.1,4.2-0.4
	C16.9,43.2,11.8,17.9,27.8,8z"/>
<path class="st0" d="M24,48C10.7,48,0,37.3,0,24S10.7,0,24,0s24,10.7,24,24S37.3,48,24,48z M24,0.8C11.2,0.8,0.8,11.2,0.8,24
	c0,12.8,10.4,23.2,23.3,23.2c12.8,0,23.2-10.4,23.2-23.2C47.3,11.2,36.8,0.8,24,0.8z"/>
<g>
	<path d="M60.5,32.4v-17h3.1l5.3,9.6l1.7,3.6h0.1c-0.1-0.9-0.2-1.8-0.2-2.8c-0.1-1-0.1-2-0.1-3v-7.4h2.9v17h-3.1l-5.3-9.6l-1.7-3.6
		H63c0.1,0.9,0.2,1.8,0.2,2.8c0.1,1,0.1,2,0.1,2.9v7.4H60.5z"/>
	<path d="M82.7,32.7c-0.9,0-1.7-0.2-2.5-0.5c-0.8-0.3-1.4-0.7-2-1.3c-0.6-0.6-1-1.3-1.3-2.1c-0.3-0.8-0.5-1.8-0.5-2.8
		c0-1,0.2-2,0.5-2.8c0.3-0.8,0.8-1.5,1.3-2.1c0.5-0.6,1.2-1,1.9-1.3s1.4-0.5,2.2-0.5c0.9,0,1.6,0.1,2.3,0.4c0.7,0.3,1.2,0.7,1.7,1.2
		c0.4,0.5,0.8,1.2,1,1.9s0.3,1.6,0.3,2.4c0,0.3,0,0.6,0,0.8c0,0.3-0.1,0.5-0.1,0.6h-8.1c0.1,1.1,0.5,2,1.2,2.6
		c0.7,0.6,1.5,0.9,2.6,0.9c0.6,0,1.1-0.1,1.5-0.2c0.5-0.2,0.9-0.4,1.4-0.7l1,1.9c-0.6,0.4-1.3,0.7-2,1
		C84.3,32.6,83.5,32.7,82.7,32.7z M79.3,24.8H85c0-1-0.2-1.8-0.6-2.3c-0.4-0.6-1.1-0.8-2-0.8c-0.8,0-1.4,0.3-2,0.8
		C79.8,23,79.5,23.8,79.3,24.8z"/>
	<path d="M90.4,37.5V19.7h2.5l0.2,1.4h0.1c0.5-0.5,1.1-0.8,1.8-1.2c0.7-0.3,1.3-0.5,2.1-0.5c0.8,0,1.5,0.2,2.1,0.5
		c0.6,0.3,1.1,0.7,1.6,1.3c0.4,0.6,0.8,1.3,1,2.1c0.2,0.8,0.3,1.7,0.3,2.7c0,1.1-0.2,2.1-0.5,2.9s-0.7,1.6-1.2,2.2
		c-0.5,0.6-1.1,1-1.7,1.3c-0.7,0.3-1.3,0.5-2.1,0.5c-0.6,0-1.1-0.1-1.7-0.4c-0.6-0.2-1.1-0.6-1.6-1l0.1,2.1v4H90.4z M96,30.3
		c0.8,0,1.6-0.4,2.1-1.1c0.6-0.7,0.9-1.8,0.9-3.3c0-1.3-0.2-2.3-0.7-3c-0.4-0.7-1.1-1.1-2.1-1.1c-0.9,0-1.8,0.5-2.8,1.4v6
		c0.5,0.4,0.9,0.7,1.4,0.8C95.2,30.2,95.6,30.3,96,30.3z"/>
	<path d="M109,32.7c-0.7,0-1.4-0.1-1.9-0.3c-0.5-0.2-0.9-0.5-1.2-0.9c-0.3-0.4-0.6-0.9-0.7-1.5s-0.2-1.2-0.2-1.9V22h-1.8v-2.2l2-0.1
		l0.4-3.5h2.5v3.5h3.2V22H108v6.1c0,1.5,0.6,2.2,1.8,2.2c0.2,0,0.5,0,0.7-0.1c0.2-0.1,0.4-0.1,0.6-0.2l0.5,2.2
		c-0.3,0.1-0.7,0.2-1.2,0.3C110,32.7,109.5,32.7,109,32.7z"/>
	<path d="M117.7,32.7c-1.4,0-2.4-0.4-3-1.3s-0.9-2.1-0.9-3.8v-8h3v7.6c0,1.1,0.2,1.8,0.5,2.2c0.3,0.4,0.8,0.7,1.5,0.7
		c0.6,0,1-0.1,1.5-0.4s0.9-0.7,1.4-1.4v-8.7h3v12.8h-2.4l-0.2-1.9h-0.1c-0.6,0.7-1.2,1.2-1.8,1.6C119.4,32.5,118.6,32.7,117.7,32.7z
		"/>
	<path d="M128.4,32.4V19.7h2.5l0.2,1.7h0.1c0.6-0.6,1.2-1,1.9-1.4c0.7-0.4,1.4-0.6,2.3-0.6c1.4,0,2.4,0.4,3,1.3
		c0.6,0.9,0.9,2.1,0.9,3.8v8h-3v-7.6c0-1.1-0.2-1.8-0.5-2.2c-0.3-0.4-0.8-0.6-1.5-0.6c-0.6,0-1,0.1-1.5,0.4
		c-0.4,0.3-0.9,0.7-1.4,1.2v8.9H128.4z"/>
	<path d="M148.4,32.7c-0.9,0-1.7-0.2-2.5-0.5c-0.8-0.3-1.4-0.7-2-1.3c-0.6-0.6-1-1.3-1.3-2.1c-0.3-0.8-0.5-1.8-0.5-2.8
		c0-1,0.2-2,0.5-2.8c0.3-0.8,0.8-1.5,1.3-2.1c0.5-0.6,1.2-1,1.9-1.3s1.4-0.5,2.2-0.5c0.9,0,1.6,0.1,2.3,0.4c0.7,0.3,1.2,0.7,1.7,1.2
		c0.4,0.5,0.8,1.2,1,1.9s0.3,1.6,0.3,2.4c0,0.3,0,0.6,0,0.8c0,0.3-0.1,0.5-0.1,0.6H145c0.1,1.1,0.5,2,1.2,2.6
		c0.7,0.6,1.5,0.9,2.6,0.9c0.6,0,1.1-0.1,1.5-0.2c0.5-0.2,0.9-0.4,1.4-0.7l1,1.9c-0.6,0.4-1.3,0.7-2,1
		C150,32.6,149.2,32.7,148.4,32.7z M145,24.8h5.7c0-1-0.2-1.8-0.6-2.3c-0.4-0.6-1.1-0.8-2-0.8c-0.8,0-1.4,0.3-2,0.8
		C145.5,23,145.1,23.8,145,24.8z"/>
</g>
</svg>
