<?xml version="1.0" encoding="utf-8"?>
<!-- Generator: Adobe Illustrator 24.1.3, SVG Export Plug-In . SVG Version: 6.00 Build 0)  -->
<svg version="1.1" id="Layer_1" xmlns="http://www.w3.org/2000/svg" xmlns:xlink="http://www.w3.org/1999/xlink" x="0px" y="0px"
	 viewBox="0 0 261.1 48" style="enable-background:new 0 0 261.1 48;" xml:space="preserve">
<style type="text/css">
	.st0{fill:#EC1C24;}
</style>
<g>
	<path class="st0" d="M3.4,32.4v-17h3.1l5.3,9.6l1.7,3.6h0.1c-0.1-0.9-0.2-1.8-0.2-2.8c-0.1-1-0.1-2-0.1-3v-7.4h2.9v17h-3.1
		l-5.3-9.6l-1.7-3.6H5.9C6,20.1,6.1,21,6.1,22c0.1,1,0.1,2,0.1,2.9v7.4H3.4V32.4z"/>
	<path class="st0" d="M25.6,32.7c-0.9,0-1.7-0.2-2.5-0.5s-1.4-0.7-2-1.3c-0.6-0.6-1-1.3-1.3-2.1C19.5,28,19.3,27,19.3,26
		s0.2-2,0.5-2.8s0.8-1.5,1.3-2.1s1.2-1,1.9-1.3s1.4-0.5,2.2-0.5c0.9,0,1.6,0.1,2.3,0.4c0.7,0.3,1.2,0.7,1.7,1.2
		c0.4,0.5,0.8,1.2,1,1.9s0.3,1.6,0.3,2.4c0,0.3,0,0.6,0,0.8c0,0.3-0.1,0.5-0.1,0.6h-8.1c0.1,1.1,0.5,2,1.2,2.6s1.5,0.9,2.6,0.9
		c0.6,0,1.1-0.1,1.5-0.2c0.5-0.2,0.9-0.4,1.4-0.7l1,1.9c-0.6,0.4-1.3,0.7-2,1C27.2,32.6,26.4,32.7,25.6,32.7z M22.2,24.8h5.7
		c0-1-0.2-1.8-0.6-2.3c-0.4-0.6-1.1-0.8-2-0.8c-0.8,0-1.4,0.3-2,0.8S22.4,23.8,22.2,24.8z"/>
	<path class="st0" d="M33.3,37.5V19.7h2.5l0.2,1.4h0.1c0.5-0.5,1.1-0.8,1.8-1.2c0.7-0.3,1.3-0.5,2.1-0.5c0.8,0,1.5,0.2,2.1,0.5
		s1.1,0.7,1.6,1.3c0.4,0.6,0.8,1.3,1,2.1C44.9,24.1,45,25,45,26c0,1.1-0.2,2.1-0.5,2.9s-0.7,1.6-1.2,2.2s-1.1,1-1.7,1.3
		c-0.7,0.3-1.3,0.5-2.1,0.5c-0.6,0-1.1-0.1-1.7-0.4c-0.6-0.2-1.1-0.6-1.6-1l0.1,2.1v4L33.3,37.5L33.3,37.5z M38.9,30.3
		c0.8,0,1.6-0.4,2.1-1.1c0.6-0.7,0.9-1.8,0.9-3.3c0-1.3-0.2-2.3-0.7-3c-0.4-0.7-1.1-1.1-2.1-1.1c-0.9,0-1.8,0.5-2.8,1.4v6
		c0.5,0.4,0.9,0.7,1.4,0.8C38.1,30.2,38.5,30.3,38.9,30.3z"/>
	<path class="st0" d="M51.9,32.7c-0.7,0-1.4-0.1-1.9-0.3s-0.9-0.5-1.2-0.9c-0.3-0.4-0.6-0.9-0.7-1.5s-0.2-1.2-0.2-1.9V22h-1.8v-2.2
		l2-0.1l0.4-3.5H51v3.5h3.2V22h-3.3v6.1c0,1.5,0.6,2.2,1.8,2.2c0.2,0,0.5,0,0.7-0.1s0.4-0.1,0.6-0.2l0.5,2.2
		c-0.3,0.1-0.7,0.2-1.2,0.3C52.9,32.7,52.4,32.7,51.9,32.7z"/>
	<path class="st0" d="M60.6,32.7c-1.4,0-2.4-0.4-3-1.3s-0.9-2.1-0.9-3.8v-8h3v7.6c0,1.1,0.2,1.8,0.5,2.2c0.3,0.4,0.8,0.7,1.5,0.7
		c0.6,0,1-0.1,1.5-0.4s0.9-0.7,1.4-1.4v-8.7h3v12.8h-2.4L65,30.5h-0.1c-0.6,0.7-1.2,1.2-1.8,1.6C62.3,32.5,61.5,32.7,60.6,32.7z"/>
	<path class="st0" d="M71.3,32.4V19.7h2.5l0.2,1.7h0.1c0.6-0.6,1.2-1,1.9-1.4s1.4-0.6,2.3-0.6c1.4,0,2.4,0.4,3,1.3s0.9,2.1,0.9,3.8
		v8h-3v-7.6c0-1.1-0.2-1.8-0.5-2.2c-0.3-0.4-0.8-0.6-1.5-0.6c-0.6,0-1,0.1-1.5,0.4c-0.4,0.3-0.9,0.7-1.4,1.2v8.9h-3V32.4z"/>
	<path class="st0" d="M91.3,32.7c-0.9,0-1.7-0.2-2.5-0.5s-1.4-0.7-2-1.3c-0.6-0.6-1-1.3-1.3-2.1C85.2,28,85,27,85,26s0.2-2,0.5-2.8
		s0.8-1.5,1.3-2.1s1.2-1,1.9-1.3s1.4-0.5,2.2-0.5c0.9,0,1.6,0.1,2.3,0.4s1.2,0.7,1.7,1.2c0.4,0.5,0.8,1.2,1,1.9s0.3,1.6,0.3,2.4
		c0,0.3,0,0.6,0,0.8c0,0.3-0.1,0.5-0.1,0.6h-8.2c0.1,1.1,0.5,2,1.2,2.6s1.5,0.9,2.6,0.9c0.6,0,1.1-0.1,1.5-0.2
		c0.5-0.2,0.9-0.4,1.4-0.7l1,1.9c-0.6,0.4-1.3,0.7-2,1C92.9,32.6,92.1,32.7,91.3,32.7z M87.9,24.8h5.7c0-1-0.2-1.8-0.6-2.3
		c-0.4-0.6-1.1-0.8-2-0.8c-0.8,0-1.4,0.3-2,0.8C88.4,23,88,23.8,87.9,24.8z"/>
</g>
<g>
	<path d="M99.8,32.6l0-17.4l4.7,0c2.7,0,4.7,0.7,6.2,2.2s2.2,3.6,2.2,6.5c0,1.4-0.2,2.7-0.6,3.8c-0.4,1.1-0.9,2-1.7,2.8
		c-0.7,0.7-1.6,1.3-2.6,1.7c-1,0.4-2.2,0.6-3.5,0.6L99.8,32.6z M102.9,30.1l1.4,0c1.8,0,3.1-0.5,4.1-1.5c0.9-1,1.4-2.6,1.4-4.7
		c0-2.1-0.5-3.7-1.4-4.7c-1-1-2.3-1.5-4.1-1.5l-1.4,0L102.9,30.1z"/>
	<path d="M121.7,32.9c-0.9,0-1.7-0.2-2.5-0.5c-0.8-0.3-1.5-0.8-2-1.3c-0.6-0.6-1-1.3-1.4-2.1c-0.3-0.8-0.5-1.8-0.5-2.9
		c0-1.1,0.2-2,0.5-2.9c0.3-0.9,0.8-1.6,1.3-2.2c0.6-0.6,1.2-1,1.9-1.4c0.7-0.3,1.5-0.5,2.2-0.5c0.9,0,1.7,0.2,2.3,0.5
		c0.7,0.3,1.2,0.7,1.7,1.3s0.8,1.2,1,2c0.2,0.8,0.3,1.6,0.3,2.5c0,0.3,0,0.6,0,0.9s-0.1,0.5-0.1,0.6l-8.3,0c0.1,1.2,0.6,2.1,1.2,2.7
		c0.7,0.6,1.6,0.9,2.6,0.9c0.6,0,1.1-0.1,1.6-0.2c0.5-0.2,1-0.4,1.5-0.7l1,1.9c-0.6,0.4-1.3,0.7-2.1,1
		C123.3,32.8,122.5,32.9,121.7,32.9z M118.2,24.9l5.8,0c0-1-0.2-1.8-0.6-2.4c-0.4-0.6-1.1-0.9-2-0.9c-0.8,0-1.5,0.3-2,0.8
		C118.7,23,118.4,23.8,118.2,24.9z"/>
	<path d="M133.2,33c-0.9,0-1.8-0.2-2.7-0.5s-1.6-0.8-2.3-1.3l1.4-2c0.6,0.5,1.2,0.8,1.7,1.1c0.6,0.3,1.2,0.4,1.9,0.4
		c0.7,0,1.2-0.1,1.6-0.4c0.3-0.3,0.5-0.7,0.5-1.1c0-0.3-0.1-0.5-0.2-0.7c-0.2-0.2-0.4-0.4-0.6-0.5c-0.3-0.2-0.6-0.3-0.9-0.4
		s-0.7-0.3-1-0.4c-0.4-0.2-0.9-0.3-1.3-0.6c-0.4-0.2-0.8-0.5-1.2-0.8c-0.3-0.3-0.6-0.7-0.8-1.1c-0.2-0.4-0.3-0.9-0.3-1.4
		c0-1.2,0.4-2.1,1.3-2.8c0.9-0.7,2-1.1,3.5-1.1c0.9,0,1.7,0.2,2.4,0.5c0.7,0.3,1.4,0.7,1.9,1.1l-1.4,1.9c-0.5-0.3-0.9-0.6-1.4-0.8
		s-1-0.3-1.5-0.3c-0.7,0-1.1,0.1-1.4,0.4c-0.3,0.3-0.5,0.6-0.5,1c0,0.3,0.1,0.5,0.2,0.7c0.1,0.2,0.3,0.4,0.6,0.5
		c0.2,0.1,0.5,0.3,0.9,0.4c0.3,0.1,0.7,0.2,1,0.4c0.4,0.2,0.9,0.3,1.3,0.5c0.4,0.2,0.8,0.5,1.2,0.8c0.4,0.3,0.7,0.7,0.9,1.1
		c0.2,0.4,0.3,1,0.3,1.6c0,0.6-0.1,1.1-0.3,1.6c-0.2,0.5-0.5,0.9-1,1.3c-0.4,0.4-1,0.6-1.6,0.9C134.8,32.9,134.1,33,133.2,33z"/>
	<path d="M142.6,17.3c-0.5,0-1-0.2-1.4-0.5c-0.4-0.3-0.5-0.7-0.5-1.3c0-0.5,0.2-0.9,0.5-1.3c0.4-0.3,0.8-0.5,1.4-0.5
		c0.5,0,1,0.2,1.4,0.5c0.4,0.3,0.5,0.8,0.5,1.3c0,0.5-0.2,0.9-0.5,1.2C143.6,17.2,143.2,17.3,142.6,17.3z M141.1,32.7l0-13.1l3.1,0
		l0,13.1L141.1,32.7z"/>
	<path d="M152.6,38.4c-0.8,0-1.5-0.1-2.2-0.2s-1.2-0.4-1.7-0.6c-0.5-0.3-0.9-0.6-1.1-1.1c-0.3-0.4-0.4-0.9-0.4-1.5
		c0-0.5,0.2-1.1,0.5-1.5c0.3-0.5,0.8-0.9,1.4-1.3v-0.1c-0.3-0.2-0.6-0.5-0.8-0.9c-0.2-0.4-0.3-0.8-0.3-1.3c0-0.5,0.1-1,0.4-1.4
		s0.6-0.8,1-1v-0.1c-0.4-0.3-0.8-0.8-1.2-1.4c-0.3-0.6-0.5-1.3-0.5-2.1c0-0.7,0.1-1.4,0.4-2c0.3-0.6,0.7-1.1,1.1-1.5
		c0.5-0.4,1-0.7,1.6-0.9c0.6-0.2,1.3-0.3,2-0.3c0.4,0,0.7,0,1,0.1c0.3,0.1,0.6,0.1,0.9,0.2l4.7,0l0,2.3l-2.4,0
		c0.2,0.2,0.4,0.6,0.5,0.9c0.1,0.4,0.2,0.8,0.2,1.3c0,0.7-0.1,1.4-0.4,1.9c-0.3,0.5-0.6,1-1.1,1.4c-0.4,0.4-1,0.7-1.6,0.8
		s-1.2,0.3-1.9,0.3c-0.3,0-0.6,0-0.9-0.1s-0.6-0.1-0.9-0.3c-0.2,0.2-0.3,0.4-0.5,0.5c-0.1,0.2-0.2,0.4-0.2,0.7
		c0,0.4,0.2,0.7,0.5,0.9c0.3,0.2,0.9,0.3,1.7,0.3l2.3,0c1.6,0,2.8,0.3,3.6,0.8c0.8,0.5,1.2,1.3,1.2,2.5c0,0.6-0.2,1.2-0.5,1.8
		c-0.3,0.6-0.8,1.1-1.4,1.5s-1.3,0.7-2.2,1C154.6,38.3,153.6,38.4,152.6,38.4z M153.1,36.4c1.1,0,1.9-0.2,2.6-0.6
		c0.6-0.4,1-0.9,1-1.5c0-0.5-0.2-0.9-0.6-1c-0.4-0.2-1-0.3-1.7-0.3l-1.8,0c-0.7,0-1.3-0.1-1.8-0.2c-0.7,0.5-1,1.1-1,1.7
		c0,0.6,0.3,1,0.9,1.4C151.2,36.3,152,36.4,153.1,36.4z M152.7,26.6c0.6,0,1.2-0.2,1.6-0.7c0.4-0.5,0.7-1.1,0.7-2
		c0-0.8-0.2-1.4-0.6-1.9c-0.4-0.5-1-0.7-1.6-0.7c-0.6,0-1.2,0.2-1.6,0.7c-0.4,0.4-0.7,1.1-0.7,1.9c0,0.9,0.2,1.5,0.7,2
		C151.6,26.4,152.1,26.6,152.7,26.6z"/>
	<path d="M161.9,32.7l0-13.1l2.5,0l0.2,1.8h0.1c0.6-0.6,1.2-1.1,1.9-1.5c0.7-0.4,1.5-0.6,2.4-0.6c1.4,0,2.4,0.5,3.1,1.3
		c0.6,0.9,1,2.2,1,3.8l0,8.2l-3.1,0l0-7.8c0-1.1-0.2-1.8-0.5-2.3c-0.3-0.4-0.8-0.7-1.6-0.7c-0.6,0-1.1,0.1-1.5,0.4
		c-0.4,0.3-0.9,0.7-1.5,1.2l0,9.1L161.9,32.7z"/>
	<path d="M182.1,33c-1.2,0-2.3-0.2-3.4-0.7c-1.1-0.4-2.1-1.1-2.9-1.9l1.8-2.1c0.6,0.6,1.3,1.1,2.1,1.4c0.8,0.4,1.6,0.5,2.4,0.5
		c1,0,1.7-0.2,2.3-0.6c0.5-0.4,0.8-0.9,0.8-1.6c0-0.4-0.1-0.7-0.2-0.9c-0.1-0.2-0.3-0.5-0.6-0.7s-0.5-0.4-0.8-0.5s-0.7-0.3-1.1-0.5
		l-2.4-1c-0.4-0.2-0.8-0.4-1.3-0.7c-0.4-0.3-0.8-0.6-1.1-1c-0.3-0.4-0.6-0.8-0.8-1.3c-0.2-0.5-0.3-1.1-0.3-1.7
		c0-0.7,0.1-1.3,0.4-1.9c0.3-0.6,0.7-1.1,1.2-1.6c0.5-0.4,1.1-0.8,1.8-1c0.7-0.2,1.5-0.4,2.4-0.4c1,0,2,0.2,2.9,0.6
		c0.9,0.4,1.7,0.9,2.4,1.6l-1.6,2c-0.6-0.5-1.2-0.8-1.8-1.1c-0.6-0.3-1.3-0.4-2-0.4c-0.8,0-1.5,0.2-2,0.5c-0.5,0.4-0.7,0.9-0.7,1.5
		c0,0.3,0.1,0.6,0.2,0.9c0.1,0.2,0.4,0.5,0.6,0.6c0.3,0.2,0.6,0.4,0.9,0.5c0.3,0.2,0.7,0.3,1,0.4l2.4,1c0.5,0.2,1,0.5,1.4,0.7
		c0.4,0.3,0.8,0.6,1.1,1c0.3,0.4,0.6,0.8,0.7,1.3c0.2,0.5,0.3,1.1,0.3,1.7c0,0.7-0.1,1.4-0.4,2c-0.3,0.6-0.7,1.2-1.2,1.6
		c-0.5,0.5-1.2,0.8-2,1.1C183.9,32.9,183.1,33,182.1,33z"/>
	<path d="M192.1,38.1c-0.4,0-0.7,0-0.9-0.1c-0.3,0-0.5-0.1-0.8-0.2l0.6-2.4c0.1,0,0.3,0.1,0.4,0.1c0.2,0,0.3,0.1,0.5,0.1
		c0.7,0,1.2-0.2,1.7-0.6c0.4-0.4,0.7-1,0.9-1.6l0.2-0.8l-5.1-12.9l3.1,0l2.3,6.4c0.2,0.6,0.4,1.2,0.6,1.8c0.2,0.6,0.4,1.3,0.6,1.9
		h0.1c0.2-0.6,0.3-1.2,0.5-1.8c0.2-0.6,0.3-1.2,0.5-1.8l2-6.4l3,0l-4.7,13.6c-0.3,0.7-0.6,1.4-0.9,2c-0.3,0.6-0.7,1.1-1.1,1.5
		c-0.4,0.4-0.9,0.7-1.4,1C193.4,38,192.8,38.1,192.1,38.1z"/>
	<path d="M208,33.1c-0.9,0-1.8-0.2-2.7-0.5c-0.9-0.3-1.6-0.8-2.3-1.3l1.4-2c0.6,0.5,1.2,0.8,1.7,1.1c0.6,0.3,1.2,0.4,1.9,0.4
		c0.7,0,1.2-0.1,1.6-0.4c0.3-0.3,0.5-0.7,0.5-1.1c0-0.3-0.1-0.5-0.2-0.7s-0.4-0.4-0.6-0.5c-0.3-0.2-0.6-0.3-0.9-0.4
		c-0.3-0.1-0.7-0.3-1-0.4c-0.4-0.2-0.9-0.3-1.3-0.6c-0.4-0.2-0.8-0.5-1.2-0.8c-0.3-0.3-0.6-0.7-0.8-1.1c-0.2-0.4-0.3-0.9-0.3-1.4
		c0-1.2,0.4-2.1,1.3-2.8c0.9-0.7,2-1.1,3.5-1.1c0.9,0,1.7,0.2,2.4,0.5c0.7,0.3,1.4,0.7,1.9,1.1l-1.4,1.9c-0.5-0.3-0.9-0.6-1.4-0.8
		c-0.5-0.2-1-0.3-1.5-0.3c-0.7,0-1.1,0.1-1.4,0.4c-0.3,0.3-0.5,0.6-0.5,1c0,0.3,0.1,0.5,0.2,0.7c0.1,0.2,0.3,0.4,0.6,0.5
		c0.2,0.1,0.5,0.3,0.9,0.4c0.3,0.1,0.7,0.2,1,0.4c0.4,0.2,0.9,0.3,1.3,0.5c0.4,0.2,0.8,0.5,1.2,0.8c0.4,0.3,0.7,0.7,0.9,1.1
		c0.2,0.4,0.3,1,0.3,1.6c0,0.6-0.1,1.1-0.3,1.6c-0.2,0.5-0.5,0.9-1,1.3c-0.4,0.4-1,0.7-1.6,0.9S208.9,33.1,208,33.1z"/>
	<path d="M219.9,33.1c-0.8,0-1.4-0.1-1.9-0.3c-0.5-0.2-0.9-0.6-1.3-1c-0.3-0.4-0.6-0.9-0.7-1.5c-0.2-0.6-0.2-1.2-0.2-1.9l0-6.2
		l-1.9,0l0-2.3l2-0.1l0.4-3.6l2.6,0l0,3.6l3.3,0l0,2.4l-3.3,0l0,6.2c0,1.5,0.6,2.3,1.8,2.3c0.2,0,0.5,0,0.7-0.1s0.5-0.1,0.7-0.2
		l0.5,2.3c-0.4,0.1-0.8,0.2-1.2,0.3C220.9,33,220.4,33.1,219.9,33.1z"/>
	<path d="M230.1,33.1c-0.9,0-1.7-0.2-2.5-0.5c-0.8-0.3-1.5-0.8-2-1.3c-0.6-0.6-1-1.3-1.4-2.1s-0.5-1.8-0.5-2.9c0-1.1,0.2-2,0.5-2.9
		c0.3-0.9,0.8-1.6,1.3-2.2c0.6-0.6,1.2-1,1.9-1.4c0.7-0.3,1.5-0.5,2.2-0.5c0.9,0,1.7,0.2,2.3,0.5c0.7,0.3,1.2,0.7,1.7,1.3
		c0.5,0.6,0.8,1.2,1,2c0.2,0.8,0.3,1.6,0.3,2.5c0,0.3,0,0.6,0,0.9s-0.1,0.5-0.1,0.6l-8.3,0c0.1,1.2,0.6,2.1,1.2,2.7
		c0.7,0.6,1.6,0.9,2.6,0.9c0.6,0,1.1-0.1,1.6-0.3c0.5-0.2,1-0.4,1.5-0.7l1,1.9c-0.6,0.4-1.3,0.7-2.1,1S230.9,33.1,230.1,33.1z
		 M226.6,25l5.8,0c0-1-0.2-1.8-0.6-2.4c-0.4-0.6-1.1-0.9-2-0.9c-0.8,0-1.5,0.3-2,0.8C227.1,23.1,226.8,23.9,226.6,25z"/>
	<path d="M238,32.8l0-13.1l2.5,0l0.2,1.8h0.1c0.5-0.6,1.1-1.1,1.8-1.5c0.6-0.4,1.4-0.6,2.2-0.6c1,0,1.7,0.2,2.3,0.6s1,1,1.3,1.7
		c0.6-0.7,1.3-1.2,1.9-1.7c0.7-0.4,1.4-0.7,2.3-0.7c1.4,0,2.4,0.5,3.1,1.3c0.7,0.9,1,2.2,1,3.8l0,8.2l-3.1,0l0-7.8
		c0-1.1-0.2-1.8-0.5-2.3c-0.3-0.4-0.8-0.7-1.5-0.7c-0.8,0-1.7,0.5-2.7,1.6l0,9.1l-3.1,0l0-7.8c0-1.1-0.2-1.8-0.5-2.3
		c-0.3-0.4-0.8-0.7-1.5-0.7c-0.8,0-1.7,0.5-2.7,1.6l0,9.1L238,32.8z"/>
</g>
</svg>
