<?xml version="1.0" encoding="utf-8"?>
<!-- Generator: Adobe Illustrator 24.1.3, SVG Export Plug-In . SVG Version: 6.00 Build 0)  -->
<svg version="1.1" id="Layer_1" xmlns="http://www.w3.org/2000/svg" xmlns:xlink="http://www.w3.org/1999/xlink" x="0px" y="0px"
	 viewBox="0 0 158.2 48" style="enable-background:new 0 0 158.2 48;" xml:space="preserve">
<style type="text/css">
	.st0{fill:#EC1C24;}
	.st1{fill:#FFFFFF;}
</style>
<path class="st0" d="M24,48C10.7,48,0,37.3,0,24S10.7,0,24,0s24,10.7,24,24S37.3,48,24,48z"/>
<g>
	<path d="M60.5,32.4v-17h3.1l5.3,9.6l1.7,3.6h0.1c-0.1-0.9-0.2-1.8-0.2-2.8c-0.1-1-0.1-2-0.1-3v-7.4h2.9v17h-3.1l-5.3-9.6l-1.7-3.6
		H63c0.1,0.9,0.2,1.8,0.2,2.8c0.1,1,0.1,2,0.1,2.9v7.4h-2.8V32.4z"/>
	<path d="M82.7,32.7c-0.9,0-1.7-0.2-2.5-0.5s-1.4-0.7-2-1.3c-0.6-0.6-1-1.3-1.3-2.1C76.6,28,76.4,27,76.4,26s0.2-2,0.5-2.8
		s0.8-1.5,1.3-2.1s1.2-1,1.9-1.3s1.4-0.5,2.2-0.5c0.9,0,1.6,0.1,2.3,0.4c0.7,0.3,1.2,0.7,1.7,1.2c0.4,0.5,0.8,1.2,1,1.9
		s0.3,1.6,0.3,2.4c0,0.3,0,0.6,0,0.8c0,0.3-0.1,0.5-0.1,0.6h-8.1c0.1,1.1,0.5,2,1.2,2.6s1.5,0.9,2.6,0.9c0.6,0,1.1-0.1,1.5-0.2
		c0.5-0.2,0.9-0.4,1.4-0.7l1,1.9c-0.6,0.4-1.3,0.7-2,1C84.3,32.6,83.5,32.7,82.7,32.7z M79.3,24.8H85c0-1-0.2-1.8-0.6-2.3
		c-0.4-0.6-1.1-0.8-2-0.8c-0.8,0-1.4,0.3-2,0.8S79.5,23.8,79.3,24.8z"/>
	<path d="M90.4,37.5V19.7h2.5l0.2,1.4h0.1c0.5-0.5,1.1-0.8,1.8-1.2c0.7-0.3,1.3-0.5,2.1-0.5c0.8,0,1.5,0.2,2.1,0.5s1.1,0.7,1.6,1.3
		c0.4,0.6,0.8,1.3,1,2.1c0.2,0.8,0.3,1.7,0.3,2.7c0,1.1-0.2,2.1-0.5,2.9s-0.7,1.6-1.2,2.2s-1.1,1-1.7,1.3c-0.7,0.3-1.3,0.5-2.1,0.5
		c-0.6,0-1.1-0.1-1.7-0.4c-0.6-0.2-1.1-0.6-1.6-1l0.1,2.1v4L90.4,37.5L90.4,37.5z M96,30.3c0.8,0,1.6-0.4,2.1-1.1
		c0.6-0.7,0.9-1.8,0.9-3.3c0-1.3-0.2-2.3-0.7-3c-0.4-0.7-1.1-1.1-2.1-1.1c-0.9,0-1.8,0.5-2.8,1.4v6c0.5,0.4,0.9,0.7,1.4,0.8
		C95.2,30.2,95.6,30.3,96,30.3z"/>
	<path d="M109,32.7c-0.7,0-1.4-0.1-1.9-0.3s-0.9-0.5-1.2-0.9c-0.3-0.4-0.6-0.9-0.7-1.5s-0.2-1.2-0.2-1.9V22h-1.8v-2.2l2-0.1l0.4-3.5
		h2.5v3.5h3.2V22H108v6.1c0,1.5,0.6,2.2,1.8,2.2c0.2,0,0.5,0,0.7-0.1s0.4-0.1,0.6-0.2l0.5,2.2c-0.3,0.1-0.7,0.2-1.2,0.3
		C110,32.7,109.5,32.7,109,32.7z"/>
	<path d="M117.7,32.7c-1.4,0-2.4-0.4-3-1.3s-0.9-2.1-0.9-3.8v-8h3v7.6c0,1.1,0.2,1.8,0.5,2.2c0.3,0.4,0.8,0.7,1.5,0.7
		c0.6,0,1-0.1,1.5-0.4s0.9-0.7,1.4-1.4v-8.7h3v12.8h-2.4l-0.2-1.9H122c-0.6,0.7-1.2,1.2-1.8,1.6C119.4,32.5,118.6,32.7,117.7,32.7z"
		/>
	<path d="M128.4,32.4V19.7h2.5l0.2,1.7h0.1c0.6-0.6,1.2-1,1.9-1.4s1.4-0.6,2.3-0.6c1.4,0,2.4,0.4,3,1.3s0.9,2.1,0.9,3.8v8h-3v-7.6
		c0-1.1-0.2-1.8-0.5-2.2c-0.3-0.4-0.8-0.6-1.5-0.6c-0.6,0-1,0.1-1.5,0.4c-0.4,0.3-0.9,0.7-1.4,1.2v8.9h-3V32.4z"/>
	<path d="M148.4,32.7c-0.9,0-1.7-0.2-2.5-0.5s-1.4-0.7-2-1.3c-0.6-0.6-1-1.3-1.3-2.1c-0.3-0.8-0.5-1.8-0.5-2.8s0.2-2,0.5-2.8
		s0.8-1.5,1.3-2.1s1.2-1,1.9-1.3s1.4-0.5,2.2-0.5c0.9,0,1.6,0.1,2.3,0.4s1.2,0.7,1.7,1.2c0.4,0.5,0.8,1.2,1,1.9s0.3,1.6,0.3,2.4
		c0,0.3,0,0.6,0,0.8c0,0.3-0.1,0.5-0.1,0.6H145c0.1,1.1,0.5,2,1.2,2.6s1.5,0.9,2.6,0.9c0.6,0,1.1-0.1,1.5-0.2
		c0.5-0.2,0.9-0.4,1.4-0.7l1,1.9c-0.6,0.4-1.3,0.7-2,1C150,32.6,149.2,32.7,148.4,32.7z M145,24.8h5.7c0-1-0.2-1.8-0.6-2.3
		c-0.4-0.6-1.1-0.8-2-0.8c-0.8,0-1.4,0.3-2,0.8C145.5,23,145.1,23.8,145,24.8z"/>
</g>
<path class="st1" d="M18.4,32.4v-17h3.1l5.3,9.6l1.7,3.6h0.1c-0.1-0.9-0.2-1.8-0.2-2.8c-0.1-1-0.1-2-0.1-3v-7.4h2.9v17h-3.1
	l-5.3-9.6l-1.7-3.6h-0.2c0.1,0.9,0.2,1.8,0.2,2.8c0.1,1,0.1,2,0.1,2.9v7.4h-2.8V32.4z"/>
</svg>
