<?xml version="1.0" encoding="utf-8"?>
<!-- Generator: Adobe Illustrator 25.2.3, SVG Export Plug-In . SVG Version: 6.00 Build 0)  -->
<svg version="1.1" id="Layer_1" xmlns="http://www.w3.org/2000/svg" xmlns:xlink="http://www.w3.org/1999/xlink" x="0px" y="0px"
	 viewBox="0 0 175.1 53.6" style="enable-background:new 0 0 175.1 53.6;" xml:space="preserve">
<style type="text/css">
	.st0{fill:#FFFFFF;}
	.st1{fill:#005FC6;}
</style>
<desc>Created with Sketch.</desc>
<desc>Created with Sketch.</desc>
<desc>Created with Sketch.</desc>
<path class="st0" d="M8.8,40.4h157.7c0.6,0,1,0.4,1,1v5c0,0.6-0.4,1-1,1H8.8c-0.6,0-1-0.4-1-1v-5C7.8,40.8,8.2,40.4,8.8,40.4z"/>
<desc>Created with Sketch.</desc>
<desc>Created with Sketch.</desc>
<desc>Created with Sketch.</desc>
<path class="st0" d="M8.8,23.4h157.7c0.6,0,1,0.4,1,1v5c0,0.6-0.4,1-1,1H8.8c-0.6,0-1-0.4-1-1v-5C7.8,23.8,8.2,23.4,8.8,23.4z"/>
<path class="st1" d="M8.8,6.4h84.5c0.6,0,1,0.4,1,1v5c0,0.6-0.4,1-1,1H8.8c-0.6,0-1-0.4-1-1v-5C7.8,6.8,8.2,6.4,8.8,6.4z"/>
</svg>
