<svg id="Layer_1" data-name="Layer 1" xmlns="http://www.w3.org/2000/svg" xmlns:xlink="http://www.w3.org/1999/xlink" height="170px" viewBox="0 0 204.2 168.45"><defs><style>.cls-1{fill:#fff;}.cls-2{clip-path:url(#clip-path);}.cls-3{clip-path:url(#clip-path-2);}</style><clipPath id="clip-path"><path class="cls-1" d="M-2484.84,76.49l2.1,38.38a3.37,3.37,0,0,0,3.38,3.2h13.7a3.38,3.38,0,0,0,3.38-3.2l2.1-38.38a3.39,3.39,0,0,0-3.39-3.58h-17.89A3.39,3.39,0,0,0-2484.84,76.49Zm12.33,46.67a13,13,0,0,0-13,13,13,13,0,0,0,13,13,13,13,0,0,0,13-13A13,13,0,0,0-2472.51,123.16Zm70-14.12a70,70,0,0,1-70,70,70,70,0,0,1-70-70,70,70,0,0,1,70-70A70,70,0,0,1-2402.51,109Z"/></clipPath><clipPath id="clip-path-2"><path class="cls-1" d="M-2302,146.21-2250.33,94a4.58,4.58,0,0,0,0-6.42l-6.35-6.42a4.47,4.47,0,0,0-6.36,0l-42.12,42.56-19.67-19.87a4.46,4.46,0,0,0-6.35,0l-6.36,6.42a4.57,4.57,0,0,0,0,6.41l29.2,29.49A4.44,4.44,0,0,0-2302,146.21Zm77.47-37.17a70,70,0,0,1-70,70,70,70,0,0,1-70-70,70,70,0,0,1,70-70A70,70,0,0,1-2224.52,109Z"/></clipPath></defs><path class="cls-1" d="M-2484.84,76.49l2.1,38.38a3.37,3.37,0,0,0,3.38,3.2h13.7a3.38,3.38,0,0,0,3.38-3.2l2.1-38.38a3.39,3.39,0,0,0-3.39-3.58h-17.89A3.39,3.39,0,0,0-2484.84,76.49Zm12.33,46.67a13,13,0,0,0-13,13,13,13,0,0,0,13,13,13,13,0,0,0,13-13A13,13,0,0,0-2472.51,123.16Zm70-14.12a70,70,0,0,1-70,70,70,70,0,0,1-70-70,70,70,0,0,1,70-70A70,70,0,0,1-2402.51,109Z"/><g class="cls-2"><rect class="cls-1" x="-6462.51" y="-1200.96" width="9600" height="3205"/></g><path class="cls-1" d="M-2302,146.21-2250.33,94a4.58,4.58,0,0,0,0-6.42l-6.35-6.42a4.47,4.47,0,0,0-6.36,0l-42.12,42.56-19.67-19.87a4.46,4.46,0,0,0-6.35,0l-6.36,6.42a4.57,4.57,0,0,0,0,6.41l29.2,29.49A4.44,4.44,0,0,0-2302,146.21Zm77.47-37.17a70,70,0,0,1-70,70,70,70,0,0,1-70-70,70,70,0,0,1,70-70A70,70,0,0,1-2224.52,109Z"/><g class="cls-3"><rect class="cls-1" x="-6284.52" y="-1060.96" width="9600" height="3205"/></g><path class="cls-1" d="M120.49,65.35a40.56,40.56,0,0,1,.09,57.29l-.09.1-17.94,17.94A40.58,40.58,0,0,1,45.16,83.29l9.91-9.91a4.27,4.27,0,0,1,7.28,2.83,49.26,49.26,0,0,0,2.59,14.08,4.29,4.29,0,0,1-1,4.43l-3.49,3.5a19.22,19.22,0,1,0,27,27.35l17.94-17.93a19.21,19.21,0,0,0,0-27.19,20.2,20.2,0,0,0-2.76-2.29,4.27,4.27,0,0,1-1.85-3.36,10.62,10.62,0,0,1,3.12-8l5.62-5.62a4.3,4.3,0,0,1,5.5-.46,41.39,41.39,0,0,1,5.48,4.59Zm37.62-37.63a40.63,40.63,0,0,0-57.39,0L82.78,45.66l-.09.1a40.56,40.56,0,0,0,.09,57.29,41.39,41.39,0,0,0,5.48,4.59,4.3,4.3,0,0,0,5.5-.46l5.62-5.62a10.62,10.62,0,0,0,3.12-8,4.3,4.3,0,0,0-1.85-3.37,19.2,19.2,0,0,1-2.76-29.47l17.94-17.93a19.22,19.22,0,1,1,27,27.35l-3.49,3.49a4.31,4.31,0,0,0-1,4.44,49.26,49.26,0,0,1,2.59,14.07A4.26,4.26,0,0,0,148.2,95l9.91-9.9a40.63,40.63,0,0,0,0-57.39Z"/></svg>