<?xml version="1.0" encoding="utf-8"?>
<!-- Generator: Adobe Illustrator 24.1.2, SVG Export Plug-In . SVG Version: 6.00 Build 0)  -->
<svg version="1.1" id="Layer_1" xmlns="http://www.w3.org/2000/svg" xmlns:xlink="http://www.w3.org/1999/xlink" x="0px" y="0px"
	 viewBox="0 0 354.5 239.2" style="enable-background:new 0 0 354.5 239.2;" xml:space="preserve">
<style type="text/css">
	.st0{fill:#ED1C24;}
	.st1{fill:url(#XMLID_2_);}
	.st2{fill:url(#XMLID_3_);}
	.st3{fill:#1D1D1B;}
	.st4{fill:#1D1D1B;stroke:#1D1D1B;stroke-miterlimit:10;}
	.st5{enable-background:new    ;}
</style>
<path id="XMLID_26_" d="M92.4,93c0-2,1.7-3.6,3.6-3.6c1.9,0,3.6,1.5,3.6,3.6c0,2.1-1.7,3.6-3.6,3.6C94,96.6,92.4,95,92.4,93 M96,96
	c1.6,0,2.9-1.3,2.9-3c0-1.7-1.3-3-2.9-3c-1.6,0-2.9,1.3-2.9,3C93.1,94.7,94.3,96,96,96 M95.2,95h-0.6v-4.1h1.6c1,0,1.5,0.4,1.5,1.2
	c0,0.7-0.5,1.1-1.1,1.1l1.2,1.8H97l-1.1-1.8h-0.7V95z M96,92.7c0.5,0,1,0,1-0.7c0-0.5-0.5-0.6-0.9-0.6h-0.9v1.3H96z"/>
<g id="XMLID_31_">
	<g>
		<path id="XMLID_350_" class="st0" d="M125.3,155.1l-4.5-7h-3.5v7h-2.2v-17.6h7.1c3.2,0,5.5,2.1,5.5,5.3c0,3.2-2.2,4.9-4.6,5.1
			l4.8,7.2H125.3z M125.5,142.8c0-2-1.4-3.4-3.5-3.4h-4.6v6.7h4.6C124,146.1,125.5,144.7,125.5,142.8z"/>
		<path id="XMLID_348_" class="st0" d="M131.1,155.1v-17.6h2.2v17.6H131.1z"/>
		<path id="XMLID_346_" class="st0" d="M136.2,152.6l1.3-1.7c1.2,1.3,3.1,2.5,5.5,2.5c3.1,0,4.1-1.7,4.1-3c0-4.5-10.4-2-10.4-8.3
			c0-2.9,2.6-4.9,6-4.9c2.7,0,4.8,0.9,6.3,2.5l-1.3,1.6c-1.3-1.5-3.2-2.1-5.1-2.1c-2.1,0-3.6,1.1-3.6,2.8c0,4,10.4,1.7,10.4,8.3
			c0,2.6-1.7,5.2-6.5,5.2C139.9,155.4,137.6,154.2,136.2,152.6z"/>
		<path id="XMLID_344_" class="st0" d="M163.2,155.1l-6.7-7.9l-1.8,2v5.9h-2.2v-17.6h2.2v9.1l7.8-9.1h2.7l-7.3,8.4l8,9.2H163.2z"/>
		<path id="XMLID_342_" class="st0" d="M173.9,152.6l1.3-1.7c1.2,1.3,3.1,2.5,5.5,2.5c3.1,0,4.1-1.7,4.1-3c0-4.5-10.4-2-10.4-8.3
			c0-2.9,2.6-4.9,6-4.9c2.7,0,4.8,0.9,6.3,2.5l-1.3,1.6c-1.3-1.5-3.2-2.1-5.1-2.1c-2.1,0-3.6,1.1-3.6,2.8c0,4,10.4,1.7,10.4,8.3
			c0,2.6-1.7,5.2-6.5,5.2C177.6,155.4,175.4,154.2,173.9,152.6z"/>
		<path id="XMLID_339_" class="st0" d="M189.6,146.3c0-5.2,3.5-9.1,8.7-9.1c5.2,0,8.7,3.9,8.7,9.1s-3.5,9.1-8.7,9.1
			C193.1,155.4,189.6,151.5,189.6,146.3z M204.8,146.3c0-4.1-2.5-7.2-6.5-7.2c-4,0-6.5,3-6.5,7.2c0,4.1,2.5,7.2,6.5,7.2
			C202.3,153.4,204.8,150.4,204.8,146.3z"/>
		<path id="XMLID_337_" class="st0" d="M210.4,155.1v-17.6h2.2v15.7h8.2v2H210.4z"/>
		<path id="XMLID_335_" class="st0" d="M223,148.2v-10.8h2.2v10.7c0,3.2,1.7,5.3,5,5.3s5-2,5-5.3v-10.7h2.2v10.7
			c0,4.4-2.4,7.2-7.2,7.2C225.4,155.4,223,152.5,223,148.2z"/>
		<path id="XMLID_333_" class="st0" d="M245.7,155.1v-15.7h-5.6v-2h13.4v2h-5.6v15.7H245.7z"/>
		<path id="XMLID_331_" class="st0" d="M256.3,155.1v-17.6h2.2v17.6H256.3z"/>
		<path id="XMLID_324_" class="st0" d="M261.7,146.3c0-5.2,3.5-9.1,8.7-9.1c5.2,0,8.7,3.9,8.7,9.1s-3.5,9.1-8.7,9.1
			C265.2,155.4,261.7,151.5,261.7,146.3z M276.9,146.3c0-4.1-2.5-7.2-6.5-7.2c-4,0-6.5,3-6.5,7.2c0,4.1,2.5,7.2,6.5,7.2
			C274.4,153.4,276.9,150.4,276.9,146.3z"/>
		<path id="XMLID_322_" class="st0" d="M295,155.1l-10.3-14v14h-2.2v-17.6h2.2l10.1,13.8v-13.8h2.2v17.6H295z"/>
		<path id="XMLID_317_" class="st0" d="M300,152.6l1.3-1.7c1.2,1.3,3.1,2.5,5.5,2.5c3.1,0,4.1-1.7,4.1-3c0-4.5-10.4-2-10.4-8.3
			c0-2.9,2.6-4.9,6-4.9c2.7,0,4.8,0.9,6.3,2.5l-1.3,1.6c-1.3-1.5-3.2-2.1-5.1-2.1c-2.1,0-3.6,1.1-3.6,2.8c0,4,10.4,1.7,10.4,8.3
			c0,2.6-1.7,5.2-6.5,5.2C303.7,155.4,301.5,154.2,300,152.6z"/>
	</g>
</g>
<g id="XMLID_34_">
	<path id="XMLID_465_" d="M297.8,94.3c0.5,0,2.9,0,3.7,0c-5.4,6.3-16.2,20-20.1,25.5c-0.4,0-3.1,0-3.7,0l0.5-0.5
		C281.8,115,293.8,100.1,297.8,94.3z"/>
	<path id="XMLID_461_" d="M179.4,94.3c0.5,0,2.9,0,3.7,0c-5.4,6.3-16.2,20-20.1,25.5c-0.4,0-3.1,0-3.7,0l0.5-0.5
		C163.4,115,175.3,100.1,179.4,94.3z"/>
	<path id="XMLID_459_" d="M278,94.3c0.9,0.1,4.5,0,5.2,0c3.8,5.4,13.4,19.1,18.6,25.5c-1.3-0.1-5,0-5.2,0
		C294.3,116.1,282.1,99.6,278,94.3z"/>
	<path id="XMLID_456_" d="M310.5,119.9c-0.7-0.1-3.4-0.1-4,0V94.3c1.7,0.1,2.5,0.1,4,0V119.9z M308.5,88.3c-1.5,0-2.5-1.3-2.5-2.7
		c0-1.4,1.1-2.5,2.5-2.5c1.3,0,2.5,1.1,2.5,2.5C311.1,87,309.9,88.3,308.5,88.3z"/>
	<path id="XMLID_454_" d="M318,114.8c1.3,2,3.7,3.9,6.2,3.9c3.3,0,5.4-2.1,5.2-4.9c-0.4-7.4-12.7-2.4-12.8-11.7
		c-0.1-5.1,3.8-7.9,8.6-8c2.8,0,6.1,1.3,6,1.3c-0.6,1.3-1.4,3.9-1.5,3.9c-1-2-2.9-3.6-4.8-3.5c-2.7,0-4.8,1.6-4.8,4.5
		c0.1,6.8,13.1,3.6,12.9,12.1c-0.1,4.6-3.6,8.6-9.6,8.2c-2.9-0.2-7.1-1.7-7-1.8C317.1,117.3,318,114.7,318,114.8z"/>
	<path id="XMLID_451_" d="M257.9,105.5c0.3-4.5,2.5-9.3,7.5-9.3c5.3,0,6.6,4.6,6.7,9.3H257.9z M276.3,107.6
		c0.5-8.9-4.9-13.1-10.8-13.1c-7.9,0-12.2,5.7-12.2,13.1c0,8.3,5.2,13.1,12.6,13.1c3.3,0,6.6-1.3,9.2-3.2l0-2.7
		c-1.4,1.4-4.3,3.7-7.9,3.7c-6.4,0-9.6-4.9-9.1-10.9L276.3,107.6z"/>
	<path id="XMLID_449_" d="M159.6,94.3c0.9,0.1,4.5,0,5.2,0c3.8,5.4,13.4,19.1,18.6,25.5c-1.3-0.1-5,0-5.2,0
		C175.8,116.1,163.6,99.6,159.6,94.3z"/>
	<path id="XMLID_446_" d="M192,119.9c-0.6-0.1-3.4-0.1-4,0V94.3c1.7,0.1,2.5,0.1,4,0V119.9z M190.1,88.3c-1.4,0-2.5-1.3-2.5-2.7
		c0-1.4,1.1-2.5,2.5-2.5c1.3,0,2.5,1.1,2.5,2.5C192.6,87,191.5,88.3,190.1,88.3z"/>
	<path id="XMLID_444_" d="M199.5,114.8c1.3,2,3.7,3.9,6.2,3.9c3.3,0,5.4-2.1,5.2-4.9c-0.4-7.4-12.7-2.4-12.8-11.7
		c0-5.1,3.8-7.9,8.6-8c2.8,0,6.1,1.3,6,1.3c-0.6,1.3-1.4,3.9-1.5,3.9c-1-2-2.9-3.6-4.8-3.5c-2.7,0-4.8,1.6-4.8,4.5
		c0.1,6.8,13.1,3.6,12.9,12.1c-0.1,4.6-3.6,8.6-9.6,8.2c-2.9-0.2-7.1-1.7-7-1.8C198.6,117.3,199.5,114.7,199.5,114.8z"/>
	<path id="XMLID_441_" d="M139.5,105.5c0.3-4.5,2.5-9.3,7.5-9.3c5.3,0,6.6,4.6,6.7,9.3H139.5z M157.8,107.6
		c0.5-8.9-4.9-13.1-10.8-13.1c-7.9,0-12.2,5.7-12.2,13.1c0,8.3,5.2,13.1,12.6,13.1c3.2,0,6.6-1.3,9.2-3.2l0-2.7
		c-1.4,1.4-4.3,3.7-7.9,3.7c-6.5,0-9.6-4.9-9.1-10.9L157.8,107.6z"/>
	<path id="XMLID_439_" d="M119,117c3.5,0.1,11.8-0.1,14.7-0.6c0,0.7,0,2.8,0,3.4h-19.4V83.4c0.7,0.1,3.8,0.1,4.7,0L119,117z"/>
	<path id="XMLID_437_" d="M248.3,119.9h-1.6c-0.6-0.7-23.2-29-23.2-29v29c-0.5-0.1-1-0.1-1.5-0.1c-0.5,0-1,0-1.5,0.1V83.4h2.1
		l22.2,27.5l0.5,0.5v-28c0.7,0,2.4,0,3,0V119.9z"/>
	<path id="XMLID_426_" d="M337.2,97.9c0-2,1.7-3.6,3.6-3.6c1.9,0,3.6,1.5,3.6,3.6c0,2.1-1.7,3.6-3.6,3.6
		C338.8,101.5,337.2,100,337.2,97.9z M340.8,100.9c1.6,0,2.9-1.3,2.9-3c0-1.7-1.3-3-2.9-3c-1.6,0-2.9,1.3-2.9,3
		C337.9,99.7,339.2,100.9,340.8,100.9z M340,100h-0.6v-4.1h1.6c1,0,1.4,0.4,1.4,1.2c0,0.7-0.5,1.1-1.1,1.1l1.2,1.8h-0.7l-1.1-1.8
		H340V100z M340.8,97.7c0.5,0,1,0,1-0.7c0-0.5-0.5-0.6-0.9-0.6H340v1.3H340.8z"/>
</g>
<radialGradient id="XMLID_2_" cx="105.8476" cy="282.6504" r="25.155" gradientTransform="matrix(1.7729 0 0 1.7729 -113.3031 -408.7736)" gradientUnits="userSpaceOnUse">
	<stop  offset="0" style="stop-color:#FDE6DB"/>
	<stop  offset="6.223321e-03" style="stop-color:#FCE1D6"/>
	<stop  offset="8.475854e-02" style="stop-color:#F3A7A1"/>
	<stop  offset="0.1606" style="stop-color:#EC7675"/>
	<stop  offset="0.2319" style="stop-color:#E65053"/>
	<stop  offset="0.2976" style="stop-color:#E2353A"/>
	<stop  offset="0.3557" style="stop-color:#E0252B"/>
	<stop  offset="0.4" style="stop-color:#DF1F26"/>
	<stop  offset="1" style="stop-color:#B92026"/>
</radialGradient>
<path id="XMLID_424_" class="st1" d="M96.4,115.9c0,16.9-13.7,30.6-30.6,30.6s-30.6-13.7-30.6-30.6c0-16.9,13.7-30.6,30.6-30.6
	S96.4,98.9,96.4,115.9z"/>
<radialGradient id="XMLID_3_" cx="-5850.6211" cy="279.8415" r="334.0273" gradientTransform="matrix(0.2663 0 0 0.2663 1631.5321 19.2709)" gradientUnits="userSpaceOnUse">
	<stop  offset="0" style="stop-color:#FDE6DB"/>
	<stop  offset="0.6" style="stop-color:#DF1F26"/>
	<stop  offset="1" style="stop-color:#B92026"/>
</radialGradient>
<path id="XMLID_423_" class="st2" d="M76.3,92.9c0.2-0.1,7-0.5,6.9-0.7c0-0.2-4.9-0.1-6.9,0c0.8-0.3,4.2-1.4,4.2-1.8
	c0-0.3-5.8,1.7-6.6,1.8c-5.2-4.3-10.1-6-14.6-6.3c-2.4,0.5-4.7,1.3-6.8,2.3c5.1-1.1,10.9-0.8,17.2,2.8c-10.1-3.1-18.6-1.4-25,2.6
	c-3.8,3.6-6.7,8.2-8.2,13.3C42,95.9,53.8,88.6,69.4,92.1c-22-0.7-31.8,14.3-33.8,28.3c0.7,4.9,2.5,9.3,5.3,13.2
	c-4.9-15.7,2.6-39.1,28.8-40.4c-28.2,5.7-30.5,35.5-21.8,47.5c2.6,1.9,5.5,3.4,8.5,4.3c-12.7-8.7-11.7-43.3,14.1-51
	c-22.9,11-22.2,45.3-7.6,52.4c1,0.1,1.9,0.1,2.9,0.1c1.9,0,3.7-0.1,5.6-0.5c-15.2-5.2-21.9-40.6,2-52.2c0,0,0.8,0.6,0.8,0.6
	c3.1,2.3,9.1,8.6,9.4,8.4c0.3-0.2-5.2-5.9-7.5-8.1c2.9,1.3,8.9,4.6,9.1,4.4c0.2-0.2-5.9-3.8-9-5.4c3.2,0.5,9.1,1.8,9.1,1.6
	C85.4,94.9,80,93.6,76.3,92.9z"/>
<g>
	<rect x="113.5" y="179.7" class="st3" width="1" height="9.8"/>
	<rect x="343.7" y="179.7" class="st3" width="1" height="9.8"/>
	<rect x="114.2" y="183.9" class="st3" width="230.2" height="1"/>
</g>
<g>
	<path d="M186.3,227.2v-11.7h1.5V226h5.1v1.3H186.3z"/>
	<path d="M198.1,227.5c-0.5,0-1-0.1-1.5-0.3c-0.5-0.2-0.9-0.5-1.3-0.9c-0.4-0.4-0.7-0.9-0.9-1.4c-0.2-0.6-0.3-1.2-0.3-1.9
		c0-0.7,0.1-1.4,0.3-1.9c0.2-0.6,0.5-1,0.9-1.4c0.4-0.4,0.8-0.7,1.3-0.9s1-0.3,1.5-0.3s1,0.1,1.5,0.3s0.9,0.5,1.3,0.9
		c0.4,0.4,0.7,0.9,0.9,1.4s0.3,1.2,0.3,1.9c0,0.7-0.1,1.4-0.3,1.9s-0.5,1-0.9,1.4c-0.4,0.4-0.8,0.7-1.3,0.9
		C199.1,227.4,198.6,227.5,198.1,227.5z M198.1,226.2c0.4,0,0.7-0.1,1-0.2c0.3-0.2,0.6-0.4,0.8-0.7s0.4-0.6,0.5-1
		c0.1-0.4,0.2-0.9,0.2-1.4c0-0.5-0.1-1-0.2-1.4c-0.1-0.4-0.3-0.8-0.5-1.1c-0.2-0.3-0.5-0.5-0.8-0.7c-0.3-0.2-0.7-0.2-1-0.2
		c-0.4,0-0.7,0.1-1,0.2c-0.3,0.2-0.6,0.4-0.8,0.7c-0.2,0.3-0.4,0.7-0.5,1.1c-0.1,0.4-0.2,0.9-0.2,1.4c0,0.5,0.1,1,0.2,1.4
		c0.1,0.4,0.3,0.8,0.5,1c0.2,0.3,0.5,0.5,0.8,0.7C197.4,226.2,197.7,226.2,198.1,226.2z"/>
	<path d="M207.3,231.3c-0.5,0-1-0.1-1.5-0.2c-0.4-0.1-0.8-0.3-1.1-0.5c-0.3-0.2-0.6-0.4-0.7-0.7c-0.2-0.3-0.3-0.6-0.3-1
		c0-0.4,0.1-0.7,0.3-1.1s0.5-0.6,0.9-0.9v-0.1c-0.2-0.1-0.4-0.3-0.5-0.5c-0.1-0.2-0.2-0.5-0.2-0.9c0-0.4,0.1-0.7,0.3-1
		c0.2-0.3,0.4-0.5,0.6-0.6v-0.1c-0.3-0.2-0.5-0.6-0.8-1c-0.2-0.4-0.3-0.9-0.3-1.4c0-0.5,0.1-0.9,0.3-1.3c0.2-0.4,0.4-0.7,0.7-1
		c0.3-0.3,0.6-0.5,1-0.6s0.8-0.2,1.3-0.2c0.2,0,0.5,0,0.7,0.1c0.2,0,0.4,0.1,0.6,0.2h3v1.1h-1.8c0.2,0.2,0.4,0.5,0.5,0.8
		c0.1,0.3,0.2,0.7,0.2,1c0,0.5-0.1,0.9-0.3,1.3c-0.2,0.4-0.4,0.7-0.7,0.9c-0.3,0.3-0.6,0.5-1,0.6c-0.4,0.1-0.8,0.2-1.2,0.2
		c-0.2,0-0.4,0-0.7-0.1c-0.2-0.1-0.4-0.1-0.6-0.2c-0.2,0.1-0.3,0.3-0.4,0.4c-0.1,0.2-0.2,0.4-0.2,0.6c0,0.3,0.1,0.5,0.3,0.7
		c0.2,0.2,0.6,0.3,1.2,0.3h1.7c1,0,1.8,0.2,2.3,0.5c0.5,0.3,0.8,0.9,0.8,1.6c0,0.4-0.1,0.8-0.3,1.2c-0.2,0.4-0.5,0.7-0.9,1
		c-0.4,0.3-0.8,0.5-1.4,0.7C208.6,231.2,208,231.3,207.3,231.3z M207.5,230.2c0.4,0,0.8-0.1,1.1-0.2c0.3-0.1,0.6-0.2,0.9-0.4
		c0.2-0.2,0.4-0.3,0.6-0.6c0.1-0.2,0.2-0.4,0.2-0.7c0-0.4-0.1-0.7-0.4-0.8c-0.3-0.2-0.7-0.2-1.3-0.2H207c-0.2,0-0.3,0-0.5,0
		c-0.2,0-0.4-0.1-0.6-0.1c-0.3,0.2-0.5,0.5-0.7,0.7c-0.1,0.2-0.2,0.5-0.2,0.8c0,0.5,0.2,0.8,0.7,1.1
		C206.1,230.1,206.8,230.2,207.5,230.2z M207.3,223.5c0.3,0,0.5,0,0.7-0.1c0.2-0.1,0.4-0.2,0.6-0.4c0.2-0.2,0.3-0.4,0.4-0.7
		c0.1-0.3,0.1-0.5,0.1-0.9c0-0.6-0.2-1.1-0.5-1.5c-0.4-0.4-0.8-0.5-1.3-0.5s-0.9,0.2-1.3,0.5c-0.4,0.4-0.5,0.9-0.5,1.5
		c0,0.3,0,0.6,0.1,0.9c0.1,0.3,0.2,0.5,0.4,0.7c0.2,0.2,0.4,0.3,0.6,0.4C206.8,223.5,207.1,223.5,207.3,223.5z"/>
	<path d="M216.6,227.5c-0.5,0-1-0.1-1.5-0.3c-0.5-0.2-0.9-0.5-1.3-0.9c-0.4-0.4-0.7-0.9-0.9-1.4c-0.2-0.6-0.3-1.2-0.3-1.9
		c0-0.7,0.1-1.4,0.3-1.9c0.2-0.6,0.5-1,0.9-1.4c0.4-0.4,0.8-0.7,1.3-0.9s1-0.3,1.5-0.3c0.5,0,1,0.1,1.5,0.3s0.9,0.5,1.3,0.9
		c0.4,0.4,0.7,0.9,0.9,1.4c0.2,0.6,0.3,1.2,0.3,1.9c0,0.7-0.1,1.4-0.3,1.9c-0.2,0.6-0.5,1-0.9,1.4c-0.4,0.4-0.8,0.7-1.3,0.9
		C217.6,227.4,217.1,227.5,216.6,227.5z M216.6,226.2c0.4,0,0.7-0.1,1-0.2c0.3-0.2,0.6-0.4,0.8-0.7c0.2-0.3,0.4-0.6,0.5-1
		c0.1-0.4,0.2-0.9,0.2-1.4c0-0.5-0.1-1-0.2-1.4c-0.1-0.4-0.3-0.8-0.5-1.1c-0.2-0.3-0.5-0.5-0.8-0.7c-0.3-0.2-0.7-0.2-1-0.2
		s-0.7,0.1-1,0.2c-0.3,0.2-0.6,0.4-0.8,0.7c-0.2,0.3-0.4,0.7-0.5,1.1c-0.1,0.4-0.2,0.9-0.2,1.4c0,0.5,0.1,1,0.2,1.4
		c0.1,0.4,0.3,0.8,0.5,1c0.2,0.3,0.5,0.5,0.8,0.7C215.8,226.2,216.2,226.2,216.6,226.2z"/>
	<path d="M229.2,227.5c-0.5,0-0.9-0.1-1.2-0.2s-0.6-0.3-0.8-0.6c-0.2-0.2-0.3-0.6-0.4-0.9c-0.1-0.4-0.1-0.8-0.1-1.2v-4.8h-1.3v-1.1
		l1.4-0.1l0.2-2.4h1.2v2.4h2.3v1.2h-2.3v4.8c0,0.5,0.1,1,0.3,1.2c0.2,0.3,0.5,0.4,1,0.4c0.2,0,0.3,0,0.5-0.1c0.2,0,0.3-0.1,0.5-0.2
		l0.3,1.1c-0.2,0.1-0.5,0.2-0.8,0.2C229.8,227.4,229.5,227.5,229.2,227.5z"/>
	<path d="M232.7,231c-0.2,0-0.4,0-0.6,0c-0.2,0-0.3-0.1-0.5-0.1l0.3-1.2c0.1,0,0.2,0.1,0.3,0.1c0.1,0,0.2,0,0.3,0
		c0.5,0,0.9-0.2,1.2-0.5c0.3-0.4,0.6-0.8,0.7-1.3l0.2-0.6l-3.5-8.7h1.5l1.8,4.8c0.1,0.4,0.3,0.8,0.4,1.2c0.1,0.4,0.3,0.8,0.4,1.2
		h0.1c0.1-0.4,0.3-0.8,0.4-1.2c0.1-0.4,0.2-0.8,0.4-1.2l1.6-4.8h1.4l-3.3,9.4c-0.2,0.4-0.3,0.8-0.5,1.2s-0.4,0.7-0.7,1
		s-0.6,0.5-0.9,0.6C233.5,230.9,233.1,231,232.7,231z"/>
	<path d="M240.9,230.9v-12.4h1.2l0.1,1h0.1c0.4-0.3,0.8-0.6,1.3-0.9c0.5-0.2,1-0.4,1.5-0.4c0.6,0,1.1,0.1,1.5,0.3
		c0.4,0.2,0.8,0.5,1.1,0.9s0.5,0.9,0.7,1.4c0.1,0.5,0.2,1.2,0.2,1.8c0,0.7-0.1,1.4-0.3,2c-0.2,0.6-0.5,1.1-0.8,1.5
		c-0.3,0.4-0.7,0.7-1.2,0.9c-0.5,0.2-0.9,0.3-1.4,0.3c-0.4,0-0.8-0.1-1.2-0.3c-0.4-0.2-0.8-0.4-1.2-0.7l0,1.5v2.9H240.9z
		 M244.5,226.2c0.4,0,0.7-0.1,1-0.2c0.3-0.2,0.6-0.4,0.8-0.7s0.4-0.7,0.5-1.1c0.1-0.4,0.2-0.9,0.2-1.5c0-0.5,0-0.9-0.1-1.3
		c-0.1-0.4-0.2-0.7-0.4-1c-0.2-0.3-0.4-0.5-0.7-0.7c-0.3-0.2-0.6-0.2-1-0.2c-0.4,0-0.7,0.1-1.1,0.3c-0.4,0.2-0.8,0.5-1.2,0.9v4.6
		c0.4,0.3,0.8,0.6,1.1,0.7C243.9,226.2,244.2,226.2,244.5,226.2z"/>
	<path d="M254.3,227.5c-0.6,0-1.1-0.1-1.6-0.3c-0.5-0.2-0.9-0.5-1.3-0.9c-0.4-0.4-0.7-0.9-0.9-1.4c-0.2-0.6-0.3-1.2-0.3-1.9
		c0-0.7,0.1-1.4,0.3-1.9c0.2-0.6,0.5-1,0.9-1.4c0.4-0.4,0.8-0.7,1.2-0.9c0.5-0.2,0.9-0.3,1.5-0.3c0.5,0,1,0.1,1.5,0.3
		s0.8,0.5,1.1,0.8c0.3,0.4,0.5,0.8,0.7,1.3c0.2,0.5,0.2,1.1,0.2,1.7c0,0.2,0,0.3,0,0.5c0,0.1,0,0.3,0,0.4h-5.9
		c0.1,0.9,0.3,1.7,0.9,2.2c0.5,0.5,1.2,0.8,2,0.8c0.4,0,0.8-0.1,1.2-0.2c0.4-0.1,0.7-0.3,1-0.5l0.5,1c-0.4,0.2-0.8,0.4-1.3,0.6
		C255.5,227.4,254.9,227.5,254.3,227.5z M251.6,222.2h4.7c0-0.9-0.2-1.6-0.6-2c-0.4-0.5-0.9-0.7-1.6-0.7c-0.3,0-0.6,0.1-0.9,0.2
		c-0.3,0.1-0.5,0.3-0.8,0.5c-0.2,0.2-0.4,0.5-0.6,0.9C251.8,221.4,251.7,221.8,251.6,222.2z"/>
</g>
<g>
	<line class="st3" x1="222" y1="194.1" x2="222" y2="211.6"/>
	<rect x="221.5" y="194.1" class="st3" width="1" height="17.5"/>
</g>
<circle class="st4" cx="222" cy="194.3" r="1.9"/>
<g>
	<rect x="35.1" y="47.1" class="st3" width="1" height="9.8"/>
	<rect x="99" y="47.1" class="st3" width="1" height="9.8"/>
	<rect x="35.7" y="51.3" class="st3" width="63.9" height="1"/>
</g>
<g class="st5">
	<path d="M4.9,16.5V4.7h1.5v5.9h0.1l4.9-5.9H13L9.3,9.2l4.3,7.3h-1.7l-3.5-6.1l-2,2.4v3.7H4.9z"/>
	<path d="M15.1,16.5V7.8h1.2L16.5,9h0.1C17,8.6,17.4,8.2,17.9,8c0.5-0.3,1-0.4,1.6-0.4c0.9,0,1.6,0.3,2,0.9c0.4,0.6,0.6,1.4,0.6,2.6
		v5.5h-1.5v-5.3c0-0.8-0.1-1.4-0.4-1.8C20,9,19.6,8.8,19,8.8c-0.5,0-0.9,0.1-1.2,0.3c-0.3,0.2-0.7,0.6-1.2,1v6.3H15.1z"/>
	<path d="M28.4,16.7c-0.5,0-1.1-0.1-1.5-0.3c-0.5-0.2-0.9-0.5-1.3-0.9s-0.7-0.9-0.9-1.4c-0.2-0.6-0.3-1.2-0.3-1.9
		c0-0.7,0.1-1.4,0.3-1.9s0.5-1.1,0.9-1.4s0.8-0.7,1.3-0.9c0.5-0.2,1-0.3,1.5-0.3c0.5,0,1.1,0.1,1.5,0.3c0.5,0.2,0.9,0.5,1.3,0.9
		c0.4,0.4,0.7,0.9,0.9,1.4s0.3,1.2,0.3,1.9c0,0.7-0.1,1.4-0.3,1.9c-0.2,0.6-0.5,1-0.9,1.4c-0.4,0.4-0.8,0.7-1.3,0.9
		C29.4,16.6,28.9,16.7,28.4,16.7z M28.4,15.5c0.4,0,0.7-0.1,1-0.2c0.3-0.2,0.6-0.4,0.8-0.7c0.2-0.3,0.4-0.6,0.5-1.1
		c0.1-0.4,0.2-0.9,0.2-1.4c0-0.5-0.1-1-0.2-1.4c-0.1-0.4-0.3-0.8-0.5-1.1C30,9.4,29.7,9.2,29.4,9c-0.3-0.2-0.7-0.2-1-0.2
		c-0.4,0-0.7,0.1-1,0.2c-0.3,0.2-0.6,0.4-0.8,0.7c-0.2,0.3-0.4,0.7-0.5,1.1c-0.1,0.4-0.2,0.9-0.2,1.4c0,0.5,0.1,1,0.2,1.4
		c0.1,0.4,0.3,0.8,0.5,1.1s0.5,0.5,0.8,0.7C27.7,15.4,28,15.5,28.4,15.5z"/>
	<path d="M36,16.5l-2.4-8.7h1.5l1.3,5c0.1,0.4,0.2,0.8,0.3,1.2c0.1,0.4,0.2,0.8,0.3,1.2H37c0.1-0.4,0.2-0.8,0.3-1.2
		c0.1-0.4,0.2-0.8,0.3-1.2l1.3-5h1.4l1.4,5c0.1,0.4,0.2,0.8,0.3,1.2c0.1,0.4,0.2,0.8,0.3,1.2h0.1c0.1-0.4,0.2-0.8,0.3-1.2
		s0.2-0.8,0.3-1.2l1.3-5h1.4l-2.3,8.7h-1.8l-1.3-4.7c-0.1-0.4-0.2-0.8-0.3-1.2c-0.1-0.4-0.2-0.8-0.3-1.3h-0.1
		c-0.1,0.4-0.2,0.9-0.3,1.3c-0.1,0.4-0.2,0.8-0.3,1.2l-1.2,4.7H36z"/>
	<path d="M49.1,16.7c-0.6,0-1-0.2-1.2-0.5c-0.2-0.3-0.4-0.8-0.4-1.5v-11H49v11.1c0,0.2,0,0.4,0.1,0.5s0.2,0.1,0.3,0.1
		c0,0,0.1,0,0.1,0c0,0,0.1,0,0.2,0l0.2,1.1c-0.1,0-0.2,0.1-0.3,0.1S49.3,16.7,49.1,16.7z"/>
	<path d="M55.6,16.7c-0.6,0-1.1-0.1-1.6-0.3c-0.5-0.2-1-0.5-1.3-0.9s-0.7-0.9-0.9-1.4c-0.2-0.6-0.3-1.2-0.3-1.9
		c0-0.7,0.1-1.4,0.3-1.9c0.2-0.6,0.5-1.1,0.9-1.4c0.4-0.4,0.8-0.7,1.2-0.9c0.5-0.2,1-0.3,1.5-0.3c0.6,0,1,0.1,1.5,0.3
		C57.3,8,57.7,8.3,58,8.7c0.3,0.4,0.5,0.8,0.7,1.3c0.2,0.5,0.2,1.1,0.2,1.7c0,0.2,0,0.3,0,0.5c0,0.1,0,0.3,0,0.4h-5.9
		c0.1,0.9,0.3,1.7,0.9,2.2c0.5,0.5,1.2,0.8,2,0.8c0.4,0,0.8-0.1,1.2-0.2c0.4-0.1,0.7-0.3,1-0.5l0.5,1c-0.4,0.2-0.8,0.4-1.3,0.6
		C56.8,16.6,56.2,16.7,55.6,16.7z M52.9,11.4h4.7c0-0.9-0.2-1.6-0.6-2c-0.4-0.5-0.9-0.7-1.6-0.7c-0.3,0-0.6,0.1-0.9,0.2
		C54.2,9,54,9.2,53.8,9.4c-0.2,0.2-0.4,0.5-0.6,0.9C53,10.6,52.9,11,52.9,11.4z"/>
	<path d="M64,16.7c-1.1,0-2-0.4-2.6-1.2c-0.7-0.8-1-1.9-1-3.4c0-0.7,0.1-1.3,0.3-1.9c0.2-0.6,0.5-1,0.8-1.4c0.3-0.4,0.7-0.7,1.2-0.9
		c0.5-0.2,0.9-0.3,1.4-0.3c0.5,0,0.9,0.1,1.3,0.3c0.4,0.2,0.7,0.4,1.1,0.7l-0.1-1.5V3.7H68v12.8h-1.2l-0.1-1h-0.1
		c-0.3,0.3-0.7,0.6-1.2,0.9C65,16.6,64.5,16.7,64,16.7z M64.3,15.5c0.4,0,0.8-0.1,1.1-0.3c0.4-0.2,0.7-0.5,1.1-0.9V9.7
		c-0.4-0.3-0.7-0.6-1.1-0.7c-0.3-0.1-0.7-0.2-1.1-0.2c-0.3,0-0.7,0.1-1,0.2c-0.3,0.2-0.6,0.4-0.8,0.7s-0.4,0.6-0.5,1.1
		c-0.1,0.4-0.2,0.9-0.2,1.4c0,1.1,0.2,1.9,0.6,2.5C63,15.2,63.5,15.5,64.3,15.5z"/>
	<path d="M73.9,20.5c-0.5,0-1-0.1-1.5-0.2c-0.4-0.1-0.8-0.3-1.1-0.5s-0.6-0.4-0.7-0.7c-0.2-0.3-0.3-0.6-0.3-1c0-0.4,0.1-0.7,0.3-1.1
		c0.2-0.3,0.5-0.6,0.9-0.9v-0.1c-0.2-0.1-0.4-0.3-0.5-0.5c-0.1-0.2-0.2-0.5-0.2-0.9c0-0.4,0.1-0.7,0.3-1c0.2-0.3,0.4-0.5,0.6-0.6V13
		c-0.3-0.2-0.5-0.6-0.8-1c-0.2-0.4-0.4-0.9-0.4-1.4c0-0.5,0.1-0.9,0.3-1.3c0.2-0.4,0.4-0.7,0.7-1c0.3-0.3,0.6-0.5,1.1-0.6
		c0.4-0.1,0.8-0.2,1.3-0.2c0.2,0,0.5,0,0.7,0.1c0.2,0,0.4,0.1,0.6,0.2h3v1.1h-1.8c0.2,0.2,0.4,0.5,0.5,0.8c0.1,0.3,0.2,0.7,0.2,1
		c0,0.5-0.1,0.9-0.3,1.3c-0.2,0.4-0.4,0.7-0.7,1c-0.3,0.3-0.6,0.5-1,0.6c-0.4,0.1-0.8,0.2-1.2,0.2c-0.2,0-0.4,0-0.7-0.1
		c-0.2-0.1-0.4-0.1-0.6-0.2c-0.2,0.1-0.3,0.3-0.4,0.4c-0.1,0.2-0.2,0.4-0.2,0.6c0,0.3,0.1,0.5,0.3,0.7c0.2,0.2,0.6,0.3,1.2,0.3h1.7
		c1,0,1.8,0.2,2.3,0.5c0.5,0.3,0.8,0.9,0.8,1.6c0,0.4-0.1,0.8-0.3,1.2c-0.2,0.4-0.5,0.7-0.9,1c-0.4,0.3-0.8,0.5-1.4,0.7
		C75.2,20.4,74.6,20.5,73.9,20.5z M74.1,19.5c0.4,0,0.8-0.1,1.1-0.2c0.3-0.1,0.6-0.2,0.9-0.4c0.2-0.2,0.4-0.4,0.6-0.6
		c0.1-0.2,0.2-0.4,0.2-0.7c0-0.4-0.1-0.7-0.4-0.8c-0.3-0.2-0.7-0.2-1.3-0.2h-1.5c-0.2,0-0.3,0-0.5,0c-0.2,0-0.4-0.1-0.6-0.1
		c-0.3,0.2-0.5,0.5-0.7,0.7c-0.1,0.3-0.2,0.5-0.2,0.8c0,0.5,0.2,0.8,0.7,1.1C72.7,19.3,73.3,19.5,74.1,19.5z M73.9,12.7
		c0.3,0,0.5,0,0.7-0.1c0.2-0.1,0.4-0.2,0.6-0.4c0.2-0.2,0.3-0.4,0.4-0.7c0.1-0.3,0.1-0.5,0.1-0.9c0-0.6-0.2-1.1-0.5-1.5
		c-0.4-0.4-0.8-0.5-1.3-0.5c-0.5,0-1,0.2-1.3,0.5c-0.4,0.4-0.5,0.9-0.5,1.5c0,0.3,0,0.6,0.1,0.9c0.1,0.3,0.2,0.5,0.4,0.7
		c0.2,0.2,0.4,0.3,0.6,0.4C73.4,12.7,73.7,12.7,73.9,12.7z"/>
	<path d="M83.3,16.7c-0.6,0-1.1-0.1-1.6-0.3c-0.5-0.2-1-0.5-1.3-0.9s-0.7-0.9-0.9-1.4c-0.2-0.6-0.3-1.2-0.3-1.9
		c0-0.7,0.1-1.4,0.3-1.9c0.2-0.6,0.5-1.1,0.9-1.4c0.4-0.4,0.8-0.7,1.2-0.9c0.5-0.2,1-0.3,1.5-0.3c0.6,0,1,0.1,1.5,0.3
		C85,8,85.3,8.3,85.6,8.7c0.3,0.4,0.5,0.8,0.7,1.3s0.2,1.1,0.2,1.7c0,0.2,0,0.3,0,0.5c0,0.1,0,0.3,0,0.4h-5.9
		c0.1,0.9,0.3,1.7,0.9,2.2c0.5,0.5,1.2,0.8,2,0.8c0.4,0,0.8-0.1,1.2-0.2c0.4-0.1,0.7-0.3,1-0.5l0.5,1c-0.4,0.2-0.8,0.4-1.3,0.6
		C84.4,16.6,83.9,16.7,83.3,16.7z M80.6,11.4h4.7c0-0.9-0.2-1.6-0.6-2c-0.4-0.5-0.9-0.7-1.6-0.7c-0.3,0-0.6,0.1-0.9,0.2
		c-0.3,0.1-0.5,0.3-0.8,0.5c-0.2,0.2-0.4,0.5-0.6,0.9C80.7,10.6,80.6,11,80.6,11.4z"/>
	<path d="M92.4,16.5V4.7h3.5c0.6,0,1.1,0.1,1.6,0.2c0.5,0.1,0.9,0.3,1.3,0.5c0.4,0.2,0.6,0.5,0.8,0.9c0.2,0.4,0.3,0.8,0.3,1.3
		c0,0.6-0.1,1.1-0.4,1.6s-0.7,0.8-1.3,1v0.1c0.7,0.1,1.3,0.4,1.7,0.9c0.4,0.5,0.7,1.1,0.7,1.9c0,0.6-0.1,1.1-0.3,1.5
		c-0.2,0.4-0.5,0.8-0.9,1.1c-0.4,0.3-0.9,0.5-1.4,0.6c-0.6,0.1-1.2,0.2-1.8,0.2H92.4z M93.9,9.7h1.7c1,0,1.7-0.2,2.2-0.5
		c0.4-0.3,0.7-0.8,0.7-1.4c0-0.7-0.2-1.2-0.7-1.5c-0.5-0.3-1.2-0.4-2.1-0.4h-1.8V9.7z M93.9,15.3h2c1,0,1.8-0.2,2.4-0.6
		c0.6-0.4,0.8-1,0.8-1.8c0-0.7-0.3-1.3-0.8-1.6C97.8,11,97,10.9,96,10.9h-2V15.3z"/>
	<path d="M105.4,16.7c-0.9,0-1.6-0.3-2-0.9c-0.4-0.6-0.6-1.4-0.6-2.5V7.8h1.5v5.3c0,0.8,0.1,1.4,0.4,1.8c0.3,0.4,0.7,0.5,1.2,0.5
		c0.5,0,0.9-0.1,1.2-0.3c0.3-0.2,0.7-0.6,1.1-1.1V7.8h1.5v8.7h-1.2l-0.1-1.4h-0.1c-0.4,0.5-0.8,0.9-1.3,1.1
		C106.5,16.6,106,16.7,105.4,16.7z"/>
	<path d="M112.6,16.5V7.8h1.2l0.1,1.6h0.1c0.3-0.6,0.7-1,1.1-1.3c0.4-0.3,0.9-0.5,1.4-0.5c0.3,0,0.7,0.1,0.9,0.2L117.1,9
		c-0.1,0-0.3-0.1-0.4-0.1c-0.1,0-0.3,0-0.4,0c-0.4,0-0.8,0.1-1.2,0.4c-0.4,0.3-0.8,0.8-1,1.6v5.6H112.6z"/>
	<path d="M121,16.7c-0.6,0-1.2-0.1-1.8-0.3c-0.6-0.2-1.1-0.5-1.5-0.9l0.7-1c0.4,0.3,0.8,0.6,1.2,0.8c0.4,0.2,0.9,0.3,1.4,0.3
		c0.6,0,1-0.1,1.3-0.4c0.3-0.3,0.4-0.6,0.4-1c0-0.2-0.1-0.4-0.2-0.6c-0.1-0.2-0.3-0.3-0.5-0.4c-0.2-0.1-0.4-0.2-0.6-0.3
		c-0.2-0.1-0.5-0.2-0.7-0.3c-0.3-0.1-0.6-0.2-0.9-0.4c-0.3-0.1-0.6-0.3-0.8-0.5c-0.2-0.2-0.4-0.4-0.6-0.7c-0.2-0.3-0.2-0.6-0.2-1
		c0-0.3,0.1-0.7,0.2-1c0.1-0.3,0.3-0.6,0.6-0.8c0.3-0.2,0.6-0.4,0.9-0.5c0.4-0.1,0.8-0.2,1.3-0.2c0.6,0,1.1,0.1,1.5,0.3
		c0.5,0.2,0.9,0.4,1.2,0.7l-0.7,0.9c-0.3-0.2-0.6-0.4-0.9-0.6c-0.3-0.1-0.7-0.2-1.1-0.2c-0.6,0-1,0.1-1.2,0.4
		c-0.3,0.3-0.4,0.5-0.4,0.9c0,0.2,0.1,0.4,0.2,0.5c0.1,0.1,0.3,0.3,0.4,0.4s0.4,0.2,0.6,0.3c0.2,0.1,0.5,0.2,0.7,0.3
		c0.3,0.1,0.6,0.2,0.9,0.4c0.3,0.1,0.6,0.3,0.9,0.5c0.3,0.2,0.5,0.4,0.6,0.7c0.2,0.3,0.2,0.6,0.2,1c0,0.4-0.1,0.7-0.2,1
		c-0.1,0.3-0.3,0.6-0.6,0.8c-0.3,0.2-0.6,0.4-1,0.6C122,16.6,121.6,16.7,121,16.7z"/>
	<path d="M128.7,16.7c-0.5,0-0.9-0.1-1.2-0.2s-0.6-0.3-0.8-0.6c-0.2-0.3-0.3-0.6-0.4-0.9c-0.1-0.4-0.1-0.8-0.1-1.2V9h-1.3V7.8
		l1.4-0.1l0.2-2.4h1.2v2.4h2.4V9h-2.4v4.8c0,0.5,0.1,1,0.3,1.2c0.2,0.3,0.5,0.4,1.1,0.4c0.2,0,0.3,0,0.5-0.1c0.2,0,0.3-0.1,0.5-0.2
		l0.3,1.1c-0.2,0.1-0.5,0.2-0.8,0.2C129.2,16.7,129,16.7,128.7,16.7z"/>
</g>
<g>
	<line class="st3" x1="67.6" y1="42.5" x2="67.6" y2="25"/>
	<rect x="67.1" y="25" class="st3" width="1" height="17.5"/>
</g>
<circle class="st4" cx="67.6" cy="42.4" r="1.9"/>
</svg>
