<?xml version="1.0" encoding="utf-8"?>
<!-- Generator: Adobe Illustrator 24.1.2, SVG Export Plug-In . SVG Version: 6.00 Build 0)  -->
<svg version="1.1" id="Layer_1" xmlns="http://www.w3.org/2000/svg" xmlns:xlink="http://www.w3.org/1999/xlink" x="0px" y="0px"
	 viewBox="0 0 664.1 138.9" style="enable-background:new 0 0 664.1 138.9;" xml:space="preserve">
<style type="text/css">
	.st0{fill:#ED1C24;}
	.st1{fill:url(#XMLID_2_);}
	.st2{fill:url(#XMLID_3_);}
	.st3{fill:#1D1D1B;}
	.st4{enable-background:new    ;}
	.st5{fill:#E82429;}
</style>
<path id="XMLID_26_" d="M58.4,15.6c0-2,1.7-3.6,3.6-3.6c1.9,0,3.6,1.5,3.6,3.6c0,2.1-1.7,3.6-3.6,3.6C60,19.2,58.4,17.7,58.4,15.6
	 M62,18.6c1.6,0,2.9-1.3,2.9-3c0-1.7-1.3-3-2.9-3c-1.6,0-2.9,1.3-2.9,3C59.1,17.3,60.3,18.6,62,18.6 M61.2,17.7h-0.6v-4.1h1.6
	c1,0,1.5,0.4,1.5,1.2c0,0.7-0.5,1.1-1.1,1.1l1.2,1.8H63l-1.1-1.8h-0.7V17.7z M62,15.4c0.5,0,1,0,1-0.7c0-0.5-0.5-0.6-0.9-0.6h-0.9
	v1.3H62z"/>
<g id="XMLID_31_">
	<g>
		<path id="XMLID_350_" class="st0" d="M91.3,77.7l-4.5-7h-3.5v7h-2.2V60.1h7.1c3.2,0,5.5,2.1,5.5,5.3c0,3.2-2.2,4.9-4.6,5.1
			l4.8,7.2H91.3z M91.5,65.4c0-2-1.4-3.4-3.5-3.4h-4.6v6.7h4.6C90,68.8,91.5,67.4,91.5,65.4z"/>
		<path id="XMLID_348_" class="st0" d="M97.1,77.7V60.1h2.2v17.6H97.1z"/>
		<path id="XMLID_346_" class="st0" d="M102.2,75.2l1.3-1.7c1.2,1.3,3.1,2.5,5.5,2.5c3.1,0,4.1-1.7,4.1-3c0-4.5-10.4-2-10.4-8.3
			c0-2.9,2.6-4.9,6-4.9c2.7,0,4.8,0.9,6.3,2.5l-1.3,1.6c-1.3-1.5-3.2-2.1-5.1-2.1c-2.1,0-3.6,1.1-3.6,2.8c0,4,10.4,1.7,10.4,8.3
			c0,2.6-1.7,5.2-6.5,5.2C105.9,78,103.6,76.8,102.2,75.2z"/>
		<path id="XMLID_344_" class="st0" d="M129.2,77.7l-6.7-7.9l-1.8,2v5.9h-2.2V60.1h2.2v9.1l7.8-9.1h2.7l-7.3,8.4l8,9.2H129.2z"/>
		<path id="XMLID_342_" class="st0" d="M139.9,75.2l1.3-1.7c1.2,1.3,3.1,2.5,5.5,2.5c3.1,0,4.1-1.7,4.1-3c0-4.5-10.4-2-10.4-8.3
			c0-2.9,2.6-4.9,6-4.9c2.7,0,4.8,0.9,6.3,2.5l-1.3,1.6c-1.3-1.5-3.2-2.1-5.1-2.1c-2.1,0-3.6,1.1-3.6,2.8c0,4,10.4,1.7,10.4,8.3
			c0,2.6-1.7,5.2-6.5,5.2C143.6,78,141.4,76.8,139.9,75.2z"/>
		<path id="XMLID_339_" class="st0" d="M155.6,68.9c0-5.2,3.5-9.1,8.7-9.1c5.2,0,8.7,3.9,8.7,9.1s-3.5,9.1-8.7,9.1
			C159.1,78,155.6,74.1,155.6,68.9z M170.8,68.9c0-4.1-2.5-7.2-6.5-7.2c-4,0-6.5,3-6.5,7.2c0,4.1,2.5,7.2,6.5,7.2
			C168.3,76,170.8,73,170.8,68.9z"/>
		<path id="XMLID_337_" class="st0" d="M176.4,77.7V60.1h2.2v15.7h8.2v2H176.4z"/>
		<path id="XMLID_335_" class="st0" d="M189,70.8V60.1h2.2v10.7c0,3.2,1.7,5.3,5,5.3s5-2,5-5.3V60.1h2.2v10.7c0,4.4-2.4,7.2-7.2,7.2
			C191.4,78,189,75.2,189,70.8z"/>
		<path id="XMLID_333_" class="st0" d="M211.7,77.7V62h-5.6v-2h13.4v2h-5.6v15.7H211.7z"/>
		<path id="XMLID_331_" class="st0" d="M222.3,77.7V60.1h2.2v17.6H222.3z"/>
		<path id="XMLID_324_" class="st0" d="M227.7,68.9c0-5.2,3.5-9.1,8.7-9.1c5.2,0,8.7,3.9,8.7,9.1s-3.5,9.1-8.7,9.1
			C231.2,78,227.7,74.1,227.7,68.9z M242.9,68.9c0-4.1-2.5-7.2-6.5-7.2c-4,0-6.5,3-6.5,7.2c0,4.1,2.5,7.2,6.5,7.2
			C240.4,76,242.9,73,242.9,68.9z"/>
		<path id="XMLID_322_" class="st0" d="M261,77.7l-10.3-14v14h-2.2V60.1h2.2l10.1,13.8V60.1h2.2v17.6H261z"/>
		<path id="XMLID_317_" class="st0" d="M266,75.2l1.3-1.7c1.2,1.3,3.1,2.5,5.5,2.5c3.1,0,4.1-1.7,4.1-3c0-4.5-10.4-2-10.4-8.3
			c0-2.9,2.6-4.9,6-4.9c2.7,0,4.8,0.9,6.3,2.5l-1.3,1.6c-1.3-1.5-3.2-2.1-5.1-2.1c-2.1,0-3.6,1.1-3.6,2.8c0,4,10.4,1.7,10.4,8.3
			c0,2.6-1.7,5.2-6.5,5.2C269.7,78,267.5,76.8,266,75.2z"/>
	</g>
</g>
<g id="XMLID_34_">
	<path id="XMLID_465_" d="M263.8,17c0.5,0,2.9,0,3.7,0c-5.4,6.3-16.2,20-20.1,25.5c-0.4,0-3.1,0-3.7,0l0.5-0.5
		C247.8,37.6,259.8,22.7,263.8,17z"/>
	<path id="XMLID_461_" d="M145.4,17c0.5,0,2.9,0,3.7,0c-5.4,6.3-16.2,20-20.1,25.5c-0.4,0-3.1,0-3.7,0l0.5-0.5
		C129.4,37.6,141.3,22.7,145.4,17z"/>
	<path id="XMLID_459_" d="M244,17c0.9,0.1,4.5,0,5.2,0c3.8,5.4,13.4,19.1,18.6,25.5c-1.3-0.1-5,0-5.2,0
		C260.3,38.8,248.1,22.2,244,17z"/>
	<path id="XMLID_456_" d="M276.5,42.5c-0.7-0.1-3.4-0.1-4,0V16.9c1.7,0.1,2.5,0.1,4,0V42.5z M274.5,10.9c-1.5,0-2.5-1.3-2.5-2.7
		c0-1.4,1.1-2.5,2.5-2.5c1.3,0,2.5,1.1,2.5,2.5C277.1,9.6,275.9,10.9,274.5,10.9z"/>
	<path id="XMLID_454_" d="M284,37.4c1.3,2,3.7,3.9,6.2,3.9c3.3,0,5.4-2.1,5.2-4.9c-0.4-7.4-12.7-2.4-12.8-11.7
		c-0.1-5.1,3.8-7.9,8.6-8c2.8,0,6.1,1.3,6,1.3c-0.6,1.3-1.4,3.9-1.5,3.9c-1-2-2.9-3.6-4.8-3.5c-2.7,0-4.8,1.6-4.8,4.5
		c0.1,6.8,13.1,3.6,12.9,12.1c-0.1,4.6-3.6,8.6-9.6,8.2c-2.9-0.2-7.1-1.7-7-1.8C283.1,40,284,37.4,284,37.4z"/>
	<path id="XMLID_451_" d="M223.9,28.1c0.3-4.5,2.5-9.3,7.5-9.3c5.3,0,6.6,4.6,6.7,9.3H223.9z M242.3,30.2
		c0.5-8.9-4.9-13.1-10.8-13.1c-7.9,0-12.2,5.7-12.2,13.1c0,8.3,5.2,13.1,12.6,13.1c3.3,0,6.6-1.3,9.2-3.2l0-2.7
		c-1.4,1.4-4.3,3.7-7.9,3.7c-6.4,0-9.6-4.9-9.1-10.9L242.3,30.2z"/>
	<path id="XMLID_449_" d="M125.6,17c0.9,0.1,4.5,0,5.2,0c3.8,5.4,13.4,19.1,18.6,25.5c-1.3-0.1-5,0-5.2,0
		C141.8,38.8,129.6,22.2,125.6,17z"/>
	<path id="XMLID_446_" d="M158,42.5c-0.6-0.1-3.4-0.1-4,0V16.9c1.7,0.1,2.5,0.1,4,0V42.5z M156.1,10.9c-1.4,0-2.5-1.3-2.5-2.7
		c0-1.4,1.1-2.5,2.5-2.5c1.3,0,2.5,1.1,2.5,2.5C158.6,9.6,157.5,10.9,156.1,10.9z"/>
	<path id="XMLID_444_" d="M165.5,37.4c1.3,2,3.7,3.9,6.2,3.9c3.3,0,5.4-2.1,5.2-4.9c-0.4-7.4-12.7-2.4-12.8-11.7
		c0-5.1,3.8-7.9,8.6-8c2.8,0,6.1,1.3,6,1.3c-0.6,1.3-1.4,3.9-1.5,3.9c-1-2-2.9-3.6-4.8-3.5c-2.7,0-4.8,1.6-4.8,4.5
		c0.1,6.8,13.1,3.6,12.9,12.1c-0.1,4.6-3.6,8.6-9.6,8.2c-2.9-0.2-7.1-1.7-7-1.8C164.6,40,165.5,37.4,165.5,37.4z"/>
	<path id="XMLID_441_" d="M105.5,28.1c0.3-4.5,2.5-9.3,7.5-9.3c5.3,0,6.6,4.6,6.7,9.3H105.5z M123.8,30.2
		c0.5-8.9-4.9-13.1-10.8-13.1c-7.9,0-12.2,5.7-12.2,13.1c0,8.3,5.2,13.1,12.6,13.1c3.2,0,6.6-1.3,9.2-3.2l0-2.7
		c-1.4,1.4-4.3,3.7-7.9,3.7c-6.5,0-9.6-4.9-9.1-10.9L123.8,30.2z"/>
	<path id="XMLID_439_" d="M85,39.6c3.5,0.1,11.8-0.1,14.7-0.6c0,0.7,0,2.8,0,3.4H80.3V6C81,6.1,84.1,6.1,85,6L85,39.6z"/>
	<path id="XMLID_437_" d="M214.3,42.6h-1.6c-0.6-0.7-23.2-29-23.2-29v29c-0.5-0.1-1-0.1-1.5-0.1c-0.5,0-1,0-1.5,0.1V6h2.1l22.2,27.5
		l0.5,0.5V6c0.7,0,2.4,0,3,0V42.6z"/>
	<path id="XMLID_426_" d="M303.2,20.6c0-2,1.7-3.6,3.6-3.6c1.9,0,3.6,1.5,3.6,3.6c0,2.1-1.7,3.6-3.6,3.6
		C304.8,24.1,303.2,22.6,303.2,20.6z M306.8,23.5c1.6,0,2.9-1.3,2.9-3c0-1.7-1.3-3-2.9-3c-1.6,0-2.9,1.3-2.9,3
		C303.9,22.3,305.2,23.5,306.8,23.5z M306,22.6h-0.6v-4.1h1.6c1,0,1.4,0.4,1.4,1.2c0,0.7-0.5,1.1-1.1,1.1l1.2,1.8h-0.7l-1.1-1.8H306
		V22.6z M306.8,20.3c0.5,0,1,0,1-0.7c0-0.5-0.5-0.6-0.9-0.6H306v1.3H306.8z"/>
</g>
<radialGradient id="XMLID_2_" cx="86.67" cy="205.278" r="25.155" gradientTransform="matrix(1.7729 0 0 1.7729 -113.3031 -348.9724)" gradientUnits="userSpaceOnUse">
	<stop  offset="0" style="stop-color:#FDE6DB"/>
	<stop  offset="6.223321e-03" style="stop-color:#FCE1D6"/>
	<stop  offset="8.475854e-02" style="stop-color:#F3A7A1"/>
	<stop  offset="0.1606" style="stop-color:#EC7675"/>
	<stop  offset="0.2319" style="stop-color:#E65053"/>
	<stop  offset="0.2976" style="stop-color:#E2353A"/>
	<stop  offset="0.3557" style="stop-color:#E0252B"/>
	<stop  offset="0.4" style="stop-color:#DF1F26"/>
	<stop  offset="1" style="stop-color:#B92026"/>
</radialGradient>
<path id="XMLID_424_" class="st1" d="M62.4,38.5c0,16.9-13.7,30.6-30.6,30.6S1.2,55.4,1.2,38.5c0-16.9,13.7-30.6,30.6-30.6
	S62.4,21.6,62.4,38.5z"/>
<radialGradient id="XMLID_3_" cx="-5978.2969" cy="202.4691" r="334.0273" gradientTransform="matrix(0.2663 0 0 0.2663 1631.5321 -37.4972)" gradientUnits="userSpaceOnUse">
	<stop  offset="0" style="stop-color:#FDE6DB"/>
	<stop  offset="0.6" style="stop-color:#DF1F26"/>
	<stop  offset="1" style="stop-color:#B92026"/>
</radialGradient>
<path id="XMLID_423_" class="st2" d="M42.3,15.5c0.2-0.1,7-0.5,6.9-0.7c0-0.2-4.9-0.1-6.9,0c0.8-0.3,4.2-1.4,4.2-1.8
	c0-0.3-5.8,1.7-6.6,1.8c-5.2-4.3-10.1-6-14.6-6.3c-2.4,0.5-4.7,1.3-6.8,2.3c5.1-1.1,10.9-0.8,17.2,2.8c-10.1-3.1-18.6-1.4-25,2.6
	C7,19.9,4.2,24.4,2.6,29.6C8,18.6,19.8,11.2,35.4,14.7C13.4,14,3.7,29.1,1.6,43c0.7,4.9,2.5,9.3,5.3,13.2C2,40.5,9.5,17.1,35.7,15.8
	C7.6,21.6,5.2,51.3,13.9,63.3c2.6,1.9,5.5,3.4,8.5,4.3c-12.7-8.7-11.7-43.3,14.1-51c-22.9,11-22.2,45.3-7.6,52.4
	c1,0.1,1.9,0.1,2.9,0.1c1.9,0,3.7-0.1,5.6-0.5c-15.2-5.2-21.9-40.6,2-52.2c0,0,0.8,0.6,0.8,0.6c3.1,2.3,9.1,8.6,9.4,8.4
	c0.3-0.2-5.2-5.9-7.5-8.1c2.9,1.3,8.9,4.6,9.1,4.4c0.2-0.2-5.9-3.8-9-5.4c3.2,0.5,9.1,1.8,9.1,1.6C51.4,17.6,46,16.2,42.3,15.5z"/>
<g>
	<rect x="1.1" y="102.4" class="st3" width="1" height="9.8"/>
	<rect x="65" y="102.4" class="st3" width="1" height="9.8"/>
	<rect x="1.7" y="106.6" class="st3" width="63.9" height="1"/>
</g>
<g class="st4">
	<path class="st5" d="M375.6,57.8V26.3h9c1.8,0,3.4,0.2,4.8,0.5c1.5,0.3,2.7,0.8,3.7,1.6c1,0.7,1.8,1.7,2.4,2.9
		c0.6,1.2,0.9,2.6,0.9,4.4c0,1.7-0.3,3.1-0.8,4.3c-0.6,1.2-1.4,2.2-2.4,3c-1,0.8-2.2,1.4-3.7,1.8c-1.4,0.4-3,0.6-4.7,0.6h-5.2v12.5
		H375.6z M379.6,42h4.7c2.8,0,4.8-0.5,6.1-1.6c1.3-1,2-2.7,2-4.9c0-2.3-0.7-3.8-2.1-4.7c-1.4-0.9-3.5-1.3-6.2-1.3h-4.5V42z"/>
	<path class="st5" d="M402.4,57.8V34.4h3.3l0.3,4.2h0.1c0.8-1.5,1.8-2.6,2.9-3.5c1.1-0.9,2.4-1.3,3.7-1.3c0.9,0,1.8,0.2,2.5,0.5
		l-0.8,3.5c-0.4-0.1-0.7-0.2-1.1-0.3c-0.3-0.1-0.7-0.1-1.2-0.1c-1,0-2,0.4-3.1,1.2c-1.1,0.8-2,2.2-2.8,4.2v15H402.4z"/>
	<path class="st5" d="M427.6,58.3c-1.4,0-2.8-0.3-4.1-0.8s-2.4-1.3-3.4-2.4c-1-1-1.8-2.3-2.4-3.8c-0.6-1.5-0.9-3.2-0.9-5.2
		c0-2,0.3-3.7,0.9-5.2c0.6-1.5,1.4-2.8,2.4-3.9c1-1.1,2.1-1.9,3.4-2.4s2.7-0.8,4.1-0.8c1.4,0,2.8,0.3,4.1,0.8s2.4,1.3,3.4,2.4
		c1,1.1,1.8,2.3,2.4,3.9c0.6,1.5,0.9,3.3,0.9,5.2c0,1.9-0.3,3.6-0.9,5.2c-0.6,1.5-1.4,2.8-2.4,3.8c-1,1-2.1,1.8-3.4,2.4
		S429,58.3,427.6,58.3z M427.6,55.1c1,0,1.9-0.2,2.7-0.6s1.5-1,2.1-1.8c0.6-0.8,1-1.7,1.4-2.8c0.3-1.1,0.5-2.3,0.5-3.6
		s-0.2-2.6-0.5-3.7c-0.3-1.1-0.8-2.1-1.4-2.9s-1.3-1.4-2.1-1.8c-0.8-0.4-1.7-0.6-2.7-0.6s-1.9,0.2-2.7,0.6c-0.8,0.4-1.5,1-2.1,1.8
		c-0.6,0.8-1,1.8-1.4,2.9c-0.3,1.1-0.5,2.3-0.5,3.7s0.2,2.6,0.5,3.6c0.3,1.1,0.8,2,1.4,2.8c0.6,0.8,1.3,1.4,2.1,1.8
		C425.7,54.9,426.6,55.1,427.6,55.1z"/>
	<path class="st5" d="M452.5,58.3c-2.9,0-5.3-1.1-7-3.2c-1.7-2.1-2.6-5.1-2.6-9c0-1.9,0.3-3.6,0.8-5.1c0.6-1.5,1.3-2.8,2.2-3.9
		c0.9-1.1,2-1.9,3.2-2.4s2.5-0.9,3.8-0.9c1.3,0,2.5,0.2,3.5,0.7c1,0.5,2,1.1,3,2l-0.2-4v-9h4v34.2h-3.3l-0.3-2.7h-0.1
		c-0.9,0.9-2,1.7-3.2,2.3C455.2,58,453.9,58.3,452.5,58.3z M453.4,55c1.1,0,2.1-0.3,3.1-0.8c1-0.5,1.9-1.3,2.9-2.4V39.6
		c-1-0.9-1.9-1.5-2.9-1.9c-0.9-0.4-1.8-0.6-2.8-0.6c-0.9,0-1.8,0.2-2.6,0.6c-0.8,0.4-1.5,1-2.1,1.8c-0.6,0.8-1.1,1.7-1.4,2.8
		c-0.4,1.1-0.5,2.3-0.5,3.6c0,2.8,0.6,5,1.7,6.6C449.8,54.2,451.3,55,453.4,55z"/>
	<path class="st5" d="M478,58.3c-2.5,0-4.3-0.8-5.4-2.3c-1.1-1.5-1.7-3.8-1.7-6.8V34.4h4v14.3c0,2.2,0.3,3.8,1,4.8
		c0.7,1,1.8,1.5,3.3,1.5c1.2,0,2.3-0.3,3.2-0.9c0.9-0.6,2-1.6,3.1-3V34.4h3.9v23.3h-3.3l-0.3-3.6h-0.1c-1.1,1.3-2.2,2.3-3.4,3.1
		C481.1,58,479.6,58.3,478,58.3z"/>
	<path class="st5" d="M506.5,58.3c-1.5,0-3-0.3-4.3-0.8c-1.3-0.5-2.5-1.3-3.5-2.4c-1-1-1.7-2.3-2.3-3.8c-0.6-1.5-0.8-3.2-0.8-5.2
		c0-2,0.3-3.7,0.9-5.2c0.6-1.5,1.4-2.8,2.4-3.9c1-1.1,2.2-1.9,3.6-2.4s2.8-0.8,4.3-0.8c1.5,0,2.8,0.3,3.9,0.8c1.1,0.5,2,1.2,2.9,1.9
		l-2,2.6c-0.7-0.6-1.4-1.1-2.1-1.5c-0.8-0.4-1.6-0.6-2.5-0.6c-1.1,0-2,0.2-2.9,0.6c-0.9,0.4-1.7,1-2.3,1.8c-0.6,0.8-1.1,1.8-1.5,2.9
		c-0.4,1.1-0.6,2.3-0.6,3.7s0.2,2.6,0.5,3.6s0.8,2,1.5,2.8c0.6,0.8,1.4,1.4,2.3,1.8c0.9,0.4,1.9,0.6,2.9,0.6c1.1,0,2.1-0.2,3-0.7
		c0.9-0.5,1.7-1,2.5-1.7l1.7,2.6c-1.1,0.9-2.2,1.7-3.5,2.2C509.3,58.1,507.9,58.3,506.5,58.3z"/>
	<path class="st5" d="M526.1,58.3c-1.2,0-2.3-0.2-3.1-0.6c-0.8-0.4-1.5-0.9-2.1-1.6s-0.9-1.5-1.1-2.4c-0.2-1-0.3-2-0.3-3.2V37.7
		h-3.5v-3l3.6-0.2l0.5-6.5h3.3v6.5h6.3v3.2h-6.3v13c0,1.4,0.3,2.6,0.8,3.3c0.5,0.8,1.5,1.2,2.8,1.2c0.4,0,0.9-0.1,1.3-0.2
		c0.5-0.1,0.9-0.3,1.3-0.4l0.8,3c-0.6,0.2-1.3,0.4-2.1,0.6C527.5,58.3,526.8,58.3,526.1,58.3z"/>
	<path class="st5" d="M544.9,57.8V26.3h4.1l11.4,19.8l3.4,6.5h0.2c-0.1-1.6-0.2-3.3-0.3-5c-0.1-1.7-0.2-3.4-0.2-5.1V26.3h3.8v31.5
		h-4.1l-11.4-19.8l-3.4-6.5h-0.2c0.1,1.6,0.2,3.2,0.4,4.9s0.2,3.3,0.2,5v16.5H544.9z"/>
	<path class="st5" d="M581,58.3c-2,0-3.6-0.6-4.9-1.7c-1.3-1.2-1.9-2.8-1.9-4.9c0-2.6,1.1-4.5,3.4-5.9s5.9-2.3,10.9-2.9
		c0-0.7-0.1-1.5-0.2-2.2c-0.1-0.7-0.4-1.3-0.7-1.9c-0.4-0.5-0.8-1-1.5-1.3s-1.4-0.5-2.4-0.5c-1.3,0-2.6,0.3-3.8,0.8
		c-1.2,0.5-2.2,1.1-3.2,1.7l-1.5-2.7c1.1-0.7,2.4-1.4,4-2c1.6-0.7,3.3-1,5.2-1c2.8,0,4.9,0.9,6.2,2.6c1.3,1.7,1.9,4.1,1.9,7v14.3
		h-3.3l-0.3-2.8h-0.1c-1.1,0.9-2.3,1.7-3.6,2.4S582.4,58.3,581,58.3z M582.1,55.2c1.1,0,2.2-0.3,3.2-0.8c1-0.5,2-1.3,3.2-2.3v-6.5
		c-2,0.3-3.6,0.6-4.9,0.9c-1.3,0.4-2.4,0.8-3.2,1.2c-0.8,0.5-1.4,1-1.8,1.7c-0.4,0.6-0.6,1.3-0.6,2c0,1.3,0.4,2.3,1.2,2.9
		C580,54.9,581,55.2,582.1,55.2z"/>
	<path class="st5" d="M599.8,57.8V34.4h3.3l0.3,3.4h0.1c1-1.1,2.1-2.1,3.3-2.8c1.2-0.8,2.5-1.1,3.9-1.1c1.8,0,3.2,0.4,4.2,1.2
		s1.8,1.9,2.2,3.3c1.2-1.3,2.4-2.4,3.7-3.2c1.2-0.8,2.6-1.2,4-1.2c2.4,0,4.2,0.8,5.4,2.3c1.2,1.5,1.8,3.8,1.8,6.8v14.8h-3.9V43.5
		c0-2.2-0.4-3.8-1.1-4.8c-0.7-1-1.8-1.5-3.3-1.5c-1.8,0-3.7,1.2-5.9,3.6v16.9h-3.9V43.5c0-2.2-0.4-3.8-1.1-4.8
		c-0.7-1-1.8-1.5-3.3-1.5c-1.8,0-3.7,1.2-5.9,3.6v16.9H599.8z"/>
	<path class="st5" d="M649,58.3c-1.6,0-3-0.3-4.4-0.8c-1.4-0.6-2.5-1.4-3.6-2.4c-1-1-1.8-2.3-2.4-3.8c-0.6-1.5-0.9-3.2-0.9-5.1
		s0.3-3.6,0.9-5.2c0.6-1.5,1.4-2.8,2.4-3.9c1-1.1,2.1-1.9,3.3-2.4c1.2-0.6,2.5-0.8,3.9-0.8c1.5,0,2.8,0.3,4,0.8
		c1.2,0.5,2.1,1.2,2.9,2.2s1.4,2.1,1.8,3.5c0.4,1.3,0.6,2.8,0.6,4.5c0,0.4,0,0.8,0,1.2c0,0.4-0.1,0.7-0.1,1h-15.7
		c0.2,2.5,0.9,4.5,2.3,5.9c1.4,1.5,3.2,2.2,5.4,2.2c1.1,0,2.2-0.2,3.1-0.5c0.9-0.3,1.8-0.8,2.7-1.3l1.4,2.6c-1,0.6-2.2,1.2-3.4,1.7
		C652.1,58.1,650.6,58.3,649,58.3z M641.7,44.2h12.5c0-2.4-0.5-4.2-1.5-5.4c-1-1.2-2.4-1.8-4.2-1.8c-0.8,0-1.6,0.2-2.4,0.5
		c-0.8,0.3-1.4,0.8-2,1.4c-0.6,0.6-1.1,1.4-1.5,2.3C642.1,42.1,641.8,43.1,641.7,44.2z"/>
</g>
<g class="st4">
	<path d="M15.8,131.6c-0.5,0-0.9,0-1.3-0.1s-0.7-0.2-1-0.4c-0.3-0.1-0.6-0.3-0.8-0.5c-0.2-0.2-0.5-0.4-0.7-0.6l0.8-1
		c0.3,0.4,0.8,0.7,1.2,1s1,0.4,1.7,0.4c0.7,0,1.3-0.2,1.7-0.6c0.4-0.4,0.7-0.9,0.7-1.5c0-0.3-0.1-0.6-0.2-0.9s-0.3-0.5-0.6-0.7
		s-0.7-0.4-1.1-0.5c-0.5-0.1-1-0.2-1.7-0.2v-1.1c0.6,0,1.1-0.1,1.5-0.2c0.4-0.1,0.8-0.3,1-0.5c0.3-0.2,0.4-0.4,0.5-0.7
		c0.1-0.3,0.2-0.5,0.2-0.8c0-0.6-0.2-1-0.5-1.3s-0.8-0.5-1.4-0.5c-0.5,0-0.9,0.1-1.3,0.3s-0.8,0.5-1.1,0.8l-0.8-0.9
		c0.4-0.4,0.9-0.8,1.5-1c0.5-0.3,1.1-0.4,1.8-0.4c0.5,0,1,0.1,1.4,0.2c0.4,0.1,0.8,0.3,1.1,0.6s0.5,0.5,0.7,0.9
		c0.2,0.4,0.3,0.8,0.3,1.2c0,0.7-0.2,1.3-0.6,1.7c-0.4,0.4-0.9,0.8-1.5,1v0.1c0.3,0.1,0.7,0.2,1,0.4c0.3,0.2,0.6,0.4,0.8,0.6
		c0.2,0.2,0.4,0.5,0.5,0.9c0.1,0.3,0.2,0.7,0.2,1.1c0,0.5-0.1,1-0.3,1.4c-0.2,0.4-0.5,0.8-0.8,1c-0.3,0.3-0.7,0.5-1.2,0.6
		C16.8,131.6,16.3,131.6,15.8,131.6z"/>
	<path d="M21.2,131.4v-0.9c0.9-0.9,1.6-1.6,2.3-2.3c0.7-0.7,1.2-1.3,1.7-1.9s0.8-1.1,1-1.6c0.2-0.5,0.4-1,0.4-1.4
		c0-0.7-0.2-1.2-0.5-1.6c-0.4-0.4-0.9-0.6-1.6-0.6c-0.5,0-0.9,0.1-1.3,0.4c-0.4,0.3-0.8,0.6-1.1,1l-0.8-0.8c0.5-0.5,1-1,1.5-1.3
		c0.5-0.3,1.2-0.5,1.9-0.5c1.1,0,1.9,0.3,2.5,0.9c0.6,0.6,0.9,1.4,0.9,2.5c0,0.5-0.1,1.1-0.4,1.6s-0.6,1.1-1,1.7
		c-0.4,0.6-0.9,1.2-1.5,1.8c-0.6,0.6-1.2,1.3-1.9,2c0.3,0,0.6,0,1-0.1c0.3,0,0.7,0,1,0h3.3v1.3H21.2z"/>
	<path d="M34.5,135.1v-12.4h1.2l0.1,1h0.1c0.4-0.3,0.8-0.6,1.3-0.9c0.5-0.2,1-0.4,1.5-0.4c0.6,0,1.1,0.1,1.5,0.3
		c0.4,0.2,0.8,0.5,1.1,0.9s0.5,0.9,0.7,1.4s0.2,1.2,0.2,1.8c0,0.7-0.1,1.4-0.3,2s-0.5,1.1-0.8,1.5c-0.3,0.4-0.8,0.7-1.2,0.9
		c-0.5,0.2-0.9,0.3-1.4,0.3c-0.4,0-0.8-0.1-1.2-0.3c-0.4-0.2-0.8-0.4-1.2-0.7l0,1.5v3H34.5z M38.1,130.4c0.4,0,0.7-0.1,1-0.2
		c0.3-0.2,0.6-0.4,0.8-0.7s0.4-0.7,0.5-1.1c0.1-0.4,0.2-0.9,0.2-1.5c0-0.5,0-0.9-0.1-1.3c-0.1-0.4-0.2-0.7-0.4-1s-0.4-0.5-0.7-0.7
		c-0.3-0.2-0.6-0.2-1.1-0.2c-0.4,0-0.7,0.1-1.1,0.3s-0.8,0.5-1.2,0.9v4.6c0.4,0.3,0.8,0.6,1.2,0.7C37.5,130.3,37.8,130.4,38.1,130.4
		z"/>
	<path d="M43,131.4l2.9-4.6l-2.6-4.2h1.6l1.2,1.9c0.1,0.2,0.3,0.5,0.4,0.7s0.3,0.5,0.5,0.7h0.1c0.1-0.2,0.3-0.5,0.4-0.7
		c0.1-0.2,0.3-0.5,0.4-0.7l1.1-1.9h1.5l-2.6,4.3l2.8,4.4h-1.6l-1.3-2c-0.2-0.3-0.3-0.5-0.5-0.8c-0.2-0.3-0.3-0.5-0.5-0.8h-0.1
		c-0.2,0.3-0.3,0.5-0.5,0.8s-0.3,0.5-0.4,0.8l-1.2,2H43z"/>
	<path d="M52.8,123.9l-0.7-0.5l1-1.7l-1.7-0.7l0.3-0.8l1.8,0.5l0.2-1.9h0.9l0.2,1.9l1.9-0.4l0.3,0.8l-1.7,0.7l1,1.7l-0.7,0.5
		l-1.3-1.5L52.8,123.9z"/>
</g>
<g>
	<rect x="310.4" y="102.4" class="st3" width="1" height="9.8"/>
	<rect x="374.3" y="102.4" class="st3" width="1" height="9.8"/>
	<rect x="310.9" y="106.6" class="st3" width="63.9" height="1"/>
</g>
<g class="st4">
	<path d="M327,131.6c-0.5,0-0.9,0-1.3-0.1s-0.7-0.2-1-0.4c-0.3-0.2-0.6-0.3-0.8-0.5c-0.2-0.2-0.5-0.4-0.7-0.6l0.8-1
		c0.3,0.4,0.8,0.7,1.2,1c0.5,0.3,1,0.4,1.7,0.4c0.7,0,1.3-0.2,1.7-0.6c0.4-0.4,0.7-0.9,0.7-1.5c0-0.3-0.1-0.6-0.2-0.9
		c-0.1-0.3-0.3-0.5-0.6-0.7c-0.3-0.2-0.7-0.4-1.1-0.5c-0.5-0.1-1-0.2-1.7-0.2v-1.1c0.6,0,1.1-0.1,1.5-0.2c0.4-0.1,0.8-0.3,1-0.4
		s0.4-0.4,0.5-0.7c0.1-0.3,0.2-0.5,0.2-0.8c0-0.6-0.2-1-0.5-1.3c-0.4-0.3-0.8-0.5-1.4-0.5c-0.5,0-0.9,0.1-1.3,0.3
		c-0.4,0.2-0.8,0.5-1.1,0.8l-0.8-0.9c0.4-0.4,0.9-0.8,1.5-1c0.5-0.3,1.1-0.4,1.8-0.4c0.5,0,1,0.1,1.4,0.2c0.4,0.1,0.8,0.3,1.1,0.6
		c0.3,0.2,0.5,0.5,0.7,0.9c0.2,0.4,0.3,0.8,0.3,1.2c0,0.7-0.2,1.3-0.6,1.7c-0.4,0.4-0.9,0.8-1.5,1v0.1c0.3,0.1,0.7,0.2,1,0.4
		c0.3,0.2,0.6,0.4,0.8,0.6c0.2,0.2,0.4,0.5,0.5,0.9s0.2,0.7,0.2,1.1c0,0.5-0.1,1-0.3,1.4c-0.2,0.4-0.5,0.8-0.8,1
		c-0.3,0.3-0.7,0.5-1.2,0.6C328,131.6,327.5,131.6,327,131.6z"/>
	<path d="M332.4,131.4v-0.9c0.9-0.9,1.6-1.6,2.3-2.3c0.7-0.7,1.2-1.3,1.7-1.9s0.8-1.1,1-1.6s0.4-1,0.4-1.4c0-0.7-0.2-1.2-0.5-1.6
		c-0.4-0.4-0.9-0.6-1.6-0.6c-0.5,0-0.9,0.1-1.3,0.4c-0.4,0.3-0.8,0.6-1.1,1l-0.8-0.8c0.5-0.5,1-1,1.5-1.3c0.5-0.3,1.2-0.5,1.9-0.5
		c1.1,0,1.9,0.3,2.5,0.9s0.9,1.4,0.9,2.5c0,0.5-0.1,1.1-0.4,1.6c-0.2,0.5-0.6,1.1-1,1.7c-0.4,0.6-0.9,1.2-1.5,1.8
		c-0.6,0.6-1.2,1.3-1.9,2c0.3,0,0.6,0,1-0.1s0.7,0,1,0h3.3v1.3H332.4z"/>
	<path d="M345.7,135.1v-12.4h1.2l0.1,1h0.1c0.4-0.3,0.8-0.6,1.3-0.9c0.5-0.2,1-0.4,1.5-0.4c0.6,0,1.1,0.1,1.5,0.3
		c0.4,0.2,0.8,0.5,1.1,0.9c0.3,0.4,0.5,0.9,0.7,1.4c0.2,0.5,0.2,1.2,0.2,1.8c0,0.7-0.1,1.4-0.3,2s-0.5,1.1-0.8,1.5
		c-0.3,0.4-0.8,0.7-1.2,0.9c-0.5,0.2-0.9,0.3-1.4,0.3c-0.4,0-0.8-0.1-1.2-0.3c-0.4-0.2-0.8-0.4-1.2-0.7l0,1.5v3H345.7z M349.4,130.4
		c0.4,0,0.7-0.1,1-0.2s0.6-0.4,0.8-0.7c0.2-0.3,0.4-0.7,0.5-1.1c0.1-0.4,0.2-0.9,0.2-1.5c0-0.5,0-0.9-0.1-1.3s-0.2-0.7-0.4-1
		c-0.2-0.3-0.4-0.5-0.7-0.7s-0.6-0.2-1.1-0.2c-0.4,0-0.7,0.1-1.1,0.3c-0.4,0.2-0.8,0.5-1.2,0.9v4.6c0.4,0.3,0.8,0.6,1.2,0.7
		C348.7,130.3,349.1,130.4,349.4,130.4z"/>
	<path d="M354.2,131.4l2.9-4.6l-2.6-4.2h1.6l1.2,1.9c0.1,0.2,0.3,0.5,0.4,0.7c0.1,0.2,0.3,0.5,0.5,0.7h0.1c0.1-0.2,0.3-0.5,0.4-0.7
		s0.3-0.5,0.4-0.7l1.1-1.9h1.5l-2.6,4.3l2.8,4.4h-1.6l-1.3-2c-0.2-0.3-0.3-0.5-0.5-0.8c-0.2-0.3-0.3-0.5-0.5-0.8h-0.1
		c-0.2,0.3-0.3,0.5-0.5,0.8c-0.1,0.3-0.3,0.5-0.4,0.8l-1.2,2H354.2z"/>
	<path d="M364,123.9l-0.7-0.5l1-1.7l-1.7-0.7l0.3-0.8l1.8,0.4l0.2-1.9h0.9l0.2,1.9l1.9-0.4l0.3,0.8l-1.7,0.7l1,1.7l-0.7,0.5
		l-1.3-1.5L364,123.9z"/>
</g>
</svg>
