<svg id="Layer_1" data-name="Layer 1" xmlns="http://www.w3.org/2000/svg" xmlns:xlink="http://www.w3.org/1999/xlink" height="160px" viewBox="0 0 403.18 244.77"><defs><style>.cls-1{fill:#fff;}.cls-2{clip-path:url(#clip-path);}.cls-3{clip-path:url(#clip-path-2);}</style><clipPath id="clip-path"><path class="cls-1" d="M-2709.26,76.49l2.1,38.38a3.37,3.37,0,0,0,3.38,3.2h13.7a3.37,3.37,0,0,0,3.38-3.2l2.1-38.38a3.39,3.39,0,0,0-3.38-3.58h-17.9A3.39,3.39,0,0,0-2709.26,76.49Zm12.33,46.67a13,13,0,0,0-13,13,13,13,0,0,0,13,13,13,13,0,0,0,13-13A13,13,0,0,0-2696.93,123.16Zm70-14.12a70,70,0,0,1-70,70,70,70,0,0,1-70-70,70,70,0,0,1,70-70A70,70,0,0,1-2626.93,109Z"/></clipPath><clipPath id="clip-path-2"><path class="cls-1" d="M-2526.41,146.21-2474.75,94a4.58,4.58,0,0,0,0-6.42l-6.35-6.42a4.47,4.47,0,0,0-6.36,0l-42.12,42.56-19.67-19.87a4.46,4.46,0,0,0-6.35,0l-6.35,6.42a4.55,4.55,0,0,0,0,6.41l29.19,29.49A4.44,4.44,0,0,0-2526.41,146.21Zm77.47-37.17a70,70,0,0,1-70,70,70,70,0,0,1-70-70,70,70,0,0,1,70-70A70,70,0,0,1-2448.94,109Z"/></clipPath></defs><path class="cls-1" d="M-2709.26,76.49l2.1,38.38a3.37,3.37,0,0,0,3.38,3.2h13.7a3.37,3.37,0,0,0,3.38-3.2l2.1-38.38a3.39,3.39,0,0,0-3.38-3.58h-17.9A3.39,3.39,0,0,0-2709.26,76.49Zm12.33,46.67a13,13,0,0,0-13,13,13,13,0,0,0,13,13,13,13,0,0,0,13-13A13,13,0,0,0-2696.93,123.16Zm70-14.12a70,70,0,0,1-70,70,70,70,0,0,1-70-70,70,70,0,0,1,70-70A70,70,0,0,1-2626.93,109Z"/><g class="cls-2"><rect class="cls-1" x="-6686.93" y="-1200.96" width="9600" height="3205"/></g><path class="cls-1" d="M-2526.41,146.21-2474.75,94a4.58,4.58,0,0,0,0-6.42l-6.35-6.42a4.47,4.47,0,0,0-6.36,0l-42.12,42.56-19.67-19.87a4.46,4.46,0,0,0-6.35,0l-6.35,6.42a4.55,4.55,0,0,0,0,6.41l29.19,29.49A4.44,4.44,0,0,0-2526.41,146.21Zm77.47-37.17a70,70,0,0,1-70,70,70,70,0,0,1-70-70,70,70,0,0,1,70-70A70,70,0,0,1-2448.94,109Z"/><g class="cls-3"><rect class="cls-1" x="-6508.94" y="-1060.96" width="9600" height="3205"/></g><path class="cls-1" d="M30.25,10.25A20.25,20.25,0,1,1,10,30.5,20.27,20.27,0,0,1,30.25,10.25m0-10A30.25,30.25,0,1,0,60.49,30.5,30.25,30.25,0,0,0,30.25.25Z"/><circle class="cls-1" cx="30.25" cy="30.5" r="10.9"/><path class="cls-1" d="M30.25,102.14A20.25,20.25,0,1,1,10,122.39a20.27,20.27,0,0,1,20.25-20.25m0-10a30.25,30.25,0,1,0,30.24,30.25A30.25,30.25,0,0,0,30.25,92.14Z"/><path class="cls-1" d="M30.25,194A20.25,20.25,0,1,1,10,214.27,20.27,20.27,0,0,1,30.25,194m0-10a30.25,30.25,0,1,0,30.24,30.25A30.25,30.25,0,0,0,30.25,184Z"/><rect class="cls-1" x="80.28" y="24.5" width="322" height="12" rx="3"/><rect class="cls-1" x="80.28" y="115.39" width="322" height="12" rx="3"/><rect class="cls-1" x="80.28" y="208.27" width="322" height="12" rx="3"/></svg>