<?xml version="1.0" encoding="UTF-8"?>
<svg width="120px" height="28px" viewBox="0 0 120 28" version="1.1" xmlns="http://www.w3.org/2000/svg" xmlns:xlink="http://www.w3.org/1999/xlink">
    <title>Group</title>
    <defs>
        <polygon id="path-1" points="0 0.303428571 38.0348571 0.303428571 38.0348571 27.9657143 0 27.9657143"></polygon>
    </defs>
    <g id="Page-1" stroke="none" stroke-width="1" fill="none" fill-rule="evenodd">
        <g id="XL-1280px-template" transform="translate(-993.000000, -794.000000)">
            <g id="Group" transform="translate(993.000000, 794.000000)">
                <g id="Group-3">
                    <mask id="mask-2" fill="white">
                        <use xlink:href="#path-1"></use>
                    </mask>
                    <g id="Clip-2"></g>
                    <path d="M11.8371429,13.6697143 C18.0937143,13.6697143 25.6377143,12.1977143 25.6377143,6.17028571 C25.6377143,1.89942857 21.2777143,0.303428571 17.2942857,0.303428571 C11.2102857,0.303428571 0,3.68971429 0,15.7091429 C0,21.7394286 4.59085714,25.2182857 11.8731429,25.2182857 C19.5725714,25.2182857 25.168,20.2091429 26.8794286,13.4845714 C22.3582857,21.2834286 16.6097143,23.7114286 11.9205714,23.7114286 C6.09657143,23.7114286 3.876,19.3857143 3.876,15.6817143 C3.876,5.076 12.1085714,1.51142857 17.3011429,1.51142857 C20.8068571,1.51142857 22.8594286,3.76057143 22.8594286,6.22742857 C22.8594286,13.0377143 13.0474286,12.844 8.56914286,12.844 C8.11085714,12.844 6.69828571,12.8542857 6.42114286,12.8422857 L5.47657143,13.8211429 C7.52742857,14.1114286 10.3645714,14.6765714 13.444,16.2342857 C19.8462857,19.4662857 25.8697143,28 33.8434286,28 C36.736,28 37.4891429,27.1188571 38.0348571,26.3468571 C34.1297143,28.8348571 27.5862857,24.52 24.0582857,21.1817143 C21.1542857,18.4354286 18.5897143,15.3194286 11.8371429,13.6697143" id="Fill-1" fill="#E77D34" mask="url(#mask-2)"></path>
                </g>
                <path d="M50.6171429,10.2731429 C50.6171429,8.42628571 49.3462857,7.23828571 47.4702857,7.23828571 L43.0817143,7.23828571 C42.9605714,7.23828571 42.9011429,7.3 42.9011429,7.42571429 L42.9011429,13.0891429 C42.9011429,13.2131429 42.9605714,13.2765714 43.0817143,13.2765714 L47.4702857,13.2765714 C49.3462857,13.2765714 50.6171429,12.088 50.6171429,10.2731429 M51.0108571,25.1971429 C50.7691429,25.1971429 50.648,25.104 50.5571429,24.8845714 L46.6228571,16.5925714 L43.0817143,16.5925714 C42.9605714,16.5925714 42.9011429,16.6554286 42.9011429,16.7811429 L42.9011429,24.8845714 C42.9011429,25.0731429 42.78,25.1971429 42.5971429,25.1971429 L39.632,25.1971429 C39.4502857,25.1971429 39.3291429,25.0731429 39.3291429,24.8845714 L39.3291429,4.23428571 C39.3291429,4.04571429 39.4502857,3.92057143 39.632,3.92057143 L47.5914286,3.92057143 C51.3742857,3.92057143 54.1582857,6.51771429 54.1582857,10.2731429 C54.1582857,13.0577143 52.6148571,15.216 50.2537143,16.1228571 L54.5822857,24.7897143 C54.7028571,25.0097143 54.5822857,25.1971429 54.3702857,25.1971429 L51.0108571,25.1971429" id="Fill-4" fill="#FFFFFF"></path>
                <path d="M57.7417143,4.23428571 C57.7417143,4.04571429 57.8628571,3.92057143 58.0445714,3.92057143 L70.5388571,3.92057143 C70.72,3.92057143 70.8411429,4.04571429 70.8411429,4.23428571 L70.8411429,6.92514286 C70.8411429,7.11314286 70.72,7.23828571 70.5388571,7.23828571 L61.4942857,7.23828571 C61.3731429,7.23828571 61.3131429,7.3 61.3131429,7.42571429 L61.3131429,12.6194286 C61.3131429,12.7445714 61.3731429,12.8068571 61.4942857,12.8068571 L68.7668571,12.8068571 C68.948,12.8068571 69.0697143,12.9325714 69.0697143,13.1194286 L69.0697143,15.8097143 C69.0697143,15.9982857 68.948,16.1228571 68.7668571,16.1228571 L61.4942857,16.1228571 C61.3731429,16.1228571 61.3131429,16.1862857 61.3131429,16.3114286 L61.3131429,21.6925714 C61.3131429,21.8182857 61.3731429,21.8805714 61.4942857,21.8805714 L70.5388571,21.8805714 C70.72,21.8805714 70.8411429,22.0062857 70.8411429,22.1942857 L70.8411429,24.8845714 C70.8411429,25.0731429 70.72,25.1971429 70.5388571,25.1971429 L58.0445714,25.1971429 C57.8628571,25.1971429 57.7417143,25.0731429 57.7417143,24.8845714 L57.7417143,4.23428571" id="Fill-5" fill="#FFFFFF"></path>
                <path d="M74.1725714,4.23428571 C74.1725714,4.04571429 74.2942857,3.92057143 74.4748571,3.92057143 L77.4417143,3.92057143 C77.6228571,3.92057143 77.744,4.04571429 77.744,4.23428571 L77.744,21.6925714 C77.744,21.8182857 77.8045714,21.8805714 77.9257143,21.8805714 L86.3382857,21.8805714 C86.52,21.8805714 86.6417143,22.0062857 86.6417143,22.1942857 L86.6417143,24.8845714 C86.6417143,25.0731429 86.52,25.1971429 86.3382857,25.1971429 L74.4748571,25.1971429 C74.2942857,25.1971429 74.1725714,25.0731429 74.1725714,24.8845714 L74.1725714,4.23428571" id="Fill-6" fill="#FFFFFF"></path>
                <path d="M101.440571,25.2217143 C101.198286,25.2217143 101.078286,25.128 100.956,24.9091429 L96.8108571,17.6811429 L96.7497143,17.6811429 L92.5748571,24.9091429 C92.4531429,25.128 92.3325714,25.2217143 92.0897143,25.2217143 L88.8211429,25.2217143 C88.6097143,25.2217143 88.5194286,25.0348571 88.6394286,24.816 L94.7834286,14.2085714 L89.0937143,4.35314286 C88.9731429,4.13314286 89.0634286,3.94628571 89.2748571,3.94628571 L92.544,3.94628571 C92.7868571,3.94628571 92.9074286,4.03942857 93.0285714,4.25942857 L96.7497143,10.7034286 L96.8108571,10.7034286 L100.532,4.25942857 C100.653714,4.03942857 100.774857,3.94628571 101.017143,3.94628571 L104.285714,3.94628571 C104.497143,3.94628571 104.588,4.13314286 104.466857,4.35314286 L98.7777143,14.2085714 L104.921143,24.816 C105.041714,25.0348571 104.950857,25.2217143 104.738857,25.2217143 L101.440571,25.2217143" id="Fill-7" fill="#FFFFFF"></path>
                <path d="M109.241714,11.168 C109.179429,11.168 109.138286,11.1251429 109.138286,11.0605714 L109.138286,5.12628571 C109.138286,5.08342857 109.117714,5.06114286 109.076,5.06114286 L107.245714,5.06114286 C107.183429,5.06114286 107.140571,5.02 107.140571,4.95485714 L107.140571,4.04057143 C107.140571,3.97714286 107.183429,3.93428571 107.245714,3.93428571 L112.244,3.93428571 C112.307429,3.93428571 112.347429,3.97714286 112.347429,4.04057143 L112.347429,4.95485714 C112.347429,5.02 112.307429,5.06114286 112.244,5.06114286 L110.414286,5.06114286 C110.372571,5.06114286 110.352,5.08342857 110.352,5.12628571 L110.352,11.0605714 C110.352,11.1251429 110.311429,11.168 110.249143,11.168 L109.241714,11.168" id="Fill-8" fill="#FFFFFF"></path>
                <path d="M113.590286,4.04057143 C113.590286,3.97657143 113.630857,3.93428571 113.692,3.93428571 L114.608,3.93428571 C114.701143,3.93428571 114.752,3.96628571 114.783429,4.04057143 L116.707429,8.49771429 L116.747429,8.49771429 L118.642286,4.04057143 C118.672,3.96628571 118.724,3.93428571 118.816,3.93428571 L119.720571,3.93428571 C119.783429,3.93428571 119.824571,3.97657143 119.824571,4.04057143 L119.824571,11.0617143 C119.824571,11.1245714 119.783429,11.1674286 119.720571,11.1674286 L118.826857,11.1674286 C118.764571,11.1674286 118.724,11.1245714 118.724,11.0617143 L118.724,6.636 L118.682286,6.636 L117.200571,10.04 C117.16,10.136 117.097714,10.1782857 117.005143,10.1782857 L116.408571,10.1782857 C116.316571,10.1782857 116.254286,10.136 116.212,10.04 L114.732,6.636 L114.690857,6.636 L114.690857,11.0617143 C114.690857,11.1245714 114.649143,11.1674286 114.587429,11.1674286 L113.692,11.1674286 C113.630857,11.1674286 113.590286,11.1245714 113.590286,11.0617143 L113.590286,4.04057143" id="Fill-9" fill="#FFFFFF"></path>
            </g>
        </g>
    </g>
</svg>