<?xml version="1.0" encoding="utf-8"?>
<!-- Generator: Adobe Illustrator 24.1.3, SVG Export Plug-In . SVG Version: 6.00 Build 0)  -->
<svg version="1.1" id="Layer_1" xmlns="http://www.w3.org/2000/svg" xmlns:xlink="http://www.w3.org/1999/xlink" x="0px" y="0px"
	 viewBox="0 0 44.8 14.5" style="enable-background:new 0 0 44.8 14.5;" xml:space="preserve">
<style type="text/css">
	.st0{fill:#FFFFFF;}
</style>
<circle cx="21.6" cy="7.3" r="7"/>
<path class="st0" d="M37.4,0.3c-3.9,0-7,3.1-7,7s3.1,7,7,7s7-3.1,7-7S41.3,0.3,37.4,0.3z M41,12.1c-1,0.7-2.2,1.2-3.6,1.2
	c-1.4,0-2.6-0.5-3.6-1.2v-0.4c0-1,0.8-1.8,1.8-1.8c0.3,0,0.7,0.3,1.8,0.3c1,0,1.5-0.3,1.8-0.3c1,0,1.8,0.8,1.8,1.8v0.4H41z
	 M41.9,11.3C41.7,10,40.6,9,39.3,9c-0.6,0-0.8,0.3-1.8,0.3c-1,0-1.2-0.3-1.8-0.3c-1.4,0-2.5,1-2.7,2.3c-1-1.1-1.7-2.5-1.7-4.1
	c0-3.3,2.8-6.1,6.1-6.1c3.3,0,6.1,2.8,6.1,6.1C43.5,8.8,42.9,10.3,41.9,11.3z M37.4,3.4c-1.4,0-2.5,1.1-2.5,2.5s1.1,2.5,2.5,2.5
	c1.4,0,2.5-1.1,2.5-2.5S38.8,3.4,37.4,3.4z M37.4,7.4c-0.8,0-1.6-0.7-1.6-1.6s0.7-1.6,1.6-1.6C38.2,4.3,39,5,39,5.9
	S38.3,7.4,37.4,7.4z"/>
<g>
	<path class="st0" d="M0.1,11.1l2.4-7.8h2.1l2.4,7.8H5.2L4.7,9.3H2.4l-0.5,1.9H0.1z M2.9,7.2L2.7,7.9h1.7L4.2,7.2
		C4.1,6.8,4,6.3,3.9,5.9C3.8,5.5,3.7,5,3.6,4.6h0C3.4,5.1,3.3,5.5,3.2,5.9C3.1,6.3,3,6.8,2.9,7.2z"/>
	<path class="st0" d="M9.5,11.3c-0.3,0-0.5,0-0.7-0.1s-0.4-0.2-0.6-0.4c-0.2-0.2-0.3-0.4-0.4-0.6S7.7,9.7,7.7,9.5
		C7.7,8.8,8,8.3,8.5,8C9,7.6,9.9,7.4,11,7.3c0-0.3-0.1-0.5-0.2-0.6c-0.1-0.2-0.4-0.2-0.7-0.2c-0.3,0-0.5,0-0.8,0.1
		C9.1,6.7,8.8,6.8,8.5,7L7.9,5.8c0.4-0.2,0.8-0.4,1.2-0.6S10,5,10.4,5c0.8,0,1.4,0.2,1.8,0.7s0.6,1.1,0.6,2v3.4h-1.4l-0.1-0.6h0
		c-0.3,0.2-0.5,0.4-0.8,0.5S9.8,11.3,9.5,11.3z M10.1,9.9c0.2,0,0.4,0,0.5-0.1c0.1-0.1,0.3-0.2,0.5-0.4v-1C10.4,8.4,10,8.6,9.7,8.7
		C9.5,8.9,9.4,9.1,9.4,9.3c0,0.2,0.1,0.3,0.2,0.4S9.9,9.9,10.1,9.9z"/>
</g>
</svg>
