<?xml version="1.0" encoding="utf-8"?>
<!-- Generator: Adobe Illustrator 24.1.2, SVG Export Plug-In . SVG Version: 6.00 Build 0)  -->
<svg version="1.1" id="Layer_1" xmlns="http://www.w3.org/2000/svg" xmlns:xlink="http://www.w3.org/1999/xlink" x="0px" y="0px"
	 viewBox="0 0 228 129.1" style="enable-background:new 0 0 228 129.1;" xml:space="preserve">
<style type="text/css">
	.st0{opacity:0.75;}
	.st1{fill:none;stroke:#FFFFFF;stroke-miterlimit:10;}
	.st2{fill:#FFFFFF;}
</style>
<g class="st0">
	<path class="st1" d="M217.5,48.1c0,1.3-1.3,2.3-2.8,2.3H11.4c-1.6,0-2.8-1.1-2.8-2.3V25.9c0-1.3,1.3-2.3,2.8-2.3h203.3
		c1.6,0,2.8,1.1,2.8,2.3V48.1z"/>
</g>
<desc>Created with Sketch.</desc>
<desc>Created with Sketch.</desc>
<desc>Created with Sketch.</desc>
<rect x="8.6" y="8.1" class="st2" width="89.7" height="8.2"/>
<g class="st0">
	<path class="st1" d="M217.5,107.5c0,1.3-1.3,2.3-2.8,2.3H11.4c-1.6,0-2.8-1.1-2.8-2.3V85.3c0-1.3,1.3-2.3,2.8-2.3h203.3
		c1.6,0,2.8,1.1,2.8,2.3V107.5z"/>
</g>
<rect x="8.6" y="67.5" class="st2" width="121.1" height="8.2"/>
</svg>
