<svg id="Layer_1" data-name="Layer 1" xmlns="http://www.w3.org/2000/svg" xmlns:xlink="http://www.w3.org/1999/xlink" height="160px" viewBox="0 0 540 294.21"><defs><style>.cls-1{fill:#fff;}.cls-2{clip-path:url(#clip-path);}.cls-3{clip-path:url(#clip-path-2);}</style><clipPath id="clip-path"><path class="cls-1" d="M-3356.64,107.07l2.1,38.38a3.39,3.39,0,0,0,3.38,3.21h13.7a3.38,3.38,0,0,0,3.38-3.21l2.1-38.38a3.39,3.39,0,0,0-3.38-3.57h-17.89A3.39,3.39,0,0,0-3356.64,107.07Zm12.33,46.67a13,13,0,0,0-13,13,13,13,0,0,0,13,13,13,13,0,0,0,13-13A13,13,0,0,0-3344.31,153.74Zm70-14.12a70,70,0,0,1-70,70,70,70,0,0,1-70-70,70,70,0,0,1,70-70A70,70,0,0,1-3274.31,139.62Z"/></clipPath><clipPath id="clip-path-2"><path class="cls-1" d="M-3173.78,176.8l51.65-52.18a4.58,4.58,0,0,0,0-6.42l-6.35-6.41a4.46,4.46,0,0,0-6.35,0L-3177,154.34l-19.67-19.87a4.46,4.46,0,0,0-6.35,0l-6.35,6.42a4.55,4.55,0,0,0,0,6.41l29.19,29.5A4.47,4.47,0,0,0-3173.78,176.8Zm77.47-37.18a70,70,0,0,1-70,70,70,70,0,0,1-70-70,70,70,0,0,1,70-70A70,70,0,0,1-3096.31,139.62Z"/></clipPath></defs><path class="cls-1" d="M-3356.64,107.07l2.1,38.38a3.39,3.39,0,0,0,3.38,3.21h13.7a3.38,3.38,0,0,0,3.38-3.21l2.1-38.38a3.39,3.39,0,0,0-3.38-3.57h-17.89A3.39,3.39,0,0,0-3356.64,107.07Zm12.33,46.67a13,13,0,0,0-13,13,13,13,0,0,0,13,13,13,13,0,0,0,13-13A13,13,0,0,0-3344.31,153.74Zm70-14.12a70,70,0,0,1-70,70,70,70,0,0,1-70-70,70,70,0,0,1,70-70A70,70,0,0,1-3274.31,139.62Z"/><g class="cls-2"><rect class="cls-1" x="-7334.31" y="-1170.38" width="9600" height="3205"/></g><path class="cls-1" d="M-3173.78,176.8l51.65-52.18a4.58,4.58,0,0,0,0-6.42l-6.35-6.41a4.46,4.46,0,0,0-6.35,0L-3177,154.34l-19.67-19.87a4.46,4.46,0,0,0-6.35,0l-6.35,6.42a4.55,4.55,0,0,0,0,6.41l29.19,29.5A4.47,4.47,0,0,0-3173.78,176.8Zm77.47-37.18a70,70,0,0,1-70,70,70,70,0,0,1-70-70,70,70,0,0,1,70-70A70,70,0,0,1-3096.31,139.62Z"/><g class="cls-3"><rect class="cls-1" x="-7156.31" y="-1030.38" width="9600" height="3205"/></g><rect class="cls-1" width="257.88" height="12" rx="3"/><path class="cls-1" d="M527.57,37.71a2,2,0,0,1,2,2v74a2,2,0,0,1-2,2H12a2,2,0,0,1-2-2v-74a2,2,0,0,1,2-2H527.57m0-10H12a12,12,0,0,0-12,12v74a12,12,0,0,0,12,12H527.57a12,12,0,0,0,12-12v-74a12,12,0,0,0-12-12Z"/><rect class="cls-1" y="159.97" width="257.88" height="12" rx="3"/><path class="cls-1" d="M527.57,197.68a2,2,0,0,1,2,2v74a2,2,0,0,1-2,2H12a2,2,0,0,1-2-2v-74a2,2,0,0,1,2-2H527.57m0-10H12a12,12,0,0,0-12,12v74a12,12,0,0,0,12,12H527.57a12,12,0,0,0,12-12v-74a12,12,0,0,0-12-12Z"/></svg>