<svg id="Layer_1" data-name="Layer 1" xmlns="http://www.w3.org/2000/svg" viewBox="0 0 38.54 8.02"><defs><style>.cls-1{fill:#fff;}</style></defs><title>typography</title><path class="cls-1" d="M15.73,16.86,18.18,9H20.3l2.45,7.82H20.88L20.4,15H18l-.48,1.86Zm2.83-4-.19.72H20l-.18-.72c-.11-.39-.22-.8-.32-1.24s-.21-.87-.32-1.28h0l-.3,1.28C18.78,12.1,18.68,12.51,18.56,12.9Z" transform="translate(-15.73 -8.99)"/><path class="cls-1" d="M25.13,17a2,2,0,0,1-.74-.14,1.59,1.59,0,0,1-.56-.38,1.89,1.89,0,0,1-.48-1.28,1.69,1.69,0,0,1,.79-1.47A5.89,5.89,0,0,1,26.7,13a1,1,0,0,0-.23-.63.91.91,0,0,0-.71-.24,2.06,2.06,0,0,0-.76.15,4.92,4.92,0,0,0-.81.39l-.63-1.16a6.6,6.6,0,0,1,1.2-.57,4.23,4.23,0,0,1,1.34-.21,2.31,2.31,0,0,1,1.76.65,3,3,0,0,1,.6,2v3.4H27l-.12-.61h0a3.74,3.74,0,0,1-.81.55A2,2,0,0,1,25.13,17Zm.6-1.37a.92.92,0,0,0,.51-.13,2.4,2.4,0,0,0,.46-.37V14.09a3.22,3.22,0,0,0-1.3.39.71.71,0,0,0-.36.6.5.5,0,0,0,.19.42A.82.82,0,0,0,25.73,15.64Z" transform="translate(-15.73 -8.99)"/><path class="cls-1" d="M29.15,16.86,31.7,9h1.63l2.56,7.84H34.43l-.61-2.12H31.17l-.61,2.12Zm2.62-4.17-.27,1h2l-.27-1c-.13-.42-.25-.85-.37-1.29s-.23-.87-.34-1.3h-.05l-.33,1.31C32,11.85,31.9,12.27,31.77,12.69Z" transform="translate(-15.73 -8.99)"/><path class="cls-1" d="M38.39,17a1.7,1.7,0,0,1-1.26-.48,1.66,1.66,0,0,1-.48-1.25,1.72,1.72,0,0,1,.19-.83,1.65,1.65,0,0,1,.63-.63,3.9,3.9,0,0,1,1.08-.45,9.64,9.64,0,0,1,1.56-.27,2,2,0,0,0-.06-.44,1.06,1.06,0,0,0-.18-.37.93.93,0,0,0-.33-.26,1.26,1.26,0,0,0-.51-.09,2.25,2.25,0,0,0-.84.17,5.13,5.13,0,0,0-.81.41l-.51-.92A5.72,5.72,0,0,1,38,11.06a3.59,3.59,0,0,1,1.32-.23,2.06,2.06,0,0,1,1.65.65,2.92,2.92,0,0,1,.54,1.89v3.49H40.36l-.1-.64h0a4.31,4.31,0,0,1-.85.56A2.1,2.1,0,0,1,38.39,17Zm.44-1.08a1.35,1.35,0,0,0,.66-.17,3.37,3.37,0,0,0,.62-.48V14a6.38,6.38,0,0,0-1,.19,2.63,2.63,0,0,0-.66.27,1,1,0,0,0-.36.34.77.77,0,0,0-.11.41.67.67,0,0,0,.24.58A1,1,0,0,0,38.83,15.93Z" transform="translate(-15.73 -8.99)"/><path class="cls-1" d="M45,9H46.1l2.66,7.87H47.7l-1.37-4.39c-.28-.88-.54-1.75-.79-2.65h0c-.24.91-.49,1.77-.78,2.65l-1.38,4.39h-1Zm-1.26,4.68h3.62v.8H43.71Z" transform="translate(-15.73 -8.99)"/><path class="cls-1" d="M49.7,15.35c0-1.27,1.1-1.9,3.58-2.17,0-.75-.25-1.48-1.2-1.48a3.18,3.18,0,0,0-1.74.63L50,11.65a4.32,4.32,0,0,1,2.29-.76c1.43,0,2,.95,2,2.4v3.57h-.82l-.08-.69h0a3.13,3.13,0,0,1-1.93.84A1.59,1.59,0,0,1,49.7,15.35Zm3.58.09V13.82c-2,.24-2.61.72-2.61,1.46s.45.93,1,.93A2.38,2.38,0,0,0,53.28,15.44Z" transform="translate(-15.73 -8.99)"/></svg>