<?xml version="1.0" encoding="UTF-8"?>
<svg width="32px" height="28px" viewBox="0 0 32 28" version="1.1" xmlns="http://www.w3.org/2000/svg" xmlns:xlink="http://www.w3.org/1999/xlink">
    <title>Shape</title>
    <g id="Page-1" stroke="none" stroke-width="1" fill="none" fill-rule="evenodd">
        <g id="Account-locked-–-Grid-1024px" transform="translate(-782.000000, -271.000000)" fill="#F58100" fill-rule="nonzero">
            <path d="M813.63984,295.063211 C814.665284,296.812883 813.378118,299 811.330008,299 L784.669682,299 C782.617627,299 781.336405,296.809492 782.359849,295.063211 L795.690179,272.31168 C796.716123,270.561188 799.285733,270.56436 800.309844,272.31168 L813.63984,295.063211 Z M798.363636,290.384615 C796.957826,290.384615 795.818182,291.509649 795.818182,292.897436 C795.818182,294.285223 796.957826,295.410256 798.363636,295.410256 C799.769447,295.410256 800.909091,294.285223 800.909091,292.897436 C800.909091,291.509649 799.769447,290.384615 798.363636,290.384615 Z M795.819241,281.732651 L796.251415,289.055728 C796.271631,289.398405 796.578196,289.666667 796.949488,289.666667 L799.777785,289.666667 C800.149077,289.666667 800.455642,289.398405 800.475858,289.055728 L800.908032,281.732651 C800.929879,281.362513 800.611021,281.051282 800.209959,281.051282 L796.517256,281.051282 C796.116193,281.051282 795.797394,281.362513 795.819241,281.732651 L795.819241,281.732651 Z" id="Shape"></path>
        </g>
    </g>
</svg>