<?xml version="1.0" encoding="utf-8"?>
<!-- Generator: Adobe Illustrator 25.0.1, SVG Export Plug-In . SVG Version: 6.00 Build 0)  -->
<svg version="1.1" id="Layer_1" xmlns="http://www.w3.org/2000/svg" xmlns:xlink="http://www.w3.org/1999/xlink" height="170px" x="0px" y="0px"
	 viewBox="0 0 540 329" style="enable-background:new 0 0 540 329;" xml:space="preserve">
<style type="text/css">
	.st0{fill:#FFFFFF;}
	.st1{clip-path:url(#SVGID_2_);}
	.st2{clip-path:url(#SVGID_4_);}
</style>
<path class="st0" d="M1176.4,107.1l2.1,38.4c0.1,1.8,1.6,3.2,3.4,3.2h13.7c1.8,0,3.3-1.4,3.4-3.2l2.1-38.4c0.1-1.9-1.3-3.5-3.2-3.6
	c-0.1,0-0.1,0-0.2,0h-17.9c-1.9,0-3.4,1.5-3.4,3.4C1176.4,106.9,1176.4,107,1176.4,107.1z M1188.7,153.7c-7.2,0-13,5.8-13,13
	s5.8,13,13,13s13-5.8,13-13S1195.9,153.7,1188.7,153.7L1188.7,153.7z M1258.7,139.6c0,38.7-31.3,70-70,70s-70-31.3-70-70
	s31.3-70,70-70S1258.7,101,1258.7,139.6z"/>
<g>
	<defs>
		<path id="SVGID_1_" d="M1176.4,107.1l2.1,38.4c0.1,1.8,1.6,3.2,3.4,3.2h13.7c1.8,0,3.3-1.4,3.4-3.2l2.1-38.4
			c0.1-1.9-1.3-3.5-3.2-3.6c-0.1,0-0.1,0-0.2,0h-17.9c-1.9,0-3.4,1.5-3.4,3.4C1176.4,106.9,1176.4,107,1176.4,107.1z M1188.7,153.7
			c-7.2,0-13,5.8-13,13s5.8,13,13,13s13-5.8,13-13S1195.9,153.7,1188.7,153.7L1188.7,153.7z M1258.7,139.6c0,38.7-31.3,70-70,70
			s-70-31.3-70-70s31.3-70,70-70S1258.7,101,1258.7,139.6z"/>
	</defs>
	<clipPath id="SVGID_2_">
		<use xlink:href="#SVGID_1_"  style="overflow:visible;"/>
	</clipPath>
	<g class="st1">
		<rect x="-2801.3" y="-1170.4" class="st0" width="9600" height="3205"/>
	</g>
</g>
<path class="st0" d="M1359.2,176.8l51.7-52.2c1.8-1.8,1.8-4.6,0-6.4l-6.3-6.4c-1.7-1.8-4.6-1.8-6.3,0c0,0,0,0,0,0l-42.1,42.6
	l-19.7-19.9c-1.7-1.8-4.6-1.8-6.3,0c0,0,0,0,0,0l-6.3,6.4c-1.7,1.8-1.7,4.6,0,6.4l29.2,29.5C1354.6,178.6,1357.4,178.6,1359.2,176.8
	C1359.2,176.8,1359.2,176.8,1359.2,176.8z M1436.7,139.6c0,38.7-31.3,70-70,70s-70-31.3-70-70s31.3-70,70-70
	S1436.7,101,1436.7,139.6z"/>
<g>
	<defs>
		<path id="SVGID_3_" d="M1359.2,176.8l51.7-52.2c1.8-1.8,1.8-4.6,0-6.4l-6.3-6.4c-1.7-1.8-4.6-1.8-6.3,0c0,0,0,0,0,0l-42.1,42.6
			l-19.7-19.9c-1.7-1.8-4.6-1.8-6.3,0c0,0,0,0,0,0l-6.3,6.4c-1.7,1.8-1.7,4.6,0,6.4l29.2,29.5
			C1354.6,178.6,1357.4,178.6,1359.2,176.8C1359.2,176.8,1359.2,176.8,1359.2,176.8z M1436.7,139.6c0,38.7-31.3,70-70,70
			s-70-31.3-70-70s31.3-70,70-70S1436.7,101,1436.7,139.6z"/>
	</defs>
	<clipPath id="SVGID_4_">
		<use xlink:href="#SVGID_3_"  style="overflow:visible;"/>
	</clipPath>
	<g class="st2">
		<rect x="-2623.3" y="-1030.4" class="st0" width="9600" height="3205"/>
	</g>
</g>
<g>
	<path class="st0" d="M293.3,261.1c2.1,4.6,6.2,7.1,10.8,7.1c1.7,0,3.3-0.4,5-1.2c6.2-2.9,8.7-10,5.8-16.2c0,0-22.9-52.5-27.1-71.6
		c-1.7-6.7-2.5-24.6-2.9-32.9c0-2.9,1.7-5.4,4.2-6.2l51.2-15.4c6.2-1.7,10-8.7,8.3-15c-1.7-6.2-8.7-10-15-8.3
		c0,0-47.5,15.4-64.6,15.4c-16.7,0-63.7-15-63.7-15c-6.2-1.7-13.3,1.2-15.4,7.5c-2.1,6.7,1.7,13.7,8.3,15.4l51.2,15.4
		c2.5,0.8,4.6,3.3,4.2,6.2c-0.4,8.3-1.2,26.2-2.9,32.9c-4.2,19.2-27.1,71.6-27.1,71.6c-2.9,6.2,0,13.3,5.8,16.2
		c1.7,0.8,3.3,1.2,5,1.2c4.6,0,9.2-2.5,10.8-7.1l24.6-50L293.3,261.1z"/>
	<circle class="st0" cx="270" cy="81.2" r="23.3"/>
	<path class="st0" d="M434.5,164.5C434.5,73.7,360.8,0,270,0S105.5,73.7,105.5,164.5S179.2,329,270,329S434.5,255.3,434.5,164.5z
		 M133,164.5c0-75.8,61.6-137,137-137s137,61.2,137,137s-61.2,137-137,137S133,240.3,133,164.5z"/>
</g>
</svg>
