<?xml version="1.0" encoding="utf-8"?>
<!-- Generator: Adobe Illustrator 24.1.2, SVG Export Plug-In . SVG Version: 6.00 Build 0)  -->
<svg version="1.1" id="Layer_1" xmlns="http://www.w3.org/2000/svg" xmlns:xlink="http://www.w3.org/1999/xlink" x="0px" y="0px"
	 viewBox="0 0 228 104.1" style="enable-background:new 0 0 228 104.1;" xml:space="preserve">
<style type="text/css">
	.st0{fill:#FFFFFF;}
	.st1{fill:#020202;}
</style>
<desc>Created with Sketch.</desc>
<desc>Created with Sketch.</desc>
<desc>Created with Sketch.</desc>
<rect x="66" y="10.8" class="st0" width="93.6" height="11.6"/>
<path class="st1" d="M54.3,27.7H36.6c-1.3,0-2.4-1.1-2.4-2.4V7.7c0-1.3,1.1-2.4,2.4-2.4h17.6c1.3,0,2.4,1.1,2.4,2.4v17.6
	C56.6,26.6,55.5,27.7,54.3,27.7z M44,22.9l9.2-9.2c0.3-0.3,0.3-0.8,0-1.1l-1.1-1.1c-0.3-0.3-0.8-0.3-1.1,0l-7.5,7.5l-3.5-3.5
	c-0.3-0.3-0.8-0.3-1.1,0l-1.1,1.1c-0.3,0.3-0.3,0.8,0,1.1l5.2,5.2C43.2,23.1,43.7,23.1,44,22.9L44,22.9z"/>
<desc>Created with Sketch.</desc>
<desc>Created with Sketch.</desc>
<desc>Created with Sketch.</desc>
<rect x="66" y="46.2" class="st0" width="124.9" height="11.6"/>
<path class="st1" d="M54.3,63.1H36.6c-1.3,0-2.4-1.1-2.4-2.4V43.1c0-1.3,1.1-2.4,2.4-2.4h17.6c1.3,0,2.4,1.1,2.4,2.4v17.6
	C56.6,62.1,55.5,63.1,54.3,63.1z M44,58.3l9.2-9.2c0.3-0.3,0.3-0.8,0-1.1l-1.1-1.1c-0.3-0.3-0.8-0.3-1.1,0l-7.5,7.5l-3.5-3.5
	c-0.3-0.3-0.8-0.3-1.1,0L37.6,52c-0.3,0.3-0.3,0.8,0,1.1l5.2,5.2C43.2,58.6,43.7,58.6,44,58.3L44,58.3z"/>
<rect x="66.3" y="81.6" class="st0" width="81.6" height="11.6"/>
<path class="st1" d="M54.5,98.6H36.9c-1.3,0-2.4-1.1-2.4-2.4V78.6c0-1.3,1.1-2.4,2.4-2.4h17.6c1.3,0,2.4,1.1,2.4,2.4v17.6
	C56.9,97.5,55.8,98.6,54.5,98.6z M44.3,93.7l9.2-9.2c0.3-0.3,0.3-0.8,0-1.1l-1.1-1.1c-0.3-0.3-0.8-0.3-1.1,0l-7.5,7.5l-3.5-3.5
	c-0.3-0.3-0.8-0.3-1.1,0l-1.1,1.1c-0.3,0.3-0.3,0.8,0,1.1l5.2,5.2C43.4,94,44,94,44.3,93.7L44.3,93.7z"/>
</svg>
