<?xml version="1.0" encoding="utf-8"?>
<!-- Generator: Adobe Illustrator 24.1.2, SVG Export Plug-In . SVG Version: 6.00 Build 0)  -->
<svg version="1.1" id="Layer_1" xmlns="http://www.w3.org/2000/svg" xmlns:xlink="http://www.w3.org/1999/xlink" x="0px" y="0px"
	 viewBox="0 0 252.8 134.4" style="enable-background:new 0 0 252.8 134.4;" xml:space="preserve">
<style type="text/css">
	.st0{fill:#FFFFFF;}
	.st1{fill:#020202;}
</style>
<desc>Created with Sketch.</desc>
<desc>Created with Sketch.</desc>
<desc>Created with Sketch.</desc>
<rect x="80.5" y="25.8" class="st0" width="93.6" height="11.6"/>
<path class="st1" d="M68.8,42.7H51.1c-1.3,0-2.4-1.1-2.4-2.4V22.7c0-1.3,1.1-2.4,2.4-2.4h17.6c1.3,0,2.4,1.1,2.4,2.4v17.6
	C71.1,41.6,70,42.7,68.8,42.7z M58.5,37.9l9.2-9.2c0.3-0.3,0.3-0.8,0-1.1l-1.1-1.1c-0.3-0.3-0.8-0.3-1.1,0L58,34l-3.5-3.5
	c-0.3-0.3-0.8-0.3-1.1,0l-1.1,1.1c-0.3,0.3-0.3,0.8,0,1.1l5.2,5.2C57.7,38.1,58.2,38.1,58.5,37.9L58.5,37.9z"/>
<rect x="80.5" y="61.2" class="st0" width="124.9" height="11.6"/>
<path class="st1" d="M68.8,78.1H51.1c-1.3,0-2.4-1.1-2.4-2.4V58.1c0-1.3,1.1-2.4,2.4-2.4h17.6c1.3,0,2.4,1.1,2.4,2.4v17.6
	C71.1,77.1,70,78.1,68.8,78.1z M58.5,73.3l9.2-9.2c0.3-0.3,0.3-0.8,0-1.1l-1.1-1.1c-0.3-0.3-0.8-0.3-1.1,0L58,69.4l-3.5-3.5
	c-0.3-0.3-0.8-0.3-1.1,0L52.1,67c-0.3,0.3-0.3,0.8,0,1.1l5.2,5.2C57.7,73.6,58.2,73.6,58.5,73.3L58.5,73.3z"/>
<rect x="80.8" y="96.6" class="st0" width="81.6" height="11.6"/>
<path class="st1" d="M69,113.6H51.4c-1.3,0-2.4-1.1-2.4-2.4V93.6c0-1.3,1.1-2.4,2.4-2.4H69c1.3,0,2.4,1.1,2.4,2.4v17.6
	C71.4,112.5,70.3,113.6,69,113.6z M58.8,108.7l9.2-9.2c0.3-0.3,0.3-0.8,0-1.1l-1.1-1.1c-0.3-0.3-0.8-0.3-1.1,0l-7.5,7.5l-3.5-3.5
	c-0.3-0.3-0.8-0.3-1.1,0l-1.1,1.1c-0.3,0.3-0.3,0.8,0,1.1l5.2,5.2C57.9,109,58.5,109,58.8,108.7L58.8,108.7z"/>
</svg>
