<?xml version="1.0" encoding="UTF-8"?>
<svg viewBox="0 0 500 200" version="1.1" xmlns="http://www.w3.org/2000/svg" xmlns:xlink="http://www.w3.org/1999/xlink">
    <title>Artboard</title>
    <g id="Artboard" stroke="none" stroke-width="1" fill="none" fill-rule="evenodd">
        <rect id="Rectangle" fill="#F5F5F5" fill-rule="nonzero" x="7" y="0" width="495" height="200"></rect>
        <rect id="Rectangle" fill="#00916A" opacity="0.136323475" x="115" y="64" width="283" height="73"></rect>
        <rect id="Rectangle" stroke="#00916A" x="115.5" y="64.5" width="282" height="72"></rect>
        <rect id="Rectangle" stroke="#6E7272" x="128.5" y="76.5" width="48" height="48" rx="24"></rect>
        <rect id="Rectangle" fill="#00916A" fill-rule="nonzero" x="0" y="0" width="6" height="200"></rect>
        <path d="M33.5,12 C25.0095541,12 18,18.910828 18,27.5 C18,36.089172 24.910828,43 33.5,43 C42.089172,43 49,36.089172 49,27.5 C49,18.910828 41.9904459,12 33.5,12 Z M30.4394904,35.2006369 L22.7388535,27.5 L24.910828,25.3280255 L30.4394904,30.8566879 L42.089172,19.1082803 L44.2611465,21.2802548 L30.4394904,35.2006369 Z" id="Shape" fill="#00916A" fill-rule="nonzero"></path>
        <path d="M197.152,108 L197.152,101.352 L200.008,101.352 L203.8,108 L206.056,108 L202.048,101.136 C203.136,100.864 204,100.36 204.64,99.624 C205.28,98.888 205.6,97.904 205.6,96.672 C205.6,95.856 205.464,95.168 205.192,94.608 C204.92,94.048 204.54,93.592 204.052,93.24 C203.564,92.888 202.98,92.636 202.3,92.484 C201.62,92.332 200.88,92.256 200.08,92.256 L200.08,92.256 L195.16,92.256 L195.16,108 L197.152,108 Z M199.792,99.72 L197.152,99.72 L197.152,93.864 L199.792,93.864 C201.024,93.864 201.968,94.072 202.624,94.488 C203.28,94.904 203.608,95.632 203.608,96.672 C203.608,97.696 203.28,98.46 202.624,98.964 C201.968,99.468 201.024,99.72 199.792,99.72 L199.792,99.72 Z M211.216,108.288 C211.952,108.288 212.64,108.124 213.28,107.796 C213.92,107.468 214.52,107.072 215.08,106.608 L215.08,106.608 L215.152,106.608 L215.32,108 L216.952,108 L216.952,100.848 C216.952,99.392 216.632,98.228 215.992,97.356 C215.352,96.484 214.32,96.048 212.896,96.048 C211.952,96.048 211.088,96.212 210.304,96.54 C209.52,96.868 208.856,97.208 208.312,97.56 L208.312,97.56 L209.08,98.928 C209.544,98.608 210.072,98.32 210.664,98.064 C211.256,97.808 211.888,97.68 212.56,97.68 C213.04,97.68 213.436,97.764 213.748,97.932 C214.06,98.1 214.304,98.32 214.48,98.592 C214.656,98.864 214.78,99.176 214.852,99.528 C214.924,99.88 214.96,100.24 214.96,100.608 C212.464,100.88 210.648,101.356 209.512,102.036 C208.376,102.716 207.808,103.696 207.808,104.976 C207.808,106.032 208.132,106.848 208.78,107.424 C209.428,108 210.24,108.288 211.216,108.288 Z M211.792,106.704 C211.216,106.704 210.728,106.56 210.328,106.272 C209.928,105.984 209.728,105.504 209.728,104.832 C209.728,104.464 209.82,104.124 210.004,103.812 C210.188,103.5 210.484,103.224 210.892,102.984 C211.3,102.744 211.836,102.536 212.5,102.36 C213.164,102.184 213.984,102.032 214.96,101.904 L214.96,101.904 L214.96,105.144 C214.4,105.656 213.872,106.044 213.376,106.308 C212.88,106.572 212.352,106.704 211.792,106.704 Z M224.608,108.288 C225.296,108.288 225.94,108.124 226.54,107.796 C227.14,107.468 227.672,107.08 228.136,106.632 L228.136,106.632 L228.208,106.632 L228.376,108 L230.008,108 L230.008,90.912 L228.016,90.912 L228.016,95.4 L228.112,97.392 C227.6,96.976 227.096,96.648 226.6,96.408 C226.104,96.168 225.52,96.048 224.848,96.048 C224.176,96.048 223.536,96.192 222.928,96.48 C222.32,96.768 221.784,97.176 221.32,97.704 C220.856,98.232 220.484,98.876 220.204,99.636 C219.924,100.396 219.784,101.248 219.784,102.192 C219.784,104.144 220.22,105.648 221.092,106.704 C221.964,107.76 223.136,108.288 224.608,108.288 Z M225.04,106.632 C224.016,106.632 223.224,106.24 222.664,105.456 C222.104,104.672 221.824,103.576 221.824,102.168 C221.824,101.496 221.912,100.888 222.088,100.344 C222.264,99.8 222.504,99.332 222.808,98.94 C223.112,98.548 223.468,98.244 223.876,98.028 C224.284,97.812 224.72,97.704 225.184,97.704 C225.664,97.704 226.132,97.796 226.588,97.98 C227.044,98.164 227.52,98.48 228.016,98.928 L228.016,98.928 L228.016,105.024 C227.536,105.568 227.056,105.972 226.576,106.236 C226.096,106.5 225.584,106.632 225.04,106.632 Z M234.952,93.936 C235.336,93.936 235.66,93.816 235.924,93.576 C236.188,93.336 236.32,93.032 236.32,92.664 C236.32,92.28 236.188,91.972 235.924,91.74 C235.66,91.508 235.336,91.392 234.952,91.392 C234.568,91.392 234.244,91.508 233.98,91.74 C233.716,91.972 233.584,92.28 233.584,92.664 C233.584,93.032 233.716,93.336 233.98,93.576 C234.244,93.816 234.568,93.936 234.952,93.936 Z M235.912,108 L235.912,96.336 L233.944,96.336 L233.944,108 L235.912,108 Z M244.384,108.288 C245.104,108.288 245.788,108.152 246.436,107.88 C247.084,107.608 247.656,107.212 248.152,106.692 C248.648,106.172 249.044,105.532 249.34,104.772 C249.636,104.012 249.784,103.152 249.784,102.192 C249.784,101.216 249.636,100.348 249.34,99.588 C249.044,98.828 248.648,98.184 248.152,97.656 C247.656,97.128 247.084,96.728 246.436,96.456 C245.788,96.184 245.104,96.048 244.384,96.048 C243.664,96.048 242.98,96.184 242.332,96.456 C241.684,96.728 241.112,97.128 240.616,97.656 C240.12,98.184 239.724,98.828 239.428,99.588 C239.132,100.348 238.984,101.216 238.984,102.192 C238.984,103.152 239.132,104.012 239.428,104.772 C239.724,105.532 240.12,106.172 240.616,106.692 C241.112,107.212 241.684,107.608 242.332,107.88 C242.98,108.152 243.664,108.288 244.384,108.288 Z M244.384,106.656 C243.888,106.656 243.432,106.548 243.016,106.332 C242.6,106.116 242.244,105.812 241.948,105.42 C241.652,105.028 241.424,104.56 241.264,104.016 C241.104,103.472 241.024,102.864 241.024,102.192 C241.024,101.52 241.104,100.908 241.264,100.356 C241.424,99.804 241.652,99.328 241.948,98.928 C242.244,98.528 242.6,98.22 243.016,98.004 C243.432,97.788 243.888,97.68 244.384,97.68 C244.88,97.68 245.336,97.788 245.752,98.004 C246.168,98.22 246.524,98.528 246.82,98.928 C247.116,99.328 247.344,99.804 247.504,100.356 C247.664,100.908 247.744,101.52 247.744,102.192 C247.744,102.864 247.664,103.472 247.504,104.016 C247.344,104.56 247.116,105.028 246.82,105.42 C246.524,105.812 246.168,106.116 245.752,106.332 C245.336,106.548 244.88,106.656 244.384,106.656 Z M262.816,108.288 C263.488,108.288 264.128,108.148 264.736,107.868 C265.344,107.588 265.88,107.176 266.344,106.632 C266.808,106.088 267.176,105.424 267.448,104.64 C267.72,103.856 267.856,102.968 267.856,101.976 C267.856,101.08 267.756,100.268 267.556,99.54 C267.356,98.812 267.06,98.188 266.668,97.668 C266.276,97.148 265.792,96.748 265.216,96.468 C264.64,96.188 263.976,96.048 263.224,96.048 C262.568,96.048 261.928,96.204 261.304,96.516 C260.68,96.828 260.104,97.216 259.576,97.68 L259.576,97.68 L259.624,95.568 L259.624,90.912 L257.656,90.912 L257.656,108 L259.24,108 L259.408,106.8 L259.48,106.8 C259.992,107.264 260.54,107.628 261.124,107.892 C261.708,108.156 262.272,108.288 262.816,108.288 Z M262.48,106.632 C262.096,106.632 261.652,106.54 261.148,106.356 C260.644,106.172 260.136,105.856 259.624,105.408 L259.624,105.408 L259.624,99.288 C260.76,98.232 261.8,97.704 262.744,97.704 C263.288,97.704 263.756,97.808 264.148,98.016 C264.54,98.224 264.86,98.516 265.108,98.892 C265.356,99.268 265.536,99.72 265.648,100.248 C265.76,100.776 265.816,101.36 265.816,102 C265.816,102.72 265.732,103.368 265.564,103.944 C265.396,104.52 265.164,105.004 264.868,105.396 C264.572,105.788 264.22,106.092 263.812,106.308 C263.404,106.524 262.96,106.632 262.48,106.632 Z M274.336,108.288 C275.152,108.288 275.86,108.096 276.46,107.712 C277.06,107.328 277.632,106.816 278.176,106.176 L278.176,106.176 L278.248,106.176 L278.416,108 L280.048,108 L280.048,96.336 L278.08,96.336 L278.08,104.616 C277.52,105.304 277.008,105.804 276.544,106.116 C276.08,106.428 275.544,106.584 274.936,106.584 C274.168,106.584 273.612,106.34 273.268,105.852 C272.924,105.364 272.752,104.568 272.752,103.464 L272.752,103.464 L272.752,96.336 L270.76,96.336 L270.76,103.728 C270.76,105.232 271.044,106.368 271.612,107.136 C272.18,107.904 273.088,108.288 274.336,108.288 Z M287.656,108.288 C288.024,108.288 288.396,108.244 288.772,108.156 C289.148,108.068 289.496,107.968 289.816,107.856 L289.816,107.856 L289.432,106.368 C289.24,106.448 289.024,106.52 288.784,106.584 C288.544,106.648 288.32,106.68 288.112,106.68 C287.44,106.68 286.972,106.484 286.708,106.092 C286.444,105.7 286.312,105.144 286.312,104.424 L286.312,104.424 L286.312,97.944 L289.456,97.944 L289.456,96.336 L286.312,96.336 L286.312,93.072 L284.656,93.072 L284.416,96.336 L282.592,96.456 L282.592,97.944 L284.32,97.944 L284.32,104.4 C284.32,104.976 284.376,105.504 284.488,105.984 C284.6,106.464 284.788,106.872 285.052,107.208 C285.316,107.544 285.66,107.808 286.084,108 C286.508,108.192 287.032,108.288 287.656,108.288 Z M295.288,108.288 C295.656,108.288 296.028,108.244 296.404,108.156 C296.78,108.068 297.128,107.968 297.448,107.856 L297.448,107.856 L297.064,106.368 C296.872,106.448 296.656,106.52 296.416,106.584 C296.176,106.648 295.952,106.68 295.744,106.68 C295.072,106.68 294.604,106.484 294.34,106.092 C294.076,105.7 293.944,105.144 293.944,104.424 L293.944,104.424 L293.944,97.944 L297.088,97.944 L297.088,96.336 L293.944,96.336 L293.944,93.072 L292.288,93.072 L292.048,96.336 L290.224,96.456 L290.224,97.944 L291.952,97.944 L291.952,104.4 C291.952,104.976 292.008,105.504 292.12,105.984 C292.232,106.464 292.42,106.872 292.684,107.208 C292.948,107.544 293.292,107.808 293.716,108 C294.14,108.192 294.664,108.288 295.288,108.288 Z M303.928,108.288 C304.648,108.288 305.332,108.152 305.98,107.88 C306.628,107.608 307.2,107.212 307.696,106.692 C308.192,106.172 308.588,105.532 308.884,104.772 C309.18,104.012 309.328,103.152 309.328,102.192 C309.328,101.216 309.18,100.348 308.884,99.588 C308.588,98.828 308.192,98.184 307.696,97.656 C307.2,97.128 306.628,96.728 305.98,96.456 C305.332,96.184 304.648,96.048 303.928,96.048 C303.208,96.048 302.524,96.184 301.876,96.456 C301.228,96.728 300.656,97.128 300.16,97.656 C299.664,98.184 299.268,98.828 298.972,99.588 C298.676,100.348 298.528,101.216 298.528,102.192 C298.528,103.152 298.676,104.012 298.972,104.772 C299.268,105.532 299.664,106.172 300.16,106.692 C300.656,107.212 301.228,107.608 301.876,107.88 C302.524,108.152 303.208,108.288 303.928,108.288 Z M303.928,106.656 C303.432,106.656 302.976,106.548 302.56,106.332 C302.144,106.116 301.788,105.812 301.492,105.42 C301.196,105.028 300.968,104.56 300.808,104.016 C300.648,103.472 300.568,102.864 300.568,102.192 C300.568,101.52 300.648,100.908 300.808,100.356 C300.968,99.804 301.196,99.328 301.492,98.928 C301.788,98.528 302.144,98.22 302.56,98.004 C302.976,97.788 303.432,97.68 303.928,97.68 C304.424,97.68 304.88,97.788 305.296,98.004 C305.712,98.22 306.068,98.528 306.364,98.928 C306.66,99.328 306.888,99.804 307.048,100.356 C307.208,100.908 307.288,101.52 307.288,102.192 C307.288,102.864 307.208,103.472 307.048,104.016 C306.888,104.56 306.66,105.028 306.364,105.42 C306.068,105.812 305.712,106.116 305.296,106.332 C304.88,106.548 304.424,106.656 303.928,106.656 Z M314.368,108 L314.368,99.552 C314.96,98.96 315.488,98.512 315.952,98.208 C316.416,97.904 316.952,97.752 317.56,97.752 C318.328,97.752 318.888,97.996 319.24,98.484 C319.592,98.972 319.768,99.768 319.768,100.872 L319.768,100.872 L319.768,108 L321.736,108 L321.736,100.608 C321.736,99.104 321.452,97.968 320.884,97.2 C320.316,96.432 319.416,96.048 318.184,96.048 C317.368,96.048 316.652,96.236 316.036,96.612 C315.42,96.988 314.832,97.456 314.272,98.016 L314.272,98.016 L314.2,98.016 L314.032,96.336 L312.4,96.336 L312.4,108 L314.368,108 Z M332.416,108.288 C332.688,108.288 332.912,108.272 333.088,108.24 C333.264,108.208 333.416,108.16 333.544,108.096 L333.544,108.096 L333.28,106.608 C333.168,106.64 333.084,106.656 333.028,106.656 L333.028,106.656 L332.848,106.656 C332.704,106.656 332.576,106.592 332.464,106.464 C332.352,106.336 332.296,106.112 332.296,105.792 L332.296,105.792 L332.296,90.912 L330.328,90.912 L330.328,105.648 C330.328,106.512 330.488,107.168 330.808,107.616 C331.128,108.064 331.664,108.288 332.416,108.288 Z M339.136,108.288 C339.872,108.288 340.56,108.124 341.2,107.796 C341.84,107.468 342.44,107.072 343,106.608 L343,106.608 L343.072,106.608 L343.24,108 L344.872,108 L344.872,100.848 C344.872,99.392 344.552,98.228 343.912,97.356 C343.272,96.484 342.24,96.048 340.816,96.048 C339.872,96.048 339.008,96.212 338.224,96.54 C337.44,96.868 336.776,97.208 336.232,97.56 L336.232,97.56 L337,98.928 C337.464,98.608 337.992,98.32 338.584,98.064 C339.176,97.808 339.808,97.68 340.48,97.68 C340.96,97.68 341.356,97.764 341.668,97.932 C341.98,98.1 342.224,98.32 342.4,98.592 C342.576,98.864 342.7,99.176 342.772,99.528 C342.844,99.88 342.88,100.24 342.88,100.608 C340.384,100.88 338.568,101.356 337.432,102.036 C336.296,102.716 335.728,103.696 335.728,104.976 C335.728,106.032 336.052,106.848 336.7,107.424 C337.348,108 338.16,108.288 339.136,108.288 Z M339.712,106.704 C339.136,106.704 338.648,106.56 338.248,106.272 C337.848,105.984 337.648,105.504 337.648,104.832 C337.648,104.464 337.74,104.124 337.924,103.812 C338.108,103.5 338.404,103.224 338.812,102.984 C339.22,102.744 339.756,102.536 340.42,102.36 C341.084,102.184 341.904,102.032 342.88,101.904 L342.88,101.904 L342.88,105.144 C342.32,105.656 341.792,106.044 341.296,106.308 C340.8,106.572 340.272,106.704 339.712,106.704 Z M353.704,108.288 C354.376,108.288 355.016,108.148 355.624,107.868 C356.232,107.588 356.768,107.176 357.232,106.632 C357.696,106.088 358.064,105.424 358.336,104.64 C358.608,103.856 358.744,102.968 358.744,101.976 C358.744,101.08 358.644,100.268 358.444,99.54 C358.244,98.812 357.948,98.188 357.556,97.668 C357.164,97.148 356.68,96.748 356.104,96.468 C355.528,96.188 354.864,96.048 354.112,96.048 C353.456,96.048 352.816,96.204 352.192,96.516 C351.568,96.828 350.992,97.216 350.464,97.68 L350.464,97.68 L350.512,95.568 L350.512,90.912 L348.544,90.912 L348.544,108 L350.128,108 L350.296,106.8 L350.368,106.8 C350.88,107.264 351.428,107.628 352.012,107.892 C352.596,108.156 353.16,108.288 353.704,108.288 Z M353.368,106.632 C352.984,106.632 352.54,106.54 352.036,106.356 C351.532,106.172 351.024,105.856 350.512,105.408 L350.512,105.408 L350.512,99.288 C351.648,98.232 352.688,97.704 353.632,97.704 C354.176,97.704 354.644,97.808 355.036,98.016 C355.428,98.224 355.748,98.516 355.996,98.892 C356.244,99.268 356.424,99.72 356.536,100.248 C356.648,100.776 356.704,101.36 356.704,102 C356.704,102.72 356.62,103.368 356.452,103.944 C356.284,104.52 356.052,105.004 355.756,105.396 C355.46,105.788 355.108,106.092 354.7,106.308 C354.292,106.524 353.848,106.632 353.368,106.632 Z M366.544,108.288 C367.344,108.288 368.056,108.168 368.68,107.928 C369.304,107.688 369.872,107.408 370.384,107.088 L370.384,107.088 L369.688,105.792 C369.256,106.064 368.804,106.284 368.332,106.452 C367.86,106.62 367.344,106.704 366.784,106.704 C365.664,106.704 364.756,106.34 364.06,105.612 C363.364,104.884 362.976,103.896 362.896,102.648 L362.896,102.648 L370.768,102.648 C370.8,102.504 370.82,102.332 370.828,102.132 C370.836,101.932 370.84,101.728 370.84,101.52 C370.84,100.688 370.736,99.936 370.528,99.264 C370.32,98.592 370.02,98.016 369.628,97.536 C369.236,97.056 368.748,96.688 368.164,96.432 C367.58,96.176 366.92,96.048 366.184,96.048 C365.512,96.048 364.864,96.188 364.24,96.468 C363.616,96.748 363.06,97.152 362.572,97.68 C362.084,98.208 361.692,98.852 361.396,99.612 C361.1,100.372 360.952,101.232 360.952,102.192 C360.952,103.152 361.096,104.008 361.384,104.76 C361.672,105.512 362.068,106.148 362.572,106.668 C363.076,107.188 363.668,107.588 364.348,107.868 C365.028,108.148 365.76,108.288 366.544,108.288 Z M369.112,101.232 L362.872,101.232 C362.936,100.656 363.068,100.144 363.268,99.696 C363.468,99.248 363.72,98.868 364.024,98.556 C364.328,98.244 364.668,98.008 365.044,97.848 C365.42,97.688 365.816,97.608 366.232,97.608 C367.144,97.608 367.852,97.916 368.356,98.532 C368.86,99.148 369.112,100.048 369.112,101.232 L369.112,101.232 Z M375.808,108.288 C376.08,108.288 376.304,108.272 376.48,108.24 C376.656,108.208 376.808,108.16 376.936,108.096 L376.936,108.096 L376.672,106.608 C376.56,106.64 376.476,106.656 376.42,106.656 L376.42,106.656 L376.24,106.656 C376.096,106.656 375.968,106.592 375.856,106.464 C375.744,106.336 375.688,106.112 375.688,105.792 L375.688,105.792 L375.688,90.912 L373.72,90.912 L373.72,105.648 C373.72,106.512 373.88,107.168 374.2,107.616 C374.52,108.064 375.056,108.288 375.808,108.288 Z" id="Radiobuttonlabel" fill="#000000" fill-rule="nonzero"></path>
    </g>
</svg>