<?xml version="1.0" encoding="UTF-8"?>
<svg viewBox="0 0 500 200" version="1.1" xmlns="http://www.w3.org/2000/svg" xmlns:xlink="http://www.w3.org/1999/xlink">
    <title>Artboard</title>
    <g id="Artboard" stroke="none" stroke-width="1" fill="none" fill-rule="evenodd">
        <rect id="Rectangle" fill="#F5F5F5" fill-rule="nonzero" x="7" y="0" width="495" height="200"></rect>
        <rect id="Rectangle" fill="#00916A" opacity="0.136323475" x="117" y="64" width="283" height="73"></rect>
        <rect id="Rectangle" stroke="#00916A" x="117.5" y="64.5" width="282" height="72"></rect>
        <rect id="Rectangle" stroke="#6E7272" x="130.5" y="76.5" width="48" height="48" rx="6"></rect>
        <rect id="Rectangle" fill="#00916A" fill-rule="nonzero" x="0" y="0" width="6" height="200"></rect>
        <path d="M33.5,12 C25.0095541,12 18,18.910828 18,27.5 C18,36.089172 24.910828,43 33.5,43 C42.089172,43 49,36.089172 49,27.5 C49,18.910828 41.9904459,12 33.5,12 Z M30.4394904,35.2006369 L22.7388535,27.5 L24.910828,25.3280255 L30.4394904,30.8566879 L42.089172,19.1082803 L44.2611465,21.2802548 L30.4394904,35.2006369 Z" id="Shape" fill="#00916A" fill-rule="nonzero"></path>
        <path d="M202.152,108 L202.152,103.008 L204.864,99.816 L209.568,108 L211.8,108 L206.112,98.256 L211.032,92.256 L208.776,92.256 L202.224,100.152 L202.152,100.152 L202.152,92.256 L200.16,92.256 L200.16,108 L202.152,108 Z M218.424,108.288 C219.224,108.288 219.936,108.168 220.56,107.928 C221.184,107.688 221.752,107.408 222.264,107.088 L222.264,107.088 L221.568,105.792 C221.136,106.064 220.684,106.284 220.212,106.452 C219.74,106.62 219.224,106.704 218.664,106.704 C217.544,106.704 216.636,106.34 215.94,105.612 C215.244,104.884 214.856,103.896 214.776,102.648 L214.776,102.648 L222.648,102.648 C222.68,102.504 222.7,102.332 222.708,102.132 C222.716,101.932 222.72,101.728 222.72,101.52 C222.72,100.688 222.616,99.936 222.408,99.264 C222.2,98.592 221.9,98.016 221.508,97.536 C221.116,97.056 220.628,96.688 220.044,96.432 C219.46,96.176 218.8,96.048 218.064,96.048 C217.392,96.048 216.744,96.188 216.12,96.468 C215.496,96.748 214.94,97.152 214.452,97.68 C213.964,98.208 213.572,98.852 213.276,99.612 C212.98,100.372 212.832,101.232 212.832,102.192 C212.832,103.152 212.976,104.008 213.264,104.76 C213.552,105.512 213.948,106.148 214.452,106.668 C214.956,107.188 215.548,107.588 216.228,107.868 C216.908,108.148 217.64,108.288 218.424,108.288 Z M220.992,101.232 L214.752,101.232 C214.816,100.656 214.948,100.144 215.148,99.696 C215.348,99.248 215.6,98.868 215.904,98.556 C216.208,98.244 216.548,98.008 216.924,97.848 C217.3,97.688 217.696,97.608 218.112,97.608 C219.024,97.608 219.732,97.916 220.236,98.532 C220.74,99.148 220.992,100.048 220.992,101.232 L220.992,101.232 Z M230.328,108.288 C231.128,108.288 231.84,108.168 232.464,107.928 C233.088,107.688 233.656,107.408 234.168,107.088 L234.168,107.088 L233.472,105.792 C233.04,106.064 232.588,106.284 232.116,106.452 C231.644,106.62 231.128,106.704 230.568,106.704 C229.448,106.704 228.54,106.34 227.844,105.612 C227.148,104.884 226.76,103.896 226.68,102.648 L226.68,102.648 L234.552,102.648 C234.584,102.504 234.604,102.332 234.612,102.132 C234.62,101.932 234.624,101.728 234.624,101.52 C234.624,100.688 234.52,99.936 234.312,99.264 C234.104,98.592 233.804,98.016 233.412,97.536 C233.02,97.056 232.532,96.688 231.948,96.432 C231.364,96.176 230.704,96.048 229.968,96.048 C229.296,96.048 228.648,96.188 228.024,96.468 C227.4,96.748 226.844,97.152 226.356,97.68 C225.868,98.208 225.476,98.852 225.18,99.612 C224.884,100.372 224.736,101.232 224.736,102.192 C224.736,103.152 224.88,104.008 225.168,104.76 C225.456,105.512 225.852,106.148 226.356,106.668 C226.86,107.188 227.452,107.588 228.132,107.868 C228.812,108.148 229.544,108.288 230.328,108.288 Z M232.896,101.232 L226.656,101.232 C226.72,100.656 226.852,100.144 227.052,99.696 C227.252,99.248 227.504,98.868 227.808,98.556 C228.112,98.244 228.452,98.008 228.828,97.848 C229.204,97.688 229.6,97.608 230.016,97.608 C230.928,97.608 231.636,97.916 232.14,98.532 C232.644,99.148 232.896,100.048 232.896,101.232 L232.896,101.232 Z M239.472,112.92 L239.472,108.984 L239.424,106.944 C239.968,107.36 240.508,107.688 241.044,107.928 C241.58,108.168 242.12,108.288 242.664,108.288 C243.336,108.288 243.976,108.148 244.584,107.868 C245.192,107.588 245.728,107.176 246.192,106.632 C246.656,106.088 247.024,105.428 247.296,104.652 C247.568,103.876 247.704,102.992 247.704,102 C247.704,101.088 247.604,100.268 247.404,99.54 C247.204,98.812 246.912,98.188 246.528,97.668 C246.144,97.148 245.664,96.748 245.088,96.468 C244.512,96.188 243.848,96.048 243.096,96.048 C242.408,96.048 241.748,96.208 241.116,96.528 C240.484,96.848 239.904,97.232 239.376,97.68 L239.376,97.68 L239.304,97.68 L239.136,96.336 L237.504,96.336 L237.504,112.92 L239.472,112.92 Z M242.328,106.632 C241.944,106.632 241.504,106.54 241.008,106.356 C240.512,106.172 240,105.856 239.472,105.408 L239.472,105.408 L239.472,99.288 C240.048,98.776 240.588,98.384 241.092,98.112 C241.596,97.84 242.096,97.704 242.592,97.704 C243.136,97.704 243.604,97.808 243.996,98.016 C244.388,98.224 244.708,98.516 244.956,98.892 C245.204,99.268 245.384,99.72 245.496,100.248 C245.608,100.776 245.664,101.36 245.664,102 C245.664,102.72 245.58,103.368 245.412,103.944 C245.244,104.52 245.012,105.004 244.716,105.396 C244.42,105.788 244.068,106.092 243.66,106.308 C243.252,106.524 242.808,106.632 242.328,106.632 Z M257.592,108 L257.592,99.552 C258.664,98.352 259.64,97.752 260.52,97.752 C261.272,97.752 261.824,97.996 262.176,98.484 C262.528,98.972 262.704,99.768 262.704,100.872 L262.704,100.872 L262.704,108 L264.672,108 L264.672,99.552 C265.744,98.352 266.72,97.752 267.6,97.752 C268.336,97.752 268.88,97.996 269.232,98.484 C269.584,98.972 269.76,99.768 269.76,100.872 L269.76,100.872 L269.76,108 L271.728,108 L271.728,100.608 C271.728,99.104 271.436,97.968 270.852,97.2 C270.268,96.432 269.376,96.048 268.176,96.048 C267.456,96.048 266.788,96.252 266.172,96.66 C265.556,97.068 264.944,97.608 264.336,98.28 C264.096,97.576 263.724,97.028 263.22,96.636 C262.716,96.244 262.016,96.048 261.12,96.048 C260.416,96.048 259.764,96.236 259.164,96.612 C258.564,96.988 258.008,97.456 257.496,98.016 L257.496,98.016 L257.424,98.016 L257.256,96.336 L255.624,96.336 L255.624,108 L257.592,108 Z M280.248,108.288 C281.048,108.288 281.76,108.168 282.384,107.928 C283.008,107.688 283.576,107.408 284.088,107.088 L284.088,107.088 L283.392,105.792 C282.96,106.064 282.508,106.284 282.036,106.452 C281.564,106.62 281.048,106.704 280.488,106.704 C279.368,106.704 278.46,106.34 277.764,105.612 C277.068,104.884 276.68,103.896 276.6,102.648 L276.6,102.648 L284.472,102.648 C284.504,102.504 284.524,102.332 284.532,102.132 C284.54,101.932 284.544,101.728 284.544,101.52 C284.544,100.688 284.44,99.936 284.232,99.264 C284.024,98.592 283.724,98.016 283.332,97.536 C282.94,97.056 282.452,96.688 281.868,96.432 C281.284,96.176 280.624,96.048 279.888,96.048 C279.216,96.048 278.568,96.188 277.944,96.468 C277.32,96.748 276.764,97.152 276.276,97.68 C275.788,98.208 275.396,98.852 275.1,99.612 C274.804,100.372 274.656,101.232 274.656,102.192 C274.656,103.152 274.8,104.008 275.088,104.76 C275.376,105.512 275.772,106.148 276.276,106.668 C276.78,107.188 277.372,107.588 278.052,107.868 C278.732,108.148 279.464,108.288 280.248,108.288 Z M282.816,101.232 L276.576,101.232 C276.64,100.656 276.772,100.144 276.972,99.696 C277.172,99.248 277.424,98.868 277.728,98.556 C278.032,98.244 278.372,98.008 278.748,97.848 C279.124,97.688 279.52,97.608 279.936,97.608 C280.848,97.608 281.556,97.916 282.06,98.532 C282.564,99.148 282.816,100.048 282.816,101.232 L282.816,101.232 Z M295.272,108.288 C295.96,108.288 296.572,108.196 297.108,108.012 C297.644,107.828 298.092,107.576 298.452,107.256 C298.812,106.936 299.084,106.568 299.268,106.152 C299.452,105.736 299.544,105.288 299.544,104.808 C299.544,104.264 299.436,103.8 299.22,103.416 C299.004,103.032 298.728,102.708 298.392,102.444 C298.056,102.18 297.676,101.96 297.252,101.784 C296.828,101.608 296.408,101.44 295.992,101.28 C295.656,101.152 295.332,101.028 295.02,100.908 C294.708,100.788 294.432,100.652 294.192,100.5 C293.952,100.348 293.76,100.172 293.616,99.972 C293.472,99.772 293.4,99.536 293.4,99.264 C293.4,98.816 293.572,98.424 293.916,98.088 C294.26,97.752 294.8,97.584 295.536,97.584 C296.048,97.584 296.52,97.68 296.952,97.872 C297.384,98.064 297.8,98.312 298.2,98.616 L298.2,98.616 L299.136,97.368 C298.688,97 298.156,96.688 297.54,96.432 C296.924,96.176 296.248,96.048 295.512,96.048 C294.888,96.048 294.328,96.132 293.832,96.3 C293.336,96.468 292.916,96.7 292.572,96.996 C292.228,97.292 291.964,97.644 291.78,98.052 C291.596,98.46 291.504,98.896 291.504,99.36 C291.504,99.856 291.608,100.28 291.816,100.632 C292.024,100.984 292.292,101.292 292.62,101.556 C292.948,101.82 293.32,102.044 293.736,102.228 C294.152,102.412 294.568,102.576 294.984,102.72 L294.984,102.72 L295.944,103.104 C296.264,103.232 296.548,103.38 296.796,103.548 C297.044,103.716 297.248,103.912 297.408,104.136 C297.568,104.36 297.648,104.624 297.648,104.928 C297.648,105.44 297.456,105.872 297.072,106.224 C296.688,106.576 296.112,106.752 295.344,106.752 C294.64,106.752 294.02,106.624 293.484,106.368 C292.948,106.112 292.424,105.776 291.912,105.36 L291.912,105.36 L290.928,106.68 C291.488,107.144 292.144,107.528 292.896,107.832 C293.648,108.136 294.44,108.288 295.272,108.288 Z M303.288,93.936 C303.672,93.936 303.996,93.816 304.26,93.576 C304.524,93.336 304.656,93.032 304.656,92.664 C304.656,92.28 304.524,91.972 304.26,91.74 C303.996,91.508 303.672,91.392 303.288,91.392 C302.904,91.392 302.58,91.508 302.316,91.74 C302.052,91.972 301.92,92.28 301.92,92.664 C301.92,93.032 302.052,93.336 302.316,93.576 C302.58,93.816 302.904,93.936 303.288,93.936 Z M304.248,108 L304.248,96.336 L302.28,96.336 L302.28,108 L304.248,108 Z M312.12,113.376 C313.032,113.376 313.852,113.268 314.58,113.052 C315.308,112.836 315.928,112.544 316.44,112.176 C316.952,111.808 317.344,111.38 317.616,110.892 C317.888,110.404 318.024,109.888 318.024,109.344 C318.024,108.368 317.684,107.66 317.004,107.22 C316.324,106.78 315.304,106.56 313.944,106.56 L313.944,106.56 L311.688,106.56 C310.888,106.56 310.344,106.44 310.056,106.2 C309.768,105.96 309.624,105.656 309.624,105.288 C309.624,104.968 309.696,104.7 309.84,104.484 C309.984,104.268 310.16,104.072 310.368,103.896 C310.64,104.024 310.928,104.124 311.232,104.196 C311.536,104.268 311.832,104.304 312.12,104.304 C312.712,104.304 313.268,104.208 313.788,104.016 C314.308,103.824 314.76,103.556 315.144,103.212 C315.528,102.868 315.832,102.444 316.056,101.94 C316.28,101.436 316.392,100.872 316.392,100.248 C316.392,99.752 316.3,99.296 316.116,98.88 C315.932,98.464 315.704,98.12 315.432,97.848 L315.432,97.848 L317.832,97.848 L317.832,96.336 L313.776,96.336 C313.552,96.256 313.3,96.188 313.02,96.132 C312.74,96.076 312.44,96.048 312.12,96.048 C311.528,96.048 310.964,96.144 310.428,96.336 C309.892,96.528 309.424,96.804 309.024,97.164 C308.624,97.524 308.308,97.96 308.076,98.472 C307.844,98.984 307.728,99.56 307.728,100.2 C307.728,100.904 307.884,101.524 308.196,102.06 C308.508,102.596 308.856,103.024 309.24,103.344 L309.24,103.344 L309.24,103.44 C308.936,103.648 308.648,103.936 308.376,104.304 C308.104,104.672 307.968,105.104 307.968,105.6 C307.968,106.064 308.068,106.452 308.268,106.764 C308.468,107.076 308.712,107.32 309,107.496 L309,107.496 L309,107.592 C308.472,107.96 308.056,108.368 307.752,108.816 C307.448,109.264 307.296,109.736 307.296,110.232 C307.296,110.744 307.412,111.192 307.644,111.576 C307.876,111.96 308.204,112.288 308.628,112.56 C309.052,112.832 309.56,113.036 310.152,113.172 C310.744,113.308 311.4,113.376 312.12,113.376 Z M312.12,102.984 C311.784,102.984 311.468,102.92 311.172,102.792 C310.876,102.664 310.612,102.48 310.38,102.24 C310.148,102 309.968,101.708 309.84,101.364 C309.712,101.02 309.648,100.632 309.648,100.2 C309.648,99.336 309.888,98.668 310.368,98.196 C310.848,97.724 311.432,97.488 312.12,97.488 C312.808,97.488 313.392,97.724 313.872,98.196 C314.352,98.668 314.592,99.336 314.592,100.2 C314.592,100.632 314.528,101.02 314.4,101.364 C314.272,101.708 314.092,102 313.86,102.24 C313.628,102.48 313.364,102.664 313.068,102.792 C312.772,102.92 312.456,102.984 312.12,102.984 Z M312.408,112.008 C311.352,112.008 310.524,111.824 309.924,111.456 C309.324,111.088 309.024,110.592 309.024,109.968 C309.024,109.632 309.12,109.296 309.312,108.96 C309.504,108.624 309.808,108.304 310.224,108 C310.48,108.08 310.74,108.132 311.004,108.156 C311.268,108.18 311.512,108.192 311.736,108.192 L311.736,108.192 L313.752,108.192 C314.52,108.192 315.104,108.296 315.504,108.504 C315.904,108.712 316.104,109.088 316.104,109.632 C316.104,109.936 316.016,110.232 315.84,110.52 C315.664,110.808 315.416,111.06 315.096,111.276 C314.776,111.492 314.388,111.668 313.932,111.804 C313.476,111.94 312.968,112.008 312.408,112.008 Z M322.248,108 L322.248,99.552 C322.84,98.96 323.368,98.512 323.832,98.208 C324.296,97.904 324.832,97.752 325.44,97.752 C326.208,97.752 326.768,97.996 327.12,98.484 C327.472,98.972 327.648,99.768 327.648,100.872 L327.648,100.872 L327.648,108 L329.616,108 L329.616,100.608 C329.616,99.104 329.332,97.968 328.764,97.2 C328.196,96.432 327.296,96.048 326.064,96.048 C325.248,96.048 324.532,96.236 323.916,96.612 C323.3,96.988 322.712,97.456 322.152,98.016 L322.152,98.016 L322.08,98.016 L321.912,96.336 L320.28,96.336 L320.28,108 L322.248,108 Z M338.136,108.288 C338.936,108.288 339.648,108.168 340.272,107.928 C340.896,107.688 341.464,107.408 341.976,107.088 L341.976,107.088 L341.28,105.792 C340.848,106.064 340.396,106.284 339.924,106.452 C339.452,106.62 338.936,106.704 338.376,106.704 C337.256,106.704 336.348,106.34 335.652,105.612 C334.956,104.884 334.568,103.896 334.488,102.648 L334.488,102.648 L342.36,102.648 C342.392,102.504 342.412,102.332 342.42,102.132 C342.428,101.932 342.432,101.728 342.432,101.52 C342.432,100.688 342.328,99.936 342.12,99.264 C341.912,98.592 341.612,98.016 341.22,97.536 C340.828,97.056 340.34,96.688 339.756,96.432 C339.172,96.176 338.512,96.048 337.776,96.048 C337.104,96.048 336.456,96.188 335.832,96.468 C335.208,96.748 334.652,97.152 334.164,97.68 C333.676,98.208 333.284,98.852 332.988,99.612 C332.692,100.372 332.544,101.232 332.544,102.192 C332.544,103.152 332.688,104.008 332.976,104.76 C333.264,105.512 333.66,106.148 334.164,106.668 C334.668,107.188 335.26,107.588 335.94,107.868 C336.62,108.148 337.352,108.288 338.136,108.288 Z M340.704,101.232 L334.464,101.232 C334.528,100.656 334.66,100.144 334.86,99.696 C335.06,99.248 335.312,98.868 335.616,98.556 C335.92,98.244 336.26,98.008 336.636,97.848 C337.012,97.688 337.408,97.608 337.824,97.608 C338.736,97.608 339.444,97.916 339.948,98.532 C340.452,99.148 340.704,100.048 340.704,101.232 L340.704,101.232 Z M349.296,108.288 C349.984,108.288 350.628,108.124 351.228,107.796 C351.828,107.468 352.36,107.08 352.824,106.632 L352.824,106.632 L352.896,106.632 L353.064,108 L354.696,108 L354.696,90.912 L352.704,90.912 L352.704,95.4 L352.8,97.392 C352.288,96.976 351.784,96.648 351.288,96.408 C350.792,96.168 350.208,96.048 349.536,96.048 C348.864,96.048 348.224,96.192 347.616,96.48 C347.008,96.768 346.472,97.176 346.008,97.704 C345.544,98.232 345.172,98.876 344.892,99.636 C344.612,100.396 344.472,101.248 344.472,102.192 C344.472,104.144 344.908,105.648 345.78,106.704 C346.652,107.76 347.824,108.288 349.296,108.288 Z M349.728,106.632 C348.704,106.632 347.912,106.24 347.352,105.456 C346.792,104.672 346.512,103.576 346.512,102.168 C346.512,101.496 346.6,100.888 346.776,100.344 C346.952,99.8 347.192,99.332 347.496,98.94 C347.8,98.548 348.156,98.244 348.564,98.028 C348.972,97.812 349.408,97.704 349.872,97.704 C350.352,97.704 350.82,97.796 351.276,97.98 C351.732,98.164 352.208,98.48 352.704,98.928 L352.704,98.928 L352.704,105.024 C352.224,105.568 351.744,105.972 351.264,106.236 C350.784,106.5 350.272,106.632 349.728,106.632 Z M364.44,93.936 C364.824,93.936 365.148,93.816 365.412,93.576 C365.676,93.336 365.808,93.032 365.808,92.664 C365.808,92.28 365.676,91.972 365.412,91.74 C365.148,91.508 364.824,91.392 364.44,91.392 C364.056,91.392 363.732,91.508 363.468,91.74 C363.204,91.972 363.072,92.28 363.072,92.664 C363.072,93.032 363.204,93.336 363.468,93.576 C363.732,93.816 364.056,93.936 364.44,93.936 Z M365.4,108 L365.4,96.336 L363.432,96.336 L363.432,108 L365.4,108 Z M371.304,108 L371.304,99.552 C371.896,98.96 372.424,98.512 372.888,98.208 C373.352,97.904 373.888,97.752 374.496,97.752 C375.264,97.752 375.824,97.996 376.176,98.484 C376.528,98.972 376.704,99.768 376.704,100.872 L376.704,100.872 L376.704,108 L378.672,108 L378.672,100.608 C378.672,99.104 378.388,97.968 377.82,97.2 C377.252,96.432 376.352,96.048 375.12,96.048 C374.304,96.048 373.588,96.236 372.972,96.612 C372.356,96.988 371.768,97.456 371.208,98.016 L371.208,98.016 L371.136,98.016 L370.968,96.336 L369.336,96.336 L369.336,108 L371.304,108 Z" id="Keepmesignedin" fill="#000000" fill-rule="nonzero"></path>
    </g>
</svg>