<?xml version="1.0" encoding="UTF-8"?>
<svg viewBox="0 0 500 230" version="1.1" xmlns="http://www.w3.org/2000/svg" xmlns:xlink="http://www.w3.org/1999/xlink">
    <title>Artboard</title>
    <g id="Artboard" stroke="none" stroke-width="1" fill="none" fill-rule="evenodd">
        <rect id="Rectangle" fill="#F5F5F5" fill-rule="nonzero" x="6" y="0" width="495" height="230"></rect>
        <rect id="Rectangle" stroke="#6E7272" x="78.5" y="55.5" width="348" height="51" rx="3"></rect>
        <rect id="Rectangle" fill="#F5F5F5" x="93" y="51" width="67" height="10"></rect>
        <rect id="Rectangle" fill="#00916A" fill-rule="nonzero" x="0" y="0" width="6" height="230"></rect>
        <path d="M33.5,12 C25.0095541,12 18,18.910828 18,27.5 C18,36.089172 24.910828,43 33.5,43 C42.089172,43 49,36.089172 49,27.5 C49,18.910828 41.9904459,12 33.5,12 Z M30.4394904,35.2006369 L22.7388535,27.5 L24.910828,25.3280255 L30.4394904,30.8566879 L42.089172,19.1082803 L44.2611465,21.2802548 L30.4394904,35.2006369 Z" id="Shape" fill="#00916A" fill-rule="nonzero"></path>
        <path d="M98,77.624 C98.2453333,77.624 98.456,77.544 98.632,77.384 C98.808,77.224 98.896,77.0213333 98.896,76.776 C98.896,76.52 98.808,76.3146667 98.632,76.16 C98.456,76.0053333 98.2453333,75.928 98,75.928 C97.744,75.928 97.528,76.0053333 97.352,76.16 C97.176,76.3146667 97.088,76.52 97.088,76.776 C97.088,77.0213333 97.176,77.224 97.352,77.384 C97.528,77.544 97.744,77.624 98,77.624 Z M96.512,90.472 C97.2906667,90.472 97.84,90.2373333 98.16,89.768 C98.48,89.2986667 98.64,88.6693333 98.64,87.88 L98.64,87.88 L98.64,79.224 L97.328,79.224 L97.328,87.88 C97.328,88.36 97.264,88.7333333 97.136,89 C97.008,89.2666667 96.752,89.4 96.368,89.4 C96.2293333,89.4 96.096,89.3866667 95.968,89.36 C95.84,89.3333333 95.728,89.304 95.632,89.272 L95.632,89.272 L95.36,90.264 C95.4986667,90.3173333 95.664,90.3653333 95.856,90.408 C96.048,90.4506667 96.2666667,90.472 96.512,90.472 Z M104.288,87.192 C104.768,87.192 105.224,87.1013333 105.656,86.92 C106.088,86.7386667 106.469333,86.4746667 106.8,86.128 C107.130667,85.7813333 107.394667,85.3546667 107.592,84.848 C107.789333,84.3413333 107.888,83.768 107.888,83.128 C107.888,82.4773333 107.789333,81.8986667 107.592,81.392 C107.394667,80.8853333 107.130667,80.456 106.8,80.104 C106.469333,79.752 106.088,79.4853333 105.656,79.304 C105.224,79.1226667 104.768,79.032 104.288,79.032 C103.808,79.032 103.352,79.1226667 102.92,79.304 C102.488,79.4853333 102.106667,79.752 101.776,80.104 C101.445333,80.456 101.181333,80.8853333 100.984,81.392 C100.786667,81.8986667 100.688,82.4773333 100.688,83.128 C100.688,83.768 100.786667,84.3413333 100.984,84.848 C101.181333,85.3546667 101.445333,85.7813333 101.776,86.128 C102.106667,86.4746667 102.488,86.7386667 102.92,86.92 C103.352,87.1013333 103.808,87.192 104.288,87.192 Z M104.288,86.104 C103.957333,86.104 103.653333,86.032 103.376,85.888 C103.098667,85.744 102.861333,85.5413333 102.664,85.28 C102.466667,85.0186667 102.314667,84.7066667 102.208,84.344 C102.101333,83.9813333 102.048,83.576 102.048,83.128 C102.048,82.68 102.101333,82.272 102.208,81.904 C102.314667,81.536 102.466667,81.2186667 102.664,80.952 C102.861333,80.6853333 103.098667,80.48 103.376,80.336 C103.653333,80.192 103.957333,80.12 104.288,80.12 C104.618667,80.12 104.922667,80.192 105.2,80.336 C105.477333,80.48 105.714667,80.6853333 105.912,80.952 C106.109333,81.2186667 106.261333,81.536 106.368,81.904 C106.474667,82.272 106.528,82.68 106.528,83.128 C106.528,83.576 106.474667,83.9813333 106.368,84.344 C106.261333,84.7066667 106.109333,85.0186667 105.912,85.28 C105.714667,85.5413333 105.477333,85.744 105.2,85.888 C104.922667,86.032 104.618667,86.104 104.288,86.104 Z M113.088,87.192 C113.621333,87.192 114.096,87.112 114.512,86.952 C114.928,86.792 115.306667,86.6053333 115.648,86.392 L115.648,86.392 L115.184,85.528 C114.896,85.7093333 114.594667,85.856 114.28,85.968 C113.965333,86.08 113.621333,86.136 113.248,86.136 C112.501333,86.136 111.896,85.8933333 111.432,85.408 C110.968,84.9226667 110.709333,84.264 110.656,83.432 L110.656,83.432 L115.904,83.432 C115.925333,83.336 115.938667,83.2213333 115.944,83.088 C115.949333,82.9546667 115.952,82.8186667 115.952,82.68 C115.952,82.1253333 115.882667,81.624 115.744,81.176 C115.605333,80.728 115.405333,80.344 115.144,80.024 C114.882667,79.704 114.557333,79.4586667 114.168,79.288 C113.778667,79.1173333 113.338667,79.032 112.848,79.032 C112.4,79.032 111.968,79.1253333 111.552,79.312 C111.136,79.4986667 110.765333,79.768 110.44,80.12 C110.114667,80.472 109.853333,80.9013333 109.656,81.408 C109.458667,81.9146667 109.36,82.488 109.36,83.128 C109.36,83.768 109.456,84.3386667 109.648,84.84 C109.84,85.3413333 110.104,85.7653333 110.44,86.112 C110.776,86.4586667 111.170667,86.7253333 111.624,86.912 C112.077333,87.0986667 112.565333,87.192 113.088,87.192 Z M114.8,82.488 L110.64,82.488 C110.682667,82.104 110.770667,81.7626667 110.904,81.464 C111.037333,81.1653333 111.205333,80.912 111.408,80.704 C111.610667,80.496 111.837333,80.3386667 112.088,80.232 C112.338667,80.1253333 112.602667,80.072 112.88,80.072 C113.488,80.072 113.96,80.2773333 114.296,80.688 C114.632,81.0986667 114.8,81.6986667 114.8,82.488 L114.8,82.488 Z M121.312,87.192 C121.76,87.192 122.186667,87.0986667 122.592,86.912 C122.997333,86.7253333 123.354667,86.4506667 123.664,86.088 C123.973333,85.7253333 124.218667,85.2826667 124.4,84.76 C124.581333,84.2373333 124.672,83.6453333 124.672,82.984 C124.672,82.3866667 124.605333,81.8453333 124.472,81.36 C124.338667,80.8746667 124.141333,80.4586667 123.88,80.112 C123.618667,79.7653333 123.296,79.4986667 122.912,79.312 C122.528,79.1253333 122.085333,79.032 121.584,79.032 C121.146667,79.032 120.72,79.136 120.304,79.344 C119.888,79.552 119.504,79.8106667 119.152,80.12 L119.152,80.12 L119.184,78.712 L119.184,75.608 L117.872,75.608 L117.872,87 L118.928,87 L119.04,86.2 L119.088,86.2 C119.429333,86.5093333 119.794667,86.752 120.184,86.928 C120.573333,87.104 120.949333,87.192 121.312,87.192 Z M121.088,86.088 C120.832,86.088 120.536,86.0266667 120.2,85.904 C119.864,85.7813333 119.525333,85.5706667 119.184,85.272 L119.184,85.272 L119.184,81.192 C119.941333,80.488 120.634667,80.136 121.264,80.136 C121.626667,80.136 121.938667,80.2053333 122.2,80.344 C122.461333,80.4826667 122.674667,80.6773333 122.84,80.928 C123.005333,81.1786667 123.125333,81.48 123.2,81.832 C123.274667,82.184 123.312,82.5733333 123.312,83 C123.312,83.48 123.256,83.912 123.144,84.296 C123.032,84.68 122.877333,85.0026667 122.68,85.264 C122.482667,85.5253333 122.248,85.728 121.976,85.872 C121.704,86.016 121.408,86.088 121.088,86.088 Z M128.112,87.192 C128.293333,87.192 128.442667,87.1813333 128.56,87.16 C128.677333,87.1386667 128.778667,87.1066667 128.864,87.064 L128.864,87.064 L128.688,86.072 C128.613333,86.0933333 128.557333,86.104 128.52,86.104 L128.52,86.104 L128.4,86.104 C128.304,86.104 128.218667,86.0613333 128.144,85.976 C128.069333,85.8906667 128.032,85.7413333 128.032,85.528 L128.032,85.528 L128.032,75.608 L126.72,75.608 L126.72,85.432 C126.72,86.008 126.826667,86.4453333 127.04,86.744 C127.253333,87.0426667 127.610667,87.192 128.112,87.192 Z M133.824,87.192 C134.304,87.192 134.76,87.1013333 135.192,86.92 C135.624,86.7386667 136.005333,86.4746667 136.336,86.128 C136.666667,85.7813333 136.930667,85.3546667 137.128,84.848 C137.325333,84.3413333 137.424,83.768 137.424,83.128 C137.424,82.4773333 137.325333,81.8986667 137.128,81.392 C136.930667,80.8853333 136.666667,80.456 136.336,80.104 C136.005333,79.752 135.624,79.4853333 135.192,79.304 C134.76,79.1226667 134.304,79.032 133.824,79.032 C133.344,79.032 132.888,79.1226667 132.456,79.304 C132.024,79.4853333 131.642667,79.752 131.312,80.104 C130.981333,80.456 130.717333,80.8853333 130.52,81.392 C130.322667,81.8986667 130.224,82.4773333 130.224,83.128 C130.224,83.768 130.322667,84.3413333 130.52,84.848 C130.717333,85.3546667 130.981333,85.7813333 131.312,86.128 C131.642667,86.4746667 132.024,86.7386667 132.456,86.92 C132.888,87.1013333 133.344,87.192 133.824,87.192 Z M133.824,86.104 C133.493333,86.104 133.189333,86.032 132.912,85.888 C132.634667,85.744 132.397333,85.5413333 132.2,85.28 C132.002667,85.0186667 131.850667,84.7066667 131.744,84.344 C131.637333,83.9813333 131.584,83.576 131.584,83.128 C131.584,82.68 131.637333,82.272 131.744,81.904 C131.850667,81.536 132.002667,81.2186667 132.2,80.952 C132.397333,80.6853333 132.634667,80.48 132.912,80.336 C133.189333,80.192 133.493333,80.12 133.824,80.12 C134.154667,80.12 134.458667,80.192 134.736,80.336 C135.013333,80.48 135.250667,80.6853333 135.448,80.952 C135.645333,81.2186667 135.797333,81.536 135.904,81.904 C136.010667,82.272 136.064,82.68 136.064,83.128 C136.064,83.576 136.010667,83.9813333 135.904,84.344 C135.797333,84.7066667 135.645333,85.0186667 135.448,85.28 C135.250667,85.5413333 135.013333,85.744 134.736,85.888 C134.458667,86.032 134.154667,86.104 133.824,86.104 Z M142.096,90.584 C142.704,90.584 143.250667,90.512 143.736,90.368 C144.221333,90.224 144.634667,90.0293333 144.976,89.784 C145.317333,89.5386667 145.578667,89.2533333 145.76,88.928 C145.941333,88.6026667 146.032,88.2586667 146.032,87.896 C146.032,87.2453333 145.805333,86.7733333 145.352,86.48 C144.898667,86.1866667 144.218667,86.04 143.312,86.04 L143.312,86.04 L141.808,86.04 C141.274667,86.04 140.912,85.96 140.72,85.8 C140.528,85.64 140.432,85.4373333 140.432,85.192 C140.432,84.9786667 140.48,84.8 140.576,84.656 C140.672,84.512 140.789333,84.3813333 140.928,84.264 C141.109333,84.3493333 141.301333,84.416 141.504,84.464 C141.706667,84.512 141.904,84.536 142.096,84.536 C142.490667,84.536 142.861333,84.472 143.208,84.344 C143.554667,84.216 143.856,84.0373333 144.112,83.808 C144.368,83.5786667 144.570667,83.296 144.72,82.96 C144.869333,82.624 144.944,82.248 144.944,81.832 C144.944,81.5013333 144.882667,81.1973333 144.76,80.92 C144.637333,80.6426667 144.485333,80.4133333 144.304,80.232 L144.304,80.232 L145.904,80.232 L145.904,79.224 L143.2,79.224 C143.050667,79.1706667 142.882667,79.1253333 142.696,79.088 C142.509333,79.0506667 142.309333,79.032 142.096,79.032 C141.701333,79.032 141.325333,79.096 140.968,79.224 C140.610667,79.352 140.298667,79.536 140.032,79.776 C139.765333,80.016 139.554667,80.3066667 139.4,80.648 C139.245333,80.9893333 139.168,81.3733333 139.168,81.8 C139.168,82.2693333 139.272,82.6826667 139.48,83.04 C139.688,83.3973333 139.92,83.6826667 140.176,83.896 L140.176,83.896 L140.176,83.96 C139.973333,84.0986667 139.781333,84.2906667 139.6,84.536 C139.418667,84.7813333 139.328,85.0693333 139.328,85.4 C139.328,85.7093333 139.394667,85.968 139.528,86.176 C139.661333,86.384 139.824,86.5466667 140.016,86.664 L140.016,86.664 L140.016,86.728 C139.664,86.9733333 139.386667,87.2453333 139.184,87.544 C138.981333,87.8426667 138.88,88.1573333 138.88,88.488 C138.88,88.8293333 138.957333,89.128 139.112,89.384 C139.266667,89.64 139.485333,89.8586667 139.768,90.04 C140.050667,90.2213333 140.389333,90.3573333 140.784,90.448 C141.178667,90.5386667 141.616,90.584 142.096,90.584 Z M142.096,83.656 C141.872,83.656 141.661333,83.6133333 141.464,83.528 C141.266667,83.4426667 141.090667,83.32 140.936,83.16 C140.781333,83 140.661333,82.8053333 140.576,82.576 C140.490667,82.3466667 140.448,82.088 140.448,81.8 C140.448,81.224 140.608,80.7786667 140.928,80.464 C141.248,80.1493333 141.637333,79.992 142.096,79.992 C142.554667,79.992 142.944,80.1493333 143.264,80.464 C143.584,80.7786667 143.744,81.224 143.744,81.8 C143.744,82.088 143.701333,82.3466667 143.616,82.576 C143.530667,82.8053333 143.410667,83 143.256,83.16 C143.101333,83.32 142.925333,83.4426667 142.728,83.528 C142.530667,83.6133333 142.32,83.656 142.096,83.656 Z M142.288,89.672 C141.584,89.672 141.032,89.5493333 140.632,89.304 C140.232,89.0586667 140.032,88.728 140.032,88.312 C140.032,88.088 140.096,87.864 140.224,87.64 C140.352,87.416 140.554667,87.2026667 140.832,87 C141.002667,87.0533333 141.176,87.088 141.352,87.104 C141.528,87.12 141.690667,87.128 141.84,87.128 L141.84,87.128 L143.184,87.128 C143.696,87.128 144.085333,87.1973333 144.352,87.336 C144.618667,87.4746667 144.752,87.7253333 144.752,88.088 C144.752,88.2906667 144.693333,88.488 144.576,88.68 C144.458667,88.872 144.293333,89.04 144.08,89.184 C143.866667,89.328 143.608,89.4453333 143.304,89.536 C143,89.6266667 142.661333,89.672 142.288,89.672 Z M150.16,90.584 C150.768,90.584 151.314667,90.512 151.8,90.368 C152.285333,90.224 152.698667,90.0293333 153.04,89.784 C153.381333,89.5386667 153.642667,89.2533333 153.824,88.928 C154.005333,88.6026667 154.096,88.2586667 154.096,87.896 C154.096,87.2453333 153.869333,86.7733333 153.416,86.48 C152.962667,86.1866667 152.282667,86.04 151.376,86.04 L151.376,86.04 L149.872,86.04 C149.338667,86.04 148.976,85.96 148.784,85.8 C148.592,85.64 148.496,85.4373333 148.496,85.192 C148.496,84.9786667 148.544,84.8 148.64,84.656 C148.736,84.512 148.853333,84.3813333 148.992,84.264 C149.173333,84.3493333 149.365333,84.416 149.568,84.464 C149.770667,84.512 149.968,84.536 150.16,84.536 C150.554667,84.536 150.925333,84.472 151.272,84.344 C151.618667,84.216 151.92,84.0373333 152.176,83.808 C152.432,83.5786667 152.634667,83.296 152.784,82.96 C152.933333,82.624 153.008,82.248 153.008,81.832 C153.008,81.5013333 152.946667,81.1973333 152.824,80.92 C152.701333,80.6426667 152.549333,80.4133333 152.368,80.232 L152.368,80.232 L153.968,80.232 L153.968,79.224 L151.264,79.224 C151.114667,79.1706667 150.946667,79.1253333 150.76,79.088 C150.573333,79.0506667 150.373333,79.032 150.16,79.032 C149.765333,79.032 149.389333,79.096 149.032,79.224 C148.674667,79.352 148.362667,79.536 148.096,79.776 C147.829333,80.016 147.618667,80.3066667 147.464,80.648 C147.309333,80.9893333 147.232,81.3733333 147.232,81.8 C147.232,82.2693333 147.336,82.6826667 147.544,83.04 C147.752,83.3973333 147.984,83.6826667 148.24,83.896 L148.24,83.896 L148.24,83.96 C148.037333,84.0986667 147.845333,84.2906667 147.664,84.536 C147.482667,84.7813333 147.392,85.0693333 147.392,85.4 C147.392,85.7093333 147.458667,85.968 147.592,86.176 C147.725333,86.384 147.888,86.5466667 148.08,86.664 L148.08,86.664 L148.08,86.728 C147.728,86.9733333 147.450667,87.2453333 147.248,87.544 C147.045333,87.8426667 146.944,88.1573333 146.944,88.488 C146.944,88.8293333 147.021333,89.128 147.176,89.384 C147.330667,89.64 147.549333,89.8586667 147.832,90.04 C148.114667,90.2213333 148.453333,90.3573333 148.848,90.448 C149.242667,90.5386667 149.68,90.584 150.16,90.584 Z M150.16,83.656 C149.936,83.656 149.725333,83.6133333 149.528,83.528 C149.330667,83.4426667 149.154667,83.32 149,83.16 C148.845333,83 148.725333,82.8053333 148.64,82.576 C148.554667,82.3466667 148.512,82.088 148.512,81.8 C148.512,81.224 148.672,80.7786667 148.992,80.464 C149.312,80.1493333 149.701333,79.992 150.16,79.992 C150.618667,79.992 151.008,80.1493333 151.328,80.464 C151.648,80.7786667 151.808,81.224 151.808,81.8 C151.808,82.088 151.765333,82.3466667 151.68,82.576 C151.594667,82.8053333 151.474667,83 151.32,83.16 C151.165333,83.32 150.989333,83.4426667 150.792,83.528 C150.594667,83.6133333 150.384,83.656 150.16,83.656 Z M150.352,89.672 C149.648,89.672 149.096,89.5493333 148.696,89.304 C148.296,89.0586667 148.096,88.728 148.096,88.312 C148.096,88.088 148.16,87.864 148.288,87.64 C148.416,87.416 148.618667,87.2026667 148.896,87 C149.066667,87.0533333 149.24,87.088 149.416,87.104 C149.592,87.12 149.754667,87.128 149.904,87.128 L149.904,87.128 L151.248,87.128 C151.76,87.128 152.149333,87.1973333 152.416,87.336 C152.682667,87.4746667 152.816,87.7253333 152.816,88.088 C152.816,88.2906667 152.757333,88.488 152.64,88.68 C152.522667,88.872 152.357333,89.04 152.144,89.184 C151.930667,89.328 151.672,89.4453333 151.368,89.536 C151.064,89.6266667 150.725333,89.672 150.352,89.672 Z M157.632,87.192 C158.090667,87.192 158.498667,87.1306667 158.856,87.008 C159.213333,86.8853333 159.512,86.7173333 159.752,86.504 C159.992,86.2906667 160.173333,86.0453333 160.296,85.768 C160.418667,85.4906667 160.48,85.192 160.48,84.872 C160.48,84.5093333 160.408,84.2 160.264,83.944 C160.12,83.688 159.936,83.472 159.712,83.296 C159.488,83.12 159.234667,82.9733333 158.952,82.856 C158.669333,82.7386667 158.389333,82.6266667 158.112,82.52 C157.888,82.4346667 157.672,82.352 157.464,82.272 C157.256,82.192 157.072,82.1013333 156.912,82 C156.752,81.8986667 156.624,81.7813333 156.528,81.648 C156.432,81.5146667 156.384,81.3573333 156.384,81.176 C156.384,80.8773333 156.498667,80.616 156.728,80.392 C156.957333,80.168 157.317333,80.056 157.808,80.056 C158.149333,80.056 158.464,80.12 158.752,80.248 C159.04,80.376 159.317333,80.5413333 159.584,80.744 L159.584,80.744 L160.208,79.912 C159.909333,79.6666667 159.554667,79.4586667 159.144,79.288 C158.733333,79.1173333 158.282667,79.032 157.792,79.032 C157.376,79.032 157.002667,79.088 156.672,79.2 C156.341333,79.312 156.061333,79.4666667 155.832,79.664 C155.602667,79.8613333 155.426667,80.096 155.304,80.368 C155.181333,80.64 155.12,80.9306667 155.12,81.24 C155.12,81.5706667 155.189333,81.8533333 155.328,82.088 C155.466667,82.3226667 155.645333,82.528 155.864,82.704 C156.082667,82.88 156.330667,83.0293333 156.608,83.152 C156.885333,83.2746667 157.162667,83.384 157.44,83.48 C157.653333,83.5653333 157.866667,83.6506667 158.08,83.736 C158.293333,83.8213333 158.482667,83.92 158.648,84.032 C158.813333,84.144 158.949333,84.2746667 159.056,84.424 C159.162667,84.5733333 159.216,84.7493333 159.216,84.952 C159.216,85.2933333 159.088,85.5813333 158.832,85.816 C158.576,86.0506667 158.192,86.168 157.68,86.168 C157.210667,86.168 156.797333,86.0826667 156.44,85.912 C156.082667,85.7413333 155.733333,85.5173333 155.392,85.24 L155.392,85.24 L154.736,86.12 C155.109333,86.4293333 155.546667,86.6853333 156.048,86.888 C156.549333,87.0906667 157.077333,87.192 157.632,87.192 Z M164.976,87.192 C166,87.192 166.8,86.7333333 167.376,85.816 C167.952,84.8986667 168.24,83.5813333 168.24,81.864 C168.24,80.1466667 167.952,78.84 167.376,77.944 C166.8,77.048 166,76.6 164.976,76.6 C163.941333,76.6 163.136,77.048 162.56,77.944 C161.984,78.84 161.696,80.1466667 161.696,81.864 C161.696,83.5813333 161.984,84.8986667 162.56,85.816 C163.136,86.7333333 163.941333,87.192 164.976,87.192 Z M164.976,86.136 C164.378667,86.136 163.896,85.7973333 163.528,85.12 C163.16,84.4426667 162.976,83.3573333 162.976,81.864 C162.976,81.1173333 163.024,80.4773333 163.12,79.944 C163.216,79.4106667 163.352,78.976 163.528,78.64 C163.704,78.304 163.914667,78.056 164.16,77.896 C164.405333,77.736 164.677333,77.656 164.976,77.656 C165.274667,77.656 165.544,77.736 165.784,77.896 C166.024,78.056 166.232,78.304 166.408,78.64 C166.584,78.976 166.72,79.4106667 166.816,79.944 C166.912,80.4773333 166.96,81.1173333 166.96,81.864 C166.96,82.6106667 166.912,83.2533333 166.816,83.792 C166.72,84.3306667 166.584,84.7733333 166.408,85.12 C166.232,85.4666667 166.024,85.7226667 165.784,85.888 C165.544,86.0533333 165.274667,86.136 164.976,86.136 Z M175.968,87 L175.968,85.912 L173.856,85.912 L173.856,76.792 L172.848,76.792 C172.570667,76.9626667 172.258667,77.1093333 171.912,77.232 C171.565333,77.3546667 171.157333,77.4586667 170.688,77.544 L170.688,77.544 L170.688,78.392 L172.544,78.392 L172.544,85.912 L170.208,85.912 L170.208,87 L175.968,87 Z" id="joebloggs01" fill="#000000" fill-rule="nonzero"></path>
        <path d="M100.522,60.168 C100.988667,60.168 101.422667,60.1003333 101.824,59.965 C102.225333,59.8296667 102.573,59.6056667 102.867,59.293 C103.161,58.9803333 103.392,58.572 103.56,58.068 C103.728,57.564 103.812,56.9433333 103.812,56.206 L103.812,56.206 L103.812,50.816 L102.692,50.816 L102.692,56.234 C102.692,56.7846667 102.636,57.2466667 102.524,57.62 C102.412,57.9933333 102.258,58.292 102.062,58.516 C101.866,58.74 101.637333,58.901 101.376,58.999 C101.114667,59.097 100.83,59.146 100.522,59.146 C100.223333,59.146 99.9433333,59.097 99.682,58.999 C99.4206667,58.901 99.1943333,58.74 99.003,58.516 C98.8116667,58.292 98.66,57.9933333 98.548,57.62 C98.436,57.2466667 98.38,56.7846667 98.38,56.234 L98.38,56.234 L98.38,50.816 L97.218,50.816 L97.218,56.206 C97.218,56.9433333 97.302,57.564 97.47,58.068 C97.638,58.572 97.869,58.9803333 98.163,59.293 C98.457,59.6056667 98.807,59.8296667 99.213,59.965 C99.619,60.1003333 100.055333,60.168 100.522,60.168 Z M107.9,60.168 C108.301333,60.168 108.658333,60.1143333 108.971,60.007 C109.283667,59.8996667 109.545,59.7526667 109.755,59.566 C109.965,59.3793333 110.123667,59.1646667 110.231,58.922 C110.338333,58.6793333 110.392,58.418 110.392,58.138 C110.392,57.8206667 110.329,57.55 110.203,57.326 C110.077,57.102 109.916,56.913 109.72,56.759 C109.524,56.605 109.302333,56.4766667 109.055,56.374 C108.807667,56.2713333 108.562667,56.1733333 108.32,56.08 C108.124,56.0053333 107.935,55.933 107.753,55.863 C107.571,55.793 107.41,55.7136667 107.27,55.625 C107.13,55.5363333 107.018,55.4336667 106.934,55.317 C106.85,55.2003333 106.808,55.0626667 106.808,54.904 C106.808,54.6426667 106.908333,54.414 107.109,54.218 C107.309667,54.022 107.624667,53.924 108.054,53.924 C108.352667,53.924 108.628,53.98 108.88,54.092 C109.132,54.204 109.374667,54.3486667 109.608,54.526 L109.608,54.526 L110.154,53.798 C109.892667,53.5833333 109.582333,53.4013333 109.223,53.252 C108.863667,53.1026667 108.469333,53.028 108.04,53.028 C107.676,53.028 107.349333,53.077 107.06,53.175 C106.770667,53.273 106.525667,53.4083333 106.325,53.581 C106.124333,53.7536667 105.970333,53.959 105.863,54.197 C105.755667,54.435 105.702,54.6893333 105.702,54.96 C105.702,55.2493333 105.762667,55.4966667 105.884,55.702 C106.005333,55.9073333 106.161667,56.087 106.353,56.241 C106.544333,56.395 106.761333,56.5256667 107.004,56.633 C107.246667,56.7403333 107.489333,56.836 107.732,56.92 L107.732,56.92 L108.292,57.144 C108.478667,57.2186667 108.644333,57.305 108.789,57.403 C108.933667,57.501 109.052667,57.6153333 109.146,57.746 C109.239333,57.8766667 109.286,58.0306667 109.286,58.208 C109.286,58.5066667 109.174,58.7586667 108.95,58.964 C108.726,59.1693333 108.39,59.272 107.942,59.272 C107.531333,59.272 107.169667,59.1973333 106.857,59.048 C106.544333,58.8986667 106.238667,58.7026667 105.94,58.46 L105.94,58.46 L105.366,59.23 C105.692667,59.5006667 106.075333,59.7246667 106.514,59.902 C106.952667,60.0793333 107.414667,60.168 107.9,60.168 Z M114.746,60.168 C115.212667,60.168 115.628,60.098 115.992,59.958 C116.356,59.818 116.687333,59.6546667 116.986,59.468 L116.986,59.468 L116.58,58.712 C116.328,58.8706667 116.064333,58.999 115.789,59.097 C115.513667,59.195 115.212667,59.244 114.886,59.244 C114.232667,59.244 113.703,59.0316667 113.297,58.607 C112.891,58.1823333 112.664667,57.606 112.618,56.878 L112.618,56.878 L117.21,56.878 C117.228667,56.794 117.240333,56.6936667 117.245,56.577 C117.249667,56.4603333 117.252,56.3413333 117.252,56.22 C117.252,55.7346667 117.191333,55.296 117.07,54.904 C116.948667,54.512 116.773667,54.176 116.545,53.896 C116.316333,53.616 116.031667,53.4013333 115.691,53.252 C115.350333,53.1026667 114.965333,53.028 114.536,53.028 C114.144,53.028 113.766,53.1096667 113.402,53.273 C113.038,53.4363333 112.713667,53.672 112.429,53.98 C112.144333,54.288 111.915667,54.6636667 111.743,55.107 C111.570333,55.5503333 111.484,56.052 111.484,56.612 C111.484,57.172 111.568,57.6713333 111.736,58.11 C111.904,58.5486667 112.135,58.9196667 112.429,59.223 C112.723,59.5263333 113.068333,59.7596667 113.465,59.923 C113.861667,60.0863333 114.288667,60.168 114.746,60.168 Z M116.244,56.052 L112.604,56.052 C112.641333,55.716 112.718333,55.4173333 112.835,55.156 C112.951667,54.8946667 113.098667,54.673 113.276,54.491 C113.453333,54.309 113.651667,54.1713333 113.871,54.078 C114.090333,53.9846667 114.321333,53.938 114.564,53.938 C115.096,53.938 115.509,54.1176667 115.803,54.477 C116.097,54.8363333 116.244,55.3613333 116.244,56.052 L116.244,56.052 Z M120.08,60 L120.08,55.632 C120.313333,55.0533333 120.586333,54.6473333 120.899,54.414 C121.211667,54.1806667 121.512667,54.064 121.802,54.064 C121.942,54.064 122.058667,54.0733333 122.152,54.092 C122.245333,54.1106667 122.348,54.1386667 122.46,54.176 L122.46,54.176 L122.684,53.168 C122.469333,53.0746667 122.226667,53.028 121.956,53.028 C121.564,53.028 121.202333,53.154 120.871,53.406 C120.539667,53.658 120.257333,53.9986667 120.024,54.428 L120.024,54.428 L119.982,54.428 L119.884,53.196 L118.932,53.196 L118.932,60 L120.08,60 Z M124.938,60 L124.938,55.072 C125.283333,54.7266667 125.591333,54.4653333 125.862,54.288 C126.132667,54.1106667 126.445333,54.022 126.8,54.022 C127.248,54.022 127.574667,54.1643333 127.78,54.449 C127.985333,54.7336667 128.088,55.198 128.088,55.842 L128.088,55.842 L128.088,60 L129.236,60 L129.236,55.688 C129.236,54.8106667 129.070333,54.148 128.739,53.7 C128.407667,53.252 127.882667,53.028 127.164,53.028 C126.688,53.028 126.270333,53.1376667 125.911,53.357 C125.551667,53.5763333 125.208667,53.8493333 124.882,54.176 L124.882,54.176 L124.84,54.176 L124.742,53.196 L123.79,53.196 L123.79,60 L124.938,60 Z M133.016,60.168 C133.445333,60.168 133.846667,60.0723333 134.22,59.881 C134.593333,59.6896667 134.943333,59.4586667 135.27,59.188 L135.27,59.188 L135.312,59.188 L135.41,60 L136.362,60 L136.362,55.828 C136.362,54.9786667 136.175333,54.2996667 135.802,53.791 C135.428667,53.2823333 134.826667,53.028 133.996,53.028 C133.445333,53.028 132.941333,53.1236667 132.484,53.315 C132.026667,53.5063333 131.639333,53.7046667 131.322,53.91 L131.322,53.91 L131.77,54.708 C132.040667,54.5213333 132.348667,54.3533333 132.694,54.204 C133.039333,54.0546667 133.408,53.98 133.8,53.98 C134.08,53.98 134.311,54.029 134.493,54.127 C134.675,54.225 134.817333,54.3533333 134.92,54.512 C135.022667,54.6706667 135.095,54.8526667 135.137,55.058 C135.179,55.2633333 135.2,55.4733333 135.2,55.688 C133.744,55.8466667 132.684667,56.1243333 132.022,56.521 C131.359333,56.9176667 131.028,57.4893333 131.028,58.236 C131.028,58.852 131.217,59.328 131.595,59.664 C131.973,60 132.446667,60.168 133.016,60.168 Z M133.352,59.244 C133.016,59.244 132.731333,59.16 132.498,58.992 C132.264667,58.824 132.148,58.544 132.148,58.152 C132.148,57.9373333 132.201667,57.739 132.309,57.557 C132.416333,57.375 132.589,57.214 132.827,57.074 C133.065,56.934 133.377667,56.8126667 133.765,56.71 C134.152333,56.6073333 134.630667,56.5186667 135.2,56.444 L135.2,56.444 L135.2,58.334 C134.873333,58.6326667 134.565333,58.859 134.276,59.013 C133.986667,59.167 133.678667,59.244 133.352,59.244 Z M139.652,60 L139.652,55.072 C140.277333,54.372 140.846667,54.022 141.36,54.022 C141.798667,54.022 142.120667,54.1643333 142.326,54.449 C142.531333,54.7336667 142.634,55.198 142.634,55.842 L142.634,55.842 L142.634,60 L143.782,60 L143.782,55.072 C144.407333,54.372 144.976667,54.022 145.49,54.022 C145.919333,54.022 146.236667,54.1643333 146.442,54.449 C146.647333,54.7336667 146.75,55.198 146.75,55.842 L146.75,55.842 L146.75,60 L147.898,60 L147.898,55.688 C147.898,54.8106667 147.727667,54.148 147.387,53.7 C147.046333,53.252 146.526,53.028 145.826,53.028 C145.406,53.028 145.016333,53.147 144.657,53.385 C144.297667,53.623 143.940667,53.938 143.586,54.33 C143.446,53.9193333 143.229,53.5996667 142.935,53.371 C142.641,53.1423333 142.232667,53.028 141.71,53.028 C141.299333,53.028 140.919,53.1376667 140.569,53.357 C140.219,53.5763333 139.894667,53.8493333 139.596,54.176 L139.596,54.176 L139.554,54.176 L139.456,53.196 L138.504,53.196 L138.504,60 L139.652,60 Z M152.868,60.168 C153.334667,60.168 153.75,60.098 154.114,59.958 C154.478,59.818 154.809333,59.6546667 155.108,59.468 L155.108,59.468 L154.702,58.712 C154.45,58.8706667 154.186333,58.999 153.911,59.097 C153.635667,59.195 153.334667,59.244 153.008,59.244 C152.354667,59.244 151.825,59.0316667 151.419,58.607 C151.013,58.1823333 150.786667,57.606 150.74,56.878 L150.74,56.878 L155.332,56.878 C155.350667,56.794 155.362333,56.6936667 155.367,56.577 C155.371667,56.4603333 155.374,56.3413333 155.374,56.22 C155.374,55.7346667 155.313333,55.296 155.192,54.904 C155.070667,54.512 154.895667,54.176 154.667,53.896 C154.438333,53.616 154.153667,53.4013333 153.813,53.252 C153.472333,53.1026667 153.087333,53.028 152.658,53.028 C152.266,53.028 151.888,53.1096667 151.524,53.273 C151.16,53.4363333 150.835667,53.672 150.551,53.98 C150.266333,54.288 150.037667,54.6636667 149.865,55.107 C149.692333,55.5503333 149.606,56.052 149.606,56.612 C149.606,57.172 149.69,57.6713333 149.858,58.11 C150.026,58.5486667 150.257,58.9196667 150.551,59.223 C150.845,59.5263333 151.190333,59.7596667 151.587,59.923 C151.983667,60.0863333 152.410667,60.168 152.868,60.168 Z M154.366,56.052 L150.726,56.052 C150.763333,55.716 150.840333,55.4173333 150.957,55.156 C151.073667,54.8946667 151.220667,54.673 151.398,54.491 C151.575333,54.309 151.773667,54.1713333 151.993,54.078 C152.212333,53.9846667 152.443333,53.938 152.686,53.938 C153.218,53.938 153.631,54.1176667 153.925,54.477 C154.219,54.8363333 154.366,55.3613333 154.366,56.052 L154.366,56.052 Z" id="Username" fill="#4B4B4B" fill-rule="nonzero"></path>
        <rect id="Rectangle" stroke="#005FC6" stroke-width="2" x="79" y="133" width="347" height="50" rx="3"></rect>
        <rect id="Rectangle" fill="#F5F5F5" x="93" y="128" width="63" height="10"></rect>
        <path d="M98.422,137 L98.422,133.36 L99.934,133.36 C100.438,133.36 100.897667,133.301667 101.313,133.185 C101.728333,133.068333 102.085333,132.893333 102.384,132.66 C102.682667,132.426667 102.913667,132.132667 103.077,131.778 C103.240333,131.423333 103.322,131.003333 103.322,130.518 C103.322,130.014 103.238,129.589333 103.07,129.244 C102.902,128.898667 102.668667,128.621 102.37,128.411 C102.071333,128.201 101.709667,128.049333 101.285,127.956 C100.860333,127.862667 100.391333,127.816 99.878,127.816 L99.878,127.816 L97.26,127.816 L97.26,137 L98.422,137 Z M99.794,132.408 L98.422,132.408 L98.422,128.754 L99.738,128.754 C100.540667,128.754 101.145,128.882333 101.551,129.139 C101.957,129.395667 102.16,129.855333 102.16,130.518 C102.16,131.171333 101.966333,131.649667 101.579,131.953 C101.191667,132.256333 100.596667,132.408 99.794,132.408 L99.794,132.408 Z M106.038,137.168 C106.467333,137.168 106.868667,137.072333 107.242,136.881 C107.615333,136.689667 107.965333,136.458667 108.292,136.188 L108.292,136.188 L108.334,136.188 L108.432,137 L109.384,137 L109.384,132.828 C109.384,131.978667 109.197333,131.299667 108.824,130.791 C108.450667,130.282333 107.848667,130.028 107.018,130.028 C106.467333,130.028 105.963333,130.123667 105.506,130.315 C105.048667,130.506333 104.661333,130.704667 104.344,130.91 L104.344,130.91 L104.792,131.708 C105.062667,131.521333 105.370667,131.353333 105.716,131.204 C106.061333,131.054667 106.43,130.98 106.822,130.98 C107.102,130.98 107.333,131.029 107.515,131.127 C107.697,131.225 107.839333,131.353333 107.942,131.512 C108.044667,131.670667 108.117,131.852667 108.159,132.058 C108.201,132.263333 108.222,132.473333 108.222,132.688 C106.766,132.846667 105.706667,133.124333 105.044,133.521 C104.381333,133.917667 104.05,134.489333 104.05,135.236 C104.05,135.852 104.239,136.328 104.617,136.664 C104.995,137 105.468667,137.168 106.038,137.168 Z M106.374,136.244 C106.038,136.244 105.753333,136.16 105.52,135.992 C105.286667,135.824 105.17,135.544 105.17,135.152 C105.17,134.937333 105.223667,134.739 105.331,134.557 C105.438333,134.375 105.611,134.214 105.849,134.074 C106.087,133.934 106.399667,133.812667 106.787,133.71 C107.174333,133.607333 107.652667,133.518667 108.222,133.444 L108.222,133.444 L108.222,135.334 C107.895333,135.632667 107.587333,135.859 107.298,136.013 C107.008667,136.167 106.700667,136.244 106.374,136.244 Z M113.304,137.168 C113.705333,137.168 114.062333,137.114333 114.375,137.007 C114.687667,136.899667 114.949,136.752667 115.159,136.566 C115.369,136.379333 115.527667,136.164667 115.635,135.922 C115.742333,135.679333 115.796,135.418 115.796,135.138 C115.796,134.820667 115.733,134.55 115.607,134.326 C115.481,134.102 115.32,133.913 115.124,133.759 C114.928,133.605 114.706333,133.476667 114.459,133.374 C114.211667,133.271333 113.966667,133.173333 113.724,133.08 C113.528,133.005333 113.339,132.933 113.157,132.863 C112.975,132.793 112.814,132.713667 112.674,132.625 C112.534,132.536333 112.422,132.433667 112.338,132.317 C112.254,132.200333 112.212,132.062667 112.212,131.904 C112.212,131.642667 112.312333,131.414 112.513,131.218 C112.713667,131.022 113.028667,130.924 113.458,130.924 C113.756667,130.924 114.032,130.98 114.284,131.092 C114.536,131.204 114.778667,131.348667 115.012,131.526 L115.012,131.526 L115.558,130.798 C115.296667,130.583333 114.986333,130.401333 114.627,130.252 C114.267667,130.102667 113.873333,130.028 113.444,130.028 C113.08,130.028 112.753333,130.077 112.464,130.175 C112.174667,130.273 111.929667,130.408333 111.729,130.581 C111.528333,130.753667 111.374333,130.959 111.267,131.197 C111.159667,131.435 111.106,131.689333 111.106,131.96 C111.106,132.249333 111.166667,132.496667 111.288,132.702 C111.409333,132.907333 111.565667,133.087 111.757,133.241 C111.948333,133.395 112.165333,133.525667 112.408,133.633 C112.650667,133.740333 112.893333,133.836 113.136,133.92 L113.136,133.92 L113.696,134.144 C113.882667,134.218667 114.048333,134.305 114.193,134.403 C114.337667,134.501 114.456667,134.615333 114.55,134.746 C114.643333,134.876667 114.69,135.030667 114.69,135.208 C114.69,135.506667 114.578,135.758667 114.354,135.964 C114.13,136.169333 113.794,136.272 113.346,136.272 C112.935333,136.272 112.573667,136.197333 112.261,136.048 C111.948333,135.898667 111.642667,135.702667 111.344,135.46 L111.344,135.46 L110.77,136.23 C111.096667,136.500667 111.479333,136.724667 111.918,136.902 C112.356667,137.079333 112.818667,137.168 113.304,137.168 Z M119.17,137.168 C119.571333,137.168 119.928333,137.114333 120.241,137.007 C120.553667,136.899667 120.815,136.752667 121.025,136.566 C121.235,136.379333 121.393667,136.164667 121.501,135.922 C121.608333,135.679333 121.662,135.418 121.662,135.138 C121.662,134.820667 121.599,134.55 121.473,134.326 C121.347,134.102 121.186,133.913 120.99,133.759 C120.794,133.605 120.572333,133.476667 120.325,133.374 C120.077667,133.271333 119.832667,133.173333 119.59,133.08 C119.394,133.005333 119.205,132.933 119.023,132.863 C118.841,132.793 118.68,132.713667 118.54,132.625 C118.4,132.536333 118.288,132.433667 118.204,132.317 C118.12,132.200333 118.078,132.062667 118.078,131.904 C118.078,131.642667 118.178333,131.414 118.379,131.218 C118.579667,131.022 118.894667,130.924 119.324,130.924 C119.622667,130.924 119.898,130.98 120.15,131.092 C120.402,131.204 120.644667,131.348667 120.878,131.526 L120.878,131.526 L121.424,130.798 C121.162667,130.583333 120.852333,130.401333 120.493,130.252 C120.133667,130.102667 119.739333,130.028 119.31,130.028 C118.946,130.028 118.619333,130.077 118.33,130.175 C118.040667,130.273 117.795667,130.408333 117.595,130.581 C117.394333,130.753667 117.240333,130.959 117.133,131.197 C117.025667,131.435 116.972,131.689333 116.972,131.96 C116.972,132.249333 117.032667,132.496667 117.154,132.702 C117.275333,132.907333 117.431667,133.087 117.623,133.241 C117.814333,133.395 118.031333,133.525667 118.274,133.633 C118.516667,133.740333 118.759333,133.836 119.002,133.92 L119.002,133.92 L119.562,134.144 C119.748667,134.218667 119.914333,134.305 120.059,134.403 C120.203667,134.501 120.322667,134.615333 120.416,134.746 C120.509333,134.876667 120.556,135.030667 120.556,135.208 C120.556,135.506667 120.444,135.758667 120.22,135.964 C119.996,136.169333 119.66,136.272 119.212,136.272 C118.801333,136.272 118.439667,136.197333 118.127,136.048 C117.814333,135.898667 117.508667,135.702667 117.21,135.46 L117.21,135.46 L116.636,136.23 C116.962667,136.500667 117.345333,136.724667 117.784,136.902 C118.222667,137.079333 118.684667,137.168 119.17,137.168 Z M125.68,137 L126.632,133.36 C126.725333,133.033333 126.809333,132.709 126.884,132.387 C126.958667,132.065 127.033333,131.731333 127.108,131.386 L127.108,131.386 L127.164,131.386 C127.248,131.731333 127.325,132.062667 127.395,132.38 C127.465,132.697333 127.542,133.019333 127.626,133.346 L127.626,133.346 L128.606,137 L130.006,137 L131.826,130.196 L130.734,130.196 L129.74,134.13 C129.665333,134.456667 129.595333,134.774 129.53,135.082 C129.464667,135.39 129.394667,135.702667 129.32,136.02 L129.32,136.02 L129.264,136.02 C129.189333,135.702667 129.112333,135.39 129.033,135.082 C128.953667,134.774 128.872,134.456667 128.788,134.13 L128.788,134.13 L127.724,130.196 L126.604,130.196 L125.554,134.13 C125.47,134.447333 125.390667,134.762333 125.316,135.075 C125.241333,135.387667 125.166667,135.702667 125.092,136.02 L125.092,136.02 L125.036,136.02 C124.970667,135.702667 124.905333,135.39 124.84,135.082 C124.774667,134.774 124.704667,134.456667 124.63,134.13 L124.63,134.13 L123.622,130.196 L122.446,130.196 L124.336,137 L125.68,137 Z M135.9,137.168 C136.32,137.168 136.719,137.088667 137.097,136.93 C137.475,136.771333 137.808667,136.540333 138.098,136.237 C138.387333,135.933667 138.618333,135.560333 138.791,135.117 C138.963667,134.673667 139.05,134.172 139.05,133.612 C139.05,133.042667 138.963667,132.536333 138.791,132.093 C138.618333,131.649667 138.387333,131.274 138.098,130.966 C137.808667,130.658 137.475,130.424667 137.097,130.266 C136.719,130.107333 136.32,130.028 135.9,130.028 C135.48,130.028 135.081,130.107333 134.703,130.266 C134.325,130.424667 133.991333,130.658 133.702,130.966 C133.412667,131.274 133.181667,131.649667 133.009,132.093 C132.836333,132.536333 132.75,133.042667 132.75,133.612 C132.75,134.172 132.836333,134.673667 133.009,135.117 C133.181667,135.560333 133.412667,135.933667 133.702,136.237 C133.991333,136.540333 134.325,136.771333 134.703,136.93 C135.081,137.088667 135.48,137.168 135.9,137.168 Z M135.9,136.216 C135.610667,136.216 135.344667,136.153 135.102,136.027 C134.859333,135.901 134.651667,135.723667 134.479,135.495 C134.306333,135.266333 134.173333,134.993333 134.08,134.676 C133.986667,134.358667 133.94,134.004 133.94,133.612 C133.94,133.22 133.986667,132.863 134.08,132.541 C134.173333,132.219 134.306333,131.941333 134.479,131.708 C134.651667,131.474667 134.859333,131.295 135.102,131.169 C135.344667,131.043 135.610667,130.98 135.9,130.98 C136.189333,130.98 136.455333,131.043 136.698,131.169 C136.940667,131.295 137.148333,131.474667 137.321,131.708 C137.493667,131.941333 137.626667,132.219 137.72,132.541 C137.813333,132.863 137.86,133.22 137.86,133.612 C137.86,134.004 137.813333,134.358667 137.72,134.676 C137.626667,134.993333 137.493667,135.266333 137.321,135.495 C137.148333,135.723667 136.940667,135.901 136.698,136.027 C136.455333,136.153 136.189333,136.216 135.9,136.216 Z M141.99,137 L141.99,132.632 C142.223333,132.053333 142.496333,131.647333 142.809,131.414 C143.121667,131.180667 143.422667,131.064 143.712,131.064 C143.852,131.064 143.968667,131.073333 144.062,131.092 C144.155333,131.110667 144.258,131.138667 144.37,131.176 L144.37,131.176 L144.594,130.168 C144.379333,130.074667 144.136667,130.028 143.866,130.028 C143.474,130.028 143.112333,130.154 142.781,130.406 C142.449667,130.658 142.167333,130.998667 141.934,131.428 L141.934,131.428 L141.892,131.428 L141.794,130.196 L140.842,130.196 L140.842,137 L141.99,137 Z M147.884,137.168 C148.285333,137.168 148.661,137.072333 149.011,136.881 C149.361,136.689667 149.671333,136.463333 149.942,136.202 L149.942,136.202 L149.984,136.202 L150.082,137 L151.034,137 L151.034,127.032 L149.872,127.032 L149.872,129.65 L149.928,130.812 C149.629333,130.569333 149.335333,130.378 149.046,130.238 C148.756667,130.098 148.416,130.028 148.024,130.028 C147.632,130.028 147.258667,130.112 146.904,130.28 C146.549333,130.448 146.236667,130.686 145.966,130.994 C145.695333,131.302 145.478333,131.677667 145.315,132.121 C145.151667,132.564333 145.07,133.061333 145.07,133.612 C145.07,134.750667 145.324333,135.628 145.833,136.244 C146.341667,136.86 147.025333,137.168 147.884,137.168 Z M148.136,136.202 C147.538667,136.202 147.076667,135.973333 146.75,135.516 C146.423333,135.058667 146.26,134.419333 146.26,133.598 C146.26,133.206 146.311333,132.851333 146.414,132.534 C146.516667,132.216667 146.656667,131.943667 146.834,131.715 C147.011333,131.486333 147.219,131.309 147.457,131.183 C147.695,131.057 147.949333,130.994 148.22,130.994 C148.5,130.994 148.773,131.047667 149.039,131.155 C149.305,131.262333 149.582667,131.446667 149.872,131.708 L149.872,131.708 L149.872,135.264 C149.592,135.581333 149.312,135.817 149.032,135.971 C148.752,136.125 148.453333,136.202 148.136,136.202 Z" id="Password" fill="#005FC6" fill-rule="nonzero"></path>
        <circle id="Oval" fill="#000000" cx="99" cy="159" r="4"></circle>
        <circle id="Oval" fill="#000000" cx="112" cy="159" r="4"></circle>
        <circle id="Oval" fill="#000000" cx="125" cy="159" r="4"></circle>
        <circle id="Oval" fill="#000000" cx="138" cy="159" r="4"></circle>
        <circle id="Oval" fill="#000000" cx="150" cy="159" r="4"></circle>
        <circle id="Oval" fill="#000000" cx="163" cy="159" r="4"></circle>
        <line x1="175.5" y1="148.5" x2="175.5" y2="169.5" id="Line-6" stroke="#000000" stroke-linecap="square"></line>
    </g>
</svg>