<?xml version="1.0" encoding="UTF-8"?>
<svg viewBox="0 0 500 250" version="1.1" xmlns="http://www.w3.org/2000/svg" xmlns:xlink="http://www.w3.org/1999/xlink">
    <title>Artboard</title>
    <g id="Artboard" stroke="none" stroke-width="1" fill="none" fill-rule="evenodd">
        <rect id="Rectangle" fill="#F5F5F5" fill-rule="nonzero" x="7" y="0" width="495" height="250"></rect>
        <rect id="Rectangle" fill="#00916A" fill-rule="nonzero" x="0" y="0" width="6" height="250"></rect>
        <path d="M33.5,12 C25.0095541,12 18,18.910828 18,27.5 C18,36.089172 24.910828,43 33.5,43 C42.089172,43 49,36.089172 49,27.5 C49,18.910828 41.9904459,12 33.5,12 Z M30.4394904,35.2006369 L22.7388535,27.5 L24.910828,25.3280255 L30.4394904,30.8566879 L42.089172,19.1082803 L44.2611465,21.2802548 L30.4394904,35.2006369 Z" id="Shape" fill="#00916A" fill-rule="nonzero"></path>
        <rect id="Rectangle" stroke="#000000" fill="#FFFFFF" x="193.5" y="70.5" width="34" height="34" rx="17"></rect>
        <rect id="Rectangle" fill="#005FC6" x="201" y="78" width="18.864865" height="18.864865" rx="9.4324325"></rect>
        <rect id="Rectangle" stroke="#6E7272" fill="#FFFFFF" x="193.5" y="125.5" width="34" height="34" rx="17"></rect>
        <rect id="Rectangle" stroke="#6E7272" fill="#FFFFFF" x="193.5" y="178.5" width="34" height="34" rx="17"></rect>
        <path d="M241.7,93.84 L242.96,89.84 L247.74,89.84 L248.98,93.84 L250.76,93.84 L246.32,80.72 L244.44,80.72 L240,93.84 L241.7,93.84 Z M247.32,88.5 L243.38,88.5 L244,86.5 C244.24,85.7666667 244.466667,85.0366667 244.68,84.31 C244.893333,83.5833333 245.1,82.84 245.3,82.08 L245.3,82.08 L245.38,82.08 C245.593333,82.84 245.806667,83.5833333 246.02,84.31 C246.233333,85.0366667 246.46,85.7666667 246.7,86.5 L246.7,86.5 L247.32,88.5 Z M256.3,94.08 C256.886667,94.08 257.446667,93.97 257.98,93.75 C258.513333,93.53 259,93.2266667 259.44,92.84 L259.44,92.84 L258.72,91.74 C258.413333,92.0066667 258.07,92.2366667 257.69,92.43 C257.31,92.6233333 256.893333,92.72 256.44,92.72 C256,92.72 255.593333,92.63 255.22,92.45 C254.846667,92.27 254.53,92.0166667 254.27,91.69 C254.01,91.3633333 253.806667,90.9733333 253.66,90.52 C253.513333,90.0666667 253.44,89.56 253.44,89 C253.44,88.44 253.516667,87.93 253.67,87.47 C253.823333,87.01 254.033333,86.6133333 254.3,86.28 C254.566667,85.9466667 254.886667,85.69 255.26,85.51 C255.633333,85.33 256.04,85.24 256.48,85.24 C256.866667,85.24 257.216667,85.32 257.53,85.48 C257.843333,85.64 258.14,85.8466667 258.42,86.1 L258.42,86.1 L259.26,85.02 C258.913333,84.7133333 258.513333,84.4466667 258.06,84.22 C257.606667,83.9933333 257.06,83.88 256.42,83.88 C255.793333,83.88 255.196667,83.9933333 254.63,84.22 C254.063333,84.4466667 253.566667,84.78 253.14,85.22 C252.713333,85.66 252.373333,86.1966667 252.12,86.83 C251.866667,87.4633333 251.74,88.1866667 251.74,89 C251.74,89.8 251.856667,90.5166667 252.09,91.15 C252.323333,91.7833333 252.643333,92.3166667 253.05,92.75 C253.456667,93.1833333 253.94,93.5133333 254.5,93.74 C255.06,93.9666667 255.66,94.08 256.3,94.08 Z M264.44,94.08 C264.746667,94.08 265.056667,94.0433333 265.37,93.97 C265.683333,93.8966667 265.973333,93.8133333 266.24,93.72 L266.24,93.72 L265.92,92.48 C265.76,92.5466667 265.58,92.6066667 265.38,92.66 C265.18,92.7133333 264.993333,92.74 264.82,92.74 C264.26,92.74 263.87,92.5766667 263.65,92.25 C263.43,91.9233333 263.32,91.46 263.32,90.86 L263.32,90.86 L263.32,85.46 L265.94,85.46 L265.94,84.12 L263.32,84.12 L263.32,81.4 L261.94,81.4 L261.74,84.12 L260.22,84.22 L260.22,85.46 L261.66,85.46 L261.66,90.84 C261.66,91.32 261.706667,91.76 261.8,92.16 C261.893333,92.56 262.05,92.9 262.27,93.18 C262.49,93.46 262.776667,93.68 263.13,93.84 C263.483333,94 263.92,94.08 264.44,94.08 Z M268.98,82.12 C269.3,82.12 269.57,82.02 269.79,81.82 C270.01,81.62 270.12,81.3666667 270.12,81.06 C270.12,80.74 270.01,80.4833333 269.79,80.29 C269.57,80.0966667 269.3,80 268.98,80 C268.66,80 268.39,80.0966667 268.17,80.29 C267.95,80.4833333 267.84,80.74 267.84,81.06 C267.84,81.3666667 267.95,81.62 268.17,81.82 C268.39,82.02 268.66,82.12 268.98,82.12 Z M269.78,93.84 L269.78,84.12 L268.14,84.12 L268.14,93.84 L269.78,93.84 Z M277.08,93.84 L280.52,84.12 L278.9,84.12 L277.06,89.64 L277.06,89.64 L276.62,91.08 C276.473333,91.56 276.326667,92.0333333 276.18,92.5 L276.18,92.5 L276.1,92.5 C275.953333,92.0333333 275.803333,91.56 275.65,91.08 C275.496667,90.6 275.346667,90.12 275.2,89.64 L275.2,89.64 L273.36,84.12 L271.66,84.12 L275.16,93.84 L277.08,93.84 Z M286.26,94.08 C286.926667,94.08 287.52,93.98 288.04,93.78 C288.56,93.58 289.033333,93.3466667 289.46,93.08 L289.46,93.08 L288.88,92 C288.52,92.2266667 288.143333,92.41 287.75,92.55 C287.356667,92.69 286.926667,92.76 286.46,92.76 C285.526667,92.76 284.77,92.4566667 284.19,91.85 C283.61,91.2433333 283.286667,90.42 283.22,89.38 L283.22,89.38 L289.78,89.38 C289.806667,89.26 289.823333,89.1166667 289.83,88.95 C289.836667,88.7833333 289.84,88.6133333 289.84,88.44 C289.84,87.7466667 289.753333,87.12 289.58,86.56 C289.406667,86 289.156667,85.52 288.83,85.12 C288.503333,84.72 288.096667,84.4133333 287.61,84.2 C287.123333,83.9866667 286.573333,83.88 285.96,83.88 C285.4,83.88 284.86,83.9966667 284.34,84.23 C283.82,84.4633333 283.356667,84.8 282.95,85.24 C282.543333,85.68 282.216667,86.2166667 281.97,86.85 C281.723333,87.4833333 281.6,88.2 281.6,89 C281.6,89.8 281.72,90.5133333 281.96,91.14 C282.2,91.7666667 282.53,92.2966667 282.95,92.73 C283.37,93.1633333 283.863333,93.4966667 284.43,93.73 C284.996667,93.9633333 285.606667,94.08 286.26,94.08 Z M288.4,88.2 L283.2,88.2 C283.253333,87.72 283.363333,87.2933333 283.53,86.92 C283.696667,86.5466667 283.906667,86.23 284.16,85.97 C284.413333,85.71 284.696667,85.5133333 285.01,85.38 C285.323333,85.2466667 285.653333,85.18 286,85.18 C286.76,85.18 287.35,85.4366667 287.77,85.95 C288.19,86.4633333 288.4,87.2133333 288.4,88.2 L288.4,88.2 Z" id="Active" fill="#000000" fill-rule="nonzero"></path>
        <path d="M249.14,149.84 L249.14,148.42 L243.4,148.42 L243.4,136.72 L241.74,136.72 L241.74,149.84 L249.14,149.84 Z M254.84,150.08 C255.44,150.08 256.01,149.966667 256.55,149.74 C257.09,149.513333 257.566667,149.183333 257.98,148.75 C258.393333,148.316667 258.723333,147.783333 258.97,147.15 C259.216667,146.516667 259.34,145.8 259.34,145 C259.34,144.186667 259.216667,143.463333 258.97,142.83 C258.723333,142.196667 258.393333,141.66 257.98,141.22 C257.566667,140.78 257.09,140.446667 256.55,140.22 C256.01,139.993333 255.44,139.88 254.84,139.88 C254.24,139.88 253.67,139.993333 253.13,140.22 C252.59,140.446667 252.113333,140.78 251.7,141.22 C251.286667,141.66 250.956667,142.196667 250.71,142.83 C250.463333,143.463333 250.34,144.186667 250.34,145 C250.34,145.8 250.463333,146.516667 250.71,147.15 C250.956667,147.783333 251.286667,148.316667 251.7,148.75 C252.113333,149.183333 252.59,149.513333 253.13,149.74 C253.67,149.966667 254.24,150.08 254.84,150.08 Z M254.84,148.72 C254.426667,148.72 254.046667,148.63 253.7,148.45 C253.353333,148.27 253.056667,148.016667 252.81,147.69 C252.563333,147.363333 252.373333,146.973333 252.24,146.52 C252.106667,146.066667 252.04,145.56 252.04,145 C252.04,144.44 252.106667,143.93 252.24,143.47 C252.373333,143.01 252.563333,142.613333 252.81,142.28 C253.056667,141.946667 253.353333,141.69 253.7,141.51 C254.046667,141.33 254.426667,141.24 254.84,141.24 C255.253333,141.24 255.633333,141.33 255.98,141.51 C256.326667,141.69 256.623333,141.946667 256.87,142.28 C257.116667,142.613333 257.306667,143.01 257.44,143.47 C257.573333,143.93 257.64,144.44 257.64,145 C257.64,145.56 257.573333,146.066667 257.44,146.52 C257.306667,146.973333 257.116667,147.363333 256.87,147.69 C256.623333,148.016667 256.326667,148.27 255.98,148.45 C255.633333,148.63 255.253333,148.72 254.84,148.72 Z M265.74,150.08 C266.326667,150.08 266.886667,149.97 267.42,149.75 C267.953333,149.53 268.44,149.226667 268.88,148.84 L268.88,148.84 L268.16,147.74 C267.853333,148.006667 267.51,148.236667 267.13,148.43 C266.75,148.623333 266.333333,148.72 265.88,148.72 C265.44,148.72 265.033333,148.63 264.66,148.45 C264.286667,148.27 263.97,148.016667 263.71,147.69 C263.45,147.363333 263.246667,146.973333 263.1,146.52 C262.953333,146.066667 262.88,145.56 262.88,145 C262.88,144.44 262.956667,143.93 263.11,143.47 C263.263333,143.01 263.473333,142.613333 263.74,142.28 C264.006667,141.946667 264.326667,141.69 264.7,141.51 C265.073333,141.33 265.48,141.24 265.92,141.24 C266.306667,141.24 266.656667,141.32 266.97,141.48 C267.283333,141.64 267.58,141.846667 267.86,142.1 L267.86,142.1 L268.7,141.02 C268.353333,140.713333 267.953333,140.446667 267.5,140.22 C267.046667,139.993333 266.5,139.88 265.86,139.88 C265.233333,139.88 264.636667,139.993333 264.07,140.22 C263.503333,140.446667 263.006667,140.78 262.58,141.22 C262.153333,141.66 261.813333,142.196667 261.56,142.83 C261.306667,143.463333 261.18,144.186667 261.18,145 C261.18,145.8 261.296667,146.516667 261.53,147.15 C261.763333,147.783333 262.083333,148.316667 262.49,148.75 C262.896667,149.183333 263.38,149.513333 263.94,149.74 C264.5,149.966667 265.1,150.08 265.74,150.08 Z M272.64,149.84 L272.64,147.28 L274.46,145.16 L277.3,149.84 L279.1,149.84 L275.4,144.02 L278.66,140.12 L276.84,140.12 L272.7,145.24 L272.64,145.24 L272.64,135.6 L271.02,135.6 L271.02,149.84 L272.64,149.84 Z M284.5,150.08 C285.166667,150.08 285.76,149.98 286.28,149.78 C286.8,149.58 287.273333,149.346667 287.7,149.08 L287.7,149.08 L287.12,148 C286.76,148.226667 286.383333,148.41 285.99,148.55 C285.596667,148.69 285.166667,148.76 284.7,148.76 C283.766667,148.76 283.01,148.456667 282.43,147.85 C281.85,147.243333 281.526667,146.42 281.46,145.38 L281.46,145.38 L288.02,145.38 C288.046667,145.26 288.063333,145.116667 288.07,144.95 C288.076667,144.783333 288.08,144.613333 288.08,144.44 C288.08,143.746667 287.993333,143.12 287.82,142.56 C287.646667,142 287.396667,141.52 287.07,141.12 C286.743333,140.72 286.336667,140.413333 285.85,140.2 C285.363333,139.986667 284.813333,139.88 284.2,139.88 C283.64,139.88 283.1,139.996667 282.58,140.23 C282.06,140.463333 281.596667,140.8 281.19,141.24 C280.783333,141.68 280.456667,142.216667 280.21,142.85 C279.963333,143.483333 279.84,144.2 279.84,145 C279.84,145.8 279.96,146.513333 280.2,147.14 C280.44,147.766667 280.77,148.296667 281.19,148.73 C281.61,149.163333 282.103333,149.496667 282.67,149.73 C283.236667,149.963333 283.846667,150.08 284.5,150.08 Z M286.64,144.2 L281.44,144.2 C281.493333,143.72 281.603333,143.293333 281.77,142.92 C281.936667,142.546667 282.146667,142.23 282.4,141.97 C282.653333,141.71 282.936667,141.513333 283.25,141.38 C283.563333,141.246667 283.893333,141.18 284.24,141.18 C285,141.18 285.59,141.436667 286.01,141.95 C286.43,142.463333 286.64,143.213333 286.64,144.2 L286.64,144.2 Z M293.8,150.08 C294.373333,150.08 294.91,149.943333 295.41,149.67 C295.91,149.396667 296.353333,149.073333 296.74,148.7 L296.74,148.7 L296.8,148.7 L296.94,149.84 L298.3,149.84 L298.3,135.6 L296.64,135.6 L296.64,139.34 L296.72,141 C296.293333,140.653333 295.873333,140.38 295.46,140.18 C295.046667,139.98 294.56,139.88 294,139.88 C293.44,139.88 292.906667,140 292.4,140.24 C291.893333,140.48 291.446667,140.82 291.06,141.26 C290.673333,141.7 290.363333,142.236667 290.13,142.87 C289.896667,143.503333 289.78,144.213333 289.78,145 C289.78,146.626667 290.143333,147.88 290.87,148.76 C291.596667,149.64 292.573333,150.08 293.8,150.08 Z M294.16,148.7 C293.306667,148.7 292.646667,148.373333 292.18,147.72 C291.713333,147.066667 291.48,146.153333 291.48,144.98 C291.48,144.42 291.553333,143.913333 291.7,143.46 C291.846667,143.006667 292.046667,142.616667 292.3,142.29 C292.553333,141.963333 292.85,141.71 293.19,141.53 C293.53,141.35 293.893333,141.26 294.28,141.26 C294.68,141.26 295.07,141.336667 295.45,141.49 C295.83,141.643333 296.226667,141.906667 296.64,142.28 L296.64,142.28 L296.64,147.36 C296.24,147.813333 295.84,148.15 295.44,148.37 C295.04,148.59 294.613333,148.7 294.16,148.7 Z" id="Locked" fill="#000000" fill-rule="nonzero"></path>
        <path d="M246.7,201.08 C247.553333,201.08 248.306667,200.913333 248.96,200.58 C249.613333,200.246667 250.2,199.78 250.72,199.18 L250.72,199.18 L249.8,198.14 C249.373333,198.606667 248.92,198.97 248.44,199.23 C247.96,199.49 247.4,199.62 246.76,199.62 C246.133333,199.62 245.57,199.493333 245.07,199.24 C244.57,198.986667 244.146667,198.626667 243.8,198.16 C243.453333,197.693333 243.183333,197.13 242.99,196.47 C242.796667,195.81 242.7,195.066667 242.7,194.24 C242.7,193.426667 242.796667,192.693333 242.99,192.04 C243.183333,191.386667 243.46,190.83 243.82,190.37 C244.18,189.91 244.613333,189.556667 245.12,189.31 C245.626667,189.063333 246.193333,188.94 246.82,188.94 C247.38,188.94 247.88,189.053333 248.32,189.28 C248.76,189.506667 249.153333,189.806667 249.5,190.18 L249.5,190.18 L250.4,189.1 C250.013333,188.673333 249.516667,188.296667 248.91,187.97 C248.303333,187.643333 247.6,187.48 246.8,187.48 C245.96,187.48 245.186667,187.636667 244.48,187.95 C243.773333,188.263333 243.16,188.713333 242.64,189.3 C242.12,189.886667 241.713333,190.6 241.42,191.44 C241.126667,192.28 240.98,193.226667 240.98,194.28 C240.98,195.346667 241.123333,196.303333 241.41,197.15 C241.696667,197.996667 242.096667,198.71 242.61,199.29 C243.123333,199.87 243.726667,200.313333 244.42,200.62 C245.113333,200.926667 245.873333,201.08 246.7,201.08 Z M254.74,201.08 C254.966667,201.08 255.153333,201.066667 255.3,201.04 C255.446667,201.013333 255.573333,200.973333 255.68,200.92 L255.68,200.92 L255.46,199.68 C255.366667,199.706667 255.296667,199.72 255.25,199.72 L255.25,199.72 L255.1,199.72 C254.98,199.72 254.873333,199.666667 254.78,199.56 C254.686667,199.453333 254.64,199.266667 254.64,199 L254.64,199 L254.64,186.6 L253,186.6 L253,198.88 C253,199.6 253.133333,200.146667 253.4,200.52 C253.666667,200.893333 254.113333,201.08 254.74,201.08 Z M261.88,201.08 C262.48,201.08 263.05,200.966667 263.59,200.74 C264.13,200.513333 264.606667,200.183333 265.02,199.75 C265.433333,199.316667 265.763333,198.783333 266.01,198.15 C266.256667,197.516667 266.38,196.8 266.38,196 C266.38,195.186667 266.256667,194.463333 266.01,193.83 C265.763333,193.196667 265.433333,192.66 265.02,192.22 C264.606667,191.78 264.13,191.446667 263.59,191.22 C263.05,190.993333 262.48,190.88 261.88,190.88 C261.28,190.88 260.71,190.993333 260.17,191.22 C259.63,191.446667 259.153333,191.78 258.74,192.22 C258.326667,192.66 257.996667,193.196667 257.75,193.83 C257.503333,194.463333 257.38,195.186667 257.38,196 C257.38,196.8 257.503333,197.516667 257.75,198.15 C257.996667,198.783333 258.326667,199.316667 258.74,199.75 C259.153333,200.183333 259.63,200.513333 260.17,200.74 C260.71,200.966667 261.28,201.08 261.88,201.08 Z M261.88,199.72 C261.466667,199.72 261.086667,199.63 260.74,199.45 C260.393333,199.27 260.096667,199.016667 259.85,198.69 C259.603333,198.363333 259.413333,197.973333 259.28,197.52 C259.146667,197.066667 259.08,196.56 259.08,196 C259.08,195.44 259.146667,194.93 259.28,194.47 C259.413333,194.01 259.603333,193.613333 259.85,193.28 C260.096667,192.946667 260.393333,192.69 260.74,192.51 C261.086667,192.33 261.466667,192.24 261.88,192.24 C262.293333,192.24 262.673333,192.33 263.02,192.51 C263.366667,192.69 263.663333,192.946667 263.91,193.28 C264.156667,193.613333 264.346667,194.01 264.48,194.47 C264.613333,194.93 264.68,195.44 264.68,196 C264.68,196.56 264.613333,197.066667 264.48,197.52 C264.346667,197.973333 264.156667,198.363333 263.91,198.69 C263.663333,199.016667 263.366667,199.27 263.02,199.45 C262.673333,199.63 262.293333,199.72 261.88,199.72 Z M271.48,201.08 C272.053333,201.08 272.563333,201.003333 273.01,200.85 C273.456667,200.696667 273.83,200.486667 274.13,200.22 C274.43,199.953333 274.656667,199.646667 274.81,199.3 C274.963333,198.953333 275.04,198.58 275.04,198.18 C275.04,197.726667 274.95,197.34 274.77,197.02 C274.59,196.7 274.36,196.43 274.08,196.21 C273.8,195.99 273.483333,195.806667 273.13,195.66 C272.776667,195.513333 272.426667,195.373333 272.08,195.24 C271.8,195.133333 271.53,195.03 271.27,194.93 C271.01,194.83 270.78,194.716667 270.58,194.59 C270.38,194.463333 270.22,194.316667 270.1,194.15 C269.98,193.983333 269.92,193.786667 269.92,193.56 C269.92,193.186667 270.063333,192.86 270.35,192.58 C270.636667,192.3 271.086667,192.16 271.7,192.16 C272.126667,192.16 272.52,192.24 272.88,192.4 C273.24,192.56 273.586667,192.766667 273.92,193.02 L273.92,193.02 L274.7,191.98 C274.326667,191.673333 273.883333,191.413333 273.37,191.2 C272.856667,190.986667 272.293333,190.88 271.68,190.88 C271.16,190.88 270.693333,190.95 270.28,191.09 C269.866667,191.23 269.516667,191.423333 269.23,191.67 C268.943333,191.916667 268.723333,192.21 268.57,192.55 C268.416667,192.89 268.34,193.253333 268.34,193.64 C268.34,194.053333 268.426667,194.406667 268.6,194.7 C268.773333,194.993333 268.996667,195.25 269.27,195.47 C269.543333,195.69 269.853333,195.876667 270.2,196.03 C270.546667,196.183333 270.893333,196.32 271.24,196.44 L271.24,196.44 L272.04,196.76 C272.306667,196.866667 272.543333,196.99 272.75,197.13 C272.956667,197.27 273.126667,197.433333 273.26,197.62 C273.393333,197.806667 273.46,198.026667 273.46,198.28 C273.46,198.706667 273.3,199.066667 272.98,199.36 C272.66,199.653333 272.18,199.8 271.54,199.8 C270.953333,199.8 270.436667,199.693333 269.99,199.48 C269.543333,199.266667 269.106667,198.986667 268.68,198.64 L268.68,198.64 L267.86,199.74 C268.326667,200.126667 268.873333,200.446667 269.5,200.7 C270.126667,200.953333 270.786667,201.08 271.48,201.08 Z M281.26,201.08 C281.926667,201.08 282.52,200.98 283.04,200.78 C283.56,200.58 284.033333,200.346667 284.46,200.08 L284.46,200.08 L283.88,199 C283.52,199.226667 283.143333,199.41 282.75,199.55 C282.356667,199.69 281.926667,199.76 281.46,199.76 C280.526667,199.76 279.77,199.456667 279.19,198.85 C278.61,198.243333 278.286667,197.42 278.22,196.38 L278.22,196.38 L284.78,196.38 C284.806667,196.26 284.823333,196.116667 284.83,195.95 C284.836667,195.783333 284.84,195.613333 284.84,195.44 C284.84,194.746667 284.753333,194.12 284.58,193.56 C284.406667,193 284.156667,192.52 283.83,192.12 C283.503333,191.72 283.096667,191.413333 282.61,191.2 C282.123333,190.986667 281.573333,190.88 280.96,190.88 C280.4,190.88 279.86,190.996667 279.34,191.23 C278.82,191.463333 278.356667,191.8 277.95,192.24 C277.543333,192.68 277.216667,193.216667 276.97,193.85 C276.723333,194.483333 276.6,195.2 276.6,196 C276.6,196.8 276.72,197.513333 276.96,198.14 C277.2,198.766667 277.53,199.296667 277.95,199.73 C278.37,200.163333 278.863333,200.496667 279.43,200.73 C279.996667,200.963333 280.606667,201.08 281.26,201.08 Z M283.4,195.2 L278.2,195.2 C278.253333,194.72 278.363333,194.293333 278.53,193.92 C278.696667,193.546667 278.906667,193.23 279.16,192.97 C279.413333,192.71 279.696667,192.513333 280.01,192.38 C280.323333,192.246667 280.653333,192.18 281,192.18 C281.76,192.18 282.35,192.436667 282.77,192.95 C283.19,193.463333 283.4,194.213333 283.4,195.2 L283.4,195.2 Z M290.56,201.08 C291.133333,201.08 291.67,200.943333 292.17,200.67 C292.67,200.396667 293.113333,200.073333 293.5,199.7 L293.5,199.7 L293.56,199.7 L293.7,200.84 L295.06,200.84 L295.06,186.6 L293.4,186.6 L293.4,190.34 L293.48,192 C293.053333,191.653333 292.633333,191.38 292.22,191.18 C291.806667,190.98 291.32,190.88 290.76,190.88 C290.2,190.88 289.666667,191 289.16,191.24 C288.653333,191.48 288.206667,191.82 287.82,192.26 C287.433333,192.7 287.123333,193.236667 286.89,193.87 C286.656667,194.503333 286.54,195.213333 286.54,196 C286.54,197.626667 286.903333,198.88 287.63,199.76 C288.356667,200.64 289.333333,201.08 290.56,201.08 Z M290.92,199.7 C290.066667,199.7 289.406667,199.373333 288.94,198.72 C288.473333,198.066667 288.24,197.153333 288.24,195.98 C288.24,195.42 288.313333,194.913333 288.46,194.46 C288.606667,194.006667 288.806667,193.616667 289.06,193.29 C289.313333,192.963333 289.61,192.71 289.95,192.53 C290.29,192.35 290.653333,192.26 291.04,192.26 C291.44,192.26 291.83,192.336667 292.21,192.49 C292.59,192.643333 292.986667,192.906667 293.4,193.28 L293.4,193.28 L293.4,198.36 C293,198.813333 292.6,199.15 292.2,199.37 C291.8,199.59 291.373333,199.7 290.92,199.7 Z" id="Closed" fill="#000000" fill-rule="nonzero"></path>
        <path d="M195.7,47.12 L196.96,43.12 L201.74,43.12 L202.98,47.12 L204.76,47.12 L200.32,34 L198.44,34 L194,47.12 L195.7,47.12 Z M201.32,41.78 L197.38,41.78 L198,39.78 C198.24,39.0466667 198.466667,38.3166667 198.68,37.59 C198.893333,36.8633333 199.1,36.12 199.3,35.36 L199.3,35.36 L199.38,35.36 C199.593333,36.12 199.806667,36.8633333 200.02,37.59 C200.233333,38.3166667 200.46,39.0466667 200.7,39.78 L200.7,39.78 L201.32,41.78 Z M210.3,47.36 C210.886667,47.36 211.446667,47.25 211.98,47.03 C212.513333,46.81 213,46.5066667 213.44,46.12 L213.44,46.12 L212.72,45.02 C212.413333,45.2866667 212.07,45.5166667 211.69,45.71 C211.31,45.9033333 210.893333,46 210.44,46 C210,46 209.593333,45.91 209.22,45.73 C208.846667,45.55 208.53,45.2966667 208.27,44.97 C208.01,44.6433333 207.806667,44.2533333 207.66,43.8 C207.513333,43.3466667 207.44,42.84 207.44,42.28 C207.44,41.72 207.516667,41.21 207.67,40.75 C207.823333,40.29 208.033333,39.8933333 208.3,39.56 C208.566667,39.2266667 208.886667,38.97 209.26,38.79 C209.633333,38.61 210.04,38.52 210.48,38.52 C210.866667,38.52 211.216667,38.6 211.53,38.76 C211.843333,38.92 212.14,39.1266667 212.42,39.38 L212.42,39.38 L213.26,38.3 C212.913333,37.9933333 212.513333,37.7266667 212.06,37.5 C211.606667,37.2733333 211.06,37.16 210.42,37.16 C209.793333,37.16 209.196667,37.2733333 208.63,37.5 C208.063333,37.7266667 207.566667,38.06 207.14,38.5 C206.713333,38.94 206.373333,39.4766667 206.12,40.11 C205.866667,40.7433333 205.74,41.4666667 205.74,42.28 C205.74,43.08 205.856667,43.7966667 206.09,44.43 C206.323333,45.0633333 206.643333,45.5966667 207.05,46.03 C207.456667,46.4633333 207.94,46.7933333 208.5,47.02 C209.06,47.2466667 209.66,47.36 210.3,47.36 Z M219,47.36 C219.586667,47.36 220.146667,47.25 220.68,47.03 C221.213333,46.81 221.7,46.5066667 222.14,46.12 L222.14,46.12 L221.42,45.02 C221.113333,45.2866667 220.77,45.5166667 220.39,45.71 C220.01,45.9033333 219.593333,46 219.14,46 C218.7,46 218.293333,45.91 217.92,45.73 C217.546667,45.55 217.23,45.2966667 216.97,44.97 C216.71,44.6433333 216.506667,44.2533333 216.36,43.8 C216.213333,43.3466667 216.14,42.84 216.14,42.28 C216.14,41.72 216.216667,41.21 216.37,40.75 C216.523333,40.29 216.733333,39.8933333 217,39.56 C217.266667,39.2266667 217.586667,38.97 217.96,38.79 C218.333333,38.61 218.74,38.52 219.18,38.52 C219.566667,38.52 219.916667,38.6 220.23,38.76 C220.543333,38.92 220.84,39.1266667 221.12,39.38 L221.12,39.38 L221.96,38.3 C221.613333,37.9933333 221.213333,37.7266667 220.76,37.5 C220.306667,37.2733333 219.76,37.16 219.12,37.16 C218.493333,37.16 217.896667,37.2733333 217.33,37.5 C216.763333,37.7266667 216.266667,38.06 215.84,38.5 C215.413333,38.94 215.073333,39.4766667 214.82,40.11 C214.566667,40.7433333 214.44,41.4666667 214.44,42.28 C214.44,43.08 214.556667,43.7966667 214.79,44.43 C215.023333,45.0633333 215.343333,45.5966667 215.75,46.03 C216.156667,46.4633333 216.64,46.7933333 217.2,47.02 C217.76,47.2466667 218.36,47.36 219,47.36 Z M227.64,47.36 C228.24,47.36 228.81,47.2466667 229.35,47.02 C229.89,46.7933333 230.366667,46.4633333 230.78,46.03 C231.193333,45.5966667 231.523333,45.0633333 231.77,44.43 C232.016667,43.7966667 232.14,43.08 232.14,42.28 C232.14,41.4666667 232.016667,40.7433333 231.77,40.11 C231.523333,39.4766667 231.193333,38.94 230.78,38.5 C230.366667,38.06 229.89,37.7266667 229.35,37.5 C228.81,37.2733333 228.24,37.16 227.64,37.16 C227.04,37.16 226.47,37.2733333 225.93,37.5 C225.39,37.7266667 224.913333,38.06 224.5,38.5 C224.086667,38.94 223.756667,39.4766667 223.51,40.11 C223.263333,40.7433333 223.14,41.4666667 223.14,42.28 C223.14,43.08 223.263333,43.7966667 223.51,44.43 C223.756667,45.0633333 224.086667,45.5966667 224.5,46.03 C224.913333,46.4633333 225.39,46.7933333 225.93,47.02 C226.47,47.2466667 227.04,47.36 227.64,47.36 Z M227.64,46 C227.226667,46 226.846667,45.91 226.5,45.73 C226.153333,45.55 225.856667,45.2966667 225.61,44.97 C225.363333,44.6433333 225.173333,44.2533333 225.04,43.8 C224.906667,43.3466667 224.84,42.84 224.84,42.28 C224.84,41.72 224.906667,41.21 225.04,40.75 C225.173333,40.29 225.363333,39.8933333 225.61,39.56 C225.856667,39.2266667 226.153333,38.97 226.5,38.79 C226.846667,38.61 227.226667,38.52 227.64,38.52 C228.053333,38.52 228.433333,38.61 228.78,38.79 C229.126667,38.97 229.423333,39.2266667 229.67,39.56 C229.916667,39.8933333 230.106667,40.29 230.24,40.75 C230.373333,41.21 230.44,41.72 230.44,42.28 C230.44,42.84 230.373333,43.3466667 230.24,43.8 C230.106667,44.2533333 229.916667,44.6433333 229.67,44.97 C229.423333,45.2966667 229.126667,45.55 228.78,45.73 C228.433333,45.91 228.053333,46 227.64,46 Z M237.54,47.36 C238.22,47.36 238.81,47.2 239.31,46.88 C239.81,46.56 240.286667,46.1333333 240.74,45.6 L240.74,45.6 L240.8,45.6 L240.94,47.12 L242.3,47.12 L242.3,37.4 L240.66,37.4 L240.66,44.3 C240.193333,44.8733333 239.766667,45.29 239.38,45.55 C238.993333,45.81 238.546667,45.94 238.04,45.94 C237.4,45.94 236.936667,45.7366667 236.65,45.33 C236.363333,44.9233333 236.22,44.26 236.22,43.34 L236.22,43.34 L236.22,37.4 L234.56,37.4 L234.56,43.56 C234.56,44.8133333 234.796667,45.76 235.27,46.4 C235.743333,47.04 236.5,47.36 237.54,47.36 Z M247.22,47.12 L247.22,40.08 C247.713333,39.5866667 248.153333,39.2133333 248.54,38.96 C248.926667,38.7066667 249.373333,38.58 249.88,38.58 C250.52,38.58 250.986667,38.7833333 251.28,39.19 C251.573333,39.5966667 251.72,40.26 251.72,41.18 L251.72,41.18 L251.72,47.12 L253.36,47.12 L253.36,40.96 C253.36,39.7066667 253.123333,38.76 252.65,38.12 C252.176667,37.48 251.426667,37.16 250.4,37.16 C249.72,37.16 249.123333,37.3166667 248.61,37.63 C248.096667,37.9433333 247.606667,38.3333333 247.14,38.8 L247.14,38.8 L247.08,38.8 L246.94,37.4 L245.58,37.4 L245.58,47.12 L247.22,47.12 Z M259.58,47.36 C259.886667,47.36 260.196667,47.3233333 260.51,47.25 C260.823333,47.1766667 261.113333,47.0933333 261.38,47 L261.38,47 L261.06,45.76 C260.9,45.8266667 260.72,45.8866667 260.52,45.94 C260.32,45.9933333 260.133333,46.02 259.96,46.02 C259.4,46.02 259.01,45.8566667 258.79,45.53 C258.57,45.2033333 258.46,44.74 258.46,44.14 L258.46,44.14 L258.46,38.74 L261.08,38.74 L261.08,37.4 L258.46,37.4 L258.46,34.68 L257.08,34.68 L256.88,37.4 L255.36,37.5 L255.36,38.74 L256.8,38.74 L256.8,44.12 C256.8,44.6 256.846667,45.04 256.94,45.44 C257.033333,45.84 257.19,46.18 257.41,46.46 C257.63,46.74 257.916667,46.96 258.27,47.12 C258.623333,47.28 259.06,47.36 259.58,47.36 Z M269.82,47.36 C270.393333,47.36 270.903333,47.2833333 271.35,47.13 C271.796667,46.9766667 272.17,46.7666667 272.47,46.5 C272.77,46.2333333 272.996667,45.9266667 273.15,45.58 C273.303333,45.2333333 273.38,44.86 273.38,44.46 C273.38,44.0066667 273.29,43.62 273.11,43.3 C272.93,42.98 272.7,42.71 272.42,42.49 C272.14,42.27 271.823333,42.0866667 271.47,41.94 C271.116667,41.7933333 270.766667,41.6533333 270.42,41.52 C270.14,41.4133333 269.87,41.31 269.61,41.21 C269.35,41.11 269.12,40.9966667 268.92,40.87 C268.72,40.7433333 268.56,40.5966667 268.44,40.43 C268.32,40.2633333 268.26,40.0666667 268.26,39.84 C268.26,39.4666667 268.403333,39.14 268.69,38.86 C268.976667,38.58 269.426667,38.44 270.04,38.44 C270.466667,38.44 270.86,38.52 271.22,38.68 C271.58,38.84 271.926667,39.0466667 272.26,39.3 L272.26,39.3 L273.04,38.26 C272.666667,37.9533333 272.223333,37.6933333 271.71,37.48 C271.196667,37.2666667 270.633333,37.16 270.02,37.16 C269.5,37.16 269.033333,37.23 268.62,37.37 C268.206667,37.51 267.856667,37.7033333 267.57,37.95 C267.283333,38.1966667 267.063333,38.49 266.91,38.83 C266.756667,39.17 266.68,39.5333333 266.68,39.92 C266.68,40.3333333 266.766667,40.6866667 266.94,40.98 C267.113333,41.2733333 267.336667,41.53 267.61,41.75 C267.883333,41.97 268.193333,42.1566667 268.54,42.31 C268.886667,42.4633333 269.233333,42.6 269.58,42.72 L269.58,42.72 L270.38,43.04 C270.646667,43.1466667 270.883333,43.27 271.09,43.41 C271.296667,43.55 271.466667,43.7133333 271.6,43.9 C271.733333,44.0866667 271.8,44.3066667 271.8,44.56 C271.8,44.9866667 271.64,45.3466667 271.32,45.64 C271,45.9333333 270.52,46.08 269.88,46.08 C269.293333,46.08 268.776667,45.9733333 268.33,45.76 C267.883333,45.5466667 267.446667,45.2666667 267.02,44.92 L267.02,44.92 L266.2,46.02 C266.666667,46.4066667 267.213333,46.7266667 267.84,46.98 C268.466667,47.2333333 269.126667,47.36 269.82,47.36 Z M278.32,47.36 C278.626667,47.36 278.936667,47.3233333 279.25,47.25 C279.563333,47.1766667 279.853333,47.0933333 280.12,47 L280.12,47 L279.8,45.76 C279.64,45.8266667 279.46,45.8866667 279.26,45.94 C279.06,45.9933333 278.873333,46.02 278.7,46.02 C278.14,46.02 277.75,45.8566667 277.53,45.53 C277.31,45.2033333 277.2,44.74 277.2,44.14 L277.2,44.14 L277.2,38.74 L279.82,38.74 L279.82,37.4 L277.2,37.4 L277.2,34.68 L275.82,34.68 L275.62,37.4 L274.1,37.5 L274.1,38.74 L275.54,38.74 L275.54,44.12 C275.54,44.6 275.586667,45.04 275.68,45.44 C275.773333,45.84 275.93,46.18 276.15,46.46 C276.37,46.74 276.656667,46.96 277.01,47.12 C277.363333,47.28 277.8,47.36 278.32,47.36 Z M283.84,47.36 C284.453333,47.36 285.026667,47.2233333 285.56,46.95 C286.093333,46.6766667 286.593333,46.3466667 287.06,45.96 L287.06,45.96 L287.12,45.96 L287.26,47.12 L288.62,47.12 L288.62,41.16 C288.62,39.9466667 288.353333,38.9766667 287.82,38.25 C287.286667,37.5233333 286.426667,37.16 285.24,37.16 C284.453333,37.16 283.733333,37.2966667 283.08,37.57 C282.426667,37.8433333 281.873333,38.1266667 281.42,38.42 L281.42,38.42 L282.06,39.56 C282.446667,39.2933333 282.886667,39.0533333 283.38,38.84 C283.873333,38.6266667 284.4,38.52 284.96,38.52 C285.36,38.52 285.69,38.59 285.95,38.73 C286.21,38.87 286.413333,39.0533333 286.56,39.28 C286.706667,39.5066667 286.81,39.7666667 286.87,40.06 C286.93,40.3533333 286.96,40.6533333 286.96,40.96 C284.88,41.1866667 283.366667,41.5833333 282.42,42.15 C281.473333,42.7166667 281,43.5333333 281,44.6 C281,45.48 281.27,46.16 281.81,46.64 C282.35,47.12 283.026667,47.36 283.84,47.36 Z M284.32,46.04 C283.84,46.04 283.433333,45.92 283.1,45.68 C282.766667,45.44 282.6,45.04 282.6,44.48 C282.6,44.1733333 282.676667,43.89 282.83,43.63 C282.983333,43.37 283.23,43.14 283.57,42.94 C283.91,42.74 284.356667,42.5666667 284.91,42.42 C285.463333,42.2733333 286.146667,42.1466667 286.96,42.04 L286.96,42.04 L286.96,44.74 C286.493333,45.1666667 286.053333,45.49 285.64,45.71 C285.226667,45.93 284.786667,46.04 284.32,46.04 Z M294.46,47.36 C294.766667,47.36 295.076667,47.3233333 295.39,47.25 C295.703333,47.1766667 295.993333,47.0933333 296.26,47 L296.26,47 L295.94,45.76 C295.78,45.8266667 295.6,45.8866667 295.4,45.94 C295.2,45.9933333 295.013333,46.02 294.84,46.02 C294.28,46.02 293.89,45.8566667 293.67,45.53 C293.45,45.2033333 293.34,44.74 293.34,44.14 L293.34,44.14 L293.34,38.74 L295.96,38.74 L295.96,37.4 L293.34,37.4 L293.34,34.68 L291.96,34.68 L291.76,37.4 L290.24,37.5 L290.24,38.74 L291.68,38.74 L291.68,44.12 C291.68,44.6 291.726667,45.04 291.82,45.44 C291.913333,45.84 292.07,46.18 292.29,46.46 C292.51,46.74 292.796667,46.96 293.15,47.12 C293.503333,47.28 293.94,47.36 294.46,47.36 Z M301,47.36 C301.68,47.36 302.27,47.2 302.77,46.88 C303.27,46.56 303.746667,46.1333333 304.2,45.6 L304.2,45.6 L304.26,45.6 L304.4,47.12 L305.76,47.12 L305.76,37.4 L304.12,37.4 L304.12,44.3 C303.653333,44.8733333 303.226667,45.29 302.84,45.55 C302.453333,45.81 302.006667,45.94 301.5,45.94 C300.86,45.94 300.396667,45.7366667 300.11,45.33 C299.823333,44.9233333 299.68,44.26 299.68,43.34 L299.68,43.34 L299.68,37.4 L298.02,37.4 L298.02,43.56 C298.02,44.8133333 298.256667,45.76 298.73,46.4 C299.203333,47.04 299.96,47.36 301,47.36 Z M311.58,47.36 C312.153333,47.36 312.663333,47.2833333 313.11,47.13 C313.556667,46.9766667 313.93,46.7666667 314.23,46.5 C314.53,46.2333333 314.756667,45.9266667 314.91,45.58 C315.063333,45.2333333 315.14,44.86 315.14,44.46 C315.14,44.0066667 315.05,43.62 314.87,43.3 C314.69,42.98 314.46,42.71 314.18,42.49 C313.9,42.27 313.583333,42.0866667 313.23,41.94 C312.876667,41.7933333 312.526667,41.6533333 312.18,41.52 C311.9,41.4133333 311.63,41.31 311.37,41.21 C311.11,41.11 310.88,40.9966667 310.68,40.87 C310.48,40.7433333 310.32,40.5966667 310.2,40.43 C310.08,40.2633333 310.02,40.0666667 310.02,39.84 C310.02,39.4666667 310.163333,39.14 310.45,38.86 C310.736667,38.58 311.186667,38.44 311.8,38.44 C312.226667,38.44 312.62,38.52 312.98,38.68 C313.34,38.84 313.686667,39.0466667 314.02,39.3 L314.02,39.3 L314.8,38.26 C314.426667,37.9533333 313.983333,37.6933333 313.47,37.48 C312.956667,37.2666667 312.393333,37.16 311.78,37.16 C311.26,37.16 310.793333,37.23 310.38,37.37 C309.966667,37.51 309.616667,37.7033333 309.33,37.95 C309.043333,38.1966667 308.823333,38.49 308.67,38.83 C308.516667,39.17 308.44,39.5333333 308.44,39.92 C308.44,40.3333333 308.526667,40.6866667 308.7,40.98 C308.873333,41.2733333 309.096667,41.53 309.37,41.75 C309.643333,41.97 309.953333,42.1566667 310.3,42.31 C310.646667,42.4633333 310.993333,42.6 311.34,42.72 L311.34,42.72 L312.14,43.04 C312.406667,43.1466667 312.643333,43.27 312.85,43.41 C313.056667,43.55 313.226667,43.7133333 313.36,43.9 C313.493333,44.0866667 313.56,44.3066667 313.56,44.56 C313.56,44.9866667 313.4,45.3466667 313.08,45.64 C312.76,45.9333333 312.28,46.08 311.64,46.08 C311.053333,46.08 310.536667,45.9733333 310.09,45.76 C309.643333,45.5466667 309.206667,45.2666667 308.78,44.92 L308.78,44.92 L307.96,46.02 C308.426667,46.4066667 308.973333,46.7266667 309.6,46.98 C310.226667,47.2333333 310.886667,47.36 311.58,47.36 Z" id="Accountstatus" fill="#000000" fill-rule="nonzero"></path>
    </g>
</svg>