<?xml version="1.0" encoding="UTF-8"?>
<svg viewBox="0 0 500 415" version="1.1" xmlns="http://www.w3.org/2000/svg" xmlns:xlink="http://www.w3.org/1999/xlink">
    <title>Artboard</title>
    <g id="Artboard" stroke="none" stroke-width="1" fill="none" fill-rule="evenodd">
        <rect id="Rectangle" fill="#F5F5F5" fill-rule="nonzero" x="6" y="0" width="495" height="415"></rect>
        <rect id="Rectangle" fill="#00916A" fill-rule="nonzero" x="0" y="0" width="6" height="415"></rect>
        <path d="M33.5,12 C25.0095541,12 18,18.910828 18,27.5 C18,36.089172 24.910828,43 33.5,43 C42.089172,43 49,36.089172 49,27.5 C49,18.910828 41.9904459,12 33.5,12 Z M30.4394904,35.2006369 L22.7388535,27.5 L24.910828,25.3280255 L30.4394904,30.8566879 L42.089172,19.1082803 L44.2611465,21.2802548 L30.4394904,35.2006369 Z" id="Shape" fill="#00916A" fill-rule="nonzero"></path>
        <rect id="Rectangle" stroke="#6E7272" x="78.5" y="69.5" width="348" height="39" rx="3"></rect>
        <path d="M81.184,59 L81.184,54.632 L84.992,54.632 L84.992,53.064 L81.184,53.064 L81.184,50.104 L85.648,50.104 L85.648,48.536 L79.328,48.536 L79.328,59 L81.184,59 Z M88.256,49.768 C88.5866667,49.768 88.8586667,49.672 89.072,49.48 C89.2853333,49.288 89.392,49.0373333 89.392,48.728 C89.392,48.4186667 89.2853333,48.1653333 89.072,47.968 C88.8586667,47.7706667 88.5866667,47.672 88.256,47.672 C87.9253333,47.672 87.6533333,47.7706667 87.44,47.968 C87.2266667,48.1653333 87.12,48.4186667 87.12,48.728 C87.12,49.0373333 87.2266667,49.288 87.44,49.48 C87.6533333,49.672 87.9253333,49.768 88.256,49.768 Z M89.168,59 L89.168,51.144 L87.328,51.144 L87.328,59 L89.168,59 Z M93.36,59 L93.36,54.2 C93.6053333,53.6026667 93.8986667,53.184 94.24,52.944 C94.5813333,52.704 94.9066667,52.584 95.216,52.584 C95.3866667,52.584 95.5306667,52.5946667 95.648,52.616 C95.7653333,52.6373333 95.8933333,52.6693333 96.032,52.712 L96.032,52.712 L96.352,51.112 C96.128,51.0053333 95.8293333,50.952 95.456,50.952 C95.04,50.952 94.6346667,51.088 94.24,51.36 C93.8453333,51.632 93.5093333,52.024 93.232,52.536 L93.232,52.536 L93.168,52.536 L93.04,51.144 L91.52,51.144 L91.52,59 L93.36,59 Z M99.584,59.192 C100.074667,59.192 100.512,59.128 100.896,59 C101.28,58.872 101.6,58.6986667 101.856,58.48 C102.112,58.2613333 102.306667,58.0053333 102.44,57.712 C102.573333,57.4186667 102.64,57.1013333 102.64,56.76 C102.64,56.3973333 102.573333,56.0853333 102.44,55.824 C102.306667,55.5626667 102.130667,55.3413333 101.912,55.16 C101.693333,54.9786667 101.450667,54.8266667 101.184,54.704 C100.917333,54.5813333 100.650667,54.472 100.384,54.376 C100.170667,54.3013333 99.9653333,54.2266667 99.768,54.152 C99.5706667,54.0773333 99.3973333,53.9973333 99.248,53.912 C99.0986667,53.8266667 98.9786667,53.728 98.888,53.616 C98.7973333,53.504 98.752,53.368 98.752,53.208 C98.752,52.9626667 98.8453333,52.7573333 99.032,52.592 C99.2186667,52.4266667 99.5093333,52.344 99.904,52.344 C100.213333,52.344 100.509333,52.4053333 100.792,52.528 C101.074667,52.6506667 101.354667,52.8133333 101.632,53.016 L101.632,53.016 L102.48,51.896 C102.16,51.6506667 101.781333,51.432 101.344,51.24 C100.906667,51.048 100.416,50.952 99.872,50.952 C98.9866667,50.952 98.288,51.1706667 97.776,51.608 C97.264,52.0453333 97.008,52.6106667 97.008,53.304 C97.008,53.6346667 97.0746667,53.92 97.208,54.16 C97.3413333,54.4 97.512,54.6106667 97.72,54.792 C97.928,54.9733333 98.1653333,55.128 98.432,55.256 C98.6986667,55.384 98.96,55.496 99.216,55.592 C99.4186667,55.6773333 99.6213333,55.76 99.824,55.84 C100.026667,55.92 100.208,56.008 100.368,56.104 C100.528,56.2 100.656,56.3093333 100.752,56.432 C100.848,56.5546667 100.896,56.696 100.896,56.856 C100.896,57.1333333 100.794667,57.36 100.592,57.536 C100.389333,57.712 100.074667,57.8 99.648,57.8 C99.2426667,57.8 98.8666667,57.7226667 98.52,57.568 C98.1733333,57.4133333 97.824,57.1973333 97.472,56.92 L97.472,56.92 L96.608,58.104 C96.992,58.4133333 97.448,58.672 97.976,58.88 C98.504,59.088 99.04,59.192 99.584,59.192 Z M106.736,59.192 C107.045333,59.192 107.336,59.1626667 107.608,59.104 C107.88,59.0453333 108.122667,58.9786667 108.336,58.904 L108.336,58.904 L108.016,57.544 C107.898667,57.5973333 107.768,57.64 107.624,57.672 C107.48,57.704 107.338667,57.72 107.2,57.72 C106.464,57.72 106.096,57.2613333 106.096,56.344 L106.096,56.344 L106.096,52.6 L108.096,52.6 L108.096,51.144 L106.096,51.144 L106.096,49 L104.56,49 L104.336,51.144 L103.12,51.224 L103.12,52.6 L104.24,52.6 L104.24,56.344 C104.24,56.7706667 104.285333,57.1573333 104.376,57.504 C104.466667,57.8506667 104.610667,58.1493333 104.808,58.4 C105.005333,58.6506667 105.261333,58.8453333 105.576,58.984 C105.890667,59.1226667 106.277333,59.192 106.736,59.192 Z M114.784,59 L114.784,53.512 C115.114667,53.192 115.410667,52.9493333 115.672,52.784 C115.933333,52.6186667 116.234667,52.536 116.576,52.536 C117.013333,52.536 117.328,52.6693333 117.52,52.936 C117.712,53.2026667 117.808,53.6613333 117.808,54.312 L117.808,54.312 L117.808,59 L119.648,59 L119.648,54.072 C119.648,53.0693333 119.456,52.2986667 119.072,51.76 C118.688,51.2213333 118.074667,50.952 117.232,50.952 C116.688,50.952 116.210667,51.0746667 115.8,51.32 C115.389333,51.5653333 115.008,51.8586667 114.656,52.2 L114.656,52.2 L114.592,52.2 L114.464,51.144 L112.944,51.144 L112.944,59 L114.784,59 Z M123.808,59.192 C124.277333,59.192 124.712,59.0906667 125.112,58.888 C125.512,58.6853333 125.888,58.4346667 126.24,58.136 L126.24,58.136 L126.304,58.136 L126.432,59 L127.952,59 L127.952,54.344 C127.952,53.2453333 127.709333,52.4053333 127.224,51.824 C126.738667,51.2426667 126.005333,50.952 125.024,50.952 C124.394667,50.952 123.808,51.0533333 123.264,51.256 C122.72,51.4586667 122.229333,51.6986667 121.792,51.976 L121.792,51.976 L122.464,53.208 C122.816,52.9946667 123.176,52.8133333 123.544,52.664 C123.912,52.5146667 124.288,52.44 124.672,52.44 C124.938667,52.44 125.162667,52.48 125.344,52.56 C125.525333,52.64 125.672,52.752 125.784,52.896 C125.896,53.04 125.976,53.2053333 126.024,53.392 C126.072,53.5786667 126.101333,53.7733333 126.112,53.976 C125.301333,54.0613333 124.605333,54.184 124.024,54.344 C123.442667,54.504 122.962667,54.7013333 122.584,54.936 C122.205333,55.1706667 121.928,55.4506667 121.752,55.776 C121.576,56.1013333 121.488,56.472 121.488,56.888 C121.488,57.5813333 121.701333,58.1386667 122.128,58.56 C122.554667,58.9813333 123.114667,59.192 123.808,59.192 Z M124.4,57.752 C124.069333,57.752 123.797333,57.672 123.584,57.512 C123.370667,57.352 123.264,57.096 123.264,56.744 C123.264,56.552 123.312,56.3706667 123.408,56.2 C123.504,56.0293333 123.664,55.8773333 123.888,55.744 C124.112,55.6106667 124.405333,55.4906667 124.768,55.384 C125.130667,55.2773333 125.578667,55.192 126.112,55.128 L126.112,55.128 L126.112,56.888 C125.813333,57.1653333 125.533333,57.3786667 125.272,57.528 C125.010667,57.6773333 124.72,57.752 124.4,57.752 Z M132,59 L132,53.512 C132.608,52.8613333 133.157333,52.536 133.648,52.536 C134.064,52.536 134.370667,52.6693333 134.568,52.936 C134.765333,53.2026667 134.864,53.6613333 134.864,54.312 L134.864,54.312 L134.864,59 L136.704,59 L136.704,53.512 C137.312,52.8613333 137.861333,52.536 138.352,52.536 C138.757333,52.536 139.058667,52.6693333 139.256,52.936 C139.453333,53.2026667 139.552,53.6613333 139.552,54.312 L139.552,54.312 L139.552,59 L141.408,59 L141.408,54.072 C141.408,53.0693333 141.210667,52.2986667 140.816,51.76 C140.421333,51.2213333 139.808,50.952 138.976,50.952 C138.474667,50.952 138.021333,51.0853333 137.616,51.352 C137.210667,51.6186667 136.821333,51.9546667 136.448,52.36 C136.266667,51.912 136.002667,51.5653333 135.656,51.32 C135.309333,51.0746667 134.848,50.952 134.272,50.952 C133.781333,50.952 133.341333,51.0746667 132.952,51.32 C132.562667,51.5653333 132.202667,51.864 131.872,52.216 L131.872,52.216 L131.808,52.216 L131.68,51.144 L130.16,51.144 L130.16,59 L132,59 Z M147.008,59.192 C147.509333,59.192 147.989333,59.112 148.448,58.952 C148.906667,58.792 149.322667,58.5893333 149.696,58.344 L149.696,58.344 L149.072,57.192 C148.784,57.3733333 148.493333,57.5146667 148.2,57.616 C147.906667,57.7173333 147.589333,57.768 147.248,57.768 C146.608,57.768 146.082667,57.5786667 145.672,57.2 C145.261333,56.8213333 145.013333,56.28 144.928,55.576 L144.928,55.576 L149.92,55.576 C149.941333,55.48 149.96,55.352 149.976,55.192 C149.992,55.032 150,54.8613333 150,54.68 C150,54.136 149.930667,53.6346667 149.792,53.176 C149.653333,52.7173333 149.448,52.3226667 149.176,51.992 C148.904,51.6613333 148.565333,51.4053333 148.16,51.224 C147.754667,51.0426667 147.285333,50.952 146.752,50.952 C146.293333,50.952 145.845333,51.048 145.408,51.24 C144.970667,51.432 144.584,51.704 144.248,52.056 C143.912,52.408 143.642667,52.84 143.44,53.352 C143.237333,53.864 143.136,54.44 143.136,55.08 C143.136,55.7306667 143.234667,56.3093333 143.432,56.816 C143.629333,57.3226667 143.904,57.752 144.256,58.104 C144.608,58.456 145.018667,58.7253333 145.488,58.912 C145.957333,59.0986667 146.464,59.192 147.008,59.192 Z M148.4,54.328 L144.912,54.328 C144.997333,53.688 145.216,53.2026667 145.568,52.872 C145.92,52.5413333 146.330667,52.376 146.8,52.376 C147.344,52.376 147.746667,52.5493333 148.008,52.896 C148.269333,53.2426667 148.4,53.72 148.4,54.328 L148.4,54.328 Z" id="Firstname" fill="#000000" fill-rule="nonzero"></path>
        <rect id="Rectangle" stroke="#6E7272" x="78.5" y="154.5" width="348" height="39" rx="3"></rect>
        <path d="M82.384,144.192 C82.9706667,144.192 83.496,144.109333 83.96,143.944 C84.424,143.778667 84.8186667,143.554667 85.144,143.272 C85.4693333,142.989333 85.7173333,142.661333 85.888,142.288 C86.0586667,141.914667 86.144,141.514667 86.144,141.088 C86.144,140.704 86.0906667,140.365333 85.984,140.072 C85.8773333,139.778667 85.7306667,139.52 85.544,139.296 C85.3573333,139.072 85.136,138.874667 84.88,138.704 C84.624,138.533333 84.3413333,138.384 84.032,138.256 L84.032,138.256 L82.608,137.664 C82.3946667,137.578667 82.1866667,137.490667 81.984,137.4 C81.7813333,137.309333 81.6026667,137.208 81.448,137.096 C81.2933333,136.984 81.1706667,136.856 81.08,136.712 C80.9893333,136.568 80.944,136.394667 80.944,136.192 C80.944,135.808 81.0933333,135.506667 81.392,135.288 C81.6906667,135.069333 82.0906667,134.96 82.592,134.96 C83.04,134.96 83.4453333,135.04 83.808,135.2 C84.1706667,135.36 84.5226667,135.578667 84.864,135.856 L84.864,135.856 L85.808,134.672 C85.4026667,134.266667 84.9173333,133.944 84.352,133.704 C83.7866667,133.464 83.2,133.344 82.592,133.344 C82.08,133.344 81.608,133.418667 81.176,133.568 C80.744,133.717333 80.3733333,133.925333 80.064,134.192 C79.7546667,134.458667 79.512,134.770667 79.336,135.128 C79.16,135.485333 79.072,135.872 79.072,136.288 C79.072,136.672 79.1333333,137.013333 79.256,137.312 C79.3786667,137.610667 79.5413333,137.872 79.744,138.096 C79.9466667,138.32 80.1733333,138.512 80.424,138.672 C80.6746667,138.832 80.928,138.965333 81.184,139.072 L81.184,139.072 L82.624,139.696 C82.8586667,139.792 83.0746667,139.888 83.272,139.984 C83.4693333,140.08 83.64,140.184 83.784,140.296 C83.928,140.408 84.04,140.538667 84.12,140.688 C84.2,140.837333 84.24,141.018667 84.24,141.232 C84.24,141.637333 84.0853333,141.962667 83.776,142.208 C83.4666667,142.453333 83.0133333,142.576 82.416,142.576 C81.936,142.576 81.456,142.466667 80.976,142.248 C80.496,142.029333 80.0693333,141.744 79.696,141.392 L79.696,141.392 L78.608,142.656 C79.1093333,143.146667 79.688,143.525333 80.344,143.792 C81,144.058667 81.68,144.192 82.384,144.192 Z M90.224,144.192 C90.768,144.192 91.24,144.069333 91.64,143.824 C92.04,143.578667 92.4106667,143.253333 92.752,142.848 L92.752,142.848 L92.8,142.848 L92.944,144 L94.448,144 L94.448,136.144 L92.608,136.144 L92.608,141.52 C92.3093333,141.904 92.0293333,142.181333 91.768,142.352 C91.5066667,142.522667 91.2053333,142.608 90.864,142.608 C90.4373333,142.608 90.128,142.474667 89.936,142.208 C89.744,141.941333 89.648,141.482667 89.648,140.832 L89.648,140.832 L89.648,136.144 L87.808,136.144 L87.808,141.072 C87.808,142.074667 88,142.845333 88.384,143.384 C88.768,143.922667 89.3813333,144.192 90.224,144.192 Z M98.624,144 L98.624,139.2 C98.8693333,138.602667 99.1626667,138.184 99.504,137.944 C99.8453333,137.704 100.170667,137.584 100.48,137.584 C100.650667,137.584 100.794667,137.594667 100.912,137.616 C101.029333,137.637333 101.157333,137.669333 101.296,137.712 L101.296,137.712 L101.616,136.112 C101.392,136.005333 101.093333,135.952 100.72,135.952 C100.304,135.952 99.8986667,136.088 99.504,136.36 C99.1093333,136.632 98.7733333,137.024 98.496,137.536 L98.496,137.536 L98.432,137.536 L98.304,136.144 L96.784,136.144 L96.784,144 L98.624,144 Z M104.592,144 L104.592,138.512 C104.922667,138.192 105.218667,137.949333 105.48,137.784 C105.741333,137.618667 106.042667,137.536 106.384,137.536 C106.821333,137.536 107.136,137.669333 107.328,137.936 C107.52,138.202667 107.616,138.661333 107.616,139.312 L107.616,139.312 L107.616,144 L109.456,144 L109.456,139.072 C109.456,138.069333 109.264,137.298667 108.88,136.76 C108.496,136.221333 107.882667,135.952 107.04,135.952 C106.496,135.952 106.018667,136.074667 105.608,136.32 C105.197333,136.565333 104.816,136.858667 104.464,137.2 L104.464,137.2 L104.4,137.2 L104.272,136.144 L102.752,136.144 L102.752,144 L104.592,144 Z M113.616,144.192 C114.085333,144.192 114.52,144.090667 114.92,143.888 C115.32,143.685333 115.696,143.434667 116.048,143.136 L116.048,143.136 L116.112,143.136 L116.24,144 L117.76,144 L117.76,139.344 C117.76,138.245333 117.517333,137.405333 117.032,136.824 C116.546667,136.242667 115.813333,135.952 114.832,135.952 C114.202667,135.952 113.616,136.053333 113.072,136.256 C112.528,136.458667 112.037333,136.698667 111.6,136.976 L111.6,136.976 L112.272,138.208 C112.624,137.994667 112.984,137.813333 113.352,137.664 C113.72,137.514667 114.096,137.44 114.48,137.44 C114.746667,137.44 114.970667,137.48 115.152,137.56 C115.333333,137.64 115.48,137.752 115.592,137.896 C115.704,138.04 115.784,138.205333 115.832,138.392 C115.88,138.578667 115.909333,138.773333 115.92,138.976 C115.109333,139.061333 114.413333,139.184 113.832,139.344 C113.250667,139.504 112.770667,139.701333 112.392,139.936 C112.013333,140.170667 111.736,140.450667 111.56,140.776 C111.384,141.101333 111.296,141.472 111.296,141.888 C111.296,142.581333 111.509333,143.138667 111.936,143.56 C112.362667,143.981333 112.922667,144.192 113.616,144.192 Z M114.208,142.752 C113.877333,142.752 113.605333,142.672 113.392,142.512 C113.178667,142.352 113.072,142.096 113.072,141.744 C113.072,141.552 113.12,141.370667 113.216,141.2 C113.312,141.029333 113.472,140.877333 113.696,140.744 C113.92,140.610667 114.213333,140.490667 114.576,140.384 C114.938667,140.277333 115.386667,140.192 115.92,140.128 L115.92,140.128 L115.92,141.888 C115.621333,142.165333 115.341333,142.378667 115.08,142.528 C114.818667,142.677333 114.528,142.752 114.208,142.752 Z M121.808,144 L121.808,138.512 C122.416,137.861333 122.965333,137.536 123.456,137.536 C123.872,137.536 124.178667,137.669333 124.376,137.936 C124.573333,138.202667 124.672,138.661333 124.672,139.312 L124.672,139.312 L124.672,144 L126.512,144 L126.512,138.512 C127.12,137.861333 127.669333,137.536 128.16,137.536 C128.565333,137.536 128.866667,137.669333 129.064,137.936 C129.261333,138.202667 129.36,138.661333 129.36,139.312 L129.36,139.312 L129.36,144 L131.216,144 L131.216,139.072 C131.216,138.069333 131.018667,137.298667 130.624,136.76 C130.229333,136.221333 129.616,135.952 128.784,135.952 C128.282667,135.952 127.829333,136.085333 127.424,136.352 C127.018667,136.618667 126.629333,136.954667 126.256,137.36 C126.074667,136.912 125.810667,136.565333 125.464,136.32 C125.117333,136.074667 124.656,135.952 124.08,135.952 C123.589333,135.952 123.149333,136.074667 122.76,136.32 C122.370667,136.565333 122.010667,136.864 121.68,137.216 L121.68,137.216 L121.616,137.216 L121.488,136.144 L119.968,136.144 L119.968,144 L121.808,144 Z M136.816,144.192 C137.317333,144.192 137.797333,144.112 138.256,143.952 C138.714667,143.792 139.130667,143.589333 139.504,143.344 L139.504,143.344 L138.88,142.192 C138.592,142.373333 138.301333,142.514667 138.008,142.616 C137.714667,142.717333 137.397333,142.768 137.056,142.768 C136.416,142.768 135.890667,142.578667 135.48,142.2 C135.069333,141.821333 134.821333,141.28 134.736,140.576 L134.736,140.576 L139.728,140.576 C139.749333,140.48 139.768,140.352 139.784,140.192 C139.8,140.032 139.808,139.861333 139.808,139.68 C139.808,139.136 139.738667,138.634667 139.6,138.176 C139.461333,137.717333 139.256,137.322667 138.984,136.992 C138.712,136.661333 138.373333,136.405333 137.968,136.224 C137.562667,136.042667 137.093333,135.952 136.56,135.952 C136.101333,135.952 135.653333,136.048 135.216,136.24 C134.778667,136.432 134.392,136.704 134.056,137.056 C133.72,137.408 133.450667,137.84 133.248,138.352 C133.045333,138.864 132.944,139.44 132.944,140.08 C132.944,140.730667 133.042667,141.309333 133.24,141.816 C133.437333,142.322667 133.712,142.752 134.064,143.104 C134.416,143.456 134.826667,143.725333 135.296,143.912 C135.765333,144.098667 136.272,144.192 136.816,144.192 Z M138.208,139.328 L134.72,139.328 C134.805333,138.688 135.024,138.202667 135.376,137.872 C135.728,137.541333 136.138667,137.376 136.608,137.376 C137.152,137.376 137.554667,137.549333 137.816,137.896 C138.077333,138.242667 138.208,138.72 138.208,139.328 L138.208,139.328 Z" id="Surname" fill="#000000" fill-rule="nonzero"></path>
        <rect id="Rectangle" stroke="#6E7272" x="78.5" y="239.5" width="348" height="39" rx="3"></rect>
        <path d="M83.712,229.192 C84.4266667,229.192 85.0746667,229.072 85.656,228.832 C86.2373333,228.592 86.704,228.296 87.056,227.944 L87.056,227.944 L87.056,223.336 L83.408,223.336 L83.408,224.856 L85.392,224.856 L85.392,227.112 C85.2213333,227.261333 85.0026667,227.376 84.736,227.456 C84.4693333,227.536 84.1866667,227.576 83.888,227.576 C82.832,227.576 82.0346667,227.237333 81.496,226.56 C80.9573333,225.882667 80.688,224.946667 80.688,223.752 C80.688,223.165333 80.7626667,222.637333 80.912,222.168 C81.0613333,221.698667 81.272,221.301333 81.544,220.976 C81.816,220.650667 82.1413333,220.4 82.52,220.224 C82.8986667,220.048 83.3226667,219.96 83.792,219.96 C84.2826667,219.96 84.6906667,220.048 85.016,220.224 C85.3413333,220.4 85.6373333,220.616 85.904,220.872 L85.904,220.872 L86.896,219.672 C86.5653333,219.330667 86.1413333,219.024 85.624,218.752 C85.1066667,218.48 84.4746667,218.344 83.728,218.344 C83.0346667,218.344 82.3866667,218.466667 81.784,218.712 C81.1813333,218.957333 80.6586667,219.314667 80.216,219.784 C79.7733333,220.253333 79.424,220.826667 79.168,221.504 C78.912,222.181333 78.784,222.946667 78.784,223.8 C78.784,224.664 78.9066667,225.432 79.152,226.104 C79.3973333,226.776 79.7413333,227.341333 80.184,227.8 C80.6266667,228.258667 81.1493333,228.605333 81.752,228.84 C82.3546667,229.074667 83.008,229.192 83.712,229.192 Z M92.576,229.192 C93.0773333,229.192 93.5573333,229.112 94.016,228.952 C94.4746667,228.792 94.8906667,228.589333 95.264,228.344 L95.264,228.344 L94.64,227.192 C94.352,227.373333 94.0613333,227.514667 93.768,227.616 C93.4746667,227.717333 93.1573333,227.768 92.816,227.768 C92.176,227.768 91.6506667,227.578667 91.24,227.2 C90.8293333,226.821333 90.5813333,226.28 90.496,225.576 L90.496,225.576 L95.488,225.576 C95.5093333,225.48 95.528,225.352 95.544,225.192 C95.56,225.032 95.568,224.861333 95.568,224.68 C95.568,224.136 95.4986667,223.634667 95.36,223.176 C95.2213333,222.717333 95.016,222.322667 94.744,221.992 C94.472,221.661333 94.1333333,221.405333 93.728,221.224 C93.3226667,221.042667 92.8533333,220.952 92.32,220.952 C91.8613333,220.952 91.4133333,221.048 90.976,221.24 C90.5386667,221.432 90.152,221.704 89.816,222.056 C89.48,222.408 89.2106667,222.84 89.008,223.352 C88.8053333,223.864 88.704,224.44 88.704,225.08 C88.704,225.730667 88.8026667,226.309333 89,226.816 C89.1973333,227.322667 89.472,227.752 89.824,228.104 C90.176,228.456 90.5866667,228.725333 91.056,228.912 C91.5253333,229.098667 92.032,229.192 92.576,229.192 Z M93.968,224.328 L90.48,224.328 C90.5653333,223.688 90.784,223.202667 91.136,222.872 C91.488,222.541333 91.8986667,222.376 92.368,222.376 C92.912,222.376 93.3146667,222.549333 93.576,222.896 C93.8373333,223.242667 93.968,223.72 93.968,224.328 L93.968,224.328 Z M99.168,229 L99.168,223.512 C99.4986667,223.192 99.7946667,222.949333 100.056,222.784 C100.317333,222.618667 100.618667,222.536 100.96,222.536 C101.397333,222.536 101.712,222.669333 101.904,222.936 C102.096,223.202667 102.192,223.661333 102.192,224.312 L102.192,224.312 L102.192,229 L104.032,229 L104.032,224.072 C104.032,223.069333 103.84,222.298667 103.456,221.76 C103.072,221.221333 102.458667,220.952 101.616,220.952 C101.072,220.952 100.594667,221.074667 100.184,221.32 C99.7733333,221.565333 99.392,221.858667 99.04,222.2 L99.04,222.2 L98.976,222.2 L98.848,221.144 L97.328,221.144 L97.328,229 L99.168,229 Z M109.04,229.192 C109.466667,229.192 109.872,229.090667 110.256,228.888 C110.64,228.685333 110.976,228.44 111.264,228.152 L111.264,228.152 L111.328,228.152 L111.456,229 L112.976,229 L112.976,217.704 L111.136,217.704 L111.136,220.552 L111.2,221.816 C110.890667,221.549333 110.581333,221.338667 110.272,221.184 C109.962667,221.029333 109.584,220.952 109.136,220.952 C108.709333,220.952 108.296,221.048 107.896,221.24 C107.496,221.432 107.141333,221.704 106.832,222.056 C106.522667,222.408 106.274667,222.84 106.088,223.352 C105.901333,223.864 105.808,224.44 105.808,225.08 C105.808,226.381333 106.098667,227.392 106.68,228.112 C107.261333,228.832 108.048,229.192 109.04,229.192 Z M109.488,227.672 C108.912,227.672 108.472,227.450667 108.168,227.008 C107.864,226.565333 107.712,225.917333 107.712,225.064 C107.712,224.232 107.888,223.592 108.24,223.144 C108.592,222.696 109.024,222.472 109.536,222.472 C109.802667,222.472 110.066667,222.52 110.328,222.616 C110.589333,222.712 110.858667,222.882667 111.136,223.128 L111.136,223.128 L111.136,226.792 C110.624,227.378667 110.074667,227.672 109.488,227.672 Z M118.672,229.192 C119.173333,229.192 119.653333,229.112 120.112,228.952 C120.570667,228.792 120.986667,228.589333 121.36,228.344 L121.36,228.344 L120.736,227.192 C120.448,227.373333 120.157333,227.514667 119.864,227.616 C119.570667,227.717333 119.253333,227.768 118.912,227.768 C118.272,227.768 117.746667,227.578667 117.336,227.2 C116.925333,226.821333 116.677333,226.28 116.592,225.576 L116.592,225.576 L121.584,225.576 C121.605333,225.48 121.624,225.352 121.64,225.192 C121.656,225.032 121.664,224.861333 121.664,224.68 C121.664,224.136 121.594667,223.634667 121.456,223.176 C121.317333,222.717333 121.112,222.322667 120.84,221.992 C120.568,221.661333 120.229333,221.405333 119.824,221.224 C119.418667,221.042667 118.949333,220.952 118.416,220.952 C117.957333,220.952 117.509333,221.048 117.072,221.24 C116.634667,221.432 116.248,221.704 115.912,222.056 C115.576,222.408 115.306667,222.84 115.104,223.352 C114.901333,223.864 114.8,224.44 114.8,225.08 C114.8,225.730667 114.898667,226.309333 115.096,226.816 C115.293333,227.322667 115.568,227.752 115.92,228.104 C116.272,228.456 116.682667,228.725333 117.152,228.912 C117.621333,229.098667 118.128,229.192 118.672,229.192 Z M120.064,224.328 L116.576,224.328 C116.661333,223.688 116.88,223.202667 117.232,222.872 C117.584,222.541333 117.994667,222.376 118.464,222.376 C119.008,222.376 119.410667,222.549333 119.672,222.896 C119.933333,223.242667 120.064,223.72 120.064,224.328 L120.064,224.328 Z M125.264,229 L125.264,224.2 C125.509333,223.602667 125.802667,223.184 126.144,222.944 C126.485333,222.704 126.810667,222.584 127.12,222.584 C127.290667,222.584 127.434667,222.594667 127.552,222.616 C127.669333,222.637333 127.797333,222.669333 127.936,222.712 L127.936,222.712 L128.256,221.112 C128.032,221.005333 127.733333,220.952 127.36,220.952 C126.944,220.952 126.538667,221.088 126.144,221.36 C125.749333,221.632 125.413333,222.024 125.136,222.536 L125.136,222.536 L125.072,222.536 L124.944,221.144 L123.424,221.144 L123.424,229 L125.264,229 Z" id="Gender" fill="#000000" fill-rule="nonzero"></path>
        <path d="M96.768,265 L96.768,260.84 L98.496,260.84 C99.072,260.84 99.5973333,260.773333 100.072,260.64 C100.546667,260.506667 100.954667,260.306667 101.296,260.04 C101.637333,259.773333 101.901333,259.437333 102.088,259.032 C102.274667,258.626667 102.368,258.146667 102.368,257.592 C102.368,257.016 102.272,256.530667 102.08,256.136 C101.888,255.741333 101.621333,255.424 101.28,255.184 C100.938667,254.944 100.525333,254.770667 100.04,254.664 C99.5546667,254.557333 99.0186667,254.504 98.432,254.504 L98.432,254.504 L95.44,254.504 L95.44,265 L96.768,265 Z M98.336,259.752 L96.768,259.752 L96.768,255.576 L98.272,255.576 C99.1893333,255.576 99.88,255.722667 100.344,256.016 C100.808,256.309333 101.04,256.834667 101.04,257.592 C101.04,258.338667 100.818667,258.885333 100.376,259.232 C99.9333333,259.578667 99.2533333,259.752 98.336,259.752 L98.336,259.752 Z M105.76,265.192 C105.941333,265.192 106.090667,265.181333 106.208,265.16 C106.325333,265.138667 106.426667,265.106667 106.512,265.064 L106.512,265.064 L106.336,264.072 C106.261333,264.093333 106.205333,264.104 106.168,264.104 L106.168,264.104 L106.048,264.104 C105.952,264.104 105.866667,264.061333 105.792,263.976 C105.717333,263.890667 105.68,263.741333 105.68,263.528 L105.68,263.528 L105.68,253.608 L104.368,253.608 L104.368,263.432 C104.368,264.008 104.474667,264.445333 104.688,264.744 C104.901333,265.042667 105.258667,265.192 105.76,265.192 Z M111.6,265.192 C112.133333,265.192 112.608,265.112 113.024,264.952 C113.44,264.792 113.818667,264.605333 114.16,264.392 L114.16,264.392 L113.696,263.528 C113.408,263.709333 113.106667,263.856 112.792,263.968 C112.477333,264.08 112.133333,264.136 111.76,264.136 C111.013333,264.136 110.408,263.893333 109.944,263.408 C109.48,262.922667 109.221333,262.264 109.168,261.432 L109.168,261.432 L114.416,261.432 C114.437333,261.336 114.450667,261.221333 114.456,261.088 C114.461333,260.954667 114.464,260.818667 114.464,260.68 C114.464,260.125333 114.394667,259.624 114.256,259.176 C114.117333,258.728 113.917333,258.344 113.656,258.024 C113.394667,257.704 113.069333,257.458667 112.68,257.288 C112.290667,257.117333 111.850667,257.032 111.36,257.032 C110.912,257.032 110.48,257.125333 110.064,257.312 C109.648,257.498667 109.277333,257.768 108.952,258.12 C108.626667,258.472 108.365333,258.901333 108.168,259.408 C107.970667,259.914667 107.872,260.488 107.872,261.128 C107.872,261.768 107.968,262.338667 108.16,262.84 C108.352,263.341333 108.616,263.765333 108.952,264.112 C109.288,264.458667 109.682667,264.725333 110.136,264.912 C110.589333,265.098667 111.077333,265.192 111.6,265.192 Z M113.312,260.488 L109.152,260.488 C109.194667,260.104 109.282667,259.762667 109.416,259.464 C109.549333,259.165333 109.717333,258.912 109.92,258.704 C110.122667,258.496 110.349333,258.338667 110.6,258.232 C110.850667,258.125333 111.114667,258.072 111.392,258.072 C112,258.072 112.472,258.277333 112.808,258.688 C113.144,259.098667 113.312,259.698667 113.312,260.488 L113.312,260.488 Z M117.952,265.192 C118.442667,265.192 118.901333,265.082667 119.328,264.864 C119.754667,264.645333 120.154667,264.381333 120.528,264.072 L120.528,264.072 L120.576,264.072 L120.688,265 L121.776,265 L121.776,260.232 C121.776,259.261333 121.562667,258.485333 121.136,257.904 C120.709333,257.322667 120.021333,257.032 119.072,257.032 C118.442667,257.032 117.866667,257.141333 117.344,257.36 C116.821333,257.578667 116.378667,257.805333 116.016,258.04 L116.016,258.04 L116.528,258.952 C116.837333,258.738667 117.189333,258.546667 117.584,258.376 C117.978667,258.205333 118.4,258.12 118.848,258.12 C119.168,258.12 119.432,258.176 119.64,258.288 C119.848,258.4 120.010667,258.546667 120.128,258.728 C120.245333,258.909333 120.328,259.117333 120.376,259.352 C120.424,259.586667 120.448,259.826667 120.448,260.072 C118.784,260.253333 117.573333,260.570667 116.816,261.024 C116.058667,261.477333 115.68,262.130667 115.68,262.984 C115.68,263.688 115.896,264.232 116.328,264.616 C116.76,265 117.301333,265.192 117.952,265.192 Z M118.336,264.136 C117.952,264.136 117.626667,264.04 117.36,263.848 C117.093333,263.656 116.96,263.336 116.96,262.888 C116.96,262.642667 117.021333,262.416 117.144,262.208 C117.266667,262 117.464,261.816 117.736,261.656 C118.008,261.496 118.365333,261.357333 118.808,261.24 C119.250667,261.122667 119.797333,261.021333 120.448,260.936 L120.448,260.936 L120.448,263.096 C120.074667,263.437333 119.722667,263.696 119.392,263.872 C119.061333,264.048 118.709333,264.136 118.336,264.136 Z M126.256,265.192 C126.714667,265.192 127.122667,265.130667 127.48,265.008 C127.837333,264.885333 128.136,264.717333 128.376,264.504 C128.616,264.290667 128.797333,264.045333 128.92,263.768 C129.042667,263.490667 129.104,263.192 129.104,262.872 C129.104,262.509333 129.032,262.2 128.888,261.944 C128.744,261.688 128.56,261.472 128.336,261.296 C128.112,261.12 127.858667,260.973333 127.576,260.856 C127.293333,260.738667 127.013333,260.626667 126.736,260.52 C126.512,260.434667 126.296,260.352 126.088,260.272 C125.88,260.192 125.696,260.101333 125.536,260 C125.376,259.898667 125.248,259.781333 125.152,259.648 C125.056,259.514667 125.008,259.357333 125.008,259.176 C125.008,258.877333 125.122667,258.616 125.352,258.392 C125.581333,258.168 125.941333,258.056 126.432,258.056 C126.773333,258.056 127.088,258.12 127.376,258.248 C127.664,258.376 127.941333,258.541333 128.208,258.744 L128.208,258.744 L128.832,257.912 C128.533333,257.666667 128.178667,257.458667 127.768,257.288 C127.357333,257.117333 126.906667,257.032 126.416,257.032 C126,257.032 125.626667,257.088 125.296,257.2 C124.965333,257.312 124.685333,257.466667 124.456,257.664 C124.226667,257.861333 124.050667,258.096 123.928,258.368 C123.805333,258.64 123.744,258.930667 123.744,259.24 C123.744,259.570667 123.813333,259.853333 123.952,260.088 C124.090667,260.322667 124.269333,260.528 124.488,260.704 C124.706667,260.88 124.954667,261.029333 125.232,261.152 C125.509333,261.274667 125.786667,261.384 126.064,261.48 C126.277333,261.565333 126.490667,261.650667 126.704,261.736 C126.917333,261.821333 127.106667,261.92 127.272,262.032 C127.437333,262.144 127.573333,262.274667 127.68,262.424 C127.786667,262.573333 127.84,262.749333 127.84,262.952 C127.84,263.293333 127.712,263.581333 127.456,263.816 C127.2,264.050667 126.816,264.168 126.304,264.168 C125.834667,264.168 125.421333,264.082667 125.064,263.912 C124.706667,263.741333 124.357333,263.517333 124.016,263.24 L124.016,263.24 L123.36,264.12 C123.733333,264.429333 124.170667,264.685333 124.672,264.888 C125.173333,265.090667 125.701333,265.192 126.256,265.192 Z M134.08,265.192 C134.613333,265.192 135.088,265.112 135.504,264.952 C135.92,264.792 136.298667,264.605333 136.64,264.392 L136.64,264.392 L136.176,263.528 C135.888,263.709333 135.586667,263.856 135.272,263.968 C134.957333,264.08 134.613333,264.136 134.24,264.136 C133.493333,264.136 132.888,263.893333 132.424,263.408 C131.96,262.922667 131.701333,262.264 131.648,261.432 L131.648,261.432 L136.896,261.432 C136.917333,261.336 136.930667,261.221333 136.936,261.088 C136.941333,260.954667 136.944,260.818667 136.944,260.68 C136.944,260.125333 136.874667,259.624 136.736,259.176 C136.597333,258.728 136.397333,258.344 136.136,258.024 C135.874667,257.704 135.549333,257.458667 135.16,257.288 C134.770667,257.117333 134.330667,257.032 133.84,257.032 C133.392,257.032 132.96,257.125333 132.544,257.312 C132.128,257.498667 131.757333,257.768 131.432,258.12 C131.106667,258.472 130.845333,258.901333 130.648,259.408 C130.450667,259.914667 130.352,260.488 130.352,261.128 C130.352,261.768 130.448,262.338667 130.64,262.84 C130.832,263.341333 131.096,263.765333 131.432,264.112 C131.768,264.458667 132.162667,264.725333 132.616,264.912 C133.069333,265.098667 133.557333,265.192 134.08,265.192 Z M135.792,260.488 L131.632,260.488 C131.674667,260.104 131.762667,259.762667 131.896,259.464 C132.029333,259.165333 132.197333,258.912 132.4,258.704 C132.602667,258.496 132.829333,258.338667 133.08,258.232 C133.330667,258.125333 133.594667,258.072 133.872,258.072 C134.48,258.072 134.952,258.277333 135.288,258.688 C135.624,259.098667 135.792,259.698667 135.792,260.488 L135.792,260.488 Z M144.096,265.192 C144.554667,265.192 144.962667,265.130667 145.32,265.008 C145.677333,264.885333 145.976,264.717333 146.216,264.504 C146.456,264.290667 146.637333,264.045333 146.76,263.768 C146.882667,263.490667 146.944,263.192 146.944,262.872 C146.944,262.509333 146.872,262.2 146.728,261.944 C146.584,261.688 146.4,261.472 146.176,261.296 C145.952,261.12 145.698667,260.973333 145.416,260.856 C145.133333,260.738667 144.853333,260.626667 144.576,260.52 C144.352,260.434667 144.136,260.352 143.928,260.272 C143.72,260.192 143.536,260.101333 143.376,260 C143.216,259.898667 143.088,259.781333 142.992,259.648 C142.896,259.514667 142.848,259.357333 142.848,259.176 C142.848,258.877333 142.962667,258.616 143.192,258.392 C143.421333,258.168 143.781333,258.056 144.272,258.056 C144.613333,258.056 144.928,258.12 145.216,258.248 C145.504,258.376 145.781333,258.541333 146.048,258.744 L146.048,258.744 L146.672,257.912 C146.373333,257.666667 146.018667,257.458667 145.608,257.288 C145.197333,257.117333 144.746667,257.032 144.256,257.032 C143.84,257.032 143.466667,257.088 143.136,257.2 C142.805333,257.312 142.525333,257.466667 142.296,257.664 C142.066667,257.861333 141.890667,258.096 141.768,258.368 C141.645333,258.64 141.584,258.930667 141.584,259.24 C141.584,259.570667 141.653333,259.853333 141.792,260.088 C141.930667,260.322667 142.109333,260.528 142.328,260.704 C142.546667,260.88 142.794667,261.029333 143.072,261.152 C143.349333,261.274667 143.626667,261.384 143.904,261.48 C144.117333,261.565333 144.330667,261.650667 144.544,261.736 C144.757333,261.821333 144.946667,261.92 145.112,262.032 C145.277333,262.144 145.413333,262.274667 145.52,262.424 C145.626667,262.573333 145.68,262.749333 145.68,262.952 C145.68,263.293333 145.552,263.581333 145.296,263.816 C145.04,264.050667 144.656,264.168 144.144,264.168 C143.674667,264.168 143.261333,264.082667 142.904,263.912 C142.546667,263.741333 142.197333,263.517333 141.856,263.24 L141.856,263.24 L141.2,264.12 C141.573333,264.429333 142.010667,264.685333 142.512,264.888 C143.013333,265.090667 143.541333,265.192 144.096,265.192 Z M151.92,265.192 C152.453333,265.192 152.928,265.112 153.344,264.952 C153.76,264.792 154.138667,264.605333 154.48,264.392 L154.48,264.392 L154.016,263.528 C153.728,263.709333 153.426667,263.856 153.112,263.968 C152.797333,264.08 152.453333,264.136 152.08,264.136 C151.333333,264.136 150.728,263.893333 150.264,263.408 C149.8,262.922667 149.541333,262.264 149.488,261.432 L149.488,261.432 L154.736,261.432 C154.757333,261.336 154.770667,261.221333 154.776,261.088 C154.781333,260.954667 154.784,260.818667 154.784,260.68 C154.784,260.125333 154.714667,259.624 154.576,259.176 C154.437333,258.728 154.237333,258.344 153.976,258.024 C153.714667,257.704 153.389333,257.458667 153,257.288 C152.610667,257.117333 152.170667,257.032 151.68,257.032 C151.232,257.032 150.8,257.125333 150.384,257.312 C149.968,257.498667 149.597333,257.768 149.272,258.12 C148.946667,258.472 148.685333,258.901333 148.488,259.408 C148.290667,259.914667 148.192,260.488 148.192,261.128 C148.192,261.768 148.288,262.338667 148.48,262.84 C148.672,263.341333 148.936,263.765333 149.272,264.112 C149.608,264.458667 150.002667,264.725333 150.456,264.912 C150.909333,265.098667 151.397333,265.192 151.92,265.192 Z M153.632,260.488 L149.472,260.488 C149.514667,260.104 149.602667,259.762667 149.736,259.464 C149.869333,259.165333 150.037333,258.912 150.24,258.704 C150.442667,258.496 150.669333,258.338667 150.92,258.232 C151.170667,258.125333 151.434667,258.072 151.712,258.072 C152.32,258.072 152.792,258.277333 153.128,258.688 C153.464,259.098667 153.632,259.698667 153.632,260.488 L153.632,260.488 Z M158.096,265.192 C158.277333,265.192 158.426667,265.181333 158.544,265.16 C158.661333,265.138667 158.762667,265.106667 158.848,265.064 L158.848,265.064 L158.672,264.072 C158.597333,264.093333 158.541333,264.104 158.504,264.104 L158.504,264.104 L158.384,264.104 C158.288,264.104 158.202667,264.061333 158.128,263.976 C158.053333,263.890667 158.016,263.741333 158.016,263.528 L158.016,263.528 L158.016,253.608 L156.704,253.608 L156.704,263.432 C156.704,264.008 156.810667,264.445333 157.024,264.744 C157.237333,265.042667 157.594667,265.192 158.096,265.192 Z M163.936,265.192 C164.469333,265.192 164.944,265.112 165.36,264.952 C165.776,264.792 166.154667,264.605333 166.496,264.392 L166.496,264.392 L166.032,263.528 C165.744,263.709333 165.442667,263.856 165.128,263.968 C164.813333,264.08 164.469333,264.136 164.096,264.136 C163.349333,264.136 162.744,263.893333 162.28,263.408 C161.816,262.922667 161.557333,262.264 161.504,261.432 L161.504,261.432 L166.752,261.432 C166.773333,261.336 166.786667,261.221333 166.792,261.088 C166.797333,260.954667 166.8,260.818667 166.8,260.68 C166.8,260.125333 166.730667,259.624 166.592,259.176 C166.453333,258.728 166.253333,258.344 165.992,258.024 C165.730667,257.704 165.405333,257.458667 165.016,257.288 C164.626667,257.117333 164.186667,257.032 163.696,257.032 C163.248,257.032 162.816,257.125333 162.4,257.312 C161.984,257.498667 161.613333,257.768 161.288,258.12 C160.962667,258.472 160.701333,258.901333 160.504,259.408 C160.306667,259.914667 160.208,260.488 160.208,261.128 C160.208,261.768 160.304,262.338667 160.496,262.84 C160.688,263.341333 160.952,263.765333 161.288,264.112 C161.624,264.458667 162.018667,264.725333 162.472,264.912 C162.925333,265.098667 163.413333,265.192 163.936,265.192 Z M165.648,260.488 L161.488,260.488 C161.530667,260.104 161.618667,259.762667 161.752,259.464 C161.885333,259.165333 162.053333,258.912 162.256,258.704 C162.458667,258.496 162.685333,258.338667 162.936,258.232 C163.186667,258.125333 163.450667,258.072 163.728,258.072 C164.336,258.072 164.808,258.277333 165.144,258.688 C165.48,259.098667 165.648,259.698667 165.648,260.488 L165.648,260.488 Z M171.792,265.192 C172.261333,265.192 172.709333,265.104 173.136,264.928 C173.562667,264.752 173.952,264.509333 174.304,264.2 L174.304,264.2 L173.728,263.32 C173.482667,263.533333 173.208,263.717333 172.904,263.872 C172.6,264.026667 172.266667,264.104 171.904,264.104 C171.552,264.104 171.226667,264.032 170.928,263.888 C170.629333,263.744 170.376,263.541333 170.168,263.28 C169.96,263.018667 169.797333,262.706667 169.68,262.344 C169.562667,261.981333 169.504,261.576 169.504,261.128 C169.504,260.68 169.565333,260.272 169.688,259.904 C169.810667,259.536 169.978667,259.218667 170.192,258.952 C170.405333,258.685333 170.661333,258.48 170.96,258.336 C171.258667,258.192 171.584,258.12 171.936,258.12 C172.245333,258.12 172.525333,258.184 172.776,258.312 C173.026667,258.44 173.264,258.605333 173.488,258.808 L173.488,258.808 L174.16,257.944 C173.882667,257.698667 173.562667,257.485333 173.2,257.304 C172.837333,257.122667 172.4,257.032 171.888,257.032 C171.386667,257.032 170.909333,257.122667 170.456,257.304 C170.002667,257.485333 169.605333,257.752 169.264,258.104 C168.922667,258.456 168.650667,258.885333 168.448,259.392 C168.245333,259.898667 168.144,260.477333 168.144,261.128 C168.144,261.768 168.237333,262.341333 168.424,262.848 C168.610667,263.354667 168.866667,263.781333 169.192,264.128 C169.517333,264.474667 169.904,264.738667 170.352,264.92 C170.8,265.101333 171.28,265.192 171.792,265.192 Z M178.304,265.192 C178.549333,265.192 178.797333,265.162667 179.048,265.104 C179.298667,265.045333 179.530667,264.978667 179.744,264.904 L179.744,264.904 L179.488,263.912 C179.36,263.965333 179.216,264.013333 179.056,264.056 C178.896,264.098667 178.746667,264.12 178.608,264.12 C178.16,264.12 177.848,263.989333 177.672,263.728 C177.496,263.466667 177.408,263.096 177.408,262.616 L177.408,262.616 L177.408,258.296 L179.504,258.296 L179.504,257.224 L177.408,257.224 L177.408,255.048 L176.304,255.048 L176.144,257.224 L174.928,257.304 L174.928,258.296 L176.08,258.296 L176.08,262.6 C176.08,262.984 176.117333,263.336 176.192,263.656 C176.266667,263.976 176.392,264.248 176.568,264.472 C176.744,264.696 176.973333,264.872 177.256,265 C177.538667,265.128 177.888,265.192 178.304,265.192 Z" id="Pleaseselect" fill="#000000" fill-rule="nonzero"></path>
        <rect id="Rectangle" stroke="#6E7272" x="78.5" y="328.5" width="49" height="39" rx="3"></rect>
        <rect id="Rectangle" stroke="#6E7272" x="144.5" y="328.5" width="49" height="39" rx="3"></rect>
        <rect id="Rectangle" stroke="#6E7272" x="210.5" y="328.5" width="77" height="39" rx="3"></rect>
        <path d="M82.224,317 C83.0026667,317 83.6986667,316.888 84.312,316.664 C84.9253333,316.44 85.448,316.106667 85.88,315.664 C86.312,315.221333 86.6426667,314.669333 86.872,314.008 C87.1013333,313.346667 87.216,312.584 87.216,311.72 C87.216,309.992 86.768,308.696 85.872,307.832 C84.976,306.968 83.728,306.536 82.128,306.536 L82.128,306.536 L79.328,306.536 L79.328,317 L82.224,317 Z M82,315.496 L81.184,315.496 L81.184,308.04 L82,308.04 C83.056,308.04 83.872,308.333333 84.448,308.92 C85.024,309.506667 85.312,310.44 85.312,311.72 C85.312,313.010667 85.0266667,313.962667 84.456,314.576 C83.8853333,315.189333 83.0666667,315.496 82,315.496 L82,315.496 Z M91.072,317.192 C91.5413333,317.192 91.976,317.090667 92.376,316.888 C92.776,316.685333 93.152,316.434667 93.504,316.136 L93.504,316.136 L93.568,316.136 L93.696,317 L95.216,317 L95.216,312.344 C95.216,311.245333 94.9733333,310.405333 94.488,309.824 C94.0026667,309.242667 93.2693333,308.952 92.288,308.952 C91.6586667,308.952 91.072,309.053333 90.528,309.256 C89.984,309.458667 89.4933333,309.698667 89.056,309.976 L89.056,309.976 L89.728,311.208 C90.08,310.994667 90.44,310.813333 90.808,310.664 C91.176,310.514667 91.552,310.44 91.936,310.44 C92.2026667,310.44 92.4266667,310.48 92.608,310.56 C92.7893333,310.64 92.936,310.752 93.048,310.896 C93.16,311.04 93.24,311.205333 93.288,311.392 C93.336,311.578667 93.3653333,311.773333 93.376,311.976 C92.5653333,312.061333 91.8693333,312.184 91.288,312.344 C90.7066667,312.504 90.2266667,312.701333 89.848,312.936 C89.4693333,313.170667 89.192,313.450667 89.016,313.776 C88.84,314.101333 88.752,314.472 88.752,314.888 C88.752,315.581333 88.9653333,316.138667 89.392,316.56 C89.8186667,316.981333 90.3786667,317.192 91.072,317.192 Z M91.664,315.752 C91.3333333,315.752 91.0613333,315.672 90.848,315.512 C90.6346667,315.352 90.528,315.096 90.528,314.744 C90.528,314.552 90.576,314.370667 90.672,314.2 C90.768,314.029333 90.928,313.877333 91.152,313.744 C91.376,313.610667 91.6693333,313.490667 92.032,313.384 C92.3946667,313.277333 92.8426667,313.192 93.376,313.128 L93.376,313.128 L93.376,314.888 C93.0773333,315.165333 92.7973333,315.378667 92.536,315.528 C92.2746667,315.677333 91.984,315.752 91.664,315.752 Z M99.936,317.192 C100.245333,317.192 100.536,317.162667 100.808,317.104 C101.08,317.045333 101.322667,316.978667 101.536,316.904 L101.536,316.904 L101.216,315.544 C101.098667,315.597333 100.968,315.64 100.824,315.672 C100.68,315.704 100.538667,315.72 100.4,315.72 C99.664,315.72 99.296,315.261333 99.296,314.344 L99.296,314.344 L99.296,310.6 L101.296,310.6 L101.296,309.144 L99.296,309.144 L99.296,307 L97.76,307 L97.536,309.144 L96.32,309.224 L96.32,310.6 L97.44,310.6 L97.44,314.344 C97.44,314.770667 97.4853333,315.157333 97.576,315.504 C97.6666667,315.850667 97.8106667,316.149333 98.008,316.4 C98.2053333,316.650667 98.4613333,316.845333 98.776,316.984 C99.0906667,317.122667 99.4773333,317.192 99.936,317.192 Z M106.048,317.192 C106.549333,317.192 107.029333,317.112 107.488,316.952 C107.946667,316.792 108.362667,316.589333 108.736,316.344 L108.736,316.344 L108.112,315.192 C107.824,315.373333 107.533333,315.514667 107.24,315.616 C106.946667,315.717333 106.629333,315.768 106.288,315.768 C105.648,315.768 105.122667,315.578667 104.712,315.2 C104.301333,314.821333 104.053333,314.28 103.968,313.576 L103.968,313.576 L108.96,313.576 C108.981333,313.48 109,313.352 109.016,313.192 C109.032,313.032 109.04,312.861333 109.04,312.68 C109.04,312.136 108.970667,311.634667 108.832,311.176 C108.693333,310.717333 108.488,310.322667 108.216,309.992 C107.944,309.661333 107.605333,309.405333 107.2,309.224 C106.794667,309.042667 106.325333,308.952 105.792,308.952 C105.333333,308.952 104.885333,309.048 104.448,309.24 C104.010667,309.432 103.624,309.704 103.288,310.056 C102.952,310.408 102.682667,310.84 102.48,311.352 C102.277333,311.864 102.176,312.44 102.176,313.08 C102.176,313.730667 102.274667,314.309333 102.472,314.816 C102.669333,315.322667 102.944,315.752 103.296,316.104 C103.648,316.456 104.058667,316.725333 104.528,316.912 C104.997333,317.098667 105.504,317.192 106.048,317.192 Z M107.44,312.328 L103.952,312.328 C104.037333,311.688 104.256,311.202667 104.608,310.872 C104.96,310.541333 105.370667,310.376 105.84,310.376 C106.384,310.376 106.786667,310.549333 107.048,310.896 C107.309333,311.242667 107.44,311.72 107.44,312.328 L107.44,312.328 Z M117.216,317.192 C117.706667,317.192 118.178667,317.101333 118.632,316.92 C119.085333,316.738667 119.482667,316.472 119.824,316.12 C120.165333,315.768 120.44,315.336 120.648,314.824 C120.856,314.312 120.96,313.730667 120.96,313.08 C120.96,312.429333 120.856,311.848 120.648,311.336 C120.44,310.824 120.165333,310.392 119.824,310.04 C119.482667,309.688 119.085333,309.418667 118.632,309.232 C118.178667,309.045333 117.706667,308.952 117.216,308.952 C116.725333,308.952 116.256,309.045333 115.808,309.232 C115.36,309.418667 114.962667,309.688 114.616,310.04 C114.269333,310.392 113.994667,310.824 113.792,311.336 C113.589333,311.848 113.488,312.429333 113.488,313.08 C113.488,313.730667 113.589333,314.312 113.792,314.824 C113.994667,315.336 114.269333,315.768 114.616,316.12 C114.962667,316.472 115.36,316.738667 115.808,316.92 C116.256,317.101333 116.725333,317.192 117.216,317.192 Z M117.216,315.688 C116.64,315.688 116.189333,315.450667 115.864,314.976 C115.538667,314.501333 115.376,313.869333 115.376,313.08 C115.376,312.28 115.538667,311.642667 115.864,311.168 C116.189333,310.693333 116.64,310.456 117.216,310.456 C117.792,310.456 118.245333,310.693333 118.576,311.168 C118.906667,311.642667 119.072,312.28 119.072,313.08 C119.072,313.869333 118.906667,314.501333 118.576,314.976 C118.245333,315.450667 117.792,315.688 117.216,315.688 Z M124.88,317 L124.88,310.6 L126.416,310.6 L126.416,309.144 L124.88,309.144 L124.88,308.296 C124.88,307.410667 125.210667,306.968 125.872,306.968 C126.16,306.968 126.448,307.032 126.736,307.16 L126.736,307.16 L127.088,305.784 C126.906667,305.709333 126.690667,305.645333 126.44,305.592 C126.189333,305.538667 125.925333,305.512 125.648,305.512 C125.178667,305.512 124.781333,305.581333 124.456,305.72 C124.130667,305.858667 123.861333,306.053333 123.648,306.304 C123.434667,306.554667 123.28,306.853333 123.184,307.2 C123.088,307.546667 123.04,307.922667 123.04,308.328 L123.04,308.328 L123.04,309.144 L121.984,309.224 L121.984,310.6 L123.04,310.6 L123.04,317 L124.88,317 Z M134.8,317.192 C135.237333,317.192 135.658667,317.096 136.064,316.904 C136.469333,316.712 136.826667,316.434667 137.136,316.072 C137.445333,315.709333 137.693333,315.264 137.88,314.736 C138.066667,314.208 138.16,313.608 138.16,312.936 C138.16,312.328 138.090667,311.778667 137.952,311.288 C137.813333,310.797333 137.610667,310.378667 137.344,310.032 C137.077333,309.685333 136.752,309.418667 136.368,309.232 C135.984,309.045333 135.546667,308.952 135.056,308.952 C134.650667,308.952 134.253333,309.042667 133.864,309.224 C133.474667,309.405333 133.114667,309.64 132.784,309.928 L132.784,309.928 L132.832,308.616 L132.832,305.704 L130.992,305.704 L130.992,317 L132.448,317 L132.608,316.168 L132.656,316.168 C132.986667,316.498667 133.336,316.752 133.704,316.928 C134.072,317.104 134.437333,317.192 134.8,317.192 Z M134.416,315.672 C134.181333,315.672 133.928,315.624 133.656,315.528 C133.384,315.432 133.109333,315.261333 132.832,315.016 L132.832,315.016 L132.832,311.352 C133.429333,310.765333 134.005333,310.472 134.56,310.472 C135.157333,310.472 135.589333,310.690667 135.856,311.128 C136.122667,311.565333 136.256,312.178667 136.256,312.968 C136.256,313.864 136.08,314.538667 135.728,314.992 C135.376,315.445333 134.938667,315.672 134.416,315.672 Z M140.928,307.768 C141.258667,307.768 141.530667,307.672 141.744,307.48 C141.957333,307.288 142.064,307.037333 142.064,306.728 C142.064,306.418667 141.957333,306.165333 141.744,305.968 C141.530667,305.770667 141.258667,305.672 140.928,305.672 C140.597333,305.672 140.325333,305.770667 140.112,305.968 C139.898667,306.165333 139.792,306.418667 139.792,306.728 C139.792,307.037333 139.898667,307.288 140.112,307.48 C140.325333,307.672 140.597333,307.768 140.928,307.768 Z M141.84,317 L141.84,309.144 L140,309.144 L140,317 L141.84,317 Z M146.032,317 L146.032,312.2 C146.277333,311.602667 146.570667,311.184 146.912,310.944 C147.253333,310.704 147.578667,310.584 147.888,310.584 C148.058667,310.584 148.202667,310.594667 148.32,310.616 C148.437333,310.637333 148.565333,310.669333 148.704,310.712 L148.704,310.712 L149.024,309.112 C148.8,309.005333 148.501333,308.952 148.128,308.952 C147.712,308.952 147.306667,309.088 146.912,309.36 C146.517333,309.632 146.181333,310.024 145.904,310.536 L145.904,310.536 L145.84,310.536 L145.712,309.144 L144.192,309.144 L144.192,317 L146.032,317 Z M152.928,317.192 C153.237333,317.192 153.528,317.162667 153.8,317.104 C154.072,317.045333 154.314667,316.978667 154.528,316.904 L154.528,316.904 L154.208,315.544 C154.090667,315.597333 153.96,315.64 153.816,315.672 C153.672,315.704 153.530667,315.72 153.392,315.72 C152.656,315.72 152.288,315.261333 152.288,314.344 L152.288,314.344 L152.288,310.6 L154.288,310.6 L154.288,309.144 L152.288,309.144 L152.288,307 L150.752,307 L150.528,309.144 L149.312,309.224 L149.312,310.6 L150.432,310.6 L150.432,314.344 C150.432,314.770667 150.477333,315.157333 150.568,315.504 C150.658667,315.850667 150.802667,316.149333 151,316.4 C151.197333,316.650667 151.453333,316.845333 151.768,316.984 C152.082667,317.122667 152.469333,317.192 152.928,317.192 Z M157.776,317 L157.776,311.512 C158.106667,311.192 158.402667,310.949333 158.664,310.784 C158.925333,310.618667 159.226667,310.536 159.568,310.536 C160.005333,310.536 160.32,310.669333 160.512,310.936 C160.704,311.202667 160.8,311.661333 160.8,312.312 L160.8,312.312 L160.8,317 L162.64,317 L162.64,312.072 C162.64,311.069333 162.448,310.298667 162.064,309.76 C161.68,309.221333 161.066667,308.952 160.224,308.952 C159.68,308.952 159.208,309.072 158.808,309.312 C158.408,309.552 158.042667,309.826667 157.712,310.136 L157.712,310.136 L157.776,308.616 L157.776,305.704 L155.936,305.704 L155.936,317 L157.776,317 Z" id="Dateofbirth" fill="#000000" fill-rule="nonzero"></path>
        <g id="angle-down-red" transform="translate(393.000000, 255.000000)" fill="#000000" fill-rule="nonzero">
            <g id="angle-right" transform="translate(7.500000, 5.000000) rotate(90.000000) translate(-7.500000, -5.000000) translate(2.500000, -2.500000)">
                <path d="M9.3585455,8.29192547 L3.00426598,14.6273292 C2.56507313,15.0652174 1.85488895,15.0652174 1.42036836,14.6273292 L0.36443662,13.5745342 C-0.0747562297,13.136646 -0.0747562297,12.4285714 0.36443662,11.9953416 L4.86849946,7.50465839 L0.36443662,3.01397516 C-0.0747562297,2.57608696 -0.0747562297,1.86801242 0.36443662,1.43478261 L1.4156961,0.372670807 C1.85488895,-0.0652173913 2.56507313,-0.0652173913 2.99959372,0.372670807 L9.35387324,6.70807453 C9.79773835,7.14596273 9.79773835,7.85403727 9.3585455,8.29192547 L9.3585455,8.29192547 Z" id="Path"></path>
            </g>
        </g>
        <path d="M98.128,354 C98.9173333,354 99.616,353.88 100.224,353.64 C100.832,353.4 101.344,353.053333 101.76,352.6 C102.176,352.146667 102.490667,351.592 102.704,350.936 C102.917333,350.28 103.024,349.536 103.024,348.704 C103.024,347.029333 102.602667,345.744 101.76,344.848 C100.917333,343.952 99.6853333,343.504 98.064,343.504 L98.064,343.504 L95.44,343.504 L95.44,354 L98.128,354 Z M97.968,352.912 L96.768,352.912 L96.768,344.592 L97.968,344.592 C99.1946667,344.592 100.114667,344.944 100.728,345.648 C101.341333,346.352 101.648,347.370667 101.648,348.704 C101.648,350.037333 101.341333,351.072 100.728,351.808 C100.114667,352.544 99.1946667,352.912 97.968,352.912 L97.968,352.912 Z M107.968,354 C108.757333,354 109.456,353.88 110.064,353.64 C110.672,353.4 111.184,353.053333 111.6,352.6 C112.016,352.146667 112.330667,351.592 112.544,350.936 C112.757333,350.28 112.864,349.536 112.864,348.704 C112.864,347.029333 112.442667,345.744 111.6,344.848 C110.757333,343.952 109.525333,343.504 107.904,343.504 L107.904,343.504 L105.28,343.504 L105.28,354 L107.968,354 Z M107.808,352.912 L106.608,352.912 L106.608,344.592 L107.808,344.592 C109.034667,344.592 109.954667,344.944 110.568,345.648 C111.181333,346.352 111.488,347.370667 111.488,348.704 C111.488,350.037333 111.181333,351.072 110.568,351.808 C109.954667,352.544 109.034667,352.912 107.808,352.912 L107.808,352.912 Z" id="DD" fill="#6E7272" fill-rule="nonzero"></path>
        <path d="M160.64,354 L160.64,348.224 C160.64,347.754667 160.621333,347.237333 160.584,346.672 C160.546667,346.106667 160.512,345.589333 160.48,345.12 L160.48,345.12 L160.544,345.12 L161.376,347.504 L163.36,352.944 L164.24,352.944 L166.224,347.504 L167.056,345.12 L167.12,345.12 C167.088,345.589333 167.050667,346.106667 167.008,346.672 C166.965333,347.237333 166.944,347.754667 166.944,348.224 L166.944,348.224 L166.944,354 L168.192,354 L168.192,343.504 L166.576,343.504 L164.592,349.104 C164.464,349.466667 164.344,349.832 164.232,350.2 L164.058,350.75 L164.058,350.75 L163.872,351.296 L163.808,351.296 C163.68,350.933333 163.554667,350.568 163.432,350.2 L163.246,349.65 L163.246,349.65 L163.056,349.104 L161.04,343.504 L159.44,343.504 L159.44,354 L160.64,354 Z M172.272,354 L172.272,348.224 C172.272,347.754667 172.253333,347.237333 172.216,346.672 C172.178667,346.106667 172.144,345.589333 172.112,345.12 L172.112,345.12 L172.176,345.12 L173.008,347.504 L174.992,352.944 L175.872,352.944 L177.856,347.504 L178.688,345.12 L178.752,345.12 C178.72,345.589333 178.682667,346.106667 178.64,346.672 C178.597333,347.237333 178.576,347.754667 178.576,348.224 L178.576,348.224 L178.576,354 L179.824,354 L179.824,343.504 L178.208,343.504 L176.224,349.104 C176.096,349.466667 175.976,349.832 175.864,350.2 C175.752,350.568 175.632,350.933333 175.504,351.296 L175.504,351.296 L175.44,351.296 C175.312,350.933333 175.186667,350.568 175.064,350.2 L174.878,349.65 L174.878,349.65 L174.688,349.104 L172.672,343.504 L171.072,343.504 L171.072,354 L172.272,354 Z" id="MM" fill="#6E7272" fill-rule="nonzero"></path>
        <path d="M237.48,354 L237.48,349.936 L240.632,343.504 L239.24,343.504 L237.896,346.464 C237.736,346.848 237.565333,347.226667 237.384,347.6 C237.202667,347.973333 237.021333,348.357333 236.84,348.752 L236.84,348.752 L236.776,348.752 C236.594667,348.357333 236.424,347.973333 236.264,347.6 C236.104,347.226667 235.938667,346.848 235.768,346.464 L235.768,346.464 L234.408,343.504 L232.984,343.504 L236.136,349.936 L236.136,354 L237.48,354 Z M245.096,354 L245.096,349.936 L248.248,343.504 L246.856,343.504 L245.512,346.464 C245.352,346.848 245.181333,347.226667 245,347.6 C244.818667,347.973333 244.637333,348.357333 244.456,348.752 L244.456,348.752 L244.392,348.752 C244.210667,348.357333 244.04,347.973333 243.88,347.6 C243.72,347.226667 243.554667,346.848 243.384,346.464 L243.384,346.464 L242.024,343.504 L240.6,343.504 L243.752,349.936 L243.752,354 L245.096,354 Z M252.712,354 L252.712,349.936 L255.864,343.504 L254.472,343.504 L253.128,346.464 C252.968,346.848 252.797333,347.226667 252.616,347.6 C252.434667,347.973333 252.253333,348.357333 252.072,348.752 L252.072,348.752 L252.008,348.752 C251.826667,348.357333 251.656,347.973333 251.496,347.6 C251.336,347.226667 251.170667,346.848 251,346.464 L251,346.464 L249.64,343.504 L248.216,343.504 L251.368,349.936 L251.368,354 L252.712,354 Z M260.328,354 L260.328,349.936 L263.48,343.504 L262.088,343.504 L260.744,346.464 C260.584,346.848 260.413333,347.226667 260.232,347.6 C260.050667,347.973333 259.869333,348.357333 259.688,348.752 L259.688,348.752 L259.624,348.752 C259.442667,348.357333 259.272,347.973333 259.112,347.6 C258.952,347.226667 258.786667,346.848 258.616,346.464 L258.616,346.464 L257.256,343.504 L255.832,343.504 L258.984,349.936 L258.984,354 L260.328,354 Z" id="YYYY" fill="#6E7272" fill-rule="nonzero"></path>
    </g>
</svg>