<?xml version="1.0" encoding="utf-8"?>
<!-- Generator: Adobe Illustrator 24.0.3, SVG Export Plug-In . SVG Version: 6.00 Build 0)  -->
<svg version="1.1" id="Layer_1" xmlns="http://www.w3.org/2000/svg" xmlns:xlink="http://www.w3.org/1999/xlink" x="0px" y="0px"
	 viewBox="0 0 500 199.5" style="enable-background:new 0 0 500 199.5;" xml:space="preserve">
<style type="text/css">
	.st0{fill:#00916A;}
	.st1{fill:#F5F5F5;}
	.st2{fill:#5151D3;}
</style>
<rect class="st0" width="6" height="199.5"/>
<g>
	<rect x="6" class="st1" width="495" height="199.5"/>
</g>
<path class="st0" d="M33.4,11.5c-8.6,0-15.7,7-15.7,15.7s7,15.7,15.7,15.7s15.7-7,15.7-15.7S42,11.5,33.4,11.5z M30.3,35l-7.8-7.8
	l2.2-2.2l5.6,5.6l11.8-11.9l2.2,2.2L30.3,35z"/>
<g>
	<polygon class="st2" points="302.1,101 352.1,100.8 352.1,101.8 302.1,102 	"/>
</g>
<ellipse class="st2" cx="302.2" cy="101.4" rx="3" ry="3"/>
<g>
	<path d="M111.9,110.7V89.8h3.7v8.4h8.5v-8.4h3.7v20.9h-3.7v-9.3h-8.5v9.3H111.9z"/>
	<path d="M139.5,111.1c-1.1,0-2.1-0.2-3-0.6c-0.9-0.4-1.8-0.9-2.5-1.6c-0.7-0.7-1.3-1.6-1.6-2.6c-0.4-1-0.6-2.2-0.6-3.5
		c0-1.3,0.2-2.4,0.6-3.5s0.9-1.9,1.6-2.6c0.7-0.7,1.4-1.2,2.3-1.6c0.9-0.4,1.8-0.6,2.7-0.6c1.1,0,2,0.2,2.8,0.5
		c0.8,0.4,1.5,0.9,2,1.5c0.5,0.7,1,1.5,1.2,2.4c0.3,0.9,0.4,1.9,0.4,3c0,0.4,0,0.7,0,1c0,0.3-0.1,0.6-0.1,0.8h-10
		c0.2,1.4,0.7,2.5,1.5,3.2c0.8,0.8,1.9,1.1,3.2,1.1c0.7,0,1.3-0.1,1.9-0.3c0.6-0.2,1.2-0.5,1.7-0.8l1.2,2.3
		c-0.7,0.5-1.6,0.9-2.5,1.2C141.5,110.9,140.5,111.1,139.5,111.1z M135.3,101.4h7c0-1.2-0.3-2.2-0.8-2.9c-0.5-0.7-1.3-1-2.4-1
		c-0.9,0-1.8,0.3-2.5,1C136,99.1,135.5,100.1,135.3,101.4z"/>
	<path d="M152.5,111.1c-1.4,0-2.5-0.4-3.4-1.3c-0.9-0.8-1.3-2-1.3-3.3c0-0.8,0.2-1.6,0.5-2.2c0.4-0.7,0.9-1.2,1.7-1.7
		s1.7-0.9,2.9-1.2c1.2-0.3,2.6-0.6,4.2-0.7c0-0.4-0.1-0.8-0.2-1.2c-0.1-0.4-0.3-0.7-0.5-1c-0.2-0.3-0.5-0.5-0.9-0.7
		c-0.4-0.2-0.8-0.2-1.3-0.2c-0.8,0-1.5,0.1-2.3,0.4c-0.7,0.3-1.5,0.7-2.2,1.1l-1.3-2.5c0.9-0.6,1.9-1,2.9-1.4
		c1.1-0.4,2.3-0.6,3.5-0.6c2,0,3.4,0.6,4.4,1.7c1,1.2,1.5,2.8,1.5,5v9.3h-3l-0.3-1.7h-0.1c-0.7,0.6-1.5,1.1-2.3,1.5
		C154.3,110.9,153.4,111.1,152.5,111.1z M153.7,108.2c0.6,0,1.2-0.1,1.7-0.4s1.1-0.7,1.7-1.3V103c-1.1,0.1-2,0.3-2.7,0.5
		c-0.7,0.2-1.3,0.5-1.8,0.7c-0.4,0.3-0.8,0.6-1,0.9c-0.2,0.3-0.3,0.7-0.3,1.1c0,0.7,0.2,1.2,0.6,1.5
		C152.4,108.1,153,108.2,153.7,108.2z"/>
	<path d="M170.7,111.1c-2,0-3.6-0.7-4.7-2.2c-1.2-1.4-1.7-3.5-1.7-6.1c0-1.3,0.2-2.4,0.6-3.5c0.4-1,0.9-1.9,1.5-2.6
		c0.6-0.7,1.3-1.2,2.1-1.6c0.8-0.4,1.6-0.6,2.5-0.6c0.9,0,1.7,0.2,2.3,0.5c0.6,0.3,1.2,0.7,1.9,1.3l-0.1-2.5v-5.7h3.7v22.6h-3
		l-0.3-1.7h-0.1c-0.6,0.6-1.2,1.1-2,1.5C172.3,110.9,171.5,111.1,170.7,111.1z M171.6,108.1c1.2,0,2.3-0.6,3.3-1.8V99
		c-0.6-0.5-1.1-0.8-1.6-1c-0.5-0.2-1.1-0.3-1.6-0.3c-1,0-1.9,0.4-2.6,1.3c-0.7,0.9-1.1,2.2-1.1,3.8c0,1.7,0.3,3,0.9,3.9
		C169.5,107.6,170.4,108.1,171.6,108.1z"/>
	<path d="M186.8,111.1c-1.3,0-2.3-0.4-2.8-1.2c-0.5-0.8-0.8-1.9-0.8-3.2V88.1h3.7v18.8c0,0.4,0.1,0.8,0.3,0.9
		c0.2,0.2,0.4,0.3,0.5,0.3c0.1,0,0.2,0,0.2,0c0.1,0,0.2,0,0.3-0.1l0.5,2.8C188.3,111,187.6,111.1,186.8,111.1z"/>
	<path d="M193.7,92.3c-0.7,0-1.2-0.2-1.6-0.6c-0.4-0.4-0.6-0.9-0.6-1.5c0-0.6,0.2-1.1,0.6-1.5c0.4-0.4,1-0.6,1.6-0.6
		c0.7,0,1.2,0.2,1.6,0.6c0.4,0.4,0.6,0.9,0.6,1.5c0,0.6-0.2,1.1-0.6,1.5C195,92.1,194.4,92.3,193.7,92.3z M191.9,110.7V95h3.7v15.7
		H191.9z"/>
	<path d="M200.3,110.7V95h3l0.3,2.1h0.1c0.7-0.7,1.5-1.3,2.3-1.8s1.8-0.7,2.9-0.7c1.7,0,2.9,0.5,3.7,1.6c0.8,1.1,1.2,2.6,1.2,4.6
		v9.9H210v-9.4c0-1.3-0.2-2.2-0.6-2.8c-0.4-0.5-1-0.8-1.9-0.8c-0.7,0-1.3,0.2-1.8,0.5c-0.5,0.3-1.1,0.8-1.8,1.5v11H200.3z"/>
	<path d="M224.9,111.1c-1.1,0-2.1-0.2-3-0.6c-0.9-0.4-1.8-0.9-2.5-1.6c-0.7-0.7-1.3-1.6-1.6-2.6c-0.4-1-0.6-2.2-0.6-3.5
		c0-1.3,0.2-2.4,0.6-3.5s0.9-1.9,1.6-2.6c0.7-0.7,1.4-1.2,2.3-1.6c0.9-0.4,1.8-0.6,2.7-0.6c1.1,0,2,0.2,2.8,0.5s1.5,0.9,2,1.5
		c0.5,0.7,1,1.5,1.2,2.4c0.3,0.9,0.4,1.9,0.4,3c0,0.4,0,0.7,0,1c0,0.3-0.1,0.6-0.1,0.8h-10c0.2,1.4,0.7,2.5,1.5,3.2
		c0.8,0.8,1.9,1.1,3.2,1.1c0.7,0,1.3-0.1,1.9-0.3c0.6-0.2,1.2-0.5,1.7-0.8l1.2,2.3c-0.7,0.5-1.6,0.9-2.5,1.2
		C226.9,110.9,225.9,111.1,224.9,111.1z M220.7,101.4h7c0-1.2-0.3-2.2-0.8-2.9c-0.5-0.7-1.3-1-2.4-1c-0.9,0-1.8,0.3-2.5,1
		C221.3,99.1,220.9,100.1,220.7,101.4z"/>
	<path d="M246.4,111.1c-0.9,0-1.7-0.1-2.3-0.4c-0.6-0.3-1.1-0.7-1.5-1.2c-0.4-0.5-0.7-1.1-0.9-1.8c-0.2-0.7-0.3-1.5-0.3-2.3v-7.5
		h-2.2v-2.8l2.4-0.2l0.4-4.3h3.1V95h4v2.9h-4v7.5c0,1.8,0.7,2.8,2.2,2.8c0.3,0,0.6,0,0.8-0.1c0.3-0.1,0.5-0.1,0.8-0.3l0.6,2.7
		c-0.4,0.1-0.9,0.3-1.5,0.4C247.6,111,247,111.1,246.4,111.1z"/>
	<path d="M258.6,111.1c-1.1,0-2.1-0.2-3-0.6c-0.9-0.4-1.8-0.9-2.5-1.6s-1.3-1.6-1.6-2.6c-0.4-1-0.6-2.2-0.6-3.5
		c0-1.3,0.2-2.4,0.6-3.5s0.9-1.9,1.6-2.6c0.7-0.7,1.4-1.2,2.3-1.6c0.9-0.4,1.8-0.6,2.7-0.6c1.1,0,2,0.2,2.8,0.5
		c0.8,0.4,1.5,0.9,2,1.5c0.5,0.7,1,1.5,1.2,2.4c0.3,0.9,0.4,1.9,0.4,3c0,0.4,0,0.7,0,1c0,0.3-0.1,0.6-0.1,0.8h-10
		c0.2,1.4,0.7,2.5,1.5,3.2c0.8,0.8,1.9,1.1,3.2,1.1c0.7,0,1.3-0.1,1.9-0.3c0.6-0.2,1.2-0.5,1.7-0.8l1.2,2.3
		c-0.7,0.5-1.6,0.9-2.5,1.2C260.5,110.9,259.6,111.1,258.6,111.1z M254.4,101.4h7c0-1.2-0.3-2.2-0.8-2.9c-0.5-0.7-1.3-1-2.4-1
		c-0.9,0-1.8,0.3-2.5,1S254.6,100.1,254.4,101.4z"/>
	<path d="M265.8,110.7l5-8.2l-4.7-7.5h4l1.8,3c0.2,0.4,0.5,0.9,0.7,1.3c0.2,0.5,0.5,0.9,0.7,1.3h0.1c0.2-0.4,0.4-0.9,0.6-1.3
		c0.2-0.5,0.4-0.9,0.6-1.3l1.5-3h3.8l-4.6,7.9l5,7.8h-4l-1.9-3.1c-0.3-0.5-0.5-0.9-0.8-1.4c-0.3-0.5-0.5-0.9-0.8-1.4h-0.1
		c-0.2,0.4-0.5,0.9-0.7,1.4c-0.2,0.5-0.5,0.9-0.7,1.4l-1.7,3.1H265.8z"/>
	<path d="M287.8,111.1c-0.9,0-1.7-0.1-2.3-0.4c-0.6-0.3-1.1-0.7-1.5-1.2c-0.4-0.5-0.7-1.1-0.9-1.8c-0.2-0.7-0.3-1.5-0.3-2.3v-7.5
		h-2.2v-2.8L283,95l0.4-4.3h3.1V95h4v2.9h-4v7.5c0,1.8,0.7,2.8,2.2,2.8c0.3,0,0.6,0,0.8-0.1c0.3-0.1,0.5-0.1,0.8-0.3l0.6,2.7
		c-0.4,0.1-0.9,0.3-1.5,0.4C289,111,288.4,111.1,287.8,111.1z"/>
</g>
<g>
	<path class="st2" d="M360.2,105.7c-0.8,0-1.5-0.3-1.8-0.8c-0.4-0.5-0.6-1.3-0.6-2.3v-4.9h1.8v4.7c0,0.7,0.1,1.1,0.3,1.4
		s0.5,0.4,0.9,0.4c0.3,0,0.6-0.1,0.9-0.3c0.3-0.2,0.5-0.4,0.8-0.8v-5.4h1.8v7.9h-1.5l-0.1-1.2h0c-0.3,0.4-0.7,0.7-1.1,1
		C361.2,105.6,360.7,105.7,360.2,105.7z"/>
	<path class="st2" d="M366.2,102.2v-1.3h3.8v1.3H366.2z"/>
	<path class="st2" d="M372.2,105.5v-6.4h-1.1v-1.4l1.1-0.1v-0.8c0-0.4,0-0.8,0.1-1.1s0.2-0.6,0.5-0.9c0.2-0.3,0.5-0.4,0.8-0.6
		c0.3-0.1,0.7-0.2,1.2-0.2c0.3,0,0.5,0,0.8,0.1c0.3,0.1,0.5,0.1,0.6,0.2l-0.4,1.4c-0.3-0.1-0.6-0.2-0.9-0.2c-0.7,0-1,0.4-1,1.3v0.8
		h1.5v1.5H374v6.4H372.2z"/>
	<path class="st2" d="M379,105.7c-0.5,0-1.1-0.1-1.6-0.3c-0.5-0.2-1-0.5-1.4-0.8l0.9-1.2c0.4,0.3,0.7,0.5,1,0.6
		c0.3,0.2,0.7,0.2,1.1,0.2c0.4,0,0.7-0.1,0.9-0.3c0.2-0.2,0.3-0.4,0.3-0.7c0-0.2,0-0.3-0.1-0.4s-0.2-0.2-0.4-0.3s-0.3-0.2-0.5-0.3
		c-0.2-0.1-0.4-0.2-0.6-0.2c-0.3-0.1-0.5-0.2-0.8-0.3s-0.5-0.3-0.7-0.5c-0.2-0.2-0.4-0.4-0.5-0.6c-0.1-0.2-0.2-0.5-0.2-0.9
		c0-0.7,0.3-1.3,0.8-1.7c0.5-0.4,1.2-0.7,2.1-0.7c0.5,0,1,0.1,1.5,0.3c0.4,0.2,0.8,0.4,1.1,0.7l-0.8,1.1c-0.3-0.2-0.6-0.4-0.8-0.5
		c-0.3-0.1-0.6-0.2-0.9-0.2c-0.4,0-0.7,0.1-0.9,0.2c-0.2,0.2-0.3,0.4-0.3,0.6c0,0.2,0,0.3,0.1,0.4c0.1,0.1,0.2,0.2,0.4,0.3
		s0.3,0.2,0.5,0.2c0.2,0.1,0.4,0.1,0.6,0.2c0.3,0.1,0.5,0.2,0.8,0.3s0.5,0.3,0.7,0.5c0.2,0.2,0.4,0.4,0.5,0.7
		c0.1,0.3,0.2,0.6,0.2,0.9c0,0.3-0.1,0.7-0.2,1c-0.1,0.3-0.3,0.5-0.6,0.8c-0.3,0.2-0.6,0.4-1,0.5C380,105.6,379.5,105.7,379,105.7z"
		/>
	<path class="st2" d="M383.4,102.2v-1.3h3.8v1.3H383.4z"/>
	<path class="st2" d="M387.8,105.5l2.5-4.1l-2.3-3.8h2l0.9,1.5c0.1,0.2,0.2,0.4,0.4,0.7c0.1,0.2,0.2,0.5,0.4,0.7h0.1
		c0.1-0.2,0.2-0.4,0.3-0.7c0.1-0.2,0.2-0.5,0.3-0.7l0.8-1.5h1.9l-2.3,4l2.5,3.9h-2l-1-1.6c-0.1-0.2-0.3-0.5-0.4-0.7
		c-0.1-0.2-0.3-0.5-0.4-0.7h-0.1c-0.1,0.2-0.2,0.5-0.3,0.7c-0.1,0.2-0.2,0.5-0.3,0.7l-0.8,1.6H387.8z"/>
	<path class="st2" d="M398.3,105.7c-0.7,0-1.1-0.2-1.4-0.6s-0.4-0.9-0.4-1.6v-9.3h1.8v9.4c0,0.2,0,0.4,0.1,0.5
		c0.1,0.1,0.2,0.1,0.3,0.1c0,0,0.1,0,0.1,0s0.1,0,0.2,0l0.2,1.4C399,105.7,398.7,105.7,398.3,105.7z"/>
</g>
</svg>
