<?xml version="1.0" encoding="utf-8"?>
<!-- Generator: Adobe Illustrator 24.1.2, SVG Export Plug-In . SVG Version: 6.00 Build 0)  -->
<svg version="1.1" id="Layer_1" xmlns="http://www.w3.org/2000/svg" xmlns:xlink="http://www.w3.org/1999/xlink" x="0px" y="0px"
	 viewBox="0 0 500 180" style="enable-background:new 0 0 500 180;" xml:space="preserve">
<style type="text/css">
	.st0{fill:#EE020A;}
	.st1{fill:#F5F5F5;}
	.st2{fill:#005FC6;}
	.st3{fill:#FFFFFF;}
</style>
<rect id="Rectangle" class="st0" width="6" height="180"/>
<rect id="Rectangle_1_" x="6" class="st1" width="495" height="180"/>
<path id="Path" class="st0" d="M33.5,12C25,12,18,18.9,18,27.5S24.9,43,33.5,43S49,36.1,49,27.5S42,12,33.5,12z"/>
<g id="Group" transform="translate(25.000000, 19.000000)">
	
		<rect id="Rectangle_2_" x="-1.1" y="6.7" transform="matrix(0.7071 -0.7071 0.7071 0.7071 -3.3077 8.7369)" class="st1" width="20" height="3.3"/>
	
		<rect id="Rectangle_3_" x="7.2" y="-1.7" transform="matrix(0.7071 -0.7071 0.7071 0.7071 -3.2698 8.6941)" class="st1" width="3.3" height="20"/>
</g>
<path id="Turnhintson" d="M227.2,96V84.3h4v-1.4h-9.6v1.4h4V96H227.2z M235.3,96.2c0.7,0,1.3-0.2,1.8-0.5s1-0.7,1.4-1.3l0,0h0.1
	l0.1,1.5h1.4v-9.7h-1.6v6.9c-0.5,0.6-0.9,1-1.3,1.2c-0.4,0.3-0.8,0.4-1.3,0.4c-0.6,0-1.1-0.2-1.4-0.6c-0.3-0.4-0.4-1.1-0.4-2l0,0
	v-5.9h-1.7v6.2c0,1.3,0.2,2.2,0.7,2.8C233.5,95.9,234.2,96.2,235.3,96.2z M245,96v-6.2c0.3-0.8,0.7-1.4,1.2-1.7
	c0.4-0.3,0.9-0.5,1.3-0.5c0.2,0,0.4,0,0.5,0s0.3,0.1,0.4,0.1l0,0l0.3-1.4c-0.3-0.1-0.7-0.2-1-0.2c-0.6,0-1.1,0.2-1.6,0.5
	c-0.5,0.4-0.9,0.8-1.2,1.5l0,0h-0.1l-0.1-1.8h-1.4V96H245z M251.9,96v-7c0.5-0.5,0.9-0.9,1.3-1.1c0.4-0.3,0.8-0.4,1.3-0.4
	c0.6,0,1.1,0.2,1.4,0.6s0.4,1.1,0.4,2l0,0V96h1.6v-6.2c0-1.3-0.2-2.2-0.7-2.8c-0.5-0.6-1.2-1-2.2-1c-0.7,0-1.3,0.2-1.8,0.5
	s-1,0.7-1.5,1.2l0,0h-0.1l-0.1-1.4h-1.4V96H251.9z M266.8,96v-7c0.5-0.5,0.9-0.9,1.3-1.1c0.4-0.3,0.8-0.4,1.3-0.4
	c0.6,0,1.1,0.2,1.4,0.6s0.4,1.1,0.4,2l0,0V96h1.6v-6.2c0-1.3-0.2-2.2-0.7-2.8c-0.5-0.6-1.2-1-2.2-1c-0.7,0-1.3,0.2-1.8,0.5
	s-1,0.7-1.5,1.1l0,0l0.1-2v-3.9h-1.6V96H266.8z M276.9,84.3c0.3,0,0.6-0.1,0.8-0.3c0.2-0.2,0.3-0.5,0.3-0.8s-0.1-0.6-0.3-0.8
	c-0.2-0.2-0.5-0.3-0.8-0.3s-0.6,0.1-0.8,0.3c-0.2,0.2-0.3,0.5-0.3,0.8s0.1,0.6,0.3,0.8C276.3,84.2,276.6,84.3,276.9,84.3z M277.7,96
	v-9.7h-1.6V96H277.7z M282.6,96v-7c0.5-0.5,0.9-0.9,1.3-1.1c0.4-0.3,0.8-0.4,1.3-0.4c0.6,0,1.1,0.2,1.4,0.6s0.4,1.1,0.4,2l0,0V96
	h1.6v-6.2c0-1.3-0.2-2.2-0.7-2.8s-1.2-1-2.2-1c-0.7,0-1.3,0.2-1.8,0.5s-1,0.7-1.5,1.2l0,0h-0.1l-0.1-1.4H281V96H282.6z M295,96.2
	c0.3,0,0.6,0,0.9-0.1s0.6-0.2,0.9-0.2l0,0l-0.3-1.2c-0.2,0.1-0.3,0.1-0.5,0.2s-0.4,0.1-0.6,0.1c-0.6,0-1-0.2-1.2-0.5
	s-0.3-0.8-0.3-1.4l0,0v-5.4h2.6v-1.3h-2.6v-2.7h-1.4l-0.2,2.7l-1.5,0.1v1.2h1.4V93c0,0.5,0,0.9,0.1,1.3s0.2,0.7,0.5,1
	c0.2,0.3,0.5,0.5,0.9,0.7S294.5,96.2,295,96.2z M301,96.2c0.6,0,1.1-0.1,1.5-0.2c0.4-0.2,0.8-0.4,1.1-0.6c0.3-0.3,0.5-0.6,0.7-0.9
	s0.2-0.7,0.2-1.1c0-0.5-0.1-0.8-0.3-1.2c-0.2-0.3-0.4-0.6-0.7-0.8c-0.3-0.2-0.6-0.4-1-0.6s-0.7-0.3-1-0.4s-0.6-0.2-0.8-0.3
	c-0.3-0.1-0.5-0.2-0.7-0.3c-0.2-0.1-0.4-0.3-0.5-0.4c-0.1-0.2-0.2-0.4-0.2-0.6c0-0.4,0.1-0.7,0.4-1s0.7-0.4,1.4-0.4
	c0.4,0,0.8,0.1,1.2,0.2c0.4,0.2,0.7,0.4,1,0.6l0,0l0.8-1c-0.4-0.3-0.8-0.6-1.3-0.8s-1.1-0.3-1.7-0.3c-0.5,0-1,0.1-1.4,0.2
	s-0.8,0.3-1,0.6c-0.3,0.2-0.5,0.5-0.7,0.9c-0.2,0.3-0.2,0.7-0.2,1.1s0.1,0.8,0.3,1.1s0.4,0.6,0.7,0.8c0.3,0.2,0.6,0.4,0.9,0.6
	s0.7,0.3,1,0.4l0,0l0.8,0.3c0.3,0.1,0.5,0.2,0.7,0.4s0.4,0.3,0.5,0.5s0.2,0.4,0.2,0.7c0,0.4-0.2,0.8-0.5,1.1
	c-0.3,0.3-0.8,0.4-1.4,0.4s-1.1-0.1-1.6-0.3c-0.4-0.2-0.9-0.5-1.3-0.8l0,0l-0.8,1.1c0.5,0.4,1,0.7,1.6,1S300.3,96.2,301,96.2z
	 M314.7,96.2c0.6,0,1.2-0.1,1.7-0.3c0.5-0.2,1-0.6,1.4-1s0.7-1,1-1.6c0.2-0.6,0.4-1.3,0.4-2.1c0-0.8-0.1-1.5-0.4-2.2
	c-0.2-0.6-0.6-1.2-1-1.6s-0.9-0.8-1.4-1s-1.1-0.3-1.7-0.3s-1.2,0.1-1.7,0.3c-0.5,0.2-1,0.6-1.4,1s-0.7,1-1,1.6
	c-0.2,0.6-0.4,1.4-0.4,2.2c0,0.8,0.1,1.5,0.4,2.1c0.2,0.6,0.6,1.2,1,1.6s0.9,0.8,1.4,1C313.5,96.1,314.1,96.2,314.7,96.2z
	 M314.7,94.9c-0.4,0-0.8-0.1-1.1-0.3c-0.3-0.2-0.6-0.4-0.9-0.8s-0.4-0.7-0.6-1.2s-0.2-1-0.2-1.5c0-0.6,0.1-1.1,0.2-1.5
	s0.3-0.9,0.6-1.2c0.2-0.3,0.5-0.6,0.9-0.8c0.3-0.2,0.7-0.3,1.1-0.3s0.8,0.1,1.1,0.3c0.3,0.2,0.6,0.4,0.9,0.8
	c0.2,0.3,0.4,0.7,0.6,1.2s0.2,1,0.2,1.5c0,0.6-0.1,1.1-0.2,1.5s-0.3,0.8-0.6,1.2s-0.5,0.6-0.9,0.8C315.5,94.8,315.1,94.9,314.7,94.9
	z M323.4,96v-7c0.5-0.5,0.9-0.9,1.3-1.1c0.4-0.3,0.8-0.4,1.3-0.4c0.6,0,1.1,0.2,1.4,0.6s0.4,1.1,0.4,2l0,0V96h1.6v-6.2
	c0-1.3-0.2-2.2-0.7-2.8s-1.2-1-2.2-1c-0.7,0-1.3,0.2-1.8,0.5s-1,0.7-1.5,1.2l0,0h-0.1l-0.1-1.4h-1.4V96H323.4z"/>
<g id="Group_2_" transform="translate(103.000000, 72.000000)">
	<g id="checked_1_">
		<path id="Shape_1_" class="st2" d="M103.3,0.3H77.6c-2.1,0-3.7,1.7-3.7,3.7v25.7c0,2.1,1.6,3.7,3.7,3.7h25.7
			c2.1,0,3.7-1.6,3.7-3.7V4C107,2,105.4,0.3,103.3,0.3z"/>
	</g>
	<g id="check-icon_1_" transform="translate(5.000000, 8.000000)">
		<path id="Path_2_" class="st3" d="M83.9,17.8L98.4,3.4c0.5-0.5,0.5-1.2,0-1.8l-1.8-1.8c-0.5-0.5-1.3-0.5-1.8,0L83,11.6L77.4,6
			c-0.5-0.5-1.2-0.5-1.8,0l-1.7,1.8c-0.5,0.5-0.5,1.2,0,1.8l8.3,8.2C82.6,18.3,83.4,18.3,83.9,17.8L83.9,17.8z"/>
	</g>
</g>
</svg>
