<?xml version="1.0" encoding="UTF-8"?>
<svg viewBox="0 0 500 380" version="1.1" xmlns="http://www.w3.org/2000/svg" xmlns:xlink="http://www.w3.org/1999/xlink">
    <title>Artboard</title>
    <g id="Artboard" stroke="none" stroke-width="1" fill="none" fill-rule="evenodd">
        <rect id="Rectangle" fill="#EE020A" fill-rule="nonzero" x="0" y="0" width="6" height="380"></rect>
        <rect id="Rectangle" fill="#F5F5F5" fill-rule="nonzero" x="6" y="0" width="495" height="380"></rect>
        <path d="M33.5,12 C25.0095541,12 18,18.9329073 18,27.5495208 C18,36.1661342 24.910828,43 33.5,43 C42.089172,43 49,36.0670927 49,27.4504792 C49,18.8338658 41.9904459,12 33.5,12 Z" id="Path" fill="#EE020A" fill-rule="nonzero"></path>
        <g id="Group" transform="translate(25.000000, 19.000000)" fill="#F5F5F5" fill-rule="nonzero">
            <rect id="Rectangle" transform="translate(8.909875, 8.364395) rotate(-45.000000) translate(-8.909875, -8.364395) " x="-1.0900291" y="6.71441082" width="19.9998082" height="3.29996835"></rect>
            <rect id="Rectangle" transform="translate(8.847765, 8.285095) rotate(-45.000000) translate(-8.847765, -8.285095) " x="7.19778082" y="-1.7148091" width="3.29996835" height="19.9998082"></rect>
        </g>
        <rect id="Rectangle" fill="#F5F5F5" x="90" y="88" width="69" height="8"></rect>
        <rect id="Rectangle" stroke="#6E7272" x="235.5" y="59.5" width="217" height="39" rx="3"></rect>
        <rect id="Rectangle" stroke="#6E7272" x="235.5" y="129.5" width="217" height="39" rx="3"></rect>
        <text id="Email" font-family="SourceSansPro-SemiBold, Source Sans Pro" font-size="16" font-weight="500" fill="#000000">
            <tspan x="185" y="85">Email</tspan>
        </text>
        <rect id="Rectangle" stroke="#6E7272" x="235.5" y="59.5" width="217" height="39" rx="3"></rect>
        <path d="M192.792,85 L192.792,83.432 L188.184,83.432 L188.184,80.344 L191.944,80.344 L191.944,78.776 L188.184,78.776 L188.184,76.104 L192.632,76.104 L192.632,74.536 L186.328,74.536 L186.328,85 L192.792,85 Z M196.616,85 L196.616,79.512 C197.224,78.8613333 197.773333,78.536 198.264,78.536 C198.68,78.536 198.986667,78.6693333 199.184,78.936 C199.381333,79.2026667 199.48,79.6613333 199.48,80.312 L199.48,80.312 L199.48,85 L201.32,85 L201.32,79.512 C201.928,78.8613333 202.477333,78.536 202.968,78.536 C203.373333,78.536 203.674667,78.6693333 203.872,78.936 C204.069333,79.2026667 204.168,79.6613333 204.168,80.312 L204.168,80.312 L204.168,85 L206.024,85 L206.024,80.072 C206.024,79.0693333 205.826667,78.2986667 205.432,77.76 C205.037333,77.2213333 204.424,76.952 203.592,76.952 C203.090667,76.952 202.637333,77.0853333 202.232,77.352 C201.826667,77.6186667 201.437333,77.9546667 201.064,78.36 C200.882667,77.912 200.618667,77.5653333 200.272,77.32 C199.925333,77.0746667 199.464,76.952 198.888,76.952 C198.397333,76.952 197.957333,77.0746667 197.568,77.32 C197.178667,77.5653333 196.818667,77.864 196.488,78.216 L196.488,78.216 L196.424,78.216 L196.296,77.144 L194.776,77.144 L194.776,85 L196.616,85 Z M210.168,85.192 C210.637333,85.192 211.072,85.0906667 211.472,84.888 C211.872,84.6853333 212.248,84.4346667 212.6,84.136 L212.6,84.136 L212.664,84.136 L212.792,85 L214.312,85 L214.312,80.344 C214.312,79.2453333 214.069333,78.4053333 213.584,77.824 C213.098667,77.2426667 212.365333,76.952 211.384,76.952 C210.754667,76.952 210.168,77.0533333 209.624,77.256 C209.08,77.4586667 208.589333,77.6986667 208.152,77.976 L208.152,77.976 L208.824,79.208 C209.176,78.9946667 209.536,78.8133333 209.904,78.664 C210.272,78.5146667 210.648,78.44 211.032,78.44 C211.298667,78.44 211.522667,78.48 211.704,78.56 C211.885333,78.64 212.032,78.752 212.144,78.896 C212.256,79.04 212.336,79.2053333 212.384,79.392 C212.432,79.5786667 212.461333,79.7733333 212.472,79.976 C211.661333,80.0613333 210.965333,80.184 210.384,80.344 C209.802667,80.504 209.322667,80.7013333 208.944,80.936 C208.565333,81.1706667 208.288,81.4506667 208.112,81.776 C207.936,82.1013333 207.848,82.472 207.848,82.888 C207.848,83.5813333 208.061333,84.1386667 208.488,84.56 C208.914667,84.9813333 209.474667,85.192 210.168,85.192 Z M210.76,83.752 C210.429333,83.752 210.157333,83.672 209.944,83.512 C209.730667,83.352 209.624,83.096 209.624,82.744 C209.624,82.552 209.672,82.3706667 209.768,82.2 C209.864,82.0293333 210.024,81.8773333 210.248,81.744 C210.472,81.6106667 210.765333,81.4906667 211.128,81.384 C211.490667,81.2773333 211.938667,81.192 212.472,81.128 L212.472,81.128 L212.472,82.888 C212.173333,83.1653333 211.893333,83.3786667 211.632,83.528 C211.370667,83.6773333 211.08,83.752 210.76,83.752 Z M217.448,75.768 C217.778667,75.768 218.050667,75.672 218.264,75.48 C218.477333,75.288 218.584,75.0373333 218.584,74.728 C218.584,74.4186667 218.477333,74.1653333 218.264,73.968 C218.050667,73.7706667 217.778667,73.672 217.448,73.672 C217.117333,73.672 216.845333,73.7706667 216.632,73.968 C216.418667,74.1653333 216.312,74.4186667 216.312,74.728 C216.312,75.0373333 216.418667,75.288 216.632,75.48 C216.845333,75.672 217.117333,75.768 217.448,75.768 Z M218.36,85 L218.36,77.144 L216.52,77.144 L216.52,85 L218.36,85 Z M222.504,85.192 C222.909333,85.192 223.234667,85.1386667 223.48,85.032 L223.48,85.032 L223.24,83.656 C223.165333,83.6773333 223.109333,83.688 223.072,83.688 L223.072,83.688 L222.952,83.688 C222.856,83.688 222.765333,83.6426667 222.68,83.552 C222.594667,83.4613333 222.552,83.304 222.552,83.08 L222.552,83.08 L222.552,73.704 L220.712,73.704 L220.712,82.984 C220.712,83.6666667 220.845333,84.2053333 221.112,84.6 C221.378667,84.9946667 221.842667,85.192 222.504,85.192 Z" id="Email" fill="#000000" fill-rule="nonzero"></path>
        <path d="M105.504,154.192 C106.176,154.192 106.786667,154.061333 107.336,153.8 C107.885333,153.538667 108.373333,153.162667 108.8,152.672 L108.8,152.672 L107.808,151.504 C107.509333,151.824 107.178667,152.082667 106.816,152.28 C106.453333,152.477333 106.037333,152.576 105.568,152.576 C104.682667,152.576 103.981333,152.237333 103.464,151.56 C102.946667,150.882667 102.688,149.946667 102.688,148.752 C102.688,148.165333 102.76,147.637333 102.904,147.168 C103.048,146.698667 103.250667,146.301333 103.512,145.976 C103.773333,145.650667 104.082667,145.4 104.44,145.224 C104.797333,145.048 105.189333,144.96 105.616,144.96 C106.021333,144.96 106.384,145.042667 106.704,145.208 C107.024,145.373333 107.322667,145.594667 107.6,145.872 L107.6,145.872 L108.592,144.672 C108.261333,144.32 107.84,144.010667 107.328,143.744 C106.816,143.477333 106.229333,143.344 105.568,143.344 C104.906667,143.344 104.285333,143.466667 103.704,143.712 C103.122667,143.957333 102.616,144.314667 102.184,144.784 C101.752,145.253333 101.410667,145.826667 101.16,146.504 C100.909333,147.181333 100.784,147.946667 100.784,148.8 C100.784,149.664 100.906667,150.432 101.152,151.104 C101.397333,151.776 101.730667,152.341333 102.152,152.8 C102.573333,153.258667 103.072,153.605333 103.648,153.84 C104.224,154.074667 104.842667,154.192 105.504,154.192 Z M112.56,154.192 C113.104,154.192 113.576,154.069333 113.976,153.824 C114.376,153.578667 114.746667,153.253333 115.088,152.848 L115.088,152.848 L115.136,152.848 L115.28,154 L116.784,154 L116.784,146.144 L114.944,146.144 L114.944,151.52 C114.645333,151.904 114.365333,152.181333 114.104,152.352 C113.842667,152.522667 113.541333,152.608 113.2,152.608 C112.773333,152.608 112.464,152.474667 112.272,152.208 C112.08,151.941333 111.984,151.482667 111.984,150.832 L111.984,150.832 L111.984,146.144 L110.144,146.144 L110.144,151.072 C110.144,152.074667 110.336,152.845333 110.72,153.384 C111.104,153.922667 111.717333,154.192 112.56,154.192 Z M120.96,154 L120.96,149.2 C121.205333,148.602667 121.498667,148.184 121.84,147.944 C122.181333,147.704 122.506667,147.584 122.816,147.584 C122.986667,147.584 123.130667,147.594667 123.248,147.616 C123.365333,147.637333 123.493333,147.669333 123.632,147.712 L123.632,147.712 L123.952,146.112 C123.728,146.005333 123.429333,145.952 123.056,145.952 C122.64,145.952 122.234667,146.088 121.84,146.36 C121.445333,146.632 121.109333,147.024 120.832,147.536 L120.832,147.536 L120.768,147.536 L120.64,146.144 L119.12,146.144 L119.12,154 L120.96,154 Z M126.928,154 L126.928,149.2 C127.173333,148.602667 127.466667,148.184 127.808,147.944 C128.149333,147.704 128.474667,147.584 128.784,147.584 C128.954667,147.584 129.098667,147.594667 129.216,147.616 C129.333333,147.637333 129.461333,147.669333 129.6,147.712 L129.6,147.712 L129.92,146.112 C129.696,146.005333 129.397333,145.952 129.024,145.952 C128.608,145.952 128.202667,146.088 127.808,146.36 C127.413333,146.632 127.077333,147.024 126.8,147.536 L126.8,147.536 L126.736,147.536 L126.608,146.144 L125.088,146.144 L125.088,154 L126.928,154 Z M134.256,154.192 C134.757333,154.192 135.237333,154.112 135.696,153.952 C136.154667,153.792 136.570667,153.589333 136.944,153.344 L136.944,153.344 L136.32,152.192 C136.032,152.373333 135.741333,152.514667 135.448,152.616 C135.154667,152.717333 134.837333,152.768 134.496,152.768 C133.856,152.768 133.330667,152.578667 132.92,152.2 C132.509333,151.821333 132.261333,151.28 132.176,150.576 L132.176,150.576 L137.168,150.576 C137.189333,150.48 137.208,150.352 137.224,150.192 C137.24,150.032 137.248,149.861333 137.248,149.68 C137.248,149.136 137.178667,148.634667 137.04,148.176 C136.901333,147.717333 136.696,147.322667 136.424,146.992 C136.152,146.661333 135.813333,146.405333 135.408,146.224 C135.002667,146.042667 134.533333,145.952 134,145.952 C133.541333,145.952 133.093333,146.048 132.656,146.24 C132.218667,146.432 131.832,146.704 131.496,147.056 C131.16,147.408 130.890667,147.84 130.688,148.352 C130.485333,148.864 130.384,149.44 130.384,150.08 C130.384,150.730667 130.482667,151.309333 130.68,151.816 C130.877333,152.322667 131.152,152.752 131.504,153.104 C131.856,153.456 132.266667,153.725333 132.736,153.912 C133.205333,154.098667 133.712,154.192 134.256,154.192 Z M135.648,149.328 L132.16,149.328 C132.245333,148.688 132.464,148.202667 132.816,147.872 C133.168,147.541333 133.578667,147.376 134.048,147.376 C134.592,147.376 134.994667,147.549333 135.256,147.896 C135.517333,148.242667 135.648,148.72 135.648,149.328 L135.648,149.328 Z M140.848,154 L140.848,148.512 C141.178667,148.192 141.474667,147.949333 141.736,147.784 C141.997333,147.618667 142.298667,147.536 142.64,147.536 C143.077333,147.536 143.392,147.669333 143.584,147.936 C143.776,148.202667 143.872,148.661333 143.872,149.312 L143.872,149.312 L143.872,154 L145.712,154 L145.712,149.072 C145.712,148.069333 145.52,147.298667 145.136,146.76 C144.752,146.221333 144.138667,145.952 143.296,145.952 C142.752,145.952 142.274667,146.074667 141.864,146.32 C141.453333,146.565333 141.072,146.858667 140.72,147.2 L140.72,147.2 L140.656,147.2 L140.528,146.144 L139.008,146.144 L139.008,154 L140.848,154 Z M150.736,154.192 C151.045333,154.192 151.336,154.162667 151.608,154.104 C151.88,154.045333 152.122667,153.978667 152.336,153.904 L152.336,153.904 L152.016,152.544 C151.898667,152.597333 151.768,152.64 151.624,152.672 C151.48,152.704 151.338667,152.72 151.2,152.72 C150.464,152.72 150.096,152.261333 150.096,151.344 L150.096,151.344 L150.096,147.6 L152.096,147.6 L152.096,146.144 L150.096,146.144 L150.096,144 L148.56,144 L148.336,146.144 L147.12,146.224 L147.12,147.6 L148.24,147.6 L148.24,151.344 C148.24,151.770667 148.285333,152.157333 148.376,152.504 C148.466667,152.850667 148.610667,153.149333 148.808,153.4 C149.005333,153.650667 149.261333,153.845333 149.576,153.984 C149.890667,154.122667 150.277333,154.192 150.736,154.192 Z M158.784,157.104 L158.784,154.64 L158.736,153.328 C159.056,153.605333 159.386667,153.818667 159.728,153.968 C160.069333,154.117333 160.410667,154.192 160.752,154.192 C161.189333,154.192 161.610667,154.096 162.016,153.904 C162.421333,153.712 162.778667,153.437333 163.088,153.08 C163.397333,152.722667 163.645333,152.28 163.832,151.752 C164.018667,151.224 164.112,150.624 164.112,149.952 C164.112,149.344 164.042667,148.794667 163.904,148.304 C163.765333,147.813333 163.562667,147.392 163.296,147.04 C163.029333,146.688 162.706667,146.418667 162.328,146.232 C161.949333,146.045333 161.514667,145.952 161.024,145.952 C160.586667,145.952 160.165333,146.053333 159.76,146.256 C159.354667,146.458667 158.986667,146.698667 158.656,146.976 L158.656,146.976 L158.592,146.976 L158.464,146.144 L156.944,146.144 L156.944,157.104 L158.784,157.104 Z M160.368,152.672 C160.133333,152.672 159.882667,152.624 159.616,152.528 C159.349333,152.432 159.072,152.261333 158.784,152.016 L158.784,152.016 L158.784,148.352 C159.381333,147.765333 159.957333,147.472 160.512,147.472 C161.109333,147.472 161.541333,147.690667 161.808,148.128 C162.074667,148.565333 162.208,149.178667 162.208,149.968 C162.208,150.864 162.032,151.538667 161.68,151.992 C161.328,152.445333 160.890667,152.672 160.368,152.672 Z M167.68,154.192 C168.149333,154.192 168.584,154.090667 168.984,153.888 C169.384,153.685333 169.76,153.434667 170.112,153.136 L170.112,153.136 L170.176,153.136 L170.304,154 L171.824,154 L171.824,149.344 C171.824,148.245333 171.581333,147.405333 171.096,146.824 C170.610667,146.242667 169.877333,145.952 168.896,145.952 C168.266667,145.952 167.68,146.053333 167.136,146.256 C166.592,146.458667 166.101333,146.698667 165.664,146.976 L165.664,146.976 L166.336,148.208 C166.688,147.994667 167.048,147.813333 167.416,147.664 C167.784,147.514667 168.16,147.44 168.544,147.44 C168.810667,147.44 169.034667,147.48 169.216,147.56 C169.397333,147.64 169.544,147.752 169.656,147.896 C169.768,148.04 169.848,148.205333 169.896,148.392 C169.944,148.578667 169.973333,148.773333 169.984,148.976 C169.173333,149.061333 168.477333,149.184 167.896,149.344 C167.314667,149.504 166.834667,149.701333 166.456,149.936 C166.077333,150.170667 165.8,150.450667 165.624,150.776 C165.448,151.101333 165.36,151.472 165.36,151.888 C165.36,152.581333 165.573333,153.138667 166,153.56 C166.426667,153.981333 166.986667,154.192 167.68,154.192 Z M168.272,152.752 C167.941333,152.752 167.669333,152.672 167.456,152.512 C167.242667,152.352 167.136,152.096 167.136,151.744 C167.136,151.552 167.184,151.370667 167.28,151.2 C167.376,151.029333 167.536,150.877333 167.76,150.744 C167.984,150.610667 168.277333,150.490667 168.64,150.384 C169.002667,150.277333 169.450667,150.192 169.984,150.128 L169.984,150.128 L169.984,151.888 C169.685333,152.165333 169.405333,152.378667 169.144,152.528 C168.882667,152.677333 168.592,152.752 168.272,152.752 Z M176.224,154.192 C176.714667,154.192 177.152,154.128 177.536,154 C177.92,153.872 178.24,153.698667 178.496,153.48 C178.752,153.261333 178.946667,153.005333 179.08,152.712 C179.213333,152.418667 179.28,152.101333 179.28,151.76 C179.28,151.397333 179.213333,151.085333 179.08,150.824 C178.946667,150.562667 178.770667,150.341333 178.552,150.16 C178.333333,149.978667 178.090667,149.826667 177.824,149.704 C177.557333,149.581333 177.290667,149.472 177.024,149.376 C176.810667,149.301333 176.605333,149.226667 176.408,149.152 C176.210667,149.077333 176.037333,148.997333 175.888,148.912 C175.738667,148.826667 175.618667,148.728 175.528,148.616 C175.437333,148.504 175.392,148.368 175.392,148.208 C175.392,147.962667 175.485333,147.757333 175.672,147.592 C175.858667,147.426667 176.149333,147.344 176.544,147.344 C176.853333,147.344 177.149333,147.405333 177.432,147.528 C177.714667,147.650667 177.994667,147.813333 178.272,148.016 L178.272,148.016 L179.12,146.896 C178.8,146.650667 178.421333,146.432 177.984,146.24 C177.546667,146.048 177.056,145.952 176.512,145.952 C175.626667,145.952 174.928,146.170667 174.416,146.608 C173.904,147.045333 173.648,147.610667 173.648,148.304 C173.648,148.634667 173.714667,148.92 173.848,149.16 C173.981333,149.4 174.152,149.610667 174.36,149.792 C174.568,149.973333 174.805333,150.128 175.072,150.256 C175.338667,150.384 175.6,150.496 175.856,150.592 C176.058667,150.677333 176.261333,150.76 176.464,150.84 C176.666667,150.92 176.848,151.008 177.008,151.104 C177.168,151.2 177.296,151.309333 177.392,151.432 C177.488,151.554667 177.536,151.696 177.536,151.856 C177.536,152.133333 177.434667,152.36 177.232,152.536 C177.029333,152.712 176.714667,152.8 176.288,152.8 C175.882667,152.8 175.506667,152.722667 175.16,152.568 C174.813333,152.413333 174.464,152.197333 174.112,151.92 L174.112,151.92 L173.248,153.104 C173.632,153.413333 174.088,153.672 174.616,153.88 C175.144,154.088 175.68,154.192 176.224,154.192 Z M183.12,154.192 C183.610667,154.192 184.048,154.128 184.432,154 C184.816,153.872 185.136,153.698667 185.392,153.48 C185.648,153.261333 185.842667,153.005333 185.976,152.712 C186.109333,152.418667 186.176,152.101333 186.176,151.76 C186.176,151.397333 186.109333,151.085333 185.976,150.824 C185.842667,150.562667 185.666667,150.341333 185.448,150.16 C185.229333,149.978667 184.986667,149.826667 184.72,149.704 C184.453333,149.581333 184.186667,149.472 183.92,149.376 C183.706667,149.301333 183.501333,149.226667 183.304,149.152 C183.106667,149.077333 182.933333,148.997333 182.784,148.912 C182.634667,148.826667 182.514667,148.728 182.424,148.616 C182.333333,148.504 182.288,148.368 182.288,148.208 C182.288,147.962667 182.381333,147.757333 182.568,147.592 C182.754667,147.426667 183.045333,147.344 183.44,147.344 C183.749333,147.344 184.045333,147.405333 184.328,147.528 C184.610667,147.650667 184.890667,147.813333 185.168,148.016 L185.168,148.016 L186.016,146.896 C185.696,146.650667 185.317333,146.432 184.88,146.24 C184.442667,146.048 183.952,145.952 183.408,145.952 C182.522667,145.952 181.824,146.170667 181.312,146.608 C180.8,147.045333 180.544,147.610667 180.544,148.304 C180.544,148.634667 180.610667,148.92 180.744,149.16 C180.877333,149.4 181.048,149.610667 181.256,149.792 C181.464,149.973333 181.701333,150.128 181.968,150.256 C182.234667,150.384 182.496,150.496 182.752,150.592 C182.954667,150.677333 183.157333,150.76 183.36,150.84 C183.562667,150.92 183.744,151.008 183.904,151.104 C184.064,151.2 184.192,151.309333 184.288,151.432 C184.384,151.554667 184.432,151.696 184.432,151.856 C184.432,152.133333 184.330667,152.36 184.128,152.536 C183.925333,152.712 183.610667,152.8 183.184,152.8 C182.778667,152.8 182.402667,152.722667 182.056,152.568 C181.709333,152.413333 181.36,152.197333 181.008,151.92 L181.008,151.92 L180.144,153.104 C180.528,153.413333 180.984,153.672 181.512,153.88 C182.04,154.088 182.576,154.192 183.12,154.192 Z M191.232,154 L192.128,150.352 C192.213333,149.978667 192.293333,149.605333 192.368,149.232 C192.442667,148.858667 192.517333,148.464 192.592,148.048 L192.592,148.048 L192.656,148.048 C192.741333,148.464 192.821333,148.856 192.896,149.224 C192.970667,149.592 193.050667,149.962667 193.136,150.336 L193.136,150.336 L194.048,154 L196.24,154 L198.24,146.144 L196.512,146.144 L195.568,150.224 C195.493333,150.597333 195.424,150.970667 195.36,151.344 C195.296,151.717333 195.226667,152.096 195.152,152.48 L195.152,152.48 L195.088,152.48 C195.002667,152.096 194.917333,151.717333 194.832,151.344 C194.746667,150.970667 194.656,150.597333 194.56,150.224 L194.56,150.224 L193.52,146.144 L191.84,146.144 L190.816,150.224 C190.72,150.597333 190.632,150.970667 190.552,151.344 C190.472,151.717333 190.394667,152.096 190.32,152.48 L190.32,152.48 L190.256,152.48 C190.181333,152.096 190.114667,151.717333 190.056,151.344 C189.997333,150.970667 189.925333,150.597333 189.84,150.224 L189.84,150.224 L188.896,146.144 L187.04,146.144 L189.12,154 L191.232,154 Z M202.912,154.192 C203.402667,154.192 203.874667,154.101333 204.328,153.92 C204.781333,153.738667 205.178667,153.472 205.52,153.12 C205.861333,152.768 206.136,152.336 206.344,151.824 C206.552,151.312 206.656,150.730667 206.656,150.08 C206.656,149.429333 206.552,148.848 206.344,148.336 C206.136,147.824 205.861333,147.392 205.52,147.04 C205.178667,146.688 204.781333,146.418667 204.328,146.232 C203.874667,146.045333 203.402667,145.952 202.912,145.952 C202.421333,145.952 201.952,146.045333 201.504,146.232 C201.056,146.418667 200.658667,146.688 200.312,147.04 C199.965333,147.392 199.690667,147.824 199.488,148.336 C199.285333,148.848 199.184,149.429333 199.184,150.08 C199.184,150.730667 199.285333,151.312 199.488,151.824 C199.690667,152.336 199.965333,152.768 200.312,153.12 C200.658667,153.472 201.056,153.738667 201.504,153.92 C201.952,154.101333 202.421333,154.192 202.912,154.192 Z M202.912,152.688 C202.336,152.688 201.885333,152.450667 201.56,151.976 C201.234667,151.501333 201.072,150.869333 201.072,150.08 C201.072,149.28 201.234667,148.642667 201.56,148.168 C201.885333,147.693333 202.336,147.456 202.912,147.456 C203.488,147.456 203.941333,147.693333 204.272,148.168 C204.602667,148.642667 204.768,149.28 204.768,150.08 C204.768,150.869333 204.602667,151.501333 204.272,151.976 C203.941333,152.450667 203.488,152.688 202.912,152.688 Z M210.32,154 L210.32,149.2 C210.565333,148.602667 210.858667,148.184 211.2,147.944 C211.541333,147.704 211.866667,147.584 212.176,147.584 C212.346667,147.584 212.490667,147.594667 212.608,147.616 C212.725333,147.637333 212.853333,147.669333 212.992,147.712 L212.992,147.712 L213.312,146.112 C213.088,146.005333 212.789333,145.952 212.416,145.952 C212,145.952 211.594667,146.088 211.2,146.36 C210.805333,146.632 210.469333,147.024 210.192,147.536 L210.192,147.536 L210.128,147.536 L210,146.144 L208.48,146.144 L208.48,154 L210.32,154 Z M217.04,154.192 C217.466667,154.192 217.872,154.090667 218.256,153.888 C218.64,153.685333 218.976,153.44 219.264,153.152 L219.264,153.152 L219.328,153.152 L219.456,154 L220.976,154 L220.976,142.704 L219.136,142.704 L219.136,145.552 L219.2,146.816 C218.890667,146.549333 218.581333,146.338667 218.272,146.184 C217.962667,146.029333 217.584,145.952 217.136,145.952 C216.709333,145.952 216.296,146.048 215.896,146.24 C215.496,146.432 215.141333,146.704 214.832,147.056 C214.522667,147.408 214.274667,147.84 214.088,148.352 C213.901333,148.864 213.808,149.44 213.808,150.08 C213.808,151.381333 214.098667,152.392 214.68,153.112 C215.261333,153.832 216.048,154.192 217.04,154.192 Z M217.488,152.672 C216.912,152.672 216.472,152.450667 216.168,152.008 C215.864,151.565333 215.712,150.917333 215.712,150.064 C215.712,149.232 215.888,148.592 216.24,148.144 C216.592,147.696 217.024,147.472 217.536,147.472 C217.802667,147.472 218.066667,147.52 218.328,147.616 C218.589333,147.712 218.858667,147.882667 219.136,148.128 L219.136,148.128 L219.136,151.792 C218.624,152.378667 218.074667,152.672 217.488,152.672 Z" id="Currentpassword" fill="#000000" fill-rule="nonzero"></path>
        <rect id="Rectangle" stroke="#6E7272" x="235.5" y="199.5" width="217" height="39" rx="3"></rect>
        <path d="M125.104,225 L125.104,220.424 C125.104,219.837333 125.074667,219.24 125.016,218.632 C124.957333,218.024 124.906667,217.442667 124.864,216.888 L124.864,216.888 L124.928,216.888 L126,219.112 L129.264,225 L131.168,225 L131.168,214.536 L129.392,214.536 L129.392,219.08 C129.392,219.666667 129.421333,220.272 129.48,220.896 C129.538667,221.52 129.589333,222.104 129.632,222.648 L129.632,222.648 L129.568,222.648 L128.496,220.424 L125.232,214.536 L123.328,214.536 L123.328,225 L125.104,225 Z M137.024,225.192 C137.525333,225.192 138.005333,225.112 138.464,224.952 C138.922667,224.792 139.338667,224.589333 139.712,224.344 L139.712,224.344 L139.088,223.192 C138.8,223.373333 138.509333,223.514667 138.216,223.616 C137.922667,223.717333 137.605333,223.768 137.264,223.768 C136.624,223.768 136.098667,223.578667 135.688,223.2 C135.277333,222.821333 135.029333,222.28 134.944,221.576 L134.944,221.576 L139.936,221.576 C139.957333,221.48 139.976,221.352 139.992,221.192 C140.008,221.032 140.016,220.861333 140.016,220.68 C140.016,220.136 139.946667,219.634667 139.808,219.176 C139.669333,218.717333 139.464,218.322667 139.192,217.992 C138.92,217.661333 138.581333,217.405333 138.176,217.224 C137.770667,217.042667 137.301333,216.952 136.768,216.952 C136.309333,216.952 135.861333,217.048 135.424,217.24 C134.986667,217.432 134.6,217.704 134.264,218.056 C133.928,218.408 133.658667,218.84 133.456,219.352 C133.253333,219.864 133.152,220.44 133.152,221.08 C133.152,221.730667 133.250667,222.309333 133.448,222.816 C133.645333,223.322667 133.92,223.752 134.272,224.104 C134.624,224.456 135.034667,224.725333 135.504,224.912 C135.973333,225.098667 136.48,225.192 137.024,225.192 Z M138.416,220.328 L134.928,220.328 C135.013333,219.688 135.232,219.202667 135.584,218.872 C135.936,218.541333 136.346667,218.376 136.816,218.376 C137.36,218.376 137.762667,218.549333 138.024,218.896 C138.285333,219.242667 138.416,219.72 138.416,220.328 L138.416,220.328 Z M145.184,225 L146.08,221.352 C146.165333,220.978667 146.245333,220.605333 146.32,220.232 C146.394667,219.858667 146.469333,219.464 146.544,219.048 L146.544,219.048 L146.608,219.048 C146.693333,219.464 146.773333,219.856 146.848,220.224 C146.922667,220.592 147.002667,220.962667 147.088,221.336 L147.088,221.336 L148,225 L150.192,225 L152.192,217.144 L150.464,217.144 L149.52,221.224 C149.445333,221.597333 149.376,221.970667 149.312,222.344 C149.248,222.717333 149.178667,223.096 149.104,223.48 L149.104,223.48 L149.04,223.48 C148.954667,223.096 148.869333,222.717333 148.784,222.344 C148.698667,221.970667 148.608,221.597333 148.512,221.224 L148.512,221.224 L147.472,217.144 L145.792,217.144 L144.768,221.224 C144.672,221.597333 144.584,221.970667 144.504,222.344 C144.424,222.717333 144.346667,223.096 144.272,223.48 L144.272,223.48 L144.208,223.48 C144.133333,223.096 144.066667,222.717333 144.008,222.344 C143.949333,221.970667 143.877333,221.597333 143.792,221.224 L143.792,221.224 L142.848,217.144 L140.992,217.144 L143.072,225 L145.184,225 Z M158.784,228.104 L158.784,225.64 L158.736,224.328 C159.056,224.605333 159.386667,224.818667 159.728,224.968 C160.069333,225.117333 160.410667,225.192 160.752,225.192 C161.189333,225.192 161.610667,225.096 162.016,224.904 C162.421333,224.712 162.778667,224.437333 163.088,224.08 C163.397333,223.722667 163.645333,223.28 163.832,222.752 C164.018667,222.224 164.112,221.624 164.112,220.952 C164.112,220.344 164.042667,219.794667 163.904,219.304 C163.765333,218.813333 163.562667,218.392 163.296,218.04 C163.029333,217.688 162.706667,217.418667 162.328,217.232 C161.949333,217.045333 161.514667,216.952 161.024,216.952 C160.586667,216.952 160.165333,217.053333 159.76,217.256 C159.354667,217.458667 158.986667,217.698667 158.656,217.976 L158.656,217.976 L158.592,217.976 L158.464,217.144 L156.944,217.144 L156.944,228.104 L158.784,228.104 Z M160.368,223.672 C160.133333,223.672 159.882667,223.624 159.616,223.528 C159.349333,223.432 159.072,223.261333 158.784,223.016 L158.784,223.016 L158.784,219.352 C159.381333,218.765333 159.957333,218.472 160.512,218.472 C161.109333,218.472 161.541333,218.690667 161.808,219.128 C162.074667,219.565333 162.208,220.178667 162.208,220.968 C162.208,221.864 162.032,222.538667 161.68,222.992 C161.328,223.445333 160.890667,223.672 160.368,223.672 Z M167.68,225.192 C168.149333,225.192 168.584,225.090667 168.984,224.888 C169.384,224.685333 169.76,224.434667 170.112,224.136 L170.112,224.136 L170.176,224.136 L170.304,225 L171.824,225 L171.824,220.344 C171.824,219.245333 171.581333,218.405333 171.096,217.824 C170.610667,217.242667 169.877333,216.952 168.896,216.952 C168.266667,216.952 167.68,217.053333 167.136,217.256 C166.592,217.458667 166.101333,217.698667 165.664,217.976 L165.664,217.976 L166.336,219.208 C166.688,218.994667 167.048,218.813333 167.416,218.664 C167.784,218.514667 168.16,218.44 168.544,218.44 C168.810667,218.44 169.034667,218.48 169.216,218.56 C169.397333,218.64 169.544,218.752 169.656,218.896 C169.768,219.04 169.848,219.205333 169.896,219.392 C169.944,219.578667 169.973333,219.773333 169.984,219.976 C169.173333,220.061333 168.477333,220.184 167.896,220.344 C167.314667,220.504 166.834667,220.701333 166.456,220.936 C166.077333,221.170667 165.8,221.450667 165.624,221.776 C165.448,222.101333 165.36,222.472 165.36,222.888 C165.36,223.581333 165.573333,224.138667 166,224.56 C166.426667,224.981333 166.986667,225.192 167.68,225.192 Z M168.272,223.752 C167.941333,223.752 167.669333,223.672 167.456,223.512 C167.242667,223.352 167.136,223.096 167.136,222.744 C167.136,222.552 167.184,222.370667 167.28,222.2 C167.376,222.029333 167.536,221.877333 167.76,221.744 C167.984,221.610667 168.277333,221.490667 168.64,221.384 C169.002667,221.277333 169.450667,221.192 169.984,221.128 L169.984,221.128 L169.984,222.888 C169.685333,223.165333 169.405333,223.378667 169.144,223.528 C168.882667,223.677333 168.592,223.752 168.272,223.752 Z M176.224,225.192 C176.714667,225.192 177.152,225.128 177.536,225 C177.92,224.872 178.24,224.698667 178.496,224.48 C178.752,224.261333 178.946667,224.005333 179.08,223.712 C179.213333,223.418667 179.28,223.101333 179.28,222.76 C179.28,222.397333 179.213333,222.085333 179.08,221.824 C178.946667,221.562667 178.770667,221.341333 178.552,221.16 C178.333333,220.978667 178.090667,220.826667 177.824,220.704 C177.557333,220.581333 177.290667,220.472 177.024,220.376 C176.810667,220.301333 176.605333,220.226667 176.408,220.152 C176.210667,220.077333 176.037333,219.997333 175.888,219.912 C175.738667,219.826667 175.618667,219.728 175.528,219.616 C175.437333,219.504 175.392,219.368 175.392,219.208 C175.392,218.962667 175.485333,218.757333 175.672,218.592 C175.858667,218.426667 176.149333,218.344 176.544,218.344 C176.853333,218.344 177.149333,218.405333 177.432,218.528 C177.714667,218.650667 177.994667,218.813333 178.272,219.016 L178.272,219.016 L179.12,217.896 C178.8,217.650667 178.421333,217.432 177.984,217.24 C177.546667,217.048 177.056,216.952 176.512,216.952 C175.626667,216.952 174.928,217.170667 174.416,217.608 C173.904,218.045333 173.648,218.610667 173.648,219.304 C173.648,219.634667 173.714667,219.92 173.848,220.16 C173.981333,220.4 174.152,220.610667 174.36,220.792 C174.568,220.973333 174.805333,221.128 175.072,221.256 C175.338667,221.384 175.6,221.496 175.856,221.592 C176.058667,221.677333 176.261333,221.76 176.464,221.84 C176.666667,221.92 176.848,222.008 177.008,222.104 C177.168,222.2 177.296,222.309333 177.392,222.432 C177.488,222.554667 177.536,222.696 177.536,222.856 C177.536,223.133333 177.434667,223.36 177.232,223.536 C177.029333,223.712 176.714667,223.8 176.288,223.8 C175.882667,223.8 175.506667,223.722667 175.16,223.568 C174.813333,223.413333 174.464,223.197333 174.112,222.92 L174.112,222.92 L173.248,224.104 C173.632,224.413333 174.088,224.672 174.616,224.88 C175.144,225.088 175.68,225.192 176.224,225.192 Z M183.12,225.192 C183.610667,225.192 184.048,225.128 184.432,225 C184.816,224.872 185.136,224.698667 185.392,224.48 C185.648,224.261333 185.842667,224.005333 185.976,223.712 C186.109333,223.418667 186.176,223.101333 186.176,222.76 C186.176,222.397333 186.109333,222.085333 185.976,221.824 C185.842667,221.562667 185.666667,221.341333 185.448,221.16 C185.229333,220.978667 184.986667,220.826667 184.72,220.704 C184.453333,220.581333 184.186667,220.472 183.92,220.376 C183.706667,220.301333 183.501333,220.226667 183.304,220.152 C183.106667,220.077333 182.933333,219.997333 182.784,219.912 C182.634667,219.826667 182.514667,219.728 182.424,219.616 C182.333333,219.504 182.288,219.368 182.288,219.208 C182.288,218.962667 182.381333,218.757333 182.568,218.592 C182.754667,218.426667 183.045333,218.344 183.44,218.344 C183.749333,218.344 184.045333,218.405333 184.328,218.528 C184.610667,218.650667 184.890667,218.813333 185.168,219.016 L185.168,219.016 L186.016,217.896 C185.696,217.650667 185.317333,217.432 184.88,217.24 C184.442667,217.048 183.952,216.952 183.408,216.952 C182.522667,216.952 181.824,217.170667 181.312,217.608 C180.8,218.045333 180.544,218.610667 180.544,219.304 C180.544,219.634667 180.610667,219.92 180.744,220.16 C180.877333,220.4 181.048,220.610667 181.256,220.792 C181.464,220.973333 181.701333,221.128 181.968,221.256 C182.234667,221.384 182.496,221.496 182.752,221.592 C182.954667,221.677333 183.157333,221.76 183.36,221.84 C183.562667,221.92 183.744,222.008 183.904,222.104 C184.064,222.2 184.192,222.309333 184.288,222.432 C184.384,222.554667 184.432,222.696 184.432,222.856 C184.432,223.133333 184.330667,223.36 184.128,223.536 C183.925333,223.712 183.610667,223.8 183.184,223.8 C182.778667,223.8 182.402667,223.722667 182.056,223.568 C181.709333,223.413333 181.36,223.197333 181.008,222.92 L181.008,222.92 L180.144,224.104 C180.528,224.413333 180.984,224.672 181.512,224.88 C182.04,225.088 182.576,225.192 183.12,225.192 Z M191.232,225 L192.128,221.352 C192.213333,220.978667 192.293333,220.605333 192.368,220.232 C192.442667,219.858667 192.517333,219.464 192.592,219.048 L192.592,219.048 L192.656,219.048 C192.741333,219.464 192.821333,219.856 192.896,220.224 C192.970667,220.592 193.050667,220.962667 193.136,221.336 L193.136,221.336 L194.048,225 L196.24,225 L198.24,217.144 L196.512,217.144 L195.568,221.224 C195.493333,221.597333 195.424,221.970667 195.36,222.344 C195.296,222.717333 195.226667,223.096 195.152,223.48 L195.152,223.48 L195.088,223.48 C195.002667,223.096 194.917333,222.717333 194.832,222.344 C194.746667,221.970667 194.656,221.597333 194.56,221.224 L194.56,221.224 L193.52,217.144 L191.84,217.144 L190.816,221.224 C190.72,221.597333 190.632,221.970667 190.552,222.344 C190.472,222.717333 190.394667,223.096 190.32,223.48 L190.32,223.48 L190.256,223.48 C190.181333,223.096 190.114667,222.717333 190.056,222.344 C189.997333,221.970667 189.925333,221.597333 189.84,221.224 L189.84,221.224 L188.896,217.144 L187.04,217.144 L189.12,225 L191.232,225 Z M202.912,225.192 C203.402667,225.192 203.874667,225.101333 204.328,224.92 C204.781333,224.738667 205.178667,224.472 205.52,224.12 C205.861333,223.768 206.136,223.336 206.344,222.824 C206.552,222.312 206.656,221.730667 206.656,221.08 C206.656,220.429333 206.552,219.848 206.344,219.336 C206.136,218.824 205.861333,218.392 205.52,218.04 C205.178667,217.688 204.781333,217.418667 204.328,217.232 C203.874667,217.045333 203.402667,216.952 202.912,216.952 C202.421333,216.952 201.952,217.045333 201.504,217.232 C201.056,217.418667 200.658667,217.688 200.312,218.04 C199.965333,218.392 199.690667,218.824 199.488,219.336 C199.285333,219.848 199.184,220.429333 199.184,221.08 C199.184,221.730667 199.285333,222.312 199.488,222.824 C199.690667,223.336 199.965333,223.768 200.312,224.12 C200.658667,224.472 201.056,224.738667 201.504,224.92 C201.952,225.101333 202.421333,225.192 202.912,225.192 Z M202.912,223.688 C202.336,223.688 201.885333,223.450667 201.56,222.976 C201.234667,222.501333 201.072,221.869333 201.072,221.08 C201.072,220.28 201.234667,219.642667 201.56,219.168 C201.885333,218.693333 202.336,218.456 202.912,218.456 C203.488,218.456 203.941333,218.693333 204.272,219.168 C204.602667,219.642667 204.768,220.28 204.768,221.08 C204.768,221.869333 204.602667,222.501333 204.272,222.976 C203.941333,223.450667 203.488,223.688 202.912,223.688 Z M210.32,225 L210.32,220.2 C210.565333,219.602667 210.858667,219.184 211.2,218.944 C211.541333,218.704 211.866667,218.584 212.176,218.584 C212.346667,218.584 212.490667,218.594667 212.608,218.616 C212.725333,218.637333 212.853333,218.669333 212.992,218.712 L212.992,218.712 L213.312,217.112 C213.088,217.005333 212.789333,216.952 212.416,216.952 C212,216.952 211.594667,217.088 211.2,217.36 C210.805333,217.632 210.469333,218.024 210.192,218.536 L210.192,218.536 L210.128,218.536 L210,217.144 L208.48,217.144 L208.48,225 L210.32,225 Z M217.04,225.192 C217.466667,225.192 217.872,225.090667 218.256,224.888 C218.64,224.685333 218.976,224.44 219.264,224.152 L219.264,224.152 L219.328,224.152 L219.456,225 L220.976,225 L220.976,213.704 L219.136,213.704 L219.136,216.552 L219.2,217.816 C218.890667,217.549333 218.581333,217.338667 218.272,217.184 C217.962667,217.029333 217.584,216.952 217.136,216.952 C216.709333,216.952 216.296,217.048 215.896,217.24 C215.496,217.432 215.141333,217.704 214.832,218.056 C214.522667,218.408 214.274667,218.84 214.088,219.352 C213.901333,219.864 213.808,220.44 213.808,221.08 C213.808,222.381333 214.098667,223.392 214.68,224.112 C215.261333,224.832 216.048,225.192 217.04,225.192 Z M217.488,223.672 C216.912,223.672 216.472,223.450667 216.168,223.008 C215.864,222.565333 215.712,221.917333 215.712,221.064 C215.712,220.232 215.888,219.592 216.24,219.144 C216.592,218.696 217.024,218.472 217.536,218.472 C217.802667,218.472 218.066667,218.52 218.328,218.616 C218.589333,218.712 218.858667,218.882667 219.136,219.128 L219.136,219.128 L219.136,222.792 C218.624,223.378667 218.074667,223.672 217.488,223.672 Z" id="Newpassword" fill="#000000" fill-rule="nonzero"></path>
        <rect id="Rectangle" stroke="#6E7272" x="235.5" y="269.5" width="217" height="39" rx="3"></rect>
        <path d="M70.504,293.192 C71.176,293.192 71.7866667,293.061333 72.336,292.8 C72.8853333,292.538667 73.3733333,292.162667 73.8,291.672 L73.8,291.672 L72.808,290.504 C72.5093333,290.824 72.1786667,291.082667 71.816,291.28 C71.4533333,291.477333 71.0373333,291.576 70.568,291.576 C69.6826667,291.576 68.9813333,291.237333 68.464,290.56 C67.9466667,289.882667 67.688,288.946667 67.688,287.752 C67.688,287.165333 67.76,286.637333 67.904,286.168 C68.048,285.698667 68.2506667,285.301333 68.512,284.976 C68.7733333,284.650667 69.0826667,284.4 69.44,284.224 C69.7973333,284.048 70.1893333,283.96 70.616,283.96 C71.0213333,283.96 71.384,284.042667 71.704,284.208 C72.024,284.373333 72.3226667,284.594667 72.6,284.872 L72.6,284.872 L73.592,283.672 C73.2613333,283.32 72.84,283.010667 72.328,282.744 C71.816,282.477333 71.2293333,282.344 70.568,282.344 C69.9066667,282.344 69.2853333,282.466667 68.704,282.712 C68.1226667,282.957333 67.616,283.314667 67.184,283.784 C66.752,284.253333 66.4106667,284.826667 66.16,285.504 C65.9093333,286.181333 65.784,286.946667 65.784,287.8 C65.784,288.664 65.9066667,289.432 66.152,290.104 C66.3973333,290.776 66.7306667,291.341333 67.152,291.8 C67.5733333,292.258667 68.072,292.605333 68.648,292.84 C69.224,293.074667 69.8426667,293.192 70.504,293.192 Z M78.6,293.192 C79.0906667,293.192 79.5626667,293.101333 80.016,292.92 C80.4693333,292.738667 80.8666667,292.472 81.208,292.12 C81.5493333,291.768 81.824,291.336 82.032,290.824 C82.24,290.312 82.344,289.730667 82.344,289.08 C82.344,288.429333 82.24,287.848 82.032,287.336 C81.824,286.824 81.5493333,286.392 81.208,286.04 C80.8666667,285.688 80.4693333,285.418667 80.016,285.232 C79.5626667,285.045333 79.0906667,284.952 78.6,284.952 C78.1093333,284.952 77.64,285.045333 77.192,285.232 C76.744,285.418667 76.3466667,285.688 76,286.04 C75.6533333,286.392 75.3786667,286.824 75.176,287.336 C74.9733333,287.848 74.872,288.429333 74.872,289.08 C74.872,289.730667 74.9733333,290.312 75.176,290.824 C75.3786667,291.336 75.6533333,291.768 76,292.12 C76.3466667,292.472 76.744,292.738667 77.192,292.92 C77.64,293.101333 78.1093333,293.192 78.6,293.192 Z M78.6,291.688 C78.024,291.688 77.5733333,291.450667 77.248,290.976 C76.9226667,290.501333 76.76,289.869333 76.76,289.08 C76.76,288.28 76.9226667,287.642667 77.248,287.168 C77.5733333,286.693333 78.024,286.456 78.6,286.456 C79.176,286.456 79.6293333,286.693333 79.96,287.168 C80.2906667,287.642667 80.456,288.28 80.456,289.08 C80.456,289.869333 80.2906667,290.501333 79.96,290.976 C79.6293333,291.450667 79.176,291.688 78.6,291.688 Z M86.008,293 L86.008,287.512 C86.3386667,287.192 86.6346667,286.949333 86.896,286.784 C87.1573333,286.618667 87.4586667,286.536 87.8,286.536 C88.2373333,286.536 88.552,286.669333 88.744,286.936 C88.936,287.202667 89.032,287.661333 89.032,288.312 L89.032,288.312 L89.032,293 L90.872,293 L90.872,288.072 C90.872,287.069333 90.68,286.298667 90.296,285.76 C89.912,285.221333 89.2986667,284.952 88.456,284.952 C87.912,284.952 87.4346667,285.074667 87.024,285.32 C86.6133333,285.565333 86.232,285.858667 85.88,286.2 L85.88,286.2 L85.816,286.2 L85.688,285.144 L84.168,285.144 L84.168,293 L86.008,293 Z M95.288,293 L95.288,286.6 L96.824,286.6 L96.824,285.144 L95.288,285.144 L95.288,284.296 C95.288,283.410667 95.6186667,282.968 96.28,282.968 C96.568,282.968 96.856,283.032 97.144,283.16 L97.144,283.16 L97.496,281.784 C97.3146667,281.709333 97.0986667,281.645333 96.848,281.592 C96.5973333,281.538667 96.3333333,281.512 96.056,281.512 C95.5866667,281.512 95.1893333,281.581333 94.864,281.72 C94.5386667,281.858667 94.2693333,282.053333 94.056,282.304 C93.8426667,282.554667 93.688,282.853333 93.592,283.2 C93.496,283.546667 93.448,283.922667 93.448,284.328 L93.448,284.328 L93.448,285.144 L92.392,285.224 L92.392,286.6 L93.448,286.6 L93.448,293 L95.288,293 Z M99.128,283.768 C99.4586667,283.768 99.7306667,283.672 99.944,283.48 C100.157333,283.288 100.264,283.037333 100.264,282.728 C100.264,282.418667 100.157333,282.165333 99.944,281.968 C99.7306667,281.770667 99.4586667,281.672 99.128,281.672 C98.7973333,281.672 98.5253333,281.770667 98.312,281.968 C98.0986667,282.165333 97.992,282.418667 97.992,282.728 C97.992,283.037333 98.0986667,283.288 98.312,283.48 C98.5253333,283.672 98.7973333,283.768 99.128,283.768 Z M100.04,293 L100.04,285.144 L98.2,285.144 L98.2,293 L100.04,293 Z M104.232,293 L104.232,288.2 C104.477333,287.602667 104.770667,287.184 105.112,286.944 C105.453333,286.704 105.778667,286.584 106.088,286.584 C106.258667,286.584 106.402667,286.594667 106.52,286.616 C106.637333,286.637333 106.765333,286.669333 106.904,286.712 L106.904,286.712 L107.224,285.112 C107,285.005333 106.701333,284.952 106.328,284.952 C105.912,284.952 105.506667,285.088 105.112,285.36 C104.717333,285.632 104.381333,286.024 104.104,286.536 L104.104,286.536 L104.04,286.536 L103.912,285.144 L102.392,285.144 L102.392,293 L104.232,293 Z M110.2,293 L110.2,287.512 C110.808,286.861333 111.357333,286.536 111.848,286.536 C112.264,286.536 112.570667,286.669333 112.768,286.936 C112.965333,287.202667 113.064,287.661333 113.064,288.312 L113.064,288.312 L113.064,293 L114.904,293 L114.904,287.512 C115.512,286.861333 116.061333,286.536 116.552,286.536 C116.957333,286.536 117.258667,286.669333 117.456,286.936 C117.653333,287.202667 117.752,287.661333 117.752,288.312 L117.752,288.312 L117.752,293 L119.608,293 L119.608,288.072 C119.608,287.069333 119.410667,286.298667 119.016,285.76 C118.621333,285.221333 118.008,284.952 117.176,284.952 C116.674667,284.952 116.221333,285.085333 115.816,285.352 C115.410667,285.618667 115.021333,285.954667 114.648,286.36 C114.466667,285.912 114.202667,285.565333 113.856,285.32 C113.509333,285.074667 113.048,284.952 112.472,284.952 C111.981333,284.952 111.541333,285.074667 111.152,285.32 C110.762667,285.565333 110.402667,285.864 110.072,286.216 L110.072,286.216 L110.008,286.216 L109.88,285.144 L108.36,285.144 L108.36,293 L110.2,293 Z M126.888,293 L126.888,287.512 C127.218667,287.192 127.514667,286.949333 127.776,286.784 C128.037333,286.618667 128.338667,286.536 128.68,286.536 C129.117333,286.536 129.432,286.669333 129.624,286.936 C129.816,287.202667 129.912,287.661333 129.912,288.312 L129.912,288.312 L129.912,293 L131.752,293 L131.752,288.072 C131.752,287.069333 131.56,286.298667 131.176,285.76 C130.792,285.221333 130.178667,284.952 129.336,284.952 C128.792,284.952 128.314667,285.074667 127.904,285.32 C127.493333,285.565333 127.112,285.858667 126.76,286.2 L126.76,286.2 L126.696,286.2 L126.568,285.144 L125.048,285.144 L125.048,293 L126.888,293 Z M137.368,293.192 C137.869333,293.192 138.349333,293.112 138.808,292.952 C139.266667,292.792 139.682667,292.589333 140.056,292.344 L140.056,292.344 L139.432,291.192 C139.144,291.373333 138.853333,291.514667 138.56,291.616 C138.266667,291.717333 137.949333,291.768 137.608,291.768 C136.968,291.768 136.442667,291.578667 136.032,291.2 C135.621333,290.821333 135.373333,290.28 135.288,289.576 L135.288,289.576 L140.28,289.576 C140.301333,289.48 140.32,289.352 140.336,289.192 C140.352,289.032 140.36,288.861333 140.36,288.68 C140.36,288.136 140.290667,287.634667 140.152,287.176 C140.013333,286.717333 139.808,286.322667 139.536,285.992 C139.264,285.661333 138.925333,285.405333 138.52,285.224 C138.114667,285.042667 137.645333,284.952 137.112,284.952 C136.653333,284.952 136.205333,285.048 135.768,285.24 C135.330667,285.432 134.944,285.704 134.608,286.056 C134.272,286.408 134.002667,286.84 133.8,287.352 C133.597333,287.864 133.496,288.44 133.496,289.08 C133.496,289.730667 133.594667,290.309333 133.792,290.816 C133.989333,291.322667 134.264,291.752 134.616,292.104 C134.968,292.456 135.378667,292.725333 135.848,292.912 C136.317333,293.098667 136.824,293.192 137.368,293.192 Z M138.76,288.328 L135.272,288.328 C135.357333,287.688 135.576,287.202667 135.928,286.872 C136.28,286.541333 136.690667,286.376 137.16,286.376 C137.704,286.376 138.106667,286.549333 138.368,286.896 C138.629333,287.242667 138.76,287.72 138.76,288.328 L138.76,288.328 Z M145.528,293 L146.424,289.352 C146.509333,288.978667 146.589333,288.605333 146.664,288.232 C146.738667,287.858667 146.813333,287.464 146.888,287.048 L146.888,287.048 L146.952,287.048 C147.037333,287.464 147.117333,287.856 147.192,288.224 C147.266667,288.592 147.346667,288.962667 147.432,289.336 L147.432,289.336 L148.344,293 L150.536,293 L152.536,285.144 L150.808,285.144 L149.864,289.224 C149.789333,289.597333 149.72,289.970667 149.656,290.344 C149.592,290.717333 149.522667,291.096 149.448,291.48 L149.448,291.48 L149.384,291.48 C149.298667,291.096 149.213333,290.717333 149.128,290.344 C149.042667,289.970667 148.952,289.597333 148.856,289.224 L148.856,289.224 L147.816,285.144 L146.136,285.144 L145.112,289.224 C145.016,289.597333 144.928,289.970667 144.848,290.344 C144.768,290.717333 144.690667,291.096 144.616,291.48 L144.616,291.48 L144.552,291.48 C144.477333,291.096 144.410667,290.717333 144.352,290.344 C144.293333,289.970667 144.221333,289.597333 144.136,289.224 L144.136,289.224 L143.192,285.144 L141.336,285.144 L143.416,293 L145.528,293 Z M159.128,296.104 L159.128,293.64 L159.08,292.328 C159.4,292.605333 159.730667,292.818667 160.072,292.968 C160.413333,293.117333 160.754667,293.192 161.096,293.192 C161.533333,293.192 161.954667,293.096 162.36,292.904 C162.765333,292.712 163.122667,292.437333 163.432,292.08 C163.741333,291.722667 163.989333,291.28 164.176,290.752 C164.362667,290.224 164.456,289.624 164.456,288.952 C164.456,288.344 164.386667,287.794667 164.248,287.304 C164.109333,286.813333 163.906667,286.392 163.64,286.04 C163.373333,285.688 163.050667,285.418667 162.672,285.232 C162.293333,285.045333 161.858667,284.952 161.368,284.952 C160.930667,284.952 160.509333,285.053333 160.104,285.256 C159.698667,285.458667 159.330667,285.698667 159,285.976 L159,285.976 L158.936,285.976 L158.808,285.144 L157.288,285.144 L157.288,296.104 L159.128,296.104 Z M160.712,291.672 C160.477333,291.672 160.226667,291.624 159.96,291.528 C159.693333,291.432 159.416,291.261333 159.128,291.016 L159.128,291.016 L159.128,287.352 C159.725333,286.765333 160.301333,286.472 160.856,286.472 C161.453333,286.472 161.885333,286.690667 162.152,287.128 C162.418667,287.565333 162.552,288.178667 162.552,288.968 C162.552,289.864 162.376,290.538667 162.024,290.992 C161.672,291.445333 161.234667,291.672 160.712,291.672 Z M168.024,293.192 C168.493333,293.192 168.928,293.090667 169.328,292.888 C169.728,292.685333 170.104,292.434667 170.456,292.136 L170.456,292.136 L170.52,292.136 L170.648,293 L172.168,293 L172.168,288.344 C172.168,287.245333 171.925333,286.405333 171.44,285.824 C170.954667,285.242667 170.221333,284.952 169.24,284.952 C168.610667,284.952 168.024,285.053333 167.48,285.256 C166.936,285.458667 166.445333,285.698667 166.008,285.976 L166.008,285.976 L166.68,287.208 C167.032,286.994667 167.392,286.813333 167.76,286.664 C168.128,286.514667 168.504,286.44 168.888,286.44 C169.154667,286.44 169.378667,286.48 169.56,286.56 C169.741333,286.64 169.888,286.752 170,286.896 C170.112,287.04 170.192,287.205333 170.24,287.392 C170.288,287.578667 170.317333,287.773333 170.328,287.976 C169.517333,288.061333 168.821333,288.184 168.24,288.344 C167.658667,288.504 167.178667,288.701333 166.8,288.936 C166.421333,289.170667 166.144,289.450667 165.968,289.776 C165.792,290.101333 165.704,290.472 165.704,290.888 C165.704,291.581333 165.917333,292.138667 166.344,292.56 C166.770667,292.981333 167.330667,293.192 168.024,293.192 Z M168.616,291.752 C168.285333,291.752 168.013333,291.672 167.8,291.512 C167.586667,291.352 167.48,291.096 167.48,290.744 C167.48,290.552 167.528,290.370667 167.624,290.2 C167.72,290.029333 167.88,289.877333 168.104,289.744 C168.328,289.610667 168.621333,289.490667 168.984,289.384 C169.346667,289.277333 169.794667,289.192 170.328,289.128 L170.328,289.128 L170.328,290.888 C170.029333,291.165333 169.749333,291.378667 169.488,291.528 C169.226667,291.677333 168.936,291.752 168.616,291.752 Z M176.568,293.192 C177.058667,293.192 177.496,293.128 177.88,293 C178.264,292.872 178.584,292.698667 178.84,292.48 C179.096,292.261333 179.290667,292.005333 179.424,291.712 C179.557333,291.418667 179.624,291.101333 179.624,290.76 C179.624,290.397333 179.557333,290.085333 179.424,289.824 C179.290667,289.562667 179.114667,289.341333 178.896,289.16 C178.677333,288.978667 178.434667,288.826667 178.168,288.704 C177.901333,288.581333 177.634667,288.472 177.368,288.376 C177.154667,288.301333 176.949333,288.226667 176.752,288.152 C176.554667,288.077333 176.381333,287.997333 176.232,287.912 C176.082667,287.826667 175.962667,287.728 175.872,287.616 C175.781333,287.504 175.736,287.368 175.736,287.208 C175.736,286.962667 175.829333,286.757333 176.016,286.592 C176.202667,286.426667 176.493333,286.344 176.888,286.344 C177.197333,286.344 177.493333,286.405333 177.776,286.528 C178.058667,286.650667 178.338667,286.813333 178.616,287.016 L178.616,287.016 L179.464,285.896 C179.144,285.650667 178.765333,285.432 178.328,285.24 C177.890667,285.048 177.4,284.952 176.856,284.952 C175.970667,284.952 175.272,285.170667 174.76,285.608 C174.248,286.045333 173.992,286.610667 173.992,287.304 C173.992,287.634667 174.058667,287.92 174.192,288.16 C174.325333,288.4 174.496,288.610667 174.704,288.792 C174.912,288.973333 175.149333,289.128 175.416,289.256 C175.682667,289.384 175.944,289.496 176.2,289.592 C176.402667,289.677333 176.605333,289.76 176.808,289.84 C177.010667,289.92 177.192,290.008 177.352,290.104 C177.512,290.2 177.64,290.309333 177.736,290.432 C177.832,290.554667 177.88,290.696 177.88,290.856 C177.88,291.133333 177.778667,291.36 177.576,291.536 C177.373333,291.712 177.058667,291.8 176.632,291.8 C176.226667,291.8 175.850667,291.722667 175.504,291.568 C175.157333,291.413333 174.808,291.197333 174.456,290.92 L174.456,290.92 L173.592,292.104 C173.976,292.413333 174.432,292.672 174.96,292.88 C175.488,293.088 176.024,293.192 176.568,293.192 Z M183.464,293.192 C183.954667,293.192 184.392,293.128 184.776,293 C185.16,292.872 185.48,292.698667 185.736,292.48 C185.992,292.261333 186.186667,292.005333 186.32,291.712 C186.453333,291.418667 186.52,291.101333 186.52,290.76 C186.52,290.397333 186.453333,290.085333 186.32,289.824 C186.186667,289.562667 186.010667,289.341333 185.792,289.16 C185.573333,288.978667 185.330667,288.826667 185.064,288.704 C184.797333,288.581333 184.530667,288.472 184.264,288.376 C184.050667,288.301333 183.845333,288.226667 183.648,288.152 C183.450667,288.077333 183.277333,287.997333 183.128,287.912 C182.978667,287.826667 182.858667,287.728 182.768,287.616 C182.677333,287.504 182.632,287.368 182.632,287.208 C182.632,286.962667 182.725333,286.757333 182.912,286.592 C183.098667,286.426667 183.389333,286.344 183.784,286.344 C184.093333,286.344 184.389333,286.405333 184.672,286.528 C184.954667,286.650667 185.234667,286.813333 185.512,287.016 L185.512,287.016 L186.36,285.896 C186.04,285.650667 185.661333,285.432 185.224,285.24 C184.786667,285.048 184.296,284.952 183.752,284.952 C182.866667,284.952 182.168,285.170667 181.656,285.608 C181.144,286.045333 180.888,286.610667 180.888,287.304 C180.888,287.634667 180.954667,287.92 181.088,288.16 C181.221333,288.4 181.392,288.610667 181.6,288.792 C181.808,288.973333 182.045333,289.128 182.312,289.256 C182.578667,289.384 182.84,289.496 183.096,289.592 C183.298667,289.677333 183.501333,289.76 183.704,289.84 C183.906667,289.92 184.088,290.008 184.248,290.104 C184.408,290.2 184.536,290.309333 184.632,290.432 C184.728,290.554667 184.776,290.696 184.776,290.856 C184.776,291.133333 184.674667,291.36 184.472,291.536 C184.269333,291.712 183.954667,291.8 183.528,291.8 C183.122667,291.8 182.746667,291.722667 182.4,291.568 C182.053333,291.413333 181.704,291.197333 181.352,290.92 L181.352,290.92 L180.488,292.104 C180.872,292.413333 181.328,292.672 181.856,292.88 C182.384,293.088 182.92,293.192 183.464,293.192 Z M191.576,293 L192.472,289.352 C192.557333,288.978667 192.637333,288.605333 192.712,288.232 C192.786667,287.858667 192.861333,287.464 192.936,287.048 L192.936,287.048 L193,287.048 C193.085333,287.464 193.165333,287.856 193.24,288.224 C193.314667,288.592 193.394667,288.962667 193.48,289.336 L193.48,289.336 L194.392,293 L196.584,293 L198.584,285.144 L196.856,285.144 L195.912,289.224 C195.837333,289.597333 195.768,289.970667 195.704,290.344 C195.64,290.717333 195.570667,291.096 195.496,291.48 L195.496,291.48 L195.432,291.48 C195.346667,291.096 195.261333,290.717333 195.176,290.344 C195.090667,289.970667 195,289.597333 194.904,289.224 L194.904,289.224 L193.864,285.144 L192.184,285.144 L191.16,289.224 C191.064,289.597333 190.976,289.970667 190.896,290.344 C190.816,290.717333 190.738667,291.096 190.664,291.48 L190.664,291.48 L190.6,291.48 C190.525333,291.096 190.458667,290.717333 190.4,290.344 C190.341333,289.970667 190.269333,289.597333 190.184,289.224 L190.184,289.224 L189.24,285.144 L187.384,285.144 L189.464,293 L191.576,293 Z M203.256,293.192 C203.746667,293.192 204.218667,293.101333 204.672,292.92 C205.125333,292.738667 205.522667,292.472 205.864,292.12 C206.205333,291.768 206.48,291.336 206.688,290.824 C206.896,290.312 207,289.730667 207,289.08 C207,288.429333 206.896,287.848 206.688,287.336 C206.48,286.824 206.205333,286.392 205.864,286.04 C205.522667,285.688 205.125333,285.418667 204.672,285.232 C204.218667,285.045333 203.746667,284.952 203.256,284.952 C202.765333,284.952 202.296,285.045333 201.848,285.232 C201.4,285.418667 201.002667,285.688 200.656,286.04 C200.309333,286.392 200.034667,286.824 199.832,287.336 C199.629333,287.848 199.528,288.429333 199.528,289.08 C199.528,289.730667 199.629333,290.312 199.832,290.824 C200.034667,291.336 200.309333,291.768 200.656,292.12 C201.002667,292.472 201.4,292.738667 201.848,292.92 C202.296,293.101333 202.765333,293.192 203.256,293.192 Z M203.256,291.688 C202.68,291.688 202.229333,291.450667 201.904,290.976 C201.578667,290.501333 201.416,289.869333 201.416,289.08 C201.416,288.28 201.578667,287.642667 201.904,287.168 C202.229333,286.693333 202.68,286.456 203.256,286.456 C203.832,286.456 204.285333,286.693333 204.616,287.168 C204.946667,287.642667 205.112,288.28 205.112,289.08 C205.112,289.869333 204.946667,290.501333 204.616,290.976 C204.285333,291.450667 203.832,291.688 203.256,291.688 Z M210.664,293 L210.664,288.2 C210.909333,287.602667 211.202667,287.184 211.544,286.944 C211.885333,286.704 212.210667,286.584 212.52,286.584 C212.690667,286.584 212.834667,286.594667 212.952,286.616 C213.069333,286.637333 213.197333,286.669333 213.336,286.712 L213.336,286.712 L213.656,285.112 C213.432,285.005333 213.133333,284.952 212.76,284.952 C212.344,284.952 211.938667,285.088 211.544,285.36 C211.149333,285.632 210.813333,286.024 210.536,286.536 L210.536,286.536 L210.472,286.536 L210.344,285.144 L208.824,285.144 L208.824,293 L210.664,293 Z M217.384,293.192 C217.810667,293.192 218.216,293.090667 218.6,292.888 C218.984,292.685333 219.32,292.44 219.608,292.152 L219.608,292.152 L219.672,292.152 L219.8,293 L221.32,293 L221.32,281.704 L219.48,281.704 L219.48,284.552 L219.544,285.816 C219.234667,285.549333 218.925333,285.338667 218.616,285.184 C218.306667,285.029333 217.928,284.952 217.48,284.952 C217.053333,284.952 216.64,285.048 216.24,285.24 C215.84,285.432 215.485333,285.704 215.176,286.056 C214.866667,286.408 214.618667,286.84 214.432,287.352 C214.245333,287.864 214.152,288.44 214.152,289.08 C214.152,290.381333 214.442667,291.392 215.024,292.112 C215.605333,292.832 216.392,293.192 217.384,293.192 Z M217.832,291.672 C217.256,291.672 216.816,291.450667 216.512,291.008 C216.208,290.565333 216.056,289.917333 216.056,289.064 C216.056,288.232 216.232,287.592 216.584,287.144 C216.936,286.696 217.368,286.472 217.88,286.472 C218.146667,286.472 218.410667,286.52 218.672,286.616 C218.933333,286.712 219.202667,286.882667 219.48,287.128 L219.48,287.128 L219.48,290.792 C218.968,291.378667 218.418667,291.672 217.832,291.672 Z" id="Confirmnewpassword" fill="#000000" fill-rule="nonzero"></path>
        <path id="Line" d="M173.444783,76.2067638 L175.793236,79.4447828 L174.174227,80.6190095 L102.602,132.528 L108.473474,140.623337 L82,145 L94.3827539,121.195223 L100.253,129.29 L171.825773,77.3809905 L173.444783,76.2067638 Z" fill="#5151D3" fill-rule="nonzero"></path>
        <path id="Line" d="M103.858755,222.175102 L106.824898,224.858755 L105.483072,226.341827 L64.584,271.544 L72.0003491,278.254101 L47,288 L54.2034904,262.152181 L61.618,268.861 L102.516928,223.658173 L103.858755,222.175102 Z" fill="#5151D3" fill-rule="nonzero"></path>
        <path id="Line" d="M78.4571147,147.338434 L79.3093402,149.147775 L101.582,196.435 L110.629336,192.174565 L110,219 L88.9172538,202.401271 L97.963,198.14 L75.6906598,150.852225 L74.8384344,149.042885 L78.4571147,147.338434 Z" fill="#5151D3" fill-rule="nonzero"></path>
    </g>
</svg>