<?xml version="1.0" encoding="utf-8"?>
<!-- Generator: Adobe Illustrator 24.1.2, SVG Export Plug-In . SVG Version: 6.00 Build 0)  -->
<svg version="1.1" id="Layer_1" xmlns="http://www.w3.org/2000/svg" xmlns:xlink="http://www.w3.org/1999/xlink" x="0px" y="0px"
	 viewBox="0 0 500 180" style="enable-background:new 0 0 500 180;" xml:space="preserve">
<style type="text/css">
	.st0{fill:#EE020A;}
	.st1{fill:#F5F5F5;}
	.st2{fill:#005FC6;}
	.st3{fill:#FFFFFF;}
</style>
<rect id="Rectangle" class="st0" width="6" height="180"/>
<rect id="Rectangle_1_" x="6" class="st1" width="495" height="180"/>
<path id="Path" class="st0" d="M33.5,12C25,12,18,18.9,18,27.5S24.9,43,33.5,43S49,36.1,49,27.5S42,12,33.5,12z"/>
<g id="Group" transform="translate(25.000000, 19.000000)">
	
		<rect id="Rectangle_2_" x="-1.1" y="6.7" transform="matrix(0.7071 -0.7071 0.7071 0.7071 -3.3049 8.7501)" class="st1" width="20" height="3.3"/>
	
		<rect id="Rectangle_3_" x="7.2" y="-1.7" transform="matrix(0.7071 -0.7071 0.7071 0.7071 -3.267 8.683)" class="st1" width="3.3" height="20"/>
</g>
<g>
	<g id="checked_1_" transform="translate(166.000000, 69.000000)">
		<path id="Shape_1_" class="st2" d="M177.3,1.5h-25.7c-2,0-3.7,1.7-3.7,3.7v25.7c0,2,1.6,3.7,3.7,3.7h25.7c2,0,3.7-1.6,3.7-3.7V5.2
			C180.9,3.2,179.3,1.5,177.3,1.5z"/>
	</g>
	<g id="check-icon_1_" transform="translate(171.000000, 77.000000)">
		<path id="Path_2_" class="st3" d="M157.8,19l14.6-14.4c0.5-0.5,0.5-1.3,0-1.8L170.6,1c-0.5-0.5-1.3-0.5-1.8,0l-11.9,11.8l-5.6-5.5
			c-0.5-0.5-1.3-0.5-1.8,0l-1.8,1.8c-0.5,0.5-0.5,1.3,0,1.8l8.3,8.2C156.5,19.5,157.3,19.5,157.8,19L157.8,19z"/>
	</g>
</g>
<g>
	<path d="M153.7,93.8v-13h1.6v6.5h0.1l5.4-6.5h1.9l-4.1,4.9l4.7,8h-1.8l-3.9-6.8l-2.2,2.6v4.1h-1.7V93.8z"/>
	<path d="M168.8,94c-0.6,0-1.3-0.1-1.8-0.3c-0.6-0.2-1-0.6-1.5-1s-0.7-1-1-1.6c-0.2-0.6-0.4-1.3-0.4-2.1s0.1-1.5,0.4-2.1
		c0.2-0.6,0.6-1.2,1-1.6s0.9-0.8,1.4-1s1-0.3,1.6-0.3s1.2,0.1,1.6,0.3c0.5,0.2,0.9,0.5,1.2,0.9s0.6,0.9,0.7,1.4
		c0.2,0.6,0.3,1.2,0.3,1.9c0,0.2,0,0.3,0,0.5s0,0.3,0,0.4h-6.5c0.1,1,0.4,1.8,1,2.4s1.3,0.9,2.2,0.9c0.5,0,0.9-0.1,1.3-0.2
		c0.4-0.1,0.8-0.3,1.1-0.5l0.6,1.1c-0.4,0.3-0.9,0.5-1.4,0.7S169.5,94,168.8,94z M165.8,88.2h5.1c0-1-0.2-1.7-0.6-2.2
		s-1-0.8-1.8-0.8c-0.3,0-0.7,0.1-1,0.2s-0.6,0.3-0.8,0.6c-0.3,0.3-0.5,0.6-0.6,0.9C165.9,87.3,165.8,87.8,165.8,88.2z"/>
	<path d="M178.6,94c-0.6,0-1.3-0.1-1.8-0.3c-0.6-0.2-1-0.6-1.5-1s-0.7-1-1-1.6c-0.2-0.6-0.4-1.3-0.4-2.1s0.1-1.5,0.4-2.1
		c0.2-0.6,0.6-1.2,1-1.6s0.9-0.8,1.4-1s1-0.3,1.6-0.3s1.2,0.1,1.6,0.3c0.5,0.2,0.9,0.5,1.2,0.9s0.6,0.9,0.7,1.4
		c0.2,0.6,0.3,1.2,0.3,1.9c0,0.2,0,0.3,0,0.5s0,0.3,0,0.4h-6.5c0.1,1,0.4,1.8,1,2.4s1.3,0.9,2.2,0.9c0.5,0,0.9-0.1,1.3-0.2
		c0.4-0.1,0.8-0.3,1.1-0.5l0.6,1.1c-0.4,0.3-0.9,0.5-1.4,0.7S179.3,94,178.6,94z M175.6,88.2h5.1c0-1-0.2-1.7-0.6-2.2
		s-1-0.8-1.8-0.8c-0.3,0-0.7,0.1-1,0.2s-0.6,0.3-0.8,0.6c-0.3,0.3-0.5,0.6-0.6,0.9C175.7,87.3,175.6,87.8,175.6,88.2z"/>
	<path d="M184.5,97.9V84.2h1.3l0.1,1.1h0.1c0.4-0.4,0.9-0.7,1.4-1s1.1-0.4,1.6-0.4c0.6,0,1.2,0.1,1.6,0.3c0.5,0.2,0.9,0.6,1.2,1
		s0.6,0.9,0.7,1.5c0.2,0.6,0.2,1.3,0.2,2c0,0.8-0.1,1.5-0.3,2.2c-0.2,0.6-0.5,1.2-0.9,1.6s-0.8,0.8-1.3,1s-1,0.3-1.6,0.3
		c-0.4,0-0.9-0.1-1.3-0.3c-0.4-0.2-0.9-0.5-1.3-0.8v1.7v3.2h-1.5V97.9z M188.5,92.7c0.4,0,0.8-0.1,1.1-0.3c0.3-0.2,0.6-0.4,0.9-0.8
		s0.4-0.7,0.6-1.2c0.1-0.5,0.2-1,0.2-1.6c0-0.5,0-1-0.1-1.4s-0.2-0.8-0.4-1.1c-0.2-0.3-0.5-0.6-0.8-0.7c-0.3-0.2-0.7-0.3-1.2-0.3
		c-0.4,0-0.8,0.1-1.2,0.3c-0.4,0.2-0.9,0.5-1.3,1v5c0.4,0.4,0.9,0.6,1.3,0.8C187.8,92.6,188.2,92.7,188.5,92.7z"/>
	<path d="M199.5,93.8v-9.6h1.3l0.1,1.4h0.1c0.4-0.5,0.9-0.8,1.4-1.2c0.5-0.3,1-0.5,1.6-0.5c0.7,0,1.3,0.2,1.7,0.5s0.7,0.8,0.9,1.4
		c0.5-0.6,1-1,1.5-1.3s1.1-0.5,1.7-0.5c1,0,1.7,0.3,2.2,1c0.5,0.6,0.7,1.6,0.7,2.8v6.1h-1.6V88c0-0.9-0.1-1.6-0.4-2
		c-0.3-0.4-0.7-0.6-1.3-0.6c-0.7,0-1.5,0.5-2.4,1.5v7h-1.6V88c0-0.9-0.1-1.6-0.4-2c-0.3-0.4-0.7-0.6-1.4-0.6s-1.5,0.5-2.4,1.5v7
		h-1.7V93.8z"/>
	<path d="M219.8,94c-0.6,0-1.2-0.1-1.8-0.3c-0.6-0.2-1-0.6-1.5-1c-0.4-0.4-0.7-1-1-1.6s-0.4-1.3-0.4-2.1s0.1-1.5,0.4-2.1
		s0.6-1.2,1-1.6s0.9-0.8,1.4-1s1-0.3,1.6-0.3s1.2,0.1,1.6,0.3c0.5,0.2,0.9,0.5,1.2,0.9c0.3,0.4,0.6,0.9,0.7,1.4
		c0.2,0.6,0.3,1.2,0.3,1.9c0,0.2,0,0.3,0,0.5s0,0.3,0,0.4h-6.5c0.1,1,0.4,1.8,1,2.4s1.3,0.9,2.2,0.9c0.5,0,0.9-0.1,1.3-0.2
		s0.8-0.3,1.1-0.5l0.6,1.1c-0.4,0.3-0.9,0.5-1.4,0.7C221,93.9,220.4,94,219.8,94z M216.8,88.2h5.1c0-1-0.2-1.7-0.6-2.2
		s-1-0.8-1.8-0.8c-0.3,0-0.7,0.1-1,0.2s-0.6,0.3-0.8,0.6c-0.3,0.3-0.5,0.6-0.6,0.9S216.8,87.8,216.8,88.2z"/>
	<path d="M232.2,94c-0.7,0-1.3-0.1-2-0.4c-0.6-0.2-1.2-0.6-1.6-1l0.8-1.1c0.4,0.3,0.9,0.6,1.3,0.8s1,0.3,1.5,0.3
		c0.6,0,1.1-0.1,1.4-0.4s0.5-0.6,0.5-1.1c0-0.3-0.1-0.5-0.2-0.7s-0.3-0.3-0.5-0.5c-0.2-0.1-0.4-0.3-0.7-0.4
		c-0.3-0.1-0.5-0.2-0.8-0.3c-0.3-0.1-0.7-0.3-1-0.4c-0.3-0.2-0.7-0.3-0.9-0.6c-0.3-0.2-0.5-0.5-0.7-0.8s-0.3-0.6-0.3-1
		s0.1-0.7,0.2-1.1c0.2-0.3,0.4-0.6,0.7-0.9c0.3-0.2,0.6-0.4,1-0.6s0.9-0.2,1.4-0.2c0.6,0,1.2,0.1,1.7,0.3c0.5,0.2,0.9,0.5,1.3,0.8
		l-0.8,1c-0.3-0.3-0.7-0.5-1-0.6s-0.7-0.2-1.2-0.2c-0.6,0-1.1,0.1-1.3,0.4c-0.3,0.3-0.4,0.6-0.4,1c0,0.2,0.1,0.4,0.2,0.6
		s0.3,0.3,0.5,0.4s0.4,0.2,0.7,0.3c0.3,0.1,0.5,0.2,0.8,0.3c0.3,0.1,0.7,0.3,1,0.4s0.7,0.3,0.9,0.5c0.3,0.2,0.5,0.5,0.7,0.8
		s0.3,0.7,0.3,1.1s-0.1,0.8-0.2,1.1c-0.2,0.3-0.4,0.6-0.7,0.9c-0.3,0.3-0.7,0.5-1.1,0.6S232.7,94,232.2,94z"/>
	<path d="M238.8,82.2c-0.3,0-0.6-0.1-0.8-0.3c-0.2-0.2-0.3-0.4-0.3-0.8c0-0.3,0.1-0.6,0.3-0.8c0.2-0.2,0.5-0.3,0.8-0.3
		s0.6,0.1,0.8,0.3c0.2,0.2,0.3,0.4,0.3,0.8c0,0.3-0.1,0.6-0.3,0.8S239.1,82.2,238.8,82.2z M238,93.8v-9.6h1.6v9.6H238z"/>
	<path d="M246.1,98.2c-0.6,0-1.1-0.1-1.6-0.2s-0.9-0.3-1.3-0.5s-0.6-0.5-0.8-0.8s-0.3-0.7-0.3-1.1s0.1-0.8,0.4-1.2s0.6-0.7,1-1v-0.1
		c-0.2-0.1-0.4-0.3-0.6-0.6c-0.2-0.3-0.2-0.6-0.2-1s0.1-0.8,0.3-1.1c0.2-0.3,0.5-0.5,0.7-0.7v-0.1c-0.3-0.3-0.6-0.6-0.9-1.1
		c-0.3-0.4-0.4-1-0.4-1.5s0.1-1,0.3-1.4c0.2-0.4,0.5-0.8,0.8-1.1c0.3-0.3,0.7-0.5,1.2-0.7s0.9-0.2,1.4-0.2c0.3,0,0.5,0,0.7,0.1
		c0.2,0,0.4,0.1,0.6,0.2h3.3v1.2h-2c0.2,0.2,0.4,0.5,0.6,0.9c0.2,0.3,0.2,0.7,0.2,1.1c0,0.5-0.1,1-0.3,1.4c-0.2,0.4-0.4,0.8-0.8,1
		c-0.3,0.3-0.7,0.5-1.1,0.7s-0.9,0.2-1.4,0.2c-0.2,0-0.5,0-0.7-0.1s-0.5-0.1-0.7-0.2c-0.2,0.1-0.3,0.3-0.4,0.5s-0.2,0.4-0.2,0.7
		c0,0.3,0.1,0.6,0.4,0.8c0.2,0.2,0.7,0.3,1.3,0.3h1.9c1.1,0,2,0.2,2.5,0.5c0.6,0.4,0.8,0.9,0.8,1.8c0,0.4-0.1,0.9-0.3,1.3
		c-0.2,0.4-0.5,0.8-1,1.1c-0.4,0.3-0.9,0.5-1.5,0.7C247.5,98.2,246.8,98.2,246.1,98.2z M246.3,97.1c0.5,0,0.9-0.1,1.3-0.2
		s0.7-0.3,1-0.4c0.3-0.2,0.5-0.4,0.6-0.6s0.2-0.5,0.2-0.7c0-0.4-0.2-0.8-0.5-0.9c-0.3-0.2-0.8-0.3-1.4-0.3h-1.7c-0.2,0-0.4,0-0.6,0
		s-0.4-0.1-0.6-0.1c-0.3,0.3-0.6,0.5-0.8,0.8s-0.2,0.6-0.2,0.8c0,0.5,0.2,0.9,0.7,1.2S245.4,97.1,246.3,97.1z M246.1,89.7
		c0.3,0,0.5-0.1,0.8-0.2s0.5-0.3,0.7-0.5s0.3-0.4,0.4-0.7c0.1-0.3,0.2-0.6,0.2-1c0-0.7-0.2-1.3-0.6-1.7s-0.9-0.6-1.4-0.6
		s-1,0.2-1.4,0.6s-0.6,0.9-0.6,1.7c0,0.4,0.1,0.7,0.2,1s0.3,0.5,0.4,0.7c0.2,0.2,0.4,0.4,0.7,0.5C245.5,89.6,245.8,89.7,246.1,89.7z
		"/>
	<path d="M252.8,93.8v-9.6h1.3l0.1,1.4h0.1c0.5-0.5,0.9-0.8,1.5-1.2c0.5-0.3,1.1-0.5,1.8-0.5c1,0,1.8,0.3,2.2,1
		c0.5,0.6,0.7,1.6,0.7,2.8v6.1h-1.6v-5.9c0-0.9-0.1-1.6-0.4-2s-0.8-0.6-1.4-0.6c-0.5,0-0.9,0.1-1.3,0.4s-0.8,0.6-1.3,1.1v7
		C254.5,93.8,252.8,93.8,252.8,93.8z"/>
	<path d="M267.5,94c-0.6,0-1.2-0.1-1.8-0.3c-0.6-0.2-1-0.6-1.5-1c-0.4-0.4-0.7-1-1-1.6s-0.4-1.3-0.4-2.1s0.1-1.5,0.4-2.1
		s0.6-1.2,1-1.6s0.9-0.8,1.4-1s1-0.3,1.6-0.3s1.2,0.1,1.6,0.3s0.9,0.5,1.2,0.9c0.3,0.4,0.6,0.9,0.7,1.4c0.2,0.6,0.3,1.2,0.3,1.9
		c0,0.2,0,0.3,0,0.5s0,0.3,0,0.4h-6.5c0.1,1,0.4,1.8,1,2.4s1.3,0.9,2.2,0.9c0.5,0,0.9-0.1,1.3-0.2s0.8-0.3,1.1-0.5l0.6,1.1
		c-0.4,0.3-0.9,0.5-1.4,0.7S268.2,94,267.5,94z M264.5,88.2h5.1c0-1-0.2-1.7-0.6-2.2s-1-0.8-1.8-0.8c-0.3,0-0.7,0.1-1,0.2
		s-0.6,0.3-0.8,0.6c-0.3,0.3-0.5,0.6-0.6,0.9S264.6,87.8,264.5,88.2z"/>
	<path d="M276.7,94c-1.2,0-2.2-0.4-2.9-1.3c-0.7-0.9-1.1-2.1-1.1-3.7c0-0.8,0.1-1.5,0.3-2.1c0.2-0.6,0.5-1.2,0.9-1.6s0.8-0.8,1.3-1
		s1-0.4,1.6-0.4s1,0.1,1.4,0.3s0.8,0.5,1.2,0.8l-0.1-1.6v-3.7h1.6v14.1h-1.3l-0.1-1.1h0.1c-0.4,0.4-0.8,0.7-1.3,1
		C277.8,93.9,277.3,94,276.7,94z M277.1,92.7c0.4,0,0.9-0.1,1.3-0.3s0.8-0.6,1.2-1v-5c-0.4-0.4-0.8-0.6-1.2-0.8
		c-0.4-0.2-0.8-0.2-1.2-0.2c-0.4,0-0.7,0.1-1.1,0.3c-0.3,0.2-0.6,0.4-0.9,0.8c-0.3,0.3-0.4,0.7-0.6,1.2c-0.1,0.4-0.2,1-0.2,1.5
		c0,1.2,0.2,2.1,0.7,2.7C275.6,92.4,276.2,92.7,277.1,92.7z"/>
	<path d="M289.2,82.2c-0.3,0-0.6-0.1-0.8-0.3c-0.2-0.2-0.3-0.4-0.3-0.8c0-0.3,0.1-0.6,0.3-0.8c0.2-0.2,0.5-0.3,0.8-0.3
		s0.6,0.1,0.8,0.3c0.2,0.2,0.3,0.4,0.3,0.8c0,0.3-0.1,0.6-0.3,0.8S289.5,82.2,289.2,82.2z M288.4,93.8v-9.6h1.6v9.6H288.4z"/>
	<path d="M293.3,93.8v-9.6h1.3l0.1,1.4h0.1c0.5-0.5,0.9-0.8,1.5-1.2c0.5-0.3,1.1-0.5,1.8-0.5c1,0,1.8,0.3,2.2,1
		c0.5,0.6,0.7,1.6,0.7,2.8v6.1h-1.6v-5.9c0-0.9-0.1-1.6-0.4-2s-0.8-0.6-1.4-0.6c-0.5,0-0.9,0.1-1.3,0.4s-0.8,0.6-1.3,1.1v7
		C295,93.8,293.3,93.8,293.3,93.8z"/>
</g>
</svg>
