<?xml version="1.0" encoding="UTF-8"?>
<svg viewBox="0 0 500 400" version="1.1" xmlns="http://www.w3.org/2000/svg" xmlns:xlink="http://www.w3.org/1999/xlink">
    <!-- Generator: Sketch 64 (93537) - https://sketch.com -->
    <title>Artboard</title>
    <desc>Created with Sketch.</desc>
    <g id="Artboard" stroke="none" stroke-width="1" fill="none" fill-rule="evenodd">
        <rect id="Rectangle" fill="#EE020A" fill-rule="nonzero" x="0" y="0" width="6" height="400"></rect>
        <rect id="Rectangle" fill="#F5F5F5" fill-rule="nonzero" x="6" y="0" width="495" height="400"></rect>
        <path d="M33.5,12 C25.0095541,12 18,18.9329073 18,27.5495208 C18,36.1661342 24.910828,43 33.5,43 C42.089172,43 49,36.0670927 49,27.4504792 C49,18.8338658 41.9904459,12 33.5,12 Z" id="Path" fill="#EE020A" fill-rule="nonzero"></path>
        <g id="Group" transform="translate(25.000000, 19.000000)" fill="#F5F5F5" fill-rule="nonzero">
            <rect id="Rectangle" transform="translate(8.909875, 8.364395) rotate(-45.000000) translate(-8.909875, -8.364395) " x="-1.0900291" y="6.71441082" width="19.9998082" height="3.29996835"></rect>
            <rect id="Rectangle" transform="translate(8.847765, 8.285095) rotate(-45.000000) translate(-8.847765, -8.285095) " x="7.19778082" y="-1.7148091" width="3.29996835" height="19.9998082"></rect>
        </g>
        <path d="M162.756827,95 C163.43407,95 164.049502,94.8638889 164.603121,94.5916667 C165.15674,94.3194444 165.648548,93.9277778 166.078544,93.4166667 L166.078544,93.4166667 L165.078804,92.2 C164.777807,92.5333333 164.44456,92.8027778 164.079064,93.0083333 C163.713567,93.2138889 163.294322,93.3166667 162.821326,93.3166667 C161.929085,93.3166667 161.22228,92.9638889 160.70091,92.2583333 C160.179541,91.5527778 159.918856,90.5777778 159.918856,89.3333333 C159.918856,88.7222222 159.991417,88.1722222 160.136541,87.6833333 C160.281664,87.1944444 160.485912,86.7805556 160.749285,86.4416667 C161.012657,86.1027778 161.324404,85.8416667 161.684525,85.6583333 C162.044647,85.475 162.439705,85.3833333 162.869701,85.3833333 C163.278197,85.3833333 163.643693,85.4694444 163.96619,85.6416667 C164.288687,85.8138889 164.589684,86.0444444 164.869181,86.3333333 L164.869181,86.3333333 L165.868921,85.0833333 C165.535674,84.7166667 165.111053,84.3944444 164.595059,84.1166667 C164.079064,83.8388889 163.48782,83.7 162.821326,83.7 C162.154833,83.7 161.528652,83.8277778 160.942783,84.0833333 C160.356914,84.3388889 159.846294,84.7111111 159.410923,85.2 C158.975553,85.6888889 158.631556,86.2861111 158.378934,86.9916667 C158.126311,87.6972222 158,88.4944444 158,89.3833333 C158,90.2833333 158.123624,91.0833333 158.370871,91.7833333 C158.618119,92.4833333 158.954053,93.0722222 159.378674,93.55 C159.803294,94.0277778 160.305852,94.3888889 160.886346,94.6333333 C161.46684,94.8777778 162.090334,95 162.756827,95 Z M170.915995,95 C171.41049,95 171.886173,94.9055556 172.343043,94.7166667 C172.799913,94.5277778 173.200347,94.25 173.544343,93.8833333 C173.88834,93.5166667 174.16515,93.0666667 174.374772,92.5333333 C174.584395,92 174.689207,91.3944444 174.689207,90.7166667 C174.689207,90.0388889 174.584395,89.4333333 174.374772,88.9 C174.16515,88.3666667 173.88834,87.9166667 173.544343,87.55 C173.200347,87.1833333 172.799913,86.9027778 172.343043,86.7083333 C171.886173,86.5138889 171.41049,86.4166667 170.915995,86.4166667 C170.4215,86.4166667 169.948505,86.5138889 169.497009,86.7083333 C169.045514,86.9027778 168.64508,87.1833333 168.295709,87.55 C167.946337,87.9166667 167.669528,88.3666667 167.46528,88.9 C167.261032,89.4333333 167.158908,90.0388889 167.158908,90.7166667 C167.158908,91.3944444 167.261032,92 167.46528,92.5333333 C167.669528,93.0666667 167.946337,93.5166667 168.295709,93.8833333 C168.64508,94.25 169.045514,94.5277778 169.497009,94.7166667 C169.948505,94.9055556 170.4215,95 170.915995,95 Z M170.915995,93.4333333 C170.335501,93.4333333 169.881318,93.1861111 169.553446,92.6916667 C169.225574,92.1972222 169.061638,91.5388889 169.061638,90.7166667 C169.061638,89.8833333 169.225574,89.2194444 169.553446,88.725 C169.881318,88.2305556 170.335501,87.9833333 170.915995,87.9833333 C171.496489,87.9833333 171.953359,88.2305556 172.286606,88.725 C172.619853,89.2194444 172.786476,89.8833333 172.786476,90.7166667 C172.786476,91.5388889 172.619853,92.1972222 172.286606,92.6916667 C171.953359,93.1861111 171.496489,93.4333333 170.915995,93.4333333 Z M178.381795,94.8 L178.381795,89.0833333 C178.715041,88.75 179.013351,88.4972222 179.276723,88.325 C179.540095,88.1527778 179.84378,88.0666667 180.187776,88.0666667 C180.628522,88.0666667 180.945644,88.2055556 181.139142,88.4833333 C181.33264,88.7611111 181.429389,89.2388889 181.429389,89.9166667 L181.429389,89.9166667 L181.429389,94.8 L183.283745,94.8 L183.283745,89.6666667 C183.283745,88.6222222 183.090247,87.8194444 182.703251,87.2583333 C182.316255,86.6972222 181.698136,86.4166667 180.848895,86.4166667 C180.30065,86.4166667 179.819593,86.5444444 179.405722,86.8 C178.991851,87.0555556 178.607542,87.3611111 178.252796,87.7166667 L178.252796,87.7166667 L178.188296,87.7166667 L178.059298,86.6166667 L176.527438,86.6166667 L176.527438,94.8 L178.381795,94.8 Z M188.346944,95 C188.658691,95 188.951625,94.9694444 189.225748,94.9083333 C189.49987,94.8472222 189.74443,94.7777778 189.959428,94.7 L189.959428,94.7 L189.636931,93.2833333 C189.518682,93.3388889 189.386996,93.3833333 189.241873,93.4166667 C189.096749,93.45 188.954313,93.4666667 188.814564,93.4666667 C188.072822,93.4666667 187.701951,92.9888889 187.701951,92.0333333 L187.701951,92.0333333 L187.701951,88.1333333 L189.717555,88.1333333 L189.717555,86.6166667 L187.701951,86.6166667 L187.701951,84.3833333 L186.153966,84.3833333 L185.928218,86.6166667 L184.702731,86.7 L184.702731,88.1333333 L185.831469,88.1333333 L185.831469,92.0333333 C185.831469,92.4777778 185.877156,92.8805556 185.968531,93.2416667 C186.059905,93.6027778 186.205028,93.9138889 186.403901,94.175 C186.602774,94.4361111 186.860772,94.6388889 187.177893,94.7833333 C187.495015,94.9277778 187.884699,95 188.346944,95 Z M192.313654,85.1833333 C192.646901,85.1833333 192.921023,85.0833333 193.136021,84.8833333 C193.351019,84.6833333 193.458518,84.4222222 193.458518,84.1 C193.458518,83.7777778 193.351019,83.5138889 193.136021,83.3083333 C192.921023,83.1027778 192.646901,83 192.313654,83 C191.980407,83 191.706285,83.1027778 191.491287,83.3083333 C191.27629,83.5138889 191.168791,83.7777778 191.168791,84.1 C191.168791,84.4222222 191.27629,84.6833333 191.491287,84.8833333 C191.706285,85.0833333 191.980407,85.1833333 192.313654,85.1833333 Z M193.23277,94.8 L193.23277,86.6166667 L191.378414,86.6166667 L191.378414,94.8 L193.23277,94.8 Z M197.457477,94.8 L197.457477,89.0833333 C197.790724,88.75 198.089033,88.4972222 198.352406,88.325 C198.615778,88.1527778 198.919463,88.0666667 199.263459,88.0666667 C199.704205,88.0666667 200.021326,88.2055556 200.214824,88.4833333 C200.408322,88.7611111 200.505072,89.2388889 200.505072,89.9166667 L200.505072,89.9166667 L200.505072,94.8 L202.359428,94.8 L202.359428,89.6666667 C202.359428,88.6222222 202.16593,87.8194444 201.778934,87.2583333 C201.391938,86.6972222 200.773819,86.4166667 199.924577,86.4166667 C199.376333,86.4166667 198.895275,86.5444444 198.481404,86.8 C198.067534,87.0555556 197.683225,87.3611111 197.328479,87.7166667 L197.328479,87.7166667 L197.263979,87.7166667 L197.13498,86.6166667 L195.603121,86.6166667 L195.603121,94.8 L197.457477,94.8 Z M206.987256,95 C207.535501,95 208.011183,94.8722222 208.414304,94.6166667 C208.817425,94.3611111 209.190984,94.0222222 209.53498,93.6 L209.53498,93.6 L209.583355,93.6 L209.728479,94.8 L211.244213,94.8 L211.244213,86.6166667 L209.389857,86.6166667 L209.389857,92.2166667 C209.08886,92.6166667 208.806675,92.9055556 208.543303,93.0833333 C208.279931,93.2611111 207.976246,93.35 207.63225,93.35 C207.202254,93.35 206.890507,93.2111111 206.697009,92.9333333 C206.503511,92.6555556 206.406762,92.1777778 206.406762,91.5 L206.406762,91.5 L206.406762,86.6166667 L204.552406,86.6166667 L204.552406,91.75 C204.552406,92.7944444 204.745904,93.5972222 205.1329,94.1583333 C205.519896,94.7194444 206.138015,95 206.987256,95 Z M216.984655,95 C217.4899,95 217.973645,94.9166667 218.435891,94.75 C218.898136,94.5833333 219.317382,94.3722222 219.693628,94.1166667 L219.693628,94.1166667 L219.064759,92.9166667 C218.774512,93.1055556 218.481578,93.2527778 218.185956,93.3583333 C217.890334,93.4638889 217.570524,93.5166667 217.226528,93.5166667 C216.581534,93.5166667 216.052102,93.3194444 215.638231,92.925 C215.224361,92.5305556 214.974426,91.9666667 214.888427,91.2333333 L214.888427,91.2333333 L219.919376,91.2333333 C219.940876,91.1333333 219.959688,91 219.975813,90.8333333 C219.991938,90.6666667 220,90.4888889 220,90.3 C220,89.7333333 219.930126,89.2111111 219.790377,88.7333333 C219.650629,88.2555556 219.443693,87.8444444 219.169571,87.5 C218.895449,87.1555556 218.55414,86.8888889 218.145644,86.7 C217.737148,86.5111111 217.264153,86.4166667 216.726658,86.4166667 C216.264413,86.4166667 215.812917,86.5166667 215.372172,86.7166667 C214.931426,86.9166667 214.541743,87.2 214.203121,87.5666667 C213.864499,87.9333333 213.593065,88.3833333 213.388817,88.9166667 C213.184569,89.45 213.082445,90.05 213.082445,90.7166667 C213.082445,91.3944444 213.181881,91.9972222 213.380754,92.525 C213.579627,93.0527778 213.856437,93.5 214.211183,93.8666667 C214.56593,94.2333333 214.979801,94.5138889 215.452796,94.7083333 C215.925791,94.9027778 216.436411,95 216.984655,95 Z M218.387516,89.9333333 L214.872302,89.9333333 C214.958301,89.2666667 215.178674,88.7611111 215.53342,88.4166667 C215.888166,88.0722222 216.302037,87.9 216.775033,87.9 C217.323277,87.9 217.729085,88.0805556 217.992458,88.4416667 C218.25583,88.8027778 218.387516,89.3 218.387516,89.9333333 L218.387516,89.9333333 Z" id="Continue" fill="#FFFFFF" fill-rule="nonzero"></path>
        <path d="M304.751253,95 C305.427702,95 306.042412,94.8748839 306.595383,94.6246518 C307.148354,94.3744197 307.639585,94.0143918 308.069077,93.5445682 L308.069077,93.5445682 L307.070508,92.4261838 C306.769864,92.7325905 306.437008,92.9802693 306.07194,93.1692201 C305.706872,93.3581708 305.288117,93.4526462 304.815676,93.4526462 C303.924481,93.4526462 303.218504,93.1283658 302.697745,92.479805 C302.176986,91.8312442 301.916607,90.9350046 301.916607,89.7910864 C301.916607,89.2293408 301.989084,88.7237697 302.134037,88.2743733 C302.278991,87.8249768 302.482999,87.4445218 302.746063,87.1330084 C303.009127,86.8214949 303.320508,86.5814763 303.680208,86.4129526 C304.039907,86.244429 304.434503,86.1601671 304.863994,86.1601671 C305.272011,86.1601671 305.637079,86.2393222 305.959198,86.3976323 C306.281317,86.5559424 306.581961,86.7678737 306.861131,87.0334262 L306.861131,87.0334262 L307.859699,85.8844011 C307.526843,85.5473538 307.10272,85.2511606 306.58733,84.9958217 C306.07194,84.7404828 305.481389,84.6128134 304.815676,84.6128134 C304.149964,84.6128134 303.524517,84.7302693 302.939334,84.9651811 C302.354152,85.2000929 301.84413,85.542247 301.40927,85.9916435 C300.974409,86.4410399 300.630816,86.9900186 300.37849,87.6385794 C300.126163,88.2871402 300,89.0199629 300,89.8370474 C300,90.6643454 300.123479,91.3997214 300.370437,92.0431755 C300.617394,92.6866295 300.952935,93.227948 301.377058,93.6671309 C301.801181,94.1063138 302.30315,94.4382544 302.882963,94.6629526 C303.462777,94.8876509 304.08554,95 304.751253,95 Z M311.580172,95 C312.052613,95 312.490157,94.9029712 312.892806,94.7089136 C313.295455,94.5148561 313.673944,94.2748375 314.028275,93.9888579 L314.028275,93.9888579 L314.092699,93.9888579 L314.221546,94.816156 L315.751611,94.816156 L315.751611,90.3579387 C315.751611,89.3059424 315.507337,88.5016249 315.01879,87.9449861 C314.530243,87.3883473 313.792054,87.1100279 312.804223,87.1100279 C312.170723,87.1100279 311.580172,87.2070566 311.03257,87.4011142 C310.484968,87.5951718 309.991052,87.8249768 309.550823,88.0905292 L309.550823,88.0905292 L310.227273,89.270195 C310.581603,89.0659239 310.943987,88.8922934 311.314424,88.7493036 C311.68486,88.6063138 312.06335,88.5348189 312.449893,88.5348189 C312.718325,88.5348189 312.943808,88.5731198 313.126342,88.6497214 C313.308876,88.7263231 313.456514,88.8335655 313.569256,88.9714485 C313.681997,89.1093315 313.762527,89.2676416 313.810845,89.4463788 C313.859162,89.6251161 313.88869,89.8115135 313.899427,90.005571 C313.083393,90.0872795 312.382785,90.2047354 311.797602,90.3579387 C311.212419,90.5111421 310.729241,90.7000929 310.348067,90.9247911 C309.966893,91.1494893 309.687724,91.4175952 309.510558,91.7291086 C309.333393,92.0406221 309.24481,92.3955432 309.24481,92.7938719 C309.24481,93.457753 309.459556,93.9914113 309.889048,94.3948468 C310.31854,94.7982823 310.882248,95 311.580172,95 Z M312.176092,93.6211699 C311.843236,93.6211699 311.569435,93.5445682 311.354689,93.3913649 C311.139943,93.2381616 311.03257,92.9930362 311.03257,92.6559889 C311.03257,92.4721448 311.080888,92.2985144 311.177523,92.1350975 C311.274159,91.9716806 311.435218,91.8261374 311.660702,91.698468 C311.886185,91.5707985 312.18146,91.455896 312.546528,91.3537604 C312.911596,91.2516249 313.362563,91.1699164 313.899427,91.1086351 L313.899427,91.1086351 L313.899427,92.7938719 C313.598783,93.0594243 313.316929,93.2636955 313.053865,93.4066852 C312.790802,93.549675 312.49821,93.6211699 312.176092,93.6211699 Z M319.826414,94.816156 L319.826414,89.5612813 C320.15927,89.2548747 320.45723,89.0225162 320.720293,88.8642061 C320.983357,88.705896 321.286686,88.6267409 321.630279,88.6267409 C322.070508,88.6267409 322.387258,88.7544104 322.58053,89.0097493 C322.773801,89.2650882 322.870437,89.7042711 322.870437,90.3272981 L322.870437,90.3272981 L322.870437,94.816156 L324.72262,94.816156 L324.72262,90.097493 C324.72262,89.1374188 324.529349,88.3994893 324.142806,87.8837047 C323.756263,87.3679201 323.138869,87.1100279 322.290623,87.1100279 C321.743021,87.1100279 321.262527,87.2274838 320.849141,87.4623955 C320.435755,87.6973073 320.051897,87.9781801 319.697566,88.3050139 L319.697566,88.3050139 L319.633142,88.3050139 L319.504295,87.2938719 L317.97423,87.2938719 L317.97423,94.816156 L319.826414,94.816156 Z M330.295276,95 C330.746242,95 331.194524,94.9233983 331.640122,94.770195 C332.085719,94.6169916 332.496421,94.3871866 332.872226,94.0807799 L332.872226,94.0807799 L332.115247,92.9164345 C331.889764,93.090065 331.640122,93.2407149 331.366321,93.3683844 C331.09252,93.4960539 330.799928,93.5598886 330.488547,93.5598886 C329.865784,93.5598886 329.358447,93.332637 328.966535,92.8781337 C328.574624,92.4236305 328.378669,91.8184773 328.378669,91.0626741 C328.378669,90.2966574 328.577309,89.6863974 328.974588,89.2318942 C329.371868,88.7773909 329.892627,88.5501393 330.536865,88.5501393 C330.783822,88.5501393 331.01199,88.5986537 331.221367,88.6956825 C331.430744,88.7927112 331.642806,88.9280409 331.857552,89.1016713 L331.857552,89.1016713 L332.759485,87.9526462 C332.469578,87.7177344 332.139406,87.5185701 331.768969,87.3551532 C331.398533,87.1917363 330.955619,87.1100279 330.440229,87.1100279 C329.914102,87.1100279 329.412133,87.1993965 328.934324,87.3781337 C328.456514,87.5568709 328.035075,87.8147632 327.670007,88.1518106 C327.304939,88.4888579 327.015032,88.902507 326.800286,89.3927577 C326.58554,89.8830084 326.478168,90.4396472 326.478168,91.0626741 C326.478168,91.685701 326.574803,92.2423398 326.768074,92.7325905 C326.961346,93.2228412 327.229778,93.6364903 327.573372,93.9735376 C327.916965,94.310585 328.322298,94.5659239 328.78937,94.7395543 C329.256442,94.9131848 329.758411,95 330.295276,95 Z M337.430208,95 C337.93486,95 338.418039,94.9233983 338.879742,94.770195 C339.341446,94.6169916 339.7602,94.4229341 340.136006,94.1880223 L340.136006,94.1880223 L339.507874,93.0849582 C339.217967,93.2585887 338.925376,93.3939183 338.6301,93.4909471 C338.334825,93.5879759 338.01539,93.6364903 337.671797,93.6364903 C337.027559,93.6364903 336.498747,93.4551996 336.085361,93.0926184 C335.671976,92.7300371 335.422334,92.2116992 335.336435,91.5376045 L335.336435,91.5376045 L340.361489,91.5376045 C340.382963,91.4456825 340.401754,91.3231198 340.41786,91.1699164 C340.433966,91.0167131 340.442019,90.8532962 340.442019,90.6796657 C340.442019,90.1587744 340.372226,89.6787372 340.232641,89.2395543 C340.093057,88.8003714 339.886364,88.4224698 339.612563,88.1058496 C339.338762,87.7892293 338.997853,87.544104 338.589835,87.3704735 C338.181818,87.1968431 337.709377,87.1100279 337.172513,87.1100279 C336.710809,87.1100279 336.259843,87.2019499 335.819613,87.3857939 C335.379384,87.5696379 334.990157,87.8300836 334.651933,88.1671309 C334.313708,88.5041783 334.042591,88.9178273 333.838583,89.408078 C333.634574,89.8983287 333.53257,90.4498607 333.53257,91.0626741 C333.53257,91.685701 333.63189,92.2397864 333.83053,92.7249304 C334.02917,93.2100743 334.305655,93.6211699 334.659986,93.9582173 C335.014316,94.2952646 335.427702,94.5531569 335.900143,94.7318942 C336.372584,94.9106314 336.882606,95 337.430208,95 Z M338.831424,90.3426184 L335.320329,90.3426184 C335.406228,89.729805 335.626342,89.2650882 335.980673,88.948468 C336.335004,88.6318477 336.748389,88.4735376 337.22083,88.4735376 C337.768432,88.4735376 338.173765,88.6395079 338.436829,88.9714485 C338.699893,89.303389 338.831424,89.7604457 338.831424,90.3426184 L338.831424,90.3426184 Z M344.017538,95 C344.425555,95 344.753042,94.9489322 345,94.8467967 L345,94.8467967 L344.758411,93.5292479 C344.68325,93.549675 344.626879,93.5598886 344.589298,93.5598886 L344.589298,93.5598886 L344.468504,93.5598886 C344.371868,93.5598886 344.280601,93.516481 344.194703,93.4296657 C344.108805,93.3428505 344.065855,93.1922006 344.065855,92.9777159 L344.065855,92.9777159 L344.065855,84 L342.213672,84 L342.213672,92.8857939 C342.213672,93.5394615 342.347888,94.0552461 342.616321,94.4331476 C342.884753,94.8110492 343.351825,95 344.017538,95 Z" id="Cancel" fill="#FFFFFF" fill-rule="nonzero"></path>
        <rect id="Rectangle" stroke="#E3E4E5" fill="#FFFFFF" x="103.5" y="48.5" width="301" height="303"></rect>
        <rect id="Rectangle" fill="#222222" x="103" y="321" width="302" height="31"></rect>
        <rect id="Rectangle" stroke="#E3E4E5" fill="#FFFFFF" x="103.5" y="82.5" width="301" height="37"></rect>
        <rect id="Rectangle" fill="#4B4B4B" x="153" y="63" width="29" height="6"></rect>
        <rect id="Rectangle" fill="#4B4B4B" x="236" y="63" width="29" height="6"></rect>
        <rect id="Rectangle" fill="#4B4B4B" x="132" y="98" width="110" height="6"></rect>
        <rect id="Rectangle" fill="#4B4B4B" x="132" y="133" width="40" height="4"></rect>
        <rect id="Rectangle" fill="#4B4B4B" x="269" y="63" width="29" height="6"></rect>
        <rect id="Rectangle" fill="#4B4B4B" x="302" y="63" width="29" height="6"></rect>
        <rect id="Rectangle" fill="#FFFFFF" x="132" y="331" width="29" height="4"></rect>
        <rect id="Rectangle" fill="#FFFFFF" x="165" y="331" width="29" height="4"></rect>
        <rect id="Rectangle" fill="#FFFFFF" x="198" y="331" width="29" height="4"></rect>
        <circle id="Oval" fill="#EE020A" cx="140" cy="66" r="9"></circle>
        <rect id="Rectangle" fill="#EE020A" x="336" y="59" width="31" height="14" rx="1"></rect>
        <rect id="Rectangle" fill="#EE020A" x="187" y="231" width="42" height="12" rx="1"></rect>
        <rect id="Rectangle" fill="#EE020A" x="316" y="94" width="51" height="14" rx="1"></rect>
        <rect id="Rectangle" fill="#EE020A" x="132" y="286" width="51" height="14" rx="1"></rect>
        <rect id="Rectangle" stroke="#6E7272" x="132.5" y="141.5" width="96" height="11" rx="1"></rect>
        <rect id="Rectangle" fill="#4B4B4B" x="132" y="163" width="40" height="4"></rect>
        <rect id="Rectangle" stroke="#6E7272" x="132.5" y="171.5" width="96" height="11" rx="1"></rect>
        <rect id="Rectangle" fill="#4B4B4B" x="132" y="193" width="40" height="4"></rect>
        <rect id="Rectangle" stroke="#6E7272" x="132.5" y="201.5" width="96" height="11" rx="1"></rect>
        <rect id="Rectangle" fill="#4B4B4B" x="132" y="253" width="40" height="4"></rect>
        <rect id="Rectangle" stroke="#6E7272" x="132.5" y="261.5" width="96" height="11" rx="1"></rect>
        <rect id="Rectangle" fill="#4B4B4B" x="132" y="223" width="40" height="4"></rect>
        <rect id="Rectangle" stroke="#6E7272" x="132.5" y="231.5" width="48" height="11" rx="1"></rect>
    </g>
</svg>