<?xml version="1.0" encoding="utf-8"?>
<!-- Generator: Adobe Illustrator 24.0.3, SVG Export Plug-In . SVG Version: 6.00 Build 0)  -->
<svg version="1.1" id="Layer_1" xmlns="http://www.w3.org/2000/svg" xmlns:xlink="http://www.w3.org/1999/xlink" x="0px" y="0px"
	 viewBox="0 0 500 200" style="enable-background:new 0 0 500 200;" xml:space="preserve">
<style type="text/css">
	.st0{fill:#EE020A;}
	.st1{fill:#F5F5F5;}
	.st2{fill:#5151D3;}
</style>
<g>
	<rect y="-0.1" class="st0" width="6" height="200.1"/>
</g>
<g>
	<rect x="6" y="-0.5" class="st1" width="495" height="201"/>
</g>
<g>
	<g>
		<g>
			<path class="st0" d="M33.9,11.7c-8.6,0-15.7,7-15.7,15.7S25.2,43,33.9,43s15.7-7,15.7-15.7S42.5,11.7,33.9,11.7z"/>
		</g>
	</g>
</g>
<g>
	<g>
		<rect x="23.9" y="25.7" transform="matrix(0.7071 -0.7071 0.7071 0.7071 -9.4 31.9959)" class="st1" width="20" height="3.3"/>
	</g>
	<g>
		<rect x="32.2" y="17.3" transform="matrix(0.7071 -0.7071 0.7071 0.7071 -9.3914 31.9166)" class="st1" width="3.3" height="20"/>
	</g>
</g>
<g>
	<path d="M70.1,109.2V92h1.2v7.5h9.2V92h1.2v17.1h-1.2v-8.6h-9.2v8.6H70.1z"/>
	<path d="M91.3,109.5c-0.8,0-1.5-0.1-2.2-0.4s-1.3-0.7-1.8-1.3c-0.5-0.6-0.9-1.2-1.2-2.1c-0.3-0.8-0.5-1.7-0.5-2.7
		c0-1,0.2-1.9,0.5-2.8c0.3-0.8,0.7-1.5,1.2-2.1c0.5-0.6,1.1-1,1.7-1.3s1.3-0.5,2-0.5c1.5,0,2.7,0.5,3.5,1.5c0.8,1,1.3,2.4,1.3,4.3
		c0,0.2,0,0.3,0,0.5c0,0.2,0,0.3-0.1,0.5h-9c0,0.8,0.1,1.5,0.4,2.2c0.2,0.7,0.5,1.2,0.9,1.7s0.9,0.8,1.5,1.1
		c0.6,0.3,1.2,0.4,1.9,0.4c0.7,0,1.3-0.1,1.8-0.3c0.5-0.2,1.1-0.5,1.5-0.8l0.5,0.9c-0.5,0.3-1.1,0.6-1.7,0.8
		C93,109.3,92.2,109.5,91.3,109.5z M86.7,102.1h8c0-1.6-0.3-2.8-1-3.6c-0.7-0.8-1.6-1.2-2.7-1.2c-0.5,0-1,0.1-1.5,0.3
		c-0.5,0.2-0.9,0.5-1.3,0.9c-0.4,0.4-0.7,0.9-1,1.5C86.9,100.7,86.8,101.4,86.7,102.1z"/>
	<path d="M101.5,109.5c-0.5,0-1-0.1-1.4-0.2s-0.8-0.3-1.1-0.6c-0.3-0.3-0.6-0.6-0.8-1.1c-0.2-0.4-0.3-0.9-0.3-1.5
		c0-1.4,0.6-2.4,1.9-3.2c1.3-0.7,3.3-1.2,6.1-1.5c0-0.5,0-0.9-0.1-1.4c-0.1-0.5-0.2-0.9-0.4-1.3c-0.2-0.4-0.5-0.7-0.9-0.9
		c-0.4-0.2-0.9-0.4-1.5-0.4c-0.8,0-1.6,0.2-2.3,0.5c-0.7,0.3-1.3,0.7-1.7,1L98.5,98c0.2-0.2,0.5-0.3,0.8-0.5
		c0.3-0.2,0.7-0.4,1.1-0.5c0.4-0.2,0.8-0.3,1.3-0.4c0.5-0.1,1-0.2,1.5-0.2c0.7,0,1.3,0.1,1.8,0.4c0.5,0.3,0.9,0.6,1.2,1
		c0.3,0.4,0.5,0.9,0.7,1.5c0.1,0.6,0.2,1.2,0.2,1.9v8h-1l-0.1-1.6h-0.1c-0.6,0.5-1.3,0.9-2.1,1.3
		C103.1,109.3,102.3,109.5,101.5,109.5z M101.7,108.5c0.7,0,1.4-0.2,2.1-0.5c0.7-0.3,1.4-0.8,2.2-1.5v-4.2c-1.3,0.2-2.4,0.3-3.2,0.6
		c-0.9,0.2-1.6,0.5-2.1,0.8c-0.5,0.3-0.9,0.7-1.2,1.1c-0.2,0.4-0.4,0.8-0.4,1.3c0,0.5,0.1,0.8,0.2,1.1c0.1,0.3,0.3,0.6,0.6,0.8
		c0.2,0.2,0.5,0.3,0.8,0.4C101,108.4,101.3,108.5,101.7,108.5z"/>
	<path d="M115.6,109.5c-1.6,0-2.8-0.6-3.8-1.7c-0.9-1.1-1.4-2.7-1.4-4.8c0-1,0.1-1.9,0.4-2.7c0.3-0.8,0.7-1.5,1.2-2.1
		c0.5-0.6,1.1-1,1.8-1.3c0.7-0.3,1.4-0.5,2.1-0.5c0.8,0,1.4,0.1,2,0.4c0.6,0.3,1.2,0.6,1.8,1.1l-0.1-2.3v-5.1h1.1v18.7h-1l-0.1-1.6
		h-0.1c-0.5,0.5-1.1,0.9-1.8,1.3S116.5,109.5,115.6,109.5z M115.8,108.5c0.7,0,1.4-0.2,2-0.5c0.6-0.4,1.3-0.9,1.9-1.5V99
		c-0.7-0.6-1.3-1-1.9-1.2c-0.6-0.2-1.2-0.4-1.8-0.4c-0.6,0-1.2,0.1-1.7,0.4c-0.5,0.3-1,0.7-1.4,1.2c-0.4,0.5-0.7,1.1-0.9,1.8
		c-0.2,0.7-0.3,1.4-0.3,2.2c0,0.8,0.1,1.6,0.3,2.3c0.2,0.7,0.4,1.3,0.8,1.7c0.3,0.5,0.8,0.8,1.3,1.1
		C114.6,108.3,115.1,108.5,115.8,108.5z"/>
	<path d="M127.2,109.5c-1,0-1.5-0.7-1.5-2v-17h1.1v17.2c0,0.3,0.1,0.5,0.2,0.6s0.2,0.2,0.4,0.2c0.1,0,0.1,0,0.2,0
		c0.1,0,0.2,0,0.3-0.1l0.2,0.9c-0.1,0-0.2,0.1-0.4,0.1C127.5,109.5,127.4,109.5,127.2,109.5z"/>
	<path d="M132.4,93.7c-0.3,0-0.5-0.1-0.7-0.3c-0.2-0.2-0.3-0.4-0.3-0.7c0-0.3,0.1-0.6,0.3-0.8c0.2-0.2,0.4-0.3,0.7-0.3
		c0.3,0,0.5,0.1,0.7,0.3c0.2,0.2,0.3,0.4,0.3,0.8c0,0.3-0.1,0.5-0.3,0.7C133,93.6,132.7,93.7,132.4,93.7z M131.8,109.2V96.7h1.1
		v12.5H131.8z"/>
	<path d="M137.8,109.2V96.7h1l0.1,1.9h0.1c0.6-0.6,1.3-1.2,2-1.6c0.7-0.4,1.4-0.6,2.3-0.6c1.3,0,2.3,0.4,2.9,1.2
		c0.6,0.8,0.9,2,0.9,3.6v8h-1.1v-7.9c0-1.3-0.2-2.3-0.7-3c-0.4-0.6-1.2-0.9-2.2-0.9c-0.7,0-1.4,0.2-2,0.6c-0.6,0.4-1.3,1-2.1,1.8
		v9.4H137.8z"/>
	<path d="M156.3,109.5c-0.8,0-1.5-0.1-2.2-0.4s-1.3-0.7-1.8-1.3c-0.5-0.6-0.9-1.2-1.2-2.1c-0.3-0.8-0.5-1.7-0.5-2.7
		c0-1,0.2-1.9,0.5-2.8c0.3-0.8,0.7-1.5,1.2-2.1c0.5-0.6,1.1-1,1.7-1.3s1.3-0.5,2-0.5c1.5,0,2.7,0.5,3.5,1.5c0.8,1,1.3,2.4,1.3,4.3
		c0,0.2,0,0.3,0,0.5c0,0.2,0,0.3-0.1,0.5h-9c0,0.8,0.1,1.5,0.4,2.2c0.2,0.7,0.5,1.2,0.9,1.7s0.9,0.8,1.5,1.1
		c0.6,0.3,1.2,0.4,1.9,0.4c0.7,0,1.3-0.1,1.8-0.3c0.5-0.2,1.1-0.5,1.5-0.8l0.5,0.9c-0.5,0.3-1.1,0.6-1.7,0.8
		C158,109.3,157.3,109.5,156.3,109.5z M151.7,102.1h8c0-1.6-0.3-2.8-1-3.6c-0.7-0.8-1.6-1.2-2.7-1.2c-0.5,0-1,0.1-1.5,0.3
		c-0.5,0.2-0.9,0.5-1.3,0.9c-0.4,0.4-0.7,0.9-1,1.5C152,100.7,151.8,101.4,151.7,102.1z"/>
	<path d="M169.5,109.2V92h1.2v16.1h7.9v1H169.5z"/>
	<path d="M182.1,93.7c-0.3,0-0.5-0.1-0.7-0.3c-0.2-0.2-0.3-0.4-0.3-0.7c0-0.3,0.1-0.6,0.3-0.8c0.2-0.2,0.4-0.3,0.7-0.3
		c0.3,0,0.5,0.1,0.7,0.3c0.2,0.2,0.3,0.4,0.3,0.8c0,0.3-0.1,0.5-0.3,0.7C182.6,93.6,182.4,93.7,182.1,93.7z M181.5,109.2V96.7h1.1
		v12.5H181.5z"/>
	<path d="M191.5,115.2c-1.6,0-2.8-0.3-3.7-0.9c-0.9-0.6-1.4-1.5-1.4-2.5c0-0.6,0.2-1.1,0.5-1.6c0.3-0.5,0.8-1,1.4-1.4v-0.1
		c-0.3-0.2-0.6-0.5-0.8-0.8c-0.2-0.3-0.3-0.7-0.3-1.2c0-0.6,0.2-1,0.5-1.4c0.3-0.4,0.6-0.7,0.9-0.9v-0.1c-0.4-0.3-0.8-0.8-1.1-1.4
		c-0.3-0.6-0.5-1.3-0.5-2c0-0.6,0.1-1.2,0.3-1.8c0.2-0.5,0.5-1,0.9-1.4c0.4-0.4,0.9-0.7,1.4-0.9c0.5-0.2,1.1-0.3,1.7-0.3
		c0.3,0,0.7,0,0.9,0.1c0.3,0.1,0.5,0.1,0.7,0.2h4.2v1h-2.9c0.4,0.3,0.7,0.8,1,1.3c0.3,0.5,0.4,1.1,0.4,1.8c0,0.6-0.1,1.2-0.3,1.8
		c-0.2,0.5-0.5,1-0.9,1.4c-0.4,0.4-0.8,0.7-1.4,0.9c-0.5,0.2-1.1,0.3-1.7,0.3c-0.3,0-0.7,0-1.1-0.1c-0.4-0.1-0.7-0.2-1-0.4
		c-0.3,0.2-0.5,0.5-0.7,0.8c-0.2,0.3-0.3,0.6-0.3,1c0,0.5,0.2,0.8,0.5,1.2c0.3,0.3,1,0.5,1.9,0.5h2.7c1.4,0,2.4,0.2,3.1,0.7
		c0.7,0.5,1,1.2,1,2.2c0,0.5-0.1,1.1-0.4,1.6c-0.3,0.5-0.7,1-1.2,1.4c-0.5,0.4-1.1,0.7-1.9,0.9C193.3,115,192.4,115.2,191.5,115.2z
		 M191.7,114.2c0.7,0,1.3-0.1,1.9-0.3c0.6-0.2,1.1-0.4,1.5-0.7c0.4-0.3,0.7-0.6,0.9-1c0.2-0.4,0.3-0.8,0.3-1.2
		c0-0.7-0.2-1.2-0.7-1.5c-0.5-0.3-1.2-0.4-2.1-0.4h-2.7c-0.1,0-0.4,0-0.6,0c-0.3,0-0.6-0.1-0.9-0.2c-0.6,0.4-1,0.8-1.2,1.3
		c-0.3,0.5-0.4,0.9-0.4,1.4c0,0.8,0.4,1.4,1.1,1.9S190.3,114.2,191.7,114.2z M191.4,104.3c0.4,0,0.8-0.1,1.2-0.2
		c0.4-0.2,0.7-0.4,1-0.7c0.3-0.3,0.5-0.7,0.7-1.1s0.3-0.9,0.3-1.4s-0.1-1-0.3-1.4c-0.2-0.4-0.4-0.8-0.7-1.1c-0.3-0.3-0.6-0.5-1-0.7
		c-0.4-0.2-0.8-0.2-1.2-0.2c-0.5,0-0.9,0.1-1.3,0.2c-0.4,0.2-0.7,0.4-1,0.7c-0.3,0.3-0.5,0.7-0.7,1.1s-0.3,0.9-0.3,1.4
		c0,0.5,0.1,1,0.3,1.4s0.4,0.8,0.7,1.1c0.3,0.3,0.6,0.6,1,0.7C190.5,104.2,190.9,104.3,191.4,104.3z"/>
	<path d="M200.1,109.2V90.5h1.1v8.2c0.7-0.7,1.3-1.2,2-1.6c0.7-0.4,1.4-0.6,2.3-0.6c1.3,0,2.3,0.4,2.9,1.2c0.6,0.8,0.9,2,0.9,3.6v8
		h-1.1v-7.9c0-1.3-0.2-2.3-0.7-3c-0.4-0.6-1.2-0.9-2.2-0.9c-0.7,0-1.4,0.2-2,0.6c-0.6,0.4-1.3,1-2.1,1.8v9.4H200.1z"/>
	<path d="M217.3,109.5c-0.6,0-1.1-0.1-1.5-0.3c-0.4-0.2-0.7-0.4-1-0.8c-0.2-0.3-0.4-0.7-0.5-1.2c-0.1-0.5-0.1-1-0.1-1.5v-8h-2v-0.9
		l2-0.1l0.2-3.6h1v3.6h3.6v1h-3.6v8.1c0,0.4,0,0.8,0.1,1.1c0.1,0.3,0.2,0.6,0.3,0.8c0.2,0.2,0.4,0.4,0.6,0.5
		c0.3,0.1,0.6,0.2,1.1,0.2c0.2,0,0.5,0,0.8-0.1c0.3-0.1,0.5-0.2,0.8-0.3l0.3,0.9c-0.4,0.1-0.7,0.3-1.1,0.3
		C217.8,109.4,217.5,109.5,217.3,109.5z"/>
	<path d="M230.8,109.5c-0.7,0-1.3-0.1-1.8-0.2s-1-0.3-1.4-0.5c-0.4-0.2-0.8-0.5-1.1-0.8s-0.6-0.6-0.9-0.8l0.7-0.8
		c0.2,0.3,0.5,0.5,0.8,0.8c0.3,0.3,0.6,0.5,1,0.7c0.4,0.2,0.8,0.4,1.2,0.5c0.5,0.1,1,0.2,1.5,0.2c0.6,0,1.1-0.1,1.5-0.3
		c0.5-0.2,0.9-0.4,1.2-0.7c0.3-0.3,0.6-0.7,0.8-1.2c0.2-0.5,0.3-1,0.3-1.5c0-0.6-0.1-1.1-0.3-1.6c-0.2-0.5-0.6-0.9-1-1.2
		c-0.5-0.3-1.1-0.6-1.8-0.8c-0.7-0.2-1.6-0.3-2.7-0.3v-1c1,0,1.8-0.1,2.4-0.3c0.7-0.2,1.2-0.4,1.6-0.8c0.4-0.3,0.7-0.7,0.9-1.1
		c0.2-0.4,0.3-0.9,0.3-1.4c0-0.9-0.3-1.7-0.9-2.2c-0.6-0.6-1.4-0.8-2.4-0.8c-0.8,0-1.5,0.2-2.1,0.5s-1.2,0.8-1.7,1.3l-0.7-0.8
		c0.6-0.6,1.2-1,1.9-1.4c0.7-0.4,1.6-0.6,2.5-0.6c0.6,0,1.2,0.1,1.8,0.3c0.6,0.2,1,0.4,1.4,0.8s0.7,0.8,1,1.2
		c0.2,0.5,0.4,1.1,0.4,1.7c0,1.1-0.3,2-0.9,2.6c-0.6,0.7-1.4,1.2-2.3,1.5v0.1c0.5,0.1,1,0.3,1.5,0.5c0.5,0.3,0.8,0.6,1.2,0.9
		c0.3,0.4,0.6,0.8,0.8,1.3c0.2,0.5,0.3,1,0.3,1.6c0,0.7-0.1,1.4-0.4,2c-0.3,0.6-0.6,1.1-1.1,1.5c-0.5,0.4-1,0.7-1.6,0.9
		C232.2,109.4,231.5,109.5,230.8,109.5z"/>
	<path d="M243.4,109.5c-1.6,0-2.8-0.7-3.7-2.2c-0.9-1.5-1.3-3.6-1.3-6.4c0-2.8,0.4-4.9,1.3-6.4c0.9-1.5,2.1-2.2,3.7-2.2
		s2.8,0.7,3.7,2.2c0.9,1.5,1.3,3.6,1.3,6.4c0,2.8-0.4,4.9-1.3,6.4C246.3,108.7,245,109.5,243.4,109.5z M243.4,108.5
		c1.2,0,2.1-0.6,2.8-1.9c0.7-1.3,1-3.2,1-5.8s-0.3-4.4-1-5.7c-0.7-1.2-1.6-1.9-2.8-1.9c-1.1,0-2.1,0.6-2.8,1.9c-0.7,1.2-1,3.1-1,5.7
		s0.3,4.5,1,5.8C241.4,107.8,242.3,108.5,243.4,108.5z"/>
	<path d="M255.9,109.5c-1.6,0-2.8-0.7-3.7-2.2c-0.9-1.5-1.3-3.6-1.3-6.4c0-2.8,0.4-4.9,1.3-6.4c0.9-1.5,2.1-2.2,3.7-2.2
		s2.8,0.7,3.7,2.2c0.9,1.5,1.3,3.6,1.3,6.4c0,2.8-0.4,4.9-1.3,6.4C258.7,108.7,257.5,109.5,255.9,109.5z M255.9,108.5
		c1.2,0,2.1-0.6,2.8-1.9c0.7-1.3,1-3.2,1-5.8s-0.3-4.4-1-5.7c-0.7-1.2-1.6-1.9-2.8-1.9c-1.1,0-2.1,0.6-2.8,1.9c-0.7,1.2-1,3.1-1,5.7
		s0.3,4.5,1,5.8C253.8,107.8,254.7,108.5,255.9,108.5z"/>
</g>
<g>
	<polygon class="st2" points="271.2,101.3 321.2,101.1 321.2,102.1 271.2,102.3 	"/>
</g>
<ellipse class="st2" cx="271.3" cy="101.7" rx="3" ry="3"/>
<g>
	<path class="st2" d="M328.1,105.7V95.2h6.3v1.6h-4.5v3h3.8v1.6h-3.8v4.4H328.1z"/>
	<path class="st2" d="M339,105.8c-0.5,0-1-0.1-1.4-0.3s-0.8-0.4-1.2-0.8c-0.3-0.4-0.6-0.8-0.8-1.3c-0.2-0.5-0.3-1.1-0.3-1.7
		c0-0.7,0.1-1.2,0.3-1.7c0.2-0.5,0.5-0.9,0.8-1.3c0.3-0.4,0.7-0.6,1.2-0.8c0.4-0.2,0.9-0.3,1.4-0.3c0.5,0,1,0.1,1.4,0.3
		c0.5,0.2,0.9,0.5,1.2,0.8c0.3,0.4,0.6,0.8,0.8,1.3c0.2,0.5,0.3,1.1,0.3,1.7c0,0.7-0.1,1.2-0.3,1.7c-0.2,0.5-0.5,0.9-0.8,1.3
		c-0.3,0.4-0.7,0.6-1.2,0.8S339.5,105.8,339,105.8z M339,104.3c0.6,0,1-0.2,1.4-0.7c0.3-0.5,0.5-1.1,0.5-1.9c0-0.8-0.2-1.4-0.5-1.9
		c-0.3-0.5-0.8-0.7-1.4-0.7s-1,0.2-1.4,0.7c-0.3,0.5-0.5,1.1-0.5,1.9c0,0.8,0.2,1.4,0.5,1.9C338,104.1,338.5,104.3,339,104.3z"/>
	<path class="st2" d="M344.6,105.7v-7.9h1.5l0.1,1.1h0.1c0.4-0.3,0.7-0.6,1.1-0.9c0.4-0.2,0.9-0.4,1.4-0.4c0.8,0,1.5,0.3,1.8,0.8
		c0.4,0.5,0.6,1.3,0.6,2.3v4.9h-1.8V101c0-0.7-0.1-1.1-0.3-1.4c-0.2-0.3-0.5-0.4-0.9-0.4c-0.3,0-0.6,0.1-0.9,0.2s-0.6,0.4-0.9,0.7
		v5.5H344.6z"/>
	<path class="st2" d="M356.3,105.8c-0.5,0-0.8-0.1-1.2-0.2c-0.3-0.1-0.6-0.3-0.8-0.6c-0.2-0.3-0.3-0.5-0.4-0.9
		c-0.1-0.3-0.1-0.7-0.1-1.2v-3.7h-1.1v-1.4l1.2-0.1l0.2-2.1h1.5v2.1h2v1.5h-2v3.7c0,0.9,0.4,1.4,1.1,1.4c0.1,0,0.3,0,0.4,0
		c0.1,0,0.3-0.1,0.4-0.1l0.3,1.4c-0.2,0.1-0.5,0.1-0.7,0.2C356.9,105.8,356.6,105.8,356.3,105.8z"/>
	<path class="st2" d="M363.8,105.7l-2.1-7.9h1.9l0.9,4.1c0.1,0.4,0.2,0.7,0.2,1.1c0.1,0.4,0.1,0.8,0.2,1.1h0.1
		c0.1-0.4,0.2-0.8,0.2-1.1c0.1-0.4,0.2-0.7,0.3-1.1l1-4.1h1.7l1,4.1c0.1,0.4,0.2,0.7,0.3,1.1c0.1,0.4,0.2,0.8,0.3,1.1h0.1
		c0.1-0.4,0.1-0.8,0.2-1.1c0.1-0.4,0.1-0.7,0.2-1.1l0.9-4.1h1.7l-2,7.9h-2.2l-0.9-3.7c-0.1-0.4-0.2-0.7-0.2-1.1
		c-0.1-0.4-0.2-0.8-0.2-1.2h-0.1c-0.1,0.4-0.1,0.8-0.2,1.2c-0.1,0.4-0.2,0.7-0.2,1.1l-0.9,3.6H363.8z"/>
	<path class="st2" d="M377.8,105.8c-0.5,0-1.1-0.1-1.5-0.3c-0.5-0.2-0.9-0.5-1.2-0.8c-0.4-0.4-0.6-0.8-0.8-1.3
		c-0.2-0.5-0.3-1.1-0.3-1.7c0-0.6,0.1-1.2,0.3-1.7c0.2-0.5,0.5-0.9,0.8-1.3s0.7-0.6,1.2-0.8c0.4-0.2,0.9-0.3,1.3-0.3
		c0.5,0,1,0.1,1.4,0.3s0.7,0.4,1,0.8c0.3,0.3,0.5,0.7,0.6,1.2c0.1,0.5,0.2,1,0.2,1.5c0,0.2,0,0.4,0,0.5c0,0.2,0,0.3-0.1,0.4h-5
		c0.1,0.7,0.3,1.2,0.7,1.6c0.4,0.4,0.9,0.6,1.6,0.6c0.3,0,0.7-0.1,1-0.2c0.3-0.1,0.6-0.2,0.9-0.4l0.6,1.2c-0.4,0.2-0.8,0.4-1.2,0.6
		C378.8,105.8,378.3,105.8,377.8,105.8z M375.7,101h3.5c0-0.6-0.1-1.1-0.4-1.4c-0.3-0.3-0.7-0.5-1.2-0.5c-0.5,0-0.9,0.2-1.2,0.5
		C376,99.9,375.8,100.3,375.7,101z"/>
	<path class="st2" d="M383.5,96.4c-0.3,0-0.6-0.1-0.8-0.3c-0.2-0.2-0.3-0.4-0.3-0.8c0-0.3,0.1-0.6,0.3-0.8c0.2-0.2,0.5-0.3,0.8-0.3
		c0.3,0,0.6,0.1,0.8,0.3c0.2,0.2,0.3,0.5,0.3,0.8c0,0.3-0.1,0.6-0.3,0.8C384.1,96.3,383.8,96.4,383.5,96.4z M382.5,105.7v-7.9h1.8
		v7.9H382.5z"/>
	<path class="st2" d="M389.5,109.1c-0.5,0-0.9,0-1.3-0.1c-0.4-0.1-0.7-0.2-1-0.4c-0.3-0.2-0.5-0.4-0.7-0.6c-0.2-0.3-0.2-0.6-0.2-0.9
		c0-0.3,0.1-0.6,0.3-0.9s0.5-0.5,0.8-0.8v-0.1c-0.2-0.1-0.4-0.3-0.5-0.5c-0.1-0.2-0.2-0.5-0.2-0.8c0-0.3,0.1-0.6,0.3-0.8
		c0.2-0.3,0.4-0.5,0.6-0.6v-0.1c-0.3-0.2-0.5-0.5-0.7-0.8c-0.2-0.4-0.3-0.8-0.3-1.2c0-0.4,0.1-0.8,0.3-1.2c0.2-0.4,0.4-0.6,0.7-0.9
		c0.3-0.2,0.6-0.4,1-0.5c0.4-0.1,0.8-0.2,1.2-0.2c0.2,0,0.4,0,0.6,0.1c0.2,0,0.4,0.1,0.5,0.1h2.8v1.4h-1.4c0.1,0.1,0.2,0.3,0.3,0.6
		c0.1,0.2,0.1,0.5,0.1,0.8c0,0.4-0.1,0.8-0.2,1.2c-0.2,0.3-0.4,0.6-0.6,0.8s-0.6,0.4-0.9,0.5c-0.4,0.1-0.8,0.2-1.2,0.2
		c-0.2,0-0.3,0-0.5,0c-0.2,0-0.4-0.1-0.5-0.2c-0.1,0.1-0.2,0.2-0.3,0.3c-0.1,0.1-0.1,0.3-0.1,0.4c0,0.2,0.1,0.4,0.3,0.5
		c0.2,0.1,0.5,0.2,1,0.2h1.4c0.9,0,1.7,0.2,2.2,0.5c0.5,0.3,0.7,0.8,0.7,1.5c0,0.4-0.1,0.7-0.3,1.1s-0.5,0.6-0.8,0.9
		c-0.4,0.2-0.8,0.4-1.3,0.6S390.1,109.1,389.5,109.1z M389.7,107.9c0.6,0,1.2-0.1,1.5-0.4c0.4-0.3,0.6-0.5,0.6-0.9
		c0-0.3-0.1-0.5-0.4-0.6c-0.2-0.1-0.6-0.2-1-0.2h-1.1c-0.4,0-0.8,0-1.1-0.1c-0.4,0.3-0.6,0.7-0.6,1c0,0.4,0.2,0.6,0.5,0.8
		C388.6,107.8,389.1,107.9,389.7,107.9z M389.6,102c0.4,0,0.7-0.1,1-0.4s0.4-0.7,0.4-1.2c0-0.5-0.1-0.9-0.4-1.1s-0.6-0.4-1-0.4
		s-0.7,0.1-1,0.4s-0.4,0.7-0.4,1.2c0,0.5,0.1,0.9,0.4,1.2S389.2,102,389.6,102z"/>
	<path class="st2" d="M395,105.7V94.4h1.8v2.9l-0.1,1.5c0.3-0.3,0.7-0.6,1.1-0.8c0.4-0.2,0.9-0.4,1.4-0.4c0.8,0,1.5,0.3,1.8,0.8
		c0.4,0.5,0.6,1.3,0.6,2.3v4.9h-1.8V101c0-0.7-0.1-1.1-0.3-1.4s-0.5-0.4-0.9-0.4c-0.3,0-0.6,0.1-0.9,0.2c-0.3,0.2-0.6,0.4-0.9,0.7
		v5.5H395z"/>
	<path class="st2" d="M406.7,105.8c-0.5,0-0.8-0.1-1.2-0.2c-0.3-0.1-0.6-0.3-0.8-0.6c-0.2-0.3-0.3-0.5-0.4-0.9
		c-0.1-0.3-0.1-0.7-0.1-1.2v-3.7h-1.1v-1.4l1.2-0.1l0.2-2.1h1.5v2.1h2v1.5h-2v3.7c0,0.9,0.4,1.4,1.1,1.4c0.1,0,0.3,0,0.4,0
		c0.1,0,0.3-0.1,0.4-0.1l0.3,1.4c-0.2,0.1-0.5,0.1-0.7,0.2C407.3,105.8,407,105.8,406.7,105.8z"/>
	<path class="st2" d="M415.6,105.8c-0.8,0-1.5-0.1-2.1-0.4s-1-0.6-1.4-1l0.9-1.2c0.3,0.3,0.7,0.6,1.1,0.8c0.4,0.2,0.8,0.3,1.4,0.3
		c0.6,0,1-0.1,1.4-0.4c0.3-0.3,0.5-0.6,0.5-1.1c0-0.3,0-0.5-0.1-0.7c-0.1-0.2-0.3-0.4-0.5-0.5s-0.5-0.3-0.9-0.3s-0.9-0.1-1.4-0.1
		v-1.3c0.5,0,0.9,0,1.3-0.1s0.6-0.2,0.8-0.3s0.4-0.3,0.4-0.5c0.1-0.2,0.1-0.4,0.1-0.7c0-0.4-0.1-0.8-0.4-1c-0.3-0.2-0.6-0.4-1.1-0.4
		c-0.4,0-0.8,0.1-1.1,0.3c-0.3,0.2-0.6,0.4-1,0.7l-0.9-1.1c0.4-0.4,0.9-0.7,1.4-0.9c0.5-0.2,1-0.4,1.7-0.4c0.5,0,0.9,0.1,1.3,0.2
		c0.4,0.1,0.8,0.3,1,0.5s0.5,0.5,0.7,0.8c0.2,0.3,0.2,0.7,0.2,1.1c0,0.6-0.2,1.1-0.5,1.4c-0.3,0.4-0.7,0.7-1.3,0.9v0.1
		c0.6,0.2,1.1,0.5,1.5,0.9c0.4,0.4,0.6,1,0.6,1.6c0,0.5-0.1,0.9-0.3,1.2s-0.4,0.7-0.8,0.9c-0.3,0.3-0.7,0.4-1.1,0.6
		S416.1,105.8,415.6,105.8z"/>
	<path class="st2" d="M424.1,105.8c-1.1,0-1.9-0.5-2.5-1.4c-0.6-0.9-0.9-2.2-0.9-4c0-1.7,0.3-3,0.9-3.9c0.6-0.9,1.5-1.3,2.5-1.3
		s1.9,0.4,2.5,1.3c0.6,0.9,0.9,2.2,0.9,3.9c0,1.7-0.3,3-0.9,4C426,105.4,425.1,105.8,424.1,105.8z M424.1,104.4
		c0.2,0,0.5-0.1,0.7-0.2c0.2-0.1,0.4-0.4,0.5-0.7c0.1-0.3,0.3-0.7,0.4-1.2c0.1-0.5,0.1-1.1,0.1-1.8c0-0.7,0-1.3-0.1-1.8
		c-0.1-0.5-0.2-0.9-0.4-1.2c-0.1-0.3-0.3-0.5-0.5-0.6c-0.2-0.1-0.4-0.2-0.7-0.2s-0.5,0.1-0.7,0.2c-0.2,0.1-0.4,0.3-0.5,0.6
		c-0.1,0.3-0.3,0.7-0.4,1.2c-0.1,0.5-0.1,1.1-0.1,1.8c0,0.7,0,1.3,0.1,1.8c0.1,0.5,0.2,0.9,0.4,1.2c0.1,0.3,0.3,0.5,0.5,0.7
		C423.6,104.3,423.8,104.4,424.1,104.4z"/>
	<path class="st2" d="M432.3,105.8c-1.1,0-1.9-0.5-2.5-1.4c-0.6-0.9-0.9-2.2-0.9-4c0-1.7,0.3-3,0.9-3.9c0.6-0.9,1.5-1.3,2.5-1.3
		c1.1,0,1.9,0.4,2.5,1.3c0.6,0.9,0.9,2.2,0.9,3.9c0,1.7-0.3,3-0.9,4C434.2,105.4,433.4,105.8,432.3,105.8z M432.3,104.4
		c0.2,0,0.5-0.1,0.7-0.2c0.2-0.1,0.4-0.4,0.5-0.7c0.1-0.3,0.3-0.7,0.4-1.2s0.1-1.1,0.1-1.8c0-0.7,0-1.3-0.1-1.8s-0.2-0.9-0.4-1.2
		c-0.1-0.3-0.3-0.5-0.5-0.6c-0.2-0.1-0.4-0.2-0.7-0.2c-0.2,0-0.5,0.1-0.7,0.2c-0.2,0.1-0.4,0.3-0.5,0.6c-0.1,0.3-0.3,0.7-0.4,1.2
		c-0.1,0.5-0.1,1.1-0.1,1.8c0,0.7,0,1.3,0.1,1.8c0.1,0.5,0.2,0.9,0.4,1.2c0.1,0.3,0.3,0.5,0.5,0.7
		C431.8,104.3,432,104.4,432.3,104.4z"/>
</g>
</svg>
