<?xml version="1.0" encoding="UTF-8"?>
<svg viewBox="0 0 500 150" version="1.1" xmlns="http://www.w3.org/2000/svg" xmlns:xlink="http://www.w3.org/1999/xlink">
    <!-- Generator: Sketch 64 (93537) - https://sketch.com -->
    <title>Artboard</title>
    <desc>Created with Sketch.</desc>
    <g id="Artboard" stroke="none" stroke-width="1" fill="none" fill-rule="evenodd">
        <rect id="Rectangle" fill="#EE020A" fill-rule="nonzero" x="0" y="0" width="6" height="150"></rect>
        <rect id="Rectangle" fill="#F5F5F5" fill-rule="nonzero" x="6" y="0" width="495" height="150"></rect>
        <path d="M33.9,12 C25.3,12 18.2,19 18.2,27.7 C18.2,36.4 25.2,43.3 33.9,43.3 C42.6,43.3 49.6,36.3 49.6,27.6 C49.6,18.9 42.5,12 33.9,12 Z" id="Path" fill="#EE020A" fill-rule="nonzero"></path>
        <g id="Group" transform="translate(25.000000, 19.300000)" fill="#F5F5F5" fill-rule="nonzero">
            <rect id="Rectangle" transform="translate(8.909875, 8.364395) rotate(-45.000000) translate(-8.909875, -8.364395) " x="-1.0900291" y="6.71441082" width="19.9998082" height="3.29996835"></rect>
            <rect id="Rectangle" transform="translate(8.847765, 8.285095) rotate(-45.000000) translate(-8.847765, -8.285095) " x="7.19778082" y="-1.7148091" width="3.29996835" height="19.9998082"></rect>
        </g>
        <g id="Group" transform="translate(187.000000, 43.000000)">
            <rect id="Rectangle" fill="#EE020A" x="0" y="0" width="133" height="65" rx="3"></rect>
            <path d="M25.552,28 L26.368,25.168 L29.888,25.168 L30.704,28 L32.656,28 L29.248,17.536 L27.072,17.536 L23.664,28 L25.552,28 Z M29.472,23.712 L26.8,23.712 L27.168,22.432 C27.3386667,21.8773333 27.4986667,21.3093333 27.648,20.728 C27.7973333,20.1466667 27.9466667,19.5626667 28.096,18.976 L28.096,18.976 L28.16,18.976 C28.3093333,19.552 28.4613333,20.1333333 28.616,20.72 C28.7706667,21.3066667 28.9333333,21.8773333 29.104,22.432 L29.104,22.432 L29.472,23.712 Z M36.544,28.192 C36.9706667,28.192 37.376,28.0906667 37.76,27.888 C38.144,27.6853333 38.48,27.44 38.768,27.152 L38.768,27.152 L38.832,27.152 L38.96,28 L40.48,28 L40.48,16.704 L38.64,16.704 L38.64,19.552 L38.704,20.816 C38.3946667,20.5493333 38.0853333,20.3386667 37.776,20.184 C37.4666667,20.0293333 37.088,19.952 36.64,19.952 C36.2133333,19.952 35.8,20.048 35.4,20.24 C35,20.432 34.6453333,20.704 34.336,21.056 C34.0266667,21.408 33.7786667,21.84 33.592,22.352 C33.4053333,22.864 33.312,23.44 33.312,24.08 C33.312,25.3813333 33.6026667,26.392 34.184,27.112 C34.7653333,27.832 35.552,28.192 36.544,28.192 Z M36.992,26.672 C36.416,26.672 35.976,26.4506667 35.672,26.008 C35.368,25.5653333 35.216,24.9173333 35.216,24.064 C35.216,23.232 35.392,22.592 35.744,22.144 C36.096,21.696 36.528,21.472 37.04,21.472 C37.3066667,21.472 37.5706667,21.52 37.832,21.616 C38.0933333,21.712 38.3626667,21.8826667 38.64,22.128 L38.64,22.128 L38.64,25.792 C38.128,26.3786667 37.5786667,26.672 36.992,26.672 Z M45.568,28.192 C45.9946667,28.192 46.4,28.0906667 46.784,27.888 C47.168,27.6853333 47.504,27.44 47.792,27.152 L47.792,27.152 L47.856,27.152 L47.984,28 L49.504,28 L49.504,16.704 L47.664,16.704 L47.664,19.552 L47.728,20.816 C47.4186667,20.5493333 47.1093333,20.3386667 46.8,20.184 C46.4906667,20.0293333 46.112,19.952 45.664,19.952 C45.2373333,19.952 44.824,20.048 44.424,20.24 C44.024,20.432 43.6693333,20.704 43.36,21.056 C43.0506667,21.408 42.8026667,21.84 42.616,22.352 C42.4293333,22.864 42.336,23.44 42.336,24.08 C42.336,25.3813333 42.6266667,26.392 43.208,27.112 C43.7893333,27.832 44.576,28.192 45.568,28.192 Z M46.016,26.672 C45.44,26.672 45,26.4506667 44.696,26.008 C44.392,25.5653333 44.24,24.9173333 44.24,24.064 C44.24,23.232 44.416,22.592 44.768,22.144 C45.12,21.696 45.552,21.472 46.064,21.472 C46.3306667,21.472 46.5946667,21.52 46.856,21.616 C47.1173333,21.712 47.3866667,21.8826667 47.664,22.128 L47.664,22.128 L47.664,25.792 C47.152,26.3786667 46.6026667,26.672 46.016,26.672 Z M56.944,28.192 C57.4133333,28.192 57.848,28.0906667 58.248,27.888 C58.648,27.6853333 59.024,27.4346667 59.376,27.136 L59.376,27.136 L59.44,27.136 L59.568,28 L61.088,28 L61.088,23.344 C61.088,22.2453333 60.8453333,21.4053333 60.36,20.824 C59.8746667,20.2426667 59.1413333,19.952 58.16,19.952 C57.5306667,19.952 56.944,20.0533333 56.4,20.256 C55.856,20.4586667 55.3653333,20.6986667 54.928,20.976 L54.928,20.976 L55.6,22.208 C55.952,21.9946667 56.312,21.8133333 56.68,21.664 C57.048,21.5146667 57.424,21.44 57.808,21.44 C58.0746667,21.44 58.2986667,21.48 58.48,21.56 C58.6613333,21.64 58.808,21.752 58.92,21.896 C59.032,22.04 59.112,22.2053333 59.16,22.392 C59.208,22.5786667 59.2373333,22.7733333 59.248,22.976 C58.4373333,23.0613333 57.7413333,23.184 57.16,23.344 C56.5786667,23.504 56.0986667,23.7013333 55.72,23.936 C55.3413333,24.1706667 55.064,24.4506667 54.888,24.776 C54.712,25.1013333 54.624,25.472 54.624,25.888 C54.624,26.5813333 54.8373333,27.1386667 55.264,27.56 C55.6906667,27.9813333 56.2506667,28.192 56.944,28.192 Z M57.536,26.752 C57.2053333,26.752 56.9333333,26.672 56.72,26.512 C56.5066667,26.352 56.4,26.096 56.4,25.744 C56.4,25.552 56.448,25.3706667 56.544,25.2 C56.64,25.0293333 56.8,24.8773333 57.024,24.744 C57.248,24.6106667 57.5413333,24.4906667 57.904,24.384 C58.2666667,24.2773333 58.7146667,24.192 59.248,24.128 L59.248,24.128 L59.248,25.888 C58.9493333,26.1653333 58.6693333,26.3786667 58.408,26.528 C58.1466667,26.6773333 57.856,26.752 57.536,26.752 Z M65.136,28 L65.136,22.512 C65.4666667,22.192 65.7626667,21.9493333 66.024,21.784 C66.2853333,21.6186667 66.5866667,21.536 66.928,21.536 C67.3653333,21.536 67.68,21.6693333 67.872,21.936 C68.064,22.2026667 68.16,22.6613333 68.16,23.312 L68.16,23.312 L68.16,28 L70,28 L70,23.072 C70,22.0693333 69.808,21.2986667 69.424,20.76 C69.04,20.2213333 68.4266667,19.952 67.584,19.952 C67.04,19.952 66.5626667,20.0746667 66.152,20.32 C65.7413333,20.5653333 65.36,20.8586667 65.008,21.2 L65.008,21.2 L64.944,21.2 L64.816,20.144 L63.296,20.144 L63.296,28 L65.136,28 Z M75.472,28.192 C75.9626667,28.192 76.4346667,28.1013333 76.888,27.92 C77.3413333,27.7386667 77.7386667,27.472 78.08,27.12 C78.4213333,26.768 78.696,26.336 78.904,25.824 C79.112,25.312 79.216,24.7306667 79.216,24.08 C79.216,23.4293333 79.112,22.848 78.904,22.336 C78.696,21.824 78.4213333,21.392 78.08,21.04 C77.7386667,20.688 77.3413333,20.4186667 76.888,20.232 C76.4346667,20.0453333 75.9626667,19.952 75.472,19.952 C74.9813333,19.952 74.512,20.0453333 74.064,20.232 C73.616,20.4186667 73.2186667,20.688 72.872,21.04 C72.5253333,21.392 72.2506667,21.824 72.048,22.336 C71.8453333,22.848 71.744,23.4293333 71.744,24.08 C71.744,24.7306667 71.8453333,25.312 72.048,25.824 C72.2506667,26.336 72.5253333,26.768 72.872,27.12 C73.2186667,27.472 73.616,27.7386667 74.064,27.92 C74.512,28.1013333 74.9813333,28.192 75.472,28.192 Z M75.472,26.688 C74.896,26.688 74.4453333,26.4506667 74.12,25.976 C73.7946667,25.5013333 73.632,24.8693333 73.632,24.08 C73.632,23.28 73.7946667,22.6426667 74.12,22.168 C74.4453333,21.6933333 74.896,21.456 75.472,21.456 C76.048,21.456 76.5013333,21.6933333 76.832,22.168 C77.1626667,22.6426667 77.328,23.28 77.328,24.08 C77.328,24.8693333 77.1626667,25.5013333 76.832,25.976 C76.5013333,26.4506667 76.048,26.688 75.472,26.688 Z M83.456,28.192 C83.7653333,28.192 84.056,28.1626667 84.328,28.104 C84.6,28.0453333 84.8426667,27.9786667 85.056,27.904 L85.056,27.904 L84.736,26.544 C84.6186667,26.5973333 84.488,26.64 84.344,26.672 C84.2,26.704 84.0586667,26.72 83.92,26.72 C83.184,26.72 82.816,26.2613333 82.816,25.344 L82.816,25.344 L82.816,21.6 L84.816,21.6 L84.816,20.144 L82.816,20.144 L82.816,18 L81.28,18 L81.056,20.144 L79.84,20.224 L79.84,21.6 L80.96,21.6 L80.96,25.344 C80.96,25.7706667 81.0053333,26.1573333 81.096,26.504 C81.1866667,26.8506667 81.3306667,27.1493333 81.528,27.4 C81.7253333,27.6506667 81.9813333,27.8453333 82.296,27.984 C82.6106667,28.1226667 82.9973333,28.192 83.456,28.192 Z M88.304,28 L88.304,22.512 C88.6346667,22.192 88.9306667,21.9493333 89.192,21.784 C89.4533333,21.6186667 89.7546667,21.536 90.096,21.536 C90.5333333,21.536 90.848,21.6693333 91.04,21.936 C91.232,22.2026667 91.328,22.6613333 91.328,23.312 L91.328,23.312 L91.328,28 L93.168,28 L93.168,23.072 C93.168,22.0693333 92.976,21.2986667 92.592,20.76 C92.208,20.2213333 91.5946667,19.952 90.752,19.952 C90.208,19.952 89.736,20.072 89.336,20.312 C88.936,20.552 88.5706667,20.8266667 88.24,21.136 L88.24,21.136 L88.304,19.616 L88.304,16.704 L86.464,16.704 L86.464,28 L88.304,28 Z M98.752,28.192 C99.2533333,28.192 99.7333333,28.112 100.192,27.952 C100.650667,27.792 101.066667,27.5893333 101.44,27.344 L101.44,27.344 L100.816,26.192 C100.528,26.3733333 100.237333,26.5146667 99.944,26.616 C99.6506667,26.7173333 99.3333333,26.768 98.992,26.768 C98.352,26.768 97.8266667,26.5786667 97.416,26.2 C97.0053333,25.8213333 96.7573333,25.28 96.672,24.576 L96.672,24.576 L101.664,24.576 C101.685333,24.48 101.704,24.352 101.72,24.192 C101.736,24.032 101.744,23.8613333 101.744,23.68 C101.744,23.136 101.674667,22.6346667 101.536,22.176 C101.397333,21.7173333 101.192,21.3226667 100.92,20.992 C100.648,20.6613333 100.309333,20.4053333 99.904,20.224 C99.4986667,20.0426667 99.0293333,19.952 98.496,19.952 C98.0373333,19.952 97.5893333,20.048 97.152,20.24 C96.7146667,20.432 96.328,20.704 95.992,21.056 C95.656,21.408 95.3866667,21.84 95.184,22.352 C94.9813333,22.864 94.88,23.44 94.88,24.08 C94.88,24.7306667 94.9786667,25.3093333 95.176,25.816 C95.3733333,26.3226667 95.648,26.752 96,27.104 C96.352,27.456 96.7626667,27.7253333 97.232,27.912 C97.7013333,28.0986667 98.208,28.192 98.752,28.192 Z M100.144,23.328 L96.656,23.328 C96.7413333,22.688 96.96,22.2026667 97.312,21.872 C97.664,21.5413333 98.0746667,21.376 98.544,21.376 C99.088,21.376 99.4906667,21.5493333 99.752,21.896 C100.013333,22.2426667 100.144,22.72 100.144,23.328 L100.144,23.328 Z M105.344,28 L105.344,23.2 C105.589333,22.6026667 105.882667,22.184 106.224,21.944 C106.565333,21.704 106.890667,21.584 107.2,21.584 C107.370667,21.584 107.514667,21.5946667 107.632,21.616 C107.749333,21.6373333 107.877333,21.6693333 108.016,21.712 L108.016,21.712 L108.336,20.112 C108.112,20.0053333 107.813333,19.952 107.44,19.952 C107.024,19.952 106.618667,20.088 106.224,20.36 C105.829333,20.632 105.493333,21.024 105.216,21.536 L105.216,21.536 L105.152,21.536 L105.024,20.144 L103.504,20.144 L103.504,28 L105.344,28 Z M54.568,48.192 C55.112,48.192 55.584,48.0693333 55.984,47.824 C56.384,47.5786667 56.7546667,47.2533333 57.096,46.848 L57.096,46.848 L57.144,46.848 L57.288,48 L58.792,48 L58.792,40.144 L56.952,40.144 L56.952,45.52 C56.6533333,45.904 56.3733333,46.1813333 56.112,46.352 C55.8506667,46.5226667 55.5493333,46.608 55.208,46.608 C54.7813333,46.608 54.472,46.4746667 54.28,46.208 C54.088,45.9413333 53.992,45.4826667 53.992,44.832 L53.992,44.832 L53.992,40.144 L52.152,40.144 L52.152,45.072 C52.152,46.0746667 52.344,46.8453333 52.728,47.384 C53.112,47.9226667 53.7253333,48.192 54.568,48.192 Z M63.32,48.192 C63.8106667,48.192 64.248,48.128 64.632,48 C65.016,47.872 65.336,47.6986667 65.592,47.48 C65.848,47.2613333 66.0426667,47.0053333 66.176,46.712 C66.3093333,46.4186667 66.376,46.1013333 66.376,45.76 C66.376,45.3973333 66.3093333,45.0853333 66.176,44.824 C66.0426667,44.5626667 65.8666667,44.3413333 65.648,44.16 C65.4293333,43.9786667 65.1866667,43.8266667 64.92,43.704 C64.6533333,43.5813333 64.3866667,43.472 64.12,43.376 C63.9066667,43.3013333 63.7013333,43.2266667 63.504,43.152 C63.3066667,43.0773333 63.1333333,42.9973333 62.984,42.912 C62.8346667,42.8266667 62.7146667,42.728 62.624,42.616 C62.5333333,42.504 62.488,42.368 62.488,42.208 C62.488,41.9626667 62.5813333,41.7573333 62.768,41.592 C62.9546667,41.4266667 63.2453333,41.344 63.64,41.344 C63.9493333,41.344 64.2453333,41.4053333 64.528,41.528 C64.8106667,41.6506667 65.0906667,41.8133333 65.368,42.016 L65.368,42.016 L66.216,40.896 C65.896,40.6506667 65.5173333,40.432 65.08,40.24 C64.6426667,40.048 64.152,39.952 63.608,39.952 C62.7226667,39.952 62.024,40.1706667 61.512,40.608 C61,41.0453333 60.744,41.6106667 60.744,42.304 C60.744,42.6346667 60.8106667,42.92 60.944,43.16 C61.0773333,43.4 61.248,43.6106667 61.456,43.792 C61.664,43.9733333 61.9013333,44.128 62.168,44.256 C62.4346667,44.384 62.696,44.496 62.952,44.592 C63.1546667,44.6773333 63.3573333,44.76 63.56,44.84 C63.7626667,44.92 63.944,45.008 64.104,45.104 C64.264,45.2 64.392,45.3093333 64.488,45.432 C64.584,45.5546667 64.632,45.696 64.632,45.856 C64.632,46.1333333 64.5306667,46.36 64.328,46.536 C64.1253333,46.712 63.8106667,46.8 63.384,46.8 C62.9786667,46.8 62.6026667,46.7226667 62.256,46.568 C61.9093333,46.4133333 61.56,46.1973333 61.208,45.92 L61.208,45.92 L60.344,47.104 C60.728,47.4133333 61.184,47.672 61.712,47.88 C62.24,48.088 62.776,48.192 63.32,48.192 Z M71.384,48.192 C71.8853333,48.192 72.3653333,48.112 72.824,47.952 C73.2826667,47.792 73.6986667,47.5893333 74.072,47.344 L74.072,47.344 L73.448,46.192 C73.16,46.3733333 72.8693333,46.5146667 72.576,46.616 C72.2826667,46.7173333 71.9653333,46.768 71.624,46.768 C70.984,46.768 70.4586667,46.5786667 70.048,46.2 C69.6373333,45.8213333 69.3893333,45.28 69.304,44.576 L69.304,44.576 L74.296,44.576 C74.3173333,44.48 74.336,44.352 74.352,44.192 C74.368,44.032 74.376,43.8613333 74.376,43.68 C74.376,43.136 74.3066667,42.6346667 74.168,42.176 C74.0293333,41.7173333 73.824,41.3226667 73.552,40.992 C73.28,40.6613333 72.9413333,40.4053333 72.536,40.224 C72.1306667,40.0426667 71.6613333,39.952 71.128,39.952 C70.6693333,39.952 70.2213333,40.048 69.784,40.24 C69.3466667,40.432 68.96,40.704 68.624,41.056 C68.288,41.408 68.0186667,41.84 67.816,42.352 C67.6133333,42.864 67.512,43.44 67.512,44.08 C67.512,44.7306667 67.6106667,45.3093333 67.808,45.816 C68.0053333,46.3226667 68.28,46.752 68.632,47.104 C68.984,47.456 69.3946667,47.7253333 69.864,47.912 C70.3333333,48.0986667 70.84,48.192 71.384,48.192 Z M72.776,43.328 L69.288,43.328 C69.3733333,42.688 69.592,42.2026667 69.944,41.872 C70.296,41.5413333 70.7066667,41.376 71.176,41.376 C71.72,41.376 72.1226667,41.5493333 72.384,41.896 C72.6453333,42.2426667 72.776,42.72 72.776,43.328 L72.776,43.328 Z M77.976,48 L77.976,43.2 C78.2213333,42.6026667 78.5146667,42.184 78.856,41.944 C79.1973333,41.704 79.5226667,41.584 79.832,41.584 C80.0026667,41.584 80.1466667,41.5946667 80.264,41.616 C80.3813333,41.6373333 80.5093333,41.6693333 80.648,41.712 L80.648,41.712 L80.968,40.112 C80.744,40.0053333 80.4453333,39.952 80.072,39.952 C79.656,39.952 79.2506667,40.088 78.856,40.36 C78.4613333,40.632 78.1253333,41.024 77.848,41.536 L77.848,41.536 L77.784,41.536 L77.656,40.144 L76.136,40.144 L76.136,48 L77.976,48 Z" id="Addanotheruser" fill="#FFFFFF" fill-rule="nonzero"></path>
        </g>
    </g>
</svg>