<?xml version="1.0" encoding="utf-8"?>
<!-- Generator: Adobe Illustrator 24.0.3, SVG Export Plug-In . SVG Version: 6.00 Build 0)  -->
<svg version="1.1" id="Layer_1" xmlns="http://www.w3.org/2000/svg" xmlns:xlink="http://www.w3.org/1999/xlink" x="0px" y="0px"
	 viewBox="0 0 500 260" style="enable-background:new 0 0 500 260;" xml:space="preserve">
<style type="text/css">
	.st0{fill:#EE020A;}
	.st1{fill:#F5F5F5;}
	.st2{fill:#4B4B4B;}
</style>
<g>
	<rect y="0.1" class="st0" width="6" height="259.9"/>
</g>
<g>
	<rect x="6" y="-0.5" class="st1" width="495" height="261"/>
</g>
<g>
	<g>
		<g>
			<path class="st0" d="M33.9,11.7c-8.6,0-15.7,7-15.7,15.7S25.2,43,33.9,43s15.7-7,15.7-15.7S42.5,11.7,33.9,11.7z"/>
		</g>
	</g>
</g>
<g>
	<g>
		<rect x="23.9" y="25.7" transform="matrix(0.7071 -0.7071 0.7071 0.7071 -9.4 31.9959)" class="st1" width="20" height="3.3"/>
	</g>
	<g>
		<rect x="32.2" y="17.3" transform="matrix(0.7071 -0.7071 0.7071 0.7071 -9.3914 31.9166)" class="st1" width="3.3" height="20"/>
	</g>
</g>
<text transform="matrix(1 0 0 1 683 384)"><tspan x="0" y="0" style="font-family:'MyriadPro-Regular'; font-size:12px;">&lt;div class=&quot;grid&quot;&gt;</tspan><tspan x="0" y="14.4" style="font-family:'MyriadPro-Regular'; font-size:12px; letter-spacing:33;">					</tspan><tspan x="180" y="14.4" style="font-family:'MyriadPro-Regular'; font-size:12px;">&lt;div class=&quot;grid__col col-6@m&quot;&gt;</tspan><tspan x="0" y="28.8" style="font-family:'MyriadPro-Regular'; font-size:12px; letter-spacing:33;">						</tspan><tspan x="216" y="28.8" style="font-family:'MyriadPro-Regular'; font-size:12px;">&lt;img src=&quot;../img/do-weight.svg&quot; alt=&quot;Font weight example image&quot;&gt;</tspan><tspan x="0" y="43.2" style="font-family:'MyriadPro-Regular'; font-size:12px; letter-spacing:33;">					</tspan><tspan x="180" y="43.2" style="font-family:'MyriadPro-Regular'; font-size:12px;">&lt;/div&gt;</tspan><tspan x="0" y="57.6" style="font-family:'MyriadPro-Regular'; font-size:12px; letter-spacing:33;">					</tspan><tspan x="180" y="57.6" style="font-family:'MyriadPro-Regular'; font-size:12px;">&lt;div class=&quot;grid__col col-6@m&quot;&gt;</tspan><tspan x="0" y="72" style="font-family:'MyriadPro-Regular'; font-size:12px; letter-spacing:33;">						</tspan><tspan x="216" y="72" style="font-family:'MyriadPro-Regular'; font-size:12px;">&lt;img src=&quot;../img/dont-weight.svg&quot; alt=&quot;Font weight example image&quot;&gt;</tspan><tspan x="0" y="86.4" style="font-family:'MyriadPro-Regular'; font-size:12px; letter-spacing:33;">					</tspan><tspan x="180" y="86.4" style="font-family:'MyriadPro-Regular'; font-size:12px;">&lt;/div&gt;</tspan><tspan x="0" y="100.8" style="font-family:'MyriadPro-Regular'; font-size:12px; letter-spacing:33;">				</tspan><tspan x="144" y="100.8" style="font-family:'MyriadPro-Regular'; font-size:12px;">&lt;/div&gt;</tspan></text>
<text transform="matrix(1 0 0 1 683 384)"><tspan x="0" y="0" style="font-family:'MyriadPro-Regular'; font-size:12px;">&lt;div class=&quot;grid&quot;&gt;</tspan><tspan x="0" y="14.4" style="font-family:'MyriadPro-Regular'; font-size:12px; letter-spacing:33;">					</tspan><tspan x="180" y="14.4" style="font-family:'MyriadPro-Regular'; font-size:12px;">&lt;div class=&quot;grid__col col-6@m&quot;&gt;</tspan><tspan x="0" y="28.8" style="font-family:'MyriadPro-Regular'; font-size:12px; letter-spacing:33;">						</tspan><tspan x="216" y="28.8" style="font-family:'MyriadPro-Regular'; font-size:12px;">&lt;img src=&quot;../img/do-weight.svg&quot; alt=&quot;Font weight example image&quot;&gt;</tspan><tspan x="0" y="43.2" style="font-family:'MyriadPro-Regular'; font-size:12px; letter-spacing:33;">					</tspan><tspan x="180" y="43.2" style="font-family:'MyriadPro-Regular'; font-size:12px;">&lt;/div&gt;</tspan><tspan x="0" y="57.6" style="font-family:'MyriadPro-Regular'; font-size:12px; letter-spacing:33;">					</tspan><tspan x="180" y="57.6" style="font-family:'MyriadPro-Regular'; font-size:12px;">&lt;div class=&quot;grid__col col-6@m&quot;&gt;</tspan><tspan x="0" y="72" style="font-family:'MyriadPro-Regular'; font-size:12px; letter-spacing:33;">						</tspan><tspan x="216" y="72" style="font-family:'MyriadPro-Regular'; font-size:12px;">&lt;img src=&quot;../img/dont-weight.svg&quot; alt=&quot;Font weight example image&quot;&gt;</tspan><tspan x="0" y="86.4" style="font-family:'MyriadPro-Regular'; font-size:12px; letter-spacing:33;">					</tspan><tspan x="180" y="86.4" style="font-family:'MyriadPro-Regular'; font-size:12px;">&lt;/div&gt;</tspan><tspan x="0" y="100.8" style="font-family:'MyriadPro-Regular'; font-size:12px; letter-spacing:33;">				</tspan><tspan x="144" y="100.8" style="font-family:'MyriadPro-Regular'; font-size:12px;">&lt;/div&gt;</tspan></text>
<g>
	<path class="st2" d="M77.2,63.6L75,53.1h1.4l1.1,5.7c0.1,0.6,0.2,1.1,0.3,1.7s0.2,1.1,0.3,1.7h0.1c0.1-0.6,0.2-1.1,0.4-1.7
		c0.1-0.6,0.3-1.1,0.4-1.7l1.5-5.7h1.2l1.5,5.7c0.1,0.6,0.3,1.1,0.4,1.7s0.3,1.1,0.4,1.7h0.1c0.1-0.6,0.2-1.1,0.3-1.7
		c0.1-0.6,0.2-1.1,0.3-1.7l1.1-5.7h1.3l-2.2,10.5H83l-1.6-6.3c-0.1-0.4-0.2-0.8-0.3-1.2c-0.1-0.4-0.2-0.8-0.2-1.2h-0.1
		c-0.1,0.4-0.2,0.8-0.3,1.2c-0.1,0.4-0.2,0.8-0.3,1.2l-1.6,6.3H77.2z"/>
	<path class="st2" d="M88.6,63.6V53.1h6v1.1h-4.7v3.3h4v1.1h-4v3.8h4.9v1.1H88.6z"/>
	<path class="st2" d="M104,63.8c-0.5,0-1-0.1-1.5-0.2c-0.5-0.2-0.9-0.4-1.2-0.8c-0.3-0.4-0.6-0.8-0.8-1.4c-0.2-0.6-0.3-1.3-0.3-2.1
		v-6.2h1.3v6.2c0,0.6,0.1,1.2,0.2,1.6c0.1,0.4,0.3,0.8,0.5,1c0.2,0.3,0.5,0.4,0.8,0.6c0.3,0.1,0.6,0.2,1,0.2c0.4,0,0.7-0.1,1-0.2
		c0.3-0.1,0.6-0.3,0.8-0.6c0.2-0.3,0.4-0.6,0.5-1c0.1-0.4,0.2-1,0.2-1.6v-6.2h1.3v6.2c0,0.8-0.1,1.6-0.3,2.1s-0.5,1-0.8,1.4
		c-0.3,0.4-0.7,0.6-1.2,0.8S104.5,63.8,104,63.8z"/>
	<path class="st2" d="M113.3,63.8c-0.7,0-1.4-0.1-2-0.4c-0.6-0.3-1.2-0.7-1.6-1.1l0.8-0.9c0.4,0.4,0.8,0.7,1.3,1
		c0.5,0.2,1,0.4,1.6,0.4c0.7,0,1.2-0.2,1.6-0.5c0.4-0.3,0.6-0.7,0.6-1.2c0-0.3,0-0.5-0.1-0.7c-0.1-0.2-0.2-0.3-0.4-0.5
		c-0.2-0.1-0.3-0.3-0.6-0.4c-0.2-0.1-0.4-0.2-0.7-0.3l-1.5-0.7c-0.2-0.1-0.5-0.2-0.8-0.4s-0.5-0.3-0.7-0.5s-0.4-0.5-0.5-0.8
		c-0.1-0.3-0.2-0.6-0.2-1c0-0.4,0.1-0.8,0.2-1.1c0.2-0.3,0.4-0.6,0.7-0.9c0.3-0.3,0.6-0.4,1-0.6c0.4-0.1,0.8-0.2,1.3-0.2
		c0.6,0,1.2,0.1,1.7,0.4c0.5,0.2,1,0.6,1.4,0.9l-0.7,0.9c-0.3-0.3-0.7-0.6-1.1-0.7c-0.4-0.2-0.8-0.3-1.3-0.3c-0.6,0-1.1,0.1-1.4,0.4
		s-0.5,0.6-0.5,1.1c0,0.3,0.1,0.5,0.2,0.6c0.1,0.2,0.2,0.3,0.4,0.5c0.2,0.1,0.4,0.3,0.6,0.4c0.2,0.1,0.4,0.2,0.6,0.3l1.5,0.6
		c0.3,0.1,0.6,0.3,0.8,0.4c0.3,0.2,0.5,0.4,0.7,0.6s0.3,0.5,0.5,0.8s0.2,0.6,0.2,1c0,0.4-0.1,0.8-0.2,1.2s-0.4,0.7-0.7,1
		c-0.3,0.3-0.7,0.5-1.1,0.6S113.9,63.8,113.3,63.8z"/>
	<path class="st2" d="M118.9,63.6V53.1h6v1.1h-4.7v3.3h4v1.1h-4v3.8h4.9v1.1H118.9z"/>
	<path class="st2" d="M132.7,63.6v-9.4h-3.2v-1.1h7.7v1.1h-3.2v9.4H132.7z"/>
	<path class="st2" d="M139.1,63.6V53.1h1.3v4.4h4.9v-4.4h1.3v10.5h-1.3v-4.9h-4.9v4.9H139.1z"/>
	<path class="st2" d="M149.6,63.6V53.1h6v1.1h-4.7v3.3h4v1.1h-4v3.8h4.9v1.1H149.6z"/>
	<path class="st2" d="M161.2,63.6V53.1h3c0.6,0,1.1,0.1,1.6,0.2s0.9,0.3,1.2,0.5c0.3,0.2,0.6,0.6,0.8,1s0.3,0.9,0.3,1.5
		c0,0.6-0.1,1-0.3,1.4s-0.5,0.7-0.8,1s-0.7,0.5-1.2,0.6s-1,0.2-1.6,0.2h-1.7v4.2H161.2z M162.5,58.4h1.6c0.9,0,1.6-0.2,2-0.5
		c0.4-0.3,0.7-0.9,0.7-1.6c0-0.8-0.2-1.3-0.7-1.6c-0.5-0.3-1.2-0.4-2.1-0.4h-1.5V58.4z"/>
	<path class="st2" d="M174.1,63.8c-0.7,0-1.3-0.1-1.8-0.4c-0.5-0.3-1-0.6-1.4-1.1c-0.4-0.5-0.7-1.1-0.9-1.7
		c-0.2-0.7-0.3-1.4-0.3-2.3s0.1-1.6,0.3-2.3c0.2-0.7,0.5-1.2,0.9-1.7c0.4-0.5,0.9-0.8,1.4-1.1c0.5-0.2,1.2-0.4,1.8-0.4
		c0.7,0,1.3,0.1,1.8,0.4c0.5,0.3,1,0.6,1.4,1.1c0.4,0.5,0.7,1,0.9,1.7s0.3,1.4,0.3,2.2c0,0.8-0.1,1.6-0.3,2.3
		c-0.2,0.7-0.5,1.3-0.9,1.7c-0.4,0.5-0.9,0.8-1.4,1.1C175.4,63.7,174.8,63.8,174.1,63.8z M174.1,62.7c0.5,0,0.9-0.1,1.3-0.3
		c0.4-0.2,0.7-0.5,1-0.9s0.5-0.8,0.6-1.4c0.1-0.5,0.2-1.1,0.2-1.8c0-0.7-0.1-1.2-0.2-1.8c-0.1-0.5-0.4-1-0.6-1.3
		c-0.3-0.4-0.6-0.6-1-0.8c-0.4-0.2-0.8-0.3-1.3-0.3c-0.5,0-0.9,0.1-1.3,0.3c-0.4,0.2-0.7,0.5-1,0.8c-0.3,0.4-0.5,0.8-0.6,1.3
		c-0.1,0.5-0.2,1.1-0.2,1.8c0,0.7,0.1,1.3,0.2,1.8c0.1,0.5,0.4,1,0.6,1.4s0.6,0.7,1,0.9C173.2,62.5,173.7,62.7,174.1,62.7z"/>
	<path class="st2" d="M181.9,63.6l-2.2-10.5h1.4l1.1,5.7c0.1,0.6,0.2,1.1,0.3,1.7s0.2,1.1,0.3,1.7h0.1c0.1-0.6,0.2-1.1,0.4-1.7
		c0.1-0.6,0.3-1.1,0.4-1.7l1.5-5.7h1.2l1.5,5.7c0.1,0.6,0.3,1.1,0.4,1.7s0.3,1.1,0.4,1.7h0.1c0.1-0.6,0.2-1.1,0.3-1.7
		c0.1-0.6,0.2-1.1,0.3-1.7l1.1-5.7h1.3l-2.2,10.5h-1.6l-1.6-6.3c-0.1-0.4-0.2-0.8-0.3-1.2c-0.1-0.4-0.2-0.8-0.2-1.2h-0.1
		c-0.1,0.4-0.2,0.8-0.3,1.2c-0.1,0.4-0.2,0.8-0.3,1.2l-1.6,6.3H181.9z"/>
	<path class="st2" d="M193.4,63.6V53.1h6v1.1h-4.7v3.3h4v1.1h-4v3.8h4.9v1.1H193.4z"/>
	<path class="st2" d="M201.8,63.6V53.1h3.3c0.5,0,1,0.1,1.5,0.2c0.5,0.1,0.8,0.3,1.2,0.5c0.3,0.2,0.6,0.5,0.8,0.9
		c0.2,0.4,0.3,0.8,0.3,1.4c0,0.8-0.2,1.5-0.6,2s-1,0.8-1.7,1l2.7,4.6h-1.5l-2.5-4.4h-1.9v4.4H201.8z M203.1,58.1h1.8
		c0.8,0,1.5-0.2,1.9-0.5c0.4-0.3,0.7-0.8,0.7-1.5c0-0.7-0.2-1.2-0.7-1.5c-0.4-0.3-1.1-0.4-1.9-0.4h-1.8V58.1z"/>
	<path class="st2" d="M218,63.8c-0.7,0-1.3-0.1-1.8-0.4c-0.5-0.3-1-0.6-1.4-1.1c-0.4-0.5-0.7-1.1-0.9-1.7c-0.2-0.7-0.3-1.4-0.3-2.3
		s0.1-1.6,0.3-2.3c0.2-0.7,0.5-1.2,0.9-1.7c0.4-0.5,0.9-0.8,1.4-1.1c0.5-0.2,1.2-0.4,1.8-0.4c0.7,0,1.3,0.1,1.8,0.4
		c0.5,0.3,1,0.6,1.4,1.1c0.4,0.5,0.7,1,0.9,1.7s0.3,1.4,0.3,2.2c0,0.8-0.1,1.6-0.3,2.3c-0.2,0.7-0.5,1.3-0.9,1.7
		c-0.4,0.5-0.9,0.8-1.4,1.1C219.2,63.7,218.6,63.8,218,63.8z M218,62.7c0.5,0,0.9-0.1,1.3-0.3c0.4-0.2,0.7-0.5,1-0.9
		s0.5-0.8,0.6-1.4c0.1-0.5,0.2-1.1,0.2-1.8c0-0.7-0.1-1.2-0.2-1.8c-0.1-0.5-0.4-1-0.6-1.3c-0.3-0.4-0.6-0.6-1-0.8
		c-0.4-0.2-0.8-0.3-1.3-0.3c-0.5,0-0.9,0.1-1.3,0.3c-0.4,0.2-0.7,0.5-1,0.8c-0.3,0.4-0.5,0.8-0.6,1.3c-0.1,0.5-0.2,1.1-0.2,1.8
		c0,0.7,0.1,1.3,0.2,1.8c0.1,0.5,0.4,1,0.6,1.4s0.6,0.7,1,0.9C217.1,62.5,217.5,62.7,218,62.7z"/>
	<path class="st2" d="M224.7,63.6V53.1h6v1.1h-4.7v3.6h4v1.1h-4v4.7H224.7z"/>
	<path class="st2" d="M235.8,63.6V53.1h2.6c1.6,0,2.9,0.4,3.7,1.3c0.8,0.9,1.3,2.2,1.3,3.9c0,0.8-0.1,1.6-0.3,2.2
		c-0.2,0.7-0.5,1.2-0.9,1.7c-0.4,0.5-0.9,0.8-1.5,1c-0.6,0.2-1.3,0.4-2.1,0.4H235.8z M237.2,62.5h1.2c1.2,0,2.1-0.4,2.8-1.1
		c0.6-0.7,0.9-1.8,0.9-3.1s-0.3-2.4-0.9-3.1c-0.6-0.7-1.5-1.1-2.8-1.1h-1.2V62.5z"/>
	<path class="st2" d="M244.1,63.6l3.6-10.5h1.5l3.6,10.5h-1.4l-1-3.2h-3.8l-1,3.2H244.1z M247.3,57.8l-0.5,1.6h3.2l-0.5-1.6
		c-0.2-0.6-0.4-1.2-0.5-1.8c-0.2-0.6-0.3-1.2-0.5-1.8h-0.1c-0.2,0.6-0.3,1.2-0.5,1.8C247.7,56.6,247.5,57.2,247.3,57.8z"/>
	<path class="st2" d="M255.5,63.6v-9.4h-3.2v-1.1h7.7v1.1h-3.2v9.4H255.5z"/>
	<path class="st2" d="M259.9,63.6l3.6-10.5h1.5l3.6,10.5h-1.4l-1-3.2h-3.8l-1,3.2H259.9z M263.1,57.8l-0.5,1.6h3.2l-0.5-1.6
		c-0.2-0.6-0.4-1.2-0.5-1.8c-0.2-0.6-0.3-1.2-0.5-1.8h-0.1c-0.2,0.6-0.3,1.2-0.5,1.8C263.4,56.6,263.3,57.2,263.1,57.8z"/>
	<path class="st2" d="M271.8,63.6l3.6-10.5h1.5l3.6,10.5H279l-1-3.2h-3.8l-1,3.2H271.8z M275,57.8l-0.5,1.6h3.2l-0.5-1.6
		c-0.2-0.6-0.4-1.2-0.5-1.8c-0.2-0.6-0.3-1.2-0.5-1.8H276c-0.2,0.6-0.3,1.2-0.5,1.8C275.4,56.6,275.2,57.2,275,57.8z"/>
	<path class="st2" d="M281.9,63.6V53.1h1.4l3.8,6.6l1.1,2.2h0.1c0-0.5-0.1-1.1-0.1-1.7c0-0.6-0.1-1.1-0.1-1.7v-5.4h1.3v10.5H288
		l-3.8-6.6l-1.1-2.2H283c0,0.5,0.1,1.1,0.1,1.6c0,0.5,0.1,1.1,0.1,1.7v5.5H281.9z"/>
	<path class="st2" d="M292.2,63.6V53.1h2.6c1.6,0,2.9,0.4,3.7,1.3s1.3,2.2,1.3,3.9c0,0.8-0.1,1.6-0.3,2.2c-0.2,0.7-0.5,1.2-0.9,1.7
		c-0.4,0.5-0.9,0.8-1.5,1c-0.6,0.2-1.3,0.4-2.1,0.4H292.2z M293.6,62.5h1.2c1.2,0,2.1-0.4,2.8-1.1c0.6-0.7,0.9-1.8,0.9-3.1
		s-0.3-2.4-0.9-3.1s-1.5-1.1-2.8-1.1h-1.2V62.5z"/>
	<path class="st2" d="M303.9,63.6l3.6-10.5h1.5l3.6,10.5h-1.4l-1-3.2h-3.8l-1,3.2H303.9z M307.1,57.8l-0.5,1.6h3.2l-0.5-1.6
		c-0.2-0.6-0.4-1.2-0.5-1.8c-0.2-0.6-0.3-1.2-0.5-1.8h-0.1c-0.2,0.6-0.3,1.2-0.5,1.8C307.4,56.6,307.3,57.2,307.1,57.8z"/>
	<path class="st2" d="M314,63.6V53.1h2.6c1.6,0,2.9,0.4,3.7,1.3s1.3,2.2,1.3,3.9c0,0.8-0.1,1.6-0.3,2.2c-0.2,0.7-0.5,1.2-0.9,1.7
		c-0.4,0.5-0.9,0.8-1.5,1c-0.6,0.2-1.3,0.4-2.1,0.4H314z M315.3,62.5h1.2c1.2,0,2.1-0.4,2.8-1.1c0.6-0.7,0.9-1.8,0.9-3.1
		s-0.3-2.4-0.9-3.1s-1.5-1.1-2.8-1.1h-1.2V62.5z"/>
	<path class="st2" d="M325.6,63.6l-3.4-10.5h1.4l1.7,5.7c0.2,0.6,0.4,1.2,0.5,1.7c0.1,0.5,0.3,1.1,0.5,1.7h0.1
		c0.2-0.6,0.4-1.2,0.5-1.7s0.3-1.1,0.5-1.7l1.7-5.7h1.4l-3.3,10.5H325.6z"/>
	<path class="st2" d="M330.3,63.6l3.6-10.5h1.5l3.6,10.5h-1.4l-1-3.2h-3.8l-1,3.2H330.3z M333.5,57.8l-0.5,1.6h3.2l-0.5-1.6
		c-0.2-0.6-0.4-1.2-0.5-1.8c-0.2-0.6-0.3-1.2-0.5-1.8h-0.1c-0.2,0.6-0.3,1.2-0.5,1.8C333.8,56.6,333.7,57.2,333.5,57.8z"/>
	<path class="st2" d="M340.4,63.6V53.1h1.4l3.8,6.6l1.1,2.2h0.1c0-0.5-0.1-1.1-0.1-1.7c0-0.6-0.1-1.1-0.1-1.7v-5.4h1.3v10.5h-1.4
		l-3.8-6.6l-1.1-2.2h-0.1c0,0.5,0.1,1.1,0.1,1.6c0,0.5,0.1,1.1,0.1,1.7v5.5H340.4z"/>
	<path class="st2" d="M354.7,63.8c-0.7,0-1.3-0.1-1.8-0.4c-0.6-0.2-1-0.6-1.4-1.1c-0.4-0.5-0.7-1-1-1.7c-0.2-0.7-0.3-1.4-0.3-2.3
		c0-0.8,0.1-1.6,0.4-2.3c0.2-0.7,0.6-1.2,1-1.7s0.9-0.8,1.5-1.1c0.6-0.3,1.2-0.4,1.9-0.4c0.6,0,1.2,0.1,1.7,0.4s0.9,0.6,1.2,0.9
		l-0.7,0.9c-0.3-0.3-0.6-0.5-0.9-0.7c-0.4-0.2-0.8-0.3-1.2-0.3c-0.5,0-1,0.1-1.4,0.3c-0.4,0.2-0.8,0.5-1,0.8
		c-0.3,0.4-0.5,0.8-0.7,1.3c-0.2,0.5-0.2,1.1-0.2,1.8c0,0.7,0.1,1.3,0.2,1.8c0.2,0.5,0.4,1,0.6,1.4c0.3,0.4,0.6,0.7,1,0.9
		c0.4,0.2,0.9,0.3,1.4,0.3c0.5,0,1-0.1,1.3-0.3s0.7-0.5,1.1-0.9l0.7,0.8c-0.4,0.5-0.9,0.9-1.4,1.1S355.4,63.8,354.7,63.8z"/>
	<path class="st2" d="M359.9,63.6V53.1h6v1.1h-4.7v3.3h4v1.1h-4v3.8h4.9v1.1H359.9z"/>
	<path class="st2" d="M368.3,63.6V53.1h2.6c1.6,0,2.9,0.4,3.7,1.3s1.3,2.2,1.3,3.9c0,0.8-0.1,1.6-0.3,2.2c-0.2,0.7-0.5,1.2-0.9,1.7
		c-0.4,0.5-0.9,0.8-1.5,1c-0.6,0.2-1.3,0.4-2.1,0.4H368.3z M369.6,62.5h1.2c1.2,0,2.1-0.4,2.8-1.1c0.6-0.7,0.9-1.8,0.9-3.1
		s-0.3-2.4-0.9-3.1s-1.5-1.1-2.8-1.1h-1.2V62.5z"/>
	<path class="st2" d="M379.9,63.6l3.6-10.5h1.5l3.6,10.5h-1.4l-1-3.2h-3.8l-1,3.2H379.9z M383.1,57.8l-0.5,1.6h3.2l-0.5-1.6
		c-0.2-0.6-0.4-1.2-0.5-1.8c-0.2-0.6-0.3-1.2-0.5-1.8h-0.1c-0.2,0.6-0.3,1.2-0.5,1.8C383.5,56.6,383.3,57.2,383.1,57.8z"/>
	<path class="st2" d="M390,63.6V53.1h1.4l3.8,6.6l1.1,2.2h0.1c0-0.5-0.1-1.1-0.1-1.7c0-0.6-0.1-1.1-0.1-1.7v-5.4h1.3v10.5h-1.4
		l-3.8-6.6l-1.1-2.2h-0.1c0,0.5,0.1,1.1,0.1,1.6c0,0.5,0.1,1.1,0.1,1.7v5.5H390z"/>
	<path class="st2" d="M399,63.6l3.6-10.5h1.5l3.6,10.5h-1.4l-1-3.2h-3.8l-1,3.2H399z M402.2,57.8l-0.5,1.6h3.2l-0.5-1.6
		c-0.2-0.6-0.4-1.2-0.5-1.8c-0.2-0.6-0.3-1.2-0.5-1.8h-0.1c-0.2,0.6-0.3,1.2-0.5,1.8C402.6,56.6,402.4,57.2,402.2,57.8z"/>
	<path class="st2" d="M409.1,63.6V53.1h1.3v9.4h4.6v1.1H409.1z"/>
	<path class="st2" d="M417.3,63.6v-4.1l-3.2-6.4h1.4l1.4,3c0.2,0.4,0.3,0.8,0.5,1.1s0.3,0.8,0.5,1.2h0.1c0.2-0.4,0.4-0.8,0.5-1.2
		s0.4-0.8,0.5-1.1l1.3-3h1.4l-3.2,6.4v4.1H417.3z"/>
	<path class="st2" d="M425.2,63.6v-9.4h-3.2v-1.1h7.7v1.1h-3.2v9.4H425.2z"/>
	<path class="st2" d="M431.6,63.6V53.1h1.3v10.5H431.6z"/>
	<path class="st2" d="M439.8,63.8c-0.7,0-1.3-0.1-1.8-0.4c-0.6-0.2-1-0.6-1.4-1.1c-0.4-0.5-0.7-1-1-1.7c-0.2-0.7-0.3-1.4-0.3-2.3
		c0-0.8,0.1-1.6,0.4-2.3c0.2-0.7,0.6-1.2,1-1.7s0.9-0.8,1.5-1.1c0.6-0.3,1.2-0.4,1.9-0.4c0.6,0,1.2,0.1,1.7,0.4s0.9,0.6,1.2,0.9
		l-0.7,0.9c-0.3-0.3-0.6-0.5-0.9-0.7c-0.4-0.2-0.8-0.3-1.2-0.3c-0.5,0-1,0.1-1.4,0.3c-0.4,0.2-0.8,0.5-1,0.8
		c-0.3,0.4-0.5,0.8-0.7,1.3c-0.2,0.5-0.2,1.1-0.2,1.8c0,0.7,0.1,1.3,0.2,1.8c0.2,0.5,0.4,1,0.6,1.4c0.3,0.4,0.6,0.7,1,0.9
		c0.4,0.2,0.9,0.3,1.4,0.3c0.5,0,1-0.1,1.3-0.3s0.7-0.5,1.1-0.9l0.7,0.8c-0.4,0.5-0.9,0.9-1.4,1.1S440.5,63.8,439.8,63.8z"/>
	<path class="st2" d="M447.5,63.8c-0.7,0-1.4-0.1-2-0.4c-0.6-0.3-1.2-0.7-1.6-1.1l0.8-0.9c0.4,0.4,0.8,0.7,1.3,1
		c0.5,0.2,1,0.4,1.6,0.4c0.7,0,1.2-0.2,1.6-0.5c0.4-0.3,0.6-0.7,0.6-1.2c0-0.3,0-0.5-0.1-0.7c-0.1-0.2-0.2-0.3-0.4-0.5
		c-0.2-0.1-0.3-0.3-0.6-0.4c-0.2-0.1-0.4-0.2-0.7-0.3l-1.5-0.7c-0.2-0.1-0.5-0.2-0.8-0.4c-0.3-0.1-0.5-0.3-0.7-0.5
		c-0.2-0.2-0.4-0.5-0.5-0.8c-0.1-0.3-0.2-0.6-0.2-1c0-0.4,0.1-0.8,0.2-1.1c0.2-0.3,0.4-0.6,0.7-0.9c0.3-0.3,0.6-0.4,1-0.6
		c0.4-0.1,0.8-0.2,1.3-0.2c0.6,0,1.2,0.1,1.7,0.4c0.5,0.2,1,0.6,1.4,0.9l-0.7,0.9c-0.3-0.3-0.7-0.6-1.1-0.7
		c-0.4-0.2-0.8-0.3-1.3-0.3c-0.6,0-1.1,0.1-1.4,0.4c-0.4,0.3-0.5,0.6-0.5,1.1c0,0.3,0,0.5,0.2,0.6c0.1,0.2,0.2,0.3,0.4,0.5
		c0.2,0.1,0.4,0.3,0.6,0.4c0.2,0.1,0.4,0.2,0.6,0.3l1.5,0.6c0.3,0.1,0.6,0.3,0.8,0.4c0.3,0.2,0.5,0.4,0.7,0.6s0.3,0.5,0.5,0.8
		s0.2,0.6,0.2,1c0,0.4-0.1,0.8-0.2,1.2s-0.4,0.7-0.7,1s-0.7,0.5-1.1,0.6S448,63.8,447.5,63.8z"/>
	<path class="st2" d="M78.2,87.6v-9.4H75v-1.1h7.7v1.1h-3.2v9.4H78.2z"/>
	<path class="st2" d="M88.1,87.8c-0.7,0-1.3-0.1-1.8-0.4c-0.5-0.3-1-0.6-1.4-1.1c-0.4-0.5-0.7-1.1-0.9-1.7c-0.2-0.7-0.3-1.4-0.3-2.3
		s0.1-1.6,0.3-2.3c0.2-0.7,0.5-1.2,0.9-1.7c0.4-0.5,0.9-0.8,1.4-1.1c0.5-0.2,1.2-0.4,1.8-0.4c0.7,0,1.3,0.1,1.8,0.4
		c0.5,0.3,1,0.6,1.4,1.1c0.4,0.5,0.7,1,0.9,1.7s0.3,1.4,0.3,2.2c0,0.8-0.1,1.6-0.3,2.3c-0.2,0.7-0.5,1.3-0.9,1.7
		c-0.4,0.5-0.9,0.8-1.4,1.1C89.4,87.7,88.7,87.8,88.1,87.8z M88.1,86.7c0.5,0,0.9-0.1,1.3-0.3c0.4-0.2,0.7-0.5,1-0.9
		s0.5-0.8,0.6-1.4c0.1-0.5,0.2-1.1,0.2-1.8c0-0.7-0.1-1.2-0.2-1.8c-0.1-0.5-0.4-1-0.6-1.3c-0.3-0.4-0.6-0.6-1-0.8
		c-0.4-0.2-0.8-0.3-1.3-0.3c-0.5,0-0.9,0.1-1.3,0.3c-0.4,0.2-0.7,0.5-1,0.8c-0.3,0.4-0.5,0.8-0.6,1.3c-0.1,0.5-0.2,1.1-0.2,1.8
		c0,0.7,0.1,1.3,0.2,1.8c0.1,0.5,0.4,1,0.6,1.4s0.6,0.7,1,0.9C87.2,86.5,87.6,86.7,88.1,86.7z"/>
	<path class="st2" d="M98,87.6V77.1h1.3v4.4h4.9v-4.4h1.3v10.5h-1.3v-4.9h-4.9v4.9H98z"/>
	<path class="st2" d="M108.5,87.6V77.1h6v1.1h-4.7v3.3h4v1.1h-4v3.8h4.9v1.1H108.5z"/>
	<path class="st2" d="M116.9,87.6V77.1h1.3v9.4h4.6v1.1H116.9z"/>
	<path class="st2" d="M124.7,87.6V77.1h3c0.6,0,1.1,0.1,1.6,0.2s0.9,0.3,1.2,0.5c0.3,0.2,0.6,0.6,0.8,1s0.3,0.9,0.3,1.5
		c0,0.6-0.1,1-0.3,1.4s-0.5,0.7-0.8,1s-0.7,0.5-1.2,0.6s-1,0.2-1.6,0.2H126v4.2H124.7z M126,82.4h1.6c0.9,0,1.6-0.2,2-0.5
		c0.4-0.3,0.7-0.9,0.7-1.6c0-0.8-0.2-1.3-0.7-1.6c-0.5-0.3-1.2-0.4-2.1-0.4H126V82.4z"/>
	<path class="st2" d="M140.8,87.8c-0.7,0-1.3-0.1-1.8-0.4c-0.5-0.3-1-0.6-1.4-1.1c-0.4-0.5-0.7-1.1-0.9-1.7
		c-0.2-0.7-0.3-1.4-0.3-2.3s0.1-1.6,0.3-2.3c0.2-0.7,0.5-1.2,0.9-1.7c0.4-0.5,0.9-0.8,1.4-1.1c0.5-0.2,1.2-0.4,1.8-0.4
		c0.7,0,1.3,0.1,1.8,0.4c0.5,0.3,1,0.6,1.4,1.1c0.4,0.5,0.7,1,0.9,1.7s0.3,1.4,0.3,2.2c0,0.8-0.1,1.6-0.3,2.3
		c-0.2,0.7-0.5,1.3-0.9,1.7c-0.4,0.5-0.9,0.8-1.4,1.1C142.1,87.7,141.5,87.8,140.8,87.8z M140.8,86.7c0.5,0,0.9-0.1,1.3-0.3
		c0.4-0.2,0.7-0.5,1-0.9s0.5-0.8,0.6-1.4c0.1-0.5,0.2-1.1,0.2-1.8c0-0.7-0.1-1.2-0.2-1.8c-0.1-0.5-0.4-1-0.6-1.3
		c-0.3-0.4-0.6-0.6-1-0.8c-0.4-0.2-0.8-0.3-1.3-0.3c-0.5,0-0.9,0.1-1.3,0.3c-0.4,0.2-0.7,0.5-1,0.8c-0.3,0.4-0.5,0.8-0.6,1.3
		c-0.1,0.5-0.2,1.1-0.2,1.8c0,0.7,0.1,1.3,0.2,1.8c0.1,0.5,0.4,1,0.6,1.4s0.6,0.7,1,0.9C139.9,86.5,140.3,86.7,140.8,86.7z"/>
	<path class="st2" d="M151.3,87.8c-0.5,0-1-0.1-1.5-0.2c-0.5-0.2-0.9-0.4-1.2-0.8c-0.3-0.4-0.6-0.8-0.8-1.4
		c-0.2-0.6-0.3-1.3-0.3-2.1v-6.2h1.3v6.2c0,0.6,0.1,1.2,0.2,1.6c0.1,0.4,0.3,0.8,0.5,1c0.2,0.3,0.5,0.4,0.8,0.6
		c0.3,0.1,0.6,0.2,1,0.2c0.4,0,0.7-0.1,1-0.2c0.3-0.1,0.6-0.3,0.8-0.6c0.2-0.3,0.4-0.6,0.5-1c0.1-0.4,0.2-1,0.2-1.6v-6.2h1.3v6.2
		c0,0.8-0.1,1.6-0.3,2.1s-0.5,1-0.8,1.4c-0.3,0.4-0.7,0.6-1.2,0.8S151.8,87.8,151.3,87.8z"/>
	<path class="st2" d="M157.9,87.6V77.1h3.3c0.5,0,1,0.1,1.5,0.2c0.5,0.1,0.8,0.3,1.2,0.5c0.3,0.2,0.6,0.5,0.8,0.9
		c0.2,0.4,0.3,0.8,0.3,1.4c0,0.8-0.2,1.5-0.6,2s-1,0.8-1.7,1l2.7,4.6h-1.5l-2.5-4.4h-1.9v4.4H157.9z M159.2,82.1h1.8
		c0.8,0,1.5-0.2,1.9-0.5c0.4-0.3,0.7-0.8,0.7-1.5c0-0.7-0.2-1.2-0.7-1.5c-0.4-0.3-1.1-0.4-1.9-0.4h-1.8V82.1z"/>
	<path class="st2" d="M174.1,87.8c-0.7,0-1.3-0.1-1.8-0.4c-0.6-0.2-1-0.6-1.4-1.1c-0.4-0.5-0.7-1-1-1.7c-0.2-0.7-0.3-1.4-0.3-2.3
		c0-0.8,0.1-1.6,0.4-2.3c0.2-0.7,0.6-1.2,1-1.7s0.9-0.8,1.5-1.1c0.6-0.3,1.2-0.4,1.9-0.4c0.6,0,1.2,0.1,1.7,0.4s0.9,0.6,1.2,0.9
		l-0.7,0.9c-0.3-0.3-0.6-0.5-0.9-0.7c-0.4-0.2-0.8-0.3-1.2-0.3c-0.5,0-1,0.1-1.4,0.3c-0.4,0.2-0.8,0.5-1,0.8s-0.5,0.8-0.7,1.3
		c-0.2,0.5-0.2,1.1-0.2,1.8c0,0.7,0.1,1.3,0.2,1.8c0.2,0.5,0.4,1,0.6,1.4c0.3,0.4,0.6,0.7,1,0.9s0.9,0.3,1.4,0.3
		c0.5,0,1-0.1,1.3-0.3c0.4-0.2,0.7-0.5,1.1-0.9l0.7,0.8c-0.4,0.5-0.9,0.9-1.4,1.1S174.8,87.8,174.1,87.8z"/>
	<path class="st2" d="M182.8,87.8c-0.5,0-1-0.1-1.5-0.2c-0.5-0.2-0.9-0.4-1.2-0.8c-0.3-0.4-0.6-0.8-0.8-1.4
		c-0.2-0.6-0.3-1.3-0.3-2.1v-6.2h1.3v6.2c0,0.6,0.1,1.2,0.2,1.6c0.1,0.4,0.3,0.8,0.5,1c0.2,0.3,0.5,0.4,0.8,0.6
		c0.3,0.1,0.6,0.2,1,0.2c0.4,0,0.7-0.1,1-0.2c0.3-0.1,0.6-0.3,0.8-0.6c0.2-0.3,0.4-0.6,0.5-1c0.1-0.4,0.2-1,0.2-1.6v-6.2h1.3v6.2
		c0,0.8-0.1,1.6-0.3,2.1s-0.5,1-0.8,1.4c-0.3,0.4-0.7,0.6-1.2,0.8S183.4,87.8,182.8,87.8z"/>
	<path class="st2" d="M192.2,87.8c-0.7,0-1.4-0.1-2-0.4c-0.6-0.3-1.2-0.7-1.6-1.1l0.8-0.9c0.4,0.4,0.8,0.7,1.3,1
		c0.5,0.2,1,0.4,1.6,0.4c0.7,0,1.2-0.2,1.6-0.5c0.4-0.3,0.6-0.7,0.6-1.2c0-0.3,0-0.5-0.1-0.7c-0.1-0.2-0.2-0.3-0.4-0.5
		c-0.2-0.1-0.3-0.3-0.6-0.4c-0.2-0.1-0.4-0.2-0.7-0.3l-1.5-0.7c-0.2-0.1-0.5-0.2-0.8-0.4s-0.5-0.3-0.7-0.5s-0.4-0.5-0.5-0.8
		c-0.1-0.3-0.2-0.6-0.2-1c0-0.4,0.1-0.8,0.2-1.1c0.2-0.3,0.4-0.6,0.7-0.9c0.3-0.3,0.6-0.4,1-0.6c0.4-0.1,0.8-0.2,1.3-0.2
		c0.6,0,1.2,0.1,1.7,0.4c0.5,0.2,1,0.6,1.4,0.9l-0.7,0.9c-0.3-0.3-0.7-0.6-1.1-0.7c-0.4-0.2-0.8-0.3-1.3-0.3c-0.6,0-1.1,0.1-1.4,0.4
		s-0.5,0.6-0.5,1.1c0,0.3,0.1,0.5,0.2,0.6c0.1,0.2,0.2,0.3,0.4,0.5c0.2,0.1,0.4,0.3,0.6,0.4c0.2,0.1,0.4,0.2,0.6,0.3l1.5,0.6
		c0.3,0.1,0.6,0.3,0.8,0.4c0.3,0.2,0.5,0.4,0.7,0.6s0.3,0.5,0.5,0.8s0.2,0.6,0.2,1c0,0.4-0.1,0.8-0.2,1.2s-0.4,0.7-0.7,1
		c-0.3,0.3-0.7,0.5-1.1,0.6S192.7,87.8,192.2,87.8z"/>
	<path class="st2" d="M199.7,87.6v-9.4h-3.2v-1.1h7.7v1.1H201v9.4H199.7z"/>
	<path class="st2" d="M209.5,87.8c-0.7,0-1.3-0.1-1.8-0.4c-0.5-0.3-1-0.6-1.4-1.1c-0.4-0.5-0.7-1.1-0.9-1.7
		c-0.2-0.7-0.3-1.4-0.3-2.3s0.1-1.6,0.3-2.3c0.2-0.7,0.5-1.2,0.9-1.7c0.4-0.5,0.9-0.8,1.4-1.1c0.5-0.2,1.2-0.4,1.8-0.4
		c0.7,0,1.3,0.1,1.8,0.4c0.5,0.3,1,0.6,1.4,1.1c0.4,0.5,0.7,1,0.9,1.7s0.3,1.4,0.3,2.2c0,0.8-0.1,1.6-0.3,2.3
		c-0.2,0.7-0.5,1.3-0.9,1.7c-0.4,0.5-0.9,0.8-1.4,1.1C210.8,87.7,210.2,87.8,209.5,87.8z M209.5,86.7c0.5,0,0.9-0.1,1.3-0.3
		c0.4-0.2,0.7-0.5,1-0.9s0.5-0.8,0.6-1.4c0.1-0.5,0.2-1.1,0.2-1.8c0-0.7-0.1-1.2-0.2-1.8c-0.1-0.5-0.4-1-0.6-1.3
		c-0.3-0.4-0.6-0.6-1-0.8c-0.4-0.2-0.8-0.3-1.3-0.3c-0.5,0-0.9,0.1-1.3,0.3c-0.4,0.2-0.7,0.5-1,0.8c-0.3,0.4-0.5,0.8-0.6,1.3
		c-0.1,0.5-0.2,1.1-0.2,1.8c0,0.7,0.1,1.3,0.2,1.8c0.1,0.5,0.4,1,0.6,1.4s0.6,0.7,1,0.9C208.6,86.5,209.1,86.7,209.5,86.7z"/>
	<path class="st2" d="M216.3,87.6V77.1h1.6l2,5.6c0.1,0.4,0.3,0.7,0.4,1.1c0.1,0.4,0.2,0.7,0.4,1.1h0.1c0.1-0.4,0.2-0.7,0.4-1.1
		c0.1-0.4,0.2-0.7,0.4-1.1l2-5.6h1.6v10.5h-1.2v-5.8c0-0.5,0-1,0.1-1.6c0-0.6,0.1-1.1,0.1-1.6h-0.1l-0.8,2.4l-2,5.4h-0.9l-2-5.4
		l-0.8-2.4h-0.1c0,0.5,0.1,1,0.1,1.6c0,0.6,0.1,1.1,0.1,1.6v5.8H216.3z"/>
	<path class="st2" d="M227.9,87.6V77.1h6v1.1h-4.7v3.3h4v1.1h-4v3.8h4.9v1.1H227.9z"/>
	<path class="st2" d="M236.4,87.6V77.1h3.3c0.5,0,1,0.1,1.5,0.2c0.5,0.1,0.8,0.3,1.2,0.5c0.3,0.2,0.6,0.5,0.8,0.9
		c0.2,0.4,0.3,0.8,0.3,1.4c0,0.8-0.2,1.5-0.6,2s-1,0.8-1.7,1l2.7,4.6h-1.5l-2.5-4.4h-1.9v4.4H236.4z M237.7,82.1h1.8
		c0.8,0,1.5-0.2,1.9-0.5c0.4-0.3,0.7-0.8,0.7-1.5c0-0.7-0.2-1.2-0.7-1.5c-0.4-0.3-1.1-0.4-1.9-0.4h-1.8V82.1z"/>
	<path class="st2" d="M248.1,87.8c-0.7,0-1.4-0.1-2-0.4c-0.6-0.3-1.2-0.7-1.6-1.1l0.8-0.9c0.4,0.4,0.8,0.7,1.3,1
		c0.5,0.2,1,0.4,1.6,0.4c0.7,0,1.2-0.2,1.6-0.5c0.4-0.3,0.6-0.7,0.6-1.2c0-0.3,0-0.5-0.1-0.7c-0.1-0.2-0.2-0.3-0.4-0.5
		c-0.2-0.1-0.3-0.3-0.6-0.4c-0.2-0.1-0.4-0.2-0.7-0.3l-1.5-0.7c-0.2-0.1-0.5-0.2-0.8-0.4s-0.5-0.3-0.7-0.5s-0.4-0.5-0.5-0.8
		c-0.1-0.3-0.2-0.6-0.2-1c0-0.4,0.1-0.8,0.2-1.1c0.2-0.3,0.4-0.6,0.7-0.9c0.3-0.3,0.6-0.4,1-0.6c0.4-0.1,0.8-0.2,1.3-0.2
		c0.6,0,1.2,0.1,1.7,0.4c0.5,0.2,1,0.6,1.4,0.9l-0.7,0.9c-0.3-0.3-0.7-0.6-1.1-0.7c-0.4-0.2-0.8-0.3-1.3-0.3c-0.6,0-1.1,0.1-1.4,0.4
		s-0.5,0.6-0.5,1.1c0,0.3,0.1,0.5,0.2,0.6c0.1,0.2,0.2,0.3,0.4,0.5c0.2,0.1,0.4,0.3,0.6,0.4c0.2,0.1,0.4,0.2,0.6,0.3l1.5,0.6
		c0.3,0.1,0.6,0.3,0.8,0.4c0.3,0.2,0.5,0.4,0.7,0.6c0.2,0.2,0.3,0.5,0.5,0.8c0.1,0.3,0.2,0.6,0.2,1c0,0.4-0.1,0.8-0.2,1.2
		c-0.2,0.4-0.4,0.7-0.7,1c-0.3,0.3-0.7,0.5-1.1,0.6S248.7,87.8,248.1,87.8z"/>
	<path class="st2" d="M257,87.6V77.1h1.6l2,5.6c0.1,0.4,0.3,0.7,0.4,1.1c0.1,0.4,0.2,0.7,0.4,1.1h0.1c0.1-0.4,0.2-0.7,0.4-1.1
		c0.1-0.4,0.2-0.7,0.4-1.1l2-5.6h1.6v10.5h-1.2v-5.8c0-0.5,0-1,0.1-1.6c0-0.6,0.1-1.1,0.1-1.6h-0.1l-0.8,2.4l-2,5.4h-0.9l-2-5.4
		l-0.8-2.4H258c0,0.5,0.1,1,0.1,1.6c0,0.6,0.1,1.1,0.1,1.6v5.8H257z"/>
	<path class="st2" d="M267.2,87.6l3.6-10.5h1.5l3.6,10.5h-1.4l-1-3.2h-3.8l-1,3.2H267.2z M270.4,81.8l-0.5,1.6h3.2l-0.5-1.6
		c-0.2-0.6-0.4-1.2-0.5-1.8c-0.2-0.6-0.3-1.2-0.5-1.8h-0.1c-0.2,0.6-0.3,1.2-0.5,1.8C270.8,80.6,270.6,81.2,270.4,81.8z"/>
	<path class="st2" d="M277.3,87.6V77.1h1.3v5.3h0l4.4-5.3h1.5l-3.3,4l3.8,6.5h-1.5l-3.1-5.5l-1.8,2.1v3.3H277.3z"/>
	<path class="st2" d="M286.6,87.6V77.1h6v1.1h-4.7v3.3h4v1.1h-4v3.8h4.9v1.1H286.6z"/>
	<path class="st2" d="M298.2,87.6V77.1h3.1c0.5,0,1,0,1.5,0.1c0.4,0.1,0.8,0.2,1.1,0.4s0.6,0.5,0.7,0.8c0.2,0.3,0.3,0.7,0.3,1.2
		c0,0.5-0.1,1-0.4,1.4c-0.3,0.4-0.6,0.7-1.1,0.9V82c0.6,0.1,1.2,0.4,1.6,0.8s0.6,1,0.6,1.7c0,0.5-0.1,1-0.3,1.3
		c-0.2,0.4-0.5,0.7-0.8,1c-0.4,0.3-0.8,0.4-1.3,0.6c-0.5,0.1-1,0.2-1.6,0.2H298.2z M299.5,81.6h1.6c0.9,0,1.5-0.2,1.9-0.5
		c0.4-0.3,0.6-0.7,0.6-1.3c0-0.6-0.2-1-0.6-1.3c-0.4-0.3-1-0.4-1.8-0.4h-1.6V81.6z M299.5,86.6h1.8c0.9,0,1.6-0.2,2.1-0.5
		c0.5-0.3,0.8-0.9,0.8-1.6c0-0.7-0.2-1.1-0.7-1.4c-0.5-0.3-1.2-0.5-2.1-0.5h-1.8V86.6z"/>
	<path class="st2" d="M307.6,87.6V77.1h6v1.1h-4.7v3.3h4v1.1h-4v3.8h4.9v1.1H307.6z"/>
	<path class="st2" d="M318.2,87.6v-9.4h-3.2v-1.1h7.7v1.1h-3.2v9.4H318.2z"/>
	<path class="st2" d="M326.8,87.6v-9.4h-3.2v-1.1h7.7v1.1h-3.2v9.4H326.8z"/>
	<path class="st2" d="M333.2,87.6V77.1h6v1.1h-4.7v3.3h4v1.1h-4v3.8h4.9v1.1H333.2z"/>
	<path class="st2" d="M341.6,87.6V77.1h3.3c0.5,0,1,0.1,1.5,0.2c0.5,0.1,0.8,0.3,1.2,0.5c0.3,0.2,0.6,0.5,0.8,0.9
		c0.2,0.4,0.3,0.8,0.3,1.4c0,0.8-0.2,1.5-0.6,2s-1,0.8-1.7,1l2.7,4.6h-1.5l-2.5-4.4H343v4.4H341.6z M343,82.1h1.8
		c0.8,0,1.5-0.2,1.9-0.5s0.7-0.8,0.7-1.5c0-0.7-0.2-1.2-0.7-1.5s-1.1-0.4-1.9-0.4H343V82.1z"/>
	<path class="st2" d="M350.4,90.3l-0.3-0.8c0.5-0.2,0.8-0.5,1.1-0.8s0.4-0.7,0.4-1.1c0,0-0.1,0-0.2,0c-0.3,0-0.5-0.1-0.7-0.2
		s-0.3-0.4-0.3-0.7c0-0.3,0.1-0.5,0.3-0.7c0.2-0.2,0.4-0.2,0.7-0.2c0.3,0,0.6,0.1,0.8,0.4c0.2,0.3,0.3,0.7,0.3,1.1
		c0,0.7-0.2,1.3-0.6,1.8C351.5,89.7,351,90.1,350.4,90.3z"/>
	<path class="st2" d="M360.1,87.6v-9.4h-3.2v-1.1h7.7v1.1h-3.2v9.4H360.1z"/>
	<path class="st2" d="M366.5,87.6V77.1h1.3v10.5H366.5z"/>
	<path class="st2" d="M370.7,87.6V77.1h1.6l2,5.6c0.1,0.4,0.3,0.7,0.4,1.1c0.1,0.4,0.2,0.7,0.4,1.1h0.1c0.1-0.4,0.2-0.7,0.4-1.1
		c0.1-0.4,0.2-0.7,0.4-1.1l2-5.6h1.6v10.5h-1.2v-5.8c0-0.5,0-1,0.1-1.6c0-0.6,0.1-1.1,0.1-1.6h-0.1l-0.8,2.4l-2,5.4h-0.9l-2-5.4
		l-0.8-2.4h-0.1c0,0.5,0.1,1,0.1,1.6c0,0.6,0.1,1.1,0.1,1.6v5.8H370.7z"/>
	<path class="st2" d="M382.3,87.6V77.1h6v1.1h-4.7v3.3h4v1.1h-4v3.8h4.9v1.1H382.3z"/>
	<path class="st2" d="M390.8,87.6V77.1h1.3v9.4h4.6v1.1H390.8z"/>
	<path class="st2" d="M398.5,87.6V77.1h1.3v10.5H398.5z"/>
	<path class="st2" d="M402.8,87.6V77.1h6v1.1h-4.7v3.3h4v1.1h-4v3.8h4.9v1.1H402.8z"/>
	<path class="st2" d="M411.2,87.6V77.1h3.3c0.5,0,1,0.1,1.5,0.2c0.5,0.1,0.8,0.3,1.2,0.5c0.3,0.2,0.6,0.5,0.8,0.9
		c0.2,0.4,0.3,0.8,0.3,1.4c0,0.8-0.2,1.5-0.6,2s-1,0.8-1.7,1l2.7,4.6h-1.5l-2.5-4.4h-1.9v4.4H411.2z M412.5,82.1h1.8
		c0.8,0,1.5-0.2,1.9-0.5s0.7-0.8,0.7-1.5c0-0.7-0.2-1.2-0.7-1.5s-1.1-0.4-1.9-0.4h-1.8V82.1z"/>
	<path class="st2" d="M76,111.6v-10.5h2.6c1.6,0,2.9,0.4,3.7,1.3c0.8,0.9,1.3,2.2,1.3,3.9c0,0.8-0.1,1.6-0.3,2.2
		c-0.2,0.7-0.5,1.2-0.9,1.7c-0.4,0.5-0.9,0.8-1.5,1c-0.6,0.2-1.3,0.4-2.1,0.4H76z M77.4,110.5h1.2c1.2,0,2.1-0.4,2.8-1.1
		c0.6-0.7,0.9-1.8,0.9-3.1s-0.3-2.4-0.9-3.1c-0.6-0.7-1.5-1.1-2.8-1.1h-1.2V110.5z"/>
	<path class="st2" d="M85.9,111.6v-10.5h6v1.1h-4.7v3.3h4v1.1h-4v3.8h4.9v1.1H85.9z"/>
	<path class="st2" d="M98.3,111.8c-0.7,0-1.3-0.1-1.8-0.4c-0.6-0.2-1-0.6-1.4-1.1c-0.4-0.5-0.7-1-1-1.7c-0.2-0.7-0.3-1.4-0.3-2.3
		c0-0.8,0.1-1.6,0.4-2.3c0.2-0.7,0.6-1.2,1-1.7s0.9-0.8,1.5-1.1c0.6-0.3,1.2-0.4,1.9-0.4c0.6,0,1.2,0.1,1.7,0.4s0.9,0.6,1.2,0.9
		l-0.7,0.9c-0.3-0.3-0.6-0.5-0.9-0.7c-0.4-0.2-0.8-0.3-1.2-0.3c-0.5,0-1,0.1-1.4,0.3c-0.4,0.2-0.8,0.5-1,0.8s-0.5,0.8-0.7,1.3
		c-0.2,0.5-0.2,1.1-0.2,1.8c0,0.7,0.1,1.3,0.2,1.8c0.2,0.5,0.4,1,0.6,1.4c0.3,0.4,0.6,0.7,1,0.9s0.9,0.3,1.4,0.3
		c0.5,0,1-0.1,1.3-0.3c0.4-0.2,0.7-0.5,1.1-0.9l0.7,0.8c-0.4,0.5-0.9,0.9-1.4,1.1S98.9,111.8,98.3,111.8z"/>
	<path class="st2" d="M103.4,111.6v-10.5h1.3v10.5H103.4z"/>
	<path class="st2" d="M110.6,111.8c-0.7,0-1.4-0.1-2-0.4c-0.6-0.3-1.2-0.7-1.6-1.1l0.8-0.9c0.4,0.4,0.8,0.7,1.3,1
		c0.5,0.2,1,0.4,1.6,0.4c0.7,0,1.2-0.2,1.6-0.5c0.4-0.3,0.6-0.7,0.6-1.2c0-0.3,0-0.5-0.1-0.7c-0.1-0.2-0.2-0.3-0.4-0.5
		c-0.2-0.1-0.3-0.3-0.6-0.4c-0.2-0.1-0.4-0.2-0.7-0.3l-1.5-0.7c-0.2-0.1-0.5-0.2-0.8-0.4s-0.5-0.3-0.7-0.5s-0.4-0.5-0.5-0.8
		c-0.1-0.3-0.2-0.6-0.2-1c0-0.4,0.1-0.8,0.2-1.1c0.2-0.3,0.4-0.6,0.7-0.9c0.3-0.3,0.6-0.4,1-0.6c0.4-0.1,0.8-0.2,1.3-0.2
		c0.6,0,1.2,0.1,1.7,0.4c0.5,0.2,1,0.6,1.4,0.9l-0.7,0.9c-0.3-0.3-0.7-0.6-1.1-0.7c-0.4-0.2-0.8-0.3-1.3-0.3c-0.6,0-1.1,0.1-1.4,0.4
		s-0.5,0.6-0.5,1.1c0,0.3,0.1,0.5,0.2,0.6c0.1,0.2,0.2,0.3,0.4,0.5c0.2,0.1,0.4,0.3,0.6,0.4c0.2,0.1,0.4,0.2,0.6,0.3l1.5,0.6
		c0.3,0.1,0.6,0.3,0.8,0.4c0.3,0.2,0.5,0.4,0.7,0.6s0.3,0.5,0.5,0.8s0.2,0.6,0.2,1c0,0.4-0.1,0.8-0.2,1.2s-0.4,0.7-0.7,1
		c-0.3,0.3-0.7,0.5-1.1,0.6S111.1,111.8,110.6,111.8z"/>
	<path class="st2" d="M116.2,111.6v-10.5h1.3v10.5H116.2z"/>
	<path class="st2" d="M124.3,111.8c-0.7,0-1.3-0.1-1.8-0.4c-0.5-0.3-1-0.6-1.4-1.1c-0.4-0.5-0.7-1.1-0.9-1.7
		c-0.2-0.7-0.3-1.4-0.3-2.3s0.1-1.6,0.3-2.3c0.2-0.7,0.5-1.2,0.9-1.7c0.4-0.5,0.9-0.8,1.4-1.1c0.5-0.2,1.2-0.4,1.8-0.4
		c0.7,0,1.3,0.1,1.8,0.4c0.5,0.3,1,0.6,1.4,1.1c0.4,0.5,0.7,1,0.9,1.7s0.3,1.4,0.3,2.2c0,0.8-0.1,1.6-0.3,2.3
		c-0.2,0.7-0.5,1.3-0.9,1.7c-0.4,0.5-0.9,0.8-1.4,1.1C125.5,111.7,124.9,111.8,124.3,111.8z M124.3,110.7c0.5,0,0.9-0.1,1.3-0.3
		c0.4-0.2,0.7-0.5,1-0.9s0.5-0.8,0.6-1.4c0.1-0.5,0.2-1.1,0.2-1.8c0-0.7-0.1-1.2-0.2-1.8c-0.1-0.5-0.4-1-0.6-1.3
		c-0.3-0.4-0.6-0.6-1-0.8c-0.4-0.2-0.8-0.3-1.3-0.3c-0.5,0-0.9,0.1-1.3,0.3c-0.4,0.2-0.7,0.5-1,0.8c-0.3,0.4-0.5,0.8-0.6,1.3
		c-0.1,0.5-0.2,1.1-0.2,1.8c0,0.7,0.1,1.3,0.2,1.8c0.1,0.5,0.4,1,0.6,1.4s0.6,0.7,1,0.9C123.4,110.5,123.8,110.7,124.3,110.7z"/>
	<path class="st2" d="M131,111.6v-10.5h1.4l3.8,6.6l1.1,2.2h0.1c0-0.5-0.1-1.1-0.1-1.7c0-0.6-0.1-1.1-0.1-1.7v-5.4h1.3v10.5h-1.4
		l-3.8-6.6l-1.1-2.2h-0.1c0,0.5,0.1,1.1,0.1,1.6c0,0.5,0.1,1.1,0.1,1.7v5.5H131z"/>
	<path class="st2" d="M144.3,111.8c-0.7,0-1.4-0.1-2-0.4c-0.6-0.3-1.2-0.7-1.6-1.1l0.8-0.9c0.4,0.4,0.8,0.7,1.3,1
		c0.5,0.2,1,0.4,1.6,0.4c0.7,0,1.2-0.2,1.6-0.5c0.4-0.3,0.6-0.7,0.6-1.2c0-0.3,0-0.5-0.1-0.7c-0.1-0.2-0.2-0.3-0.4-0.5
		c-0.2-0.1-0.3-0.3-0.6-0.4c-0.2-0.1-0.4-0.2-0.7-0.3l-1.5-0.7c-0.2-0.1-0.5-0.2-0.8-0.4s-0.5-0.3-0.7-0.5s-0.4-0.5-0.5-0.8
		c-0.1-0.3-0.2-0.6-0.2-1c0-0.4,0.1-0.8,0.2-1.1c0.2-0.3,0.4-0.6,0.7-0.9c0.3-0.3,0.6-0.4,1-0.6c0.4-0.1,0.8-0.2,1.3-0.2
		c0.6,0,1.2,0.1,1.7,0.4c0.5,0.2,1,0.6,1.4,0.9l-0.7,0.9c-0.3-0.3-0.7-0.6-1.1-0.7c-0.4-0.2-0.8-0.3-1.3-0.3c-0.6,0-1.1,0.1-1.4,0.4
		s-0.5,0.6-0.5,1.1c0,0.3,0.1,0.5,0.2,0.6c0.1,0.2,0.2,0.3,0.4,0.5c0.2,0.1,0.4,0.3,0.6,0.4c0.2,0.1,0.4,0.2,0.6,0.3l1.5,0.6
		c0.3,0.1,0.6,0.3,0.8,0.4c0.3,0.2,0.5,0.4,0.7,0.6s0.3,0.5,0.5,0.8s0.2,0.6,0.2,1c0,0.4-0.1,0.8-0.2,1.2s-0.4,0.7-0.7,1
		c-0.3,0.3-0.7,0.5-1.1,0.6S144.8,111.8,144.3,111.8z"/>
	<path class="st2" d="M150.5,111.8c-0.3,0-0.5-0.1-0.7-0.3s-0.3-0.4-0.3-0.7c0-0.3,0.1-0.6,0.3-0.7s0.4-0.3,0.7-0.3
		c0.3,0,0.5,0.1,0.7,0.3c0.2,0.2,0.3,0.4,0.3,0.7c0,0.3-0.1,0.5-0.3,0.7C150.9,111.7,150.7,111.8,150.5,111.8z"/>
	<path class="st2" d="M161,111.8c-0.7,0-1.3-0.1-1.8-0.4c-0.5-0.3-1-0.6-1.4-1.1c-0.4-0.5-0.7-1.1-0.9-1.7c-0.2-0.7-0.3-1.4-0.3-2.3
		s0.1-1.6,0.3-2.3c0.2-0.7,0.5-1.2,0.9-1.7c0.4-0.5,0.9-0.8,1.4-1.1c0.5-0.2,1.2-0.4,1.8-0.4c0.7,0,1.3,0.1,1.8,0.4
		c0.5,0.3,1,0.6,1.4,1.1c0.4,0.5,0.7,1,0.9,1.7s0.3,1.4,0.3,2.2c0,0.8-0.1,1.6-0.3,2.3c-0.2,0.7-0.5,1.3-0.9,1.7
		c-0.4,0.5-0.9,0.8-1.4,1.1C162.2,111.7,161.6,111.8,161,111.8z M161,110.7c0.5,0,0.9-0.1,1.3-0.3c0.4-0.2,0.7-0.5,1-0.9
		s0.5-0.8,0.6-1.4c0.1-0.5,0.2-1.1,0.2-1.8c0-0.7-0.1-1.2-0.2-1.8c-0.1-0.5-0.4-1-0.6-1.3c-0.3-0.4-0.6-0.6-1-0.8
		c-0.4-0.2-0.8-0.3-1.3-0.3c-0.5,0-0.9,0.1-1.3,0.3c-0.4,0.2-0.7,0.5-1,0.8c-0.3,0.4-0.5,0.8-0.6,1.3c-0.1,0.5-0.2,1.1-0.2,1.8
		c0,0.7,0.1,1.3,0.2,1.8c0.1,0.5,0.4,1,0.6,1.4s0.6,0.7,1,0.9C160.1,110.5,160.5,110.7,161,110.7z"/>
	<path class="st2" d="M171.4,111.8c-0.5,0-1-0.1-1.5-0.2c-0.5-0.2-0.9-0.4-1.2-0.8c-0.3-0.4-0.6-0.8-0.8-1.4
		c-0.2-0.6-0.3-1.3-0.3-2.1v-6.2h1.3v6.2c0,0.6,0.1,1.2,0.2,1.6c0.1,0.4,0.3,0.8,0.5,1c0.2,0.3,0.5,0.4,0.8,0.6
		c0.3,0.1,0.6,0.2,1,0.2c0.4,0,0.7-0.1,1-0.2c0.3-0.1,0.6-0.3,0.8-0.6c0.2-0.3,0.4-0.6,0.5-1c0.1-0.4,0.2-1,0.2-1.6v-6.2h1.3v6.2
		c0,0.8-0.1,1.6-0.3,2.1s-0.5,1-0.8,1.4c-0.3,0.4-0.7,0.6-1.2,0.8S172,111.8,171.4,111.8z"/>
	<path class="st2" d="M178,111.6v-10.5h3.3c0.5,0,1,0.1,1.5,0.2c0.5,0.1,0.8,0.3,1.2,0.5c0.3,0.2,0.6,0.5,0.8,0.9
		c0.2,0.4,0.3,0.8,0.3,1.4c0,0.8-0.2,1.5-0.6,2s-1,0.8-1.7,1l2.7,4.6h-1.5l-2.5-4.4h-1.9v4.4H178z M179.4,106.1h1.8
		c0.8,0,1.5-0.2,1.9-0.5c0.4-0.3,0.7-0.8,0.7-1.5c0-0.7-0.2-1.2-0.7-1.5c-0.4-0.3-1.1-0.4-1.9-0.4h-1.8V106.1z"/>
	<path class="st2" d="M190.3,111.6v-10.5h1.3v10.5H190.3z"/>
	<path class="st2" d="M194.5,111.6v-10.5h1.4l3.8,6.6l1.1,2.2h0.1c0-0.5-0.1-1.1-0.1-1.7c0-0.6-0.1-1.1-0.1-1.7v-5.4h1.3v10.5h-1.4
		l-3.8-6.6l-1.1-2.2h-0.1c0,0.5,0.1,1.1,0.1,1.6c0,0.5,0.1,1.1,0.1,1.7v5.5H194.5z"/>
	<path class="st2" d="M204.9,111.6v-10.5h1.4l3.8,6.6l1.1,2.2h0.1c0-0.5-0.1-1.1-0.1-1.7c0-0.6-0.1-1.1-0.1-1.7v-5.4h1.3v10.5H211
		l-3.8-6.6l-1.1-2.2H206c0,0.5,0.1,1.1,0.1,1.6c0,0.5,0.1,1.1,0.1,1.7v5.5H204.9z"/>
	<path class="st2" d="M219.1,111.8c-0.7,0-1.3-0.1-1.8-0.4c-0.5-0.3-1-0.6-1.4-1.1c-0.4-0.5-0.7-1.1-0.9-1.7
		c-0.2-0.7-0.3-1.4-0.3-2.3s0.1-1.6,0.3-2.3c0.2-0.7,0.5-1.2,0.9-1.7c0.4-0.5,0.9-0.8,1.4-1.1c0.5-0.2,1.2-0.4,1.8-0.4
		c0.7,0,1.3,0.1,1.8,0.4c0.5,0.3,1,0.6,1.4,1.1c0.4,0.5,0.7,1,0.9,1.7s0.3,1.4,0.3,2.2c0,0.8-0.1,1.6-0.3,2.3
		c-0.2,0.7-0.5,1.3-0.9,1.7c-0.4,0.5-0.9,0.8-1.4,1.1C220.4,111.7,219.8,111.8,219.1,111.8z M219.1,110.7c0.5,0,0.9-0.1,1.3-0.3
		c0.4-0.2,0.7-0.5,1-0.9s0.5-0.8,0.6-1.4c0.1-0.5,0.2-1.1,0.2-1.8c0-0.7-0.1-1.2-0.2-1.8c-0.1-0.5-0.4-1-0.6-1.3
		c-0.3-0.4-0.6-0.6-1-0.8c-0.4-0.2-0.8-0.3-1.3-0.3c-0.5,0-0.9,0.1-1.3,0.3c-0.4,0.2-0.7,0.5-1,0.8c-0.3,0.4-0.5,0.8-0.6,1.3
		c-0.1,0.5-0.2,1.1-0.2,1.8c0,0.7,0.1,1.3,0.2,1.8c0.1,0.5,0.4,1,0.6,1.4s0.6,0.7,1,0.9C218.2,110.5,218.7,110.7,219.1,110.7z"/>
	<path class="st2" d="M227.6,111.6l-3.4-10.5h1.4l1.7,5.7c0.2,0.6,0.4,1.2,0.5,1.7s0.3,1.1,0.5,1.7h0.1c0.2-0.6,0.4-1.2,0.5-1.7
		c0.1-0.5,0.3-1.1,0.5-1.7l1.7-5.7h1.4l-3.3,10.5H227.6z"/>
	<path class="st2" d="M232.3,111.6l3.6-10.5h1.5l3.6,10.5h-1.4l-1-3.2h-3.8l-1,3.2H232.3z M235.5,105.8l-0.5,1.6h3.2l-0.5-1.6
		c-0.2-0.6-0.4-1.2-0.5-1.8c-0.2-0.6-0.3-1.2-0.5-1.8h-0.1c-0.2,0.6-0.3,1.2-0.5,1.8C235.9,104.6,235.7,105.2,235.5,105.8z"/>
	<path class="st2" d="M243.7,111.6v-9.4h-3.2v-1.1h7.7v1.1h-3.2v9.4H243.7z"/>
	<path class="st2" d="M250.1,111.6v-10.5h1.3v10.5H250.1z"/>
	<path class="st2" d="M256.3,111.6l-3.4-10.5h1.4l1.7,5.7c0.2,0.6,0.4,1.2,0.5,1.7c0.1,0.5,0.3,1.1,0.5,1.7h0.1
		c0.2-0.6,0.4-1.2,0.5-1.7s0.3-1.1,0.5-1.7l1.7-5.7h1.4l-3.3,10.5H256.3z"/>
	<path class="st2" d="M262.6,111.6v-10.5h6v1.1h-4.7v3.3h4v1.1h-4v3.8h4.9v1.1H262.6z"/>
	<path class="st2" d="M277.1,111.8c-0.7,0-1.4-0.1-2-0.4c-0.6-0.3-1.2-0.7-1.6-1.1l0.8-0.9c0.4,0.4,0.8,0.7,1.3,1
		c0.5,0.2,1,0.4,1.6,0.4c0.7,0,1.2-0.2,1.6-0.5c0.4-0.3,0.6-0.7,0.6-1.2c0-0.3,0-0.5-0.1-0.7c-0.1-0.2-0.2-0.3-0.4-0.5
		c-0.2-0.1-0.3-0.3-0.6-0.4c-0.2-0.1-0.4-0.2-0.7-0.3l-1.5-0.7c-0.2-0.1-0.5-0.2-0.8-0.4c-0.3-0.1-0.5-0.3-0.7-0.5
		c-0.2-0.2-0.4-0.5-0.5-0.8c-0.1-0.3-0.2-0.6-0.2-1c0-0.4,0.1-0.8,0.2-1.1c0.2-0.3,0.4-0.6,0.7-0.9c0.3-0.3,0.6-0.4,1-0.6
		c0.4-0.1,0.8-0.2,1.3-0.2c0.6,0,1.2,0.1,1.7,0.4c0.5,0.2,1,0.6,1.4,0.9l-0.7,0.9c-0.3-0.3-0.7-0.6-1.1-0.7
		c-0.4-0.2-0.8-0.3-1.3-0.3c-0.6,0-1.1,0.1-1.4,0.4c-0.4,0.3-0.5,0.6-0.5,1.1c0,0.3,0,0.5,0.2,0.6c0.1,0.2,0.2,0.3,0.4,0.5
		c0.2,0.1,0.4,0.3,0.6,0.4c0.2,0.1,0.4,0.2,0.6,0.3l1.5,0.6c0.3,0.1,0.6,0.3,0.8,0.4c0.3,0.2,0.5,0.4,0.7,0.6s0.3,0.5,0.5,0.8
		s0.2,0.6,0.2,1c0,0.4-0.1,0.8-0.2,1.2s-0.4,0.7-0.7,1s-0.7,0.5-1.1,0.6S277.7,111.8,277.1,111.8z"/>
	<path class="st2" d="M286.6,111.8c-0.7,0-1.3-0.1-1.8-0.4c-0.5-0.3-1-0.6-1.4-1.1s-0.7-1.1-0.9-1.7c-0.2-0.7-0.3-1.4-0.3-2.3
		s0.1-1.6,0.3-2.3c0.2-0.7,0.5-1.2,0.9-1.7c0.4-0.5,0.9-0.8,1.4-1.1c0.5-0.2,1.2-0.4,1.8-0.4c0.7,0,1.3,0.1,1.8,0.4
		c0.5,0.3,1,0.6,1.4,1.1c0.4,0.5,0.7,1,0.9,1.7c0.2,0.7,0.3,1.4,0.3,2.2c0,0.8-0.1,1.6-0.3,2.3c-0.2,0.7-0.5,1.3-0.9,1.7
		c-0.4,0.5-0.9,0.8-1.4,1.1C287.9,111.7,287.3,111.8,286.6,111.8z M286.6,110.7c0.5,0,0.9-0.1,1.3-0.3s0.7-0.5,1-0.9
		c0.3-0.4,0.5-0.8,0.6-1.4c0.1-0.5,0.2-1.1,0.2-1.8c0-0.7-0.1-1.2-0.2-1.8c-0.1-0.5-0.4-1-0.6-1.3c-0.3-0.4-0.6-0.6-1-0.8
		c-0.4-0.2-0.8-0.3-1.3-0.3c-0.5,0-0.9,0.1-1.3,0.3c-0.4,0.2-0.7,0.5-1,0.8c-0.3,0.4-0.5,0.8-0.6,1.3c-0.1,0.5-0.2,1.1-0.2,1.8
		c0,0.7,0.1,1.3,0.2,1.8c0.1,0.5,0.4,1,0.6,1.4c0.3,0.4,0.6,0.7,1,0.9S286.2,110.7,286.6,110.7z"/>
	<path class="st2" d="M293.4,111.6v-10.5h1.3v9.4h4.6v1.1H293.4z"/>
	<path class="st2" d="M304.4,111.8c-0.5,0-1-0.1-1.5-0.2s-0.9-0.4-1.2-0.8c-0.3-0.4-0.6-0.8-0.8-1.4c-0.2-0.6-0.3-1.3-0.3-2.1v-6.2
		h1.3v6.2c0,0.6,0.1,1.2,0.2,1.6c0.1,0.4,0.3,0.8,0.5,1c0.2,0.3,0.5,0.4,0.8,0.6s0.6,0.2,1,0.2c0.4,0,0.7-0.1,1-0.2
		c0.3-0.1,0.6-0.3,0.8-0.6c0.2-0.3,0.4-0.6,0.5-1c0.1-0.4,0.2-1,0.2-1.6v-6.2h1.3v6.2c0,0.8-0.1,1.6-0.3,2.1c-0.2,0.6-0.5,1-0.8,1.4
		c-0.3,0.4-0.7,0.6-1.2,0.8C305.4,111.7,305,111.8,304.4,111.8z"/>
	<path class="st2" d="M313.2,111.6v-9.4H310v-1.1h7.7v1.1h-3.2v9.4H313.2z"/>
	<path class="st2" d="M319.6,111.6v-10.5h1.3v10.5H319.6z"/>
	<path class="st2" d="M327.7,111.8c-0.7,0-1.3-0.1-1.8-0.4c-0.5-0.3-1-0.6-1.4-1.1s-0.7-1.1-0.9-1.7c-0.2-0.7-0.3-1.4-0.3-2.3
		s0.1-1.6,0.3-2.3c0.2-0.7,0.5-1.2,0.9-1.7c0.4-0.5,0.9-0.8,1.4-1.1c0.5-0.2,1.2-0.4,1.8-0.4c0.7,0,1.3,0.1,1.8,0.4
		c0.5,0.3,1,0.6,1.4,1.1c0.4,0.5,0.7,1,0.9,1.7c0.2,0.7,0.3,1.4,0.3,2.2c0,0.8-0.1,1.6-0.3,2.3c-0.2,0.7-0.5,1.3-0.9,1.7
		c-0.4,0.5-0.9,0.8-1.4,1.1C328.9,111.7,328.3,111.8,327.7,111.8z M327.7,110.7c0.5,0,0.9-0.1,1.3-0.3s0.7-0.5,1-0.9
		c0.3-0.4,0.5-0.8,0.6-1.4c0.1-0.5,0.2-1.1,0.2-1.8c0-0.7-0.1-1.2-0.2-1.8c-0.1-0.5-0.4-1-0.6-1.3c-0.3-0.4-0.6-0.6-1-0.8
		c-0.4-0.2-0.8-0.3-1.3-0.3c-0.5,0-0.9,0.1-1.3,0.3c-0.4,0.2-0.7,0.5-1,0.8c-0.3,0.4-0.5,0.8-0.6,1.3c-0.1,0.5-0.2,1.1-0.2,1.8
		c0,0.7,0.1,1.3,0.2,1.8c0.1,0.5,0.4,1,0.6,1.4c0.3,0.4,0.6,0.7,1,0.9S327.2,110.7,327.7,110.7z"/>
	<path class="st2" d="M334.4,111.6v-10.5h1.4l3.8,6.6l1.1,2.2h0.1c0-0.5-0.1-1.1-0.1-1.7c0-0.6-0.1-1.1-0.1-1.7v-5.4h1.3v10.5h-1.4
		l-3.8-6.6l-1.1-2.2h-0.1c0,0.5,0.1,1.1,0.1,1.6c0,0.5,0.1,1.1,0.1,1.7v5.5H334.4z"/>
	<path class="st2" d="M347.7,111.8c-0.7,0-1.4-0.1-2-0.4c-0.6-0.3-1.2-0.7-1.6-1.1l0.8-0.9c0.4,0.4,0.8,0.7,1.3,1
		c0.5,0.2,1,0.4,1.6,0.4c0.7,0,1.2-0.2,1.6-0.5c0.4-0.3,0.6-0.7,0.6-1.2c0-0.3,0-0.5-0.1-0.7c-0.1-0.2-0.2-0.3-0.4-0.5
		c-0.2-0.1-0.3-0.3-0.6-0.4c-0.2-0.1-0.4-0.2-0.7-0.3l-1.5-0.7c-0.2-0.1-0.5-0.2-0.8-0.4c-0.3-0.1-0.5-0.3-0.7-0.5
		c-0.2-0.2-0.4-0.5-0.5-0.8c-0.1-0.3-0.2-0.6-0.2-1c0-0.4,0.1-0.8,0.2-1.1c0.2-0.3,0.4-0.6,0.7-0.9c0.3-0.3,0.6-0.4,1-0.6
		c0.4-0.1,0.8-0.2,1.3-0.2c0.6,0,1.2,0.1,1.7,0.4c0.5,0.2,1,0.6,1.4,0.9l-0.7,0.9c-0.3-0.3-0.7-0.6-1.1-0.7
		c-0.4-0.2-0.8-0.3-1.3-0.3c-0.6,0-1.1,0.1-1.4,0.4c-0.4,0.3-0.5,0.6-0.5,1.1c0,0.3,0,0.5,0.2,0.6c0.1,0.2,0.2,0.3,0.4,0.5
		c0.2,0.1,0.4,0.3,0.6,0.4c0.2,0.1,0.4,0.2,0.6,0.3l1.5,0.6c0.3,0.1,0.6,0.3,0.8,0.4c0.3,0.2,0.5,0.4,0.7,0.6s0.3,0.5,0.5,0.8
		s0.2,0.6,0.2,1c0,0.4-0.1,0.8-0.2,1.2s-0.4,0.7-0.7,1s-0.7,0.5-1.1,0.6S348.2,111.8,347.7,111.8z"/>
	<path class="st2" d="M356.5,111.6v-10.5h6v1.1h-4.7v3.3h4v1.1h-4v3.8h4.9v1.1H356.5z"/>
	<path class="st2" d="M364.9,111.6v-10.5h1.4l3.8,6.6l1.1,2.2h0.1c0-0.5-0.1-1.1-0.1-1.7c0-0.6-0.1-1.1-0.1-1.7v-5.4h1.3v10.5H371
		l-3.8-6.6l-1.1-2.2H366c0,0.5,0.1,1.1,0.1,1.6c0,0.5,0.1,1.1,0.1,1.7v5.5H364.9z"/>
	<path class="st2" d="M373.9,111.6l3.6-10.5h1.5l3.6,10.5h-1.4l-1-3.2h-3.8l-1,3.2H373.9z M377.1,105.8l-0.5,1.6h3.2l-0.5-1.6
		c-0.2-0.6-0.4-1.2-0.5-1.8c-0.2-0.6-0.3-1.2-0.5-1.8h-0.1c-0.2,0.6-0.3,1.2-0.5,1.8C377.5,104.6,377.3,105.2,377.1,105.8z"/>
	<path class="st2" d="M384,111.6v-10.5h3.1c0.5,0,1,0,1.5,0.1c0.4,0.1,0.8,0.2,1.1,0.4s0.6,0.5,0.7,0.8c0.2,0.3,0.3,0.7,0.3,1.2
		c0,0.5-0.1,1-0.4,1.4c-0.3,0.4-0.6,0.7-1.1,0.9v0.1c0.6,0.1,1.2,0.4,1.6,0.8s0.6,1,0.6,1.7c0,0.5-0.1,1-0.3,1.3
		c-0.2,0.4-0.5,0.7-0.8,1c-0.4,0.3-0.8,0.4-1.3,0.6c-0.5,0.1-1,0.2-1.6,0.2H384z M385.3,105.6h1.6c0.9,0,1.5-0.2,1.9-0.5
		c0.4-0.3,0.6-0.7,0.6-1.3c0-0.6-0.2-1-0.6-1.3c-0.4-0.3-1-0.4-1.8-0.4h-1.6V105.6z M385.3,110.6h1.8c0.9,0,1.6-0.2,2.1-0.5
		c0.5-0.3,0.8-0.9,0.8-1.6c0-0.7-0.2-1.1-0.7-1.4c-0.5-0.3-1.2-0.5-2.1-0.5h-1.8V110.6z"/>
	<path class="st2" d="M393.4,111.6v-10.5h1.3v9.4h4.6v1.1H393.4z"/>
	<path class="st2" d="M401.2,111.6v-10.5h6v1.1h-4.7v3.3h4v1.1h-4v3.8h4.9v1.1H401.2z"/>
	<path class="st2" d="M79.9,135.8c-0.7,0-1.3-0.1-1.8-0.4c-0.5-0.3-1-0.6-1.4-1.1c-0.4-0.5-0.7-1.1-0.9-1.7
		c-0.2-0.7-0.3-1.4-0.3-2.3s0.1-1.6,0.3-2.3c0.2-0.7,0.5-1.2,0.9-1.7c0.4-0.5,0.9-0.8,1.4-1.1c0.5-0.2,1.2-0.4,1.8-0.4
		c0.7,0,1.3,0.1,1.8,0.4c0.5,0.3,1,0.6,1.4,1.1c0.4,0.5,0.7,1,0.9,1.7s0.3,1.4,0.3,2.2c0,0.8-0.1,1.6-0.3,2.3
		c-0.2,0.7-0.5,1.3-0.9,1.7c-0.4,0.5-0.9,0.8-1.4,1.1C81.2,135.7,80.6,135.8,79.9,135.8z M79.9,134.7c0.5,0,0.9-0.1,1.3-0.3
		c0.4-0.2,0.7-0.5,1-0.9s0.5-0.8,0.6-1.4c0.1-0.5,0.2-1.1,0.2-1.8c0-0.7-0.1-1.2-0.2-1.8c-0.1-0.5-0.4-1-0.6-1.3
		c-0.3-0.4-0.6-0.6-1-0.8c-0.4-0.2-0.8-0.3-1.3-0.3c-0.5,0-0.9,0.1-1.3,0.3c-0.4,0.2-0.7,0.5-1,0.8c-0.3,0.4-0.5,0.8-0.6,1.3
		c-0.1,0.5-0.2,1.1-0.2,1.8c0,0.7,0.1,1.3,0.2,1.8c0.1,0.5,0.4,1,0.6,1.4s0.6,0.7,1,0.9C79,134.5,79.4,134.7,79.9,134.7z"/>
	<path class="st2" d="M86.6,135.6v-10.5h3.3c0.5,0,1,0.1,1.5,0.2c0.5,0.1,0.8,0.3,1.2,0.5c0.3,0.2,0.6,0.5,0.8,0.9
		c0.2,0.4,0.3,0.8,0.3,1.4c0,0.8-0.2,1.5-0.6,2s-1,0.8-1.7,1l2.7,4.6h-1.5l-2.5-4.4H88v4.4H86.6z M88,130.1h1.8
		c0.8,0,1.5-0.2,1.9-0.5c0.4-0.3,0.7-0.8,0.7-1.5c0-0.7-0.2-1.2-0.7-1.5c-0.4-0.3-1.1-0.4-1.9-0.4H88V130.1z"/>
	<path class="st2" d="M99.9,135.8c-0.7,0-1.3-0.1-1.9-0.4c-0.6-0.2-1.1-0.6-1.5-1.1c-0.4-0.5-0.7-1-1-1.7c-0.2-0.7-0.4-1.4-0.4-2.3
		c0-0.8,0.1-1.6,0.4-2.3c0.2-0.7,0.6-1.2,1-1.7s0.9-0.8,1.5-1.1c0.6-0.3,1.2-0.4,1.9-0.4c0.4,0,0.7,0,1,0.1c0.3,0.1,0.6,0.2,0.8,0.3
		s0.5,0.3,0.7,0.4c0.2,0.2,0.4,0.3,0.5,0.5l-0.7,0.9c-0.3-0.3-0.6-0.5-0.9-0.7s-0.8-0.3-1.3-0.3c-0.5,0-1,0.1-1.4,0.3
		c-0.4,0.2-0.8,0.5-1.1,0.8s-0.5,0.8-0.7,1.3c-0.2,0.5-0.2,1.1-0.2,1.8c0,0.7,0.1,1.3,0.2,1.8c0.2,0.5,0.4,1,0.7,1.4
		c0.3,0.4,0.7,0.7,1.1,0.9c0.4,0.2,0.9,0.3,1.5,0.3c0.4,0,0.7-0.1,1.1-0.2c0.3-0.1,0.6-0.3,0.8-0.5v-2.7h-2.2v-1.1h3.4v4.4
		c-0.3,0.4-0.8,0.6-1.3,0.9C101.2,135.7,100.6,135.8,99.9,135.8z"/>
	<path class="st2" d="M104.2,135.6l3.6-10.5h1.5l3.6,10.5h-1.4l-1-3.2h-3.8l-1,3.2H104.2z M107.4,129.8l-0.5,1.6h3.2l-0.5-1.6
		c-0.2-0.6-0.4-1.2-0.5-1.8c-0.2-0.6-0.3-1.2-0.5-1.8h-0.1c-0.2,0.6-0.3,1.2-0.5,1.8C107.7,128.6,107.6,129.2,107.4,129.8z"/>
	<path class="st2" d="M114.3,135.6v-10.5h1.4l3.8,6.6l1.1,2.2h0.1c0-0.5-0.1-1.1-0.1-1.7c0-0.6-0.1-1.1-0.1-1.7v-5.4h1.3v10.5h-1.4
		l-3.8-6.6l-1.1-2.2h-0.1c0,0.5,0.1,1.1,0.1,1.6c0,0.5,0.1,1.1,0.1,1.7v5.5H114.3z"/>
	<path class="st2" d="M124.6,135.6v-10.5h1.3v10.5H124.6z"/>
	<path class="st2" d="M131.7,135.8c-0.7,0-1.4-0.1-2-0.4c-0.6-0.3-1.2-0.7-1.6-1.1l0.8-0.9c0.4,0.4,0.8,0.7,1.3,1
		c0.5,0.2,1,0.4,1.6,0.4c0.7,0,1.2-0.2,1.6-0.5c0.4-0.3,0.6-0.7,0.6-1.2c0-0.3,0-0.5-0.1-0.7c-0.1-0.2-0.2-0.3-0.4-0.5
		c-0.2-0.1-0.3-0.3-0.6-0.4c-0.2-0.1-0.4-0.2-0.7-0.3l-1.5-0.7c-0.2-0.1-0.5-0.2-0.8-0.4s-0.5-0.3-0.7-0.5s-0.4-0.5-0.5-0.8
		c-0.1-0.3-0.2-0.6-0.2-1c0-0.4,0.1-0.8,0.2-1.1c0.2-0.3,0.4-0.6,0.7-0.9c0.3-0.3,0.6-0.4,1-0.6c0.4-0.1,0.8-0.2,1.3-0.2
		c0.6,0,1.2,0.1,1.7,0.4c0.5,0.2,1,0.6,1.4,0.9l-0.7,0.9c-0.3-0.3-0.7-0.6-1.1-0.7c-0.4-0.2-0.8-0.3-1.3-0.3c-0.6,0-1.1,0.1-1.4,0.4
		s-0.5,0.6-0.5,1.1c0,0.3,0.1,0.5,0.2,0.6c0.1,0.2,0.2,0.3,0.4,0.5c0.2,0.1,0.4,0.3,0.6,0.4c0.2,0.1,0.4,0.2,0.6,0.3l1.5,0.6
		c0.3,0.1,0.6,0.3,0.8,0.4c0.3,0.2,0.5,0.4,0.7,0.6s0.3,0.5,0.5,0.8s0.2,0.6,0.2,1c0,0.4-0.1,0.8-0.2,1.2s-0.4,0.7-0.7,1
		c-0.3,0.3-0.7,0.5-1.1,0.6S132.3,135.8,131.7,135.8z"/>
	<path class="st2" d="M136,135.6l3.6-10.5h1.5l3.6,10.5h-1.4l-1-3.2h-3.8l-1,3.2H136z M139.2,129.8l-0.5,1.6h3.2l-0.5-1.6
		c-0.2-0.6-0.4-1.2-0.5-1.8c-0.2-0.6-0.3-1.2-0.5-1.8h-0.1c-0.2,0.6-0.3,1.2-0.5,1.8C139.5,128.6,139.4,129.2,139.2,129.8z"/>
	<path class="st2" d="M147.4,135.6v-9.4h-3.2v-1.1h7.7v1.1h-3.2v9.4H147.4z"/>
	<path class="st2" d="M153.8,135.6v-10.5h1.3v10.5H153.8z"/>
	<path class="st2" d="M161.8,135.8c-0.7,0-1.3-0.1-1.8-0.4c-0.5-0.3-1-0.6-1.4-1.1c-0.4-0.5-0.7-1.1-0.9-1.7
		c-0.2-0.7-0.3-1.4-0.3-2.3s0.1-1.6,0.3-2.3c0.2-0.7,0.5-1.2,0.9-1.7c0.4-0.5,0.9-0.8,1.4-1.1c0.5-0.2,1.2-0.4,1.8-0.4
		c0.7,0,1.3,0.1,1.8,0.4c0.5,0.3,1,0.6,1.4,1.1c0.4,0.5,0.7,1,0.9,1.7s0.3,1.4,0.3,2.2c0,0.8-0.1,1.6-0.3,2.3
		c-0.2,0.7-0.5,1.3-0.9,1.7c-0.4,0.5-0.9,0.8-1.4,1.1C163.1,135.7,162.5,135.8,161.8,135.8z M161.8,134.7c0.5,0,0.9-0.1,1.3-0.3
		c0.4-0.2,0.7-0.5,1-0.9s0.5-0.8,0.6-1.4c0.1-0.5,0.2-1.1,0.2-1.8c0-0.7-0.1-1.2-0.2-1.8c-0.1-0.5-0.4-1-0.6-1.3
		c-0.3-0.4-0.6-0.6-1-0.8c-0.4-0.2-0.8-0.3-1.3-0.3c-0.5,0-0.9,0.1-1.3,0.3c-0.4,0.2-0.7,0.5-1,0.8c-0.3,0.4-0.5,0.8-0.6,1.3
		c-0.1,0.5-0.2,1.1-0.2,1.8c0,0.7,0.1,1.3,0.2,1.8c0.1,0.5,0.4,1,0.6,1.4s0.6,0.7,1,0.9C161,134.5,161.4,134.7,161.8,134.7z"/>
	<path class="st2" d="M168.6,135.6v-10.5h1.4l3.8,6.6l1.1,2.2h0.1c0-0.5-0.1-1.1-0.1-1.7c0-0.6-0.1-1.1-0.1-1.7v-5.4h1.3v10.5h-1.4
		l-3.8-6.6l-1.1-2.2h-0.1c0,0.5,0.1,1.1,0.1,1.6c0,0.5,0.1,1.1,0.1,1.7v5.5H168.6z"/>
	<path class="st2" d="M181.9,135.8c-0.7,0-1.4-0.1-2-0.4c-0.6-0.3-1.2-0.7-1.6-1.1l0.8-0.9c0.4,0.4,0.8,0.7,1.3,1
		c0.5,0.2,1,0.4,1.6,0.4c0.7,0,1.2-0.2,1.6-0.5c0.4-0.3,0.6-0.7,0.6-1.2c0-0.3,0-0.5-0.1-0.7c-0.1-0.2-0.2-0.3-0.4-0.5
		c-0.2-0.1-0.3-0.3-0.6-0.4c-0.2-0.1-0.4-0.2-0.7-0.3l-1.5-0.7c-0.2-0.1-0.5-0.2-0.8-0.4s-0.5-0.3-0.7-0.5s-0.4-0.5-0.5-0.8
		c-0.1-0.3-0.2-0.6-0.2-1c0-0.4,0.1-0.8,0.2-1.1c0.2-0.3,0.4-0.6,0.7-0.9c0.3-0.3,0.6-0.4,1-0.6c0.4-0.1,0.8-0.2,1.3-0.2
		c0.6,0,1.2,0.1,1.7,0.4c0.5,0.2,1,0.6,1.4,0.9l-0.7,0.9c-0.3-0.3-0.7-0.6-1.1-0.7c-0.4-0.2-0.8-0.3-1.3-0.3c-0.6,0-1.1,0.1-1.4,0.4
		s-0.5,0.6-0.5,1.1c0,0.3,0.1,0.5,0.2,0.6c0.1,0.2,0.2,0.3,0.4,0.5c0.2,0.1,0.4,0.3,0.6,0.4c0.2,0.1,0.4,0.2,0.6,0.3l1.5,0.6
		c0.3,0.1,0.6,0.3,0.8,0.4c0.3,0.2,0.5,0.4,0.7,0.6s0.3,0.5,0.5,0.8s0.2,0.6,0.2,1c0,0.4-0.1,0.8-0.2,1.2s-0.4,0.7-0.7,1
		c-0.3,0.3-0.7,0.5-1.1,0.6S182.4,135.8,181.9,135.8z"/>
	<path class="st2" d="M192.9,135.6v-9.4h-3.2v-1.1h7.7v1.1h-3.2v9.4H192.9z"/>
	<path class="st2" d="M202.8,135.8c-0.7,0-1.3-0.1-1.8-0.4c-0.5-0.3-1-0.6-1.4-1.1c-0.4-0.5-0.7-1.1-0.9-1.7
		c-0.2-0.7-0.3-1.4-0.3-2.3s0.1-1.6,0.3-2.3c0.2-0.7,0.5-1.2,0.9-1.7c0.4-0.5,0.9-0.8,1.4-1.1c0.5-0.2,1.2-0.4,1.8-0.4
		c0.7,0,1.3,0.1,1.8,0.4c0.5,0.3,1,0.6,1.4,1.1c0.4,0.5,0.7,1,0.9,1.7s0.3,1.4,0.3,2.2c0,0.8-0.1,1.6-0.3,2.3
		c-0.2,0.7-0.5,1.3-0.9,1.7c-0.4,0.5-0.9,0.8-1.4,1.1C204,135.7,203.4,135.8,202.8,135.8z M202.8,134.7c0.5,0,0.9-0.1,1.3-0.3
		c0.4-0.2,0.7-0.5,1-0.9s0.5-0.8,0.6-1.4c0.1-0.5,0.2-1.1,0.2-1.8c0-0.7-0.1-1.2-0.2-1.8c-0.1-0.5-0.4-1-0.6-1.3
		c-0.3-0.4-0.6-0.6-1-0.8c-0.4-0.2-0.8-0.3-1.3-0.3c-0.5,0-0.9,0.1-1.3,0.3c-0.4,0.2-0.7,0.5-1,0.8c-0.3,0.4-0.5,0.8-0.6,1.3
		c-0.1,0.5-0.2,1.1-0.2,1.8c0,0.7,0.1,1.3,0.2,1.8c0.1,0.5,0.4,1,0.6,1.4s0.6,0.7,1,0.9C201.9,134.5,202.3,134.7,202.8,134.7z"/>
	<path class="st2" d="M212.7,135.6v-10.5h1.6l2,5.6c0.1,0.4,0.3,0.7,0.4,1.1c0.1,0.4,0.2,0.7,0.4,1.1h0.1c0.1-0.4,0.2-0.7,0.4-1.1
		c0.1-0.4,0.2-0.7,0.4-1.1l2-5.6h1.6v10.5h-1.2v-5.8c0-0.5,0-1,0.1-1.6c0-0.6,0.1-1.1,0.1-1.6h-0.1l-0.8,2.4l-2,5.4h-0.9l-2-5.4
		l-0.8-2.4h-0.1c0,0.5,0.1,1,0.1,1.6c0,0.6,0.1,1.1,0.1,1.6v5.8H212.7z"/>
	<path class="st2" d="M222.9,135.6l3.6-10.5h1.5l3.6,10.5h-1.4l-1-3.2h-3.8l-1,3.2H222.9z M226.1,129.8l-0.5,1.6h3.2l-0.5-1.6
		c-0.2-0.6-0.4-1.2-0.5-1.8c-0.2-0.6-0.3-1.2-0.5-1.8h-0.1c-0.2,0.6-0.3,1.2-0.5,1.8C226.5,128.6,226.3,129.2,226.1,129.8z"/>
	<path class="st2" d="M233,135.6v-10.5h1.4l3.8,6.6l1.1,2.2h0.1c0-0.5-0.1-1.1-0.1-1.7c0-0.6-0.1-1.1-0.1-1.7v-5.4h1.3v10.5h-1.4
		l-3.8-6.6l-1.1-2.2h-0.1c0,0.5,0.1,1.1,0.1,1.6c0,0.5,0.1,1.1,0.1,1.7v5.5H233z"/>
	<path class="st2" d="M242,135.6l3.6-10.5h1.5l3.6,10.5h-1.4l-1-3.2h-3.8l-1,3.2H242z M245.2,129.8l-0.5,1.6h3.2l-0.5-1.6
		c-0.2-0.6-0.4-1.2-0.5-1.8c-0.2-0.6-0.3-1.2-0.5-1.8h-0.1c-0.2,0.6-0.3,1.2-0.5,1.8C245.6,128.6,245.4,129.2,245.2,129.8z"/>
	<path class="st2" d="M256.1,135.8c-0.7,0-1.3-0.1-1.9-0.4c-0.6-0.2-1.1-0.6-1.5-1.1c-0.4-0.5-0.7-1-1-1.7c-0.2-0.7-0.4-1.4-0.4-2.3
		c0-0.8,0.1-1.6,0.4-2.3s0.6-1.2,1-1.7s0.9-0.8,1.5-1.1c0.6-0.3,1.2-0.4,1.9-0.4c0.4,0,0.7,0,1,0.1c0.3,0.1,0.6,0.2,0.8,0.3
		c0.2,0.1,0.5,0.3,0.7,0.4c0.2,0.2,0.4,0.3,0.5,0.5l-0.7,0.9c-0.3-0.3-0.6-0.5-0.9-0.7c-0.4-0.2-0.8-0.3-1.3-0.3
		c-0.5,0-1,0.1-1.4,0.3c-0.4,0.2-0.8,0.5-1.1,0.8s-0.5,0.8-0.7,1.3c-0.2,0.5-0.2,1.1-0.2,1.8c0,0.7,0.1,1.3,0.2,1.8
		c0.2,0.5,0.4,1,0.7,1.4c0.3,0.4,0.7,0.7,1.1,0.9s0.9,0.3,1.5,0.3c0.4,0,0.7-0.1,1.1-0.2c0.3-0.1,0.6-0.3,0.8-0.5v-2.7h-2.2v-1.1
		h3.4v4.4c-0.3,0.4-0.8,0.6-1.3,0.9C257.4,135.7,256.8,135.8,256.1,135.8z"/>
	<path class="st2" d="M261.8,135.6v-10.5h6v1.1h-4.7v3.3h4v1.1h-4v3.8h4.9v1.1H261.8z"/>
	<path class="st2" d="M273.4,135.6v-10.5h3.3c0.5,0,1,0.1,1.5,0.2c0.5,0.1,0.8,0.3,1.2,0.5c0.3,0.2,0.6,0.5,0.8,0.9
		c0.2,0.4,0.3,0.8,0.3,1.4c0,0.8-0.2,1.5-0.6,2s-1,0.8-1.7,1l2.7,4.6h-1.5l-2.5-4.4h-1.9v4.4H273.4z M274.8,130.1h1.8
		c0.8,0,1.5-0.2,1.9-0.5s0.7-0.8,0.7-1.5c0-0.7-0.2-1.2-0.7-1.5s-1.1-0.4-1.9-0.4h-1.8V130.1z"/>
	<path class="st2" d="M282.5,135.6v-10.5h1.3v10.5H282.5z"/>
	<path class="st2" d="M289.7,135.8c-0.7,0-1.4-0.1-2-0.4c-0.6-0.3-1.2-0.7-1.6-1.1l0.8-0.9c0.4,0.4,0.8,0.7,1.3,1
		c0.5,0.2,1,0.4,1.6,0.4c0.7,0,1.2-0.2,1.6-0.5c0.4-0.3,0.6-0.7,0.6-1.2c0-0.3,0-0.5-0.1-0.7c-0.1-0.2-0.2-0.3-0.4-0.5
		c-0.2-0.1-0.3-0.3-0.6-0.4c-0.2-0.1-0.4-0.2-0.7-0.3l-1.5-0.7c-0.2-0.1-0.5-0.2-0.8-0.4c-0.3-0.1-0.5-0.3-0.7-0.5
		c-0.2-0.2-0.4-0.5-0.5-0.8c-0.1-0.3-0.2-0.6-0.2-1c0-0.4,0.1-0.8,0.2-1.1c0.2-0.3,0.4-0.6,0.7-0.9c0.3-0.3,0.6-0.4,1-0.6
		c0.4-0.1,0.8-0.2,1.3-0.2c0.6,0,1.2,0.1,1.7,0.4c0.5,0.2,1,0.6,1.4,0.9l-0.7,0.9c-0.3-0.3-0.7-0.6-1.1-0.7
		c-0.4-0.2-0.8-0.3-1.3-0.3c-0.6,0-1.1,0.1-1.4,0.4c-0.4,0.3-0.5,0.6-0.5,1.1c0,0.3,0,0.5,0.2,0.6c0.1,0.2,0.2,0.3,0.4,0.5
		c0.2,0.1,0.4,0.3,0.6,0.4c0.2,0.1,0.4,0.2,0.6,0.3l1.5,0.6c0.3,0.1,0.6,0.3,0.8,0.4c0.3,0.2,0.5,0.4,0.7,0.6s0.3,0.5,0.5,0.8
		s0.2,0.6,0.2,1c0,0.4-0.1,0.8-0.2,1.2s-0.4,0.7-0.7,1s-0.7,0.5-1.1,0.6S290.2,135.8,289.7,135.8z"/>
	<path class="st2" d="M295.3,135.6v-10.5h1.3v5.3h0l4.4-5.3h1.5l-3.3,4l3.8,6.5h-1.5l-3.1-5.5l-1.8,2.1v3.3H295.3z"/>
	<path class="st2" d="M307.3,135.8c-0.7,0-1.4-0.1-2-0.4c-0.6-0.3-1.2-0.7-1.6-1.1l0.8-0.9c0.4,0.4,0.8,0.7,1.3,1
		c0.5,0.2,1,0.4,1.6,0.4c0.7,0,1.2-0.2,1.6-0.5c0.4-0.3,0.6-0.7,0.6-1.2c0-0.3,0-0.5-0.1-0.7c-0.1-0.2-0.2-0.3-0.4-0.5
		c-0.2-0.1-0.3-0.3-0.6-0.4c-0.2-0.1-0.4-0.2-0.7-0.3l-1.5-0.7c-0.2-0.1-0.5-0.2-0.8-0.4c-0.3-0.1-0.5-0.3-0.7-0.5
		c-0.2-0.2-0.4-0.5-0.5-0.8c-0.1-0.3-0.2-0.6-0.2-1c0-0.4,0.1-0.8,0.2-1.1c0.2-0.3,0.4-0.6,0.7-0.9c0.3-0.3,0.6-0.4,1-0.6
		c0.4-0.1,0.8-0.2,1.3-0.2c0.6,0,1.2,0.1,1.7,0.4c0.5,0.2,1,0.6,1.4,0.9l-0.7,0.9c-0.3-0.3-0.7-0.6-1.1-0.7
		c-0.4-0.2-0.8-0.3-1.3-0.3c-0.6,0-1.1,0.1-1.4,0.4c-0.4,0.3-0.5,0.6-0.5,1.1c0,0.3,0,0.5,0.2,0.6c0.1,0.2,0.2,0.3,0.4,0.5
		c0.2,0.1,0.4,0.3,0.6,0.4c0.2,0.1,0.4,0.2,0.6,0.3l1.5,0.6c0.3,0.1,0.6,0.3,0.8,0.4c0.3,0.2,0.5,0.4,0.7,0.6s0.3,0.5,0.5,0.8
		s0.2,0.6,0.2,1c0,0.4-0.1,0.8-0.2,1.2s-0.4,0.7-0.7,1s-0.7,0.5-1.1,0.6S307.9,135.8,307.3,135.8z"/>
	<path class="st2" d="M316.2,135.6v-10.5h1.3v9.4h4.6v1.1H316.2z"/>
	<path class="st2" d="M323.9,135.6v-10.5h1.3v10.5H323.9z"/>
	<path class="st2" d="M328.1,135.6v-10.5h1.3v5.3h0l4.4-5.3h1.5l-3.3,4l3.8,6.5h-1.5l-3.1-5.5l-1.8,2.1v3.3H328.1z"/>
	<path class="st2" d="M337.4,135.6v-10.5h6v1.1h-4.7v3.3h4v1.1h-4v3.8h4.9v1.1H337.4z"/>
	<path class="st2" d="M349,135.6v-10.5h1.3v10.5H349z"/>
	<path class="st2" d="M353.3,135.6v-10.5h2.6c1.6,0,2.9,0.4,3.7,1.3s1.3,2.2,1.3,3.9c0,0.8-0.1,1.6-0.3,2.2
		c-0.2,0.7-0.5,1.2-0.9,1.7c-0.4,0.5-0.9,0.8-1.5,1c-0.6,0.2-1.3,0.4-2.1,0.4H353.3z M354.6,134.5h1.2c1.2,0,2.1-0.4,2.8-1.1
		c0.6-0.7,0.9-1.8,0.9-3.1s-0.3-2.4-0.9-3.1s-1.5-1.1-2.8-1.1h-1.2V134.5z"/>
	<path class="st2" d="M363.1,135.6v-10.5h6v1.1h-4.7v3.3h4v1.1h-4v3.8h4.9v1.1H363.1z"/>
	<path class="st2" d="M371.5,135.6v-10.5h1.4l3.8,6.6l1.1,2.2h0.1c0-0.5-0.1-1.1-0.1-1.7c0-0.6-0.1-1.1-0.1-1.7v-5.4h1.3v10.5h-1.4
		l-3.8-6.6l-1.1-2.2h-0.1c0,0.5,0.1,1.1,0.1,1.6c0,0.5,0.1,1.1,0.1,1.7v5.5H371.5z"/>
	<path class="st2" d="M384,135.6v-9.4h-3.2v-1.1h7.7v1.1h-3.2v9.4H384z"/>
	<path class="st2" d="M390.5,135.6v-10.5h1.3v10.5H390.5z"/>
	<path class="st2" d="M396.8,135.6v-9.4h-3.2v-1.1h7.7v1.1h-3.2v9.4H396.8z"/>
	<path class="st2" d="M404.7,135.6v-4.1l-3.2-6.4h1.4l1.4,3c0.2,0.4,0.3,0.8,0.5,1.1s0.3,0.8,0.5,1.2h0.1c0.2-0.4,0.4-0.8,0.5-1.2
		s0.4-0.8,0.5-1.1l1.3-3h1.4l-3.2,6.4v4.1H404.7z"/>
	<path class="st2" d="M78.2,159.6v-9.4H75v-1.1h7.7v1.1h-3.2v9.4H78.2z"/>
	<path class="st2" d="M84.6,159.6v-10.5h1.3v4.4h4.9v-4.4h1.3v10.5h-1.3v-4.9h-4.9v4.9H84.6z"/>
	<path class="st2" d="M95,159.6v-10.5h6v1.1h-4.7v3.3h4v1.1h-4v3.8h4.9v1.1H95z"/>
	<path class="st2" d="M103.5,159.6v-10.5h6v1.1h-4.7v3.6h4v1.1h-4v4.7H103.5z"/>
	<path class="st2" d="M113.5,159.6v-9.4h-3.2v-1.1h7.7v1.1h-3.2v9.4H113.5z"/>
	<path class="st2" d="M117.9,162.3l-0.3-0.8c0.5-0.2,0.8-0.5,1.1-0.8c0.3-0.3,0.4-0.7,0.4-1.1c0,0-0.1,0-0.2,0
		c-0.3,0-0.5-0.1-0.7-0.2c-0.2-0.2-0.3-0.4-0.3-0.7c0-0.3,0.1-0.5,0.3-0.7c0.2-0.2,0.4-0.2,0.7-0.2c0.3,0,0.6,0.1,0.8,0.4
		c0.2,0.3,0.3,0.7,0.3,1.1c0,0.7-0.2,1.3-0.6,1.8C119,161.7,118.5,162.1,117.9,162.3z"/>
	<path class="st2" d="M125.4,159.6v-10.5h6v1.1h-4.7v3.6h4v1.1h-4v4.7H125.4z"/>
	<path class="st2" d="M133.3,159.6v-10.5h3.3c0.5,0,1,0.1,1.5,0.2c0.5,0.1,0.8,0.3,1.2,0.5c0.3,0.2,0.6,0.5,0.8,0.9
		c0.2,0.4,0.3,0.8,0.3,1.4c0,0.8-0.2,1.5-0.6,2s-1,0.8-1.7,1l2.7,4.6h-1.5l-2.5-4.4h-1.9v4.4H133.3z M134.7,154.1h1.8
		c0.8,0,1.5-0.2,1.9-0.5c0.4-0.3,0.7-0.8,0.7-1.5c0-0.7-0.2-1.2-0.7-1.5c-0.4-0.3-1.1-0.4-1.9-0.4h-1.8V154.1z"/>
	<path class="st2" d="M141,159.6l3.6-10.5h1.5l3.6,10.5h-1.4l-1-3.2h-3.8l-1,3.2H141z M144.2,153.8l-0.5,1.6h3.2l-0.5-1.6
		c-0.2-0.6-0.4-1.2-0.5-1.8c-0.2-0.6-0.3-1.2-0.5-1.8h-0.1c-0.2,0.6-0.3,1.2-0.5,1.8C144.6,152.6,144.4,153.2,144.2,153.8z"/>
	<path class="st2" d="M154.6,159.8c-0.5,0-1-0.1-1.5-0.2c-0.5-0.2-0.9-0.4-1.2-0.8c-0.3-0.4-0.6-0.8-0.8-1.4
		c-0.2-0.6-0.3-1.3-0.3-2.1v-6.2h1.3v6.2c0,0.6,0.1,1.2,0.2,1.6c0.1,0.4,0.3,0.8,0.5,1c0.2,0.3,0.5,0.4,0.8,0.6
		c0.3,0.1,0.6,0.2,1,0.2c0.4,0,0.7-0.1,1-0.2c0.3-0.1,0.6-0.3,0.8-0.6c0.2-0.3,0.4-0.6,0.5-1c0.1-0.4,0.2-1,0.2-1.6v-6.2h1.3v6.2
		c0,0.8-0.1,1.6-0.3,2.1s-0.5,1-0.8,1.4c-0.3,0.4-0.7,0.6-1.2,0.8S155.1,159.8,154.6,159.8z"/>
	<path class="st2" d="M161.2,159.6v-10.5h2.6c1.6,0,2.9,0.4,3.7,1.3c0.8,0.9,1.3,2.2,1.3,3.9c0,0.8-0.1,1.6-0.3,2.2
		c-0.2,0.7-0.5,1.2-0.9,1.7c-0.4,0.5-0.9,0.8-1.5,1c-0.6,0.2-1.3,0.4-2.1,0.4H161.2z M162.5,158.5h1.2c1.2,0,2.1-0.4,2.8-1.1
		c0.6-0.7,0.9-1.8,0.9-3.1s-0.3-2.4-0.9-3.1c-0.6-0.7-1.5-1.1-2.8-1.1h-1.2V158.5z"/>
	<path class="st2" d="M170.6,162.3l-0.3-0.8c0.5-0.2,0.8-0.5,1.1-0.8c0.3-0.3,0.4-0.7,0.4-1.1c0,0-0.1,0-0.2,0
		c-0.3,0-0.5-0.1-0.7-0.2c-0.2-0.2-0.3-0.4-0.3-0.7c0-0.3,0.1-0.5,0.3-0.7c0.2-0.2,0.4-0.2,0.7-0.2c0.3,0,0.6,0.1,0.8,0.4
		c0.2,0.3,0.3,0.7,0.3,1.1c0,0.7-0.2,1.3-0.6,1.8C171.8,161.7,171.3,162.1,170.6,162.3z"/>
	<path class="st2" d="M178.2,159.6v-10.5h1.6l2,5.6c0.1,0.4,0.3,0.7,0.4,1.1c0.1,0.4,0.2,0.7,0.4,1.1h0.1c0.1-0.4,0.2-0.7,0.4-1.1
		c0.1-0.4,0.2-0.7,0.4-1.1l2-5.6h1.6v10.5h-1.2v-5.8c0-0.5,0-1,0.1-1.6c0-0.6,0.1-1.1,0.1-1.6h-0.1l-0.8,2.4l-2,5.4h-0.9l-2-5.4
		l-0.8-2.4h-0.1c0,0.5,0.1,1,0.1,1.6c0,0.6,0.1,1.1,0.1,1.6v5.8H178.2z"/>
	<path class="st2" d="M193.7,159.8c-0.7,0-1.3-0.1-1.8-0.4c-0.5-0.3-1-0.6-1.4-1.1c-0.4-0.5-0.7-1.1-0.9-1.7
		c-0.2-0.7-0.3-1.4-0.3-2.3s0.1-1.6,0.3-2.3c0.2-0.7,0.5-1.2,0.9-1.7c0.4-0.5,0.9-0.8,1.4-1.1c0.5-0.2,1.2-0.4,1.8-0.4
		c0.7,0,1.3,0.1,1.8,0.4c0.5,0.3,1,0.6,1.4,1.1c0.4,0.5,0.7,1,0.9,1.7s0.3,1.4,0.3,2.2c0,0.8-0.1,1.6-0.3,2.3
		c-0.2,0.7-0.5,1.3-0.9,1.7c-0.4,0.5-0.9,0.8-1.4,1.1C195,159.7,194.3,159.8,193.7,159.8z M193.7,158.7c0.5,0,0.9-0.1,1.3-0.3
		c0.4-0.2,0.7-0.5,1-0.9s0.5-0.8,0.6-1.4c0.1-0.5,0.2-1.1,0.2-1.8c0-0.7-0.1-1.2-0.2-1.8c-0.1-0.5-0.4-1-0.6-1.3
		c-0.3-0.4-0.6-0.6-1-0.8c-0.4-0.2-0.8-0.3-1.3-0.3c-0.5,0-0.9,0.1-1.3,0.3c-0.4,0.2-0.7,0.5-1,0.8c-0.3,0.4-0.5,0.8-0.6,1.3
		c-0.1,0.5-0.2,1.1-0.2,1.8c0,0.7,0.1,1.3,0.2,1.8c0.1,0.5,0.4,1,0.6,1.4s0.6,0.7,1,0.9C192.8,158.5,193.2,158.7,193.7,158.7z"/>
	<path class="st2" d="M200.4,159.6v-10.5h1.4l3.8,6.6l1.1,2.2h0.1c0-0.5-0.1-1.1-0.1-1.7c0-0.6-0.1-1.1-0.1-1.7v-5.4h1.3v10.5h-1.4
		l-3.8-6.6l-1.1-2.2h-0.1c0,0.5,0.1,1.1,0.1,1.6c0,0.5,0.1,1.1,0.1,1.7v5.5H200.4z"/>
	<path class="st2" d="M210.8,159.6v-10.5h6v1.1h-4.7v3.3h4v1.1h-4v3.8h4.9v1.1H210.8z"/>
	<path class="st2" d="M220.9,159.6v-4.1l-3.2-6.4h1.4l1.4,3c0.2,0.4,0.3,0.8,0.5,1.1c0.2,0.4,0.3,0.8,0.5,1.2h0.1
		c0.2-0.4,0.4-0.8,0.5-1.2c0.2-0.4,0.4-0.8,0.5-1.1l1.3-3h1.4l-3.2,6.4v4.1H220.9z"/>
	<path class="st2" d="M230,159.6v-10.5h1.3v9.4h4.6v1.1H230z"/>
	<path class="st2" d="M236.5,159.6l3.6-10.5h1.5l3.6,10.5h-1.4l-1-3.2h-3.8l-1,3.2H236.5z M239.7,153.8l-0.5,1.6h3.2l-0.5-1.6
		c-0.2-0.6-0.4-1.2-0.5-1.8c-0.2-0.6-0.3-1.2-0.5-1.8h-0.1c-0.2,0.6-0.3,1.2-0.5,1.8C240,152.6,239.9,153.2,239.7,153.8z"/>
	<path class="st2" d="M250.1,159.8c-0.5,0-1-0.1-1.5-0.2c-0.5-0.2-0.9-0.4-1.2-0.8c-0.3-0.4-0.6-0.8-0.8-1.4
		c-0.2-0.6-0.3-1.3-0.3-2.1v-6.2h1.3v6.2c0,0.6,0.1,1.2,0.2,1.6c0.1,0.4,0.3,0.8,0.5,1c0.2,0.3,0.5,0.4,0.8,0.6
		c0.3,0.1,0.6,0.2,1,0.2c0.4,0,0.7-0.1,1-0.2c0.3-0.1,0.6-0.3,0.8-0.6c0.2-0.3,0.4-0.6,0.5-1c0.1-0.4,0.2-1,0.2-1.6v-6.2h1.3v6.2
		c0,0.8-0.1,1.6-0.3,2.1c-0.2,0.6-0.5,1-0.8,1.4c-0.3,0.4-0.7,0.6-1.2,0.8C251.1,159.7,250.6,159.8,250.1,159.8z"/>
	<path class="st2" d="M256.6,159.6v-10.5h1.4l3.8,6.6l1.1,2.2h0.1c0-0.5-0.1-1.1-0.1-1.7c0-0.6-0.1-1.1-0.1-1.7v-5.4h1.3v10.5h-1.4
		l-3.8-6.6l-1.1-2.2h-0.1c0,0.5,0.1,1.1,0.1,1.6s0.1,1.1,0.1,1.7v5.5H256.6z"/>
	<path class="st2" d="M267,159.6v-10.5h2.6c1.6,0,2.9,0.4,3.7,1.3s1.3,2.2,1.3,3.9c0,0.8-0.1,1.6-0.3,2.2c-0.2,0.7-0.5,1.2-0.9,1.7
		c-0.4,0.5-0.9,0.8-1.5,1c-0.6,0.2-1.3,0.4-2.1,0.4H267z M268.3,158.5h1.2c1.2,0,2.1-0.4,2.8-1.1c0.6-0.7,0.9-1.8,0.9-3.1
		s-0.3-2.4-0.9-3.1s-1.5-1.1-2.8-1.1h-1.2V158.5z"/>
	<path class="st2" d="M276.8,159.6v-10.5h6v1.1h-4.7v3.3h4v1.1h-4v3.8h4.9v1.1H276.8z"/>
	<path class="st2" d="M285.3,159.6v-10.5h3.3c0.5,0,1,0.1,1.5,0.2c0.5,0.1,0.8,0.3,1.2,0.5c0.3,0.2,0.6,0.5,0.8,0.9
		c0.2,0.4,0.3,0.8,0.3,1.4c0,0.8-0.2,1.5-0.6,2s-1,0.8-1.7,1l2.7,4.6H291l-2.5-4.4h-1.9v4.4H285.3z M286.6,154.1h1.8
		c0.8,0,1.5-0.2,1.9-0.5s0.7-0.8,0.7-1.5c0-0.7-0.2-1.2-0.7-1.5s-1.1-0.4-1.9-0.4h-1.8V154.1z"/>
	<path class="st2" d="M294.4,159.6v-10.5h1.3v10.5H294.4z"/>
	<path class="st2" d="M298.6,159.6v-10.5h1.4l3.8,6.6l1.1,2.2h0.1c0-0.5-0.1-1.1-0.1-1.7c0-0.6-0.1-1.1-0.1-1.7v-5.4h1.3v10.5h-1.4
		l-3.8-6.6l-1.1-2.2h-0.1c0,0.5,0.1,1.1,0.1,1.6c0,0.5,0.1,1.1,0.1,1.7v5.5H298.6z"/>
	<path class="st2" d="M313.1,159.8c-0.7,0-1.3-0.1-1.9-0.4c-0.6-0.2-1.1-0.6-1.5-1.1c-0.4-0.5-0.7-1-1-1.7c-0.2-0.7-0.4-1.4-0.4-2.3
		c0-0.8,0.1-1.6,0.4-2.3c0.2-0.7,0.6-1.2,1-1.7c0.4-0.5,0.9-0.8,1.5-1.1c0.6-0.3,1.2-0.4,1.9-0.4c0.4,0,0.7,0,1,0.1
		c0.3,0.1,0.6,0.2,0.8,0.3c0.2,0.1,0.5,0.3,0.7,0.4c0.2,0.2,0.4,0.3,0.5,0.5l-0.7,0.9c-0.3-0.3-0.6-0.5-0.9-0.7
		c-0.4-0.2-0.8-0.3-1.3-0.3s-1,0.1-1.4,0.3c-0.4,0.2-0.8,0.5-1.1,0.8c-0.3,0.4-0.5,0.8-0.7,1.3c-0.2,0.5-0.2,1.1-0.2,1.8
		c0,0.7,0.1,1.3,0.2,1.8c0.2,0.5,0.4,1,0.7,1.4c0.3,0.4,0.7,0.7,1.1,0.9c0.4,0.2,0.9,0.3,1.5,0.3c0.4,0,0.7-0.1,1.1-0.2
		s0.6-0.3,0.8-0.5v-2.7h-2.2v-1.1h3.4v4.4c-0.3,0.4-0.8,0.6-1.3,0.9C314.4,159.7,313.8,159.8,313.1,159.8z"/>
	<path class="st2" d="M320.6,159.6l3.6-10.5h1.5l3.6,10.5h-1.4l-1-3.2H323l-1,3.2H320.6z M323.8,153.8l-0.5,1.6h3.2l-0.5-1.6
		c-0.2-0.6-0.4-1.2-0.5-1.8c-0.2-0.6-0.3-1.2-0.5-1.8h-0.1c-0.2,0.6-0.3,1.2-0.5,1.8C324.2,152.6,324,153.2,323.8,153.8z"/>
	<path class="st2" d="M330.7,159.6v-10.5h1.4l3.8,6.6l1.1,2.2h0.1c0-0.5-0.1-1.1-0.1-1.7c0-0.6-0.1-1.1-0.1-1.7v-5.4h1.3v10.5h-1.4
		L333,153l-1.1-2.2h-0.1c0,0.5,0.1,1.1,0.1,1.6c0,0.5,0.1,1.1,0.1,1.7v5.5H330.7z"/>
	<path class="st2" d="M341.1,159.6v-10.5h2.6c1.6,0,2.9,0.4,3.7,1.3s1.3,2.2,1.3,3.9c0,0.8-0.1,1.6-0.3,2.2
		c-0.2,0.7-0.5,1.2-0.9,1.7c-0.4,0.5-0.9,0.8-1.5,1c-0.6,0.2-1.3,0.4-2.1,0.4H341.1z M342.4,158.5h1.2c1.2,0,2.1-0.4,2.8-1.1
		c0.6-0.7,0.9-1.8,0.9-3.1s-0.3-2.4-0.9-3.1s-1.5-1.1-2.8-1.1h-1.2V158.5z"/>
	<path class="st2" d="M356.3,159.6v-9.4h-3.2v-1.1h7.7v1.1h-3.2v9.4H356.3z"/>
	<path class="st2" d="M362.7,159.6v-10.5h6v1.1H364v3.3h4v1.1h-4v3.8h4.9v1.1H362.7z"/>
	<path class="st2" d="M371.1,159.6v-10.5h3.3c0.5,0,1,0.1,1.5,0.2c0.5,0.1,0.8,0.3,1.2,0.5c0.3,0.2,0.6,0.5,0.8,0.9
		c0.2,0.4,0.3,0.8,0.3,1.4c0,0.8-0.2,1.5-0.6,2s-1,0.8-1.7,1l2.7,4.6h-1.5l-2.5-4.4h-1.9v4.4H371.1z M372.4,154.1h1.8
		c0.8,0,1.5-0.2,1.9-0.5s0.7-0.8,0.7-1.5c0-0.7-0.2-1.2-0.7-1.5s-1.1-0.4-1.9-0.4h-1.8V154.1z"/>
	<path class="st2" d="M380.2,159.6v-10.5h3.3c0.5,0,1,0.1,1.5,0.2c0.5,0.1,0.8,0.3,1.2,0.5c0.3,0.2,0.6,0.5,0.8,0.9
		c0.2,0.4,0.3,0.8,0.3,1.4c0,0.8-0.2,1.5-0.6,2s-1,0.8-1.7,1l2.7,4.6H386l-2.5-4.4h-1.9v4.4H380.2z M381.5,154.1h1.8
		c0.8,0,1.5-0.2,1.9-0.5s0.7-0.8,0.7-1.5c0-0.7-0.2-1.2-0.7-1.5s-1.1-0.4-1.9-0.4h-1.8V154.1z"/>
	<path class="st2" d="M393.2,159.8c-0.7,0-1.3-0.1-1.8-0.4c-0.5-0.3-1-0.6-1.4-1.1s-0.7-1.1-0.9-1.7c-0.2-0.7-0.3-1.4-0.3-2.3
		s0.1-1.6,0.3-2.3c0.2-0.7,0.5-1.2,0.9-1.7c0.4-0.5,0.9-0.8,1.4-1.1c0.5-0.2,1.2-0.4,1.8-0.4c0.7,0,1.3,0.1,1.8,0.4
		c0.5,0.3,1,0.6,1.4,1.1c0.4,0.5,0.7,1,0.9,1.7c0.2,0.7,0.3,1.4,0.3,2.2c0,0.8-0.1,1.6-0.3,2.3c-0.2,0.7-0.5,1.3-0.9,1.7
		c-0.4,0.5-0.9,0.8-1.4,1.1C394.5,159.7,393.8,159.8,393.2,159.8z M393.2,158.7c0.5,0,0.9-0.1,1.3-0.3s0.7-0.5,1-0.9
		c0.3-0.4,0.5-0.8,0.6-1.4c0.1-0.5,0.2-1.1,0.2-1.8c0-0.7-0.1-1.2-0.2-1.8c-0.1-0.5-0.4-1-0.6-1.3c-0.3-0.4-0.6-0.6-1-0.8
		c-0.4-0.2-0.8-0.3-1.3-0.3c-0.5,0-0.9,0.1-1.3,0.3c-0.4,0.2-0.7,0.5-1,0.8c-0.3,0.4-0.5,0.8-0.6,1.3c-0.1,0.5-0.2,1.1-0.2,1.8
		c0,0.7,0.1,1.3,0.2,1.8c0.1,0.5,0.4,1,0.6,1.4c0.3,0.4,0.6,0.7,1,0.9S392.7,158.7,393.2,158.7z"/>
	<path class="st2" d="M399.9,159.6v-10.5h3.3c0.5,0,1,0.1,1.5,0.2c0.5,0.1,0.8,0.3,1.2,0.5c0.3,0.2,0.6,0.5,0.8,0.9
		c0.2,0.4,0.3,0.8,0.3,1.4c0,0.8-0.2,1.5-0.6,2s-1,0.8-1.7,1l2.7,4.6h-1.5l-2.5-4.4h-1.9v4.4H399.9z M401.3,154.1h1.8
		c0.8,0,1.5-0.2,1.9-0.5s0.7-0.8,0.7-1.5c0-0.7-0.2-1.2-0.7-1.5s-1.1-0.4-1.9-0.4h-1.8V154.1z"/>
	<path class="st2" d="M409,159.6v-10.5h1.3v10.5H409z"/>
	<path class="st2" d="M416.2,159.8c-0.7,0-1.4-0.1-2-0.4c-0.6-0.3-1.2-0.7-1.6-1.1l0.8-0.9c0.4,0.4,0.8,0.7,1.3,1
		c0.5,0.2,1,0.4,1.6,0.4c0.7,0,1.2-0.2,1.6-0.5c0.4-0.3,0.6-0.7,0.6-1.2c0-0.3,0-0.5-0.1-0.7c-0.1-0.2-0.2-0.3-0.4-0.5
		c-0.2-0.1-0.3-0.3-0.6-0.4c-0.2-0.1-0.4-0.2-0.7-0.3l-1.5-0.7c-0.2-0.1-0.5-0.2-0.8-0.4c-0.3-0.1-0.5-0.3-0.7-0.5
		c-0.2-0.2-0.4-0.5-0.5-0.8c-0.1-0.3-0.2-0.6-0.2-1c0-0.4,0.1-0.8,0.2-1.1c0.2-0.3,0.4-0.6,0.7-0.9c0.3-0.3,0.6-0.4,1-0.6
		c0.4-0.1,0.8-0.2,1.3-0.2c0.6,0,1.2,0.1,1.7,0.4c0.5,0.2,1,0.6,1.4,0.9l-0.7,0.9c-0.3-0.3-0.7-0.6-1.1-0.7
		c-0.4-0.2-0.8-0.3-1.3-0.3c-0.6,0-1.1,0.1-1.4,0.4c-0.4,0.3-0.5,0.6-0.5,1.1c0,0.3,0,0.5,0.2,0.6c0.1,0.2,0.2,0.3,0.4,0.5
		c0.2,0.1,0.4,0.3,0.6,0.4c0.2,0.1,0.4,0.2,0.6,0.3l1.5,0.6c0.3,0.1,0.6,0.3,0.8,0.4c0.3,0.2,0.5,0.4,0.7,0.6s0.3,0.5,0.5,0.8
		s0.2,0.6,0.2,1c0,0.4-0.1,0.8-0.2,1.2s-0.4,0.7-0.7,1s-0.7,0.5-1.1,0.6S416.7,159.8,416.2,159.8z"/>
	<path class="st2" d="M421.8,159.6v-10.5h1.6l2,5.6c0.1,0.4,0.3,0.7,0.4,1.1c0.1,0.4,0.2,0.7,0.4,1.1h0.1c0.1-0.4,0.2-0.7,0.4-1.1
		c0.1-0.4,0.2-0.7,0.4-1.1l2-5.6h1.6v10.5h-1.2v-5.8c0-0.5,0-1,0.1-1.6c0-0.6,0.1-1.1,0.1-1.6h-0.1l-0.8,2.4l-2,5.4h-0.9l-2-5.4
		l-0.8-2.4h-0.1c0,0.5,0.1,1,0.1,1.6c0,0.6,0.1,1.1,0.1,1.6v5.8H421.8z"/>
	<path class="st2" d="M433.1,162.3l-0.3-0.8c0.5-0.2,0.8-0.5,1.1-0.8s0.4-0.7,0.4-1.1c0,0-0.1,0-0.2,0c-0.3,0-0.5-0.1-0.7-0.2
		s-0.3-0.4-0.3-0.7c0-0.3,0.1-0.5,0.3-0.7c0.2-0.2,0.4-0.2,0.7-0.2c0.3,0,0.6,0.1,0.8,0.4c0.2,0.3,0.3,0.7,0.3,1.1
		c0,0.7-0.2,1.3-0.6,1.8C434.2,161.7,433.7,162.1,433.1,162.3z"/>
	<path class="st2" d="M74.6,183.6l3.6-10.5h1.5l3.6,10.5h-1.4l-1-3.2H77l-1,3.2H74.6z M77.8,177.8l-0.5,1.6h3.2l-0.5-1.6
		c-0.2-0.6-0.4-1.2-0.5-1.8c-0.2-0.6-0.3-1.2-0.5-1.8h-0.1c-0.2,0.6-0.3,1.2-0.5,1.8C78.2,176.6,78,177.2,77.8,177.8z"/>
	<path class="st2" d="M84.7,183.6v-10.5h1.4l3.8,6.6l1.1,2.2h0.1c0-0.5-0.1-1.1-0.1-1.7c0-0.6-0.1-1.1-0.1-1.7v-5.4h1.3v10.5h-1.4
		L87,177l-1.1-2.2h-0.1c0,0.5,0.1,1.1,0.1,1.6c0,0.5,0.1,1.1,0.1,1.7v5.5H84.7z"/>
	<path class="st2" d="M95.1,183.6v-10.5h2.6c1.6,0,2.9,0.4,3.7,1.3c0.8,0.9,1.3,2.2,1.3,3.9c0,0.8-0.1,1.6-0.3,2.2s-0.5,1.2-0.9,1.7
		c-0.4,0.5-0.9,0.8-1.5,1s-1.3,0.4-2.1,0.4H95.1z M96.4,182.5h1.2c1.2,0,2.1-0.4,2.8-1.1c0.6-0.7,0.9-1.8,0.9-3.1
		c0-1.3-0.3-2.4-0.9-3.1c-0.6-0.7-1.5-1.1-2.8-1.1h-1.2V182.5z"/>
	<path class="st2" d="M108.1,183.6v-10.5h3c0.6,0,1.1,0.1,1.6,0.2s0.9,0.3,1.2,0.5s0.6,0.6,0.8,1s0.3,0.9,0.3,1.5
		c0,0.6-0.1,1-0.3,1.4s-0.5,0.7-0.8,1s-0.7,0.5-1.2,0.6c-0.5,0.1-1,0.2-1.6,0.2h-1.7v4.2H108.1z M109.4,178.4h1.6
		c0.9,0,1.6-0.2,2-0.5c0.4-0.3,0.7-0.9,0.7-1.6c0-0.8-0.2-1.3-0.7-1.6c-0.5-0.3-1.2-0.4-2.1-0.4h-1.5V178.4z"/>
	<path class="st2" d="M117.2,183.6v-10.5h3.3c0.5,0,1,0.1,1.5,0.2c0.5,0.1,0.8,0.3,1.2,0.5c0.3,0.2,0.6,0.5,0.8,0.9
		c0.2,0.4,0.3,0.8,0.3,1.4c0,0.8-0.2,1.5-0.6,2c-0.4,0.5-1,0.8-1.7,1l2.7,4.6h-1.5l-2.5-4.4h-1.9v4.4H117.2z M118.5,178.1h1.8
		c0.8,0,1.5-0.2,1.9-0.5c0.4-0.3,0.7-0.8,0.7-1.5c0-0.7-0.2-1.2-0.7-1.5c-0.4-0.3-1.1-0.4-1.9-0.4h-1.8V178.1z"/>
	<path class="st2" d="M126.3,183.6v-10.5h6v1.1h-4.7v3.3h4v1.1h-4v3.8h4.9v1.1H126.3z"/>
	<path class="st2" d="M136.6,183.6l-3.4-10.5h1.4l1.7,5.7c0.2,0.6,0.4,1.2,0.5,1.7s0.3,1.1,0.5,1.7h0.1c0.2-0.6,0.4-1.2,0.5-1.7
		c0.1-0.5,0.3-1.1,0.5-1.7l1.7-5.7h1.4l-3.3,10.5H136.6z"/>
	<path class="st2" d="M143,183.6v-10.5h6v1.1h-4.7v3.3h4v1.1h-4v3.8h4.9v1.1H143z"/>
	<path class="st2" d="M151.4,183.6v-10.5h1.4l3.8,6.6l1.1,2.2h0.1c0-0.5-0.1-1.1-0.1-1.7c0-0.6-0.1-1.1-0.1-1.7v-5.4h1.3v10.5h-1.4
		l-3.8-6.6l-1.1-2.2h-0.1c0,0.5,0.1,1.1,0.1,1.6c0,0.5,0.1,1.1,0.1,1.7v5.5H151.4z"/>
	<path class="st2" d="M163.9,183.6v-9.4h-3.2v-1.1h7.7v1.1h-3.2v9.4H163.9z"/>
	<path class="st2" d="M173.5,183.6v-10.5h6v1.1h-4.7v3.6h4v1.1h-4v4.7H173.5z"/>
	<path class="st2" d="M181.4,183.6v-10.5h1.3v10.5H181.4z"/>
	<path class="st2" d="M185.6,183.6v-10.5h1.4l3.8,6.6l1.1,2.2h0.1c0-0.5-0.1-1.1-0.1-1.7c0-0.6-0.1-1.1-0.1-1.7v-5.4h1.3v10.5h-1.4
		l-3.8-6.6l-1.1-2.2h-0.1c0,0.5,0.1,1.1,0.1,1.6c0,0.5,0.1,1.1,0.1,1.7v5.5H185.6z"/>
	<path class="st2" d="M194.6,183.6l3.6-10.5h1.5l3.6,10.5h-1.4l-1-3.2h-3.8l-1,3.2H194.6z M197.8,177.8l-0.5,1.6h3.2l-0.5-1.6
		c-0.2-0.6-0.4-1.2-0.5-1.8c-0.2-0.6-0.3-1.2-0.5-1.8h-0.1c-0.2,0.6-0.3,1.2-0.5,1.8C198.2,176.6,198,177.2,197.8,177.8z"/>
	<path class="st2" d="M204.7,183.6v-10.5h1.4l3.8,6.6l1.1,2.2h0.1c0-0.5-0.1-1.1-0.1-1.7c0-0.6-0.1-1.1-0.1-1.7v-5.4h1.3v10.5h-1.4
		L207,177l-1.1-2.2h-0.1c0,0.5,0.1,1.1,0.1,1.6c0,0.5,0.1,1.1,0.1,1.7v5.5H204.7z"/>
	<path class="st2" d="M219,183.8c-0.7,0-1.3-0.1-1.8-0.4c-0.6-0.2-1-0.6-1.4-1.1c-0.4-0.5-0.7-1-1-1.7s-0.3-1.4-0.3-2.3
		c0-0.8,0.1-1.6,0.4-2.3c0.2-0.7,0.6-1.2,1-1.7c0.4-0.5,0.9-0.8,1.5-1.1c0.6-0.2,1.2-0.4,1.9-0.4c0.6,0,1.2,0.1,1.7,0.4
		c0.5,0.3,0.9,0.6,1.2,0.9l-0.7,0.9c-0.3-0.3-0.6-0.5-0.9-0.7s-0.8-0.3-1.2-0.3c-0.5,0-1,0.1-1.4,0.3c-0.4,0.2-0.8,0.5-1,0.8
		s-0.5,0.8-0.7,1.3s-0.2,1.1-0.2,1.8c0,0.7,0.1,1.3,0.2,1.8s0.4,1,0.6,1.4c0.3,0.4,0.6,0.7,1,0.9c0.4,0.2,0.9,0.3,1.4,0.3
		c0.5,0,1-0.1,1.3-0.3c0.4-0.2,0.7-0.5,1.1-0.9l0.7,0.8c-0.4,0.5-0.9,0.9-1.4,1.1S219.7,183.8,219,183.8z"/>
	<path class="st2" d="M224.2,183.6v-10.5h1.3v10.5H224.2z"/>
	<path class="st2" d="M227,183.6l3.6-10.5h1.5l3.6,10.5h-1.4l-1-3.2h-3.8l-1,3.2H227z M230.2,177.8l-0.5,1.6h3.2l-0.5-1.6
		c-0.2-0.6-0.4-1.2-0.5-1.8c-0.2-0.6-0.3-1.2-0.5-1.8h-0.1c-0.2,0.6-0.3,1.2-0.5,1.8C230.6,176.6,230.4,177.2,230.2,177.8z"/>
	<path class="st2" d="M237.1,183.6v-10.5h1.3v9.4h4.6v1.1H237.1z"/>
	<path class="st2" d="M252,183.8c-0.7,0-1.3-0.1-1.8-0.4c-0.6-0.2-1-0.6-1.4-1.1c-0.4-0.5-0.7-1-1-1.7s-0.3-1.4-0.3-2.3
		c0-0.8,0.1-1.6,0.4-2.3c0.2-0.7,0.6-1.2,1-1.7c0.4-0.5,0.9-0.8,1.5-1.1c0.6-0.2,1.2-0.4,1.9-0.4c0.6,0,1.2,0.1,1.7,0.4
		c0.5,0.3,0.9,0.6,1.2,0.9l-0.7,0.9c-0.3-0.3-0.6-0.5-0.9-0.7c-0.4-0.2-0.8-0.3-1.2-0.3c-0.5,0-1,0.1-1.4,0.3
		c-0.4,0.2-0.8,0.5-1,0.8s-0.5,0.8-0.7,1.3s-0.2,1.1-0.2,1.8c0,0.7,0.1,1.3,0.2,1.8s0.4,1,0.6,1.4c0.3,0.4,0.6,0.7,1,0.9
		c0.4,0.2,0.9,0.3,1.4,0.3c0.5,0,1-0.1,1.3-0.3c0.4-0.2,0.7-0.5,1.1-0.9l0.7,0.8c-0.4,0.5-0.9,0.9-1.4,1.1S252.7,183.8,252,183.8z"
		/>
	<path class="st2" d="M257.2,183.6v-10.5h3.3c0.5,0,1,0.1,1.5,0.2c0.5,0.1,0.8,0.3,1.2,0.5c0.3,0.2,0.6,0.5,0.8,0.9
		c0.2,0.4,0.3,0.8,0.3,1.4c0,0.8-0.2,1.5-0.6,2c-0.4,0.5-1,0.8-1.7,1l2.7,4.6h-1.5l-2.5-4.4h-1.9v4.4H257.2z M258.5,178.1h1.8
		c0.8,0,1.5-0.2,1.9-0.5c0.4-0.3,0.7-0.8,0.7-1.5c0-0.7-0.2-1.2-0.7-1.5c-0.4-0.3-1.1-0.4-1.9-0.4h-1.8V178.1z"/>
	<path class="st2" d="M266.3,183.6v-10.5h1.3v10.5H266.3z"/>
	<path class="st2" d="M270.5,183.6v-10.5h1.6l2,5.6c0.1,0.4,0.3,0.7,0.4,1.1c0.1,0.4,0.2,0.7,0.4,1.1h0.1c0.1-0.4,0.2-0.7,0.4-1.1
		c0.1-0.4,0.2-0.7,0.4-1.1l2-5.6h1.6v10.5H278v-5.8c0-0.5,0-1,0.1-1.6s0.1-1.1,0.1-1.6h-0.1l-0.8,2.4l-2,5.4h-0.9l-2-5.4l-0.8-2.4
		h-0.1c0,0.5,0.1,1,0.1,1.6s0.1,1.1,0.1,1.6v5.8H270.5z"/>
	<path class="st2" d="M282.1,183.6v-10.5h6v1.1h-4.7v3.3h4v1.1h-4v3.8h4.9v1.1H282.1z"/>
	<path class="st2" d="M293.5,183.8c-0.7,0-1.4-0.1-2-0.4c-0.6-0.3-1.2-0.7-1.6-1.1l0.8-0.9c0.4,0.4,0.8,0.7,1.3,1
		c0.5,0.2,1,0.4,1.6,0.4c0.7,0,1.2-0.2,1.6-0.5c0.4-0.3,0.6-0.7,0.6-1.2c0-0.3,0-0.5-0.1-0.7s-0.2-0.3-0.4-0.5
		c-0.2-0.1-0.3-0.3-0.6-0.4c-0.2-0.1-0.4-0.2-0.7-0.3l-1.5-0.7c-0.2-0.1-0.5-0.2-0.8-0.4c-0.3-0.1-0.5-0.3-0.7-0.5
		c-0.2-0.2-0.4-0.5-0.5-0.8c-0.1-0.3-0.2-0.6-0.2-1c0-0.4,0.1-0.8,0.2-1.1c0.2-0.3,0.4-0.6,0.7-0.9c0.3-0.2,0.6-0.4,1-0.6
		c0.4-0.1,0.8-0.2,1.3-0.2c0.6,0,1.2,0.1,1.7,0.4s1,0.6,1.4,0.9l-0.7,0.9c-0.3-0.3-0.7-0.6-1.1-0.7c-0.4-0.2-0.8-0.3-1.3-0.3
		c-0.6,0-1.1,0.1-1.4,0.4c-0.4,0.3-0.5,0.6-0.5,1.1c0,0.3,0,0.5,0.2,0.6c0.1,0.2,0.2,0.3,0.4,0.5s0.4,0.3,0.6,0.4
		c0.2,0.1,0.4,0.2,0.6,0.3l1.5,0.6c0.3,0.1,0.6,0.3,0.8,0.4c0.3,0.2,0.5,0.4,0.7,0.6s0.3,0.5,0.5,0.8c0.1,0.3,0.2,0.6,0.2,1
		c0,0.4-0.1,0.8-0.2,1.2c-0.2,0.4-0.4,0.7-0.7,1c-0.3,0.3-0.7,0.5-1.1,0.6S294,183.8,293.5,183.8z"/>
	<path class="st2" d="M298.7,186.3l-0.3-0.8c0.5-0.2,0.8-0.5,1.1-0.8s0.4-0.7,0.4-1.1c0,0-0.1,0-0.2,0c-0.3,0-0.5-0.1-0.7-0.2
		c-0.2-0.2-0.3-0.4-0.3-0.7c0-0.3,0.1-0.5,0.3-0.7s0.4-0.2,0.7-0.2c0.3,0,0.6,0.1,0.8,0.4s0.3,0.7,0.3,1.1c0,0.7-0.2,1.3-0.6,1.8
		C299.9,185.7,299.4,186.1,298.7,186.3z"/>
	<path class="st2" d="M304.9,183.6l3.6-10.5h1.5l3.6,10.5h-1.4l-1-3.2h-3.8l-1,3.2H304.9z M308.1,177.8l-0.5,1.6h3.2l-0.5-1.6
		c-0.2-0.6-0.4-1.2-0.5-1.8c-0.2-0.6-0.3-1.2-0.5-1.8h-0.1c-0.2,0.6-0.3,1.2-0.5,1.8S308.3,177.2,308.1,177.8z"/>
	<path class="st2" d="M315,183.6v-10.5h1.4l3.8,6.6l1.1,2.2h0.1c0-0.5-0.1-1.1-0.1-1.7c0-0.6-0.1-1.1-0.1-1.7v-5.4h1.3v10.5h-1.4
		l-3.8-6.6l-1.1-2.2h-0.1c0,0.5,0.1,1.1,0.1,1.6c0,0.5,0.1,1.1,0.1,1.7v5.5H315z"/>
	<path class="st2" d="M325.3,183.6v-10.5h2.6c1.6,0,2.9,0.4,3.7,1.3c0.8,0.9,1.3,2.2,1.3,3.9c0,0.8-0.1,1.6-0.3,2.2
		c-0.2,0.7-0.5,1.2-0.9,1.7c-0.4,0.5-0.9,0.8-1.5,1c-0.6,0.2-1.3,0.4-2.1,0.4H325.3z M326.7,182.5h1.2c1.2,0,2.1-0.4,2.8-1.1
		s0.9-1.8,0.9-3.1c0-1.3-0.3-2.4-0.9-3.1s-1.5-1.1-2.8-1.1h-1.2V182.5z"/>
	<path class="st2" d="M338.4,183.6v-10.5h1.3v10.5H338.4z"/>
	<path class="st2" d="M342.6,183.6v-10.5h1.4l3.8,6.6l1.1,2.2h0.1c0-0.5-0.1-1.1-0.1-1.7c0-0.6-0.1-1.1-0.1-1.7v-5.4h1.3v10.5h-1.4
		l-3.8-6.6l-1.1-2.2h-0.1c0,0.5,0.1,1.1,0.1,1.6c0,0.5,0.1,1.1,0.1,1.7v5.5H342.6z"/>
	<path class="st2" d="M355.9,183.8c-0.7,0-1.4-0.1-2-0.4c-0.6-0.3-1.2-0.7-1.6-1.1l0.8-0.9c0.4,0.4,0.8,0.7,1.3,1
		c0.5,0.2,1,0.4,1.6,0.4c0.7,0,1.2-0.2,1.6-0.5c0.4-0.3,0.6-0.7,0.6-1.2c0-0.3,0-0.5-0.1-0.7s-0.2-0.3-0.4-0.5
		c-0.2-0.1-0.3-0.3-0.6-0.4c-0.2-0.1-0.4-0.2-0.7-0.3l-1.5-0.7c-0.2-0.1-0.5-0.2-0.8-0.4c-0.3-0.1-0.5-0.3-0.7-0.5
		c-0.2-0.2-0.4-0.5-0.5-0.8c-0.1-0.3-0.2-0.6-0.2-1c0-0.4,0.1-0.8,0.2-1.1c0.2-0.3,0.4-0.6,0.7-0.9c0.3-0.2,0.6-0.4,1-0.6
		c0.4-0.1,0.8-0.2,1.3-0.2c0.6,0,1.2,0.1,1.7,0.4s1,0.6,1.4,0.9l-0.7,0.9c-0.3-0.3-0.7-0.6-1.1-0.7c-0.4-0.2-0.8-0.3-1.3-0.3
		c-0.6,0-1.1,0.1-1.4,0.4c-0.4,0.3-0.5,0.6-0.5,1.1c0,0.3,0,0.5,0.2,0.6c0.1,0.2,0.2,0.3,0.4,0.5s0.4,0.3,0.6,0.4
		c0.2,0.1,0.4,0.2,0.6,0.3l1.5,0.6c0.3,0.1,0.6,0.3,0.8,0.4c0.3,0.2,0.5,0.4,0.7,0.6s0.3,0.5,0.5,0.8c0.1,0.3,0.2,0.6,0.2,1
		c0,0.4-0.1,0.8-0.2,1.2c-0.2,0.4-0.4,0.7-0.7,1c-0.3,0.3-0.7,0.5-1.1,0.6S356.4,183.8,355.9,183.8z"/>
	<path class="st2" d="M365.2,183.8c-0.5,0-1-0.1-1.5-0.2s-0.9-0.4-1.2-0.8c-0.3-0.4-0.6-0.8-0.8-1.4c-0.2-0.6-0.3-1.3-0.3-2.1v-6.2
		h1.3v6.2c0,0.6,0.1,1.2,0.2,1.6c0.1,0.4,0.3,0.8,0.5,1s0.5,0.4,0.8,0.6c0.3,0.1,0.6,0.2,1,0.2c0.4,0,0.7-0.1,1-0.2
		c0.3-0.1,0.6-0.3,0.8-0.6c0.2-0.3,0.4-0.6,0.5-1c0.1-0.4,0.2-1,0.2-1.6v-6.2h1.3v6.2c0,0.8-0.1,1.6-0.3,2.1c-0.2,0.6-0.5,1-0.8,1.4
		c-0.3,0.4-0.7,0.6-1.2,0.8C366.2,183.7,365.8,183.8,365.2,183.8z"/>
	<path class="st2" d="M371.8,183.6v-10.5h3.3c0.5,0,1,0.1,1.5,0.2c0.5,0.1,0.8,0.3,1.2,0.5c0.3,0.2,0.6,0.5,0.8,0.9
		c0.2,0.4,0.3,0.8,0.3,1.4c0,0.8-0.2,1.5-0.6,2c-0.4,0.5-1,0.8-1.7,1l2.7,4.6h-1.5l-2.5-4.4h-1.9v4.4H371.8z M373.1,178.1h1.8
		c0.8,0,1.5-0.2,1.9-0.5s0.7-0.8,0.7-1.5c0-0.7-0.2-1.2-0.7-1.5s-1.1-0.4-1.9-0.4h-1.8V178.1z"/>
	<path class="st2" d="M379.5,183.6l3.6-10.5h1.5l3.6,10.5h-1.4l-1-3.2h-3.8l-1,3.2H379.5z M382.7,177.8l-0.5,1.6h3.2l-0.5-1.6
		c-0.2-0.6-0.4-1.2-0.5-1.8c-0.2-0.6-0.3-1.2-0.5-1.8h-0.1c-0.2,0.6-0.3,1.2-0.5,1.8S382.8,177.2,382.7,177.8z"/>
	<path class="st2" d="M389.6,183.6v-10.5h1.4l3.8,6.6l1.1,2.2h0.1c0-0.5-0.1-1.1-0.1-1.7c0-0.6-0.1-1.1-0.1-1.7v-5.4h1.3v10.5h-1.4
		l-3.8-6.6l-1.1-2.2h-0.1c0,0.5,0.1,1.1,0.1,1.6c0,0.5,0.1,1.1,0.1,1.7v5.5H389.6z"/>
	<path class="st2" d="M403.9,183.8c-0.7,0-1.3-0.1-1.8-0.4c-0.6-0.2-1-0.6-1.4-1.1c-0.4-0.5-0.7-1-1-1.7s-0.3-1.4-0.3-2.3
		c0-0.8,0.1-1.6,0.4-2.3c0.2-0.7,0.6-1.2,1-1.7c0.4-0.5,0.9-0.8,1.5-1.1c0.6-0.2,1.2-0.4,1.9-0.4c0.6,0,1.2,0.1,1.7,0.4
		c0.5,0.3,0.9,0.6,1.2,0.9l-0.7,0.9c-0.3-0.3-0.6-0.5-0.9-0.7c-0.4-0.2-0.8-0.3-1.2-0.3c-0.5,0-1,0.1-1.4,0.3
		c-0.4,0.2-0.8,0.5-1,0.8c-0.3,0.4-0.5,0.8-0.7,1.3c-0.2,0.5-0.2,1.1-0.2,1.8c0,0.7,0.1,1.3,0.2,1.8c0.2,0.5,0.4,1,0.6,1.4
		c0.3,0.4,0.6,0.7,1,0.9c0.4,0.2,0.9,0.3,1.4,0.3c0.5,0,1-0.1,1.3-0.3s0.7-0.5,1.1-0.9l0.7,0.8c-0.4,0.5-0.9,0.9-1.4,1.1
		S404.6,183.8,403.9,183.8z"/>
	<path class="st2" d="M409,183.6v-10.5h6v1.1h-4.7v3.3h4v1.1h-4v3.8h4.9v1.1H409z"/>
	<path class="st2" d="M419.3,183.6l3.6-10.5h1.5l3.6,10.5h-1.4l-1-3.2h-3.8l-1,3.2H419.3z M422.5,177.8l-0.5,1.6h3.2l-0.5-1.6
		c-0.2-0.6-0.4-1.2-0.5-1.8c-0.2-0.6-0.3-1.2-0.5-1.8h-0.1c-0.2,0.6-0.3,1.2-0.5,1.8S422.7,177.2,422.5,177.8z"/>
	<path class="st2" d="M429.4,183.6v-10.5h1.4l3.8,6.6l1.1,2.2h0.1c0-0.5-0.1-1.1-0.1-1.7c0-0.6-0.1-1.1-0.1-1.7v-5.4h1.3v10.5h-1.4
		l-3.8-6.6l-1.1-2.2h-0.1c0,0.5,0.1,1.1,0.1,1.6c0,0.5,0.1,1.1,0.1,1.7v5.5H429.4z"/>
	<path class="st2" d="M439.7,183.6v-10.5h2.6c1.6,0,2.9,0.4,3.7,1.3c0.8,0.9,1.3,2.2,1.3,3.9c0,0.8-0.1,1.6-0.3,2.2
		c-0.2,0.7-0.5,1.2-0.9,1.7c-0.4,0.5-0.9,0.8-1.5,1c-0.6,0.2-1.3,0.4-2.1,0.4H439.7z M441.1,182.5h1.2c1.2,0,2.1-0.4,2.8-1.1
		s0.9-1.8,0.9-3.1c0-1.3-0.3-2.4-0.9-3.1s-1.5-1.1-2.8-1.1h-1.2V182.5z"/>
	<path class="st2" d="M80.2,207.8c-0.7,0-1.3-0.1-1.9-0.4c-0.6-0.2-1.1-0.6-1.5-1.1s-0.7-1-1-1.7c-0.2-0.7-0.4-1.4-0.4-2.3
		c0-0.8,0.1-1.6,0.4-2.3c0.2-0.7,0.6-1.2,1-1.7c0.4-0.5,0.9-0.8,1.5-1.1c0.6-0.2,1.2-0.4,1.9-0.4c0.4,0,0.7,0,1,0.1
		c0.3,0.1,0.6,0.2,0.8,0.3c0.3,0.1,0.5,0.3,0.7,0.4s0.4,0.3,0.5,0.5l-0.7,0.9c-0.3-0.3-0.6-0.5-0.9-0.7c-0.4-0.2-0.8-0.3-1.3-0.3
		c-0.5,0-1,0.1-1.4,0.3c-0.4,0.2-0.8,0.5-1.1,0.8s-0.5,0.8-0.7,1.3c-0.2,0.5-0.2,1.1-0.2,1.8c0,0.7,0.1,1.3,0.2,1.8s0.4,1,0.7,1.4
		c0.3,0.4,0.7,0.7,1.1,0.9c0.4,0.2,0.9,0.3,1.5,0.3c0.4,0,0.7-0.1,1.1-0.2c0.3-0.1,0.6-0.3,0.8-0.5v-2.7h-2.2v-1.1h3.4v4.4
		c-0.3,0.4-0.8,0.6-1.3,0.9S80.9,207.8,80.2,207.8z"/>
	<path class="st2" d="M89.8,207.8c-0.7,0-1.3-0.1-1.8-0.4c-0.5-0.3-1-0.6-1.4-1.1c-0.4-0.5-0.7-1.1-0.9-1.7
		c-0.2-0.7-0.3-1.4-0.3-2.3s0.1-1.6,0.3-2.3c0.2-0.7,0.5-1.2,0.9-1.7c0.4-0.5,0.9-0.8,1.4-1.1c0.5-0.2,1.2-0.4,1.8-0.4
		c0.7,0,1.3,0.1,1.8,0.4c0.5,0.3,1,0.6,1.4,1.1c0.4,0.5,0.7,1,0.9,1.7c0.2,0.7,0.3,1.4,0.3,2.2c0,0.8-0.1,1.6-0.3,2.3
		c-0.2,0.7-0.5,1.3-0.9,1.7c-0.4,0.5-0.9,0.8-1.4,1.1S90.4,207.8,89.8,207.8z M89.8,206.7c0.5,0,0.9-0.1,1.3-0.3
		c0.4-0.2,0.7-0.5,1-0.9c0.3-0.4,0.5-0.8,0.6-1.4c0.1-0.5,0.2-1.1,0.2-1.8c0-0.7-0.1-1.2-0.2-1.8c-0.1-0.5-0.4-1-0.6-1.3
		c-0.3-0.4-0.6-0.6-1-0.8c-0.4-0.2-0.8-0.3-1.3-0.3c-0.5,0-0.9,0.1-1.3,0.3c-0.4,0.2-0.7,0.5-1,0.8c-0.3,0.4-0.5,0.8-0.6,1.3
		c-0.1,0.5-0.2,1.1-0.2,1.8c0,0.7,0.1,1.3,0.2,1.8c0.1,0.5,0.4,1,0.6,1.4c0.3,0.4,0.6,0.7,1,0.9C88.9,206.5,89.3,206.7,89.8,206.7z"
		/>
	<path class="st2" d="M98.3,207.6l-3.4-10.5h1.4l1.7,5.7c0.2,0.6,0.4,1.2,0.5,1.7s0.3,1.1,0.5,1.7h0.1c0.2-0.6,0.4-1.2,0.5-1.7
		c0.1-0.5,0.3-1.1,0.5-1.7l1.7-5.7h1.4l-3.3,10.5H98.3z"/>
	<path class="st2" d="M104.6,207.6v-10.5h6v1.1h-4.7v3.3h4v1.1h-4v3.8h4.9v1.1H104.6z"/>
	<path class="st2" d="M113,207.6v-10.5h3.3c0.5,0,1,0.1,1.5,0.2c0.5,0.1,0.8,0.3,1.2,0.5c0.3,0.2,0.6,0.5,0.8,0.9
		c0.2,0.4,0.3,0.8,0.3,1.4c0,0.8-0.2,1.5-0.6,2c-0.4,0.5-1,0.8-1.7,1l2.7,4.6h-1.5l-2.5-4.4h-1.9v4.4H113z M114.4,202.1h1.8
		c0.8,0,1.5-0.2,1.9-0.5c0.4-0.3,0.7-0.8,0.7-1.5c0-0.7-0.2-1.2-0.7-1.5c-0.4-0.3-1.1-0.4-1.9-0.4h-1.8V202.1z"/>
	<path class="st2" d="M122.1,207.6v-10.5h1.4l3.8,6.6l1.1,2.2h0.1c0-0.5-0.1-1.1-0.1-1.7c0-0.6-0.1-1.1-0.1-1.7v-5.4h1.3v10.5h-1.4
		l-3.8-6.6l-1.1-2.2h-0.1c0,0.5,0.1,1.1,0.1,1.6c0,0.5,0.1,1.1,0.1,1.7v5.5H122.1z"/>
	<path class="st2" d="M132.5,207.6v-10.5h1.6l2,5.6c0.1,0.4,0.3,0.7,0.4,1.1c0.1,0.4,0.2,0.7,0.4,1.1h0.1c0.1-0.4,0.2-0.7,0.4-1.1
		c0.1-0.4,0.2-0.7,0.4-1.1l2-5.6h1.6v10.5H140v-5.8c0-0.5,0-1,0.1-1.6s0.1-1.1,0.1-1.6h-0.1l-0.8,2.4l-2,5.4h-0.9l-2-5.4l-0.8-2.4
		h-0.1c0,0.5,0.1,1,0.1,1.6c0,0.6,0.1,1.1,0.1,1.6v5.8H132.5z"/>
	<path class="st2" d="M144.1,207.6v-10.5h6v1.1h-4.7v3.3h4v1.1h-4v3.8h4.9v1.1H144.1z"/>
	<path class="st2" d="M152.5,207.6v-10.5h1.4l3.8,6.6l1.1,2.2h0.1c0-0.5-0.1-1.1-0.1-1.7c0-0.6-0.1-1.1-0.1-1.7v-5.4h1.3v10.5h-1.4
		l-3.8-6.6l-1.1-2.2h-0.1c0,0.5,0.1,1.1,0.1,1.6c0,0.5,0.1,1.1,0.1,1.7v5.5H152.5z"/>
	<path class="st2" d="M165.1,207.6v-9.4h-3.2v-1.1h7.7v1.1h-3.2v9.4H165.1z"/>
	<path class="st2" d="M174.7,207.6v-10.5h3.1c0.5,0,1,0,1.5,0.1c0.4,0.1,0.8,0.2,1.1,0.4c0.3,0.2,0.6,0.5,0.7,0.8s0.3,0.7,0.3,1.2
		c0,0.5-0.1,1-0.4,1.4c-0.3,0.4-0.6,0.7-1.1,0.9v0.1c0.6,0.1,1.2,0.4,1.6,0.8s0.6,1,0.6,1.7c0,0.5-0.1,1-0.3,1.3s-0.5,0.7-0.8,1
		s-0.8,0.4-1.3,0.6s-1,0.2-1.6,0.2H174.7z M176,201.6h1.6c0.9,0,1.5-0.2,1.9-0.5s0.6-0.7,0.6-1.3c0-0.6-0.2-1-0.6-1.3
		c-0.4-0.3-1-0.4-1.8-0.4H176V201.6z M176,206.6h1.8c0.9,0,1.6-0.2,2.1-0.5c0.5-0.3,0.8-0.9,0.8-1.6c0-0.7-0.2-1.1-0.7-1.4
		c-0.5-0.3-1.2-0.5-2.1-0.5H176V206.6z"/>
	<path class="st2" d="M184.1,207.6v-10.5h6v1.1h-4.7v3.3h4v1.1h-4v3.8h4.9v1.1H184.1z"/>
	<path class="st2" d="M192.5,207.6v-10.5h1.4l3.8,6.6l1.1,2.2h0.1c0-0.5-0.1-1.1-0.1-1.7c0-0.6-0.1-1.1-0.1-1.7v-5.4h1.3v10.5h-1.4
		l-3.8-6.6l-1.1-2.2h-0.1c0,0.5,0.1,1.1,0.1,1.6c0,0.5,0.1,1.1,0.1,1.7v5.5H192.5z"/>
	<path class="st2" d="M202.9,207.6v-10.5h6v1.1h-4.7v3.3h4v1.1h-4v3.8h4.9v1.1H202.9z"/>
	<path class="st2" d="M211.3,207.6v-10.5h6v1.1h-4.7v3.6h4v1.1h-4v4.7H211.3z"/>
	<path class="st2" d="M219.2,207.6v-10.5h1.3v10.5H219.2z"/>
	<path class="st2" d="M225.6,207.6v-9.4h-3.2v-1.1h7.7v1.1h-3.2v9.4H225.6z"/>
	<path class="st2" d="M238.1,207.8c-0.7,0-1.4-0.1-2-0.4c-0.6-0.3-1.2-0.7-1.6-1.1l0.8-0.9c0.4,0.4,0.8,0.7,1.3,1
		c0.5,0.2,1,0.4,1.6,0.4c0.7,0,1.2-0.2,1.6-0.5c0.4-0.3,0.6-0.7,0.6-1.2c0-0.3,0-0.5-0.1-0.7s-0.2-0.3-0.4-0.5
		c-0.2-0.1-0.3-0.3-0.6-0.4s-0.4-0.2-0.7-0.3l-1.5-0.7c-0.2-0.1-0.5-0.2-0.8-0.4s-0.5-0.3-0.7-0.5c-0.2-0.2-0.4-0.5-0.5-0.8
		c-0.1-0.3-0.2-0.6-0.2-1c0-0.4,0.1-0.8,0.2-1.1c0.2-0.3,0.4-0.6,0.7-0.9c0.3-0.2,0.6-0.4,1-0.6c0.4-0.1,0.8-0.2,1.3-0.2
		c0.6,0,1.2,0.1,1.7,0.4c0.5,0.2,1,0.6,1.4,0.9l-0.7,0.9c-0.3-0.3-0.7-0.6-1.1-0.7c-0.4-0.2-0.8-0.3-1.3-0.3c-0.6,0-1.1,0.1-1.4,0.4
		c-0.4,0.3-0.5,0.6-0.5,1.1c0,0.3,0.1,0.5,0.2,0.6c0.1,0.2,0.2,0.3,0.4,0.5s0.4,0.3,0.6,0.4c0.2,0.1,0.4,0.2,0.6,0.3l1.5,0.6
		c0.3,0.1,0.6,0.3,0.8,0.4s0.5,0.4,0.7,0.6s0.3,0.5,0.5,0.8c0.1,0.3,0.2,0.6,0.2,1c0,0.4-0.1,0.8-0.2,1.2c-0.2,0.4-0.4,0.7-0.7,1
		c-0.3,0.3-0.7,0.5-1.1,0.6S238.7,207.8,238.1,207.8z"/>
	<path class="st2" d="M247.7,207.8c-0.7,0-1.3-0.1-1.8-0.4c-0.6-0.2-1-0.6-1.4-1.1c-0.4-0.5-0.7-1-1-1.7s-0.3-1.4-0.3-2.3
		c0-0.8,0.1-1.6,0.4-2.3c0.2-0.7,0.6-1.2,1-1.7c0.4-0.5,0.9-0.8,1.5-1.1c0.6-0.2,1.2-0.4,1.9-0.4c0.6,0,1.2,0.1,1.7,0.4
		c0.5,0.3,0.9,0.6,1.2,0.9l-0.7,0.9c-0.3-0.3-0.6-0.5-0.9-0.7s-0.8-0.3-1.2-0.3c-0.5,0-1,0.1-1.4,0.3c-0.4,0.2-0.8,0.5-1,0.8
		s-0.5,0.8-0.7,1.3s-0.2,1.1-0.2,1.8c0,0.7,0.1,1.3,0.2,1.8s0.4,1,0.6,1.4c0.3,0.4,0.6,0.7,1,0.9c0.4,0.2,0.9,0.3,1.4,0.3
		c0.5,0,1-0.1,1.3-0.3c0.4-0.2,0.7-0.5,1.1-0.9l0.7,0.8c-0.4,0.5-0.9,0.9-1.4,1.1S248.4,207.8,247.7,207.8z"/>
	<path class="st2" d="M251.5,207.6l3.6-10.5h1.5l3.6,10.5h-1.4l-1-3.2h-3.8l-1,3.2H251.5z M254.7,201.8l-0.5,1.6h3.2l-0.5-1.6
		c-0.2-0.6-0.4-1.2-0.5-1.8s-0.3-1.2-0.5-1.8h-0.1c-0.2,0.6-0.3,1.2-0.5,1.8S254.9,201.2,254.7,201.8z"/>
	<path class="st2" d="M261.6,207.6v-10.5h1.6l2,5.6c0.1,0.4,0.3,0.7,0.4,1.1c0.1,0.4,0.2,0.7,0.4,1.1h0.1c0.1-0.4,0.2-0.7,0.4-1.1
		c0.1-0.4,0.2-0.7,0.4-1.1l2-5.6h1.6v10.5h-1.2v-5.8c0-0.5,0-1,0.1-1.6c0-0.6,0.1-1.1,0.1-1.6h-0.1l-0.8,2.4l-2,5.4h-0.9l-2-5.4
		l-0.8-2.4h-0.1c0,0.5,0.1,1,0.1,1.6s0.1,1.1,0.1,1.6v5.8H261.6z"/>
	<path class="st2" d="M276.1,207.8c-0.7,0-1.4-0.1-2-0.4c-0.6-0.3-1.2-0.7-1.6-1.1l0.8-0.9c0.4,0.4,0.8,0.7,1.3,1
		c0.5,0.2,1,0.4,1.6,0.4c0.7,0,1.2-0.2,1.6-0.5c0.4-0.3,0.6-0.7,0.6-1.2c0-0.3,0-0.5-0.1-0.7s-0.2-0.3-0.4-0.5
		c-0.2-0.1-0.3-0.3-0.6-0.4c-0.2-0.1-0.4-0.2-0.7-0.3l-1.5-0.7c-0.2-0.1-0.5-0.2-0.8-0.4c-0.3-0.1-0.5-0.3-0.7-0.5
		c-0.2-0.2-0.4-0.5-0.5-0.8c-0.1-0.3-0.2-0.6-0.2-1c0-0.4,0.1-0.8,0.2-1.1c0.2-0.3,0.4-0.6,0.7-0.9c0.3-0.2,0.6-0.4,1-0.6
		c0.4-0.1,0.8-0.2,1.3-0.2c0.6,0,1.2,0.1,1.7,0.4s1,0.6,1.4,0.9l-0.7,0.9c-0.3-0.3-0.7-0.6-1.1-0.7c-0.4-0.2-0.8-0.3-1.3-0.3
		c-0.6,0-1.1,0.1-1.4,0.4c-0.4,0.3-0.5,0.6-0.5,1.1c0,0.3,0,0.5,0.2,0.6c0.1,0.2,0.2,0.3,0.4,0.5s0.4,0.3,0.6,0.4
		c0.2,0.1,0.4,0.2,0.6,0.3l1.5,0.6c0.3,0.1,0.6,0.3,0.8,0.4c0.3,0.2,0.5,0.4,0.7,0.6s0.3,0.5,0.5,0.8c0.1,0.3,0.2,0.6,0.2,1
		c0,0.4-0.1,0.8-0.2,1.2c-0.2,0.4-0.4,0.7-0.7,1c-0.3,0.3-0.7,0.5-1.1,0.6S276.7,207.8,276.1,207.8z"/>
	<path class="st2" d="M282.3,207.8c-0.3,0-0.5-0.1-0.7-0.3c-0.2-0.2-0.3-0.4-0.3-0.7c0-0.3,0.1-0.6,0.3-0.7c0.2-0.2,0.4-0.3,0.7-0.3
		c0.3,0,0.5,0.1,0.7,0.3s0.3,0.4,0.3,0.7c0,0.3-0.1,0.5-0.3,0.7S282.6,207.8,282.3,207.8z"/>
</g>
</svg>
