<?xml version="1.0" encoding="utf-8"?>
<!-- Generator: Adobe Illustrator 24.0.3, SVG Export Plug-In . SVG Version: 6.00 Build 0)  -->
<svg version="1.1" id="Layer_1" xmlns="http://www.w3.org/2000/svg" xmlns:xlink="http://www.w3.org/1999/xlink" x="0px" y="0px"
	 viewBox="0 0 500 199.5" style="enable-background:new 0 0 500 199.5;" xml:space="preserve">
<style type="text/css">
	.st0{fill:#F5F5F5;}
	.st1{fill:#5151D3;}
	.st2{fill:#EE020A;}
</style>
<g>
	<rect x="6" class="st0" width="495" height="199.5"/>
</g>
<g>
	<polygon class="st1" points="302.1,101 352.1,100.8 352.1,101.8 302.1,102 	"/>
</g>
<ellipse class="st1" cx="302.2" cy="101.4" rx="3" ry="3"/>
<g>
	<path class="st1" d="M358.1,105.5l0.4-3.1h-1.2v-1.2h1.4l0.3-2.1h-1.3v-1.2h1.5l0.4-2.8h1.1l-0.3,2.8h1.9l0.4-2.8h1.1l-0.3,2.8h1.3
		v1.2H363l-0.3,2.1h1.4v1.2h-1.5l-0.4,3.1h-1.1l0.4-3.1h-1.9l-0.4,3.1H358.1z M359.7,101.2h1.9l0.3-2.1H360L359.7,101.2z"/>
	<path class="st1" d="M366.2,105.5V95.1h6.3v1.6H368v2.7h3.8v1.6H368v3.1h4.6v1.6h-6.4V105.5z"/>
	<path class="st1" d="M374.8,105.5V95.1h6.3v1.6h-4.4v2.7h3.8v1.6h-3.8v3.1h4.6v1.6h-6.5V105.5z"/>
	<path class="st1" d="M386.2,105.7c-1.1,0-1.9-0.5-2.5-1.4s-0.9-2.2-0.9-4c0-1.7,0.3-3,0.9-3.9s1.5-1.3,2.5-1.3
		c1.1,0,1.9,0.4,2.5,1.3s0.9,2.2,0.9,3.9c0,1.7-0.3,3-0.9,4C388.1,105.3,387.2,105.7,386.2,105.7z M386.2,104.3
		c0.2,0,0.5-0.1,0.7-0.2s0.4-0.4,0.5-0.7c0.1-0.3,0.3-0.7,0.4-1.2s0.1-1.1,0.1-1.8c0-0.7,0-1.3-0.1-1.8s-0.2-0.9-0.4-1.2
		c-0.1-0.3-0.3-0.5-0.5-0.6s-0.4-0.2-0.7-0.2c-0.2,0-0.5,0.1-0.7,0.2s-0.4,0.3-0.5,0.6c-0.1,0.3-0.3,0.7-0.4,1.2s-0.1,1.1-0.1,1.8
		c0,0.7,0,1.3,0.1,1.8s0.2,0.9,0.4,1.2c0.1,0.3,0.3,0.5,0.5,0.7C385.7,104.2,385.9,104.3,386.2,104.3z"/>
	<path class="st1" d="M390.9,105.5v-1.1c0.7-0.7,1.3-1.3,1.9-1.9s1.1-1.1,1.5-1.6s0.7-0.9,0.9-1.4c0.2-0.4,0.3-0.8,0.3-1.2
		c0-0.5-0.1-1-0.4-1.3s-0.7-0.5-1.2-0.5c-0.4,0-0.8,0.1-1.1,0.3c-0.3,0.2-0.6,0.5-0.9,0.8l-1-1c0.5-0.5,1-0.9,1.4-1.2
		s1.1-0.4,1.8-0.4c0.5,0,0.9,0.1,1.3,0.2s0.7,0.4,1,0.6s0.5,0.6,0.6,1c0.2,0.4,0.2,0.8,0.2,1.3c0,0.4-0.1,0.9-0.3,1.4
		c-0.2,0.5-0.5,0.9-0.8,1.4s-0.7,1-1.2,1.5c-0.4,0.5-0.9,1-1.4,1.6c0.3,0,0.6,0,0.9-0.1c0.3,0,0.6,0,0.8,0h2.5v1.6
		C397.7,105.5,390.9,105.5,390.9,105.5z"/>
	<path class="st1" d="M402.6,105.7c-1.1,0-1.9-0.5-2.5-1.4s-0.9-2.2-0.9-4c0-1.7,0.3-3,0.9-3.9s1.5-1.3,2.5-1.3
		c1.1,0,1.9,0.4,2.5,1.3s0.9,2.2,0.9,3.9c0,1.7-0.3,3-0.9,4C404.5,105.3,403.6,105.7,402.6,105.7z M402.6,104.3
		c0.2,0,0.5-0.1,0.7-0.2s0.4-0.4,0.5-0.7c0.1-0.3,0.3-0.7,0.4-1.2s0.1-1.1,0.1-1.8c0-0.7,0-1.3-0.1-1.8s-0.2-0.9-0.4-1.2
		c-0.1-0.3-0.3-0.5-0.5-0.6s-0.4-0.2-0.7-0.2c-0.2,0-0.5,0.1-0.7,0.2s-0.4,0.3-0.5,0.6c-0.1,0.3-0.3,0.7-0.4,1.2s-0.1,1.1-0.1,1.8
		c0,0.7,0,1.3,0.1,1.8s0.2,0.9,0.4,1.2c0.1,0.3,0.3,0.5,0.5,0.7C402.1,104.2,402.3,104.3,402.6,104.3z"/>
	<path class="st1" d="M406.7,105.5l3.4-10.5h2.2l3.4,10.5h-2l-0.8-2.8h-3.5l-0.8,2.8H406.7z M410.2,100l-0.4,1.3h2.7l-0.4-1.3
		c-0.2-0.6-0.3-1.1-0.5-1.7s-0.3-1.2-0.5-1.7H411c-0.1,0.6-0.3,1.2-0.4,1.8C410.5,98.8,410.3,99.4,410.2,100z"/>
</g>
<g>
	<rect y="-0.5" class="st2" width="6" height="200.5"/>
</g>
<g>
	<g>
		<g>
			<path class="st2" d="M33.9,11.7c-8.6,0-15.7,7-15.7,15.7S25.2,43,33.9,43s15.7-7,15.7-15.7S42.5,11.7,33.9,11.7z"/>
		</g>
	</g>
</g>
<g>
	<g>
		<rect x="23.9" y="25.7" transform="matrix(0.7071 -0.7071 0.7071 0.7071 -9.4205 31.9794)" class="st0" width="20" height="3.3"/>
	</g>
	<g>
		<rect x="32.2" y="17.3" transform="matrix(0.7071 -0.7071 0.7071 0.7071 -9.3826 31.9365)" class="st0" width="3.3" height="20"/>
	</g>
</g>
<g>
	<path class="st2" d="M111.9,110.7V89.8h3.7v8.4h8.5v-8.4h3.7v20.9h-3.7v-9.3h-8.5v9.3C115.6,110.7,111.9,110.7,111.9,110.7z"/>
	<path class="st2" d="M139.5,111.1c-1.1,0-2.1-0.2-3-0.6s-1.8-0.9-2.5-1.6s-1.3-1.6-1.6-2.6c-0.4-1-0.6-2.2-0.6-3.5s0.2-2.4,0.6-3.5
		s0.9-1.9,1.6-2.6c0.7-0.7,1.4-1.2,2.3-1.6c0.9-0.4,1.8-0.6,2.7-0.6c1.1,0,2,0.2,2.8,0.5c0.8,0.4,1.5,0.9,2,1.5
		c0.5,0.7,1,1.5,1.2,2.4c0.3,0.9,0.4,1.9,0.4,3c0,0.4,0,0.7,0,1s-0.1,0.6-0.1,0.8h-10c0.2,1.4,0.7,2.5,1.5,3.2
		c0.8,0.8,1.9,1.1,3.2,1.1c0.7,0,1.3-0.1,1.9-0.3c0.6-0.2,1.2-0.5,1.7-0.8l1.2,2.3c-0.7,0.5-1.6,0.9-2.5,1.2
		C141.5,110.9,140.5,111.1,139.5,111.1z M135.3,101.4h7c0-1.2-0.3-2.2-0.8-2.9c-0.5-0.7-1.3-1-2.4-1c-0.9,0-1.8,0.3-2.5,1
		C136,99.1,135.5,100.1,135.3,101.4z"/>
	<path class="st2" d="M152.5,111.1c-1.4,0-2.5-0.4-3.4-1.3c-0.9-0.8-1.3-2-1.3-3.3c0-0.8,0.2-1.6,0.5-2.2c0.4-0.7,0.9-1.2,1.7-1.7
		s1.7-0.9,2.9-1.2c1.2-0.3,2.6-0.6,4.2-0.7c0-0.4-0.1-0.8-0.2-1.2c-0.1-0.4-0.3-0.7-0.5-1s-0.5-0.5-0.9-0.7s-0.8-0.2-1.3-0.2
		c-0.8,0-1.5,0.1-2.3,0.4c-0.7,0.3-1.5,0.7-2.2,1.1l-1.3-2.5c0.9-0.6,1.9-1,2.9-1.4c1.1-0.4,2.3-0.6,3.5-0.6c2,0,3.4,0.6,4.4,1.7
		c1,1.2,1.5,2.8,1.5,5v9.3h-3l-0.3-1.7h-0.1c-0.7,0.6-1.5,1.1-2.3,1.5C154.3,110.9,153.4,111.1,152.5,111.1z M153.7,108.2
		c0.6,0,1.2-0.1,1.7-0.4s1.1-0.7,1.7-1.3V103c-1.1,0.1-2,0.3-2.7,0.5s-1.3,0.5-1.8,0.7c-0.4,0.3-0.8,0.6-1,0.9s-0.3,0.7-0.3,1.1
		c0,0.7,0.2,1.2,0.6,1.5C152.4,108.1,153,108.2,153.7,108.2z"/>
	<path class="st2" d="M170.7,111.1c-2,0-3.6-0.7-4.7-2.2c-1.2-1.4-1.7-3.5-1.7-6.1c0-1.3,0.2-2.4,0.6-3.5c0.4-1,0.9-1.9,1.5-2.6
		s1.3-1.2,2.1-1.6s1.6-0.6,2.5-0.6s1.7,0.2,2.3,0.5s1.2,0.7,1.9,1.3l-0.1-2.5v-5.7h3.7v22.6h-3l-0.3-1.7h-0.1
		c-0.6,0.6-1.2,1.1-2,1.5C172.3,110.9,171.5,111.1,170.7,111.1z M171.6,108.1c1.2,0,2.3-0.6,3.3-1.8V99c-0.6-0.5-1.1-0.8-1.6-1
		s-1.1-0.3-1.6-0.3c-1,0-1.9,0.4-2.6,1.3c-0.7,0.9-1.1,2.2-1.1,3.8c0,1.7,0.3,3,0.9,3.9C169.5,107.6,170.4,108.1,171.6,108.1z"/>
	<path class="st2" d="M186.8,111.1c-1.3,0-2.3-0.4-2.8-1.2c-0.5-0.8-0.8-1.9-0.8-3.2V88.1h3.7v18.8c0,0.4,0.1,0.8,0.3,0.9
		c0.2,0.2,0.4,0.3,0.5,0.3s0.2,0,0.2,0c0.1,0,0.2,0,0.3-0.1l0.5,2.8C188.3,111,187.6,111.1,186.8,111.1z"/>
	<path class="st2" d="M193.7,92.3c-0.7,0-1.2-0.2-1.6-0.6c-0.4-0.4-0.6-0.9-0.6-1.5s0.2-1.1,0.6-1.5c0.4-0.4,1-0.6,1.6-0.6
		c0.7,0,1.2,0.2,1.6,0.6c0.4,0.4,0.6,0.9,0.6,1.5s-0.2,1.1-0.6,1.5C195,92.1,194.4,92.3,193.7,92.3z M191.9,110.7V95h3.7v15.7H191.9
		z"/>
	<path class="st2" d="M200.3,110.7V95h3l0.3,2.1h0.1c0.7-0.7,1.5-1.3,2.3-1.8s1.8-0.7,2.9-0.7c1.7,0,2.9,0.5,3.7,1.6
		s1.2,2.6,1.2,4.6v9.9H210v-9.4c0-1.3-0.2-2.2-0.6-2.8c-0.4-0.5-1-0.8-1.9-0.8c-0.7,0-1.3,0.2-1.8,0.5s-1.1,0.8-1.8,1.5v11
		C203.9,110.7,200.3,110.7,200.3,110.7z"/>
	<path class="st2" d="M224.9,111.1c-1.1,0-2.1-0.2-3-0.6s-1.8-0.9-2.5-1.6s-1.3-1.6-1.6-2.6c-0.4-1-0.6-2.2-0.6-3.5s0.2-2.4,0.6-3.5
		s0.9-1.9,1.6-2.6c0.7-0.7,1.4-1.2,2.3-1.6c0.9-0.4,1.8-0.6,2.7-0.6c1.1,0,2,0.2,2.8,0.5s1.5,0.9,2,1.5c0.5,0.7,1,1.5,1.2,2.4
		c0.3,0.9,0.4,1.9,0.4,3c0,0.4,0,0.7,0,1s-0.1,0.6-0.1,0.8h-10c0.2,1.4,0.7,2.5,1.5,3.2c0.8,0.8,1.9,1.1,3.2,1.1
		c0.7,0,1.3-0.1,1.9-0.3c0.6-0.2,1.2-0.5,1.7-0.8l1.2,2.3c-0.7,0.5-1.6,0.9-2.5,1.2C226.9,110.9,225.9,111.1,224.9,111.1z
		 M220.7,101.4h7c0-1.2-0.3-2.2-0.8-2.9c-0.5-0.7-1.3-1-2.4-1c-0.9,0-1.8,0.3-2.5,1C221.3,99.1,220.9,100.1,220.7,101.4z"/>
	<path class="st2" d="M246.4,111.1c-0.9,0-1.7-0.1-2.3-0.4s-1.1-0.7-1.5-1.2s-0.7-1.1-0.9-1.8c-0.2-0.7-0.3-1.5-0.3-2.3v-7.5h-2.2
		v-2.8l2.4-0.2l0.4-4.3h3.1V95h4v2.9h-4v7.5c0,1.8,0.7,2.8,2.2,2.8c0.3,0,0.6,0,0.8-0.1c0.3-0.1,0.5-0.1,0.8-0.3l0.6,2.7
		c-0.4,0.1-0.9,0.3-1.5,0.4C247.6,111,247,111.1,246.4,111.1z"/>
	<path class="st2" d="M258.6,111.1c-1.1,0-2.1-0.2-3-0.6s-1.8-0.9-2.5-1.6s-1.3-1.6-1.6-2.6c-0.4-1-0.6-2.2-0.6-3.5s0.2-2.4,0.6-3.5
		s0.9-1.9,1.6-2.6c0.7-0.7,1.4-1.2,2.3-1.6s1.8-0.6,2.7-0.6c1.1,0,2,0.2,2.8,0.5c0.8,0.4,1.5,0.9,2,1.5c0.5,0.7,1,1.5,1.2,2.4
		c0.3,0.9,0.4,1.9,0.4,3c0,0.4,0,0.7,0,1s-0.1,0.6-0.1,0.8h-10c0.2,1.4,0.7,2.5,1.5,3.2c0.8,0.8,1.9,1.1,3.2,1.1
		c0.7,0,1.3-0.1,1.9-0.3c0.6-0.2,1.2-0.5,1.7-0.8l1.2,2.3c-0.7,0.5-1.6,0.9-2.5,1.2C260.5,110.9,259.6,111.1,258.6,111.1z
		 M254.4,101.4h7c0-1.2-0.3-2.2-0.8-2.9c-0.5-0.7-1.3-1-2.4-1c-0.9,0-1.8,0.3-2.5,1S254.6,100.1,254.4,101.4z"/>
	<path class="st2" d="M265.8,110.7l5-8.2l-4.7-7.5h4l1.8,3c0.2,0.4,0.5,0.9,0.7,1.3c0.2,0.5,0.5,0.9,0.7,1.3h0.1
		c0.2-0.4,0.4-0.9,0.6-1.3c0.2-0.5,0.4-0.9,0.6-1.3l1.5-3h3.8l-4.6,7.9l5,7.8h-4l-1.9-3.1c-0.3-0.5-0.5-0.9-0.8-1.4
		s-0.5-0.9-0.8-1.4h-0.1c-0.2,0.4-0.5,0.9-0.7,1.4s-0.5,0.9-0.7,1.4l-1.7,3.1C269.6,110.7,265.8,110.7,265.8,110.7z"/>
	<path class="st2" d="M287.8,111.1c-0.9,0-1.7-0.1-2.3-0.4c-0.6-0.3-1.1-0.7-1.5-1.2s-0.7-1.1-0.9-1.8c-0.2-0.7-0.3-1.5-0.3-2.3
		v-7.5h-2.2v-2.8L283,95l0.4-4.3h3.1V95h4v2.9h-4v7.5c0,1.8,0.7,2.8,2.2,2.8c0.3,0,0.6,0,0.8-0.1c0.3-0.1,0.5-0.1,0.8-0.3l0.6,2.7
		c-0.4,0.1-0.9,0.3-1.5,0.4C289,111,288.4,111.1,287.8,111.1z"/>
</g>
</svg>
