<?xml version="1.0" encoding="utf-8"?>
<!-- Generator: Adobe Illustrator 24.1.3, SVG Export Plug-In . SVG Version: 6.00 Build 0)  -->
<svg version="1.1" id="Layer_1" xmlns="http://www.w3.org/2000/svg" xmlns:xlink="http://www.w3.org/1999/xlink" x="0px" y="0px"
	 viewBox="0 0 228 150.6" style="enable-background:new 0 0 228 150.6;" xml:space="preserve">
<style type="text/css">
	.st0{opacity:0.2;}
	.st1{fill:#FFFFFF;}
	.st2{fill:#7C7C7C;}
</style>
<desc>Created with Sketch.</desc>
<desc>Created with Sketch.</desc>
<desc>Created with Sketch.</desc>
<g class="st0">
	<path class="st1" d="M208.9,135.1c0,2.2-1.8,4-4,4H22.2c-2.2,0-4-1.8-4-4V17.7c0-2.2,1.8-4,4-4h182.7c2.2,0,4,1.8,4,4V135.1z"/>
</g>
<g>
	<g>
		<path class="st1" d="M22.2,113.6c-2.2,0-4,1.8-4,4V135c0,2.2,1.8,4,4,4h182.7c2.2,0,4-1.8,4-4v-17.4c0-2.2-1.8-4-4-4H22.2z"/>
	</g>
	<rect x="18.2" y="113.6" class="st1" width="8" height="8"/>
	<rect x="201" y="113.6" class="st1" width="8" height="8"/>
</g>
<g>
	<g>
		<g>
			<path class="st2" d="M204.9,21.8c2.2,0,4-1.8,4-4v-0.1c0-2.2-1.8-4-4-4H22.2c-2.2,0-4,1.8-4,4v0.1c0,2.2,1.8,4,4,4H204.9z"/>
		</g>
		<rect x="18.2" y="17.8" class="st2" width="4" height="4"/>
	</g>
	<rect x="205" y="17.8" class="st2" width="4" height="4"/>
</g>
<rect x="22.7" y="118.6" width="19.3" height="3"/>
<rect x="47.8" y="118.6" width="19.3" height="3"/>
<rect x="72.3" y="118.6" width="19.3" height="3"/>
<rect x="97.4" y="118.6" width="19.3" height="3"/>
<rect x="182.4" y="118.6" width="19.3" height="3"/>
<circle cx="24.1" cy="17.8" r="1.4"/>
<circle cx="29.4" cy="17.8" r="1.4"/>
<circle cx="34.5" cy="17.8" r="1.4"/>
</svg>
