<?xml version="1.0" encoding="utf-8"?>
<!-- Generator: Adobe Illustrator 24.1.3, SVG Export Plug-In . SVG Version: 6.00 Build 0)  -->
<svg version="1.1" id="Layer_1" xmlns="http://www.w3.org/2000/svg" xmlns:xlink="http://www.w3.org/1999/xlink" x="0px" y="0px"
	 viewBox="0 0 228 150.6" style="enable-background:new 0 0 228 150.6;" xml:space="preserve">
<style type="text/css">
	.st0{opacity:0.2;}
	.st1{fill:#FFFFFF;}
	.st2{fill:#EE020A;}
</style>
<desc>Created with Sketch.</desc>
<desc>Created with Sketch.</desc>
<desc>Created with Sketch.</desc>
<g class="st0">
	<path class="st1" d="M208.9,135.1c0,2.2-1.8,4-4,4H22.2c-2.2,0-4-1.8-4-4V17.7c0-2.2,1.8-4,4-4h182.7c2.2,0,4,1.8,4,4V135.1z"/>
</g>
<g>
	<g>
		<g>
			<path d="M204.9,21.8c2.2,0,4-1.8,4-4v-0.1c0-2.2-1.8-4-4-4H22.2c-2.2,0-4,1.8-4,4v0.1c0,2.2,1.8,4,4,4H204.9z"/>
		</g>
		<rect x="18.2" y="17.8" transform="matrix(-1 -8.961644e-11 8.961644e-11 -1 40.4355 39.6472)" width="4" height="4"/>
	</g>
	<rect x="204.9" y="17.8" transform="matrix(-1 -8.961644e-11 8.961644e-11 -1 413.8718 39.6472)" width="4" height="4"/>
</g>
<circle class="st1" cx="24.1" cy="17.8" r="1.4"/>
<circle class="st1" cx="29.4" cy="17.8" r="1.4"/>
<circle class="st1" cx="34.5" cy="17.8" r="1.4"/>
<rect x="18.2" y="21.8" class="st1" width="190.7" height="15.7"/>
<circle class="st2" cx="26.2" cy="29.7" r="3.4"/>
<rect x="32.2" y="28.2" width="19.3" height="3"/>
</svg>
