<?xml version="1.0" encoding="utf-8"?>
<!-- Generator: Adobe Illustrator 24.1.0, SVG Export Plug-In . SVG Version: 6.00 Build 0)  -->
<svg version="1.1" id="Layer_1" xmlns="http://www.w3.org/2000/svg" xmlns:xlink="http://www.w3.org/1999/xlink" x="0px" y="0px"
	 viewBox="0 0 56.6 16.9" style="enable-background:new 0 0 56.6 16.9;" xml:space="preserve">
<style type="text/css">
	.st0{fill:#FFFFFF;}
</style>
<path class="st0" d="M34.7,11.9c-0.7-0.7-1.5-1.5-1.5-4.7c0-2.3-1.7-4.3-3.9-4.7c0.1-0.2,0.2-0.3,0.2-0.5c0-0.5-0.4-0.9-0.9-0.9
	S27.7,1.5,27.7,2c0,0.2,0.1,0.4,0.2,0.5C25.7,2.9,24,4.8,24,7.2c0,3.2-0.8,4-1.5,4.7c-0.9,0.9-0.3,2.4,1,2.4h3.3
	c0,1,0.8,1.9,1.9,1.9s1.9-0.8,1.9-1.9h3.3C35,14.3,35.6,12.8,34.7,11.9z M28.5,15.3c-0.5,0-0.9-0.4-0.9-0.9h1.9
	C29.5,14.9,29.1,15.3,28.5,15.3z M33.7,13.4H23.3c-0.4,0-0.6-0.5-0.3-0.8c1-1,1.8-2.2,1.8-5.3c0-2.1,1.7-3.8,3.8-3.8
	c2.1,0,3.8,1.7,3.8,3.8c0,3.1,0.7,4.3,1.8,5.3C34.4,12.9,34.1,13.4,33.7,13.4z"/>
<path class="st0" d="M8.6,1.1C4.4,1.1,1,4.5,1,8.7s3.4,7.6,7.6,7.6s7.6-3.4,7.6-7.6S12.8,1.1,8.6,1.1z M12.5,14
	c-1.1,0.8-2.4,1.3-3.9,1.3S5.8,14.8,4.7,14v-0.4c0-1.1,0.9-2,2-2c0.3,0,0.8,0.3,2,0.3c1.1,0,1.6-0.3,2-0.3c1.1,0,2,0.9,2,2V14H12.5z
	 M13.5,13.1c-0.2-1.4-1.4-2.5-2.9-2.5c-0.6,0-0.9,0.3-2,0.3s-1.3-0.3-2-0.3c-1.5,0-2.7,1.1-2.9,2.5c-1.1-1.2-1.8-2.7-1.8-4.5
	C1.9,5,4.9,2,8.5,2s6.6,3,6.6,6.6C15.2,10.4,14.5,12,13.5,13.1z M8.6,4.5c-1.5,0-2.7,1.2-2.7,2.7s1.2,2.7,2.7,2.7s2.7-1.2,2.7-2.7
	S10.1,4.5,8.6,4.5z M8.6,8.9c-0.9,0-1.7-0.8-1.7-1.7s0.8-1.7,1.7-1.7s1.7,0.8,1.7,1.7S9.6,8.9,8.6,8.9z"/>
<path class="st0" d="M48.1,1c-4.2,0-7.6,3.4-7.6,7.6s3.4,7.6,7.6,7.6s7.6-3.4,7.6-7.6S52.3,1,48.1,1z M48.1,15.2
	c-3.7,0-6.7-3-6.7-6.7s3-6.7,6.7-6.7s6.7,3,6.7,6.7C54.7,12.2,51.8,15.2,48.1,15.2z M52.4,6.8l-5.6,5.5c-0.1,0.1-0.4,0.1-0.5,0
	l-2.6-2.7c-0.1-0.1-0.1-0.4,0-0.5L44,8.8c0.1-0.1,0.4-0.1,0.5,0l2.1,2.1l5-5c0.1-0.1,0.4-0.1,0.5,0l0.3,0.3
	C52.6,6.4,52.6,6.6,52.4,6.8L52.4,6.8z"/>
</svg>
