<?xml version="1.0" encoding="UTF-8"?>
<svg width="48px" height="48px" viewBox="0 0 48 48" version="1.1" xmlns="http://www.w3.org/2000/svg" xmlns:xlink="http://www.w3.org/1999/xlink">
    <!-- Generator: Sketch 57.1 (83088) - https://sketch.com -->
    <title>Group</title>
    <desc>Created with Sketch.</desc>
    <g id="Page-1" stroke="none" stroke-width="1" fill="none" fill-rule="evenodd">
        <g id="Group">
            <rect id="Rectangle" fill="#000000" x="0" y="0" width="48" height="48"></rect>
            <g id="R-G-U-X" transform="translate(12.414062, 9.414062)" fill-rule="nonzero">
                <path d="M1.9609375,5.4765625 L3.2578125,5.4765625 C4.12760852,5.4765625 4.75781055,5.31510578 5.1484375,4.9921875 C5.53906445,4.66926922 5.734375,4.19010734 5.734375,3.5546875 C5.734375,2.90885094 5.52343961,2.44531391 5.1015625,2.1640625 C4.67968539,1.88281109 4.04427508,1.7421875 3.1953125,1.7421875 L1.9609375,1.7421875 L1.9609375,5.4765625 Z M1.9609375,7.0234375 L1.9609375,11.5859375 L0.09375,11.5859375 L0.09375,0.1640625 L3.3203125,0.1640625 C4.7942782,0.1640625 5.88541312,0.440101406 6.59375,0.9921875 C7.30208688,1.54427359 7.65625,2.37759859 7.65625,3.4921875 C7.65625,4.91406961 6.91667406,5.92708031 5.4375,6.53125 L8.6640625,11.5859375 L6.5390625,11.5859375 L3.8046875,7.0234375 L1.9609375,7.0234375 Z M19.1484375,5.390625 L23.3515625,5.390625 L23.3515625,11.125 C22.6640591,11.3489595 22.0039094,11.507812 21.3710938,11.6015625 C20.7382781,11.695313 20.0546912,11.7421875 19.3203125,11.7421875 C17.5911372,11.7421875 16.2578172,11.2304739 15.3203125,10.2070312 C14.3828078,9.18358863 13.9140625,7.73959266 13.9140625,5.875 C13.9140625,4.03644914 14.442703,2.59766145 15.5,1.55859375 C16.557297,0.519526055 18.0130116,0 19.8671875,0 C21.0599018,0 22.1900988,0.229164375 23.2578125,0.6875 L22.6015625,2.2421875 C21.6744745,1.81510203 20.7474005,1.6015625 19.8203125,1.6015625 C18.6015564,1.6015625 17.6380244,1.98437117 16.9296875,2.75 C16.2213506,3.51562883 15.8671875,4.56249336 15.8671875,5.890625 C15.8671875,7.28646531 16.1861947,8.34765262 16.8242188,9.07421875 C17.4622428,9.80078488 18.3802023,10.1640625 19.578125,10.1640625 C20.1822947,10.1640625 20.8281216,10.0885424 21.515625,9.9375 L21.515625,6.9921875 L19.1484375,6.9921875 L19.1484375,5.390625 Z" id="RG" fill="#FFFFFF"></path>
                <path d="M9.0546875,17.1640625 L9.0546875,24.5546875 C9.0546875,25.3984417 8.87369973,26.1367156 8.51171875,26.7695312 C8.14973777,27.4023469 7.62630551,27.8893212 6.94140625,28.2304688 C6.25650699,28.5716163 5.43750477,28.7421875 4.484375,28.7421875 C3.06770125,28.7421875 1.96614977,28.3671913 1.1796875,27.6171875 C0.393225234,26.8671837 0,25.8359441 0,24.5234375 L0,17.1640625 L1.875,17.1640625 L1.875,24.390625 C1.875,25.333338 2.09374781,26.0286436 2.53125,26.4765625 C2.96875219,26.9244814 3.64062047,27.1484375 4.546875,27.1484375 C6.30730047,27.1484375 7.1875,26.2239676 7.1875,24.375 L7.1875,17.1640625 L9.0546875,17.1640625 Z M24.546875,28.5859375 L22.3984375,28.5859375 L19.5390625,23.9140625 L16.65625,28.5859375 L14.65625,28.5859375 L18.4453125,22.6640625 L14.8984375,17.1640625 L16.9765625,17.1640625 L19.6171875,21.484375 L22.2578125,17.1640625 L24.2734375,17.1640625 L20.703125,22.6953125 L24.546875,28.5859375 Z" id="UX" fill="#16A0D6"></path>
            </g>
        </g>
    </g>
</svg>