<?xml version="1.0" encoding="UTF-8"?>
<svg width="36px" height="36px" viewBox="0 0 36 36" version="1.1" xmlns="http://www.w3.org/2000/svg" xmlns:xlink="http://www.w3.org/1999/xlink">
    <!-- Generator: Sketch 63.1 (92452) - https://sketch.com -->
    <title>check-circle</title>
    <desc>Created with Sketch.</desc>
    <g id="Page-1" stroke="none" stroke-width="1" fill="none" fill-rule="evenodd">
        <g id="check-circle" fill="#00916A" fill-rule="nonzero">
            <path d="M18,0 C8.05884677,0 0,8.05884677 0,18 C0,27.9411532 8.05884677,36 18,36 C27.9411532,36 36,27.9411532 36,18 C36,8.05884677 27.9411532,0 18,0 Z M18,33.6774194 C9.38729032,33.6774194 2.32258065,26.7056855 2.32258065,18 C2.32258065,9.3873629 9.29431452,2.32258065 18,2.32258065 C26.6127097,2.32258065 33.6774194,9.29431452 33.6774194,18 C33.6774194,26.6126371 26.7056855,33.6774194 18,33.6774194 Z M28.2795968,13.7205726 L15.1802419,26.7148306 C14.83875,27.0535645 14.2872823,27.0513871 13.9485484,26.7098952 L7.71546774,20.4264435 C7.37673387,20.0849516 7.37891129,19.5334839 7.72040323,19.19475 L8.33879032,18.581371 C8.68028226,18.2426371 9.23175,18.2448145 9.57048387,18.5863065 L14.5768065,23.6330565 L26.4394597,11.8655565 C26.7809516,11.5268226 27.3324194,11.529 27.6711532,11.8704919 L28.2845323,12.488879 C28.6233387,12.830371 28.6210887,13.3818387 28.2795968,13.7205726 L28.2795968,13.7205726 Z" id="Shape"></path>
        </g>
    </g>
</svg>