<?xml version="1.0" encoding="UTF-8"?>
<svg width="24px" height="24px" viewBox="0 0 24 24" version="1.1" xmlns="http://www.w3.org/2000/svg" xmlns:xlink="http://www.w3.org/1999/xlink">
    <!-- Generator: Sketch 58 (84663) - https://sketch.com -->
    <title>Group 3</title>
    <desc>Created with Sketch.</desc>
    <g id="Page-1" stroke="none" stroke-width="1" fill="none" fill-rule="evenodd">
        <g id="Group-3" fill="#030F1E">
            <path d="M23.0803862,23.0801655 L18.3699862,23.0801655 L18.3699862,15.7047172 C18.3699862,13.9460414 18.3377655,11.6837517 15.9205517,11.6837517 C13.4680276,11.6837517 13.091531,13.5995586 13.091531,15.5776 L13.091531,23.0801655 L8.38201379,23.0801655 L8.38201379,7.91393103 L12.9028414,7.91393103 L12.9028414,9.9862069 L12.9659586,9.9862069 C13.5953655,8.79404138 15.1329103,7.5369931 17.4260966,7.5369931 C22.1991724,7.5369931 23.0803862,10.6782897 23.0803862,14.7614897 L23.0803862,23.0801655 Z M3.06957241,5.84077241 C1.55873103,5.84077241 0.336110345,4.61616552 0.336110345,3.10731034 C0.336110345,1.59977931 1.55873103,0.375172414 3.06957241,0.375172414 C4.57666207,0.375172414 5.80126897,1.59977931 5.80126897,3.10731034 C5.80126897,4.61616552 4.57666207,5.84077241 3.06957241,5.84077241 Z M0.711724138,23.0801655 L5.42565517,23.0801655 L5.42565517,7.91393103 L0.711724138,7.91393103 L0.711724138,23.0801655 Z" id="Fill-1"></path>
        </g>
    </g>
</svg>
