<?xml version="1.0" encoding="UTF-8"?>
<svg width="48px" height="48px" viewBox="0 0 48 48" version="1.1" xmlns="http://www.w3.org/2000/svg" xmlns:xlink="http://www.w3.org/1999/xlink">
    <!-- Generator: Sketch 63.1 (92452) - https://sketch.com -->
    <title>lexis-icon-white 2</title>
    <desc>Created with Sketch.</desc>
    <g id="Page-1" stroke="none" stroke-width="1" fill="none" fill-rule="evenodd">
        <g id="lexis-icon-white-2" fill-rule="nonzero">
            <g id="lexis-icon-white">
                <path d="M27.3,7.3 L27.3,7.3 C7.7,13.4 6.9,39.5 16.5,46.4 C18.1,47 19.8,47.3 21.6,47.5 C10.5,41.9 9.9,15.9 27.3,7.3 Z" id="Path" fill="#FFFFFF"></path>
                <path d="M27,6.5 C6.8,7.5 1,25.4 4.7,37.5 C6.2,39.6 8,41.5 10.1,43 C3.4,33.6 5.3,10.9 27,6.5 Z" id="Path" fill="#FFFFFF"></path>
                <path d="M26.7,5.6 C14.7,2.9 5.7,8.5 1.5,16.9 C0.8,19.2 0.4,21.6 0.4,24 C0.4,25.1 0.5,26.2 0.6,27.4 C2.3,16.6 9.8,5.1 26.7,5.6 Z" id="Path" fill="#FFFFFF"></path>
                <path d="M47.6,24 C47.6,11 37,0.4 24,0.4 C24,0.4 24,0.4 24,0.4 C22.4,0.4 20.8,0.6 19.2,0.9 C22.6,1.2 25.9,2.5 28.7,4.6 C29.1,4.5 29.6,4.4 30,4.5 C30.7,4.6 31.3,4.9 31.8,5.4 C32.9,5 34.1,4.7 35.3,4.5 C35.3,4.7 32.7,5.6 32.1,5.8 L32.1,5.8 C33.7,5.7 37.5,5.6 37.4,5.8 C35.7,6 34,6.1 32.3,6.2 L32.3,6.3 C35.1,6.9 39,7.8 39,8.1 C39,8.4 34.9,7.3 32.3,6.9 L32.3,6.9 L32.3,7 C34.8,8.3 39,10.9 38.9,11 C38.8,11.1 34.4,8.8 32,7.7 C32,7.7 32,7.7 32,7.8 C33.8,9.6 37.8,13.8 37.7,13.9 C37.6,14 33.9,10.4 31.4,8.3 C30.3,9 28.8,8.9 27.8,8.1 C11.8,17.9 16.9,43.3 28.1,47.3 C39.4,45.3 47.6,35.4 47.6,24 Z" id="Path" fill="#FFFFFF"></path>
                <path d="M27,4.8 C23.1,2.5 18.5,1.7 14,2.6 C11.8,3.6 9.8,5 8,6.7 C12.8,3.7 19.3,2.5 27,4.8 Z" id="Path" fill="#FFFFFF"></path>
                <path d="M27.8,8 C28.8,8.8 30.3,8.9 31.4,8.2 C33.9,10.3 37.4,14 37.6,13.8 C37.8,13.6 33.8,9.5 32,7.8 C32,7.8 32,7.8 32,7.7 C34.3,8.8 38.7,11.2 38.9,11 C39.1,10.8 34.8,8.3 32.3,7 L32.3,6.9 L32.3,6.9 C34.9,7.3 39,8.2 39,8.1 C39,8 35.1,6.9 32.3,6.3 C32.3,6.3 32.3,6.3 32.3,6.2 C34,6.1 35.7,6 37.4,5.7 C37.4,5.5 33.7,5.6 32.1,5.7 L32.1,5.7 C32.7,5.5 35.3,4.6 35.3,4.4 C34.1,4.6 32.9,4.9 31.8,5.3 C31.3,4.8 30.7,4.5 30,4.5 C29.6,4.4 29.1,4.5 28.7,4.6 C25.9,2.5 22.6,1.3 19.2,0.9 C17.4,1.3 15.7,1.9 14,2.6 C18.5,1.7 23.1,2.5 27,4.8 C19.3,2.5 12.8,3.6 8,6.7 C5,9.5 2.8,13 1.5,16.9 C5.7,8.5 14.8,2.9 26.8,5.6 C9.8,5.1 2.3,16.6 0.6,27.3 C1.1,30.9 2.5,34.4 4.6,37.4 C1,25.4 6.8,7.5 27,6.5 C5.3,10.9 3.4,33.6 10,43 C12,44.5 14.2,45.6 16.5,46.4 C6.9,39.5 7.7,13.4 27.2,7.2 L27.2,7.2 C9.9,15.9 10.5,41.9 21.6,47.5 C22.4,47.6 23.2,47.6 24,47.6 C25.4,47.6 26.8,47.5 28.2,47.2 C16.9,43.2 11.8,17.9 27.8,8 Z" id="Path" fill="#222222"></path>
                <path d="M24,48 C10.7,48 0,37.3 0,24 C0,10.7 10.7,0 24,0 C37.3,0 48,10.7 48,24 C48,37.3 37.3,48 24,48 Z M24,0.8 C11.2,0.8 0.8,11.2 0.8,24 C0.8,36.8 11.2,47.2 24.1,47.2 C36.9,47.2 47.3,36.8 47.3,24 C47.3,11.2 36.8,0.8 24,0.8 Z" id="Shape" fill="#FFFFFF"></path>
            </g>
        </g>
    </g>
</svg>