<?xml version="1.0" encoding="utf-8"?>
<!-- Generator: Adobe Illustrator 24.2.1, SVG Export Plug-In . SVG Version: 6.00 Build 0)  -->
<svg version="1.1" id="Layer_1" xmlns="http://www.w3.org/2000/svg" xmlns:xlink="http://www.w3.org/1999/xlink" x="0px" y="0px"
	 viewBox="0 0 169 41" style="enable-background:new 0 0 169 41;" xml:space="preserve">
<style type="text/css">
	.st0{fill:#ED1C24;}
	.st1{fill:url(#XMLID_2_);}
	.st2{fill:url(#XMLID_3_);}
</style>
<g id="Page-1">
	<g id="Sign-in-page-_x2013_-Grid-1024px" transform="translate(-464.000000, -20.000000)">
		<g id="Group-2" transform="translate(464.000000, 20.000000)">
			<g id="Group_1_">
				<g>
					<path id="XMLID_189_" d="M31.3,6.1c0-1.1,0.9-1.9,1.9-1.9c1,0,1.9,0.8,1.9,1.9S34.3,8,33.2,8C32.1,7.9,31.3,7.1,31.3,6.1
						 M33.2,7.6c0.9,0,1.5-0.6,1.5-1.6c0-0.9-0.6-1.6-1.5-1.6c-0.9,0-1.5,0.6-1.5,1.6C31.6,6.9,32.3,7.6,33.2,7.6 M32.8,7.1h-0.3V5
						h0.9c0.5,0,0.8,0.2,0.8,0.6c0,0.3-0.2,0.5-0.5,0.5l0.6,1h-0.3l-0.5-1H33L32.8,7.1L32.8,7.1z M33.2,5.8c0.2,0,0.5,0,0.5-0.3
						c0-0.2-0.2-0.3-0.4-0.3h-0.4v0.6C32.8,5.8,33.2,5.8,33.2,5.8z"/>
					<g id="XMLID_175_" transform="translate(43.116883, 29.189189)">
						<g id="Group">
							<path id="XMLID_188_" class="st0" d="M5.7,10.1L3.3,6.3H1.5v3.8H0.3V0.6h3.8C5.8,0.6,7,1.7,7,3.5S5.8,6.1,4.5,6.2l2.6,3.9
								H5.7z M5.8,3.5c0-1.1-0.8-1.8-1.8-1.8H1.5v3.6H4C5.1,5.2,5.8,4.5,5.8,3.5z"/>
							<polygon id="XMLID_187_" class="st0" points="8.7,10.1 8.7,0.6 9.9,0.6 9.9,10.1 							"/>
							<path id="XMLID_186_" class="st0" d="M11.5,8.8l0.6-0.9c0.6,0.6,1.6,1.3,2.9,1.3c1.6,0,2.2-0.9,2.2-1.6
								c0-2.4-5.5-1.1-5.5-4.4c0-1.5,1.4-2.6,3.2-2.6c1.4,0,2.6,0.4,3.3,1.3l-0.6,0.9C17,1.9,16,1.6,15,1.6c-1.1,0-1.9,0.5-1.9,1.5
								c0,2.2,5.5,0.9,5.5,4.4c0,1.4-0.9,2.8-3.4,2.8C13.5,10.3,12.3,9.6,11.5,8.8z"/>
							<polygon id="XMLID_185_" class="st0" points="26,10.1 22.4,5.8 21.5,6.9 21.5,10.1 20.3,10.1 20.3,0.6 21.5,0.6 21.5,5.4 
								25.7,0.5 27.1,0.5 23.2,5.1 27.5,10.1 							"/>
							<path id="XMLID_184_" class="st0" d="M31.7,8.8l0.6-0.9C33,8.5,34,9.2,35.2,9.2c1.6,0,2.2-0.9,2.2-1.6c0-2.4-5.5-1.1-5.5-4.4
								c0-1.5,1.4-2.6,3.2-2.6c1.4,0,2.6,0.4,3.3,1.3l-0.6,0.9c-0.6-0.8-1.7-1.1-2.7-1.1c-1.1,0-1.9,0.5-1.9,1.5
								c0,2.2,5.5,0.9,5.5,4.4c0,1.4-0.9,2.8-3.4,2.8C33.6,10.3,32.4,9.6,31.7,8.8z"/>
							<path id="XMLID_183_" class="st0" d="M40,5.3c0-2.8,1.8-4.9,4.6-4.9s4.6,2.1,4.6,4.9s-1.8,4.9-4.6,4.9
								C41.9,10.3,40,8.1,40,5.3z M48.2,5.3c0-2.2-1.3-3.9-3.4-3.9c-2.2,0-3.4,1.6-3.4,3.9c0,2.2,1.3,3.9,3.4,3.9
								C46.8,9.2,48.2,7.5,48.2,5.3z"/>
							<polygon id="XMLID_182_" class="st0" points="51.1,10.1 51.1,0.6 52.3,0.6 52.3,9.1 56.7,9.1 56.7,10.2 							"/>
							<path id="XMLID_181_" class="st0" d="M57.8,6.4V0.6H59v5.7c0,1.7,0.9,2.8,2.7,2.8c1.7,0,2.7-1.1,2.7-2.8V0.6h1.2v5.7
								c0,2.4-1.3,3.9-3.9,3.9C59.2,10.3,57.8,8.6,57.8,6.4z"/>
							<polygon id="XMLID_180_" class="st0" points="70,10.1 70,1.7 66.9,1.7 66.9,0.6 74.1,0.6 74.1,1.7 71.1,1.7 71.1,10.1 
															"/>
							<polygon id="XMLID_179_" class="st0" points="75.6,10.1 75.6,0.6 76.7,0.6 76.7,10.1 							"/>
							<path id="XMLID_178_" class="st0" d="M78.5,5.3c0-2.8,1.8-4.9,4.6-4.9c2.8,0,4.6,2.1,4.6,4.9s-1.8,4.9-4.6,4.9
								C80.4,10.3,78.5,8.1,78.5,5.3z M86.6,5.3c0-2.2-1.3-3.9-3.4-3.9c-2.2,0-3.4,1.6-3.4,3.9c0,2.2,1.3,3.9,3.4,3.9
								C85.3,9.2,86.6,7.5,86.6,5.3z"/>
							<polygon id="XMLID_177_" class="st0" points="96.2,10.1 90.7,2.6 90.7,10.1 89.5,10.1 89.5,0.6 90.7,0.6 96,8 96,0.6 
								97.2,0.6 97.2,10.1 							"/>
							<path id="XMLID_176_" class="st0" d="M99,8.8l0.6-0.9c0.6,0.6,1.6,1.3,2.9,1.3c1.6,0,2.2-0.9,2.2-1.6c0-2.4-5.5-1.1-5.5-4.4
								c0-1.5,1.4-2.6,3.2-2.6c1.4,0,2.6,0.4,3.3,1.3l-0.6,0.9c-0.6-0.8-1.7-1.1-2.7-1.1c-1.1,0-1.9,0.5-1.9,1.5
								c0,2.2,5.5,0.9,5.5,4.4c0,1.4-0.9,2.8-3.4,2.8C100.9,10.3,99.7,9.6,99,8.8z"/>
						</g>
					</g>
					<g id="XMLID_161_" transform="translate(42.038961, 0.000000)">
						<path id="XMLID_174_" d="M98.8,6.7c0.2,0,1.5,0,1.9,0c-2.9,3.4-8.6,10.7-10.7,13.6c-0.2,0-1.6,0-1.9,0l0.2-0.2
							C90.3,17.8,96.7,9.7,98.8,6.7z"/>
						<path id="XMLID_173_" d="M35.6,6.7c0.2,0,1.5,0,1.9,0c-2.9,3.4-8.6,10.7-10.7,13.6c-0.2,0-1.6,0-1.9,0l0.2-0.2
							C27.1,17.8,33.4,9.7,35.6,6.7z"/>
						<path id="XMLID_172_" d="M88.3,6.7c0.4,0,2.4,0,2.8,0c2,2.9,7.1,10.3,9.9,13.6c-0.6,0-2.7,0-2.8,0
							C96.9,18.4,90.4,9.5,88.3,6.7z"/>
						<path id="XMLID_171_" d="M105.6,20.4c-0.3,0-1.8,0-2.2,0V6.7c0.9,0,1.3,0,2.2,0V20.4z M104.6,3.5c-0.8,0-1.3-0.6-1.3-1.4
							s0.5-1.3,1.3-1.3c0.6,0,1.3,0.5,1.3,1.3S105.3,3.5,104.6,3.5z"/>
						<path id="XMLID_170_" d="M109.5,17.6c0.6,1.1,1.9,2.1,3.3,2.1c1.7,0,2.9-1.1,2.8-2.6c-0.2-4-6.8-1.3-6.8-6.3
							c0-2.7,2-4.2,4.6-4.3c1.5,0,3.2,0.6,3.2,0.6c-0.3,0.6-0.8,2.1-0.8,2.1c-0.5-1.1-1.5-1.9-2.6-1.8c-1.4,0-2.6,0.9-2.6,2.4
							c0,3.7,7,1.9,6.9,6.5c0,2.5-1.9,4.6-5.2,4.4c-1.5-0.1-3.8-0.9-3.8-1C109.1,19,109.5,17.6,109.5,17.6z"/>
						<path id="XMLID_169_" d="M77.5,12.6c0.1-2.4,1.3-5,4-5c2.8,0,3.6,2.5,3.6,5H77.5z M87.3,13.8c0.2-4.8-2.6-7-5.7-7
							c-4.2,0-6.5,3-6.5,7c0,4.4,2.8,7,6.7,7c1.7,0,3.6-0.6,5-1.7v-1.4c-0.8,0.8-2.3,1.9-4.2,1.9c-3.4,0-5.2-2.6-4.9-5.8H87.3
							L87.3,13.8z"/>
						<path id="XMLID_168_" d="M25,6.7c0.4,0,2.4,0,2.8,0c2,2.9,7.1,10.3,9.9,13.6c-0.6,0-2.7,0-2.8,0C33.7,18.4,27.2,9.5,25,6.7z"
							/>
						<path id="XMLID_167_" d="M42.4,20.4c-0.3,0-1.8,0-2.2,0V6.7c0.9,0,1.3,0,2.2,0V20.4z M41.3,3.5c-0.8,0-1.3-0.6-1.3-1.4
							s0.5-1.3,1.3-1.3c0.6,0,1.3,0.5,1.3,1.3C42.7,2.8,42,3.5,41.3,3.5z"/>
						<path id="XMLID_166_" d="M46.4,17.6c0.6,1.1,1.9,2.1,3.3,2.1c1.7,0,2.9-1.1,2.8-2.6c-0.2-4-6.8-1.3-6.8-6.3
							c0-2.7,2-4.2,4.6-4.3c1.5,0,3.2,0.6,3.2,0.6c-0.3,0.6-0.8,2.1-0.8,2.1c-0.5-1.1-1.5-1.9-2.6-1.8c-1.4,0-2.6,0.9-2.6,2.4
							c0,3.7,7,1.9,6.9,6.5c0,2.5-1.9,4.6-5.2,4.4c-1.5-0.1-3.8-0.9-3.8-1C45.8,19,46.4,17.6,46.4,17.6z"/>
						<path id="XMLID_165_" d="M14.3,12.6c0.1-2.4,1.3-5,4-5c2.8,0,3.6,2.5,3.6,5H14.3z M24.1,13.8c0.2-4.8-2.6-7-5.7-7
							c-4.2,0-6.5,3-6.5,7c0,4.4,2.8,7,6.7,7c1.7,0,3.6-0.6,5-1.7v-1.4c-0.8,0.8-2.3,1.9-4.2,1.9c-3.4,0-5.2-2.6-4.9-5.8H24.1
							L24.1,13.8z"/>
						<path id="XMLID_164_" d="M3.4,18.8c1.8,0,6.3,0,7.9-0.3c0,0.3,0,1.5,0,1.8H1V0.9c0.3,0,2,0,2.5,0V18.8z"/>
						<path id="XMLID_163_" d="M72.3,20.4h-0.9C71.1,20.1,59.1,5,59.1,5v15.5c-0.2,0-0.5,0-0.8,0c-0.2,0-0.5,0-0.8,0V0.9h1.1
							l11.9,14.7l0.2,0.2V0.9c0.3,0,1.3,0,1.6,0V20.4z"/>
						<path id="XMLID_162_" d="M119.8,8.6c0-1.1,0.9-1.9,1.9-1.9s1.9,0.8,1.9,1.9s-0.9,1.9-1.9,1.9S119.8,9.7,119.8,8.6z
							 M121.7,10.3c0.9,0,1.5-0.6,1.5-1.6c0-0.9-0.6-1.6-1.5-1.6s-1.5,0.6-1.5,1.6C120.2,9.5,120.8,10.3,121.7,10.3z M121.4,9.7
							h-0.3V7.6h0.9c0.5,0,0.8,0.2,0.8,0.6c0,0.3-0.2,0.5-0.5,0.5l0.6,1h-0.3l-0.5-1h-0.3L121.4,9.7L121.4,9.7z M121.7,8.5
							c0.2,0,0.5,0,0.5-0.3c0-0.2-0.2-0.3-0.4-0.3h-0.4v0.6H121.7z"/>
					</g>
					
						<radialGradient id="XMLID_2_" cx="-123.4397" cy="429.5244" r="0.7286" gradientTransform="matrix(32.6487 0 0 -32.6486 4051.7908 14029.0488)" gradientUnits="userSpaceOnUse">
						<stop  offset="0" style="stop-color:#FDE6DB"/>
						<stop  offset="6.223321e-03" style="stop-color:#FCE1D6"/>
						<stop  offset="8.475854e-02" style="stop-color:#F3A7A1"/>
						<stop  offset="0.1606" style="stop-color:#EC7675"/>
						<stop  offset="0.2319" style="stop-color:#E65053"/>
						<stop  offset="0.2976" style="stop-color:#E2353A"/>
						<stop  offset="0.3557" style="stop-color:#E0252B"/>
						<stop  offset="0.4" style="stop-color:#DF1F26"/>
						<stop  offset="1" style="stop-color:#B92026"/>
					</radialGradient>
					<path id="XMLID_160_" class="st1" d="M33.4,18.3c0,9.1-7.3,16.3-16.3,16.3S0.8,27.4,0.8,18.3S8.1,1.9,17,1.9
						S33.4,9.2,33.4,18.3z"/>
					
						<radialGradient id="XMLID_3_" cx="-122.429" cy="426.7382" r="1.7818" gradientTransform="matrix(26.6273 0 0 -26.6273 3281.1572 11369.3311)" gradientUnits="userSpaceOnUse">
						<stop  offset="0" style="stop-color:#FDE6DB"/>
						<stop  offset="0.6" style="stop-color:#DF1F26"/>
						<stop  offset="1" style="stop-color:#B92026"/>
					</radialGradient>
					<path id="XMLID_159_" class="st2" d="M22.7,5.9c0.1,0,3.8-0.2,3.7-0.3c0-0.1-2.6,0-3.7,0c0.4-0.1,2.3-0.8,2.3-1
						c0-0.1-3.1,0.9-3.6,1c-2.8-2.3-5.4-3.2-7.8-3.4c-1.3,0.2-2.5,0.6-3.7,1.2C12.7,2.9,15.8,3,19.2,5C13.8,3.4,9.3,4.2,5.8,6.4
						c-2,1.9-3.6,4.4-4.4,7.1c2.9-5.9,9.2-9.8,17.5-8C7.1,5.2,1.9,13.2,0.9,20.6c0.3,2.6,1.3,5,2.8,7C1.1,19.2,5.1,6.8,19.1,6.1
						c-15,3-16.2,19-11.5,25.4c1.4,1,2.9,1.8,4.5,2.3c-6.8-4.6-6.3-23.1,7.5-27.2c-12.2,5.8-11.9,24.2-4.1,28c0.5,0,1,0,1.5,0
						c1,0,1.9,0,3-0.2C12,31.5,8.4,12.5,21.1,6.4l0.4,0.3c1.6,1.2,4.9,4.6,5.1,4.5c0.2-0.1-2.8-3.1-4-4.3c1.5,0.6,4.7,2.5,4.9,2.4
						c0.1-0.1-3.1-2.1-4.9-2.9c1.7,0.2,4.9,1,4.9,0.9C27.5,7,24.7,6.4,22.7,5.9z"/>
				</g>
			</g>
		</g>
	</g>
</g>
</svg>
