<?xml version="1.0" encoding="UTF-8"?>
<svg width="338px" height="41px" viewBox="0 0 338 41" version="1.1" xmlns="http://www.w3.org/2000/svg" xmlns:xlink="http://www.w3.org/1999/xlink">
    <title>Group 2</title>
    <defs>
        <radialGradient cx="63.9804744%" cy="11.3753014%" fx="63.9804744%" fy="11.3753014%" r="72.8593081%" gradientTransform="translate(0.639805,0.113753),scale(0.999621,1.000000),translate(-0.639805,-0.113753)" id="radialGradient-1">
            <stop stop-color="#FDE6DB" offset="0%"></stop>
            <stop stop-color="#FCE1D6" offset="0.6223321%"></stop>
            <stop stop-color="#F3A7A1" offset="8.475854%"></stop>
            <stop stop-color="#EC7675" offset="16.06%"></stop>
            <stop stop-color="#E65053" offset="23.19%"></stop>
            <stop stop-color="#E2353A" offset="29.76%"></stop>
            <stop stop-color="#E0252B" offset="35.57%"></stop>
            <stop stop-color="#DF1F26" offset="40%"></stop>
            <stop stop-color="#B92026" offset="100%"></stop>
        </radialGradient>
        <radialGradient cx="76.3862573%" cy="12.9378894%" fx="76.3862573%" fy="12.9378894%" r="178.18336%" gradientTransform="translate(0.763863,0.129379),scale(1.000000,0.826519),translate(-0.763863,-0.129379)" id="radialGradient-2">
            <stop stop-color="#FDE6DB" offset="0%"></stop>
            <stop stop-color="#DF1F26" offset="60%"></stop>
            <stop stop-color="#B92026" offset="100%"></stop>
        </radialGradient>
    </defs>
    <g id="Page-1" stroke="none" stroke-width="1" fill="none" fill-rule="evenodd">
        <g id="Sign-in-page-–-Grid-1024px" transform="translate(-464.000000, -20.000000)" fill-rule="nonzero">
            <g id="Group-2" transform="translate(464.000000, 20.000000)">
                <g id="Group">
                    <g>
                        <path d="M31.2597403,6.05405405 C31.2597403,4.97297297 32.1220779,4.10810811 33.2,4.10810811 C34.1701299,4.10810811 35.1402597,4.86486486 35.1402597,6.05405405 C35.1402597,7.24324324 34.2779221,8 33.2,8 C32.1220779,7.89189189 31.2597403,7.13513514 31.2597403,6.05405405 M33.2,7.56756757 C34.0623377,7.56756757 34.7090909,6.91891892 34.7090909,5.94594595 C34.7090909,5.08108108 34.0623377,4.32432432 33.2,4.32432432 C32.3376623,4.32432432 31.6909091,4.97297297 31.6909091,5.94594595 C31.5831169,6.91891892 32.3376623,7.56756757 33.2,7.56756757 M32.7688312,7.13513514 L32.4454545,7.13513514 L32.4454545,4.97297297 L33.3077922,4.97297297 C33.8467532,4.97297297 34.0623377,5.18918919 34.0623377,5.62162162 C34.0623377,5.94594595 33.8467532,6.16216216 33.5233766,6.16216216 L34.1701299,7.13513514 L33.8467532,7.13513514 L33.3077922,6.16216216 L32.9844156,6.16216216 L32.7688312,7.13513514 L32.7688312,7.13513514 Z M33.2,5.83783784 C33.4155844,5.83783784 33.738961,5.83783784 33.738961,5.51351351 C33.738961,5.2972973 33.5233766,5.18918919 33.3077922,5.18918919 L32.8766234,5.18918919 L32.8766234,5.83783784 C32.7688312,5.83783784 33.2,5.83783784 33.2,5.83783784 Z" id="XMLID_189_" fill="#000000"></path>
                        <g id="XMLID_175_" transform="translate(43.116883, 29.189189)" fill="#ED1C24">
                            <g id="Group">
                                <path d="M5.71298701,10.0540541 L3.34155844,6.27027027 L1.50909091,6.27027027 L1.50909091,10.0540541 L0.323376623,10.0540541 L0.323376623,0.648648649 L4.0961039,0.648648649 C5.82077922,0.648648649 7.00649351,1.72972973 7.00649351,3.45945946 C7.00649351,5.18918919 5.82077922,6.05405405 4.52727273,6.16216216 L7.11428571,10.0540541 L5.71298701,10.0540541 Z M5.82077922,3.45945946 C5.82077922,2.37837838 5.06623377,1.62162162 3.98831169,1.62162162 L1.50909091,1.62162162 L1.50909091,5.18918919 L3.98831169,5.18918919 C5.06623377,5.18918919 5.82077922,4.54054054 5.82077922,3.45945946 Z" id="XMLID_188_"></path>
                                <polygon id="XMLID_187_" points="8.73116883 10.0540541 8.73116883 0.648648649 9.91688312 0.648648649 9.91688312 10.0540541"></polygon>
                                <path d="M11.5337662,8.75675676 L12.1805195,7.89189189 C12.8272727,8.54054054 13.7974026,9.18918919 15.0909091,9.18918919 C16.7077922,9.18918919 17.2467532,8.32432432 17.2467532,7.56756757 C17.2467532,5.18918919 11.7493506,6.48648649 11.7493506,3.13513514 C11.7493506,1.62162162 13.1506494,0.540540541 14.9831169,0.540540541 C16.3844156,0.540540541 17.5701299,0.972972973 18.3246753,1.83783784 L17.6779221,2.7027027 C17.0311688,1.94594595 15.9532468,1.62162162 14.9831169,1.62162162 C13.9051948,1.62162162 13.0428571,2.16216216 13.0428571,3.13513514 C13.0428571,5.2972973 18.5402597,4 18.5402597,7.56756757 C18.5402597,8.97297297 17.6779221,10.3783784 15.0909091,10.3783784 C13.474026,10.2702703 12.2883117,9.62162162 11.5337662,8.75675676 Z" id="XMLID_186_"></path>
                                <polygon id="XMLID_185_" points="25.9779221 10.0540541 22.4207792 5.83783784 21.4506494 6.91891892 21.4506494 10.0540541 20.2649351 10.0540541 20.2649351 0.648648649 21.4506494 0.648648649 21.4506494 5.40540541 25.6545455 0.540540541 27.0558442 0.540540541 23.1753247 5.08108108 27.487013 10.0540541 25.9779221 10.0540541"></polygon>
                                <path d="M31.6909091,8.75675676 L32.3376623,7.89189189 C32.9844156,8.54054054 33.9545455,9.18918919 35.2480519,9.18918919 C36.8649351,9.18918919 37.4038961,8.32432432 37.4038961,7.56756757 C37.4038961,5.18918919 31.9064935,6.48648649 31.9064935,3.13513514 C31.9064935,1.62162162 33.3077922,0.540540541 35.1402597,0.540540541 C36.5415584,0.540540541 37.7272727,0.972972973 38.4818182,1.83783784 L37.8350649,2.7027027 C37.1883117,1.94594595 36.1103896,1.62162162 35.1402597,1.62162162 C34.0623377,1.62162162 33.2,2.16216216 33.2,3.13513514 C33.2,5.2972973 38.6974026,4 38.6974026,7.56756757 C38.6974026,8.97297297 37.8350649,10.3783784 35.2480519,10.3783784 C33.6311688,10.2702703 32.4454545,9.62162162 31.6909091,8.75675676 Z" id="XMLID_184_"></path>
                                <path d="M39.9909091,5.2972973 C39.9909091,2.48648649 41.8233766,0.432432432 44.625974,0.432432432 C47.4285714,0.432432432 49.261039,2.48648649 49.261039,5.2972973 C49.261039,8.10810811 47.4285714,10.1621622 44.625974,10.1621622 C41.9311688,10.2702703 39.9909091,8.10810811 39.9909091,5.2972973 Z M48.1831169,5.2972973 C48.1831169,3.13513514 46.8896104,1.40540541 44.7337662,1.40540541 C42.5779221,1.40540541 41.2844156,3.02702703 41.2844156,5.2972973 C41.2844156,7.45945946 42.5779221,9.18918919 44.7337662,9.18918919 C46.7818182,9.18918919 48.1831169,7.45945946 48.1831169,5.2972973 Z" id="XMLID_183_"></path>
                                <polygon id="XMLID_182_" points="51.0935065 10.0540541 51.0935065 0.648648649 52.2792208 0.648648649 52.2792208 9.08108108 56.6987013 9.08108108 56.6987013 10.1621622"></polygon>
                                <path d="M57.7766234,6.37837838 L57.7766234,0.648648649 L58.9623377,0.648648649 L58.9623377,6.37837838 C58.9623377,8.10810811 59.8246753,9.18918919 61.6571429,9.18918919 C63.3818182,9.18918919 64.3519481,8.10810811 64.3519481,6.37837838 L64.3519481,0.648648649 L65.5376623,0.648648649 L65.5376623,6.37837838 C65.5376623,8.75675676 64.2441558,10.2702703 61.6571429,10.2702703 C59.1779221,10.2702703 57.7766234,8.64864865 57.7766234,6.37837838 Z" id="XMLID_181_"></path>
                                <polygon id="XMLID_180_" points="69.9571429 10.0540541 69.9571429 1.72972973 66.938961 1.72972973 66.938961 0.648648649 74.0532468 0.648648649 74.0532468 1.72972973 71.1428571 1.72972973 71.1428571 10.0540541"></polygon>
                                <polygon id="XMLID_179_" points="75.5623377 10.0540541 75.5623377 0.648648649 76.7480519 0.648648649 76.7480519 10.0540541"></polygon>
                                <path d="M78.4727273,5.2972973 C78.4727273,2.48648649 80.3051948,0.432432432 83.1077922,0.432432432 C85.9103896,0.432432432 87.7428571,2.48648649 87.7428571,5.2972973 C87.7428571,8.10810811 85.9103896,10.1621622 83.1077922,10.1621622 C80.412987,10.2702703 78.4727273,8.10810811 78.4727273,5.2972973 Z M86.5571429,5.2972973 C86.5571429,3.13513514 85.2636364,1.40540541 83.1077922,1.40540541 C80.9519481,1.40540541 79.6584416,3.02702703 79.6584416,5.2972973 C79.6584416,7.45945946 80.9519481,9.18918919 83.1077922,9.18918919 C85.2636364,9.18918919 86.5571429,7.45945946 86.5571429,5.2972973 Z" id="XMLID_178_"></path>
                                <polygon id="XMLID_177_" points="96.1506494 10.0540541 90.6532468 2.59459459 90.6532468 10.0540541 89.4675325 10.0540541 89.4675325 0.648648649 90.6532468 0.648648649 96.0428571 8 96.0428571 0.648648649 97.2285714 0.648648649 97.2285714 10.0540541"></polygon>
                                <path d="M98.9532468,8.75675676 L99.6,7.89189189 C100.246753,8.54054054 101.216883,9.18918919 102.51039,9.18918919 C104.127273,9.18918919 104.666234,8.32432432 104.666234,7.56756757 C104.666234,5.18918919 99.1688312,6.48648649 99.1688312,3.13513514 C99.1688312,1.62162162 100.57013,0.540540541 102.402597,0.540540541 C103.803896,0.540540541 104.98961,0.972972973 105.744156,1.83783784 L105.097403,2.7027027 C104.450649,1.94594595 103.372727,1.62162162 102.402597,1.62162162 C101.324675,1.62162162 100.462338,2.16216216 100.462338,3.13513514 C100.462338,5.2972973 105.95974,4 105.95974,7.56756757 C105.95974,8.97297297 105.097403,10.3783784 102.51039,10.3783784 C100.893506,10.2702703 99.7077922,9.62162162 98.9532468,8.75675676 Z" id="XMLID_176_"></path>
                            </g>
                        </g>
                        <g id="XMLID_161_" transform="translate(42.038961, 0.000000)" fill="#000000">
                            <path d="M98.8454545,6.7027027 C99.061039,6.7027027 100.354545,6.7027027 100.785714,6.7027027 C97.8753247,10.0540541 92.1623377,17.4054054 90.1142857,20.3243243 C89.8987013,20.3243243 88.4974026,20.3243243 88.174026,20.3243243 L88.3896104,20.1081081 C90.3298701,17.8378378 96.6896104,9.72972973 98.8454545,6.7027027 Z" id="XMLID_174_"></path>
                            <path d="M35.5714286,6.7027027 C35.787013,6.7027027 37.0805195,6.7027027 37.5116883,6.7027027 C34.6012987,10.0540541 28.8883117,17.4054054 26.8402597,20.3243243 C26.6246753,20.3243243 25.2233766,20.3243243 24.9,20.3243243 L25.1155844,20.1081081 C27.0558442,17.8378378 33.4155844,9.72972973 35.5714286,6.7027027 Z" id="XMLID_173_"></path>
                            <path d="M88.2818182,6.7027027 C88.712987,6.7027027 90.6532468,6.7027027 91.0844156,6.7027027 C93.1324675,9.62162162 98.1987013,16.972973 101.001299,20.3243243 C100.354545,20.3243243 98.3064935,20.3243243 98.1987013,20.3243243 C96.9051948,18.3783784 90.4376623,9.51351351 88.2818182,6.7027027 Z" id="XMLID_172_"></path>
                            <path d="M105.636364,20.4324324 C105.312987,20.4324324 103.803896,20.4324324 103.480519,20.4324324 L103.480519,6.7027027 C104.342857,6.7027027 104.774026,6.7027027 105.636364,6.7027027 L105.636364,20.4324324 Z M104.558442,3.45945946 C103.803896,3.45945946 103.264935,2.81081081 103.264935,2.05405405 C103.264935,1.2972973 103.803896,0.756756757 104.558442,0.756756757 C105.205195,0.756756757 105.851948,1.2972973 105.851948,2.05405405 C105.851948,2.81081081 105.312987,3.45945946 104.558442,3.45945946 Z" id="XMLID_171_"></path>
                            <path d="M109.516883,17.6216216 C110.163636,18.7027027 111.457143,19.6756757 112.858442,19.6756757 C114.583117,19.6756757 115.768831,18.5945946 115.661039,17.0810811 C115.445455,13.0810811 108.87013,15.7837838 108.87013,10.8108108 C108.87013,8.10810811 110.918182,6.59459459 113.505195,6.48648649 C115.014286,6.48648649 116.738961,7.13513514 116.738961,7.13513514 C116.415584,7.78378378 115.984416,9.18918919 115.984416,9.18918919 C115.445455,8.10810811 114.475325,7.24324324 113.397403,7.35135135 C111.996104,7.35135135 110.81039,8.21621622 110.81039,9.72972973 C110.81039,13.4054054 117.816883,11.6756757 117.709091,16.2162162 C117.709091,18.7027027 115.768831,20.8648649 112.535065,20.6486486 C111.025974,20.5405405 108.762338,19.7837838 108.762338,19.6756757 C109.085714,19.027027 109.516883,17.6216216 109.516883,17.6216216 Z" id="XMLID_170_"></path>
                            <path d="M77.5025974,12.6486486 C77.6103896,10.2702703 78.7961039,7.67567568 81.4909091,7.67567568 C84.2935065,7.67567568 85.0480519,10.1621622 85.0480519,12.6486486 L77.5025974,12.6486486 Z M87.3116883,13.8378378 C87.5272727,9.08108108 84.7246753,6.81081081 81.5987013,6.81081081 C77.3948052,6.81081081 75.1311688,9.83783784 75.1311688,13.8378378 C75.1311688,18.2702703 77.9337662,20.8648649 81.8142857,20.8648649 C83.538961,20.8648649 85.3714286,20.2162162 86.7727273,19.1351351 L86.7727273,17.7297297 C86.0181818,18.4864865 84.5090909,19.6756757 82.5688312,19.6756757 C79.1194805,19.6756757 77.3948052,17.0810811 77.7181818,13.8378378 L87.3116883,13.8378378 L87.3116883,13.8378378 Z" id="XMLID_169_"></path>
                            <path d="M25.0077922,6.7027027 C25.438961,6.7027027 27.3792208,6.7027027 27.8103896,6.7027027 C29.8584416,9.62162162 34.9246753,16.972973 37.7272727,20.3243243 C37.0805195,20.3243243 35.0324675,20.3243243 34.9246753,20.3243243 C33.738961,18.3783784 27.1636364,9.51351351 25.0077922,6.7027027 Z" id="XMLID_168_"></path>
                            <path d="M42.3623377,20.4324324 C42.038961,20.4324324 40.5298701,20.4324324 40.2064935,20.4324324 L40.2064935,6.7027027 C41.0688312,6.7027027 41.5,6.7027027 42.3623377,6.7027027 L42.3623377,20.4324324 Z M41.2844156,3.45945946 C40.5298701,3.45945946 39.9909091,2.81081081 39.9909091,2.05405405 C39.9909091,1.2972973 40.5298701,0.756756757 41.2844156,0.756756757 C41.9311688,0.756756757 42.5779221,1.2972973 42.5779221,2.05405405 C42.6857143,2.81081081 42.038961,3.45945946 41.2844156,3.45945946 Z" id="XMLID_167_"></path>
                            <path d="M46.3506494,17.6216216 C46.9974026,18.7027027 48.2909091,19.6756757 49.6922078,19.6756757 C51.4168831,19.6756757 52.6025974,18.5945946 52.4948052,17.0810811 C52.2792208,13.0810811 45.7038961,15.7837838 45.7038961,10.8108108 C45.7038961,8.10810811 47.7519481,6.59459459 50.338961,6.48648649 C51.8480519,6.48648649 53.5727273,7.13513514 53.5727273,7.13513514 C53.2493506,7.78378378 52.8181818,9.18918919 52.8181818,9.18918919 C52.2792208,8.10810811 51.3090909,7.24324324 50.2311688,7.35135135 C48.8298701,7.35135135 47.6441558,8.21621622 47.6441558,9.72972973 C47.6441558,13.4054054 54.6506494,11.6756757 54.5428571,16.2162162 C54.5428571,18.7027027 52.6025974,20.8648649 49.3688312,20.6486486 C47.8597403,20.5405405 45.5961039,19.7837838 45.5961039,19.6756757 C45.8116883,19.027027 46.3506494,17.6216216 46.3506494,17.6216216 Z" id="XMLID_166_"></path>
                            <path d="M14.3363636,12.6486486 C14.4441558,10.2702703 15.6298701,7.67567568 18.3246753,7.67567568 C21.1272727,7.67567568 21.8818182,10.1621622 21.8818182,12.6486486 L14.3363636,12.6486486 Z M24.1454545,13.8378378 C24.361039,9.08108108 21.5584416,6.81081081 18.4324675,6.81081081 C14.2285714,6.81081081 11.9649351,9.83783784 11.9649351,13.8378378 C11.9649351,18.2702703 14.7675325,20.8648649 18.6480519,20.8648649 C20.3727273,20.8648649 22.2051948,20.2162162 23.6064935,19.1351351 L23.6064935,17.7297297 C22.8519481,18.4864865 21.3428571,19.6756757 19.4025974,19.6756757 C15.9532468,19.6756757 14.2285714,17.0810811 14.5519481,13.8378378 L24.1454545,13.8378378 L24.1454545,13.8378378 Z" id="XMLID_165_"></path>
                            <path d="M3.44935065,18.8108108 C5.28181818,18.8108108 9.7012987,18.8108108 11.3181818,18.4864865 C11.3181818,18.8108108 11.3181818,20 11.3181818,20.3243243 L0.97012987,20.3243243 L0.97012987,0.864864865 C1.29350649,0.864864865 3.01818182,0.864864865 3.44935065,0.864864865 L3.44935065,18.8108108 Z" id="XMLID_164_"></path>
                            <path d="M72.3285714,20.4324324 L71.4662338,20.4324324 C71.1428571,20.1081081 59.0701299,4.97297297 59.0701299,4.97297297 L59.0701299,20.4324324 C58.8545455,20.4324324 58.5311688,20.4324324 58.3155844,20.4324324 C58.1,20.4324324 57.7766234,20.4324324 57.561039,20.4324324 L57.561039,0.864864865 L58.638961,0.864864865 L70.4961039,15.5675676 L70.7116883,15.7837838 L70.7116883,0.864864865 C71.0350649,0.864864865 72.0051948,0.864864865 72.3285714,0.864864865 L72.3285714,20.4324324 Z" id="XMLID_163_"></path>
                            <path d="M119.757143,8.64864865 C119.757143,7.56756757 120.619481,6.7027027 121.697403,6.7027027 C122.775325,6.7027027 123.637662,7.45945946 123.637662,8.64864865 C123.637662,9.83783784 122.775325,10.5945946 121.697403,10.5945946 C120.619481,10.5945946 119.757143,9.72972973 119.757143,8.64864865 Z M121.697403,10.2702703 C122.55974,10.2702703 123.206494,9.62162162 123.206494,8.64864865 C123.206494,7.78378378 122.55974,7.02702703 121.697403,7.02702703 C120.835065,7.02702703 120.188312,7.67567568 120.188312,8.64864865 C120.188312,9.51351351 120.835065,10.2702703 121.697403,10.2702703 Z M121.374026,9.72972973 L121.050649,9.72972973 L121.050649,7.56756757 L121.912987,7.56756757 C122.451948,7.56756757 122.667532,7.78378378 122.667532,8.21621622 C122.667532,8.54054054 122.451948,8.75675676 122.128571,8.75675676 L122.775325,9.72972973 L122.451948,9.72972973 L121.912987,8.75675676 L121.58961,8.75675676 L121.374026,9.72972973 L121.374026,9.72972973 Z M121.697403,8.54054054 C121.912987,8.54054054 122.236364,8.54054054 122.236364,8.21621622 C122.236364,8 122.020779,7.89189189 121.805195,7.89189189 L121.374026,7.89189189 L121.374026,8.54054054 C121.374026,8.54054054 121.697403,8.54054054 121.697403,8.54054054 Z" id="XMLID_162_"></path>
                        </g>
                        <path d="M33.4155844,18.2702703 C33.4155844,27.3513514 26.0857143,34.5945946 17.138961,34.5945946 C8.19220779,34.5945946 0.754545455,27.3513514 0.754545455,18.2702703 C0.754545455,9.18918919 8.08441558,1.94594595 17.0311688,1.94594595 C25.9779221,1.94594595 33.4155844,9.18918919 33.4155844,18.2702703 Z" id="XMLID_160_" fill="url(#radialGradient-1)"></path>
                        <path d="M22.7441558,5.94594595 C22.8519481,5.94594595 26.5168831,5.72972973 26.4090909,5.62162162 C26.4090909,5.51351351 23.8220779,5.62162162 22.7441558,5.62162162 C23.1753247,5.51351351 25.0077922,4.86486486 25.0077922,4.64864865 C25.0077922,4.54054054 21.8818182,5.51351351 21.4506494,5.62162162 C18.6480519,3.35135135 16.061039,2.37837838 13.6896104,2.27027027 C12.3961039,2.48648649 11.2103896,2.91891892 10.0246753,3.45945946 C12.7194805,2.91891892 15.8454545,3.02702703 19.187013,4.97297297 C13.7974026,3.35135135 9.27012987,4.21621622 5.82077922,6.37837838 C3.77272727,8.32432432 2.26363636,10.8108108 1.4012987,13.5135135 C4.31168831,7.56756757 10.5636364,3.67567568 18.8636364,5.51351351 C7.11428571,5.18918919 1.94025974,13.1891892 0.862337662,20.6486486 C1.18571429,23.2432432 2.15584416,25.6216216 3.66493506,27.6756757 C1.07792208,19.2432432 5.06623377,6.81081081 19.0792208,6.05405405 C4.0961039,9.08108108 2.91038961,25.0810811 7.54545455,31.4594595 C8.94675325,32.4324324 10.4558442,33.2972973 12.0727273,33.7297297 C5.28181818,29.0810811 5.82077922,10.5945946 19.6181818,6.48648649 C7.43766234,12.3243243 7.76103896,30.7027027 15.5220779,34.4864865 C16.061039,34.4864865 16.4922078,34.4864865 17.0311688,34.4864865 C18.0012987,34.4864865 18.9714286,34.4864865 20.0493506,34.2702703 C11.9649351,31.4594595 8.40779221,12.5405405 21.1272727,6.37837838 L21.5584416,6.7027027 C23.1753247,7.89189189 26.4090909,11.3513514 26.6246753,11.2432432 C26.8402597,11.1351351 23.8220779,8.10810811 22.6363636,6.91891892 C24.1454545,7.56756757 27.3792208,9.40540541 27.487013,9.2972973 C27.5948052,9.18918919 24.361039,7.24324324 22.6363636,6.37837838 C24.361039,6.59459459 27.487013,7.35135135 27.487013,7.24324324 C27.487013,7.02702703 24.6844156,6.37837838 22.7441558,5.94594595 Z" id="XMLID_159_" fill="url(#radialGradient-2)"></path>
                    </g>
                </g>
                <path d="M203.498,29 L203.498,22.24 L206.306,22.24 C207.242,22.24 208.095667,22.1316667 208.867,21.915 C209.638333,21.6983333 210.301333,21.3733333 210.856,20.94 C211.410667,20.5066667 211.839667,19.9606667 212.143,19.302 C212.446333,18.6433333 212.598,17.8633333 212.598,16.962 C212.598,16.026 212.442,15.2373333 212.13,14.596 C211.818,13.9546667 211.384667,13.439 210.83,13.049 C210.275333,12.659 209.603667,12.3773333 208.815,12.204 C208.026333,12.0306667 207.155333,11.944 206.202,11.944 L206.202,11.944 L201.34,11.944 L201.34,29 L203.498,29 Z M206.046,20.472 L203.498,20.472 L203.498,13.686 L205.942,13.686 C207.432667,13.686 208.555,13.9243333 209.309,14.401 C210.063,14.8776667 210.44,15.7313333 210.44,16.962 C210.44,18.1753333 210.080333,19.0636667 209.361,19.627 C208.641667,20.1903333 207.536667,20.472 206.046,20.472 L206.046,20.472 Z M217.98,29 L217.98,20.888 C218.413333,19.8133333 218.920333,19.0593333 219.501,18.626 C220.081667,18.1926667 220.640667,17.976 221.178,17.976 C221.438,17.976 221.654667,17.9933333 221.828,18.028 C222.001333,18.0626667 222.192,18.1146667 222.4,18.184 L222.4,18.184 L222.816,16.312 C222.417333,16.1386667 221.966667,16.052 221.464,16.052 C220.736,16.052 220.064333,16.286 219.449,16.754 C218.833667,17.222 218.309333,17.8546667 217.876,18.652 L217.876,18.652 L217.798,18.652 L217.616,16.364 L215.848,16.364 L215.848,29 L217.98,29 Z M229.524,29.312 C230.304,29.312 231.045,29.1646667 231.747,28.87 C232.449,28.5753333 233.068667,28.1463333 233.606,27.583 C234.143333,27.0196667 234.572333,26.3263333 234.893,25.503 C235.213667,24.6796667 235.374,23.748 235.374,22.708 C235.374,21.6506667 235.213667,20.7103333 234.893,19.887 C234.572333,19.0636667 234.143333,18.366 233.606,17.794 C233.068667,17.222 232.449,16.7886667 231.747,16.494 C231.045,16.1993333 230.304,16.052 229.524,16.052 C228.744,16.052 228.003,16.1993333 227.301,16.494 C226.599,16.7886667 225.979333,17.222 225.442,17.794 C224.904667,18.366 224.475667,19.0636667 224.155,19.887 C223.834333,20.7103333 223.674,21.6506667 223.674,22.708 C223.674,23.748 223.834333,24.6796667 224.155,25.503 C224.475667,26.3263333 224.904667,27.0196667 225.442,27.583 C225.979333,28.1463333 226.599,28.5753333 227.301,28.87 C228.003,29.1646667 228.744,29.312 229.524,29.312 Z M229.524,27.544 C228.986667,27.544 228.492667,27.427 228.042,27.193 C227.591333,26.959 227.205667,26.6296667 226.885,26.205 C226.564333,25.7803333 226.317333,25.2733333 226.144,24.684 C225.970667,24.0946667 225.884,23.436 225.884,22.708 C225.884,21.98 225.970667,21.317 226.144,20.719 C226.317333,20.121 226.564333,19.6053333 226.885,19.172 C227.205667,18.7386667 227.591333,18.405 228.042,18.171 C228.492667,17.937 228.986667,17.82 229.524,17.82 C230.061333,17.82 230.555333,17.937 231.006,18.171 C231.456667,18.405 231.842333,18.7386667 232.163,19.172 C232.483667,19.6053333 232.730667,20.121 232.904,20.719 C233.077333,21.317 233.164,21.98 233.164,22.708 C233.164,23.436 233.077333,24.0946667 232.904,24.684 C232.730667,25.2733333 232.483667,25.7803333 232.163,26.205 C231.842333,26.6296667 231.456667,26.959 231.006,27.193 C230.555333,27.427 230.061333,27.544 229.524,27.544 Z M243.018,29.312 C243.763333,29.312 244.461,29.1343333 245.111,28.779 C245.761,28.4236667 246.337333,28.0033333 246.84,27.518 L246.84,27.518 L246.918,27.518 L247.1,29 L248.868,29 L248.868,10.488 L246.71,10.488 L246.71,15.35 L246.814,17.508 C246.259333,17.0573333 245.713333,16.702 245.176,16.442 C244.638667,16.182 244.006,16.052 243.278,16.052 C242.55,16.052 241.856667,16.208 241.198,16.52 C240.539333,16.832 239.958667,17.274 239.456,17.846 C238.953333,18.418 238.550333,19.1156667 238.247,19.939 C237.943667,20.7623333 237.792,21.6853333 237.792,22.708 C237.792,24.8226667 238.264333,26.452 239.209,27.596 C240.153667,28.74 241.423333,29.312 243.018,29.312 Z M243.486,27.518 C242.376667,27.518 241.518667,27.0933333 240.912,26.244 C240.305333,25.3946667 240.002,24.2073333 240.002,22.682 C240.002,21.954 240.097333,21.2953333 240.288,20.706 C240.478667,20.1166667 240.738667,19.6096667 241.068,19.185 C241.397333,18.7603333 241.783,18.431 242.225,18.197 C242.667,17.963 243.139333,17.846 243.642,17.846 C244.162,17.846 244.669,17.9456667 245.163,18.145 C245.657,18.3443333 246.172667,18.6866667 246.71,19.172 L246.71,19.172 L246.71,25.776 C246.19,26.3653333 245.67,26.803 245.15,27.089 C244.63,27.375 244.075333,27.518 243.486,27.518 Z M256.824,29.312 C257.708,29.312 258.475,29.104 259.125,28.688 C259.775,28.272 260.394667,27.7173333 260.984,27.024 L260.984,27.024 L261.062,27.024 L261.244,29 L263.012,29 L263.012,16.364 L260.88,16.364 L260.88,25.334 C260.273333,26.0793333 259.718667,26.621 259.216,26.959 C258.713333,27.297 258.132667,27.466 257.474,27.466 C256.642,27.466 256.039667,27.2016667 255.667,26.673 C255.294333,26.1443333 255.108,25.282 255.108,24.086 L255.108,24.086 L255.108,16.364 L252.95,16.364 L252.95,24.372 C252.95,26.0013333 253.257667,27.232 253.873,28.064 C254.488333,28.896 255.472,29.312 256.824,29.312 Z M272.268,29.312 C273.030667,29.312 273.758667,29.169 274.452,28.883 C275.145333,28.597 275.778,28.2026667 276.35,27.7 L276.35,27.7 L275.414,26.27 C275.015333,26.6166667 274.569,26.9156667 274.075,27.167 C273.581,27.4183333 273.039333,27.544 272.45,27.544 C271.878,27.544 271.349333,27.427 270.864,27.193 C270.378667,26.959 269.967,26.6296667 269.629,26.205 C269.291,25.7803333 269.026667,25.2733333 268.836,24.684 C268.645333,24.0946667 268.55,23.436 268.55,22.708 C268.55,21.98 268.649667,21.317 268.849,20.719 C269.048333,20.121 269.321333,19.6053333 269.668,19.172 C270.014667,18.7386667 270.430667,18.405 270.916,18.171 C271.401333,17.937 271.93,17.82 272.502,17.82 C273.004667,17.82 273.459667,17.924 273.867,18.132 C274.274333,18.34 274.66,18.6086667 275.024,18.938 L275.024,18.938 L276.116,17.534 C275.665333,17.1353333 275.145333,16.7886667 274.556,16.494 C273.966667,16.1993333 273.256,16.052 272.424,16.052 C271.609333,16.052 270.833667,16.1993333 270.097,16.494 C269.360333,16.7886667 268.714667,17.222 268.16,17.794 C267.605333,18.366 267.163333,19.0636667 266.834,19.887 C266.504667,20.7103333 266.34,21.6506667 266.34,22.708 C266.34,23.748 266.491667,24.6796667 266.795,25.503 C267.098333,26.3263333 267.514333,27.0196667 268.043,27.583 C268.571667,28.1463333 269.2,28.5753333 269.928,28.87 C270.656,29.1646667 271.436,29.312 272.268,29.312 Z M282.85,29.312 C283.248667,29.312 283.651667,29.2643333 284.059,29.169 C284.466333,29.0736667 284.843333,28.9653333 285.19,28.844 L285.19,28.844 L284.774,27.232 C284.566,27.3186667 284.332,27.3966667 284.072,27.466 C283.812,27.5353333 283.569333,27.57 283.344,27.57 C282.616,27.57 282.109,27.3576667 281.823,26.933 C281.537,26.5083333 281.394,25.906 281.394,25.126 L281.394,25.126 L281.394,18.106 L284.8,18.106 L284.8,16.364 L281.394,16.364 L281.394,12.828 L279.6,12.828 L279.34,16.364 L277.364,16.494 L277.364,18.106 L279.236,18.106 L279.236,25.1 C279.236,25.724 279.296667,26.296 279.418,26.816 C279.539333,27.336 279.743,27.778 280.029,28.142 C280.315,28.506 280.687667,28.792 281.147,29 C281.606333,29.208 282.174,29.312 282.85,29.312 Z M295.122,29.312 C295.416667,29.312 295.659333,29.2946667 295.85,29.26 C296.040667,29.2253333 296.205333,29.1733333 296.344,29.104 L296.344,29.104 L296.058,27.492 C295.936667,27.5266667 295.845667,27.544 295.785,27.544 L295.785,27.544 L295.59,27.544 C295.434,27.544 295.295333,27.4746667 295.174,27.336 C295.052667,27.1973333 294.992,26.9546667 294.992,26.608 L294.992,26.608 L294.992,10.488 L292.86,10.488 L292.86,26.452 C292.86,27.388 293.033333,28.0986667 293.38,28.584 C293.726667,29.0693333 294.307333,29.312 295.122,29.312 Z M304.404,29.312 C305.184,29.312 305.925,29.1646667 306.627,28.87 C307.329,28.5753333 307.948667,28.1463333 308.486,27.583 C309.023333,27.0196667 309.452333,26.3263333 309.773,25.503 C310.093667,24.6796667 310.254,23.748 310.254,22.708 C310.254,21.6506667 310.093667,20.7103333 309.773,19.887 C309.452333,19.0636667 309.023333,18.366 308.486,17.794 C307.948667,17.222 307.329,16.7886667 306.627,16.494 C305.925,16.1993333 305.184,16.052 304.404,16.052 C303.624,16.052 302.883,16.1993333 302.181,16.494 C301.479,16.7886667 300.859333,17.222 300.322,17.794 C299.784667,18.366 299.355667,19.0636667 299.035,19.887 C298.714333,20.7103333 298.554,21.6506667 298.554,22.708 C298.554,23.748 298.714333,24.6796667 299.035,25.503 C299.355667,26.3263333 299.784667,27.0196667 300.322,27.583 C300.859333,28.1463333 301.479,28.5753333 302.181,28.87 C302.883,29.1646667 303.624,29.312 304.404,29.312 Z M304.404,27.544 C303.866667,27.544 303.372667,27.427 302.922,27.193 C302.471333,26.959 302.085667,26.6296667 301.765,26.205 C301.444333,25.7803333 301.197333,25.2733333 301.024,24.684 C300.850667,24.0946667 300.764,23.436 300.764,22.708 C300.764,21.98 300.850667,21.317 301.024,20.719 C301.197333,20.121 301.444333,19.6053333 301.765,19.172 C302.085667,18.7386667 302.471333,18.405 302.922,18.171 C303.372667,17.937 303.866667,17.82 304.404,17.82 C304.941333,17.82 305.435333,17.937 305.886,18.171 C306.336667,18.405 306.722333,18.7386667 307.043,19.172 C307.363667,19.6053333 307.610667,20.121 307.784,20.719 C307.957333,21.317 308.044,21.98 308.044,22.708 C308.044,23.436 307.957333,24.0946667 307.784,24.684 C307.610667,25.2733333 307.363667,25.7803333 307.043,26.205 C306.722333,26.6296667 306.336667,26.959 305.886,27.193 C305.435333,27.427 304.941333,27.544 304.404,27.544 Z M317.846,34.824 C318.834,34.824 319.722333,34.707 320.511,34.473 C321.299667,34.239 321.971333,33.9226667 322.526,33.524 C323.080667,33.1253333 323.505333,32.6616667 323.8,32.133 C324.094667,31.6043333 324.242,31.0453333 324.242,30.456 C324.242,29.3986667 323.873667,28.6316667 323.137,28.155 C322.400333,27.6783333 321.295333,27.44 319.822,27.44 L319.822,27.44 L317.378,27.44 C316.511333,27.44 315.922,27.31 315.61,27.05 C315.298,26.79 315.142,26.4606667 315.142,26.062 C315.142,25.7153333 315.22,25.425 315.376,25.191 C315.532,24.957 315.722667,24.7446667 315.948,24.554 C316.242667,24.6926667 316.554667,24.801 316.884,24.879 C317.213333,24.957 317.534,24.996 317.846,24.996 C318.487333,24.996 319.089667,24.892 319.653,24.684 C320.216333,24.476 320.706,24.1856667 321.122,23.813 C321.538,23.4403333 321.867333,22.981 322.11,22.435 C322.352667,21.889 322.474,21.278 322.474,20.602 C322.474,20.0646667 322.374333,19.5706667 322.175,19.12 C321.975667,18.6693333 321.728667,18.2966667 321.434,18.002 L321.434,18.002 L324.034,18.002 L324.034,16.364 L319.64,16.364 C319.397333,16.2773333 319.124333,16.2036667 318.821,16.143 C318.517667,16.0823333 318.192667,16.052 317.846,16.052 C317.204667,16.052 316.593667,16.156 316.013,16.364 C315.432333,16.572 314.925333,16.871 314.492,17.261 C314.058667,17.651 313.716333,18.1233333 313.465,18.678 C313.213667,19.2326667 313.088,19.8566667 313.088,20.55 C313.088,21.3126667 313.257,21.9843333 313.595,22.565 C313.933,23.1456667 314.31,23.6093333 314.726,23.956 L314.726,23.956 L314.726,24.06 C314.396667,24.2853333 314.084667,24.5973333 313.79,24.996 C313.495333,25.3946667 313.348,25.8626667 313.348,26.4 C313.348,26.9026667 313.456333,27.323 313.673,27.661 C313.889667,27.999 314.154,28.2633333 314.466,28.454 L314.466,28.454 L314.466,28.558 C313.894,28.9566667 313.443333,29.3986667 313.114,29.884 C312.784667,30.3693333 312.62,30.8806667 312.62,31.418 C312.62,31.9726667 312.745667,32.458 312.997,32.874 C313.248333,33.29 313.603667,33.6453333 314.063,33.94 C314.522333,34.2346667 315.072667,34.4556667 315.714,34.603 C316.355333,34.7503333 317.066,34.824 317.846,34.824 Z M317.846,23.566 C317.482,23.566 317.139667,23.4966667 316.819,23.358 C316.498333,23.2193333 316.212333,23.02 315.961,22.76 C315.709667,22.5 315.514667,22.1836667 315.376,21.811 C315.237333,21.4383333 315.168,21.018 315.168,20.55 C315.168,19.614 315.428,18.8903333 315.948,18.379 C316.468,17.8676667 317.100667,17.612 317.846,17.612 C318.591333,17.612 319.224,17.8676667 319.744,18.379 C320.264,18.8903333 320.524,19.614 320.524,20.55 C320.524,21.018 320.454667,21.4383333 320.316,21.811 C320.177333,22.1836667 319.982333,22.5 319.731,22.76 C319.479667,23.02 319.193667,23.2193333 318.873,23.358 C318.552333,23.4966667 318.21,23.566 317.846,23.566 Z M318.158,33.342 C317.014,33.342 316.117,33.1426667 315.467,32.744 C314.817,32.3453333 314.492,31.808 314.492,31.132 C314.492,30.768 314.596,30.404 314.804,30.04 C315.012,29.676 315.341333,29.3293333 315.792,29 C316.069333,29.0866667 316.351,29.143 316.637,29.169 C316.923,29.195 317.187333,29.208 317.43,29.208 L317.43,29.208 L319.614,29.208 C320.446,29.208 321.078667,29.3206667 321.512,29.546 C321.945333,29.7713333 322.162,30.1786667 322.162,30.768 C322.162,31.0973333 322.066667,31.418 321.876,31.73 C321.685333,32.042 321.416667,32.315 321.07,32.549 C320.723333,32.783 320.303,32.9736667 319.809,33.121 C319.315,33.2683333 318.764667,33.342 318.158,33.342 Z M331.236,29.312 C332.016,29.312 332.757,29.1646667 333.459,28.87 C334.161,28.5753333 334.780667,28.1463333 335.318,27.583 C335.855333,27.0196667 336.284333,26.3263333 336.605,25.503 C336.925667,24.6796667 337.086,23.748 337.086,22.708 C337.086,21.6506667 336.925667,20.7103333 336.605,19.887 C336.284333,19.0636667 335.855333,18.366 335.318,17.794 C334.780667,17.222 334.161,16.7886667 333.459,16.494 C332.757,16.1993333 332.016,16.052 331.236,16.052 C330.456,16.052 329.715,16.1993333 329.013,16.494 C328.311,16.7886667 327.691333,17.222 327.154,17.794 C326.616667,18.366 326.187667,19.0636667 325.867,19.887 C325.546333,20.7103333 325.386,21.6506667 325.386,22.708 C325.386,23.748 325.546333,24.6796667 325.867,25.503 C326.187667,26.3263333 326.616667,27.0196667 327.154,27.583 C327.691333,28.1463333 328.311,28.5753333 329.013,28.87 C329.715,29.1646667 330.456,29.312 331.236,29.312 Z M331.236,27.544 C330.698667,27.544 330.204667,27.427 329.754,27.193 C329.303333,26.959 328.917667,26.6296667 328.597,26.205 C328.276333,25.7803333 328.029333,25.2733333 327.856,24.684 C327.682667,24.0946667 327.596,23.436 327.596,22.708 C327.596,21.98 327.682667,21.317 327.856,20.719 C328.029333,20.121 328.276333,19.6053333 328.597,19.172 C328.917667,18.7386667 329.303333,18.405 329.754,18.171 C330.204667,17.937 330.698667,17.82 331.236,17.82 C331.773333,17.82 332.267333,17.937 332.718,18.171 C333.168667,18.405 333.554333,18.7386667 333.875,19.172 C334.195667,19.6053333 334.442667,20.121 334.616,20.719 C334.789333,21.317 334.876,21.98 334.876,22.708 C334.876,23.436 334.789333,24.0946667 334.616,24.684 C334.442667,25.2733333 334.195667,25.7803333 333.875,26.205 C333.554333,26.6296667 333.168667,26.959 332.718,27.193 C332.267333,27.427 331.773333,27.544 331.236,27.544 Z" id="Productlogo" fill="#EC1C24"></path>
            </g>
        </g>
    </g>
</svg>