<?xml version="1.0" encoding="UTF-8"?>
<svg width="125px" height="19px" viewBox="0 0 125 19" version="1.1" xmlns="http://www.w3.org/2000/svg" xmlns:xlink="http://www.w3.org/1999/xlink">
    <!-- Generator: Sketch 57.1 (83088) - https://sketch.com -->
    <title>Group</title>
    <desc>Created with Sketch.</desc>
    <g id="Page-1" stroke="none" stroke-width="1" fill="none" fill-rule="evenodd">
        <g id="Group" transform="translate(0.600000, 0.720000)">
            <path d="M1.42108547e-14,3.94 L2.7,3.94 L2.7,5.86 L2.74,5.86 C2.873334,5.5399984 3.0533322,5.2433347 3.28,4.97 C3.5066678,4.6966653 3.7666652,4.4633343 4.06,4.27 C4.3533348,4.0766657 4.666665,3.9266672 5,3.82 C5.333335,3.7133328 5.6799982,3.66 6.04,3.66 C6.2266676,3.66 6.4333322,3.693333 6.66,3.76 L6.66,6.4 C6.526666,6.3733332 6.3666676,6.3500001 6.18,6.33 C5.9933324,6.3099999 5.8133342,6.3 5.64,6.3 C5.1199974,6.3 4.6800018,6.3866658 4.32,6.56 C3.9599982,6.7333342 3.6700011,6.9699985 3.45,7.27 C3.2299989,7.5700015 3.0733338,7.919998 2.98,8.32 C2.8866662,8.720002 2.84,9.153331 2.84,9.62 L2.84,14.28 L1.42108547e-14,14.28 L1.42108547e-14,3.94 Z M7.78,0 L10.62,0 L10.62,5.38 L10.68,5.38 C11.0400018,4.779997 11.4999972,4.3433347 12.06,4.07 C12.6200028,3.7966653 13.166664,3.66 13.7,3.66 C14.4600038,3.66 15.0833309,3.7633323 15.57,3.97 C16.0566691,4.1766677 16.4399986,4.4633315 16.72,4.83 C17.0000014,5.1966685 17.1966661,5.6433307 17.31,6.17 C17.4233339,6.6966693 17.48,7.2799968 17.48,7.92 L17.48,14.28 L14.64,14.28 L14.64,8.44 C14.64,7.5866624 14.506668,6.9500021 14.24,6.53 C13.973332,6.1099979 13.5000034,5.9 12.82,5.9 C12.0466628,5.9 11.4866684,6.1299977 11.14,6.59 C10.7933316,7.0500023 10.62,7.8066614 10.62,8.86 L10.62,14.28 L7.78,14.28 L7.78,0 Z M22.16,9.12 C22.16,9.5333354 22.1999996,9.9366647 22.28,10.33 C22.3600004,10.7233353 22.4966657,11.0766651 22.69,11.39 C22.8833343,11.7033349 23.1399984,11.9533324 23.46,12.14 C23.7800016,12.3266676 24.1799976,12.42 24.66,12.42 C25.1400024,12.42 25.5433317,12.3266676 25.87,12.14 C26.1966683,11.9533324 26.4566657,11.7033349 26.65,11.39 C26.8433343,11.0766651 26.9799996,10.7233353 27.06,10.33 C27.1400004,9.9366647 27.18,9.5333354 27.18,9.12 C27.18,8.7066646 27.1400004,8.3 27.06,7.9 C26.9799996,7.499998 26.8433343,7.1466682 26.65,6.84 C26.4566657,6.5333318 26.1966683,6.2833343 25.87,6.09 C25.5433317,5.8966657 25.1400024,5.8 24.66,5.8 C24.1799976,5.8 23.7800016,5.8966657 23.46,6.09 C23.1399984,6.2833343 22.8833343,6.5333318 22.69,6.84 C22.4966657,7.1466682 22.3600004,7.499998 22.28,7.9 C22.1999996,8.3 22.16,8.7066646 22.16,9.12 Z M19.32,9.12 C19.32,8.2933292 19.4466654,7.5433367 19.7,6.87 C19.9533346,6.1966633 20.313331,5.6233357 20.78,5.15 C21.246669,4.6766643 21.8066634,4.3100013 22.46,4.05 C23.1133366,3.7899987 23.8466626,3.66 24.66,3.66 C25.4733374,3.66 26.2099967,3.7899987 26.87,4.05 C27.5300033,4.3100013 28.093331,4.6766643 28.56,5.15 C29.026669,5.6233357 29.3866654,6.1966633 29.64,6.87 C29.8933346,7.5433367 30.02,8.2933292 30.02,9.12 C30.02,9.9466708 29.8933346,10.69333 29.64,11.36 C29.3866654,12.02667 29.026669,12.5966643 28.56,13.07 C28.093331,13.5433357 27.5300033,13.9066654 26.87,14.16 C26.2099967,14.4133346 25.4733374,14.54 24.66,14.54 C23.8466626,14.54 23.1133366,14.4133346 22.46,14.16 C21.8066634,13.9066654 21.246669,13.5433357 20.78,13.07 C20.313331,12.5966643 19.9533346,12.02667 19.7,11.36 C19.4466654,10.69333 19.32,9.9466708 19.32,9.12 Z M39.2,9.08 C39.2,8.6533312 39.1600004,8.2433353 39.08,7.85 C38.9999996,7.4566647 38.8633343,7.1100015 38.67,6.81 C38.4766657,6.5099985 38.2266682,6.2666676 37.92,6.08 C37.6133318,5.8933324 37.226669,5.8 36.76,5.8 C36.293331,5.8 35.9000016,5.8933324 35.58,6.08 C35.26,6.2666676 35.0033343,6.5133318 34.81,6.82 C34.6166657,7.1266682 34.4766671,7.4766647 34.39,7.87 C34.3033329,8.2633353 34.26,8.6733312 34.26,9.1 C34.26,9.500002 34.3066662,9.899998 34.4,10.3 C34.4933338,10.700002 34.6433323,11.0566651 34.85,11.37 C35.0566677,11.6833349 35.3166651,11.9366657 35.63,12.13 C35.9433349,12.3233343 36.3199978,12.42 36.76,12.42 C37.226669,12.42 37.6166651,12.3266676 37.93,12.14 C38.2433349,11.9533324 38.4933324,11.7033349 38.68,11.39 C38.8666676,11.0766651 38.9999996,10.720002 39.08,10.32 C39.1600004,9.919998 39.2,9.5066688 39.2,9.08 Z M39.24,12.96 L39.2,12.96 C38.866665,13.5200028 38.4300027,13.9233321 37.89,14.17 C37.3499973,14.4166679 36.7400034,14.54 36.06,14.54 C35.2866628,14.54 34.6066696,14.3900015 34.02,14.09 C33.4333304,13.7899985 32.9500019,13.3833359 32.57,12.87 C32.1899981,12.3566641 31.9033343,11.76667 31.71,11.1 C31.5166657,10.43333 31.42,9.7400036 31.42,9.02 C31.42,8.3266632 31.5166657,7.6566699 31.71,7.01 C31.9033343,6.3633301 32.1899981,5.7933358 32.57,5.3 C32.9500019,4.8066642 33.4266638,4.4100015 34,4.11 C34.5733362,3.8099985 35.2399962,3.66 36,3.66 C36.6133364,3.66 37.1966639,3.7899987 37.75,4.05 C38.3033361,4.3100013 38.7399984,4.6933308 39.06,5.2 L39.1,5.2 L39.1,0 L41.94,0 L41.94,14.28 L39.24,14.28 L39.24,12.96 Z M44.08,3.94 L46.78,3.94 L46.78,5.86 L46.82,5.86 C46.953334,5.5399984 47.1333322,5.2433347 47.36,4.97 C47.5866678,4.6966653 47.8466652,4.4633343 48.14,4.27 C48.4333348,4.0766657 48.746665,3.9266672 49.08,3.82 C49.413335,3.7133328 49.7599982,3.66 50.12,3.66 C50.3066676,3.66 50.5133322,3.693333 50.74,3.76 L50.74,6.4 C50.606666,6.3733332 50.4466676,6.3500001 50.26,6.33 C50.0733324,6.3099999 49.8933342,6.3 49.72,6.3 C49.1999974,6.3 48.7600018,6.3866658 48.4,6.56 C48.0399982,6.7333342 47.7500011,6.9699985 47.53,7.27 C47.3099989,7.5700015 47.1533338,7.919998 47.06,8.32 C46.9666662,8.720002 46.92,9.153331 46.92,9.62 L46.92,14.28 L44.08,14.28 L44.08,3.94 Z M54.78,2.34 L51.94,2.34 L51.94,0 L54.78,0 L54.78,2.34 Z M51.94,3.94 L54.78,3.94 L54.78,14.28 L51.94,14.28 L51.94,3.94 Z M61.84,11.84 C62.240002,11.84 62.5933318,11.7600008 62.9,11.6 C63.2066682,11.4399992 63.459999,11.226668 63.66,10.96 C63.860001,10.693332 64.0099995,10.3900017 64.11,10.05 C64.2100005,9.7099983 64.26,9.3533352 64.26,8.98 C64.26,8.5533312 64.2200004,8.1500019 64.14,7.77 C64.0599996,7.3899981 63.9266676,7.0533348 63.74,6.76 C63.5533324,6.4666652 63.3066682,6.2333342 63,6.06 C62.6933318,5.8866658 62.306669,5.8 61.84,5.8 C61.439998,5.8 61.0966681,5.8799992 60.81,6.04 C60.5233319,6.2000008 60.2833343,6.4166653 60.09,6.69 C59.8966657,6.9633347 59.7566671,7.2766649 59.67,7.63 C59.5833329,7.9833351 59.54,8.3533314 59.54,8.74 C59.54,9.1133352 59.5766663,9.4833315 59.65,9.85 C59.7233337,10.2166685 59.8499991,10.5466652 60.03,10.84 C60.2100009,11.1333348 60.4466652,11.3733324 60.74,11.56 C61.0333348,11.7466676 61.3999978,11.84 61.84,11.84 Z M66.96,13.62 C66.96,14.0333354 66.9033339,14.506664 66.79,15.04 C66.6766661,15.573336 66.4333352,16.0699977 66.06,16.53 C65.6866648,16.9900023 65.1466702,17.3799984 64.44,17.7 C63.7333298,18.0200016 62.7866726,18.18 61.6,18.18 C61.0933308,18.18 60.5766693,18.1166673 60.05,17.99 C59.5233307,17.8633327 59.0433355,17.666668 58.61,17.4 C58.1766645,17.133332 57.8166681,16.7900021 57.53,16.37 C57.2433319,15.9499979 57.0800002,15.4466696 57.04,14.86 L59.86,14.86 C59.993334,15.393336 60.2533314,15.7633323 60.64,15.97 C61.0266686,16.1766677 61.4733308,16.28 61.98,16.28 C62.780004,16.28 63.3633315,16.0400024 63.73,15.56 C64.0966685,15.0799976 64.2733334,14.473337 64.26,13.74 L64.26,12.38 L64.22,12.38 C63.9133318,12.9266694 63.4766695,13.3299987 62.91,13.59 C62.3433305,13.8500013 61.7466698,13.98 61.12,13.98 C60.3466628,13.98 59.6800028,13.8433347 59.12,13.57 C58.5599972,13.2966653 58.1000018,12.9233357 57.74,12.45 C57.3799982,11.9766643 57.1166675,11.4233365 56.95,10.79 C56.7833325,10.1566635 56.7,9.4866702 56.7,8.78 C56.7,8.11333 56.7966657,7.4700031 56.99,6.85 C57.1833343,6.2299969 57.4666648,5.6833357 57.84,5.21 C58.2133352,4.7366643 58.6766639,4.3600014 59.23,4.08 C59.7833361,3.7999986 60.4199964,3.66 61.14,3.66 C61.8200034,3.66 62.4166641,3.7866654 62.93,4.04 C63.4433359,4.2933346 63.8733316,4.719997 64.22,5.32 L64.26,5.32 L64.26,3.94 L66.96,3.94 L66.96,13.62 Z M69.24,3.94 L71.94,3.94 L71.94,5.86 L71.98,5.86 C72.113334,5.5399984 72.2933322,5.2433347 72.52,4.97 C72.7466678,4.6966653 73.0066652,4.4633343 73.3,4.27 C73.5933348,4.0766657 73.906665,3.9266672 74.24,3.82 C74.573335,3.7133328 74.9199982,3.66 75.28,3.66 C75.4666676,3.66 75.6733322,3.693333 75.9,3.76 L75.9,6.4 C75.766666,6.3733332 75.6066676,6.3500001 75.42,6.33 C75.2333324,6.3099999 75.0533342,6.3 74.88,6.3 C74.3599974,6.3 73.9200018,6.3866658 73.56,6.56 C73.1999982,6.7333342 72.9100011,6.9699985 72.69,7.27 C72.4699989,7.5700015 72.3133338,7.919998 72.22,8.32 C72.1266662,8.720002 72.08,9.153331 72.08,9.62 L72.08,14.28 L69.24,14.28 L69.24,3.94 Z M79.94,2.34 L77.1,2.34 L77.1,0 L79.94,0 L79.94,2.34 Z M77.1,3.94 L79.94,3.94 L79.94,14.28 L77.1,14.28 L77.1,3.94 Z M88.86,5.84 L85.64,5.84 L85.64,14.28 L82.8,14.28 L82.8,5.84 L81.1,5.84 L81.1,3.94 L82.8,3.94 L82.8,3.14 C82.8,2.2199954 83.0866638,1.4666696 83.66,0.88 C84.2333362,0.2933304 85.1,0 86.26,0 C86.5133346,0 86.7666654,0.0099999 87.02,0.03 C87.2733346,0.0500001 87.5199988,0.0666666 87.76,0.08 L87.76,2.2 C87.4133316,2.1599998 87.0666684,2.14 86.72,2.14 C86.3333314,2.14 86.0566675,2.2299991 85.89,2.41 C85.7233325,2.5900009 85.64,2.8933312 85.64,3.32 L85.64,3.94 L88.86,3.94 L88.86,3.14 C88.86,2.2199954 89.1466638,1.4666696 89.72,0.88 C90.2933362,0.2933304 91.1599942,0 92.32,0 C92.5733346,0 92.8266654,0.0099999 93.08,0.03 C93.3333346,0.0500001 93.5799988,0.0666666 93.82,0.08 L93.82,2.2 C93.4733316,2.1599998 93.1266684,2.14 92.78,2.14 C92.3933314,2.14 92.1166675,2.2299991 91.95,2.41 C91.7833325,2.5900009 91.7,2.8933312 91.7,3.32 L91.7,3.94 L93.66,3.94 L93.66,5.84 L91.7,5.84 L91.7,14.28 L88.86,14.28 L88.86,5.84 Z M97.82,2.34 L94.98,2.34 L94.98,0 L97.82,0 L97.82,2.34 Z M94.98,3.94 L97.82,3.94 L97.82,14.28 L94.98,14.28 L94.98,3.94 Z M103.66,3.94 L105.74,3.94 L105.74,5.84 L103.66,5.84 L103.66,10.96 C103.66,11.4400024 103.739999,11.7599992 103.9,11.92 C104.060001,12.0800008 104.379998,12.16 104.86,12.16 C105.020001,12.16 105.173333,12.1533334 105.32,12.14 C105.466667,12.1266666 105.606666,12.1066668 105.74,12.08 L105.74,14.28 C105.499999,14.3200002 105.233335,14.3466666 104.94,14.36 C104.646665,14.3733334 104.360001,14.38 104.08,14.38 C103.639998,14.38 103.223335,14.3500003 102.83,14.29 C102.436665,14.2299997 102.090002,14.1133342 101.79,13.94 C101.489998,13.7666658 101.253334,13.5200016 101.08,13.2 C100.906666,12.8799984 100.82,12.4600026 100.82,11.94 L100.82,5.84 L99.1,5.84 L99.1,3.94 L100.82,3.94 L100.82,0.84 L103.66,0.84 L103.66,3.94 Z M107.1,0 L109.94,0 L109.94,5.38 L110,5.38 C110.360002,4.779997 110.819997,4.3433347 111.38,4.07 C111.940003,3.7966653 112.486664,3.66 113.02,3.66 C113.780004,3.66 114.403331,3.7633323 114.89,3.97 C115.376669,4.1766677 115.759999,4.4633315 116.04,4.83 C116.320001,5.1966685 116.516666,5.6433307 116.63,6.17 C116.743334,6.6966693 116.8,7.2799968 116.8,7.92 L116.8,14.28 L113.96,14.28 L113.96,8.44 C113.96,7.5866624 113.826668,6.9500021 113.56,6.53 C113.293332,6.1099979 112.820003,5.9 112.14,5.9 C111.366663,5.9 110.806668,6.1299977 110.46,6.59 C110.113332,7.0500023 109.94,7.8066614 109.94,8.86 L109.94,14.28 L107.1,14.28 L107.1,0 Z" id="rhodrigrifth" fill="#222222" fill-rule="nonzero"></path>
            <rect id="Rectangle" fill="#16A0D6" x="120.4" y="10.28" width="4" height="4"></rect>
        </g>
    </g>
</svg>