<?xml version="1.0" encoding="utf-8"?>
<!-- Generator: Adobe Illustrator 25.2.3, SVG Export Plug-In . SVG Version: 6.00 Build 0)  -->
<svg version="1.1" id="Layer_1" xmlns="http://www.w3.org/2000/svg" xmlns:xlink="http://www.w3.org/1999/xlink" x="0px" y="0px"
	 viewBox="0 0 332.2 100" style="enable-background:new 0 0 332.2 100;" xml:space="preserve">
<style type="text/css">
	.st0{fill:#FFFFFF;}
</style>
<path class="st0" d="M275.5,21.3c0.5,0,2.9,0,3.7,0c-5.4,6.3-16.2,20-20.2,25.5c-0.4,0-3.1,0-3.7,0l0.5-0.5
	C259.5,41.9,271.4,27,275.5,21.3"/>
<path class="st0" d="M157,21.3c0.5,0,2.9,0,3.7,0c-5.4,6.3-16.2,20-20.1,25.5c-0.4,0-3.1,0-3.7,0l0.5-0.5
	C141,41.9,152.9,27,157,21.3"/>
<path class="st0" d="M255.7,21.3c0.9,0.1,4.5,0,5.1,0c3.8,5.4,13.4,19.1,18.6,25.5c-1.3-0.1-5,0-5.2,0
	C271.9,43,259.7,26.5,255.7,21.3"/>
<path class="st0" d="M288.2,46.8c-0.6,0-3.4,0-4,0V21.2c1.3,0.1,2.7,0.1,4,0V46.8z M286.2,15.2c-1.4-0.1-2.5-1.3-2.5-2.7
	c0-1.4,1.1-2.5,2.5-2.5c1.4,0,2.5,1.1,2.5,2.5C288.7,13.9,287.6,15.1,286.2,15.2"/>
<path class="st0" d="M295.6,41.7c1.3,2,3.7,3.9,6.2,3.9c3.4,0,5.4-2.1,5.2-4.9c-0.4-7.4-12.7-2.4-12.8-11.7c-0.1-5.1,3.8-7.9,8.6-8
	c2.1,0.1,4.1,0.5,6,1.3c-0.6,1.4-1.4,3.9-1.5,3.9c-1-2-2.9-3.6-4.8-3.5c-2.7,0-4.8,1.6-4.8,4.5c0.1,6.8,13.1,3.6,12.9,12.1
	c-0.1,4.6-3.6,8.6-9.6,8.2c-2.4-0.3-4.8-0.9-7-1.8C294.7,44.3,295.6,41.6,295.6,41.7"/>
<path class="st0" d="M235.6,32.4c0.3-4.5,2.5-9.3,7.5-9.3c5.3,0,6.6,4.6,6.7,9.3H235.6z M253.9,34.5c0.5-8.9-4.9-13.1-10.8-13.1
	c-7.9,0-12.2,5.7-12.2,13.1c0,8.3,5.2,13.1,12.6,13.1c3.3-0.1,6.5-1.2,9.2-3.2v-2.7c-1.4,1.4-4.3,3.7-7.9,3.7
	c-6.4,0-9.6-4.9-9.1-10.9L253.9,34.5z"/>
<path class="st0" d="M137.2,21.3c0.9,0.1,4.6,0,5.1,0c3.8,5.4,13.4,19.1,18.6,25.5c-1.3-0.1-5,0-5.2,0
	C153.4,43,141.2,26.5,137.2,21.3"/>
<path class="st0" d="M169.7,46.8c-0.6,0-3.4,0-4,0V21.2c1.3,0.1,2.7,0.1,4,0V46.8z M167.7,15.2c-1.4-0.1-2.5-1.3-2.5-2.7
	c-0.1-1.4,0.9-2.6,2.3-2.7c1.4-0.1,2.6,0.9,2.7,2.3c0,0.1,0,0.3,0,0.4C170.2,13.9,169.1,15.1,167.7,15.2"/>
<path class="st0" d="M177.1,41.7c1.3,2,3.7,3.9,6.2,3.9c3.4,0,5.4-2.1,5.2-4.9c-0.4-7.4-12.7-2.4-12.8-11.7c-0.1-5.1,3.8-7.9,8.6-8
	c2.1,0.1,4.1,0.5,6.1,1.3c-0.6,1.4-1.4,3.9-1.4,3.9c-1-2-2.9-3.6-4.9-3.5c-2.7,0-4.8,1.6-4.8,4.5c0.1,6.8,13.1,3.6,12.9,12.1
	c-0.1,4.6-3.6,8.6-9.6,8.2c-2.4-0.3-4.8-0.9-7-1.8C176.3,44.3,177.2,41.6,177.1,41.7"/>
<path class="st0" d="M117.1,32.4c0.3-4.5,2.5-9.3,7.5-9.3c5.3,0,6.6,4.6,6.7,9.3H117.1z M135.4,34.5c0.5-8.9-4.9-13.1-10.8-13.1
	c-7.9,0-12.2,5.7-12.2,13.1c0,8.3,5.2,13.1,12.6,13.1c3.3-0.1,6.5-1.2,9.2-3.2v-2.7c-1.4,1.4-4.3,3.7-7.9,3.7
	c-6.4,0-9.6-4.9-9.2-10.9L135.4,34.5z"/>
<path class="st0" d="M96.7,43.9c4.9,0.1,9.8-0.1,14.7-0.6c0,0.7,0,2.8,0,3.4H91.9V10.3c0.8,0.1,3.8,0.1,4.7,0L96.7,43.9z"/>
<path class="st0" d="M225.9,46.8h-1.6c-0.6-0.8-23.2-29-23.2-29v29c-0.5,0-1-0.1-1.5-0.1c-0.5,0-1,0-1.5,0.1V10.3h2.1l22.1,27.5
	l0.5,0.5v-28c0.7,0,2.4,0,3,0L225.9,46.8z"/>
<path class="st0" d="M314.8,24.9c0-2,1.6-3.6,3.6-3.6c2,0,3.6,1.6,3.6,3.6c0,2-1.6,3.6-3.6,3.6c0,0,0,0,0,0
	C316.5,28.5,314.8,26.9,314.8,24.9C314.8,24.9,314.8,24.9,314.8,24.9 M318.4,27.9c1.7,0.1,3-1.2,3.1-2.9c0.1-1.7-1.2-3-2.9-3.1
	c-1.7-0.1-3,1.2-3.1,2.9c0,0,0,0.1,0,0.1c-0.1,1.6,1.2,2.9,2.8,3C318.3,27.9,318.4,27.9,318.4,27.9 M317.7,26.9H317v-4.1h1.6
	c1,0,1.5,0.4,1.5,1.2c0,0.6-0.4,1.1-1,1.1c0,0,0,0,0,0l1.2,1.8h-0.7l-1.1-1.8h-0.7L317.7,26.9z M318.4,24.6c0.5,0,1,0,1-0.7
	s-0.5-0.6-0.9-0.6h-0.9v1.3H318.4z"/>
<path class="st0" d="M70,20c0-2,1.6-3.6,3.6-3.6c2,0,3.6,1.6,3.6,3.6c0,2-1.6,3.6-3.6,3.6c0,0,0,0,0,0C71.6,23.6,70,22,70,20
	C70,20.1,70,20,70,20 M73.6,23c1.7,0.1,3-1.2,3.1-2.9c0.1-1.7-1.2-3-2.9-3.1c-1.7-0.1-3,1.2-3.1,2.9c0,0,0,0.1,0,0.1
	c-0.1,1.6,1.2,2.9,2.7,3C73.5,23,73.6,23,73.6,23 M72.9,22h-0.6v-4.1h1.6c1,0,1.4,0.4,1.4,1.2c0,0.6-0.4,1.1-1,1.1c0,0,0,0-0.1,0
	l1.2,1.8h-0.7l-1.1-1.8h-0.7L72.9,22z M73.6,19.7c0.5,0,1,0,1-0.7s-0.5-0.6-0.9-0.6h-0.8v1.3H73.6z"/>
<path class="st0" d="M103,82l-4.5-7H95v7h-2.2V64.4h7.1c3.2,0,5.5,2.1,5.5,5.3c0.1,2.7-1.9,5-4.6,5.1l4.8,7.1H103z M103.1,69.7
	c0-1.8-1.4-3.3-3.2-3.4c-0.1,0-0.2,0-0.3,0H95v6.7h4.6c1.8,0.1,3.4-1.3,3.5-3.1C103.1,69.9,103.1,69.8,103.1,69.7L103.1,69.7z"/>
<path class="st0" d="M108.7,82V64.4h2.2V82H108.7z"/>
<path class="st0" d="M113.8,79.5l1.3-1.7c1.4,1.6,3.4,2.5,5.6,2.5c3.1,0,4.1-1.7,4.1-3c0-4.5-10.4-2-10.4-8.3c0-2.9,2.6-4.9,6-4.9
	c2.3-0.1,4.6,0.8,6.2,2.5l-1.3,1.6c-1.3-1.4-3.2-2.2-5.1-2.1c-2.1,0-3.6,1.1-3.6,2.8c0,4,10.4,1.7,10.4,8.3c0,2.6-1.7,5.2-6.5,5.2
	C118,82.5,115.5,81.4,113.8,79.5z"/>
<path class="st0" d="M140.9,82l-6.7-7.9l-1.8,2V82h-2.2V64.4h2.2v9.1l7.8-9.1h2.8l-7.3,8.4l8,9.2L140.9,82z"/>
<path class="st0" d="M151.6,79.5l1.3-1.7c1.4,1.6,3.4,2.5,5.6,2.5c3.1,0,4.1-1.7,4.1-3c0-4.5-10.4-2-10.4-8.3c0-2.9,2.6-4.9,6-4.9
	c2.3-0.1,4.6,0.8,6.3,2.5l-1.3,1.6c-1.3-1.4-3.2-2.2-5.1-2.1c-2.1,0-3.6,1.1-3.6,2.8c0,4,10.4,1.7,10.4,8.3c0,2.6-1.7,5.2-6.5,5.2
	C155.7,82.5,153.3,81.4,151.6,79.5z"/>
<path class="st0" d="M167.2,73.2c0-5.2,3.5-9.1,8.7-9.1s8.7,3.9,8.7,9.1s-3.5,9.1-8.7,9.1S167.2,78.4,167.2,73.2z M182.5,73.2
	c0-4.1-2.5-7.2-6.5-7.2s-6.5,3-6.5,7.2s2.5,7.2,6.5,7.2S182.5,77.3,182.5,73.2z"/>
<path class="st0" d="M188,82V64.4h2.2v15.7h8.2v2L188,82z"/>
<path class="st0" d="M200.6,75.2V64.4h2.2v10.7c0,3.2,1.7,5.2,5,5.2s5-2,5-5.2V64.4h2.2v10.7c0,4.4-2.4,7.2-7.2,7.2
	S200.6,79.5,200.6,75.2z"/>
<path class="st0" d="M223.4,82V66.4h-5.6v-1.9h13.4v1.9h-5.6V82H223.4z"/>
<path class="st0" d="M233.9,82V64.4h2.2V82H233.9z"/>
<path class="st0" d="M239.4,73.2c0-5.2,3.5-9.1,8.7-9.1s8.7,3.9,8.7,9.1s-3.5,9.1-8.7,9.1S239.4,78.4,239.4,73.2z M254.6,73.2
	c0-4.1-2.5-7.2-6.5-7.2s-6.5,3-6.5,7.2s2.5,7.2,6.5,7.2S254.6,77.3,254.6,73.2z"/>
<path class="st0" d="M272.6,82l-10.3-14v14h-2.2V64.4h2.2l10.1,13.8V64.4h2.2V82H272.6z"/>
<path class="st0" d="M277.7,79.5l1.3-1.7c1.4,1.6,3.4,2.5,5.5,2.5c3.1,0,4.1-1.7,4.1-3c0-4.5-10.4-2-10.4-8.3c0-2.9,2.6-4.9,6-4.9
	c2.3-0.1,4.6,0.8,6.2,2.5l-1.3,1.6c-1.3-1.4-3.2-2.2-5.1-2.1c-2.1,0-3.6,1.1-3.6,2.8c0,4,10.4,1.7,10.4,8.3c0,2.6-1.7,5.2-6.5,5.2
	C281.9,82.5,279.4,81.5,277.7,79.5z"/>
<path class="st0" d="M47.8,21L47.8,21c-25.3,7.9-26.4,41.9-13.9,50.8c2.1,0.7,4.3,1.2,6.6,1.4C26,66,25.3,32.2,47.8,21z"/>
<path class="st0" d="M47.4,20c-26.2,1.3-33.8,24.6-29,40.3c1.9,2.8,4.3,5.2,7,7.2C16.8,55.3,19.3,25.7,47.4,20z"/>
<path class="st0" d="M47.1,18.9c-15.6-3.5-27.4,3.7-32.8,14.7c-0.9,3-1.4,6.1-1.4,9.2c0,1.5,0.1,2.9,0.3,4.4
	C15.3,33.2,25.1,18.2,47.1,18.9z"/>
<path class="st0" d="M74.3,42.7c0-16.9-13.7-30.7-30.7-30.7c-2.1,0-4.2,0.2-6.3,0.6c4.5,0.4,8.7,2.1,12.3,4.8
	c0.6-0.2,1.1-0.2,1.7-0.1c0.9,0.1,1.7,0.5,2.3,1.1c2-0.6,4.6-1.4,4.6-1.2S54.9,18.7,54,19l0,0c2.1-0.1,7-0.3,6.9,0s-5.4,0.5-6.7,0.7
	c0,0,0,0.1,0,0.1c3.6,0.8,8.8,2,8.7,2.3s-5.4-0.9-8.7-1.5l0,0c0,0,0,0.1,0,0.1c3.2,1.7,8.7,5,8.5,5.2S57,23,54,21.6l-0.1,0.1
	c2.3,2.3,7.6,7.8,7.3,8s-4.8-4.6-8-7.3c-0.8,0.5-1.7,0.7-2.7,0.6c-0.7-0.1-1.4-0.4-2-0.9C27.7,34.8,34.4,67.7,49,73
	C63.6,70.4,74.3,57.6,74.3,42.7z"/>
<path class="st0" d="M47.5,17.8c-5.1-3-11.1-4-16.9-2.8c-2.9,1.3-5.5,3.1-7.8,5.3C29,16.3,37.5,14.8,47.5,17.8z"/>
<path class="st0" d="M43.6,73.9c-17.2,0-31.2-13.9-31.2-31.2c0-17.2,13.9-31.2,31.2-31.2s31.2,13.9,31.2,31.2c0,0,0,0,0,0
	C74.8,60,60.8,73.9,43.6,73.9z M43.6,12.6c-16.7,0-30.2,13.5-30.2,30.2s13.5,30.2,30.2,30.2c16.7,0,30.2-13.5,30.2-30.2c0,0,0,0,0,0
	C73.7,26.1,60.3,12.6,43.6,12.6z"/>
</svg>
