<?xml version="1.0" encoding="UTF-8"?>
<svg width="146px" height="32px" viewBox="0 0 146 32" version="1.1" xmlns="http://www.w3.org/2000/svg" xmlns:xlink="http://www.w3.org/1999/xlink">
    <title>Moto Black</title>
    <g id="Page-1" stroke="none" stroke-width="1" fill="none" fill-rule="evenodd">
        <g id="Select-fitted-tyre-with-map---desktop-1200px" transform="translate(-256.000000, -20.000000)" fill="#FFFFFF" fill-rule="nonzero">
            <g id="Moto-Black" transform="translate(256.066003, 20.020518)">
                <path d="M91.9069902,0 L96.9059346,0 L96.9059346,19.8733148 L97.0309081,19.8733148 L104.61264,11.4749684 L111.027951,11.4749684 L102.363115,20.4969544 L111.569503,31.431435 L104.945903,31.431435 L97.0309081,21.2037459 L96.9059346,21.2037459 L96.9059346,31.431435 L91.9069902,31.431435 L91.9069902,0 Z M111.822156,11.4749684 L116.821099,11.4749684 L116.821099,31.431435 L111.822156,31.431435 L111.822156,11.4749684 Z M120.281407,0 L125.280351,0 L125.280351,19.8733148 L125.405325,19.8733148 L132.987056,11.4749684 L139.402368,11.4749684 L130.737531,20.4969544 L139.94392,31.431435 L133.32032,31.431435 L125.405325,21.2037459 L125.280351,21.2037459 L125.280351,31.431435 L120.281407,31.431435 L120.281407,0 Z M140.196572,11.4749684 L145.195516,11.4749684 L145.195516,31.431435 L140.196572,31.431435 L140.196572,11.4749684 Z" id="Kiki"></path>
                <path d="M15.2467789,24.6129756 L15.3300947,24.6129756 L24.0365886,1.99564667 L30.4519,1.99564667 L30.4519,31.431435 L26.3277713,31.431435 L26.3277713,6.81845946 L26.2444556,6.81845946 L16.4548571,31.431435 L13.8304115,31.431435 L4.08247087,6.81845946 L3.99915514,6.81845946 L3.99915514,31.431435 L0,31.431435 L0,1.99564667 L6.41531136,1.99564667 L15.2467789,24.6129756 Z M54.9699887,21.5363536 C54.9699887,23.0608136 54.6992152,24.460524 54.1576603,25.7355269 C53.6161054,27.0105297 52.8662713,28.112282 51.9081356,29.0408167 C50.9499998,29.9693513 49.8183058,30.6899943 48.5130194,31.2027672 C47.2077331,31.7155402 45.8052657,31.9719227 44.305575,31.9719227 C42.8058843,31.9719227 41.4034169,31.7155402 40.0981306,31.2027672 C38.7928442,30.6899943 37.6680931,29.9693513 36.7238434,29.0408167 C35.7795937,28.112282 35.0367026,27.0105297 34.4951476,25.7355269 C33.9535926,24.460524 33.6828192,23.0608136 33.6828192,21.5363536 C33.6828192,20.0118938 33.9535926,18.6191126 34.4951476,17.3579684 C35.0367026,16.0968243 35.7795937,15.0089306 36.7238434,14.0942546 C37.6680931,13.1795786 38.7928442,12.4658649 40.0981306,11.953092 C41.4034169,11.4403192 42.8058843,11.1839365 44.305575,11.1839365 C45.8052657,11.1839365 47.2077331,11.4403192 48.5130194,11.953092 C49.8183058,12.4658649 50.9499998,13.1795786 51.9081356,14.0942546 C52.8662713,15.0089306 53.6161054,16.0968243 54.1576603,17.3579684 C54.6992152,18.6191126 54.9699887,20.0118938 54.9699887,21.5363536 Z M50.8875178,21.5363536 C50.8875178,20.5939603 50.7417168,19.6931566 50.4501103,18.8339154 C50.1585037,17.9746744 49.7349864,17.2193851 49.1795453,16.568025 C48.6241043,15.9166648 47.9367564,15.3969704 47.117481,15.008926 C46.2982055,14.6208817 45.3609129,14.4268624 44.305575,14.4268624 C43.2502371,14.4268624 42.3129445,14.6208817 41.4936691,15.008926 C40.6743936,15.3969704 39.9870457,15.9166648 39.4316047,16.568025 C38.8761637,17.2193851 38.4526463,17.9746744 38.1610398,18.8339154 C37.8694333,19.6931566 37.7236322,20.5939603 37.7236322,21.5363536 C37.7236322,22.4787471 37.8694333,23.3795508 38.1610398,24.2387918 C38.4526463,25.0980329 38.8761637,25.8602514 39.4316047,26.5254704 C39.9870457,27.1906892 40.6743936,27.7173129 41.4936691,28.1053573 C42.3129445,28.4934016 43.2502371,28.6874209 44.305575,28.6874209 C45.3609129,28.6874209 46.2982055,28.4934016 47.117481,28.1053573 C47.9367564,27.7173129 48.6241043,27.1906892 49.1795453,26.5254704 C49.7349864,25.8602514 50.1585037,25.0980329 50.4501103,24.2387918 C50.7417168,23.3795508 50.8875178,22.4787471 50.8875178,21.5363536 Z M67.6155855,14.925774 L62.3666945,14.925774 L62.3666945,25.1950392 C62.3666945,26.3868897 62.5888675,27.2391887 63.0332203,27.7519616 C63.4775731,28.2647344 64.1857497,28.521117 65.1577715,28.521117 C65.5188081,28.521117 65.907611,28.4795415 66.3241917,28.3963891 C66.7407725,28.3132367 67.1156895,28.1885101 67.4489541,28.0222053 L67.5739277,31.2235552 C67.1018028,31.38986 66.5810848,31.5215158 66.0117577,31.6185269 C65.4424308,31.715538 64.8522835,31.7640428 64.2412984,31.7640428 C62.3805711,31.7640428 60.9572749,31.2512777 59.9713672,30.2257319 C58.9854594,29.2001861 58.4925129,27.6618905 58.4925129,25.610799 L58.4925129,14.925774 L54.7016471,14.925774 L54.7016471,11.7244242 L58.4925129,11.7244242 L58.4925129,6.07009196 L62.3666945,6.07009196 L62.3666945,11.7244242 L67.6155855,11.7244242 L67.6155855,14.925774 Z M89.2176235,21.5363536 C89.2176235,23.0608136 88.9468501,24.460524 88.4052953,25.7355269 C87.8637404,27.0105297 87.1139059,28.112282 86.1557705,29.0408167 C85.1976351,29.9693513 84.0659408,30.6899943 82.7606541,31.2027672 C81.4553681,31.7155402 80.0529004,31.9719227 78.5532102,31.9719227 C77.0535192,31.9719227 75.6510515,31.7155402 74.3457655,31.2027672 C73.0404795,30.6899943 71.915728,29.9693513 70.9714784,29.0408167 C70.0272287,28.112282 69.2843375,27.0105297 68.7427825,25.7355269 C68.2012275,24.460524 67.9304541,23.0608136 67.9304541,21.5363536 C67.9304541,20.0118938 68.2012275,18.6191126 68.7427825,17.3579684 C69.2843375,16.0968243 70.0272287,15.0089306 70.9714784,14.0942546 C71.915728,13.1795786 73.0404795,12.4658649 74.3457655,11.953092 C75.6510515,11.4403192 77.0535192,11.1839365 78.5532102,11.1839365 C80.0529004,11.1839365 81.4553681,11.4403192 82.7606541,11.953092 C84.0659408,12.4658649 85.1976351,13.1795786 86.1557705,14.0942546 C87.1139059,15.0089306 87.8637404,16.0968243 88.4052953,17.3579684 C88.9468501,18.6191126 89.2176235,20.0118938 89.2176235,21.5363536 Z M85.1351531,21.5363536 C85.1351531,20.5939603 84.9893517,19.6931566 84.6977454,18.8339154 C84.4061383,17.9746744 83.9826215,17.2193851 83.4271802,16.568025 C82.871739,15.9166648 82.1843916,15.3969704 81.3651161,15.008926 C80.5458406,14.6208817 79.6085477,14.4268624 78.5532102,14.4268624 C77.4978719,14.4268624 76.5605797,14.6208817 75.7413042,15.008926 C74.9220287,15.3969704 74.2346806,15.9166648 73.6792393,16.568025 C73.1237988,17.2193851 72.7002812,17.9746744 72.4086747,18.8339154 C72.1170682,19.6931566 71.9712672,20.5939603 71.9712672,21.5363536 C71.9712672,22.4787471 72.1170682,23.3795508 72.4086747,24.2387918 C72.7002812,25.0980329 73.1237988,25.8602514 73.6792393,26.5254704 C74.2346806,27.1906892 74.9220287,27.7173129 75.7413042,28.1053573 C76.5605797,28.4934016 77.4978719,28.6874209 78.5532102,28.6874209 C79.6085477,28.6874209 80.5458406,28.4934016 81.3651161,28.1053573 C82.1843916,27.7173129 82.871739,27.1906892 83.4271802,26.5254704 C83.9826215,25.8602514 84.4061383,25.0980329 84.6977454,24.2387918 C84.9893517,23.3795508 85.1351531,22.4787471 85.1351531,21.5363536 Z" id="Moto"></path>
                <path d="M111.113972,4.69808487 C111.113972,3.89427872 111.412517,3.19442352 112.009616,2.59849827 C112.606715,2.00257302 113.363492,1.70461487 114.27997,1.70461487 C115.196447,1.70461487 115.96711,1.98871451 116.591982,2.5569223 C117.216852,3.1251301 117.529283,3.83884382 117.529283,4.69808487 C117.529283,5.55732593 117.216852,6.27103965 116.591982,6.83924745 C115.96711,7.40745524 115.196447,7.69155488 114.27997,7.69155488 C113.363492,7.69155488 112.606715,7.39359676 112.009616,6.79767147 C111.412517,6.20174622 111.113972,5.50189103 111.113972,4.69808487 Z M139.488389,4.69808487 C139.488389,3.89427872 139.786934,3.19442352 140.384033,2.59849827 C140.981132,2.00257302 141.737909,1.70461487 142.654387,1.70461487 C143.570864,1.70461487 144.341527,1.98871451 144.966398,2.5569223 C145.591269,3.1251301 145.9037,3.83884382 145.9037,4.69808487 C145.9037,5.55732593 145.591269,6.27103965 144.966398,6.83924745 C144.341527,7.40745524 143.570864,7.69155488 142.654387,7.69155488 C141.737909,7.69155488 140.981132,7.39359676 140.384033,6.79767147 C139.786934,6.20174622 139.488389,5.50189103 139.488389,4.69808487 Z" id="dots"></path>
            </g>
        </g>
    </g>
</svg>