<?xml version="1.0" encoding="UTF-8"?>
<svg width="126px" height="27px" viewBox="0 0 126 27" version="1.1" xmlns="http://www.w3.org/2000/svg" xmlns:xlink="http://www.w3.org/1999/xlink">
    <!-- Generator: Sketch 57.1 (83088) - https://sketch.com -->
    <title>Artboard</title>
    <desc>Created with Sketch.</desc>
    <g id="Artboard" stroke="none" stroke-width="1" fill="none" fill-rule="evenodd">
        <g id="logo" transform="translate(0.000000, 3.000000)" fill-rule="nonzero">
            <path d="M0.6,4.66 L3.3,4.66 L3.3,6.58 L3.34,6.58 C3.473334,6.2599984 3.6533322,5.9633347 3.88,5.69 C4.1066678,5.4166653 4.3666652,5.1833343 4.66,4.99 C4.9533348,4.7966657 5.266665,4.6466672 5.6,4.54 C5.933335,4.4333328 6.2799982,4.38 6.64,4.38 C6.8266676,4.38 7.0333322,4.413333 7.26,4.48 L7.26,7.12 C7.126666,7.0933332 6.9666676,7.0700001 6.78,7.05 C6.5933324,7.0299999 6.4133342,7.02 6.24,7.02 C5.7199974,7.02 5.2800018,7.1066658 4.92,7.28 C4.5599982,7.4533342 4.2700011,7.6899985 4.05,7.99 C3.8299989,8.2900015 3.6733338,8.639998 3.58,9.04 C3.4866662,9.440002 3.44,9.873331 3.44,10.34 L3.44,15 L0.6,15 L0.6,4.66 Z M8.38,0.72 L11.22,0.72 L11.22,6.1 L11.28,6.1 C11.6400018,5.499997 12.0999972,5.0633347 12.66,4.79 C13.2200028,4.5166653 13.766664,4.38 14.3,4.38 C15.0600038,4.38 15.6833309,4.4833323 16.17,4.69 C16.6566691,4.8966677 17.0399986,5.1833315 17.32,5.55 C17.6000014,5.9166685 17.7966661,6.3633307 17.91,6.89 C18.0233339,7.4166693 18.08,7.9999968 18.08,8.64 L18.08,15 L15.24,15 L15.24,9.16 C15.24,8.3066624 15.106668,7.6700021 14.84,7.25 C14.573332,6.8299979 14.1000034,6.62 13.42,6.62 C12.6466628,6.62 12.0866684,6.8499977 11.74,7.31 C11.3933316,7.7700023 11.22,8.5266614 11.22,9.58 L11.22,15 L8.38,15 L8.38,0.72 Z M22.76,9.84 C22.76,10.2533354 22.7999996,10.6566647 22.88,11.05 C22.9600004,11.4433353 23.0966657,11.7966651 23.29,12.11 C23.4833343,12.4233349 23.7399984,12.6733324 24.06,12.86 C24.3800016,13.0466676 24.7799976,13.14 25.26,13.14 C25.7400024,13.14 26.1433317,13.0466676 26.47,12.86 C26.7966683,12.6733324 27.0566657,12.4233349 27.25,12.11 C27.4433343,11.7966651 27.5799996,11.4433353 27.66,11.05 C27.7400004,10.6566647 27.78,10.2533354 27.78,9.84 C27.78,9.4266646 27.7400004,9.02 27.66,8.62 C27.5799996,8.219998 27.4433343,7.8666682 27.25,7.56 C27.0566657,7.2533318 26.7966683,7.0033343 26.47,6.81 C26.1433317,6.6166657 25.7400024,6.52 25.26,6.52 C24.7799976,6.52 24.3800016,6.6166657 24.06,6.81 C23.7399984,7.0033343 23.4833343,7.2533318 23.29,7.56 C23.0966657,7.8666682 22.9600004,8.219998 22.88,8.62 C22.7999996,9.02 22.76,9.4266646 22.76,9.84 Z M19.92,9.84 C19.92,9.0133292 20.0466654,8.2633367 20.3,7.59 C20.5533346,6.9166633 20.913331,6.3433357 21.38,5.87 C21.846669,5.3966643 22.4066634,5.0300013 23.06,4.77 C23.7133366,4.5099987 24.4466626,4.38 25.26,4.38 C26.0733374,4.38 26.8099967,4.5099987 27.47,4.77 C28.1300033,5.0300013 28.693331,5.3966643 29.16,5.87 C29.626669,6.3433357 29.9866654,6.9166633 30.24,7.59 C30.4933346,8.2633367 30.62,9.0133292 30.62,9.84 C30.62,10.6666708 30.4933346,11.41333 30.24,12.08 C29.9866654,12.74667 29.626669,13.3166643 29.16,13.79 C28.693331,14.2633357 28.1300033,14.6266654 27.47,14.88 C26.8099967,15.1333346 26.0733374,15.26 25.26,15.26 C24.4466626,15.26 23.7133366,15.1333346 23.06,14.88 C22.4066634,14.6266654 21.846669,14.2633357 21.38,13.79 C20.913331,13.3166643 20.5533346,12.74667 20.3,12.08 C20.0466654,11.41333 19.92,10.6666708 19.92,9.84 Z M39.8,9.8 C39.8,9.3733312 39.7600004,8.9633353 39.68,8.57 C39.5999996,8.1766647 39.4633343,7.8300015 39.27,7.53 C39.0766657,7.2299985 38.8266682,6.9866676 38.52,6.8 C38.2133318,6.6133324 37.826669,6.52 37.36,6.52 C36.893331,6.52 36.5000016,6.6133324 36.18,6.8 C35.86,6.9866676 35.6033343,7.2333318 35.41,7.54 C35.2166657,7.8466682 35.0766671,8.1966647 34.99,8.59 C34.9033329,8.9833353 34.86,9.3933312 34.86,9.82 C34.86,10.220002 34.9066662,10.619998 35,11.02 C35.0933338,11.420002 35.2433323,11.7766651 35.45,12.09 C35.6566677,12.4033349 35.9166651,12.6566657 36.23,12.85 C36.5433349,13.0433343 36.9199978,13.14 37.36,13.14 C37.826669,13.14 38.2166651,13.0466676 38.53,12.86 C38.8433349,12.6733324 39.0933324,12.4233349 39.28,12.11 C39.4666676,11.7966651 39.5999996,11.440002 39.68,11.04 C39.7600004,10.639998 39.8,10.2266688 39.8,9.8 Z M39.84,13.68 L39.8,13.68 C39.466665,14.2400028 39.0300027,14.6433321 38.49,14.89 C37.9499973,15.1366679 37.3400034,15.26 36.66,15.26 C35.8866628,15.26 35.2066696,15.1100015 34.62,14.81 C34.0333304,14.5099985 33.5500019,14.1033359 33.17,13.59 C32.7899981,13.0766641 32.5033343,12.48667 32.31,11.82 C32.1166657,11.15333 32.02,10.4600036 32.02,9.74 C32.02,9.0466632 32.1166657,8.3766699 32.31,7.73 C32.5033343,7.0833301 32.7899981,6.5133358 33.17,6.02 C33.5500019,5.5266642 34.0266638,5.1300015 34.6,4.83 C35.1733362,4.5299985 35.8399962,4.38 36.6,4.38 C37.2133364,4.38 37.7966639,4.5099987 38.35,4.77 C38.9033361,5.0300013 39.3399984,5.4133308 39.66,5.92 L39.7,5.92 L39.7,0.72 L42.54,0.72 L42.54,15 L39.84,15 L39.84,13.68 Z M44.68,4.66 L47.38,4.66 L47.38,6.58 L47.42,6.58 C47.553334,6.2599984 47.7333322,5.9633347 47.96,5.69 C48.1866678,5.4166653 48.4466652,5.1833343 48.74,4.99 C49.0333348,4.7966657 49.346665,4.6466672 49.68,4.54 C50.013335,4.4333328 50.3599982,4.38 50.72,4.38 C50.9066676,4.38 51.1133322,4.413333 51.34,4.48 L51.34,7.12 C51.206666,7.0933332 51.0466676,7.0700001 50.86,7.05 C50.6733324,7.0299999 50.4933342,7.02 50.32,7.02 C49.7999974,7.02 49.3600018,7.1066658 49,7.28 C48.6399982,7.4533342 48.3500011,7.6899985 48.13,7.99 C47.9099989,8.2900015 47.7533338,8.639998 47.66,9.04 C47.5666662,9.440002 47.52,9.873331 47.52,10.34 L47.52,15 L44.68,15 L44.68,4.66 Z M55.38,3.06 L52.54,3.06 L52.54,0.72 L55.38,0.72 L55.38,3.06 Z M52.54,4.66 L55.38,4.66 L55.38,15 L52.54,15 L52.54,4.66 Z M62.44,12.56 C62.840002,12.56 63.1933318,12.4800008 63.5,12.32 C63.8066682,12.1599992 64.059999,11.946668 64.26,11.68 C64.460001,11.413332 64.6099995,11.1100017 64.71,10.77 C64.8100005,10.4299983 64.86,10.0733352 64.86,9.7 C64.86,9.2733312 64.8200004,8.8700019 64.74,8.49 C64.6599996,8.1099981 64.5266676,7.7733348 64.34,7.48 C64.1533324,7.1866652 63.9066682,6.9533342 63.6,6.78 C63.2933318,6.6066658 62.906669,6.52 62.44,6.52 C62.039998,6.52 61.6966681,6.5999992 61.41,6.76 C61.1233319,6.9200008 60.8833343,7.1366653 60.69,7.41 C60.4966657,7.6833347 60.3566671,7.9966649 60.27,8.35 C60.1833329,8.7033351 60.14,9.0733314 60.14,9.46 C60.14,9.8333352 60.1766663,10.2033315 60.25,10.57 C60.3233337,10.9366685 60.4499991,11.2666652 60.63,11.56 C60.8100009,11.8533348 61.0466652,12.0933324 61.34,12.28 C61.6333348,12.4666676 61.9999978,12.56 62.44,12.56 Z M67.56,14.34 C67.56,14.7533354 67.5033339,15.226664 67.39,15.76 C67.2766661,16.293336 67.0333352,16.7899977 66.66,17.25 C66.2866648,17.7100023 65.7466702,18.0999984 65.04,18.42 C64.3333298,18.7400016 63.3866726,18.9 62.2,18.9 C61.6933308,18.9 61.1766693,18.8366673 60.65,18.71 C60.1233307,18.5833327 59.6433355,18.386668 59.21,18.12 C58.7766645,17.853332 58.4166681,17.5100021 58.13,17.09 C57.8433319,16.6699979 57.6800002,16.1666696 57.64,15.58 L60.46,15.58 C60.593334,16.113336 60.8533314,16.4833323 61.24,16.69 C61.6266686,16.8966677 62.0733308,17 62.58,17 C63.380004,17 63.9633315,16.7600024 64.33,16.28 C64.6966685,15.7999976 64.8733334,15.193337 64.86,14.46 L64.86,13.1 L64.82,13.1 C64.5133318,13.6466694 64.0766695,14.0499987 63.51,14.31 C62.9433305,14.5700013 62.3466698,14.7 61.72,14.7 C60.9466628,14.7 60.2800028,14.5633347 59.72,14.29 C59.1599972,14.0166653 58.7000018,13.6433357 58.34,13.17 C57.9799982,12.6966643 57.7166675,12.1433365 57.55,11.51 C57.3833325,10.8766635 57.3,10.2066702 57.3,9.5 C57.3,8.83333 57.3966657,8.1900031 57.59,7.57 C57.7833343,6.9499969 58.0666648,6.4033357 58.44,5.93 C58.8133352,5.4566643 59.2766639,5.0800014 59.83,4.8 C60.3833361,4.5199986 61.0199964,4.38 61.74,4.38 C62.4200034,4.38 63.0166641,4.5066654 63.53,4.76 C64.0433359,5.0133346 64.4733316,5.439997 64.82,6.04 L64.86,6.04 L64.86,4.66 L67.56,4.66 L67.56,14.34 Z M69.84,4.66 L72.54,4.66 L72.54,6.58 L72.58,6.58 C72.713334,6.2599984 72.8933322,5.9633347 73.12,5.69 C73.3466678,5.4166653 73.6066652,5.1833343 73.9,4.99 C74.1933348,4.7966657 74.506665,4.6466672 74.84,4.54 C75.173335,4.4333328 75.5199982,4.38 75.88,4.38 C76.0666676,4.38 76.2733322,4.413333 76.5,4.48 L76.5,7.12 C76.366666,7.0933332 76.2066676,7.0700001 76.02,7.05 C75.8333324,7.0299999 75.6533342,7.02 75.48,7.02 C74.9599974,7.02 74.5200018,7.1066658 74.16,7.28 C73.7999982,7.4533342 73.5100011,7.6899985 73.29,7.99 C73.0699989,8.2900015 72.9133338,8.639998 72.82,9.04 C72.7266662,9.440002 72.68,9.873331 72.68,10.34 L72.68,15 L69.84,15 L69.84,4.66 Z M80.54,3.06 L77.7,3.06 L77.7,0.72 L80.54,0.72 L80.54,3.06 Z M77.7,4.66 L80.54,4.66 L80.54,15 L77.7,15 L77.7,4.66 Z M89.46,6.56 L86.24,6.56 L86.24,15 L83.4,15 L83.4,6.56 L81.7,6.56 L81.7,4.66 L83.4,4.66 L83.4,3.86 C83.4,2.9399954 83.6866638,2.1866696 84.26,1.6 C84.8333362,1.0133304 85.7,0.72 86.86,0.72 C87.1133346,0.72 87.3666654,0.7299999 87.62,0.75 C87.8733346,0.7700001 88.1199988,0.7866666 88.36,0.8 L88.36,2.92 C88.0133316,2.8799998 87.6666684,2.86 87.32,2.86 C86.9333314,2.86 86.6566675,2.9499991 86.49,3.13 C86.3233325,3.3100009 86.24,3.6133312 86.24,4.04 L86.24,4.66 L89.46,4.66 L89.46,3.86 C89.46,2.9399954 89.7466638,2.1866696 90.32,1.6 C90.8933362,1.0133304 91.7599942,0.72 92.92,0.72 C93.1733346,0.72 93.4266654,0.7299999 93.68,0.75 C93.9333346,0.7700001 94.1799988,0.7866666 94.42,0.8 L94.42,2.92 C94.0733316,2.8799998 93.7266684,2.86 93.38,2.86 C92.9933314,2.86 92.7166675,2.9499991 92.55,3.13 C92.3833325,3.3100009 92.3,3.6133312 92.3,4.04 L92.3,4.66 L94.26,4.66 L94.26,6.56 L92.3,6.56 L92.3,15 L89.46,15 L89.46,6.56 Z M98.42,3.06 L95.58,3.06 L95.58,0.72 L98.42,0.72 L98.42,3.06 Z M95.58,4.66 L98.42,4.66 L98.42,15 L95.58,15 L95.58,4.66 Z M104.26,4.66 L106.34,4.66 L106.34,6.56 L104.26,6.56 L104.26,11.68 C104.26,12.1600024 104.339999,12.4799992 104.5,12.64 C104.660001,12.8000008 104.979998,12.88 105.46,12.88 C105.620001,12.88 105.773333,12.8733334 105.92,12.86 C106.066667,12.8466666 106.206666,12.8266668 106.34,12.8 L106.34,15 C106.099999,15.0400002 105.833335,15.0666666 105.54,15.08 C105.246665,15.0933334 104.960001,15.1 104.68,15.1 C104.239998,15.1 103.823335,15.0700003 103.43,15.01 C103.036665,14.9499997 102.690002,14.8333342 102.39,14.66 C102.089998,14.4866658 101.853334,14.2400016 101.68,13.92 C101.506666,13.5999984 101.42,13.1800026 101.42,12.66 L101.42,6.56 L99.7,6.56 L99.7,4.66 L101.42,4.66 L101.42,1.56 L104.26,1.56 L104.26,4.66 Z M107.7,0.72 L110.54,0.72 L110.54,6.1 L110.6,6.1 C110.960002,5.499997 111.419997,5.0633347 111.98,4.79 C112.540003,4.5166653 113.086664,4.38 113.62,4.38 C114.380004,4.38 115.003331,4.4833323 115.49,4.69 C115.976669,4.8966677 116.359999,5.1833315 116.64,5.55 C116.920001,5.9166685 117.116666,6.3633307 117.23,6.89 C117.343334,7.4166693 117.4,7.9999968 117.4,8.64 L117.4,15 L114.56,15 L114.56,9.16 C114.56,8.3066624 114.426668,7.6700021 114.16,7.25 C113.893332,6.8299979 113.420003,6.62 112.74,6.62 C111.966663,6.62 111.406668,6.8499977 111.06,7.31 C110.713332,7.7700023 110.54,8.5266614 110.54,9.58 L110.54,15 L107.7,15 L107.7,0.72 Z" id="rhodrigrifth" fill="#222222"></path>
            <rect id="Rectangle" fill="#16A0D6" x="121" y="11" width="4" height="4"></rect>
        </g>
    </g>
</svg>