<?xml version="1.0" encoding="utf-8"?>
<!-- Generator: Adobe Illustrator 24.1.3, SVG Export Plug-In . SVG Version: 6.00 Build 0)  -->
<svg version="1.1" id="Layer_1" xmlns="http://www.w3.org/2000/svg" xmlns:xlink="http://www.w3.org/1999/xlink" x="0px" y="0px"
	 viewBox="0 0 228 150.6" style="enable-background:new 0 0 228 150.6;" xml:space="preserve">
<style type="text/css">
	.st0{opacity:0.2;}
	.st1{fill:#FFFFFF;}
	.st2{fill:#EE020A;}
	.st3{opacity:0.25;}
	.st4{fill:none;stroke:#FFFFFF;stroke-miterlimit:10;}
</style>
<desc>Created with Sketch.</desc>
<desc>Created with Sketch.</desc>
<desc>Created with Sketch.</desc>
<g class="st0">
	<path class="st1" d="M208.9,135.1c0,2.2-1.8,4-4,4H22.2c-2.2,0-4-1.8-4-4V17.7c0-2.2,1.8-4,4-4h182.7c2.2,0,4,1.8,4,4V135.1z"/>
</g>
<g>
	<g>
		<g>
			<path d="M204.9,21.8c2.2,0,4-1.8,4-4v-0.1c0-2.2-1.8-4-4-4H22.2c-2.2,0-4,1.8-4,4v0.1c0,2.2,1.8,4,4,4H204.9z"/>
		</g>
		<rect x="18.2" y="17.8" width="4" height="4"/>
	</g>
	<rect x="205" y="17.8" width="4" height="4"/>
</g>
<circle class="st1" cx="24.1" cy="17.8" r="1.4"/>
<circle class="st1" cx="29.4" cy="17.8" r="1.4"/>
<circle class="st1" cx="34.5" cy="17.8" r="1.4"/>
<rect x="18.2" y="21.8" class="st1" width="190.7" height="15.7"/>
<circle class="st2" cx="26.2" cy="29.7" r="3.4"/>
<rect x="32.2" y="28.2" width="19.3" height="3"/>
<g class="st3">
	<path class="st4" d="M145.1,115.4c0,1.7-1.4,3-3,3H85.9c-1.6,0-3-1.3-3-3V57.5c0-1.7,1.4-3,3-3h56.2c1.6,0,3,1.3,3,3V115.4z"/>
</g>
<rect x="89.5" y="61.9" width="21.5" height="4"/>
<rect x="89.5" y="108.6" width="35" height="2.8"/>
<g>
	<path class="st1" d="M137.3,71.6v6.4H90.5v-6.4H137.3 M137.3,70.6H90.5c-0.6,0-1,0.5-1,1v6.4c0,0.5,0.4,1,1,1h46.9c0.5,0,1-0.5,1-1
		v-6.4C138.3,71.1,137.9,70.6,137.3,70.6L137.3,70.6z"/>
</g>
<g>
	<path class="st1" d="M137.3,84.2v6.4H90.5v-6.4H137.3 M137.3,83.2H90.5c-0.6,0-1,0.5-1,1v6.4c0,0.6,0.4,1,1,1h46.9c0.5,0,1-0.4,1-1
		v-6.4C138.3,83.6,137.9,83.2,137.3,83.2L137.3,83.2z"/>
</g>
<g>
	<path class="st1" d="M138.4,102.3c0,0.5-0.4,1-1,1H90.5c-0.6,0-1-0.5-1-1v-5.1c0-0.6,0.4-1,1-1h46.9c0.6,0,1,0.4,1,1V102.3z"/>
</g>
<rect x="107.4" y="98.5" class="st2" width="13" height="2.4"/>
</svg>
