<?xml version="1.0" encoding="utf-8"?>
<!-- Generator: Adobe Illustrator 25.2.3, SVG Export Plug-In . SVG Version: 6.00 Build 0)  -->
<svg version="1.1" id="Layer_1" xmlns="http://www.w3.org/2000/svg" xmlns:xlink="http://www.w3.org/1999/xlink" x="0px" y="0px"
	 viewBox="0 0 200 133.4" style="enable-background:new 0 0 200 133.4;" xml:space="preserve">
<style type="text/css">
	.st0{fill:#010101;}
	.st1{fill:#25BAAF;}
</style>
<path class="st0" d="M39.8,59.6L29.1,44.2H17.3v15.4H4.5V4.3h24c4.4-0.1,8.7,0.7,12.8,2.5c3.4,1.5,6.3,3.9,8.3,7
	c2,3.2,3,6.9,2.9,10.7c0.1,3.8-1,7.5-3,10.6c-2.1,3.1-5,5.4-8.4,6.8l12.4,17.8L39.8,59.6z M36.5,17.2c-2-1.7-4.9-2.5-8.8-2.5H17.3
	V34h10.4c3.9,0,6.8-0.8,8.8-2.5c2-1.8,3.1-4.4,3-7.1C39.7,21.6,38.6,19,36.5,17.2z"/>
<path class="st0" d="M100,31.1h11.7v22.5c-3.1,2.3-6.7,4.1-10.4,5.2c-3.9,1.2-7.9,1.8-11.9,1.8c-5.4,0.1-10.7-1.2-15.5-3.7
	C69.3,54.6,65.6,51,63,46.7c-2.6-4.5-4-9.5-3.9-14.7C59,26.8,60.4,21.7,63,17.2c2.6-4.3,6.4-7.9,10.9-10.2
	c4.8-2.5,10.2-3.8,15.7-3.7c4.5-0.1,9,0.8,13.2,2.5c3.9,1.5,7.3,4,10,7.1l-8.2,7.6c-3.7-4-8.9-6.3-14.3-6.2
	c-3.3-0.1-6.5,0.7-9.4,2.2c-2.7,1.4-4.9,3.6-6.4,6.2c-1.6,2.8-2.4,6-2.3,9.3c-0.1,3.2,0.7,6.4,2.3,9.2c1.5,2.7,3.7,4.8,6.4,6.3
	c2.9,1.5,6.1,2.3,9.3,2.2c3.5,0.1,6.9-0.8,10-2.4L100,31.1z"/>
<path class="st1" d="M122.7,58.1c-1.5-1.5-2.3-3.5-2.2-5.5c-0.1-2.1,0.7-4.1,2.2-5.5c3.1-2.8,7.8-2.8,10.9,0
	c1.5,1.4,2.3,3.4,2.2,5.5c0,4.3-3.4,7.7-7.7,7.8C126.2,60.3,124.2,59.5,122.7,58.1L122.7,58.1z"/>
<path class="st0" d="M10.6,124.3C6.2,120,4,113.7,4,105.6v-31h12.8v30.5c0,9.9,4.1,14.9,12.3,14.9c4,0,7.1-1.2,9.2-3.6
	c2.1-2.4,3.2-6.2,3.2-11.3V74.6h12.7v31c0,8.1-2.2,14.4-6.6,18.8S37,131,29.1,131C21.2,130.9,15,128.7,10.6,124.3z"/>
<path class="st0" d="M100.9,130l-13.4-19.3L74.4,130H59.7l20.5-28.2L60.7,74.6h14.6l12.7,18l12.5-18h13.8L95,101.3l20.6,28.7H100.9z
	"/>
<path class="st0" d="M120.8,74.6H146c5.5-0.1,11,1.1,16,3.4c4.4,2.1,8.2,5.5,10.8,9.7c2.6,4.4,4,9.4,3.8,14.6
	c0.1,5.1-1.2,10.2-3.8,14.6c-2.6,4.2-6.3,7.6-10.8,9.7c-5,2.4-10.5,3.6-16,3.4h-25.2V74.6z M145.3,119.4c5.5,0,10-1.5,13.2-4.6
	s4.9-7.3,4.9-12.5c0-5.3-1.6-9.5-4.9-12.5s-7.7-4.6-13.2-4.6h-11.7v34.3L145.3,119.4L145.3,119.4z"/>
<path class="st1" d="M182.9,128.4c-1.5-1.5-2.3-3.5-2.2-5.5c-0.1-2.1,0.7-4.1,2.2-5.5c3.1-2.8,7.8-2.8,10.9,0
	c1.5,1.4,2.3,3.4,2.2,5.5c0,4.3-3.4,7.7-7.7,7.8C186.3,130.6,184.3,129.8,182.9,128.4z"/>
</svg>
