<?xml version="1.0" encoding="UTF-8"?>
<svg width="512px" height="513px" viewBox="0 0 512 513" version="1.1" xmlns="http://www.w3.org/2000/svg" xmlns:xlink="http://www.w3.org/1999/xlink">
    <title>Shape</title>
    <g id="Page-1" stroke="none" stroke-width="1" fill="none" fill-rule="evenodd">
        <g id="palette" transform="translate(0.004726, 0.028805)" fill="#FFFFFF" fill-rule="nonzero">
            <path d="M127.995274,223.971195 C110.295274,223.971195 95.9952738,238.271195 95.9952738,255.971195 C95.9952738,273.671195 110.295274,287.971195 127.995274,287.971195 C145.695274,287.971195 159.995274,273.671195 159.995274,255.971195 C159.995274,238.271195 145.595274,223.971195 127.995274,223.971195 Z M418.595274,58.0711947 C359.195274,9.27119465 281.295274,-10.0288053 204.595274,4.97119465 C104.895274,24.3711947 24.6952738,104.171195 5.09527378,203.671195 C-11.6047262,287.871195 13.1952738,371.971195 72.8952738,434.271195 C120.195274,483.671195 182.595274,512.071195 240.795274,512.071195 C249.595274,512.071195 258.295274,511.471195 266.895274,510.071195 C291.095274,506.371195 311.495274,491.371195 322.995274,468.971195 C335.295274,444.971195 335.295274,416.271195 323.195274,392.371195 C317.095274,380.371195 317.695274,366.171195 324.995274,354.371195 C331.995274,342.571195 343.695274,335.971195 356.995274,335.971195 L429.195274,335.971195 C475.595274,335.971195 511.995274,300.271195 511.995274,254.671195 C511.795274,178.271195 477.695274,106.571195 418.595274,58.0711947 L418.595274,58.0711947 Z M429.195274,287.971195 L356.995274,287.971195 C327.095274,287.971195 299.795274,303.371195 283.995274,329.271195 C267.995274,355.371195 266.695274,387.071195 280.395274,414.171195 C285.495274,424.271195 285.495274,436.871195 280.195274,447.071195 C277.595274,452.071195 271.495274,460.771195 259.595274,462.671195 C210.295274,470.371195 150.695274,446.071195 107.595274,401.071195 C58.7952738,350.171195 38.5952738,281.671195 52.1952738,213.071195 C68.0952738,132.471195 132.995274,67.7711947 213.795274,52.0711947 C276.395274,39.7711947 339.895274,55.5711947 388.095274,95.1711947 C436.195274,134.671195 463.795274,192.771195 463.995274,254.771195 C463.995274,273.371195 448.695274,287.971195 429.195274,287.971195 Z M159.995274,127.971195 C142.295274,127.971195 127.995274,142.271195 127.995274,159.971195 C127.995274,177.671195 142.295274,191.971195 159.995274,191.971195 C177.695274,191.971195 191.995274,177.671195 191.995274,159.971195 C191.995274,142.271195 177.595274,127.971195 159.995274,127.971195 Z M255.995274,95.8711947 C238.295274,95.8711947 223.995274,110.171195 223.995274,127.871195 C223.995274,145.571195 238.295274,159.871195 255.995274,159.871195 C273.695274,159.871195 287.995274,145.571195 287.995274,127.871195 C287.995274,110.271195 273.695274,95.8711947 255.995274,95.8711947 Z M351.995274,127.971195 C334.295274,127.971195 319.995274,142.271195 319.995274,159.971195 C319.995274,177.671195 334.295274,191.971195 351.995274,191.971195 C369.695274,191.971195 383.995274,177.671195 383.995274,159.971195 C383.995274,142.271195 369.695274,127.971195 351.995274,127.971195 Z" id="Shape"></path>
        </g>
    </g>
</svg>