<?xml version="1.0" encoding="UTF-8"?>
<svg width="184px" height="129px" viewBox="0 0 184 129" version="1.1" xmlns="http://www.w3.org/2000/svg" xmlns:xlink="http://www.w3.org/1999/xlink">
    <!-- Generator: Sketch 58 (84663) - https://sketch.com -->
    <title>Group</title>
    <desc>Created with Sketch.</desc>
    <g id="Page-1" stroke="none" stroke-width="1" fill="none" fill-rule="evenodd">
        <g id="Artboard" transform="translate(-464.000000, -322.000000)">
            <g id="Group" transform="translate(463.500000, 322.000000)">
                <path d="M91,0 C91.1673782,0 91.3343096,0.0019126474 91.5007737,0.00571727846 L91.5007737,42.9942827 C91.3343096,42.9980874 91.1673782,43 91,43 C79.1258779,43 69.5,33.3741221 69.5,21.5 C69.5,9.62587788 79.1258779,0 91,0 Z" id="Combined-Shape" fill="#FF2750"></path>
                <path d="M139,85.5 C139.167378,85.5 139.33431,85.5019126 139.500774,85.5057173 L139.500774,128.494283 C139.33431,128.498087 139.167378,128.5 139,128.5 C127.125878,128.5 117.5,118.874122 117.5,107 C117.5,95.1258779 127.125878,85.5 139,85.5 Z" id="Combined-Shape" fill="#012D53"></path>
                <path d="M67,43 C67.1673782,43 67.3343096,43.0019126 67.5007737,43.0057173 L67.5007737,85.9942827 C67.3343096,85.9980874 67.1673782,86 67,86 C55.1258779,86 45.5,76.3741221 45.5,64.5 C45.5,52.6258779 55.1258779,43 67,43 Z" id="Combined-Shape" fill="#FFDF00" transform="translate(56.500387, 64.500000) scale(-1, 1) translate(-56.500387, -64.500000) "></path>
                <path d="M171.499613,10 C171.666991,10 171.833923,10.0019126 172.000387,10.0057173 L172.000387,52.9942827 C171.833923,52.9980874 171.666991,53 171.499613,53 C159.625491,53 149.999613,43.3741221 149.999613,31.5 C149.999613,19.6258779 159.625491,10 171.499613,10 Z" id="Combined-Shape" fill="#FFDF00" transform="translate(161.000000, 31.500000) scale(-1, 1) rotate(90.000000) translate(-161.000000, -31.500000) "></path>
                <rect id="Rectangle" fill="#FFFFFF" x="23.5" y="0" width="22" height="43"></rect>
                <rect id="Rectangle" fill="#FFFFFF" transform="translate(23.000000, 97.000000) rotate(90.000000) translate(-23.000000, -97.000000) " x="12" y="74.5" width="22" height="45"></rect>
                <rect id="Rectangle" fill="#FF2750" transform="translate(162.000000, 96.500000) rotate(90.000000) translate(-162.000000, -96.500000) " x="151" y="74" width="22" height="45"></rect>
                <polygon id="Rectangle" fill="#FFFFFF" points="91.5 0 134.5 0 91.5 43"></polygon>
                <polygon id="Rectangle" fill="#FFDF00" points="139.5 42.5 182.5 42.5 139.5 85.5"></polygon>
                <polygon id="Rectangle" fill="#FFDF00" transform="translate(70.000000, 107.500000) scale(-1, -1) translate(-70.000000, -107.500000) " points="48.5 86 91.5 86 48.5 129"></polygon>
            </g>
        </g>
    </g>
</svg>