<?xml version="1.0" encoding="UTF-8"?>
<svg width="23px" height="18px" viewBox="0 0 23 18" version="1.1" xmlns="http://www.w3.org/2000/svg" xmlns:xlink="http://www.w3.org/1999/xlink">
    <!-- Generator: Sketch 57.1 (83088) - https://sketch.com -->
    <title>twitter</title>
    <desc>Created with Sketch.</desc>
    <g id="Page-1" stroke="none" stroke-width="1" fill="none" fill-rule="evenodd">
        <g id="twitter" fill="#030F1E" fill-rule="nonzero">
            <path d="M7.23304,18 C15.91232,18 20.65952,11.0743224 20.65952,5.068406 C20.65952,4.87169408 20.65952,4.67586823 20.64572,4.48092849 C21.5692449,3.83754834 22.3664471,3.04092576 23,2.12836017 C22.1387688,2.49591178 21.2251629,2.736952 20.28968,2.8434346 C21.2747644,2.27543518 22.0120337,1.38207055 22.36428,0.329597951 C21.4379849,0.858996982 20.4245944,1.23209103 19.36784,1.43277971 C17.9051162,-0.0652487171 15.5808618,-0.431896441 13.6983853,0.538431522 C11.8159089,1.50875949 10.843373,3.57474729 11.32612,5.57790761 C7.53194407,5.39470815 3.99691772,3.66867062 1.6008,0.829352569 C0.348332937,2.90603217 0.988068853,5.56271957 3.06176,6.89640919 C2.3108019,6.87497249 1.57621702,6.67986053 0.92,6.32753956 C0.92,6.34614743 0.92,6.36564142 0.92,6.38513539 C0.920614682,8.54860593 2.50401136,10.4120015 4.7058,10.8403947 C4.01108002,11.0228761 3.28217414,11.0495511 2.57508,10.9183706 C3.19327209,12.7697868 4.96484859,14.0381011 6.98372,14.0746223 C5.31275623,15.3394552 3.24857476,16.0260824 1.12332,16.0240199 C0.747871284,16.0233256 0.372787741,16.0014312 0,15.9584492 C2.15798507,17.2922593 4.66892032,17.9997491 7.23304,17.9964556" id="Path"></path>
        </g>
    </g>
</svg>
